<svg width="674" height="51" viewBox="0 0 674 51" fill="none" xmlns="http://www.w3.org/2000/svg">
<path d="M12.3051 16.09V19.735C13.8051 21.715 17.8701 27.715 18.8301 29.155C18.4551 29.74 18.0201 30.34 16.7901 31.885C15.9801 30.175 13.9551 26.695 12.2901 23.965V50.47H8.97507V24.07C7.10007 30.34 4.58008 36.43 1.95508 40.135C1.52008 39.175 0.665078 37.84 0.0800781 37.03C3.45508 32.485 6.87508 23.695 8.54008 16.105H1.14507V12.73H8.96008V0.790001L13.3551 1.105C13.2951 1.42 12.9801 1.69 12.2901 1.795V12.715H18.6051V16.09H12.2901H12.3051ZM16.8501 34.18C19.4151 32.515 23.3751 29.68 27.2301 26.785C27.2901 25.555 27.2901 24.325 27.2901 23.14V0.819996L31.6851 1.09C31.6251 1.465 31.3701 1.735 30.6651 1.84V23.14C30.6651 32.83 29.6001 44.395 18.1851 50.65C17.7501 49.96 16.6851 48.67 15.9351 47.98C23.9601 44.125 26.3151 37.225 27.0201 30.415C24.1851 32.875 21.3951 35.185 19.4151 36.73C19.4751 37.165 19.2501 37.54 18.9801 37.75L16.8351 34.165L16.8501 34.18ZM21.2451 9.025C23.2851 12.505 25.4751 17.05 26.3301 20.05L23.4351 21.385C22.5801 18.34 20.4951 13.675 18.5601 10.195L21.2301 9.00999L21.2451 9.025ZM39.6651 44.245C39.6651 46.225 39.9351 46.6 41.3301 46.6H46.1451C47.3751 46.6 47.5851 45.1 47.7051 39.805C48.5601 40.45 49.8501 41.035 50.8101 41.305C50.4951 47.68 49.6251 49.87 46.3701 49.87H40.8501C37.2651 49.87 36.2451 48.745 36.2451 44.2V0.834999L40.7451 1.105C40.6851 1.48 40.3701 1.75 39.6801 1.855V26.965L41.2851 25.525C44.6001 28.36 48.7251 32.275 50.7051 34.78L48.4551 37.075C46.5801 34.66 42.8901 30.865 39.6801 28.03V44.245H39.6651ZM50.3151 10.465C50.1051 10.78 49.7301 10.9 49.1901 10.9C47.6901 14.005 45.2301 18.445 43.2501 21.34C43.1901 21.34 40.6851 20.005 40.6251 19.945C42.6051 16.945 45.0651 12.07 46.4001 8.59L50.3151 10.465Z" fill="white"/>
<path d="M69.2 3.23499H114.335V50.56H110.795V48.205H72.6199V50.56H69.2V3.23499ZM72.6199 44.89H110.795V6.56499H72.6199V44.89ZM93.605 31.18C94.79 32.575 96.2749 33.91 98.0449 35.14C100.34 33.7 103.13 31.66 104.735 30.265L107.675 32.08C107.51 32.29 107.135 32.395 106.61 32.395C104.945 33.58 102.44 35.185 100.19 36.46C102.98 38.125 106.085 39.4 109.13 40.21C108.44 40.75 107.585 41.875 107.09 42.625C101.735 40.96 96.1099 37.6 92.4199 33.625V43.255H89.15V34.855C85.4 37.42 80.7949 39.625 76.5649 41.17C76.1299 40.585 75.1699 39.46 74.6449 38.92C79.6849 37.255 85.3999 34.48 89.3599 31.15H79.835V22.105H103.445V31.15H93.5899L93.605 31.18ZM107.84 16.99V19.45H75.4549V16.99H89.855V13.405H78.8299V10.99H89.855V7.71999L94.2499 8.03499C94.1899 8.34999 93.935 8.61999 93.23 8.72499V10.975H104.63V13.39H93.23V16.975H107.84V16.99ZM82.9399 24.325V28.93H100.175V24.325H82.9399Z" fill="white"/>
<path d="M145.79 15.07C145.415 13.36 144.395 10.735 143.375 8.59H140.915C139.355 11.215 137.54 13.615 135.77 15.445C135.08 14.86 133.835 14.005 132.98 13.57C136.145 10.57 139.25 5.545 141.065 0.564999L145.13 1.9C145.025 2.275 144.545 2.44 144.005 2.38C143.57 3.445 143.045 4.57 142.505 5.65H157.34V8.59H146.96C147.875 10.405 148.625 12.445 149 13.84L145.79 15.07ZM177.755 33.115L178.565 33.055L180.65 33.37C180.65 33.745 180.545 34.12 180.485 34.495C179.09 47.98 178.025 48.205 171.815 48.205C170.585 48.205 169.145 48.205 167.585 48.1C167.525 47.035 167.15 45.685 166.565 44.725C169.235 45.04 171.815 45.04 172.715 45.04C173.675 45.04 174.215 44.98 174.65 44.56C175.505 43.81 176.09 41.56 176.69 36.265H159.875V50.56H156.335V37.33C150.98 42.685 142.85 47.23 135.62 49.585C135.08 48.73 134.06 47.395 133.31 46.69C140.21 44.77 148.025 40.795 153.065 36.25H141.665L141.08 38.23L137.54 37.69C138.665 34.27 140 28.855 140.855 24.625H156.32V18.79H137.96V15.685H177.26V27.73H159.86V33.085H177.74L177.755 33.115ZM156.335 27.76H143.75C143.375 29.53 142.895 31.405 142.46 33.115H156.32V27.76H156.335ZM166.46 1.855C166.355 2.23 165.92 2.335 165.395 2.335C164.915 3.46 164.375 4.585 163.79 5.65H182.855V8.59H170.06C171.455 10.405 172.685 12.445 173.33 13.945L170.165 15.235C169.475 13.42 167.87 10.735 166.145 8.59H161.975C160.265 11.155 158.225 13.465 156.14 15.115C155.495 14.53 154.265 13.615 153.41 13.135C157.055 10.345 160.43 5.59 162.29 0.549995L166.46 1.84V1.855ZM159.875 18.82V24.655H173.735V18.82H159.875Z" fill="white"/>
<path d="M200.93 42.85H247.985V46.495H200.93V42.85ZM204.035 6.07001H244.985V9.71501H204.035V6.07001ZM207.515 23.89H240.815V27.535H207.515V23.89Z" fill="white"/>
<path d="M315.26 8.43999V11.98H292.835V12.04H293.645C293.585 12.415 293.27 12.685 292.58 12.79V19.69H310.145V39.01C310.145 43.24 308.435 43.555 298.37 43.555C298.205 42.49 297.56 40.99 297.08 39.97C300.935 40.075 304.205 40.075 305.21 40.075C306.17 39.97 306.44 39.76 306.44 39.01V23.215H292.58V50.725H288.83V23.215H275.825V43.78H272.18V19.69H288.83V11.98H266.555V8.43999H288.83V0.564987L293.705 0.834988C293.645 1.26999 293.33 1.52499 292.58 1.64499V8.43999H315.275H315.26Z" fill="white"/>
<path d="M358.88 10.57H378.905V35.785H375.215V32.62H358.88V50.44H355.13V32.62H339.02V36.04H335.435V10.555H355.13V0.759995L359.945 1.075C359.885 1.45 359.57 1.72 358.88 1.825V10.555V10.57ZM339.02 29.035H355.13V14.095H339.02V29.035ZM358.88 29.035H375.215V14.095H358.88V29.035Z" fill="white"/>
<path d="M397.79 40.24C401.54 35.47 403.355 27.385 404.105 20.38L407.585 21.13C406.73 28.3 404.96 37.03 401.06 42.22L397.79 40.24ZM413.105 15.94L417.815 16.255C417.755 16.63 417.5 16.9 416.795 16.945V43.45C416.795 45.97 417.38 46.45 420.485 46.45H431.03C434.345 46.45 434.885 44.47 435.26 34.885C436.175 35.575 437.615 36.22 438.68 36.55C438.14 46.78 436.97 49.825 431.135 49.825H420.215C414.65 49.825 413.09 48.43 413.09 43.405V15.94H413.105ZM432.32 13.21C428.09 10.165 420.11 6.145 413.525 3.835L415.775 1.045C422.3 3.295 430.28 7.195 434.57 10.045L432.32 13.21ZM445.865 40.615C444.575 34.885 440.51 26.425 435.86 20.215L439.07 18.655C443.945 24.865 448.07 33.16 449.45 38.95L445.865 40.615Z" fill="white"/>
<path d="M513.2 23.965C513.26 25.03 513.26 26.26 513.2 26.695L509.99 26.965V46.66C509.99 50.35 507.95 50.515 501.845 50.515C501.74 49.66 501.26 48.325 500.825 47.515C502.055 47.515 503.18 47.575 504.035 47.575C506.705 47.575 506.87 47.575 506.87 46.615V27.235C503.45 27.55 500.075 27.82 497.18 28.045C497.18 34.84 496.64 44.425 492.68 50.695C492.14 50.11 490.865 49.3 490.115 48.985C493.76 43.15 494.135 34.855 494.135 28.27L492.155 28.435C492.095 28.87 491.78 29.08 491.345 29.125L490.22 25.435L494.135 25.225V8.30499H498.68C499.49 6.05499 500.39 2.94999 500.87 0.804993L505.265 1.98999C505.16 2.36499 504.785 2.52998 504.14 2.52998C503.6 4.19498 502.745 6.44499 501.89 8.30499H509.975V24.205L513.185 23.995L513.2 23.965ZM497.195 11.275V24.985C500.195 24.82 503.51 24.61 506.885 24.4V11.29H497.195V11.275ZM501.425 13.69C502.97 15.985 504.365 19.105 504.8 21.19C503.3 21.835 502.76 22.045 502.235 22.255C501.8 20.17 500.525 17.005 499.07 14.65L501.425 13.69ZM503.885 29.53C503.825 29.845 503.57 30.115 502.925 30.175V42.385H500.465V29.32L503.885 29.53ZM533.27 44.14C533.27 46.435 533.33 46.765 534.5 46.765C537.125 46.765 537.5 46.765 537.71 45.1C537.815 44.29 537.875 42.43 537.92 39.955C538.61 40.6 539.69 41.08 540.59 41.395C540.425 48.565 539.675 49.795 536.195 49.795H533.675C529.76 49.795 529.76 47.545 529.76 43.75V22.33H520.07V31.21C520.07 37.255 519.155 45.235 513.86 50.53C513.275 49.885 511.82 48.82 511.025 48.445C516.05 43.465 516.65 36.61 516.65 31.105V19.12H533.24V44.125L533.27 44.14ZM540.17 9.77499V13.045H511.91V9.77499H523.895V0.999989L528.44 1.31499C528.38 1.62999 528.125 1.89999 527.375 2.00499V9.77499H540.17Z" fill="white"/>
<path d="M577.055 12.34C576.95 12.715 576.575 12.985 575.93 13.03C574.49 20.8 571.535 26.515 559.445 29.47C559.07 28.555 558.155 27.175 557.465 26.47C568.49 24.055 571.325 19.24 572.345 11.86L577.055 12.34ZM583.37 34.345V45.535H605.585V48.91H557.78V45.535H579.68V34.345H563.57V31.03H600.14V34.345H583.385H583.37ZM562.595 10.63V17.965H559.01V7.315H579.68V0.790001L584.45 1.105C584.39 1.48 584.075 1.75 583.385 1.855V7.315H604.265V17.965H600.575V10.63H562.625H562.595ZM585.89 11.44L590.495 11.71C590.435 12.085 590.18 12.355 589.43 12.46V22.255C589.43 23.545 589.805 23.815 592.16 23.815H600.245C601.955 23.815 602.285 23.335 602.435 20.17C603.185 20.71 604.625 21.19 605.645 21.4C605.21 25.84 604.145 26.965 600.665 26.965H591.83C587.06 26.965 585.89 26.005 585.89 22.3V11.425V11.44Z" fill="white"/>
<path d="M633.035 33.385C634.805 32.635 636.62 31.825 638.435 31.09L639.125 34.255C634.04 36.67 628.685 39.13 625.31 40.63C625.25 41.065 625.04 41.38 624.725 41.545L622.805 37.48C624.725 36.79 627.08 35.815 629.705 34.75V16.975H623.765V13.555H629.705V1.40501L634.1 1.67501C634.04 2.05001 633.725 2.32001 633.035 2.42501V13.555H638.495V16.975H633.035V33.415V33.385ZM660.815 13.045C661.13 20.485 661.775 27.505 662.75 33.28C665 28.99 666.77 24.175 668.045 18.88L672.215 19.9C672.11 20.275 671.735 20.485 671.03 20.485C669.32 27.07 666.905 33.01 663.695 38.05C665.03 43.72 666.74 47.305 668.78 47.305C669.965 47.305 670.55 44.41 670.76 38.05C671.51 38.8 672.635 39.655 673.43 39.97C672.785 48.22 671.72 50.68 668.345 50.725C665.18 50.725 662.825 47.245 661.175 41.575C658.505 44.995 655.4 47.89 651.86 50.2C651.38 49.555 650.255 48.43 649.505 47.905C653.675 45.34 657.215 41.8 660.155 37.57C658.715 30.88 657.86 22.21 657.485 13.045H643.295V20.59H652.34L653.09 20.53L654.755 20.635V21.82C654.545 34.24 654.32 38.47 653.36 39.805C652.235 41.245 650.9 41.245 648.485 41.245C647.57 41.245 646.61 41.185 645.65 41.14C645.545 40.225 645.275 38.89 644.795 38.095C646.73 38.26 648.545 38.26 649.235 38.26C649.925 38.26 650.3 38.2 650.63 37.72C651.17 36.91 651.38 33.445 651.545 23.635H643.295V25.615C643.295 33.325 642.335 43.765 636.44 50.725C635.9 50.035 634.505 48.91 633.71 48.475C639.335 41.95 639.92 32.74 639.92 25.615V9.65501H657.32C657.26 6.76001 657.155 3.82001 657.155 0.880009L661.7 1.15001C661.64 1.58501 661.325 1.79501 660.575 1.90001C660.575 4.46501 660.575 7.09001 660.68 9.65501H672.56V13.03H660.785L660.815 13.045ZM665.315 0.835011C667.94 2.71001 671.045 5.38001 672.545 7.31501L669.98 9.13001C668.585 7.25501 665.48 4.48001 662.855 2.48501L665.315 0.820007V0.835011Z" fill="white"/>
</svg>
