<svg width="191" height="78" viewBox="0 0 191 78" fill="none" xmlns="http://www.w3.org/2000/svg">
<path d="M22.44 65.1299C21.15 62.8399 18.01 61.0899 18.01 61.0899C18.01 61.0899 18.48 63.7399 18.66 65.3799C18.72 65.9199 18.91 66.4799 19.18 67.0299C18.74 66.6499 18.27 66.2999 17.78 65.9999C17.05 65.1599 16.35 64.2999 15.68 63.3999C16.18 62.1799 17.1 59.5799 16.62 57.5899C16.01 55.0399 13.47 52.4699 13.47 52.4699C13.47 52.4699 13.19 55.1299 12.91 56.7499C12.82 57.2799 12.84 57.8699 12.95 58.4799C12.62 57.9799 12.25 57.4999 11.85 57.0599C11.38 56.0699 10.95 55.0599 10.57 54.0399C11.39 53.0299 13.01 50.7899 13.11 48.7499C13.23 46.1399 11.49 42.9599 11.49 42.9599C11.49 42.9599 10.48 45.4199 9.75998 46.8799C9.51998 47.3599 9.37998 47.9299 9.31998 48.5399C9.15998 48.0499 8.97998 47.5599 8.75998 47.0899C8.55998 45.8999 8.40996 44.7299 8.29996 43.5899C9.37996 42.8499 11.52 41.1899 12.17 39.2899C13.01 36.8299 12.22 33.2999 12.22 33.2999C12.22 33.2999 10.57 35.3599 9.45996 36.5499C9.09996 36.9399 8.80998 37.4499 8.56998 38.0099C8.54998 37.3099 8.47996 36.5999 8.32996 35.9299C8.29996 35.8099 8.26996 35.6899 8.23996 35.5699C8.31996 34.7399 8.41996 33.9299 8.54996 33.1299C9.51996 32.8499 12.38 31.8999 13.6 30.1699C15.02 28.1699 15.23 24.7399 15.23 24.7399C15.23 24.7399 13.17 26.1599 11.84 26.9399C11.4 27.1999 11 27.5799 10.64 28.0199C10.81 27.3799 10.93 26.7199 10.97 26.0599C10.99 25.7199 10.99 25.3599 10.95 24.9999C11.15 24.5499 11.37 24.0999 11.59 23.6599C11.63 23.6299 11.67 23.5899 11.72 23.5499C12.45 23.5699 15.52 23.5599 17.17 22.2699C18.96 20.8699 20.02 17.8999 20.02 17.8999C20.02 17.8999 17.81 18.6099 16.42 18.9499C15.96 19.0599 15.51 19.2899 15.07 19.5899C15.38 19.0699 15.66 18.5099 15.87 17.9499C16 17.5999 16.1 17.2199 16.16 16.8199C16.59 16.3099 17.05 15.7999 17.52 15.2999C18.3 15.5399 20.71 16.1899 22.32 15.5599C24.17 14.8399 25.8 12.6099 25.8 12.6099C25.8 12.6099 23.75 12.6499 22.49 12.5799C22.08 12.5599 21.63 12.6399 21.19 12.7799C21.58 12.4199 21.95 12.0299 22.27 11.5999C24.12 9.12991 23.9 3.91992 23.9 3.91992C23.9 3.91992 19.57 6.80991 18.63 10.1899C18.22 11.6399 17.56 13.8799 17.26 14.8699C16.92 15.2199 16.58 15.5799 16.25 15.9399C16.46 12.7499 15.2 8.96991 15.2 8.96991C15.2 8.96991 11.41 13.5499 11.45 17.5699C11.47 19.1799 11.45 21.6099 11.45 22.8999C11.23 23.3199 11.02 23.7399 10.82 24.1699C10.17 20.6999 7.59998 16.9399 7.59998 16.9399C7.59998 16.9399 5.06998 22.8699 6.31998 27.0399C6.84998 28.8199 7.62998 31.5699 7.97998 32.8199C7.88998 33.2899 7.79998 33.7699 7.72998 34.2499C6.11998 30.8399 2.28998 27.6899 2.28998 27.6899C2.28998 27.6899 1.47998 34.4599 3.94998 38.3099C5.05998 40.0399 6.74997 42.7799 7.40997 43.8499C7.44997 44.3199 7.49997 44.7799 7.55997 45.2499C5.09997 42.3699 0.459961 40.3799 0.459961 40.3799C0.459961 40.3799 1.56996 47.1399 4.98996 50.1499C6.49996 51.4799 8.82997 53.5999 9.77997 54.4599C9.93997 54.8999 10.11 55.3299 10.29 55.7599C7.13998 53.7199 2.22998 53.1399 2.22998 53.1399C2.22998 53.1399 5.15996 59.3499 9.26996 61.2699C10.95 62.0599 13.48 63.2899 14.76 63.9199C15.04 64.3199 15.33 64.7099 15.62 65.0999C12.08 64.1599 7.46997 64.9499 7.46997 64.9499C7.46997 64.9499 11.99 70.0999 16.44 70.7799C18.09 71.0299 20.5 71.4399 21.98 71.6899C24.19 73.4999 26.58 75.0399 29.1 76.2799C30 76.2499 30.89 76.2299 31.79 76.2199C28.72 74.9299 25.8 73.1799 23.13 71.0899C23.28 69.8099 23.45 66.9599 22.42 65.1399L22.44 65.1299Z" fill="white"/>
<path d="M168.03 65.1299C169.32 62.8399 172.46 61.0899 172.46 61.0899C172.46 61.0899 171.99 63.7399 171.81 65.3799C171.75 65.9199 171.56 66.4799 171.29 67.0299C171.73 66.6499 172.2 66.2999 172.69 65.9999C173.42 65.1599 174.12 64.2999 174.79 63.3999C174.29 62.1799 173.37 59.5799 173.85 57.5899C174.46 55.0399 177 52.4699 177 52.4699C177 52.4699 177.28 55.1299 177.56 56.7499C177.65 57.2799 177.63 57.8699 177.52 58.4799C177.85 57.9799 178.22 57.4999 178.62 57.0599C179.09 56.0699 179.52 55.0599 179.9 54.0399C179.08 53.0299 177.46 50.7899 177.36 48.7499C177.24 46.1399 178.98 42.9599 178.98 42.9599C178.98 42.9599 179.99 45.4199 180.71 46.8799C180.95 47.3599 181.09 47.9299 181.15 48.5399C181.31 48.0499 181.49 47.5599 181.71 47.0899C181.91 45.8999 182.06 44.7299 182.17 43.5899C181.09 42.8499 178.95 41.1899 178.3 39.2899C177.46 36.8299 178.25 33.2999 178.25 33.2999C178.25 33.2999 179.9 35.3599 181.01 36.5499C181.37 36.9399 181.66 37.4499 181.9 38.0099C181.92 37.3099 181.99 36.5999 182.14 35.9299C182.17 35.8099 182.2 35.6899 182.23 35.5699C182.15 34.7399 182.05 33.9299 181.92 33.1299C180.95 32.8499 178.09 31.8999 176.87 30.1699C175.45 28.1699 175.24 24.7399 175.24 24.7399C175.24 24.7399 177.3 26.1599 178.63 26.9399C179.07 27.1999 179.47 27.5799 179.83 28.0199C179.66 27.3799 179.54 26.7199 179.5 26.0599C179.48 25.7199 179.48 25.3599 179.52 24.9999C179.32 24.5499 179.1 24.0999 178.88 23.6599C178.84 23.6299 178.8 23.5899 178.75 23.5499C178.02 23.5699 174.95 23.5599 173.3 22.2699C171.51 20.8699 170.45 17.8999 170.45 17.8999C170.45 17.8999 172.66 18.6099 174.05 18.9499C174.51 19.0599 174.96 19.2899 175.4 19.5899C175.09 19.0699 174.81 18.5099 174.6 17.9499C174.47 17.5999 174.37 17.2199 174.31 16.8199C173.88 16.3099 173.42 15.7999 172.95 15.2999C172.17 15.5399 169.76 16.1899 168.15 15.5599C166.3 14.8399 164.67 12.6099 164.67 12.6099C164.67 12.6099 166.72 12.6499 167.98 12.5799C168.39 12.5599 168.84 12.6399 169.28 12.7799C168.89 12.4199 168.52 12.0299 168.2 11.5999C166.35 9.12991 166.57 3.91992 166.57 3.91992C166.57 3.91992 170.9 6.80991 171.84 10.1899C172.25 11.6399 172.91 13.8799 173.21 14.8699C173.55 15.2199 173.89 15.5799 174.22 15.9399C174.01 12.7499 175.27 8.96991 175.27 8.96991C175.27 8.96991 179.06 13.5499 179.02 17.5699C179 19.1799 179.02 21.6099 179.02 22.8999C179.24 23.3199 179.45 23.7399 179.65 24.1699C180.3 20.6999 182.87 16.9399 182.87 16.9399C182.87 16.9399 185.4 22.8699 184.15 27.0399C183.62 28.8199 182.84 31.5699 182.49 32.8199C182.58 33.2899 182.67 33.7699 182.74 34.2499C184.35 30.8399 188.18 27.6899 188.18 27.6899C188.18 27.6899 188.99 34.4599 186.52 38.3099C185.41 40.0399 183.72 42.7799 183.06 43.8499C183.02 44.3199 182.97 44.7799 182.91 45.2499C185.37 42.3699 190.01 40.3799 190.01 40.3799C190.01 40.3799 188.9 47.1399 185.48 50.1499C183.97 51.4799 181.64 53.5999 180.69 54.4599C180.53 54.8999 180.36 55.3299 180.18 55.7599C183.33 53.7199 188.24 53.1399 188.24 53.1399C188.24 53.1399 185.31 59.3499 181.2 61.2699C179.52 62.0599 176.99 63.2899 175.71 63.9199C175.43 64.3199 175.14 64.7099 174.85 65.0999C178.39 64.1599 183 64.9499 183 64.9499C183 64.9499 178.48 70.0999 174.03 70.7799C172.38 71.0299 169.97 71.4399 168.49 71.6899C166.28 73.4999 163.89 75.0399 161.37 76.2799C160.47 76.2499 159.58 76.2299 158.68 76.2199C161.75 74.9299 164.67 73.1799 167.34 71.0899C167.19 69.8099 167.02 66.9599 168.05 65.1399L168.03 65.1299Z" fill="white"/>
<path d="M92 6.58997V7.65997H72.7C71.67 9.52997 70.58 11.18 69.45 12.61L82.4 12.94H86.35V30.4C86.35 31.8 86.03 32.84 85.39 33.5C84.77 34.19 83.45 34.63 81.4 34.83C81.28 33.6 80.98 32.74 80.51 32.25C79.94 31.68 78.86 31.27 77.26 31V30.48C79.87 30.65 81.44 30.74 81.98 30.74C82.3 30.74 82.51 30.68 82.61 30.56C82.73 30.44 82.79 30.24 82.79 29.97V25.54H69.76V33.77C69.76 33.87 69.65 33.99 69.43 34.14C69.21 34.31 68.86 34.47 68.4 34.62C67.93 34.77 67.43 34.84 66.89 34.84H66.3V16.2C63.84 18.66 61.12 20.64 58.14 22.14L57.77 21.7C62.25 18.35 65.91 13.68 68.77 7.67996H58.51L58.21 6.60995H69.25C70.18 4.46995 70.91 2.42998 71.43 0.47998L75.05 2.06998C74.53 3.76998 73.94 5.27995 73.28 6.60995H91.99L92 6.58997ZM82.81 13.97H69.78V18.66H82.81V13.97ZM69.78 24.45H82.81V19.73H69.78V24.45Z" fill="white"/>
<path d="M126.17 22.6V24.26C124.64 26.15 122.76 27.79 120.52 29.17C124.14 30.35 128.7 31.04 134.21 31.24V31.68C132.81 32.07 131.93 33.14 131.59 34.89C125.66 34.08 121.07 32.66 117.82 30.65C113.27 32.86 107.51 34.27 100.55 34.86L100.33 34.27C106.51 33.19 111.64 31.48 115.72 29.14C114.19 27.86 112.96 26.4 112.03 24.75C108.71 27.36 105.08 29.25 101.14 30.43L100.84 29.91C103.1 28.75 105.29 27.24 107.41 25.37C109.55 23.48 111.21 21.58 112.39 19.69C111.8 19.54 111.41 19.3 111.21 18.95C111.01 18.58 110.92 18.03 110.92 17.29V12.09L113.84 12.5V16.74C113.84 16.96 113.9 17.11 114.02 17.18C114.17 17.23 114.51 17.25 115.05 17.25H118.26C119.93 17.25 120.9 17.24 121.18 17.21C121.57 17.16 121.83 17.06 121.95 16.91C122.22 16.57 122.56 15.73 122.98 14.4H123.42L123.53 16.95C124.27 17.2 124.64 17.58 124.64 18.09C124.64 18.73 124.18 19.18 123.27 19.46C122.38 19.71 120.63 19.83 117.99 19.83H114.63L115.63 20.94C115.14 21.75 114.74 22.31 114.45 22.6H126.15H126.17ZM129.05 10.57H105.61C105.59 11.58 105.38 12.45 104.98 13.19C104.61 13.93 104.13 14.47 103.54 14.81C103.02 15.15 102.46 15.28 101.84 15.18C101.25 15.06 100.86 14.72 100.66 14.18C100.34 13.27 100.75 12.52 101.88 11.93C102.59 11.56 103.21 10.97 103.73 10.16C104.27 9.34997 104.53 8.47998 104.5 7.53998H105.09C105.31 8.24998 105.46 8.90997 105.53 9.49997H109.74C109.42 9.42997 109.12 9.26996 108.85 9.01996C108.78 7.61996 108.16 6.23998 107 4.88998L107.33 4.66998C105.93 4.69998 104.55 4.69998 103.2 4.66998L103.09 3.96997C107.25 3.69997 111.68 3.22998 116.38 2.56998C121.1 1.87998 124.91 1.17997 127.78 0.469971L130.81 3.60995C130.42 3.97995 129.71 3.92996 128.71 3.45996C124.8 3.92996 120.34 4.26996 115.35 4.48996C117.47 5.19996 118.63 6.18997 118.86 7.43997C119.01 8.27997 118.74 8.88997 118.05 9.27997C117.34 9.69997 116.61 9.57997 115.87 8.90997C115.87 7.47997 115.37 6.01996 114.36 4.51996C111.31 4.61996 109.01 4.66998 107.46 4.66998C109.92 5.23998 111.35 6.15997 111.74 7.43997C111.96 8.22997 111.75 8.83997 111.11 9.27997C110.96 9.37997 110.82 9.44997 110.67 9.49997H122.04C123.15 7.57997 124.01 5.75998 124.62 4.03998L127.65 5.80997C126.54 7.20997 125.15 8.43997 123.48 9.49997H132.82V11.2C131.52 12.26 129.94 13.17 128.1 13.93C129.77 14.87 130.65 15.98 130.72 17.29C130.74 18.15 130.41 18.73 129.72 19.03C129.15 19.25 128.54 19.15 127.87 18.73C127.6 17.75 127.02 16.7 126.14 15.59C125.25 14.48 124.31 13.56 123.3 12.82L123.63 12.53C125.15 12.78 126.48 13.16 127.62 13.67C128.14 12.76 128.62 11.73 129.06 10.57H129.05ZM108.16 12.49L108.75 12.53C109.17 14.18 109.13 15.59 108.64 16.77C108.15 17.93 107.45 18.71 106.54 19.13C106 19.42 105.42 19.51 104.81 19.39C104.22 19.27 103.84 18.96 103.67 18.47C103.4 17.51 103.83 16.76 104.96 16.22C105.75 15.95 106.46 15.47 107.1 14.78C107.74 14.09 108.1 13.33 108.17 12.49H108.16ZM122.18 23.67H113.32C113.25 23.74 113.17 23.82 113.1 23.89C113.03 23.94 112.93 24.01 112.8 24.11C112.7 24.18 112.63 24.25 112.58 24.29C113.83 25.74 115.5 26.97 117.56 27.98C119.43 26.7 120.97 25.26 122.17 23.66L122.18 23.67ZM114.47 11.64L114.76 11.31C117.66 11.29 119.51 11.93 120.3 13.23C120.77 13.99 120.74 14.66 120.23 15.22C119.66 15.84 118.94 15.92 118.05 15.48C117.78 14.79 117.3 14.09 116.61 13.38C115.92 12.64 115.21 12.06 114.47 11.65V11.64Z" fill="white"/>
<path d="M74.6799 49.78V50.26H64.2399L64.1699 50.01H62.4599V54.12C62.6199 54.08 62.9399 53.97 63.4399 53.8C63.9499 53.63 64.3399 53.5 64.6199 53.4L64.6999 53.6C62.6999 54.94 61.1599 55.94 60.0699 56.58C59.9899 56.81 59.8699 56.96 59.6999 57.03L58.8999 55.18C59.2999 55.08 59.9799 54.88 60.9499 54.58V50H59.3799L59.2499 49.52H60.9499V45.21H59.2299L59.0999 44.73H64.8099V45.21H62.4499V49.52H64.5599V49.74L68.4199 49.77V48.09L69.9499 48.27V49.77H74.6599L74.6799 49.78ZM71.5799 54.01H69.9999V56.82C69.9999 57.41 69.8699 57.85 69.6199 58.14C69.3599 58.43 68.8399 58.61 68.0599 58.67C68.0399 58.2 67.9499 57.88 67.8099 57.69C67.5999 57.46 67.2399 57.3 66.7299 57.22V56.99C67.4999 57.05 67.9699 57.07 68.1599 57.07C68.3599 57.07 68.4599 56.98 68.4599 56.8V54H66.8999V54.18C66.8999 54.29 66.6799 54.41 66.2299 54.53L67.2799 55.46C66.8399 56.03 66.2699 56.54 65.5799 56.99C64.8899 57.45 64.1899 57.82 63.4699 58.11L63.2999 57.89C63.8499 57.47 64.3899 56.95 64.9199 56.32C65.4499 55.7 65.8699 55.11 66.1699 54.56C65.9299 54.6 65.7399 54.63 65.5999 54.63H65.3799V51.23H73.1199V54.09C73.1099 54.16 72.9499 54.25 72.6399 54.36C72.3399 54.47 72.0699 54.53 71.8399 54.53H71.5899V54L71.5799 54.01ZM66.8699 48V48.22C66.8699 48.22 66.7999 48.33 66.6699 48.4C66.5499 48.47 66.3799 48.53 66.1699 48.6C65.9699 48.66 65.7699 48.68 65.5699 48.68H65.3499V44.23H73.1399V48.13C73.1299 48.2 72.9699 48.29 72.6599 48.4C72.3499 48.51 72.0699 48.57 71.8299 48.57H71.5799V48H66.8699ZM71.5799 44.69H66.8699V45.86H71.5799V44.69ZM66.8699 47.52H71.5799V46.34H66.8699V47.52ZM66.8899 51.7V53.55H71.5899V51.7H66.8899ZM70.7399 54.96L70.8899 54.83C72.5399 55.08 73.6199 55.62 74.0999 56.45C74.3899 56.94 74.4099 57.35 74.1499 57.7C73.9199 58.02 73.5799 58.07 73.1299 57.85C72.9099 57.34 72.5699 56.82 72.1299 56.3C71.6899 55.78 71.2199 55.33 70.7299 54.97L70.7399 54.96Z" fill="white"/>
<path d="M83.1101 45.87H84.8201C85.1501 45.08 85.4401 44.39 85.6701 43.79L86.8401 44.69C86.1401 46.17 85.2701 47.53 84.2401 48.77H87.4201V49.24H83.8401C83.2301 49.92 82.6101 50.53 81.9801 51.07H85.7801V57.93C85.7701 57.99 85.6101 58.07 85.3101 58.18C85.0101 58.29 84.7401 58.35 84.5101 58.35H84.2801V57.07H81.3001V58.12C81.3001 58.12 81.2501 58.22 81.1501 58.29C81.0601 58.37 80.9201 58.43 80.7201 58.49C80.5301 58.54 80.3301 58.57 80.1001 58.57H79.8501V52.69C79.2601 53.08 78.6501 53.43 78.0001 53.74L77.8301 53.56C78.5701 53.06 79.2401 52.54 79.8401 52.01V50.91H80.9901C81.5801 50.3 82.0701 49.74 82.4601 49.24H78.1301L78.0001 48.77H81.0501V46.36H78.6201L78.4901 45.88H81.0501V43.33L82.5501 43.53V45.88H83.1201L83.1101 45.87ZM84.2801 51.53L81.3001 51.63V53.79H84.2801V51.53ZM81.3001 56.57H84.2801V54.27H81.3001V56.57ZM82.5501 48.76H82.8301C83.4401 47.94 83.9701 47.13 84.4301 46.35H82.5501V48.76ZM93.0601 44.58V45.48C92.1301 47.26 91.2901 48.64 90.5501 49.63C91.4901 50.24 92.1901 50.92 92.6301 51.66C93.0901 52.4 93.3101 53.15 93.3101 53.89C93.3101 54.76 93.1101 55.4 92.7101 55.84C92.3201 56.26 91.6601 56.49 90.7301 56.52C90.7301 55.92 90.6601 55.51 90.5101 55.29C90.3701 55.13 90.0601 55.02 89.5901 54.94V54.69H90.9401C91.1101 54.69 91.2501 54.66 91.3601 54.59C91.6601 54.41 91.8101 54.05 91.8101 53.51C91.8101 52.11 91.2501 50.83 90.1301 49.66C90.5401 48.39 90.9601 46.86 91.4001 45.06H89.1201V58.16C89.1201 58.16 89.0701 58.26 88.9701 58.33C88.8801 58.41 88.7301 58.48 88.5201 58.55C88.3201 58.62 88.1001 58.65 87.8701 58.65H87.6001V44.58H93.0601Z" fill="white"/>
<path d="M112.55 54.4601L112.25 57.0901C112.69 57.7501 112.82 58.1801 112.63 58.4101C112.46 58.6201 112.24 58.7101 111.95 58.6801C111.66 58.6501 111.38 58.5601 111.1 58.4101C110.83 58.2801 110.57 58.1001 110.3 57.8801C109.77 57.4701 109.3 56.9901 108.9 56.4301C107.69 57.4101 106.25 58.1101 104.59 58.5301L104.47 58.3C105.95 57.63 107.22 56.7001 108.28 55.4901C107.82 54.6501 107.45 53.6501 107.15 52.5101H105.17C105.14 52.9401 105.09 53.3601 105.02 53.7701C106.09 54.0301 106.72 54.45 106.92 55.05C107.05 55.44 106.98 55.7401 106.69 55.9701C106.39 56.1901 106.06 56.1701 105.69 55.9001C105.62 55.4101 105.36 54.88 104.91 54.3C104.47 56.18 103.37 57.6201 101.63 58.6501L101.41 58.4201C102.28 57.5901 102.85 56.7001 103.14 55.7601C103.43 54.8101 103.59 53.7201 103.62 52.5101H102.54L102.47 52.2401C102.37 52.3701 102.23 52.4401 102.04 52.4401C101.86 52.4301 101.69 52.3501 101.52 52.1901C101.48 51.4701 101.18 50.6701 100.64 49.7901V58.2001C100.64 58.2901 100.51 58.3901 100.26 58.5001C99.9998 58.6101 99.7498 58.6701 99.4898 58.6701H99.1898V51.7301C98.6198 52.8601 97.8998 53.9001 97.0298 54.8401L96.7998 54.6401C97.7898 52.9601 98.5098 50.6701 98.9598 47.7501H97.2798L97.1498 47.2701H99.1998V43.4701H100.65V47.2701H102.88V47.7501H100.65V49.3701C101.49 49.7801 102.07 50.2401 102.36 50.7501C102.67 51.2501 102.75 51.6801 102.61 52.0301H107.04C106.96 51.6501 106.87 51.1601 106.77 50.5701C106.67 50.7601 106.52 50.8701 106.32 50.9001C106.12 50.9201 105.91 50.8401 105.7 50.6701C105.68 50.4001 105.63 50.1301 105.55 49.8501C104.98 50.1201 104.25 50.4401 103.35 50.8201C103.27 51.0201 103.14 51.1401 102.95 51.1701L102.22 49.6901C102.34 49.6901 102.74 49.6701 103.4 49.6201C103.7 48.9301 103.98 48.2501 104.23 47.5901C103.97 47.8201 103.67 47.8201 103.33 47.5701C103.22 46.9401 102.85 46.3101 102.23 45.6901L102.41 45.5701C102.72 45.6401 102.99 45.7201 103.23 45.8201C103.4 45.2201 103.61 44.3901 103.86 43.3401L105.01 43.9701C104.42 45.0201 103.98 45.72 103.69 46.05C104.16 46.33 104.4 46.6601 104.42 47.0301C104.55 46.6901 104.74 46.1601 104.97 45.4601L106.37 46.0101C106.35 44.8301 106.34 43.93 106.34 43.3L107.81 43.55C107.75 47.29 107.96 50.1201 108.43 52.0301H112.74V52.5101H108.56C108.75 53.1401 108.97 53.7201 109.21 54.2401C109.55 53.7201 109.85 53.1701 110.09 52.5901L111.26 53.4601C110.89 54.2301 110.46 54.8901 109.96 55.4401C110.27 55.8301 110.63 56.1801 111.04 56.4901C111.16 56.6101 111.26 56.6701 111.32 56.6601C111.4 56.6501 111.48 56.5601 111.55 56.3901C111.78 55.9701 112.04 55.3201 112.33 54.4401L112.53 54.4701L112.55 54.4601ZM104.91 48.3501L105.11 48.2501C105.81 48.5601 106.31 48.9401 106.63 49.3801C106.54 48.5501 106.47 47.5601 106.41 46.4201C106.35 46.4401 106.26 46.4501 106.13 46.4501C105.32 47.7301 104.59 48.7601 103.93 49.5601C104.11 49.5401 104.36 49.5201 104.7 49.4901C105.03 49.4601 105.28 49.4401 105.43 49.4201C105.27 49.0101 105.1 48.6501 104.91 48.3401V48.3501ZM107.89 45.6501L108.07 45.5301C108.28 45.5901 108.52 45.6601 108.79 45.7601C108.95 45.2401 109.17 44.42 109.46 43.3L110.63 43.9801C110.13 44.8501 109.65 45.5101 109.2 45.9801C109.66 46.2701 109.9 46.6001 109.95 46.9601C110.05 46.7301 110.29 46.1401 110.68 45.1901L111.73 45.9101C110.98 47.2001 110.27 48.2201 109.62 48.9901C109.95 48.9701 110.49 48.9301 111.22 48.8901C111.08 48.4801 110.89 48.1001 110.67 47.7401L110.87 47.6601C111.91 48.1801 112.49 48.8001 112.6 49.5101C112.67 49.9201 112.56 50.2101 112.28 50.3801C112.02 50.5401 111.76 50.4801 111.5 50.2101C111.5 49.9801 111.45 49.6701 111.35 49.2901C110.46 49.6501 109.71 49.9401 109.1 50.1701C109.07 50.2401 109.03 50.2901 109 50.3201C110.04 50.3001 110.65 50.5201 110.81 50.9901C110.91 51.2601 110.84 51.4801 110.59 51.6601C110.33 51.8401 110.05 51.8301 109.74 51.6301C109.62 51.1201 109.34 50.7101 108.91 50.4101C108.85 50.4701 108.77 50.5001 108.66 50.5301L108.09 49.05H108.49C108.7 49.04 108.87 49.0301 109.01 49.0301C109.14 48.7601 109.36 48.29 109.68 47.61C109.42 47.77 109.16 47.7301 108.88 47.5101C108.85 47.2101 108.74 46.8901 108.55 46.5401C108.36 46.1901 108.14 45.8901 107.9 45.6401L107.89 45.6501Z" fill="white"/>
<path d="M119.76 47.75V49.08C120.98 49.56 121.71 50.16 121.94 50.88C122.1 51.32 122.03 51.66 121.74 51.9C121.45 52.12 121.13 52.08 120.77 51.78C120.67 51.15 120.33 50.38 119.75 49.47V58.2C119.75 58.29 119.62 58.39 119.35 58.5C119.09 58.61 118.84 58.67 118.58 58.67H118.26V51.73C117.68 52.91 116.96 53.96 116.1 54.88L115.87 54.66C116.87 52.97 117.57 50.67 117.98 47.77H116.15L116.02 47.29H118.27V43.26L119.75 43.48V47.29H122.25V47.77H119.75L119.76 47.75ZM130.13 54.73H131.43V55.38H130.13V56.95C130.13 57.5 130.01 57.91 129.76 58.17C129.52 58.44 129 58.6 128.21 58.67C128.18 58.2 128.07 57.89 127.89 57.74C127.66 57.51 127.25 57.36 126.67 57.29V57.04C127.59 57.11 128.15 57.14 128.35 57.14C128.56 57.14 128.67 57.03 128.67 56.81V55.39H123.56V58.19C123.56 58.28 123.43 58.38 123.18 58.49C122.92 58.61 122.66 58.67 122.38 58.67H122.15V55.39H120.83L120.7 54.91H122.15V50.48H125.4V49.27H121.3L121.17 48.8H123.63V47.35H122.23L122.1 46.87H123.63V45.52H121.65L121.52 45.04H123.63V43.34L125.01 43.52V45.04H126.92V43.34L128.32 43.52V45.04H131.32V45.52H128.32V46.87H130.97V47.35H128.32V48.8H131.57V49.27H126.77V50.48H130.12V54.74L130.13 54.73ZM125.4 50.95H123.57V52.6H125.4V50.95ZM123.57 53.08V54.9H125.4V53.08H123.57ZM125.02 45.5V46.85H126.93V45.5H125.02ZM125.02 47.33V48.78H126.93V47.33H125.02ZM128.68 50.94H126.78V52.59H128.68V50.94ZM126.78 54.89H128.68V53.07H126.78V54.89Z" fill="white"/>
<path d="M74.5301 64.48V64.96H65.8201C65.3501 65.8 64.8701 66.55 64.3501 67.19L70.1901 67.34H71.9701V75.22C71.9701 75.85 71.8301 76.32 71.5401 76.62C71.2601 76.93 70.6601 77.13 69.7401 77.22C69.6801 76.67 69.5501 76.28 69.3401 76.05C69.0801 75.79 68.6001 75.61 67.8701 75.48V75.25C69.0501 75.33 69.7601 75.37 70.0001 75.37C70.1401 75.37 70.2401 75.34 70.2801 75.29C70.3401 75.24 70.36 75.15 70.36 75.02V73.02H64.4801V76.73C64.4801 76.73 64.43 76.83 64.33 76.9C64.23 76.98 64.07 77.05 63.86 77.12C63.65 77.19 63.4201 77.22 63.1801 77.22H62.9101V68.81C61.8001 69.92 60.5701 70.81 59.2301 71.49L59.0601 71.29C61.0801 69.78 62.7301 67.67 64.0201 64.96H59.3901L59.2601 64.48H64.2401C64.6601 63.51 64.9901 62.59 65.2201 61.72L66.8501 62.44C66.6201 63.21 66.35 63.89 66.05 64.49H74.4901L74.5301 64.48ZM70.3801 67.81H64.5001V69.92H70.3801V67.81ZM64.5001 72.54H70.3801V70.41H64.5001V72.54Z" fill="white"/>
<path d="M89.9498 71.7099V72.4599C89.2598 73.3099 88.4098 74.05 87.3998 74.67C89.0298 75.2 91.0898 75.5099 93.5798 75.5999V75.7999C92.9498 75.9799 92.5498 76.4599 92.3998 77.2499C89.7198 76.8799 87.6498 76.2499 86.1898 75.3399C84.1398 76.3399 81.5398 76.9699 78.3998 77.2399L78.2998 76.9699C81.0898 76.4799 83.3998 75.7099 85.2398 74.6599C84.5498 74.0799 83.9998 73.4199 83.5698 72.6799C82.0698 73.8599 80.4298 74.7099 78.6598 75.2399L78.5298 75.0099C79.5498 74.4899 80.5398 73.7999 81.4898 72.9599C82.4598 72.1099 83.1998 71.2499 83.7398 70.3999C83.4698 70.3299 83.2998 70.2199 83.2098 70.0699C83.1198 69.8999 83.0798 69.6499 83.0798 69.3199V66.9699L84.3998 67.1499V69.0599C84.3998 69.1599 84.4298 69.2299 84.4798 69.2599C84.5498 69.2799 84.6998 69.2899 84.9498 69.2899H86.3998C87.1498 69.2899 87.5898 69.2899 87.7198 69.2699C87.8998 69.2499 88.0098 69.2 88.0698 69.14C88.1898 68.98 88.3498 68.6099 88.5398 68.0099H88.7398L88.7898 69.1599C89.1198 69.2699 89.2898 69.4399 89.2898 69.6799C89.2898 69.9699 89.0798 70.1699 88.6698 70.2999C88.2698 70.4099 87.4798 70.4699 86.2898 70.4699H84.7698L85.2198 70.9699C84.9998 71.3399 84.8198 71.5899 84.6898 71.7199H89.9698L89.9498 71.7099ZM91.2498 66.2799H80.6798C80.6698 66.7399 80.5698 67.1299 80.3998 67.4599C80.2298 67.7899 80.0198 68.0399 79.7498 68.1899C79.5198 68.3499 79.2598 68.3999 78.9798 68.3599C78.7098 68.3099 78.5398 68.1599 78.4498 67.9099C78.3098 67.4999 78.4898 67.16 78.9998 66.89C79.3198 66.72 79.5998 66.4599 79.8298 66.0899C80.0698 65.7199 80.1898 65.3299 80.1798 64.9099H80.4498C80.5498 65.2299 80.6198 65.5299 80.6498 65.7899H82.5498C82.4098 65.7599 82.2698 65.6799 82.1498 65.5699C82.1198 64.9399 81.8398 64.32 81.3198 63.7L81.4698 63.5999C80.8398 63.6099 80.2198 63.6099 79.6098 63.5999L79.5598 63.2799C81.4398 63.1599 83.4298 62.9499 85.5498 62.6499C87.6798 62.3399 89.3998 62.02 90.6998 61.7L92.0698 63.1199C91.8898 63.2899 91.5798 63.2599 91.1198 63.0499C89.3598 63.2599 87.3498 63.4199 85.0898 63.5199C86.0398 63.8399 86.5698 64.2899 86.6698 64.8499C86.7398 65.2299 86.6098 65.5099 86.2998 65.6799C85.9798 65.8699 85.6498 65.8099 85.3198 65.5099C85.3198 64.8699 85.0898 64.2099 84.6398 63.5299C83.2598 63.5699 82.2298 63.5999 81.5298 63.5999C82.6398 63.8599 83.2798 64.2699 83.4598 64.8499C83.5598 65.2099 83.4598 65.4799 83.1798 65.6799C83.1098 65.7199 83.0498 65.7599 82.9798 65.7799H88.1098C88.6098 64.9099 88.9998 64.0899 89.2798 63.3199L90.6498 64.1199C90.1498 64.7499 89.5198 65.3099 88.7698 65.7899H92.9798V66.5599C92.3898 67.0399 91.6798 67.4499 90.8498 67.7899C91.5998 68.2099 91.9998 68.7199 92.0298 69.2999C92.0398 69.6899 91.8898 69.9499 91.5798 70.0799C91.3198 70.1799 91.0498 70.14 90.7498 69.95C90.6298 69.51 90.3698 69.0299 89.9698 68.5299C89.5698 68.0299 89.1398 67.6099 88.6898 67.2799L88.8398 67.1499C89.5298 67.2599 90.1298 67.43 90.6398 67.67C90.8698 67.26 91.0898 66.7899 91.2898 66.2699L91.2498 66.2799ZM81.8298 67.1499L82.0998 67.17C82.2898 67.91 82.2698 68.5499 82.0498 69.0799C81.8298 69.5999 81.5098 69.9599 81.0998 70.1499C80.8598 70.2799 80.5898 70.3199 80.3198 70.2699C80.0498 70.2099 79.8798 70.0799 79.7998 69.8499C79.6798 69.4199 79.8698 69.0799 80.3798 68.8299C80.7398 68.7099 81.0598 68.4899 81.3498 68.1799C81.6398 67.8699 81.7998 67.5199 81.8298 67.1499ZM88.1598 72.1899H84.1598L84.0598 72.2899C84.0598 72.2899 83.9798 72.35 83.9298 72.39C83.8898 72.42 83.8498 72.4499 83.8298 72.4699C84.3998 73.1299 85.1498 73.68 86.0798 74.14C86.9198 73.56 87.6198 72.9099 88.1598 72.1899ZM84.6798 66.7599L84.8098 66.6099C86.1198 66.5999 86.9498 66.8899 87.3098 67.4799C87.5198 67.8199 87.5098 68.1199 87.2798 68.3799C87.0198 68.6599 86.6998 68.6999 86.2998 68.4999C86.1798 68.1899 85.9598 67.8699 85.6498 67.5499C85.3398 67.2199 85.0198 66.9599 84.6798 66.7699V66.7599Z" fill="white"/>
<path d="M99.5098 71.25H99.7598C100.01 71.99 100.11 72.65 100.04 73.23C99.9697 73.81 99.8298 74.27 99.6198 74.63C99.4098 74.99 99.1498 75.26 98.8398 75.45C98.5598 75.63 98.2698 75.69 97.9598 75.65C97.6498 75.61 97.4398 75.45 97.3298 75.18C97.1698 74.71 97.3598 74.34 97.8998 74.05C98.3398 73.83 98.7298 73.46 99.0498 72.95C99.3698 72.44 99.5298 71.87 99.5198 71.25H99.5098ZM97.7398 65.27L97.5898 64.8H103.97V61.79L105.59 61.99V64.8H112.3V65.27H105.59V68.3H111.57V68.78H98.7198L98.5898 68.3H103.98V65.27H97.7498H97.7398ZM108.83 73.1L108.86 75.16C109.28 75.29 109.49 75.51 109.49 75.81C109.49 76.06 109.38 76.25 109.17 76.38C108.97 76.51 108.59 76.61 108.04 76.68C107.48 76.75 106.68 76.78 105.63 76.78H103.5C102.66 76.78 102.1 76.68 101.82 76.48C101.55 76.29 101.42 75.91 101.42 75.33V70.82L102.98 71V75.01C102.98 75.14 103.02 75.23 103.11 75.28C103.2 75.32 103.42 75.35 103.76 75.35H105.76C106.74 75.35 107.31 75.35 107.49 75.33C107.7 75.32 107.85 75.24 107.94 75.1C108.07 74.9 108.3 74.23 108.62 73.1H108.82H108.83ZM103.09 69.74L103.24 69.61C104.97 69.87 106.12 70.44 106.67 71.32C106.99 71.83 107.03 72.28 106.79 72.65C106.57 72.99 106.23 73.08 105.79 72.9C105.75 72.88 105.7 72.86 105.66 72.83C105.48 72.31 105.14 71.76 104.64 71.18C104.15 70.6 103.64 70.12 103.09 69.73V69.74ZM108.55 71.12L108.72 70.99C110.54 71.55 111.73 72.36 112.28 73.44C112.61 74.1 112.65 74.64 112.38 75.09C112.15 75.47 111.81 75.57 111.38 75.41C111.26 75.37 111.14 75.3 111.03 75.21C110.93 74.53 110.64 73.82 110.16 73.08C109.68 72.33 109.14 71.68 108.54 71.13L108.55 71.12Z" fill="white"/>
<path d="M131.26 72.34H125.15C125.89 73.04 126.86 73.66 128.05 74.21C129.24 74.75 130.43 75.15 131.61 75.41L131.59 75.61C130.97 75.72 130.57 76.15 130.39 76.89C129.2 76.44 128.11 75.82 127.11 75.04C126.12 74.25 125.31 73.35 124.68 72.34H124.55V76.85C124.55 76.85 124.48 76.93 124.38 76.98C124.29 77.05 124.14 77.1 123.93 77.15C123.72 77.21 123.49 77.23 123.25 77.23H122.97V73.23C121.32 74.78 119.1 75.98 116.31 76.83L116.18 76.6C117.28 76.09 118.32 75.46 119.29 74.7C120.27 73.95 121.09 73.16 121.75 72.33H116.59L116.44 71.86H122.97V70.23H118.19L118.06 69.76H122.97V68.23H117.38L117.23 67.75H121.38C121.28 67.68 121.22 67.64 121.21 67.63C121.17 66.92 120.85 66.2 120.26 65.47H116.41L116.28 65H121.72V61.77L123.13 61.95V65H124.51V61.77L125.94 61.95V65H126.46C126.99 64.13 127.46 63.17 127.86 62.1L129.19 62.78C128.59 63.61 127.82 64.35 126.89 64.99H131.44V65.46H126.76L127.94 65.81L127.29 66.11C126.77 66.69 126.14 67.23 125.41 67.74H130.59V68.22H124.55V69.75H129.8V70.22H124.55V71.85H131.26V72.32V72.34ZM118.12 62.32L118.29 62.2C119.59 62.5 120.38 63.01 120.65 63.73C120.82 64.16 120.76 64.51 120.48 64.78C120.19 65.06 119.85 65.06 119.45 64.8C119.37 64.36 119.21 63.91 118.97 63.47C118.73 63.02 118.44 62.63 118.12 62.32ZM125.85 65.48H121.05C121.59 65.7 121.99 65.97 122.25 66.3C122.51 66.61 122.62 66.9 122.58 67.17C122.55 67.42 122.43 67.63 122.23 67.77H124.84C125.23 67.06 125.56 66.3 125.84 65.49L125.85 65.48Z" fill="white"/>
</svg>
