<svg width="1162" height="52" viewBox="0 0 1162 52" fill="none" xmlns="http://www.w3.org/2000/svg">
<path d="M1.43018 1.495H17.7352V18.625H16.4452V17.68H2.67518V18.625H1.43018V1.495ZM2.67518 16.48H16.4452V2.69502H2.67518V16.48ZM3.62018 13.495C5.13518 13.24 7.37018 12.82 9.62018 12.415L9.68018 13.285C7.67018 13.735 5.61518 14.17 4.32518 14.425C4.31018 14.575 4.20518 14.665 4.10018 14.71L3.63518 13.495H3.62018ZM11.0602 6.40002C11.2402 8.18502 11.5102 9.85 11.8552 11.2C12.5302 10.075 13.0552 8.80003 13.4002 7.39003L14.7502 7.72003C14.7052 7.85503 14.6002 7.91499 14.3602 7.91499C13.8952 9.60999 13.1752 11.17 12.2752 12.475C12.7402 13.63 13.4002 14.485 14.0602 14.485C14.3452 14.485 14.5402 13.66 14.6752 12.415C14.8852 12.625 15.2902 12.895 15.5302 13.03C15.3202 14.815 14.8552 15.64 14.1202 15.64C13.9852 15.64 13.8502 15.625 13.7002 15.565C12.7702 15.385 12.0802 14.635 11.5102 13.48C10.7152 14.425 9.78518 15.22 8.75018 15.835C8.60018 15.625 8.27018 15.235 8.03018 15.04C9.18518 14.38 10.2202 13.48 11.0602 12.37C10.5352 10.765 10.1902 8.68002 9.96518 6.40002H3.81518V5.395H9.87518C9.81518 4.675 9.75518 3.94002 9.72518 3.20502L11.2702 3.28C11.2552 3.43 11.1202 3.535 10.8802 3.565C10.8952 4.18 10.9402 4.78004 11.0002 5.38004H15.4102V6.38501H11.0752L11.0602 6.40002ZM4.55018 7.72003H8.91518V11.545H4.55018V7.72003ZM7.94018 10.705V8.575H5.51018V10.705H7.94018ZM12.6802 3.03999C13.4602 3.36999 14.3752 3.91002 14.8402 4.37502L14.2252 5.09503C13.7602 4.64503 12.8302 4.04503 12.0652 3.68503L12.6802 3.03999Z" fill="white"/>
<path d="M31.9851 7.18001C32.3751 8.45501 32.9151 9.67 33.5751 10.78C34.8501 9.985 36.3651 8.90503 37.3251 8.05003L38.5101 9.11502C38.4351 9.19002 38.2551 9.205 38.1051 9.19C37.1151 9.97 35.5101 10.99 34.2201 11.74C35.6151 13.66 37.4451 15.13 39.7251 15.865C39.4401 16.12 39.0651 16.615 38.8551 16.96C34.8951 15.505 32.3301 11.95 30.9651 7.53999C30.3501 8.00499 29.6151 8.47002 28.8351 8.87502C31.5051 10.795 32.6451 13.27 32.6451 15.22C32.6451 17.305 31.3251 18.58 29.3151 18.58C28.8351 18.58 28.2201 18.565 27.5751 18.52C27.5601 18.19 27.4401 17.65 27.2301 17.305C27.9501 17.365 28.6251 17.38 29.0451 17.38C29.6001 17.38 30.0651 17.335 30.4701 17.02C31.0101 16.675 31.3251 15.955 31.3251 15.07C31.3251 14.53 31.2051 13.93 30.9501 13.285C28.8201 15.115 25.4901 16.96 22.6851 17.89C22.5351 17.56 22.2651 17.08 21.9951 16.795C24.9351 16 28.4901 14.11 30.4401 12.25C30.1851 11.845 29.8851 11.44 29.5251 11.05C27.8601 12.295 25.2501 13.615 23.2251 14.365C23.0751 14.05 22.7751 13.615 22.5351 13.345C24.5901 12.745 27.2601 11.485 28.8201 10.33C28.4901 10.045 28.1301 9.73002 27.7251 9.44502C26.2701 10.12 24.7101 10.69 23.2401 11.11C23.0901 10.855 22.7751 10.36 22.5801 10.12C24.9651 9.52 27.6651 8.50002 29.5551 7.19502H24.9651V6.05501H36.0501V7.19502H31.9701L31.9851 7.18001ZM23.7801 4.04501V6.655H22.5201V2.84503H29.8851V0.565002L31.6101 0.685028C31.5951 0.820028 31.4751 0.925002 31.2201 0.940002V2.86H38.7051V6.67001H37.3851V4.06003H23.7651L23.7801 4.04501Z" fill="white"/>
<path d="M49.6104 3.85002V4.93002H42.6504V3.85002H49.6104ZM49.0704 11.74V17.425H44.6154V18.34H43.4904V11.74H49.0554H49.0704ZM49.0554 6.47502V7.54001H43.5204V6.47502H49.0554ZM43.5204 10.165V9.10002H49.0554V10.165H43.5204ZM48.9804 1.27002V2.33505H43.6254V1.27002H48.9804ZM47.9304 12.8351H44.6154V16.315H47.9304V12.8351ZM51.9504 12.775C51.7254 14.455 51.2904 16.3001 50.2554 17.3801L49.2654 16.72C50.2104 15.775 50.6754 14.065 50.8704 12.49L51.9504 12.775ZM55.3404 2.45503C55.1904 3.28003 54.9954 4.18005 54.6954 5.05005C55.6254 5.51505 56.4804 5.99502 57.0804 6.43002L56.4204 7.45001C55.8804 7.04501 55.1004 6.58004 54.2604 6.11504C53.5704 7.58504 52.4754 8.92005 50.6604 9.83505C50.5104 9.56505 50.1204 9.11501 49.8504 8.90501C51.5154 8.11001 52.5354 6.91001 53.1954 5.57501C52.3254 5.15501 51.4104 4.76503 50.5854 4.46503L51.2304 3.53503C52.0104 3.80503 52.8204 4.13503 53.6304 4.51003C53.8554 3.83503 54.0204 3.13003 54.1404 2.45503H50.7504V1.33003H59.4504L60.1404 1.39005C60.0204 2.14005 60.0204 7.90005 59.2254 8.80005C58.7604 9.37005 58.2804 9.37001 57.3654 9.37001C56.8854 9.37001 56.2854 9.35504 55.6854 9.31004C55.6704 8.96504 55.5504 8.48503 55.3404 8.17003C56.3604 8.24503 56.7954 8.24501 57.6654 8.24501C57.8904 8.24501 58.0404 8.20005 58.1754 8.05005C58.5054 7.66005 58.7004 6.25003 58.8504 2.45503H55.3554H55.3404ZM54.0204 16.555C54.0204 17.005 54.0954 17.08 54.6654 17.08H56.5554C57.0504 17.08 57.1554 16.825 57.2004 14.89C57.4704 15.085 57.9804 15.28 58.2954 15.37C58.1754 17.665 57.8304 18.235 56.6754 18.235H54.5154C53.1354 18.235 52.8204 17.86 52.8204 16.555V11.92L54.4104 12.04C54.3954 12.16 54.2754 12.25 54.0504 12.295V16.57L54.0204 16.555ZM56.4504 12.625C55.7604 11.8 54.2904 10.6301 53.0154 9.88005L53.8404 9.13005C55.1004 9.86505 56.6004 10.96 57.3204 11.8L56.4504 12.625ZM59.7504 17.35C59.4954 16.03 58.6254 14.08 57.6054 12.655L58.6704 12.235C59.7354 13.645 60.6204 15.565 60.9354 16.87L59.7504 17.35Z" fill="white"/>
<path d="M70.325 3.84999V4.92999H63.665V3.84999H70.325ZM69.77 11.74V17.41H65.615V18.34H64.49V11.74H69.77ZM64.505 7.53998V6.47499H69.77V7.53998H64.505ZM64.505 10.165V9.09999H69.77V10.165H64.505ZM69.695 1.26999V2.33502H64.61V1.26999H69.695ZM68.645 12.82H65.615V16.3H68.645V12.82ZM73.115 7.44998V6.58C72.38 7.51 71.525 8.26 70.64 8.83C70.49 8.56 70.16 8.13998 69.89 7.91498C70.805 7.41998 71.705 6.58001 72.455 5.56001C72.05 5.00501 71.315 4.24001 70.64 3.73001L71.39 2.99498C71.99 3.44498 72.68 4.06002 73.085 4.58502C73.475 3.91002 73.805 3.18999 74.045 2.43999H70.97V1.375H74.585L74.795 1.31499L75.53 1.64499C75.515 1.73499 75.44 1.795 75.395 1.84C74.945 3.595 74.195 5.12499 73.265 6.38499H78.56C77.42 4.89999 76.565 2.97999 76.04 0.894989L77.09 0.640015C77.285 1.39001 77.54 2.12502 77.825 2.84502C78.44 2.32002 79.145 1.66001 79.565 1.19501L80.51 2.01999C80.435 2.09499 80.285 2.14002 80.12 2.09502C79.64 2.51502 78.845 3.15999 78.185 3.60999C78.41 4.05999 78.65 4.47998 78.92 4.86998C79.565 4.37498 80.315 3.685 80.75 3.205L81.725 4.11998C81.65 4.19498 81.5 4.21001 81.335 4.19501C80.87 4.58501 80.09 5.14 79.415 5.59C80.105 6.445 80.9 7.13499 81.8 7.59999C81.515 7.83999 81.14 8.275 80.975 8.59C80.09 8.065 79.295 7.33002 78.62 6.46002V7.465H73.085L73.115 7.44998ZM77.585 16.825C77.36 16.735 77 16.585 76.805 16.54C77.195 15.715 77.675 14.335 77.9 13.42L79.385 13.885C79.325 14.005 79.205 14.065 78.98 14.065C78.695 14.86 78.245 16.015 77.825 16.825H81.65V17.965H70.235V16.825H73.655C73.535 16 73.115 14.74 72.665 13.765L73.76 13.45C74.24 14.395 74.675 15.655 74.825 16.48L73.7 16.81H77.555L77.585 16.825ZM71.885 13.3V8.74001H79.895V13.3H71.885ZM73.085 9.82001V12.22H78.635V9.82001H73.085Z" fill="white"/>
<path d="M87.1851 14.575V0.38501H93.6201V1.39003H88.1901V14.575H87.1851Z" fill="white"/>
<path d="M108.59 3.10002C110.66 4.69002 113.06 6.97003 114.14 8.59003L113.045 9.47502C112.7 8.93502 112.22 8.32005 111.635 7.67505C106.205 7.91505 100.355 8.09503 96.8453 8.21503C96.8303 8.36503 96.6953 8.44005 96.5303 8.47005L96.0503 6.88005L99.3203 6.82004C100.565 5.06504 102.035 2.45502 102.875 0.52002L104.495 1.18002C104.45 1.30002 104.285 1.36002 104.075 1.36002C103.25 3.01002 101.96 5.12501 100.82 6.79001L110.525 6.52002C109.595 5.57502 108.575 4.64502 107.585 3.89502L108.59 3.10002ZM98.9453 18.55V10.33H111.23V18.475H109.88V17.725H100.25V18.55H98.9603H98.9453ZM109.865 11.59H100.235V16.45H109.865V11.59Z" fill="white"/>
<path d="M117.785 6.05502C118.835 6.58002 120.065 7.40502 120.665 8.02002L119.885 9.01003C119.3 8.39503 118.07 7.49502 117.035 6.94002L117.77 6.05502H117.785ZM117.44 17.605C118.16 16.075 119.18 13.5251 119.915 11.3351L120.935 12.01C120.275 14.035 119.375 16.42 118.715 17.89C118.805 18.01 118.85 18.1 118.85 18.205C118.85 18.28 118.835 18.325 118.805 18.385L117.425 17.605H117.44ZM120.2 3.92505C119.645 3.25005 118.46 2.32005 117.47 1.67505L118.25 0.820038C119.24 1.40504 120.44 2.29001 120.995 2.95001L120.2 3.91003V3.92505ZM123.02 7.40501C122.96 7.54001 122.84 7.58502 122.69 7.55502C122.48 8.44002 122.15 9.47501 121.745 10.12C121.595 9.97001 121.265 9.74505 121.07 9.64005C121.445 9.04005 121.685 8.03503 121.88 7.04503L123.02 7.39005V7.40501ZM121.265 5.54503H122.21C122.465 5.21503 122.72 4.87004 122.96 4.48004C122.555 4.01504 121.97 3.46002 121.445 3.05502L121.97 2.39502L122.195 2.57501C122.57 1.91501 122.945 1.12005 123.155 0.550049L124.265 1.06004C124.205 1.15004 124.07 1.21005 123.89 1.21005C123.635 1.73505 123.215 2.48504 122.825 3.07004C123.05 3.28004 123.29 3.47504 123.47 3.68504C123.815 3.11504 124.13 2.60505 124.355 2.14005L125.435 2.69504C125.36 2.81504 125.21 2.84503 125.03 2.83003C124.58 3.61003 123.875 4.64505 123.215 5.51505L124.685 5.45503C124.565 5.18503 124.46 4.93003 124.325 4.70503L125 4.43504C125.375 5.05004 125.72 5.90504 125.855 6.44504L125.12 6.76003C125.075 6.61003 125.045 6.43002 124.985 6.23502L124.04 6.31004V10.39H123.11V6.38503C122.63 6.43003 122.195 6.44505 121.85 6.46005C121.805 6.59505 121.715 6.67003 121.58 6.71503L121.25 5.56004L121.265 5.54503ZM133.115 14.89L133.37 14.83L134.165 15.1C134.12 15.19 134.09 15.31 134.03 15.415C133.34 18.43 132.77 18.55 131.045 18.55C130.46 18.55 129.65 18.535 128.795 18.49C128.78 18.16 128.645 17.74 128.45 17.44C129.335 17.53 130.235 17.56 130.775 17.56H131.15C131.825 17.56 132.245 17.56 132.665 15.82H123.755L123.575 16.405L122.375 16.195C122.72 15.28 123.095 13.99 123.365 12.925H132.035V11.83H122.45V10.945H133.265V13.84H124.355L124.07 14.905H133.16L133.115 14.89ZM125.225 7.07501C125.435 7.76501 125.645 8.62005 125.735 9.17505L124.94 9.38503C124.865 8.80003 124.67 7.93004 124.475 7.24004L125.225 7.06004V7.07501ZM130.22 2.53001V3.38503H125.48V2.53001H130.22ZM126.035 10.03V7.10504H129.725V10.03H126.035ZM129.695 4.09003V4.88503H126.08V4.09003H129.695ZM126.08 6.37001V5.57501H129.695V6.37001H126.08ZM129.575 1.03001V1.82501H126.17V1.03001H129.575ZM126.95 7.85504V9.25003H128.825V7.85504H126.95ZM131.915 7.39005C131.87 7.48005 131.78 7.54001 131.57 7.54001C131.36 8.39501 131.03 9.40005 130.625 10.015C130.445 9.88005 130.145 9.67005 129.935 9.55005C130.31 8.95005 130.595 8.00501 130.79 7.03001L131.93 7.37503L131.915 7.39005ZM130.04 5.51505H131.045C131.3 5.20005 131.555 4.85501 131.825 4.49501C131.42 4.03001 130.775 3.44504 130.235 3.02504L130.76 2.35002L131.045 2.54503C131.405 1.90003 131.825 1.12003 132.065 0.535034L133.16 1.04503C133.085 1.18003 132.935 1.22504 132.77 1.19504C132.5 1.72004 132.05 2.45502 131.645 3.05502C131.915 3.29502 132.155 3.52004 132.335 3.73004C132.74 3.14504 133.085 2.57503 133.355 2.08003L134.435 2.63503C134.375 2.72503 134.24 2.77002 134.045 2.77002C133.535 3.55002 132.77 4.58503 132.05 5.45503L133.715 5.41003C133.565 5.14003 133.43 4.88505 133.265 4.67505L133.955 4.34505C134.42 4.96005 134.885 5.83004 135.05 6.40004L134.3 6.79001C134.24 6.61001 134.165 6.40002 134.075 6.19002L133.025 6.26505V10.36H132.065V6.34003L130.595 6.43002C130.58 6.55002 130.46 6.62501 130.34 6.65501L129.995 5.50003L130.04 5.51505ZM134.255 9.85002C134.135 9.16002 133.835 8.09503 133.565 7.28503L134.345 7.07501C134.66 7.88501 134.96 8.95002 135.095 9.61002L134.27 9.86504L134.255 9.85002Z" fill="white"/>
<path d="M144.455 3.84999V4.92999H138.155V3.84999H144.455ZM143.93 17.41H140V18.34H138.92V11.74H143.93V17.41ZM143.945 6.47499V7.53998H138.935V6.47499H143.945ZM138.935 10.165V9.09999H143.945V10.165H138.935ZM143.885 1.26999V2.33502H139.07V1.26999H143.885ZM142.82 12.82H140V16.3H142.82V12.82ZM152.33 5.41C152.42 7.885 152.585 10.24 152.84 12.205C153.56 10.675 154.1 8.94998 154.49 7.11998L155.885 7.63002C155.825 7.75002 155.705 7.80998 155.495 7.82498C154.97 10.09 154.175 12.19 153.155 14.035C153.53 15.91 154.115 17.32 154.76 17.32C155.075 17.32 155.36 15.895 155.54 14.02C155.765 14.245 156.14 14.53 156.365 14.635C156.095 17.32 155.555 18.565 154.67 18.565C153.575 18.565 152.81 17.29 152.315 15.43C151.535 16.585 150.665 17.62 149.72 18.445C149.525 18.25 149.165 17.935 148.895 17.785C150.05 16.78 151.1 15.46 151.985 13.93C151.565 11.605 151.34 8.60502 151.205 5.42502H146.57V8.25999H150.365V8.71002C150.275 13.06 150.185 14.53 149.84 15.01C149.555 15.355 149.3 15.52 148.115 15.52C147.83 15.52 147.47 15.505 147.155 15.505C147.14 15.16 147.035 14.71 146.84 14.41C147.53 14.47 148.19 14.47 148.46 14.47C148.64 14.47 148.775 14.425 148.85 14.275C149.06 13.99 149.135 12.79 149.225 9.38499H146.57C146.57 11.77 146.42 15.85 144.875 18.61C144.68 18.37 144.185 17.95 143.885 17.815C145.235 15.34 145.37 11.935 145.37 9.44501V4.24001H151.16C151.115 3.05501 151.1 1.84001 151.07 0.640015L152.66 0.730011C152.66 0.865011 152.525 0.955 152.27 1L152.33 4.22499H156.02V5.42502H152.36L152.33 5.41ZM153.89 0.730011C154.67 1.37501 155.57 2.28998 156.005 2.94998L155.075 3.535C154.67 2.905 153.785 1.91501 153.02 1.24001L153.89 0.730011Z" fill="white"/>
<path d="M161.84 7.41997C161.105 8.63497 160.295 9.71496 159.485 10.645C159.35 10.33 159.02 9.72996 158.81 9.42996C160.67 7.41996 162.53 4.07498 163.64 0.72998L165.185 1.25499C165.11 1.38999 164.975 1.44998 164.735 1.43498C164.225 2.78498 163.64 4.13496 162.95 5.43996L163.475 5.57495C163.43 5.69495 163.34 5.78499 163.085 5.79999V18.625H161.825V7.43498L161.84 7.41997ZM164.435 4.23997H177.2V5.34996H164.435V4.23997ZM165.86 18.55V12.34H175.865V18.49H174.545V17.575H167.12V18.55H165.86ZM175.685 6.93996V8.01996H166.055V6.93996H175.685ZM166.055 10.735V9.65495H175.67V10.735H166.055ZM175.34 1.52498V2.60498H166.265V1.52498H175.34ZM174.545 13.42H167.12V16.4949H174.545V13.42Z" fill="white"/>
<path d="M185.375 7.42003L186.125 7.67505C186.11 7.76505 186.05 7.85504 185.99 7.90004C185.675 10.51 185.135 12.67 184.34 14.425C186.275 16.345 189.02 16.765 192.365 16.765C193.1 16.765 197.39 16.765 198.335 16.75C198.125 17.065 197.885 17.665 197.81 18.025H192.335C188.675 18.025 185.84 17.53 183.74 15.565C183.005 16.84 182.12 17.845 181.085 18.58C180.89 18.31 180.395 17.845 180.125 17.665C181.205 16.93 182.135 15.91 182.87 14.575C182.12 13.57 181.49 12.31 181.01 10.705L182.03 10.285C182.405 11.53 182.855 12.55 183.44 13.375C183.98 12.04 184.385 10.48 184.625 8.63503H182.15L181.745 9.43002L180.545 9.10002C181.55 7.24002 182.75 4.78001 183.56 3.04001H180.26V1.85504H184.325L184.58 1.79503L185.405 2.14005C185.36 2.21505 185.315 2.32002 185.255 2.39502C184.655 3.64002 183.71 5.59001 182.765 7.45001H185.105L185.36 7.40501L185.375 7.42003ZM191.105 7.49501V5.95001H185.615V4.87001H191.105V3.34003H187.145V2.27504H191.105V0.535034L192.755 0.655014C192.74 0.790014 192.635 0.895034 192.38 0.910034V2.29001H196.64V4.88503H198.2V5.96503H196.64V8.57501H192.38V10.18H196.97V11.23H192.38V12.8351H197.84V13.915H192.38V16.06H191.105V13.915H185.87V12.8351H191.105V11.23H186.74V10.18H191.105V8.57501H187.01V7.51003H191.105V7.49501ZM192.38 3.34003V4.87001H195.365V3.34003H192.38ZM195.365 7.49501V5.95001H192.38V7.49501H195.365Z" fill="white"/>
<path d="M218.975 2.76999V3.97002H214.31L215.33 4.22499C215.27 4.34499 215.135 4.40498 214.91 4.40498C214.64 5.01998 214.235 5.86 213.83 6.535H217.955V16.945C217.955 18.565 217.175 18.61 213.83 18.61C213.755 18.235 213.56 17.68 213.365 17.335C214.145 17.35 214.88 17.38 215.42 17.38C216.605 17.38 216.695 17.38 216.695 16.93V7.705H212.57V9.42999C212.57 9.77499 212.645 9.83502 213.185 9.83502H215.105C215.51 9.83502 215.615 9.74498 215.645 8.90498C215.87 9.08498 216.335 9.25001 216.665 9.31001C216.545 10.555 216.2 10.855 215.255 10.855H213.065C211.715 10.855 211.4 10.585 211.4 9.44501V7.705H208.835C208.58 9.82 207.785 11.11 204.815 11.83C204.725 11.545 204.41 11.11 204.17 10.9C206.63 10.405 207.395 9.49 207.65 7.705H204.02V18.595H202.76V6.55002H206.705C206.495 5.87502 206.105 4.95999 205.7 4.26999L206.915 4C207.38 4.735 207.845 5.73999 208.01 6.38499L207.365 6.56499H212.39C212.78 5.84499 213.245 4.78001 213.53 4.01501H201.59V2.81499H209.525V0.625L211.22 0.74498C211.205 0.87998 211.1 0.97 210.83 1V2.81499H218.93L218.975 2.76999ZM214.07 16.585H207.83V17.77H206.645V11.815H214.07V16.585ZM212.87 12.85H207.815V15.535H212.87V12.85Z" fill="white"/>
<path d="M228.38 4.35999V18.55H221.945V17.53H227.375V4.35999H228.38Z" fill="white"/>
<path d="M234.11 18.745C234.425 17.77 234.8 15.865 234.965 14.62L237.05 14.35C236.645 15.82 235.835 17.83 235.385 18.58L234.11 18.73V18.745Z" fill="white"/>
<path d="M262.82 4.52504H254.675C254.525 5.11004 254.345 5.81505 254.135 6.46005H260.345V18.55H259.01V17.395H249.275V18.55H248V6.46005H252.785C252.935 5.86005 253.1 5.14004 253.205 4.52504H245.3V3.31004H250.355C249.965 2.62004 249.275 1.70503 248.66 1.04503L249.845 0.52002C250.58 1.25502 251.375 2.26001 251.765 2.95001L251.09 3.29503H256.235C256.895 2.50003 257.69 1.36003 258.125 0.535034L259.805 1.12001C259.73 1.21001 259.595 1.30002 259.385 1.27002C258.98 1.88502 258.38 2.65003 257.795 3.29503H262.85V4.51003L262.82 4.52504ZM259.01 9.71503V7.63005H249.275V9.71503H259.01ZM249.275 10.78V12.94H259.01V10.78H249.275ZM249.275 16.2101H259.01V14.0051H249.275V16.2101Z" fill="white"/>
<path d="M275.735 11.86H269.06C268.865 13.975 268.31 16.36 266.87 18.145C266.675 17.905 266.21 17.485 265.985 17.35C267.77 15.085 267.995 12.04 267.995 9.78999V6.52H275.735V11.86ZM272.795 0.850006C272.735 0.985006 272.615 1.075 272.39 1.075V1.12C273.98 2.08 275.81 3.475 276.755 4.405L276.02 5.395C275.075 4.45 273.335 3.05503 271.76 2.05003C271.235 2.78503 270.62 3.56502 269.9 4.33002H274.565V5.32002H269.705V4.52502C268.85 5.41002 267.86 6.26501 266.75 7.04501C266.6 6.73001 266.225 6.29501 266 6.10001C268.475 4.49501 270.275 2.33503 271.235 0.595032L272.78 0.865021L272.795 0.850006ZM269.105 18.505V13.09H276.185V18.355H275V17.665H270.245V18.52H269.105V18.505ZM269.165 9.62502C269.165 10.21 269.165 10.495 269.15 10.87H274.565V9.62502H269.165ZM274.565 7.51001H269.165V8.71004H274.565V7.51001ZM275.015 14.11H270.26V16.63H275.015V14.11ZM279.14 3.02502C279.125 3.16002 279.02 3.25001 278.765 3.29501V13.735H277.505V2.92001L279.125 3.01001L279.14 3.02502ZM281.945 0.940002L283.61 1.03C283.565 1.165 283.475 1.25503 283.22 1.30003V16.75C283.22 18.4 282.485 18.565 279.02 18.535C278.945 18.19 278.75 17.605 278.54 17.245C279.23 17.26 279.875 17.26 280.385 17.26C281.9 17.26 281.945 17.26 281.945 16.78V0.940002Z" fill="white"/>
<path d="M293.15 8.36504L294.065 8.83003C294.05 8.90503 293.945 8.98004 293.855 9.02504C292.835 12.79 290.585 15.7 288.05 17.305C287.84 17.035 287.33 16.525 287.03 16.345C289.28 15.025 291.26 12.67 292.265 9.68504H287.435V8.42505H292.925L293.15 8.36504ZM296.78 5.81502C297.23 7.40502 297.83 8.89002 298.58 10.225C300.17 9.04002 302.105 7.33003 303.305 5.96503L304.7 7.01505C304.61 7.13505 304.415 7.15003 304.235 7.13503C302.945 8.36503 300.845 10.09 299.18 11.23C300.665 13.45 302.645 15.175 305.135 16.12C304.85 16.39 304.445 16.9 304.22 17.26C300.77 15.79 298.355 12.985 296.78 9.29503V16.87C296.78 17.695 296.585 18.085 296 18.295C295.4 18.505 294.38 18.535 292.745 18.535C292.685 18.16 292.475 17.62 292.28 17.26C293.525 17.305 294.665 17.305 294.995 17.305C295.34 17.29 295.46 17.185 295.46 16.855V6.02504H289.925V4.76505H296.765V5.81502H296.78ZM292.385 0.535034C294.8 1.12003 298.01 2.20005 299.675 3.08505L299.03 4.42003C297.41 3.50503 294.23 2.33502 291.755 1.69002L292.37 0.535034H292.385Z" fill="white"/>
<path d="M319.82 3.71501L320.75 4.19502C320.705 4.28502 320.615 4.39001 320.525 4.42001C320.105 6.11501 319.535 7.69002 318.845 9.11502C320.225 12.79 322.91 16.045 326.27 17.455C325.955 17.725 325.535 18.25 325.325 18.595C322.16 17.11 319.64 14.155 318.065 10.585C315.845 14.38 312.695 17.02 309.185 18.61C309.005 18.28 308.57 17.695 308.255 17.455C313.085 15.43 317.21 11.335 318.95 5.09503H313.61C312.395 7.43503 310.865 9.50501 309.14 10.975C308.915 10.705 308.405 10.3 308.09 10.06C310.625 8.00503 312.77 4.405 314.015 0.565002L315.71 1.06003C315.65 1.19503 315.5 1.27004 315.245 1.25504C314.96 2.11004 314.6 2.95002 314.24 3.77502H319.565L319.82 3.7V3.71501Z" fill="white"/>
<path d="M331.82 7.41997C331.085 8.63497 330.275 9.71496 329.465 10.645C329.33 10.33 329 9.72996 328.79 9.42996C330.65 7.41996 332.51 4.07498 333.62 0.72998L335.165 1.25499C335.09 1.38999 334.955 1.44998 334.715 1.43498C334.22 2.78498 333.62 4.13496 332.93 5.43996L333.455 5.57495C333.41 5.69495 333.32 5.78499 333.065 5.79999V18.625H331.805V7.43498L331.82 7.41997ZM347.045 11.485H342.29C343.565 13.615 345.65 15.67 347.585 16.705C347.27 16.96 346.865 17.425 346.655 17.755C344.78 16.57 342.785 14.425 341.45 12.19V18.565H340.16V12.28C338.765 14.53 336.68 16.6 334.7 17.71C334.49 17.38 334.085 16.915 333.785 16.66C335.84 15.655 338 13.6 339.335 11.47H334.31V10.255H340.145V8.00499H335.795V1.50996H345.965V8.00499H341.435V10.255H347.03V11.47L347.045 11.485ZM337.07 2.70999V6.84996H344.705V2.70999H337.07Z" fill="white"/>
<path d="M352.49 7.58504C351.845 8.72504 351.17 9.79003 350.465 10.675C350.33 10.36 350.015 9.71499 349.82 9.41499C351.485 7.40499 353.09 4.04503 354.08 0.685028L355.61 1.16499C355.55 1.29999 355.415 1.37502 355.16 1.37502C354.74 2.66502 354.23 3.97 353.675 5.2L354.125 5.33504C354.08 5.47004 353.99 5.54501 353.75 5.59001V18.55H352.49V7.57002V7.58504ZM355.49 2.86L357.02 2.95C357.005 3.07 356.9 3.16002 356.645 3.20502V15.25H355.49V2.86ZM367.985 3.85001H366.38C365.735 5.24501 364.82 6.41503 363.68 7.39003C365.075 8.24503 366.755 8.92003 368.765 9.31003C368.51 9.53503 368.21 10.03 368.03 10.36C365.915 9.88 364.175 9.08503 362.765 8.14003C361.31 9.16003 359.6 9.94 357.71 10.495C357.56 10.21 357.2 9.74502 356.975 9.49002C358.76 9.02502 360.395 8.35001 361.79 7.42001C360.83 6.62501 360.065 5.77002 359.525 4.90002C358.97 5.68002 358.37 6.35502 357.77 6.91002C357.56 6.70002 357.125 6.32502 356.855 6.16002C358.28 4.88502 359.72 2.755 360.53 0.565002L362.015 1.01503C361.94 1.16503 361.76 1.21002 361.595 1.19502C361.385 1.72002 361.13 2.26002 360.86 2.78502H367.97V3.86502L367.985 3.85001ZM368.315 14.035C368.24 14.155 368.105 14.185 367.925 14.17C366.065 16.285 362.375 17.725 358.19 18.46C358.055 18.13 357.77 17.68 357.515 17.395C361.52 16.795 365.135 15.505 366.92 13.495L368.315 14.035ZM364.37 9.94C364.31 10.03 364.22 10.09 364.04 10.09C362.915 11.14 360.89 12.205 359.03 12.805C358.85 12.55 358.52 12.22 358.28 12.01C360.065 11.47 362.045 10.525 363.11 9.47501L364.37 9.94ZM366.245 11.815C366.185 11.905 366.065 11.965 365.9 11.965C364.505 13.36 361.895 14.635 359.285 15.355C359.105 15.085 358.835 14.71 358.565 14.47C361.085 13.885 363.65 12.745 365 11.35L366.245 11.815ZM360.23 3.85001L360.155 3.97003C360.74 4.93003 361.565 5.89003 362.69 6.73003C363.65 5.92003 364.475 4.97501 365.045 3.85001H360.23Z" fill="white"/>
<path d="M371.9 13.21C373.325 14.35 375.23 16.27 376.265 17.485L375.11 18.55C374.15 17.305 372.17 15.28 370.88 14.125L371.9 13.21Z" fill="white"/>
<path d="M388.67 8.36504L389.585 8.83003C389.57 8.90503 389.465 8.98004 389.375 9.02504C388.355 12.79 386.105 15.7 383.57 17.305C383.36 17.035 382.85 16.525 382.55 16.345C384.8 15.025 386.78 12.67 387.785 9.68504H382.955V8.42505H388.445L388.67 8.36504ZM392.3 5.81502C392.75 7.40502 393.35 8.89002 394.1 10.225C395.69 9.04002 397.625 7.33003 398.825 5.96503L400.22 7.01505C400.13 7.13505 399.935 7.15003 399.755 7.13503C398.465 8.36503 396.365 10.09 394.7 11.23C396.185 13.45 398.165 15.175 400.655 16.12C400.37 16.39 399.965 16.9 399.74 17.26C396.29 15.79 393.875 12.985 392.3 9.29503V16.87C392.3 17.695 392.105 18.085 391.52 18.295C390.92 18.505 389.9 18.535 388.265 18.535C388.205 18.16 387.995 17.62 387.8 17.26C389.045 17.305 390.185 17.305 390.515 17.305C390.86 17.29 390.98 17.185 390.98 16.855V6.02504H385.445V4.76505H392.285V5.81502H392.3ZM387.905 0.535034C390.32 1.12003 393.53 2.20005 395.195 3.08505L394.55 4.42003C392.93 3.50503 389.75 2.33502 387.275 1.69002L387.89 0.535034H387.905Z" fill="white"/>
<path d="M409.85 11.2C409.76 10.915 409.64 10.555 409.46 10.18L407.915 10.27V18.55H406.76V10.33C405.74 10.375 404.81 10.405 404.075 10.45C404.03 10.585 403.925 10.66 403.79 10.705L403.445 9.25002H404.765C405.185 8.71002 405.65 8.09503 406.115 7.43503C405.53 6.52003 404.525 5.37999 403.64 4.53999C404.045 4.11999 404.18 3.92501 404.315 3.71501C404.525 3.91001 404.735 4.12002 404.96 4.33002C405.575 3.20502 406.28 1.67503 406.685 0.595032L408.095 1.13501C408.035 1.25501 407.9 1.28502 407.69 1.28502C407.18 2.39502 406.37 3.97003 405.68 5.05003C406.1 5.51503 406.505 5.98002 406.805 6.40002C407.6 5.15502 408.335 3.86502 408.875 2.78502L410.255 3.43001C410.18 3.52001 410.045 3.58002 409.835 3.58002C408.875 5.24502 407.345 7.54003 406.01 9.22003L409.025 9.16002C408.695 8.53002 408.305 7.87003 407.945 7.30003L408.89 6.895C409.715 8.095 410.585 9.70003 410.9 10.72L409.895 11.185L409.85 11.2ZM406.04 12.07C405.995 12.25 405.845 12.28 405.665 12.265C405.41 13.885 404.99 15.76 404.42 16.9C404.195 16.75 403.76 16.555 403.475 16.42C404.015 15.34 404.405 13.48 404.63 11.725L406.025 12.07H406.04ZM409.625 11.68C410.18 12.88 410.705 14.47 410.9 15.49L409.88 15.835C409.7 14.785 409.19 13.18 408.635 11.98L409.625 11.665V11.68ZM415.025 16.615C415.025 16.615 414.845 16.735 414.65 16.75C413.735 17.41 411.89 18.175 410.36 18.565C410.165 18.34 409.745 17.95 409.475 17.74C411.035 17.35 412.895 16.615 413.825 15.955L415.025 16.615ZM415.25 3.68503V2.72501H410.39V1.81003H415.25V0.565002L416.9 0.685028C416.885 0.820028 416.78 0.925002 416.525 0.940002V1.81003H421.625V2.72501H416.525V3.68503H420.755V4.57002H411.32V3.68503H415.25ZM421.055 5.38004V9.11502H410.975V5.38004H421.055ZM420.5 15.925H411.59V10.045H420.5V15.925ZM412.07 8.30501H419.945V7.57002C419.795 7.69002 419.54 7.75002 419.165 7.75002H417.815C416.795 7.75002 416.54 7.60001 416.54 6.76001V6.17503H415.25C415.1 7.10503 414.5 7.72 412.7 8.065C412.61 7.855 412.37 7.57003 412.19 7.43503C413.54 7.22503 414.11 6.89503 414.305 6.17503H412.085V8.30501H412.07ZM412.745 10.84V11.755H419.3V10.84H412.745ZM412.745 12.49V13.435H419.3V12.49H412.745ZM412.745 14.17V15.115H419.3V14.17H412.745ZM420.62 18.595C419.795 17.995 418.325 17.245 416.93 16.66L417.785 15.97C419.195 16.51 420.815 17.26 421.775 17.89L420.635 18.61L420.62 18.595ZM418.97 7.09001C419.225 7.09001 419.3 7.07503 419.33 6.97003C419.48 7.06003 419.72 7.12001 419.93 7.18001V6.17503H417.53V6.76001C417.53 7.04501 417.575 7.09001 417.905 7.09001H418.97Z" fill="white"/>
<path d="M431.69 1.30005V16.945C431.69 18.535 430.88 18.55 428.42 18.55C428.375 18.22 428.21 17.635 428.03 17.29C428.51 17.305 428.96 17.305 429.32 17.305C430.07 17.305 430.445 17.175 430.445 16.915V11.86H427.13C426.95 14.2 426.575 16.675 425.66 18.55C425.435 18.34 424.91 18.025 424.595 17.905C425.945 15.145 426.05 11.215 426.05 8.32004V1.28503H431.675L431.69 1.30005ZM427.265 8.33505C427.265 9.05505 427.25 9.82005 427.22 10.6301H430.445V7.13503H427.25V8.33505H427.265ZM430.46 2.53001H427.265V5.92003H430.46V2.53001ZM441.365 8.62001L442.175 8.95001C442.16 9.04001 442.055 9.13003 441.995 9.16003C441.47 11.41 440.6 13.36 439.475 14.965C440.465 16.09 441.62 16.99 442.88 17.575C442.61 17.815 442.22 18.25 442.055 18.565C440.84 17.92 439.73 17.02 438.74 15.91C437.825 17.02 436.79 17.905 435.68 18.58C435.5 18.265 435.155 17.845 434.885 17.62C435.965 17.005 437.03 16.09 437.96 14.935C436.94 13.555 436.115 11.95 435.545 10.24L436.595 9.92505C437.105 11.38 437.795 12.775 438.665 13.975C439.46 12.775 440.12 11.41 440.555 9.89502H434.855V18.565H433.595V1.45001H441.62V5.92003C441.62 7.30003 441.035 7.34505 438.14 7.34505C438.08 7.00005 437.915 6.52002 437.735 6.19002C438.275 6.19002 438.785 6.20503 439.16 6.20503C439.96 6.20503 440.36 6.11003 440.36 5.92003V2.66501H434.855V8.69504H441.14L441.35 8.63503L441.365 8.62001Z" fill="white"/>
<path d="M463.46 3.83504H461.84C461.3 5.29004 460.49 6.52002 459.455 7.57002C460.715 8.51502 462.185 9.235 463.79 9.655C463.52 9.91 463.175 10.405 462.98 10.75C461.33 10.24 459.845 9.43 458.57 8.395C457.28 9.475 455.72 10.315 453.98 10.915C453.845 10.675 453.59 10.33 453.38 10.06C453.095 10.93 452.765 11.74 452.405 12.385L451.475 11.92C451.88 11.095 452.285 9.80502 452.615 8.65002H450.59V17.005C450.59 18.415 449.945 18.49 447.575 18.49C447.515 18.16 447.35 17.62 447.155 17.275C447.65 17.29 448.145 17.32 448.505 17.32C449.285 17.32 449.36 17.32 449.36 17.005V10.24C448.58 12.235 447.5 14.2 446.375 15.34C446.24 14.995 445.91 14.47 445.685 14.155C446.93 12.955 448.175 10.735 448.91 8.65002H445.835V7.495H451.25C450.29 6.58 448.385 5.41 446.795 4.69L447.605 3.86502C448.22 4.13502 448.88 4.46503 449.525 4.81003C450.335 4.22503 451.145 3.46001 451.775 2.72501H446.075V1.58504H452.78L453.005 1.52502L453.965 2.12502C453.92 2.20002 453.785 2.27501 453.695 2.30501C452.945 3.32501 451.7 4.525 450.5 5.395C451.175 5.815 451.76 6.25002 452.18 6.62502L451.385 7.495H453.365L454.055 7.53999C454.055 7.79499 453.575 9.35502 453.44 9.82002C455.03 9.29502 456.455 8.56001 457.64 7.60001C456.89 6.82001 456.215 5.95004 455.66 5.00504C455.195 5.63504 454.7 6.22 454.19 6.7C453.935 6.475 453.47 6.11501 453.17 5.92001C454.55 4.72001 455.795 2.665 456.5 0.565002L458.09 1.03C458.045 1.165 457.895 1.24001 457.685 1.22501C457.505 1.70501 457.295 2.18501 457.04 2.68001H463.445V3.83504H463.46ZM461.915 11.875L462.665 12.025C462.665 12.145 462.65 12.295 462.59 12.415C462.245 16.03 461.9 17.47 461.345 18.01C460.925 18.43 460.49 18.52 459.35 18.52C458.945 18.52 458.465 18.52 457.97 18.475C457.925 18.1 457.82 17.59 457.61 17.26C458.48 17.335 459.29 17.35 459.605 17.35C459.935 17.35 460.115 17.305 460.28 17.155C460.64 16.795 460.94 15.685 461.21 13.03H458.06C457.4 15.295 456.125 17.365 453.23 18.58C453.095 18.295 452.735 17.845 452.45 17.62C454.91 16.66 456.11 14.965 456.74 13.03H453.74V11.905H457.025C457.175 11.23 457.28 10.51 457.355 9.82002L459.02 9.97003C458.975 10.12 458.84 10.195 458.615 10.24C458.54 10.81 458.465 11.35 458.345 11.905H461.615L461.9 11.86L461.915 11.875ZM456.44 3.83504L456.365 3.97003C456.905 5.02003 457.64 5.96499 458.525 6.78999C459.335 5.93499 460.01 4.97504 460.475 3.83504H456.44Z" fill="white"/>
<path d="M467.21 18.745C467.525 17.77 467.9 15.865 468.065 14.62L470.15 14.35C469.745 15.82 468.935 17.83 468.485 18.58L467.21 18.73V18.745Z" fill="white"/>
<path d="M496.011 13.015V14.125H491.271V17.11C491.271 17.83 491.121 18.175 490.536 18.37C489.936 18.565 488.976 18.565 487.371 18.565C487.311 18.22 487.146 17.755 486.966 17.41C488.211 17.455 489.291 17.455 489.621 17.455C489.936 17.44 490.026 17.335 490.026 17.11V14.155H478.266V13.045H490.026V11.77L491.676 11.845C491.631 11.98 491.541 12.055 491.286 12.115V13.045H496.026L496.011 13.015ZM486.456 4.39003V3.20502H478.431V2.14003H486.456V0.595032L488.121 0.715012C488.106 0.850012 488.001 0.940001 487.731 0.985001V2.14003H495.876V3.20502H487.731V4.39003H493.566V9.71501H491.511C492.921 10.255 494.436 11.05 495.261 11.665L494.481 12.445C494.166 12.19 493.761 11.92 493.296 11.635C488.331 11.785 482.991 11.92 479.706 11.965C479.661 12.115 479.556 12.205 479.421 12.22L479.016 10.93C480.936 10.93 483.561 10.915 486.441 10.87V9.73003H480.741V4.405H486.441L486.456 4.39003ZM484.671 17.545C483.981 16.765 482.556 15.715 481.386 14.98L482.271 14.2C483.456 14.875 484.896 15.895 485.601 16.66L484.671 17.545ZM481.986 5.32002V6.59503H486.456V5.32002H481.986ZM481.986 8.78502H486.456V7.46501H481.986V8.78502ZM492.291 5.32002H487.731V6.59503H492.291V5.32002ZM492.291 8.78502V7.46501H487.731V8.78502H492.291ZM487.731 9.71501V10.84L491.691 10.78C491.151 10.525 490.596 10.315 490.071 10.15L490.536 9.73003H487.731V9.71501Z" fill="white"/>
<path d="M499.835 6.05498C501.17 6.47498 502.85 7.23996 503.705 7.86996L502.985 8.99496C502.16 8.34996 500.51 7.52498 499.16 7.04498L499.835 6.05498ZM499.85 17.38C500.915 15.865 502.475 13.255 503.6 11.035L504.545 11.905C503.525 13.96 502.13 16.39 501.14 17.905C501.2 17.995 501.23 18.085 501.23 18.16C501.23 18.25 501.185 18.34 501.14 18.4L499.85 17.395V17.38ZM500.975 0.729996C502.295 1.24 503.915 2.11 504.725 2.8L503.975 3.89497C503.18 3.15997 501.59 2.22997 500.255 1.68997L500.975 0.714981V0.729996ZM511.385 16.69H517.19V17.95H504.275V16.69H510.065V11.695H505.655V10.45H510.065V6.03996H504.935V4.77997H516.785V6.03996H511.385V10.45H516.05V11.695H511.385V16.69ZM508.37 0.519974C509.99 1.34497 511.97 2.64997 512.915 3.60997L512 4.70499C511.085 3.71499 509.15 2.34996 507.515 1.49496L508.37 0.505005V0.519974Z" fill="white"/>
<path d="M524.975 10.03C526.055 9.76 527.18 9.49002 528.275 9.20502L528.41 10.33C527.27 10.66 526.085 10.99 524.975 11.29V16.855C524.975 18.475 524.18 18.535 521.21 18.535C521.135 18.19 520.94 17.62 520.76 17.275C521.885 17.29 522.92 17.29 523.235 17.29C523.55 17.275 523.655 17.17 523.655 16.84V11.635L520.895 12.415C520.895 12.55 520.775 12.67 520.64 12.7L520.13 11.17C521.075 10.96 522.32 10.675 523.655 10.345V5.87502H520.325V4.61502H523.655V0.580017L525.35 0.670013C525.335 0.820013 525.23 0.910002 524.96 0.940002V4.61502H527.99V5.87502H524.96V10.015L524.975 10.03ZM538.34 2.33504V3.61H534.665V16.735C534.665 17.695 534.41 18.115 533.735 18.325C533.06 18.565 531.875 18.565 529.97 18.565C529.895 18.19 529.7 17.62 529.49 17.245C530.375 17.26 531.215 17.29 531.845 17.29C533.225 17.29 533.33 17.29 533.33 16.75V3.62502H527.435V2.35001H538.34V2.33504Z" fill="white"/>
<path d="M545.51 8.32002V14.65C547.025 16.945 549.785 16.945 553.265 16.945C555.35 16.945 557.81 16.885 559.325 16.795C559.175 17.11 558.935 17.725 558.905 18.115C557.57 18.175 555.44 18.205 553.535 18.205C549.545 18.205 546.905 18.205 544.94 15.805C543.995 16.66 542.975 17.53 542.135 18.19C542.15 18.37 542.09 18.445 541.955 18.505L541.205 17.08C542.135 16.465 543.275 15.565 544.265 14.725V9.58002H541.415V8.33504H545.51V8.32002ZM542.63 1.075C543.92 1.9 545.42 3.19001 546.095 4.13501L545.075 5.00504C544.43 4.03004 542.96 2.72503 541.67 1.85503L542.63 1.075ZM559.01 7.15002V8.28999H546.425V7.15002H552.155V4.34503H549.335C548.945 5.21503 548.48 6.025 548.015 6.655C547.745 6.46 547.235 6.23502 546.935 6.07002C547.895 4.87002 548.735 2.81501 549.23 0.850006L550.775 1.27C550.73 1.405 550.595 1.46501 550.37 1.46501C550.22 2.02001 550.025 2.605 549.815 3.19H552.155V0.595032L553.835 0.685028C553.82 0.820028 553.7 0.925017 553.445 0.955017V3.17503H558.17V4.33002H553.445V7.13501H559.01V7.15002ZM557.39 15.715H556.115V15.055H549.62V15.775H548.375V9.745H557.39V15.715ZM549.62 13.9H556.115V10.825H549.62V13.9Z" fill="white"/>
<path d="M564.74 14.575V0.38501H571.175V1.39003H565.745V14.575H564.74Z" fill="white"/>
<path d="M577.295 13.945C578.15 13.735 579.02 13.525 579.89 13.285L580.01 14.425C577.895 15.025 575.705 15.625 574.31 15.985C574.295 16.135 574.19 16.255 574.055 16.27L573.575 14.815C574.265 14.665 575.12 14.47 576.065 14.23V9.17503H574.07V7.96004H576.065V3.67001H573.8V2.42503H579.605V3.67001H577.31V7.96004H579.32V9.17503H577.31V13.915L577.295 13.945ZM583.58 15.205C583.52 15.325 583.37 15.385 583.175 15.355C582.305 16.375 580.895 17.47 579.62 18.16C579.425 17.905 579.02 17.545 578.75 17.335C579.965 16.735 581.36 15.73 582.155 14.665L583.58 15.205ZM591.425 7.93001V9.03999H579.68V7.93001H584.825V6.61H580.955V1.34503H590.135V6.61H586.52C586.475 6.745 586.385 6.80501 586.13 6.85001V7.93001H591.41H591.425ZM590 14.08H586.145V17.215C586.145 18.505 585.635 18.55 582.95 18.55C582.89 18.205 582.74 17.8 582.56 17.47C583.145 17.485 583.64 17.515 584.015 17.515C584.84 17.515 584.885 17.5 584.885 17.23V14.095H581.15V10.15H589.985V14.095L590 14.08ZM582.17 2.26001V3.53502H588.92V2.26001H582.17ZM582.17 4.405V5.69502H588.92V4.405H582.17ZM582.38 11.08V13.135H588.74V11.08H582.38ZM590.465 18.055C589.865 17.26 588.575 16.06 587.465 15.25L588.455 14.65C589.535 15.43 590.87 16.585 591.515 17.38L590.465 18.055Z" fill="white"/>
<path d="M599.991 6.64003H600.906C602.121 5.11003 603.171 3.38501 603.981 1.51001L605.451 2.00504C605.391 2.14004 605.226 2.215 604.986 2.2C604.266 3.79 603.396 5.27502 602.391 6.62502H604.911V7.78H601.461C600.816 8.56 600.126 9.26503 599.391 9.92503H603.921V18.235H602.676V17.455H598.071V18.58H596.856V11.89C596.331 12.235 595.791 12.55 595.236 12.85C595.056 12.595 594.711 12.115 594.486 11.86C595.311 11.44 596.106 10.945 596.871 10.405V9.91002H597.561C598.371 9.26502 599.166 8.53003 599.901 7.76503H594.756V6.61H598.761V4.00002H595.641V2.84503H598.761V0.565002L600.366 0.654999C600.351 0.789999 600.246 0.895034 600.006 0.925034V2.84503H602.526V4.00002H600.006V6.61L599.991 6.64003ZM602.676 13.18V11.05H598.071V13.18H602.676ZM598.071 16.39H602.676V14.245H598.071V16.39ZM605.646 1.70502H611.511C611.721 1.64502 611.736 1.645 611.781 1.645C611.871 1.705 611.976 1.78 612.636 2.065C612.621 2.14 612.546 2.21501 612.456 2.26001C611.736 3.92501 610.731 6.02503 609.711 8.09503C611.736 10.09 612.591 11.575 612.591 12.985C612.591 16.06 610.566 16.06 609.291 16.06C608.976 16.06 608.691 16.06 608.406 16.045C608.391 15.67 608.211 15.115 607.956 14.755C608.481 14.8 609.006 14.815 609.426 14.815C610.281 14.815 611.301 14.815 611.301 12.955C611.301 11.68 610.386 10.3 608.316 8.33504C609.231 6.38504 610.056 4.52503 610.701 2.93503H606.936V18.55H605.661V1.70502H605.646Z" fill="white"/>
<path d="M621.755 8.36504L622.67 8.83003C622.655 8.90503 622.55 8.98004 622.46 9.02504C621.44 12.79 619.19 15.7 616.655 17.305C616.445 17.035 615.935 16.525 615.635 16.345C617.885 15.025 619.865 12.67 620.87 9.68504H616.04V8.42505H621.53L621.755 8.36504ZM625.385 5.81502C625.835 7.40502 626.435 8.89002 627.185 10.225C628.775 9.04002 630.71 7.33003 631.91 5.96503L633.305 7.01505C633.215 7.13505 633.02 7.15003 632.84 7.13503C631.55 8.36503 629.45 10.09 627.785 11.23C629.27 13.45 631.25 15.175 633.74 16.12C633.455 16.39 633.05 16.9 632.825 17.26C629.375 15.79 626.96 12.985 625.385 9.29503V16.87C625.385 17.695 625.19 18.085 624.605 18.295C624.005 18.505 622.985 18.535 621.35 18.535C621.29 18.16 621.08 17.62 620.885 17.26C622.13 17.305 623.27 17.305 623.6 17.305C623.945 17.29 624.065 17.185 624.065 16.855V6.02504H618.53V4.76505H625.37V5.81502H625.385ZM620.99 0.535034C623.405 1.12003 626.615 2.20005 628.28 3.08505L627.635 4.42003C626.015 3.50503 622.835 2.33502 620.36 1.69002L620.975 0.535034H620.99Z" fill="white"/>
<path d="M642.951 11.2C642.861 10.915 642.741 10.555 642.561 10.18L641.016 10.27V18.55H639.861V10.33C638.841 10.375 637.911 10.405 637.176 10.45C637.131 10.585 637.026 10.66 636.891 10.705L636.546 9.25002H637.866C638.286 8.71002 638.751 8.09503 639.216 7.43503C638.631 6.52003 637.626 5.37999 636.741 4.53999C637.146 4.11999 637.281 3.92501 637.416 3.71501C637.626 3.91001 637.836 4.12002 638.061 4.33002C638.676 3.20502 639.381 1.67503 639.786 0.595032L641.196 1.13501C641.136 1.25501 641.001 1.28502 640.791 1.28502C640.296 2.39502 639.471 3.97003 638.781 5.05003C639.201 5.51503 639.606 5.98002 639.906 6.40002C640.701 5.15502 641.436 3.86502 641.976 2.78502L643.356 3.43001C643.281 3.52001 643.146 3.58002 642.936 3.58002C641.976 5.24502 640.446 7.54003 639.111 9.22003L642.126 9.16002C641.796 8.53002 641.406 7.87003 641.046 7.30003L641.991 6.895C642.816 8.095 643.686 9.70003 644.001 10.72L642.996 11.185L642.951 11.2ZM639.141 12.07C639.096 12.25 638.946 12.28 638.766 12.265C638.511 13.885 638.091 15.76 637.521 16.9C637.296 16.75 636.861 16.555 636.576 16.42C637.116 15.34 637.506 13.48 637.731 11.725L639.126 12.07H639.141ZM642.726 11.68C643.281 12.88 643.806 14.47 644.001 15.49L642.981 15.835C642.801 14.785 642.291 13.18 641.736 11.98L642.726 11.665V11.68ZM648.126 16.615C648.126 16.615 647.946 16.735 647.751 16.75C646.836 17.41 644.991 18.175 643.461 18.565C643.266 18.34 642.846 17.95 642.576 17.74C644.136 17.35 645.996 16.615 646.926 15.955L648.126 16.615ZM648.351 3.68503V2.72501H643.491V1.81003H648.351V0.565002L650.001 0.685028C649.986 0.820028 649.881 0.925002 649.626 0.940002V1.81003H654.726V2.72501H649.626V3.68503H653.856V4.57002H644.421V3.68503H648.351ZM654.156 5.38004V9.11502H644.076V5.38004H654.156ZM653.601 15.925H644.691V10.045H653.601V15.925ZM645.171 8.30501H653.046V7.57002C652.896 7.69002 652.641 7.75002 652.266 7.75002H650.916C649.896 7.75002 649.641 7.60001 649.641 6.76001V6.17503H648.351C648.201 7.10503 647.601 7.72 645.801 8.065C645.711 7.855 645.471 7.57003 645.291 7.43503C646.641 7.22503 647.211 6.89503 647.406 6.17503H645.186V8.30501H645.171ZM645.846 10.84V11.755H652.401V10.84H645.846ZM645.846 12.49V13.435H652.401V12.49H645.846ZM645.846 14.17V15.115H652.401V14.17H645.846ZM653.721 18.595C652.896 17.995 651.426 17.245 650.031 16.66L650.886 15.97C652.296 16.51 653.916 17.26 654.876 17.89L653.736 18.61L653.721 18.595ZM652.071 7.09001C652.326 7.09001 652.401 7.07503 652.431 6.97003C652.581 7.06003 652.821 7.12001 653.031 7.18001V6.17503H650.631V6.76001C650.631 7.04501 650.676 7.09001 650.991 7.09001H652.056H652.071Z" fill="white"/>
<path d="M666.59 15.775C666.59 16.585 666.815 16.765 668.075 16.765H672.44C673.565 16.765 673.76 16.27 673.895 13.735C674.225 13.99 674.78 14.215 675.185 14.32C674.975 17.245 674.525 18.055 672.485 18.055H668.015C665.825 18.055 665.195 17.59 665.195 15.79V12.31L658.265 13.195L658.07 11.965L665.18 11.08V7.85503C663.455 8.27503 661.64 8.66503 659.915 8.98003C659.84 8.66503 659.645 8.185 659.495 7.87C663.305 7.15 667.625 6.07001 669.98 4.93001L671.18 6.02502C671.18 6.02502 671.045 6.10001 670.955 6.10001C670.895 6.10001 670.835 6.10004 670.775 6.08504C669.635 6.56504 668.165 7.045 666.545 7.495H666.965C666.95 7.645 666.845 7.75 666.575 7.78V10.9L675.41 9.77502L675.605 10.975L666.575 12.13V15.79L666.59 15.775ZM659.99 4.22501V7.03H658.67V2.96501H666.08V0.565002L667.82 0.685028C667.805 0.820028 667.7 0.925017 667.43 0.955017V2.96501H674.915V7.03H673.565V4.22501H659.99Z" fill="white"/>
<path d="M684.89 4.35999V18.55H678.455V17.53H683.885V4.35999H684.89Z" fill="white"/>
<path d="M690.621 18.745C690.936 17.77 691.311 15.865 691.476 14.62L693.561 14.35C693.156 15.82 692.346 17.83 691.896 18.58L690.621 18.73V18.745Z" fill="white"/>
<path d="M718.82 1.61502C718.805 1.70502 718.745 1.79503 718.685 1.85503C718.16 4.54003 717.17 6.73003 715.835 8.42503C716.885 9.55003 718.115 10.42 719.6 10.96C719.33 11.185 718.955 11.65 718.79 11.98C717.32 11.365 716.075 10.465 715.055 9.325C713.975 10.45 712.73 11.32 711.395 11.935V11.89L711.17 11.95V13.405H717.365V14.545H711.17V16.765H719.45V17.95H701.66V16.765H709.835V14.545H703.745V13.405H709.835V11.575L711.245 11.665C711.065 11.41 710.84 11.11 710.645 10.93C711.965 10.39 713.195 9.52002 714.275 8.36502C713.165 6.86502 712.355 5.03503 711.815 2.93503L712.895 2.68001C713.36 4.48001 714.08 6.08503 715.025 7.43503C716.015 6.10003 716.78 4.48 717.275 2.575H710.915V1.37502H717.815L718.04 1.33002L718.79 1.60001L718.82 1.61502ZM703.79 11.155V12.115H702.575V1.34503H710.285V2.41002H707.195V4.21004H710.06V8.23003H707.195V10.09H710.36V11.155H703.79ZM706.04 2.41002H703.79V4.21004H706.04V2.41002ZM708.89 7.22501V5.21501H703.805V7.22501H708.89ZM706.04 10.09V8.23003H703.79V10.09H706.04Z" fill="white"/>
<path d="M729.081 9.17503L729.261 10.3L726.921 11.125V16.96C726.921 18.355 726.276 18.565 723.711 18.52C723.651 18.205 723.456 17.665 723.291 17.32C724.206 17.335 725.031 17.335 725.286 17.335C725.541 17.32 725.661 17.245 725.661 16.975V11.575C724.746 11.89 723.921 12.175 723.261 12.385C723.261 12.535 723.171 12.655 723.036 12.7L722.496 11.17C723.366 10.945 724.476 10.615 725.661 10.24V5.69502H722.721V4.48003H725.661V0.580017L727.326 0.670013C727.311 0.820013 727.206 0.910002 726.936 0.940002V4.48003H729.156V5.69502H726.936V9.83504L729.096 9.16002L729.081 9.17503ZM740.556 8.28999H738.096C738.036 8.40999 737.946 8.50001 737.706 8.54501V10.75H740.271V11.95H737.706V17.035C737.706 18.52 736.956 18.565 734.211 18.565C734.151 18.22 733.956 17.71 733.761 17.35C734.301 17.365 734.811 17.365 735.216 17.365H736.071C736.341 17.365 736.416 17.29 736.416 17.035V11.95H729.381V10.75H736.416V8.28999H728.931V7.075H734.031V4.28502H730.206V3.08504H734.031V0.565002L735.711 0.685028C735.696 0.820028 735.576 0.925017 735.321 0.955017V3.08504H739.311V4.28502H735.321V7.075H740.541V8.28999H740.556ZM732.936 16.555C732.486 15.64 731.421 14.23 730.506 13.225L731.496 12.61C732.411 13.6 733.491 14.95 733.971 15.82L732.951 16.555H732.936Z" fill="white"/>
<path d="M746.09 14.575V0.38501H752.525V1.39003H747.095V14.575H746.09Z" fill="white"/>
<path d="M761.975 1.30005V16.945C761.975 18.535 761.165 18.55 758.705 18.55C758.66 18.22 758.495 17.635 758.315 17.29C758.795 17.305 759.245 17.305 759.605 17.305C760.355 17.305 760.73 17.175 760.73 16.915V11.86H757.415C757.235 14.2 756.86 16.675 755.945 18.55C755.72 18.34 755.195 18.025 754.88 17.905C756.23 15.145 756.335 11.215 756.335 8.32004V1.28503H761.96L761.975 1.30005ZM757.55 8.33505C757.55 9.05505 757.535 9.82005 757.505 10.6301H760.73V7.13503H757.535V8.33505H757.55ZM760.745 2.53001H757.55V5.92003H760.745V2.53001ZM771.65 8.62001L772.46 8.95001C772.445 9.04001 772.34 9.13003 772.28 9.16003C771.755 11.41 770.885 13.36 769.76 14.965C770.75 16.09 771.905 16.99 773.165 17.575C772.895 17.815 772.505 18.25 772.34 18.565C771.125 17.92 770.015 17.02 769.025 15.91C768.11 17.02 767.075 17.905 765.965 18.58C765.785 18.265 765.44 17.845 765.17 17.62C766.25 17.005 767.315 16.09 768.245 14.935C767.225 13.555 766.4 11.95 765.83 10.24L766.88 9.92505C767.39 11.38 768.08 12.775 768.95 13.975C769.745 12.775 770.405 11.41 770.84 9.89502H765.14V18.565H763.88V1.45001H771.905V5.92003C771.905 7.30003 771.32 7.34505 768.425 7.34505C768.365 7.00005 768.2 6.52002 768.02 6.19002C768.56 6.19002 769.07 6.20503 769.445 6.20503C770.245 6.20503 770.645 6.11003 770.645 5.92003V2.66501H765.14V8.69504H771.425L771.635 8.63503L771.65 8.62001Z" fill="white"/>
<path d="M793.746 3.83504H792.126C791.586 5.29004 790.776 6.52002 789.741 7.57002C791.001 8.51502 792.471 9.235 794.076 9.655C793.806 9.91 793.461 10.405 793.266 10.75C791.616 10.24 790.131 9.43 788.856 8.395C787.566 9.475 786.006 10.315 784.266 10.915C784.131 10.675 783.876 10.33 783.666 10.06C783.381 10.93 783.051 11.74 782.706 12.385L781.776 11.92C782.181 11.095 782.586 9.80502 782.916 8.65002H780.891V17.005C780.891 18.415 780.246 18.49 777.876 18.49C777.816 18.16 777.651 17.62 777.456 17.275C777.951 17.29 778.446 17.32 778.806 17.32C779.586 17.32 779.661 17.32 779.661 17.005V10.24C778.881 12.235 777.801 14.2 776.676 15.34C776.541 14.995 776.211 14.47 775.986 14.155C777.231 12.955 778.476 10.735 779.211 8.65002H776.136V7.495H781.551C780.591 6.58 778.686 5.41 777.096 4.69L777.906 3.86502C778.521 4.13502 779.181 4.46503 779.826 4.81003C780.636 4.22503 781.446 3.46001 782.076 2.72501H776.376V1.58504H783.081L783.306 1.52502L784.266 2.12502C784.221 2.20002 784.086 2.27501 783.996 2.30501C783.246 3.32501 782.001 4.525 780.801 5.395C781.476 5.815 782.061 6.25002 782.481 6.62502L781.686 7.495H783.666L784.356 7.53999C784.356 7.79499 783.876 9.35502 783.741 9.82002C785.331 9.29502 786.756 8.56001 787.941 7.60001C787.191 6.82001 786.516 5.95004 785.976 5.00504C785.511 5.63504 785.016 6.22 784.506 6.7C784.251 6.475 783.786 6.11501 783.486 5.92001C784.866 4.72001 786.111 2.665 786.816 0.565002L788.406 1.03C788.361 1.165 788.211 1.24001 788.001 1.22501C787.821 1.70501 787.611 2.18501 787.356 2.68001H793.761V3.83504H793.746ZM792.201 11.875L792.951 12.025C792.951 12.145 792.936 12.295 792.876 12.415C792.531 16.03 792.186 17.47 791.631 18.01C791.211 18.43 790.776 18.52 789.636 18.52C789.231 18.52 788.751 18.52 788.256 18.475C788.211 18.1 788.106 17.59 787.896 17.26C788.766 17.335 789.576 17.35 789.891 17.35C790.221 17.35 790.386 17.305 790.566 17.155C790.926 16.795 791.226 15.685 791.496 13.03H788.346C787.686 15.295 786.411 17.365 783.516 18.58C783.381 18.295 783.021 17.845 782.736 17.62C785.196 16.66 786.396 14.965 787.026 13.03H784.026V11.905H787.311C787.461 11.23 787.566 10.51 787.641 9.82002L789.306 9.97003C789.261 10.12 789.126 10.195 788.901 10.24C788.826 10.81 788.751 11.35 788.631 11.905H791.901L792.186 11.86L792.201 11.875ZM786.726 3.83504L786.651 3.97003C787.191 5.02003 787.926 5.96499 788.811 6.78999C789.621 5.93499 790.296 4.97504 790.761 3.83504H786.726Z" fill="white"/>
<path d="M806.75 13.945V16.765C807.695 16.885 808.565 16.9 810.65 16.9C812.18 16.9 814.445 16.9 815.105 16.885C814.91 17.2 814.7 17.77 814.625 18.145H809.285C805.25 18.145 802.715 17.5 801.11 14.725C800.36 16.33 799.31 17.665 797.96 18.55C797.765 18.295 797.345 17.875 797.075 17.68C799.07 16.405 800.375 14.065 800.9 11.125L802.505 11.455C802.46 11.59 802.355 11.665 802.115 11.695C801.995 12.235 801.86 12.76 801.695 13.255C802.475 15.115 803.705 16.06 805.43 16.525V10.45H797.45V9.265H814.775V10.45H806.765V12.775H813.5V13.96H806.765L806.75 13.945ZM812.675 1.41998V7.77997H800.12V1.41998H812.675ZM811.355 4.105V2.425H801.38V4.105H811.355ZM811.355 6.77499V5.07999H801.38V6.77499H811.355Z" fill="white"/>
<path d="M826.73 1.02998C826.67 1.16498 826.52 1.24001 826.28 1.24001C826.025 2.03501 825.755 2.86 825.425 3.67H835.655V4.92999H824.87C824.225 6.29499 823.475 7.66 822.545 8.92L822.755 8.98001C822.71 9.11501 822.605 9.21999 822.365 9.23499V18.58H821.075V10.735C820.385 11.485 819.62 12.16 818.795 12.79C818.645 12.445 818.285 11.905 818.075 11.605C819.2 10.795 820.205 9.80502 821.075 8.71002V8.57498H821.15C822.02 7.46498 822.77 6.23502 823.4 4.96002H818.54V3.69998H823.97C824.39 2.67998 824.75 1.62999 825.035 0.609985L826.715 1.06001L826.73 1.02998ZM830.33 11.095V16.885H835.67V18.1H823.79V16.885H829.01V11.095H824.555V9.88002H829.01V5.99498L830.69 6.11501C830.675 6.25001 830.57 6.32498 830.315 6.36998V9.89499H834.875V11.11H830.315L830.33 11.095Z" fill="white"/>
<path d="M845.285 8.63501C845.96 10.36 846.935 11.845 848.18 13.105C849.44 11.86 850.4 10.36 851.075 8.51503L852.695 9.05501C852.65 9.17501 852.485 9.25 852.245 9.235C851.495 11.125 850.445 12.67 849.155 13.975C851.225 15.655 853.91 16.78 857.195 17.32C856.91 17.605 856.52 18.19 856.325 18.565C852.965 17.905 850.25 16.705 848.12 14.89C845.975 16.645 843.23 17.83 839.945 18.625C839.795 18.295 839.45 17.74 839.195 17.44C842.405 16.75 845.09 15.655 847.19 14.005C845.855 12.625 844.805 10.975 844.04 9.03999L845.285 8.65002V8.63501ZM846.215 5.815C846.155 5.965 845.99 5.99501 845.795 5.96501C844.46 7.69001 842.345 9.43002 840.455 10.57C840.245 10.285 839.78 9.82002 839.495 9.58002C841.34 8.59002 843.455 6.895 844.685 5.155L846.23 5.815H846.215ZM856.73 3.20502V4.48003H839.555V3.20502H847.445V0.580017L849.14 0.670013C849.125 0.805013 849.02 0.895002 848.75 0.940002V3.20502H856.715H856.73ZM855.77 10.405C854.72 9.115 852.44 7.21 850.55 5.905L851.615 5.12502C853.475 6.37002 855.8 8.20002 856.91 9.49002L855.77 10.405Z" fill="white"/>
<path d="M863.555 6.05499V7.045C863.555 10.39 863.285 15.265 861.275 18.55C861.02 18.34 860.465 18.01 860.135 17.89C862.085 14.695 862.265 10.225 862.265 7.045V1.58502H876.545V6.05499H863.57H863.555ZM870.995 16.81H877.88V17.92H863.06V16.81H869.735V14.725H864.665V13.645H869.735V11.98C867.815 12.055 866.06 12.115 864.725 12.16C864.68 12.295 864.575 12.4 864.44 12.415L863.99 11.065L866.255 11.02C866.75 10.33 867.32 9.41501 867.74 8.60501H863.6V7.49498H877.46V8.60501H869.195C868.79 9.29501 868.205 10.21 867.635 11.005C869.57 10.945 871.76 10.915 873.92 10.825C873.26 10.315 872.54 9.81998 871.895 9.41498L872.855 8.76999C874.34 9.65499 876.14 10.99 877.025 11.995L875.975 12.715C875.72 12.43 875.42 12.1 875.03 11.755L871.31 11.935C871.25 12.01 871.13 12.055 870.965 12.07V13.66H876.23V14.74H870.965V16.825L870.995 16.81ZM875.225 2.71002H863.54V4.96002H875.225V2.71002Z" fill="white"/>
<path d="M883.91 9.67001C883.175 10.54 882.395 11.335 881.69 11.995C881.54 11.74 881.18 11.185 880.97 10.915C882.635 9.50499 884.585 7.15002 885.83 4.90002L887.255 5.50002C887.195 5.62002 887.045 5.68002 886.835 5.65002C886.355 6.44502 885.785 7.27 885.185 8.065L885.53 8.18503C885.47 8.30503 885.38 8.395 885.14 8.44V18.55H883.895V9.67001H883.91ZM886.67 1.16499C886.61 1.28499 886.46 1.345 886.265 1.315C885.26 2.74 883.445 4.66003 881.9 5.93503C881.72 5.66503 881.375 5.20001 881.15 4.97501C882.62 3.83501 884.315 2.03502 885.215 0.580017L886.685 1.16499H886.67ZM896.42 10.93L897.305 11.35C897.245 11.44 897.17 11.485 897.11 11.53C896.36 13.12 895.19 14.425 893.81 15.49C895.43 16.42 897.35 17.095 899.375 17.47C899.09 17.74 898.76 18.25 898.58 18.595C896.45 18.13 894.44 17.32 892.745 16.21C890.96 17.335 888.89 18.13 886.82 18.595C886.685 18.265 886.37 17.77 886.16 17.47C888.08 17.095 890.015 16.42 891.665 15.46C890.72 14.725 889.865 13.855 889.19 12.91C888.41 13.6 887.63 14.2 886.835 14.71C886.655 14.455 886.28 14.02 886.025 13.795C887.75 12.775 889.64 11.08 890.9 9.29501L886.895 9.43001C886.85 9.58001 886.745 9.685 886.61 9.7L886.19 8.23003L889.205 8.17001C889.655 7.82501 890.09 7.45001 890.555 7.04501C889.625 6.02501 888.095 4.66003 886.79 3.73003L887.6 2.905C887.975 3.16 888.35 3.44501 888.755 3.76001C889.625 2.84501 890.69 1.54 891.29 0.565002L892.685 1.30003C892.61 1.42003 892.46 1.45 892.265 1.45C891.59 2.32 890.51 3.56503 889.595 4.43503C890.315 5.03503 890.99 5.65 891.485 6.19C892.91 4.84 894.335 3.34002 895.34 2.12502L896.75 2.87502C896.69 2.96502 896.525 3.02501 896.3 3.01001C894.89 4.55501 892.82 6.565 890.945 8.11C892.745 8.065 894.71 8.03501 896.675 7.97501C896.165 7.33001 895.625 6.71503 895.115 6.17503L896.12 5.59001C897.395 6.86501 898.835 8.60502 899.465 9.77502L898.385 10.435C898.175 10.03 897.86 9.55002 897.47 9.02502C895.82 9.08502 894.125 9.16003 892.52 9.22003L892.715 9.29501C892.655 9.41501 892.505 9.47502 892.295 9.44502C891.95 9.97002 891.56 10.465 891.11 10.975H896.195L896.42 10.915V10.93ZM890.135 12.04L890.015 12.16C890.69 13.15 891.62 14.035 892.73 14.815C893.825 14.035 894.755 13.12 895.415 12.055H890.135V12.04Z" fill="white"/>
<path d="M910.31 7.97496H904.505V18.58H903.23V1.44995H910.31V7.98997V7.97496ZM909.065 2.46999H904.505V4.16495H909.065V2.46999ZM904.505 6.95497H909.065V5.13998H904.505V6.95497ZM916.55 13.72H913.805V18.19H912.62V13.72H909.665C909.53 14.98 908.915 17.08 906.995 18.355C906.8 18.1 906.41 17.74 906.125 17.545C907.82 16.48 908.39 14.86 908.51 13.72H905.975V12.625H908.54V10.36H906.35V9.26498H916.115V10.36H913.79V12.625H916.535V13.72H916.55ZM909.71 12.625H912.635V10.36H909.71V12.625ZM919.385 1.44995V16.81C919.385 18.475 918.65 18.55 915.62 18.55C915.56 18.175 915.395 17.59 915.2 17.215C915.86 17.23 916.49 17.26 916.985 17.26C918.005 17.26 918.125 17.26 918.125 16.81V8.00499H912.155V1.44995H919.415H919.385ZM918.11 2.46999H913.385V4.16495H918.11V2.46999ZM913.385 6.96999H918.11V5.13998H913.385V6.96999Z" fill="white"/>
<path d="M930.006 4.61502L930.741 4.81003L930.621 5.08002C930.351 8.50002 929.736 11.245 928.761 13.39C929.706 14.125 930.516 14.845 931.041 15.49L930.246 16.555C929.766 15.94 929.031 15.235 928.176 14.545C927.186 16.345 925.896 17.665 924.351 18.58C924.171 18.25 923.811 17.785 923.541 17.515C924.996 16.735 926.211 15.49 927.171 13.75C926.451 13.21 925.701 12.7 924.966 12.265L924.741 13.12L923.646 12.535C924.126 10.84 924.726 8.38002 925.296 5.87502H923.361V4.66002H925.566C925.881 3.20502 926.151 1.81002 926.376 0.580017L927.966 0.775024C927.951 0.910024 927.831 0.98503 927.576 1.01503C927.366 2.11003 927.096 3.37003 926.796 4.67503H929.781L930.006 4.61502ZM926.526 5.89003C926.121 7.69003 925.671 9.50503 925.266 11.095C926.076 11.545 926.916 12.085 927.726 12.625C928.506 10.825 929.061 8.57503 929.331 5.89003H926.526ZM938.346 3.78999C939.606 5.37999 940.956 7.46502 941.436 8.87502L940.296 9.49002C940.161 9.10002 939.966 8.66501 939.741 8.17001C936.681 8.42501 933.546 8.62004 931.521 8.75504C931.476 8.90504 931.371 8.98001 931.251 9.01001L930.711 7.495L932.271 7.43503C933.081 5.51503 933.996 2.635 934.476 0.565002L936.171 0.985001C936.111 1.12 935.961 1.19501 935.721 1.22501C935.196 3.02501 934.326 5.54503 933.531 7.39003L939.156 7.12C938.601 6.175 937.911 5.17 937.266 4.315L938.331 3.77502L938.346 3.78999ZM932.151 18.565V10.63H940.356V18.475H939.066V17.65H933.396V18.565H932.151ZM939.051 11.86H933.381V16.465H939.051V11.86Z" fill="white"/>
<path d="M950.39 4.35999V18.55H943.955V17.53H949.385V4.35999H950.39Z" fill="white"/>
<path d="M960.726 15.85C960.726 17.335 959.511 18.565 958.011 18.565C956.511 18.565 955.296 17.35 955.296 15.85C955.296 14.35 956.511 13.15 958.011 13.15C959.511 13.15 960.726 14.41 960.726 15.85ZM960.036 15.85C960.036 14.725 959.151 13.84 958.026 13.84C956.901 13.84 956.031 14.725 956.031 15.85C956.031 16.975 956.916 17.845 958.026 17.845C959.181 17.845 960.036 16.915 960.036 15.85Z" fill="white"/>
<path d="M983.495 4.48003H970.22V7.16499C970.22 10.48 969.965 15.265 968.075 18.52C967.85 18.325 967.28 17.995 966.98 17.875C968.81 14.74 968.975 10.33 968.975 7.16499V1.33002H983.495V4.48003ZM982.22 2.21501H970.235V3.565H982.22V2.21501ZM984.605 14.56H981.215C980.81 15.31 980.225 15.955 979.46 16.45C981.275 16.855 982.925 17.275 984.155 17.725L983.435 18.55C982.085 18.055 980.27 17.56 978.215 17.125C976.52 17.905 974.195 18.325 971.24 18.58C971.165 18.265 970.97 17.86 970.79 17.635C973.13 17.5 975.02 17.245 976.535 16.81C975.575 16.63 974.585 16.465 973.58 16.33L973.355 16.57L972.29 16.195C972.74 15.73 973.25 15.175 973.76 14.575H970.43V13.645H974.555L975.29 12.73H971.9V10.21H976.7V9.41499H972.44V7.88501H970.64V7.00002H972.44V5.485H976.7V4.53999L978.245 4.63004C978.23 4.76504 978.125 4.87001 977.87 4.88501V5.485H982.235V7.00002H984.515V7.88501H982.235V9.41499H977.87V10.21H982.79V12.73H977.03C976.955 12.82 976.835 12.865 976.61 12.85C976.415 13.105 976.19 13.375 975.95 13.645H984.62V14.575L984.605 14.56ZM973.04 10.945V11.995H976.7V10.945H973.04ZM976.7 6.22003H973.61V7.075H976.7V6.22003ZM973.61 8.68001H976.7V7.81003H973.61V8.68001ZM975.155 14.56C974.87 14.89 974.57 15.235 974.285 15.55C975.56 15.73 976.85 15.94 978.095 16.195C978.905 15.775 979.52 15.22 979.955 14.575H975.155V14.56ZM981.05 6.22003H977.885V7.075H981.05V6.22003ZM977.885 8.68001H981.05V7.81003H977.885V8.68001ZM981.62 10.945H977.885V11.995H981.62V10.945Z" fill="white"/>
<path d="M989.226 0.74501C990.036 1.52501 990.696 2.29002 991.191 3.10002C991.806 2.29002 992.346 1.45003 992.751 0.670029L994.131 1.36002C994.071 1.48002 993.921 1.51001 993.741 1.49501C993.261 2.38001 992.586 3.32504 991.806 4.24004C992.826 6.43004 993.006 8.72505 993.006 11.14C993.006 14.02 992.811 16.81 992.061 17.83C991.716 18.31 991.281 18.55 989.631 18.55C989.421 18.55 989.181 18.55 988.956 18.535C988.941 18.13 988.821 17.62 988.581 17.275C988.986 17.29 989.376 17.32 989.706 17.32C990.756 17.32 990.921 17.23 991.101 16.975C991.611 16.33 991.776 13.72 991.776 11.155C991.776 10.78 991.776 10.42 991.761 10.075C990.906 11.47 989.796 12.805 988.761 13.675C988.566 13.36 988.206 12.925 987.891 12.67C989.241 11.71 990.771 9.82003 991.611 8.08003C991.491 7.12003 991.281 6.19004 990.936 5.27504C990.261 5.99504 989.556 6.67002 988.851 7.27002C988.626 7.01502 988.236 6.65505 987.936 6.46005C988.791 5.78505 989.616 4.97504 990.366 4.10504C989.886 3.19004 989.211 2.30501 988.311 1.45001L989.226 0.760025V0.74501ZM995.166 12.0851V7.33003C994.746 7.87003 994.311 8.35005 993.876 8.75505C993.696 8.51505 993.351 8.11002 993.126 7.93002C994.236 6.94002 995.391 5.27502 996.081 3.61002L996.936 3.89502V3.10002H993.861V2.05005H996.936V0.535034L998.496 0.655014C998.481 0.775014 998.376 0.865034 998.136 0.910034V2.05005H1001.48V0.535034L1003.04 0.655014C1003.03 0.775014 1002.92 0.865034 1002.67 0.910034V2.05005H1006.1V3.10002H1002.67V4.30005H1001.48C1001.48 4.30005 1001.35 4.34505 1001.27 4.34505C1001.12 4.61505 1000.93 4.96001 1000.72 5.29001H1005.41V6.17505H1000.79V7.25505H1004.78V8.05005H1000.79V9.19002H1004.8V9.98502H1000.79V11.17H1005.94V12.0851H995.166ZM1003.99 13L1004.8 13.48C1004.75 13.57 1004.68 13.63 1004.59 13.66C1003.76 14.86 1002.58 15.79 1001.15 16.525C1002.7 17.02 1004.48 17.38 1006.34 17.545C1006.07 17.785 1005.79 18.265 1005.61 18.595C1003.48 18.34 1001.48 17.875 999.786 17.14C997.986 17.86 995.931 18.325 993.831 18.61C993.711 18.325 993.426 17.815 993.216 17.56C995.076 17.35 996.876 17.02 998.481 16.495C997.431 15.91 996.561 15.205 995.931 14.35L996.651 14.08H994.461V13.06H1003.78L1004 13H1003.99ZM999.636 7.27002V6.19002H996.336V7.27002H999.636ZM999.636 9.20503V8.06502H996.336V9.20503H999.636ZM999.636 11.185V10H996.336V11.185H999.636ZM1001.48 3.11504H998.136V4.31502H997.041C996.891 4.64502 996.711 4.97502 996.516 5.30502H999.501C999.771 4.82502 1000.06 4.19504 1000.22 3.77504L1001.5 4.10504V3.11504H1001.48ZM997.086 14.08C997.746 14.86 998.676 15.49 999.816 16C1001.02 15.505 1002.02 14.86 1002.8 14.08H997.101H997.086Z" fill="white"/>
<path d="M1009.99 1.495H1026.29V18.625H1025V17.68H1011.23V18.625H1009.99V1.495ZM1011.23 16.48H1025V2.69502H1011.23V16.48ZM1012.18 13.495C1013.69 13.24 1015.93 12.82 1018.18 12.415L1018.24 13.285C1016.23 13.735 1014.17 14.17 1012.88 14.425C1012.87 14.575 1012.76 14.665 1012.66 14.71L1012.19 13.495H1012.18ZM1019.62 6.40002C1019.8 8.18502 1020.07 9.85 1020.41 11.2C1021.09 10.075 1021.61 8.80003 1021.96 7.39003L1023.31 7.72003C1023.26 7.85503 1023.16 7.91499 1022.92 7.91499C1022.45 9.60999 1021.73 11.17 1020.83 12.475C1021.3 13.63 1021.96 14.485 1022.62 14.485C1022.9 14.485 1023.1 13.66 1023.23 12.415C1023.44 12.625 1023.85 12.895 1024.09 13.03C1023.88 14.815 1023.41 15.64 1022.68 15.64C1022.54 15.64 1022.41 15.625 1022.26 15.565C1021.33 15.385 1020.64 14.635 1020.07 13.48C1019.27 14.425 1018.34 15.22 1017.31 15.835C1017.16 15.625 1016.83 15.235 1016.59 15.04C1017.74 14.38 1018.78 13.48 1019.62 12.37C1019.09 10.765 1018.75 8.68002 1018.52 6.40002H1012.37V5.395H1018.43C1018.37 4.675 1018.31 3.94002 1018.28 3.20502L1019.83 3.28C1019.81 3.43 1019.68 3.535 1019.44 3.565C1019.45 4.18 1019.5 4.78004 1019.56 5.38004H1023.97V6.38501H1019.63L1019.62 6.40002ZM1013.09 7.72003H1017.46V11.545H1013.09V7.72003ZM1016.48 10.705V8.575H1014.05V10.705H1016.48ZM1021.22 3.03999C1022 3.36999 1022.92 3.91002 1023.38 4.37502L1022.77 5.09503C1022.3 4.64503 1021.37 4.04503 1020.61 3.68503L1021.22 3.03999Z" fill="white"/>
<path d="M1040.54 7.18001C1040.93 8.45501 1041.47 9.67 1042.13 10.78C1043.41 9.985 1044.92 8.90503 1045.88 8.05003L1047.07 9.11502C1046.99 9.19002 1046.81 9.205 1046.66 9.19C1045.67 9.97 1044.07 10.99 1042.78 11.74C1044.17 13.66 1046 15.13 1048.28 15.865C1048 16.12 1047.62 16.615 1047.41 16.96C1043.45 15.505 1040.89 11.95 1039.52 7.53999C1038.91 8.00499 1038.17 8.47002 1037.39 8.87502C1040.06 10.795 1041.2 13.27 1041.2 15.22C1041.2 17.305 1039.88 18.58 1037.87 18.58C1037.39 18.58 1036.78 18.565 1036.13 18.52C1036.12 18.19 1036 17.65 1035.79 17.305C1036.51 17.365 1037.18 17.38 1037.6 17.38C1038.16 17.38 1038.62 17.335 1039.03 17.02C1039.57 16.675 1039.88 15.955 1039.88 15.07C1039.88 14.53 1039.76 13.93 1039.51 13.285C1037.38 15.115 1034.05 16.96 1031.24 17.89C1031.09 17.56 1030.82 17.08 1030.55 16.795C1033.49 16 1037.05 14.11 1039 12.25C1038.74 11.845 1038.44 11.44 1038.08 11.05C1036.42 12.295 1033.81 13.615 1031.78 14.365C1031.63 14.05 1031.33 13.615 1031.09 13.345C1033.15 12.745 1035.82 11.485 1037.38 10.33C1037.05 10.045 1036.69 9.73002 1036.28 9.44502C1034.83 10.12 1033.27 10.69 1031.8 11.11C1031.65 10.855 1031.33 10.36 1031.14 10.12C1033.52 9.52 1036.22 8.50002 1038.11 7.19502H1033.52V6.05501H1044.61V7.19502H1040.53L1040.54 7.18001ZM1032.34 4.04501V6.655H1031.08V2.84503H1038.44V0.565002L1040.17 0.685028C1040.15 0.820028 1040.03 0.925002 1039.78 0.940002V2.86H1047.26V6.67001H1045.94V4.06003H1032.32L1032.34 4.04501Z" fill="white"/>
<path d="M1056.33 7.42003L1057.08 7.67505C1057.07 7.76505 1057.01 7.85504 1056.95 7.90004C1056.63 10.51 1056.09 12.67 1055.3 14.425C1057.23 16.345 1059.98 16.765 1063.32 16.765C1064.06 16.765 1068.35 16.765 1069.29 16.75C1069.08 17.065 1068.84 17.665 1068.77 18.025H1063.29C1059.63 18.025 1056.8 17.53 1054.7 15.565C1053.96 16.84 1053.08 17.845 1052.04 18.58C1051.85 18.31 1051.35 17.845 1051.08 17.665C1052.16 16.93 1053.09 15.91 1053.83 14.575C1053.08 13.57 1052.45 12.31 1051.97 10.705L1052.99 10.285C1053.36 11.53 1053.81 12.55 1054.4 13.375C1054.94 12.04 1055.34 10.48 1055.58 8.63503H1053.11L1052.7 9.43002L1051.5 9.10002C1052.51 7.24002 1053.71 4.78001 1054.52 3.04001H1051.2V1.85504H1055.27L1055.52 1.79503L1056.35 2.14005C1056.3 2.21505 1056.26 2.32002 1056.2 2.39502C1055.6 3.64002 1054.65 5.59001 1053.71 7.45001H1056.05L1056.3 7.40501L1056.33 7.42003ZM1062.06 7.49501V5.95001H1056.57V4.87001H1062.06V3.34003H1058.1V2.27504H1062.06V0.535034L1063.71 0.655014C1063.7 0.790014 1063.59 0.895034 1063.34 0.910034V2.29001H1067.6V4.88503H1069.16V5.96503H1067.6V8.57501H1063.34V10.18H1067.93V11.23H1063.34V12.8351H1068.8V13.915H1063.34V16.06H1062.06V13.915H1056.83V12.8351H1062.06V11.23H1057.7V10.18H1062.06V8.57501H1057.97V7.51003H1062.06V7.49501ZM1063.34 3.34003V4.87001H1066.32V3.34003H1063.34ZM1066.32 7.49501V5.95001H1063.34V7.49501H1066.32Z" fill="white"/>
<path d="M1089.99 13.75H1082.96C1084.8 15.145 1087.77 16.315 1090.38 16.87C1090.1 17.14 1089.72 17.65 1089.53 17.995C1086.87 17.32 1083.77 15.88 1081.85 14.17V18.535H1080.57V14.17C1078.65 15.91 1075.58 17.365 1072.95 18.055C1072.76 17.725 1072.4 17.245 1072.13 16.99C1074.69 16.42 1077.62 15.19 1079.43 13.765H1072.53V12.685H1080.57V10.99C1080.05 11.455 1079.36 11.86 1078.44 12.235C1078.29 11.965 1077.84 11.5 1077.59 11.32C1080.3 10.33 1080.8 8.96499 1080.8 7.65999V5.71001H1087.64V9.77499C1087.64 10.45 1087.64 10.51 1088.06 10.51H1088.64C1089.3 10.51 1089.3 10.435 1089.36 8.48497C1089.59 8.69497 1089.98 8.87498 1090.28 8.96498C1090.22 10.945 1090.14 11.56 1088.72 11.56H1087.8C1086.41 11.56 1086.41 10.825 1086.41 9.69997V6.66998H1082V7.72C1082 8.83 1081.71 9.99999 1080.59 10.99L1082.21 11.08C1082.19 11.215 1082.09 11.305 1081.83 11.35V12.7H1089.98V13.78L1089.99 13.75ZM1076.82 5.185C1076.67 4.645 1076.3 3.84997 1075.91 3.18997H1074.96C1074.42 3.98497 1073.82 4.71998 1073.22 5.25998C1073 5.04998 1072.55 4.73501 1072.26 4.58501C1073.34 3.65501 1074.41 2.04999 1075.05 0.48999L1076.54 0.98497C1076.48 1.07497 1076.34 1.16498 1076.13 1.13498C1076 1.44998 1075.82 1.78 1075.65 2.095H1080.99V3.175H1077.14C1077.48 3.76 1077.78 4.39 1077.93 4.855L1076.82 5.16998V5.185ZM1079.69 9.90999C1077.23 10.375 1074.68 10.825 1073.06 11.065C1073.04 11.215 1072.94 11.305 1072.83 11.335L1072.35 10.045C1073.24 9.92498 1074.35 9.775 1075.58 9.595V6.80498H1072.71V5.8H1079.61V6.80498H1076.76V9.41496L1079.64 8.99496L1079.69 9.90999ZM1085.55 5.23C1085.33 4.69 1084.77 3.84999 1084.23 3.20499H1082.57C1082.01 3.93999 1081.37 4.61498 1080.71 5.12498C1080.45 4.92998 1079.97 4.64496 1079.66 4.49496C1080.87 3.60996 1082.06 2.095 1082.69 0.505005L1084.2 0.970001C1084.16 1.09 1084.02 1.14999 1083.8 1.14999C1083.65 1.47999 1083.47 1.81 1083.27 2.14H1090.16V3.22H1085.57C1086.03 3.775 1086.44 4.40496 1086.65 4.86996L1085.52 5.25998L1085.55 5.23ZM1083.14 7.52499C1084.14 8.10999 1085.36 8.97999 1085.96 9.57999L1085.18 10.39C1084.58 9.775 1083.38 8.84496 1082.37 8.24496L1083.12 7.52499H1083.14Z" fill="white"/>
<path d="M1102.88 11.785V16.735H1110.69V17.89H1093.91V16.735H1101.53V11.785H1094.78V10.63H1101.53V7.91496H1097.37V6.80498C1096.32 7.61498 1095.21 8.36498 1094.09 9.00998C1093.89 8.72498 1093.55 8.25999 1093.28 7.98999C1096.67 6.18999 1099.98 3.09999 1101.51 0.48999L1103.4 0.60997C1103.36 0.75997 1103.21 0.864974 1103.01 0.894974C1104.89 3.48997 1108.37 6.29497 1111.37 7.73497C1111.05 8.06497 1110.72 8.48498 1110.5 8.87498C1107.48 7.20998 1104.02 4.38998 1102.2 1.83998C1101.18 3.39998 1099.46 5.17 1097.46 6.73H1107.2V7.91496H1102.88V10.63H1109.78V11.785H1102.88ZM1098.32 16.405C1098.06 15.415 1097.3 13.885 1096.5 12.745L1097.57 12.34C1098.38 13.42 1099.19 14.935 1099.46 15.925L1098.32 16.405ZM1108.26 12.925C1108.2 13.045 1108.05 13.105 1107.84 13.075C1107.29 14.08 1106.36 15.505 1105.62 16.435L1104.66 15.955C1105.38 14.995 1106.33 13.405 1106.82 12.28L1108.28 12.91L1108.26 12.925Z" fill="white"/>
<path d="M1115.33 0.805008C1116.02 1.55501 1116.57 2.33504 1117.01 3.13004C1117.59 2.33504 1118.07 1.51003 1118.43 0.730026L1119.77 1.36C1119.71 1.45 1119.59 1.51001 1119.42 1.51001C1118.96 2.39501 1118.33 3.38502 1117.59 4.33002C1118.45 6.47502 1118.6 8.72503 1118.6 11.14C1118.6 13.99 1118.45 16.93 1117.74 17.905C1117.32 18.46 1116.72 18.58 1115.01 18.52C1115.01 18.13 1114.88 17.65 1114.7 17.305C1115.04 17.35 1115.37 17.35 1115.67 17.35C1116.23 17.35 1116.59 17.335 1116.81 17.035C1117.28 16.435 1117.41 13.675 1117.41 11.11V10.255C1116.68 11.59 1115.76 12.85 1114.89 13.69C1114.71 13.375 1114.37 12.94 1114.1 12.685C1115.25 11.695 1116.56 9.80502 1117.26 8.03502C1117.14 7.10502 1116.99 6.22001 1116.71 5.35001C1116.15 5.96501 1115.57 6.56503 1114.97 7.10503C1114.76 6.86503 1114.37 6.52 1114.1 6.325C1114.83 5.68 1115.57 4.91503 1116.23 4.10503C1115.81 3.17503 1115.21 2.275 1114.41 1.405L1115.33 0.76001V0.805008ZM1120.86 8.56003V10.615H1124.4V17.365H1123.31V16.405H1120.88V18.235H1119.77V3.25002H1121.12C1121.37 2.42502 1121.64 1.315 1121.79 0.565002L1123.31 1.01503C1123.25 1.13503 1123.11 1.19504 1122.9 1.21004C1122.75 1.76504 1122.5 2.56003 1122.24 3.26503H1124.33V8.59001H1120.86V8.56003ZM1123.22 4.37502H1120.86V7.405H1123.22V4.37502ZM1123.29 11.74H1120.86V15.235H1123.29V11.74ZM1132.31 2.59001H1129.05V5.71004H1131.66V14.545C1131.66 15.685 1131.08 15.775 1129.64 15.775C1129.59 15.46 1129.43 15.025 1129.29 14.725C1129.82 14.74 1130.25 14.74 1130.42 14.74C1130.57 14.725 1130.61 14.68 1130.61 14.53V6.83504H1129.07V18.52H1127.97V6.83504H1126.46V15.865H1125.44V5.69502H1127.97V2.575H1124.76V1.42001H1132.32V2.575L1132.31 2.59001Z" fill="white"/>
<path d="M1153.13 14.305H1145.9C1147.18 16.285 1149.76 17.155 1153.51 17.38C1153.22 17.665 1152.91 18.19 1152.76 18.58C1148.62 18.16 1145.93 16.975 1144.55 14.305H1144.09C1143.01 16.45 1140.86 17.86 1135.93 18.565C1135.84 18.25 1135.54 17.74 1135.31 17.455C1139.45 16.93 1141.51 15.925 1142.59 14.305H1135.61V13.165H1143.17C1143.43 12.49 1143.58 11.74 1143.7 10.9L1145.38 11.05C1145.36 11.185 1145.2 11.275 1144.99 11.305C1144.87 11.965 1144.73 12.58 1144.57 13.165H1149.73C1148.81 12.79 1147.64 12.43 1146.7 12.175L1147.22 11.365H1147.15C1147.09 11.035 1146.92 10.645 1146.74 10.345C1147.24 10.345 1147.67 10.36 1148.02 10.36C1148.96 10.36 1149.07 10.36 1149.07 10.045V7.87H1142V6.88004H1149.07V5.28999L1150.67 5.36502C1150.66 5.50002 1150.55 5.59001 1150.3 5.63501V6.88004H1153.37V7.87H1150.3V10.075C1150.3 11.29 1149.74 11.35 1147.31 11.35C1148.63 11.635 1150.33 12.175 1151.24 12.61L1150.91 13.15H1153.16V14.29L1153.13 14.305ZM1138.03 7.78C1138.03 9.19 1137.82 10.855 1136.36 12.04C1136.11 11.83 1135.63 11.575 1135.31 11.425C1136.84 10.285 1136.84 8.66501 1136.84 7.79501H1135.49V6.71501H1139.95V5.18503H1136.5V1.18001L1137.98 1.27C1137.97 1.39 1137.86 1.48002 1137.62 1.52502V4.12H1139.95V0.595032L1141.51 0.685028C1141.49 0.820028 1141.39 0.925017 1141.15 0.955017V11.665H1139.95V7.78H1138.03ZM1146.65 2.72501C1147.33 3.04001 1148.12 3.52 1148.63 3.94C1149.31 3.535 1149.91 3.07001 1150.37 2.54501H1145.74C1144.93 3.01001 1143.95 3.46004 1142.86 3.83504C1142.71 3.58004 1142.38 3.25001 1142.12 3.10001C1144.28 2.42501 1145.95 1.495 1146.85 0.565002L1148.23 0.805008C1148.21 0.940008 1148.09 1.01503 1147.85 1.01503C1147.63 1.22503 1147.37 1.43502 1147.1 1.66002H1151.2L1151.41 1.61502L1152.19 1.99002C1152.14 2.06502 1152.07 2.12501 1152.04 2.17001C1150.37 4.85501 1146.61 6.16003 1142.77 6.73003C1142.68 6.46003 1142.42 6.07003 1142.23 5.84503C1143.38 5.71003 1144.55 5.48501 1145.65 5.17001C1145.18 4.76501 1144.57 4.34503 1144 4.01503L1144.69 3.59503C1145.33 3.94003 1146.08 4.45001 1146.55 4.88501C1147 4.73501 1147.42 4.57003 1147.82 4.39003C1147.34 3.98503 1146.62 3.52002 1146.01 3.20502L1146.67 2.74002L1146.65 2.72501ZM1144.39 7.96004C1145.2 8.50004 1146.13 9.31 1146.55 9.94L1145.63 10.555C1145.21 9.97001 1144.3 9.1 1143.5 8.53L1144.37 7.96004H1144.39Z" fill="white"/>
<path d="M1157.03 13.21C1158.45 14.35 1160.36 16.27 1161.39 17.485L1160.24 18.55C1159.28 17.305 1157.3 15.28 1156.01 14.125L1157.03 13.21Z" fill="white"/>
<path d="M10.1752 44.29V49.24H17.9902V50.395H1.2052V49.24H8.8252V44.29H2.0752V43.135H8.8252V40.435H4.67019V39.325C3.62019 40.135 2.5102 40.885 1.3852 41.53C1.1902 41.245 0.845195 40.78 0.575195 40.51C3.9652 38.71 7.28019 35.62 8.81019 33.01L10.7002 33.13C10.6552 33.28 10.5052 33.385 10.3102 33.415C12.1852 36.01 15.6652 38.815 18.6652 40.255C18.3502 40.585 18.0202 41.005 17.7952 41.395C14.7802 39.73 11.3152 36.91 9.5002 34.36C8.4802 35.92 6.7552 37.69 4.7602 39.25H14.4952V40.435H10.1752V43.135H17.0752V44.29H10.1752ZM5.61519 48.91C5.36019 47.92 4.59519 46.39 3.80019 45.25L4.86519 44.845C5.67519 45.925 6.4852 47.44 6.7552 48.43L5.61519 48.91ZM15.5602 45.43C15.5002 45.55 15.3502 45.61 15.1402 45.58C14.5852 46.585 13.6552 48.01 12.9202 48.94L11.9602 48.46C12.6802 47.5 13.6252 45.91 14.1202 44.785L15.5752 45.415L15.5602 45.43Z" fill="white"/>
<path d="M31.9854 41.485C32.3604 42.61 32.8404 43.645 33.4104 44.605C34.8804 43.795 36.6354 42.625 37.7004 41.74L38.9154 42.67C38.8404 42.76 38.6604 42.79 38.5104 42.76C37.3554 43.57 35.4804 44.695 33.9804 45.43C35.3154 47.275 37.1304 48.64 39.4104 49.375C39.1254 49.63 38.7654 50.11 38.5854 50.455C34.6854 49 32.1504 45.85 30.8304 41.575C30.2304 41.935 29.5404 42.295 28.7754 42.625C31.4304 44.29 32.5704 46.54 32.5704 48.25C32.5704 49.96 31.5504 51.1 29.5554 51.1C29.0904 51.1 28.5354 51.1 27.8904 51.055C27.8754 50.71 27.7404 50.2 27.5154 49.87C28.1904 49.93 28.8954 49.945 29.3154 49.945C29.7804 49.945 31.3254 49.945 31.3254 48.115C31.3254 47.635 31.1904 47.095 30.9354 46.525C28.7304 48.31 25.3404 49.885 22.5954 50.68C22.4154 50.395 22.0704 49.93 21.8154 49.675C24.7704 48.955 28.3854 47.32 30.3804 45.61C30.1554 45.265 29.8554 44.92 29.4954 44.56C27.7104 45.775 24.9954 46.9 22.8654 47.44C22.6854 47.155 22.3404 46.72 22.0854 46.48C24.3054 46.015 27.0804 45.01 28.7604 43.93C28.4154 43.645 28.0254 43.375 27.5754 43.12C25.9704 43.735 24.2304 44.26 22.6704 44.635C22.5354 44.38 22.2204 43.945 22.0104 43.705C24.2304 43.225 26.8854 42.445 28.8504 41.485H23.7804V38.095C23.3904 38.38 22.9704 38.65 22.5354 38.905C22.3404 38.62 21.9504 38.215 21.6504 38.02C24.2154 36.595 26.1804 34.615 27.2154 33.01L28.8204 33.295C28.7754 33.43 28.6404 33.52 28.4154 33.52C28.2054 33.805 27.9654 34.105 27.7254 34.405H32.2554L32.4654 34.33L33.4554 34.975C33.4104 35.065 33.3054 35.11 33.2004 35.125C32.8554 35.71 32.3304 36.385 31.7904 37H37.2804V41.47H31.9404L31.9854 41.485ZM25.0554 38.05V40.465H29.7804V38.05H25.0554ZM30.2754 37.03C30.6954 36.565 31.1454 36.01 31.4754 35.485H26.8554C26.3754 36.01 25.8354 36.535 25.2054 37.03H30.2754ZM36.0354 40.465V38.05H31.0404V40.465H36.0354Z" fill="white"/>
<path d="M60.1555 46.81H52.9255C54.2005 48.79 56.7805 49.66 60.5305 49.885C60.2455 50.17 59.9305 50.695 59.7805 51.085C55.6405 50.665 52.9554 49.48 51.5754 46.81H51.1105C50.0305 48.955 47.8854 50.365 42.9504 51.07C42.8604 50.755 42.5604 50.245 42.3354 49.96C46.4754 49.435 48.5305 48.43 49.6105 46.81H42.6355V45.67H50.1955C50.4505 44.995 50.6004 44.23 50.7204 43.405L52.4004 43.555C52.3854 43.69 52.2205 43.795 52.0105 43.81C51.8905 44.47 51.7555 45.085 51.5905 45.67H56.7505C55.8355 45.295 54.6654 44.935 53.7204 44.68L54.2455 43.87H54.1704C54.1104 43.54 53.9454 43.15 53.7654 42.85C54.2754 42.85 54.6955 42.865 55.0405 42.865C55.9855 42.865 56.0905 42.865 56.0905 42.55V40.39H49.0254V39.4H56.0905V37.81L57.6955 37.885C57.6805 38.02 57.5755 38.11 57.3205 38.155V39.4H60.3955V40.39H57.3205V42.595C57.3205 43.81 56.7654 43.87 54.3354 43.87C55.6554 44.155 57.3504 44.695 58.2654 45.13L57.9355 45.67H60.1855V46.81H60.1555ZM45.0505 40.3C45.0505 41.71 44.8405 43.375 43.3855 44.56C43.1305 44.35 42.6504 44.095 42.3354 43.945C43.8654 42.805 43.8654 41.185 43.8654 40.315H42.5154V39.235H46.9704V37.705H43.5205V33.7L45.0054 33.79C44.9904 33.91 44.8855 34 44.6455 34.045V36.64H46.9704V33.115L48.5305 33.205C48.5155 33.34 48.4104 33.43 48.1704 33.475V44.185H46.9704V40.3H45.0505ZM53.6755 35.245C54.3505 35.56 55.1455 36.04 55.6555 36.46C56.3305 36.055 56.9305 35.59 57.3955 35.065H52.7605C51.9505 35.53 50.9754 35.98 49.8804 36.355C49.7304 36.1 49.4005 35.77 49.1455 35.62C51.3055 34.945 52.9705 34.015 53.8705 33.085L55.2505 33.31C55.2355 33.445 55.1155 33.52 54.8755 33.52C54.6505 33.73 54.3955 33.94 54.1255 34.165H58.2204L58.4304 34.12L59.2104 34.495C59.1654 34.57 59.0905 34.63 59.0605 34.675C57.3955 37.36 53.6305 38.665 49.7905 39.235C49.7005 38.965 49.4455 38.575 49.2505 38.35C50.4055 38.215 51.5754 37.975 52.6704 37.675C52.2054 37.27 51.5905 36.85 51.0205 36.52L51.7104 36.1C52.3554 36.445 53.1055 36.955 53.5705 37.39C54.0205 37.24 54.4404 37.09 54.8454 36.895C54.3654 36.49 53.6455 36.025 53.0305 35.71L53.6904 35.245H53.6755ZM51.4104 40.48C52.2204 41.02 53.1505 41.83 53.5705 42.46L52.6555 43.075C52.2355 42.49 51.3204 41.62 50.5254 41.05L51.3955 40.495L51.4104 40.48Z" fill="white"/>
<path d="M63.7104 51.265C64.0254 50.29 64.4004 48.385 64.5654 47.14L66.6504 46.87C66.2454 48.34 65.4355 50.35 64.9855 51.1L63.7104 51.25V51.265Z" fill="white"/>
<path d="M79.9552 39.34C80.8402 40.585 81.7702 42.265 82.1002 43.345L81.0502 43.855C80.9602 43.51 80.7952 43.12 80.6002 42.7C80.0152 42.745 79.4452 42.76 78.8752 42.79V51.07H77.7202V42.85C76.6402 42.895 75.6652 42.925 74.9002 42.97C74.8852 43.105 74.7652 43.18 74.6302 43.225L74.2852 41.77H75.6352C76.0552 41.245 76.5052 40.645 76.9702 39.985C76.3702 39.1 75.3652 37.96 74.4802 37.12L75.1552 36.295C75.3502 36.475 75.5602 36.67 75.7702 36.88C76.4302 35.755 77.1802 34.21 77.6152 33.115L78.9802 33.7C78.9202 33.82 78.7852 33.88 78.5752 33.88C78.0652 34.96 77.2252 36.55 76.4902 37.63C76.9402 38.095 77.3452 38.575 77.6452 39.01C78.4702 37.75 79.2502 36.445 79.8052 35.335L81.1552 35.98C81.0952 36.07 80.9452 36.16 80.7352 36.16C79.7452 37.81 78.2002 40.105 76.8502 41.785L80.1202 41.725C79.7752 41.065 79.3852 40.39 78.9802 39.805L79.9552 39.385V39.34ZM76.9702 44.605C76.9102 44.725 76.7902 44.8 76.5802 44.8C76.3102 46.45 75.8602 48.295 75.2902 49.435C75.0202 49.255 74.6002 49.075 74.3302 48.925C74.8852 47.845 75.2902 45.985 75.5452 44.23L76.9702 44.605ZM80.5852 44.215C81.1402 45.355 81.6802 46.825 81.8752 47.815C81.6502 47.89 81.4102 47.995 80.7952 48.19C80.6452 47.2 80.1202 45.7 79.5802 44.53L80.5852 44.215ZM81.0502 48.895C82.1452 48.265 83.7952 47.215 85.4002 46.165L85.8052 47.17C84.4102 48.175 82.9852 49.195 82.0102 49.84C82.0252 49.975 81.9652 50.11 81.8602 50.185L81.0502 48.895ZM87.4702 41.32C87.6952 42.445 88.0252 43.615 88.5502 44.74C89.4652 43.99 90.5002 43 91.1452 42.25L92.3302 43.18C92.2402 43.3 92.0752 43.315 91.9252 43.27C91.2052 43.99 90.0352 44.995 89.0602 45.685C89.8852 47.08 91.0552 48.295 92.6902 49.075C92.4202 49.3 92.0302 49.825 91.8652 50.17C89.5852 48.91 88.2502 46.825 87.4552 44.77V49.69C87.4552 51.04 86.7802 51.1 84.4702 51.1C84.4252 50.77 84.2602 50.29 84.0952 49.96C84.5152 49.975 84.9202 49.975 85.2502 49.975C86.1352 49.975 86.2402 49.975 86.2402 49.66V41.305H81.5452V40.15H88.3702C88.4602 39.67 88.5802 39.145 88.7002 38.62H84.1402L83.9452 39.31L82.6852 39.1C83.2102 37.54 83.8702 34.96 84.2752 33.085L85.8652 33.28C85.8202 33.43 85.7152 33.505 85.4452 33.505L85.1752 34.645H89.7202L89.9902 34.6L90.7252 34.81C90.7102 34.9 90.6652 35.02 90.6352 35.095C90.4252 36.31 90.0202 38.38 89.6302 40.12H92.5252V41.275H87.4702V41.32ZM83.0002 42.43C83.8702 43.165 84.8752 44.23 85.3252 44.98L84.3802 45.775C83.9602 45.025 82.9852 43.9 82.1152 43.12L83.0002 42.43ZM84.9202 35.74C84.7702 36.355 84.6052 37 84.4402 37.6H88.9252C89.0452 36.94 89.1802 36.31 89.2702 35.74H84.9202Z" fill="white"/>
<path d="M100.4 33.52C100.34 33.655 100.205 33.715 99.98 33.73C99.515 34.87 98.84 36.385 98.18 37.6C99.56 37.555 101.075 37.51 102.635 37.45C102.185 36.715 101.69 35.965 101.18 35.305L102.245 34.855C103.325 36.19 104.45 37.99 104.915 39.19L103.79 39.715C103.655 39.37 103.475 38.965 103.25 38.53C100.535 38.725 97.76 38.86 95.975 38.935C95.96 39.085 95.825 39.175 95.69 39.205L95.27 37.675L96.86 37.63C97.58 36.31 98.39 34.435 98.84 33.085L100.43 33.505L100.4 33.52ZM103.535 40.48V49.555C103.535 51.01 102.755 51.07 100.31 51.07C100.235 50.725 100.04 50.2 99.845 49.855C100.43 49.87 100.94 49.9 101.33 49.9C102.155 49.9 102.26 49.9 102.26 49.555V47.425H97.85V51.145H96.635V40.51H103.535V40.48ZM102.26 41.605H97.85V43.405H102.26V41.605ZM97.85 46.36H102.26V44.44H97.85V46.36ZM111.095 40.465C111.89 40.465 112.025 40.135 112.1 38.14C112.385 38.365 112.91 38.56 113.3 38.665C113.12 41.02 112.745 41.665 111.215 41.665H107.72C105.92 41.665 105.44 41.26 105.44 39.745V33.115L107.105 33.205C107.09 33.34 106.985 33.43 106.73 33.475V36.49C108.47 35.905 110.315 35.185 111.455 34.6L112.445 35.665C112.445 35.665 112.325 35.725 112.25 35.725C112.19 35.725 112.13 35.725 112.07 35.71C110.75 36.31 108.65 37 106.73 37.57V39.73C106.73 40.345 106.88 40.465 107.81 40.465H111.095ZM106.7 48.94C106.7 49.6 106.895 49.72 107.855 49.72H111.26C112.13 49.72 112.265 49.33 112.34 47.095C112.655 47.305 113.165 47.5 113.525 47.59C113.375 50.2 112.985 50.875 111.365 50.875H107.75C105.935 50.875 105.425 50.485 105.425 48.955V42.25L107.09 42.34C107.075 42.475 106.97 42.58 106.7 42.61V45.43C108.56 44.875 110.555 44.08 111.71 43.345L112.67 44.425C112.67 44.425 112.55 44.485 112.46 44.485C112.415 44.485 112.37 44.485 112.31 44.47C111.02 45.205 108.725 45.985 106.7 46.54V48.94Z" fill="white"/>
<path d="M120.365 42.43V48.055C121.28 47.875 122.195 47.71 123.125 47.515L123.2 48.625C120.905 49.12 118.475 49.63 116.975 49.915C116.93 50.065 116.84 50.17 116.705 50.2L116.255 48.775L119.21 48.265V42.43H116.405V41.275H119.21V39.085H117.365V38.77C117.23 38.95 117.095 39.1 116.945 39.265C116.735 38.995 116.33 38.59 116.03 38.44C117.56 36.76 118.715 34.645 119.39 33.055L120.935 33.295C120.89 33.445 120.8 33.52 120.59 33.55C121.55 34.405 122.72 35.485 123.305 36.175L122.555 37.18C122.015 36.49 120.995 35.44 120.035 34.585C119.51 35.635 118.82 36.79 118.01 37.93H122.42V39.07H120.35V41.26H123.02V42.415H120.35L120.365 42.43ZM117.68 43.45C118.07 44.575 118.4 46.045 118.475 47.005C117.89 47.14 117.695 47.2 117.515 47.23C117.455 46.27 117.155 44.815 116.78 43.66L117.695 43.45H117.68ZM123.035 43.78H134.285V44.725H123.035V43.93C123.035 43.93 122.885 43.99 122.75 43.99C122.525 44.875 122.09 46.21 121.73 47.08C121.715 47.08 120.92 46.765 120.92 46.765C121.265 45.835 121.7 44.365 121.91 43.36L123.05 43.765L123.035 43.78ZM133.73 38.275H134.39C134.39 38.455 133.94 40.105 133.505 40.975L132.485 40.78C132.68 40.375 132.86 39.79 133.01 39.22H123.17V38.275H133.745H133.73ZM127.865 36.445V35.29H123.365V34.375H127.865V33.085L129.47 33.205C129.455 33.325 129.35 33.415 129.095 33.46V34.39H133.79V35.305H129.095V36.46H133.115V37.375H124.145V36.46H127.865V36.445ZM127.52 45.55V49.6H124.52V50.41H123.56V45.55H127.52ZM123.77 41.98H127.91V40.93H124.91V40.12H131.975V40.93H129.095V41.98H133.1V42.805H123.785V41.98H123.77ZM126.56 46.465H124.535V48.685H126.56V46.465ZM132.89 44.95C132.845 45.07 132.77 45.145 132.53 45.205V46.09H134.06V47.035H132.53V49.885C132.53 50.98 132.08 51.04 129.905 51.04C129.86 50.755 129.71 50.38 129.56 50.11C130.34 50.125 130.97 50.125 131.18 50.125C131.375 50.11 131.435 50.05 131.435 49.87V47.02H127.895V46.075H131.435V44.83L132.905 44.92L132.89 44.95ZM128.885 47.35C129.5 47.905 130.145 48.685 130.37 49.27L129.545 49.81C129.29 49.21 128.69 48.415 128.09 47.815L128.885 47.35Z" fill="white"/>
<path d="M147.575 39.685C147.965 40.96 148.505 42.175 149.165 43.285C150.44 42.49 151.955 41.41 152.915 40.555L154.1 41.62C154.025 41.695 153.845 41.71 153.695 41.695C152.705 42.475 151.1 43.495 149.81 44.245C151.205 46.165 153.035 47.635 155.315 48.37C155.03 48.625 154.655 49.12 154.445 49.465C150.485 48.01 147.92 44.455 146.555 40.045C145.94 40.51 145.205 40.975 144.425 41.38C147.095 43.3 148.235 45.775 148.235 47.725C148.235 49.81 146.915 51.085 144.905 51.085C144.425 51.085 143.81 51.07 143.165 51.025C143.15 50.695 143.03 50.155 142.82 49.81C143.54 49.87 144.215 49.885 144.635 49.885C145.19 49.885 145.655 49.84 146.06 49.51C146.6 49.165 146.915 48.445 146.915 47.56C146.915 47.02 146.795 46.42 146.54 45.775C144.41 47.605 141.08 49.45 138.275 50.38C138.125 50.05 137.855 49.57 137.585 49.285C140.525 48.49 144.08 46.6 146.03 44.74C145.775 44.335 145.475 43.93 145.115 43.54C143.45 44.785 140.84 46.105 138.815 46.855C138.665 46.54 138.365 46.105 138.125 45.835C140.18 45.235 142.85 43.975 144.41 42.82C144.08 42.535 143.72 42.22 143.315 41.935C141.86 42.61 140.3 43.165 138.83 43.6C138.68 43.345 138.365 42.85 138.17 42.61C140.555 42.01 143.255 40.99 145.145 39.685H140.555V38.545H151.64V39.685H147.56H147.575ZM139.37 36.55V39.16H138.11V35.35H145.475V33.07L147.2 33.19C147.185 33.325 147.065 33.415 146.81 33.445V35.365H154.295V39.175H152.975V36.565H139.355L139.37 36.55Z" fill="white"/>
<path d="M160.985 36.4C161.345 35.41 161.735 34.06 161.93 33.07L163.595 33.475C163.535 33.61 163.415 33.67 163.175 33.67C162.965 34.465 162.575 35.545 162.2 36.4H165.455V47.905H160.16V49.51H158.945V36.4H161H160.985ZM164.21 41.47V37.6H160.145V41.47H164.21ZM160.145 46.705H164.21V42.625H160.145V46.705ZM174.785 36.43L175.46 36.475C175.445 36.565 175.445 36.76 175.445 36.895C175.175 46.255 174.92 49.345 174.17 50.275C173.69 50.935 173.165 51.055 171.815 51.055C171.17 51.055 170.39 51.04 169.595 50.98C169.55 50.62 169.4 50.065 169.175 49.75C170.555 49.84 171.785 49.84 172.325 49.84C172.64 49.84 172.85 49.765 173.045 49.555C173.66 48.88 173.96 45.865 174.185 37.66H168.755C168.14 39.355 167.375 40.915 166.535 42.07C166.325 41.845 165.86 41.41 165.575 41.215C166.94 39.37 168.065 36.205 168.725 33.055L170.375 33.445C170.315 33.625 170.165 33.685 169.955 33.655C169.745 34.585 169.49 35.53 169.175 36.445H174.83L174.785 36.43ZM169.295 40.525C170.42 42.025 171.56 44.02 171.965 45.34L170.78 45.895C170.375 44.575 169.295 42.535 168.17 41.02L169.295 40.525Z" fill="white"/>
<path d="M184.13 39.925L184.88 40.18C184.865 40.27 184.805 40.36 184.745 40.405C184.43 43.015 183.89 45.19 183.095 46.93C185.03 48.85 187.775 49.27 191.12 49.27C191.855 49.27 196.145 49.27 197.09 49.255C196.88 49.57 196.64 50.17 196.565 50.53H191.09C187.43 50.53 184.595 50.02 182.495 48.07C181.76 49.345 180.875 50.35 179.84 51.085C179.645 50.815 179.15 50.35 178.88 50.17C179.96 49.435 180.89 48.415 181.625 47.08C180.875 46.075 180.245 44.815 179.765 43.21L180.785 42.79C181.16 44.035 181.61 45.055 182.195 45.88C182.735 44.545 183.14 42.985 183.38 41.14H180.905L180.5 41.935L179.3 41.605C180.305 39.745 181.505 37.285 182.315 35.545H179V34.36H183.065L183.32 34.3L184.145 34.645C184.1 34.72 184.055 34.825 183.995 34.9C183.395 36.145 182.45 38.095 181.505 39.955H183.845L184.1 39.91L184.13 39.925ZM189.86 40V38.455H184.37V37.375H189.86V35.845H185.9V34.78H189.86V33.04L191.51 33.16C191.495 33.295 191.39 33.4 191.135 33.415V34.78H195.395V37.375H196.955V38.455H195.395V41.065H191.135V42.67H195.725V43.72H191.135V45.325H196.595V46.405H191.135V48.55H189.86V46.405H184.625V45.325H189.86V43.72H185.495V42.67H189.86V41.065H185.765V40H189.86ZM191.135 35.845V37.375H194.12V35.845H191.135ZM194.12 40V38.455H191.135V40H194.12Z" fill="white"/>
<path d="M217.655 46.27H210.62C212.465 47.665 215.435 48.835 218.045 49.39C217.76 49.66 217.385 50.17 217.19 50.515C214.535 49.84 211.43 48.4 209.51 46.69V51.055H208.235V46.69C206.315 48.43 203.24 49.885 200.615 50.575C200.42 50.245 200.06 49.765 199.79 49.51C202.355 48.955 205.28 47.71 207.095 46.285H200.195V45.205H208.235V43.51C207.71 43.975 207.02 44.38 206.105 44.74C205.955 44.47 205.505 44.005 205.25 43.825C207.965 42.835 208.46 41.47 208.46 40.165V38.215H215.3V42.28C215.3 42.955 215.3 43.015 215.72 43.015H216.305C216.965 43.015 216.965 42.94 217.025 40.99C217.25 41.2 217.64 41.38 217.94 41.47C217.88 43.435 217.805 44.065 216.38 44.065H215.465C214.07 44.065 214.07 43.33 214.07 42.205V39.175H209.66V40.225C209.66 41.335 209.375 42.505 208.25 43.495L209.87 43.585C209.855 43.72 209.75 43.825 209.495 43.855V45.205H217.64V46.285L217.655 46.27ZM204.485 37.705C204.335 37.165 203.96 36.37 203.57 35.71H202.625C202.085 36.505 201.485 37.24 200.885 37.78C200.66 37.57 200.21 37.255 199.925 37.105C201.005 36.175 202.07 34.57 202.715 33.01L204.2 33.505C204.14 33.595 204.005 33.685 203.795 33.655C203.66 33.97 203.48 34.3 203.315 34.615H208.655V35.695H204.8C205.145 36.28 205.445 36.91 205.595 37.375L204.485 37.69V37.705ZM207.35 42.43C204.89 42.895 202.34 43.345 200.72 43.585C200.705 43.735 200.6 43.81 200.495 43.855L200.015 42.565C200.9 42.445 202.01 42.295 203.24 42.115V39.325H200.375V38.32H207.275V39.325H204.425V41.935L207.305 41.515L207.35 42.43ZM213.215 37.75C212.99 37.21 212.435 36.37 211.895 35.725H210.23C209.675 36.46 209.03 37.135 208.37 37.645C208.115 37.45 207.635 37.165 207.32 37.015C208.535 36.13 209.72 34.615 210.35 33.025L211.865 33.49C211.82 33.61 211.685 33.67 211.46 33.67C211.31 34 211.13 34.33 210.935 34.66H217.82V35.74H213.23C213.695 36.295 214.1 36.925 214.31 37.39L213.185 37.78L213.215 37.75ZM210.8 40.06C211.805 40.645 213.02 41.515 213.62 42.115L212.84 42.925C212.24 42.31 211.04 41.38 210.035 40.78L210.785 40.06H210.8Z" fill="white"/>
<path d="M227.21 48.235C227.945 48.625 228.2 48.775 228.425 48.925C228.35 49 228.215 49.045 228.035 49.06C226.76 49.87 224.015 50.71 221.705 51.115C221.525 50.86 221.165 50.44 220.91 50.185C223.205 49.84 225.995 49.045 227.195 48.235H227.21ZM235.01 38.335H238.625V39.355H234.935L234.785 41.14H224.315L224.54 39.355H221.045V38.335H224.675L224.885 36.61H235.16L235.01 38.335ZM222.965 35.665V37.66H221.765V34.585H229.13V33.07L230.81 33.16C230.795 33.31 230.675 33.4 230.42 33.43V34.57H237.89V37.645H236.645V35.65H222.95L222.965 35.665ZM235.925 41.995V48.19H223.805V41.995H235.925ZM234.605 43.78V42.85H225.05V43.78H234.605ZM234.605 45.565V44.605H225.05V45.565H234.605ZM234.605 47.365V46.375H225.05V47.365H234.605ZM225.725 39.28L225.59 40.33H228.98C229.025 40 229.07 39.655 229.115 39.28H225.725ZM229.19 38.425C229.205 38.095 229.25 37.765 229.265 37.465H225.965L225.845 38.425H229.19ZM230.12 40.315H233.645L233.72 39.265H230.24L230.12 40.315ZM233.795 38.425L233.87 37.465H230.375L230.315 38.425H233.795ZM237.515 51.1C236.045 50.545 233.645 49.72 231.17 49.045L232.055 48.295C234.455 48.94 237.02 49.72 238.61 50.305L237.515 51.1Z" fill="white"/>
<path d="M257.285 37.405C257.57 37.405 257.615 37.405 257.9 37.39L258.65 37.465C258.65 37.585 258.635 37.78 258.605 37.915C258.32 46.405 258.02 49.285 257.255 50.17C256.715 50.845 256.1 50.965 254.84 50.965C254.18 50.965 253.355 50.95 252.56 50.89C252.545 50.5 252.365 49.93 252.095 49.54C253.475 49.66 254.705 49.675 255.185 49.675C255.59 49.675 255.83 49.615 256.04 49.39C256.685 48.76 256.985 45.97 257.24 38.74H250.295C250.025 42.835 248.705 47.62 242.96 51.16C242.75 50.83 242.27 50.35 241.955 50.14C247.385 46.87 248.66 42.5051 248.93 38.7551H242.51V37.435H248.99C249.005 37.09 249.005 36.76 249.005 36.43V33.145L250.745 33.265C250.73 33.4 250.61 33.49 250.355 33.535V36.43C250.355 36.76 250.355 37.09 250.34 37.435H257.27L257.285 37.405Z" fill="white"/>
<path d="M280.191 36.925H269.646C269.271 37.735 268.866 38.53 268.431 39.31H277.776V49.375C277.776 51.025 276.996 51.055 273.546 51.055C273.486 50.68 273.291 50.125 273.096 49.765C273.771 49.78 274.416 49.78 274.941 49.78C276.336 49.78 276.486 49.78 276.486 49.36V47.155H268.311V51.055H267.021V41.485C266.031 42.805 264.891 43.975 263.556 44.95C263.361 44.665 262.956 44.17 262.686 43.9C265.086 42.22 266.916 39.67 268.176 36.94H263.091V35.68H268.716C269.061 34.825 269.331 33.955 269.571 33.115L271.251 33.535C271.206 33.67 271.056 33.745 270.831 33.745C270.636 34.375 270.426 35.02 270.171 35.68H280.206V36.94L280.191 36.925ZM276.471 42.655V40.495H268.296V42.655H276.471ZM268.296 46H276.471V43.795H268.296V46Z" fill="white"/>
<path d="M285.53 34.435H298.64V51.07H297.29V49.69H286.82V51.07H285.53V34.435ZM297.29 35.695H286.82V39.085H297.29V35.695ZM297.29 40.315H286.82V43.735H297.29V40.315ZM286.82 48.415H297.29V44.995H286.82V48.415Z" fill="white"/>
<path d="M316.85 43.48H321.53V44.755H303.77V43.48H308.375V38.38H304.655V37.105H308.375V33.28L310.1 33.4C310.085 33.52 309.98 33.61 309.71 33.655V37.12H315.515V33.295L317.24 33.415C317.225 33.535 317.12 33.625 316.85 33.67V37.135H320.795V38.41H316.85V43.51V43.48ZM310.97 46.51C310.91 46.63 310.76 46.69 310.55 46.66C309.275 48.115 306.995 49.93 305 51.085C304.73 50.77 304.25 50.35 303.935 50.125C305.93 49.06 308.21 47.335 309.335 45.835L310.985 46.51H310.97ZM309.71 38.365V43.465H315.515V38.365H309.71ZM320.06 51.055C318.875 49.87 316.46 47.935 314.585 46.57L315.74 45.85C317.585 47.17 320.03 49.015 321.29 50.2L320.045 51.055H320.06Z" fill="white"/>
<path d="M330.665 34.33V47.785H326.435V49.525H325.22V34.33H330.68H330.665ZM329.42 35.515H326.42V38.395H329.42V35.515ZM326.42 39.535V42.46H329.42V39.535H326.42ZM326.42 46.615H329.42V43.6H326.42V46.615ZM342.53 39.415V40.57H337.925C337.04 41.515 336.065 42.385 335.045 43.165H341.045V50.98H339.8V50.395H334.4V51.055H333.2V44.425C332.615 44.77 332.045 45.1 331.445 45.415C331.295 45.13 330.98 44.62 330.755 44.35C332.75 43.405 334.625 42.13 336.245 40.585H331.025V39.43H334.91V36.895H331.85V35.755H334.91V33.1L336.53 33.19C336.515 33.325 336.41 33.415 336.14 33.46V35.74H339.14V36.88H336.14V39.415H337.385C338.78 37.87 339.95 36.085 340.85 34.135L342.305 34.66C342.23 34.81 342.035 34.855 341.855 34.84C341.06 36.505 340.07 38.035 338.93 39.43H342.53V39.415ZM339.8 46.21V44.275H334.4V46.21H339.8ZM334.4 49.285H339.8V47.275H334.4V49.285ZM339.875 43.045C339.455 42.58 338.6 41.905 337.925 41.515L338.705 40.84C339.425 41.23 340.25 41.86 340.67 42.31L339.875 43.045Z" fill="white"/>
<path d="M350.45 48.355C350.45 49.84 349.235 51.07 347.735 51.07C346.235 51.07 345.02 49.855 345.02 48.355C345.02 46.855 346.235 45.64 347.735 45.64C349.235 45.64 350.45 46.9 350.45 48.355ZM349.76 48.355C349.76 47.23 348.875 46.345 347.75 46.345C346.625 46.345 345.755 47.23 345.755 48.355C345.755 49.48 346.64 50.35 347.75 50.35C348.905 50.35 349.76 49.42 349.76 48.355Z" fill="white"/>
</svg>
