<svg width="814" height="180" viewBox="0 0 814 180" fill="none" xmlns="http://www.w3.org/2000/svg">
<path d="M782.384 0.244995H31.7841C14.412 0.244995 0.329102 14.3279 0.329102 31.7V71.3C0.329102 88.6721 14.412 102.755 31.7841 102.755H782.384C799.756 102.755 813.839 88.6721 813.839 71.3V31.7C813.839 14.3279 799.756 0.244995 782.384 0.244995Z" fill="white"/>
<path d="M56.8799 64.115H93.2849V68.93H56.8799V64.115ZM92.1299 39.935V44.63H58.1999V39.935H72.4499V32.93L78.5849 33.245C78.5399 33.65 78.2249 33.875 77.4749 34.04V39.935H92.1299ZM67.7099 46.07C69.4199 51.05 70.6199 57.305 70.9349 61.565C70.8149 61.565 70.7399 61.565 65.9549 62.795C65.8349 58.61 64.6349 52.16 63.1199 47.27L67.6949 46.07H67.7099ZM88.4249 47.345C88.2599 47.705 87.7949 47.975 87.1499 48.02C86.0699 52.955 83.9699 59.45 82.2149 63.515L77.7599 62.195C79.4399 57.86 81.1049 51.05 81.9449 45.86L88.4399 47.33L88.4249 47.345Z" fill="#2B009E"/>
<path d="M118.41 61.595C120 61.28 121.635 60.92 123.315 60.56C122.52 59.285 121.635 58.055 120.765 56.93L124.515 54.98C127.11 58.13 129.93 62.39 131.04 65.33L126.975 67.565C126.66 66.605 126.135 65.54 125.535 64.385C121.11 65.66 116.7 66.86 113.7 67.655C113.625 68.06 113.34 68.33 113.07 68.405L111.195 62.99C111.99 62.87 112.86 62.675 113.865 62.51V34.91H128.835V54.62H118.395V61.595H118.41ZM124.425 39.335H118.41V42.605H124.425V39.335ZM118.41 50.21H124.425V46.865H118.41V50.21ZM147.285 34.835V59.135C147.285 63.755 145.455 64.79 139.485 64.79C139.32 63.35 138.57 60.965 137.85 59.615C138.81 59.69 139.755 59.69 140.52 59.69C142.155 59.69 142.305 59.69 142.305 59.015V39.665H136.605V70.49H131.7V34.85H147.27L147.285 34.835Z" fill="#2B009E"/>
<path d="M179.085 50.045L179.64 54.11C178.365 54.545 177.045 54.95 175.77 55.385V65.255C175.77 69.59 174.18 70.505 168.09 70.505C167.97 69.23 167.37 67.205 166.77 65.93C167.565 65.93 168.36 65.975 169.035 65.975C171.15 65.975 171.225 65.975 171.225 65.225V56.78L167.835 57.815C167.79 58.205 167.43 58.49 167.16 58.565L165.93 53.27C167.4 52.955 169.23 52.55 171.225 52.04V45.065H166.44V40.64H171.225V32.915L176.805 33.2C176.76 33.605 176.49 33.83 175.77 33.95V40.64H179.07V41.915C183.045 39.65 186.87 35.945 188.745 32.915L194.235 33.155C194.115 33.395 193.875 33.665 193.485 33.755C195.96 36.785 200.46 40.13 204.315 41.765C203.4 42.875 202.365 44.63 201.69 45.98C200.055 45.11 198.345 43.955 196.71 42.68V44.39H185.28V42.965C183.69 44.285 181.935 45.47 180.135 46.385C179.85 45.83 179.46 45.065 179.055 44.36V45.08H175.755V50.93L179.055 50.06L179.085 50.045ZM200.595 58.325H185.295L185.055 59.915H201.945V70.475H197.76V69.365H188.715V70.52H184.695V61.52C183.945 64.7 182.58 67.82 180.27 70.205C179.67 69.365 177.915 67.73 177.045 67.175C180.99 63.035 181.38 57.14 181.38 52.805V46.07H200.58V58.34L200.595 58.325ZM185.655 53.465C185.655 53.99 185.61 54.545 185.61 55.1H196.29V53.465H185.655ZM196.29 49.28H185.655V50.84H196.29V49.28ZM194.73 41C193.29 39.68 191.985 38.33 191.025 37.055C190.155 38.285 188.91 39.65 187.515 41H194.73ZM197.76 63.215H188.715V66.035H197.76V63.215Z" fill="#2B009E"/>
<path d="M237.674 55.19C237.554 55.55 237.239 55.79 236.594 55.865C235.394 61.805 233.759 67.22 224.444 70.475C223.889 69.245 222.614 67.295 221.534 66.29C229.859 63.905 231.134 59.645 231.764 54.5L237.659 55.175L237.674 55.19ZM247.349 63.83C247.349 65.15 247.544 65.345 248.789 65.345H252.299C253.499 65.345 253.739 64.595 253.889 59.855C254.849 60.65 256.949 61.445 258.224 61.76C257.744 68.135 256.469 69.845 252.734 69.845H248.069C243.569 69.845 242.534 68.375 242.534 63.83V54.11H222.149V49.445H237.554V42.92H230.579C229.709 44.945 228.674 46.91 227.519 48.41C226.439 47.69 224.459 46.73 223.304 46.295C225.929 42.995 227.849 37.58 228.674 33.47L234.284 34.7C234.164 35.06 233.849 35.255 233.249 35.255C233.009 36.17 232.694 37.25 232.334 38.315H237.554V32.9L243.524 33.185C243.479 33.62 243.164 33.86 242.414 33.98V38.315H254.684V42.89H242.414V49.415H257.864V54.08H247.349V63.8V63.83Z" fill="#2B009E"/>
<path d="M312.105 41.255V62.525H294.225V41.255H299.88L300.36 38.54H292.755V36.905H292.68C291.285 39.17 289.17 41.96 287.07 44.12C288.03 44.795 288.855 45.44 289.5 46.025L288.465 47.42H291.645L294 47.585C293.205 51.17 292.245 54.71 290.94 58.145C287.67 56.915 287.595 56.87 287.52 56.87C287.955 55.475 288.48 53.57 288.96 51.65H286.605V65.435C286.605 69.14 285.525 70.58 278.565 70.46C278.37 69.14 277.77 67.19 277.125 65.915C278.835 65.96 280.71 65.96 281.265 65.96C281.82 65.915 281.985 65.795 281.985 65.36V51.665H276.015V47.45H284.415C282.39 45.935 279.795 44.39 277.56 43.31L279.945 40.16C281.1 40.685 282.375 41.36 283.65 42.035C284.52 41.075 285.435 39.92 286.245 38.765H276.84V34.625H289.47L290.19 34.385L292.785 35.945V34.55H313.53V38.57H305.4C305.16 39.41 304.875 40.325 304.56 41.285H312.12L312.105 41.255ZM302.235 65.075C302.07 65.24 301.83 65.315 301.515 65.36C299.73 67.145 296.025 69.425 292.875 70.61C292.125 69.74 290.73 68.3 289.725 67.505C292.785 66.395 296.34 64.235 298.095 62.525L302.235 65.075ZM307.53 47.315V44.765H298.575V47.315H307.53ZM307.53 53.135V50.585H298.575V53.135H307.53ZM307.53 59.03V56.435H298.575V59.03H307.53ZM310.515 70.58C309.12 69.11 306.135 66.755 303.87 65.165L307.41 62.735C309.645 64.205 312.66 66.395 314.265 67.91L310.515 70.58Z" fill="#2B009E"/>
<path d="M365.084 40.1L367.634 40.265C367.634 40.67 367.589 41.3 367.559 41.825C367.079 59.825 366.599 66.08 365.054 68.105C363.779 69.89 362.339 70.46 358.199 70.46C357.119 70.46 356.009 70.415 354.899 70.385C354.824 69.11 354.224 67.16 353.384 65.885C355.889 66.08 358.169 66.08 359.204 66.08C359.999 66.08 360.434 65.96 360.914 65.405C362.069 64.205 362.504 58.4 362.909 44.66H352.919C351.959 46.775 350.894 48.68 349.769 50.24C348.929 49.52 347.339 48.41 346.139 47.765C347.534 49.91 348.809 52.265 349.364 54.02C348.014 54.74 346.859 55.37 345.704 56.015C345.539 55.415 345.269 54.695 344.954 53.945L341.969 54.14V70.505H337.589V57.8C337.469 58.04 337.154 58.115 336.794 58.085C336.314 61.385 335.399 65.21 334.199 67.64C333.329 67.04 331.694 66.29 330.659 65.885C331.769 63.695 332.489 59.915 332.894 56.48L337.589 57.635V54.41C335.639 54.53 333.929 54.605 332.489 54.695C332.369 55.055 332.054 55.205 331.739 55.25L330.824 50.465H333.734C334.409 49.625 335.129 48.755 335.849 47.795C334.619 46.16 332.669 44.21 330.989 42.785L333.179 39.515L334.049 40.235C335.444 37.97 336.839 35.18 337.634 32.945L342.419 34.895C342.254 35.21 341.864 35.375 341.339 35.33C340.229 37.565 338.354 40.505 336.794 42.695C337.394 43.295 337.904 43.85 338.354 44.375C339.989 42.02 341.459 39.635 342.569 37.565L347.234 39.71C347.039 39.995 346.634 40.115 346.079 40.115C344.084 43.22 341.054 47.21 338.234 50.39L343.214 50.315C342.614 49.325 342.014 48.32 341.429 47.405C342.704 46.73 343.784 46.205 344.819 45.695C345.224 46.25 345.569 46.805 345.974 47.405C348.479 44.06 350.549 38.36 351.704 32.9L357.359 34.34C357.239 34.7 356.879 34.895 356.279 34.85C355.844 36.605 355.319 38.39 354.689 40.145H364.094L365.129 40.1H365.084ZM344.939 65.78C344.504 63.635 343.349 60.245 342.269 57.695L346.019 56.465C347.129 58.97 348.374 62.165 348.884 64.31L344.939 65.78ZM353.699 49.34C355.769 52.13 358.079 55.835 358.919 58.385L354.734 60.53C354.014 58.055 351.869 54.155 349.829 51.29L353.699 49.34Z" fill="#2B009E"/>
<path d="M442.68 46.43H447.375V50.57H425.595V54.035H420.3V62.84L426.03 62.045L426.27 65.99C420.975 66.98 415.44 67.94 411.9 68.495C411.855 68.855 411.54 69.095 411.18 69.17L409.86 64.19C411.615 63.995 413.73 63.755 416.07 63.44V54.035H410.535V49.97H416.07V47.03H412.605V46.625L412.485 46.745C411.765 45.71 410.295 44.195 409.305 43.565C412.53 40.34 414.96 36.155 416.355 32.885L421.605 33.8C421.485 34.16 421.2 34.355 420.645 34.4L420.6 34.52C422.745 36.11 425.34 38.105 426.81 39.65V37.655H430.155V32.87L435.495 33.185C435.45 33.545 435.18 33.785 434.505 33.905V37.655H438.285V32.87L443.7 33.185C443.655 33.545 443.385 33.785 442.665 33.905V37.655H446.49V41.675H442.665V46.415L442.68 46.43ZM412.41 62.87C412.215 60.965 411.57 58.085 410.85 55.895L413.955 55.025C414.75 57.215 415.425 60.035 415.665 61.88L412.395 62.87H412.41ZM423.795 43.04C422.445 41.57 420.405 39.815 418.545 38.345C417.675 39.905 416.67 41.45 415.515 43.04H423.795ZM425.58 49.97V46.43H430.155V41.69H426.81V40.775L424.665 44.045C424.545 43.88 424.38 43.685 424.23 43.52V47.03H420.285V49.97H425.58ZM426.375 56.15C426.21 56.435 425.895 56.585 425.385 56.585C424.95 58.22 424.155 60.65 423.435 62.24L420.615 61.205C421.215 59.45 421.935 56.75 422.25 54.875L426.39 56.15H426.375ZM428.25 70.49V52.88H445.17V70.325H440.625V68.885H432.54V70.475H428.235L428.25 70.49ZM440.64 56.705H432.555V59.015H440.64V56.705ZM432.555 64.955H440.64V62.525H432.555V64.955ZM438.285 41.705H434.505V46.445H438.285V41.705Z" fill="#2B009E"/>
<path d="M474.134 48.5V61.37C476.519 65.435 480.899 65.435 488.234 65.435C492.974 65.435 498.674 65.315 502.484 65C501.929 66.11 501.209 68.3 500.969 69.665C497.939 69.83 493.559 69.905 489.539 69.905C480.344 69.905 475.754 69.905 472.139 65.33C470.549 66.89 468.869 68.39 467.444 69.59C467.489 70.07 467.324 70.22 466.919 70.43L464.564 65.405C466.124 64.37 467.909 63.095 469.544 61.745V52.94H465.044V48.515H474.119L474.134 48.5ZM468.884 33.92C471.149 35.72 473.939 38.375 475.214 40.295L471.269 43.28C470.159 41.375 467.489 38.585 465.209 36.635L468.869 33.92H468.884ZM481.034 50.015V63.92H476.894V46.4H479.999V34.1H497.084V46.4H500.144V59.825C500.144 63.41 498.869 64.01 493.619 64.01C493.454 62.975 493.064 61.58 492.584 60.545H486.569V61.775H483.149V51.695H493.664V60.29H495.299C495.704 60.29 495.824 60.17 495.824 59.78V50.03H481.049L481.034 50.015ZM484.139 37.625V46.385H486.449V40.085H492.779V37.61H484.139V37.625ZM490.199 57.5V54.71H486.569V57.5H490.199ZM492.794 46.385V43.085H489.854V46.385H492.794Z" fill="#2B009E"/>
<path d="M556.394 63.155H545.639C549.734 64.505 554.159 66.185 556.904 67.34L552.809 70.52C550.139 69.2 545.639 67.295 541.304 65.78C542.339 64.82 543.209 63.995 544.049 63.155H532.094L535.994 65.825C535.829 65.945 535.559 66.065 535.244 66.065C532.649 67.625 527.684 69.575 523.694 70.565C522.944 69.605 521.504 68.18 520.469 67.265C524.369 66.425 529.064 64.67 531.584 63.17H520.679V59.225H556.409V63.17L556.394 63.155ZM535.919 41.495V39.785H521.864V35.795H535.919V32.885L542.054 33.2C542.009 33.605 541.694 33.83 540.944 33.995V35.795H555.524V39.785H540.944V41.495H551.174V57.71H526.529V41.495H535.934H535.919ZM546.314 46.04V44.33H531.134V46.04H546.314ZM546.314 50.42V48.71H531.134V50.42H546.314ZM546.314 54.875V53.075H531.134V54.875H546.314Z" fill="#2B009E"/>
<path d="M608.37 39.77L610.875 39.935C610.875 40.295 610.83 40.97 610.8 41.45C610.32 59.765 609.885 66.1399 608.325 68.1649C607.05 69.9649 605.655 70.475 601.755 70.475C600.795 70.475 599.73 70.43 598.695 70.43C598.62 69.11 598.02 67.13 597.225 65.855C599.535 66.02 601.65 66.05 602.64 66.05C603.36 66.05 603.795 65.855 604.23 65.33C605.31 64.1 605.82 58.355 606.18 44.225H598.14C597.42 46.25 596.625 48.125 595.665 49.835L599.205 48.32C601.11 51.185 603.075 54.935 603.66 57.56L599.28 59.465C598.755 57.08 597.135 53.375 595.335 50.42C594.855 51.215 594.375 51.935 593.895 52.61C593.265 51.86 592.02 50.66 591.03 49.865V64.16H580.875V66.98H576.495V39.575H580.59C581.19 37.505 581.79 34.835 582.06 32.84L587.91 34.07C587.745 34.43 587.43 34.595 586.83 34.625C586.395 36.095 585.72 37.97 585.045 39.56H591.015V48.395C593.445 44.645 595.2 38.675 596.115 32.855L601.77 34.13C601.65 34.445 601.29 34.73 600.735 34.685C600.375 36.365 599.985 38.075 599.535 39.74H607.305L608.34 39.695L608.37 39.77ZM586.545 49.64V43.865H580.89V49.64H586.545ZM580.89 59.9149H586.545V53.825H580.89V59.9149Z" fill="#2B009E"/>
<path d="M650.834 51.17L653.864 48.185C658.049 50.735 664.139 54.68 667.079 57.35L663.254 61.37C660.659 58.745 655.124 54.755 650.834 51.965V70.49H645.854V51.05C642.224 55.19 637.814 58.97 632.759 61.76C632.084 60.56 630.524 58.655 629.609 57.62C637.169 53.795 643.514 47.03 647.219 40.415H631.049V35.6H665.939V40.415H653.189C652.349 42.005 651.404 43.595 650.369 45.2L651.959 45.56C651.884 45.92 651.554 46.235 650.849 46.31V51.17H650.834Z" fill="#2B009E"/>
<path d="M722.206 56.855V61.28H717.271V65.3C717.271 70.085 714.796 70.52 707.671 70.52C707.431 69.245 706.681 67.22 705.991 66.02C707.311 66.095 708.781 66.095 709.891 66.095C712.201 66.095 712.486 66.095 712.486 65.225V61.28H694.366V70.52H689.626V61.28H684.601V56.855H689.626V42.125H700.861V39.455H686.251V35.075H720.586V39.455H705.646V42.125H717.271V56.855H722.206ZM700.861 46.4149H694.366V49.52H700.861V46.4149ZM694.366 53.585V56.855H700.861V53.585H694.366ZM712.486 46.4149H705.631V49.52H712.486V46.4149ZM705.631 56.855H712.486V53.585H705.631V56.855Z" fill="#2B009E"/>
<path d="M776.25 42.32H755.145C754.71 43.355 754.23 44.39 753.75 45.38H771.315V65.06C771.315 69.875 769.05 70.4 762 70.4C761.805 69.005 761.13 66.935 760.485 65.66C761.715 65.735 763.08 65.735 764.115 65.735C766.38 65.735 766.5 65.735 766.5 64.94V62.75H753.285V70.43H748.47V53.66C746.835 55.685 744.96 57.485 742.89 59.03C742.14 57.95 740.505 56.165 739.545 55.25C744 52.145 747.345 47.405 749.7 42.305H740.58V37.73H751.575C752.13 36.095 752.61 34.46 752.97 32.87L758.94 34.34C758.82 34.7 758.415 34.94 757.785 34.895C757.5 35.81 757.23 36.77 756.915 37.715H776.265V42.29L776.25 42.32ZM766.5 52.16V49.565H753.285V52.16H766.5ZM753.285 58.775H766.5V56.15H753.285V58.775Z" fill="#2B009E"/>
<path d="M452.101 142.655C450.646 137.21 449.206 131.765 447.751 126.335C445.276 117.095 442.756 107.855 440.326 98.6C438.841 92.93 442.981 88.25 448.786 88.925C451.981 89.285 454.126 91.265 455.101 94.835C456.931 101.6 458.731 108.365 460.546 115.13C460.681 115.625 460.861 116.105 461.086 116.81C465.196 113.6 469.231 113.255 473.116 116.855C478.036 112.85 481.636 112.805 485.866 116.735C486.496 116.27 487.126 115.775 487.786 115.325C492.361 112.25 498.061 114.185 499.531 119.48C502.306 129.5 505.081 139.52 507.601 149.615C510.061 159.425 505.921 168.68 496.726 173.96C488.866 178.475 480.256 180.095 471.241 179.39C466.321 179 462.016 176.84 458.506 173.54C450.301 165.785 442.171 157.925 434.281 149.84C430.321 145.79 430.696 141.455 434.476 137.9C436.681 135.815 439.291 135.365 442.021 136.37C443.686 136.985 445.231 137.99 446.716 139.01C448.441 140.21 450.031 141.605 451.666 142.91C451.816 142.835 451.966 142.76 452.116 142.685L452.101 142.655ZM475.231 176.555C482.326 176.03 489.301 174.905 495.526 171.11C502.891 166.625 506.626 159.26 504.796 151.415C502.351 140.93 499.381 130.565 496.546 120.17C495.841 117.575 493.576 116.48 491.056 117.14C488.551 117.785 487.261 119.87 487.786 122.495C488.086 123.965 488.716 125.39 488.851 126.875C488.926 127.7 488.251 128.585 487.921 129.455C487.276 128.87 486.271 128.405 486.031 127.67C485.206 125.255 484.696 122.735 483.961 120.275C483.136 117.575 481.006 116.405 478.366 117.095C475.816 117.755 474.571 119.945 475.216 122.72C475.591 124.34 476.071 125.915 476.491 127.52C476.776 128.66 477.481 130.085 475.801 130.565C473.926 131.105 473.851 129.365 473.506 128.21C472.831 125.9 472.261 123.56 471.616 121.235C470.761 118.19 468.646 116.81 465.946 117.545C463.201 118.28 462.046 120.5 462.826 123.545C463.456 126.02 464.236 128.48 464.716 130.985C464.851 131.69 464.146 132.545 463.816 133.34C463.156 132.785 462.436 132.29 461.851 131.66C461.581 131.36 461.581 130.82 461.461 130.37C458.776 120.335 456.091 110.285 453.391 100.25C452.896 98.435 452.491 96.59 451.876 94.805C451.066 92.45 448.846 91.43 446.401 92.105C443.986 92.78 442.696 94.82 443.176 97.28C443.326 98.015 443.551 98.7349 443.746 99.4699C447.886 114.965 452.056 130.46 456.136 145.985C456.361 146.84 455.896 147.86 455.746 148.805C454.876 148.535 453.931 148.4 453.166 147.95C452.146 147.335 451.291 146.45 450.331 145.715C447.631 143.675 445.051 141.44 442.171 139.685C439.156 137.855 436.006 139.25 434.911 142.505C434.176 144.695 435.211 146.435 436.606 147.815C444.391 155.57 452.176 163.355 460.171 170.885C464.311 174.785 469.411 176.78 475.261 176.525L475.231 176.555Z" fill="black"/>
<path d="M475.215 176.555C469.38 176.81 464.265 174.815 460.125 170.915C452.13 163.37 444.36 155.6 436.56 147.845C435.165 146.465 434.13 144.71 434.865 142.535C435.96 139.28 439.11 137.885 442.125 139.715C445.005 141.47 447.585 143.705 450.285 145.745C451.245 146.465 452.1 147.365 453.12 147.98C453.87 148.43 454.83 148.565 455.7 148.835C455.85 147.89 456.315 146.855 456.09 146.015C452.01 130.505 447.84 115.01 443.7 99.5C443.505 98.765 443.281 98.045 443.131 97.31C442.651 94.85 443.94 92.81 446.355 92.135C448.815 91.46 451.02 92.48 451.83 94.835C452.445 96.605 452.85 98.465 453.345 100.28C456.03 110.315 458.715 120.365 461.415 130.4C461.535 130.835 461.535 131.39 461.805 131.69C462.375 132.32 463.11 132.815 463.77 133.37C464.085 132.575 464.79 131.72 464.67 131.015C464.19 128.51 463.425 126.05 462.78 123.575C462 120.53 463.155 118.325 465.9 117.575C468.585 116.855 470.715 118.22 471.57 121.265C472.215 123.59 472.786 125.93 473.461 128.24C473.806 129.395 473.881 131.135 475.756 130.595C477.436 130.1 476.73 128.675 476.445 127.55C476.04 125.945 475.545 124.355 475.17 122.75C474.525 119.975 475.77 117.785 478.32 117.125C480.975 116.435 483.105 117.59 483.915 120.305C484.65 122.75 485.16 125.285 485.985 127.7C486.24 128.42 487.23 128.9 487.875 129.485C488.205 128.63 488.865 127.73 488.805 126.905C488.685 125.42 488.04 123.995 487.74 122.525C487.215 119.9 488.505 117.815 491.01 117.17C493.53 116.51 495.795 117.62 496.5 120.2C499.335 130.595 502.29 140.96 504.75 151.445C506.58 159.29 502.845 166.655 495.48 171.14C489.255 174.935 482.28 176.06 475.185 176.585L475.215 176.555Z" fill="white"/>
</svg>
