<svg width="348" height="141" viewBox="0 0 348 141" fill="none" xmlns="http://www.w3.org/2000/svg">
<path d="M40.305 118.65C37.935 114.45 32.175 111.24 32.175 111.24C32.175 111.24 33.045 116.1 33.36 119.115C33.465 120.105 33.81 121.14 34.305 122.145C33.495 121.455 32.64 120.81 31.74 120.255C30.39 118.725 29.115 117.135 27.9 115.485C28.83 113.25 30.495 108.48 29.625 104.835C28.5 100.155 23.85 95.43 23.85 95.43C23.85 95.43 23.34 100.305 22.815 103.29C22.65 104.265 22.695 105.345 22.89 106.455C22.275 105.54 21.6 104.655 20.88 103.845C20.01 102.03 19.23 100.185 18.525 98.31C20.025 96.465 23.01 92.355 23.175 88.59C23.385 83.805 20.205 77.97 20.205 77.97C20.205 77.97 18.36 82.485 17.025 85.17C16.59 86.055 16.335 87.105 16.215 88.215C15.93 87.315 15.585 86.415 15.18 85.545C14.82 83.37 14.55 81.225 14.34 79.125C16.335 77.76 20.25 74.73 21.435 71.235C22.98 66.72 21.525 60.24 21.525 60.24C21.525 60.24 18.495 64.02 16.455 66.21C15.795 66.93 15.255 67.86 14.835 68.88C14.79 67.59 14.67 66.3 14.4 65.055C14.355 64.83 14.295 64.62 14.235 64.395C14.37 62.88 14.565 61.395 14.805 59.925C16.59 59.415 21.825 57.675 24.075 54.495C26.67 50.82 27.06 44.535 27.06 44.535C27.06 44.535 23.28 47.145 20.835 48.57C20.04 49.035 19.305 49.74 18.63 50.55C18.93 49.38 19.155 48.165 19.245 46.965C19.29 46.335 19.275 45.69 19.215 45.015C19.59 44.19 19.98 43.365 20.385 42.555C20.445 42.495 20.535 42.42 20.625 42.345C21.96 42.375 27.6 42.36 30.63 40.005C33.9 37.44 35.865 31.98 35.865 31.98C35.865 31.98 31.815 33.285 29.25 33.9C28.41 34.11 27.57 34.53 26.775 35.07C27.345 34.11 27.855 33.09 28.245 32.055C28.485 31.41 28.665 30.705 28.785 29.985C29.58 29.04 30.42 28.11 31.275 27.195C32.715 27.645 37.125 28.815 40.08 27.675C43.485 26.355 46.47 22.26 46.47 22.26C46.47 22.26 42.72 22.335 40.41 22.215C39.645 22.17 38.835 22.32 38.025 22.575C38.745 21.915 39.42 21.195 40.005 20.415C43.41 15.885 42.99 6.33 42.99 6.33C42.99 6.33 35.055 11.625 33.315 17.82C32.565 20.49 31.35 24.585 30.81 26.415C30.18 27.06 29.565 27.72 28.965 28.38C29.355 22.53 27.045 15.585 27.045 15.585C27.045 15.585 20.085 23.985 20.175 31.365C20.205 34.32 20.175 38.775 20.175 41.145C19.77 41.91 19.38 42.69 19.02 43.47C17.835 37.095 13.11 30.21 13.11 30.21C13.11 30.21 8.46 41.085 10.755 48.735C11.73 51.99 13.155 57.045 13.8 59.34C13.635 60.21 13.47 61.08 13.335 61.965C10.38 55.725 3.36 49.92 3.36 49.92C3.36 49.92 1.875 62.34 6.405 69.405C8.445 72.585 11.55 77.61 12.75 79.56C12.825 80.415 12.915 81.27 13.02 82.125C8.505 76.845 0 73.185 0 73.185C0 73.185 2.025 85.59 8.31 91.11C11.085 93.555 15.36 97.44 17.1 99.03C17.4 99.84 17.715 100.635 18.03 101.43C12.255 97.695 3.24 96.615 3.24 96.615C3.24 96.615 8.625 108 16.155 111.525C19.23 112.965 23.88 115.23 26.22 116.385C26.73 117.12 27.27 117.84 27.81 118.545C21.315 116.82 12.855 118.275 12.855 118.275C12.855 118.275 21.15 127.71 29.31 128.955C32.325 129.42 36.765 130.17 39.48 130.635C43.53 133.95 47.925 136.785 52.545 139.05C54.195 138.99 55.83 138.96 57.48 138.945C51.84 136.575 46.5 133.38 41.595 129.525C41.865 127.17 42.18 121.935 40.305 118.605V118.65Z" fill="white"/>
<path d="M307.425 118.65C309.795 114.45 315.555 111.24 315.555 111.24C315.555 111.24 314.685 116.1 314.37 119.115C314.265 120.105 313.92 121.14 313.425 122.145C314.235 121.455 315.09 120.81 315.99 120.255C317.34 118.725 318.615 117.135 319.83 115.485C318.9 113.25 317.235 108.48 318.105 104.835C319.23 100.155 323.88 95.43 323.88 95.43C323.88 95.43 324.39 100.305 324.915 103.29C325.08 104.265 325.035 105.345 324.84 106.455C325.455 105.54 326.13 104.655 326.85 103.845C327.72 102.03 328.5 100.185 329.205 98.31C327.705 96.465 324.72 92.355 324.555 88.59C324.345 83.805 327.525 77.97 327.525 77.97C327.525 77.97 329.37 82.485 330.705 85.17C331.14 86.055 331.395 87.105 331.515 88.215C331.8 87.315 332.145 86.415 332.55 85.545C332.91 83.37 333.18 81.225 333.39 79.125C331.395 77.76 327.48 74.73 326.295 71.235C324.765 66.72 326.205 60.24 326.205 60.24C326.205 60.24 329.235 64.02 331.275 66.21C331.935 66.93 332.475 67.86 332.895 68.88C332.94 67.59 333.06 66.3 333.33 65.055C333.375 64.83 333.435 64.62 333.495 64.395C333.36 62.88 333.165 61.395 332.925 59.925C331.14 59.415 325.905 57.675 323.655 54.495C321.06 50.82 320.67 44.535 320.67 44.535C320.67 44.535 324.45 47.145 326.895 48.57C327.69 49.035 328.425 49.74 329.1 50.55C328.8 49.38 328.575 48.165 328.485 46.965C328.44 46.335 328.455 45.69 328.515 45.015C328.14 44.19 327.75 43.365 327.345 42.555C327.285 42.495 327.195 42.42 327.105 42.345C325.77 42.375 320.13 42.36 317.1 40.005C313.83 37.44 311.865 31.98 311.865 31.98C311.865 31.98 315.915 33.285 318.48 33.9C319.32 34.11 320.16 34.53 320.955 35.07C320.385 34.11 319.875 33.09 319.485 32.055C319.245 31.41 319.065 30.705 318.945 29.985C318.15 29.04 317.31 28.11 316.455 27.195C315.015 27.645 310.605 28.815 307.65 27.675C304.245 26.355 301.26 22.26 301.26 22.26C301.26 22.26 305.01 22.335 307.32 22.215C308.085 22.17 308.895 22.32 309.705 22.575C308.985 21.915 308.31 21.195 307.725 20.415C304.335 15.885 304.74 6.33 304.74 6.33C304.74 6.33 312.675 11.625 314.415 17.82C315.165 20.49 316.38 24.585 316.92 26.415C317.55 27.06 318.165 27.72 318.765 28.38C318.375 22.53 320.685 15.585 320.685 15.585C320.685 15.585 327.645 23.985 327.555 31.365C327.525 34.32 327.555 38.775 327.555 41.145C327.96 41.91 328.35 42.69 328.71 43.47C329.895 37.095 334.62 30.21 334.62 30.21C334.62 30.21 339.27 41.085 336.975 48.735C336 51.99 334.575 57.045 333.93 59.34C334.095 60.21 334.26 61.08 334.395 61.965C337.35 55.725 344.37 49.92 344.37 49.92C344.37 49.92 345.855 62.34 341.325 69.405C339.285 72.585 336.18 77.61 334.98 79.56C334.905 80.415 334.815 81.27 334.71 82.125C339.225 76.845 347.73 73.185 347.73 73.185C347.73 73.185 345.705 85.59 339.42 91.11C336.645 93.555 332.37 97.44 330.63 99.03C330.33 99.84 330.015 100.635 329.7 101.43C335.475 97.695 344.49 96.615 344.49 96.615C344.49 96.615 339.105 108 331.575 111.525C328.5 112.965 323.85 115.23 321.51 116.385C321 117.12 320.46 117.84 319.92 118.545C326.415 116.82 334.875 118.275 334.875 118.275C334.875 118.275 326.58 127.71 318.42 128.955C315.405 129.42 310.965 130.17 308.25 130.635C304.2 133.95 299.805 136.785 295.185 139.05C293.535 138.99 291.9 138.96 290.25 138.945C295.89 136.575 301.23 133.38 306.135 129.525C305.865 127.17 305.55 121.935 307.425 118.605V118.65Z" fill="white"/>
<path d="M168 44.55L167.055 56.265C167.955 57.885 168.48 59.085 168.615 59.85C168.75 60.615 168.57 61.245 168.075 61.74C167.355 62.595 166.455 62.91 165.36 62.685C164.28 62.505 163.215 62.055 162.18 61.335C161.19 60.615 160.26 59.73 159.405 58.695C157.56 56.49 155.97 53.73 154.665 50.43C150.735 55.395 146.04 59.295 140.58 62.145L139.77 61.395C145.05 57.645 149.475 52.41 153.045 45.69C151.11 39.015 149.775 29.355 149.055 16.71H136.26V27.345H147.03V29.985C146.985 37.755 146.76 43.23 146.355 46.44C145.995 49.65 145.275 51.765 144.195 52.8C142.62 54.24 140.745 54.96 138.57 54.96C138.57 52.845 138.27 51.48 137.685 50.895C137.1 50.175 135.975 49.635 134.295 49.275V48.735C132.54 54.645 129.465 59.46 125.085 63.15L124.2 62.475C126.855 58.365 128.58 53.805 129.345 48.795C130.155 43.785 130.56 37.875 130.56 31.05V14.295C130.38 14.88 129.795 15.18 128.805 15.18H105.375L104.835 13.29H121.02L124.47 8.82001C126.945 10.845 128.985 12.585 130.56 14.04V14.79H148.905C148.635 8.74501 148.455 3.96001 148.365 0.435013L154.59 1.38001C154.635 3.94501 154.68 6.52501 154.725 9.10501C154.77 11.64 154.785 13.53 154.785 14.79H158.37L161.76 10.725C161.4 10.545 161.13 10.38 160.95 10.245C160.725 9.03001 160.185 7.72501 159.33 6.31501C158.475 4.92001 157.575 3.79501 156.615 2.92501L157.29 2.44501C162.12 3.12001 164.985 4.66501 165.885 7.05001C166.38 8.44501 166.095 9.60001 165 10.5C164.235 11.04 163.38 11.205 162.42 10.98C164.85 12.825 166.8 14.385 168.24 15.645C168.06 16.365 167.445 16.725 166.41 16.725H154.83C155.145 24.9 155.775 31.71 156.72 37.17C158.34 32.475 159.57 27.465 160.38 22.14L165.66 24.645C164.085 32.595 161.715 39.27 158.55 44.685C159.72 48.3 161.13 51.09 162.75 53.085C163.155 53.625 163.47 53.895 163.695 53.895C163.92 53.85 164.175 53.49 164.445 52.815C165.21 51.105 166.14 48.33 167.22 44.49L167.97 44.565L168 44.55ZM126.09 42.525V57.63C126.045 57.9 125.46 58.26 124.335 58.71C123.255 59.16 122.265 59.385 121.35 59.385H120.405V56.07H113.16V60.675C113.16 60.99 112.62 61.38 111.54 61.83C110.505 62.28 109.41 62.505 108.285 62.505H107.535V39.75H126.09V42.525ZM126.84 6.84001H108.225L107.745 4.87501H126.84V6.84001ZM127.11 22.08V23.97H108.225L107.745 22.08H127.11ZM108.225 32.91L107.745 30.945H127.11V32.91H108.225ZM113.175 54.105H120.42V41.715H113.175V54.105ZM142.08 29.325H136.26V31.02C136.26 38.1 135.645 43.845 134.43 48.225C136.005 48.36 137.55 48.42 139.035 48.42C139.89 48.42 140.46 48.27 140.73 47.94C141.18 47.4 141.495 45.795 141.675 43.14C141.855 40.425 141.99 35.82 142.08 29.325Z" fill="white"/>
<path d="M196.02 0.210007L202.785 3.12001C200.805 9.21001 198.945 14.49 197.235 18.96V61.14C197.19 61.32 196.92 61.545 196.425 61.815C195.93 62.13 195.255 62.4 194.4 62.625C193.59 62.895 192.795 63.03 192.03 63.03H190.815V27.225C188.235 30.795 185.535 33.885 182.685 36.495L181.8 35.88C184.605 31.41 187.29 25.95 189.855 19.5C192.48 13.05 194.52 6.61501 196.02 0.195007V0.210007ZM246.195 14.7V16.665H203.07L202.53 14.7H246.21H246.195ZM241.995 23.7V25.665H207.39L206.85 23.7H241.995ZM207.39 34.74L206.85 32.85H241.995V34.74H207.39ZM232.98 41.775H240.09V60.6C240.045 60.87 239.37 61.23 238.065 61.68C236.805 62.175 235.665 62.43 234.675 62.43H233.595V57.9H213.555V60.81C213.555 61.17 212.94 61.575 211.725 62.025C210.555 62.52 209.355 62.775 208.14 62.775H207.195V41.79H232.995L232.98 41.775ZM240.3 7.30501H208.47L207.93 5.34001H240.3V7.30501ZM213.555 55.92H233.595V43.665H213.555V55.92Z" fill="white"/>
<path d="M110.1 92.925V100.8C111.135 101.895 112.335 102.615 113.67 102.945C115.02 103.275 117.135 103.44 120.06 103.44C125.655 103.44 129.72 103.395 132.255 103.32V103.71C131.07 103.95 130.425 104.76 130.305 106.125H120.105C117.135 106.125 114.915 105.81 113.475 105.18C112.035 104.55 110.775 103.275 109.725 101.37C108.525 102.96 107.145 104.52 105.6 106.08C105.645 106.365 105.51 106.605 105.21 106.785L103.5 103.515C104.46 103.125 105.765 102.525 107.415 101.715V92.55H103.755L103.575 91.665H110.145V92.955L110.1 92.925ZM104.085 79.575L104.355 79.365C107.205 80.055 109.005 81.195 109.77 82.755C110.22 83.685 110.19 84.48 109.68 85.14C109.185 85.755 108.555 85.86 107.76 85.47C107.64 85.41 107.505 85.335 107.355 85.23C107.175 84.315 106.77 83.325 106.14 82.26C105.51 81.195 104.82 80.31 104.1 79.575H104.085ZM111.57 82.965L111.33 82.08H119.79V78.39L122.595 78.78V82.08H131.61V82.965H122.595V85.71H129.375V95.34C129.36 95.46 129.06 95.64 128.49 95.865C127.92 96.09 127.425 96.195 126.99 96.195H126.495V94.935H122.58V98.325H132.045V99.21H122.58V101.745C122.58 101.91 122.325 102.105 121.815 102.36C121.305 102.585 120.795 102.69 120.285 102.69H119.76V99.21H111.12L110.88 98.325H119.775V94.935H115.95V95.76C115.95 95.925 115.68 96.12 115.155 96.345C114.63 96.57 114.09 96.675 113.565 96.675H113.175V85.71H119.775V82.965H111.555H111.57ZM119.79 86.595H115.965V89.775H119.79V86.595ZM115.965 94.05H119.79V90.66H115.965V94.05ZM126.51 86.595H122.595V89.775H126.51V86.595ZM122.595 94.05H126.51V90.66H122.595V94.05Z" fill="white"/>
<path d="M163.036 86.115H165.871V92.01C165.856 92.115 165.616 92.25 165.166 92.445C164.716 92.61 164.296 92.715 163.906 92.745L165.616 94.035C165.391 94.305 165.061 94.47 164.611 94.56V102.135C164.596 102.255 164.296 102.42 163.726 102.63C163.156 102.84 162.661 102.93 162.226 102.93H161.731V101.925H153.541V102.51C153.541 102.585 153.436 102.705 153.211 102.84C152.986 102.975 152.686 103.11 152.296 103.23C151.936 103.335 151.561 103.38 151.201 103.38H150.811V92.715C150.511 92.79 150.196 92.85 149.896 92.895C149.971 93.675 149.746 94.215 149.221 94.515C148.711 94.815 148.171 94.71 147.601 94.185C147.541 93.6 147.391 92.925 147.166 92.175L145.486 92.67V106.05C145.486 106.125 145.396 106.23 145.216 106.32C145.051 106.44 144.796 106.56 144.451 106.65C144.106 106.755 143.731 106.8 143.356 106.8H142.891V97.08C142.726 97.245 142.456 97.35 142.066 97.38C141.226 100.41 140.116 102.75 138.736 104.4L138.241 104.16C139.021 101.925 139.516 99.195 139.771 95.97L142.891 96.585V93.375C141.241 93.81 140.341 94.035 140.176 94.08C140.011 94.425 139.741 94.635 139.381 94.725L138.316 91.83C139.006 91.83 139.951 91.8 141.151 91.74C142.921 88.53 144.466 85.29 145.771 82.05L148.216 83.43C146.581 86.235 144.571 88.995 142.171 91.71C143.011 91.665 144.586 91.59 146.911 91.47C146.626 90.735 146.236 89.925 145.726 89.055L146.056 88.935C147.616 89.64 148.741 90.51 149.386 91.53V86.13H163.036V86.115ZM142.561 78.39L145.216 79.71C143.911 81.945 142.711 83.625 141.616 84.75C142.591 85.53 142.966 86.325 142.711 87.165C142.546 87.78 142.171 88.095 141.586 88.11C141.241 88.125 140.881 88.005 140.521 87.735C140.356 86.385 139.621 85.02 138.286 83.61L138.586 83.4C139.501 83.64 140.266 83.925 140.881 84.255C141.496 82.44 142.051 80.49 142.561 78.39ZM146.041 95.895L146.401 95.775C148.441 96.99 149.551 98.355 149.731 99.84C149.851 100.755 149.626 101.4 149.026 101.76C148.471 102.09 147.931 101.97 147.376 101.385C147.376 99.825 146.926 97.98 146.026 95.88L146.041 95.895ZM147.991 106.83L147.721 106.395C149.026 105.93 150.331 105.285 151.666 104.475C153.016 103.68 154.051 102.915 154.786 102.18L156.586 104.16C154.426 105.48 151.561 106.365 148.006 106.815L147.991 106.83ZM149.086 81.84L148.846 80.955H156.211V78.57L159.016 78.9V80.955H166.861V81.84H159.016V83.7H165.856V84.585H150.616L150.376 83.7H156.211V81.84H149.086ZM162.796 91.92L163.261 92.25V91.545H151.891V92.1C151.891 92.175 151.756 92.295 151.501 92.43L153.706 93.315H161.461L162.811 91.905L162.796 91.92ZM158.371 87H156.841C156.691 87.795 156.286 88.44 155.611 88.95C154.936 89.46 153.781 89.88 152.131 90.195L151.891 89.925V90.66H163.261V89.565C162.811 89.625 162.151 89.655 161.281 89.655H160.096C159.376 89.655 158.911 89.55 158.686 89.355C158.476 89.13 158.386 88.725 158.386 88.125V87H158.371ZM154.711 87H151.906V89.685C152.911 89.355 153.601 88.98 153.976 88.56C154.381 88.125 154.621 87.615 154.711 87ZM153.556 95.865H161.746V94.215H153.556V95.865ZM153.556 96.75V98.4H161.746V96.75H153.556ZM153.556 101.025H161.746V99.285H153.556V101.025ZM158.506 103.17L158.656 102.705C162.916 102.945 165.451 103.68 166.291 104.88C166.696 105.465 166.606 105.975 166.021 106.41C165.436 106.875 164.776 106.95 164.071 106.62C163.891 106.545 163.726 106.425 163.576 106.29C162.421 104.985 160.726 103.95 158.506 103.17ZM163.276 87.015H160.276V87.84C160.276 87.975 160.291 88.08 160.336 88.14C160.396 88.185 160.516 88.2 160.696 88.2H162.256C162.466 88.2 162.586 88.2 162.616 88.17C162.736 88.17 162.901 88.155 163.111 88.11L163.261 87.015H163.276Z" fill="white"/>
<path d="M182.746 102.615L187.291 103.23V104.205H174.646V103.23L179.356 102.615C179.401 100.17 179.416 98.34 179.416 97.11V83.88L175.141 84.27V83.115L182.356 81.345L182.791 81.675L182.701 86.535V97.11C182.701 98.295 182.716 100.125 182.761 102.615H182.746Z" fill="white"/>
<path d="M198.72 84.555L198.33 90.855C199.425 90.51 200.625 90.33 201.93 90.33C204.255 90.33 206.085 90.945 207.45 92.175C208.8 93.405 209.475 95.13 209.475 97.35C209.475 99.57 208.725 101.34 207.24 102.66C205.755 103.98 203.805 104.64 201.375 104.64C199.56 104.64 198.105 104.22 196.995 103.395C195.885 102.555 195.195 101.37 194.94 99.825C195.21 99.075 195.75 98.7 196.59 98.7C197.1 98.7 197.49 98.865 197.775 99.195C198.06 99.525 198.3 100.08 198.48 100.875L199.005 103.17C199.635 103.35 200.31 103.44 201.015 103.44C202.605 103.44 203.835 102.915 204.72 101.88C205.605 100.845 206.055 99.405 206.055 97.575C206.055 95.745 205.59 94.455 204.66 93.48C203.73 92.505 202.485 92.01 200.925 92.01C199.845 92.01 198.765 92.19 197.685 92.535L196.8 92.205L197.505 81.69H208.815V84.555H198.735H198.72Z" fill="white"/>
<path d="M244.606 97.995V98.88H233.671V105.9C233.671 105.975 233.566 106.08 233.371 106.2C233.191 106.35 232.876 106.47 232.456 106.575C232.021 106.695 231.571 106.755 231.076 106.755H230.521V98.88H216.496L216.226 97.995H221.506V89.835H230.521V84H224.296C222.031 87.06 219.421 89.475 216.481 91.275L216.121 90.975C217.561 89.475 218.986 87.555 220.366 85.23C221.746 82.89 222.871 80.46 223.726 77.955L226.726 79.605C226.231 80.895 225.631 82.065 224.926 83.115H243.676V84H233.686V89.835H242.701V90.72H233.686V97.995H244.621H244.606ZM224.566 97.995H230.521V90.72H224.566V97.995Z" fill="white"/>
<path d="M99.6455 131.055H88.9805C90.3305 132.54 92.1005 133.86 94.3205 135C96.5555 136.125 98.8655 136.92 101.221 137.385L101.161 137.715C99.9605 138 99.1805 138.87 98.8055 140.31C94.0955 138.555 90.5855 135.54 88.2605 131.235V140.04C88.2605 140.205 87.9905 140.37 87.4655 140.565C86.9555 140.745 86.4305 140.835 85.9055 140.835H85.3505V133.14C82.3805 136.14 78.3455 138.465 73.2605 140.13L73.0205 139.695C75.0755 138.66 76.9805 137.37 78.7355 135.84C80.5055 134.31 81.9755 132.72 83.1305 131.04H75.0905L74.8505 130.155H85.3655V125.94L88.2605 126.3V130.155H99.6305V131.04L99.6455 131.055ZM95.7605 125.16H77.9855C77.8655 126.96 77.2055 128.205 76.0355 128.91C75.6005 129.21 75.1205 129.33 74.5655 129.24C74.0105 129.15 73.6505 128.88 73.4705 128.415C73.1855 127.605 73.5155 126.93 74.4755 126.405C75.1205 126.105 75.7355 125.595 76.2755 124.875C76.8455 124.155 77.1755 123.405 77.2505 122.58H77.7455C77.8655 123.045 77.9555 123.615 77.9855 124.26H95.7005L97.0505 122.91C96.2405 121.62 94.8455 120.345 92.8955 119.055C91.6955 120.78 89.2655 122.13 85.5905 123.09L85.2905 122.655C85.9805 122.385 86.6105 122.1 87.1505 121.8C87.7205 121.47 88.2155 121.185 88.6205 120.915C89.0555 120.63 89.4155 120.285 89.7155 119.88C90.0455 119.475 90.3005 119.13 90.5105 118.875C90.7355 118.59 90.9155 118.2 91.0655 117.72C91.2005 117.21 91.3055 116.82 91.3655 116.565C91.4405 116.28 91.5005 115.845 91.5455 115.245C91.5905 114.63 91.6055 114.195 91.6055 113.925C91.6205 113.64 91.6355 113.145 91.6355 112.455L94.2605 112.755C94.1405 115.425 93.8255 117.27 93.3455 118.29C96.0605 118.68 97.8005 119.52 98.5955 120.825C99.0455 121.575 99.0455 122.205 98.5955 122.685C98.4305 122.865 98.2055 122.985 97.9205 123.015L99.2105 125.37C98.0255 126.57 96.5555 127.605 94.7855 128.46L94.4855 128.25C94.8755 127.515 95.2955 126.48 95.7755 125.13L95.7605 125.16ZM79.7255 112.485L82.2305 112.785C82.1105 115.365 81.8705 117.12 81.5255 118.035C83.7305 118.365 85.0805 119.085 85.5905 120.21C85.8905 120.885 85.8155 121.425 85.3505 121.83C84.9005 122.235 84.3455 122.25 83.6705 121.86C83.2805 120.78 82.4705 119.73 81.2255 118.71C80.2055 120.72 77.8205 122.265 74.0405 123.33L73.7405 122.895C74.5505 122.55 75.2705 122.19 75.9155 121.8C76.5455 121.395 77.0705 120.99 77.4755 120.615C77.9105 120.225 78.2555 119.775 78.5405 119.265C78.8255 118.74 79.0355 118.26 79.1855 117.825C79.3505 117.39 79.4705 116.865 79.5455 116.235C79.6205 115.605 79.6805 115.05 79.6955 114.585C79.7105 114.09 79.7255 113.475 79.7255 112.725V112.485ZM76.8905 113.925L77.4455 113.955C77.7455 115.275 77.7905 116.37 77.5655 117.225C77.3405 118.08 76.9505 118.695 76.4105 119.085C76.1105 119.355 75.7205 119.475 75.2855 119.46C74.8505 119.445 74.5655 119.265 74.4005 118.935C74.1305 118.35 74.3855 117.81 75.1355 117.315C75.6005 117.045 76.0205 116.595 76.3955 115.935C76.7555 115.26 76.9355 114.585 76.9205 113.925H76.8905ZM82.8455 117.87L82.4105 117.54C82.9205 116.82 83.6105 115.62 84.4955 113.91L85.9355 115.26C84.8705 116.445 83.8505 117.315 82.8455 117.885V117.87ZM88.9505 113.955H89.5055C89.8055 115.32 89.8355 116.415 89.5655 117.255C89.3255 118.095 88.9205 118.695 88.3505 119.055C88.0055 119.295 87.6155 119.415 87.1955 119.385C86.7605 119.34 86.4755 119.16 86.3405 118.83C86.0705 118.215 86.3405 117.705 87.1055 117.27C87.6005 117 88.0205 116.55 88.3955 115.92C88.7855 115.275 88.9805 114.6 88.9805 113.94L88.9505 113.955ZM95.0555 118.17L94.6655 117.795C95.3555 116.88 96.1655 115.56 97.0805 113.85L98.7905 115.5C97.5905 116.64 96.3455 117.525 95.0705 118.155L95.0555 118.17Z" fill="white"/>
<path d="M113.88 112.47L116.385 114.27C115.515 115.875 114.495 117.315 113.325 118.575C114.825 121.125 115.635 124.62 115.74 129.09C115.86 134.205 115.29 137.67 114.03 139.5C113.385 140.37 112.2 140.82 110.52 140.82C110.52 139.89 110.34 139.215 109.995 138.84C109.59 138.45 108.93 138.165 108.015 137.955V137.46C109.365 137.58 110.385 137.64 111.105 137.64C111.54 137.64 111.84 137.505 112.02 137.25C112.755 136.17 113.115 133.455 113.115 129.09V127.8C111.645 129.675 109.8 131.28 107.55 132.63L107.25 132.33C108.465 131.01 109.545 129.48 110.49 127.755C111.45 126 112.14 124.275 112.56 122.565C112.395 121.635 112.17 120.795 111.885 120.06C110.565 121.32 109.2 122.385 107.79 123.27L107.46 122.97C108.765 121.605 109.98 120 111.09 118.14C110.34 116.655 109.32 115.26 108.03 113.955L108.42 113.625C109.785 114.525 110.955 115.545 111.93 116.685C112.77 115.155 113.4 113.76 113.85 112.5L113.88 112.47ZM117 116.505L116.79 115.62H121.335V112.53L123.87 112.86V115.605H127.995V112.515L130.59 112.845V115.59H136.125V116.475H130.59V117.915C130.59 117.915 130.545 118.05 130.44 118.125C130.335 118.185 130.17 118.26 129.915 118.335C129.69 118.41 129.42 118.47 129.09 118.485C128.91 118.845 128.55 119.04 128.025 119.07C127.455 119.58 126.825 120.105 126.135 120.63H135.18V121.515H128.055V123.57H134.505V124.455H128.055V126.525H134.445V127.38H128.055V129.495H135.84V130.38H121.14V130.77C121.14 130.845 121.065 130.95 120.9 131.07C120.735 131.19 120.48 131.31 120.135 131.43C119.79 131.535 119.415 131.58 119.01 131.58H118.545V123.12C117.69 123.855 116.79 124.47 115.86 124.98L115.56 124.62C116.43 123.72 117.255 122.595 118.005 121.23C118.785 119.85 119.355 118.545 119.745 117.315L121.335 117.9V116.46H117V116.505ZM132.885 132.27V133.59C131.76 134.955 130.47 136.095 129 137.01C131.145 137.565 133.56 137.91 136.275 138.075V138.405C135.18 138.705 134.49 139.56 134.235 140.94C131.04 140.355 128.385 139.5 126.285 138.405C123.39 139.665 119.865 140.49 115.71 140.88L115.56 140.415C118.98 139.725 121.95 138.69 124.485 137.325C122.835 136.185 121.545 134.79 120.6 133.14H117.735L117.465 132.255H132.885V132.27ZM123.87 116.505V118.065C123.87 118.275 123.54 118.425 122.895 118.56L123.165 118.65C123 118.95 122.64 119.1 122.07 119.085C121.86 119.43 121.545 119.895 121.095 120.495L124.95 120.675C125.235 119.46 125.415 118.47 125.505 117.705L128.01 118.23V116.52H123.885L123.87 116.505ZM125.46 123.6V121.545H121.155V123.6H125.46ZM125.46 126.57V124.5H121.155V126.57H125.46ZM125.46 129.54V127.425H121.155V129.54H125.46ZM129.525 133.17H121.455C122.58 134.355 124.2 135.36 126.345 136.2C127.65 135.3 128.7 134.295 129.525 133.17Z" fill="white"/>
<path d="M170.731 132.48L170.296 137.76C170.701 138.495 170.941 139.035 171.001 139.38C171.061 139.725 170.986 140.01 170.761 140.235C170.431 140.625 170.026 140.76 169.546 140.67C169.051 140.595 168.586 140.385 168.106 140.055C167.656 139.725 167.236 139.335 166.846 138.87C166.006 137.865 165.301 136.635 164.701 135.15C162.931 137.385 160.816 139.155 158.341 140.43L157.981 140.1C160.366 138.405 162.361 136.05 163.966 133.02C163.096 130.005 162.496 125.655 162.166 119.94H156.391V124.74H161.251V125.925C161.236 129.42 161.131 131.895 160.951 133.35C160.786 134.79 160.456 135.75 159.976 136.23C159.256 136.875 158.416 137.205 157.441 137.205C157.441 136.245 157.306 135.645 157.051 135.375C156.781 135.045 156.271 134.805 155.521 134.64V134.4C154.726 137.07 153.346 139.23 151.366 140.91L150.976 140.61C152.176 138.75 152.956 136.695 153.301 134.445C153.661 132.18 153.856 129.51 153.856 126.435V118.86C153.781 119.13 153.511 119.265 153.061 119.265H142.486L142.246 118.41H149.551L151.111 116.4C152.236 117.315 153.151 118.095 153.856 118.755V119.085H162.136C162.016 116.355 161.926 114.195 161.896 112.605L164.701 113.04C164.716 114.195 164.746 115.365 164.761 116.52C164.776 117.66 164.791 118.515 164.791 119.085H166.411L167.941 117.255C167.776 117.18 167.656 117.105 167.581 117.045C167.476 116.49 167.236 115.905 166.846 115.275C166.456 114.645 166.051 114.135 165.631 113.745L165.931 113.535C168.106 113.835 169.396 114.54 169.816 115.605C170.041 116.235 169.906 116.76 169.411 117.165C169.066 117.405 168.676 117.48 168.256 117.375C169.351 118.215 170.236 118.905 170.881 119.49C170.806 119.82 170.521 119.985 170.056 119.985H164.836C164.971 123.675 165.271 126.75 165.691 129.21C166.426 127.095 166.981 124.83 167.341 122.43L169.726 123.555C169.006 127.14 167.941 130.155 166.516 132.6C167.041 134.235 167.671 135.495 168.406 136.395C168.586 136.635 168.736 136.755 168.841 136.755C168.946 136.74 169.051 136.575 169.171 136.26C169.516 135.48 169.936 134.235 170.416 132.51L170.746 132.54L170.731 132.48ZM151.816 131.565V138.375C151.801 138.495 151.531 138.66 151.021 138.87C150.526 139.08 150.091 139.17 149.671 139.17H149.236V137.67H145.966V139.74C145.966 139.875 145.726 140.055 145.231 140.265C144.766 140.475 144.271 140.565 143.761 140.565H143.431V130.305H151.801V131.55L151.816 131.565ZM152.146 115.47H143.746L143.536 114.585H152.146V115.47ZM152.266 122.34V123.195H143.746L143.536 122.34H152.266ZM143.746 127.23L143.536 126.345H152.266V127.23H143.746ZM145.981 136.8H149.251V131.205H145.981V136.8ZM159.031 125.625H156.406V126.39C156.406 129.585 156.136 132.18 155.581 134.145C156.301 134.205 156.991 134.235 157.651 134.235C158.041 134.235 158.296 134.16 158.416 134.025C158.626 133.785 158.761 133.065 158.851 131.85C158.926 130.62 158.986 128.55 159.031 125.61V125.625Z" fill="white"/>
<path d="M183.39 112.47L186.45 113.79C185.55 116.535 184.725 118.92 183.945 120.945V139.98C183.93 140.055 183.81 140.16 183.585 140.28C183.36 140.43 183.06 140.55 182.67 140.655C182.31 140.775 181.95 140.835 181.605 140.835H181.05V124.68C179.895 126.285 178.665 127.68 177.39 128.865L177 128.595C178.26 126.585 179.475 124.11 180.63 121.2C181.815 118.29 182.745 115.38 183.405 112.5L183.39 112.47ZM206.025 119.01V119.895H186.57L186.33 119.01H206.04H206.025ZM204.135 123.075V123.96H188.52L188.28 123.075H204.135ZM188.52 128.055L188.28 127.2H204.135V128.055H188.52ZM200.07 131.235H203.28V139.725C203.265 139.845 202.95 140.01 202.365 140.22C201.795 140.445 201.285 140.55 200.835 140.55H200.34V138.51H191.295V139.83C191.295 139.995 191.025 140.175 190.47 140.385C189.945 140.61 189.405 140.715 188.85 140.715H188.415V131.25H200.055L200.07 131.235ZM203.37 115.68H189.015L188.775 114.795H203.37V115.68ZM191.31 137.61H200.355V132.075H191.31V137.61Z" fill="white"/>
<path d="M221.386 124.02V125.31C220.831 129.225 219.901 132.33 218.581 134.655C219.961 135.75 221.671 136.5 223.711 136.89C225.751 137.25 228.421 137.445 231.721 137.445C236.161 137.445 239.131 137.445 240.616 137.415V137.805C239.476 138.045 238.861 138.87 238.786 140.28H231.511C227.986 140.28 225.151 139.98 222.991 139.395C220.831 138.81 219.046 137.715 217.651 136.125C216.286 138.045 214.471 139.62 212.221 140.865L211.951 140.43C213.871 138.885 215.356 136.89 216.436 134.445C215.401 132.75 214.546 130.56 213.901 127.845L214.291 127.665C215.011 129.87 215.896 131.655 216.976 133.035C217.756 130.8 218.281 128.085 218.566 124.905H216.061C215.956 125.085 215.821 125.355 215.671 125.7C215.521 126.03 215.416 126.255 215.341 126.405C214.591 126.615 213.721 126.525 212.746 126.165C214.156 123.165 215.581 119.775 217.051 115.965H212.536L212.266 115.08H219.811V116.52C218.836 118.845 217.726 121.35 216.481 124.035H221.431L221.386 124.02ZM241.006 119.775V120.66H236.881V124.965C236.866 125.085 236.581 125.25 236.026 125.46C235.501 125.64 235.036 125.73 234.616 125.73H234.181V124.695H230.611V127.845H238.591V128.73H230.611V131.94H239.776V132.825H230.611V135.945C230.611 136.08 230.356 136.26 229.846 136.47C229.351 136.65 228.871 136.74 228.376 136.74H227.791V132.825H221.011L220.771 131.94H227.791V128.73H222.286L222.046 127.845H227.791V124.695H222.691L222.421 123.81H227.791V120.66H220.516L220.276 119.775H227.791V116.685H222.721L222.451 115.8H227.791V112.5L230.596 112.89V115.785H236.851V119.76H240.976L241.006 119.775ZM230.626 116.685V119.775H234.196V116.685H230.626ZM234.196 123.81V120.66H230.626V123.81H234.196Z" fill="white"/>
<path d="M275.28 116.445V117.33H265.2L267.705 118.125C266.775 119.625 265.815 120.81 264.84 121.665H273.36V137.28C273.36 138.405 273.12 139.23 272.625 139.755C272.13 140.31 271.08 140.655 269.445 140.82C269.34 139.845 269.115 139.185 268.77 138.84C268.245 138.33 267.39 138 266.235 137.865V137.4C268.17 137.535 269.355 137.61 269.805 137.61C270.255 137.61 270.48 137.4 270.48 136.995V122.55H264.705V125.115C264.705 125.415 264.72 125.61 264.765 125.67C264.825 125.73 264.975 125.76 265.23 125.76H267.645C267.93 125.76 268.11 125.685 268.2 125.55C268.335 125.355 268.545 124.755 268.815 123.78H269.205L269.265 125.49C269.625 125.655 269.85 125.79 269.94 125.88C270.015 125.955 270.06 126.105 270.06 126.315C270.06 127.32 269.235 127.815 267.585 127.815H264.9C263.805 127.815 263.085 127.635 262.755 127.29C262.425 126.945 262.26 126.195 262.26 125.025V122.55H259.665C259.23 124.32 258.435 125.745 257.25 126.825C256.065 127.905 254.445 128.745 252.39 129.36L252.24 128.925C254.91 127.545 256.455 125.415 256.89 122.535H251.82V139.86C251.82 140.04 251.55 140.25 251.025 140.475C250.515 140.715 249.975 140.85 249.405 140.85H248.94V121.665H256.485C256.365 121.62 256.215 121.53 256.05 121.395C255.9 120.045 255.36 118.755 254.4 117.48L254.64 117.33H247.185L246.945 116.445H259.53V112.56L262.455 112.89V116.43H275.25L275.28 116.445ZM257.955 121.665H263.55C264.105 120.06 264.495 118.605 264.735 117.33H254.835C255.69 117.54 256.41 117.795 256.98 118.125C257.565 118.425 257.985 118.755 258.24 119.1C258.48 119.445 258.63 119.79 258.675 120.135C258.735 120.465 258.69 120.765 258.555 121.05C258.435 121.32 258.24 121.515 257.97 121.665H257.955ZM266.565 130.68V136.905C266.55 137.01 266.265 137.145 265.74 137.34C265.23 137.505 264.78 137.58 264.36 137.58H263.925V135.87H258.15V137.16C258.15 137.31 257.895 137.475 257.385 137.685C256.89 137.895 256.41 137.985 255.915 137.985H255.555V129.495H266.55V130.68H266.565ZM258.165 134.985H263.94V130.365H258.165V134.985Z" fill="white"/>
</svg>
