<svg width="1067" height="120" viewBox="0 0 1067 120" fill="none" xmlns="http://www.w3.org/2000/svg">
<path d="M81.885 36.855C78.18 33.405 74.37 30.075 70.785 27.105L84.72 16.26C97.05 25.755 112.47 39.45 119.25 49.92L103.83 62.37C102.225 59.535 99.885 56.325 97.05 52.995C64.62 54.6 31.065 55.95 9 56.7C8.625 58.05 7.395 58.68 6.165 58.8L0 38.82L21.465 38.445C28.86 27.345 36.63 12.795 41.19 0.585022L63.39 8.73001C62.775 9.96001 61.17 10.575 59.07 10.575C54.87 19.2 48.84 29.19 42.795 37.95L81.885 36.84V36.855ZM18.255 118.98V64.725H100.755V118.5H81.885V115.29H36.255V118.995H18.255V118.98ZM81.885 81.855H36.255V97.89H81.885V81.855Z" fill="white"/>
<path d="M140.446 35.625C146.611 38.46 154.876 43.155 158.941 46.845L148.576 60.54C145.006 56.835 136.861 51.42 130.696 48.09L140.446 35.64V35.625ZM143.041 3.55503C149.206 6.64503 157.351 11.7 161.296 15.645L150.571 29.085C147.121 25.02 139.096 19.335 132.931 15.645L143.041 3.55503ZM133.786 108.75C138.346 99 144.511 83.595 149.326 68.79L163.516 77.91C159.571 91.11 154.891 104.175 150.931 113.79C151.801 114.66 152.281 115.635 152.281 116.625C152.281 117.24 152.026 117.855 151.786 118.47L133.786 108.72V108.75ZM237.001 45.975L243.901 43.755C246.241 48.69 248.581 55.095 249.571 59.295L240.571 62.385C239.956 59.175 238.591 54.495 237.001 50.295V65.1H225.901V52.65C224.551 56.97 222.691 61.53 220.351 64.605C219.001 63.375 216.646 61.65 214.681 60.285V64.35H190.756V57.195L182.866 59.415C182.491 56.58 181.636 52.38 180.646 48.69V65.085H169.786V53.61C168.301 57.435 166.456 61.26 164.236 64.095C162.391 62.37 158.926 59.91 156.721 58.545C159.316 54.975 161.281 49.17 162.391 43.74L169.786 45.84V41.775L162.886 42.15C162.646 43.14 161.776 43.635 160.906 43.755L157.696 31.8H164.971C165.961 30.57 167.071 29.34 168.181 28.095C165.586 25.38 162.256 22.425 159.181 20.205L164.611 11.58L165.961 12.45C168.061 8.88002 170.026 4.68003 171.271 1.47003L182.251 7.63503C181.756 8.37003 180.646 8.74504 179.296 8.62504C177.811 11.22 175.591 14.79 173.251 18L174.856 19.485C176.701 16.89 178.426 14.31 179.791 12.09L187.441 16.905V13.95H216.916V16.665L220.126 11.61L221.476 12.48C223.696 8.91003 225.796 4.71004 227.146 1.50004L238.126 7.66504C237.631 8.40004 236.521 8.77502 235.171 8.65502C233.566 11.25 231.226 14.82 228.886 18.03L230.611 19.635C232.711 16.92 234.676 14.205 236.161 11.745L246.886 18.525C246.271 19.395 245.041 19.515 243.796 19.395C240.841 22.965 236.761 27.66 232.576 31.845H237.886C237.511 30.615 237.016 29.385 236.536 28.275L244.801 24.945C247.021 29.625 249.121 36.045 249.736 40.11L240.976 43.815C240.856 42.945 240.721 41.97 240.481 40.98L237.031 41.22V46.035L237.001 45.975ZM230.461 92.715L233.911 92.22L243.901 94.935C243.661 96.165 243.286 97.395 242.671 98.385C239.461 117.75 235.156 118.98 216.526 118.98C213.436 118.98 209.866 118.98 206.161 118.86C206.041 114.915 204.181 109.605 201.841 106.035C206.776 106.53 212.071 106.65 215.536 106.65C222.076 106.65 223.051 106.65 224.536 103.44H181.621L180.751 106.53L164.716 104.55C166.936 97.77 169.276 88.155 170.761 80.13H219.106V77.67H166.816V67.68H235.636V90.12H184.951L184.336 92.715H230.461ZM214.681 55.59C216.166 52.14 217.276 47.82 218.011 43.755L225.901 45.975V41.775L219.361 42.15C219.106 43.14 218.251 43.635 217.381 43.755L214.546 33.03H190.741V25.26H214.666V31.8H220.456C221.566 30.69 222.676 29.46 223.786 28.095C221.686 25.995 219.346 23.775 216.886 21.93V22.8H187.411V19.71C184.696 23.16 180.871 27.6 176.806 31.8H181.486L180.376 28.23L187.651 25.635C189.001 28.845 189.991 32.67 190.726 36V35.505H214.651V43.275H190.726V41.055L183.571 43.65C183.571 42.78 183.451 41.925 183.331 40.935L180.616 41.175V45.855L187.891 44.01C189.001 47.46 190.111 51.66 190.726 54.855V45.735H214.651V55.605L214.681 55.59ZM213.691 3.55503V11.445H191.986V3.55503H213.691ZM204.196 56.955V53.13H200.746V56.955H204.196Z" fill="white"/>
<path d="M362.67 64.23L373.65 68.175C373.275 69.285 372.78 69.66 372.165 70.395C369.45 80.76 365.01 89.76 359.1 97.155C365.025 100.605 371.685 103.2 379.32 104.925C375.615 108.135 370.935 114.675 368.715 118.86C360.705 116.52 353.67 113.07 347.505 108.75C342.195 112.95 336.285 116.4 329.625 119.115C327.78 115.29 323.955 109.5 320.745 106.05V118.995H303.6V109.005C291.39 110.355 279.675 111.72 271.41 112.455C271.17 113.685 270.18 114.3 269.19 114.435L264.375 97.665C267.33 97.545 270.795 97.425 274.605 97.17V61.905H264.24V47.85H378.06V61.905H320.715V105.075C326.025 103.23 330.945 100.635 335.265 97.425C331.2 92.49 327.87 86.94 325.035 80.775L334.41 78.18H322.935V64.74H359.805L362.64 64.245L362.67 64.23ZM361.68 5.77502V44.745H280.665V5.77502H361.68ZM303.6 61.89H290.895V64.845H303.6V61.89ZM290.895 76.935V80.265H303.6V76.935H290.895ZM290.895 96.3L303.6 95.43V92.34H290.895V96.285V96.3ZM343.68 19.965V17.01H297.81V19.965H343.68ZM343.68 33.525V30.435H297.81V33.525H343.68ZM340.11 78.165C341.715 81.24 343.815 84.09 346.155 86.79C348.255 84.075 349.98 81.24 351.585 78.165H340.11Z" fill="white"/>
<path d="M507.18 52.395H464.64C471.795 75.945 485.355 93.705 510.27 101.595C505.95 105.54 500.04 113.685 497.325 118.98C474.51 110.22 461.19 95.055 452.31 73.845C445.275 92.1 432.09 108 407.175 118.98C404.58 113.925 399.165 107.265 394.11 103.2C422.97 91.605 434.19 73.725 438.51 52.395H396.705V33.765H440.73C441.345 23.535 441.225 12.795 441.345 1.83003L464.775 3.31502C464.535 4.80002 463.29 5.77502 460.95 6.15002C460.83 15.27 460.575 24.645 460.08 33.78H507.195V52.41L507.18 52.395Z" fill="white"/>
<path d="M644.925 9.34502H670.95V24.765H644.925V28.215H660.705V55.845H572.16V28.215H586.215V24.765H560.445V9.34502H586.215V1.83003L607.68 2.94002C607.56 4.29002 606.45 5.16001 603.975 5.65501V9.36002H627.03V1.84502L648.615 2.95503C648.495 4.44003 647.505 5.17503 644.91 5.67003V9.37503L644.925 9.34502ZM561.315 82.23V59.415H670.08V82.23H652.44V72.735H617.535C616.92 73.35 615.93 73.725 614.7 73.725L612.48 76.32H636.165L639 75.705L651.09 81.375C650.715 82.245 649.98 82.605 649.245 83.1C636.795 104.31 610.395 114.54 579.93 119.235C578.325 115.05 574.755 108.39 571.92 104.685C581.04 103.815 589.92 102.225 597.945 100.005C595.845 98.655 593.625 97.41 591.525 96.555L602.13 88.05H599.04C592.875 92.37 585.6 96.435 576.6 100.005C574.38 96.18 569.445 90.255 566.115 87.675C578.82 83.73 588.195 78.555 594.48 72.75H578.085V82.245H561.315V82.23ZM596.58 44.61V39.3H587.955V44.61H596.58ZM603.12 88.02C606.825 89.505 610.89 91.725 614.1 93.945C617.67 92.22 620.88 90.24 623.715 88.02H603.12ZM627.045 28.215V24.765H603.99V28.215H627.045ZM620.265 44.61V39.3H611.385V44.61H620.265ZM644.07 44.61V39.3H635.07V44.61H644.07Z" fill="white"/>
<path d="M709.291 77.43V58.065C705.961 63.375 702.256 68.055 698.446 71.625C695.851 67.8 690.556 62.13 686.971 59.175C694.621 53.505 701.896 43.755 706.696 34.02H690.166V18.975H709.276V1.95001L729.871 3.06002C729.751 4.41002 728.761 5.16001 726.301 5.65501V18.975H742.336V34.02H726.301V37.23C731.116 40.065 742.456 47.835 745.411 50.055L736.036 64.365C733.576 61.53 729.991 57.945 726.286 54.495V77.43H709.261H709.291ZM719.401 87.795C715.951 97.785 711.016 108.39 703.366 115.545L688.321 105.06C694.981 99.39 700.531 90.51 703.486 81.51L719.401 87.795ZM739.006 98.4C739.006 101.97 739.876 102.345 744.931 102.345H757.516C761.461 102.345 762.196 101.235 762.826 93.465C766.276 96.06 773.806 98.64 778.606 99.63C776.506 114.435 771.826 118.125 759.241 118.125H742.471C725.086 118.125 721.261 113.19 721.261 98.64V83.97L737.656 84.84L733.096 81.39L744.811 72.135L747.031 73.62V7.89002H798.706V75.84H750.241C755.551 79.785 760.966 84.465 763.801 88.29L751.216 98.4C748.996 95.19 745.051 91.125 740.611 87.3L739.006 87.675V98.4ZM763.306 21.81V26.49H781.561V21.81H763.306ZM763.306 39.45V44.265H781.561V39.45H763.306ZM763.306 57.09V62.025H781.561V57.09H763.306ZM790.561 116.655C787.351 108.645 778.231 97.05 769.471 88.785L784.021 80.025C792.781 87.795 802.516 98.52 806.461 107.025L790.546 116.64L790.561 116.655Z" fill="white"/>
<path d="M935.698 97.41H920.654C926.444 101.73 933.238 106.905 936.928 110.73L923.728 118.995C919.663 114.435 910.783 106.905 904.123 101.85L911.638 97.41H893.878L901.529 101.85C901.154 102.345 900.418 102.72 899.548 102.84C895.228 108.15 885.493 115.425 877.228 118.995C874.633 116.16 869.953 111.84 866.368 109.125C863.653 119.115 854.038 119.115 843.928 119.115C843.688 114.3 842.083 107.64 839.743 103.335C842.833 103.71 845.534 103.71 847.259 103.71C848.744 103.71 849.718 103.335 850.708 101.73C852.058 99.39 852.553 89.895 852.928 63.75H846.268C844.543 84.585 840.598 104.325 830.233 118.875C827.398 114.555 822.088 109.125 817.648 106.29C829.618 89.52 830.353 63.99 830.713 36.495H819.613V19.965H837.253V1.96503L857.968 3.07501C857.848 4.42501 856.858 5.17503 854.398 5.67003V19.98H870.178V22.935C874.498 16.89 877.828 9.24002 879.553 1.72502L897.433 6.28501C897.058 7.27501 896.083 7.89002 894.343 7.77002C893.728 9.75002 892.993 11.835 892.243 13.815H935.654V28.125H884.968L883.858 29.85L899.893 30.72C899.773 31.95 898.783 32.7 896.443 33.18V38.97H908.773V29.595L928.753 30.705C928.633 31.935 927.643 32.805 925.183 33.165V38.955H934.064V52.89H925.183V83.475H935.669V97.41H935.698ZM860.474 47.595L869.233 47.85C869.233 49.2 869.233 51.18 869.113 53.025C868.738 85.215 868.378 101.115 866.518 108.525C872.563 105.93 878.969 101.625 883.544 97.425H870.103V83.49H880.333V52.905H871.828V38.97H880.333V34.41C879.343 35.64 878.233 36.75 877.123 37.74C875.518 36.135 872.804 34.17 870.224 32.31V36.495H847.529L847.154 47.595H860.474ZM908.818 52.905H896.488V55.74H908.818V52.905ZM908.818 69.555V66.6H896.488V69.555H908.818ZM896.488 80.4V83.49H908.818V80.4H896.488Z" fill="white"/>
<path d="M996.721 63.615L992.281 64.23V104.55C992.281 115.77 988.576 119.1 974.026 119.1C973.651 115.395 971.926 109.485 970.081 105.9C971.926 106.02 973.906 106.14 975.391 106.14C978.961 106.14 979.336 106.14 979.336 104.295V66.06L967.621 67.665C967.366 84.315 965.776 105.525 958.741 119.22C956.401 117.12 950.731 113.67 947.641 112.44C953.566 100.485 954.796 83.7 955.036 69.27L953.551 69.525C953.311 70.635 952.201 71.25 951.211 71.37L948.121 56.565L955.021 55.95V18.21H965.251C966.121 12.9 966.856 6.49502 967.096 1.68002L985.471 4.89002C985.096 5.88002 983.986 6.49501 982.141 6.61501C981.151 9.94501 979.801 14.265 978.436 18.21H992.251V52.365L996.316 51.99L996.691 63.585L996.721 63.615ZM975.511 34.02C977.356 38.205 978.841 43.635 979.336 47.7H979.456L979.336 31.545H967.621V36.6L975.511 34.005V34.02ZM967.621 54.855L979.336 53.745V48.81L970.216 51.9C970.096 48.45 968.986 43.395 967.621 38.955V54.87V54.855ZM979.216 69.78C979.096 70.65 978.346 71.265 976.876 71.385V97.035H969.346V69.165L979.216 69.78ZM1059.5 103.575H1066.4V116.895H993.631V103.575H1000.53V71.385H1059.48V103.575H1059.5ZM1009.68 66.825V68.55H997.711V5.91001H1032.74V17.01H1024.35V22.8H1032.24V35.385C1035.57 26.88 1037.3 14.055 1038.17 1.96503L1055.19 5.41503C1054.82 6.40503 1053.84 7.14002 1052.24 7.14002C1051.86 10.47 1051.5 13.8 1050.89 17.25H1065.93V30.57H1048.29C1046.81 36.495 1044.96 41.91 1042.62 46.23C1040.16 44.13 1035.72 41.415 1032.26 39.45V49.68H1024.37V55.47H1034.36V66.81H1009.7L1009.68 66.825ZM1013.25 17.01H1009.68V22.8H1013.25V17.01ZM1020.53 32.925H1009.68V39.585H1020.53V32.925ZM1013.25 55.485V49.695H1009.68V55.485H1013.25ZM1013.75 84.585V103.575H1016.96V84.585H1013.75ZM1031.25 84.585H1028.04V103.575H1031.25V84.585ZM1036.07 61.035V47.715H1063.94V61.035H1036.07ZM1045.56 84.585H1042.35V103.575H1045.56V84.585Z" fill="white"/>
</svg>
