<svg width="430" height="95" viewBox="0 0 430 95" fill="none" xmlns="http://www.w3.org/2000/svg">
<path d="M73.4797 21.77C71.9197 20.34 68.3897 18.47 65.6997 17.42C66.7897 15.77 67.8697 14.12 68.9197 12.46C71.5697 13.33 75.1397 14.94 76.9197 16.29L73.4897 21.77H73.4797ZM106.74 28.68H99.0897C101.35 31.42 104.39 33.94 107.52 35.51C106.04 36.68 104.04 39.03 103.04 40.68C100.26 38.77 97.6497 35.94 95.5197 32.72V41.59H89.2997V32.94C86.8197 36.2 83.7397 38.94 80.1297 40.72C79.2197 39.29 77.4297 37.07 76.1697 35.89C79.9997 34.37 83.3897 31.76 85.8197 28.67H78.7297V27.67C76.8197 32.28 74.6897 36.71 72.8197 40.1C73.0797 40.45 73.2097 40.75 73.2097 41.06C73.2097 41.32 73.1197 41.58 72.9497 41.8L66.7297 37.71C68.7697 34.32 71.6897 28.88 73.9897 23.62L78.7297 27.27V23.05H89.2897V18.88L95.9397 19.23C93.8497 18.53 93.3797 16.8 93.3797 13.36V8.09999L100.38 8.48999C100.34 8.91999 99.9897 9.22999 99.1597 9.35999V13.32C99.1597 14.45 99.2497 14.54 99.8997 14.54H101.2C101.77 14.54 101.94 14.24 102.07 12.67C103.11 13.45 105.46 14.32 107.03 14.63C106.42 18.5 104.94 19.59 101.9 19.59H98.8597C98.0797 19.59 97.3797 19.55 96.7697 19.46C96.6797 19.85 96.3397 20.07 95.5097 20.24V23.07H106.73V28.68H106.74ZM71.0497 0.859985C73.6097 1.89999 77.0897 3.72998 78.7897 5.24998L74.9197 10.34C73.3997 8.76998 70.0497 6.72999 67.4397 5.46999L71.0497 0.859985ZM92.7397 8.76999C92.6997 9.15999 92.3497 9.46999 91.6497 9.54999C90.9997 14.72 89.6897 18.77 80.9597 20.94C80.4797 19.55 79.0897 17.42 77.9597 16.37C84.9597 14.98 85.6497 12.54 85.9997 8.19998L92.7397 8.76999ZM84.6497 7.50998V12.29H79.2197V2.19998H106.13V12.29H100.44V7.50998H84.6597H84.6497Z" fill="white"/>
<path d="M155.81 21.77V27.6H151.77V41.68H145.73V27.6H142.38C141.77 33.03 140.12 38.51 136.34 41.86C135.12 40.99 132.51 39.56 131.04 38.9C134.43 36.16 135.82 31.81 136.39 27.6H132.35V24.17H126.79C128.35 25.65 132.09 29.65 133.01 30.65L129.71 34.69C129.01 33.52 127.93 31.95 126.75 30.39V41.69H120.92V32.73C119.7 35.12 118.36 37.34 116.88 38.95C116.36 37.21 115.1 34.73 114.19 33.21C116.32 30.91 118.41 27.43 119.8 24.17H114.67V18.91H120.93V17.43H115.8V12.17H120.93V10.74H115.02V5.48001H120.93V0.390015L128.02 0.780014C127.98 1.21001 127.63 1.52001 126.76 1.65001V5.48001H132.45V10.74H126.76V12.17H131.5V17.43H126.76V18.91H132.5V21.78H136.76V14.48H133.28V8.65001H136.76V0.480011L143.93 0.87001C143.89 1.35001 143.54 1.61001 142.67 1.78001V8.65001H145.76V0.390015L153.06 0.780014C153.02 1.26001 152.67 1.52002 151.8 1.69002V8.65001H155.41V14.48H151.8V21.78H155.84L155.81 21.77ZM142.64 21.77H145.73V14.47H142.64V21.77Z" fill="white"/>
<path d="M182.24 6.56006C182.81 7.86006 183.37 9.34007 183.89 10.8201V0.470062L190.85 0.820068C190.81 1.30007 190.46 1.60006 189.59 1.73006V19.1201C189.59 27.7701 187.85 36.9001 180.11 41.9901C179.28 40.7701 177.33 38.5101 176.07 37.4701C180.2 35.4301 182.16 32.1201 183.07 28.3401C181.98 29.3801 180.94 30.3001 180.11 31.0401C180.15 31.5201 179.94 31.91 179.59 32.08L176.85 26.5601L176.07 27.6501C175.68 26.6501 175.11 25.3901 174.46 24.0401V41.7301H168.77V27.5101C167.81 30.1201 166.77 32.4201 165.55 34.2101C165.03 32.5101 163.72 30.0801 162.86 28.6001C165.25 25.3001 167.29 19.8201 168.34 15.0401H163.95V9.21007H168.78V0.430054L175.74 0.820068C175.7 1.25007 175.35 1.52006 174.48 1.69006V9.21007H177.96L177.66 8.38007L182.27 6.55006L182.24 6.56006ZM178.07 24.8601C178.24 24.8601 182.77 21.7701 183.9 20.9901V16.8201L180.51 18.2101C180.21 15.9901 179.25 12.7801 178.25 9.99007V15.0301H174.47V16.4601C175.6 17.9401 178.56 22.2001 179.25 23.2001L178.08 24.8501L178.07 24.8601ZM205.33 9.08006C205.11 9.47006 204.59 9.60006 203.98 9.56006C203.07 12.0401 201.33 15.5201 200.07 17.7301L197.24 16.2501V19.7701L198.28 18.8601C200.54 21.2901 203.67 24.6901 205.11 26.8601L200.98 30.7301C200.2 29.3401 198.76 27.4301 197.24 25.5601V33.3401C197.24 35.4701 197.28 35.7301 197.85 35.7301H199.02C199.63 35.7301 199.8 34.6001 199.89 30.8201C201.24 31.8201 203.41 32.8601 205.11 33.2501C204.5 39.0301 203.07 41.3401 199.59 41.3401H196.63C192.5 41.3401 191.33 39.5601 191.33 33.3V0.480057L198.5 0.870056C198.46 1.35006 198.11 1.61006 197.24 1.78006V12.0001C197.94 10.0401 198.59 7.91006 199.02 6.17006L205.32 9.08006H205.33Z" fill="white"/>
<path d="M213.62 1.94995H251.4V41.7699H245.23V40.34H219.54V41.7699H213.63V1.94995H213.62ZM219.53 34.6799H245.22V26.94C245 27.16 244.57 27.24 244.09 27.16C243.31 27.64 242.13 28.3299 241 28.9899C242.3 29.5099 243.7 29.95 245.09 30.25C244.05 31.16 242.61 32.99 241.92 34.16C239.22 33.33 236.7 31.94 234.53 30.25V33.8999H229.01V30.47C226.97 31.56 224.79 32.51 222.66 33.25C222.01 32.25 220.53 30.42 219.62 29.51C222.79 28.6 226.14 27.21 228.79 25.47H223.23V18.34H241.23V24.08L245.23 26.86V7.59996H219.54V34.6799H219.53ZM244.09 13.99V17.38H220.62V13.99H229.49V12.95H222.67V9.64995H229.49V7.90996L236.45 8.29996C236.41 8.73996 236.06 8.99995 235.19 9.16995V9.64995H242.06V12.95H235.19V13.99H244.1H244.09ZM235.74 22.55V21.2H228.39V22.55H235.74ZM236.04 25.46L235.61 25.85C236.09 26.28 236.65 26.6799 237.22 27.0199C237.92 26.5399 238.7 26.02 239.39 25.45H236.04V25.46Z" fill="white"/>
<path d="M282.26 37.5901H261.18V32.8101L265.01 28.6801C270.7 22.7301 274.14 18.8601 274.14 14.8601C274.14 12.3401 272.62 10.2501 269.44 10.2501C267.22 10.2501 265.05 11.3801 263.53 12.4701L261.53 6.91008C263.57 5.43008 267.18 4.08008 270.96 4.08008C278.39 4.08008 281.74 8.65007 281.74 14.1701C281.74 19.6901 277.91 24.4701 273.87 28.4701L271.09 31.1201V31.2101H282.26V37.6001V37.5901Z" fill="white"/>
<path d="M311.6 4.56006V10.8601H300.73L300.12 16.0801C300.64 16.0401 301.12 15.9901 301.64 15.9901C306.77 15.9901 312.73 18.8201 312.73 26.3801C312.73 32.6401 307.9 38.0701 299.65 38.0701C296.35 38.0701 293.3 37.2901 291.69 36.4601L293.04 30.6801C294.43 31.3301 296.69 32.0701 299.13 32.0701C302.22 32.0701 305.04 30.2401 305.04 26.9401C305.04 23.2401 302.08 21.4201 296.82 21.4201C295.47 21.4201 294.43 21.4601 293.39 21.6401L295.3 4.56006H311.6Z" fill="white"/>
<path d="M362.33 26.73V32.86H347.9V41.73H341.38V32.86H321.99V26.73H328.73V16.56C327.99 17.47 327.21 18.34 326.43 19.08C325.26 17.86 322.87 15.73 321.34 14.69C325.08 11.47 328.51 5.73001 330.3 0.26001L337.86 2.61002C337.69 3.00002 337.21 3.26001 336.56 3.18001C336.34 3.79001 336.08 4.35002 335.82 4.96002H359.73V11.09H347.91V15.48H358.73V21.35H347.91V26.74H362.34L362.33 26.73ZM341.38 11.08H332.6C331.69 12.65 330.69 14.12 329.6 15.47H341.38V11.08ZM335.08 26.73H341.38V21.34H335.08V26.73Z" fill="white"/>
<path d="M0.669922 54.88H38.4499V94.53H32.1899V92.83H6.62992V94.53H0.669922V54.88ZM6.62992 87.18H32.1899V60.53H28.8899C29.8899 61.14 30.8499 61.83 31.3699 62.49L29.8099 64.1H31.2399V68.45H24.2399C24.3699 69.93 24.4999 71.32 24.6699 72.62C25.1099 71.53 25.4999 70.36 25.7999 69.19L31.3199 70.54C31.2299 70.89 30.8399 71.11 30.2299 71.11C29.2699 74.15 27.9299 77.02 26.2299 79.5C26.5799 80.33 27.0099 80.85 27.4499 80.98H27.4899C27.8399 80.98 28.1399 79.24 28.3199 77.28C29.2799 78.19 31.0999 79.71 32.0999 80.32C31.5799 84.62 29.8399 86.58 27.6199 86.58C26.4899 86.58 24.2299 85.93 22.7499 83.67C21.4899 84.89 20.0999 85.97 18.6199 86.84C18.0099 85.93 16.6599 84.32 15.7499 83.41C13.3199 83.8 11.0499 84.15 9.39993 84.37C9.30993 84.76 9.00992 84.98 8.69992 85.07L7.21992 80.07C10.2599 79.85 14.6499 79.46 19.0399 79.03L19.0799 80.73C19.6899 80.16 20.2099 79.6 20.7799 78.99C19.9499 76.08 19.4799 72.43 19.1699 68.47H7.73992V64.12H18.8699C18.7799 63.08 18.7399 62.03 18.6999 60.95L25.1299 61.21C25.0899 61.64 24.6899 62.04 23.9099 62.12C23.9099 62.77 23.9499 63.47 23.9499 64.12H27.1199C26.3799 63.55 25.5599 62.95 24.8199 62.51L26.8199 60.55H6.60992V87.2L6.62992 87.18ZM18.4099 69.84V78.06H8.62992V69.84H18.4099ZM14.2799 74.88V73.01H12.5399V74.88H14.2799Z" fill="white"/>
<path d="M75.2598 69.7901C75.7398 71.2701 76.3498 72.7001 77.0398 74.0901C78.9098 72.7901 80.8198 71.2601 82.1698 69.9601L87.6498 74.9601C87.4298 75.1301 87.0798 75.2201 86.6498 75.2201C86.4798 75.2201 86.2998 75.2201 86.1298 75.1801C84.6498 76.2201 82.2598 77.7001 80.1298 78.8801C82.5198 81.7501 85.5198 84.0501 89.2598 85.5301C87.8298 86.7901 85.9098 89.31 84.9598 91.05C77.1298 87.2701 72.7398 80.2701 69.9598 71.1001C68.9598 71.7501 67.8698 72.4001 66.6998 73.0101C72.0898 76.8401 74.1798 81.7001 74.1798 85.7901C74.1798 91.3101 70.3998 94.5301 65.7498 94.5301C64.7098 94.5301 63.5798 94.4901 62.4498 94.4401C62.3598 92.8301 61.9698 90.5701 61.0198 88.7901C57.8898 90.4401 54.6298 91.9201 51.6698 92.9601C50.9298 91.3901 49.5798 89.1301 48.3198 87.7401C54.3598 86.3101 61.4898 83.0001 65.7998 79.6501L65.4098 79.1701C61.7598 81.4301 56.8898 83.73 53.0198 85.08C52.3198 83.69 51.0198 81.5601 49.8898 80.3401C53.7598 79.4701 58.5798 77.7301 61.8898 75.9101L61.2798 75.4801C58.5398 76.5701 55.6298 77.4401 52.7598 78.1301C52.1498 76.9101 50.7198 74.5701 49.8498 73.4301C54.0198 72.6501 58.3698 71.4301 62.0198 69.7801H56.9298V64.4801H79.4498V69.7801H75.2798L75.2598 69.7901ZM55.8298 62.7001V67.4401H49.6598V57.0101H64.8798V53.05L72.7098 53.4801C72.6698 53.9601 72.3198 54.2601 71.4098 54.3901V57.0001H87.0198V67.4301H80.5398V62.6901H55.8498L55.8298 62.7001ZM67.7798 84.61C65.9098 85.96 63.7398 87.3101 61.4798 88.5201C62.6098 88.6101 63.5698 88.6501 64.4798 88.6501C65.3898 88.6501 66.2598 88.5201 66.7798 87.8201C67.4798 87.3001 67.9098 86.1201 67.7798 84.6001V84.61Z" fill="white"/>
<path d="M107.21 67.45L110.69 68.41C110.65 68.76 110.52 69.15 110.34 69.41C109.86 75.06 108.95 79.97 107.6 84.02C111.56 86.8 116.77 87.37 122.69 87.41C125.78 87.41 134.34 87.41 138.04 87.24C137.08 88.67 136.04 91.59 135.65 93.41H122.52C115.52 93.41 109.74 92.63 105.13 89.5C103.91 91.59 102.43 93.33 100.74 94.63C99.78 93.41 97.35 91.2 96 90.41C97.91 89.06 99.43 87.32 100.65 85.11C99.04 82.89 97.65 80.11 96.52 76.63L101.43 74.93C101.91 76.41 102.47 77.67 103.08 78.8C103.51 77.06 103.86 75.15 104.12 73.06H102.38L101.95 74.06L96.26 72.63C97.96 68.93 99.87 64.54 101.39 60.8H96.43V55.32H104.78L105.95 55.19L109.47 56.36C109.34 56.66 109.17 57.06 108.99 57.36C107.95 60.06 106.38 63.79 104.77 67.58H106.16L107.2 67.45H107.21ZM119.21 61.62V60.62H112.08V55.93H119.21V53.02L126.6 53.41C126.56 53.89 126.21 54.19 125.34 54.32V55.93H133.73V61.62H137.38V66.4H133.73V72.09H125.34V73.09H134.43V77.57H125.34V78.61H136.38V83.52H125.34V86.65H119.21V83.52H109.39V78.61H119.21V77.57H111.3V73.09H119.21V72.09H111.95V67.4H119.21V66.4H108.78V61.62H119.21ZM127.51 60.62H125.34V61.62H127.51V60.62ZM127.51 67.4V66.4H125.34V67.4H127.51Z" fill="white"/>
<path d="M185.59 84.44H172.81C176.37 86.14 181.37 87.4 186.37 87.92C185.02 89.22 183.24 91.7 182.37 93.31C177.37 92.27 172.46 90.22 168.68 87.35V94.35H162.55V87.26C158.72 90.09 153.77 92.26 148.77 93.39C147.9 91.87 146.16 89.52 144.9 88.26C149.64 87.56 154.46 86.22 157.94 84.43H145.68V79.56H162.55V77.65C162.03 77.09 161.38 76.48 160.81 75.95C156.12 76.78 151.55 77.52 148.29 77.95C148.25 78.34 147.94 78.56 147.59 78.65L145.76 73.22C147.54 73.09 149.76 72.92 152.19 72.7V68.87H147.06V64.61H162.93V68.87H157.89V72.17L162.98 71.65L163.02 72.82C164.37 71.6 164.54 70.26 164.54 68.78V64.43H175.32C174.93 63.47 174.1 62.08 173.28 60.86H171.15C170.28 61.95 169.32 62.99 168.37 63.82C167.07 62.91 164.72 61.78 163.15 61.08L163.41 60.86H158.85C159.37 61.69 159.81 62.51 160.07 63.16L155.03 64.59C154.73 63.59 153.99 62.11 153.2 60.85H152.9C151.9 62.11 150.81 63.33 149.73 64.28C148.56 63.28 146.38 61.85 144.99 61.11C147.51 59.11 149.95 55.68 151.29 52.63L157.81 54.76C157.59 55.15 157.11 55.28 156.64 55.24L156.25 55.98H164.99V59.41C166.82 57.5 168.42 54.98 169.34 52.63L175.99 54.59C175.82 54.98 175.38 55.16 174.82 55.11C174.69 55.41 174.56 55.68 174.39 55.98H185.95V60.85H179.43C179.99 61.63 180.47 62.42 180.78 63.07L175.74 64.42H180.91V71.46C180.91 72.76 180.91 72.89 181.26 72.89C181.82 72.89 181.87 72.89 182 72.8C182.3 72.5 182.39 70.93 182.44 69.1C183.31 69.93 185.14 70.84 186.44 71.27C186.14 75.01 185.92 77.83 181.7 77.83H179.48C178.26 77.83 176.96 77.44 176.18 76.61C175.66 76.04 175.31 75.39 175.14 74.26L172.75 76.39C172.1 75.43 170.88 74.13 169.66 73C169.27 74.3 168.53 75.48 167.44 76.56L169.96 76.69C169.92 77.17 169.57 77.47 168.7 77.6V79.51H185.61V84.38L185.59 84.44ZM174.98 68.44H170.24C170.24 69.4 170.24 69.57 170.15 70.7L172.15 69C173.06 69.65 174.11 70.52 174.98 71.35V68.44Z" fill="white"/>
<path d="M223.75 80.36L228.71 82.45C228.49 82.84 227.97 82.97 227.36 82.93C226.49 84.45 225.06 86.32 223.84 87.89H232.71V93.28H195.93V87.89H203.71C202.97 86.02 201.71 83.59 200.45 81.72L203.67 80.37H198.24V74.98H210.67V71.5H203.19V69.5C201.23 70.89 199.19 72.19 197.06 73.33C196.23 71.85 194.5 69.5 193.19 68.29C200.62 64.68 207.62 58.07 210.75 52.86L219.01 53.34C218.88 53.82 218.45 54.25 217.75 54.3C221.92 59.91 229.18 65.08 235.62 67.6C234.06 69.21 232.62 71.38 231.45 73.29C229.36 72.2 227.23 70.86 225.15 69.38V71.51H217.41V74.99H229.97V80.38H223.75V80.36ZM210.66 80.36H206.1C207.49 82.36 208.93 84.75 209.49 86.49L206.32 87.88H210.67V80.36H210.66ZM220.79 66.01C218.09 63.75 215.75 61.32 214.14 59.1C212.53 61.36 210.27 63.75 207.66 66.01H220.79ZM218.18 86.83C219.44 85.09 220.96 82.53 221.92 80.35H217.4V87.87H220.36L218.19 86.83H218.18Z" fill="white"/>
<path d="M251.92 70.62H250.22C250.22 72.53 249.66 77.05 246.83 79.49C245.79 78.71 243.44 77.45 242.09 76.88C244.26 75.14 244.65 72.1 244.7 70.62H242.35V65.79H251.91V64.05H244.17V54.36L250.52 54.71C250.48 55.14 250.17 55.41 249.39 55.54V59.32H251.91V53.1L258.87 53.49C258.83 53.92 258.48 54.19 257.61 54.36V78.18H251.92V70.62ZM282.96 85.92H269.83C272.7 87.92 277.22 88.66 283.96 88.66C282.66 90.01 281.13 92.62 280.44 94.44C271.18 93.79 266.27 91.7 263.01 86.66C260.71 90.53 255.97 93.05 245.06 94.44C244.62 92.83 243.23 90.44 242.15 89.09C248.93 88.48 252.89 87.48 255.23 85.92H243.06V80.79H258.45C258.67 79.53 258.8 78.09 258.89 76.44L266.58 77.05C266.49 77.53 266.06 77.83 265.32 77.96L264.93 80.79H272.06C270.8 80.35 269.54 79.96 268.41 79.66L270.19 77.27C269.89 75.92 269.28 74.4 268.76 73.27C269.85 73.31 271.37 73.31 271.8 73.31C272.23 73.31 272.41 73.18 272.41 72.74V70.74H266.11C267.2 71.87 268.24 73.13 268.81 74.17L264.33 76.69C263.76 75.39 262.24 73.43 260.85 72.04L263.15 70.74H258.59V66.48H260.89C260.33 65.39 259.5 64.18 258.85 63.35C260.76 63.18 262.63 62.96 264.37 62.61C263.72 62.09 262.98 61.57 262.28 61.13L265.37 59.87C266.24 60.35 267.28 61.04 268.11 61.7C268.55 61.61 268.94 61.48 269.33 61.31C268.55 60.7 267.5 60.05 266.59 59.57L268.33 58.7H266.81C265.16 59.44 263.33 60.09 261.25 60.7C260.6 59.66 259.16 58.09 258.12 57.44C263.16 56.4 266.73 54.92 268.73 53.09L274.16 54.13C274.07 54.48 273.72 54.69 273.16 54.69L272.59 55.17H278.33L279.24 55.04L282.67 56.47C282.58 56.73 282.37 56.91 282.19 57.08C280.36 60.12 277.63 62.25 274.23 63.86L279.53 64.03C279.44 64.46 279.18 64.81 278.36 64.9V66.47H283.66V70.73H278.36V72.95C278.36 76.38 277.23 76.82 275.53 77.38C277.18 77.9 278.75 78.47 279.83 78.95L278.53 80.78H282.96V85.91V85.92ZM272.4 64.62C270.31 65.4 268.01 66.01 265.53 66.49H272.4V64.62ZM270.75 58.71C271.4 59.06 272.05 59.49 272.58 59.88C273.28 59.53 273.88 59.14 274.45 58.71H270.75Z" fill="white"/>
<path d="M292.6 85.62H330.55V92.1H292.6V85.62ZM295.03 57.23H328.29V63.71H295.03V57.23ZM298.16 71.1H324.81V77.53H298.16V71.1Z" fill="white"/>
<path d="M357.32 86.5701C357.32 88.3501 357.89 88.5701 361.62 88.5701H371.88C375.01 88.5701 375.49 87.83 375.88 83.05C377.23 83.96 379.79 84.8301 381.4 85.1401C380.53 92.2301 378.75 94.0101 372.18 94.0101H361.31C353.57 94.0101 351.44 92.3601 351.44 86.6601V77.6601H349.83C349.83 81.3601 349.83 89.4001 343.53 94.5701C342.7 93.4001 340.31 91.0101 339.18 90.2701C344.01 86.4401 344.01 81.4001 344.01 77.6601H340.36V71.83H360.75V66.4401H369.66V62.2201L372.83 62.3501V60.6501H347.62V63.2101H359.23V68.9901H343.54V64.7301H341.45V54.8201H379.36V64.7301H375.67V66.4301H380.15V72.0401H375.67V81.2101C375.67 85.1701 374.84 87.2101 367.37 87.2101C367.15 85.5601 366.33 83.1701 365.54 81.6501C366.89 81.7401 368.5 81.7401 368.97 81.7401C369.49 81.7401 369.67 81.5701 369.67 81.0901V72.05H360.93V74.5701L365.62 72.6601C367.1 74.6601 368.49 77.3601 369.1 79.2201L364.01 81.5701C363.53 79.7401 362.27 77.0101 360.92 74.9201V77.6601H357.31V86.5701H357.32Z" fill="white"/>
<path d="M412.23 86.7901H429.05V93.0101H389.14V86.7901H405.44V77.0101H393.35V70.7901H405.44V62.2701H391.22V56.05H426.82V62.2701H412.21V70.7901H425.08V77.0101H412.21V86.7901H412.23Z" fill="white"/>
</svg>
