<svg width="1768" height="40" viewBox="0 0 1768 40" fill="none" xmlns="http://www.w3.org/2000/svg">
<g opacity="0.15">
<path d="M-6.10352e-05 1.105C2.71494 0.609996 6.23994 0.294983 10.0199 0.294983C16.4699 0.294983 20.8349 1.65997 24.0599 4.31497C27.7349 7.32997 29.8949 12.115 29.8949 19.12C29.8949 27.43 27.0299 32.26 24.0599 34.93C20.5349 38.095 15.1499 39.655 8.39994 39.655C4.82994 39.655 1.96494 39.4 -6.10352e-05 39.145V1.08998V1.105ZM7.39494 33.565C8.14494 33.715 9.25494 33.715 10.2599 33.715C17.3549 33.76 22.0799 29.38 22.0799 19.225C22.0799 10.465 17.8049 6.14497 10.9049 6.14497C9.34494 6.14497 8.18994 6.29499 7.37994 6.44499V33.58L7.39494 33.565Z" fill="white"/>
<path d="M76.7399 21.04C79.4549 22.09 80.9699 24.715 81.8699 28.645C82.9799 33.22 83.9849 37.855 84.7349 39.31H77.0849C76.5299 38.2 75.5699 34.825 74.6699 30.145C73.6649 25.165 72.1049 23.605 68.5799 23.605H66.0599V39.31H58.6649V1.105C61.2299 0.654996 64.8599 0.294983 68.6249 0.294983C73.4999 0.294983 83.3699 0.894994 83.3699 11.275C83.3699 16 80.3549 19.48 76.7249 20.89V21.04H76.7399ZM69.1349 18.07C73.3649 18.07 75.9299 15.61 75.9299 11.935C75.9299 6.955 72.2099 5.99496 69.4949 5.99496C67.8299 5.99496 66.6749 6.09998 66.0749 6.29498V18.07H69.1499H69.1349Z" fill="white"/>
<path d="M134.37 39.31H112.725V0.609985H133.56V6.84999H120.165V16.21H132.795V22.3H120.165V33.07H134.355V39.31H134.37Z" fill="white"/>
<path d="M191.58 39.31H183.78L181.005 29.095H170.64L167.97 39.31H160.425L171.39 0.609985H180.75L191.565 39.31H191.58ZM179.955 23.455L177.645 14.65C177.045 12.235 176.385 9.11498 175.89 6.74498H175.74C175.23 9.15998 174.585 12.325 174.03 14.605L171.72 23.47H179.97L179.955 23.455Z" fill="white"/>
<path d="M257.205 39.31H250.11L249.405 24.265C249.21 19.135 248.955 13.9 249 9.00999H248.85C247.74 13.645 246.33 18.775 245.025 23.095L240.3 38.755H234.66L230.385 23.35C229.125 18.97 227.925 13.735 227.01 9.00999H226.86C226.755 13.885 226.515 19.63 226.26 24.415L225.51 39.31H218.715L221.325 0.609985H230.535L234.705 15.16C235.965 19.84 237.075 24.37 237.93 28.795H238.08C238.98 24.46 240.15 19.78 241.455 15.16L245.835 0.609985H255L257.22 39.31H257.205Z" fill="white"/>
<path d="M320.91 39.31V0.609985H341.64V6.84999H328.35V17.065H340.725V23.155H328.35V39.31H320.895H320.91Z" fill="white"/>
<path d="M392.37 39.31H371.085V0.609985H378.54V33.025H392.385V39.31H392.37Z" fill="white"/>
<path d="M448.83 39.31H441.03L438.255 29.095H427.89L425.22 39.31H417.675L428.64 0.609985H438L448.815 39.31H448.83ZM437.205 23.455L434.895 14.65C434.295 12.235 433.635 9.11498 433.14 6.74498H432.99C432.48 9.15998 431.835 12.325 431.28 14.605L428.97 23.47H437.22L437.205 23.455Z" fill="white"/>
<path d="M504.99 37.795C502.725 38.65 498.345 39.715 493.965 39.715C488.07 39.715 483.6 38.2 480.33 34.99C477.015 31.72 475.095 26.44 475.095 20.29C475.095 7.20996 483.795 0.204987 494.925 0.204987C498.855 0.204987 502.125 0.909998 503.985 1.81L502.425 7.94499C500.67 7.13499 498.45 6.53499 495.03 6.53499C488.13 6.53499 482.895 10.765 482.895 20.125C482.895 29.485 487.68 33.61 494.07 33.61C495.885 33.61 497.235 33.355 497.895 33.055V23.59H492.315V17.695H505.005V37.78L504.99 37.795Z" fill="white"/>
<path d="M553.65 7.90001C552.285 7.19501 549.93 6.23499 546.75 6.23499C542.82 6.23499 541.065 8.34999 541.065 10.51C541.065 13.285 542.97 14.53 547.71 16.705C553.905 19.465 556.665 23.05 556.665 28.135C556.665 34.885 551.58 39.82 542.565 39.82C538.74 39.82 534.87 38.755 533.055 37.66L534.51 31.42C536.52 32.62 539.745 33.58 542.865 33.58C546.99 33.58 549.15 31.615 549.15 28.75C549.15 25.885 547.29 24.325 543.015 22.465C537.18 19.945 533.55 16.33 533.55 11.29C533.55 4.94498 538.53 0.0700073 546.885 0.0700073C550.56 0.0700073 553.38 0.924982 555.195 1.82498L553.635 7.91498L553.65 7.90001Z" fill="white"/>
<path d="M613.59 39.31H606.135V22.645H592.95V39.31H585.495V0.609985H592.95V16.06H606.135V0.609985H613.59V39.31Z" fill="white"/>
<path d="M644.28 0.595001H651.735V39.295H644.28V0.595001Z" fill="white"/>
<path d="M682.425 1.105C684.84 0.654996 688.17 0.294983 692.445 0.294983C697.32 0.294983 700.995 1.25496 703.47 3.36996C705.78 5.33496 707.19 8.45499 707.19 12.025C707.19 22.645 698.325 25.015 692.55 25.015C691.5 25.015 690.585 24.97 689.835 24.82V39.31H682.44V1.105H682.425ZM689.82 18.97C690.525 19.12 691.335 19.165 692.43 19.165C697.065 19.165 699.78 16.555 699.78 12.37C699.78 8.18496 697.17 6.08501 693.03 6.08501C691.515 6.08501 690.465 6.23498 689.805 6.38498V18.97H689.82Z" fill="white"/>
<path d="M783.465 26.065C783.465 36.73 778.335 39.85 771.135 39.85C769.38 39.85 767.205 39.55 765.9 39.1L766.71 33.01C767.67 33.31 768.975 33.565 770.43 33.565C773.805 33.565 776.01 32.05 776.01 26.02V0.609985H783.465V26.08V26.065Z" fill="white"/>
<path d="M813.765 0.595001H821.22V39.295H813.765V0.595001Z" fill="white"/>
<path d="M880.095 39.31H872.64L864.33 23.305C862.26 19.33 859.995 14.545 858.39 10.315H858.195C858.495 15.1 858.645 20.53 858.645 27.43V39.31H851.895V0.609985H859.95L868.11 16.315C870.18 20.185 872.34 24.925 873.9 28.945H874.005C873.555 24.01 873.345 18.52 873.345 12.235V0.609985H880.095V39.31Z" fill="white"/>
<path d="M938.82 37.795C936.555 38.65 932.175 39.715 927.795 39.715C921.9 39.715 917.43 38.2 914.16 34.99C910.845 31.72 908.925 26.44 908.925 20.29C908.925 7.20996 917.625 0.204987 928.755 0.204987C932.685 0.204987 935.955 0.909998 937.815 1.81L936.255 7.94499C934.5 7.13499 932.28 6.53499 928.86 6.53499C921.96 6.53499 916.725 10.765 916.725 20.125C916.725 29.485 921.51 33.61 927.9 33.61C929.715 33.61 931.065 33.355 931.725 33.055V23.59H926.145V17.695H938.835V37.78L938.82 37.795Z" fill="white"/>
<path d="M1002.63 1.105C1005.34 0.609996 1008.87 0.294983 1012.65 0.294983C1019.08 0.294983 1023.46 1.65997 1026.69 4.31497C1030.36 7.32997 1032.52 12.115 1032.52 19.12C1032.52 27.43 1029.66 32.26 1026.69 34.93C1023.16 38.095 1017.78 39.655 1011.03 39.655C1007.46 39.655 1004.59 39.4 1002.63 39.145V1.08998V1.105ZM1010.02 33.565C1010.77 33.715 1011.88 33.715 1012.89 33.715C1019.98 33.76 1024.71 29.38 1024.71 19.225C1024.71 10.465 1020.43 6.14497 1013.53 6.14497C1011.97 6.14497 1010.82 6.29499 1010.01 6.44499V33.58L1010.02 33.565Z" fill="white"/>
<path d="M1088.98 23.245C1088.98 34.57 1083.6 39.85 1074.84 39.85C1066.08 39.85 1061.2 34.66 1061.2 23.29V0.535004H1068.66V23.935C1068.66 30.73 1071.23 33.7 1075.05 33.7C1079.07 33.7 1081.55 30.835 1081.55 23.935V0.535004H1089V23.23L1088.98 23.245Z" fill="white"/>
<path d="M1181.93 39.31H1174.13L1171.35 29.095H1160.99L1158.32 39.31H1150.77L1161.74 0.609985H1171.1L1181.91 39.31H1181.93ZM1170.3 23.455L1167.99 14.65C1167.39 12.235 1166.73 9.11498 1166.24 6.74498H1166.09C1165.58 9.15998 1164.93 12.325 1164.38 14.605L1162.07 23.47H1170.32L1170.3 23.455Z" fill="white"/>
<path d="M1236.73 0.595001L1224.96 39.295H1216.45L1205.23 0.595001H1213.39L1217.77 17.71C1218.93 22.285 1220.08 26.92 1220.89 31.6H1221.05C1221.9 26.965 1223.05 22.24 1224.27 17.71L1228.75 0.595001H1236.77H1236.73Z" fill="white"/>
<path d="M1263.84 0.595001H1271.3V39.295H1263.84V0.595001Z" fill="white"/>
<path d="M1330.33 39.31H1322.53L1319.76 29.095H1309.39L1306.72 39.31H1299.18L1310.14 0.609985H1319.5L1330.32 39.31H1330.33ZM1318.71 23.455L1316.4 14.65C1315.8 12.235 1315.14 9.11498 1314.64 6.74498H1314.49C1313.98 9.15998 1313.34 12.325 1312.78 14.605L1310.47 23.47H1318.72L1318.71 23.455Z" fill="white"/>
<path d="M1380.4 7.045H1370.85V39.31H1363.39V7.045H1353.89V0.609985H1380.4V7.045Z" fill="white"/>
<path d="M1407.91 0.595001H1415.37V39.295H1407.91V0.595001Z" fill="white"/>
<path d="M1476.61 19.48C1476.61 32.965 1469.78 39.865 1460.16 39.865C1449.95 39.865 1444.16 31.315 1444.16 20.08C1444.16 8.84499 1450.55 -0.0050354 1460.67 -0.0050354C1471.4 -0.0050354 1476.63 9.16 1476.63 19.48H1476.61ZM1451.95 19.93C1451.95 27.535 1454.92 33.775 1460.41 33.775C1465.9 33.775 1468.82 27.58 1468.82 19.78C1468.82 12.685 1466.15 6.08501 1460.46 6.08501C1454.78 6.08501 1451.95 12.835 1451.95 19.93Z" fill="white"/>
<path d="M1533.63 39.31H1526.17L1517.86 23.305C1515.79 19.33 1513.53 14.545 1511.92 10.315H1511.73C1512.03 15.1 1512.18 20.53 1512.18 27.43V39.31H1505.43V0.609985H1513.48L1521.64 16.315C1523.71 20.185 1525.87 24.925 1527.43 28.945H1527.54C1527.09 24.01 1526.88 18.52 1526.88 12.235V0.609985H1533.63V39.31Z" fill="white"/>
<path d="M1623.1 38.35C1621.65 39.055 1618.53 39.805 1614.55 39.805C1602.93 39.805 1596.48 31.9 1596.48 20.425C1596.48 6.88002 1605.18 0.039978 1615.45 0.039978C1619.64 0.039978 1622.36 0.89498 1623.45 1.49498L1621.99 7.53998C1620.48 6.87998 1618.47 6.27998 1615.8 6.27998C1609.41 6.27998 1604.28 10.66 1604.28 20.02C1604.28 28.78 1608.77 33.46 1615.76 33.46C1618.07 33.46 1620.54 33.01 1622.04 32.35L1623.09 38.335L1623.1 38.35Z" fill="white"/>
<path d="M1651.68 0.595001H1659.13V39.295H1651.68V0.595001Z" fill="white"/>
<path d="M1713.23 7.045H1703.67V39.31H1696.22V7.045H1686.7V0.609985H1713.23V7.045Z" fill="white"/>
<path d="M1767.12 0.595001L1755.65 23.29V39.295H1748.19V23.545L1737.22 0.595001H1745.53L1749.36 10.105C1750.47 12.865 1751.37 15.295 1752.28 17.95H1752.39C1753.14 15.385 1754.1 12.865 1755.21 10.045L1758.93 0.579987H1767.13L1767.12 0.595001Z" fill="white"/>
</g>
</svg>
