<svg width="135" height="14" viewBox="0 0 135 14" fill="none" xmlns="http://www.w3.org/2000/svg">
<g opacity="0.6">
<path d="M2.66043 3.93994C2.89043 4.09994 3.54043 4.63001 3.69043 4.76001L3.44043 5.07996C3.30043 4.91996 2.93043 4.57996 2.66043 4.32996V5.98999H2.25043V4.29004C1.95043 4.78004 1.57043 5.23001 1.22043 5.51001C1.15043 5.41001 1.03043 5.27996 0.94043 5.20996C1.38043 4.91996 1.86043 4.34002 2.16043 3.77002H1.05042V3.41003H2.24042V2.76001H0.970428V2.40002H1.73044C1.70044 2.13002 1.59042 1.74995 1.46042 1.44995L1.79044 1.35999C1.93044 1.66999 2.05041 2.06997 2.08041 2.33997L1.85043 2.41003H2.89044C2.81044 2.38003 2.72043 2.34998 2.72043 2.34998C2.84043 2.07998 2.99043 1.64998 3.07043 1.34998L3.54044 1.5C3.54044 1.5 3.48044 1.56006 3.42044 1.56006C3.33044 1.80006 3.19042 2.16003 3.06042 2.41003H3.96042V2.77002H2.71042C2.71042 2.77002 2.67042 2.78003 2.65042 2.78003V3.42004H3.87042V3.78003H2.65042V3.95996L2.66043 3.93994ZM3.85043 0.939941V1.30005H1.11041V0.939941H2.25043V0.25L2.77042 0.280029C2.77042 0.280029 2.73042 0.349995 2.65042 0.369995V0.939941H3.84042H3.85043ZM6.73044 2.37V2.76001H6.00043V5.97998H5.59042V2.76001H4.61041V2.98999C4.61041 3.91999 4.49043 5.14 3.60043 6C3.55043 5.91 3.41042 5.76996 3.31042 5.70996C4.12042 4.92996 4.21042 3.85999 4.21042 2.98999V0.839966L4.51044 0.939941C5.15044 0.749941 5.84044 0.50002 6.23044 0.27002L6.64044 0.589966C6.64044 0.589966 6.58044 0.619985 6.51044 0.609985C6.05044 0.839985 5.29043 1.09001 4.60043 1.26001V2.38H6.71042L6.73044 2.37Z" fill="white"/>
<path d="M9.5307 2.81982V4.34985L10.3707 4.09985C10.3707 4.09985 10.3807 4.16984 10.4207 4.45984C9.70072 4.68984 8.9407 4.93983 8.4707 5.07983C8.4707 5.12983 8.43072 5.15992 8.39072 5.16992L8.2207 4.70984C8.4707 4.64984 8.78071 4.55984 9.13071 4.45984V2.80994H8.36069V2.41992H9.13071V1.02991H8.30069V0.629883H10.3407V1.02991H9.5307V2.41992H10.2807V2.80994H9.5307V2.81982ZM12.3307 5.40991H14.0607V5.78992H10.0907V5.40991H11.9407V4.44983H10.4907V4.06982H11.9407V3.34985H10.5307V0.609863H13.7707V3.34985H12.3207V4.06982H13.8507V4.44983H12.3207V5.40991H12.3307ZM10.9107 0.979858V1.80994H11.9407V0.979858H10.9107ZM10.9107 2.98987H11.9407V2.1499H10.9107V2.98987ZM13.3907 1.79993V0.969849H12.3307V1.79993H13.3907ZM13.3907 2.98987V2.1499H12.3307V2.98987H13.3907Z" fill="white"/>
<path d="M17.2107 1.93005C17.4607 2.09005 18.1007 2.56995 18.2607 2.69995L18.0307 3.03003C17.8707 2.87003 17.5007 2.55006 17.2107 2.31006V3.88H16.8107V2.13C16.5307 2.69 16.1507 3.18999 15.7807 3.48999C15.7107 3.39999 15.6007 3.26995 15.5107 3.19995C15.9707 2.86995 16.4607 2.19004 16.7307 1.54004H15.6407V1.17004H16.8107V0.23999L17.3307 0.280029C17.3307 0.280029 17.2907 0.349985 17.2107 0.359985V1.17004H18.2207V1.54004H17.2107V1.92004V1.93005ZM16.7707 4.44995C16.6107 4.92995 16.3407 5.47005 15.9107 5.80005L15.5807 5.56006C15.9907 5.27006 16.2707 4.77006 16.4107 4.31006L16.7707 4.45996V4.44995ZM17.6407 5.35999C17.6407 5.51999 17.7007 5.55005 18.0407 5.55005H19.2407C19.5107 5.55005 19.5607 5.47002 19.5907 4.90002C19.6807 4.97002 19.8507 5.03005 19.9707 5.05005C19.9107 5.76005 19.7907 5.92004 19.2807 5.92004H18.0207C17.3907 5.92004 17.2407 5.80999 17.2407 5.35999V4.31995L17.7707 4.35999C17.7707 4.35999 17.7307 4.42995 17.6507 4.44995V5.35999H17.6407ZM18.8207 4.97998C18.6107 4.69998 18.1507 4.31005 17.7607 4.05005L18.0307 3.82996C18.4307 4.07996 18.8907 4.45999 19.1107 4.73999L18.8207 4.97998ZM20.9307 0.579956V3.82996H18.5007V0.579956H20.9307ZM20.5307 1.55005V0.930054H18.8907V1.55005H20.5307ZM20.5307 2.51001V1.88H18.8907V2.51001H20.5307ZM20.5307 3.47998V2.83997H18.8907V3.47998H20.5307ZM21.0107 5.80005C20.7907 5.40005 20.2807 4.84997 19.7907 4.46997L20.1207 4.27002C20.6107 4.63002 21.1507 5.16995 21.3707 5.56995L21.0107 5.80005Z" fill="white"/>
<path d="M24.7405 0.449951C24.7405 0.449951 24.6806 0.50999 24.6006 0.48999C24.2406 0.93999 23.6005 1.53004 23.0505 1.92004C23.0005 1.83004 22.8805 1.66997 22.8105 1.58997C23.3305 1.24997 23.9406 0.7 24.2606 0.25L24.7405 0.449951ZM23.7906 5.97998V3.26001C23.5606 3.52001 23.3205 3.75996 23.0905 3.95996C23.0305 3.87996 22.9006 3.71001 22.8206 3.64001C23.4106 3.15001 24.0906 2.33995 24.5106 1.56995L24.9905 1.77002C24.9905 1.77002 24.9206 1.82995 24.8506 1.81995C24.6706 2.12995 24.4505 2.44 24.2105 2.75L24.3206 2.79004C24.3206 2.79004 24.2706 2.86 24.2006 2.87V5.97998H23.7906ZM28.5605 2.43005V2.82996H27.5805V5.43994C27.5805 5.95994 27.3806 5.96997 26.1406 5.96997C26.1206 5.84997 26.0705 5.69006 26.0005 5.56006C26.2705 5.56006 26.5206 5.56995 26.7206 5.56995C27.1206 5.56995 27.1706 5.57005 27.1706 5.43005V2.81995H25.0205V2.42004H28.5706L28.5605 2.43005ZM28.3305 0.630005V1.03003H25.2505V0.630005H28.3305Z" fill="white"/>
<path d="M31.61 5.02002L32.64 4.84998L32.66 5.19995C31.81 5.36995 30.92 5.54001 30.36 5.64001C30.36 5.69001 30.32 5.71998 30.27 5.72998L30.13 5.27002C30.43 5.23002 30.81 5.15998 31.22 5.09998V3.26001H30.19V2.89001H31.22V2.18994H30.54V2.05005C30.47 2.12005 30.4 2.20002 30.33 2.27002C30.26 2.18002 30.13 2.05 30.04 2C30.59 1.47 31.02 0.78001 31.24 0.26001L31.75 0.339966C31.75 0.339966 31.7 0.410034 31.63 0.410034C32.03 0.730034 32.48 1.15994 32.71 1.43994C32.57 1.60994 32.51 1.69002 32.46 1.77002C32.25 1.49002 31.83 1.08001 31.45 0.76001C31.26 1.09001 31.02 1.46996 30.73 1.82996H32.33V2.18994H31.6V2.89001H32.58V3.26001H31.6V5.03003L31.61 5.02002ZM30.62 4.83997C30.6 4.51997 30.49 4.04004 30.36 3.67004L30.66 3.58997C30.8 3.95997 30.91 4.44 30.94 4.75L30.62 4.83997ZM32.58 3.68005C32.58 3.68005 32.52 3.73999 32.45 3.73999C32.37 4.03999 32.22 4.49003 32.09 4.78003L31.82 4.67004C31.94 4.37004 32.09 3.87003 32.17 3.53003L32.59 3.67004L32.58 3.68005ZM33.71 0.75C33.71 0.75 33.65 0.810059 33.58 0.810059C33.41 1.30006 33.12 1.83004 32.82 2.17004C32.74 2.10004 32.6 1.99995 32.5 1.94995C32.79 1.63995 33.06 1.11999 33.23 0.609985L33.71 0.75ZM35.54 2.21997V5.47998C35.54 5.93998 35.32 5.97997 34.48 5.96997C34.47 5.85997 34.41 5.68995 34.34 5.56995C34.52 5.56995 34.7 5.57996 34.82 5.57996C35.1 5.57996 35.13 5.57996 35.13 5.45996V4.69995H33.31V5.95996H32.91V2.20996H33.98V0.22998L34.51 0.27002C34.51 0.27002 34.47 0.339976 34.39 0.349976V2.20996H35.54V2.21997ZM35.14 2.59998H33.32V3.29004H35.14V2.59998ZM33.32 4.34998H35.14V3.65002H33.32V4.34998ZM35.57 2.09998C35.43 1.73998 35.07 1.18002 34.73 0.77002L35.06 0.599976C35.4 0.999976 35.77 1.55003 35.92 1.91003L35.57 2.10999V2.09998Z" fill="white"/>
<path d="M37.8008 0.51001H43.0108V5.97998H42.6108V5.72998H38.1908V5.97998H37.8008V0.51001ZM38.1908 5.35999H42.6108V0.859985H38.1908V5.35999ZM41.4108 3.72998C41.4108 3.72998 41.3708 3.79005 41.2908 3.80005V4H42.2708V4.27002H41.2908V4.78003C41.2908 5.10003 41.1708 5.14 40.4008 5.13C40.3808 5.04 40.3108 4.92999 40.2708 4.85999C40.4108 4.85999 40.5308 4.85999 40.6308 4.85999C40.9008 4.85999 40.9308 4.86002 40.9308 4.77002V4.27002H38.5308V4H40.9308V3.68994L41.4108 3.71997V3.72998ZM42.0508 3.88C41.9808 3.81 41.8708 3.73002 41.7608 3.65002C40.6508 3.69002 39.5008 3.71998 38.7708 3.72998C38.7608 3.77998 38.7208 3.80006 38.6808 3.81006L38.5808 3.45996C39.0108 3.45996 39.5708 3.45995 40.1908 3.44995V3.12H38.8808V1.85999H40.1908V1.58997H38.5808V1.31995H40.1908V0.98999L40.6608 1.02002C40.6608 1.02002 40.6208 1.08998 40.5508 1.09998V1.31995H42.2008V1.58997H40.5508V1.85999H41.9308V3.12H41.4108C41.7408 3.29 42.1108 3.51994 42.3108 3.68994L42.0608 3.88H42.0508ZM39.7508 5.05005C39.6308 4.87005 39.3808 4.61005 39.1508 4.43005L39.4208 4.28003C39.6508 4.45003 39.9108 4.7 40.0308 4.88L39.7508 5.05005ZM39.2208 2.09998V2.38H40.2008V2.09998H39.2208ZM39.2208 2.89001H40.2008V2.60999H39.2208V2.89001ZM41.5808 2.09998H40.5508V2.38H41.5808V2.09998ZM41.5808 2.89001V2.60999H40.5508V2.89001H41.5808ZM40.5508 3.12V3.43994L41.4108 3.42004C41.2908 3.35004 41.1608 3.27997 41.0408 3.21997L41.1908 3.12H40.5508Z" fill="white"/>
<path d="M49.1209 1.81995C49.2009 2.29995 49.3109 2.76004 49.4509 3.17004C49.7509 2.90004 50.0909 2.56005 50.3009 2.30005L50.6809 2.57996C50.6809 2.57996 50.6109 2.62 50.5509 2.62C50.3109 2.87 49.9009 3.22999 49.5809 3.48999C49.8509 4.13999 50.2209 4.67999 50.7209 4.98999C50.6309 5.06999 50.5009 5.20995 50.4409 5.31995C49.5509 4.67995 49.0609 3.44004 48.8109 1.92004C48.6309 2.11004 48.4109 2.28996 48.1909 2.45996C48.9209 3.07996 49.2309 4.05004 49.2309 4.79004C49.2309 5.35004 49.0709 5.97998 48.3809 5.97998C48.2709 5.97998 48.1209 5.97996 47.9509 5.95996C47.9509 5.85996 47.9209 5.68996 47.8609 5.57996C48.0309 5.59996 48.1909 5.59998 48.3009 5.59998C48.4309 5.59998 48.5409 5.58997 48.6409 5.46997C48.7609 5.34997 48.8309 5.09001 48.8309 4.76001C48.8309 4.58001 48.8109 4.38005 48.7609 4.18005C48.2409 4.74005 47.4509 5.32 46.7609 5.62C46.7009 5.52 46.6009 5.39006 46.5109 5.31006C47.2609 5.02006 48.1709 4.38003 48.6509 3.78003C48.5909 3.61003 48.5109 3.45004 48.4209 3.29004C48.0609 3.62004 47.5609 3.98997 47.1609 4.21997C47.1209 4.13997 47.0309 4.01995 46.9409 3.94995C46.8309 4.49995 46.4409 4.50999 45.9509 4.48999C45.9509 4.38999 45.9009 4.22 45.8409 4.13C45.9309 4.14 46.0309 4.15002 46.1109 4.15002C46.3509 4.15002 46.5909 4.15 46.5909 3.63C46.5909 3.28 46.4209 2.86 45.9409 2.37C46.1409 1.9 46.3309 1.33001 46.4709 0.890015H45.5909V5.97998H45.2109V0.51001H46.6609L46.7309 0.48999L46.9909 0.650024C46.9909 0.650024 46.9609 0.689961 46.9409 0.709961C46.7809 1.17996 46.5409 1.79995 46.3309 2.31995C46.8109 2.82995 46.9709 3.26002 46.9709 3.65002C46.9709 3.74002 46.9709 3.83003 46.9509 3.91003C47.3609 3.71003 47.9009 3.35003 48.2309 3.03003C48.1309 2.90003 48.0209 2.78003 47.8909 2.66003C47.6009 2.85003 47.3109 3.02003 47.0209 3.16003C46.9609 3.09003 46.8509 2.94 46.7709 2.88C47.3309 2.63 47.9409 2.24995 48.3809 1.81995H46.9009V1.45996H47.8309C47.7609 1.17996 47.5709 0.759941 47.3709 0.439941L47.7109 0.300049C47.9209 0.620049 48.1209 1.02995 48.2009 1.31995L47.8809 1.44995H49.4009C49.3009 1.40995 49.1509 1.33997 49.1409 1.33997C49.3409 1.03997 49.5909 0.57 49.7209 0.25L50.2109 0.430054C50.2109 0.430054 50.1409 0.48999 50.0809 0.48999C49.9309 0.76999 49.7009 1.17996 49.4909 1.45996H50.6309V1.81995H49.1209Z" fill="white"/>
<path d="M52.4707 3.37988H54.1607V3.77991H52.4707V3.37988Z" fill="white"/>
<path d="M56.2808 2C56.6708 2.15 57.1508 2.42 57.3908 2.62L57.1508 2.95996C56.9208 2.74996 56.4408 2.47005 56.0508 2.30005L56.2808 2ZM56.2008 5.66003C56.5008 5.16003 56.9308 4.32999 57.2408 3.60999L57.5608 3.83997C57.2808 4.50997 56.8908 5.29002 56.6108 5.77002C56.6308 5.80002 56.6408 5.82999 56.6408 5.85999C56.6408 5.88999 56.6408 5.91005 56.6208 5.93005L56.1908 5.65002L56.2008 5.66003ZM57.4108 1.31995C57.1808 1.09995 56.7208 0.799985 56.3208 0.609985L56.5608 0.310059C56.9408 0.490059 57.4208 0.76999 57.6508 0.98999L57.4008 1.31995H57.4108ZM61.7908 0.52002V0.910034H59.4408C59.3808 1.20003 59.3208 1.52005 59.2608 1.80005H60.0108C60.0108 2.17005 60.0008 3.18003 59.9908 3.66003L60.1508 3.48999C60.4808 3.65999 60.9008 3.93 61.1208 4.13V1.69995L61.6208 1.73999C61.6208 1.73999 61.5808 1.80995 61.5008 1.81995V5.97998H61.1208V5.68005H58.1908V5.98999H57.8108V1.69995L58.3108 1.73999C58.3108 1.73999 58.2708 1.80995 58.1908 1.81995V5.31995H61.1208V4.16003L60.9108 4.41003C60.7208 4.22003 60.3208 3.95 59.9908 3.75C59.9508 4.96 59.9008 5.03003 59.2708 5.03003C59.1708 5.03003 59.0708 5.03003 58.9508 5.03003C58.9408 4.93003 58.9108 4.78995 58.8608 4.69995C59.0908 4.70995 59.2908 4.70996 59.3908 4.70996C59.4508 4.70996 59.4908 4.69001 59.5208 4.64001C59.6008 4.51001 59.6308 3.91002 59.6508 2.15002H59.1808L59.1308 2.34998C58.9308 2.29998 58.8508 2.29003 58.7708 2.28003C58.8708 1.92003 58.9808 1.38004 59.0608 0.920044H57.5708V0.530029H61.7908V0.52002ZM59.4208 3.82996C59.0908 4.02996 58.7608 4.24 58.5408 4.37C58.5408 4.41 58.5208 4.45998 58.4808 4.47998L58.2608 4.10999C58.5308 3.96999 58.9208 3.75003 59.3208 3.53003L59.4208 3.82996ZM58.6308 2.45996C58.8608 2.65996 59.1208 2.94001 59.2408 3.14001L58.9808 3.34998C58.8608 3.14998 58.6008 2.85002 58.3708 2.65002L58.6308 2.45996ZM61.0808 2.65002C61.0808 2.65002 61.0108 2.69005 60.9608 2.68005C60.8108 2.85005 60.5508 3.12004 60.3508 3.29004L60.1208 3.08997C60.3108 2.89997 60.5808 2.57999 60.7308 2.35999L61.0808 2.64001V2.65002Z" fill="white"/>
<path d="M69.1709 4.37H66.7909C67.2009 5.12 68.0209 5.48999 69.2509 5.60999C69.1609 5.69999 69.0509 5.87999 69.0009 5.98999C67.6509 5.80999 66.8009 5.34 66.3609 4.37H66.2909C65.9909 5.18 65.3309 5.71999 63.6709 5.98999C63.6409 5.87999 63.5309 5.71 63.4609 5.62C64.9009 5.41 65.5409 5.01 65.8409 4.37H63.5309V3.98999H65.9709C66.0309 3.79999 66.0609 3.6 66.0909 3.38H63.5609V3H66.1209V2.43994H64.1709V2.07996H66.1209V1.54004H63.8409V1.16003H65.1809C65.0909 0.930034 64.8809 0.620034 64.6809 0.410034L65.0309 0.26001C65.2709 0.49001 65.5009 0.830059 65.5909 1.06006L65.3709 1.16003H67.1709C67.1109 1.13003 67.0509 1.09997 67.0009 1.08997C67.1909 0.869966 67.4409 0.51001 67.5709 0.26001L68.0609 0.449951C68.0609 0.449951 68.0009 0.5 67.9409 0.5C67.8009 0.69 67.5909 0.960034 67.4009 1.16003H68.8509V1.54004H66.5309V2.07996H68.5309V2.43994H66.5309V3H69.1109V3.38H66.6309C66.6309 3.38 66.5709 3.43995 66.5109 3.44995C66.4809 3.63995 66.4509 3.81999 66.4009 3.98999H69.1609V4.37H69.1709Z" fill="white"/>
<path d="M76.49 4.38V4.72998H73.95V5.53003C73.95 5.97003 73.77 5.97998 72.7 5.97998C72.68 5.86998 72.61 5.73 72.56 5.62C72.79 5.62 73.01 5.63 73.17 5.63C73.5 5.63 73.54 5.63001 73.54 5.51001V4.71997H71V4.37H73.54V3.98999L73.86 4.01001C74.13 3.89001 74.41 3.73996 74.64 3.57996H72.11V3.26001H75.08L75.15 3.22998L75.46 3.43994C75.46 3.43994 75.4 3.47999 75.37 3.48999C75.01 3.75999 74.46 4.07002 73.95 4.27002V4.35999H76.49V4.38ZM71.5 2.81995V3.60999H71.1V2.48999H71.6L71.48 0.530029L71.81 0.619995C72.1 0.529995 72.43 0.409946 72.64 0.319946L72.91 0.599976C72.91 0.599976 72.87 0.619995 72.84 0.619995C72.83 0.619995 72.81 0.619995 72.8 0.619995C72.57 0.699995 72.19 0.810005 71.88 0.880005L71.9 1.16003H72.85V1.45996H71.92L71.94 1.81995H72.88V2.12H71.96L71.98 2.48999H75.51L75.55 2.12H74.6V1.81995H75.57L75.6 1.45996H74.63V1.16003H75.62L75.64 0.800049H74.6V0.5H76.04C76.01 1.14 75.95 1.93999 75.9 2.48999H76.39V3.60999H75.98V2.81995H71.47H71.5ZM74.43 0.449951C74.43 0.449951 74.37 0.51 74.31 0.5C74.22 0.6 74.13 0.700049 74.01 0.800049C74.15 0.900049 74.27 0.999956 74.36 1.07996L74.14 1.29004C74.05 1.20004 73.92 1.08998 73.78 0.97998C73.58 1.12998 73.37 1.25999 73.17 1.35999C73.12 1.29999 73.02 1.21003 72.95 1.16003C73.14 1.07003 73.35 0.940059 73.53 0.810059C73.39 0.720059 73.25 0.640059 73.12 0.560059L73.34 0.369995C73.48 0.439995 73.62 0.519985 73.77 0.609985C73.87 0.519985 73.97 0.410059 74.05 0.310059L74.43 0.439941V0.449951ZM73.39 1.44995C73.53 1.51995 73.67 1.59995 73.81 1.69995C73.93 1.58995 74.04 1.46998 74.13 1.34998L74.51 1.48999C74.51 1.48999 74.44 1.54003 74.39 1.53003C74.3 1.64003 74.19 1.74999 74.06 1.85999C74.21 1.96999 74.34 2.08005 74.44 2.18005L74.22 2.38C74.13 2.28 73.99 2.16005 73.83 2.05005C73.63 2.20005 73.41 2.33994 73.21 2.43994C73.16 2.38994 73.06 2.28999 72.99 2.23999C73.19 2.14999 73.4 2.02 73.59 1.88C73.45 1.79 73.31 1.7 73.18 1.63L73.4 1.44995H73.39Z" fill="white"/>
<path d="M83.8401 1.15002H79.0501V2.66003C79.0501 3.63003 78.9701 5.03998 78.4501 5.97998C78.3801 5.90998 78.2201 5.79 78.1201 5.75C78.6101 4.85 78.6601 3.58003 78.6601 2.66003V0.780029H81.0001V0.23999L81.5501 0.280029C81.5501 0.280029 81.5101 0.349995 81.4301 0.369995V0.780029H83.8401V1.14001V1.15002ZM81.0901 5.43005C81.0901 5.43005 81.0301 5.45997 80.9701 5.46997C80.6201 5.65997 79.9301 5.88 79.3801 6C79.3201 5.92 79.2001 5.78997 79.1201 5.71997C79.6701 5.60997 80.3701 5.39996 80.7101 5.20996L81.0901 5.43994V5.43005ZM79.2802 2.89001H83.8601V3.18994H81.6601V3.52002H83.2802V5.10999H79.7001V3.52002H81.2601V3.18994H79.2802V2.89001ZM82.6401 2.60999H80.3301V1.92004H79.3701V1.63H80.3301V1.22998L80.8501 1.26001C80.8501 1.26001 80.8101 1.32998 80.7301 1.34998V1.63H82.2401V1.22998L82.7701 1.26001C82.7701 1.26001 82.7301 1.32998 82.6501 1.34998V1.63H83.8101V1.92004H82.6501V2.60999H82.6401ZM80.0801 3.78003V4.18994H81.2601V3.78003H80.0801ZM80.0801 4.43005V4.84998H81.2601V4.43005H80.0801ZM82.2401 1.92004H80.7301V2.33997H82.2401V1.92004ZM82.8801 3.78003H81.6601V4.18994H82.8801V3.78003ZM82.8801 4.84998V4.43005H81.6601V4.84998H82.8801ZM83.4701 6C83.1101 5.83 82.5101 5.61995 81.8901 5.44995L82.1701 5.20996C82.7701 5.36996 83.4401 5.58 83.8401 5.75L83.4601 6H83.4701Z" fill="white"/>
<path d="M88.5301 2.62H91.1201V3.02002H85.54V2.62H88.1V1.56995H86.7401C86.5701 1.91995 86.3901 2.25 86.2001 2.5C86.1101 2.43 85.9501 2.33003 85.8401 2.28003C86.2101 1.83003 86.5501 1.05006 86.7501 0.310059L87.2701 0.449951C87.2701 0.449951 87.2201 0.52002 87.1401 0.52002C87.0701 0.74002 86.99 0.959941 86.91 1.18994H88.1V0.25L88.6501 0.290039C88.6501 0.290039 88.6101 0.360005 88.5301 0.380005V1.19995H90.6401V1.57996H88.5301V2.63V2.62ZM86.47 5.98999V3.62H90.22V5.98999H89.79V5.73999H86.8901V6H86.47V5.98999ZM89.79 4.01001H86.8901V5.33997H89.79V4.01001Z" fill="white"/>
<path d="M94.8704 0.47998V5.47998C94.8704 5.97998 94.6005 5.98999 93.8405 5.98999C93.8205 5.87999 93.7704 5.69997 93.7104 5.58997C93.8604 5.58997 94.0104 5.58997 94.1204 5.58997C94.4404 5.58997 94.4804 5.58997 94.4804 5.46997V3.83997H93.5104C93.4604 4.58997 93.3305 5.37999 93.0305 5.98999C92.9605 5.91999 92.7904 5.82004 92.6904 5.79004C93.1204 4.91004 93.1604 3.64998 93.1604 2.72998V0.47998H94.8604H94.8704ZM93.5504 2.72998C93.5504 2.94998 93.5504 3.18995 93.5404 3.44995H94.4804V2.34998H93.5504V2.73999V2.72998ZM94.4804 0.880005H93.5504V1.94995H94.4804V0.880005ZM96.0204 0.869995V1.25C96.0204 1.79 95.8804 2.45002 95.2204 2.90002C95.1604 2.82002 95.0004 2.67 94.9204 2.62C95.5304 2.22 95.6204 1.67999 95.6204 1.23999V0.469971H97.5704V2.08997C97.5704 2.22997 97.5804 2.23999 97.6904 2.23999H98.0204C98.1204 2.23999 98.1504 2.16003 98.1604 1.53003C98.2504 1.60003 98.4104 1.66005 98.5104 1.68005C98.4704 2.42005 98.3804 2.59998 98.0604 2.59998H97.6304C97.2704 2.59998 97.1704 2.48997 97.1704 2.08997V0.849976H96.0204V0.869995ZM97.8304 2.98999L98.1004 3.10999C98.1004 3.10999 98.0704 3.16004 98.0404 3.17004C97.8204 3.86004 97.4604 4.43 97.0004 4.88C97.4304 5.23 97.9505 5.49001 98.5305 5.64001C98.4305 5.72001 98.3104 5.89 98.2404 6C97.6604 5.82 97.1404 5.53003 96.6904 5.16003C96.2304 5.54003 95.7104 5.81 95.1604 6C95.1104 5.9 95.0104 5.72001 94.9204 5.64001C95.4404 5.49001 95.9504 5.23001 96.3904 4.89001C96.0104 4.50001 95.7004 4.04001 95.4804 3.51001L95.8104 3.39001H95.2104V3H97.7504L97.8304 2.97998V2.98999ZM95.8604 3.40002C96.0504 3.86002 96.3404 4.27 96.7004 4.62C97.0504 4.28 97.3405 3.87002 97.5305 3.40002H95.8604Z" fill="white"/>
<path d="M100.89 2.57996C100.69 2.93996 100.48 3.28006 100.26 3.56006C100.2 3.47006 100.08 3.30998 99.9902 3.22998C100.55 2.53998 101.1 1.38 101.44 0.25L101.95 0.410034C101.95 0.410034 101.88 0.479971 101.8 0.469971C101.64 0.959971 101.44 1.46005 101.22 1.93005L101.42 1.98999C101.42 1.98999 101.38 2.06006 101.3 2.06006V5.98999H100.89V2.58997V2.57996ZM103.08 1.06006C103.08 1.06006 103.02 1.13 102.96 1.13C102.74 1.74 102.31 2.53004 101.79 3.04004C101.73 2.95004 101.61 2.81999 101.54 2.73999C102.02 2.27999 102.4 1.53004 102.59 0.920044L103.08 1.06006ZM104.85 2.75H105.08C105.08 2.81 105.08 2.86003 105.07 2.91003C105.01 4.90003 104.97 5.57004 104.8 5.79004C104.64 5.99004 104.48 5.98999 104.16 5.98999C104.02 5.98999 103.86 5.98998 103.69 5.97998C103.69 5.84998 103.64 5.67995 103.57 5.56995C103.85 5.58995 104.11 5.58997 104.22 5.58997C104.32 5.58997 104.37 5.58001 104.42 5.51001C104.54 5.37001 104.59 4.77 104.64 3.13H103.47C103.37 4.19 103.06 5.34999 101.94 5.98999C101.89 5.89999 101.77 5.75005 101.69 5.68005C102.7 5.13005 102.97 4.14 103.06 3.13H102.16V2.75H104.84H104.85ZM102.94 0.430054H104.63C104.81 1.39005 105.28 2.25003 105.88 2.66003C105.78 2.73003 105.64 2.88999 105.57 2.98999C104.98 2.52999 104.53 1.71005 104.32 0.800049H102.96V0.420044L102.94 0.430054Z" fill="white"/>
<path d="M112.93 1.46997H109.56C109.44 1.72997 109.31 1.97998 109.17 2.22998H112.15V5.43994C112.15 5.95994 111.9 5.97998 110.8 5.97998C110.78 5.85998 110.72 5.67995 110.66 5.56995C110.88 5.56995 111.08 5.56995 111.25 5.56995C111.7 5.56995 111.74 5.57005 111.74 5.43005V4.72998H109.13V5.97998H108.72V2.92004C108.41 3.34004 108.04 3.72003 107.61 4.03003C107.55 3.94003 107.42 3.77995 107.33 3.69995C108.1 3.15995 108.68 2.34998 109.08 1.47998H107.46V1.07996H109.26C109.37 0.809956 109.46 0.53001 109.53 0.26001L110.07 0.400024C110.07 0.400024 110.01 0.469971 109.93 0.469971C109.87 0.669971 109.8 0.879966 109.72 1.08997H112.93V1.48999V1.46997ZM111.74 3.30005V2.60999H109.13V3.30005H111.74ZM109.13 4.37H111.74V3.67004H109.13V4.37Z" fill="white"/>
<path d="M116.52 0.5L116.8 0.670044C116.8 0.670044 116.77 0.70998 116.74 0.72998C116.56 1.20998 116.3 1.83997 116.06 2.33997C116.58 2.84997 116.77 3.27005 116.77 3.68005C116.77 4.58005 116.17 4.56004 115.65 4.54004C115.65 4.43004 115.6 4.27004 115.55 4.17004C115.72 4.18004 115.88 4.18005 115.99 4.18005C116.08 4.17005 116.15 4.14999 116.22 4.10999C116.33 4.04999 116.38 3.87005 116.38 3.68005C116.38 3.49005 116.37 3.05001 115.66 2.39001C115.88 1.92001 116.1 1.33002 116.25 0.900024H115.25V5.98999H114.86V0.52002H116.45L116.52 0.5ZM118.63 3.29004C118.72 3.62004 118.85 3.93998 118.99 4.22998C119.29 3.99998 119.63 3.67994 119.84 3.43994L120.22 3.73999C120.22 3.73999 120.15 3.78002 120.1 3.77002C119.87 4.00002 119.48 4.31004 119.17 4.54004C119.47 5.03004 119.87 5.4 120.37 5.63C120.28 5.71 120.15 5.85998 120.09 5.97998C119.16 5.50998 118.57 4.54006 118.26 3.31006H117.55V5.29004L118.74 5.04004L118.77 5.41003C118 5.59003 117.19 5.78001 116.68 5.89001C116.68 5.93001 116.64 5.96998 116.6 5.97998L116.42 5.51001C116.62 5.47001 116.87 5.42 117.14 5.37V0.550049H119.94V3.31995H118.63V3.29004ZM119.53 0.890015H117.55V1.69995H119.53V0.890015ZM117.55 2.06006V2.91003H119.53V2.06006H117.55Z" fill="white"/>
<path d="M124.181 0.620117C124.181 0.620117 124.111 0.680176 124.041 0.680176C123.631 1.61018 122.981 2.55015 122.321 3.15015C122.231 3.06015 122.071 2.93012 121.961 2.87012C122.621 2.32012 123.261 1.38006 123.641 0.440063L124.181 0.620117ZM124.831 2.67017C124.831 2.67017 124.761 2.75012 124.681 2.75012C124.391 3.48012 123.931 4.47009 123.521 5.22009C124.391 5.20009 125.421 5.16012 126.421 5.12012C126.121 4.70012 125.781 4.25013 125.471 3.88013L125.861 3.69006C126.431 4.34006 127.091 5.22015 127.401 5.78015L126.991 6.01013C126.911 5.86013 126.801 5.6801 126.671 5.4801C125.121 5.5701 123.471 5.64018 122.451 5.68018C122.441 5.73018 122.391 5.76014 122.351 5.77014L122.181 5.25012L123.061 5.2301C123.491 4.4601 123.991 3.33013 124.271 2.51013L124.841 2.66016L124.831 2.67017ZM125.811 0.430176C126.241 1.26018 127.031 2.27017 127.611 2.80017C127.501 2.89017 127.351 3.04015 127.261 3.15015C126.681 2.56015 125.881 1.4801 125.401 0.600098L125.801 0.430176H125.811Z" fill="white"/>
<path d="M134.431 0.660156V5.39014C134.431 5.98014 134.181 6.00012 132.991 6.00012C132.971 5.88012 132.901 5.67016 132.841 5.54016C133.061 5.54016 133.281 5.55017 133.461 5.55017C133.981 5.55017 134.001 5.55014 134.001 5.39014V1.06018H129.471V0.660156H134.431ZM133.271 1.72009V2.1001H129.481V1.72009H133.271ZM132.631 2.76013V4.8501H130.311V5.43018H129.901V2.76013H132.621H132.631ZM132.221 3.13013H130.311V4.4801H132.221V3.13013Z" fill="white"/>
<path d="M2.70053 9.84009L2.94052 9.92017C2.94052 9.92017 2.92051 9.98011 2.90051 9.99011C2.80051 10.8201 2.63051 11.5201 2.37051 12.0701C2.99051 12.6801 3.86051 12.8201 4.93051 12.8201C5.16051 12.8201 6.54052 12.8201 6.84052 12.8201C6.77052 12.9201 6.70053 13.1101 6.67053 13.2301H4.92053C3.75053 13.2301 2.85051 13.0701 2.18051 12.4501C1.95051 12.8601 1.66051 13.1802 1.33051 13.4102C1.27051 13.3202 1.11051 13.1801 1.02051 13.1201C1.37051 12.8901 1.66051 12.5601 1.90051 12.1301C1.66051 11.8101 1.46052 11.4101 1.31052 10.8901L1.64053 10.7501C1.76053 11.1501 1.90052 11.4701 2.09052 11.7401C2.26052 11.3101 2.39052 10.8101 2.47052 10.2301H1.68051L1.55051 10.4801L1.17053 10.3701C1.49053 9.78012 1.87052 8.99006 2.13052 8.44006H1.07053V8.06018H2.37051L2.45053 8.04016L2.72052 8.15015C2.72052 8.15015 2.69053 8.2101 2.67053 8.2301C2.48053 8.6301 2.18051 9.25009 1.87051 9.84009H2.70053ZM4.53052 9.8501V9.36011H2.78052V9.01013H4.53052V8.52014H3.26053V8.18018H4.53052V7.62012L5.05051 7.66016C5.05051 7.66016 5.01051 7.73011 4.93051 7.74011V8.18018H6.29053V9.01013H6.79053V9.36011H6.29053V10.1901H4.93051V10.7001H6.39053V11.0302H4.93051V11.5402H6.67053V11.8901H4.93051V12.5801H4.52051V11.8901H2.85052V11.5402H4.52051V11.0302H3.12051V10.7001H4.52051V10.1901H3.21051V9.8501H4.52051H4.53052ZM4.94052 8.52014V9.01013H5.89053V8.52014H4.94052ZM5.89053 9.8501V9.36011H4.94052V9.8501H5.89053Z" fill="white"/>
<path d="M8.97009 10.1301V12.1501C9.45009 12.8801 10.3301 12.8801 11.4501 12.8801C12.1201 12.8801 12.9001 12.8601 13.3801 12.8301C13.3301 12.9301 13.2601 13.1301 13.2401 13.2501C12.8101 13.2701 12.1301 13.2802 11.5201 13.2802C10.2501 13.2802 9.40009 13.2801 8.78009 12.5101C8.48009 12.7801 8.1501 13.0601 7.8801 13.2701C7.8801 13.3301 7.8701 13.3501 7.8201 13.3701L7.58008 12.9102C7.88008 12.7102 8.24009 12.4302 8.56009 12.1602V10.5201H7.65009V10.1201H8.96008L8.97009 10.1301ZM8.05008 7.81018C8.46008 8.08018 8.9401 8.48016 9.1601 8.79016L8.83008 9.07007C8.63008 8.76007 8.16008 8.34018 7.74008 8.06018L8.05008 7.81018ZM13.2801 9.75012V10.1101H9.2601V9.75012H11.0901V8.8501H10.1901C10.0701 9.1301 9.92008 9.39008 9.77008 9.58008C9.68008 9.52008 9.5201 9.44014 9.4201 9.39014C9.7301 9.01014 9.99009 8.35009 10.1501 7.72009L10.6401 7.86011C10.6401 7.86011 10.5801 7.92017 10.5101 7.92017C10.4601 8.10017 10.4001 8.28009 10.3301 8.47009H11.0801V7.64014L11.6201 7.67017C11.6201 7.67017 11.5801 7.74013 11.5001 7.76013V8.47009H13.0101V8.84009H11.5001V9.74011H13.2801V9.75012ZM12.7601 12.4901H12.3501V12.2802H10.2701V12.5101H9.87009V10.5801H12.7501V12.4901H12.7601ZM10.2801 11.9102H12.3601V10.9302H10.2801V11.9102Z" fill="white"/>
<path d="M15.9904 11.0402L16.2104 11.0801L16.1904 11.2101C16.0904 12.5601 15.9904 13.0701 15.8204 13.2501C15.6804 13.4101 15.5004 13.4202 15.2604 13.4202C15.1304 13.4202 14.9704 13.4201 14.8104 13.4001C14.8104 13.2901 14.7604 13.1302 14.6904 13.0402C14.9604 13.0702 15.2004 13.0701 15.3004 13.0701C15.3904 13.0701 15.4504 13.0601 15.5004 13.0101C15.6204 12.8901 15.7104 12.4702 15.7904 11.4302H14.8804C14.8404 11.5802 14.8104 11.7201 14.7704 11.8401C14.4704 11.7801 14.4404 11.7701 14.3904 11.7701C14.5004 11.4301 14.6204 10.9201 14.7104 10.4901H14.1504V10.1201H16.5004V10.4901H15.1004C15.0604 10.6801 15.0104 10.8901 14.9604 11.0801H15.9804L15.9904 11.0402ZM16.2304 7.89014V9.61011H14.4604V7.89014H16.2304ZM15.8304 9.25012V8.24011H14.8204V9.25012H15.8304ZM17.0604 9.24011V10.4901C17.0604 11.3601 16.9704 12.5802 16.3904 13.4202C16.3204 13.3502 16.1704 13.2301 16.0704 13.1901C16.6104 12.4001 16.6704 11.3101 16.6704 10.5001V8.89014H17.9204V7.64014L18.4404 7.67017C18.4404 7.67017 18.4004 7.74013 18.3204 7.76013V8.09009H19.5904V8.44006H18.3204V8.88013H19.9004C19.9004 8.98013 19.7704 9.69015 19.6704 10.0302L19.3504 9.96008C19.3904 9.77008 19.4404 9.50011 19.4704 9.24011H17.0504H17.0604ZM18.1004 11.2501C18.1004 11.2501 18.0504 11.3201 17.9804 11.3301C17.9104 12.1401 17.7504 12.9201 17.0704 13.3701C17.0104 13.2801 16.9004 13.1501 16.8204 13.1001C17.4104 12.7201 17.5704 12.0101 17.6204 11.2001L18.1104 11.2401L18.1004 11.2501ZM18.3204 10.4501C18.3204 10.5801 18.3404 10.6001 18.5204 10.6001H19.1304C19.2704 10.6001 19.3004 10.5601 19.3204 10.1901C19.4004 10.2501 19.5404 10.3001 19.6504 10.3201C19.6104 10.8001 19.5104 10.9302 19.1804 10.9302H18.4804C18.0504 10.9302 17.9404 10.8401 17.9404 10.4701V10.1901L17.2704 10.2601L17.2304 9.95007L17.9504 9.88013V9.32007L18.4404 9.3501C18.4404 9.3501 18.4004 9.42018 18.3204 9.43018V9.84009L19.1204 9.76013L19.1604 10.0602L18.3304 10.1501V10.4701L18.3204 10.4501ZM18.9004 12.7201C18.9004 12.9101 18.9004 12.9601 19.0804 12.9601H19.3304C19.6104 12.9601 19.6104 12.9001 19.6304 12.2201C19.7004 12.2901 19.8304 12.3501 19.9304 12.3901C19.9104 13.0401 19.9104 13.2902 19.3604 13.2902H19.0104C18.8904 13.2902 18.7404 13.2601 18.6504 13.1901C18.5604 13.1201 18.5304 13.0202 18.5304 12.6702V11.1802L19.0304 11.2101C19.0304 11.2101 18.9904 11.2802 18.9104 11.2902V12.7201H18.9004Z" fill="white"/>
<path d="M22.8008 12.59H21.5808V13.11H21.2108V10.92C21.1108 11.15 20.9809 11.36 20.8509 11.54C20.8109 11.45 20.7009 11.2699 20.6309 11.1899C21.0609 10.5599 21.3509 9.48999 21.5109 8.35999H20.7609V7.97998H23.0409V8.35999H21.9008C21.8208 8.89999 21.7109 9.43004 21.5709 9.92004H22.8008V12.59ZM22.4308 10.29H21.5808V12.22H22.4308V10.29ZM23.5609 11.65C23.4909 12.19 23.3709 12.78 23.0709 13.12L22.7708 12.95C23.0508 12.64 23.1808 12.09 23.2408 11.58L23.5609 11.65ZM26.1409 10.87L26.3608 10.89C26.3608 10.89 26.3509 10.98 26.3509 11.03C26.2809 12.52 26.2009 13.06 26.0409 13.24C25.9209 13.39 25.7909 13.41 25.4709 13.41C25.3309 13.41 25.1608 13.41 24.9908 13.4C24.9808 13.29 24.9409 13.13 24.8809 13.03C25.1609 13.06 25.4209 13.0601 25.5109 13.0601C25.6109 13.0601 25.6608 13.05 25.7108 13C25.8208 12.88 25.8909 12.43 25.9509 11.25H23.3308V7.94995H26.2209V8.31995H25.0009V8.93005H26.0808V9.28003H25.0009V9.90002H26.0808V10.25H25.0009V10.89H26.1409V10.87ZM24.6208 8.31006H23.7108V8.92004H24.6208V8.31006ZM24.6208 9.89001V9.27002H23.7108V9.89001H24.6208ZM23.7108 10.24V10.88H24.6208V10.24H23.7108ZM23.9409 12.92C23.9409 12.6 23.9109 12.13 23.8409 11.76L24.1409 11.72C24.2109 12.09 24.2609 12.57 24.2609 12.87L23.9409 12.92ZM24.8008 12.6801C24.7608 12.4201 24.6409 12.01 24.5109 11.7L24.7909 11.63C24.9309 11.93 25.0509 12.33 25.1009 12.59L24.8008 12.6801ZM25.3708 11.46C25.5508 11.69 25.7409 12 25.8209 12.2L25.5709 12.3199C25.4909 12.1099 25.3109 11.7901 25.1409 11.5601L25.3708 11.45V11.46Z" fill="white"/>
<path d="M27.4004 10.0299C27.4004 9.79991 27.5504 9.62988 27.7604 9.62988C27.9704 9.62988 28.1204 9.79991 28.1204 10.0299C28.1204 10.2599 27.9804 10.4299 27.7604 10.4299C27.5304 10.4299 27.4004 10.2399 27.4004 10.0299ZM27.4004 12.5599C27.4004 12.3299 27.5504 12.1599 27.7604 12.1599C27.9704 12.1599 28.1204 12.3299 28.1204 12.5599C28.1204 12.7799 27.9804 12.9498 27.7604 12.9498C27.5304 12.9498 27.4004 12.7599 27.4004 12.5599Z" fill="white"/>
<path d="M30.1102 13.72C29.6702 13.15 29.2002 12.25 29.2002 10.89C29.2002 9.53001 29.6702 8.62003 30.1102 8.03003H30.5302C30.0202 8.72003 29.6502 9.62002 29.6502 10.9C29.6502 12.18 30.0302 13.03 30.5302 13.73H30.1102V13.72Z" fill="white"/>
<path d="M32.64 12.87V8.72998H32.63L31.87 9.17004L31.75 8.79004L32.71 8.25H33.15V12.87H32.65H32.64Z" fill="white"/>
<path d="M35.05 10.5698C35.05 8.94982 35.68 8.16992 36.54 8.16992C37.4 8.16992 37.9501 8.99989 37.9501 10.5099C37.9501 12.1199 37.39 12.9398 36.47 12.9398C35.63 12.9398 35.04 12.1098 35.04 10.5698H35.05ZM37.4401 10.5299C37.4401 9.37991 37.1601 8.57983 36.5101 8.57983C35.9601 8.57983 35.5701 9.30991 35.5701 10.5299C35.5701 11.7499 35.9101 12.5199 36.4901 12.5199C37.1801 12.5199 37.4401 11.6299 37.4401 10.5299Z" fill="white"/>
<path d="M39.3603 10.4202C39.5703 10.1102 39.9503 9.8501 40.4403 9.8501C41.2203 9.8501 41.7503 10.4401 41.7503 11.3301C41.7503 12.2201 41.2303 12.9501 40.3303 12.9501C39.4303 12.9501 38.8203 12.2001 38.8203 11.0101C38.8203 9.82013 39.4003 8.47009 40.9003 8.22009C41.0703 8.20009 41.2303 8.18018 41.3303 8.18018V8.61011C40.0503 8.61011 39.4403 9.54018 39.3403 10.4302H39.3603V10.4202ZM41.2303 11.3601C41.2303 10.6501 40.8503 10.2401 40.2903 10.2401C39.7303 10.2401 39.3303 10.7701 39.3303 11.1201C39.3303 11.9701 39.6903 12.5502 40.3403 12.5502C40.8803 12.5502 41.2303 12.0701 41.2303 11.3701V11.3601Z" fill="white"/>
<path d="M42.9005 8.02002C43.3405 8.59002 43.8105 9.49 43.8105 10.87C43.8105 12.25 43.3505 13.12 42.9005 13.72H42.4805C42.9805 13.03 43.3605 12.13 43.3605 10.87C43.3605 9.61 42.9805 8.73003 42.4805 8.03003H42.9005V8.02002Z" fill="white"/>
<path d="M46.2205 9.41992V9.83984C46.3905 10.0698 46.8605 10.7599 46.9705 10.9299C46.9305 10.9999 46.8805 11.0699 46.7405 11.2499C46.6505 11.0499 46.4105 10.6498 46.2205 10.3398V13.3999H45.8406V10.3599C45.6206 11.0799 45.3306 11.7898 45.0306 12.2098C44.9806 12.0998 44.8805 11.9399 44.8105 11.8499C45.2005 11.3299 45.5905 10.3098 45.7905 9.43982H44.9406V9.04993H45.8406V7.66992L46.3505 7.70984C46.3505 7.70984 46.3105 7.77992 46.2305 7.78992V9.04993H46.9606V9.43982H46.2305L46.2205 9.41992ZM46.7405 11.5099C47.0405 11.3199 47.4906 10.9899 47.9406 10.6599C47.9406 10.5199 47.9406 10.3799 47.9406 10.2399V7.66992L48.4506 7.69983C48.4506 7.69983 48.4106 7.76992 48.3306 7.78992V10.2499C48.3306 11.3699 48.2106 12.6999 46.8906 13.4199C46.8406 13.3399 46.7206 13.1899 46.6306 13.1099C47.5606 12.6699 47.8305 11.8698 47.9105 11.0798C47.5805 11.3598 47.2606 11.6299 47.0306 11.8099C47.0306 11.8599 47.0105 11.8999 46.9805 11.9299L46.7305 11.5199L46.7405 11.5099ZM47.2505 8.60986C47.4805 9.00986 47.7406 9.53988 47.8406 9.87988L47.5106 10.0299C47.4106 9.67991 47.1706 9.13987 46.9506 8.73987L47.2606 8.59985L47.2505 8.60986ZM49.3705 12.6699C49.3705 12.8999 49.4005 12.9398 49.5605 12.9398H50.1205C50.2605 12.9398 50.2905 12.7699 50.3005 12.1599C50.4005 12.2299 50.5505 12.2998 50.6605 12.3298C50.6205 13.0598 50.5206 13.3198 50.1506 13.3198H49.5106C49.1006 13.3198 48.9805 13.1899 48.9805 12.6699V7.66992L49.5005 7.69983C49.5005 7.69983 49.4606 7.76992 49.3806 7.78992V10.6898L49.5706 10.5199C49.9506 10.8499 50.4305 11.2998 50.6605 11.5898L50.4006 11.8599C50.1806 11.5799 49.7606 11.1398 49.3906 10.8198V12.6898L49.3705 12.6699ZM50.6005 8.7699C50.6005 8.7699 50.5305 8.81982 50.4705 8.81982C50.3005 9.17982 50.0106 9.6899 49.7806 10.0199C49.7806 10.0199 49.4805 9.86986 49.4805 9.85986C49.7105 9.50986 49.9906 8.94993 50.1506 8.54993L50.6005 8.7699Z" fill="white"/>
<path d="M57.0909 8.53992V8.94983H54.5009H54.5909C54.5909 8.98983 54.5509 9.01992 54.4709 9.03992V9.83984H56.4909V12.0698C56.4909 12.5598 56.2909 12.5898 55.1309 12.5898C55.1109 12.4698 55.0409 12.2899 54.9809 12.1799C55.4209 12.1899 55.8009 12.1898 55.9209 12.1898C56.0309 12.1798 56.0609 12.1498 56.0609 12.0698V10.2499H54.4609V13.4199H54.0309V10.2499H52.5309V12.6199H52.1109V9.83984H54.0309V8.94983H51.4609V8.53992H54.0309V7.62988L54.5909 7.65991C54.5909 7.65991 54.5509 7.73988 54.4609 7.74988V8.52991H57.0809L57.0909 8.53992Z" fill="white"/>
<path d="M59.6404 9.59009H59.9304C60.3204 9.10009 60.6503 8.55007 60.9103 7.95007L61.3804 8.11011C61.3804 8.11011 61.3103 8.18017 61.2303 8.17017C61.0003 8.68017 60.7204 9.15008 60.4004 9.58008H61.2004V9.95007H60.1003C59.9003 10.2001 59.6704 10.4301 59.4404 10.6401H60.8804V13.3002H60.4803V13.0502H59.0104V13.4102H58.6204V11.2701C58.4504 11.3801 58.2803 11.4801 58.1003 11.5801C58.0503 11.5001 57.9304 11.3501 57.8604 11.2701C58.1304 11.1301 58.3804 10.9802 58.6204 10.8102V10.6501H58.8404C59.1004 10.4501 59.3504 10.2101 59.5904 9.96008H57.9504V9.59009H59.2303V8.76013H58.2404V8.39014H59.2303V7.66016L59.7404 7.69006C59.7404 7.69006 59.7004 7.76015 59.6204 7.78015V8.39014H60.4203V8.76013H59.6204V9.59009H59.6404ZM60.5004 11.6802V11.0001H59.0304V11.6802H60.5004ZM59.0304 12.7001H60.5004V12.0101H59.0304V12.7001ZM61.4504 8.01013H63.3204C63.3904 7.99013 63.3903 7.99011 63.4103 7.99011C63.4403 8.01011 63.4704 8.03013 63.6804 8.13013C63.6804 8.15013 63.6504 8.18006 63.6204 8.19006C63.3904 8.72006 63.0704 9.39017 62.7404 10.0502C63.3904 10.6902 63.6603 11.1601 63.6603 11.6101C63.6603 12.5901 63.0103 12.5901 62.6003 12.5901C62.5003 12.5901 62.4104 12.5901 62.3204 12.5901C62.3204 12.4701 62.2604 12.2902 62.1804 12.1802C62.3504 12.1902 62.5104 12.2001 62.6504 12.2001C62.9204 12.2001 63.2504 12.2001 63.2504 11.6101C63.2504 11.2001 62.9604 10.7601 62.3004 10.1301C62.5904 9.51013 62.8604 8.91016 63.0604 8.41016H61.8604V13.3901H61.4504V8.01013Z" fill="white"/>
<path d="M66.1302 9.84009L66.3702 9.92017C66.3702 9.92017 66.3502 9.98011 66.3302 9.99011C66.2302 10.8201 66.0602 11.5201 65.8002 12.0701C66.4202 12.6801 67.2902 12.8201 68.3602 12.8201C68.5902 12.8201 69.9702 12.8201 70.2702 12.8201C70.2002 12.9201 70.1302 13.1101 70.1002 13.2301H68.3502C67.1802 13.2301 66.2802 13.0701 65.6102 12.4501C65.3802 12.8601 65.0902 13.1802 64.7602 13.4102C64.7002 13.3202 64.5402 13.1801 64.4502 13.1201C64.8002 12.8901 65.0902 12.5601 65.3302 12.1301C65.0902 11.8101 64.8902 11.4101 64.7402 10.8901L65.0702 10.7501C65.1902 11.1501 65.3402 11.4701 65.5202 11.7401C65.6902 11.3101 65.8202 10.8101 65.9002 10.2301H65.1102L64.9802 10.4801L64.6002 10.3701C64.9202 9.78012 65.3002 8.99006 65.5602 8.44006H64.5002V8.06018H65.8002L65.8802 8.04016L66.1502 8.15015C66.1502 8.15015 66.1202 8.2101 66.1002 8.2301C65.9102 8.6301 65.6102 9.25009 65.3002 9.84009H66.1302ZM67.9602 9.8501V9.36011H66.2102V9.01013H67.9602V8.52014H66.6902V8.18018H67.9602V7.62012L68.4802 7.66016C68.4802 7.66016 68.4402 7.73011 68.3602 7.74011V8.18018H69.7202V9.01013H70.2202V9.36011H69.7202V10.1901H68.3602V10.7001H69.8202V11.0302H68.3602V11.5402H70.1002V11.8901H68.3602V12.5801H67.9502V11.8901H66.2802V11.5402H67.9502V11.0302H66.5502V10.7001H67.9502V10.1901H66.6402V9.8501H67.9502H67.9602ZM68.3702 8.52014V9.01013H69.3202V8.52014H68.3702ZM69.3202 9.8501V9.36011H68.3702V9.8501H69.3202Z" fill="white"/>
<path d="M73.8208 9.33008V9.69006H71.0508V9.33008H72.2308V8.67017H71.3008V8.31018H72.2308V7.66016L72.7408 7.69006C72.7408 7.69006 72.7008 7.76015 72.6208 7.78015V8.32007H73.5808V8.68018H72.6208V9.34009H73.8208V9.33008ZM73.6408 12.1501H72.6108V13.3901H72.2208V12.1501H71.2108V11.7802H72.2208V11.0801H71.1108V10.7101H72.8908C72.8308 10.6901 72.7408 10.6501 72.7008 10.6301C72.8208 10.3801 72.9708 9.99009 73.0408 9.72009L73.4708 9.87012C73.4708 9.87012 73.4108 9.93018 73.3508 9.93018C73.2608 10.1502 73.1008 10.4901 72.9708 10.7101H73.7208V11.0801H72.6008V11.7802H73.6308V12.1501H73.6408ZM71.7408 10.7001C71.7208 10.4701 71.5908 10.0902 71.4608 9.80017L71.7708 9.72009C71.9108 9.99009 72.0408 10.3601 72.0708 10.6001L71.7408 10.7001ZM75.1508 7.67017C75.1508 7.73017 75.1008 7.76015 75.0108 7.78015C75.0108 8.16015 75.0108 8.53013 75.0108 8.88013H76.1808C76.1808 9.76013 76.1708 12.9701 76.4808 12.9701C76.5208 12.9701 76.5608 12.5601 76.5808 12.0701C76.6508 12.1601 76.7708 12.2901 76.8408 12.3301C76.8108 13.1301 76.6708 13.4001 76.4508 13.4001C75.8808 13.4001 75.8108 11.9601 75.7908 9.27014H75.0008C74.9908 9.84014 74.9508 10.3801 74.8708 10.8801C75.2008 11.1501 75.5108 11.4302 75.6808 11.6602L75.4308 11.9901C75.2808 11.7901 75.0508 11.5601 74.7808 11.3201C74.5808 12.2001 74.1908 12.9102 73.4808 13.4102C73.4208 13.3202 73.2808 13.1901 73.1808 13.1301C73.9008 12.6401 74.2608 11.9402 74.4408 11.0402C74.1908 10.8402 73.9308 10.6501 73.6908 10.5001C73.8608 10.2701 73.8908 10.2401 73.9208 10.2201C74.1108 10.3401 74.3208 10.4801 74.5108 10.6201C74.5708 10.2101 74.5908 9.76016 74.6008 9.29016H73.7408V8.90015H74.6108C74.6108 8.51015 74.6108 8.10017 74.6108 7.67017L75.1508 7.69006V7.67017Z" fill="white"/>
<path d="M78.8002 12.1399C78.6502 12.5999 78.3702 13.0999 78.0402 13.3999L77.6602 13.2299C77.9702 12.9599 78.2602 12.4899 78.4102 12.0399L78.8002 12.1399ZM78.3302 11.3398V11.7299H77.9402V7.92993H79.7202V11.3398H78.3302ZM79.3302 8.30994H78.3302V9.42993H79.3302V8.30994ZM78.3302 10.9698H79.3302V9.80994H78.3302V10.9698ZM79.6302 13.3499C79.6302 13.0599 79.5702 12.5798 79.5002 12.2098L79.8802 12.1699C79.9702 12.5299 80.0302 13.0099 80.0402 13.2899L79.6302 13.3499ZM83.0902 7.95984C83.0902 7.95984 83.0902 8.03983 83.0702 8.07983C82.9802 9.66983 82.8902 9.66992 82.2002 9.66992C82.0702 9.66992 81.9102 9.6699 81.7602 9.6499C81.7502 9.5499 81.7102 9.39993 81.6502 9.29993C81.9302 9.31993 82.2002 9.32983 82.3002 9.32983C82.4002 9.32983 82.4502 9.3199 82.4902 9.2699C82.5702 9.1899 82.6302 8.91992 82.6702 8.28992H81.5302C81.3902 9.00992 81.0802 9.55986 80.0802 9.85986C80.0402 9.76986 79.9302 9.61993 79.8502 9.54993C80.7002 9.31993 81.0002 8.89992 81.1202 8.28992H80.0802V7.91992H82.8702L83.0902 7.93982V7.95984ZM82.9102 10.0099V11.7198H80.2702V10.0099H82.9102ZM82.5002 11.3699V10.3599H80.6602V11.3699H82.5002ZM81.1702 13.3599C81.1102 13.0599 80.9502 12.5798 80.7802 12.2098L81.1702 12.1399C81.3402 12.4999 81.5202 12.9799 81.5802 13.2699L81.1702 13.3599ZM82.9102 13.4199C82.7602 13.0899 82.3902 12.5499 82.0802 12.1699L82.4602 12.0299C82.7802 12.4099 83.1502 12.9299 83.3202 13.2699L82.9102 13.4199Z" fill="white"/>
<path d="M89.7809 11.1501V11.5502H87.2209V12.8801C87.2209 13.3701 86.9209 13.3801 85.9009 13.3801C85.8709 13.2701 85.7909 13.1001 85.7209 12.9801C85.9709 12.9801 86.2109 12.9901 86.3809 12.9901C86.7609 12.9901 86.7809 12.9901 86.7809 12.8701V11.5402H84.2109V11.1401H86.7809V10.5701H86.9709C87.3009 10.3901 87.6609 10.1301 87.9309 9.88013H85.3709V9.50012H88.3509L88.4209 9.4801L88.7509 9.68018C88.7509 9.68018 88.6909 9.73011 88.6609 9.74011C88.3109 10.1001 87.7509 10.5301 87.2209 10.8301V11.1602H89.7809V11.1501ZM84.8509 8.82007V9.87012H84.4409V8.43018H86.7709V7.64014L87.3309 7.68018C87.3309 7.68018 87.2909 7.75014 87.2109 7.77014V8.44006H89.5809V9.88013H89.1609V8.83008H84.8609L84.8509 8.82007Z" fill="white"/>
<path d="M92.1204 9.30017C92.0804 9.10017 91.9604 8.80017 91.8404 8.55017H91.5604C91.3804 8.85017 91.1703 9.13009 90.9703 9.34009C90.8903 9.27009 90.7504 9.17012 90.6504 9.12012C91.0104 8.77012 91.3704 8.19012 91.5804 7.62012L92.0504 7.77014C92.0504 7.77014 91.9803 7.83008 91.9203 7.83008C91.8703 7.95008 91.8104 8.08008 91.7504 8.21008H93.4604V8.55017H92.2604C92.3604 8.76017 92.4504 8.99016 92.4904 9.16016L92.1204 9.30017ZM95.8104 11.3801H95.9004L96.1404 11.4102C96.1404 11.4502 96.1304 11.5002 96.1204 11.5402C95.9604 13.1002 95.8404 13.1201 95.1204 13.1201C94.9804 13.1201 94.8104 13.1201 94.6304 13.1101C94.6304 12.9901 94.5804 12.8301 94.5104 12.7201C94.8204 12.7601 95.1103 12.7601 95.2203 12.7601C95.3303 12.7601 95.3904 12.7601 95.4404 12.7001C95.5404 12.6101 95.6103 12.3501 95.6703 11.7401H93.7303V13.3901H93.3204V11.8601C92.7004 12.4801 91.7604 13.0001 90.9304 13.2701C90.8704 13.1701 90.7503 13.0201 90.6603 12.9401C91.4603 12.7201 92.3604 12.2601 92.9404 11.7401H91.6304L91.5604 11.9701L91.1504 11.9102C91.2804 11.5102 91.4304 10.8901 91.5304 10.4001H93.3104V9.7301H91.1904V9.37012H95.7203V10.7601H93.7104V11.3801H95.7704H95.8104ZM93.3404 10.7601H91.8904C91.8504 10.9601 91.7904 11.1801 91.7404 11.3801H93.3404V10.7601ZM94.5104 7.77014C94.5104 7.77014 94.4504 7.83008 94.3904 7.83008C94.3304 7.96008 94.2704 8.09008 94.2004 8.21008H96.4004V8.55017H94.9203C95.0803 8.76017 95.2204 8.99017 95.3004 9.17017L94.9304 9.32007C94.8504 9.11007 94.6703 8.80017 94.4703 8.55017H93.9904C93.7904 8.85017 93.5604 9.11017 93.3204 9.30017C93.2504 9.23017 93.1004 9.13007 93.0004 9.07007C93.4204 8.75007 93.8104 8.20012 94.0304 7.62012L94.5104 7.77014ZM93.7504 9.7301V10.4001H95.3503V9.7301H93.7504Z" fill="white"/>
<path d="M99.0099 8.83984C98.5199 9.15984 97.96 9.44992 97.39 9.66992C97.34 9.57992 97.2499 9.43985 97.1699 9.34985C98.2399 8.95985 99.32 8.2799 99.84 7.6499L100.43 7.66992C100.43 7.66992 100.37 7.73988 100.31 7.74988C100.93 8.36988 102.06 8.97991 103 9.27991C102.91 9.36991 102.82 9.52988 102.76 9.62988C102.25 9.43988 101.69 9.16986 101.18 8.85986V9.11987H98.9999V8.83984H99.0099ZM97.9899 11.0399V9.47986H102.23V11.0399H97.9899ZM98.3499 9.7699V10.7399H99.89V9.7699H98.3499ZM98.4 13.3899V11.3499H101.84V13.3899H101.42V13.1898H98.8099V13.3899H98.4ZM99.14 10.6998C99.08 10.4998 98.9199 10.1898 98.7599 9.95984L99.0599 9.84985C99.2299 10.0699 99.4 10.3698 99.46 10.5698L99.14 10.6898V10.6998ZM101.42 11.6599H98.8099V12.1099H101.42V11.6599ZM98.8099 12.8799H101.42V12.4199H98.8099V12.8799ZM101.12 8.79993C100.71 8.54993 100.34 8.25987 100.06 7.98987C99.8099 8.25987 99.4699 8.53993 99.0599 8.79993H101.12ZM101.85 10.7299V9.75989H100.24V10.7299H101.85ZM101.49 9.98987C101.49 9.98987 101.42 10.0399 101.37 10.0299C101.27 10.2199 101.1 10.5098 100.97 10.6998C100.91 10.6798 100.75 10.5998 100.69 10.5798C100.81 10.3698 100.98 10.0398 101.07 9.81982L101.5 9.98987H101.49Z" fill="white"/>
<path d="M104.03 7.93994H109.24V13.4H108.83V13.13H104.43V13.4H104.03V7.93994ZM104.43 12.74H108.83V8.31995H104.43V12.74ZM106.85 11.16C106.99 11.32 107.16 11.48 107.36 11.62C107.63 11.45 107.95 11.2201 108.13 11.0601L108.47 11.27C108.47 11.27 108.41 11.3101 108.35 11.3101C108.16 11.4501 107.87 11.63 107.61 11.78C107.93 11.97 108.29 12.12 108.64 12.21C108.56 12.27 108.46 12.4 108.41 12.49C107.79 12.3 107.14 11.91 106.72 11.45V12.5601H106.34V11.59C105.91 11.89 105.38 12.1399 104.89 12.3199C104.84 12.2499 104.73 12.1201 104.67 12.0601C105.25 11.8701 105.91 11.55 106.37 11.16H105.27V10.12H107.99V11.16H106.85ZM108.49 9.52002V9.80005H104.75V9.52002H106.41V9.10999H105.14V8.82996H106.41V8.44995L106.92 8.48999C106.92 8.48999 106.88 8.55995 106.8 8.56995V8.82996H108.11V9.10999H106.8V9.52002H108.49ZM105.62 10.37V10.9H107.61V10.37H105.62Z" fill="white"/>
<path d="M110.34 10.5698C110.34 8.94982 110.97 8.16992 111.83 8.16992C112.69 8.16992 113.24 8.99989 113.24 10.5099C113.24 12.1199 112.68 12.9398 111.76 12.9398C110.92 12.9398 110.33 12.1098 110.33 10.5698H110.34ZM112.73 10.5299C112.73 9.37991 112.45 8.57983 111.8 8.57983C111.25 8.57983 110.86 9.30991 110.86 10.5299C110.86 11.7499 111.2 12.5199 111.78 12.5199C112.47 12.5199 112.73 11.6299 112.73 10.5299Z" fill="white"/>
<path d="M114.111 10.5698C114.111 8.94982 114.741 8.16992 115.601 8.16992C116.461 8.16992 117.011 8.99989 117.011 10.5099C117.011 12.1199 116.451 12.9398 115.531 12.9398C114.691 12.9398 114.101 12.1098 114.101 10.5698H114.111ZM116.501 10.5299C116.501 9.37991 116.221 8.57983 115.571 8.57983C115.021 8.57983 114.631 9.30991 114.631 10.5299C114.631 11.7499 114.971 12.5199 115.551 12.5199C116.241 12.5199 116.501 11.6299 116.501 10.5299Z" fill="white"/>
<path d="M120.511 8.25V8.68005H118.851L118.661 9.98999C118.761 9.97999 118.861 9.96997 119.021 9.96997C119.841 9.96997 120.581 10.46 120.581 11.39C120.581 12.32 119.901 12.96 118.991 12.96C118.531 12.96 118.141 12.8199 117.931 12.6899L118.081 12.29C118.251 12.41 118.591 12.55 118.991 12.55C119.571 12.55 120.071 12.12 120.061 11.46C120.061 10.82 119.651 10.38 118.791 10.38C118.541 10.38 118.351 10.4 118.201 10.42L118.491 8.27002H120.521L120.511 8.25Z" fill="white"/>
<path d="M124.04 12.87H123.55V11.5699H121.53V11.24L123.51 8.23999H124.04V11.17H124.67V11.5699H124.04V12.87ZM122.05 11.1801H123.55V9.54004C123.55 9.29004 123.56 9.04005 123.57 8.80005H123.55C123.41 9.08005 123.3 9.27999 123.18 9.48999L122.05 11.17V11.1801Z" fill="white"/>
<path d="M127.121 10.3699C127.661 10.4599 128.131 10.8998 128.131 11.5698C128.131 12.2998 127.601 12.9498 126.561 12.9498C126.101 12.9498 125.681 12.7999 125.471 12.6499L125.621 12.2499C125.791 12.3599 126.161 12.5299 126.561 12.5299C127.341 12.5299 127.591 11.9899 127.591 11.5599C127.591 10.8799 127.021 10.5698 126.411 10.5698H126.111V10.1898H126.411C126.861 10.1898 127.431 9.90983 127.431 9.32983C127.431 8.92983 127.191 8.57983 126.631 8.57983C126.291 8.57983 125.971 8.74988 125.781 8.87988L125.631 8.49988C125.851 8.32988 126.281 8.1499 126.731 8.1499C127.581 8.1499 127.951 8.68987 127.951 9.23987C127.951 9.71987 127.651 10.1398 127.111 10.3298V10.3499L127.121 10.3699Z" fill="white"/>
<path d="M131.01 11.0402L131.23 11.0801L131.21 11.2101C131.11 12.5601 131.01 13.0701 130.84 13.2501C130.7 13.4101 130.52 13.4202 130.28 13.4202C130.15 13.4202 129.99 13.4201 129.83 13.4001C129.83 13.2901 129.78 13.1302 129.71 13.0402C129.98 13.0702 130.22 13.0701 130.32 13.0701C130.41 13.0701 130.47 13.0601 130.52 13.0101C130.64 12.8901 130.73 12.4702 130.81 11.4302H129.9C129.86 11.5802 129.83 11.7201 129.79 11.8401C129.49 11.7801 129.46 11.7701 129.41 11.7701C129.52 11.4301 129.64 10.9201 129.73 10.4901H129.17V10.1201H131.52V10.4901H130.12C130.08 10.6801 130.03 10.8901 129.98 11.0801H131L131.01 11.0402ZM131.25 7.89014V9.61011H129.48V7.89014H131.25ZM130.85 9.25012V8.24011H129.84V9.25012H130.85ZM132.08 9.24011V10.4901C132.08 11.3601 131.99 12.5802 131.41 13.4202C131.34 13.3502 131.19 13.2301 131.1 13.1901C131.64 12.4001 131.7 11.3101 131.7 10.5001V8.89014H132.95V7.64014L133.47 7.67017C133.47 7.67017 133.43 7.74013 133.35 7.76013V8.09009H134.62V8.44006H133.35V8.88013H134.93C134.93 8.98013 134.8 9.69015 134.7 10.0302L134.38 9.96008C134.42 9.77008 134.47 9.50011 134.5 9.24011H132.08ZM133.12 11.2501C133.12 11.2501 133.07 11.3201 133 11.3301C132.93 12.1401 132.77 12.9201 132.09 13.3701C132.03 13.2801 131.92 13.1501 131.84 13.1001C132.43 12.7201 132.59 12.0101 132.64 11.2001L133.13 11.2401L133.12 11.2501ZM133.34 10.4501C133.34 10.5801 133.36 10.6001 133.54 10.6001H134.15C134.29 10.6001 134.32 10.5601 134.34 10.1901C134.42 10.2501 134.56 10.3001 134.67 10.3201C134.63 10.8001 134.53 10.9302 134.2 10.9302H133.5C133.07 10.9302 132.96 10.8401 132.96 10.4701V10.1901L132.29 10.2601L132.25 9.95007L132.97 9.88013V9.32007L133.46 9.3501C133.46 9.3501 133.42 9.42018 133.34 9.43018V9.84009L134.14 9.76013L134.18 10.0602L133.35 10.1501V10.4701L133.34 10.4501ZM133.92 12.7201C133.92 12.9101 133.92 12.9601 134.1 12.9601H134.35C134.63 12.9601 134.63 12.9001 134.65 12.2201C134.72 12.2901 134.85 12.3501 134.95 12.3901C134.93 13.0401 134.93 13.2902 134.38 13.2902H134.03C133.91 13.2902 133.76 13.2601 133.67 13.1901C133.58 13.1201 133.55 13.0202 133.55 12.6702V11.1802L134.05 11.2101C134.05 11.2101 134.01 11.2802 133.93 11.2902V12.7201H133.92Z" fill="white"/>
</g>
</svg>
