<svg width="594" height="71" viewBox="0 0 594 71" fill="none" xmlns="http://www.w3.org/2000/svg">
<path d="M2.80014 2.24998V6.11996C2.80014 8.83496 2.60511 12.795 1.18011 15.54C0.985115 15.36 0.550137 15.105 0.265137 14.985C1.63014 12.375 1.75012 8.73 1.75012 6.105V1.24496H15.2501V2.24998H2.80014ZM9.52011 11.985V14.16H15.3251V15.105H2.5751V14.16H4.78011V10.575L6.14511 10.68C6.13011 10.8 6.04012 10.86 5.83012 10.89V14.16H8.45512V9.37498L9.83514 9.48C9.82014 9.6 9.74514 9.67502 9.50514 9.69002V11.1149H13.6151V12.015H9.50514L9.52011 11.985ZM6.50514 9.39H5.56013V6.88498C4.99013 7.84498 4.21013 8.77502 3.49013 9.31502C3.34013 9.09002 3.05511 8.77497 2.86011 8.60997C3.67011 8.09997 4.55514 7.10996 5.14014 6.11996H3.3701V5.24998H5.5751V3.98999C4.9601 4.09499 4.31513 4.16998 3.73013 4.21498C3.68513 4.03498 3.55011 3.71999 3.43011 3.52499C4.88511 3.35999 6.58013 3.08997 7.43513 2.69997L8.32013 3.37498C8.32013 3.37498 8.24511 3.41998 8.02011 3.41998C7.61511 3.56998 7.09014 3.71997 6.50514 3.82497V5.24998H8.45512V6.11996H6.50514V6.23999C6.95514 6.55499 8.09511 7.37998 8.39511 7.63498L7.81013 8.36996C7.57013 8.09996 7.00014 7.57497 6.50514 7.15497V9.40501V9.39ZM12.2801 9.39H11.3201V6.50998C10.6751 7.61998 9.68514 8.71502 8.80014 9.31502C8.65014 9.09002 8.36512 8.77497 8.17012 8.60997C9.07012 8.09997 10.0601 7.12496 10.6901 6.11996H9.01012V5.24998H11.3201V3.97498C10.6751 4.04998 10.0001 4.14 9.38512 4.185C9.34012 3.99 9.20513 3.675 9.11513 3.48C10.6451 3.33 12.5051 3.05998 13.4351 2.66998C14.0051 3.07498 14.1701 3.21 14.3201 3.345C14.2601 3.39 14.2451 3.39 14.0201 3.39C13.5701 3.555 12.9551 3.69 12.2951 3.81V5.24998H15.0851V6.11996H12.9251C13.5401 7.10996 14.5451 8.04 15.5501 8.505C15.3251 8.685 15.0251 9.01496 14.8751 9.25496C13.8851 8.68496 12.9401 7.63498 12.2951 6.55498V9.40501L12.2801 9.39Z" fill="white"/>
<path d="M24.1602 9.49504C24.0552 9.22504 23.9352 8.88 23.7852 8.52L22.2852 8.59503V15.57H21.3102V8.64003C20.4102 8.67003 19.6002 8.70003 18.9702 8.73003C18.9402 8.86503 18.8352 8.91 18.7302 8.94L18.4302 7.71004H19.5552C19.9152 7.27504 20.2902 6.75004 20.6802 6.21004C20.1852 5.44504 19.3452 4.5 18.5952 3.78L19.1802 3.075C19.3602 3.24 19.5252 3.40504 19.7052 3.58504C20.2602 2.62504 20.8752 1.335 21.2352 0.404999L22.4052 0.900024C22.3302 1.02002 22.2102 1.05002 22.0452 1.03502C21.6252 1.96502 20.9052 3.285 20.2902 4.2C20.6652 4.605 21.0102 4.995 21.2502 5.37C21.9552 4.305 22.6002 3.18 23.0802 2.28L24.2202 2.82002C24.1752 2.89502 24.0402 2.97003 23.8602 2.97003C23.0352 4.35003 21.7302 6.30004 20.5902 7.71004L23.3802 7.66499C23.0802 7.10999 22.7652 6.54001 22.4202 6.04501L23.2302 5.68503C23.9802 6.75003 24.7452 8.14498 25.0302 9.05998L24.1902 9.48003L24.1602 9.49504ZM20.6652 10.11C20.6352 10.23 20.5302 10.29 20.3352 10.29C20.1252 11.655 19.7502 13.23 19.2552 14.19C19.0452 14.055 18.6852 13.89 18.4452 13.785C18.9102 12.87 19.2552 11.31 19.4652 9.825L20.6502 10.125L20.6652 10.11ZM23.9352 13.02C23.8002 12.21 23.3952 10.965 22.9752 10.035L23.8002 9.78004C24.2502 10.695 24.6852 11.91 24.8202 12.72L23.9202 13.035L23.9352 13.02ZM29.6352 14.175H33.7602V15.165H24.0402V14.175H28.5252V10.83H25.1952V9.84001H33.1752V10.83H29.6202V14.175H29.6352ZM27.5352 3.22501C27.4902 3.34501 27.3852 3.40503 27.1902 3.39003C26.8752 3.97503 26.2452 5.085 25.6902 5.94C26.4252 6.9 27.1602 8.08504 27.5052 8.83504L26.5902 9.23997C26.2302 8.36998 25.4652 7.09502 24.6252 5.95502C25.2702 4.95002 25.9902 3.70502 26.3652 2.91002L27.5352 3.24002V3.22501ZM33.6252 1.27502V2.28H24.7002V1.27502H33.6252ZM29.5152 9.21004C29.1402 8.35504 28.3152 7.08 27.4002 5.94C28.1052 4.95 28.8552 3.69002 29.2452 2.91002L30.4002 3.24002C30.3702 3.36002 30.2502 3.42 30.0702 3.405C29.7402 3.99 29.0652 5.08503 28.5102 5.92503C29.2602 6.88503 30.0552 8.05501 30.4302 8.80501L29.5152 9.21004ZM33.2502 3.24002C33.2052 3.36002 33.1002 3.40503 32.9052 3.39003C32.5752 3.97503 31.9002 5.08502 31.3152 5.91002C32.1102 6.87002 32.9502 8.03999 33.3552 8.78999L32.4552 9.22505C32.0352 8.35505 31.1502 7.065 30.2052 5.94C30.9252 4.935 31.6902 3.69 32.0802 2.895L33.2502 3.24002Z" fill="white"/>
<path d="M49.0302 13.545H51.8203V14.64H37.1353V13.545H40.8702C41.2602 12 41.6803 10.005 42.0853 7.98H38.8602V6.89999H42.2953C42.5353 5.59499 42.7603 4.28996 42.9703 3.11996H38.0803V2.02499H50.9502V3.11996H44.1552C43.9602 4.30496 43.7202 5.59499 43.4502 6.89999H49.0302V13.53V13.545ZM47.9203 7.98H43.2553C42.8503 10.035 42.4303 12 42.0853 13.545H47.9203V7.98Z" fill="white"/>
<path d="M70.1053 11.43H64.2103C65.7253 12.78 68.2003 13.935 70.4653 14.445C70.2403 14.655 69.9103 15.075 69.7603 15.36C67.3903 14.73 64.7803 13.3201 63.2053 11.6701V15.555H62.1103V11.775C60.5503 13.35 58.0153 14.685 55.7203 15.33C55.5703 15.075 55.2703 14.655 55.0303 14.445C57.2653 13.935 59.7253 12.765 61.1953 11.43H55.3153V10.485H62.1103V9.075L63.5353 9.18001C63.5203 9.30001 63.4303 9.37504 63.2053 9.40504V10.5H70.1053V11.445V11.43ZM58.9003 7.65002L57.8953 7.30501C58.3603 6.78001 58.9153 6.10501 59.4853 5.38501H55.5403V4.45502H60.2053C60.6103 3.90002 61.0153 3.36004 61.3603 2.88004L62.6353 3.28502C62.6053 3.36002 62.4853 3.435 62.2453 3.405C62.0203 3.735 61.7353 4.09503 61.4653 4.47003H69.9553V5.40002H66.6403C66.2053 6.30002 65.5903 7.04999 64.7053 7.66499C66.3853 8.09999 67.9453 8.58003 69.0853 9.01503L68.4103 9.80998C67.2403 9.35998 65.4553 8.80501 63.5503 8.29501C61.9903 9.00001 59.7403 9.46505 56.3953 9.69005C56.3503 9.45005 56.1853 9.03001 56.0353 8.80501C58.6603 8.64001 60.5953 8.32503 62.0203 7.89003C61.0753 7.65003 60.1153 7.44001 59.2153 7.26001L58.8853 7.65002H58.9003ZM57.0253 2.62502V4.05003H56.0053V1.66499H62.1553V0.404999L63.5803 0.480026C63.5653 0.615026 63.4603 0.675017 63.2503 0.705017V1.65002H69.5203V4.03502H68.4553V2.61H57.0253V2.62502ZM60.7453 5.38501C60.4303 5.77501 60.1303 6.16499 59.8153 6.53999C60.9553 6.74999 62.1853 7.03502 63.4003 7.32002C64.3603 6.81002 64.9753 6.18001 65.4103 5.38501H60.7453Z" fill="white"/>
<path d="M80.6505 0.810028C80.6055 0.930028 80.4705 0.990021 80.2755 0.990021C80.0655 1.66502 79.8405 2.35501 79.5555 3.04501H88.1805V4.11H79.0905C78.5505 5.265 77.9205 6.40503 77.1405 7.47003L77.3205 7.51503C77.2905 7.63503 77.1855 7.71001 76.9905 7.72501V15.6001H75.8955V8.985C75.3105 9.615 74.6805 10.185 73.9755 10.71C73.8405 10.41 73.5555 9.95999 73.3755 9.71999C74.3205 9.02999 75.1755 8.20502 75.8955 7.27502V7.155H75.9555C76.6905 6.225 77.3205 5.19 77.8455 4.11H73.7505V3.04501H78.3255C78.6855 2.17501 78.9705 1.30503 79.2255 0.435028L80.6505 0.810028ZM83.6805 9.28502V14.16H88.1805V15.18H78.1755V14.16H82.5705V9.28502H78.8205V8.25002H82.5705V4.98003L83.9955 5.08504C83.9805 5.20504 83.8905 5.26501 83.6805 5.29501V8.26503H87.5205V9.30003H83.6805V9.28502Z" fill="white"/>
<path d="M94.8552 10.5L96.7452 9.75002L96.9552 10.695C95.2602 11.475 93.4452 12.24 92.3052 12.735C92.3052 12.87 92.2452 12.96 92.1252 13.005L91.5552 11.7601C92.1702 11.5501 92.9502 11.235 93.8052 10.905V5.49002H91.8402V4.44H93.8052V0.539993L95.1702 0.645004C95.1552 0.765004 95.0502 0.825026 94.8402 0.855026V4.44H96.6852V5.49002H94.8402V10.47L94.8552 10.5ZM99.1302 13.11C99.1302 14.01 99.3402 14.22 100.48 14.22H104.635C105.61 14.22 105.775 13.77 105.91 11.805C106.165 12 106.6 12.18 106.9 12.24C106.72 14.49 106.36 15.21 104.65 15.21H100.45C98.6052 15.21 98.0802 14.805 98.0802 13.095V7.60503L96.4302 8.31003L96.0102 7.33504L98.0802 6.45V1.98003L99.4452 2.07002C99.4302 2.19002 99.3252 2.26501 99.1152 2.29501V5.97003L101.485 4.96501V0.420013L102.835 0.494995C102.82 0.614995 102.73 0.690032 102.52 0.720032V4.51503L105.13 3.39003L105.355 3.21004L106.255 3.53999C106.255 3.53999 106.18 3.67503 106.09 3.72003C106.09 6.81003 106.045 9.38999 105.91 10.005C105.76 10.995 105.205 11.16 103.48 11.16C103.435 10.845 103.345 10.44 103.225 10.185C103.63 10.215 104.2 10.215 104.38 10.215C104.635 10.215 104.815 10.14 104.905 9.735C105.01 9.33 105.04 7.305 105.04 4.575L102.535 5.655V11.91H101.485V6.10503L99.1152 7.11V13.08L99.1302 13.11Z" fill="white"/>
<path d="M112.9 7.53C112.255 6.99 110.95 6.34503 109.885 5.97003C110.185 5.49003 110.305 5.29501 110.44 5.10001C111.505 5.44501 112.825 6.04501 113.47 6.55501L112.9 7.53ZM110.32 14.685C111.115 13.425 112.255 11.28 113.095 9.43498L113.935 10.095C113.17 11.805 112.165 13.8151 111.415 15.0451C111.475 15.1201 111.49 15.195 111.49 15.27C111.49 15.33 111.475 15.405 111.445 15.45L110.32 14.685ZM111.31 0.615021C112.36 1.08002 113.62 1.86002 114.25 2.44502L113.575 3.34503C112.96 2.74503 111.715 1.90502 110.68 1.41002L111.31 0.630035V0.615021ZM125.02 9.93001H120.82C121.84 11.565 123.52 13.1701 125.125 13.9201C124.87 14.1301 124.525 14.52 124.345 14.82C122.77 13.92 121.105 12.1651 120.055 10.3501V15.495H118.975V10.425C117.82 12.33 116.035 14.01 114.295 14.925C114.13 14.67 113.8 14.295 113.575 14.07C115.33 13.29 117.115 11.67 118.21 9.91499H114.37V8.91002H118.975V6.99002L120.355 7.065C120.34 7.185 120.265 7.25999 120.04 7.28999V8.91002H125.005V9.91499L125.02 9.93001ZM118.78 2.655C118.765 2.775 118.66 2.85002 118.465 2.86502C118.225 5.19002 117.55 6.78003 114.685 7.60503C114.595 7.36503 114.31 6.99003 114.115 6.81003C116.695 6.12003 117.28 4.80002 117.475 2.53502L118.78 2.655ZM115.795 2.10001V4.30501H114.805V1.14003H124.555V4.28999H123.55V2.10001H115.81H115.795ZM120.565 2.44502L121.9 2.55003C121.885 2.64003 121.81 2.73001 121.585 2.76001V5.71501C121.585 6.06001 121.645 6.10503 122.11 6.10503H123.595C123.955 6.10503 124.015 5.97 124.06 4.995C124.27 5.145 124.66 5.29503 124.975 5.35503C124.855 6.69003 124.57 7.03502 123.715 7.03502H121.975C120.835 7.03502 120.55 6.76501 120.55 5.71501V2.46004L120.565 2.44502Z" fill="white"/>
<path d="M132.115 8.50504V9.22505C132.685 9.67505 134.23 11.085 134.635 11.445L134.02 12.255C133.66 11.805 132.775 10.9201 132.115 10.2601V15.555H131.095V9.71999C130.405 11.37 129.475 13.08 128.59 14.055C128.47 13.785 128.23 13.35 128.035 13.11C129.01 12.09 130.09 10.17 130.72 8.50504H128.155V7.54501H131.095V6.00002H128.665V5.02502H131.095V3.52502H128.38V2.565H131.095V0.449997L132.445 0.525024C132.43 0.645024 132.325 0.720001 132.115 0.735001V2.565H134.8V3.52502H132.115V5.02502H134.545V6.00002H132.115V7.54501H134.89V8.50504H132.115ZM143.305 8.95502V9.97505H141.28V15.54H140.215V9.97505H137.605C137.41 12.1201 136.795 14.1301 135.07 15.6001C134.86 15.4351 134.44 15.18 134.155 15.03C135.79 13.71 136.375 11.8651 136.555 9.97505H134.605V8.95502H136.63C136.645 8.68502 136.645 8.415 136.645 8.145V4.77H134.905V3.72003H136.645V0.420013L137.995 0.525024C137.98 0.645024 137.89 0.705001 137.68 0.735001V3.72003H140.215V0.420013L141.58 0.494995C141.565 0.614995 141.49 0.690032 141.265 0.720032V3.70502H143.125V4.75504H141.265V8.94H143.29L143.305 8.95502ZM137.68 8.145C137.68 8.43 137.68 8.68502 137.665 8.95502H140.23V4.77H137.695V8.145H137.68Z" fill="white"/>
<path d="M146.785 15.735C147.04 14.925 147.37 13.305 147.505 12.27L149.26 12.045C148.915 13.29 148.24 14.985 147.865 15.615L146.785 15.75V15.735Z" fill="white"/>
<path d="M161.8 12.9C161.755 12.975 161.62 13.035 161.44 13.005C160.39 13.875 158.83 14.82 157.495 15.405C157.3 15.21 156.97 14.88 156.73 14.715C158.065 14.19 159.64 13.29 160.63 12.39L161.8 12.915V12.9ZM167.125 9.17999C168.655 9.91499 170.515 11.055 171.475 11.925L170.605 12.57C170.305 12.3 169.9 11.97 169.435 11.625C167.845 11.685 166.195 11.745 164.605 11.775V15.57H163.51V11.805C161.23 11.865 159.145 11.925 157.6 11.955C157.585 12.09 157.48 12.15 157.375 12.165L156.925 11.01C157.87 11.01 159.055 11.01 160.39 11.01C160.78 10.8 161.2 10.59 161.605 10.35C160.735 9.70504 159.46 8.92499 158.365 8.38499L159.1 7.80002C159.46 7.98002 159.85 8.17499 160.24 8.38499C160.915 7.91999 161.665 7.305 162.25 6.75H158.05V1.01999H170.23V6.75H163.63L163.9 6.90001C163.84 6.97501 163.735 7.01999 163.555 7.01999C162.91 7.55999 161.92 8.29499 161.065 8.84999C161.62 9.17999 162.145 9.52498 162.55 9.82498C164.08 8.93998 165.61 7.92 166.675 7.08L167.785 7.71002C167.725 7.78502 167.575 7.845 167.41 7.83C166.045 8.79 164.05 10.02 162.25 10.98L168.28 10.875C167.65 10.47 166.96 10.095 166.345 9.78003L167.14 9.19501L167.125 9.17999ZM159.085 1.89001V3.42H163.54V1.89001H159.085ZM159.085 4.28998V5.83502H163.54V4.28998H159.085ZM169.135 3.42V1.89001H164.605V3.42H169.135ZM169.135 5.83502V4.28998H164.605V5.83502H169.135ZM170.41 15.42C169.54 14.685 167.755 13.62 166.315 12.93L167.11 12.36C168.505 12.99 170.32 14.01 171.28 14.76L170.395 15.435L170.41 15.42Z" fill="white"/>
<path d="M178.615 7.30499C179.14 7.81499 180.55 9.37503 180.88 9.78003L180.205 10.605C179.935 10.11 179.2 9.11998 178.615 8.36998V15.555H177.55V7.93501C176.935 9.70501 176.095 11.52 175.3 12.6C175.165 12.3 174.895 11.865 174.715 11.625C175.66 10.395 176.725 8.17499 177.295 6.22499H174.88V5.205H177.55V2.44501C176.77 2.67001 175.93 2.88001 175.165 3.06001C175.105 2.83501 174.94 2.49001 174.805 2.26501C176.68 1.81501 178.825 1.10998 179.965 0.404984L180.925 1.215C180.85 1.275 180.73 1.28999 180.595 1.25999C180.055 1.55999 179.38 1.83002 178.585 2.08502V5.17502H180.685V5.295H184.57V4.23001H181.585V3.44998H184.57V2.46002H181.015V1.65001H184.57V0.390015L185.965 0.480011C185.95 0.600011 185.845 0.674987 185.635 0.689987V1.63499H189.22V2.44501H185.635V3.43501H188.665V4.215H185.635V5.27998H189.895V6.11998H180.685V6.17999H178.585V7.25999L178.615 7.30499ZM188.77 13.02H183.175L184.165 13.575C184.165 13.575 184 13.68 183.85 13.695C183.175 14.37 181.81 15.135 180.625 15.585C180.475 15.36 180.19 15.03 179.98 14.82C181.135 14.4 182.5 13.665 183.13 13.02H181.63V6.99001H188.77V13.02ZM182.665 7.75502V8.77501H187.72V7.75502H182.665ZM182.665 9.48001V10.5H187.72V9.48001H182.665ZM182.665 11.205V12.27H187.72V11.205H182.665ZM189.025 15.555C188.41 15 187.315 14.22 186.325 13.605L187.09 13.05C188.155 13.65 189.34 14.415 190.045 14.985L189.04 15.555H189.025Z" fill="white"/>
<path d="M204.025 1.815H207.88V2.77502H204.025V3.70502H202.945V2.77502H198.205V3.70502H197.125V2.77502H193.375V1.815H197.125V0.435028L198.505 0.51001C198.49 0.63001 198.401 0.705001 198.191 0.735001V1.815H202.93V0.435028L204.31 0.51001C204.295 0.63001 204.206 0.705001 203.996 0.735001V1.815H204.025ZM207.086 9.80998V14.4C207.086 15.51 206.621 15.54 204.386 15.54C204.341 15.27 204.205 14.91 204.055 14.625C204.865 14.625 205.555 14.625 205.75 14.625C205.96 14.625 206.005 14.565 206.005 14.37V10.755H201.101V12.66L203.305 12.57C203.05 12.165 202.765 11.775 202.48 11.415L203.29 11.115C204.055 12 204.835 13.215 205.105 14.055L204.22 14.37C204.13 14.07 203.981 13.755 203.801 13.395C201.266 13.575 198.58 13.725 196.9 13.8C196.87 13.935 196.781 13.995 196.676 14.025L196.27 12.825C197.275 12.795 198.596 12.765 200.051 12.705V10.77H195.296V15.585H194.246V9.80998H200.051V8.92503H195.461V3.97501H205.9V8.92503H201.115V9.80998H207.101H207.086ZM196.496 4.77V6.04501H200.051V4.77H196.496ZM196.496 8.11502H200.051V6.825H196.496V8.11502ZM204.82 6.04501V4.77H201.101V6.04501H204.82ZM204.82 8.11502V6.825H201.101V8.11502H204.82Z" fill="white"/>
<path d="M214.69 5.55002V10.785C215.44 10.545 216.205 10.275 216.97 10.035L217.135 10.995C215.245 11.7 213.235 12.435 211.96 12.855C211.96 13.005 211.855 13.095 211.765 13.125L211.225 11.865C211.9 11.67 212.725 11.415 213.64 11.115V5.55002H211.51V4.48499H213.64V0.570007L215.02 0.644989C215.005 0.764989 214.915 0.83998 214.69 0.86998V4.47002H216.775V5.535H214.69V5.55002ZM226.465 8.50502V9.55499H221.98V15.585H220.9V9.55499H216.25V8.50502H220.9V2.34H216.835V1.32001H226.015V2.34H221.98V8.50502H226.465ZM218.575 7.81499C218.44 6.67499 217.945 4.93501 217.375 3.61501L218.305 3.34502C218.92 4.68002 219.43 6.38998 219.58 7.52998L218.59 7.83L218.575 7.81499ZM225.85 3.76501C225.82 3.87001 225.685 3.90001 225.505 3.90001C225.145 5.08501 224.53 6.84001 224.005 7.93501C223.99 7.92001 223.18 7.59 223.18 7.59C223.69 6.45 224.29 4.575 224.605 3.285L225.865 3.75L225.85 3.76501Z" fill="white"/>
<path d="M233.14 6.94502V12.27C234.415 14.205 236.74 14.205 239.68 14.205C241.435 14.205 243.505 14.16 244.78 14.07C244.645 14.325 244.45 14.85 244.42 15.18C243.295 15.225 241.51 15.255 239.89 15.255C236.53 15.255 234.295 15.255 232.66 13.23C231.865 13.95 230.995 14.685 230.29 15.24C230.305 15.39 230.26 15.45 230.14 15.495L229.51 14.2951C230.29 13.7701 231.25 13.02 232.09 12.3V7.96501H229.69V6.91499H233.14V6.94502ZM230.71 0.840012C231.805 1.54501 233.05 2.61001 233.62 3.42001L232.75 4.155C232.21 3.345 230.98 2.23502 229.885 1.50002L230.695 0.840012H230.71ZM244.51 5.95502V6.91499H233.905V5.95502H238.735V3.58504H236.35C236.02 4.32004 235.63 4.995 235.24 5.52C235.015 5.355 234.595 5.16002 234.325 5.02502C235.135 4.02002 235.84 2.28004 236.26 0.630035L237.565 0.990021C237.535 1.11002 237.415 1.155 237.22 1.155C237.085 1.635 236.92 2.115 236.755 2.61H238.72V0.420013L240.13 0.494995C240.115 0.614995 240.01 0.690032 239.8 0.720032V2.59503H243.775V3.57002H239.8V5.94H244.495L244.51 5.95502ZM243.145 13.1701H242.065V12.615H236.59V13.215H235.54V8.13004H243.13V13.1701H243.145ZM236.59 11.64H242.065V9.04506H236.59V11.64Z" fill="white"/>
<path d="M254.32 12.585L254.365 13.515C252.16 13.935 249.88 14.385 248.44 14.64C248.425 14.775 248.32 14.85 248.23 14.88L247.84 13.665C248.605 13.545 249.55 13.395 250.6 13.23V8.325H248.02V7.35001H250.6V5.52H248.95V5.17503C248.785 5.37003 248.62 5.55003 248.44 5.73003C248.275 5.49003 247.915 5.16001 247.675 5.01001C249.1 3.61501 250.165 1.78501 250.765 0.420013L252.085 0.630035C252.07 0.750035 251.965 0.824997 251.755 0.824997V0.855026C252.76 1.68003 253.96 2.80502 254.53 3.52502L253.885 4.395C253.345 3.66 252.265 2.58002 251.29 1.74002C250.825 2.62502 250.21 3.61503 249.46 4.56003H253.57V5.52H251.575V7.35001H254.155V8.325H251.575V13.065L254.32 12.6001V12.585ZM249.145 12.5101C249.085 11.6701 248.785 10.3951 248.425 9.42006L249.22 9.21004C249.595 10.185 249.895 11.46 249.97 12.27L249.145 12.5101ZM254.17 9.51006C254.125 9.61506 254.005 9.66002 253.84 9.66002C253.615 10.44 253.21 11.64 252.88 12.375C252.865 12.375 252.16 12.105 252.145 12.105C252.475 11.31 252.865 10.0201 253.06 9.13506L254.17 9.51006ZM257.71 12.9751C257.665 13.0801 257.545 13.11 257.365 13.11C256.435 14.04 254.965 15.0001 253.66 15.6001C253.495 15.3901 253.165 15.015 252.94 14.82C254.185 14.31 255.64 13.44 256.48 12.495L257.695 12.99L257.71 12.9751ZM263.02 11.415V12.375H253.9V11.415H263.02ZM257.935 4.05003V2.895H254.17V1.96501H257.935V0.420013L259.3 0.51001C259.285 0.63001 259.195 0.690032 258.985 0.720032V1.96501H262.825V2.895H258.985V4.05003H261.955V10.41H255.115V4.05003H257.935ZM260.92 5.91002V4.815H256.15V5.91002H260.92ZM260.92 7.77V6.66002H256.15V7.77H260.92ZM260.92 9.645V8.52H256.15V9.645H260.92ZM262.195 15.615C261.565 14.895 260.29 13.74 259.225 12.96L260.155 12.465C261.25 13.23 262.495 14.295 263.14 14.985L262.195 15.6001V15.615Z" fill="white"/>
<path d="M268.495 3.21004C268.81 2.38504 269.125 1.245 269.29 0.404999L270.685 0.750015C270.64 0.870015 270.535 0.914993 270.325 0.914993C270.145 1.58999 269.815 2.49004 269.515 3.21004H272.26V12.9H267.79V14.25H266.77V3.19502H268.495V3.21004ZM271.21 7.485V4.23003H267.79V7.485H271.21ZM267.79 11.895H271.21V8.46004H267.79V11.895ZM280.12 3.24002L280.69 3.27C280.675 3.345 280.675 3.51004 280.675 3.63004C280.45 11.52 280.24 14.13 279.595 14.91C279.19 15.465 278.74 15.57 277.6 15.57C277.06 15.57 276.4 15.5551 275.725 15.5101C275.695 15.1951 275.56 14.745 275.365 14.46C276.52 14.535 277.57 14.535 278.02 14.535C278.275 14.535 278.455 14.4751 278.62 14.2951C279.145 13.7251 279.385 11.175 279.58 4.27502H275.005C274.48 5.71502 273.85 7.02 273.13 7.995C272.95 7.8 272.56 7.44002 272.32 7.27502C273.475 5.73002 274.42 3.06 274.975 0.404999L276.355 0.735001C276.31 0.885001 276.175 0.929993 275.995 0.914993C275.815 1.69499 275.605 2.49004 275.35 3.25504H280.105L280.12 3.24002ZM275.485 6.69C276.43 7.965 277.39 9.64497 277.735 10.74L276.745 11.205C276.4 10.095 275.485 8.37003 274.54 7.09503L275.485 6.67503V6.69Z" fill="white"/>
<path d="M289.87 9.49504C289.765 9.22504 289.645 8.88 289.495 8.52L287.995 8.59503V15.57H287.02V8.64003C286.12 8.67003 285.31 8.70003 284.68 8.73003C284.65 8.86503 284.545 8.91 284.44 8.94L284.14 7.71004H285.265C285.625 7.27504 286 6.75004 286.39 6.21004C285.895 5.44504 285.055 4.5 284.305 3.78L284.89 3.075C285.07 3.24 285.235 3.40504 285.415 3.58504C285.97 2.62504 286.585 1.335 286.945 0.404999L288.115 0.900024C288.04 1.02002 287.92 1.05002 287.755 1.03502C287.335 1.96502 286.615 3.285 286 4.2C286.375 4.605 286.72 4.995 286.96 5.37C287.665 4.305 288.31 3.18 288.79 2.28L289.93 2.82002C289.885 2.89502 289.75 2.97003 289.57 2.97003C288.745 4.35003 287.44 6.30004 286.3 7.71004L289.09 7.66499C288.79 7.10999 288.475 6.54001 288.13 6.04501L288.94 5.68503C289.69 6.75003 290.455 8.14498 290.74 9.05998L289.9 9.48003L289.87 9.49504ZM286.375 10.11C286.345 10.23 286.24 10.29 286.045 10.29C285.835 11.655 285.46 13.23 284.965 14.19C284.755 14.055 284.395 13.89 284.155 13.785C284.62 12.87 284.965 11.31 285.175 9.825L286.36 10.125L286.375 10.11ZM289.645 13.02C289.51 12.21 289.105 10.965 288.685 10.035L289.51 9.78004C289.96 10.695 290.395 11.91 290.53 12.72L289.63 13.035L289.645 13.02ZM295.345 14.175H299.47V15.165H289.75V14.175H294.235V10.83H290.905V9.84001H298.885V10.83H295.33V14.175H295.345ZM293.245 3.22501C293.2 3.34501 293.095 3.40503 292.9 3.39003C292.585 3.97503 291.955 5.085 291.4 5.94C292.135 6.9 292.87 8.08504 293.215 8.83504L292.3 9.23997C291.94 8.36998 291.175 7.09502 290.335 5.95502C290.98 4.95002 291.7 3.70502 292.075 2.91002L293.245 3.24002V3.22501ZM299.335 1.27502V2.28H290.41V1.27502H299.335ZM295.225 9.21004C294.85 8.35504 294.025 7.08 293.11 5.94C293.815 4.95 294.565 3.69002 294.955 2.91002L296.11 3.24002C296.08 3.36002 295.96 3.42 295.78 3.405C295.45 3.99 294.775 5.08503 294.22 5.92503C294.97 6.88503 295.765 8.05501 296.14 8.80501L295.225 9.21004ZM298.96 3.24002C298.915 3.36002 298.81 3.40503 298.615 3.39003C298.285 3.97503 297.61 5.08502 297.025 5.91002C297.82 6.87002 298.66 8.03999 299.065 8.78999L298.165 9.22505C297.745 8.35505 296.86 7.065 295.915 5.94C296.635 4.935 297.4 3.69 297.79 2.895L298.96 3.24002Z" fill="white"/>
<path d="M303.91 10.725C303.835 12.18 303.685 13.74 303.07 14.64L302.44 14.28C302.995 13.455 303.175 11.985 303.235 10.59L303.925 10.725H303.91ZM308.455 8.60999L308.965 8.65498C308.965 8.75998 308.95 8.88001 308.95 9.01501C308.77 13.23 308.605 14.67 308.2 15.135C307.945 15.48 307.675 15.555 306.745 15.555C306.49 15.555 306.205 15.555 305.935 15.54C305.92 15.285 305.815 14.895 305.695 14.655C306.265 14.7 306.775 14.7 306.985 14.7C307.195 14.7 307.315 14.685 307.42 14.52C307.585 14.325 307.72 13.725 307.84 12.39L307.285 12.615C307.105 12.015 306.7 11.115 306.295 10.425L306.82 10.23C307.225 10.875 307.63 11.73 307.825 12.3H307.84C307.9 11.595 307.96 10.665 308.005 9.49503H304.255V10.02H303.325V1.08H308.815V2.00999H306.7V3.63002H308.485V4.51501H306.7V6.10501H308.515V6.99001H306.7V8.625H308.455V8.60999ZM305.8 2.00999H304.255V3.63002H305.8V2.00999ZM305.8 6.10501V4.51501H304.255V6.10501H305.8ZM304.255 6.99001V8.625H305.8V6.99001H304.255ZM304.495 13.89C304.51 13.08 304.435 11.85 304.27 10.89L304.87 10.815C305.05 11.775 305.14 13.02 305.125 13.815L304.495 13.89ZM305.83 10.575C306.175 11.4 306.475 12.51 306.565 13.23L305.965 13.365C305.89 12.645 305.605 11.535 305.275 10.695L305.83 10.575ZM314.005 0.509995C313.99 0.614995 313.885 0.690002 313.78 0.705002C314.725 2.25 316.435 3.87002 317.98 4.71002C317.77 4.96502 317.53 5.36998 317.38 5.65498C315.82 4.67998 314.125 3.01502 313.18 1.47002C312.355 2.97002 310.765 4.67998 309.07 5.74498C308.95 5.48998 308.71 5.11499 308.515 4.85999C310.225 3.86999 311.89 2.06998 312.64 0.449982L314.005 0.509995ZM312.43 14.61C312.13 14.235 311.635 13.68 311.125 13.2C310.69 14.205 310.045 15.045 309.235 15.6C309.1 15.42 308.815 15.12 308.59 14.985C309.85 14.16 310.6 12.585 310.87 10.65L312.07 10.83C312.04 10.95 311.95 11.01 311.77 11.025C311.695 11.505 311.575 11.94 311.44 12.36C312.055 12.9 312.745 13.575 313.105 14.04L312.415 14.625L312.43 14.61ZM309.58 10.155V6.375H312.865V10.155H309.58ZM310.39 7.15498V9.375H312.025V7.15498H310.39ZM315.58 4.39499V5.27998H310.99V4.39499H315.58ZM317.125 15.555C316.72 14.94 315.94 14.04 315.205 13.26C314.755 14.205 314.14 15 313.345 15.54C313.195 15.36 312.895 15.045 312.67 14.91C313.93 14.085 314.695 12.525 314.98 10.605L316.195 10.8C316.18 10.905 316.075 10.965 315.88 10.98C315.805 11.475 315.67 11.955 315.52 12.405C316.36 13.215 317.35 14.295 317.83 14.985L317.095 15.57L317.125 15.555ZM317.125 6.35999V10.14H313.735V6.35999H317.125ZM316.285 9.35999V7.14001H314.56V9.35999H316.285Z" fill="white"/>
<path d="M324.385 2.40002C323.38 2.62502 322.315 2.83502 321.325 3.00002C321.28 2.76002 321.13 2.40002 320.98 2.16002C323.26 1.75502 325.87 1.14003 327.25 0.435028L328.255 1.28999C328.255 1.28999 328.15 1.33504 327.925 1.33504C327.25 1.63504 326.395 1.905 325.435 2.145V5.34001H328.24V6.36H325.435V7.33504C326.125 7.95004 327.805 9.66002 328.21 10.125L327.52 11.025C327.13 10.47 326.17 9.36002 325.435 8.53502V15.555H324.37V7.995C323.56 9.96 322.45 11.94 321.37 13.095C321.235 12.78 320.965 12.36 320.755 12.105C322 10.815 323.335 8.49002 324.085 6.37502H320.965V5.35503H324.37V2.41499L324.385 2.40002ZM328.915 2.22003H335.26V14.985H334.135V13.845H329.995V15.12H328.915V2.235V2.22003ZM329.995 12.78H334.135V3.28502H329.995V12.78Z" fill="white"/>
<path d="M344.5 13.185C345.115 13.515 345.325 13.635 345.52 13.77C345.46 13.83 345.34 13.86 345.19 13.89C344.11 14.58 341.8 15.27 339.865 15.615C339.715 15.405 339.415 15.045 339.19 14.835C341.125 14.535 343.48 13.875 344.485 13.185H344.5ZM351.07 4.84503H354.115V5.71501H350.995L350.86 7.21501H342.04L342.235 5.71501H339.28V4.84503H342.34L342.52 3.39003H351.175L351.04 4.84503H351.07ZM340.915 2.59503V4.27502H339.91V1.68001H346.12V0.404999L347.545 0.480026C347.53 0.615026 347.425 0.675017 347.215 0.705017V1.66499H353.5V4.26001H352.45V2.58002H340.915V2.59503ZM351.835 7.92001V13.14H341.62V7.92001H351.835ZM350.725 9.42006V8.64003H342.67V9.42006H350.725ZM350.725 10.9201V10.11H342.67V10.9201H350.725ZM350.725 12.435V11.61H342.67V12.435H350.725ZM343.24 5.62502L343.12 6.51001H345.97C346 6.24001 346.045 5.94002 346.09 5.62502H343.24ZM346.15 4.905C346.165 4.635 346.195 4.35003 346.21 4.09503H343.42L343.33 4.905H346.15ZM346.93 6.495H349.9L349.96 5.61H347.02L346.915 6.495H346.93ZM350.02 4.905L350.08 4.09503H347.125L347.08 4.905H350.02ZM353.155 15.585C351.91 15.105 349.9 14.43 347.815 13.86L348.565 13.23C350.59 13.77 352.75 14.43 354.085 14.925L353.155 15.6001V15.585Z" fill="white"/>
<path d="M370.495 4.065C370.735 4.065 370.765 4.06503 371.02 4.05003L371.65 4.11C371.65 4.215 371.635 4.365 371.62 4.485C371.38 11.64 371.125 14.07 370.48 14.82C370.03 15.39 369.505 15.495 368.44 15.495C367.885 15.495 367.18 15.48 366.52 15.435C366.505 15.105 366.355 14.6251 366.13 14.2951C367.285 14.4001 368.335 14.415 368.74 14.415C369.085 14.415 369.28 14.37 369.46 14.175C370 13.635 370.255 11.295 370.465 5.19H364.615C364.39 8.64 363.28 12.675 358.435 15.645C358.255 15.375 357.85 14.955 357.595 14.775C362.17 12.015 363.25 8.34003 363.475 5.17503H358.06V4.065H363.52C363.535 3.765 363.535 3.49504 363.535 3.21004V0.435028L365.005 0.525024C364.99 0.645024 364.885 0.720015 364.675 0.750015V3.19502C364.675 3.46502 364.675 3.75003 364.66 4.05003H370.495V4.065Z" fill="white"/>
<path d="M375.985 15.735C376.24 14.925 376.57 13.305 376.705 12.27L378.46 12.045C378.115 13.29 377.44 14.985 377.065 15.615L375.985 15.75V15.735Z" fill="white"/>
<path d="M389.935 0.795013C389.89 0.915013 389.77 0.960006 389.575 0.975006C389.185 1.93501 388.615 3.21003 388.06 4.23003C389.215 4.20003 390.505 4.15503 391.81 4.09503C391.435 3.48003 391.015 2.835 390.595 2.28L391.495 1.905C392.41 3.03 393.355 4.54503 393.745 5.55003L392.8 5.985C392.68 5.685 392.545 5.355 392.35 4.995C390.07 5.16 387.715 5.28001 386.23 5.34001C386.215 5.47501 386.095 5.535 385.99 5.565L385.63 4.27502L386.965 4.245C387.565 3.135 388.255 1.56001 388.63 0.420013L389.965 0.779999L389.935 0.795013ZM392.575 6.66002V14.31C392.575 15.525 391.93 15.585 389.86 15.585C389.8 15.285 389.635 14.85 389.47 14.565C389.965 14.58 390.4 14.595 390.73 14.595C391.435 14.595 391.51 14.5951 391.51 14.2951V12.495H387.79V15.63H386.77V6.66002H392.59H392.575ZM391.495 7.60503H387.775V9.12004H391.495V7.60503ZM387.775 11.61H391.495V9.98997H387.775V11.61ZM398.935 6.645C399.61 6.645 399.715 6.37502 399.775 4.69502C400.015 4.89002 400.465 5.05504 400.78 5.13004C400.63 7.12504 400.315 7.65002 399.025 7.65002H396.07C394.555 7.65002 394.15 7.305 394.15 6.03V0.435028L395.545 0.51001C395.53 0.63001 395.44 0.705001 395.23 0.735001V3.27C396.7 2.775 398.245 2.17501 399.205 1.68001L400.03 2.58002C400.03 2.58002 399.925 2.62502 399.865 2.62502C399.82 2.62502 399.775 2.625 399.715 2.61C398.605 3.12 396.835 3.70501 395.215 4.17001V6.00002C395.215 6.52502 395.35 6.61502 396.13 6.61502H398.905L398.935 6.645ZM395.23 13.785C395.23 14.34 395.395 14.43 396.205 14.43H399.07C399.805 14.43 399.91 14.1 399.985 12.21C400.24 12.39 400.69 12.555 400.975 12.63C400.84 14.835 400.525 15.405 399.145 15.405H396.1C394.57 15.405 394.15 15.075 394.15 13.785V8.13004L395.545 8.20502C395.53 8.32502 395.44 8.40001 395.215 8.43001V10.815C396.775 10.35 398.455 9.67498 399.43 9.05998L400.24 9.97505C400.24 9.97505 400.135 10.02 400.06 10.02C400.03 10.02 399.985 10.02 399.925 10.005C398.83 10.62 396.91 11.28 395.2 11.745V13.77L395.23 13.785Z" fill="white"/>
<path d="M408.22 10.095V13.425C409.27 13.935 410.635 14.1 412.435 14.1C413.17 14.1 418.345 14.1 419.275 14.07C419.095 14.325 418.9 14.835 418.84 15.15H412.45C408.76 15.15 406.795 14.565 405.625 12.135C405.43 13.56 405.115 14.79 404.635 15.675C404.44 15.525 404.08 15.33 403.84 15.225C404.665 13.695 404.89 10.875 404.95 7.92L406.24 8.09999C406.21 8.23499 406.105 8.28 405.925 8.295C405.895 8.91 405.88 9.54003 405.835 10.155C406.165 11.31 406.615 12.165 407.23 12.765V6.795H404.035V5.80499H407.2V3.49498H404.5V2.50502H407.2V0.449982L408.55 0.525009C408.535 0.645009 408.43 0.72 408.22 0.75V2.49001H410.845V3.48001H408.22V5.78998H411.175V6.53998C412.675 5.69998 413.47 4.16999 413.77 2.05499H411.34V1.09502H418.015L418.6 1.14001C418.6 1.24501 418.585 1.365 418.57 1.5C418.42 4.56 418.255 5.71498 417.88 6.11998C417.55 6.47998 417.28 6.52501 416.185 6.52501C415.87 6.52501 415.51 6.52499 415.135 6.50999C415.105 6.20999 415 5.80502 414.835 5.55002C415.555 5.61002 416.215 5.60999 416.47 5.60999C416.725 5.60999 416.875 5.59502 416.98 5.46002C417.205 5.20502 417.355 4.31998 417.49 2.03998H414.835C414.505 4.54498 413.5 6.37499 411.67 7.34999C411.52 7.18499 411.25 6.94501 410.995 6.76501H408.205V9.10501H410.83V10.08H408.205L408.22 10.095ZM418.21 13.335H417.16V12.54H412.93V13.35H411.91V7.47002H418.21V13.335ZM412.93 11.595H417.16V8.41498H412.93V11.595Z" fill="white"/>
<path d="M426.775 10.095V13.455C427.84 13.95 429.205 14.085 430.96 14.085C431.65 14.085 436.63 14.085 437.53 14.055C437.35 14.31 437.155 14.8201 437.095 15.1351H430.975C427.27 15.1351 425.2 14.535 423.97 11.985C423.76 13.245 423.385 14.475 422.725 15.525C422.56 15.3 422.215 14.985 421.975 14.88C423.175 12.885 423.34 10.095 423.295 7.89003L424.54 7.95C424.525 8.085 424.42 8.16003 424.225 8.17503C424.225 8.76003 424.225 9.39005 424.18 10.065C424.555 11.325 425.08 12.21 425.77 12.825V6.735H422.32V5.745H425.545V3.52502H422.965V2.53502H425.545V0.435028L426.88 0.51001C426.865 0.63001 426.775 0.705001 426.565 0.735001V2.52H429.085V3.51001H426.565V5.73003H429.43V6.72003H426.775V9.10503H429.22V10.095H426.775ZM428.605 11.31C428.965 11.145 429.385 10.965 429.85 10.755V3.34503H432.88C432.835 2.40003 432.805 1.41001 432.775 0.420013L434.155 0.480026C434.14 0.615026 434.035 0.690017 433.825 0.705017C433.825 1.59002 433.84 2.46002 433.885 3.33002H437.41V4.28999H433.945C434.08 6.04499 434.29 7.68003 434.575 8.97003C435.175 7.87503 435.685 6.645 436.015 5.325L437.155 5.82002C437.125 5.92502 437.02 5.97003 436.84 5.97003C436.405 7.48503 435.745 8.95501 434.935 10.215C435.295 11.265 435.73 11.88 436.24 11.88C436.585 11.88 436.765 11.13 436.81 9.40504C437.035 9.61504 437.365 9.84002 437.605 9.94502C437.425 12.225 437.08 12.93 436.135 12.93C435.355 12.93 434.74 12.285 434.245 11.19C433.69 11.91 433.09 12.54 432.445 13.065C432.295 12.9 431.98 12.615 431.74 12.45C432.505 11.85 433.225 11.0851 433.84 10.1701C433.39 8.64006 433.075 6.58504 432.91 4.33504H430.81V10.32C431.5 9.99002 432.205 9.63003 432.925 9.30003L433.12 10.155C431.68 10.905 430.21 11.7 429.22 12.18C429.22 12.315 429.16 12.405 429.055 12.465L428.56 11.37L428.605 11.31ZM435.37 0.570023C436 1.17002 436.735 2.01 437.065 2.565L436.255 3.06003C435.94 2.49003 435.235 1.62004 434.605 1.00504L435.37 0.585037V0.570023Z" fill="white"/>
<path d="M443.56 11.685C444.28 11.505 445.015 11.325 445.75 11.13L445.855 12.09C444.085 12.6 442.225 13.095 441.055 13.41C441.04 13.545 440.965 13.6349 440.845 13.6499L440.44 12.435C441.025 12.3 441.745 12.135 442.54 11.94V7.67998H440.86V6.65999H442.54V3.04498H440.635V1.99496H445.525V3.04498H443.59V6.65999H445.285V7.67998H443.59V11.67L443.56 11.685ZM448.855 12.75C448.81 12.855 448.675 12.9 448.51 12.885C447.775 13.755 446.59 14.655 445.51 15.255C445.345 15.045 445 14.73 444.775 14.55C445.795 14.04 446.98 13.2 447.64 12.3L448.84 12.75H448.855ZM455.47 6.63V7.56H445.585V6.63H449.92V5.51997H446.665V1.07999H454.405V5.51997H451.36C451.33 5.63997 451.24 5.68498 451.03 5.71498V6.63H455.485H455.47ZM454.27 11.805H451.03V14.445C451.03 15.54 450.61 15.57 448.345 15.57C448.3 15.27 448.165 14.94 448.015 14.655C448.51 14.67 448.93 14.685 449.23 14.685C449.935 14.685 449.965 14.67 449.965 14.445V11.805H446.815V8.47498H454.255V11.805H454.27ZM447.67 1.845V2.925H453.355V1.845H447.67ZM447.67 3.65999V4.755H453.355V3.65999H447.67ZM447.85 9.28499V11.01H453.205V9.28499H447.85ZM454.66 15.165C454.15 14.49 453.07 13.485 452.14 12.795L452.965 12.285C453.88 12.93 455.005 13.9199 455.545 14.5799L454.66 15.1499V15.165Z" fill="white"/>
<path d="M463.225 5.535H463.99C465.01 4.245 465.895 2.805 466.585 1.215L467.83 1.63499C467.785 1.75499 467.635 1.81502 467.44 1.80002C466.84 3.13502 466.105 4.395 465.25 5.535H467.365V6.50999H464.47C463.93 7.15499 463.345 7.76998 462.73 8.32498H466.54V15.33H465.49V14.685H461.605V15.63H460.585V9.98996C460.15 10.29 459.685 10.545 459.22 10.8C459.07 10.59 458.785 10.185 458.59 9.97504C459.295 9.61504 459.955 9.20999 460.6 8.75999V8.34H461.185C461.875 7.8 462.535 7.18501 463.15 6.52501H458.815V5.55002H462.19V3.34502H459.565V2.36998H462.19V0.449982L463.54 0.525009C463.525 0.645009 463.435 0.72 463.225 0.75V2.36998H465.34V3.34502H463.225V5.55002V5.535ZM465.49 11.04V9.23996H461.605V11.04H465.49ZM461.605 13.74H465.49V11.925H461.605V13.74ZM467.995 1.36501H472.93C473.11 1.32001 473.125 1.32001 473.155 1.32001C473.23 1.36501 473.32 1.43999 473.875 1.67999C473.86 1.73999 473.8 1.81502 473.725 1.84502C473.125 3.24002 472.27 5.02501 471.415 6.76501C473.125 8.44501 473.845 9.70501 473.845 10.89C473.845 13.485 472.135 13.485 471.055 13.485C470.8 13.485 470.545 13.485 470.305 13.47C470.29 13.155 470.14 12.69 469.93 12.375C470.365 12.405 470.815 12.42 471.175 12.42C471.895 12.42 472.75 12.42 472.75 10.86C472.75 9.77999 471.985 8.62502 470.245 6.96002C471.01 5.31002 471.715 3.74998 472.255 2.41498H469.075V15.57H467.995V1.38002V1.36501Z" fill="white"/>
<path d="M479.455 3.21004C479.77 2.38504 480.085 1.245 480.25 0.404999L481.645 0.750015C481.6 0.870015 481.495 0.914993 481.285 0.914993C481.105 1.58999 480.775 2.49004 480.475 3.21004H483.22V12.9H478.75V14.25H477.73V3.19502H479.455V3.21004ZM482.17 7.485V4.23003H478.75V7.485H482.17ZM478.75 11.895H482.17V8.46004H478.75V11.895ZM491.08 3.24002L491.65 3.27C491.635 3.345 491.635 3.51004 491.635 3.63004C491.41 11.52 491.2 14.13 490.555 14.91C490.15 15.465 489.7 15.57 488.56 15.57C488.02 15.57 487.36 15.5551 486.685 15.5101C486.655 15.1951 486.52 14.745 486.325 14.46C487.48 14.535 488.53 14.535 488.98 14.535C489.235 14.535 489.415 14.4751 489.58 14.2951C490.105 13.7251 490.345 11.175 490.54 4.27502H485.965C485.44 5.71502 484.81 7.02 484.09 7.995C483.91 7.8 483.52 7.44002 483.28 7.27502C484.435 5.73002 485.38 3.06 485.935 0.404999L487.315 0.735001C487.27 0.885001 487.135 0.929993 486.955 0.914993C486.775 1.69499 486.565 2.49004 486.31 3.25504H491.065L491.08 3.24002ZM486.445 6.69C487.39 7.965 488.35 9.64497 488.695 10.74L487.705 11.205C487.36 10.095 486.445 8.37003 485.5 7.09503L486.445 6.67503V6.69Z" fill="white"/>
<path d="M501.46 11.52C501.415 11.625 501.31 11.685 501.085 11.655C500.02 12.975 498.055 14.565 496.315 15.585C496.105 15.36 495.7 14.985 495.43 14.805C497.17 13.86 499.135 12.345 500.095 10.995L501.46 11.535V11.52ZM498.295 9.80998V10.41H497.2V1.56003H508.51V10.32H507.385V9.79506H498.295V9.80998ZM507.385 2.62502H498.295V8.76001H507.385V2.62502ZM508.87 15.6001C507.91 14.4901 505.9 12.795 504.265 11.61L505.135 11.025C506.77 12.165 508.825 13.815 509.83 14.94L508.885 15.615L508.87 15.6001Z" fill="white"/>
<path d="M528.025 3.66002H519.145C518.83 4.35002 518.5 5.01001 518.125 5.67001H526V14.145C526 15.525 525.355 15.57 522.43 15.57C522.385 15.255 522.22 14.7901 522.055 14.4751C522.625 14.4901 523.165 14.49 523.6 14.49C524.77 14.49 524.905 14.49 524.905 14.13V12.27H518.005V15.555H516.91V7.485C516.085 8.595 515.11 9.585 514 10.395C513.835 10.155 513.49 9.75006 513.265 9.51006C515.29 8.08506 516.835 5.94 517.885 3.645H513.595V2.58002H518.335C518.635 1.86002 518.86 1.125 519.055 0.404999L520.48 0.76503C520.45 0.88503 520.315 0.945023 520.12 0.945023C519.955 1.48502 519.775 2.02502 519.565 2.58002H528.025V3.645V3.66002ZM524.89 8.49002V6.66002H517.99V8.49002H524.89ZM517.99 11.31H524.89V9.45H517.99V11.31Z" fill="white"/>
<path d="M534.535 11.685C535.255 11.505 535.99 11.325 536.725 11.13L536.83 12.09C535.06 12.6 533.2 13.095 532.015 13.41C532 13.545 531.91 13.6349 531.805 13.6499L531.4 12.435C531.985 12.3 532.705 12.135 533.5 11.94V7.67998H531.82V6.65999H533.5V3.04498H531.595V1.99496H536.485V3.04498H534.55V6.65999H536.245V7.67998H534.55V11.67L534.535 11.685ZM539.83 12.75C539.785 12.855 539.65 12.9 539.485 12.885C538.75 13.755 537.565 14.655 536.485 15.255C536.32 15.045 535.975 14.73 535.75 14.55C536.77 14.04 537.955 13.2 538.615 12.3L539.815 12.75H539.83ZM546.445 6.63V7.56H536.56V6.63H540.895V5.51997H537.64V1.07999H545.38V5.51997H542.335C542.305 5.63997 542.215 5.68498 542.005 5.71498V6.63H546.46H546.445ZM545.245 11.805H542.005V14.445C542.005 15.54 541.585 15.57 539.32 15.57C539.275 15.27 539.14 14.94 538.99 14.655C539.485 14.67 539.905 14.685 540.205 14.685C540.91 14.685 540.94 14.67 540.94 14.445V11.805H537.79V8.47498H545.23V11.805H545.245ZM538.645 1.845V2.925H544.33V1.845H538.645ZM538.645 3.65999V4.755H544.33V3.65999H538.645ZM538.825 9.28499V11.01H544.18V9.28499H538.825ZM545.635 15.165C545.125 14.49 544.045 13.485 543.115 12.795L543.94 12.285C544.855 12.93 545.98 13.9199 546.52 14.5799L545.635 15.1499V15.165Z" fill="white"/>
<path d="M554.185 5.535H554.95C555.97 4.245 556.855 2.805 557.545 1.215L558.79 1.63499C558.745 1.75499 558.595 1.81502 558.4 1.80002C557.8 3.13502 557.065 4.395 556.21 5.535H558.325V6.50999H555.43C554.89 7.15499 554.305 7.76998 553.69 8.32498H557.5V15.33H556.45V14.685H552.565V15.63H551.545V9.98996C551.11 10.29 550.645 10.545 550.18 10.8C550.03 10.59 549.745 10.185 549.55 9.97504C550.255 9.61504 550.915 9.20999 551.56 8.75999V8.34H552.145C552.835 7.8 553.495 7.18501 554.11 6.52501H549.775V5.55002H553.15V3.34502H550.525V2.36998H553.15V0.449982L554.5 0.525009C554.485 0.645009 554.395 0.72 554.185 0.75V2.36998H556.3V3.34502H554.185V5.55002V5.535ZM556.45 11.04V9.23996H552.565V11.04H556.45ZM552.565 13.74H556.45V11.925H552.565V13.74ZM558.955 1.36501H563.89C564.07 1.32001 564.085 1.32001 564.115 1.32001C564.19 1.36501 564.28 1.43999 564.835 1.67999C564.82 1.73999 564.76 1.81502 564.685 1.84502C564.085 3.24002 563.23 5.02501 562.375 6.76501C564.085 8.44501 564.805 9.70501 564.805 10.89C564.805 13.485 563.095 13.485 562.015 13.485C561.76 13.485 561.505 13.485 561.265 13.47C561.25 13.155 561.1 12.69 560.89 12.375C561.325 12.405 561.775 12.42 562.135 12.42C562.855 12.42 563.71 12.42 563.71 10.86C563.71 9.77999 562.945 8.62502 561.205 6.96002C561.97 5.31002 562.675 3.74998 563.215 2.41498H560.035V15.57H558.955V1.38002V1.36501Z" fill="white"/>
<path d="M572.215 13.2899C572.215 14.5499 571.195 15.57 569.935 15.57C568.675 15.57 567.655 14.5499 567.655 13.2899C567.655 12.0299 568.675 11.01 569.935 11.01C571.195 11.01 572.215 12.0749 572.215 13.2899ZM571.63 13.2899C571.63 12.3449 570.88 11.5949 569.935 11.5949C568.99 11.5949 568.255 12.3449 568.255 13.2899C568.255 14.2349 569.005 14.9699 569.935 14.9699C570.91 14.9699 571.63 14.1899 571.63 13.2899Z" fill="white"/>
<path d="M580.18 10.125C580.135 10.215 580.03 10.29 579.85 10.29C579.625 11.67 579.22 13.245 578.695 14.205C578.5 14.055 578.14 13.89 577.9 13.785C578.395 12.87 578.74 11.325 578.98 9.82498L580.18 10.14V10.125ZM583.6 9.58502C583.525 9.28502 583.405 8.97002 583.255 8.59502L581.86 8.67V15.615H580.87V8.715C579.985 8.76 579.205 8.79001 578.575 8.82001C578.545 8.95501 578.44 9.01504 578.335 9.04504L578.065 7.81499H579.085C579.46 7.33499 579.865 6.79501 580.285 6.19501C579.745 5.46001 578.86 4.5 578.08 3.795L578.635 3.07498C578.8 3.22498 578.98 3.37501 579.145 3.52501C579.715 2.58001 580.33 1.30501 580.69 0.390015L581.845 0.884995C581.8 0.989995 581.68 1.035 581.5 1.035C581.08 1.95 580.375 3.24 579.775 4.125C580.18 4.545 580.555 4.965 580.84 5.34C581.545 4.275 582.205 3.15 582.685 2.25L583.825 2.78998C583.78 2.86498 583.645 2.93999 583.465 2.93999C582.625 4.36499 581.275 6.32999 580.105 7.76999L582.895 7.72499C582.64 7.16999 582.34 6.60001 582.025 6.10501L582.835 5.75999C583.54 6.83999 584.215 8.26496 584.47 9.14996L583.6 9.55499V9.58502ZM583.615 13.29C583.465 12.405 583.015 11.055 582.55 10.05L583.375 9.78003C583.885 10.8 584.335 12.12 584.515 12.99L583.6 13.305L583.615 13.29ZM586.12 13.485C586.12 14.175 586.315 14.325 587.38 14.325H591.235C592.135 14.325 592.285 13.95 592.375 12.15C592.63 12.33 593.05 12.51 593.335 12.555C593.17 14.685 592.825 15.315 591.265 15.315H587.335C585.61 15.315 585.1 14.955 585.1 13.485V6.44998C584.83 6.65998 584.515 6.85499 584.2 7.01999C584.065 6.77999 583.78 6.42002 583.585 6.25502C585.235 5.41502 586.345 3.88501 586.84 2.31001H584.215V1.33502H591.235L591.46 1.30499L592.045 1.43999C592.03 1.54499 592.015 1.65002 591.985 1.75502C591.64 5.49002 591.355 5.49001 589.855 5.49001C589.54 5.49001 589.165 5.47502 588.805 5.46002C588.775 5.19002 588.67 4.815 588.52 4.545C589.15 4.605 589.735 4.60501 589.975 4.60501C590.215 4.60501 590.32 4.58999 590.44 4.48499C590.635 4.27499 590.785 3.70501 590.905 2.31001H587.905C587.56 3.46501 586.915 4.68 585.955 5.67H592.57V11.025H591.565V10.38H586.09V13.5L586.12 13.485ZM588.325 6.66H586.12V9.40503H588.325V6.66ZM591.595 9.40503V6.66H589.285V9.40503H591.595Z" fill="white"/>
<path d="M2.8902 33.675V31.305C2.3652 31.905 1.79519 32.46 1.24019 32.925C1.04519 32.715 0.670176 32.4 0.430176 32.235C1.76518 31.23 3.13018 29.535 3.95518 27.795L5.24516 28.245C5.20016 28.35 5.08018 28.41 4.88518 28.38C4.66018 28.83 4.37518 29.295 4.09018 29.73H14.6802V30.72H12.9402V33.66H15.3252V34.65H12.9402V37.62H15.0702V38.61H0.82019V37.62H2.8902V34.65H0.580185V33.66H2.8902V33.675ZM3.58018 39.675C3.16018 40.89 2.39519 42.195 1.48019 42.975L0.475174 42.54C1.36017 41.85 2.1402 40.605 2.5602 39.39L3.58018 39.66V39.675ZM3.91019 30.75V33.69H5.86017V30.75H3.91019ZM3.91019 34.68V37.65H5.86017V34.68H3.91019ZM5.77017 42.825C5.75517 42.06 5.6202 40.785 5.4252 39.81L6.41516 39.705C6.64016 40.665 6.82021 41.925 6.83521 42.66L5.7552 42.825H5.77017ZM8.86017 30.75H6.82019V33.69H8.86017V30.75ZM8.86017 34.68H6.82019V37.65H8.86017V34.68ZM9.82019 42.84C9.67019 42.06 9.2352 40.77 8.8002 39.81L9.82019 39.615C10.2702 40.56 10.7352 41.835 10.9002 42.6L9.82019 42.84ZM11.9052 33.675V30.735H9.82019V33.675H11.9052ZM11.9052 37.635V34.665H9.82019V37.635H11.9052ZM14.3952 43.005C13.9902 42.12 13.0302 40.71 12.1902 39.69L13.1952 39.33C14.0352 40.32 15.0252 41.7 15.4602 42.585L14.3802 42.99L14.3952 43.005Z" fill="white"/>
<path d="M20.7249 33.6299C20.1399 34.6199 19.5249 35.535 18.8649 36.3C18.7299 36.045 18.4749 35.52 18.2949 35.28C19.7949 33.585 21.2649 30.75 22.1799 27.93L23.4699 28.35C23.4399 28.47 23.3049 28.53 23.1099 28.515C22.7199 29.61 22.2699 30.7049 21.7449 31.7399L22.1199 31.86C22.1049 31.95 21.9999 32.04 21.7899 32.07V42.9899H20.7249V33.6299ZM29.0349 41.61H33.8799V42.5249H23.0799V41.61H27.9699V40.14H24.1149V39.2549H27.9699V37.92H23.7849V37.02H27.9699V35.85H24.1149V32.0249H33.0249V35.85H29.0499V37.02H33.3249V37.92H29.0499V39.2549H33.0549V40.14H29.0499V41.61H29.0349ZM23.4549 29.445H25.9449V27.885L27.2799 27.96C27.2649 28.08 27.1749 28.155 26.9649 28.17V29.445H30.0249V27.87L31.3749 27.96C31.3599 28.065 31.2699 28.14 31.0599 28.17V29.445H33.7149V30.39H31.0599V31.5599H30.0099V30.39H26.9499V31.575H25.9299V30.39H23.4399V29.445H23.4549ZM25.1199 34.965H27.9549V32.895H25.1199V34.965ZM31.9449 34.965V32.895H29.0349V34.965H31.9449Z" fill="white"/>
<path d="M51.8352 31.05H42.9552C42.6402 31.74 42.3102 32.4 41.9352 33.06H49.8102V41.535C49.8102 42.915 49.1652 42.96 46.2402 42.96C46.1952 42.645 46.0302 42.18 45.8652 41.865C46.4352 41.88 46.9752 41.88 47.4102 41.88C48.5802 41.88 48.7152 41.88 48.7152 41.52V39.66H41.8152V42.945H40.7202V34.875C39.8952 35.985 38.9352 36.975 37.8102 37.785C37.6452 37.545 37.3002 37.14 37.0752 36.9C39.1002 35.475 40.6452 33.33 41.7102 31.035H37.4202V29.97H42.1602C42.4602 29.25 42.6852 28.515 42.8802 27.795L44.2902 28.155C44.2602 28.275 44.1252 28.335 43.9302 28.335C43.7652 28.875 43.5852 29.415 43.3752 29.97H51.8352V31.035V31.05ZM48.7002 35.88V34.05H41.8002V35.88H48.7002ZM41.8002 38.7H48.7002V36.84H41.8002V38.7Z" fill="white"/>
<path d="M57.7753 30.615C58.0903 29.79 58.4053 28.65 58.5703 27.81L59.9653 28.155C59.9203 28.275 59.8153 28.32 59.6053 28.32C59.4253 28.995 59.0953 29.895 58.7953 30.615H61.5403V40.305H57.0703V41.655H56.0503V30.6H57.7753V30.615ZM60.4903 34.89V31.635H57.0703V34.89H60.4903ZM57.0703 39.3H60.4903V35.865H57.0703V39.3ZM69.4003 30.645L69.9703 30.675C69.9553 30.75 69.9553 30.915 69.9553 31.035C69.7303 38.925 69.5203 41.535 68.8753 42.315C68.4703 42.87 68.0203 42.96 66.8803 42.96C66.3403 42.96 65.6803 42.945 65.0053 42.9C64.9753 42.585 64.8403 42.135 64.6453 41.85C65.8003 41.925 66.8503 41.925 67.3003 41.925C67.5553 41.925 67.7353 41.865 67.9003 41.685C68.4253 41.115 68.6653 38.565 68.8603 31.665H64.2853C63.7603 33.105 63.1303 34.395 62.4103 35.385C62.2303 35.19 61.8403 34.83 61.6003 34.665C62.7553 33.12 63.7003 30.45 64.2553 27.795L65.6353 28.125C65.5903 28.275 65.4553 28.32 65.2753 28.305C65.0953 29.085 64.8853 29.88 64.6303 30.645H69.3853H69.4003ZM64.7653 34.095C65.7103 35.37 66.6703 37.05 67.0153 38.16L66.0253 38.64C65.6803 37.53 64.7653 35.805 63.8203 34.53L64.7653 34.11V34.095Z" fill="white"/>
<path d="M80.0501 41.5799H78.76V38.16H73.4351V37.2899L78.655 29.37H80.0501V37.11H81.715V38.16H80.0501V41.5799ZM74.8001 37.11H78.76V32.7749C78.76 32.0999 78.7901 31.455 78.8201 30.825H78.76C78.385 31.575 78.085 32.1 77.785 32.655L74.8001 37.0799V37.11Z" fill="white"/>
<path d="M88.3602 41.5799V30.645H88.3302L86.3202 31.8L85.9902 30.795L88.5102 29.37H89.6652V41.5799H88.3452H88.3602Z" fill="white"/>
<path d="M102.07 41.5799H100.78V38.16H95.4551V37.2899L100.675 29.37H102.07V37.11H103.735V38.16H102.07V41.5799ZM96.8201 37.11H100.78V32.7749C100.78 32.0999 100.81 31.455 100.84 30.825H100.78C100.405 31.575 100.105 32.1 99.8051 32.655L96.8201 37.0799V37.11Z" fill="white"/>
<path d="M107.17 29.37H114.325V30.2399L109.225 41.5799H107.845L112.945 30.5249V30.495H107.17V29.37Z" fill="white"/>
<path d="M121.12 32.94V38.175C121.87 37.935 122.635 37.665 123.4 37.425L123.565 38.385C121.675 39.09 119.665 39.825 118.39 40.245C118.39 40.395 118.285 40.485 118.195 40.515L117.655 39.255C118.33 39.06 119.155 38.805 120.07 38.505V32.925H117.94V31.86H120.07V27.945L121.45 28.02C121.435 28.14 121.345 28.215 121.12 28.245V31.845H123.205V32.91H121.12V32.94ZM132.895 35.895V36.945H128.41V42.975H127.33V36.945H122.68V35.895H127.33V29.73H123.265V28.71H132.445V29.73H128.41V35.895H132.895ZM125.005 35.205C124.87 34.065 124.375 32.325 123.805 31.005L124.735 30.72C125.35 32.055 125.86 33.765 126.01 34.905L125.02 35.205H125.005ZM132.28 31.14C132.25 31.23 132.115 31.275 131.935 31.275C131.575 32.46 130.96 34.215 130.435 35.325C130.42 35.31 129.61 34.98 129.61 34.98C130.12 33.84 130.72 31.965 131.035 30.675L132.295 31.155L132.28 31.14Z" fill="white"/>
<path d="M139.27 37.89L141.16 37.14L141.37 38.085C139.675 38.865 137.86 39.63 136.72 40.125C136.72 40.26 136.66 40.35 136.54 40.395L135.97 39.1499C136.585 38.9399 137.365 38.625 138.22 38.295V32.8799H136.255V31.8299H138.22V27.93L139.585 28.035C139.57 28.155 139.465 28.215 139.255 28.245V31.8299H141.1V32.8799H139.255V37.86L139.27 37.89ZM143.545 40.5C143.545 41.4 143.755 41.61 144.895 41.61H149.05C150.025 41.61 150.19 41.16 150.325 39.195C150.58 39.39 151.015 39.5699 151.315 39.6299C151.135 41.8799 150.775 42.6 149.065 42.6H144.865C143.02 42.6 142.495 42.195 142.495 40.485V34.995L140.845 35.7L140.425 34.725L142.495 33.84V29.37L143.86 29.475C143.845 29.595 143.74 29.67 143.53 29.7V33.39L145.9 32.385V27.84L147.25 27.9149C147.235 28.0349 147.145 28.11 146.935 28.14V31.9349L149.545 30.8099L149.77 30.6299L150.67 30.96C150.67 30.96 150.595 31.095 150.505 31.14C150.505 34.23 150.46 36.81 150.325 37.425C150.175 38.415 149.62 38.5799 147.895 38.5799C147.85 38.2649 147.76 37.86 147.64 37.605C148.045 37.635 148.615 37.635 148.795 37.635C149.05 37.635 149.23 37.56 149.32 37.155C149.425 36.75 149.455 34.725 149.455 31.995L146.95 33.075V39.3299H145.9V33.5249L143.53 34.53V40.5H143.545Z" fill="white"/>
<path d="M162.49 41.19H169.36V42.285H154.585V41.19H161.335V35.9549H156.16V34.875H161.335V30.09H155.455V29.01H168.49V30.09H162.49V34.875H167.935V35.9549H162.49V41.19Z" fill="white"/>
<path d="M186.325 35.1901H181.87C182.83 38.5201 184.765 41.01 187.945 42C187.69 42.24 187.345 42.705 187.18 43.005C183.775 41.76 181.78 39.0301 180.76 35.1901H176.35C176.185 37.8001 175.57 40.845 173.56 43.005C173.395 42.78 172.96 42.39 172.72 42.24C175.06 39.675 175.3 36.075 175.3 33.36V28.8151H186.325V35.1901ZM176.395 29.895V34.11H185.215V29.895H176.395Z" fill="white"/>
<path d="M206.08 30.51H193.45V34.2899C193.45 36.8399 193.255 40.53 191.815 43.02C191.635 42.825 191.185 42.51 190.915 42.405C192.265 40.035 192.385 36.6899 192.385 34.2899V29.5049H198.535V27.825L199.99 27.93C199.975 28.05 199.885 28.125 199.66 28.155V29.5049H206.08V30.51ZM203.89 37.2L204.625 37.5599C204.595 37.6349 204.535 37.695 204.46 37.725C203.71 39.075 202.555 40.125 201.13 40.905C202.63 41.475 204.355 41.85 206.215 42.03C205.975 42.27 205.705 42.7049 205.57 42.9899C203.515 42.7049 201.61 42.225 199.975 41.475C198.22 42.24 196.165 42.69 194.065 42.96C193.99 42.69 193.765 42.27 193.6 42.03C195.445 41.835 197.275 41.475 198.895 40.89C197.77 40.215 196.855 39.405 196.18 38.43L196.87 38.175H194.275V37.26H203.71L203.905 37.215L203.89 37.2ZM203.02 36.0599H196.78V33.36H194.125V32.445H196.78V30.945L198.145 31.05C198.13 31.17 198.025 31.245 197.815 31.26V32.445H201.94V30.945L203.335 31.05C203.32 31.17 203.215 31.245 203.005 31.26V32.445H205.96V33.36H203.005V36.0599H203.02ZM197.17 38.16C197.845 39.075 198.82 39.81 200.005 40.41C201.19 39.825 202.21 39.09 202.915 38.16H197.17ZM201.94 33.3449H197.815V35.175H201.94V33.3449Z" fill="white"/>
<path d="M222.805 30.8999L223.72 31.44C223.675 31.515 223.555 31.575 223.48 31.605C221.635 34.605 218.095 38.34 214.87 40.545C216.265 41.4 218.155 41.5949 220.375 41.5949C220.9 41.5949 223.87 41.5949 224.575 41.5949C224.41 41.8499 224.215 42.36 224.17 42.675H220.33C216.67 42.675 214.09 42.105 212.485 39.555C211.9 40.605 211.21 41.685 210.58 42.51C210.61 42.57 210.625 42.6449 210.625 42.7049C210.625 42.7799 210.595 42.855 210.52 42.93L209.35 42.18C210.52 40.845 211.84 38.685 212.545 37.065L213.55 37.5C213.4 37.815 213.22 38.175 213.04 38.52C213.28 39.06 213.61 39.495 213.97 39.855C216.835 37.965 220 34.71 221.755 32.055H210.205V30.975H216.37V27.84L217.81 27.945C217.795 28.065 217.705 28.14 217.48 28.17V30.975H222.565L222.79 30.9149L222.805 30.8999Z" fill="white"/>
<path d="M227.755 34.32C229.03 33.93 230.965 33.27 232.87 32.655L233.05 33.5399C231.355 34.1549 229.57 34.8 228.445 35.175C228.43 35.31 228.37 35.4 228.25 35.43L227.755 34.32ZM237.925 30.735C237.925 31.44 238.375 34.02 242.935 35.085C242.74 35.31 242.485 35.76 242.335 35.985C238.84 35.115 237.655 33.15 237.4 32.1C237.205 32.895 236.455 34.275 234.415 35.265L234.865 35.3999C234.82 35.5349 234.715 35.58 234.49 35.55C234.235 35.97 233.92 36.4349 233.605 36.9149H242.785V37.875H239.32C238.855 38.895 238.18 39.75 237.295 40.44C239.245 40.965 241 41.52 242.32 42.03L241.645 42.945C240.22 42.345 238.315 41.745 236.185 41.175C234.34 42.165 231.835 42.72 228.49 42.975C228.43 42.645 228.235 42.24 228.055 41.985C230.83 41.82 232.99 41.46 234.64 40.785C233.59 40.545 232.51 40.2899 231.4 40.0799L231.01 40.605L230.005 40.23C230.5 39.6 231.1 38.76 231.715 37.89H227.83V36.93H232.36C232.6 36.555 232.855 36.165 233.095 35.805L232.405 36C232.315 35.76 232.03 35.385 231.82 35.175C236.47 34.08 236.8 31.47 236.8 30.765V30.4349H234.835C234.34 31.3049 233.785 32.07 233.185 32.655C233.005 32.46 232.645 32.1749 232.405 32.0399C233.41 31.0949 234.34 29.475 234.88 27.855L236.14 28.23C236.095 28.35 235.96 28.3949 235.795 28.3799C235.645 28.7699 235.48 29.16 235.3 29.535H241.75L242.395 29.5799C242.38 29.6249 242.365 29.7449 242.35 29.7749C241.975 30.7349 241.435 31.905 240.985 32.64L240.055 32.3099C240.325 31.8149 240.64 31.1249 240.925 30.4349H237.925V30.765V30.735ZM229 28.26C230.125 28.665 231.565 29.3849 232.255 29.9549L231.685 30.795C230.995 30.21 229.6 29.46 228.445 28.995L229 28.245V28.26ZM232 39.2549C233.335 39.4949 234.67 39.7949 235.96 40.0949C236.875 39.5099 237.58 38.775 238.06 37.86H232.96L232 39.2399V39.2549Z" fill="white"/>
<path d="M246.415 43.125C246.67 42.315 247 40.695 247.135 39.66L248.89 39.4349C248.545 40.6799 247.87 42.3749 247.495 43.0049L246.415 43.14V43.125Z" fill="white"/>
<path d="M261.79 33.945L262.36 33.975C262.36 34.08 262.36 34.215 262.345 34.35C262.21 40.005 262.12 41.865 261.67 42.42C261.295 42.96 260.86 42.96 260.08 42.96C259.735 42.96 259.33 42.945 258.925 42.93C258.895 42.615 258.79 42.18 258.61 41.91C259.345 41.97 260.005 41.97 260.32 41.97C260.515 41.97 260.635 41.925 260.74 41.76C261.04 41.385 261.16 39.705 261.28 34.98H259.09C258.895 38.1 258.4 41.055 256.96 42.975C256.78 42.75 256.405 42.42 256.135 42.255C257.89 39.96 258.1 35.715 258.175 31.575H256.3V30.525H259.285V27.84L260.71 27.915C260.695 28.035 260.59 28.11 260.38 28.14V30.525H263.44V31.575H259.24C259.225 32.355 259.21 33.15 259.18 33.945H261.805H261.79ZM267.79 27.885C267.76 28.005 267.655 28.08 267.535 28.11C268.36 30.315 269.92 32.655 271.48 33.825C271.27 34.125 271.045 34.545 270.88 34.89C269.23 33.525 267.73 31.23 266.935 29.085C266.26 31.14 264.82 33.495 263.11 34.92C262.99 34.62 262.735 34.185 262.555 33.945C264.22 32.61 265.735 30.075 266.35 27.795L267.805 27.87L267.79 27.885ZM269.455 42.96C268.3 41.835 265.87 40.305 263.845 39.36L264.49 38.535C266.515 39.435 268.975 40.905 270.16 42L269.44 42.96H269.455ZM265.885 34.215C267.025 34.905 268.375 35.925 269.02 36.69L268.255 37.47C267.64 36.705 266.32 35.625 265.18 34.905L265.9 34.2L265.885 34.215Z" fill="white"/>
<path d="M285.55 29.2049H289.42V30.1649H285.55V31.0949H284.47V30.1649H279.73V31.0949H278.65V30.1649H274.9V29.2049H278.65V27.825L280.03 27.8999C280.015 28.0199 279.925 28.095 279.715 28.125V29.2049H284.455V27.825L285.835 27.8999C285.82 28.0199 285.745 28.095 285.52 28.125V29.2049H285.55ZM288.61 37.2V41.7899C288.61 42.8999 288.145 42.93 285.91 42.93C285.865 42.66 285.73 42.3 285.58 42.015C286.39 42.03 287.08 42.03 287.275 42.03C287.485 42.015 287.53 41.9699 287.53 41.7749V38.16H282.625V40.065L284.83 39.96C284.575 39.555 284.29 39.165 284.005 38.805L284.815 38.5049C285.58 39.3899 286.36 40.605 286.63 41.445L285.745 41.76C285.655 41.46 285.505 41.145 285.325 40.785C282.79 40.965 280.105 41.115 278.425 41.19C278.395 41.325 278.305 41.3849 278.2 41.4149L277.795 40.215C278.8 40.185 280.12 40.1549 281.575 40.0949V38.16H276.82V42.96H275.77V37.1849H281.575V36.3H276.985V31.35H287.425V36.3H282.64V37.1849H288.625L288.61 37.2ZM278.02 32.16V33.4349H281.575V32.16H278.02ZM278.02 35.5049H281.575V34.215H278.02V35.5049ZM286.345 33.4349V32.16H282.625V33.4349H286.345ZM286.345 35.5049V34.215H282.625V35.5049H286.345Z" fill="white"/>
<path d="M296.29 32.94V38.175C297.04 37.935 297.805 37.665 298.57 37.425L298.735 38.385C296.845 39.09 294.835 39.825 293.56 40.245C293.56 40.395 293.455 40.485 293.365 40.515L292.825 39.255C293.5 39.06 294.325 38.805 295.24 38.505V32.925H293.11V31.86H295.24V27.945L296.62 28.02C296.605 28.14 296.515 28.215 296.29 28.245V31.845H298.375V32.91H296.29V32.94ZM308.065 35.895V36.945H303.58V42.975H302.5V36.945H297.85V35.895H302.5V29.73H298.45V28.71H307.63V29.73H303.595V35.895H308.08H308.065ZM300.175 35.205C300.04 34.065 299.545 32.325 298.975 31.005L299.905 30.72C300.52 32.055 301.03 33.765 301.18 34.905L300.19 35.205H300.175ZM307.45 31.14C307.42 31.23 307.285 31.275 307.105 31.275C306.745 32.46 306.13 34.215 305.605 35.325C305.59 35.31 304.78 34.98 304.78 34.98C305.29 33.84 305.89 31.965 306.205 30.675L307.465 31.155L307.45 31.14Z" fill="white"/>
<path d="M319.84 30.015H326.26V31.065H313.66V34.32C313.66 36.825 313.45 40.4999 312.04 42.9899C311.845 42.7949 311.35 42.48 311.095 42.36C312.43 39.99 312.565 36.69 312.565 34.32V30.015H318.715V27.825L320.17 27.93C320.155 28.05 320.065 28.125 319.84 28.155V30.015ZM320.71 31.53C320.695 31.65 320.605 31.7249 320.38 31.7549V33.48H326.035V34.4699H320.38V36.96H324.895V42.945H323.785V42.3299H316.36V43.0049H315.28V36.975H319.285V31.44L320.71 31.545V31.53ZM323.785 41.34V37.965H316.36V41.34H323.785Z" fill="white"/>
<path d="M344.635 35.235V36.33H337.735V41.49C337.735 42.27 337.525 42.6 336.94 42.795C336.355 42.975 335.29 42.99 333.685 42.99C333.61 42.66 333.415 42.18 333.22 41.85C334.09 41.88 334.9 41.895 335.47 41.895C336.49 41.895 336.625 41.895 336.625 41.475V36.33H329.695V35.235H336.625V32.565L337.255 32.595C338.545 31.92 339.94 30.96 340.99 30.075H331.39V28.995H342.205L342.4 28.92L343.375 29.565C343.33 29.64 343.195 29.685 343.105 29.715C341.77 30.99 339.595 32.52 337.75 33.48V35.235H344.65H344.635Z" fill="white"/>
<path d="M350.155 33.105H348.085L347.965 32.61H350.155V27.915L350.995 28.065C351.25 28.095 351.37 28.2 351.37 28.32C351.37 28.44 351.295 28.545 351.16 28.575C351.025 28.605 350.965 28.71 350.965 28.815V32.595H351.64L352.54 31.71L353.38 32.49C353.38 32.49 353.47 32.64 353.47 32.73C353.47 32.82 353.41 33.075 353.14 33.075H350.95V38.22C351.73 37.845 352.495 37.41 353.23 36.885C353.275 36.855 353.305 36.84 353.35 36.84C353.44 36.84 353.53 36.96 353.53 37.035C353.53 37.08 353.5 37.125 353.47 37.17C353.08 37.515 351.505 38.91 349.03 39.87C348.97 39.9 348.955 40.02 348.955 40.17C348.955 40.35 348.88 40.53 348.715 40.53C348.61 40.53 348.505 40.44 348.4 40.215L347.89 39.225L348.685 39.075L350.14 38.565V33.075L350.155 33.105ZM358.24 38.655V36.225L359.155 36.36C359.41 36.39 359.545 36.495 359.545 36.615C359.545 36.735 359.47 36.855 359.305 36.93C359.14 36.99 359.065 37.11 359.065 37.23V38.67H360.79L361.81 37.8L362.86 38.58C362.935 38.625 362.98 38.715 362.98 38.805C362.98 38.835 362.98 38.865 362.965 38.91C362.95 39.06 362.815 39.15 362.62 39.15H359.065V42.72C359.065 42.975 358.54 43.08 358.435 43.08C358.33 43.08 358.255 43.035 358.255 42.93V39.15H353.14L353.005 38.655H358.255H358.24ZM354.115 29.625L354.82 30.12H357.07C357.325 29.415 357.505 28.665 357.565 27.915L358.45 28.05C358.675 28.08 358.78 28.185 358.78 28.305C358.78 28.425 358.675 28.53 358.555 28.53C358.42 28.53 358.33 28.59 358.3 28.665C358.105 29.145 357.805 29.625 357.49 30.12H361.255L361.675 29.685L362.425 30.18C362.425 30.18 362.53 30.285 362.53 30.345C362.53 30.42 362.455 30.57 362.29 30.615C362.155 30.645 362.08 30.72 362.08 30.795V36.285C362.095 36.375 362.02 36.48 361.915 36.525C361.405 36.66 361.285 36.69 361.285 36.285V35.58H357.64L357.235 36.225C356.125 37.695 353.725 38.325 353.665 38.325C353.5 38.325 353.5 38.25 353.5 38.205C353.5 38.16 353.53 38.13 353.575 38.1C354.7 37.65 355.795 37.035 356.56 36.06L356.875 35.535H354.97V36.06C354.97 36.06 354.91 36.21 354.79 36.27C354.235 36.405 354.175 36.42 354.175 36.03V29.61L354.115 29.625ZM357.61 30.87V30.63H354.925V32.55H357.535L357.61 30.87ZM357.265 34.485C357.37 34.125 357.445 33.645 357.49 33.015H354.91V35.085H357.01L357.25 34.485H357.265ZM358.075 34.305L357.82 35.085H361.24V33.015H358.285L358.075 34.305ZM358.33 32.55H361.225V30.63H358.405V30.87L358.33 32.55Z" fill="white"/>
<path d="M374.38 41.355H381.22V42.4349H366.49V41.355H373.255V36.9899H368.29V35.925H373.255V32.16H369.265C368.695 33.33 368.02 34.395 367.315 35.175C367.105 34.98 366.685 34.665 366.4 34.5C367.735 33.09 368.89 30.6 369.565 28.11L370.99 28.5C370.945 28.62 370.825 28.68 370.615 28.68C370.375 29.475 370.09 30.2999 369.775 31.0799H373.285V27.825L374.755 27.8999C374.74 28.0199 374.635 28.095 374.41 28.125V31.0799H380.485V32.16H374.41V35.925H379.885V36.9899H374.41V41.355H374.38Z" fill="white"/>
<path d="M387.85 39.7049C387.46 40.9049 386.8 42 385.42 42.6L384.595 41.9699C385.84 41.4599 386.59 40.485 386.92 39.36L387.85 39.7049ZM391.555 31.905C391.42 31.68 391.255 31.425 391.06 31.17C388.855 31.32 386.62 31.455 385.21 31.53C385.18 31.65 385.075 31.7249 384.985 31.7399L384.625 30.6299L385.9 30.585C386.425 29.79 387.025 28.65 387.37 27.825L388.585 28.26C388.555 28.365 388.435 28.395 388.24 28.395C387.925 29.01 387.43 29.8499 386.95 30.5399L390.4 30.39C390.055 29.985 389.665 29.595 389.29 29.265L390.07 28.8299C390.97 29.5649 391.945 30.6299 392.365 31.3799L391.54 31.89L391.555 31.905ZM391.33 32.28V37.515C391.33 38.415 390.91 38.52 389.125 38.52C389.08 38.265 388.915 37.935 388.795 37.71C390.31 37.74 390.31 37.725 390.31 37.515V36.5249H386.62V38.73H385.615V32.295H391.315L391.33 32.28ZM390.325 33.075H386.635V34.05H390.325V33.075ZM386.635 35.7749H390.325V34.8H386.635V35.7749ZM390.04 41.325C390.04 41.7 390.19 41.76 391.045 41.76H394.105C394.795 41.76 394.9 41.595 394.975 40.305C395.2 40.47 395.62 40.6049 395.92 40.6649C395.8 42.3149 395.47 42.69 394.225 42.69H390.985C389.365 42.69 388.96 42.435 388.96 41.325V39.3L390.355 39.375C390.34 39.495 390.235 39.57 390.025 39.6V41.3099L390.04 41.325ZM392.995 40.635C392.455 40.065 391.33 39.33 390.37 38.91L391.06 38.295C392.02 38.7 393.145 39.39 393.715 39.96L392.995 40.6499V40.635ZM397.84 31.86C398.44 31.86 398.56 31.665 398.62 30.375C398.845 30.54 399.25 30.675 399.55 30.735C399.43 32.37 399.115 32.7749 397.93 32.7749H394.975C393.49 32.7749 393.1 32.505 393.1 31.35V27.855L394.435 27.945C394.42 28.05 394.33 28.125 394.12 28.155V29.82C395.5 29.445 396.94 28.9349 397.765 28.4699L398.695 29.2199C398.62 29.2799 398.5 29.295 398.38 29.265C397.36 29.76 395.665 30.255 394.105 30.645V31.35C394.105 31.755 394.24 31.86 395.02 31.86H397.81H397.84ZM397.9 37.53C398.515 37.53 398.635 37.32 398.68 36C398.92 36.18 399.325 36.33 399.625 36.375C399.49 38.04 399.175 38.46 397.99 38.46H394.99C393.49 38.46 393.1 38.1599 393.1 37.0049V33.21L394.435 33.3C394.42 33.405 394.33 33.48 394.12 33.51V35.2199C395.56 34.8299 397.09 34.32 397.945 33.825L398.89 34.59C398.89 34.59 398.8 34.6499 398.71 34.6499C398.68 34.6499 398.635 34.65 398.575 34.635C397.495 35.145 395.725 35.6699 394.105 36.0599V37.0049C394.105 37.4399 394.24 37.53 395.035 37.53H397.87H397.9ZM398.83 42.57C398.275 41.7 397.03 40.56 395.86 39.825L396.715 39.285C397.885 39.99 399.16 41.085 399.73 41.94L398.83 42.555V42.57Z" fill="white"/>
<path d="M408.985 28.8C408.94 28.92 408.805 28.965 408.61 28.965C407.53 31.425 405.82 33.9 404.08 35.49C403.855 35.265 403.405 34.905 403.12 34.74C404.86 33.285 406.54 30.81 407.545 28.32L408.985 28.815V28.8ZM410.71 34.215C410.665 34.35 410.515 34.425 410.305 34.425C409.54 36.36 408.34 38.97 407.245 40.95C409.54 40.89 412.27 40.785 414.895 40.695C414.115 39.585 413.2 38.4 412.39 37.44L413.41 36.945C414.925 38.67 416.65 40.965 417.49 42.45L416.395 43.05C416.185 42.645 415.885 42.165 415.555 41.655C411.46 41.895 407.11 42.075 404.41 42.195C404.38 42.33 404.26 42.405 404.155 42.42L403.705 41.055L406.03 40.995C407.17 38.97 408.475 35.985 409.225 33.825L410.74 34.23L410.71 34.215ZM413.305 28.32C414.43 30.525 416.53 33.18 418.06 34.56C417.76 34.785 417.355 35.19 417.145 35.49C415.615 33.93 413.515 31.095 412.24 28.755L413.305 28.32Z" fill="white"/>
<path d="M421.975 28.5599H435.715V42.96H434.635V42.2399H423.01V42.96H421.96V28.5599H421.975ZM423.025 41.235H434.65V29.565H423.025V41.235ZM429.415 37.065C429.775 37.485 430.225 37.89 430.765 38.265C431.47 37.83 432.31 37.2 432.805 36.78L433.705 37.335C433.705 37.335 433.54 37.44 433.375 37.44C432.865 37.8 432.1 38.2799 431.425 38.6849C432.28 39.1949 433.225 39.585 434.14 39.825C433.93 39.99 433.675 40.3349 433.525 40.5599C431.89 40.0499 430.18 39.0299 429.055 37.8299V40.77H428.065V38.2049C426.925 38.9849 425.53 39.66 424.24 40.125C424.105 39.945 423.82 39.5999 423.655 39.4349C425.185 38.9249 426.925 38.085 428.14 37.065H425.245V34.305H432.43V37.065H429.43H429.415ZM433.75 32.745V33.495H423.895V32.745H428.275V31.6499H424.915V30.9149H428.275V29.925L429.61 30.03C429.595 30.12 429.505 30.2099 429.295 30.2399V30.93H432.76V31.6649H429.295V32.76H433.75V32.745ZM426.175 34.98V36.375H431.425V34.98H426.175Z" fill="white"/>
<path d="M443.41 32.16C443.29 31.635 442.99 30.84 442.675 30.195H441.925C441.46 30.99 440.905 31.725 440.365 32.28C440.155 32.1 439.78 31.845 439.525 31.71C440.485 30.795 441.43 29.265 441.985 27.75L443.23 28.155C443.2 28.275 443.05 28.32 442.885 28.305C442.75 28.635 442.585 28.98 442.435 29.295H446.95V30.195H443.785C444.055 30.75 444.295 31.365 444.4 31.8L443.425 32.175L443.41 32.16ZM453.145 37.65H453.385L454.015 37.725C454.015 37.845 453.985 37.95 453.97 38.07C453.55 42.18 453.22 42.24 451.33 42.24C450.955 42.24 450.52 42.24 450.04 42.21C450.025 41.88 449.905 41.475 449.725 41.175C450.535 41.28 451.315 41.28 451.6 41.28C451.9 41.28 452.05 41.265 452.185 41.13C452.44 40.905 452.62 40.215 452.8 38.61H447.685V42.96H446.605V38.94C444.97 40.575 442.495 41.955 440.305 42.675C440.14 42.42 439.84 42 439.6 41.79C441.7 41.205 444.085 39.99 445.615 38.61H442.15L441.97 39.21L440.89 39.045C441.235 37.995 441.64 36.36 441.895 35.07H446.605V33.3H441.01V32.355H452.965V36.015H447.67V37.65H453.115H453.145ZM446.62 36.015H442.795C442.675 36.555 442.54 37.125 442.405 37.65H446.62V36.015ZM449.695 28.125C449.665 28.245 449.53 28.275 449.365 28.275C449.215 28.62 449.05 28.965 448.87 29.28H454.675V30.18H450.775C451.195 30.735 451.57 31.35 451.765 31.815L450.805 32.205C450.595 31.65 450.1 30.84 449.59 30.18H448.315C447.79 30.96 447.175 31.665 446.545 32.175C446.35 31.995 445.975 31.725 445.72 31.575C446.83 30.72 447.85 29.28 448.42 27.75L449.695 28.14V28.125ZM447.685 33.285V35.055H451.9V33.285H447.685Z" fill="white"/>
<path d="M457.99 34.62H473.08V35.82H457.99V34.62Z" fill="white"/>
<path d="M481.63 36.015L479.515 36.7199V41.64C479.515 42.825 479.005 42.99 476.92 42.96C476.875 42.705 476.725 42.24 476.575 41.94C477.025 41.955 477.415 41.9699 477.73 41.9699C478.405 41.9699 478.48 41.97 478.48 41.64V37.05C477.85 37.26 477.28 37.44 476.8 37.59C476.8 37.725 476.71 37.7999 476.59 37.8449L476.185 36.585C476.815 36.42 477.625 36.1949 478.48 35.9549V32.25H476.35V31.23H478.48V27.825L479.815 27.8999C479.8 28.0349 479.725 28.095 479.5 28.125V31.215H481.42V32.235H479.5V35.64L481.465 35.055L481.615 36L481.63 36.015ZM484.27 30.66V27.825L485.59 27.8999C485.575 28.0199 485.5 28.08 485.275 28.11V34.8C485.275 38.085 484.9 40.965 481.87 42.975C481.69 42.765 481.33 42.4049 481.09 42.2399C482.62 41.2349 483.415 40.02 483.85 38.64C482.92 38.985 482.035 39.285 481.42 39.51C481.42 39.645 481.345 39.72 481.225 39.765L480.7 38.655C481.6 38.415 482.815 38.025 484.075 37.605C484.21 36.855 484.255 36.0599 484.27 35.2199H481.615V34.215H484.27V31.6499H481.495V30.645H484.27V30.66ZM491.395 37.965V38.9699H488.155V42.945H487.105V27.825L488.47 27.8999C488.455 28.0199 488.35 28.095 488.14 28.125V30.645H491.11V31.6499H488.14V34.215H490.945V35.2199H488.14V37.9349H491.38L491.395 37.965Z" fill="white"/>
<path d="M494.935 43.125C495.19 42.315 495.52 40.695 495.655 39.66L497.41 39.4349C497.065 40.6799 496.39 42.3749 496.015 43.0049L494.935 43.14V43.125Z" fill="white"/>
<path d="M519.625 33.735H513.25C514.315 37.635 516.415 40.635 519.88 41.91C519.61 42.15 519.25 42.615 519.07 42.93C515.665 41.535 513.595 38.64 512.395 34.71C511.645 37.935 509.875 41.13 505.66 42.945C505.495 42.645 505.15 42.255 504.88 42.015C509.185 40.275 510.79 37.0049 511.42 33.7199H505.135V32.5949H511.6C511.81 30.8999 511.795 29.235 511.81 27.825L513.34 27.8999C513.325 28.0499 513.19 28.125 512.98 28.17C512.965 29.46 512.95 30.9899 512.755 32.5799H519.625V33.7049V33.735Z" fill="white"/>
<path d="M538.135 36.72V37.8H531.235V41.43C531.235 42.255 530.995 42.585 530.41 42.765C529.81 42.96 528.745 42.975 526.99 42.96C526.915 42.645 526.69 42.18 526.525 41.865C527.305 41.895 528.055 41.895 528.625 41.895C530.005 41.895 530.125 41.895 530.125 41.43V37.8H523.27V36.72H530.125V33.96H524.35V32.91H530.125V30.27C528.34 30.48 526.435 30.645 524.695 30.735C524.665 30.465 524.53 30.03 524.395 29.79C528.34 29.535 533.08 29.01 535.495 28.14L536.44 29.07C536.44 29.07 536.335 29.115 536.245 29.115C536.215 29.115 536.17 29.115 536.095 29.1C534.925 29.49 533.32 29.805 531.565 30.06C531.535 30.18 531.445 30.225 531.235 30.255V32.895H537.205V33.945H531.235V36.705H538.135V36.72Z" fill="white"/>
<path d="M554.545 37.185H549.505V38.25H555.115V39.135H549.505V40.26H556.21V41.145H549.505V43.005H548.395V41.145H541.84V40.26H548.395V39.135H542.92V38.25H548.395V37.185H543.475V36.33H548.395V35.25H541.54V34.38H548.395V33.345H543.61V32.505H548.395V31.695L548.275 31.77C548.065 31.605 547.675 31.38 547.405 31.245C547.855 30.93 548.32 30.54 548.74 30.105H545.86C546.205 30.615 546.535 31.17 546.685 31.575L545.725 31.905C545.56 31.44 545.155 30.705 544.75 30.105H543.985C543.475 30.87 542.92 31.575 542.365 32.1C542.155 31.935 541.78 31.68 541.54 31.545C542.5 30.675 543.475 29.22 544.075 27.78L545.32 28.2C545.275 28.305 545.155 28.365 544.975 28.335C544.84 28.635 544.675 28.935 544.525 29.235H548.845V30C549.43 29.355 549.955 28.56 550.3 27.78L551.515 28.155C551.485 28.275 551.38 28.32 551.185 28.305C551.035 28.62 550.855 28.92 550.66 29.235H556.405V30.12H552.385C552.775 30.57 553.135 31.08 553.33 31.47L552.4 31.875C552.175 31.38 551.665 30.69 551.185 30.12H550.03C549.61 30.645 549.13 31.095 548.665 31.485L549.82 31.56C549.805 31.68 549.7 31.755 549.49 31.77V32.505H554.53V34.38H556.48V35.25H554.53V37.17L554.545 37.185ZM549.505 33.375V34.41H553.42V33.375H549.505ZM549.505 35.265V36.345H553.42V35.265H549.505Z" fill="white"/>
<path d="M563.77 35.775C564.685 35.55 565.63 35.325 566.56 35.07L566.68 36.015C565.72 36.285 564.73 36.57 563.785 36.825V41.52C563.785 42.885 563.11 42.945 560.605 42.945C560.545 42.645 560.38 42.18 560.23 41.88C561.175 41.895 562.06 41.895 562.315 41.895C562.57 41.88 562.675 41.79 562.675 41.52V37.14L560.35 37.785C560.35 37.905 560.245 37.995 560.14 38.025L559.72 36.735C560.515 36.555 561.565 36.315 562.69 36.03V32.265H559.885V31.2H562.69V27.795L564.13 27.87C564.115 28.005 564.04 28.065 563.8 28.095V31.185H566.365V32.25H563.8V35.745L563.77 35.775ZM575.035 29.295V30.375H571.945V41.445C571.945 42.255 571.735 42.6 571.165 42.78C570.595 42.975 569.605 42.975 567.985 42.975C567.925 42.66 567.76 42.18 567.58 41.865C568.33 41.88 569.035 41.895 569.575 41.895C570.73 41.895 570.835 41.895 570.835 41.445V30.375H565.87V29.295H575.065H575.035Z" fill="white"/>
<path d="M581.68 34.35V39.675C582.955 41.61 585.28 41.61 588.22 41.61C589.975 41.61 592.045 41.565 593.32 41.475C593.185 41.73 592.99 42.255 592.96 42.585C591.835 42.63 590.05 42.66 588.43 42.66C585.07 42.66 582.835 42.66 581.2 40.635C580.405 41.355 579.535 42.09 578.83 42.645C578.845 42.795 578.8 42.8549 578.68 42.8999L578.05 41.7C578.83 41.175 579.79 40.4249 580.63 39.7049V35.37H578.23V34.32H581.68V34.35ZM579.25 28.245C580.345 28.95 581.59 30.015 582.16 30.825L581.29 31.5599C580.75 30.7499 579.52 29.64 578.425 28.905L579.235 28.26L579.25 28.245ZM593.05 33.36V34.32H582.445V33.36H587.275V30.9899H584.89C584.56 31.7249 584.17 32.415 583.78 32.925C583.555 32.76 583.135 32.565 582.865 32.43C583.675 31.425 584.38 29.7 584.8 28.035L586.105 28.395C586.075 28.515 585.955 28.5599 585.76 28.5599C585.625 29.0399 585.46 29.52 585.28 30.015H587.245V27.825L588.67 27.8999C588.655 28.0199 588.55 28.095 588.34 28.125V30H592.315V30.975H588.34V33.3449H593.035L593.05 33.36ZM591.685 40.575H590.605V40.02H585.13V40.62H584.08V35.535H591.67V40.575H591.685ZM585.13 39.045H590.605V36.45H585.13V39.045Z" fill="white"/>
<path d="M1.07503 55.98H14.815V70.41H13.7201V69.6149H2.11003V70.41H1.06006V55.98H1.07503ZM2.12505 68.61H13.735V56.985H2.12505V68.61ZM2.92004 66.105C4.19504 65.895 6.08504 65.535 7.97504 65.19L8.02003 65.925C6.32503 66.3 4.60007 66.675 3.50507 66.885C3.49007 67.02 3.41506 67.08 3.31006 67.125L2.92004 66.09V66.105ZM9.19003 60.12C9.34003 61.62 9.56505 63.015 9.86505 64.155C10.4351 63.21 10.87 62.13 11.17 60.945L12.3101 61.215C12.2801 61.335 12.1751 61.3799 11.9801 61.3799C11.5901 62.8199 10.99 64.1099 10.225 65.2199C10.615 66.1949 11.17 66.9149 11.725 66.9149C11.965 66.9149 12.13 66.21 12.25 65.175C12.43 65.355 12.7751 65.58 12.9701 65.7C12.7901 67.2 12.4 67.905 11.785 67.905C11.665 67.905 11.5601 67.8899 11.4251 67.8449C10.6451 67.6949 10.06 67.065 9.58005 66.09C8.90505 66.885 8.12507 67.56 7.25507 68.07C7.12007 67.89 6.85003 67.56 6.65503 67.395C7.63003 66.84 8.50006 66.075 9.22006 65.145C8.78506 63.795 8.48502 62.025 8.29002 60.105H3.10004V59.25H8.20003C8.15503 58.65 8.09503 58.035 8.06503 57.405L9.37003 57.465C9.35503 57.6 9.23502 57.6749 9.04002 57.7049C9.05502 58.2299 9.08507 58.725 9.13007 59.235H12.85V60.09H9.20505L9.19003 60.12ZM3.70003 61.23H7.39006V64.4549H3.70003V61.23ZM6.55006 63.735V61.9349H4.49503V63.735H6.55006ZM10.54 57.285C11.185 57.555 11.98 58.02 12.37 58.41L11.8451 59.01C11.4551 58.635 10.6751 58.125 10.0151 57.825L10.54 57.285Z" fill="white"/>
<path d="M22.33 55.89L23.005 56.295C23.005 56.295 22.9449 56.415 22.8849 56.445C22.5399 57.705 22.045 59.415 21.58 60.78C22.57 62.19 22.945 63.36 22.945 64.41C22.945 66.675 21.865 66.705 20.71 66.645C20.695 66.39 20.6199 65.97 20.4849 65.73C20.6949 65.745 20.89 65.745 21.07 65.745C21.58 65.745 22 65.745 22 64.35C21.985 63.405 21.655 62.265 20.65 60.885C21.055 59.64 21.4599 58.095 21.7449 56.94H19.9149V70.3799H18.9399V55.9349H22.1649L22.33 55.89ZM25.0749 58.125C25.4799 58.35 25.96 58.68 26.32 58.98C26.53 58.5 26.7099 58.02 26.8599 57.495H24.865C24.355 58.5 23.71 59.415 23.005 60.045C22.84 59.895 22.54 59.6399 22.3 59.5049C23.38 58.5599 24.2949 56.925 24.8049 55.2L25.945 55.515C25.915 55.635 25.795 55.68 25.615 55.68C25.525 55.995 25.39 56.31 25.255 56.625H27.265L27.46 56.5949C27.94 56.7749 28.0149 56.805 28.0749 56.85C28.0449 56.925 27.9999 56.985 27.9399 57.03C27.2199 60.165 25.465 62.55 23.425 63.825C23.29 63.6 23.02 63.255 22.795 63.075C23.56 62.64 24.31 61.98 24.955 61.17C24.595 60.81 24.0699 60.3749 23.6199 60.0599L24.13 59.565C24.55 59.835 25.045 60.24 25.39 60.555C25.6 60.255 25.78 59.955 25.96 59.64C25.6 59.295 25.075 58.9049 24.625 58.6499L25.06 58.11L25.0749 58.125ZM25.6899 66.8099C25.1199 67.9049 24.1899 69.0599 23.3049 69.8099C23.1399 69.6299 22.795 69.33 22.585 69.18C23.41 68.505 24.295 67.3799 24.835 66.2549C25.705 66.5549 25.855 66.6 26.005 66.66C25.975 66.765 25.855 66.8099 25.675 66.8099H25.6899ZM32.455 65.565H28.63V69.21C28.63 70.23 28.2399 70.3649 25.9299 70.3649C25.8849 70.0949 25.72 69.675 25.57 69.42C26.395 69.435 27.1149 69.435 27.3249 69.42C27.5349 69.405 27.58 69.375 27.58 69.18V65.565H23.935V64.62H32.455V65.565ZM25.48 63V62.085H30.7899V63H25.48ZM32.65 56.565L33.355 56.985C33.34 57.06 33.235 57.105 33.175 57.135C32.725 58.38 31.915 59.85 31.09 60.885C31.795 61.755 32.6349 62.43 33.6099 62.895C33.3849 63.09 33.07 63.4499 32.92 63.7199C30.25 62.2949 28.63 59.4149 27.835 55.7399L28.72 55.545C29.095 57.285 29.695 58.86 30.55 60.135C31.105 59.385 31.6299 58.395 31.9749 57.48H29.6649V56.61H32.4849L32.6649 56.565H32.65ZM32.335 69.675C31.915 68.895 30.925 67.68 30.025 66.825L30.82 66.315C31.72 67.14 32.74 68.31 33.205 69.105L32.335 69.675Z" fill="white"/>
<path d="M40.6151 65.085C41.2901 65.58 43.0601 67.0049 43.4801 67.3799L42.8501 68.265C42.4451 67.785 41.3951 66.825 40.6151 66.135V70.3649H39.5501V65.895C38.7701 67.2 37.7201 68.445 36.7301 69.225C36.5951 68.97 36.3251 68.595 36.1001 68.37C37.2551 67.575 38.5001 66.075 39.2501 64.59H36.4151V63.6299H39.5651V61.815H36.2351V60.87H43.6451V61.815H40.6901L40.9151 61.8299C40.9001 61.9499 40.8101 62.0099 40.6001 62.0399V63.6149H43.5101V64.575H40.6001V65.07L40.6151 65.085ZM43.4651 56.985V57.93H36.5651V56.985H39.5501V55.23L40.9151 55.305C40.9001 55.425 40.8101 55.5 40.6001 55.53V56.985H43.4501H43.4651ZM38.5001 58.0949C38.8601 58.8599 39.1301 59.895 39.2201 60.555L38.2901 60.78C38.2301 60.105 37.9601 59.0699 37.6151 58.2899L38.5001 58.0949ZM42.8651 58.395C42.8201 58.515 42.7001 58.5599 42.5201 58.5599C42.3251 59.2349 41.9651 60.21 41.6501 60.855L40.8401 60.585C41.0951 59.88 41.4551 58.785 41.6201 58.065L42.8651 58.41V58.395ZM46.6601 65.715C46.6301 65.835 46.5251 65.895 46.3451 65.91C46.0001 67.665 45.3401 69.42 43.1051 70.41C42.9701 70.17 42.6701 69.7949 42.4301 69.6149C44.4251 68.8049 45.0701 67.2749 45.3251 65.5799L46.6451 65.73L46.6601 65.715ZM48.8951 68.835C48.8951 69.195 48.9401 69.2549 49.2551 69.2549H50.2301C50.5751 69.2549 50.6351 69.015 50.6651 67.02C50.8901 67.2 51.3101 67.365 51.6101 67.44C51.5051 69.69 51.2501 70.23 50.3501 70.23H49.1051C48.0851 70.23 47.8451 69.915 47.8451 68.835V65.25H44.2451V55.905H50.6351V65.25H48.8801V68.835H48.8951ZM45.2801 56.91V58.7399H49.6151V56.91H45.2801ZM45.2801 59.655V61.5H49.6151V59.655H45.2801ZM45.2801 62.4149V64.2899H49.6151V62.4149H45.2801Z" fill="white"/>
<path d="M54.745 59.835C55.72 60.21 56.9051 60.8549 57.5051 61.3799L56.89 62.28C56.305 61.755 55.135 61.0649 54.145 60.6299L54.745 59.835ZM54.49 69.5399C55.165 68.2649 56.125 66.105 56.815 64.26L57.685 64.8449C57.07 66.5549 56.215 68.58 55.6 69.795C55.66 69.885 55.69 69.975 55.69 70.05C55.69 70.095 55.675 70.17 55.645 70.215L54.49 69.5249V69.5399ZM55.495 55.395C56.44 55.83 57.565 56.55 58.135 57.09L57.4601 57.975C56.9201 57.42 55.795 56.655 54.85 56.19L55.48 55.41L55.495 55.395ZM63.115 68.1149H59.3351V69.48H58.375V62.805H60.205V59.715H57.715V58.68H60.205V55.23L61.525 55.305C61.51 55.425 61.4201 55.485 61.2101 55.515V58.68H63.64V59.715H61.2101V62.805H63.115V68.1149ZM62.125 63.78H59.3351V67.14H62.125V63.78ZM68.77 55.8449V69.0599C68.77 70.3349 68.14 70.3799 66.025 70.3799C65.98 70.1099 65.815 69.63 65.65 69.375C66.475 69.39 67.195 69.39 67.405 69.39C67.63 69.375 67.735 69.3149 67.735 69.0599V64.8299H65.065C64.87 66.7949 64.33 68.8649 62.92 70.3649C62.755 70.1849 62.335 69.87 62.095 69.765C64 67.77 64.18 64.905 64.18 62.565V55.8449H68.77ZM65.17 62.565C65.17 62.97 65.17 63.39 65.14 63.84H67.75V60.8099H65.17V62.565ZM67.75 56.8649H65.17V59.82H67.75V56.8649Z" fill="white"/>
<path d="M85.9451 60.06H74.9352V60.93C74.9352 63.705 74.6951 67.695 72.9401 70.38C72.7451 70.185 72.2501 69.9001 71.9951 69.7951C73.6751 67.2001 73.8401 63.57 73.8401 60.93V56.115H85.9451V60.06ZM84.8501 57.105H74.9201V59.055H84.8501V57.105ZM87.0852 63.0301H81.4301V65.04H85.6601V70.32H84.5651V69.75H77.3802V70.3501H76.3151V65.04H80.3201V63.0301H75.1601V62.04H80.3201V60.1351L81.7451 60.2101C81.7301 60.3301 81.6401 60.405 81.4151 60.435V62.025H87.0701V63.015L87.0852 63.0301ZM84.5801 68.7451V66H77.3951V68.7451H84.5801Z" fill="white"/>
<path d="M96.9851 64.05H92.0801C92.0351 66.06 91.7501 68.595 90.5951 70.365C90.4301 70.17 89.9951 69.8251 89.7251 69.6901C90.8951 67.9051 91.0151 65.37 91.0151 63.465V58.965H96.9851V64.035V64.05ZM97.4951 56.13V57.1351H90.1901V56.13H97.4951ZM95.9351 59.985H92.0951V63.0451H95.9351V59.985ZM105.34 60.855V61.9201H103.405V70.38H102.325V61.9201H99.2951C99.2351 64.5151 98.7701 67.86 96.4901 70.305C96.3401 70.065 95.9501 69.705 95.6801 69.555C97.9601 67.11 98.2151 63.825 98.2151 61.275V56.925L99.0551 57.15C100.87 56.67 102.835 56.055 103.96 55.425L105.025 56.31C105.025 56.31 104.845 56.4151 104.695 56.3701C103.375 56.9701 101.245 57.615 99.2801 58.08V60.855H105.325H105.34Z" fill="white"/>
<path d="M108.325 70.515C108.58 69.705 108.91 68.085 109.045 67.05L110.8 66.825C110.455 68.07 109.78 69.765 109.405 70.395L108.325 70.53V70.515Z" fill="white"/>
<path d="M122.17 62.25C122.8 62.76 124.63 64.44 125.065 64.86L124.36 65.73C123.955 65.19 122.92 64.11 122.155 63.36V70.3649H121.075V62.85C120.295 64.695 119.23 66.57 118.27 67.695C118.135 67.395 117.865 66.945 117.67 66.675C118.81 65.445 120.115 63.15 120.865 61.155H117.865V60.09H121.075V57.315C120.1 57.57 119.065 57.7949 118.09 57.9899C118.045 57.7649 117.88 57.3899 117.73 57.1649C119.995 56.7299 122.605 56.01 123.97 55.245L124.975 56.055C124.975 56.055 124.855 56.1149 124.795 56.1149C124.75 56.1149 124.72 56.115 124.66 56.1C123.985 56.43 123.115 56.76 122.14 57.03V60.09H124.975V61.155H122.14V62.265L122.17 62.25ZM130.24 63.3449C131.44 65.4749 132.625 68.2499 132.985 70.0049L131.875 70.395C131.785 69.945 131.635 69.405 131.455 68.82C128.695 69.135 125.845 69.435 124.06 69.6C124.045 69.735 123.94 69.81 123.835 69.825L123.4 68.4899L124.96 68.37C125.965 64.86 127.075 59.49 127.66 55.545L129.22 55.89C129.19 56.025 129.025 56.115 128.815 56.145C128.2 59.76 127.105 64.77 126.115 68.265C127.645 68.145 129.385 67.9949 131.11 67.8449C130.6 66.4499 129.94 64.935 129.235 63.66L130.24 63.3299V63.3449Z" fill="white"/>
<path d="M150.7 66.18V67.14H143.83V69.18C143.83 69.81 143.635 70.095 143.095 70.245C142.555 70.395 141.625 70.395 140.125 70.395C140.065 70.095 139.9 69.72 139.75 69.465C140.44 69.48 141.085 69.495 141.58 69.495C142.6 69.495 142.69 69.4949 142.69 69.1499V67.14H135.895V66.18H142.69V65.055L143.425 65.1C144.43 64.8 145.51 64.425 146.425 64.035H137.485V63.12H148.09L148.3 63.0599L149.215 63.66C149.17 63.735 149.035 63.7949 148.945 63.8099C147.64 64.5299 145.675 65.295 143.845 65.76V66.1649H150.715L150.7 66.18ZM150.535 56.715V57.675H136V56.715H142.66V55.2L144.13 55.2749C144.115 55.3949 144.01 55.47 143.785 55.5V56.7H150.535V56.715ZM148.36 62.055H138.25V58.785H148.36V62.055ZM139.345 59.61V61.2H147.22V59.61H139.345Z" fill="white"/>
<path d="M154.21 59.835C155.185 60.21 156.37 60.8549 156.97 61.3799L156.355 62.28C155.77 61.755 154.6 61.0649 153.61 60.6299L154.21 59.835ZM153.955 69.5399C154.63 68.2649 155.59 66.105 156.28 64.26L157.15 64.8449C156.535 66.5549 155.68 68.58 155.065 69.795C155.125 69.885 155.155 69.975 155.155 70.05C155.155 70.095 155.14 70.17 155.11 70.215L153.955 69.5249V69.5399ZM154.96 55.395C155.905 55.83 157.03 56.55 157.6 57.09L156.925 57.975C156.385 57.42 155.26 56.655 154.315 56.19L154.945 55.41L154.96 55.395ZM162.58 68.1149H158.8V69.48H157.84V62.805H159.67V59.715H157.18V58.68H159.67V55.23L160.99 55.305C160.975 55.425 160.885 55.485 160.675 55.515V58.68H163.105V59.715H160.675V62.805H162.58V68.1149ZM161.59 63.78H158.8V67.14H161.59V63.78ZM168.235 55.8449V69.0599C168.235 70.3349 167.605 70.3799 165.49 70.3799C165.445 70.1099 165.28 69.63 165.115 69.375C165.94 69.39 166.66 69.39 166.87 69.39C167.095 69.375 167.2 69.3149 167.2 69.0599V64.8299H164.53C164.335 66.7949 163.795 68.8649 162.385 70.3649C162.22 70.1849 161.8 69.87 161.56 69.765C163.465 67.77 163.645 64.905 163.645 62.565V55.8449H168.235ZM164.635 62.565C164.635 62.97 164.635 63.39 164.605 63.84H167.215V60.8099H164.635V62.565ZM167.215 56.8649H164.635V59.82H167.215V56.8649Z" fill="white"/>
<path d="M177.355 56.565V66.99H173.065V68.58H172.18V56.55H177.34L177.355 56.565ZM174.325 57.54H173.065V61.2H174.325V57.54ZM173.065 62.145V66.015H174.325V62.145H173.065ZM176.455 61.2V57.54H175.135V61.2H176.455ZM175.135 66.015H176.455V62.145H175.135V66.015ZM186.715 64.725V65.73H182.485V70.335H181.435V65.73H177.64V64.725H181.435V62.205H178.12V61.2H181.435V55.275L182.8 55.38C182.785 55.5 182.68 55.56 182.47 55.59V61.215H186.16V62.22H182.47V64.74H186.7L186.715 64.725ZM179.05 56.04C179.635 57.285 180.16 58.905 180.325 59.97L179.365 60.27C179.215 59.19 178.72 57.57 178.165 56.325L179.065 56.04H179.05ZM186.22 56.445C186.175 56.55 186.04 56.595 185.875 56.595C185.455 57.705 184.72 59.355 184.12 60.375C184.105 60.375 183.34 60.015 183.34 60.015C183.91 58.935 184.615 57.18 184.975 55.95L186.235 56.445H186.22Z" fill="white"/>
<path d="M196.69 56.235H197.8C197.8 59.145 198.175 65.475 204.76 69.39C204.52 69.585 204.07 70.05 203.875 70.32C199.645 67.74 197.875 64.02 197.155 60.84C195.985 65.19 193.87 68.445 190.435 70.335C190.225 70.11 189.805 69.705 189.52 69.51C193.12 67.635 195.22 64.17 196.255 59.43L196.93 59.595C196.795 58.785 196.735 58.035 196.72 57.375H192.565V56.265H196.69V56.235Z" fill="white"/>
<path d="M215.575 68.745H222.415V69.825H207.685V68.745H214.45V64.3799H209.485V63.315H214.45V59.55H210.46C209.89 60.72 209.215 61.785 208.51 62.565C208.3 62.37 207.88 62.055 207.595 61.89C208.93 60.465 210.085 57.99 210.76 55.5L212.17 55.89C212.125 56.01 212.005 56.07 211.795 56.07C211.555 56.865 211.27 57.6899 210.94 58.4699H214.45V55.215L215.92 55.2899C215.905 55.4099 215.8 55.485 215.575 55.515V58.4699H221.65V59.55H215.575V63.315H221.05V64.3799H215.575V68.745Z" fill="white"/>
<path d="M225.94 59.82C227.005 60.225 228.325 60.945 228.985 61.5L228.37 62.4149C227.725 61.8599 226.42 61.11 225.355 60.66L225.94 59.835V59.82ZM225.82 69.42C226.66 68.13 227.875 65.91 228.775 64.05L229.6 64.7399C228.79 66.4799 227.71 68.535 226.915 69.825C226.975 69.9 226.99 69.99 226.99 70.05C226.99 70.11 226.975 70.185 226.945 70.23L225.82 69.4349V69.42ZM226.81 55.3649C227.86 55.8149 229.135 56.5649 229.78 57.1649L229.15 58.065C228.535 57.465 227.26 56.67 226.195 56.175L226.81 55.3799V55.3649ZM240.52 61.155H235.645V63.9899H239.35V70.245H238.24V69.6299H232.075V70.3649H230.995V63.9899H234.55V61.155H229.735V60.105H234.55V57.27C233.245 57.48 231.895 57.675 230.605 57.825C230.575 57.555 230.41 57.135 230.275 56.895C233.275 56.535 236.725 55.95 238.6 55.245L239.65 56.1299C239.65 56.1299 239.56 56.19 239.32 56.19C238.345 56.52 237.055 56.805 235.63 57.075V60.105H240.505V61.155H240.52ZM238.24 68.625V65.01H232.075V68.625H238.24Z" fill="white"/>
<path d="M243.67 70.515C243.925 69.705 244.255 68.085 244.39 67.05L246.145 66.825C245.8 68.07 245.125 69.765 244.75 70.395L243.67 70.53V70.515Z" fill="white"/>
<path d="M254.875 66.6C254.875 67.095 254.995 67.17 255.67 67.17H257.965C258.565 67.17 258.67 66.9149 258.73 65.1149C258.97 65.2949 259.42 65.475 259.72 65.55C259.57 67.68 259.27 68.2049 258.04 68.2049H255.55C254.185 68.2049 253.795 67.8899 253.795 66.6149V61.2899H257.905V57.66H253.225V56.64H258.97V62.82H257.89V62.3099H254.86V66.6149L254.875 66.6ZM268.255 59.355H266.875C266.38 62.07 265.63 64.305 264.475 66.105C265.48 67.59 266.77 68.745 268.39 69.45C268.135 69.66 267.79 70.08 267.61 70.395C266.035 69.645 264.79 68.505 263.785 67.065C262.66 68.49 261.175 69.57 259.27 70.41C259.135 70.155 258.85 69.705 258.655 69.48C260.59 68.7 262.075 67.575 263.185 66.09C262.375 64.65 261.76 63 261.31 61.14C260.92 61.935 260.485 62.6549 260.02 63.2399C259.81 63.0599 259.39 62.745 259.12 62.61C260.455 60.96 261.49 58.11 262.075 55.245L263.455 55.5599C263.425 55.6949 263.305 55.7399 263.095 55.7399C262.9 56.6249 262.675 57.48 262.405 58.335H268.255V59.385V59.355ZM262.045 59.355L261.97 59.55C262.375 61.605 262.99 63.465 263.845 65.055C264.76 63.495 265.36 61.605 265.75 59.355H262.045Z" fill="white"/>
<path d="M284.305 65.0249H284.53L285.145 65.085L285.1 65.445C284.92 68.355 284.71 69.4799 284.32 69.9149C283.99 70.2599 283.63 70.335 282.745 70.335C282.34 70.335 281.815 70.3199 281.275 70.2899C281.26 69.9899 281.14 69.585 280.975 69.315C281.815 69.39 282.64 69.39 283 69.39C283.18 69.39 283.315 69.3599 283.405 69.2399C283.66 68.9999 283.825 68.115 283.99 65.94H274.915C274.585 66.195 274.24 66.45 273.91 66.675L274.735 66.93C274.465 68.1 274 69.39 273.085 70.14L272.26 69.6149C273.085 68.9699 273.58 67.7999 273.82 66.7199C273.13 67.1549 272.44 67.545 271.72 67.86C271.585 67.635 271.3 67.23 271.12 67.035C272.755 66.405 274.495 65.28 275.575 63.945H273.655V59.055L274.465 59.25C275.56 58.95 276.73 58.575 277.45 58.245L278.23 59.0399C278.23 59.0399 278.17 59.07 278.095 59.07C278.05 59.07 278.005 59.07 277.93 59.055C277.135 59.37 275.83 59.745 274.645 60.015V61.0799H277.63V61.89H274.645V63.105H282.52V61.89H279.52V61.0799H282.52V59.895H279.325V59.07H283.525V63.96H277.075C277.075 63.96 276.925 64.035 276.775 64.035C276.535 64.38 276.25 64.7099 275.95 65.0249H284.305ZM279.13 56.76H285.475V59.5949H284.41V57.735H272.785V59.5949H271.78V56.76H278.035V55.2L279.46 55.2749C279.445 55.4099 279.34 55.47 279.13 55.5V56.76ZM276.385 69.825C276.4 69.06 276.16 67.86 275.8 66.93L276.685 66.8099C277.045 67.7399 277.315 68.925 277.315 69.69L276.385 69.825ZM279.265 69.405C279.115 68.7 278.665 67.635 278.14 66.825L278.95 66.585C279.49 67.38 279.97 68.43 280.12 69.135L279.25 69.405H279.265ZM281.2 66.375C281.8 66.9 282.46 67.6799 282.715 68.2199L281.935 68.64C281.68 68.085 281.05 67.29 280.465 66.735L281.2 66.375Z" fill="white"/>
<path d="M303.835 61.14H297.46C298.525 65.04 300.625 68.025 304.09 69.315C303.805 69.555 303.46 70.02 303.28 70.335C299.875 68.94 297.805 66.0449 296.605 62.1149C295.855 65.3399 294.085 68.535 289.87 70.35C289.705 70.05 289.36 69.66 289.09 69.42C293.395 67.68 295 64.41 295.63 61.125H289.345V60H295.81C296.02 58.305 296.005 56.64 296.02 55.23L297.55 55.305C297.535 55.455 297.4 55.53 297.19 55.575C297.175 56.865 297.16 58.395 296.965 59.985H303.835V61.11V61.14Z" fill="white"/>
<path d="M307.615 55.95H321.355V70.35H320.275V69.6299H308.65V70.35H307.6V55.95H307.615ZM308.665 68.625H320.29V56.9549H308.665V68.625ZM315.055 64.4549C315.415 64.8749 315.865 65.28 316.405 65.655C317.11 65.22 317.95 64.59 318.445 64.17L319.345 64.725C319.345 64.725 319.18 64.8299 319.015 64.8299C318.505 65.1899 317.74 65.67 317.065 66.075C317.905 66.585 318.85 66.975 319.78 67.215C319.57 67.38 319.315 67.725 319.165 67.95C317.53 67.44 315.82 66.4199 314.695 65.2049V68.145H313.705V65.5799C312.565 66.3599 311.17 67.035 309.88 67.5C309.745 67.32 309.46 66.9749 309.295 66.8099C310.825 66.2999 312.565 65.46 313.78 64.44H310.885V61.68H318.07V64.44H315.07L315.055 64.4549ZM319.39 60.135V60.885H309.535V60.135H313.915V59.0399H310.555V58.305H313.915V57.315L315.25 57.42C315.235 57.525 315.145 57.5999 314.935 57.6299V58.32H318.4V59.055H314.935V60.1499H319.39V60.135ZM311.815 62.37V63.765H317.065V62.37H311.815Z" fill="white"/>
<path d="M327.85 65.1299C328.39 64.9049 328.945 64.65 329.5 64.425L329.71 65.385C328.165 66.12 326.53 66.87 325.51 67.32C325.495 67.455 325.435 67.545 325.33 67.59L324.745 66.3449C325.33 66.1349 326.05 65.835 326.845 65.52V60.105H325.03V59.055H326.845V55.35L328.18 55.425C328.165 55.545 328.06 55.6199 327.85 55.6499V59.0399H329.515V60.09H327.85V65.085V65.1299ZM336.31 58.9349C336.4 61.1999 336.61 63.33 336.895 65.1C337.585 63.795 338.11 62.3249 338.515 60.7199L339.79 61.035C339.76 61.155 339.64 61.215 339.43 61.215C338.905 63.225 338.17 65.025 337.195 66.555C337.6 68.28 338.125 69.375 338.74 69.375C339.1 69.375 339.28 68.49 339.34 66.555C339.565 66.78 339.91 67.05 340.15 67.14C339.955 69.645 339.625 70.395 338.605 70.41C337.645 70.41 336.925 69.345 336.415 67.62C335.605 68.67 334.66 69.54 333.58 70.245C333.43 70.05 333.085 69.7049 332.86 69.5399C334.135 68.7599 335.2 67.68 336.1 66.39C335.665 64.35 335.395 61.71 335.29 58.92H330.97V61.215H333.955L334.465 61.23V61.59C334.405 65.37 334.33 66.66 334.045 67.065C333.7 67.5 333.295 67.5 332.56 67.5C332.29 67.5 331.99 67.4849 331.69 67.4699C331.66 67.1999 331.57 66.7799 331.435 66.5399C332.02 66.5849 332.575 66.585 332.785 66.585C332.995 66.585 333.115 66.57 333.205 66.42C333.37 66.18 333.43 65.1149 333.49 62.1299H330.985V62.73C330.985 65.07 330.685 68.2499 328.9 70.3799C328.735 70.1699 328.315 69.825 328.075 69.69C329.785 67.695 329.965 64.905 329.965 62.73V57.87H335.26C335.245 56.985 335.215 56.1 335.215 55.2L336.595 55.2749C336.58 55.4099 336.475 55.47 336.25 55.5C336.25 56.28 336.25 57.075 336.28 57.855H339.895V58.89H336.31V58.9349ZM337.675 55.215C338.47 55.785 339.415 56.595 339.88 57.18L339.1 57.735C338.68 57.165 337.735 56.31 336.925 55.71L337.675 55.2V55.215Z" fill="white"/>
<path d="M357.79 57.54V58.62H350.965L351.205 58.635C351.19 58.755 351.085 58.83 350.875 58.86V60.96H356.215V66.84C356.215 68.13 355.69 68.22 352.63 68.22C352.585 67.89 352.39 67.44 352.24 67.125C353.41 67.155 354.4 67.155 354.715 67.155C355.015 67.125 355.09 67.05 355.09 66.825V62.01H350.875V70.38H349.735V62.01H345.775V68.265H344.665V60.93H349.735V58.59H342.955V57.51H349.735V55.11L351.22 55.185C351.205 55.32 351.1 55.395 350.875 55.425V57.495H357.79V57.54Z" fill="white"/>
<path d="M363.16 57.045V60.915C363.16 63.63 362.965 67.59 361.54 70.335C361.345 70.155 360.91 69.9 360.625 69.78C361.99 67.17 362.11 63.525 362.11 60.9V56.04H375.61V57.045H363.16ZM369.88 66.78V68.955H375.685V69.9H362.935V68.955H365.141V65.37L366.505 65.475C366.49 65.595 366.416 65.655 366.191 65.685V68.955H368.816V64.17L370.195 64.26C370.18 64.38 370.105 64.455 369.865 64.47V65.895H373.976V66.795H369.865L369.88 66.78ZM366.865 64.185H365.921V61.68C365.351 62.64 364.571 63.57 363.851 64.11C363.701 63.885 363.415 63.57 363.22 63.405C364.03 62.895 364.915 61.905 365.5 60.915H363.73V60.045H365.935V58.785C365.32 58.875 364.675 58.965 364.09 59.01C364.045 58.83 363.91 58.515 363.79 58.32C365.245 58.155 366.941 57.885 367.796 57.495L368.68 58.17C368.68 58.17 368.605 58.215 368.38 58.215C367.975 58.365 367.45 58.515 366.865 58.62V60.045H368.816V60.915H366.865V61.035C367.315 61.35 368.455 62.175 368.755 62.43L368.171 63.165C367.931 62.895 367.36 62.37 366.865 61.935V64.185ZM372.641 64.185H371.68V61.305C371.035 62.415 370.045 63.51 369.16 64.11C369.01 63.885 368.726 63.57 368.531 63.405C369.431 62.895 370.421 61.92 371.051 60.915H369.371V60.045H371.68V58.77C371.035 58.845 370.361 58.935 369.746 58.98C369.701 58.785 369.566 58.47 369.476 58.275C371.006 58.125 372.866 57.855 373.796 57.465C374.366 57.87 374.53 58.005 374.68 58.14C374.62 58.185 374.605 58.185 374.38 58.185C373.93 58.35 373.316 58.485 372.656 58.605V60.045H375.445V60.915H373.285C373.9 61.905 374.905 62.835 375.91 63.3C375.685 63.48 375.385 63.81 375.235 64.05C374.245 63.48 373.301 62.43 372.656 61.35V64.2L372.641 64.185Z" fill="white"/>
<path d="M392.665 63.33H386.785C386.68 64.77 386.35 66.135 385.33 67.32C387.355 68.58 390.115 69.03 393.925 69.255C393.7 69.51 393.475 69.99 393.4 70.365C389.545 70.065 386.65 69.525 384.55 68.085C383.44 69.015 381.79 69.795 379.375 70.38C379.24 70.125 378.955 69.645 378.73 69.405C381.07 68.88 382.645 68.205 383.665 67.395C382.735 66.57 381.985 65.505 381.4 64.14L382.375 63.795C382.93 64.995 383.62 65.925 384.46 66.645C385.33 65.655 385.585 64.515 385.66 63.315H380.14V57.405H385.69V55.305L387.145 55.38C387.13 55.515 387.025 55.59 386.815 55.62V57.39H392.665V63.3V63.33ZM381.19 62.265H385.69V58.47H381.19V62.265ZM391.555 58.47H386.815V62.265H391.555V58.47Z" fill="white"/>
<path d="M404.695 65.25V68.805C405.565 68.97 406.51 69.015 407.53 69.015C408.1 69.015 410.965 69.015 411.715 69C411.535 69.27 411.34 69.78 411.295 70.11H407.485C403.975 70.11 401.44 69.51 399.925 66.585C399.34 68.175 398.5 69.525 397.36 70.41C397.18 70.2 396.79 69.87 396.535 69.69C398.32 68.37 399.28 65.88 399.655 62.835L401.05 63.06C401.02 63.18 400.915 63.255 400.72 63.255C400.63 63.9 400.495 64.545 400.345 65.16C401.035 66.99 402.13 67.965 403.57 68.49V61.32H399.415V60.27H409V61.32H404.695V64.2H409.705V65.25H404.695ZM398.41 58.23V60.69H397.33V57.18H403.555V55.17L405.04 55.275C405.025 55.395 404.92 55.47 404.695 55.5V57.18H410.98V60.69H409.855V58.23H398.395H398.41Z" fill="white"/>
<path d="M416.74 60.975C416.125 61.995 415.435 62.91 414.745 63.69C414.625 63.435 414.355 62.925 414.175 62.67C415.735 60.975 417.31 58.155 418.255 55.335L419.56 55.77C419.5 55.89 419.38 55.935 419.185 55.92C418.765 57.06 418.255 58.2 417.685 59.295L418.12 59.4149C418.09 59.5199 418 59.595 417.79 59.61V70.41H416.725V60.975H416.74ZM418.81 68.52H429.745V69.585H418.81V68.52ZM419.215 58.515H423.595V55.26L425.02 55.335C425.005 55.47 424.915 55.5299 424.69 55.5599V58.515H429.325V59.5799H419.215V58.515ZM421.48 60.69C422.125 62.91 422.725 65.745 422.86 67.41L421.765 67.635C421.63 65.985 421.09 63.075 420.475 60.87L421.465 60.69H421.48ZM428.32 60.96C428.29 61.08 428.14 61.155 427.945 61.155C427.525 63.12 426.775 65.985 426.115 67.725C426.115 67.725 425.17 67.425 425.17 67.41C425.8 65.655 426.535 62.685 426.91 60.585L428.305 60.96H428.32Z" fill="white"/>
<path d="M436.69 68.07C436.69 69.33 435.67 70.35 434.41 70.35C433.15 70.35 432.13 69.33 432.13 68.07C432.13 66.81 433.15 65.79 434.41 65.79C435.67 65.79 436.69 66.855 436.69 68.07ZM436.105 68.07C436.105 67.125 435.355 66.375 434.41 66.375C433.465 66.375 432.73 67.125 432.73 68.07C432.73 69.015 433.48 69.75 434.41 69.75C435.385 69.75 436.105 68.97 436.105 68.07Z" fill="white"/>
</svg>
