<svg width="1293" height="126" viewBox="0 0 1293 126" fill="none" xmlns="http://www.w3.org/2000/svg">
<g filter="url(#filter0_d_1_298)">
<path d="M106.995 41.49H90.165C85.815 48.135 80.31 53.97 73.785 59.01C85.125 62.445 98.07 64.74 112.155 65.88C108.495 69.78 103.8 77.34 101.505 82.035C98.295 81.57 95.085 81.12 91.995 80.55V111.705H74.82V108.615H41.025V112.05H24.765V81.12C20.19 82.26 15.495 83.295 10.785 84.09C9.3 79.86 5.865 72.975 3 69.315C16.17 67.485 29.115 64.395 40.455 60.045C37.935 58.095 35.535 56.145 33.12 53.97C29.565 56.025 25.68 57.975 21.435 59.925C19.26 56.025 14.1 50.07 10.56 47.445C15.72 45.735 20.175 43.665 24.195 41.49H8.61V13.995H48.705V3L69.315 4.14C69.195 5.4 68.28 6.195 65.88 6.54V13.995H106.995V41.49ZM24.87 28.995V41.13C31.395 37.47 36.33 33.345 40.11 28.995H24.87ZM41.025 95.085H74.805V89.25H41.025V95.085ZM72.06 75.735C66.675 74.01 61.53 71.955 56.595 69.66C52.125 71.955 47.43 73.905 42.51 75.735H72.06ZM46.065 44.805L45.6 45.15C48.81 47.79 52.47 50.07 56.595 52.245C60.255 49.95 63.585 47.43 66.555 44.805H46.05H46.065ZM89.925 36.675V28.995H62.43C62.085 30.255 60.945 30.945 59.115 30.945L57.855 32.55H78.24L80.88 31.86L89.925 36.675Z" fill="white"/>
<path d="M146.61 47.445V84.09C152.445 94.965 163.56 94.965 185.67 94.965C199.41 94.965 215.67 94.5 227.13 93.48C225.3 97.26 222.78 104.94 221.97 109.635C213.03 110.1 200.775 110.43 189.33 110.43C161.385 110.43 149.355 110.205 139.62 97.71C135.27 101.955 130.8 105.96 126.9 109.17C126.9 110.655 126.435 111.225 125.175 111.81L117.27 94.29C121.515 91.77 126.21 88.56 130.665 85.245V62.79H118.755V47.445H146.58H146.61ZM131.49 6.09C137.79 11.13 145.695 18.57 149.355 23.955L135.615 34.38C132.525 28.995 124.965 21.09 118.785 15.48L131.505 6.09H131.49ZM177.645 93.255V86.73H149.475V74.94H177.645V72.075H156.225V37.71H177.645V35.07H153.6V23.85H177.645V17.895L197.115 18.93C196.995 20.19 196.08 20.985 193.8 21.33V23.85H218.535V35.07H193.8V37.71H215.91V72.075H193.8V74.94H223.695V86.73H193.8V93.255H177.645ZM165.045 16.98V21.555H150.495V5.295H222.645V21.555H207.405V16.98H165.03H165.045ZM170.31 47.565V50.31H177.645V47.565H170.31ZM170.31 62.22H177.645V59.475H170.31V62.22ZM201.12 47.565H193.785V50.31H201.12V47.565ZM201.12 62.22V59.475H193.785V62.22H201.12Z" fill="white"/>
<path d="M236.865 7.125H336.39V112.035H320.13V108.255H252.435V112.035H236.865V7.125ZM252.435 93.375H320.13V72.99C319.56 73.56 318.405 73.785 317.145 73.56C315.09 74.82 311.985 76.65 309.015 78.375C312.45 79.755 316.11 80.895 319.785 81.69C317.04 84.09 313.26 88.905 311.43 91.995C304.335 89.82 297.69 86.16 291.96 81.69V91.305H277.41V82.26C272.025 85.125 266.295 87.645 260.685 89.595C258.975 86.955 255.075 82.155 252.675 79.74C261.03 77.34 269.85 73.665 276.84 69.09H262.185V50.31H309.6V65.43L320.13 72.765V22.005H252.435V93.36V93.375ZM317.145 38.85V47.79H255.3V38.85H278.67V36.105H260.685V27.405H278.67V22.83L297 23.865C296.88 25.005 295.965 25.695 293.685 26.16V27.42H311.775V36.12H293.685V38.865H317.16L317.145 38.85ZM295.155 61.41V57.855H275.805V61.41H295.155ZM295.95 69.09L294.81 70.125C296.07 71.265 297.555 72.3 299.055 73.215C300.885 71.955 302.955 70.575 304.785 69.09H295.965H295.95Z" fill="white"/>
<path d="M454.815 92.91V107.91H368.805V111.915H352.545V6.55499H451.62V21.09H368.82V92.91H454.83H454.815ZM373.95 88.905V57.06H406.59V88.905H373.95ZM431.79 25.11V53.625H385.29V25.11H431.79ZM387.24 67.95V78.03H392.505V67.95H387.24ZM415.305 42.975V35.64H400.755V42.975H415.305ZM443.595 57.06V88.905H410.265V57.06H443.595ZM429.39 78.015V67.935H423.78V78.015H429.39Z" fill="white"/>
<path d="M578.265 61.065L588.465 64.725C588.12 65.76 587.67 66.105 587.085 66.78C584.565 76.395 580.44 84.765 574.95 91.635C580.44 94.845 586.635 97.245 593.73 98.85C590.295 101.835 585.945 107.895 583.875 111.795C576.435 109.62 569.895 106.41 564.18 102.405C559.26 106.305 553.755 109.5 547.575 112.02C545.85 108.465 542.31 103.08 539.325 99.885V111.915H523.41V102.63C512.07 103.89 501.195 105.15 493.515 105.84C493.29 106.98 492.375 107.55 491.46 107.67L486.99 92.1C489.735 91.98 492.945 91.875 496.5 91.635V58.875H486.885V45.825H592.605V58.875H539.34V98.955C544.26 97.23 548.85 94.83 552.855 91.86C549.075 87.285 545.985 82.125 543.345 76.395L552.045 73.995H541.395V61.515H575.64L578.28 61.05L578.265 61.065ZM577.35 6.77998V42.975H502.095V6.77998H577.35ZM523.41 58.89H511.62V61.635H523.41V58.89ZM511.62 72.87V75.96H523.41V72.87H511.62ZM511.62 90.855L523.41 90.06V87.195H511.62V90.855ZM560.64 19.965V17.22H518.04V19.965H560.64ZM560.64 32.565V29.7H518.04V32.565H560.64ZM557.325 74.025C558.81 76.89 560.76 79.53 562.935 82.035C564.885 79.515 566.49 76.875 567.975 74.025H557.325Z" fill="#FFFF00"/>
<path d="M699.435 82.14H695.775C701.265 89.58 706.65 98.97 708.72 105.735L694.41 112.5C693.84 110.325 692.925 107.685 691.77 104.94C674.25 106.2 656.73 107.34 644.925 107.91C644.58 109.05 643.545 109.635 642.525 109.74L637.83 91.98C644.7 91.98 653.64 91.755 663.48 91.515V82.125H644.235V47.775H663.48V39.645C656.49 39.99 650.085 40.215 644.805 40.44C644.58 41.58 643.545 42.27 642.51 42.27L638.385 26.46V51.195H622.575V47.88H617.19C616.965 50.97 616.725 54.06 616.395 57.15H626.82L630.135 56.925L638.61 57.84L638.265 62.31C637.005 90.255 635.625 101.94 632.31 106.065C627.96 111.57 622.8 112.02 608.835 111.795C608.61 107.22 606.78 100.92 604.26 96.795C608.73 97.14 613.08 97.26 615.255 97.26C616.98 97.26 618.12 97.035 619.26 95.775C620.985 93.945 621.9 87.075 622.695 71.385H615.015L614.445 75.855L600.135 73.68C601.74 63.03 603.225 46.65 603.795 33.48H622.575V22.14H601.5V6.77998H638.385V25.11H648.12C652.245 18.465 656.25 9.88498 658.65 3.11998L677.895 8.50498C677.43 9.53998 676.17 9.98998 674.34 10.11C672.045 14.685 668.73 20.19 665.4 25.11L683.385 24.885C681.9 22.83 680.295 20.76 678.81 18.93L692.55 12.51C699.075 19.95 706.41 29.925 709.38 37.365L694.485 44.355C693.915 42.525 692.88 40.455 691.74 38.28C685.095 38.625 678.345 38.85 671.925 39.195V39.315L682.695 39.885C682.575 41.145 681.66 41.835 679.38 42.285V47.79H699.42V82.155L699.435 82.14ZM658.545 68.505H663.465V61.515H658.545V68.505ZM684.435 61.515H679.395V68.505H684.435V61.515ZM679.395 91.185L684.435 91.065C683.4 89.58 682.485 87.975 681.465 86.595L691.2 82.125H679.41V91.17L679.395 91.185Z" fill="#FFFF00"/>
<path d="M751.08 75.045V76.08C754.635 78.03 764.25 84.435 766.77 86.28L757.5 98.07C755.895 96.24 753.495 93.825 751.08 91.425V111.93H734.925V94.29C731.265 98.865 727.365 102.885 723.465 105.975C720.945 102.42 716.13 97.035 712.695 94.29C719.91 89.82 727.35 82.5 732.39 75.045H716.01V61.185H734.91V54.54H714.75V41.025H724.71C724.02 37.365 722.76 33.345 721.395 30.03L728.61 27.855H717.045V14.46H734.91V3.11998L754.38 4.15498C754.26 5.41498 753.345 6.20998 751.065 6.55498V14.46H768.135V27.855H758.745L767.445 30.03C767.1 30.945 766.065 31.41 764.235 31.515C763.095 34.38 761.37 37.815 759.66 41.025H770.535V54.54H754.155C753.69 55.23 752.775 55.8 751.065 56.025V61.185H768.705V75.045H751.065H751.08ZM745.47 41.025C746.955 37.125 748.56 32.085 749.595 27.855H734.7C736.65 32.205 738.135 37.245 738.705 41.025H745.455H745.47ZM823.125 40.68V56.025H813.165V111.915H797.01V56.025H788.76C788.415 72.855 785.67 97.02 771.12 112.26C769.065 108.6 763.11 102.87 759.33 100.92C771.81 87.18 772.965 68.055 772.965 52.815V13.53L780.75 15.705C790.605 12.27 800.685 7.57498 806.865 3.22498L822.21 15.015C821.415 15.81 820.035 15.81 818.655 15.81C810.87 19.935 799.65 24.285 788.76 27.495V40.665H823.125V40.68Z" fill="#FFFF00"/>
<path d="M927.45 8.83501L938.1 12.735C937.98 13.53 937.635 14.34 936.96 14.91C933.87 24.765 930.09 36.435 925.5 48.585C934.77 60.15 937.635 67.935 937.635 74.925C937.635 98.175 921.945 98.175 911.985 97.83C911.865 93.48 910.035 86.835 907.515 82.365V111.795H891.135V19.5C888.615 25.575 885.75 31.41 882.54 36.915H888.15V51.225H872.91C871.08 53.52 869.25 55.695 867.42 57.75H884.94V111.015H869.25V107.115H854.7V112.035H839.7V79.965C838.32 80.76 836.955 81.57 835.455 82.26C833.73 78.705 829.725 72.06 827.1 68.865C831.45 66.915 835.695 64.515 839.7 61.875V57.75H845.31C847.95 55.695 850.35 53.505 852.75 51.225H829.845V36.915H848.28V28.215H834.3V13.995H848.28V3.57001L866.955 4.60501C866.835 5.74501 865.92 6.55501 863.64 6.90001V13.995H873.495V22.125C875.325 18.345 876.93 14.445 878.31 10.44L891.135 14.565V9.40501H924L927.435 8.83501H927.45ZM869.265 75.945V70.785H854.715V75.945H869.265ZM854.715 93.93H869.265V88.32H854.715V93.93ZM863.655 36.9H864.915C866.865 34.155 868.695 31.17 870.3 28.2H863.655V36.9ZM907.515 24.99V81.795C910.26 82.02 912.675 82.02 914.265 82.02C919.995 82.02 921.135 79.38 921.135 74.115C921.135 68.505 918.045 62.325 908.655 51.435C911.64 41.82 914.16 33 916.215 24.975H907.515V24.99Z" fill="#FFFF00"/>
<path d="M941.88 83.175C948.18 73.44 951.27 59.46 952.755 43.89L969.135 47.205C967.41 63.465 964.785 80.655 957.57 92.1L941.88 83.16V83.175ZM974.175 36.33L995.025 37.47C994.905 38.73 993.99 39.525 991.59 39.99V89.475C991.59 95.205 992.16 95.895 997.095 95.895H1009.69C1014.61 95.895 1015.53 92.46 1016.34 75.51C1020.12 78.495 1027.21 81.465 1031.8 82.605C1030.08 104.025 1025.73 111.015 1011.19 111.015H994.695C978.54 111.015 974.19 105.75 974.19 89.49V36.33H974.175ZM1011.97 38.625C1003.27 30.945 987.69 21.795 974.295 16.41L985.17 3.465C998.565 8.28 1013.92 16.98 1023.07 23.97L1011.96 38.625H1011.97ZM1036.95 88.215C1034.77 76.65 1027.09 59.13 1018.17 46.635L1033.51 38.955C1043.13 51.33 1051.15 67.815 1053.9 79.725L1036.95 88.2V88.215Z" fill="#FFFF00"/>
<path d="M1085.04 70.8L1094.08 67.59L1097.17 82.02C1085.95 87.285 1074.04 92.445 1066.02 95.76C1065.9 97.02 1065.1 97.935 1064.07 98.28L1056.85 80.07C1060.41 79.035 1064.76 77.67 1069.57 76.065V45.84H1059.61V30.15H1069.57V4.25998L1088.35 5.29498C1088.23 6.55498 1087.32 7.24498 1085.04 7.58998V30.15H1094.77V45.84H1085.04V70.815V70.8ZM1118.25 87.525C1118.25 94.515 1119.04 95.31 1125.81 95.31H1145.05C1151.01 95.31 1152.15 93.015 1153.18 82.02C1156.74 84.42 1163.14 87.06 1167.61 87.975C1165.66 104.475 1160.85 110.085 1146.66 110.085H1124.2C1107.13 110.085 1102.44 105.27 1102.44 87.525V60.72L1094.76 64.035L1088.58 49.26L1102.44 43.425V14.685L1121.57 15.72C1121.45 16.98 1120.53 17.67 1118.25 18.12V36.675L1124.43 34.035V3.11998L1143.33 4.15498C1143.21 5.41498 1142.29 6.10498 1140.01 6.44998V27.405L1148.14 23.97L1151.46 21.795L1164.51 26.49C1164.17 27.18 1163.47 27.975 1162.45 28.545C1162.45 50.655 1162.23 62.565 1161.89 67.365C1161.42 78.135 1154.55 80.085 1143.55 80.085C1143.09 75.96 1141.83 69.66 1140.12 66.345C1141.6 66.465 1143.55 66.465 1144.47 66.465C1145.61 66.465 1146.18 66.12 1146.42 64.41C1146.65 63.03 1146.64 56.505 1146.64 41.625L1140 44.49V84.69H1124.43V51.24L1118.25 53.88V87.555V87.525Z" fill="#FFFF00"/>
<path d="M1235.19 91.875H1279.51V108.255H1174.38V91.875H1217.32V66.105H1185.48V49.725H1217.32V27.27H1179.87V10.905H1273.66V27.285H1235.17V49.74H1269.07V66.12H1235.17V91.89L1235.19 91.875Z" fill="#FFFF00"/>
</g>
<defs>
<filter id="filter0_d_1_298" x="0.63" y="0.63" width="1292.3" height="125.28" filterUnits="userSpaceOnUse" color-interpolation-filters="sRGB">
<feFlood flood-opacity="0" result="BackgroundImageFix"/>
<feColorMatrix in="SourceAlpha" type="matrix" values="0 0 0 0 0 0 0 0 0 0 0 0 0 0 0 0 0 0 127 0" result="hardAlpha"/>
<feOffset dx="5.52" dy="5.52"/>
<feGaussianBlur stdDeviation="3.945"/>
<feColorMatrix type="matrix" values="0 0 0 0 0.101961 0 0 0 0 0.12549 0 0 0 0 0.219608 0 0 0 0.34 0"/>
<feBlend mode="normal" in2="BackgroundImageFix" result="effect1_dropShadow_1_298"/>
<feBlend mode="normal" in="SourceGraphic" in2="effect1_dropShadow_1_298" result="shape"/>
</filter>
</defs>
</svg>
