<svg width="293" height="113" viewBox="0 0 293 113" fill="none" xmlns="http://www.w3.org/2000/svg">
<path d="M57.9514 6.94995C57.9514 9.38995 56.7814 10.1 55.1414 10.1C54.7414 10.1 54.2414 10.0299 53.9414 9.92993L54.1214 8.53992C54.3414 8.60992 54.6414 8.66992 54.9714 8.66992C55.7414 8.66992 56.2414 8.31994 56.2414 6.93994V1.12988H57.9414V6.95996L57.9514 6.94995Z" fill="white"/>
<path d="M62.8018 1.12988H64.5018V9.97998H62.8018V1.12988Z" fill="white"/>
<path d="M75.8716 9.97998H74.1716L72.2816 6.31995C71.8116 5.40995 71.2916 4.31998 70.9216 3.34998H70.8716C70.9416 4.43998 70.9716 5.6899 70.9716 7.2699V9.98999H69.4316V1.13989H71.2716L73.1316 4.72998C73.6016 5.61998 74.0916 6.7 74.4516 7.62H74.4716C74.3716 6.49 74.3216 5.23993 74.3216 3.79993V1.13989H75.8616V9.98999L75.8716 9.97998Z" fill="white"/>
<path d="M87.2116 9.63C86.6916 9.83 85.6916 10.0701 84.6916 10.0701C83.3516 10.0701 82.3216 9.72011 81.5816 8.99011C80.8216 8.24011 80.3916 7.03 80.3916 5.63C80.3916 2.64 82.3816 1.04004 84.9216 1.04004C85.8216 1.04004 86.5616 1.20003 86.9916 1.41003L86.6316 2.81006C86.2316 2.63006 85.7216 2.49011 84.9416 2.49011C83.3716 2.49011 82.1716 3.4601 82.1716 5.6001C82.1716 7.7401 83.2616 8.69006 84.7216 8.69006C85.1316 8.69006 85.4416 8.63006 85.5916 8.56006V6.39001H84.3116V5.04004H87.2116V9.63Z" fill="white"/>
<path d="M97.6318 1.24011C98.2518 1.13011 99.0518 1.06006 99.9218 1.06006C101.392 1.06006 102.392 1.3701 103.132 1.9801C103.972 2.6701 104.462 3.76012 104.462 5.37012C104.462 7.27012 103.802 8.37011 103.132 8.99011C102.332 9.71011 101.102 10.0701 99.5618 10.0701C98.7418 10.0701 98.0918 10.0101 97.6418 9.95007V1.25L97.6318 1.24011ZM99.3218 8.67004C99.4918 8.70004 99.7518 8.70007 99.9818 8.70007C101.602 8.71007 102.682 7.71 102.682 5.38C102.682 3.38 101.702 2.39001 100.132 2.39001C99.7718 2.39001 99.5118 2.42008 99.3318 2.46008V8.67004H99.3218Z" fill="white"/>
<path d="M115.281 6.31006C115.281 8.90006 114.051 10.1101 112.051 10.1101C110.051 10.1101 108.941 8.92007 108.941 6.32007V1.12012H110.641V6.47009C110.641 8.02009 111.231 8.70007 112.101 8.70007C113.021 8.70007 113.581 8.04009 113.581 6.47009V1.12012H115.281V6.31006Z" fill="white"/>
<path d="M132.361 9.97998H130.581L129.951 7.63989H127.581L126.971 9.97998H125.251L127.751 1.12988H129.891L132.361 9.97998ZM129.711 6.34998L129.181 4.32996C129.041 3.77996 128.891 3.0599 128.781 2.5199H128.751C128.641 3.0699 128.491 3.79995 128.361 4.31995L127.831 6.34998H129.711Z" fill="white"/>
<path d="M142.801 1.12988L140.111 9.97998H138.171L135.611 1.12988H137.471L138.471 5.03992C138.731 6.08992 139.001 7.14997 139.181 8.21997H139.211C139.401 7.15997 139.671 6.07992 139.951 5.03992L140.971 1.12988H142.801Z" fill="white"/>
<path d="M146.922 1.12988H148.622V9.97998H146.922V1.12988Z" fill="white"/>
<path d="M160.032 9.97998H158.252L157.622 7.63989H155.252L154.642 9.97998H152.922L155.422 1.12988H157.562L160.032 9.97998ZM157.382 6.34998L156.852 4.32996C156.712 3.77996 156.562 3.0599 156.452 2.5199H156.422C156.312 3.0699 156.162 3.79995 156.032 4.31995L155.502 6.34998H157.382Z" fill="white"/>
<path d="M169.392 2.59998H167.212V9.97998H165.512V2.59998H163.342V1.12988H169.402V2.59998H169.392Z" fill="white"/>
<path d="M173.602 1.12988H175.302V9.97998H173.602V1.12988Z" fill="white"/>
<path d="M187.222 5.43994C187.222 8.52994 185.662 10.1 183.462 10.1C181.132 10.1 179.812 8.13995 179.812 5.56995C179.812 2.99995 181.272 0.97998 183.582 0.97998C186.032 0.97998 187.222 3.07994 187.222 5.43994ZM181.592 5.53992C181.592 7.27992 182.272 8.70996 183.522 8.70996C184.772 8.70996 185.442 7.28989 185.442 5.50989C185.442 3.88989 184.832 2.37988 183.532 2.37988C182.232 2.37988 181.592 3.91993 181.592 5.54993V5.53992Z" fill="white"/>
<path d="M198.162 9.97998H196.462L194.572 6.31995C194.102 5.40995 193.582 4.31998 193.212 3.34998H193.162C193.232 4.43998 193.262 5.6899 193.262 7.2699V9.98999H191.722V1.13989H193.562L195.422 4.72998C195.892 5.61998 196.382 6.7 196.742 7.62H196.762C196.662 6.49 196.612 5.23993 196.612 3.79993V1.13989H198.152V9.98999L198.162 9.97998Z" fill="white"/>
<path d="M214.452 9.76001C214.122 9.92001 213.402 10.0901 212.502 10.0901C209.852 10.0901 208.382 8.28003 208.382 5.66003C208.382 2.56003 210.372 1 212.712 1C213.662 1 214.282 1.20008 214.542 1.33008L214.212 2.71008C213.872 2.56008 213.412 2.42004 212.802 2.42004C211.342 2.42004 210.172 3.42006 210.172 5.56006C210.172 7.56006 211.192 8.63 212.792 8.63C213.322 8.63 213.882 8.53 214.232 8.38L214.472 9.75L214.452 9.76001Z" fill="white"/>
<path d="M218.911 1.12988H220.611V9.97998H218.911V1.12988Z" fill="white"/>
<path d="M230.892 2.59998H228.712V9.97998H227.012V2.59998H224.842V1.12988H230.902V2.59998H230.892Z" fill="white"/>
<path d="M241.122 1.12988L238.502 6.31995V9.97998H236.802V6.37988L234.302 1.12988H236.192L237.062 3.30994C237.312 3.93994 237.522 4.49999 237.732 5.10999H237.752C237.922 4.51999 238.142 3.94993 238.392 3.29993L239.242 1.12988H241.112H241.122Z" fill="white"/>
<path d="M25.1009 68.4399C23.8909 70.8999 22.0609 72.62 19.6309 73.6V78.5199C25.4009 78.0299 29.4009 74.6699 31.6309 68.4399H25.1009Z" fill="white"/>
<path d="M134.881 24.98C134.561 26.55 134.181 28.1899 133.711 29.2899H140.981V71.83C141.131 76.68 138.791 79.0299 133.941 78.8799H129.481V72.9999H131.361C132.921 73.1599 133.621 72.2899 133.471 70.4099V66.4099H128.541C128.381 63.7499 128.071 61.32 127.601 59.12V59.8199C128.221 69.5399 124.941 76.1899 117.751 79.7999V73.45C119.471 70.95 120.251 66.7199 120.101 60.7599V54.6499H117.751V48.5399H120.101V29.2699H125.261C125.411 28.7999 125.651 28.0899 125.961 27.1499C126.111 26.3699 126.271 25.43 126.431 24.96H134.871L134.881 24.98ZM131.831 37.5099C132.451 39.3899 132.921 41.8999 133.241 45.0299C133.391 45.4999 133.471 45.89 133.471 46.21H128.541C128.541 45.9 128.461 45.4999 128.311 45.0299C128.311 43.9399 128.081 42.0599 127.611 39.3899V48.5599H133.471V35.3999H127.611V37.5199H131.831V37.5099ZM132.061 57.2499C132.841 59.9199 133.311 62.2699 133.471 64.2999V54.6599H127.611V57.2499H132.071H132.061ZM166.541 70.1799C166.541 71.1199 166.931 71.59 167.711 71.59C168.331 71.59 168.651 71.1199 168.651 70.1799V68.0599H173.341V71.59C173.491 75.66 171.461 77.62 167.241 77.47H164.191C159.651 77.62 157.461 75.3499 157.621 70.6499V48.09H153.631V52.3199C153.631 59.9999 152.851 65.72 151.281 69.48C149.721 72.93 146.511 76.21 141.661 79.35V72.5299C143.691 69.2399 144.631 62.6599 144.471 52.7899V41.5099H166.521V70.1799H166.541ZM142.151 29.5199H150.831V24.98H161.381V29.5199H170.761V36.34H142.141V29.5199H142.151Z" fill="white"/>
<path d="M178.741 53.9099V48.4999C185.201 46.7799 189.701 43.72 192.261 39.33H203.071C198.711 48.26 190.601 53.1199 178.741 53.8999V53.9099ZM229.201 29.7V40.5099H219.961V36.2799H188.191V40.5099H178.951V29.7H198.321V24.98H210.031V29.7H229.181H229.201ZM229.201 71.5299V77.8799H178.961V71.5299H198.791V60.2499H185.271V53.2H222.671V60.2499H209.151V71.5299H229.201ZM229.201 53.8999C217.331 53.1199 209.221 48.26 204.871 39.33H215.681C218.231 43.72 222.741 46.7699 229.201 48.4999V53.9099V53.8999Z" fill="white"/>
<path d="M251.391 69.95C247.641 71.99 243.291 73.4799 237.191 74.4199V66.6599C238.281 66.6599 238.881 66.5099 240.131 66.1899V41.5099H237.081V34.9299H240.131V24.98H248.811V34.9299H251.281V41.5099H248.811V64.0699C249.751 63.9199 250.611 63.5999 251.391 63.1299V69.95ZM261.011 39.1599V45.2699H270.631V65.95C270.781 70.81 268.751 73.24 264.531 73.24H260.541V66.8899H261.481C262.891 67.0499 263.511 66.3399 263.361 64.7699V51.61H261.011V59.6C261.161 69 257.571 75.58 250.221 79.34V73.23C251.941 70.73 252.721 66.81 252.571 61.48V32.5699H270.861V24.97H279.541V32.5699H281.891V25.99H288.931V32.5699H291.281V39.1499H279.551C279.551 45.4199 279.781 50.9 280.251 55.6C281.661 51.84 282.601 47.5299 283.061 42.6699H291.271C289.241 53.6399 286.111 61.86 281.891 67.35C282.831 70.96 284.081 72.6799 285.641 72.5199C286.581 72.5199 287.051 71.43 287.051 69.23H292.681C292.831 75.81 290.491 79.02 285.641 78.87C281.571 78.87 278.451 76.99 276.261 73.23C274.231 75.11 271.801 77.07 268.991 79.11V72.2899C270.871 70.4099 272.511 68.6099 273.921 66.8799C273.761 66.4099 273.601 65.6299 273.451 64.5299C273.291 64.0599 273.221 63.67 273.221 63.35C271.971 55.21 271.261 47.1299 271.111 39.1399H261.021L261.011 39.1599Z" fill="white"/>
<path d="M61.7605 35.5199V29.6899H68.2405V24.98H76.7305V29.6899H82.5405V32.84C83.0305 31.6 84.1105 29.3899 84.2905 28.1799H90.5805V26.7799H111.58V30.7499C111.58 33.1199 111.4 35.5 111 37.84C110.19 42.64 109.19 46.1099 108 48.2599C110.68 51.9799 112.02 55.93 112.02 60.1C112.02 67.7 108.15 71.49 100.4 71.49V64.7899C102.78 64.6399 103.97 62.78 103.97 59.21C104.12 55.49 102.78 51.91 99.9505 48.49C101.44 44.62 102.33 39.78 102.63 33.97H99.2805V78.9299H90.5705V33.8999C88.9705 36.5799 87.8105 38 86.3305 40.23H89.4605V46.99H81.5105C80.1705 48.48 79.6005 49.0899 77.8205 50.2799H87.9005V71.7799C87.9005 75.5999 84.8005 78.71 80.9705 78.71H63.5505V57.8799C62.5605 58.8899 62.0805 59.2 59.9805 60.34V53.4099C64.3005 51.3299 68.1005 49.67 71.3705 46.99H60.2005V40.23H68.2405V35.5399H61.7605V35.5199ZM71.5905 56.2999V60.3199H80.0805V56.2999H71.5905ZM80.0805 68.36V66.1299H71.5905V70.1499H78.2905C79.6305 70.1499 80.2205 69.56 80.0805 68.36ZM77.4005 40.21L77.6205 39.99C79.1105 38.2 80.1505 36.7199 80.7505 35.5199H76.7305V40.21H77.4005Z" fill="white"/>
<path d="M2.57086 33.4999H6.75086V46.2599H2.38086V52.61H6.75086V70.95C6.75086 70.95 6.64086 70.97 6.60086 70.98C4.93086 71.39 2.52086 71.3999 2.52086 71.3999V78.4099C12.5009 77.2599 18.4509 74.3799 18.4509 74.3799V68.22C18.2409 68.43 16.6009 68.87 14.6009 69.33V52.61H18.4509V46.2599H14.6009V33.4999H19.6309V26.9299H2.57086V33.4999Z" fill="white"/>
<path d="M41.0509 45.2898V43.8898H47.5809C50.9209 44.1998 52.4909 41.4298 52.2909 35.5698V26.3599H22.2109V43.8898H33.7609V45.2898H19.6309V52.0398H54.8709V45.2898H41.0509ZM28.4409 31.6498H46.0609V33.4998H28.4409V31.6498ZM28.4409 38.8098V37.1898H45.9109C45.8109 38.4298 45.2509 38.9598 44.2409 38.8098H28.4409Z" fill="white"/>
<path d="M51.0807 58.0599V53.1699H23.4307V67.24H34.6707V69.71C34.7707 71.78 34.2107 72.7299 33.0007 72.5699H31.1807V78.5299H35.7407C39.3907 78.6899 41.1607 76.0599 41.0607 70.6599V67.24H46.6807C50.2307 67.12 51.2907 63.6299 51.0907 58.0599H51.0807ZM43.3307 62.3099H29.8107V58.1699H44.7007V58.6499C44.6307 60.4999 45.0907 62.3899 43.3307 62.3199V62.3099Z" fill="white"/>
<path d="M48.9509 68.4399H42.4209C44.6509 74.6699 48.6509 78.0299 54.4209 78.5199V73.6C51.9909 72.62 50.1709 70.8999 48.9509 68.4399Z" fill="white"/>
<path d="M10.691 100.03H18.571V101.82H0.541016V100.03H8.28101V99.2H2.79102V97.5099H8.28101V96.6599H1.69102V94.87H8.28101V93.4399L11.241 93.6C11.221 93.8 11.061 93.94 10.701 93.98V94.87H17.351V96.6599H10.701V97.5099H16.291V99.2H10.701V100.03H10.691ZM15.551 102.63V110.01C15.551 112.11 14.501 112.25 10.831 112.25C10.711 111.67 10.391 110.88 10.121 110.35C10.621 110.37 11.171 110.39 11.651 110.39C13.141 110.39 13.141 110.37 13.141 109.99V109.24H5.90102V112.22H3.52101V102.64H15.561L15.551 102.63ZM13.131 104.34H5.89101V105.21H13.131V104.34ZM5.89101 107.69H13.131V106.78H5.89101V107.69Z" fill="white"/>
<path d="M54.8108 105.68V108H47.9708V112.21H45.5108V108H36.4808V105.68H39.6508V100.44H45.5008V98.0199H41.1408C40.2708 99.4699 39.2608 100.8 38.2008 101.79C37.7608 101.33 36.8708 100.54 36.3008 100.16C38.0508 98.6499 39.6708 95.9899 40.5608 93.4199L43.4408 94.3099C43.3608 94.4699 43.1608 94.5699 42.8808 94.5499C42.7208 94.9499 42.5408 95.32 42.3608 95.72H53.6908V98.0199H47.9608V100.44H53.2608V102.66H47.9608V105.68H54.8008H54.8108ZM42.0408 105.68H45.5108V102.66H42.0408V105.68Z" fill="white"/>
<path d="M84.8808 98.9701C85.0608 100.99 85.3808 102.96 85.7508 104.62C86.5608 103.23 87.2208 101.7 87.6908 100.08L90.4308 100.85C90.3908 101.03 90.1908 101.15 89.8708 101.13C89.0808 103.51 87.9908 105.65 86.6408 107.52C87.2208 108.97 87.8908 109.86 88.5808 109.86C89.0808 109.86 89.3508 108.81 89.4708 106.29C89.9708 106.83 90.7608 107.4 91.3908 107.64C90.9908 111.33 90.2208 112.22 88.3708 112.22C86.9808 112.2 85.8508 111.19 84.9608 109.52C83.9508 110.57 82.8208 111.5 81.5708 112.26C81.2308 111.76 80.4808 110.85 80.0008 110.39C81.4908 109.58 82.8408 108.47 83.9908 107.12C83.2408 104.84 82.7608 101.96 82.5008 98.9701H76.5108V100.97H80.3608L81.5908 101.01V101.72C81.5108 106.2 81.3908 107.99 80.9408 108.6C80.3608 109.33 79.7708 109.51 77.2708 109.45C77.2108 108.76 76.9708 107.82 76.6208 107.25C77.3508 107.31 78.0308 107.33 78.3508 107.33C78.6108 107.33 78.7908 107.27 78.9408 107.09C79.1608 106.81 79.2408 105.78 79.3008 103.14H76.5208C76.4408 106.04 75.9808 109.83 74.1608 112.22C73.7808 111.76 72.8108 110.95 72.3008 110.65C74.0308 108.33 74.1608 104.92 74.1608 102.34V96.67H82.3508C82.2908 95.62 82.2508 94.55 82.2508 93.5L85.2508 93.66C85.2308 93.88 85.0508 94.0001 84.6708 94.0601C84.6508 94.9301 84.6708 95.8101 84.7108 96.6801H88.0408C87.3508 96.0901 86.3908 95.39 85.5808 94.89L87.0708 93.5C88.1008 94.1 89.4708 94.99 90.1408 95.66L89.1108 96.67H90.8408V98.9501H84.8708L84.8808 98.9701Z" fill="white"/>
<path d="M120.471 100.84C120.771 101.73 121.121 102.57 121.541 103.36C122.551 102.69 123.641 101.87 124.381 101.18L126.461 103.06C126.381 103.14 126.221 103.18 126.061 103.18C126.001 103.18 125.921 103.18 125.841 103.16C125.071 103.74 123.801 104.53 122.711 105.14C123.901 106.67 125.431 107.86 127.351 108.57C126.811 109.05 126.101 109.98 125.741 110.63C122.011 108.98 119.811 105.65 118.501 101.35C117.961 101.73 117.391 102.06 116.771 102.4C119.331 104.21 120.361 106.53 120.361 108.43C120.361 110.71 118.911 112.24 116.631 112.24C116.151 112.24 115.601 112.22 115.041 112.2C115.001 111.57 114.821 110.63 114.411 109.94C115.081 110.02 115.681 110.04 116.161 110.04C116.641 110.04 117.051 109.98 117.351 109.66C117.731 109.4 117.951 108.87 117.951 108.17C117.951 107.93 117.931 107.67 117.871 107.42C115.691 109.09 112.671 110.65 110.091 111.53C109.811 110.95 109.321 110.08 108.841 109.57C111.681 108.86 115.051 107.21 117.011 105.56C116.891 105.38 116.751 105.2 116.591 105.02C114.901 106.13 112.541 107.26 110.681 107.94C110.421 107.4 109.931 106.59 109.491 106.13C111.351 105.67 113.761 104.72 115.301 103.77C115.121 103.63 114.921 103.49 114.721 103.35C113.391 103.91 111.961 104.36 110.591 104.7C110.351 104.24 109.821 103.35 109.481 102.91C111.601 102.47 113.841 101.76 115.651 100.83H112.461V98.8099H123.091V100.83H120.451L120.471 100.84ZM111.741 97.61V99.9299H109.421V95.45H116.561V93.49L119.561 93.6499C119.541 93.8499 119.401 93.9699 119.021 94.0299V95.46H126.321V99.9399H123.881V97.62H111.741V97.61Z" fill="white"/>
<path d="M183.641 102.9H174.221V112.2H171.941V110.36C169.841 110.64 167.811 110.86 166.411 111.01C166.371 111.19 166.231 111.29 166.091 111.31L165.421 109.05L167.151 108.93V102.9H165.421V101.02H183.651V102.9H183.641ZM181.001 94.1899V100.26H168.051V94.1899H181.001ZM171.931 103.69V102.9H169.291V103.69H171.931ZM171.931 106.17V105.34H169.291V106.17H171.931ZM169.291 108.77L171.931 108.57V107.82H169.291V108.77ZM178.611 96.49V95.74H170.321V96.49H178.611ZM178.611 98.71V97.9399H170.321V98.71H178.611ZM181.391 103.57L182.861 104.13C182.801 104.29 182.721 104.33 182.641 104.45C182.141 106.18 181.351 107.64 180.301 108.87C181.311 109.5 182.481 110 183.811 110.32C183.311 110.76 182.701 111.63 182.401 112.18C181.011 111.76 179.781 111.17 178.731 110.38C177.781 111.13 176.711 111.75 175.541 112.22C175.261 111.66 174.691 110.81 174.251 110.38C175.281 110.04 176.251 109.53 177.111 108.87C176.361 107.98 175.721 106.97 175.231 105.83L176.501 105.47H174.641V103.64H181.011L181.411 103.56L181.391 103.57ZM177.201 105.47C177.561 106.18 178.031 106.86 178.591 107.45C179.111 106.86 179.541 106.18 179.881 105.47H177.201Z" fill="white"/>
<path d="M219.511 101.32H212.391C213.561 105.43 215.861 108.54 219.951 109.91C219.371 110.43 218.601 111.5 218.221 112.19C214.411 110.7 212.151 107.97 210.701 104.14C209.611 107.39 207.471 110.31 203.141 112.21C202.781 111.54 202.071 110.66 201.391 110.13C206.231 108.17 208.091 104.95 208.791 101.32H201.771V98.8601H209.131C209.271 97.1001 209.251 95.29 209.271 93.5L212.421 93.7001C212.381 93.9201 212.201 94.0601 211.861 94.1201C211.841 95.6501 211.821 97.2501 211.681 98.8601H219.501V101.32H219.511Z" fill="white"/>
<path d="M254.231 98.1398L255.481 98.1998C255.461 98.3798 255.461 98.6998 255.441 98.9498C255.261 107.28 255.101 110.2 254.471 111.11C253.781 112.14 253.021 112.24 250.261 112.18C250.221 111.53 249.961 110.55 249.571 109.92C250.501 110 251.321 110 251.731 110C252.051 110 252.251 109.92 252.441 109.66C252.841 109.12 253.021 106.72 253.151 100.4H251.151C250.831 105.38 249.761 109.56 246.031 112.22C245.671 111.64 244.941 110.85 244.341 110.43C245.291 109.78 246.051 109.02 246.661 108.17C243.621 108.9 240.491 109.62 238.431 110.05C238.411 110.25 238.271 110.37 238.091 110.41L237.181 107.71C237.621 107.65 238.111 107.57 238.651 107.47V94.2998H245.591V106.24L246.961 105.98L247.101 107.49C248.211 105.55 248.651 103.15 248.831 100.39H246.291V98.1298H248.931C248.951 96.6798 248.951 95.1298 248.951 93.5098L251.871 93.6698C251.851 93.8898 251.651 94.0298 251.291 94.0898C251.291 95.4798 251.271 96.8298 251.251 98.1398H254.231ZM243.401 96.4498H240.781V98.4698H243.401V96.4498ZM243.401 102.6V100.56H240.781V102.6H243.401ZM240.781 104.68V107.12C241.611 106.98 242.511 106.82 243.401 106.64V104.68H240.781Z" fill="white"/>
<path d="M289.821 97.6298L291.211 97.7299C291.211 97.9299 291.191 98.3098 291.171 98.5598C290.911 106.85 290.651 109.85 289.841 110.86C289.111 111.83 288.291 112.09 286.191 112.09C285.691 112.09 285.181 112.07 284.661 112.05C284.601 111.34 284.261 110.23 283.791 109.53C285.041 109.63 286.191 109.63 286.731 109.63C287.131 109.63 287.341 109.57 287.581 109.31C288.141 108.73 288.411 106.1 288.611 100.05H282.961C282.641 104.22 281.251 109.13 275.621 112.31C275.221 111.72 274.331 110.8 273.761 110.39C278.741 107.67 280.071 103.57 280.411 100.06H274.381V97.6598H280.511V93.5298L283.581 93.7098C283.561 93.9098 283.401 94.0499 283.041 94.1099V97.6598H289.271L289.831 97.6398L289.821 97.6298Z" fill="white"/>
</svg>
