<svg width="390" height="60" viewBox="0 0 390 60" fill="none" xmlns="http://www.w3.org/2000/svg">
<path d="M360.34 0.705078H29.9494C13.7205 0.705078 0.564453 13.8612 0.564453 30.0901C0.564453 46.319 13.7205 59.4752 29.9494 59.4752H360.34C376.568 59.4752 389.724 46.319 389.724 30.0901C389.724 13.8612 376.568 0.705078 360.34 0.705078Z" fill="white"/>
<path d="M128.394 6.63013H30.3845C17.4361 6.63013 6.93945 17.1268 6.93945 30.0751V30.0901C6.93945 43.0385 17.4361 53.5352 30.3845 53.5352H128.394C141.343 53.5352 151.839 43.0385 151.839 30.0901V30.0751C151.839 17.1268 141.343 6.63013 128.394 6.63013Z" fill="#FFE900"/>
<path d="M47.4548 37.5602H43.4649C46.1649 38.5052 49.0899 39.6002 50.9049 40.4102L46.5999 42.3152C45.0099 41.4302 42.0399 40.1102 39.1599 39.1052L41.6349 37.5453H34.2549L37.2999 39.0602C37.1949 39.1952 36.9999 39.2702 36.7599 39.2702C36.6849 39.2702 36.5648 39.2702 36.4898 39.2402C34.2848 40.3652 30.9399 41.6102 28.0899 42.3602C27.4449 41.6102 26.1999 40.3052 25.4199 39.6602C27.8949 39.1802 30.6399 38.3702 32.4999 37.5302H29.0499V25.6202H47.4548V37.5302V37.5602ZM48.9849 17.7603V24.8702H27.2649V17.7603H48.9849ZM33.4449 22.0202V20.6252H30.8799V22.0202H33.4449ZM32.8298 28.0502V28.9052H43.4949V28.0502H32.8298ZM32.8298 31.1552V32.0402H43.4949V31.1552H32.8298ZM32.8298 34.2752V35.1602H43.4949V34.2752H32.8298ZM39.2649 22.0202V20.6252H36.6848V22.0202H39.2649ZM45.1899 22.0202V20.6252H42.4898V22.0202H45.1899Z" fill="#2E318B"/>
<path d="M77.2598 33.1202H66.6698C66.5948 33.4952 66.5348 33.8702 66.4598 34.2452H71.7098L72.5498 34.1702L74.7548 34.5002C74.7248 34.8002 74.6798 35.1452 74.5898 35.4752C74.1098 42.1502 73.4798 42.4502 67.7948 42.3452C67.7348 41.3552 67.3448 40.0052 66.8048 39.1352C67.7948 39.2102 68.7397 39.2401 69.2047 39.2401C70.1497 39.2401 70.3598 38.8952 70.5848 37.2002H65.5148C64.5248 39.3002 62.6348 41.0552 58.7198 42.2852C58.4198 41.5052 57.6998 40.3802 56.9948 39.5852C56.5298 40.5002 55.9748 41.3702 55.2998 42.1202C54.5948 41.4752 52.8998 40.3652 51.9248 39.9602C54.9998 36.6452 55.2397 31.7401 55.2397 28.1852V22.0952H74.8297V28.9052H68.9798C68.8748 29.1002 68.6498 29.2052 68.2448 29.2802V30.1652H77.2448V33.1052L77.2598 33.1202ZM77.1248 17.8502V21.3301H52.8548V17.8502H77.1248ZM58.8398 33.1202C58.5698 35.1152 58.0898 37.1852 57.2798 39.0152C61.4798 37.7702 62.4248 35.7752 62.7998 33.1202H58.8398ZM64.3898 30.1802V28.9202H59.1398C59.1398 29.3252 59.1097 29.7602 59.0797 30.1802H64.3898ZM70.9897 24.9302H59.1398V26.0552H70.9897V24.9302Z" fill="#2E318B"/>
<path d="M104.695 37.5902H101.41C102.67 38.5352 104.155 39.6602 104.965 40.5002L102.085 42.3002C101.2 41.3102 99.2502 39.6602 97.7952 38.5502L99.4452 37.5752H95.5601L97.2252 38.5502C97.1502 38.6552 96.9851 38.7453 96.7901 38.7603C95.8451 39.9153 93.7151 41.5052 91.9151 42.2852C91.3451 41.6702 90.3252 40.7252 89.5452 40.1252C88.9602 42.3002 86.8452 42.3002 84.6402 42.3002C84.5802 41.2502 84.2352 39.7953 83.7252 38.8503C84.4002 38.9253 84.9852 38.9252 85.3752 38.9252C85.6902 38.9252 85.9152 38.8502 86.1252 38.4902C86.4252 37.9802 86.5302 35.9102 86.6052 30.1952H85.1501C84.7751 34.7552 83.9052 39.0602 81.6552 42.2402C81.0402 41.2952 79.8702 40.1102 78.9102 39.4952C81.5202 35.8352 81.6852 30.2552 81.7602 24.2402H79.3301V20.6252H83.1851V16.6952L87.7151 16.9352C87.6851 17.2352 87.4751 17.4002 86.9351 17.5052V20.6252H90.3852V21.2702C91.3302 19.9502 92.0502 18.2853 92.4402 16.6353L96.3401 17.6252C96.2651 17.8352 96.0401 17.9702 95.6651 17.9552C95.5301 18.3902 95.3651 18.8402 95.2001 19.2752H104.68V22.3952H93.6101L93.3702 22.7702L96.8651 22.9652C96.8351 23.2352 96.6251 23.4002 96.1151 23.5052V24.7652H98.8152V22.7253L103.18 22.9652C103.15 23.2352 102.94 23.4302 102.4 23.5052V24.7652H104.335V27.8102H102.4V34.4852H104.695V37.5302V37.5902ZM88.2551 26.7002L90.1602 26.7603C90.1602 27.0603 90.1601 27.4953 90.1301 27.8853C90.0551 34.9203 89.9651 38.3852 89.5601 40.0052C90.8801 39.4352 92.2752 38.4902 93.2802 37.5752H90.3401V34.5302H92.5751V27.8552H90.7151V24.8102H92.5751V23.8202C92.3651 24.0902 92.1252 24.3302 91.8702 24.5402C91.5252 24.1952 90.9252 23.7602 90.3552 23.3552V24.2702H85.4052L85.3301 26.7002H88.2401H88.2551ZM98.8152 27.8552H96.1151V28.4702H98.8152V27.8552ZM98.8152 31.4852V30.8402H96.1151V31.4852H98.8152ZM96.1151 33.8552V34.5302H98.8152V33.8552H96.1151Z" fill="#2E318B"/>
<path d="M116.41 30.2102L115.435 30.3452V39.1501C115.435 41.5951 114.625 42.3301 111.445 42.3301C111.37 41.5201 110.995 40.2302 110.59 39.4502C110.995 39.4802 111.43 39.5102 111.745 39.5102C112.525 39.5102 112.6 39.5102 112.6 39.1052V30.7502L110.035 31.0952C109.975 34.7252 109.63 39.3602 108.1 42.3602C107.59 41.8952 106.345 41.1452 105.67 40.8752C106.96 38.2652 107.23 34.6052 107.29 31.4402L106.96 31.5002C106.9 31.7402 106.66 31.8752 106.45 31.9052L105.775 28.6652L107.29 28.5302V20.2802H109.525C109.705 19.1252 109.87 17.7152 109.93 16.6652L113.95 17.3702C113.875 17.5802 113.62 17.7152 113.215 17.7452C113.005 18.4802 112.705 19.4102 112.405 20.2802H115.42V27.7352L116.305 27.6602L116.38 30.1952L116.41 30.2102ZM111.775 23.7452C112.18 24.6602 112.51 25.8452 112.615 26.7302H112.645L112.615 23.2051H110.05V24.3152L111.775 23.7452ZM110.05 28.3052L112.615 28.0652V26.9852L110.62 27.6602C110.59 26.9102 110.35 25.8002 110.05 24.8252V28.3052ZM112.585 31.5602C112.555 31.7552 112.39 31.8902 112.075 31.9052V37.5152H110.425V31.4252L112.585 31.5602ZM130.12 38.9402H131.635V41.8502H115.735V38.9402H117.25V31.9052H130.12V38.9402ZM119.23 30.9152V31.2902H116.62V17.6102H124.27V20.0402H122.44V21.3002H124.165V24.0452C124.885 22.1852 125.275 19.3801 125.455 16.7401L129.175 17.4901C129.1 17.7001 128.875 17.8651 128.53 17.8651C128.455 18.5851 128.365 19.3202 128.23 20.0702H131.515V22.9802H127.66C127.345 24.2702 126.94 25.4551 126.415 26.4001C125.875 25.9351 124.915 25.3502 124.15 24.9152V27.1501H122.425V28.4102H124.6V30.8852H119.215L119.23 30.9152ZM120.01 20.0251H119.23V21.2852H120.01V20.0251ZM121.6 23.5052H119.23V24.9602H121.6V23.5052ZM120.01 28.4402V27.1802H119.23V28.4402H120.01ZM120.115 34.8002V38.9551H120.82V34.8002H120.115ZM123.94 34.8002H123.235V38.9551H123.94V34.8002ZM124.99 29.6552V26.7452H131.08V29.6552H124.99ZM127.06 34.8002H126.355V38.9551H127.06V34.8002Z" fill="#2E318B"/>
<g filter="url(#filter0_d_70_1834)">
<path d="M172.014 30.0902C172.134 31.4102 172.314 32.6553 172.554 33.7953C173.079 32.8503 173.484 31.8152 173.799 30.7352L176.319 31.4552C176.274 31.6052 176.109 31.6952 175.839 31.6802C175.224 33.4952 174.399 35.1602 173.379 36.6152C173.724 37.4702 174.129 37.9802 174.504 37.9952C174.834 37.9952 175.059 37.2002 175.149 35.3102C175.614 35.8202 176.349 36.3452 176.919 36.5852C176.574 39.5252 175.884 40.1852 174.354 40.1852C173.169 40.1852 172.374 39.3302 171.849 38.4152C171.159 39.1052 170.409 39.7202 169.584 40.2302C169.284 39.7502 168.579 38.8952 168.129 38.4902C169.149 37.9202 170.094 37.1402 170.904 36.2102C170.349 34.4852 170.004 32.3402 169.794 30.1052H165.639V31.4252H168.264L169.419 31.4552C169.419 31.6202 169.419 31.8903 169.419 32.1003C169.374 35.4603 169.284 36.8702 168.909 37.3802C168.474 37.9352 168.024 38.1902 166.044 38.1452C165.999 37.5002 165.774 36.6452 165.444 36.0902C165.924 36.1352 166.344 36.1502 166.599 36.1502C166.794 36.1502 166.914 36.1052 167.049 35.9552C167.184 35.7752 167.244 35.0852 167.274 33.4502H165.654C165.579 35.6852 165.174 38.4902 163.824 40.2302C163.464 39.8102 162.549 39.0302 162.084 38.7752C163.404 37.0202 163.494 34.3952 163.494 32.4152V27.9753H169.689C169.644 27.1953 169.629 26.4302 169.629 25.6652L172.389 25.8152C172.389 25.9952 172.224 26.1002 171.879 26.1452C171.879 26.7452 171.879 27.3602 171.894 27.9602H173.814C173.379 27.5702 172.854 27.1952 172.404 26.8952L173.799 25.6052C174.519 26.0552 175.494 26.7303 175.974 27.2253L175.209 27.9602H176.514V30.0902H172.044H172.014Z" fill="#2E318B"/>
<path d="M188.094 31.5152C188.259 32.0402 188.469 32.5352 188.724 33.0302C189.384 32.5652 190.059 32.0402 190.539 31.5752L192.474 33.3302C192.399 33.3902 192.279 33.4203 192.114 33.4203C192.054 33.4203 191.994 33.4203 191.934 33.4203C191.409 33.7803 190.569 34.3053 189.819 34.7253C190.659 35.7303 191.724 36.5402 193.029 37.0652C192.519 37.5152 191.844 38.4002 191.514 39.0152C188.754 37.6802 187.209 35.2202 186.234 31.9802C185.889 32.2052 185.499 32.4452 185.079 32.6552C186.984 34.0052 187.719 35.7152 187.719 37.1552C187.719 39.1052 186.384 40.2302 184.749 40.2302C184.374 40.2302 183.984 40.2152 183.579 40.2002C183.549 39.6302 183.414 38.8352 183.069 38.2052C181.959 38.7902 180.819 39.3002 179.769 39.6752C179.514 39.1202 179.034 38.3252 178.584 37.8302C180.714 37.3202 183.219 36.1652 184.734 34.9802L184.599 34.8152C183.309 35.6102 181.599 36.4202 180.234 36.9002C179.994 36.4052 179.529 35.6552 179.124 35.2352C180.489 34.9352 182.184 34.3202 183.354 33.6752L183.144 33.5252C182.184 33.9152 181.149 34.2152 180.144 34.4552C179.934 34.0202 179.424 33.1952 179.124 32.8052C180.594 32.5352 182.124 32.1002 183.414 31.5152H181.629V29.6402H189.564V31.5152H188.094ZM181.254 29.0252V30.6902H179.079V27.0152H184.434V25.6202L187.194 25.7702C187.179 25.9352 187.059 26.0402 186.729 26.0852V27.0002H192.234V30.6752H189.954V29.0103H181.254V29.0252ZM185.469 36.7502C184.809 37.2302 184.044 37.6952 183.249 38.1302C183.654 38.1602 183.984 38.1752 184.299 38.1752C184.629 38.1752 184.929 38.1302 185.109 37.8902C185.349 37.7102 185.514 37.2902 185.469 36.7502Z" fill="#2E318B"/>
<path d="M207.504 29.1452L208.674 29.2051C208.674 29.3701 208.674 29.6702 208.644 29.9102C208.524 36.2402 208.419 38.5052 207.939 39.2252C207.369 40.0802 206.709 40.2302 204.729 40.1852C204.699 39.5852 204.459 38.6702 204.099 38.0852C204.699 38.1302 205.224 38.1302 205.524 38.1302C205.749 38.1302 205.899 38.0702 206.049 37.8602C206.319 37.4852 206.439 35.7302 206.529 31.2602H205.479C205.239 35.0552 204.459 38.1452 201.759 40.2152C201.444 39.6602 200.754 38.9102 200.214 38.5352C200.754 38.1302 201.204 37.6952 201.579 37.2152C199.359 37.7552 197.109 38.2501 195.579 38.5801C195.549 38.7451 195.429 38.8502 195.294 38.8802L194.469 36.3752C194.799 36.3302 195.174 36.2702 195.594 36.2102V26.2202H201.144V35.2802L202.089 35.1151L202.194 36.3002C202.929 34.9052 203.229 33.2402 203.364 31.2602H201.579V29.1602H203.424C203.439 28.0652 203.439 26.9102 203.439 25.6652L206.109 25.8002C206.094 25.9802 205.944 26.1002 205.629 26.1452C205.629 27.1802 205.614 28.1852 205.599 29.1452H207.564H207.504ZM199.029 28.2002H197.499V29.3552H199.029V28.2002ZM199.029 32.4752V31.2751H197.499V32.4752H199.029ZM197.499 34.4102V35.8952L199.029 35.6402V34.4102H197.499Z" fill="#2E318B"/>
<path d="M223.314 28.7252L224.619 28.8152C224.619 28.9952 224.619 29.3401 224.574 29.5801C224.409 35.8501 224.199 38.1752 223.584 38.9852C222.819 40.0352 221.889 40.1251 219.444 40.0801C219.399 39.4051 219.069 38.3702 218.634 37.7102C219.549 37.7852 220.389 37.7852 220.809 37.7852C221.109 37.7852 221.289 37.7252 221.469 37.5302C221.859 37.1102 222.054 35.1902 222.189 31.0052H218.364C218.109 34.2002 217.014 37.9952 212.769 40.2902C212.394 39.7352 211.554 38.8652 211.014 38.4752C214.659 36.6152 215.694 33.6002 215.964 31.0202H211.524V28.7702H216.054V25.6952L218.904 25.8452C218.889 26.0102 218.754 26.1302 218.424 26.1902V28.7552H223.329L223.314 28.7252Z" fill="#2E318B"/>
<path d="M239.619 36.9302H245.334V39.1802H231.534V36.9302H237.189V29.4001H232.269V27.1501H244.614V29.4001H239.619V36.9302Z" fill="#2E318B"/>
<path d="M258.609 37.9653H261.924V39.9003H253.164V37.9653H256.389V37.0503H253.899V35.2053H256.389V34.3503H253.779L253.809 34.3803L252.564 36.1353C252.369 35.7153 252.054 35.1753 251.724 34.6203V40.2003H249.564V35.3853C249.159 36.3603 248.709 37.2753 248.214 37.9353C248.034 37.2903 247.539 36.3603 247.224 35.7903C247.959 34.8603 248.694 33.4053 249.189 32.0703H247.509V30.0003H249.579V28.6053C249.039 28.7403 248.484 28.8603 247.974 28.9803C247.884 28.5303 247.569 27.7953 247.314 27.3753C249.069 26.9703 250.959 26.3403 252.129 25.6653L253.854 27.2553C253.764 27.3453 253.614 27.3453 253.419 27.3453C252.924 27.5703 252.369 27.7953 251.739 28.0053V30.0153H253.449V32.0853H251.739V32.2653C252.114 32.5653 253.044 33.5253 253.554 34.0503V32.4453H261.549V34.3503H258.624V35.2053H261.069V37.0503H258.624V37.9653H258.609ZM261.099 26.1753V31.7853H254.019V26.1753H261.099ZM258.939 29.9253V28.0203H256.074V29.9253H258.939Z" fill="#2E318B"/>
<path d="M269.89 37.8902H267.655V40.1703H265.84V37.8902H263.56V35.9552H265.84V35.2352H264.024V29.5352H265.825V28.8902H263.784V26.9852H265.825V25.6353L268.045 25.7552C268.03 25.9052 267.925 25.9952 267.625 26.0402V26.9702H269.71V28.8752H267.625V29.5202H269.575V35.2202H267.655V35.9402H269.89V37.8752V37.8902ZM265.509 31.0652V31.6802H266.049V31.0652H265.509ZM265.509 33.1052V33.7352H266.049V33.1052H265.509ZM267.984 31.6802V31.0652H267.43V31.6802H267.984ZM267.984 33.7352V33.1052H267.43V33.7352H267.984ZM272.979 28.5752C272.949 28.6952 272.844 28.7702 272.634 28.7702C272.409 29.3402 271.975 30.2702 271.6 31.0202C272.17 31.8752 272.695 32.8352 272.965 33.4952L271.27 34.1552C271.015 33.3152 270.43 32.1302 269.755 31.0352C270.25 30.0902 270.745 28.9352 271.015 28.1552L273.009 28.5752H272.979ZM275.14 37.9802H278.155V39.8252H269.89V37.9802H272.905V36.0602H270.52V34.2152H277.689V36.0602H275.155V37.9802H275.14ZM277.914 26.2052V28.0502H270.115V26.2052H277.914ZM273.774 34.1102C273.474 33.2852 272.844 32.1152 272.094 31.0202C272.634 30.0752 273.16 28.9503 273.445 28.1703L275.454 28.5902C275.409 28.7252 275.304 28.8002 275.079 28.8002C274.839 29.3552 274.389 30.2552 273.984 31.0052C274.599 31.8302 275.184 32.7752 275.469 33.4352L273.789 34.1102H273.774ZM276.354 34.1703C276.024 33.3303 275.334 32.1452 274.539 31.0502C275.124 30.1052 275.709 28.9503 276.024 28.1703L278.034 28.6202C278.004 28.7402 277.884 28.8152 277.674 28.8152C277.404 29.3702 276.91 30.2852 276.46 31.0352C277.105 31.8602 277.734 32.8202 278.034 33.4802L276.354 34.1703Z" fill="#2E318B"/>
<path d="M284.274 35.9402C284.709 36.1952 285.924 37.0652 286.239 37.3202L285.084 38.7752C284.904 38.5202 284.589 38.1302 284.274 37.7852V40.2002H282.309V37.9352C281.904 38.4902 281.469 38.9702 281.019 39.3452C280.719 38.8952 280.119 38.2202 279.699 37.8752C280.524 37.3652 281.379 36.5252 282.009 35.6402H280.149V33.9902H282.294V33.1802L281.034 33.2253C281.034 33.3453 280.914 33.4202 280.809 33.4352L280.314 31.9052H281.364C281.439 31.7402 281.529 31.5602 281.604 31.3652H280.104V30.1502H281.229V25.9802H287.379V27.1952H283.224V27.5103H286.869V28.5002H283.224V28.8152H286.869V29.8052H283.224V30.1202H287.934V31.3352H286.659C287.154 31.8152 287.604 32.3702 287.844 32.8202L286.419 33.4802C286.344 33.3302 286.239 33.1502 286.104 32.9402L284.544 33.0152C284.544 33.0152 284.379 33.1053 284.229 33.1353V33.9452H285.924V35.4302C286.434 34.8902 286.824 34.2002 287.064 33.4952L288.504 33.9002V33.0002H288.549C288.324 32.5202 287.889 31.9353 287.514 31.5453C289.404 31.3203 291.279 30.7802 292.194 29.9402L294.279 30.6003C294.234 30.7053 294.114 30.7802 293.904 30.7802C292.794 31.8302 290.964 32.5502 288.804 33.0002H291.969C292.344 34.0502 293.274 34.9952 294.399 35.4602C294.024 35.8352 293.469 36.5852 293.214 37.0502C292.179 36.4502 291.294 35.5652 290.754 34.6052H288.609C288.159 35.5352 287.484 36.4952 286.689 37.0952C286.389 36.7652 285.774 36.1802 285.369 35.8952C285.504 35.8052 285.624 35.7002 285.744 35.5952H284.214V35.8952L284.274 35.9402ZM285.489 31.3652H283.659C283.659 31.3652 283.554 31.3802 283.494 31.3802C283.404 31.5302 283.299 31.6952 283.179 31.8902L285.264 31.8602C285.174 31.7702 285.099 31.6802 285.009 31.6052L285.519 31.3802L285.489 31.3652ZM290.919 37.9352C290.754 37.7102 290.604 37.4852 290.424 37.2902L291.969 36.5702C292.704 37.4102 293.499 38.5652 293.784 39.4052L292.134 40.2002C292.059 39.9902 291.969 39.7352 291.834 39.4802C289.974 39.6152 288.159 39.7202 286.884 39.7802C286.854 39.9152 286.734 39.9902 286.614 40.0202L285.924 37.9952C286.419 37.9952 286.974 37.9952 287.589 37.9802C287.919 37.2002 288.249 36.2552 288.429 35.5052L290.769 36.1502C290.709 36.2702 290.574 36.3452 290.319 36.3452C290.124 36.8402 289.839 37.3952 289.569 37.9502L290.904 37.9203L290.919 37.9352ZM293.529 26.7002C293.484 26.7902 293.349 26.8503 293.154 26.8503C292.149 27.4803 290.379 28.2002 289.014 28.6052C288.729 28.2002 288.219 27.6752 287.754 27.3152C288.984 27.0002 290.724 26.3852 291.579 25.8002L293.529 26.6852V26.7002ZM293.904 28.6652C293.859 28.7702 293.739 28.8302 293.529 28.8302C292.509 29.6402 290.739 30.3452 289.059 30.7652C288.804 30.3452 288.324 29.7902 287.889 29.4152C289.344 29.1452 291.069 28.5902 291.909 27.9152L293.889 28.6652H293.904Z" fill="#2E318B"/>
<path d="M300.098 32.8351L301.238 32.9551L301.193 33.5551C301.028 37.2901 300.833 38.8502 300.398 39.4052C299.813 40.1402 299.123 40.2002 297.263 40.1702C297.233 39.5552 296.993 38.7151 296.648 38.1601C297.248 38.2051 297.833 38.2201 298.118 38.2201C298.343 38.2201 298.508 38.1901 298.658 38.0251C298.883 37.7851 299.018 36.8551 299.123 34.7701H298.103L298.028 35.3701L296.108 35.0851C296.318 33.6601 296.528 31.4701 296.603 29.7151H299.108V28.2001H296.288V26.1451H301.223V32.0851H299.108V31.6352H298.388C298.358 32.0552 298.328 32.4601 298.283 32.8801H299.678L300.128 32.8502L300.098 32.8351ZM310.583 36.3751V38.1751H306.923V40.1851H304.808V38.1751H301.193V36.3751H304.808V35.8051H302.063V30.1352H309.728V35.8051H306.908V36.3751H310.568H310.583ZM305.678 25.8901V29.6851H301.703V25.8901H305.678ZM303.818 28.2301V27.3451H303.443V28.2301H303.818ZM303.968 31.7401V32.2501H304.793V31.7401H303.968ZM303.968 34.2151H304.793V33.7051H303.968V34.2151ZM310.133 25.8901V29.6401H306.158V25.8901H310.133ZM307.718 32.2501V31.7401H306.908V32.2501H307.718ZM307.718 34.2301V33.7201H306.908V34.2301H307.718ZM308.288 28.2001V27.3601H307.913V28.2001H308.288Z" fill="#2E318B"/>
<path d="M323.469 37.6052H326.829V39.7352H317.575V37.6052H321.249V35.1602H318.624V33.1202H321.249V30.8552H319.944C319.764 31.5452 319.525 32.1752 319.27 32.7002C318.835 32.3852 317.994 31.9052 317.469 31.6652C317.619 31.3802 317.754 31.0052 317.874 30.6152L317.215 31.0652C317.08 30.7652 316.839 30.3452 316.554 29.9402V40.2002H314.38V31.2002C314.26 31.9802 314.079 32.7152 313.794 33.3002L312.145 32.4152C312.595 31.5602 312.789 30.0602 312.819 28.7852L314.395 28.9952V25.6502L317.02 25.7852C317.005 25.9502 316.884 26.0553 316.569 26.1003V28.4102L317.289 27.9602C317.574 28.3352 317.919 28.7702 318.219 29.1902C318.369 28.2902 318.489 27.2702 318.549 26.3252L321.024 26.8202C320.994 26.9552 320.859 27.0453 320.619 27.0453C320.559 27.6153 320.485 28.2002 320.395 28.7702H321.249V25.6353L323.935 25.7702C323.935 25.9502 323.799 26.0403 323.469 26.1003V28.7702H326.454V30.8552H323.469V33.1202H325.869V35.1602H323.469V37.6052Z" fill="#2E318B"/>
<path d="M330.594 32.7452C330.204 33.3002 329.784 33.7802 329.364 34.2452C329.154 33.6752 328.599 32.5052 328.284 31.9652C329.634 30.5852 331.029 28.0802 331.854 25.6652L334.344 26.5352C334.284 26.6702 334.119 26.7452 333.864 26.7302C333.489 27.6602 333.039 28.6052 332.559 29.5202L333.249 29.7002C333.204 29.8502 333.069 29.9702 332.784 30.0002V40.1702H330.579V32.7302L330.594 32.7452ZM343.044 28.9052V31.1102H341.439V37.6652C341.439 39.7052 340.824 40.2302 337.119 40.2302C337.029 39.6002 336.669 38.6102 336.354 37.9952C336.999 38.0402 337.704 38.0552 338.184 38.0552C339.054 38.0552 339.174 38.0552 339.174 37.6352V31.0952H333.519V28.8902H339.174V25.8002L341.889 25.9202C341.874 26.0852 341.769 26.2052 341.424 26.2502V28.8902H343.029L343.044 28.9052ZM335.904 36.4952C335.634 35.5352 334.794 34.0202 334.059 32.8802L336.009 31.9502C336.774 33.0152 337.659 34.4402 338.019 35.4452L335.904 36.4952Z" fill="#2E318B"/>
</g>
<defs>
<filter id="filter0_d_70_1834" x="161.664" y="25.1852" width="183.78" height="17.5049" filterUnits="userSpaceOnUse" color-interpolation-filters="sRGB">
<feFlood flood-opacity="0" result="BackgroundImageFix"/>
<feColorMatrix in="SourceAlpha" type="matrix" values="0 0 0 0 0 0 0 0 0 0 0 0 0 0 0 0 0 0 127 0" result="hardAlpha"/>
<feOffset dx="0.99" dy="0.99"/>
<feGaussianBlur stdDeviation="0.705"/>
<feColorMatrix type="matrix" values="0 0 0 0 0.0941176 0 0 0 0 0.121569 0 0 0 0 0.215686 0 0 0 0.34 0"/>
<feBlend mode="normal" in2="BackgroundImageFix" result="effect1_dropShadow_70_1834"/>
<feBlend mode="normal" in="SourceGraphic" in2="effect1_dropShadow_70_1834" result="shape"/>
</filter>
</defs>
</svg>
