<svg width="1298" height="127" viewBox="0 0 1298 127" fill="none" xmlns="http://www.w3.org/2000/svg">
<g filter="url(#filter0_d_1_83)">
<path d="M79.05 36.675C75.615 33.465 72.06 30.375 68.745 27.63L81.69 17.55C93.15 26.37 107.46 39.075 113.76 48.825L99.45 60.39C97.965 57.75 95.79 54.78 93.15 51.69C63.03 53.175 31.875 54.435 11.37 55.125C11.025 56.385 9.885 56.955 8.73 57.075L3 38.505L22.935 38.16C29.805 27.855 37.02 14.34 41.25 3L61.86 10.56C61.29 11.7 59.805 12.285 57.855 12.285C53.955 20.295 48.345 29.58 42.735 37.71L79.035 36.675H79.05ZM19.95 112.95V62.55H96.57V112.485H79.05V109.5H36.675V112.935H19.95V112.95ZM79.05 78.48H36.675V93.375H79.05V78.48Z" fill="white"/>
<path d="M126.57 35.52C132.3 38.16 139.965 42.51 143.745 45.945L134.13 58.665C130.815 55.23 123.255 50.19 117.525 47.1L126.57 35.535V35.52ZM128.97 5.745C134.7 8.61 142.26 13.305 145.92 16.965L135.96 29.445C132.75 25.665 125.31 20.4 119.58 16.965L128.97 5.745ZM120.375 103.44C124.62 94.395 130.335 80.07 134.805 66.33L147.975 74.805C144.315 87.06 139.95 99.195 136.29 108.135C137.085 108.93 137.55 109.86 137.55 110.775C137.55 111.345 137.325 111.915 137.085 112.5L120.36 103.455L120.375 103.44ZM216.24 45.15L222.66 43.095C224.835 47.67 227.01 53.625 227.925 57.525L219.57 60.39C219 57.405 217.74 53.055 216.255 49.17V62.91H205.95V51.345C204.69 55.35 202.98 59.595 200.79 62.46C199.53 61.32 197.355 59.715 195.525 58.455V62.235H173.31V55.59L165.975 57.645C165.63 55.005 164.835 51.12 163.92 47.685V62.925H153.84V52.275C152.46 55.83 150.75 59.37 148.68 62.01C146.955 60.405 143.76 58.11 141.69 56.85C144.09 53.535 145.935 48.15 146.955 43.11L153.825 45.06V41.28L147.405 41.625C147.18 42.54 146.37 43.005 145.575 43.11L142.59 31.995H149.34C150.255 30.855 151.29 29.7 152.325 28.56C149.925 26.04 146.835 23.295 143.97 21.225L149.01 13.215L150.27 14.01C152.22 10.695 154.05 6.795 155.19 3.81L165.39 9.54C164.925 10.23 163.905 10.575 162.645 10.455C161.265 12.855 159.21 16.185 157.035 19.155L158.52 20.535C160.245 18.135 161.835 15.72 163.095 13.665L170.19 18.135V15.39H197.565V17.91L200.55 13.215L201.81 14.01C203.865 10.695 205.815 6.795 207.075 3.81L217.275 9.54C216.81 10.23 215.79 10.575 214.53 10.455C213.045 12.855 210.87 16.185 208.695 19.155L210.3 20.64C212.25 18.12 214.08 15.6 215.46 13.305L225.42 19.605C224.85 20.4 223.695 20.52 222.555 20.4C219.81 23.715 216.03 28.08 212.13 31.965H217.05C216.705 30.825 216.255 29.67 215.79 28.65L223.47 25.56C225.525 29.91 227.475 35.865 228.045 39.645L219.915 43.08C219.795 42.285 219.69 41.355 219.45 40.44L216.24 40.665V45.135V45.15ZM210.165 88.56L213.375 88.095L222.645 90.615C222.42 91.755 222.075 92.91 221.505 93.825C218.52 111.81 214.515 112.95 197.22 112.95C194.355 112.95 191.04 112.95 187.605 112.83C187.485 109.17 185.775 104.235 183.6 100.92C188.175 101.385 193.11 101.49 196.32 101.49C202.395 101.49 203.31 101.49 204.675 98.505H164.82L164.025 101.37L149.13 99.54C151.185 93.24 153.375 84.3 154.74 76.86H199.635V74.565H151.08V65.295H214.995V86.145H167.925L167.355 88.545H210.195L210.165 88.56ZM195.51 54.09C196.89 50.88 197.91 46.875 198.6 43.095L205.935 45.15V41.25L199.86 41.595C199.635 42.51 198.825 42.975 198.03 43.08L195.39 33.12H173.28V25.905H195.495V31.98H200.88C201.915 30.945 202.935 29.805 203.97 28.545C202.02 26.595 199.845 24.54 197.55 22.815V23.61H170.175V20.745C167.655 23.955 164.1 28.08 160.32 31.965H164.67L163.635 28.65L170.385 26.25C171.645 29.235 172.56 32.775 173.25 35.865V35.4H195.465V42.615H173.25V40.56L166.605 42.96C166.605 42.165 166.485 41.355 166.38 40.44L163.86 40.665V45.015L170.61 43.29C171.645 46.5 172.665 50.385 173.25 53.37V44.895H195.465V54.06L195.51 54.09ZM194.595 5.76V13.08H174.435V5.745H194.595V5.76ZM185.775 55.35V51.795H182.565V55.35H185.775Z" fill="white"/>
<path d="M334.785 64.62H296.07C295.275 73.095 293.205 81 288.63 88.095C302.265 94.17 319.785 95.535 343.035 95.775C339.72 99.78 336.165 107.115 335.25 112.95C311.085 111.69 291.72 108.705 276.615 100.35C268.71 105.96 257.835 110.55 243.06 113.52C241.11 109.74 236.535 102.405 232.86 98.625C246.255 96.57 255.885 93.585 262.635 89.805C257.37 84.42 252.9 77.775 249 69.645L263.775 64.605H242.82V18.24H279.015V4.83L299.865 5.865C299.745 7.245 298.725 8.04 296.31 8.505V18.24H334.8V64.62H334.785ZM259.08 34.155V48.705H279.015V34.155H259.08ZM264.585 64.62C267.555 70.11 270.885 74.7 274.665 78.48C277.065 74.355 278.22 69.66 278.67 64.62H264.585ZM317.61 34.155H296.31V48.705H317.61V34.155Z" fill="white"/>
<path d="M407.4 90.39H454.935V107.22H349.215V90.39H389.415V5.40001L411.06 6.54001C410.94 7.92001 409.92 8.71501 407.4 9.18001V37.02H446.805V53.85H407.4V90.39Z" fill="white"/>
<path d="M579.075 62.1L589.275 65.76C588.93 66.795 588.48 67.14 587.895 67.815C585.375 77.43 581.25 85.8 575.76 92.67C581.25 95.88 587.445 98.28 594.54 99.885C591.105 102.87 586.755 108.93 584.685 112.83C577.245 110.655 570.705 107.445 564.99 103.44C560.07 107.34 554.565 110.535 548.385 113.055C546.66 109.5 543.12 104.115 540.135 100.92V112.95H524.22V103.665C512.88 104.925 502.005 106.185 494.325 106.875C494.1 108.015 493.185 108.585 492.27 108.705L487.8 93.135C490.545 93.015 493.755 92.91 497.31 92.67V59.91H487.695V46.86H593.415V59.91H540.15V99.99C545.07 98.265 549.66 95.865 553.665 92.895C549.885 88.32 546.795 83.16 544.155 77.43L552.855 75.03H542.205V62.55H576.45L579.09 62.085L579.075 62.1ZM578.16 7.81499V43.995H502.905V7.81499H578.16ZM524.22 59.925H512.43V62.67H524.22V59.925ZM512.43 73.905V76.995H524.22V73.905H512.43ZM512.43 91.89L524.22 91.095V88.23H512.43V91.89ZM561.45 21V18.255H518.85V21H561.45ZM561.45 33.6V30.735H518.85V33.6H561.45ZM558.135 75.06C559.62 77.925 561.57 80.565 563.745 83.07C565.695 80.55 567.3 77.91 568.785 75.06H558.135Z" fill="white"/>
<path d="M662.79 96.915H707.685V109.86H602.55V96.915H646.065V93.135H611.025V80.76H646.065V77.325H614.805V40.23H646.065V37.365H603.225V24.525H646.065V20.97C635.295 21.54 624.42 21.885 614.115 22.005C613.77 18.45 612.06 12.735 610.68 9.525C638.055 8.955 668.865 7.005 688.215 3.69L698.985 16.065C698.52 16.41 697.725 16.635 696.93 16.635C696.465 16.635 696.015 16.515 695.445 16.41C686.055 17.895 674.835 19.05 662.805 19.965V24.54H706.905V37.365H662.805V40.23H696.015V77.34H662.805V80.775H700.26V93.15H662.805V96.93L662.79 96.915ZM631.065 50.88V53.97H646.065V50.88H631.065ZM631.065 66.69H646.065V63.6H631.065V66.69ZM678.945 50.88H662.79V53.97H678.945V50.88ZM678.945 66.69V63.6H662.79V66.69H678.945Z" fill="white"/>
<path d="M717.06 38.97H822.195V50.535H717.06V38.97ZM777.54 95.55V98.295H822.21V110.205H717.075V98.295H761.4V95.55H727.845V85.245H761.4V82.845H730.815V53.07H808.125V82.845H777.54V85.245H811.44V95.55H777.54ZM806.28 7.58998V36.21H732.87V7.57498H806.28V7.58998ZM746.385 61.425V64.065H761.385V61.425H746.385ZM746.385 74.475H761.385V71.835H746.385V74.475ZM789.45 18.12V15.6H748.905V18.12H789.45ZM789.45 28.2V25.68H748.905V28.2H789.45ZM791.745 64.05V61.41H777.54V64.05H791.745ZM791.745 74.475V71.835H777.54V74.475H791.745Z" fill="white"/>
<path d="M929.175 39.765L939.135 44.01C938.91 44.805 938.22 45.735 937.53 46.305C934.32 63.135 928.83 77.46 921.375 89.025C926.535 93.495 932.595 97.05 939.93 99.675C936.615 102.66 932.025 108.945 929.85 113.19C922.635 110.1 916.56 106.095 911.52 101.28C907.05 105.75 902.25 109.53 896.97 112.5C894.915 109.065 889.635 103.23 886.2 100.59C884.25 105.165 881.955 109.29 879.21 112.965C876.69 110.325 870.615 105.405 866.955 103.23C869.01 100.59 870.855 97.62 872.34 94.185L865.005 96.93C864.21 92.805 862.485 86.97 860.76 81.585V112.965H846.33V77.46H845.985C845.07 86.73 843 97.74 839.91 104.715C836.925 102.765 831.66 100.47 828.345 99.105C830.985 92.805 832.47 82.035 833.16 72.54L846.33 75.525V67.965C841.86 68.19 837.735 68.535 834.3 68.655C833.955 69.915 832.92 70.38 832.005 70.485L829.02 54.225H837.27C838.755 52.275 840.24 50.325 841.74 48.27C838.53 43.23 833.49 37.5 829.02 33.15L836.805 21.69L838.755 23.415C841.74 17.235 844.59 10.02 846.435 4.28998L862.35 10.71C861.885 11.505 860.625 11.97 858.915 11.97C856.275 18.15 851.7 26.52 847.8 32.7C848.595 33.615 849.405 34.65 850.095 35.565C853.875 29.61 857.19 23.535 859.71 18.15L873.225 24.225V10.44H911.94L915.375 10.215L923.16 11.595C923.04 12.51 922.815 13.65 922.59 14.58C921.555 21.45 919.845 30.735 918.015 40.23H926.49L929.13 39.765H929.175ZM860.22 53.85C859.305 51.555 858.27 49.275 857.25 47.1C855.42 49.5 853.59 51.795 851.865 53.97L860.22 53.85ZM860.79 75.96L871.32 72.525C872.805 76.425 874.41 80.88 875.79 85.125C880.365 69.315 881.52 48.48 881.625 25.68H874.29C873.6 26.145 872.685 26.37 871.425 26.37C867.99 32.1 863.295 38.97 858.375 45.615L868.575 41.37C872.82 49.155 877.17 59.355 878.43 66.225L865.71 71.835C865.485 70.23 865.14 68.52 864.57 66.57L860.79 66.915V75.96ZM901.335 89.13C898.35 84.315 895.725 79.05 893.55 73.32C891.945 83.28 889.65 92.325 886.455 100.005C891.945 97.14 896.985 93.48 901.35 89.13H901.335ZM896.985 25.68C896.865 28.545 896.865 31.41 896.76 34.275C897.675 40.695 898.935 46.755 900.54 52.365C902.265 43.77 904.095 34.035 905.58 25.68H896.985ZM901.8 56.715C904.095 64.155 907.065 70.92 910.965 76.875C914.745 70.575 917.835 63.24 920.01 55.005H915.09L914.4 58.215L901.8 56.73V56.715Z" fill="white"/>
<path d="M995.475 50.19H965.925V112.95H949.665V8.26501H995.475V50.19ZM979.905 19.95H965.94V23.73H979.905V19.95ZM965.94 38.505H979.905V34.26H965.94V38.505ZM1027.56 88.215H1016.45V111H1001.9V88.215H993.54C991.935 95.55 987.93 105.975 979.455 111.69C977.28 108.825 972.24 104.25 969.03 102.075C974.64 98.295 977.73 92.91 979.23 88.215H969.72V74.82H980.25V68.295H971.205V55.35H1025.96V68.295H1016.45V74.82H1027.56V88.215ZM994.35 74.82H1001.91V68.295H994.35V74.82ZM1048.05 8.26501V94.275C1048.05 108.015 1044.05 112.71 1022.63 112.485C1022.16 108.015 1019.99 100.35 1017.81 96.105C1020.45 96.33 1023.42 96.33 1025.84 96.33C1031.1 96.33 1031.67 96.33 1031.67 94.035V50.535H1001.43V8.26501H1048.05ZM1031.67 19.95H1017.24V23.73H1031.67V19.95ZM1017.24 38.85H1031.67V34.275H1017.24V38.85Z" fill="white"/>
<path d="M1151.8 14.79C1151.34 15.255 1150.54 15.48 1149.63 15.48C1149.16 15.48 1148.71 15.48 1148.25 15.36C1145.85 17.415 1142.07 20.28 1138.64 22.695C1140.02 24.18 1141.38 25.56 1142.98 26.94C1146.76 23.85 1151.23 19.605 1153.98 16.29L1167.15 26.25C1166.8 26.715 1165.89 26.94 1164.98 26.94C1164.51 26.94 1164.06 26.94 1163.59 26.82C1161.19 28.875 1157.17 31.98 1153.51 34.38C1158.21 37.02 1163.25 39.075 1168.75 40.68C1165.32 43.665 1160.97 49.725 1158.8 53.625C1155.36 52.365 1152.05 50.985 1148.94 49.395V55.23C1148.94 57.87 1148.94 58.2 1149.98 58.2C1151.58 58.2 1151.8 58.2 1152.03 58.08C1153.06 57.735 1153.29 55.335 1153.41 52.125C1155.81 54.3 1161.09 56.82 1164.87 58.08C1163.83 64.38 1163.04 69.87 1152.39 69.87H1146.43C1135.09 69.87 1135.09 60.705 1135.09 55.215V50.64H1127.19C1126.5 58.2 1123.63 66.21 1115.5 71.835H1145.74L1148.14 71.49L1157.08 74.355C1156.86 75.15 1156.51 75.495 1156.05 76.08C1153.53 83.865 1149.75 90.285 1144.83 95.55C1150.21 97.5 1156.39 98.865 1163.26 99.675C1159.95 102.885 1155.82 108.945 1153.75 112.965C1145.5 111.36 1138.29 108.72 1132.23 105.06C1125.93 108.495 1118.71 111.015 1110.58 112.845C1109.2 109.29 1106.11 103.905 1103.59 100.935C1110.01 99.9 1115.73 98.295 1120.89 96.12C1117.68 92.805 1115.06 89.13 1112.76 85.005L1121.35 82.71H1109.67V71.835H1114.48C1112.53 69.315 1108.41 64.965 1105.66 62.895V71.595H1091.11V69.3H1082.76L1081.84 75.48H1094.44L1097.76 75.255L1106.11 76.395C1106.11 77.655 1105.89 79.14 1105.65 80.52C1103.59 112.125 1101.3 113.04 1075.3 112.59C1074.96 108.24 1073.13 102.51 1070.61 98.73C1075.77 99.195 1081.03 99.3 1083.43 99.3C1088.01 99.3 1089.16 98.61 1090.3 87.27H1079.77L1079.2 90.24L1066.03 88.185C1067.86 79.935 1069.93 67.335 1071.07 57.255H1091.11V50.835H1077.82C1074.61 52.665 1071.18 54.39 1067.74 55.875C1065.69 52.215 1061.56 46.59 1058.35 43.62C1064.19 41.565 1069.69 38.7 1074.73 35.265C1071.87 33.315 1068.21 31.26 1065.34 29.655L1074.51 21.06H1067.98V8.26501H1098.57L1101.21 7.69501L1111.98 12.51C1111.63 13.425 1110.94 13.89 1110.25 14.46C1106.7 23.745 1101.21 31.755 1094.34 38.505H1105.68V61.635C1113.12 56.82 1114.03 51.105 1114.03 45.825V38.265H1133.39C1124.79 30.135 1118.26 19.935 1113.45 7.80001L1126.74 4.14001C1128 7.12501 1129.38 9.97501 1131.09 12.735C1133.95 10.095 1136.7 7.24501 1138.65 4.83001L1151.82 14.79H1151.8ZM1074.84 21.09C1078.05 22.47 1081.93 24.405 1085.04 26.355C1086.64 24.63 1088.01 22.92 1089.28 21.09H1074.85H1074.84ZM1125.91 82.71C1127.62 85.005 1129.81 87.06 1132.21 88.89C1134.27 87.06 1136.12 84.99 1137.6 82.71H1125.91Z" fill="white"/>
<path d="M1280.31 88.44H1249.15C1258.77 92.79 1271.37 96.12 1283.74 97.725C1280.19 101.16 1275.49 107.58 1273.21 111.81C1259.7 108.72 1246.18 102.87 1235.65 95.205V112.845H1218.93V95.895C1208.73 103.335 1195.56 108.945 1182.16 112.05C1179.99 108.15 1175.41 101.85 1171.96 98.655C1184.56 96.825 1197.27 93.165 1206.67 88.455H1175.17V74.94H1218.93V69.21C1210.11 71.04 1199.23 72.42 1185.6 73.455C1184.91 69.555 1182.28 64.065 1180.09 60.735C1193.83 60.045 1204.38 59.01 1212.51 57.75L1208.95 56.835L1208.16 57.75L1192.35 53.625C1194.75 50.88 1197.39 47.67 1200.25 44.235H1176.31V31.41H1210.09L1214.79 24.885H1195.32V29.7H1179.97V11.355H1219.26V4.035L1239.42 5.07C1239.3 6.45 1238.28 7.125 1235.98 7.59V11.37H1276.06V29.7H1260.03V24.885H1221.78L1233.57 28.32C1233.1 29.46 1231.96 29.925 1229.79 29.805L1228.65 31.41H1278.93V44.235H1259.46C1259.23 44.355 1258.89 44.355 1258.54 44.46C1256.37 48.24 1253.97 51.795 1250.86 54.765C1259.56 57.285 1267.59 59.805 1273.54 62.1L1263.69 73.56C1257.04 70.695 1247.19 67.38 1236.43 64.17C1232.77 65.655 1228.65 67.035 1223.71 68.175L1239.18 68.97C1239.06 70.35 1238.04 71.025 1235.62 71.49V74.925H1280.29V88.44H1280.31ZM1219.03 44.235L1217.08 46.635C1222.47 47.67 1228.3 49.035 1234.15 50.415C1236.67 48.585 1238.5 46.515 1239.99 44.235H1219.03Z" fill="white"/>
</g>
<defs>
<filter id="filter0_d_1_83" x="0.63" y="0.63" width="1296.52" height="126.3" filterUnits="userSpaceOnUse" color-interpolation-filters="sRGB">
<feFlood flood-opacity="0" result="BackgroundImageFix"/>
<feColorMatrix in="SourceAlpha" type="matrix" values="0 0 0 0 0 0 0 0 0 0 0 0 0 0 0 0 0 0 127 0" result="hardAlpha"/>
<feOffset dx="5.52" dy="5.52"/>
<feGaussianBlur stdDeviation="3.945"/>
<feColorMatrix type="matrix" values="0 0 0 0 0.101961 0 0 0 0 0.12549 0 0 0 0 0.219608 0 0 0 0.34 0"/>
<feBlend mode="normal" in2="BackgroundImageFix" result="effect1_dropShadow_1_83"/>
<feBlend mode="normal" in="SourceGraphic" in2="effect1_dropShadow_1_83" result="shape"/>
</filter>
</defs>
</svg>
