<?xml version="1.0" encoding="utf-8"?>
<!-- Generator: Adobe Illustrator 27.0.0, SVG Export Plug-In . SVG Version: 6.00 Build 0)  -->
<svg version="1.1" id="_圖層_2" xmlns="http://www.w3.org/2000/svg" xmlns:xlink="http://www.w3.org/1999/xlink" x="0px" y="0px"
	 viewBox="0 0 181.4 96.4" style="enable-background:new 0 0 181.4 96.4;" xml:space="preserve">
<style type="text/css">
	.st0{fill:#FFFFFF;}
</style>
<g id="_圖層_1-2">
	<g>
		<g>
			<path class="st0" d="M89.8,43.8H85v1.1h3.6v5.8h-2.5v-0.4h-4.8v0.4h-2.2v-5.8h3.5v-1.1h-4.2v-1l0,0c-0.2,2.7-0.6,5.8-2.1,7.9
				c-0.5-0.4-1.6-1-2.2-1.3c1.8-2.5,1.9-6.3,1.9-9v-5h12.9v5h-3.3c0,0.2-0.2,0.3-0.5,0.4v0.8h4.8C89.8,41.6,89.8,43.8,89.8,43.8z
				 M78.4,40.5c0,0.3,0,0.7,0,1.1h4.2v-1.1H78.4z M86.4,37.6h-8v0.8h8V37.6z M86.2,48.1V47h-4.8v1.1H86.2z"/>
			<path class="st0" d="M93,42.5c-0.4,0.5-0.8,1-1.2,1.5c-0.2-0.6-0.8-1.9-1.1-2.5c1.4-1.5,2.8-4.2,3.7-6.7l2.6,0.9
				c-0.1,0.2-0.3,0.2-0.5,0.2c-0.4,1-0.9,2.1-1.4,3.1l0.7,0.2c0,0.2-0.2,0.3-0.5,0.3v11.1h-2.4v-8.1H93z M102.8,47.8h4.1v2.3H96
				v-2.3h4.2V45h-3.4v-2.3h3.4v-2.5h-3.9v-2.3h4.2c-0.8-0.5-1.6-1.1-2.3-1.5l1.6-1.7c1.2,0.6,3,1.6,3.9,2.4l-0.7,0.8h3.7v2.3h-3.9
				v2.5h3.4V45h-3.4V47.8L102.8,47.8z"/>
		</g>
		<g>
			<path class="st0" d="M70.8,58.7c0.4,0.2,0.6,0.6,0.8,1.2c0.2,0.7,0.3,1.4,0.4,1.6h-1.2c-0.1-0.2-0.2-0.7-0.4-1.4
				c-0.2-0.8-0.4-1-0.9-1h-0.4v2.4h-1v-5.8c0.4-0.1,0.9-0.1,1.5-0.1c0.7,0,2.2,0.1,2.2,1.7C71.9,58,71.4,58.5,70.8,58.7L70.8,58.7
				L70.8,58.7z M69.7,58.3c0.6,0,1-0.4,1-0.9c0-0.8-0.6-0.9-1-0.9c-0.2,0-0.4,0-0.5,0v1.8H69.7L69.7,58.3z"/>
			<path class="st0" d="M76.1,61.5h-3.3v-5.9H76v1h-2V58h1.9v0.9H74v1.6h2.1C76.1,60.6,76.1,61.5,76.1,61.5z"/>
			<path class="st0" d="M79.8,56.7c-0.2-0.1-0.6-0.2-1-0.2c-0.6,0-0.9,0.3-0.9,0.6c0,0.4,0.3,0.6,1,0.9c0.9,0.4,1.4,1,1.4,1.7
				c0,1-0.8,1.8-2.1,1.8c-0.6,0-1.2-0.2-1.4-0.3l0.2-1c0.3,0.2,0.8,0.3,1.3,0.3c0.6,0,1-0.3,1-0.7s-0.3-0.7-0.9-1
				c-0.9-0.4-1.4-0.9-1.4-1.7c0-1,0.8-1.7,2-1.7c0.6,0,1,0.1,1.3,0.3L79.8,56.7L79.8,56.7z"/>
			<path class="st0" d="M81.2,55.6h1.1v5.9h-1.1V55.6z"/>
			<path class="st0" d="M83.4,55.7c0.4-0.1,0.9-0.1,1.5-0.1c1,0,1.6,0.2,2.1,0.6c0.6,0.5,0.9,1.2,0.9,2.2c0,1.3-0.4,2-0.9,2.4
				c-0.5,0.5-1.4,0.7-2.4,0.7c-0.5,0-1,0-1.3-0.1L83.4,55.7L83.4,55.7z M84.6,60.6c0.1,0,0.3,0,0.4,0c1.1,0,1.8-0.7,1.8-2.2
				c0-1.3-0.6-2-1.7-2c-0.2,0-0.4,0-0.5,0C84.6,56.5,84.6,60.6,84.6,60.6z"/>
			<path class="st0" d="M92.2,61.5h-3.3v-5.9h3.2v1h-2V58H92v0.9h-1.9v1.6h2.2C92.2,60.6,92.2,61.5,92.2,61.5z"/>
			<path class="st0" d="M97.3,61.5h-1.1l-1.3-2.4c-0.3-0.6-0.7-1.3-0.9-2l0,0c0,0.7,0.1,1.5,0.1,2.6v1.8h-1v-5.9h1.2l1.2,2.4
				c0.3,0.6,0.6,1.3,0.9,1.9l0,0c-0.1-0.8-0.1-1.6-0.1-2.5v-1.8h1L97.3,61.5L97.3,61.5z"/>
			<path class="st0" d="M102,56.6h-1.5v4.9h-1.1v-4.9h-1.5v-1h4L102,56.6L102,56.6z"/>
			<path class="st0" d="M102.7,55.6h1.1v5.9h-1.1V55.6z"/>
			<path class="st0" d="M109.3,61.5h-1.2l-0.4-1.5h-1.6l-0.4,1.5h-1.2l1.7-5.9h1.4L109.3,61.5L109.3,61.5z M107.5,59.1l-0.3-1.3
				c-0.1-0.4-0.2-0.8-0.3-1.2l0,0c-0.1,0.4-0.2,0.9-0.3,1.2l-0.3,1.4L107.5,59.1L107.5,59.1z"/>
			<path class="st0" d="M113.3,61.5h-3.2v-5.9h1.1v4.9h2.1C113.3,60.5,113.3,61.5,113.3,61.5z"/>
		</g>
	</g>
</g>
<g>
	<path class="st0" d="M125.4,91.1V92h-8.9v-0.9h4v-2.3h-2.8v-0.9h2.8v-2h-2.2c-0.3,0.6-0.6,1.1-1,1.5c-0.2-0.2-0.6-0.4-0.8-0.6
		c0.8-0.8,1.4-2.2,1.8-3.6l1,0.2c-0.2,0.5-0.3,1-0.5,1.5h1.8v-1.9h1V85h3.5v0.9h-3.5v2h3.1v0.9h-3.1v2.3H125.4z"/>
	<path class="st0" d="M128.7,87.7c-0.4-0.3-1.2-0.8-1.8-1.1l0.5-0.7c0.6,0.3,1.4,0.7,1.8,1L128.7,87.7z M127,91.5
		c0.5-0.8,1.3-2,1.9-3.2l0.7,0.6c-0.5,1-1.2,2.2-1.8,3.2L127,91.5z M129.1,85c-0.4-0.3-1.2-0.8-1.8-1.1l0.5-0.7
		c0.6,0.3,1.4,0.7,1.9,1L129.1,85z M133.3,86.9v1.5h2.1v3.8h-0.9v-0.4h-3.3v0.4h-0.8v-3.9h2.1v-1.5h-2.8V86h2.8v-1.4
		c-0.7,0.1-1.4,0.2-2.1,0.2c0-0.2-0.2-0.6-0.3-0.8c1.7-0.2,3.6-0.5,4.7-0.9l0.7,0.7c-0.6,0.2-1.4,0.4-2.2,0.6V86h2.6v0.9H133.3z
		 M134.5,89.2h-3.3V91h3.3V89.2z"/>
	<path class="st0" d="M137.2,87.6c0.2-0.7,0.4-1.8,0.5-2.6l0.7,0.1c-0.1,0.8-0.2,2-0.5,2.7L137.2,87.6z M140.1,86.3
		c-0.1-0.4-0.3-0.9-0.5-1.4v7.3h-0.9v-9.2h0.9v1.6l0.5-0.2c0.2,0.5,0.5,1.1,0.6,1.5L140.1,86.3z M145.9,91.3c0,0.4-0.1,0.7-0.4,0.8
		c-0.3,0.1-0.8,0.1-1.5,0.1c0-0.2-0.1-0.6-0.3-0.8c0.5,0,0.9,0,1.1,0c0.1,0,0.2,0,0.2-0.2v-0.6h-3.3c-0.1,0.6-0.3,1.2-0.7,1.6
		c-0.1-0.2-0.5-0.5-0.7-0.6c0.6-0.7,0.6-1.7,0.6-2.5v-1.8h4.9V91.3z M146.4,86.3V87h-6.1v-0.7h2.5v-0.6h-2v-0.6h2v-0.5h-2.3v-0.7
		h2.3v-0.7h0.9v0.7h2.3v0.7h-2.3v0.5h2v0.6h-2v0.6H146.4z M145,90.1v-0.6h-3.1c0,0.2,0,0.4,0,0.6H145z M141.8,88.2v0.6h3.1v-0.6
		H141.8z"/>
	<path class="st0" d="M151,89.9c-1,0.4-2.1,0.9-3,1.2l-0.3-0.9c0.3-0.1,0.8-0.2,1.2-0.4v-3.3h-1v-0.9h1v-2.3h0.9v2.3h0.9v0.9h-0.9v3
		l1-0.4L151,89.9z M155.7,91.4c0.1,0,0.2,0,0.3,0c0.1,0,0.1-0.1,0.1-0.2c0-0.1,0-0.4,0-0.8c0.2,0.2,0.5,0.3,0.7,0.4
		c0,0.4-0.1,0.8-0.1,0.9c-0.1,0.2-0.2,0.3-0.4,0.3c-0.2,0.1-0.4,0.1-0.6,0.1h-0.7c-0.2,0-0.5-0.1-0.7-0.2c-0.2-0.1-0.2-0.3-0.2-0.9
		v-1.4h-0.8c-0.2,1.4-0.7,2.2-2.5,2.6c-0.1-0.2-0.3-0.6-0.5-0.7c1.6-0.3,2-0.8,2.1-1.9h-0.9v-2.9h4.6v2.9H155v1.4
		c0,0.1,0,0.2,0.1,0.3c0.1,0,0.1,0,0.2,0H155.7z M156.7,86.4h-5.6v-0.8h1.3c-0.1-0.2-0.2-0.6-0.3-0.8l0.8-0.2c0.1,0.3,0.3,0.7,0.3,1
		l-0.2,0h1.4c0.1-0.3,0.3-0.7,0.4-1l0.8,0.2c-0.1,0.3-0.3,0.6-0.4,0.8h1.4V86.4z M156.4,84.6h-5v-0.8h2.1c-0.1-0.2-0.1-0.4-0.2-0.6
		l0.9-0.2c0.1,0.2,0.2,0.5,0.3,0.7h2V84.6z M152.4,88h2.9v-0.5h-2.9V88z M152.4,89.1h2.9v-0.6h-2.9V89.1z"/>
	<path class="st0" d="M161.1,88.3c-0.5,1.2-1.2,2.4-2,3.1c-0.2-0.2-0.6-0.5-0.9-0.6c0.8-0.7,1.4-1.7,1.8-2.8L161.1,88.3z
		 M163.3,87.1v5.1h-1v-5.1h-3.8v-0.9h8.8v0.9H163.3z M166.4,84.7h-7v-0.9h7V84.7z M165.7,88c0.7,0.9,1.5,2.2,1.8,3l-1,0.4
		c-0.2-0.8-1-2.1-1.7-3L165.7,88z"/>
	<path class="st0" d="M169,91.6c0.5-0.4,0.9-1.1,1.2-1.7l0.8,0.3c-0.3,0.6-0.7,1.4-1.2,1.8L169,91.6z M177.7,86.1h-8.5v-0.7h2.2
		c-0.1-0.2-0.2-0.5-0.3-0.7l0.7-0.1h-2.1v-0.7h3.4c-0.1-0.2-0.2-0.4-0.3-0.6l0.9-0.2c0.1,0.2,0.3,0.5,0.4,0.8h3.1v0.7h-2l0.7,0.1
		c-0.1,0.3-0.3,0.5-0.4,0.7h2.3V86.1z M176.6,89.5h-3.3c0.5,0.2,1,0.6,1.3,0.8l-0.6,0.6c-0.3-0.3-1-0.8-1.6-1.1l0.4-0.3h-2.5v-2.9
		h6.3V89.5z M175.6,87.2h-4.5v0.6h4.5V87.2z M175.6,88.3h-4.5v0.6h4.5V88.3z M174.4,91.4c0.4,0,0.5-0.1,0.5-0.9
		c0.2,0.1,0.6,0.2,0.8,0.3c-0.1,1.1-0.4,1.4-1.2,1.4h-1.8c-1.1,0-1.4-0.2-1.4-1V90h0.9v1.2c0,0.2,0.1,0.3,0.6,0.3H174.4z
		 M171.9,84.5c0.2,0.3,0.3,0.6,0.4,0.9h2.2c0.1-0.3,0.3-0.6,0.4-0.9H171.9z M176.5,89.8c0.5,0.5,1,1.2,1.3,1.7l-0.8,0.4
		c-0.2-0.5-0.7-1.2-1.2-1.8L176.5,89.8z"/>
</g>
</svg>
