<svg width="544" height="139" viewBox="0 0 544 139" fill="none" xmlns="http://www.w3.org/2000/svg">
<path d="M0.700195 123.45C3.5202 122.51 7.9002 120.79 12.2002 119.03C12.2402 118.4 12.2402 117.74 12.2402 117.11V101.66L18.0302 101.97C17.9902 102.36 17.7202 102.6 16.9702 102.71V117.14C16.9702 125.78 15.4802 133.96 4.3002 138.41C3.7502 137.24 2.3402 135.24 1.4102 134.38C7.7502 131.96 10.4402 128.24 11.5402 124.02C8.5702 125.43 5.7102 126.8 3.6002 127.74C3.6002 128.13 3.3702 128.44 3.0502 128.56L0.700195 123.44V123.45ZM6.4502 104.68C8.6802 107.57 11.1402 111.52 12.0802 114.18L7.6602 116.6C6.8802 113.94 4.5302 109.83 2.4202 106.78L6.4502 104.67V104.68ZM26.0402 130.88C26.0402 133.11 26.2402 133.42 27.7602 133.42H32.2202C33.5902 133.42 33.8602 132.4 34.0602 128.61C35.1902 129.43 37.0702 130.25 38.4402 130.57C37.8502 135.93 36.5602 137.96 32.6902 137.96H27.0202C22.5202 137.96 21.2302 136.47 21.2302 130.88V101.67L27.1002 101.98C27.0602 102.37 26.7902 102.64 26.0402 102.76V118.17L26.8602 117.23C30.5402 119.26 35.5402 122.39 37.9302 124.7C34.8002 128.45 34.7602 128.49 34.6802 128.57C32.8402 126.69 29.3202 124.07 26.0402 122V130.88ZM37.3802 106.87C37.1802 107.14 36.7202 107.3 36.1302 107.22C34.6802 109.88 32.0602 113.56 30.0702 115.82L26.4302 113.59C28.3502 111.05 30.7702 107.02 32.1002 103.89L37.3802 106.86V106.87Z" fill="white"/>
<path d="M56.2403 120.12C56.1603 120.51 55.8103 120.79 55.1803 120.86C54.2403 127.86 52.8703 134.39 43.1703 138.11C42.6603 136.9 41.3303 135.14 40.2803 134.2C48.8103 131.27 49.5903 125.99 50.1303 119.57L56.2303 120.12H56.2403ZM66.1703 131.81C66.1703 133.3 66.4003 133.53 67.6603 133.53H71.2603C72.5903 133.53 72.8203 132.51 73.0203 126.8C74.0003 127.62 76.0303 128.44 77.2403 128.76C76.8103 135.8 75.6403 137.79 71.6903 137.79H66.9203C62.5803 137.79 61.4103 136.34 61.4103 131.81V119.26H41.1903V114.68H76.4303V119.26H66.1803V131.81H66.1703ZM72.7803 103.65V108.19H44.7403V103.65H72.7803Z" fill="white"/>
<path d="M96.8404 120.71L94.9204 120.94V133.92C94.9204 137.64 93.2404 138.14 88.6204 138.14C88.5004 137.08 87.9604 135.4 87.4904 134.46C91.0904 134.58 91.0904 134.5 91.0904 133.87V121.39C89.1704 121.62 87.3004 121.82 85.6104 122.02C85.5304 127.22 84.9804 133.91 82.3204 138.13C81.6604 137.46 80.0504 136.45 79.1504 136.06C81.4604 132.27 81.8504 126.95 81.9304 122.45L81.1104 122.53C81.0304 122.84 80.7604 123.04 80.4504 123.12L79.1604 118.9L81.9404 118.7V106.58H85.3804C85.8504 104.9 86.3604 102.75 86.5504 101.18L91.9904 102.47C91.8704 102.74 91.5204 102.94 90.9704 102.94C90.5804 104.04 90.0304 105.36 89.4804 106.58H94.9204V117.57L96.7604 117.41L96.8404 120.7V120.71ZM85.6204 118.4L91.1004 117.93V110.23H85.6204V118.4ZM87.7304 117.27C87.5304 115.86 86.7904 113.79 85.9304 112.22L88.6704 111.13C89.6504 112.62 90.4704 114.69 90.7004 116.06L87.7304 117.27ZM90.3504 122.78C90.3104 123.05 90.0804 123.25 89.5304 123.33V131.62H86.8304V122.55L90.3504 122.78ZM111.82 132.17C111.82 133.58 111.82 133.73 112.33 133.73C113.11 133.73 113.19 133.73 113.31 133.57C113.74 133.37 113.74 130.91 113.74 129.66C114.56 130.32 115.89 131.03 116.99 131.38C116.79 135.64 116.33 137.64 113.04 137.64H111.01C107.37 137.64 107.37 134.71 107.37 132.2V118.51H103.19V123.36C103.19 128.05 102.56 134.31 98.7704 138.18C97.9904 137.44 96.0704 136.07 95.0504 135.56C98.4904 132.12 98.8004 127.19 98.8004 123.24V114.44H111.82V132.16V132.17ZM116.32 107.45V111.56H95.8304V107.45H103.46V101.31L109.05 101.62C109.01 102.01 108.74 102.25 108.03 102.36V107.44H116.32V107.45Z" fill="white"/>
<path d="M135.14 110.74C135.06 111.09 134.71 111.37 134.12 111.44C133.02 116.72 131.3 120.79 121.57 123.02C121.18 121.85 120.01 120.01 119.07 119.07C127.56 117.51 128.81 114.69 129.39 110.19L135.14 110.74ZM139.29 127.13V132.84H154.27V137.1H119.74V132.84H134.44V127.13H124.04V122.95H150.44V127.13H139.29ZM124.94 109.73V114.35H120.33V105.47H134.45V101.25L140.36 101.6C140.32 101.99 140.05 102.23 139.3 102.34V105.47H153.65V114.35H148.8V109.73H124.94ZM139.21 110.08L144.88 110.35C144.84 110.74 144.57 110.98 143.82 111.13V116.25C143.82 117.31 144.09 117.46 145.5 117.46H149.57C150.63 117.46 150.86 117.11 151.02 115.27C151.92 115.93 153.8 116.6 155.09 116.83C154.54 120.47 153.29 121.41 150.08 121.41H144.84C140.23 121.41 139.21 120.2 139.21 116.29V110.07V110.08Z" fill="white"/>
<path d="M186.571 111.68C186.771 115.4 187.081 119.03 187.471 122.24C188.411 119.97 189.151 117.55 189.701 114.93L194.631 116.06C194.551 116.37 194.201 116.61 193.611 116.61C192.481 121.26 190.831 125.49 188.601 129.09C189.301 131.98 190.091 133.82 190.911 133.82C191.541 133.82 191.931 131.86 192.041 127.76C192.901 128.82 194.191 129.95 195.251 130.46C194.551 136.64 193.331 138.2 190.321 138.2C188.291 138.2 186.721 136.32 185.551 133.31C183.951 135.11 182.151 136.71 180.151 138C179.521 137.18 178.081 135.73 177.181 135.07C179.921 133.43 182.261 131.2 184.141 128.42C183.161 123.73 182.581 117.78 182.301 111.68H174.171V116.18H178.551L179.411 116.14L181.521 116.22V117.51C181.401 125.84 181.211 129.16 180.421 130.22C179.721 131.28 178.901 131.82 174.871 131.71C174.831 130.54 174.441 128.93 173.931 127.92C174.871 128.04 175.691 128.04 176.121 128.04C176.551 128.04 176.821 127.92 177.061 127.57C177.371 127.06 177.531 125.18 177.611 119.98H174.171C174.091 125.77 173.231 133.55 168.891 138.32C168.221 137.46 166.431 135.97 165.451 135.46C167.521 133.15 168.621 130.3 169.201 127.4C165.841 129 162.321 130.57 159.971 131.58C159.931 131.97 159.701 132.24 159.381 132.36L157.311 127.2C158.521 126.81 160.051 126.3 161.691 125.71V114.6H158.171V110.18H161.691V101.65L166.931 101.92C166.891 102.27 166.621 102.51 165.911 102.62V110.17H169.161V114.59H165.911V124.13L168.881 123.03L169.471 125.73C169.821 123.42 169.861 121.15 169.861 119.12V107.39H182.141C182.061 105.32 182.021 103.28 182.021 101.29L187.501 101.6C187.461 101.99 187.111 102.19 186.411 102.3C186.371 103.94 186.371 105.66 186.411 107.38H190.631C189.851 106.05 188.481 104.41 187.231 103.12L190.481 101.24C191.971 102.65 193.691 104.56 194.431 105.97L192.041 107.38H194.231V111.64H186.561L186.571 111.68Z" fill="white"/>
<path d="M212.9 107.77V111.49H196.75V107.77H212.9ZM211.22 124.12V136.09H202.62V137.61H198.55V124.12H211.22ZM198.67 116.85V113.29H211.34V116.85H198.67ZM198.67 122.21V118.69H211.34V122.21H198.67ZM211.38 102.5V106.06H198.9V102.5H211.38ZM207.12 127.84H202.62V132.38H207.12V127.84ZM234.03 114.46V119.11H225.78V138.16H221.01V119.11H212.76V114.46H221.01V101.44L226.88 101.75C226.84 102.14 226.53 102.38 225.78 102.49V114.46H234.03Z" fill="white"/>
<path d="M236.41 137.1V134.01H272.31V137.1H236.41ZM256.47 119.03H272.35V121.92H236.45V119.03H251.7V117.66H239.26V115.16H251.7V113.79H240.48V111.33H251.7V109.96H236.56V107.38H251.7V106.09H240.71V103.59H251.7V101.24L257.57 101.51C257.53 101.94 257.22 102.17 256.47 102.29V103.58H268.12V107.37H272.07V109.95H268.12V113.78H256.47V115.15H269.65V117.65H256.47V119.02V119.03ZM240.9 123.21H268.16V132.75H240.9V123.21ZM245.51 125.48V126.85H252V125.48H245.51ZM245.51 129.04V130.49H252V129.04H245.51ZM263.34 126.85V125.48H256.34V126.85H263.34ZM263.34 130.49V129.04H256.34V130.49H263.34ZM256.46 106.09V107.38H263.38V106.09H256.46ZM256.46 109.96V111.33H263.38V109.96H256.46Z" fill="white"/>
<path d="M285.311 119.64C285.311 109.06 289.221 101.6 297.051 101.6C304.881 101.6 308.421 109.7 308.421 119.36C308.421 130.86 304.141 137.45 296.821 137.45C288.721 137.45 285.321 129.35 285.321 119.64H285.311ZM296.911 132.07C300.041 132.07 301.601 127.65 301.601 119.51C301.601 111.37 300.171 106.99 296.951 106.99C294.001 106.99 292.121 111.22 292.121 119.51C292.121 127.8 293.821 132.07 296.861 132.07H296.911Z" fill="white"/>
<path d="M326.18 118.22C330.05 119.09 333.27 122.22 333.27 126.96C333.27 132.76 328.62 137.45 320.52 137.45C316.84 137.45 313.52 136.48 311.78 135.33L313.3 130.18C314.59 131.01 317.4 132.07 320.07 132.07C324.26 132.07 326.33 129.49 326.33 126.64C326.33 122.73 322.92 120.89 319.2 120.89H316.85V116.1H319.06C321.78 116.1 325.27 114.58 325.27 111.22C325.27 108.78 323.66 106.99 320.44 106.99C318.05 106.99 315.7 108.05 314.36 108.88L312.93 104C314.72 102.8 318.27 101.61 322 101.61C328.67 101.61 332.17 105.52 332.17 110.12C332.17 113.71 330.01 116.7 326.19 118.13V118.22H326.18Z" fill="white"/>
<path d="M337.92 120.56H350.53V125.25H337.92V120.56Z" fill="white"/>
<path d="M366.4 118.22C370.27 119.09 373.49 122.22 373.49 126.96C373.49 132.76 368.84 137.45 360.74 137.45C357.06 137.45 353.74 136.48 352 135.33L353.52 130.18C354.81 131.01 357.62 132.07 360.28 132.07C364.47 132.07 366.54 129.49 366.54 126.64C366.54 122.73 363.13 120.89 359.41 120.89H357.06V116.1H359.27C361.99 116.1 365.48 114.58 365.48 111.22C365.48 108.78 363.87 106.99 360.65 106.99C358.26 106.99 355.91 108.05 354.58 108.88L353.15 104C354.94 102.8 358.49 101.61 362.22 101.61C368.89 101.61 372.39 105.52 372.39 110.12C372.39 113.71 370.23 116.7 366.41 118.13V118.22H366.4Z" fill="white"/>
<path d="M378.19 119.64C378.19 109.06 382.1 101.6 389.92 101.6C397.74 101.6 401.29 109.7 401.29 119.36C401.29 130.86 397.01 137.45 389.69 137.45C381.59 137.45 378.19 129.35 378.19 119.64ZM389.79 132.07C392.92 132.07 394.48 127.65 394.48 119.51C394.48 111.37 393.05 106.99 389.83 106.99C386.88 106.99 385 111.22 385 119.51C385 127.8 386.7 132.07 389.74 132.07H389.79Z" fill="white"/>
<path d="M413.4 136.95V108.23H413.31L407.33 111.36L405.86 106.48L414.33 102.15H420.04V136.94H413.41L413.4 136.95Z" fill="white"/>
<path d="M428.96 120.56H441.57V125.25H428.96V120.56Z" fill="white"/>
<path d="M452.7 136.95V108.23H452.61L446.63 111.36L445.16 106.48L453.63 102.15H459.34V136.94H452.71L452.7 136.95Z" fill="white"/>
<path d="M469.73 118.68C466.51 116.89 464.81 113.99 464.81 111.04C464.81 105.29 469.55 101.61 475.58 101.61C482.48 101.61 485.75 105.98 485.75 110.35C485.75 113.16 484.19 116.24 480.64 118.17V118.26C484.05 119.82 486.85 122.82 486.85 127.14C486.85 133.35 481.97 137.45 475.07 137.45C467.66 137.45 463.7 132.89 463.7 127.92C463.7 123.64 466.23 120.56 469.73 118.81V118.67V118.68ZM480.04 127.7C480.04 124.29 477.74 122.13 474.7 121.12C472.08 122.09 470.51 124.53 470.51 127.29C470.51 130.24 472.3 132.81 475.25 132.81C478.2 132.81 480.04 130.42 480.04 127.7ZM471.2 110.72C471.2 113.39 473.13 115.23 475.85 116.24C477.78 115.46 479.39 113.29 479.39 110.95C479.39 108.61 478.24 106.16 475.34 106.16C472.44 106.16 471.2 108.51 471.2 110.72Z" fill="white"/>
<path d="M496.06 118.68C492.84 116.89 491.14 113.99 491.14 111.04C491.14 105.29 495.88 101.61 501.91 101.61C508.81 101.61 512.08 105.98 512.08 110.35C512.08 113.16 510.52 116.24 506.97 118.17V118.26C510.38 119.82 513.18 122.82 513.18 127.14C513.18 133.35 508.3 137.45 501.4 137.45C493.99 137.45 490.03 132.89 490.03 127.92C490.03 123.64 492.56 120.56 496.06 118.81V118.67V118.68ZM506.37 127.7C506.37 124.29 504.07 122.13 501.03 121.12C498.41 122.09 496.84 124.53 496.84 127.29C496.84 130.24 498.63 132.81 501.58 132.81C504.53 132.81 506.37 130.42 506.37 127.7ZM497.53 110.72C497.53 113.39 499.46 115.23 502.18 116.24C504.11 115.46 505.72 113.29 505.72 110.95C505.72 108.61 504.57 106.16 501.67 106.16C498.77 106.16 497.53 108.51 497.53 110.72Z" fill="white"/>
<path d="M522.39 118.68C519.17 116.89 517.47 113.99 517.47 111.04C517.47 105.29 522.21 101.61 528.24 101.61C535.14 101.61 538.41 105.98 538.41 110.35C538.41 113.16 536.85 116.24 533.3 118.17V118.26C536.71 119.82 539.51 122.82 539.51 127.14C539.51 133.35 534.63 137.45 527.73 137.45C520.32 137.45 516.36 132.89 516.36 127.92C516.36 123.64 518.89 120.56 522.39 118.81V118.67V118.68ZM532.7 127.7C532.7 124.29 530.4 122.13 527.36 121.12C524.74 122.09 523.17 124.53 523.17 127.29C523.17 130.24 524.96 132.81 527.91 132.81C530.86 132.81 532.7 130.42 532.7 127.7ZM523.86 110.72C523.86 113.39 525.79 115.23 528.51 116.24C530.44 115.46 532.05 113.29 532.05 110.95C532.05 108.61 530.9 106.16 528 106.16C525.1 106.16 523.86 108.51 523.86 110.72Z" fill="white"/>
<path d="M31.8996 3.43C31.6496 3.99 30.9596 4.3 29.9696 4.3C27.7196 8.92 24.2896 14.53 21.0496 19.27C28.4696 19.15 36.5896 18.9 44.5696 18.65C42.3196 16.47 39.9496 14.41 37.7096 12.6L43.5096 8.05C49.8696 12.92 57.6696 20.03 61.0996 25.27L54.6696 30.51C53.7996 28.95 52.4896 27.2 50.9296 25.39C34.1496 26.2 16.5496 26.83 5.31965 27.2C5.12965 27.82 4.56965 28.14 4.00965 28.2L1.38965 19.72L12.1796 19.53C15.9896 13.85 20.1696 6.18 22.5996 0L31.8996 3.43ZM10.6796 59.34V32.2H51.7397V59.09H43.8797V57.22H18.1696V59.34H10.6796ZM43.8696 39.37H18.1696V49.91H43.8797V39.37H43.8696Z" fill="white"/>
<path d="M74.1298 17.7201C77.3098 19.2801 81.4298 21.7101 83.4298 23.6501L79.1198 29.3901C77.2498 27.4601 73.1898 24.6501 70.0098 22.9601L74.1298 17.7201ZM75.4998 1.31006C78.6198 2.99006 82.6798 5.62006 84.6098 7.67006L80.1198 13.2901C78.3098 11.1701 74.3798 8.30006 71.1998 6.36006L75.5098 1.31006H75.4998ZM71.4398 54.8401C73.7498 49.9101 76.9298 41.9901 79.3598 34.6201L85.2898 38.4301C83.2298 45.0401 80.6698 52.0301 78.6798 56.8401C79.0498 57.2801 79.2398 57.7101 79.2398 58.2101C79.2398 58.4601 79.1798 58.7101 79.0498 58.9601L71.4398 54.8401ZM123.11 22.7701L126.79 21.5801C127.91 24.1401 129.04 27.4501 129.54 29.5701L125.55 30.8801C125.24 28.7601 124.18 25.3901 123.12 22.8901V32.3701H118.32V23.6401H118.2C117.51 26.3901 116.39 29.7501 114.89 31.8101C114.2 31.2501 112.96 30.3101 112.02 29.6901V31.7501H99.9798V22.3301H112.02V28.6901C113.02 26.8201 113.77 24.1401 114.27 21.5801L118.33 22.7701V20.2101L114.59 20.4001C114.47 20.9001 114.03 21.1501 113.65 21.2101L112.15 15.9101L115.39 15.8501C116.01 15.1601 116.64 14.4201 117.32 13.6001C116.13 12.3501 114.7 10.9801 113.26 9.86006V10.5501H98.2198V8.93006H97.7798C96.4098 10.9301 94.2898 13.5501 92.2298 15.8601L95.3498 15.8001L94.5998 13.8001L97.8398 12.6801C98.8398 14.7401 99.5898 17.5501 99.8998 19.4801H99.9598V17.2301H111.94V20.7201H99.9598V19.9101L96.5298 21.2201C96.5298 20.7801 96.4698 20.2801 96.3398 19.7801L94.4098 19.9001V32.3801H89.7298V24.1401C89.0398 26.7601 87.8598 29.8201 86.3598 31.7501C85.6098 31.0001 84.0498 29.9401 83.1198 29.3801C84.3698 27.5101 85.2998 24.4501 85.9298 21.5801L89.7398 22.7001V20.2001L86.0598 20.3901C85.9398 20.8901 85.5598 21.1401 85.1198 21.2001L83.6198 15.9001H87.1098C87.7298 15.1501 88.3598 14.3401 89.0398 13.5301C87.6698 12.0901 85.9798 10.5401 84.3598 9.35006L86.7298 5.67006L87.4798 6.17006C88.5398 4.24006 89.5998 1.99006 90.2898 0.310059L95.2198 2.93006C94.9098 3.37006 94.3498 3.49006 93.7798 3.43006C93.0298 4.87006 91.7798 6.86006 90.5998 8.61006L91.8498 9.67006C92.8498 8.23006 93.7198 6.86006 94.4698 5.61006L98.2098 7.86006V6.67006H113.25V8.17006L114.93 5.67006L115.68 6.17006C116.87 4.24006 117.99 1.99006 118.68 0.310059L123.61 2.93006C123.3 3.37006 122.74 3.49006 122.17 3.43006C121.36 4.87006 120.05 6.86006 118.8 8.61006C119.3 9.05006 119.74 9.42006 120.17 9.86006C121.29 8.30006 122.35 6.74006 123.16 5.43006L127.96 8.30006C127.71 8.67006 127.21 8.80006 126.46 8.74006C124.96 10.8001 122.72 13.4801 120.53 15.8501L124.09 15.7901L123.15 13.7901L126.71 12.2901C127.96 14.6001 129.14 17.6601 129.58 19.6501L125.77 21.3301C125.71 20.8301 125.58 20.2701 125.4 19.7101L123.09 19.9001V22.7701H123.11ZM120.93 46.4801L122.37 46.2901L126.61 47.4801C126.49 48.0401 126.3 48.5401 126.05 48.9801C124.3 58.5901 122.24 59.3401 114.38 59.3401C112.57 59.3401 110.39 59.2801 108.14 59.2201C108.08 57.5401 107.27 55.2901 106.27 53.7301C108.89 54.0401 111.64 54.1001 113.45 54.1001C116.94 54.1001 117.51 54.1001 118.5 51.1701H94.4198L93.9198 52.7901L87.2398 51.9201C88.3598 48.6801 89.5498 44.0001 90.2998 40.1901H115.88V38.1901H87.9898V33.8201H122.81V44.4901H96.1698L95.6698 46.4901H120.94L120.93 46.4801ZM96.0998 29.3801C95.8498 27.5701 95.2298 24.7601 94.5998 22.5201L98.1598 21.7101C98.8498 23.8301 99.5298 26.5801 99.7798 28.3901L96.0998 29.3901V29.3801ZM99.9698 15.6501V12.1601H111.95V15.6501H99.9698ZM111.5 1.56006V5.05006H100.52V1.56006H111.5ZM107.44 28.3901V25.6401H104.32V28.3901H107.44Z" fill="white"/>
<path d="M197.22 30.0699H167.58V59.3299H160.4V53.5299C153.79 54.3999 147.42 55.0899 142.99 55.5899C142.87 56.1499 142.43 56.4599 141.99 56.5299L139.87 49.4199L145.3 49.0499V30.0699H139.87V24.1399H197.21V30.0699H197.22ZM188.92 2.67993V21.7799H148.18V2.67993H188.92ZM160.41 32.5699V30.0699H152.11V32.5699H160.41ZM160.41 40.3699V37.7499H152.11V40.3699H160.41ZM152.11 48.5399L160.41 47.9199V45.5499H152.11V48.5499V48.5399ZM181.43 9.91993V7.54993H155.35V9.91993H181.43ZM181.43 16.9099V14.4799H155.35V16.9099H181.43ZM190.17 32.1999L194.79 33.9499C194.6 34.4499 194.35 34.5699 194.1 34.9499C192.54 40.3799 190.04 44.9999 186.74 48.8599C189.92 50.8599 193.6 52.4199 197.78 53.4099C196.22 54.7799 194.29 57.5299 193.35 59.2699C188.98 57.9599 185.11 56.0899 181.81 53.5899C178.82 55.9599 175.45 57.8999 171.76 59.3899C170.89 57.6399 169.08 54.9599 167.7 53.5899C170.94 52.5299 174 50.9099 176.68 48.8499C174.31 46.0399 172.31 42.8599 170.75 39.2999L174.74 38.1799H168.87V32.4399H188.9L190.15 32.1899L190.17 32.1999ZM177 38.1899C178.12 40.4399 179.62 42.5599 181.37 44.4299C182.99 42.5599 184.36 40.4399 185.43 38.1899H177.01H177Z" fill="white"/>
<path d="M265.1 25.08H242.7C246.38 38 253.62 47.79 266.47 52.1C264.66 53.72 262.23 57.09 261.04 59.28C249.06 54.6 241.95 45.99 237.39 33.95C233.96 44.18 227.22 53.35 213.62 59.34C212.5 57.22 210.25 54.47 208.13 52.79C223.35 46.61 229.22 36.51 231.4 25.09H209.31V17.35H232.46C232.9 11.8 232.83 6.12 232.9 0.5L242.82 1.12C242.7 1.81 242.13 2.24 241.07 2.43C241.01 7.23 240.95 12.29 240.51 17.34H265.09V25.08H265.1Z" fill="white"/>
<path d="M319.87 4.68H333.78V11.17H319.87V13.73H328.36V27.39H283.87V13.73H291.54V11.17H277.81V4.68H291.54V0.5L300.59 0.94C300.53 1.56 300.03 1.94 298.97 2.19V4.69H312.38V0.5L321.49 0.94C321.43 1.63 320.99 1.94 319.87 2.19V4.69V4.68ZM278.44 40.87V29.64H333.1V40.87H325.74V35.32H306.09C305.84 35.63 305.4 35.76 304.78 35.76C304.22 36.45 303.53 37.2 302.91 37.88H317.14L318.39 37.63L323.44 40.06C323.25 40.43 322.94 40.62 322.63 40.81C316.2 51.73 302.16 57.09 287 59.47C286.31 57.66 284.82 54.85 283.63 53.29C289 52.73 294.3 51.67 298.98 50.11C297.23 48.99 295.24 47.86 293.43 47.18L298.05 43.44C300.61 44.38 303.54 45.94 305.6 47.43C308.16 46.12 310.4 44.62 312.15 42.94H296.99C293.81 45.19 289.94 47.31 285.26 49.12C284.32 47.56 282.2 45.06 280.83 44C287.88 41.75 293.12 38.63 296.43 35.33H285.51V40.88H278.46L278.44 40.87ZM296.47 22.59V18.47H290.48V22.59H296.47ZM312.38 13.73V11.17H298.97V13.73H312.38ZM308.89 22.59V18.47H302.71V22.59H308.89ZM321.37 22.59V18.47H315.13V22.59H321.37Z" fill="white"/>
<path d="M356.43 38.2501V25.9001C354.31 29.5801 351.88 32.7601 349.32 35.0101C348.26 33.3901 346.01 31.0801 344.52 29.8301C348.7 26.7701 352.76 21.2801 355.25 15.7901H346.08V9.43006H356.44V0.560059L365.17 1.06006C365.11 1.68006 364.67 2.00006 363.55 2.18006V9.42006H372.35V15.7801H363.55V18.0901C366.05 19.5901 372.04 23.8301 373.53 25.0201L369.6 31.0101C368.16 29.4501 365.79 27.2001 363.55 25.1501V38.2501H356.44H356.43ZM359.8 43.6201C358.05 48.6101 355.49 54.0401 351.5 57.5301L345.26 53.1601C348.82 50.2901 351.62 45.6101 353.12 40.9901L359.8 43.6101V43.6201ZM369.35 50.2301C369.35 51.9801 369.85 52.2301 372.66 52.2301H380.9C383.15 52.2301 383.52 51.6101 383.83 47.0501C385.33 48.1701 388.45 49.3001 390.44 49.6701C389.57 57.0901 387.57 58.8401 381.58 58.8401H371.72C363.73 58.8401 361.92 56.8401 361.92 50.3501V41.9301L370.72 42.4301C369.72 41.6201 368.66 40.8101 367.66 40.1201L372.59 36.2501C376.21 38.5601 380.58 42.0501 382.64 44.7401L377.34 48.9801C376.03 47.1101 373.53 44.7401 370.98 42.6201C370.79 43.1201 370.29 43.4301 369.36 43.6201V50.2301H369.35ZM400.48 3.62006V37.5001H374.9V3.62006H400.48ZM393.3 13.1701V9.55006H381.7V13.1701H393.3ZM393.3 22.4001V18.7201H381.7V22.4001H393.3ZM393.3 31.6301V27.8901H381.7V31.6301H393.3ZM397.98 57.9001C396.17 53.9101 391.37 48.1001 386.75 44.0501L392.8 40.3701C397.42 44.2401 402.47 49.6701 404.59 53.8501L397.98 57.9101V57.9001Z" fill="white"/>
<path d="M472.469 48.0999H463.419C466.729 50.4099 470.779 53.5899 472.969 55.7699L467.479 59.3299C465.299 56.9599 460.679 53.0899 457.119 50.5299L461.109 48.0999H450.379L454.559 50.4699C454.369 50.7199 453.999 50.9099 453.499 50.9699C451.189 53.7199 446.139 57.3999 441.899 59.3299C440.779 58.0799 438.589 56.0899 437.099 54.9599C440.779 53.3999 444.839 50.5899 447.329 48.0999H439.089V42.1699H444.829V25.3899H440.089V19.4599H444.829V15.4699C444.019 16.5899 443.149 17.5899 442.209 18.4599C441.519 17.8399 440.459 17.0199 439.399 16.2099V16.9599H427.109L426.919 23.6999H434.469L438.149 23.8199C438.149 24.4399 438.149 25.2599 438.089 26.0699C437.779 46.7199 437.529 54.1499 435.909 56.3899C434.289 58.8199 432.289 59.5099 425.489 59.3199C425.369 57.2599 424.679 54.4499 423.679 52.6399C425.549 52.8899 427.239 52.8899 428.109 52.8899C428.919 52.8899 429.419 52.6999 429.919 51.8899C430.729 50.6399 431.039 45.2799 431.289 30.4899H426.549C425.739 41.4699 423.739 51.8899 418.499 59.2499C417.309 57.4999 415.069 55.2599 413.199 54.0699C419.379 45.4599 419.879 31.4799 420.059 16.9499H414.069V10.0199H423.549V0.559932L432.349 1.05993C432.289 1.61993 431.849 1.99993 430.729 2.17993V10.0399H439.399V12.0999C441.829 8.91993 443.639 4.67993 444.699 0.429932L452.309 2.35993C452.189 2.85993 451.689 3.10993 450.869 3.04993C450.499 4.29993 450.059 5.60993 449.559 6.85993H472.459V12.9699H446.499L445.629 14.4099L453.179 14.8499C453.119 15.4099 452.679 15.7199 451.619 15.9699V19.4599H459.729V14.3399L468.219 14.8399C468.159 15.3999 467.719 15.7799 466.599 15.9599V19.4499H471.399V25.3799H466.599V42.1599H472.459V48.0899L472.469 48.0999ZM459.739 25.3899H451.629V27.8199H459.739V25.3899ZM451.629 32.4999V34.9299H459.739V32.4999H451.629ZM451.629 39.6799V42.1799H459.739V39.6799H451.629Z" fill="white"/>
<path d="M505.78 31.3799L503.16 31.6899V52.9699C503.16 58.3999 500.85 59.3299 493.99 59.3299C493.8 57.7699 493.05 55.2699 492.24 53.7099C493.43 53.7699 494.55 53.8299 495.42 53.8299C497.42 53.8299 497.67 53.8299 497.67 52.8299V32.4299L490.74 33.2399C490.68 41.5999 489.93 52.3899 486.25 59.4499C485.25 58.5099 482.82 57.0799 481.51 56.5199C484.69 50.1599 485.32 41.2999 485.38 33.8699L484.26 33.9899C484.14 34.5499 483.64 34.7999 483.14 34.8599L481.77 28.4299L485.39 28.1799V8.85994H490.51C491.07 6.17994 491.57 2.86994 491.76 0.439941L499.62 1.87994C499.43 2.31994 498.93 2.62994 498.06 2.68994C497.56 4.43994 496.81 6.74994 496.06 8.86994H503.17V26.6399L505.67 26.3899L505.79 31.3799H505.78ZM490.74 14.5299V27.7599C492.92 27.5699 495.29 27.3899 497.67 27.1399V14.5399H490.74V14.5299ZM492.86 25.6999C492.8 23.5199 491.92 20.0799 490.99 17.5899L494.73 16.3399C495.85 18.8399 496.73 22.1399 496.91 24.3299L492.85 25.6999H492.86ZM496.79 34.4999C496.73 34.9399 496.42 35.2499 495.67 35.3099V48.6599H492.3V34.1799L496.79 34.4899V34.4999ZM537.35 52.4699H541.09V58.0899H504.09V52.4699H507.96V35.9399H537.35V52.4699ZM511.52 32.8199V34.1899H506.4V2.55994H524.06V7.35994H519.01V11.0399H523.5V18.2799C525.56 14.0399 526.68 7.10994 527.31 0.499941L534.61 2.05994C534.49 2.49994 533.99 2.80994 533.24 2.80994C532.99 4.67994 532.74 6.61994 532.37 8.48994H540.92V14.1099H531.19C530.38 17.2299 529.38 20.1599 528.13 22.3499C527.07 21.4099 525.01 20.2299 523.51 19.4199V24.1599H519.02V27.9699H524.82V32.8399H511.53L511.52 32.8199ZM514.2 7.35994H511.52V11.0399H514.2V7.35994ZM518.51 15.4699H511.52V19.7799H518.51V15.4699ZM514.2 27.9499V24.1399H511.52V27.9499H514.2ZM513.58 41.5499V52.4699H516.33V41.5499H513.58ZM523.87 41.5499H521.12V52.4699H523.87V41.5499ZM525.87 29.6299V23.9499H539.78V29.6299H525.87ZM531.42 41.5499H528.67V52.4699H531.42V41.5499Z" fill="white"/>
<path d="M0 78.45H543.25" stroke="white" stroke-width="2.91" stroke-miterlimit="10"/>
</svg>
