<?xml version="1.0" encoding="utf-8"?>
<!-- Generator: Adobe Illustrator 27.0.0, SVG Export Plug-In . SVG Version: 6.00 Build 0)  -->
<svg version="1.1" id="圖層_1" xmlns="http://www.w3.org/2000/svg" xmlns:xlink="http://www.w3.org/1999/xlink" x="0px" y="0px"
	 viewBox="0 0 390 60" style="enable-background:new 0 0 390 60;" xml:space="preserve">
<style type="text/css">
	.st0{fill:#FFFFFF;}
	.st1{fill:#FFE900;}
	.st2{fill:#2E318B;}
</style>
<path class="st0" d="M360.3,1H29.9C13.7,1,0.6,14.1,0.6,30.4c0,16.2,13.2,29.4,29.4,29.4h330.4c16.2,0,29.4-13.2,29.4-29.4
	C389.7,14.1,376.6,1,360.3,1z"/>
<path class="st1" d="M128.4,6.9h-98C17.4,6.9,6.9,17.4,6.9,30.4v0c0,12.9,10.5,23.4,23.4,23.4h98c12.9,0,23.4-10.5,23.4-23.4v0
	C151.8,17.4,141.3,6.9,128.4,6.9z"/>
<path class="st2" d="M45.1,29.7c0.2,0.8,0.5,1.6,0.8,2.4c0.8-0.8,1.6-1.6,2.1-2.4l3.2,2.7c-0.1,0.1-0.3,0.2-0.5,0.2
	c-0.1,0-0.2,0-0.3-0.1c-0.7,0.7-1.9,1.6-2.9,2.3c0.9,1.3,2.2,2.4,3.7,3.2c-0.7,0.7-1.9,2.2-2.4,3.2c-1.6-1-2.9-2.6-3.8-4.3v2
	c0,2.7-0.8,3.5-5.2,3.5c-0.1-0.8-0.5-2-0.8-2.9c-0.6,0.4-1.1,0.8-1.5,1.2c0,0.3-0.1,0.5-0.3,0.6l-2-3.6l-1.6,0.6
	c-0.2-0.8-0.5-2-0.8-3.1v7.2h-3.4v-8.4h-0.1c-0.2,2.2-0.7,4.8-1.4,6.4c-0.7-0.5-1.9-1-2.7-1.3c0.6-1.5,1-4,1.1-6.3l3.1,0.7V32
	c-1,0.1-2,0.1-2.8,0.2c-0.1,0.3-0.3,0.4-0.5,0.4l-0.7-3.8h1.9c0.3-0.5,0.7-0.9,1-1.4c-0.8-1.2-1.9-2.5-3-3.6l1.8-2.7l0.5,0.4
	c0.7-1.5,1.4-3.1,1.8-4.5l3.8,1.5c-0.1,0.2-0.4,0.3-0.8,0.3c-0.6,1.5-1.7,3.4-2.6,4.9c0.2,0.2,0.4,0.5,0.5,0.7
	c0.9-1.4,1.7-2.8,2.3-4.1l3.6,1.6c-0.1,0.2-0.4,0.3-0.8,0.3c-0.8,1.3-1.9,3-3.1,4.5l2.4-1c0.5,1,1.1,2.1,1.5,3.1v-2.4h8.2l0.2-0.9
	h-4l-0.1,0.5l-3.6-0.6c0.7-2.2,1.7-5.8,2.2-8.5l4.3,0.5c-0.1,0.3-0.3,0.5-0.8,0.5l-0.2,1h4.4l0.8-0.1l1.9,0.3c0,0.1-0.5,3.1-1.3,7.2
	h3.1v3.3L45.1,29.7L45.1,29.7z M32.4,28.7c-0.2-0.5-0.5-1.1-0.7-1.6c-0.4,0.6-0.9,1.1-1.3,1.6L32.4,28.7z M32.6,33.9l2.4-0.8
	c0.5,1.3,1,2.8,1.4,4c1.2-0.7,2.7-1.7,4.2-2.6l0.9,2.1v-6.9h-5.2c0.2,0.5,0.3,1,0.4,1.5l1.6-1.4c1.1,0.9,2.4,2.2,3,3.1l-2.7,2.4
	c-0.5-0.9-1.8-2.4-2.9-3.3l-2,0.9c-0.1-0.4-0.1-0.8-0.3-1.2l-0.9,0.1V33.9L32.6,33.9z M41.4,37.6c-0.7,0.6-1.5,1.2-2.2,1.8
	c2.2,0.1,2.2,0,2.2-0.4V37.6L41.4,37.6z M41,22.7h3.8l0.2-0.9h-3.7L41,22.7z"/>
<path class="st2" d="M59.2,37.2c-0.8,1.9-1.9,3.7-3.9,4.8l-3-2.1c1.7-0.9,3-2.4,3.7-4L59.2,37.2L59.2,37.2z M77.3,23.6v2.9H52.6
	v-2.9h6.2c-0.1-0.5-0.3-1.1-0.5-1.6l0.7-0.2h-4.3v-2.9H63v-2l4.7,0.2c0,0.3-0.3,0.5-0.8,0.6v1.1h8.3v2.9h-2.8
	C72.2,21.9,72,22,71.8,22c-0.2,0.5-0.5,1-0.9,1.6H77.3z M66.9,39.5c0.8,0,0.9-0.3,1-1.9c0.7,0.5,2.1,0.9,3.1,1.1
	c-0.5-0.4-1-0.7-1.4-1.1l3-2c1.8,1.1,4,2.9,5,4.3l-3.2,2.2c-0.7-1-2-2.2-3.3-3.3c-0.3,2.9-1.3,3.6-3.8,3.6h-3.5
	c-3.5,0-4.4-0.9-4.4-3.6v-2.1l2.8,0.2c-0.3-0.2-0.6-0.3-0.9-0.4l0.8-0.8h-5.4v-8.5h16.5v8.5h-6.5c0.6,0.3,1.1,0.6,1.5,0.9l-2.4,2.5
	c-0.5-0.5-1.4-1-2.4-1.5c-0.1,0-0.1,0.1-0.2,0.1v1.2c0,0.7,0.2,0.8,1.1,0.8H66.9z M60.4,29.5v0.7h8.9v-0.7H60.4z M60.4,32.5v0.7h8.9
	v-0.7H60.4z M67.2,23.6c0.2-0.5,0.4-1.2,0.6-1.8H62c0.2,0.6,0.5,1.2,0.6,1.8H67.2L67.2,23.6z"/>
<path class="st2" d="M104.7,37.9h-3.3c1.3,0.9,2.7,2.1,3.6,2.9l-2.9,1.8c-0.9-1-2.8-2.6-4.3-3.8l1.7-1h-3.9l1.7,1
	C97.1,38.9,97,39,96.8,39c-0.9,1.2-3.1,2.7-4.9,3.5c-0.6-0.6-1.6-1.6-2.4-2.2c-0.6,2.2-2.7,2.2-4.9,2.2c-0.1-1-0.4-2.5-0.9-3.4
	c0.7,0.1,1.3,0.1,1.7,0.1c0.3,0,0.5-0.1,0.8-0.4c0.3-0.5,0.4-2.6,0.5-8.3h-1.5c-0.4,4.6-1.2,8.9-3.5,12c-0.6-0.9-1.8-2.1-2.7-2.7
	c2.6-3.7,2.8-9.2,2.8-15.3h-2.4v-3.6h3.9V17l4.5,0.2c0,0.3-0.2,0.5-0.8,0.6v3.1h3.5v0.6c0.9-1.3,1.7-3,2.1-4.6l3.9,1
	c-0.1,0.2-0.3,0.3-0.7,0.3c-0.1,0.4-0.3,0.9-0.5,1.3h9.5v3.1H93.6l-0.2,0.4l3.5,0.2c0,0.3-0.2,0.4-0.8,0.5v1.3h2.7v-2l4.4,0.2
	c0,0.3-0.2,0.5-0.8,0.5v1.3h1.9v3h-1.9v6.7h2.3V37.9L104.7,37.9z M88.3,27l1.9,0.1c0,0.3,0,0.7,0,1.1c-0.1,7-0.2,10.5-0.6,12.1
	c1.3-0.6,2.7-1.5,3.7-2.4h-2.9v-3h2.2v-6.7h-1.9v-3h1.9v-1c-0.2,0.3-0.5,0.5-0.7,0.7c-0.3-0.3-0.9-0.8-1.5-1.2v0.9h-5L85.3,27H88.3
	L88.3,27z M98.8,28.1h-2.7v0.6h2.7V28.1z M98.8,31.8v-0.6h-2.7v0.6H98.8z M96.1,34.1v0.7h2.7v-0.7H96.1z"/>
<path class="st2" d="M116.4,30.5l-1,0.1v8.8c0,2.4-0.8,3.2-4,3.2c-0.1-0.8-0.4-2.1-0.9-2.9c0.4,0,0.8,0.1,1.2,0.1
	c0.8,0,0.9,0,0.9-0.4V31l-2.6,0.3c-0.1,3.6-0.4,8.3-1.9,11.3c-0.5-0.5-1.8-1.2-2.4-1.5c1.3-2.6,1.6-6.3,1.6-9.4l-0.3,0.1
	c-0.1,0.2-0.3,0.4-0.5,0.4l-0.7-3.2l1.5-0.1v-8.2h2.2c0.2-1.2,0.3-2.6,0.4-3.6l4,0.7c-0.1,0.2-0.3,0.3-0.7,0.4
	c-0.2,0.7-0.5,1.7-0.8,2.5h3V28l0.9-0.1L116.4,30.5L116.4,30.5z M111.8,24c0.4,0.9,0.7,2.1,0.8,3h0l0-3.5H110v1.1L111.8,24z
	 M110,28.6l2.6-0.2v-1.1l-2,0.7c0-0.8-0.3-1.9-0.6-2.8V28.6z M112.6,31.8c0,0.2-0.2,0.3-0.5,0.3v5.6h-1.6v-6.1L112.6,31.8z
	 M130.1,39.2h1.5v2.9h-15.9v-2.9h1.5v-7h12.9V39.2z M119.2,31.2v0.4h-2.6V17.9h7.6v2.4h-1.8v1.3h1.7v2.7c0.7-1.9,1.1-4.7,1.3-7.3
	l3.7,0.8c-0.1,0.2-0.3,0.4-0.6,0.4c-0.1,0.7-0.2,1.5-0.3,2.2h3.3v2.9h-3.9c-0.3,1.3-0.7,2.5-1.2,3.4c-0.5-0.5-1.5-1-2.3-1.5v2.2
	h-1.7v1.3h2.2v2.5L119.2,31.2L119.2,31.2z M120,20.3h-0.8v1.3h0.8V20.3z M121.6,23.8h-2.4v1.5h2.4V23.8z M120,28.7v-1.3h-0.8v1.3
	H120z M120.1,35.1v4.2h0.7v-4.2H120.1z M123.9,35.1h-0.7v4.2h0.7V35.1z M125,29.9V27h6.1v2.9H125z M127.1,35.1h-0.7v4.2h0.7V35.1z"
	/>
<g>
	<path class="st2" d="M171.9,30.3c0.2,0.5,0.4,1,0.6,1.5c0.7-0.5,1.3-1,1.8-1.5l1.9,1.8c-0.1,0.1-0.2,0.1-0.4,0.1
		c-0.1,0-0.1,0-0.2,0c-0.5,0.4-1.4,0.9-2.1,1.3c0.8,1,1.9,1.8,3.2,2.3c-0.5,0.5-1.2,1.3-1.5,1.9c-2.8-1.3-4.3-3.8-5.3-7
		c-0.3,0.2-0.7,0.5-1.2,0.7c1.9,1.3,2.6,3.1,2.6,4.5c0,2-1.3,3.1-3,3.1c-0.4,0-0.8,0-1.2,0c0-0.6-0.2-1.4-0.5-2
		c-1.1,0.6-2.3,1.1-3.3,1.5c-0.3-0.6-0.7-1.3-1.2-1.8c2.1-0.5,4.6-1.7,6.2-2.9l-0.1-0.2c-1.3,0.8-3,1.6-4.4,2.1
		c-0.2-0.5-0.7-1.2-1.1-1.7c1.4-0.3,3.1-0.9,4.2-1.6l-0.2-0.1c-1,0.4-2,0.7-3,0.9c-0.2-0.4-0.7-1.3-1-1.6c1.5-0.3,3-0.7,4.3-1.3
		h-1.8v-1.9h7.9v1.9H171.9z M165,27.8v1.7h-2.2v-3.7h5.4v-1.4l2.8,0.1c0,0.2-0.1,0.3-0.5,0.3v0.9h5.5v3.7h-2.3v-1.7L165,27.8
		L165,27.8z M169.2,35.5c-0.7,0.5-1.4,0.9-2.2,1.4c0.4,0,0.7,0,1,0c0.3,0,0.6,0,0.8-0.3C169.1,36.4,169.3,36,169.2,35.5z"/>
	<path class="st2" d="M192.9,36.7v1.7H189v0.6h-1.7v-5.2l-0.1,0.2l-0.1-0.2c-0.5,2.3-1.5,4.2-3.5,5.3c-0.2-0.4-0.8-1.2-1.2-1.5
		c1.1-0.5,1.8-1.3,2.4-2.2c-0.6,0.1-1.1,0.2-1.5,0.2c0,0.1-0.1,0.2-0.3,0.2l-0.6-1.9c0.3,0,0.6,0,0.9-0.1c0.2-0.3,0.5-0.7,0.7-1.1
		c-0.4-0.5-0.9-1.1-1.4-1.6l0.3,1.8l-1,0.3v3.5c0,1.5-0.3,2.3-2.9,2.3c0-0.6-0.3-1.5-0.6-2.1c0.3,0,0.6,0,0.8,0c0.6,0,0.6,0,0.6-0.3
		v-2.8c-0.3,0.1-0.6,0.2-0.9,0.3c0,0.2-0.2,0.3-0.3,0.3l-0.5-2.4c0.5-0.1,1.1-0.2,1.7-0.4v-2.3h-1.5v-2h1.5v-2.9l2.5,0.1
		c0,0.2-0.1,0.3-0.4,0.3v2.4h0.8v-1.3h3.9v-1.6l2.6,0.1c0,0.2-0.1,0.3-0.5,0.3v1.1h4.1v1.9h-8.4l1.6,0.6c-0.1,0.1-0.2,0.2-0.4,0.2
		c-0.2,0.6-0.6,1.4-1,2l0.3,0.3c0.3-0.5,0.5-1,0.7-1.5l1.7,0.7c-0.1,0.1-0.2,0.2-0.4,0.2c-0.5,0.9-1.2,2.1-1.9,3.2l0.4,0l0.1-0.6
		l1,0.2c-0.2-0.2-0.4-0.5-0.5-0.6c0.9-1,1.6-2.8,2-4.6l2,0.5c0,0.1-0.2,0.2-0.4,0.2c-0.1,0.5-0.3,0.9-0.4,1.3h0.5
		c0.2-0.7,0.5-1.4,0.6-2l2.1,0.6c-0.1,0.1-0.2,0.2-0.4,0.2c-0.1,0.4-0.3,0.8-0.5,1.3h1.2v1.6h-1.5v0.7h1.2v1.5h-1.2v0.7h1.2v1.5
		h-1.2v0.8L192.9,36.7L192.9,36.7z M182,29.3v1.8l0.7-0.2l-0.2-0.2l0.9-1.4l0.2,0.2c0.3-0.6,0.5-1.2,0.6-1.7h-1.4v1.5L182,29.3
		L182,29.3z M189.7,32.2v-0.7H189v0.7H189.7z M189.7,34.4v-0.7H189v0.7H189.7z M189,35.9v0.8h0.7v-0.8H189z"/>
	<path class="st2" d="M205.6,25.3h3.1v1.8h-3.1v0.5h-2.2v-0.5h-3.3v0.5H198v-0.5h-3v-1.8h3v-0.9l2.6,0.1c0,0.2-0.1,0.3-0.4,0.3v0.4
		h3.3v-0.9l2.6,0.1c0,0.2-0.1,0.3-0.5,0.3V25.3z M208.1,33.1V37c0,1.4-0.4,1.9-2.5,1.9c-0.1-0.4-0.2-0.8-0.3-1.2l-1.4,0.3
		c0-0.2,0-0.4-0.1-0.6c-1.8,0.1-3.6,0.3-4.9,0.4c0,0.1-0.2,0.2-0.3,0.2l-0.7-2.1c0.8,0,1.7,0,2.8,0v-1h-2.9V39h-2.1v-5.9h5v-0.4H197
		v-5h9.9v5h-4v0.4H208.1L208.1,33.1z M199.1,29.2v0.4h1.7v-0.4H199.1z M199.1,31.3h1.7v-0.4h-1.7V31.3z M204.7,29.6v-0.4h-1.9v0.4
		H204.7z M204.7,31.3v-0.4h-1.9v0.4H204.7z M202.9,35.9h0.5c-0.1-0.2-0.1-0.4-0.2-0.6l1.4-0.3h-1.7L202.9,35.9L202.9,35.9z
		 M204.8,34.9c0.3,0.7,0.6,1.6,0.8,2.3c0.3,0,0.4,0,0.4-0.2v-2.1H204.8z"/>
	<path class="st2" d="M225.4,31.6v2.1h-3.6v5.2h-2.2v-5.2h-3.4l0.2,1.4c-1.6,0.6-3.4,1.3-4.6,1.7c0,0.2-0.1,0.3-0.3,0.3l-0.9-2.4
		c0.5-0.1,1.1-0.3,1.8-0.5v-4.1H211V28h1.5v-3.5l2.6,0.1c0,0.2-0.1,0.3-0.4,0.3v3h1.4v2.1h-1.4v3.5l1.3-0.4v-1.6h3.6V27h-3.1V25h8.6
		V27h-3.2v4.5L225.4,31.6L225.4,31.6z M217.3,31.5c-0.1-0.9-0.5-2.4-0.9-3.4l1.9-0.6c0.5,1.1,0.9,2.4,1,3.4L217.3,31.5z M225.4,28.2
		c-0.1,0.1-0.2,0.2-0.5,0.2c-0.3,1-0.8,2.2-1.2,3.1l-1.6-0.6c0.4-0.9,0.8-2.4,1-3.4L225.4,28.2L225.4,28.2z"/>
	<path class="st2" d="M228.2,28.6c0.8,0.3,1.9,0.8,2.4,1.3l-1.3,1.8c-0.5-0.5-1.5-1.1-2.3-1.5L228.2,28.6z M227.2,37.6
		c0.6-1.2,1.3-3.1,1.9-5l1.8,1.2c-0.5,1.6-1.1,3.3-1.6,4.5c0.1,0.1,0.1,0.2,0.1,0.3c0,0.1,0,0.2-0.1,0.2L227.2,37.6L227.2,37.6z
		 M228.8,24.5c0.8,0.3,1.9,0.9,2.4,1.4l-1.3,1.8c-0.5-0.5-1.5-1.1-2.4-1.5L228.8,24.5z M241.2,24.9v11.9c0,1.6-0.5,2.2-2.8,2.2
		c-0.1-0.6-0.4-1.5-0.7-2c0.5,0,1,0,1.2,0c0.2,0,0.2-0.1,0.2-0.3v-2.7h-1.1c-0.2,1.8-0.8,3.6-1.9,4.9c-0.3-0.3-1.2-0.9-1.7-1.1
		c0.3-0.3,0.6-0.7,0.8-1H233v1h-1.9v-6.4h1.4v-2.1h-1.7v-2h1.7v-2.8l2.4,0.1c0,0.1-0.1,0.2-0.4,0.3v2.4h1.5v2h-1.5v2.1h1.4v4.2
		c0.5-1.5,0.5-3.1,0.5-4.6v-6.1L241.2,24.9L241.2,24.9z M233.9,34.9v-1.6H233v1.6H233.9z M238.3,31c0,0.4,0,0.7,0,1.1h0.9v-1.7h-0.9
		L238.3,31L238.3,31z M239.2,26.8h-0.9v1.6h0.9V26.8z"/>
	<path class="st2" d="M244.4,28.6c0.9,0.3,2,0.9,2.5,1.4l-1.3,1.8c-0.5-0.5-1.6-1.2-2.4-1.5L244.4,28.6z M243.5,37.6
		c0.6-1.2,1.5-3.1,2.2-5l1.8,1.2c-0.6,1.6-1.2,3.3-1.8,4.5c0.1,0.1,0.1,0.2,0.1,0.4c0,0.1,0,0.2-0.1,0.2L243.5,37.6z M247.7,25.9
		l-1.3,1.8c-0.5-0.5-1.6-1.2-2.5-1.6l1.2-1.6C246,24.8,247.2,25.4,247.7,25.9l0-0.2h3.8v-1.3l2.6,0.1c0,0.2-0.1,0.3-0.5,0.3v0.8h3.9
		v2.8h-2.1v-1.2h-5.8v1.2h-2V25.9L247.7,25.9z M256.9,36.6h-1.2c0.8,0.4,1.6,0.8,2.2,1l-1.7,1.3c-0.7-0.5-2-1.2-3.1-1.7l0.7-0.7
		h-2.2l1,0.7c0,0-0.2,0.1-0.3,0.1c-0.8,0.6-2.5,1.2-3.8,1.5c-0.3-0.4-0.8-1.1-1.2-1.5c0.8-0.2,1.8-0.5,2.5-0.8h-1v-3.3
		c-0.3,0.1-0.6,0.1-0.8,0.2c-0.2-0.5-0.7-1.3-1.1-1.7c0.6-0.1,1.3-0.2,1.9-0.3v-0.3c-0.2,0.1-0.3,0.1-0.5,0.2
		c-0.3-0.4-0.8-1-1.2-1.4c0.9-0.3,1.8-0.8,2.4-1.3l0.4,0.3v-1.3h5v1.2c0,0,0.1-0.1,0.2-0.2l2.1,1c-0.1,0.1-0.3,0.2-0.5,0.1
		c-0.5,0.5-1.1,0.9-1.7,1.2h1.7V36.6L256.9,36.6z M251.4,29.7c-0.1,0.1-0.2,0.1-0.3,0.1c-0.5,0.4-1.2,0.9-2,1.2h1.5
		c0.4-0.1,0.7-0.2,1.1-0.3v-1.5h-1L251.4,29.7L251.4,29.7z M250.9,34h3.9v-0.3h-3.9V34z M254.8,35.1h-3.9v0.3h3.9V35.1z M254.8,32.3
		h-2.1c-0.3,0.1-0.6,0.2-1,0.3h3.1V32.3z M253.6,29.2v0.7c0.4-0.2,0.8-0.5,1.2-0.7H253.6z"/>
	<path class="st2" d="M273.8,34.3h-1.9c0.6,0.9,1.5,1.7,2.3,2.3c-0.5,0.4-1.2,1.2-1.6,1.8c-0.6-0.6-1.2-1.4-1.7-2.3v2.9h-2.1V36
		c-0.6,1-1.3,1.8-2.2,2.3c-0.3-0.5-0.9-1.2-1.4-1.6c1-0.5,1.8-1.4,2.5-2.5h-1.3v-1.9h2.3v-1.5l2.5,0.1c-1.3-0.6-2.5-1.5-3.6-2.6v3
		h-2.2v-2.9c-0.9,1-1.9,1.8-3.1,2.4l2.3,0.1c0,0.2-0.1,0.3-0.4,0.3v1.1h1.8v1.9h-1.8v0.1c0.6,0.3,1.6,1,1.9,1.2l-1.3,1.6
		c-0.1-0.2-0.4-0.4-0.6-0.7v2.3h-2.1v-2.5c-0.5,0.8-1.2,1.5-1.9,2c-0.2-0.6-0.6-1.5-0.9-2.1c0.8-0.5,1.5-1.2,2-2h-1.7v-1.9h2.5v-1.4
		c-0.3,0.2-0.7,0.3-1,0.5c-0.3-0.5-0.9-1.3-1.4-1.7c1.3-0.4,2.6-1.1,3.6-1.9h-2.9v-1.9h5v-1.5l2.7,0.1c0,0.2-0.1,0.3-0.5,0.3v1h5.3
		v2h-3.1c1.1,0.8,2.4,1.4,3.9,1.8c-0.5,0.4-1.1,1.3-1.4,1.8c-0.3-0.1-0.7-0.3-1-0.4c0,0.2-0.1,0.3-0.5,0.3v1.1h2.9L273.8,34.3
		L273.8,34.3z"/>
	<path class="st2" d="M279.7,36c-0.5,1-1.1,2-2.2,2.6l-1.7-1.3c0.9-0.5,1.7-1.3,2.1-2.1L279.7,36L279.7,36z M282,36.6
		c0,0.4,0.1,0.5,0.7,0.5h1.6c0.4,0,0.6-0.1,0.6-0.8c0.4,0.3,1.3,0.6,1.9,0.7c-0.2,1.5-0.8,1.9-2.2,1.9h-2.1c-2.1,0-2.6-0.5-2.6-2.2
		v-1.4l2,0.1l-0.5-0.3l0.6-0.5c-0.3,0.3-1.5,0.3-1.9,0.3c-0.1-0.5-0.3-1.1-0.5-1.5c0.3,0,0.6,0,0.7,0c0.2,0,0.2,0,0.2-0.4h-1.8v1.9
		h-2v-6.4h5c-0.1-0.2-0.1-0.3-0.2-0.5c-1.8,0.1-3.6,0.2-4.8,0.3c0,0.1-0.1,0.2-0.3,0.2l-0.6-1.9h1.1c0.4-0.7,0.8-1.6,1.1-2.2
		l2.4,0.7c-0.1,0.1-0.2,0.2-0.5,0.2c-0.2,0.4-0.6,0.9-0.9,1.3l1.6,0c-0.2-0.2-0.3-0.4-0.5-0.6l1.5-0.8c0.7,0.8,1.5,1.8,1.8,2.5
		l-1.6,0.8h0.7v4.7c0,0.6-0.1,0.9-0.3,1.2l0.6-0.5c0.7,0.4,1.5,1,1.9,1.5l-1.5,1.3c-0.2-0.3-0.6-0.7-1-1c-0.1,0-0.1,0-0.2,0.1V36.6
		L282,36.6z M280.5,29.9h-1.8v0.3h1.8V29.9z M278.7,31.8h1.8v-0.3h-1.8V31.8z M287.7,27.7c0.4,0,0.5-0.1,0.6-0.9
		c0.4,0.3,1.2,0.6,1.8,0.7c-0.2,1.5-0.8,1.9-2.1,1.9h-2c-1.9,0-2.4-0.6-2.4-2.2v-2.8l2.5,0.1c0,0.1-0.1,0.3-0.4,0.3v0.9
		c0.9-0.2,1.7-0.5,2.3-0.8l1.6,1.4c-0.1,0.1-0.2,0.1-0.4,0.1c-0.9,0.3-2.2,0.7-3.5,0.9c0,0.4,0.1,0.4,0.6,0.4H287.7L287.7,27.7z
		 M287.8,32.9c0.5,0,0.5-0.1,0.6-1c0.4,0.3,1.2,0.6,1.8,0.7c-0.2,1.6-0.8,2-2.2,2h-2c-2,0-2.4-0.6-2.4-2.2v-2.9l2.5,0.1
		c0,0.2-0.1,0.3-0.4,0.3v0.8c0.9-0.3,1.9-0.6,2.5-0.9l1.6,1.4c-0.1,0.1-0.1,0.1-0.4,0.1c-0.9,0.4-2.3,0.7-3.7,1
		c0,0.5,0.1,0.6,0.7,0.6H287.8L287.8,32.9z M288.3,38.7c-0.4-0.8-1.5-1.8-2.4-2.5l1.8-1c1,0.6,2.1,1.6,2.5,2.4L288.3,38.7
		L288.3,38.7z"/>
	<path class="st2" d="M306.2,28.5h-5.8c-0.1,0.2-0.1,0.4-0.2,0.7h4.3v9.8h-2.3v-0.6h-5.8v0.6h-2.2v-9.8h3.6c0-0.2,0.1-0.5,0.1-0.7
		h-5.6v-2.1h3.2c-0.3-0.4-0.7-0.9-1-1.2l2.1-0.9c0.6,0.5,1.2,1.3,1.5,1.8l-0.6,0.3h3c0.4-0.6,0.9-1.4,1.2-2.1l2.9,0.8
		c-0.1,0.1-0.2,0.2-0.5,0.2c-0.2,0.3-0.5,0.7-0.8,1.1h3.1V28.5L306.2,28.5z M302.2,31.6V31h-5.8v0.6H302.2z M296.4,33.3V34h5.8v-0.7
		H296.4z M296.4,36.4h5.8v-0.7h-5.8V36.4z"/>
	<path class="st2" d="M317.1,25.8h5.4v2h-11V30c0,2.6-0.2,6.5-1.7,8.9c-0.4-0.4-1.3-1-1.8-1.2c1.3-2.2,1.4-5.4,1.4-7.7v-4.3h5.4
		v-1.4l2.8,0.1c0,0.2-0.1,0.3-0.5,0.3V25.8L317.1,25.8z M320.7,27.9c0,0.2-0.1,0.3-0.5,0.3v0.5h2.2v1.8h-2.2v2.4H318v0.7h3.8v2.9
		c0,1.7-0.6,2-3,2c-0.1-0.6-0.3-1.4-0.6-1.9c0.4,0,1,0,1.2,0s0.2,0,0.2-0.2v-0.9H318V39h-2.2v-3.5h-1.5v3h-2.2v-4.9h3.6v-0.7h-2.2
		v-2.4h-1.8v-1.8h1.8v-1l2.5,0.1c0,0.2-0.1,0.3-0.5,0.3v0.5h2.4v-1L320.7,27.9L320.7,27.9z M318.1,31.2v-0.7h-2.4v0.7H318.1z"/>
	<path class="st2" d="M332.8,36.3h5.8v2.2h-13.9v-2.2h5.8v-2.6h-4v-2.1h4v-2.3h-3c-0.4,0.9-0.9,1.7-1.4,2.4
		c-0.5-0.4-1.4-1.1-1.9-1.4c1.1-1.3,2.1-3.7,2.6-5.8l2.7,0.7c-0.1,0.1-0.2,0.2-0.5,0.2c-0.2,0.6-0.4,1.1-0.6,1.7h2v-2.7l2.8,0.2
		c0,0.2-0.1,0.3-0.5,0.3v2.2h5.1v2.2h-5.1v2.3h4.4v2.1h-4.4L332.8,36.3L332.8,36.3z"/>
	<path class="st2" d="M341.8,28.6c0.9,0.3,2.2,0.9,2.9,1.4l-1.3,1.8c-0.6-0.5-1.8-1.2-2.8-1.6L341.8,28.6z M341,37.3
		c0.8-1.2,1.9-3,2.7-4.9l1.7,1.4c-0.8,1.6-1.6,3.2-2.3,4.4c0.1,0.1,0.1,0.2,0.1,0.3s0,0.2-0.1,0.3L341,37.3L341,37.3z M355.2,31h-4
		v1.5h3.1v6.3H352v-0.6h-3.8v0.6H346v-6.3h2.9V31h-3.8v-2.1h3.8v-1.5c-1,0.1-2,0.2-3,0.3c-0.1-0.5-0.3-1.2-0.6-1.7l-1.2,1.7
		c-0.6-0.5-1.8-1.2-2.7-1.6l1.2-1.6c0.9,0.3,2.1,0.9,2.7,1.4c2.7-0.2,5.5-0.8,7.3-1.5l1.9,1.8c-0.1,0.1-0.2,0.1-0.5,0.1
		c-0.9,0.3-1.9,0.6-3,0.8v1.8h4V31L355.2,31z M352,36.3v-1.7h-3.8v1.7H352z"/>
</g>
</svg>
