<svg width="590" height="168" viewBox="0 0 590 168" fill="none" xmlns="http://www.w3.org/2000/svg">
<path d="M34.82 55.4296L35.06 64.7496C26.57 66.6896 17.72 68.5496 11.97 69.7496C11.77 70.4996 11.06 71.0196 10.39 71.0896L8.48999 59.8296C10.9 59.5296 13.69 59.0796 16.71 58.5596L17.63 45.4396H11.44L12.13 35.5196H18.32L19.1 24.3296H12.39L13.09 14.3396H36.58L35.88 24.3296H29.24L28.46 35.5196H34.65L33.96 45.4396H27.77L26.97 56.8496L34.82 55.4296ZM74.55 63.1896H61.95L61.39 71.2396C60.88 78.4696 58.46 80.1096 46.53 80.1096C46.25 77.7196 45.5 74.5896 44.62 72.2096C41.52 74.9696 37.83 77.6496 34.34 79.5896C32.83 77.7296 29.76 74.6696 27.86 73.0996C32.49 70.9396 37.36 67.2796 40.14 63.8496L50.53 67.7996C50.19 68.3996 49.42 68.6896 48.47 68.5496C47.5 69.5896 46.39 70.6396 45.19 71.7596C47.05 71.8296 49.21 71.8296 49.88 71.8296C50.71 71.7596 51.01 71.6096 51.07 70.8596L51.61 63.1796H39.08L40.24 46.6296H75.74L74.58 63.1796L74.55 63.1896ZM80.99 36.1196L80.4 44.6196H35.35L35.94 36.1196H52.72L52.92 33.2096H40.17L41.68 11.5796H79.04L77.53 33.2096H66.12C65.85 33.8096 65.16 34.1796 63.87 34.3996L63.75 36.1196H80.98H80.99ZM49.66 53.4196L49.45 56.3996H64.51L64.72 53.4196H49.66ZM50.43 25.3096L50.31 27.0296H67.76L67.88 25.3096H50.43ZM50.96 17.7796L50.84 19.4996H68.29L68.41 17.7796H50.96ZM71.28 79.2296C69.62 76.3196 65.47 71.6996 62.03 68.5696L70.55 64.0996C73.93 66.9296 78.33 71.2596 80.43 74.3196L71.29 79.2396L71.28 79.2296Z" fill="white"/>
<path d="M160.52 13.0696L167.28 15.6096C167.17 16.1296 166.91 16.6496 166.44 17.0296C163.98 23.4396 160.99 31.0496 157.45 38.9496C162.96 46.4797 164.47 51.5496 164.16 56.0996C163.1 71.2396 152.89 71.2397 146.41 71.0097C146.53 68.1797 145.64 63.8496 144.2 60.9396L142.86 80.1096H132.2L136.4 20.0096C134.48 23.9596 132.35 27.7696 130.02 31.3396H133.67L133.02 40.6596H123.1C121.8 42.1496 120.51 43.5696 119.22 44.9096H130.63L128.21 79.5896H117.99L118.17 77.0497H108.7L108.48 80.2597H98.71L100.17 59.3797C99.24 59.8997 98.31 60.4196 97.31 60.8696C96.35 58.5596 94.04 54.2297 92.48 52.1497C95.4 50.8797 98.27 49.3196 101 47.5996L101.19 44.9196H104.84C106.65 43.5796 108.31 42.1596 109.98 40.6696H95.07L95.72 31.3496H107.73L108.13 25.6796H99.03L99.68 16.4296H108.78L109.25 9.63965L121.36 10.3096C121.23 11.0596 120.6 11.5796 119.09 11.7996L118.77 16.4196H125.18L124.81 21.7096C126.18 19.2496 127.4 16.7096 128.47 14.0996L136.63 16.7796L136.86 13.4196H158.26L160.52 13.0496V13.0696ZM109.3 68.4797H118.77L119.03 64.8297H109.56L109.3 68.4797ZM119.59 56.7696L119.82 53.4096H110.35L110.12 56.7696H119.59ZM117.71 31.3396H118.53C119.92 29.5496 121.25 27.6096 122.43 25.6696H118.1L117.7 31.3396H117.71ZM146.81 23.5796L144.23 60.5696C146.01 60.7196 147.57 60.7197 148.62 60.7197C152.35 60.7197 153.21 58.9996 153.45 55.5696C153.71 51.9196 151.97 47.8896 146.35 40.7996C148.73 34.5396 150.77 28.7896 152.47 23.5696H146.8L146.81 23.5796Z" fill="white"/>
<path d="M228.37 43.1297H220.02C218.54 51.5597 216.33 58.5696 213.25 64.3096C218.86 69.3796 225.95 69.3796 234 69.3796C238.47 69.3796 244.82 69.3097 247.73 69.2297C246.31 71.4697 244.58 75.8697 244.02 78.5497H228.81C220.09 78.5497 213.03 77.1296 207.77 72.3596C205.02 75.4896 201.78 78.0997 197.97 80.2597C196.86 77.9497 194.79 74.5897 193.05 72.7997C196.68 71.0097 199.7 68.3296 202.26 64.8196C200.57 61.2396 199.16 56.9197 198.2 51.4697L206.35 49.0096C206.66 51.0196 207.12 52.8896 207.6 54.5296C208.79 51.3996 209.7 47.9697 210.48 44.3097H207.94L206.96 46.6196L198.66 44.8297L199.08 50.5696L194.12 52.2096L192.94 69.1396C192.39 76.9696 190.15 80.2496 178.59 80.2496C178.48 77.4896 177.67 73.0896 176.61 70.1796C177.87 70.2496 179.21 70.3297 180.25 70.3297C182.71 70.3297 183.01 70.3296 183.1 69.0596L184.05 55.4096L180.16 56.5996C179.95 57.4196 179.25 57.9396 178.56 58.0896L176.92 46.3797C179.11 45.9297 181.84 45.3396 184.8 44.6596L185.6 33.2496H178.96L179.65 23.3296H186.29L187.26 9.38965L199.15 9.90965C199.02 10.7296 198.46 11.2496 196.95 11.4796L196.12 23.3396H200.15L199.46 33.2596H195.43L194.79 42.3596L198.43 41.4596L198.54 43.0996C201.44 36.7596 204.65 29.2296 207.18 22.9696H200.84L201.51 13.4196H212.99L214.94 13.1996L220.19 14.8396C220 15.3596 219.73 16.0296 219.48 16.4796C217.48 21.6296 214.51 28.9297 211.39 36.2397H214.37L216.02 36.0896L219.12 36.6096L219.33 33.6297H229.02L229.68 24.1596C227.18 24.7596 224.69 25.1996 222.27 25.6496C221.98 23.4096 220.81 19.9096 219.69 17.7496C227.86 16.1096 236.56 13.2796 242.01 9.98965L249.75 17.7496C249.35 18.1996 248.6 18.1996 247.71 18.1996C245.85 19.1696 243.71 19.9896 241.41 20.8096L242.08 20.8796C241.95 21.6296 241.32 22.1496 239.89 22.3696L239.1 33.6297H248.57L247.91 43.0996H238.44L237.61 54.9596H246.04L245.39 64.2796H219.14L219.79 54.9596H227.55L228.38 43.0996L228.37 43.1297Z" fill="white"/>
<path d="M302.55 33.7996H331.48L330.92 41.7796H262.76L263.32 33.7996H291.51L291.65 31.7896H272.11L272.64 24.2596H292.18L292.33 22.1696H268.39L268.95 14.1896H292.89L293.24 9.11963L306.54 9.78963C306.4 10.6796 305.7 11.2096 304.11 11.4296L303.92 14.1896H328.01L327.45 22.1696H303.36L303.21 24.2596H323.34L322.81 31.7896H302.68L302.54 33.7996H302.55ZM319.59 43.9396L317.73 70.5596C317.13 79.2096 312.95 80.3296 298.03 80.3296C297.69 77.7196 296.52 74.1396 295.42 71.7496C297.42 71.8996 300.25 71.9696 302.26 71.9696C303.45 71.9696 304.43 71.8996 304.8 71.8996C306.59 71.8996 306.63 71.3796 306.75 69.5896H282.59L281.85 80.1796H271.04L273.57 43.9396H319.58H319.59ZM283.08 62.7296H307.24L307.4 60.4896H283.24L283.08 62.7296ZM308.02 51.5396H283.86L283.71 53.6296H307.87L308.02 51.5396Z" fill="white"/>
<path d="M414.01 54.4598L413.28 64.9698H388.52L387.46 80.1798H376.27L377.33 64.9698H344.07L344.8 54.4598H356.36L357.58 37.0098C356.2 38.5798 354.76 40.0698 353.33 41.3398C351.46 39.2498 347.62 35.5998 345.13 33.8098C351.93 28.2898 358.51 18.4498 362.22 9.0498L374.91 13.0798C374.56 13.7498 373.71 14.1998 372.61 14.0498C372.16 15.0898 371.65 16.0598 371.13 17.1098H412.14L411.41 27.6198H391.13L390.6 35.1498H409.17L408.47 45.2198H389.9L389.25 54.4698H414.01V54.4598ZM379.94 27.6098H364.88C363.13 30.2898 361.23 32.8298 359.21 35.1398H379.42L379.95 27.6098H379.94ZM367.25 54.4598H378.06L378.71 45.2098H367.9L367.25 54.4598Z" fill="white"/>
<path d="M247.35 107.75L246.69 117.15H236.47L236.69 117.22C236.27 117.89 235.5 118.19 234.31 118.19C233.14 119.98 231.57 122.14 229.95 124.08H244.42L243.76 133.48H219.15C218.88 134.08 218.19 134.45 216.9 134.67L216.64 138.32H239.91L239.26 147.64H215.99L215.26 158.15H203.93L204.66 147.64H182.81L183.46 138.32H205.31L205.65 133.47H179.33L179.99 124.07H194.53C193.79 121.83 192.77 119.37 191.72 117.28L192.25 117.13H178.83L179.49 107.73H207.45L207.76 103.26H187.33L187.98 93.9397H208.41L208.83 87.9697L222.42 88.7197C222.29 89.5397 221.58 90.0597 219.99 90.3597L219.74 93.9397H241.07L240.42 103.26H219.09L218.78 107.73H247.34L247.35 107.75ZM203 117.15C204.26 119.46 205.34 122.07 205.8 124.09H218.55C219.81 122.08 221.25 119.54 222.39 117.15H203Z" fill="white"/>
<path d="M292.03 104.4C291.77 104.92 291.22 105.37 290.6 105.59C288.36 110.96 285.31 116.25 281.76 121.18C283.88 122.82 286.98 125.5 289.01 127.29L289.25 123.79H329L326.62 157.87H315.96L316.12 155.56H297.18L297 158.17H286.86L288.75 131.18L283.75 137.67C282.81 136.25 281.51 134.54 280.14 132.82L278.36 158.25H267.85L269.48 134.91C267.49 136.7 265.37 138.27 263.34 139.61C262.72 136.7 260.64 131.33 259.29 129.32C266.35 125.37 273.11 118.28 277.75 110.6H262.84L263.51 100.98H271.86L272.81 87.4097L285.44 88.0797C285.31 88.8997 284.67 89.4197 283.17 89.6497L282.38 100.99C283.95 100.99 284.1 100.92 285.54 100.62L292.06 104.42L292.03 104.4ZM290.23 89.5597H333.56L332.93 98.5797H289.6L290.23 89.5597ZM294.51 100.82H327.25L325.81 121.48H293.07L294.51 100.82ZM297.79 146.76H302.19L302.4 143.78H298L297.79 146.76ZM303.18 132.59H298.78L298.59 135.27H302.99L303.18 132.59ZM316.37 113.43L316.69 108.88H303.49L303.17 113.43H316.37ZM312.1 146.76H316.72L316.93 143.78H312.31L312.1 146.76ZM317.52 135.28L317.71 132.6H313.09L312.9 135.28H317.52Z" fill="white"/>
<path d="M353.06 122.07C351.18 124.38 349.31 126.62 347.39 128.56C346.61 125.88 344.4 120.13 343.17 117.45C349.82 110.89 357.06 98.9597 361.67 87.4697L373.24 91.5697C372.74 92.3197 371.9 92.6097 370.86 92.5397C368.75 97.0897 366.34 101.79 363.71 106.26L366.78 107.08C366.58 107.83 365.87 108.42 364.51 108.57L361.05 158.16H350.54L353.06 122.07ZM395.04 145.63H413.38L412.66 155.92H364.34L365.06 145.63H384L384.88 133.03H369.89L370.6 122.81H385.59L386.36 111.77H368.98L369.7 101.48H388.19C385 99.1697 381.36 96.7097 378.28 94.9197L385.98 87.1597C391.23 89.9197 398.82 94.4697 402.46 97.8197L398.92 101.47H415.4L414.68 111.76H397.38L396.61 122.8H411.9L411.19 133.02H395.9L395.02 145.62L395.04 145.63Z" fill="white"/>
<path d="M461.84 97.8398C462.65 100.08 463.45 102.61 464.16 105.15L465.4 87.3998L477.29 87.9998C477.16 88.8198 476.53 89.3398 475.02 89.5698L472.94 119.4C471.9 134.24 467.83 149.9 453.95 158.62C452.68 156.53 449.59 152.65 447.56 150.86C454.89 147.36 458.64 141.69 460.66 135.2C458.67 136.99 456.77 138.56 455.27 139.82C455.29 140.64 454.87 141.31 454.25 141.61L450.21 132.14L448.74 134C448.19 132.28 447.37 130.12 446.41 127.81L444.29 158.16H434.52L436.22 133.78C434.27 138.25 432.2 142.21 429.9 145.26C429.21 142.35 427.26 138.18 425.95 135.64C430.45 129.97 434.61 120.58 436.97 112.37H429.44L430.14 102.38H438.42L439.47 87.3198L451.35 87.9898C451.22 88.7398 450.6 89.1798 449.08 89.4798L448.18 102.38H454.15L453.73 100.96L461.85 97.8298L461.84 97.8398ZM452.49 129.23C452.79 129.23 460.91 123.94 462.95 122.59L463.45 115.43L457.47 117.82C457.21 114.02 455.96 108.5 454.58 103.73L453.98 112.38H447.49L447.32 114.84C449.08 117.38 453.64 124.68 454.72 126.4L452.51 129.23H452.49ZM501.14 102.16C500.72 102.83 499.81 103.05 498.77 102.98C496.91 107.23 493.51 113.2 491.08 117L486.41 114.46L485.99 120.5L487.89 118.93C491.48 123.11 496.44 128.92 498.64 132.65L491.09 139.29C489.91 136.9 487.68 133.62 485.3 130.42L484.37 143.77C484.11 147.42 484.16 147.87 485.13 147.87H487.14C488.18 147.87 488.62 145.93 489.22 139.44C491.41 141.16 495.02 142.94 497.88 143.62C496.14 153.54 493.41 157.49 487.44 157.49H482.37C475.29 157.49 473.49 154.43 474.24 143.69L478.17 87.3898L490.43 88.0598C490.3 88.8798 489.67 89.3298 488.16 89.6298L486.94 107.15C488.37 103.79 489.74 100.14 490.69 97.1598L501.15 102.16H501.14Z" fill="white"/>
<path d="M516.24 89.9297H581.04L576.27 158.24H565.68L565.85 155.78H521.78L521.61 158.24H511.47L516.24 89.9297ZM522.46 146.08H566.53L567.46 132.81C567.06 133.18 566.31 133.33 565.5 133.18C564.1 134 562 135.19 559.99 136.31C562.16 137.2 564.5 137.95 566.85 138.47C564.95 140.04 562.27 143.17 560.94 145.18C556.42 143.76 552.26 141.38 548.73 138.47L548.29 144.73H538.82L539.23 138.84C535.59 140.7 531.75 142.34 528.01 143.61C527.01 141.89 524.69 138.76 523.24 137.2C528.79 135.63 534.7 133.25 539.46 130.26H529.91L530.76 118.03H561.63L560.94 127.87L567.47 132.64L569.78 99.6097H525.71L522.47 146.07L522.46 146.08ZM567.07 110.58L566.66 116.4H526.39L526.8 110.58H542.01L542.13 108.79H530.42L530.82 103.12H542.53L542.74 100.14L554.62 100.81C554.49 101.56 553.87 102 552.35 102.3L552.29 103.12H564.07L563.67 108.79H551.89L551.77 110.58H567.06H567.07ZM551.73 125.27L551.89 122.96H539.29L539.13 125.27H551.73ZM551.9 130.27L551.11 130.94C551.88 131.69 552.8 132.36 553.73 132.95C554.98 132.13 556.38 131.23 557.65 130.27H551.91H551.9Z" fill="white"/>
</svg>
