<svg width="1010" height="546" viewBox="0 0 1010 546" fill="none" xmlns="http://www.w3.org/2000/svg">
<g filter="url(#filter0_d_1_32)">
<path d="M168.995 77.665C161.6 70.765 153.965 64.105 146.81 58.195L174.665 36.505C199.31 55.48 230.12 82.84 243.68 103.795L212.87 128.68C209.66 123.01 204.98 116.605 199.31 109.945C134.495 113.155 67.46 115.855 23.33 117.34C22.595 120.055 20.12 121.285 17.66 121.525L5.32996 81.595L48.215 80.86C63.005 58.675 78.53 29.59 87.65 5.20001L132.02 21.46C130.79 23.92 127.58 25.15 123.395 25.15C115.01 42.4 102.935 62.365 90.8599 79.87L168.995 77.65V77.665ZM41.8249 241.81V133.375H206.705V240.835H168.995V234.43H77.81V241.825H41.8249V241.81ZM168.995 167.62H77.81V199.66H168.995V167.62Z" fill="white"/>
<path d="M271.28 75.19C283.595 80.86 300.11 90.22 308.255 97.615L287.555 124.975C280.415 117.58 264.14 106.735 251.825 100.09L271.295 75.205L271.28 75.19ZM276.455 11.11C288.785 17.275 305.045 27.37 312.935 35.26L291.5 62.125C284.6 53.995 268.58 42.655 256.25 35.26L276.455 11.11ZM257.975 221.335C267.095 201.865 279.41 171.055 289.025 141.475L317.375 159.715C309.485 186.085 300.125 212.215 292.235 231.43C293.96 233.155 294.95 235.12 294.95 237.1C294.95 238.33 294.455 239.56 293.96 240.79L257.975 221.32V221.335ZM464.27 95.89L478.07 91.45C482.75 101.305 487.43 114.13 489.41 122.5L471.425 128.665C470.195 122.26 467.48 112.885 464.285 104.515V134.095H442.1V109.195C439.385 117.82 435.695 126.94 431.015 133.105C428.3 130.645 423.62 127.195 419.675 124.48V132.61H371.855V118.315L356.075 122.755C355.34 117.085 353.615 108.7 351.635 101.305V134.08H329.945V111.16C326.99 118.795 323.285 126.445 318.86 132.115C315.17 128.665 308.255 123.73 303.83 121.03C309.005 113.89 312.95 102.295 315.17 91.45L329.96 95.635V87.505L316.16 88.24C315.665 90.205 313.94 91.195 312.215 91.45L305.81 67.54H320.345C322.31 65.08 324.53 62.605 326.75 60.145C321.575 54.715 314.915 48.805 308.765 44.365L319.61 27.115L322.325 28.84C326.51 21.7 330.455 13.315 332.915 6.91001L354.845 19.225C353.855 20.71 351.635 21.445 348.935 21.19C345.98 26.365 341.54 33.52 336.86 39.925L340.07 42.88C343.76 37.705 347.21 32.53 349.925 28.09L365.21 37.705V31.795H424.115V37.21L430.52 27.1L433.235 28.825C437.675 21.685 441.86 13.3 444.575 6.895L466.505 19.21C465.515 20.695 463.295 21.43 460.595 21.175C457.385 26.35 452.705 33.505 448.025 39.91L451.475 43.12C455.66 37.705 459.605 32.275 462.56 27.34L483.995 40.9C482.765 42.625 480.305 42.865 477.83 42.625C471.92 49.765 463.775 59.14 455.405 67.51H465.995C465.26 65.05 464.27 62.575 463.28 60.37L479.795 53.71C484.235 63.07 488.42 75.895 489.65 84.025L472.16 91.42C471.92 89.695 471.665 87.73 471.17 85.75L464.27 86.245V95.86V95.89ZM451.205 189.295L458.105 188.305L478.07 193.72C477.575 196.18 476.84 198.655 475.61 200.62C469.205 239.32 460.58 241.78 423.365 241.78C417.2 241.78 410.06 241.78 402.665 241.54C402.425 233.65 398.72 223.06 394.04 215.905C403.895 216.895 414.5 217.135 421.4 217.135C434.465 217.135 436.43 217.135 439.385 210.73H353.615L351.89 216.895L319.85 212.95C324.29 199.39 328.97 180.175 331.925 164.155H428.54V159.22H324.035V139.255H461.555V184.105H360.26L359.03 189.28H451.205V189.295ZM419.66 115.105C422.615 108.205 424.835 99.58 426.32 91.45L442.1 95.89V87.505L429.035 88.24C428.54 90.205 426.815 91.195 425.09 91.45L419.42 70.015H371.855V54.49H419.675V67.555H431.255C433.475 65.335 435.695 62.875 437.915 60.16C433.73 55.975 429.05 51.535 424.115 47.83V49.555H365.21V43.39C359.795 50.29 352.145 59.17 344.015 67.54H353.375L351.155 60.4L365.69 55.225C368.405 61.63 370.37 69.28 371.855 75.925V74.935H419.675V90.46H371.855V86.02L357.56 91.195C357.56 89.47 357.32 87.745 357.065 85.78L351.635 86.275V95.635L366.17 91.945C368.39 98.845 370.61 107.23 371.84 113.635V95.395H419.66V115.105ZM417.695 11.095V26.875H374.315V11.095H417.695ZM398.72 117.805V110.17H391.82V117.805H398.72Z" fill="white"/>
<path d="M700.61 132.37L722.54 140.26C721.805 142.48 720.815 143.215 719.585 144.7C714.155 165.4 705.29 183.4 693.455 198.19C705.29 205.09 718.595 210.265 733.88 213.715C726.485 220.12 717.125 233.185 712.685 241.57C696.665 236.89 682.61 229.99 670.295 221.365C659.69 229.75 647.87 236.65 634.565 242.065C630.875 234.43 623.225 222.835 616.82 215.935V241.81H582.56V221.845C558.155 224.56 534.74 227.26 518.24 228.745C517.745 231.205 515.78 232.435 513.8 232.69L504.185 199.165C510.095 198.925 516.995 198.67 524.645 198.175V127.69H503.945V99.595H731.435V127.69H616.835V213.955C627.425 210.265 637.295 205.09 645.92 198.67C637.79 188.815 631.13 177.715 625.46 165.4L644.195 160.225H621.275V133.36H694.97L700.64 132.37H700.61ZM698.645 15.55V93.43H536.72V15.55H698.645ZM582.56 127.69H557.18V133.6H582.56V127.69ZM557.18 157.765V164.425H582.56V157.765H557.18ZM557.18 196.465L582.56 194.74V188.575H557.18V196.465ZM662.66 43.9V37.99H570.98V43.9H662.66ZM662.66 71.005V64.84H570.98V71.005H662.66ZM655.52 160.225C658.73 166.39 662.915 172.06 667.595 177.475C671.78 172.045 675.23 166.39 678.44 160.225H655.52Z" fill="white"/>
<path d="M974.66 108.715H889.625C903.92 155.785 931.025 191.275 980.81 207.055C972.185 214.945 960.35 231.205 954.935 241.81C909.335 224.305 882.725 193.99 864.98 151.6C850.925 188.08 824.555 219.865 774.77 241.81C769.595 231.7 758.75 218.395 748.64 210.265C806.315 187.09 828.74 151.36 837.365 108.73H753.815V71.515H841.805C843.035 51.055 842.795 29.62 843.035 7.67499L889.865 10.63C889.37 13.585 886.91 15.565 882.23 16.3C881.99 34.54 881.495 53.275 880.505 71.5H974.645V108.715H974.66Z" fill="white"/>
<path d="M183.05 297.445H235.055V328.255H183.05V335.155H214.595V390.355H37.64V335.155H65.735V328.255H14.225V297.445H65.735V282.415L108.62 284.635C108.38 287.35 106.16 289.075 101.225 290.05V297.445H147.32V282.415L190.445 284.635C190.205 287.59 188.225 289.075 183.05 290.05V297.445ZM15.95 443.095V397.495H233.33V443.095H198.08V424.12H128.33C127.1 425.35 125.12 426.085 122.66 426.085L118.22 431.26H165.545L171.215 430.03L195.365 441.37C194.63 443.095 193.145 443.83 191.675 444.82C166.79 487.21 114.035 507.67 53.1649 517.03C49.9549 508.645 42.815 495.34 37.145 487.945C55.385 486.22 73.13 483.01 89.15 478.585C84.965 475.87 80.525 473.41 76.34 471.685L97.535 454.675H91.3699C79.0549 463.3 64.505 471.43 46.52 478.585C42.08 470.95 32.225 459.115 25.565 453.94C50.945 446.05 69.68 435.7 82.25 424.12H49.475V443.095H15.95ZM86.435 367.93V357.325H69.185V367.93H86.435ZM99.5 454.69C106.895 457.645 115.025 462.085 121.43 466.525C128.57 463.075 134.99 459.13 140.66 454.69H99.5ZM147.32 335.155V328.255H101.225V335.155H147.32ZM133.76 367.93V357.325H116.015V367.93H133.76ZM181.325 367.93V357.325H163.325V367.93H181.325Z" fill="white"/>
<path d="M296.915 433.495V394.795C290.255 405.4 282.86 414.76 275.225 421.9C270.05 414.265 259.445 402.925 252.305 397.015C267.59 385.675 282.125 366.205 291.74 346.735H258.71V316.66H296.915V282.655L338.075 284.875C337.82 287.59 335.855 289.06 330.92 290.05V316.675H362.96V346.75H330.92V353.155C340.535 358.825 363.2 374.35 369.125 378.79L350.39 407.38C345.455 401.71 338.315 394.57 330.92 387.67V433.51H296.915V433.495ZM317.12 454.195C310.22 474.16 300.365 495.355 285.08 509.65L255.005 488.695C268.31 477.355 279.41 459.61 285.32 441.625L317.12 454.195ZM356.3 475.39C356.3 482.53 358.025 483.28 368.135 483.28H393.275C401.165 483.28 402.635 481.06 403.865 465.535C410.765 470.71 425.795 475.885 435.41 477.865C431.225 507.445 421.85 514.84 396.71 514.84H363.185C328.43 514.84 320.795 504.985 320.795 475.9V446.575L353.57 448.3L344.45 441.4L367.865 422.92L372.305 425.875V294.505H475.565V430.3H378.71C389.315 438.19 400.16 447.55 405.815 455.2L380.675 475.405C376.235 469 368.345 460.87 359.48 453.22L356.27 453.955V475.39H356.3ZM404.855 322.345V331.705H441.335V322.345H404.855ZM404.855 357.595V367.21H441.335V357.595H404.855ZM404.855 392.845V402.7H441.335V392.845H404.855ZM459.32 511.885C452.915 495.865 434.675 472.705 417.17 456.19L446.255 438.685C463.76 454.21 483.23 475.66 491.105 492.655L459.305 511.885H459.32Z" fill="white"/>
<path d="M734.615 473.425H704.555C716.135 482.05 729.695 492.4 737.09 500.05L710.72 516.565C702.59 507.445 684.845 492.415 671.54 482.305L686.57 473.44H651.08L666.365 482.305C665.63 483.295 664.145 484.03 662.42 484.27C653.795 494.875 634.325 509.41 617.81 516.55C612.635 510.88 603.275 502.255 596.12 496.84C590.69 516.805 571.475 516.805 551.27 516.805C550.775 507.19 547.58 493.885 542.885 485.26C549.05 485.995 554.465 485.995 557.915 485.995C560.87 485.995 562.85 485.26 564.815 482.05C567.53 477.37 568.505 458.395 569.255 406.135H555.95C552.5 447.79 544.61 487.225 523.91 516.31C518.24 507.685 507.65 496.84 498.77 491.17C522.68 457.645 524.15 406.63 524.9 351.67H502.715V318.64H537.965V282.655L579.365 284.875C579.125 287.59 577.145 289.06 572.21 290.05V318.64H603.755V324.55C612.38 312.475 619.04 297.19 622.49 282.16L658.22 291.28C657.485 293.245 655.505 294.49 652.055 294.235C650.825 298.18 649.34 302.365 647.87 306.31H734.63V334.9H633.335L631.115 338.35L663.155 340.075C662.9 342.535 660.935 344.02 656.255 345.01V356.59H680.9V337.855L720.83 340.075C720.59 342.535 718.61 344.26 713.69 345.01V356.59H731.435V384.445H713.69V445.57H734.645V473.425H734.615ZM584.27 373.855L601.76 374.35C601.76 377.065 601.76 381.01 601.52 384.7C600.785 449.02 600.035 480.82 596.345 495.61C608.42 490.435 621.23 481.81 630.35 473.425H603.485V445.57H623.945V384.445H606.935V356.59H623.945V347.47C621.98 349.93 619.76 352.15 617.54 354.13C614.33 350.92 608.915 346.99 603.74 343.285V351.67H558.395L557.66 373.855H584.285H584.27ZM680.885 384.46H656.24V390.13H680.885V384.46ZM680.885 417.73V411.82H656.24V417.73H680.885ZM656.24 439.42V445.585H680.885V439.42H656.24Z" fill="white"/>
<path d="M841.82 405.895L832.955 407.125V487.72C832.955 510.145 825.56 516.805 796.475 516.805C795.74 509.41 792.29 497.575 788.585 490.435C792.275 490.675 796.22 490.93 799.19 490.93C806.33 490.93 807.08 490.93 807.08 487.24V410.845L783.665 414.055C783.17 447.325 779.975 489.715 765.92 517.075C761.24 512.89 749.9 505.99 743.735 503.515C755.57 479.605 758.03 446.095 758.525 417.25L755.57 417.745C755.075 419.965 752.855 421.195 750.89 421.435L744.725 391.855L758.525 390.625V315.205H778.985C780.71 304.6 782.195 291.79 782.675 282.175L819.395 288.58C818.66 290.545 816.44 291.79 812.735 292.03C810.77 298.69 808.055 307.315 805.34 315.205H832.94V383.47L841.07 382.735L841.805 405.91L841.82 405.895ZM799.43 346.75C803.12 355.135 806.09 365.98 807.065 374.11H807.305L807.065 341.83H783.65V351.94L799.43 346.765V346.75ZM783.65 388.405L807.065 386.185V376.33L788.825 382.495C788.585 375.595 786.365 365.485 783.65 356.62V388.42V388.405ZM806.81 418.225C806.57 419.95 805.085 421.18 802.13 421.435V472.705H787.1V417.01L806.81 418.24V418.225ZM967.25 485.755H981.05V512.38H835.64V485.755H849.44V421.435H967.25V485.755ZM867.68 412.315V415.765H843.77V290.56H913.76V312.745H897.005V324.325H912.785V349.465C919.445 332.455 922.895 306.835 924.62 282.67L958.625 289.57C957.89 291.535 955.91 293.02 952.715 293.02C951.98 299.68 951.23 306.325 950 313.225H980.075V339.85H944.825C941.87 351.685 938.165 362.53 933.485 371.155C928.55 366.97 919.685 361.54 912.785 357.595V378.055H897.005V389.635H916.97V412.315H867.68ZM874.82 312.745H867.68V324.325H874.82V312.745ZM889.355 344.545H867.665V357.85H889.355V344.545ZM874.82 389.65V378.07H867.68V389.65H874.82ZM875.81 447.82V485.77H882.215V447.82H875.81ZM910.805 447.82H904.4V485.77H910.805V447.82ZM920.42 400.75V374.125H976.115V400.75H920.42ZM939.395 447.82H932.99V485.77H939.395V447.82Z" fill="white"/>
</g>
<defs>
<filter id="filter0_d_1_32" x="0.229957" y="0.100013" width="1009.68" height="545.835" filterUnits="userSpaceOnUse" color-interpolation-filters="sRGB">
<feFlood flood-opacity="0" result="BackgroundImageFix"/>
<feColorMatrix in="SourceAlpha" type="matrix" values="0 0 0 0 0 0 0 0 0 0 0 0 0 0 0 0 0 0 127 0" result="hardAlpha"/>
<feOffset dx="11.88" dy="11.88"/>
<feGaussianBlur stdDeviation="8.49"/>
<feColorMatrix type="matrix" values="0 0 0 0 0.101961 0 0 0 0 0.12549 0 0 0 0 0.219608 0 0 0 0.34 0"/>
<feBlend mode="normal" in2="BackgroundImageFix" result="effect1_dropShadow_1_32"/>
<feBlend mode="normal" in="SourceGraphic" in2="effect1_dropShadow_1_32" result="shape"/>
</filter>
</defs>
</svg>
