<svg width="494" height="80" viewBox="0 0 494 80" fill="none" xmlns="http://www.w3.org/2000/svg">
<path d="M453.557 0.440063H40.1866C18.3244 0.440063 0.601562 18.1628 0.601562 40.025C0.601562 61.8872 18.3244 79.6101 40.1866 79.6101H453.557C475.419 79.6101 493.142 61.8872 493.142 40.025C493.142 18.1628 475.419 0.440063 453.557 0.440063Z" fill="#FFF000"/>
<path d="M157.498 22.22L158.143 22.16L159.808 22.34L159.733 23.225C159.418 29.93 159.088 32.6 158.338 33.545C157.558 34.475 156.688 34.7 154.573 34.7C154.093 34.7 153.553 34.7 153.028 34.67C152.968 33.785 152.623 32.555 152.143 31.76C153.313 31.865 154.498 31.865 155.053 31.865C155.368 31.865 155.593 31.79 155.803 31.55C156.238 31.07 156.493 29.3 156.718 24.98H154.213C154.183 25.355 154.138 25.73 154.078 26.045L151.318 25.61C151.663 23.255 152.008 19.565 152.143 16.685H156.658V13.4H151.468V10.43H159.703V20.3H156.658V19.49H154.738L154.498 22.22H157.513H157.498ZM176.368 28.37V30.995H169.633V34.745H166.588V30.995H159.958V28.37H166.588V27.065H161.503V17.495H174.868V27.065H169.633V28.37H176.368ZM167.623 10.055V16.415H160.888V10.055H167.623ZM164.923 14.285V12.2H163.453V14.285H164.923ZM164.278 19.82V21.185H166.573V19.82H164.278ZM164.278 24.71H166.573V23.345H164.278V24.71ZM175.558 10.055V16.37H168.763V10.055H175.558ZM171.943 21.17V19.805H169.618V21.17H171.943ZM171.943 24.695V23.33H169.618V24.695H171.943ZM172.858 14.195V12.185H171.313V14.195H172.858Z" fill="#3000A4"/>
<path d="M188.385 21.275C189.21 19.745 189.585 17.105 189.645 14.885L192.165 15.2C192.195 17.72 191.76 20.675 190.8 22.55L188.4 21.26L188.385 21.275ZM207.525 30.785H213.81V33.86H197.505V30.785H204.315V25.79H199.365V22.8501H204.315V18.275H201.435C201.03 19.61 200.58 20.84 200.04 21.83C199.425 21.35 198.195 20.675 197.415 20.33C197.76 19.685 198.09 18.8901 198.375 17.9751L197.085 18.83C196.77 18.08 196.125 17.015 195.48 15.995V34.685H192.33V9.47003L196.185 9.68001C196.155 9.95001 195.945 10.115 195.495 10.19V14.42L196.86 13.595C197.505 14.45 198.255 15.515 198.78 16.4C199.215 14.63 199.5 12.635 199.71 10.7L203.34 11.45C203.28 11.66 203.07 11.795 202.695 11.795C202.56 12.92 202.38 14.09 202.14 15.245H204.3V9.47003L208.2 9.68001C208.17 9.98001 207.99 10.115 207.51 10.22V15.245H213.105V18.26H207.51V22.835H212.13V25.775H207.51V30.7701L207.525 30.785Z" fill="#3000A4"/>
<path d="M236.896 30.455H232.801V34.73H230.161V30.455H225.961V27.65H230.161V26.045H226.786V16.28H230.131V14.87H226.336V12.095H230.131V9.53003L233.416 9.71002C233.386 9.95002 233.236 10.115 232.771 10.16V12.08H236.596V14.855H232.771V16.265H236.326V26.03H232.801V27.635H236.896V30.44V30.455ZM229.006 18.53V20.105H230.446V18.53H229.006ZM229.006 22.22V23.825H230.446V22.22H229.006ZM234.001 20.105V18.53H232.501V20.105H234.001ZM234.001 23.825V22.22H232.501V23.825H234.001ZM245.626 31.37H251.266V34.07H236.701V31.37H242.416V27.335H237.931V24.635H250.411V27.335H245.626V31.37ZM242.041 14.39C241.981 14.6 241.801 14.735 241.456 14.705C241.021 15.695 240.196 17.405 239.446 18.74C240.496 20.285 241.471 22.085 241.951 23.255C241.891 23.285 241.846 23.315 239.461 24.245C238.981 22.775 237.916 20.69 236.701 18.77C237.616 17.105 238.546 15.08 239.056 13.745L242.026 14.39H242.041ZM250.861 10.595V13.295H237.301V10.595H250.861ZM243.931 24.17C243.391 22.73 242.251 20.675 240.916 18.74C241.876 17.075 242.896 15.08 243.406 13.745L246.406 14.39C246.331 14.63 246.136 14.735 245.791 14.735C245.341 15.695 244.486 17.375 243.706 18.725C244.801 20.225 245.896 21.98 246.406 23.165L243.946 24.185L243.931 24.17ZM248.506 24.245C247.921 22.775 246.661 20.69 245.251 18.77C246.301 17.105 247.366 15.08 247.951 13.745L250.951 14.435C250.891 14.645 250.681 14.75 250.366 14.75C249.856 15.71 248.926 17.39 248.116 18.74C249.271 20.24 250.441 22.025 250.996 23.225L248.506 24.245Z" fill="#3000A4"/>
<path d="M270.884 27.275C271.694 27.755 273.929 29.42 274.469 29.87L272.789 31.985C272.384 31.445 271.634 30.62 270.884 29.87V34.76H268.019V29.915C267.134 31.175 266.144 32.315 265.154 33.095C264.704 32.45 263.849 31.49 263.234 30.95C264.779 29.99 266.474 28.28 267.614 26.51H263.999V24.08H268.004V22.295L265.514 22.4C265.484 22.58 265.304 22.715 265.109 22.745L264.359 20.42L266.204 20.39C266.414 20.045 266.609 19.64 266.789 19.235H263.924V17.39H266.039V10.205H276.599V12.05H268.949V12.8H275.744V14.345H268.949V15.095H275.744V16.64H268.949V17.39H277.634V19.235H275.039C275.954 20.09 276.884 21.14 277.334 21.905L275.249 22.925C275.084 22.625 274.844 22.28 274.574 21.935L271.439 22.1001C271.379 22.2801 271.199 22.4001 270.824 22.4751V24.08H274.109V26.51H270.824V27.26L270.884 27.275ZM273.344 19.25H269.549C269.369 19.565 269.114 19.97 268.859 20.375L273.164 20.2701C272.954 20.0601 272.714 19.835 272.489 19.655L273.344 19.25ZM278.639 22.325H284.489C285.164 24.335 286.844 26.0901 288.824 26.9751C288.284 27.5151 287.459 28.61 287.084 29.3C285.209 28.235 283.604 26.525 282.674 24.68H278.714C277.964 26.39 276.689 28.205 275.234 29.33C274.784 28.82 273.899 27.965 273.314 27.56C274.619 26.63 275.744 24.995 276.329 23.315L278.624 23.96V22.325H278.639ZM283.259 31.175C282.854 30.635 282.464 30.1251 282.059 29.6451L284.309 28.595C285.674 30.065 287.114 32.09 287.684 33.56L285.284 34.715C285.149 34.31 284.939 33.89 284.699 33.425C281.279 33.635 277.904 33.83 275.609 33.935C275.549 34.175 275.339 34.31 275.159 34.37L274.139 31.355C274.964 31.355 275.924 31.355 276.974 31.325C277.649 29.915 278.339 28.0701 278.714 26.6451L282.134 27.605C282.029 27.785 281.819 27.92 281.444 27.92C281.039 28.91 280.454 30.14 279.869 31.265L283.289 31.16L283.259 31.175ZM288.629 17.9751C288.554 18.1551 288.329 18.275 288.014 18.275C286.064 20.15 282.539 21.455 278.609 22.235C278.294 21.545 277.619 20.63 277.064 20.045C280.484 19.595 283.904 18.575 285.569 17L288.644 17.99L288.629 17.9751ZM287.084 11.075C287.009 11.21 286.784 11.315 286.469 11.315C284.684 12.44 281.579 13.715 279.164 14.435C278.714 13.85 277.994 13.07 277.319 12.56C279.539 11.945 282.614 10.82 284.219 9.75504L287.084 11.06V11.075ZM287.864 14.465C287.789 14.645 287.594 14.735 287.279 14.735C285.494 16.145 282.389 17.375 279.479 18.125C279.074 17.51 278.384 16.6851 277.769 16.1451C280.364 15.6051 283.409 14.6 284.954 13.37L287.864 14.465Z" fill="#3000A4"/>
<path d="M304.666 21.02C303.841 22.19 302.986 23.27 302.101 24.23C301.786 23.42 300.976 21.74 300.496 20.99C302.956 18.455 305.476 13.985 306.961 9.60501L310.591 10.865C310.516 11.105 310.276 11.21 309.841 11.18C309.151 12.92 308.371 14.66 307.486 16.31L308.536 16.61C308.476 16.85 308.266 17.015 307.846 17.06V34.73H304.666V21.02ZM326.131 15.32V18.5H323.011V30.905C323.011 34.085 321.991 34.835 315.706 34.775C315.571 33.89 315.031 32.45 314.581 31.565C315.751 31.625 316.981 31.64 317.866 31.64C319.636 31.64 319.756 31.64 319.756 30.89V18.485H309.436V15.305H319.756V9.80002L323.716 9.98001C323.686 10.25 323.536 10.43 322.996 10.49V15.305H326.116L326.131 15.32ZM314.101 28.25C313.531 26.51 312.016 23.78 310.606 21.785L313.411 20.42C314.851 22.37 316.486 24.935 317.131 26.735L314.116 28.265L314.101 28.25Z" fill="#3000A4"/>
<path d="M120.72 65.78C120.72 66.755 120.72 66.86 120.945 66.86C121.275 66.86 121.305 66.8601 121.41 66.7251C121.635 66.3951 121.635 63.68 121.635 62.075C122.415 62.795 123.9 63.545 124.98 63.905C124.815 67.97 124.65 70.715 121.38 70.715H119.58C118.725 70.715 117.78 70.3851 117.195 69.7251C116.565 69.0651 116.31 68.255 116.31 65.765V61.37C115.32 64.805 113.685 68.12 111.03 70.7C110.145 69.845 108.21 68.465 106.995 67.88C107.91 67.025 108.705 66.11 109.38 65.135L106.53 66.635C106.14 65.555 105.315 64.055 104.505 62.675V66.05C104.505 69.26 103.68 70.67 98.8045 70.67C98.6695 69.56 98.1745 68.015 97.6945 66.875C97.2745 67.7 96.7795 68.45 96.2845 69.065C95.5945 68.285 94.1545 66.8 93.2695 66.125C94.3495 64.655 95.1445 62.165 95.5645 59.87L99.8546 61.085V59.2251H95.5046V48.875H108.765V59.2251H104.505V61.19L107.49 59.78C108.48 61.025 109.455 62.66 110.115 63.965C112.245 60.17 112.935 55.685 113.13 51.875H110.115V47.78H93.7045V43.385H99.7945V39.485L105.63 39.785C105.6 40.175 105.33 40.37 104.64 40.505V43.385H110.37V47.345H113.19V39.485L118.785 39.785C118.755 40.145 118.455 40.3701 117.795 40.4751V47.36H124.71V51.875H117.735C117.705 52.295 117.705 52.76 117.675 53.18L121.665 53.405C121.635 53.765 121.365 53.96 120.72 54.065V65.765V65.78ZM99.4346 66.365C99.7646 66.365 99.8546 66.2601 99.8546 65.9751V61.685H99.6595C99.2695 63.185 98.6845 64.865 97.9645 66.365H99.4346ZM99.8996 52.865V55.25H104.055V52.865H99.8996ZM121.785 40.055C123.135 41.6 124.335 43.685 124.86 45.23L120.93 47.105C120.51 45.605 119.325 43.34 118.08 41.705L121.785 40.07V40.055Z" fill="#3000A4"/>
<path d="M157.711 63.32V65.705C158.986 65.765 159.706 65.765 162.106 65.765C164.851 65.765 168.751 65.735 170.791 65.66C170.131 66.71 169.456 68.81 169.216 70.175H159.616C153.886 70.175 149.881 69.425 147.106 65.915C145.966 67.82 144.451 69.425 142.651 70.595C141.961 69.71 140.356 68.135 139.336 67.385C142.516 65.585 144.451 62.045 145.171 57.89L150.571 58.94C150.466 59.24 150.181 59.435 149.686 59.465C149.521 60.125 149.356 60.77 149.161 61.4C149.986 63.095 151.231 64.145 152.791 64.775V57.44H140.641V53.285H169.696V57.44H157.711V59.21H167.641V63.305H157.711V63.32ZM166.456 40.5201V52.25H144.616V40.5201H166.456ZM161.611 44.84V43.79H149.191V44.84H161.611ZM161.611 48.965V47.885H149.191V48.965H161.611Z" fill="#3000A4"/>
<path d="M216.255 61.325H209.865C209.175 62.57 208.365 63.62 207.48 64.565C210.33 65.345 212.91 66.14 214.92 66.83L212.1 70.7C209.745 69.785 206.625 68.705 203.16 67.655C199.53 69.425 194.775 70.235 188.385 70.76C188.025 69.38 187.305 67.715 186.585 66.695C190.38 66.56 193.56 66.305 196.245 65.75L194.7 65.36L194.565 65.555L189.945 64.175C190.56 63.35 191.28 62.375 192.015 61.325H185.73V57.53H194.58C194.97 56.87 195.36 56.255 195.765 55.625H188.52V45.965H195.24V44.66H185.97V40.565H216.03V44.66H206.43V45.965H213.48V55.625H201.915C201.75 55.925 201.45 56.09 200.835 56.045L199.92 57.515H216.27V61.31L216.255 61.325ZM192.975 49.67V51.965H195.24V49.67H192.975ZM197.49 61.325L197.1 61.91L202.41 63.185C203.13 62.66 203.79 62.045 204.345 61.325H197.505H197.49ZM199.725 44.66V45.965H201.945V44.66H199.725ZM199.725 51.965H201.945V49.67H199.725V51.965ZM208.725 49.67H206.43V51.965H208.725V49.67Z" fill="#3000A4"/>
<path d="M262.483 45.23C262.483 45.425 262.093 49.655 261.073 53.675L259.003 53.315C260.713 56.72 262.183 61.01 262.708 64.025L258.148 65.69C257.758 62.675 256.273 57.995 254.638 54.56L258.433 53.21L257.023 52.955C257.128 52.04 257.278 50.825 257.413 49.55H254.533V65.465C254.533 68.585 254.008 70.67 247.723 70.67C247.528 69.29 246.808 67.16 246.118 65.885C247.393 65.915 248.773 65.915 249.223 65.915C249.643 65.915 249.808 65.81 249.808 65.39V49.535H247.093C246.433 50.975 245.713 52.325 244.933 53.495L249.748 54.74C249.643 55.04 249.328 55.205 248.863 55.205C247.918 58.94 246.313 63.17 244.408 65.81C243.523 65.09 241.783 64.04 240.703 63.485C242.308 61.355 243.718 57.68 244.468 54.215H244.438C244.138 54.635 243.853 55.04 243.523 55.43C242.773 54.65 241.198 53.3 240.148 52.55V70.655H235.438V56.51C234.883 57.29 234.328 58.01 233.773 58.7C233.188 57.62 231.778 55.46 230.953 54.44C233.833 51.17 236.653 45.17 238.288 39.5L243.688 41.165C243.553 41.495 243.193 41.66 242.668 41.63C241.813 44.06 240.838 46.505 239.758 48.875L241.138 49.205C241.078 49.565 240.778 49.835 240.148 49.895V52.115C242.503 49.235 244.438 44.315 245.458 39.605L250.933 41.045C250.828 41.345 250.513 41.54 249.988 41.51C249.658 42.725 249.298 43.94 248.878 45.14H259.918L262.468 45.2L262.483 45.23Z" fill="#3000A4"/>
<path d="M290.638 65.735H285.853V70.61H281.953V65.735H277.078V61.61H281.953V60.065H278.053V47.885H281.923V46.505H277.573V42.44H281.923V39.56L286.678 39.815C286.648 40.145 286.423 40.34 285.793 40.445V42.44H290.248V46.505H285.793V47.885H289.948V60.065H285.853V61.61H290.638V65.735ZM281.263 51.125V52.43H282.403V51.125H281.263ZM281.263 55.4751V56.81H282.403V55.4751H281.263ZM286.573 52.43V51.125H285.388V52.43H286.573ZM286.573 56.825V55.49H285.388V56.825H286.573ZM297.253 45.785C297.193 46.04 296.953 46.205 296.503 46.205C296.008 47.42 295.093 49.415 294.283 51.0201C295.498 52.8501 296.638 54.92 297.193 56.33L293.563 57.74C293.008 55.94 291.763 53.42 290.323 51.05C291.373 49.025 292.453 46.565 293.008 44.9L297.268 45.785H297.253ZM301.873 65.9H308.323V69.86H290.638V65.9H297.088V61.805H291.973V57.845H307.303V61.805H301.873V65.9ZM307.798 40.715V44.675H291.133V40.715H307.798ZM298.948 57.62C298.288 55.85 296.953 53.36 295.348 51.005C296.488 48.98 297.643 46.58 298.228 44.915L302.518 45.8C302.413 46.1 302.188 46.265 301.738 46.265C301.213 47.45 300.268 49.3851 299.383 50.9751C300.688 52.7451 301.933 54.77 302.563 56.18L298.963 57.62H298.948ZM304.483 57.755C303.763 55.955 302.293 53.435 300.583 51.065C301.828 49.04 303.073 46.58 303.763 44.915L308.053 45.86C307.993 46.115 307.723 46.28 307.303 46.28C306.718 47.465 305.668 49.43 304.708 51.035C306.088 52.805 307.423 54.8601 308.083 56.2701L304.483 57.74V57.755Z" fill="#3000A4"/>
<path d="M332.578 61.58C333.493 62.135 336.118 63.965 336.763 64.52L334.303 67.625C333.913 67.07 333.253 66.245 332.562 65.495V70.67H328.378V65.825C327.523 67.01 326.578 68.06 325.633 68.84C324.973 67.895 323.697 66.455 322.812 65.69C324.582 64.61 326.413 62.81 327.763 60.905H323.803V57.365H328.393V55.625L325.708 55.73C325.678 55.985 325.453 56.15 325.213 56.195L324.162 52.925H326.428C326.593 52.565 326.788 52.175 326.953 51.785H323.742V49.205H326.173V40.295H339.343V42.875H330.463V43.565H338.263V45.695H330.463V46.385H338.263V48.515H330.463V49.205H340.558V51.785H337.843C338.893 52.805 339.868 54.02 340.363 54.965L337.318 56.375C337.153 56.045 336.928 55.655 336.628 55.235L333.283 55.4C333.148 55.535 332.923 55.595 332.593 55.655V57.395H336.223V60.575C337.303 59.435 338.157 57.95 338.652 56.45L341.728 57.305V55.37H341.833C341.338 54.35 340.423 53.075 339.598 52.265C343.633 51.77 347.652 50.63 349.617 48.83L354.072 50.24C353.967 50.465 353.713 50.63 353.248 50.63C350.893 52.895 346.963 54.425 342.343 55.385H349.123C349.903 57.65 351.913 59.645 354.328 60.665C353.548 61.445 352.333 63.05 351.808 64.07C349.573 62.795 347.712 60.89 346.527 58.835H341.938C340.993 60.83 339.553 62.87 337.843 64.175C337.183 63.455 335.878 62.21 335.023 61.625C335.323 61.43 335.578 61.205 335.833 60.965H332.562V61.625L332.578 61.58ZM335.158 51.785H331.228C331.123 51.815 331.002 51.815 330.867 51.815C330.672 52.145 330.448 52.505 330.178 52.895L334.633 52.835C334.438 52.64 334.273 52.445 334.078 52.28L335.158 51.785ZM346.783 65.84C346.423 65.345 346.092 64.895 345.732 64.46L349.048 62.915C350.623 64.715 352.317 67.175 352.947 68.975L349.408 70.67C349.243 70.205 349.048 69.695 348.748 69.125C344.788 69.425 340.888 69.65 338.173 69.785C338.113 70.085 337.843 70.25 337.588 70.31L336.117 65.99C337.167 65.99 338.382 65.99 339.688 65.96C340.407 64.295 341.098 62.255 341.488 60.65L346.498 62.03C346.363 62.285 346.078 62.45 345.553 62.45C345.133 63.5 344.532 64.715 343.947 65.885L346.798 65.825L346.783 65.84ZM352.348 41.795C352.243 41.99 351.958 42.125 351.523 42.125C349.363 43.475 345.598 45.005 342.673 45.89C342.043 45.035 340.963 43.895 339.988 43.145C342.613 42.455 346.348 41.15 348.178 39.905L352.333 41.81L352.348 41.795ZM353.173 45.98C353.068 46.205 352.813 46.34 352.393 46.34C350.203 48.08 346.437 49.58 342.822 50.465C342.267 49.58 341.248 48.365 340.333 47.585C343.438 47 347.143 45.815 348.943 44.375L353.173 45.98Z" fill="#3000A4"/>
<path d="M395.91 64.895H391.065C394.335 66.035 397.905 67.385 400.11 68.36L394.875 70.685C392.94 69.605 389.34 68 385.83 66.785L388.845 64.88H379.875L383.58 66.71C383.445 66.875 383.22 66.965 382.92 66.965C382.815 66.965 382.695 66.965 382.59 66.935C379.905 68.315 375.84 69.815 372.375 70.73C371.595 69.815 370.08 68.24 369.135 67.46C372.15 66.875 375.495 65.885 377.745 64.88H373.56V50.405H395.925V64.88L395.91 64.895ZM397.785 40.82V49.46H371.385V40.82H397.785ZM378.885 45.995V44.285H375.78V45.995H378.885ZM378.135 53.33V54.38H391.11V53.33H378.135ZM378.135 57.095V58.175H391.11V57.095H378.135ZM378.135 60.89V61.97H391.11V60.89H378.135ZM385.965 45.995V44.285H382.815V45.995H385.965ZM393.165 45.995V44.285H389.895V45.995H393.165Z" fill="#3000A4"/>
</svg>
