<svg width="809" height="83" viewBox="0 0 809 83" fill="none" xmlns="http://www.w3.org/2000/svg">
<g filter="url(#filter0_d_1_95)">
<path d="M43.675 19.12C43.42 19.525 42.85 19.735 42.025 19.69C40.99 20.92 39.595 22.375 38.215 23.665H48.625V30.415H1.28503V23.665H12.115C10.975 22.06 9.43003 20.26 8.03503 18.865L14.995 15.925C17.155 17.83 19.69 20.62 20.875 22.735L18.655 23.665H31.81L29.485 22.69C31.345 20.785 33.565 17.995 34.855 15.775L43.675 19.12ZM24.445 33.355V58.255C24.445 63.52 22.48 65.17 14.65 65.17C14.29 63.31 13.255 60.535 12.325 58.885C13.195 58.93 14.23 58.99 15.055 58.99C17.02 58.99 17.215 58.99 17.215 58.165V54.91H11.44V64.96H4.37503V33.355H24.43H24.445ZM17.23 39.595H11.455V41.755H17.23V39.595ZM11.455 49.495H17.23V47.17H11.455V49.495ZM36.16 34.39C36.115 34.96 35.695 35.26 34.66 35.47V55.06H27.55V33.925L36.16 34.39ZM45.34 57.385C45.34 62.335 44.305 65.275 33.685 65.125C33.325 63.115 32.14 59.965 31.06 58.06C32.56 58.165 34.15 58.21 35.335 58.21C37.705 58.21 37.96 58.21 37.96 57.28V32.575L46.885 32.935C46.78 33.505 46.42 33.91 45.34 34.075V57.385Z" fill="white"/>
<path d="M101.005 30.67H94.045C94.045 31.285 94.045 31.6 94.15 31.81C94.195 31.96 94.36 32.02 94.615 32.02C96.055 32.02 96.22 32.02 96.415 30.775C97.45 31.345 99.565 31.915 100.96 32.11C100.54 34.795 99.31 35.665 96.37 35.665H93.535C88.9 35.665 88.12 34.48 88.12 30.67H86.365C85.795 32.785 84.925 34.84 82.555 36.55H96.64V40.27H80.14V37.945L79 38.41C78.745 37.735 78.175 36.91 77.56 36.145V38.98C77.56 39.76 77.56 40.525 77.515 41.35H101.035V45.16H77.32C76.75 52.12 74.95 59.965 70.15 65.275C68.965 64.195 66.07 62.335 64.48 61.615C70.405 55.165 70.975 45.73 70.975 38.92V34.9C70.255 33.865 69.115 32.53 67.99 31.45V56.2H59.845V60.64H53.605V18.4H67.99V28.81C72.265 24.94 75.1 20.2 76.66 16.015L84.595 17.305C84.49 17.815 84.025 18.175 83.26 18.175L82.855 19.105H89.815L90.85 18.745L96.16 21.94C95.95 22.36 95.485 22.555 94.915 22.66C94.405 23.44 93.73 24.415 93.01 25.39H101.05V30.655L101.005 30.67ZM61.615 24.685H59.815V28.915H61.615V24.685ZM59.815 35.005V39.385H61.615V35.005H59.815ZM59.815 49.855H61.615V45.475H59.815V49.855ZM77.56 30.67V33.97C79.315 33.1 80.185 32.005 80.71 30.67H77.56ZM77.875 65.065V55.735H98.755V65.065H92.11V64.39H84.22V65.065H77.875ZM97.735 46.24V49.96H79.12V46.24H97.735ZM79.12 54.7V50.98H97.735V54.7H79.12ZM85.465 25.405C85.72 24.94 86.035 24.43 86.29 23.905H80.365L79.435 25.405H85.465ZM92.11 59.44H84.22V60.67H92.11V59.44Z" fill="white"/>
<path d="M151.54 43.57H135.76C140.095 48.625 146.485 53.365 152.98 56.155C151.12 57.7 148.6 60.79 147.31 62.86C141.745 59.875 136.435 55.33 132.04 50.125V65.035H124.045V50.8C119.665 55.855 114.355 60.235 108.775 63.235C107.53 61.27 104.965 58.24 103.21 56.635C109.81 53.755 116.41 48.79 120.685 43.585H104.86V36.16H124.045V30.85H108.835V23.425H124.045V16.045L133.63 16.555C133.585 17.125 133.12 17.485 132.025 17.695V23.425H147.595V30.85H132.025V36.16H151.525V43.585L151.54 43.57Z" fill="white"/>
<path d="M184.9 42.685C189.43 48.415 196.66 53.515 204.385 56.305C202.525 57.91 200.05 61.105 198.82 63.22C193.045 60.535 187.78 56.41 183.4 51.52V65.035H175.465V51.985C171.13 56.785 165.925 60.745 160.15 63.385C158.965 61.48 156.535 58.435 154.84 56.89C163.3 53.695 171.085 47.665 175.465 40.96V29.41H166.075L173.455 31.165C173.245 31.63 172.78 31.945 172.015 31.885C171.655 33.175 171.19 34.51 170.68 35.755C172.435 37.195 174.19 38.695 175.27 39.775L170.32 45.085C169.645 44.26 168.625 43.225 167.485 42.145C165.835 44.665 163.93 46.885 161.755 48.595C160.57 47.305 157.99 45.04 156.445 43.96C160.675 40.975 163.765 35.395 165.16 29.425H157.27V22.105H175.48V16.075L185.02 16.585C184.975 17.155 184.555 17.515 183.415 17.725V22.105H202.285V29.425H190.315L197.59 31.12C197.44 31.585 196.915 31.84 196.255 31.84C195.895 33.13 195.43 34.42 194.92 35.71C197.755 37.825 201.16 40.3 203.02 41.95L197.86 47.11C196.525 45.715 194.14 43.705 191.77 41.8C190.9 43.09 189.91 44.275 188.875 45.31C187.9 44.53 186.355 43.51 184.9 42.685ZM183.4 29.38V40.57L183.61 40.885C186.4 38.095 188.41 33.775 189.385 29.38H183.4Z" fill="white"/>
<path d="M257.095 2.39497V14.305H236.56L235.405 24.16C236.395 24.085 237.295 23.995 238.285 23.995C247.975 23.995 259.225 29.335 259.225 43.615C259.225 55.435 250.105 65.71 234.505 65.71C228.265 65.71 222.52 64.225 219.475 62.665L222.025 51.745C224.65 52.975 228.925 54.37 233.515 54.37C239.35 54.37 244.69 50.92 244.69 44.68C244.69 37.705 239.11 34.255 229.165 34.255C226.615 34.255 224.65 34.345 222.67 34.66L226.285 2.38H257.08L257.095 2.39497Z" fill="#FFFF00"/>
<path d="M285.595 48.625C282.475 57.985 278.365 67.765 273.685 75.4L264.235 76.3C267.28 67.675 269.74 57.985 271.045 49.615L285.58 48.625H285.595Z" fill="#FFFF00"/>
<path d="M290.68 33.76C290.68 16.18 297.175 1.48001 312.115 1.48001C328.21 1.48001 333.055 17.815 333.055 33.34C333.055 53.71 325.165 65.695 311.86 65.695C295.93 65.695 290.68 49.435 290.68 33.745V33.76ZM318.595 33.595C318.595 20.215 316.54 12.985 312.025 12.985C307.75 12.985 305.125 19.39 305.125 33.595C305.125 47.8 307.51 54.205 312.025 54.205C315.475 54.205 318.595 50.59 318.595 33.595Z" fill="#FFFF00"/>
<path d="M338.395 33.76C338.395 16.18 344.89 1.48001 359.83 1.48001C375.925 1.48001 380.77 17.815 380.77 33.34C380.77 53.71 372.88 65.695 359.575 65.695C343.645 65.695 338.395 49.435 338.395 33.745V33.76ZM366.31 33.595C366.31 20.215 364.255 12.985 359.74 12.985C355.465 12.985 352.84 19.39 352.84 33.595C352.84 47.8 355.225 54.205 359.74 54.205C363.19 54.205 366.31 50.59 366.31 33.595Z" fill="#FFFF00"/>
<path d="M386.11 33.76C386.11 16.18 392.605 1.48001 407.545 1.48001C423.64 1.48001 428.485 17.815 428.485 33.34C428.485 53.71 420.595 65.695 407.29 65.695C391.36 65.695 386.11 49.435 386.11 33.745V33.76ZM414.025 33.595C414.025 20.215 411.97 12.985 407.455 12.985C403.18 12.985 400.555 19.39 400.555 33.595C400.555 47.8 402.94 54.205 407.455 54.205C410.905 54.205 414.025 50.59 414.025 33.595Z" fill="#FFFF00"/>
<path d="M450.22 18.91C450.01 19.375 449.5 19.63 448.675 19.525C447.535 22.57 446.2 25.615 444.805 28.555L446.815 29.23C446.665 29.695 446.2 30.16 445.27 30.265V65.17H437.995V40.36C436.915 41.86 435.835 43.3 434.695 44.59C434.08 42.79 432.37 38.71 431.395 36.91C435.475 32.32 439.645 24.07 442.12 16.135L450.22 18.925V18.91ZM476.005 51.805C478.435 54.43 481.21 57.985 482.29 60.625L476.365 63.97C475.9 62.74 475.075 61.24 474.1 59.695C473.32 63.82 471.58 64.96 467.815 64.96H462.82C455.8 64.96 455.65 62.335 455.65 56.56C454.615 59.185 453.175 61.93 451.21 63.94L445.9 60.13C447.955 58.27 449.71 55.285 450.64 52.495L455.635 54.61V52.495L461.725 52.855C461.11 52.285 460.435 51.715 459.76 51.25L460.585 50.575H451V35.215H478.375V50.575H467.905C468.88 51.4 469.705 52.27 470.275 53.005L465.535 56.815C464.965 55.945 463.99 54.91 462.91 53.875C462.76 53.875 462.595 53.92 462.4 53.98V57.79C462.4 59.125 462.61 59.23 463.9 59.23H467.05C468.13 59.23 468.385 58.825 468.55 56.08C469.48 56.8 471.385 57.52 472.99 57.985C472.165 56.905 471.34 55.825 470.515 54.835L476.035 51.79L476.005 51.805ZM449.29 19.885H460.63V16.375L469.705 16.84C469.66 17.455 469.195 17.77 468.16 17.98V19.885H480.175V25.3H476.725L477.235 25.45C477.025 25.855 476.56 26.065 475.795 26.065L474.76 27.925H481.57V33.655H447.43V27.925H454.39C454.075 27.055 453.67 26.065 453.31 25.3H449.29V19.885ZM458.05 39.535V40.975H470.935V39.535H458.05ZM458.05 44.74V46.24H470.935V44.74H458.05ZM460.21 25.3C460.615 26.17 461.035 27.1 461.35 27.925H467.635C467.995 27.1 468.31 26.17 468.61 25.3H460.21Z" fill="white"/>
<path d="M484.93 31.705H532.27V36.91H484.93V31.705ZM512.155 57.175V58.42H532.27V63.79H484.93V58.42H504.88V57.175H489.775V52.54H504.88V51.46H491.11V38.05H525.925V51.46H512.155V52.54H527.425V57.175H512.155ZM525.1 17.575V30.46H492.04V17.575H525.1ZM498.13 41.815V43H504.88V41.815H498.13ZM498.13 47.695H504.88V46.51H498.13V47.695ZM517.525 22.33V21.19H499.27V22.33H517.525ZM517.525 26.875V25.735H499.27V26.875H517.525ZM518.56 43.015V41.83H512.17V43.015H518.56ZM518.56 47.71V46.525H512.17V47.71H518.56Z" fill="white"/>
<path d="M570.775 39.64C564.43 39.64 562.675 37.78 562.48 32.065L555.88 34.795C555.73 34.075 555.475 33.25 555.16 32.365C548.875 32.935 542.635 33.4 538.405 33.655C538.3 34.165 537.835 34.48 537.37 34.525L535.255 26.53C536.44 26.53 537.775 26.485 539.23 26.485C540.67 23.14 542.11 19.015 542.95 15.655L551.515 17.875C551.305 18.34 550.735 18.595 549.91 18.655C549.13 21.025 548.005 23.815 546.82 26.29L552.385 26.14C551.71 24.85 550.99 23.56 550.27 22.375L556.72 19.795C558.985 23.095 561.355 27.37 562.495 30.73V16.285L571.525 16.75C571.48 17.32 571.06 17.68 569.98 17.89V22.84C572.86 21.61 575.65 20.215 577.765 18.925L582.67 24.55C582.52 24.7 581.95 24.865 581.38 24.76C578.395 26.305 574.105 27.805 569.98 29.035V30.895C569.98 32.8 570.235 33.01 571.945 33.01H576.175C577.675 33.01 577.975 32.29 578.185 28.06C579.685 29.2 582.775 30.385 584.785 30.79C584.005 37.705 582.055 39.655 576.895 39.655H570.805L570.775 39.64ZM559.015 35.56V57.835C559.015 62.995 557.32 65.005 549.22 65.005C548.905 63.04 547.825 60.16 546.895 58.405C547.72 58.45 548.755 58.51 549.52 58.51C551.38 58.51 551.575 58.51 551.575 57.73V56.335H545.695V65.005H538.78V35.56H559H559.015ZM551.59 41.65H545.71V43.405H551.59V41.65ZM545.71 50.875H551.59V48.865H545.71V50.875ZM569.89 56.035C569.89 58 570.205 58.195 571.96 58.195H576.34C577.945 58.195 578.245 57.265 578.5 52.315C580.045 53.455 583.045 54.58 585.055 55.045C584.275 62.515 582.37 64.69 577.06 64.69H570.775C564.13 64.69 562.48 62.575 562.48 56.08V40.45L571.45 40.915C571.405 41.485 570.985 41.845 569.905 42.055V46.6C572.95 45.265 575.83 43.66 578.005 42.22L583.165 47.95C582.805 48.205 582.295 48.205 581.77 48.205C578.62 49.855 574.24 51.55 569.905 53.005V56.05L569.89 56.035Z" fill="white"/>
<path d="M626.47 17.515H637.81C639.505 21.49 643.27 25.3 647.86 27.31C646.57 29.005 644.605 32.41 643.69 34.63L642.865 34.12V44.275H615.94V34.27L615.07 34.84C614.755 33.865 614.095 32.155 613.375 30.61V35.56H609.655V47.065L613.885 46.135L614.71 52.735C609.76 54.34 604.555 55.885 601.09 56.86C601.045 57.43 600.625 57.79 600.16 57.895L597.325 49.585C598.765 49.33 600.475 49.015 602.38 48.61V35.56H598.255V28.495H602.38V16.735L611.14 17.2C611.095 17.77 610.675 18.13 609.64 18.28V28.495H612.325L612.01 27.925C615.1 26.17 618.04 22.87 619.585 19.36L626.44 21.79V17.515H626.47ZM618.115 65.11V45.46H640.75V64.9H633.28V63.61H625.24V65.11H618.13H618.115ZM625.435 32.83C625.9 33.805 626.305 35.05 626.62 36.13V32.215H621.625V33.865L625.435 32.83ZM622.705 38.56C622.495 37.48 622.09 35.83 621.625 34.48V39.025H626.62V37.33L622.705 38.575V38.56ZM626.47 23.095V22.69C626.32 22.735 626.11 22.735 625.9 22.69C625.12 24.13 624.25 25.585 623.215 26.965H635.23C634.255 25.675 633.37 24.385 632.605 23.095H626.47ZM633.28 50.89H625.24V52.18H633.28V50.89ZM625.24 58.21H633.28V56.92H625.24V58.21ZM636.835 33.865V32.215H631.78V36.655C632.185 35.365 632.65 33.865 632.86 32.785L636.835 33.865ZM631.78 39.025H636.835V35.41C636.37 36.385 635.755 37.63 635.185 38.5C634.045 38.095 632.965 37.72 631.78 37.315V39.01V39.025Z" fill="white"/>
<path d="M698.395 58.105V64.345H663.325V58.105H667.555V29.59H676.48C676.69 28.72 676.84 27.73 676.945 26.755H665.65V20.56C664.51 23.5 663.13 26.545 661.63 29.485V64.96H654.715V40.42C654.04 41.29 653.38 42.115 652.705 42.85C652.09 40.99 650.125 36.82 648.94 34.96C653.17 30.415 657.235 23.35 659.62 16.24L666.43 18.46C666.22 19.135 665.965 19.75 665.71 20.425H677.725C677.875 18.925 677.98 17.485 678.04 16.195L685.93 16.345C685.72 17.68 685.525 19.075 685.255 20.425H697.48V26.77H683.965C683.755 27.745 683.545 28.735 683.29 29.605H694.84V58.12H698.395V58.105ZM674.11 34.945V36.91H687.985V34.945H674.11ZM687.985 41.965H674.11V43.975H687.985V41.965ZM674.11 48.88V50.95H687.985V48.88H674.11ZM674.11 58.105H687.985V55.945H674.11V58.105Z" fill="white"/>
<path d="M718.045 48.67V55.585C721.3 56.56 724.6 56.56 733.51 56.56C739.24 56.56 746.755 56.515 750.685 56.305C749.545 58 748.315 61.465 747.85 63.73H727.735C718.705 63.73 712.57 62.59 708.4 57.28C707.89 60.535 707.215 63.415 706.24 65.74C704.905 64.81 702.115 63.52 700.42 62.86C702.535 57.865 703 48.685 703.105 39.97L710.95 41.005C710.845 41.515 710.44 41.83 709.66 41.875L709.51 46.42C709.975 47.92 710.545 49.21 711.205 50.335V37.645H701.515V31.045H711.055V27.235H703.015V20.785H711.055V15.985L719.56 16.45C719.515 17.02 719.095 17.32 718.06 17.485V20.785H724.345V27.235H718.06V31.045H725.695V37.645H718.06V42.235H724.81V48.685H718.06L718.045 48.67ZM739.705 31.345V24.325H726.04V17.725H746.875V39.385H739.705V37.78H734.545V45.775C734.545 47.68 734.8 47.89 736.6 47.89H741.145C742.795 47.89 743.11 47.02 743.305 41.5C744.805 42.64 747.895 43.825 749.8 44.29C749.02 52.33 747.175 54.55 741.805 54.55H735.52C729.235 54.55 727.315 52.585 727.315 45.88V31.345H739.69H739.705Z" fill="white"/>
<path d="M756.61 30.1C759.34 31.135 763 32.935 764.755 34.48L760.375 40.51C758.77 38.965 755.275 36.85 752.485 35.605L756.61 30.085V30.1ZM753.265 60.73C755.17 56.65 757.75 50.215 759.76 44.02L765.85 47.89C764.155 53.41 762.235 58.87 760.585 62.89C760.945 63.295 761.095 63.715 761.095 64.075C761.095 64.39 761.05 64.645 760.885 64.855L753.25 60.73H753.265ZM775.96 39.85L779.68 40.165C779.68 40.675 779.635 41.5 779.575 42.175C779.11 55.33 778.6 60.685 777.145 62.485C775.18 65.065 772.81 65.065 767.35 65.065C767.245 63.055 766.48 60.325 765.445 58.51C767.2 58.72 768.79 58.72 769.72 58.72C770.395 58.72 770.86 58.57 771.37 58.045C771.985 57.175 772.45 54.025 772.765 46.285H770.86L770.71 47.425L764.365 46.81C765.19 42.175 765.97 35.05 766.33 29.38H773.245V24.22H765.925V22.21L762.37 27.01C760.765 25.405 757.165 23.2 754.375 21.91L758.545 16.45C760.915 17.38 763.96 18.925 765.925 20.32V17.635H779.905V36.76H773.26V35.785H772.12C771.97 37.18 771.865 38.575 771.715 39.91H774.55L775.99 39.865L775.96 39.85ZM795.355 45.625C795.505 46.555 795.715 47.425 795.925 48.31C796.75 47.59 797.53 46.81 798.085 46.195L802.63 51.97C802.42 52.12 802.12 52.18 801.805 52.18C801.55 52.18 801.295 52.135 801.025 52.03C800.35 52.54 799.165 53.32 797.98 54.085C799.06 56.245 800.56 58.06 802.42 59.29C800.92 60.58 798.805 63.265 797.875 65.11C795.445 63.31 793.705 60.775 792.415 57.73L792.775 61.54C788.755 62.515 784.57 63.505 781.84 64.12C781.735 64.63 781.33 64.945 780.91 65.05L778.585 57.88C779.515 57.775 780.595 57.625 781.735 57.415V45.61H779.98V39.475H782.095V17.305H800.5V23.125H788.845V24.82H799.165V30.385H788.845V32.08H799.165V37.645H788.845V39.445H801.58V45.58H795.34L795.355 45.625ZM788.335 56.35L791.635 55.78C790.6 52.795 789.88 49.33 789.415 45.625H788.335V56.35Z" fill="white"/>
</g>
<defs>
<filter id="filter0_d_1_95" x="0.235034" y="0.430011" width="808.425" height="81.9" filterUnits="userSpaceOnUse" color-interpolation-filters="sRGB">
<feFlood flood-opacity="0" result="BackgroundImageFix"/>
<feColorMatrix in="SourceAlpha" type="matrix" values="0 0 0 0 0 0 0 0 0 0 0 0 0 0 0 0 0 0 127 0" result="hardAlpha"/>
<feOffset dx="2.49" dy="2.49"/>
<feGaussianBlur stdDeviation="1.77"/>
<feColorMatrix type="matrix" values="0 0 0 0 0.101961 0 0 0 0 0.12549 0 0 0 0 0.219608 0 0 0 0.34 0"/>
<feBlend mode="normal" in2="BackgroundImageFix" result="effect1_dropShadow_1_95"/>
<feBlend mode="normal" in="SourceGraphic" in2="effect1_dropShadow_1_95" result="shape"/>
</filter>
</defs>
</svg>
