<svg width="592" height="51" viewBox="0 0 592 51" fill="none" xmlns="http://www.w3.org/2000/svg">
<path d="M4.55525 14.95C7.31525 16 11.0202 17.815 12.7902 19.375L8.36526 25.48C6.74526 23.92 3.20525 21.775 0.385254 20.53L4.55525 14.95ZM1.16524 45.91C3.10024 41.785 5.69524 35.275 7.73524 29.02L13.8853 32.935C12.1603 38.515 10.2402 44.035 8.57524 48.1C8.93524 48.52 9.10025 48.94 9.10025 49.3C9.10025 49.615 9.04027 49.87 8.89027 50.08L1.18025 45.91H1.16524ZM6.47525 1.13496C9.29525 2.22996 12.9852 4.16496 14.8152 5.76996L10.3303 11.815C8.71026 10.195 5.06524 7.95995 2.24524 6.65495L6.46028 1.13496H6.47525ZM48.7452 2.37999V43.03C48.7452 48.4 47.1253 50.635 39.3103 50.635C39.0553 48.76 38.0053 45.475 37.0153 43.705C38.6353 43.81 40.4053 43.81 40.9753 43.81C41.6053 43.81 41.8152 43.555 41.8152 42.88V33.7H38.2153C37.4353 39.85 35.6053 46.045 31.7053 50.38C30.5053 49.24 27.6853 47.305 26.0803 46.57C27.0703 45.475 27.9553 44.275 28.6303 42.97H20.8152V46.36H14.4103V24.52H19.0453V17.275H13.1053V10.45H19.0453V0.804962L27.2352 1.26996C27.1902 1.79496 26.8152 2.10998 25.7802 2.31998V10.45H30.9402V17.275H25.7802V24.52H30.4753V38.695C32.0953 33.64 32.3053 28.015 32.3053 23.17V2.37999H48.7753H48.7452ZM23.9353 36.52V31H20.8152V36.52H23.9353ZM38.8453 23.185C38.8453 24.43 38.8453 25.6899 38.8003 27.0399H41.8303V21.31H38.8602V23.185H38.8453ZM41.8152 9.05496H38.8453V14.635H41.8152V9.05496Z" fill="white"/>
<path d="M57.7154 14.9949C60.6404 16.0899 64.4354 18.01 66.3704 19.69L61.8854 25.78C60.2204 24.115 56.4704 21.865 53.5454 20.575L57.7154 14.9949ZM54.5354 45.58C56.6654 41.47 59.6504 34.945 61.9304 28.69L68.0204 32.86C66.0404 38.485 63.8504 43.96 61.9304 48.025C62.2904 48.445 62.4554 48.865 62.4554 49.27C62.4554 49.585 62.3504 49.84 62.2454 50.11L54.5354 45.58ZM68.9204 5.87497L64.4354 11.875C62.7104 10.15 58.9604 7.86999 55.9904 6.45999L60.2054 0.939957C63.1304 2.13996 66.9854 4.05997 68.9054 5.78497V5.04999H81.7304V0.72998L90.6404 1.19498C90.5954 1.76498 90.1754 2.12495 89.1254 2.28995V5.04999H102.415V14.695H95.4254V10.48H75.5654V14.695H68.8904V5.88998L68.9204 5.87497ZM100.3 42.31H96.3404C99.1604 43.555 101.92 44.86 103.735 45.85L98.0054 50.275C95.5604 48.76 91.2254 46.36 87.4304 44.65L89.8304 42.31H82.4354L85.7204 44.71C85.5104 44.92 85.1504 45.025 84.7754 45.025C81.9554 47.005 76.3304 49.1949 71.6954 50.2899C70.7504 48.8349 68.9804 46.585 67.6754 45.19C70.4954 44.56 73.6754 43.465 76.2704 42.325H72.8354V31.075C71.8904 31.285 70.9004 31.495 69.9704 31.645C69.2354 30.13 67.4654 27.2649 66.3254 25.9149C68.5154 25.5999 70.7054 25.24 72.8354 24.82V23.725C72.3104 23.935 71.8004 24.145 71.2754 24.295C70.3904 22.945 68.6204 20.86 67.2554 19.66C70.2854 18.775 73.5104 17.005 75.4304 15.385L76.9454 16.33V12.055H94.0904V16.06C94.3004 15.91 94.4504 15.745 94.6604 15.535L101.8 18.865C101.485 19.225 100.915 19.435 100.135 19.33C98.4704 20.845 96.5354 22.255 94.3454 23.5H100.285V42.31H100.3ZM81.2804 18.97C81.0704 19.285 80.7104 19.435 80.0804 19.39C78.4604 20.74 75.9104 22.36 73.2554 23.515H78.3104C79.5554 23.2 80.7554 22.84 81.9104 22.42V17.215H78.4154L81.2804 18.985V18.97ZM79.8254 33.46H93.0104V32.32H79.8254V33.46ZM93.0104 37.1649H79.8254V38.365H93.0104V37.1649ZM93.0104 27.475H85.7654C84.6704 27.895 83.5754 28.255 82.4354 28.615H93.0104V27.475ZM88.8404 17.215V19.615C90.2954 18.88 91.6004 18.1 92.7554 17.215H88.8404Z" fill="white"/>
<path d="M119.2 31.51L123.31 30.055L124.72 36.625C119.62 39.025 114.191 41.365 110.546 42.88C110.501 43.45 110.125 43.87 109.66 44.02L106.375 35.74C107.995 35.275 109.975 34.645 112.165 33.91V20.155H107.636V13.015H112.165V1.23997L120.715 1.70497C120.67 2.27497 120.25 2.58999 119.2 2.75499V13.015H123.625V20.155H119.2V31.51ZM134.32 39.115C134.32 42.295 134.68 42.655 137.755 42.655H146.516C149.231 42.655 149.74 41.605 150.22 36.61C151.84 37.705 154.75 38.905 156.79 39.325C155.905 46.825 153.715 49.39 147.25 49.39H137.035C129.265 49.39 127.136 47.2 127.136 39.13V26.935L123.641 28.45L120.82 21.73L127.121 19.075V5.99495L135.82 6.45999C135.775 7.02999 135.355 7.34496 134.305 7.55496V16L137.125 14.8V0.72998L145.72 1.19498C145.675 1.76498 145.255 2.07998 144.205 2.22998V11.77L147.91 10.21L149.426 9.21999L155.365 11.35C155.215 11.665 154.9 12.025 154.435 12.295C154.435 22.36 154.33 27.775 154.18 29.965C153.97 34.87 150.85 35.755 145.84 35.755C145.63 33.88 145.061 31.015 144.281 29.5C144.956 29.56 145.841 29.56 146.261 29.56C146.786 29.56 147.04 29.41 147.145 28.63C147.25 28 147.25 25.03 147.25 18.265L144.22 19.57V37.8699H137.125V22.645L134.305 23.845V39.16L134.32 39.115Z" fill="white"/>
<path d="M188.575 41.11H208.75V48.565H160.9V41.11H180.445V29.38H165.955V21.925H180.445V11.71H163.405V4.255H206.095V11.71H188.59V21.925H204.01V29.38H188.59V41.11H188.575Z" fill="white"/>
<path d="M274.045 32.245V39.595H256.735V50.23H248.92V39.595H225.67V32.245H233.755V20.05C232.87 21.145 231.925 22.195 230.995 23.08C229.585 21.625 226.72 19.06 224.89 17.815C229.375 13.96 233.485 7.07501 235.63 0.505005L244.705 3.32497C244.495 3.78997 243.925 4.10498 243.145 3.99998C242.89 4.73498 242.575 5.40997 242.26 6.14497H270.925V13.495H256.75V18.76H269.725V25.795H256.75V32.26H274.06L274.045 32.245ZM248.92 13.48H238.39C237.295 15.355 236.095 17.125 234.79 18.745H248.92V13.48ZM241.36 32.245H248.92V25.78H241.36V32.245Z" fill="white"/>
<path d="M289.675 12.13V19.9C289.675 28.6 288.835 41.995 283.945 50.23C282.64 48.985 279.46 46.84 277.75 46.06C282.13 38.665 282.445 27.61 282.445 19.9V5.40997H300.79V0.714966L310.27 1.23997C310.225 1.80997 309.805 2.18499 308.71 2.37999V5.39496H327.205V12.115H312.925V12.16L320.95 12.52C320.905 13.09 320.485 13.45 319.435 13.66V15.385H326.89V21.175H319.435V28.675H297.235V21.175H290.77V15.385H297.235V12.1H289.675V12.13ZM319.96 30.22L324.91 32.41C324.76 32.83 324.49 32.98 324.175 33.19C322.3 36.895 319.645 39.865 316.405 42.265C319.795 43.045 323.65 43.615 327.82 43.93C326.26 45.49 324.325 48.52 323.395 50.44C317.56 49.765 312.505 48.505 308.185 46.585C303.28 48.46 297.715 49.66 291.61 50.44C291.04 48.565 289.63 45.745 288.49 44.14C292.87 43.78 297.04 43.15 300.79 42.16C299.02 40.75 297.4 39.19 295.99 37.36L299.11 36.265H290.98V30.43H318.7L319.945 30.22H319.96ZM311.935 15.4149V12.13H298.225V12.175L305.935 12.535C305.89 13.105 305.41 13.465 304.375 13.675V15.4H311.935V15.4149ZM303.655 36.265C304.96 37.465 306.52 38.5 308.35 39.445C310.18 38.515 311.74 37.465 313.15 36.265H303.67H303.655ZM311.935 23.23V21.205H304.375V23.23H311.935Z" fill="white"/>
<path d="M379.585 29.23H364.945C364.735 29.44 364.375 29.59 363.85 29.485C363.7 29.8 363.49 30.115 363.28 30.415H375.265L376.51 30.37L379.585 30.52C379.585 30.985 379.54 31.57 379.54 32.14C379.33 43.03 379.075 46.945 378.13 48.355C377.245 49.705 375.94 50.44 371.62 50.29C371.575 49.87 371.515 49.36 371.41 48.835L369.43 49.51C369.385 49.09 369.28 48.625 369.175 48.1C364.48 48.565 359.905 48.94 356.77 49.195C356.725 49.615 356.41 49.87 355.99 49.93L354.37 45.085L361.87 44.77V43.045H356.35V38.665C355.825 39.085 355.255 39.55 354.73 39.91C354.475 39.55 354.1 38.98 353.695 38.395C352.6 42.82 350.875 46.945 348.07 50.17C346.93 49.135 344.215 47.305 342.7 46.63C344.11 45.01 345.205 43.24 346.09 41.32H339.055V45.805H332.905V3.11499H347.08V38.755C348.955 33.13 349.165 26.875 349.165 21.61V1.81H378.97V12.13H355.42V21.61C355.42 25.15 355.27 29.215 354.685 33.34C355.93 32.14 357.085 30.73 358.075 29.215H356.515V21.235H379.6V29.215L379.585 29.23ZM340.81 9.47498H339.04V13.75H340.81V9.47498ZM339.04 19.9V24.325H340.81V19.9H339.04ZM339.04 34.915H340.81V30.49H339.04V34.915ZM372.295 6.31H355.405V7.65999H372.295V6.31ZM357.025 20.17V17.245H364.12V20.17H357.025ZM357.235 13.285H364.06V16.21H357.235V13.285ZM361.87 34.39H360.46C360.145 34.81 359.785 35.17 359.47 35.59H361.87V34.39ZM360.46 40.12H361.87V38.5H360.46V40.12ZM361.345 24.535V25.945H362.965V24.535H361.345ZM365.2 12.55L372.085 12.97C372.04 13.435 371.665 13.705 370.78 13.855V20.575H365.2V12.55ZM371.77 43.03C372.13 43.915 372.505 44.86 372.805 45.745C372.91 45.64 373.06 45.535 373.165 45.325C373.525 44.59 373.69 41.935 373.84 34.375H366.595V35.575H372.325V43.03H371.755H371.77ZM368.125 38.5H366.61V40.12H368.125V38.5ZM366.61 44.545L368.02 44.44C367.915 44.125 367.765 43.87 367.66 43.555L369.385 43.03H366.625V44.545H366.61ZM367.03 24.535V25.945H368.695V24.535H367.03ZM372.04 16.195V13.27H379.135V16.195H372.04ZM379.33 17.245V20.17H372.04V17.245H379.33ZM372.82 24.535V25.945H374.545V24.535H372.82Z" fill="white"/>
<path d="M389.695 4.04498H427.06V50.215H418.975V47.14H397.345V50.215H389.68V4.04498H389.695ZM418.99 11.44H397.36V15.97H418.99V11.44ZM418.99 23.11H397.36V27.91H418.99V23.11ZM397.36 39.73H418.99V35.035H397.36V39.73Z" fill="white"/>
<path d="M443.32 25.06C441.91 26.995 440.395 28.765 438.895 30.325C438.115 28.39 436.135 24.325 434.98 22.45C439.78 17.755 444.73 9.11498 447.595 0.819977L456.355 3.84996C456.1 4.37496 455.515 4.62998 454.69 4.52498C453.385 7.70498 451.87 10.885 450.205 14.005L452.546 14.635C452.441 15.16 451.975 15.58 450.985 15.73V50.23H443.32V25.06ZM485.275 21.625L471.31 22.93C472.615 33.715 475.06 42.3099 477.46 42.3699C478.45 42.3699 479.08 39.61 479.335 33.565C480.955 35.38 483.505 37.375 485.59 38.2C484.39 48.1 482.05 50.2449 476.935 50.2449H476.725C469.12 50.1999 465.205 38.305 463.48 23.725L453.325 24.67L452.59 17.365L462.745 16.435C462.385 11.38 462.22 6.17495 462.22 1.16495L472.075 1.68996C472.03 2.36496 471.505 2.72498 470.305 2.88998C470.2 7.05998 470.305 11.44 470.62 15.715L484.54 14.47L485.275 21.655V21.625ZM478.09 0.984955C480.7 3.59495 483.925 7.28497 485.275 9.95497L479.08 13.81C477.94 11.26 474.91 7.29998 472.3 4.47998L478.09 0.984955Z" fill="white"/>
<path d="M520.3 27.505C521.08 29.59 522.07 31.525 523.225 33.235C525.835 31.51 528.535 29.425 530.41 27.655L537.295 33.13C537.085 33.385 536.665 33.49 536.155 33.49C535.945 33.49 535.735 33.49 535.48 33.43C533.5 34.78 530.365 36.61 527.56 38.065C530.53 40.51 534.175 42.34 538.81 43.48C537.145 45.04 534.955 48.22 533.905 50.26C526.975 48.13 522.13 44.575 518.59 39.685L518.95 45.835C511.45 47.185 503.53 48.49 498.37 49.33C498.22 49.855 497.8 50.17 497.38 50.26L494.56 42.445L499.615 41.875V37.18C497.635 38.02 495.595 38.695 493.57 39.265C492.475 37.495 490.285 34.63 488.725 33.07C494.035 31.87 499.57 29.845 504.04 27.49H489.4V21.13H509.62V19.15H495.085V13.045H509.62V11.11H492.52V4.74998H509.62V0.684998L518.845 1.14999C518.8 1.77999 518.38 2.07996 517.285 2.28996V4.73497H535V11.095H517.285V13.03H533.125V19.135H517.285V21.115H537.76V27.475H520.3V27.505ZM508.78 33.7C508.675 34.225 508.21 34.69 507.22 34.84V40.945C510.865 40.48 514.72 39.955 518.425 39.43C516.445 36.61 514.885 33.28 513.52 29.47C511.645 30.925 509.605 32.23 507.43 33.49L508.78 33.7Z" fill="white"/>
<path d="M591.85 16.3H577.825V20.6199H590.545V27.505H577.825V32.2H591.22V39.235H577.825V50.23H570.01V16.3H568.39C566.41 20.215 564.22 23.8599 561.925 26.6649C560.725 25.2549 558.28 22.855 556.615 21.505V50.215H549.115V24.895C547.765 26.77 546.355 28.4349 544.945 29.9949C544.21 28.0599 542.335 24.055 541.24 22.225C545.83 17.53 550.57 8.97996 553.39 0.804962L561.88 3.77498C561.67 4.23998 561.1 4.50995 560.26 4.44995C558.955 7.62995 557.44 10.81 555.835 13.93L558.175 14.56C558.025 15.085 557.545 15.505 556.615 15.595V20.8C560.365 16.165 563.905 8.39498 565.885 1.10498L574.795 3.75996C574.585 4.22496 574.015 4.53998 573.235 4.43498C572.71 5.94998 572.14 7.50998 571.57 9.06998H591.85V16.255V16.3Z" fill="white"/>
</svg>
