<svg width="789" height="123" viewBox="0 0 789 123" fill="none" xmlns="http://www.w3.org/2000/svg">
<path d="M11.4892 59.0296C5.75923 55.8346 2.74429 50.6896 2.74429 45.4546C2.74429 35.2246 11.1743 28.6846 21.8843 28.6846C34.1543 28.6846 39.9593 36.4546 39.9593 44.2246C39.9593 49.2196 37.1843 54.6946 30.8843 58.1296V58.2946C36.9293 61.0696 41.9243 66.3946 41.9243 74.0746C41.9243 85.1146 33.2543 92.3896 20.9843 92.3896C7.81425 92.3896 0.779297 84.2896 0.779297 75.4546C0.779297 67.8496 5.27923 62.3746 11.4892 59.2696V59.0296ZM29.8043 75.0646C29.8043 69.0196 25.7092 65.1646 20.3242 63.3646C15.6592 65.0896 12.8843 69.4096 12.8843 74.3296C12.8843 79.5646 16.0793 84.1396 21.3143 84.1396C26.5493 84.1396 29.8193 79.8946 29.8193 75.0646H29.8043ZM14.0993 44.8846C14.0993 49.6246 17.5342 52.8946 22.3642 54.6946C25.7992 53.2996 28.6642 49.4596 28.6642 45.2896C28.6642 41.1196 26.6243 36.7846 21.4643 36.7846C16.3043 36.7846 14.0993 40.9546 14.0993 44.8846Z" fill="#FFE900"/>
<path d="M106.979 56.0148H84.014C87.794 69.2598 95.204 79.2948 108.389 83.7198C106.529 85.3848 104.039 88.8348 102.824 91.0698C90.5389 86.2698 83.249 77.4498 78.584 65.1048C75.059 75.5898 68.159 84.9948 54.209 91.1448C53.054 88.9698 50.759 86.1498 48.584 84.4248C64.199 78.0948 70.2139 67.7298 72.4489 56.0148H49.799V48.0798H73.529C73.979 42.3798 73.919 36.5598 73.979 30.7998L84.1489 31.4448C84.0289 32.1498 83.4439 32.5998 82.3639 32.7948C82.3039 37.7148 82.244 42.9048 81.794 48.0798H106.994V56.0148H106.979Z" fill="#FFE900"/>
<path d="M135.69 58.5195L136.455 65.1045C134.145 65.8695 131.85 66.6345 129.54 67.3395V82.8195C129.54 89.7345 126.915 91.0095 116.94 91.0095C116.685 89.0895 115.725 85.9545 114.765 83.9745C117.255 84.1095 119.94 84.1095 120.78 84.1095C121.68 84.0495 121.995 83.7945 121.995 82.8945V69.6495L116.295 71.3745C116.235 72.0195 115.725 72.3945 115.2 72.5295L112.83 63.8295C115.32 63.3195 118.455 62.6145 121.98 61.7895V49.8195H113.79V42.7245H121.98V30.8295L131.25 31.2195C131.19 31.9245 130.74 32.2995 129.525 32.4945V42.7245H135.915V49.8195H129.525V59.9895L135.66 58.5195H135.69ZM145.92 48.1545C145.92 50.5845 146.565 50.8995 150.525 50.8995H162.3C165.63 50.8995 166.2 49.8795 166.65 43.5495C168.255 44.6445 171.45 45.8595 173.565 46.2345C172.605 55.3845 170.37 57.7545 162.945 57.7545H149.835C140.745 57.7545 138.315 55.5795 138.315 48.2295V30.7695L147.66 31.2795C147.6 31.8495 147.09 32.2995 145.935 32.4345V39.2745C152.52 37.6695 159.24 35.5695 163.59 33.5145L169.545 39.3345C169.29 39.5895 168.78 39.5895 167.94 39.5895C162.315 41.8995 153.735 43.9995 145.935 45.5445V48.1695L145.92 48.1545ZM139.335 91.1445V61.5195H169.53V90.7545H161.91V88.5795H146.55V91.1445H139.32H139.335ZM161.91 67.9845H146.55V71.9445H161.91V67.9845ZM146.55 82.1895H161.91V78.0345H146.55V82.1895Z" fill="#FFE900"/>
<path d="M194.353 54.2294C196.138 56.7194 200.938 64.2044 201.973 66.0044L198.013 71.5094C197.248 69.4694 195.778 66.4544 194.368 63.5744V91.0844H187.393V66.7694C185.728 71.8244 183.748 76.3694 181.513 79.6244C180.808 77.5094 179.203 74.5694 178.123 72.8444C181.768 67.7894 185.158 58.8944 186.823 51.2144H179.593V44.1194H187.393V30.7544L196.033 31.2644C195.973 31.8344 195.523 32.2244 194.368 32.4194V44.1194H200.758V51.2144H194.368V54.2144L194.353 54.2294ZM214.123 79.6844C213.988 80.0744 213.478 80.2544 212.773 80.1944C210.598 83.2694 206.818 87.1694 203.233 89.6594C202.153 88.1894 200.098 86.2094 198.493 84.9944C201.883 82.8194 205.408 79.1744 207.448 76.0394L214.108 79.6844H214.123ZM238.948 75.5294H223.468V84.3644C223.468 90.4394 220.843 91.2044 212.713 91.2044C212.458 89.2844 211.498 86.7944 210.658 84.9944C211.873 85.0544 213.088 85.1144 214.048 85.1144C216.223 85.1144 216.358 84.9944 216.358 84.2894V75.5294H200.998V69.3944H238.933V75.5294H238.948ZM212.143 42.5144V39.5144H201.328V33.4394H238.813V39.5144H227.548V42.5144H237.148V58.9544H203.173V42.5144H212.128H212.143ZM235.498 66.8294H205.183V61.2644H235.498V66.8294ZM209.458 48.0794V53.3894H212.848V48.0794H209.458ZM221.608 48.0794H218.023V53.3894H221.608V48.0794ZM221.608 42.5144V39.5144H218.083V42.5144H221.608ZM233.698 89.6594C232.093 86.9744 228.448 82.7444 225.448 79.7444L230.878 76.1594C233.953 78.9794 237.718 82.8794 239.443 85.6244L233.683 89.6594H233.698ZM230.563 53.3894V48.0794H226.783V53.3894H230.563Z" fill="#FFE900"/>
<path d="M313.979 53.1345L317.759 53.3296C317.759 53.8996 317.699 54.7995 317.699 55.5645C317.189 77.9595 316.679 85.7596 315.074 88.1896C313.799 89.9746 312.329 91.1295 306.944 91.1295C306.179 91.1295 305.414 91.1296 304.634 91.0696C304.574 89.6596 304.184 87.7396 303.539 86.1496L302.519 86.5995C302.399 86.0895 302.264 85.5045 302.069 84.9345C294.704 85.6995 287.294 86.3445 282.494 86.7195C282.374 87.2895 281.924 87.5446 281.414 87.6196L279.689 80.6445C282.824 80.5845 286.859 80.4495 291.269 80.2545V76.1596H282.254V66.4396L281.609 67.0095C280.709 65.7345 278.789 63.4245 277.379 62.0895C277.439 63.3045 277.439 64.5796 277.439 65.8696C277.439 77.0596 276.989 89.1495 270.089 90.5595C267.779 91.1295 265.229 91.2046 262.544 91.0696C262.544 88.6396 261.974 85.8945 260.684 83.7195C262.154 83.8395 263.429 83.8395 264.464 83.8395C266.699 83.8395 267.659 83.7795 268.499 82.6845C269.714 81.0795 270.224 74.7495 270.284 67.5945C267.974 70.5945 265.484 73.3545 263.114 75.3945C261.959 73.5345 259.859 71.0445 258.119 69.6345C262.334 66.8145 267.014 61.5795 269.819 56.5845C269.564 54.4095 269.114 52.2945 268.544 50.2545C266.879 51.9195 265.154 53.5095 263.429 54.9195C262.214 53.3895 259.844 51.1395 258.239 49.9245C260.729 48.0645 263.234 45.6345 265.529 43.0095C263.924 40.3245 261.824 37.6396 259.064 35.0746L264.374 31.0396C266.609 33.0796 268.469 35.1345 269.999 37.1745C271.274 35.2545 272.429 33.2745 273.389 31.3545L280.934 34.9995V33.0796H316.949V49.2646H292.634L294.494 49.8345C294.299 50.4045 293.729 50.5996 292.829 50.5396C292.439 51.4396 292.064 52.2646 291.614 53.1646H312.464L313.934 53.1045L313.979 53.1345ZM280.964 49.2945V35.2846C280.649 35.6746 280.139 35.7945 279.494 35.7345C278.024 38.4195 276.104 41.2995 273.929 44.0445C276.359 49.5495 277.124 55.2345 277.379 61.2495C280.574 58.4295 283.589 53.8995 285.569 49.2795H280.964V49.2945ZM291.269 59.4645H288.014C287.189 60.7395 286.229 62.0295 285.269 63.1695H291.284V59.4645H291.269ZM287.429 38.7345V43.5946H291.134V38.7345H287.429ZM287.744 71.6146H291.269V67.6546H287.744V71.6146ZM296.834 38.7345V43.5946H300.674V38.7345H296.834ZM306.359 84.8596C307.829 84.8596 308.219 84.8595 308.924 83.8395C309.884 82.4295 310.394 76.4145 310.709 59.4645H298.559C298.424 59.9145 297.989 60.2296 297.089 60.3646V63.1846H306.614V76.1745H304.244C305.714 78.7995 307.064 81.9945 307.634 84.3045L306.359 84.8745V84.8596ZM297.089 67.6546V71.6146H300.794V67.6546H297.089ZM297.089 79.9396L300.089 79.8196C299.699 78.9946 299.324 78.2145 298.934 77.5095L302.129 76.1596H297.074V79.9396H297.089ZM306.299 38.7345V43.5946H310.259V38.7345H306.299Z" fill="#FFE900"/>
<path d="M362.863 54.4844C363.823 57.3644 364.978 60.0494 366.313 62.6144C369.568 60.4394 373.093 57.8144 375.463 55.5794L382.183 61.6544C381.928 61.9094 381.418 62.0444 380.908 62.0444C380.713 62.0444 380.458 62.0444 380.203 61.9844C377.713 63.8444 373.618 66.3944 370.093 68.3744C373.933 73.2944 378.853 77.1344 385.063 79.4444C383.338 80.9744 381.028 83.9894 379.873 86.1044C367.843 80.7944 360.748 70.0544 356.518 56.1644C354.793 57.3794 352.933 58.4744 350.953 59.5544C359.203 65.3744 362.533 72.8594 362.533 78.9944C362.533 86.3444 357.868 91.2794 350.503 91.2794C348.973 91.2794 347.173 91.2194 345.388 91.1594C345.268 89.1194 344.683 86.1044 343.348 83.8694C345.523 84.1244 347.443 84.1844 348.973 84.1844C350.503 84.1844 351.853 83.9894 352.813 82.9694C354.028 82.1444 354.733 80.4044 354.733 78.1694C354.733 77.4044 354.673 76.5644 354.478 75.7394C347.443 81.1094 337.723 86.1644 329.398 88.9844C328.498 87.1244 326.908 84.3194 325.363 82.6544C334.513 80.3444 345.388 75.0344 351.718 69.7244C351.328 69.1544 350.893 68.5694 350.368 67.9994C344.938 71.5844 337.318 75.2294 331.303 77.4044C330.478 75.6794 328.873 73.0544 327.463 71.5844C333.478 70.1144 341.218 67.0394 346.213 63.9794C345.643 63.5294 344.998 63.0794 344.353 62.6294C340.063 64.4144 335.458 65.8994 331.048 66.9794C330.283 65.5094 328.558 62.6294 327.463 61.2194C334.303 59.8094 341.533 57.5144 347.353 54.4994H337.048V47.9744H371.338V54.4994H362.833L362.863 54.4844ZM334.708 44.0594V51.5444H327.223V37.0844H350.248V30.7544L359.908 31.2644C359.848 31.9094 359.398 32.2844 358.183 32.4794V37.0844H381.718V51.5444H373.843V44.0594H334.693H334.708Z" fill="#FFE900"/>
<path d="M423.63 72.7848V82.4448C425.94 82.6998 428.43 82.8348 430.98 82.8348C434.43 82.8348 445.11 82.8348 449.475 82.6398C448.32 84.4998 447.105 88.1448 446.73 90.4398H430.605C418.575 90.4398 409.755 88.4598 403.86 79.1748C401.745 84.1698 398.865 88.3848 395.025 91.3998C393.75 89.9898 390.87 87.4998 389.145 86.3448C395.865 81.5448 399.12 72.1998 400.275 61.1448L409.545 62.4948C409.35 63.0648 408.84 63.4548 407.94 63.5148C407.625 65.7498 407.235 67.8648 406.785 69.9798C408.705 75.2298 411.78 78.3648 415.62 80.2098V57.4998H402.435V50.2098H436.665V57.4998H423.615V65.5548H441.329V72.7848H423.615H423.63ZM399.96 44.8998V53.7948H392.415V37.6698H415.515V30.6348L425.49 31.2048C425.43 31.8498 424.919 32.2248 423.704 32.4198V37.6698H446.925V53.7948H438.99V44.8998H399.96Z" fill="#FFE900"/>
<path d="M504.299 73.2194L510.884 75.7094C510.629 76.1594 510.059 76.4744 509.219 76.3544C507.359 78.4694 505.124 80.4494 502.559 82.2344C504.029 83.3894 505.634 84.0944 507.299 84.0944C508.964 84.0944 509.414 82.9994 509.729 79.2944C511.199 80.5694 513.374 81.7844 515.159 82.2944C514.064 89.5844 511.964 91.1294 506.849 91.1294C502.694 91.0694 498.974 89.2094 495.914 86.0744C491.759 88.0544 487.214 89.7194 482.609 90.8744C481.904 89.4044 480.239 86.5244 479.159 85.1744C483.569 84.2144 488.114 82.8044 492.089 80.9594C490.814 78.7244 489.659 76.0994 488.759 73.2194H476.159V75.7844L485.819 75.2744V80.3894L476.159 81.1544V84.4244C476.159 90.0494 474.239 91.1444 462.404 91.1444C462.014 89.3594 461.129 86.9294 460.229 85.2644C461.639 85.3244 463.229 85.3994 464.579 85.3994C468.809 85.3994 468.809 85.3394 468.809 84.2444V81.7544C465.164 82.0094 461.774 82.2644 459.089 82.3994C458.969 82.9094 458.519 83.2244 458.009 83.3594L455.834 76.6994C459.359 76.5644 463.889 76.3844 468.824 76.1294V73.2494H456.029V67.6244H468.824V65.1344C465.434 65.4494 461.984 65.6444 458.714 65.7794C458.519 64.4294 457.814 62.4494 457.184 61.1744C464.609 60.7244 472.979 59.8244 478.679 58.6844H455.399V52.8644H480.854V50.4944H462.494V45.1844H480.854V42.8144H459.104V37.1144H470.684C469.979 35.7044 469.019 34.2344 468.059 33.0194L474.779 30.8444C476.444 32.5694 478.034 35.0594 478.739 36.8594L478.034 37.1144H491.909L491.339 36.9194C492.494 35.0594 493.904 32.5094 494.594 30.6494L503.609 33.1394C503.414 33.6494 502.844 33.8444 501.944 33.8444C501.299 34.8044 500.339 36.0194 499.454 37.0994H510.839V42.7994H488.774V45.1694H507.524V50.4794H488.774V52.8494H514.814V58.6694H481.094L485.444 62.8844C485.189 63.0794 485.054 63.0794 483.974 63.0794C481.799 63.5294 479.114 63.9794 476.174 64.3544V67.6094H487.304C486.794 64.9244 486.479 62.1044 486.284 59.2244L495.629 59.5394C495.629 60.1844 495.119 60.6344 493.904 60.7544C493.964 63.0644 494.294 65.4194 494.804 67.5944H504.854C502.619 65.9294 499.484 64.1444 496.859 62.9894L501.149 58.6994C504.599 60.1094 508.949 62.4794 511.199 64.3994L508.064 67.5944H514.139V73.2194H504.359H504.299ZM496.499 73.2194C497.069 74.7494 497.774 76.1594 498.539 77.3744C500.399 76.0994 501.929 74.7494 503.204 73.2194H496.484H496.499Z" fill="#FFE900"/>
<path d="M584.204 60.8144H569.099V68.2394H587.144V74.9594H569.099V82.6994H592.964V89.5394H538.019V82.6994H561.044V74.9594H543.194V68.2394H561.044V60.8144H546.464V55.6994C544.154 57.3044 541.724 58.8344 539.294 60.1844C538.274 58.3994 536.159 55.5794 534.494 54.0494C545.564 48.4244 556.184 38.3744 560.909 30.3794L571.139 30.9494C570.944 31.6544 570.374 32.1044 569.474 32.2244C575.684 40.6094 586.619 48.9194 596.279 53.0744C594.299 54.9944 592.574 57.6794 591.164 59.9894C588.854 58.7144 586.499 57.2444 584.189 55.6994V60.8144H584.204ZM581.894 54.0344C575.114 49.1144 568.784 43.2944 565.004 38.0444C561.419 43.2194 555.539 48.9794 548.759 54.0344H581.894Z" fill="#FFE900"/>
<path d="M619.829 69.7096V70.6696C621.869 71.8846 627.764 76.1746 629.234 77.3296L624.884 82.8346C623.729 81.5596 621.809 79.6396 619.829 77.7796V91.1446H612.404V78.8596C609.974 82.1896 607.289 85.1896 604.604 87.2446C603.449 85.5796 601.214 83.0896 599.609 81.7996C603.839 79.1146 608.249 74.3746 611.189 69.7096H601.274V63.2446H612.404V58.5796H600.509V52.2496H606.839C606.449 49.9396 605.684 47.1346 604.664 44.8996L608.819 43.6846H601.784V37.4146H612.404V30.8296L621.494 31.2796C621.434 31.9246 620.984 32.2996 619.829 32.4946V37.4146H630.254V43.6846H623.864L629.039 45.0346C628.844 45.4846 628.334 45.7396 627.434 45.7996C626.729 47.7196 625.574 50.1496 624.434 52.2646H631.604V58.5946H621.239C620.984 58.8496 620.534 59.1046 619.829 59.1646V63.2596H630.644V69.7246H619.829V69.7096ZM617.909 52.1746C618.869 49.8046 620.024 46.3546 620.729 43.6696H610.814C612.029 46.4146 612.989 49.7446 613.304 52.1146L612.914 52.2496H618.104L617.909 52.1896V52.1746ZM660.704 52.1146V59.2096H654.494V91.1296H647.009V59.2096H640.619C640.619 68.6746 639.209 82.4296 630.569 91.2646C629.609 89.5996 626.924 86.9746 625.124 86.0146C632.609 78.2146 633.314 67.3996 633.314 58.7596V36.6946L637.274 37.8496C643.154 35.9296 649.244 33.3646 652.889 30.8746L660.119 36.3796C659.729 36.7696 659.099 36.7696 658.334 36.7696C653.849 39.1396 647.144 41.5696 640.619 43.4296V52.1296H660.704V52.1146Z" fill="#FFE900"/>
<path d="M718.035 72.6496L723.6 76.6096C723.405 76.9246 722.955 77.0596 722.445 77.0596C722.25 77.0596 721.995 77.0596 721.8 76.9996C720.015 78.0796 717.255 79.6846 714.705 80.9596C717.84 82.7446 721.62 84.0946 725.895 84.8596C724.29 86.3296 722.31 89.2096 721.35 91.1896C714.12 89.3296 708.615 86.1346 704.4 81.5896L704.655 86.1346C696.78 87.6046 688.665 89.0146 683.355 89.8396C683.295 90.4846 682.785 90.7996 682.335 90.9346L679.515 83.1946C681.435 82.9996 683.61 82.7446 686.04 82.4296V72.6346H679.005V67.2646H678.945C678.045 75.7696 676.125 84.7246 671.91 91.3246C670.38 90.1096 666.99 88.0546 665.07 87.3646C671.475 77.4496 671.985 62.9296 671.985 52.6246V33.5596H721.56V50.9596H714.525C714.27 51.3496 713.82 51.5296 712.995 51.6646V55.1896H722.01V61.6546H712.995V66.1996H725.085V72.6646H718.05L718.035 72.6496ZM679.71 50.9596C679.71 54.9946 679.71 59.9146 679.14 66.1846H689.19V61.6396H681.06V55.1746H689.19V50.9596H679.725H679.71ZM713.805 40.0246H679.71V44.4346H713.805V40.0246ZM693.075 72.6496V81.6046C696.405 81.1546 699.795 80.7046 703.245 80.1946C701.385 77.9596 699.855 75.4546 698.58 72.6496H693.075ZM705.87 55.1896V50.9746H697.74C697.485 51.2896 697.035 51.5446 696.21 51.6796V55.2046H705.87V55.1896ZM705.87 66.1996V61.6546H696.21V66.1996H705.87ZM705.93 72.6646C706.95 74.2696 708.105 75.7996 709.515 77.1496C711.825 75.7396 714.315 74.0746 716.175 72.6646H705.945H705.93Z" fill="#FFE900"/>
<path d="M758.834 56.0749H741.434V91.1298H733.949V33.2298H758.834V56.0749ZM751.604 38.7348H741.434V42.0048H751.604V38.7348ZM741.434 50.5698H751.604V46.9848H741.434V50.5698ZM777.644 76.6099H770.474V89.9748H763.754V76.6099H757.424C756.659 80.7049 754.424 86.9148 749.234 90.4248C748.214 89.0748 745.844 86.9749 744.374 85.9399C748.274 83.3749 750.134 79.6698 750.839 76.5948H744.449V70.3249H751.229V65.4648H745.409V59.3899H776.564V65.4648H770.489V70.3249H777.659V76.5948L777.644 76.6099ZM757.754 70.3398H763.769V65.4799H757.754V70.3398ZM788.399 33.2298V82.1748C788.399 89.5248 785.654 90.9348 774.779 90.9348C774.524 88.8198 773.504 85.3099 772.469 83.3149C774.134 83.3749 775.919 83.4348 777.329 83.4348C780.524 83.4348 780.854 83.4348 780.854 82.0848V56.1799H763.064V33.2148H788.399V33.2298ZM780.854 38.7348H770.369V42.0048H780.854V38.7348ZM770.369 50.7048H780.854V46.9998H770.369V50.7048Z" fill="#FFE900"/>
<path d="M0.239258 1.05469H787.739" stroke="#FFE900" stroke-width="1.5" stroke-miterlimit="10"/>
<path d="M0.239258 121.805H787.739" stroke="#FFE900" stroke-width="1.5" stroke-miterlimit="10"/>
</svg>
