<svg width="506" height="49" viewBox="0 0 506 49" fill="none" xmlns="http://www.w3.org/2000/svg">
<path d="M26.86 12.03C26.7 12.29 26.34 12.42 25.82 12.39C25.17 13.17 24.29 14.08 23.41 14.89H29.98V19.15H0.130005V14.89H6.96C6.24 13.88 5.27001 12.7399 4.39001 11.8699L8.78 10.02C10.15 11.22 11.74 12.9799 12.49 14.3099L11.09 14.9H19.38L17.92 14.28C19.09 13.08 20.49 11.3199 21.3 9.91992L26.86 12.03ZM14.73 20.9999V36.71C14.73 40.03 13.49 41.0699 8.55 41.0699C8.32 39.8999 7.67 38.1399 7.09 37.0999C7.64 37.1299 8.29001 37.1599 8.81001 37.1599C10.05 37.1599 10.18 37.16 10.18 36.64V34.59H6.54V40.9299H2.09V20.9999H14.74H14.73ZM10.18 24.9299H6.54V26.2999H10.18V24.9299ZM6.54 31.1699H10.18V29.71H6.54V31.1699ZM22.12 21.64C22.09 22 21.83 22.1899 21.18 22.3199V34.6799H16.69V21.3499L22.12 21.64ZM27.91 36.14C27.91 39.26 27.26 41.11 20.56 41.02C20.33 39.75 19.58 37.7699 18.9 36.5699C19.84 36.6299 20.85 36.6699 21.6 36.6699C23.1 36.6699 23.26 36.67 23.26 36.08V20.4999L28.88 20.7299C28.82 21.0899 28.59 21.35 27.9 21.45V36.15L27.91 36.14Z" fill="white"/>
<path d="M63.01 19.3199H58.62C58.62 19.7099 58.62 19.9099 58.68 20.0399C58.71 20.1399 58.81 20.1699 58.97 20.1699C59.88 20.1699 59.98 20.1699 60.11 19.3899C60.76 19.7499 62.09 20.1099 62.97 20.2399C62.71 21.9299 61.93 22.4799 60.08 22.4799H58.29C55.36 22.4799 54.88 21.7299 54.88 19.3299H53.77C53.41 20.6599 52.86 21.9599 51.36 23.0399H60.24V25.3799H49.83V23.9199L49.11 24.2099C48.95 23.7899 48.59 23.2699 48.2 22.7799V24.5699C48.2 25.0599 48.2 25.5499 48.17 26.0699H63V28.4799H48.04C47.68 32.8699 46.54 37.8099 43.52 41.1599C42.77 40.4799 40.95 39.3099 39.94 38.8499C43.68 34.7899 44.04 28.8299 44.04 24.5399V21.9999C43.58 21.3499 42.87 20.4999 42.15 19.8199V35.4299H37.01V38.2299H33.08V11.5999H42.15V18.1699C44.85 15.7299 46.64 12.7399 47.61 10.1099L52.62 10.9199C52.56 11.2499 52.26 11.4698 51.77 11.4698L51.51 12.0599H55.9L56.55 11.8299L59.9 13.8499C59.77 14.1099 59.48 14.2399 59.12 14.3099C58.79 14.7999 58.37 15.4199 57.92 16.0299H62.99V19.3499L63.01 19.3199ZM38.17 15.5499H37.03V18.2198H38.17V15.5499ZM37.03 22.0499V24.8099H38.17V22.0499H37.03ZM37.03 31.4099H38.17V28.6499H37.03V31.4099ZM48.22 19.3099V21.3899C49.33 20.8399 49.88 20.1499 50.2 19.3099H48.22ZM48.41 40.9999V35.1099H61.58V40.9999H57.39V40.5799H52.41V40.9999H48.41ZM60.93 29.1299V31.4698H49.19V29.1299H60.93ZM49.19 34.4599V32.1199H60.93V34.4599H49.19ZM53.19 15.9899C53.35 15.6999 53.55 15.3699 53.71 15.0499H49.97L49.38 15.9899H53.18H53.19ZM57.38 37.4499H52.4V38.2299H57.38V37.4499Z" fill="white"/>
<path d="M94.88 27.4499H84.93C87.66 30.6399 91.69 33.6299 95.79 35.3799C94.62 36.3599 93.03 38.3099 92.21 39.6099C88.7 37.7199 85.35 34.8599 82.59 31.5799V40.9799H77.55V32.0099C74.79 35.1999 71.44 37.9599 67.93 39.8499C67.15 38.6099 65.52 36.6999 64.42 35.6899C68.58 33.8699 72.74 30.7499 75.44 27.4599H65.46V22.7799H77.56V19.4299H67.97V14.7499H77.56V10.0999L83.61 10.4299C83.58 10.7899 83.28 11.0199 82.6 11.1499V14.7599H92.42V19.4399H82.6V22.7899H94.89V27.4698L94.88 27.4499Z" fill="white"/>
<path d="M115.92 26.8898C118.78 30.4998 123.33 33.7198 128.21 35.4698C127.04 36.4798 125.48 38.4898 124.7 39.8298C121.06 38.1398 117.74 35.5398 114.98 32.4498V40.9698H109.97V32.7398C107.24 35.7598 103.95 38.2698 100.31 39.9298C99.56 38.7298 98.03 36.8098 96.96 35.8298C102.29 33.8098 107.2 30.0098 109.97 25.7798V18.4998H104.05L108.7 19.6098C108.57 19.8998 108.28 20.0998 107.79 20.0698C107.56 20.8798 107.27 21.7298 106.94 22.5098C108.05 23.4198 109.15 24.3598 109.83 25.0498L106.71 28.3998C106.29 27.8798 105.64 27.2298 104.92 26.5498C103.88 28.1398 102.68 29.5398 101.31 30.6098C100.56 29.7998 98.94 28.3698 97.96 27.6798C100.63 25.7898 102.58 22.2798 103.46 18.5098H98.48V13.8898H109.96V10.0898L115.98 10.4198C115.95 10.7798 115.69 11.0098 114.97 11.1398V13.8998H126.87V18.5198H119.33L123.91 19.5898C123.81 19.8798 123.49 20.0498 123.06 20.0498C122.83 20.8598 122.54 21.6798 122.21 22.4898C124 23.8198 126.14 25.3798 127.32 26.4198L124.07 29.6698C123.22 28.7898 121.73 27.5198 120.23 26.3198C119.68 27.1298 119.06 27.8798 118.41 28.5298C117.79 28.0398 116.82 27.3898 115.91 26.8698V26.8998L115.92 26.8898ZM114.98 18.4998V25.5598L115.11 25.7598C116.87 23.9998 118.13 21.2698 118.75 18.5098H114.98V18.4998Z" fill="white"/>
<path d="M161.45 1.47998V8.98999H148.5L147.78 15.2C148.4 15.15 148.97 15.1 149.59 15.1C155.7 15.1 162.8 18.47 162.8 27.48C162.8 34.94 157.05 41.41 147.21 41.41C143.27 41.41 139.65 40.48 137.73 39.49L139.33 32.6C140.99 33.38 143.68 34.26 146.58 34.26C150.26 34.26 153.62 32.08 153.62 28.15C153.62 23.75 150.1 21.57 143.83 21.57C142.22 21.57 140.98 21.62 139.74 21.83L142.02 1.47998H161.44H161.45Z" fill="#FFFF00"/>
<path d="M179.42 30.6399C177.45 36.5399 174.86 42.7099 171.91 47.5199L165.95 48.0898C167.87 42.6498 169.42 36.5399 170.25 31.2599L179.42 30.6399Z" fill="#FFFF00"/>
<path d="M182.63 21.27C182.63 10.19 186.72 0.919922 196.15 0.919922C206.3 0.919922 209.36 11.2299 209.36 21.0099C209.36 33.8499 204.39 41.4099 196 41.4099C185.95 41.4099 182.64 31.1599 182.64 21.2599L182.63 21.27ZM200.24 21.1699C200.24 12.7299 198.95 8.16992 196.1 8.16992C193.41 8.16992 191.75 12.2099 191.75 21.1699C191.75 30.1299 193.25 34.1699 196.1 34.1699C198.28 34.1699 200.24 31.8899 200.24 21.1699Z" fill="#FFFF00"/>
<path d="M212.72 21.27C212.72 10.19 216.81 0.919922 226.24 0.919922C236.39 0.919922 239.45 11.2299 239.45 21.0099C239.45 33.8499 234.48 41.4099 226.09 41.4099C216.04 41.4099 212.73 31.1599 212.73 21.2599L212.72 21.27ZM230.33 21.1699C230.33 12.7299 229.04 8.16992 226.19 8.16992C223.5 8.16992 221.84 12.2099 221.84 21.1699C221.84 30.1299 223.34 34.1699 226.19 34.1699C228.37 34.1699 230.33 31.8899 230.33 21.1699Z" fill="#FFFF00"/>
<path d="M242.81 21.27C242.81 10.19 246.9 0.919922 256.33 0.919922C266.48 0.919922 269.54 11.2299 269.54 21.0099C269.54 33.8499 264.57 41.4099 256.18 41.4099C246.13 41.4099 242.82 31.1599 242.82 21.2599L242.81 21.27ZM260.42 21.1699C260.42 12.7299 259.13 8.16992 256.28 8.16992C253.59 8.16992 251.93 12.2099 251.93 21.1699C251.93 30.1299 253.43 34.1699 256.28 34.1699C258.46 34.1699 260.42 31.8899 260.42 21.1699Z" fill="#FFFF00"/>
<path d="M283.25 11.8999C283.12 12.1899 282.79 12.3499 282.27 12.2899C281.55 14.2099 280.71 16.1299 279.83 17.9799L281.1 18.3999C281 18.6899 280.71 18.9899 280.12 19.0499V41.0599H275.54V25.4199C274.86 26.3599 274.17 27.2699 273.46 28.0899C273.07 26.9499 272 24.3799 271.38 23.2499C273.95 20.3599 276.58 15.1499 278.14 10.1499L283.24 11.9099L283.25 11.8999ZM299.51 32.6499C301.04 34.3099 302.79 36.5499 303.48 38.2099L299.74 40.3199C299.45 39.5399 298.93 38.5999 298.31 37.6199C297.82 40.2199 296.72 40.9399 294.34 40.9399H291.19C286.77 40.9399 286.67 39.2799 286.67 35.6399C286.02 37.2999 285.11 39.0199 283.87 40.2899L280.52 37.8799C281.82 36.7099 282.93 34.8199 283.51 33.0699L286.66 34.3999V33.0699L290.5 33.2999C290.11 32.9399 289.69 32.5799 289.26 32.2899L289.78 31.8699H283.73V22.1799H301V31.8699H294.4C295.02 32.3899 295.54 32.9399 295.9 33.3999L292.91 35.8099C292.55 35.2599 291.93 34.6099 291.25 33.9599C291.15 33.9599 291.06 33.9899 290.92 34.0199V36.4299C290.92 37.2799 291.05 37.3399 291.86 37.3399H293.84C294.52 37.3399 294.69 37.0799 294.78 35.3599C295.37 35.8199 296.57 36.2699 297.58 36.5599C297.06 35.8799 296.54 35.1899 296.02 34.5799L299.5 32.6599L299.51 32.6499ZM282.67 12.5199H289.82V10.3099L295.54 10.5999C295.51 10.9899 295.21 11.1899 294.56 11.3199V12.5199H302.14V15.9299H299.96L300.29 16.0299C300.16 16.2899 299.87 16.4199 299.38 16.4199L298.73 17.5899H303.02V21.1999H281.49V17.5899H285.88C285.69 17.0399 285.42 16.4199 285.2 15.9299H282.66V12.5199H282.67ZM288.2 24.9099V25.8199H296.33V24.9099H288.2ZM288.2 28.1899V29.1299H296.33V28.1899H288.2ZM289.57 15.9299C289.83 16.4799 290.09 17.0699 290.29 17.5899H294.26C294.49 17.0699 294.68 16.4799 294.88 15.9299H289.58H289.57Z" fill="white"/>
<path d="M305.13 19.97H334.98V23.2501H305.13V19.97ZM322.3 36.0301V36.8101H334.98V40.1901H305.13V36.8101H317.71V36.0301H308.18V33.1H317.71V32.42H309.03V23.97H330.98V32.42H322.3V33.1H331.92V36.0301H322.3ZM330.46 11.0601V19.1901H309.62V11.0601H330.46ZM313.45 26.3401V27.0901H317.71V26.3401H313.45ZM313.45 30.05H317.71V29.3H313.45V30.05ZM325.68 14.05V13.3301H314.17V14.05H325.68ZM325.68 16.91V16.1901H314.17V16.91H325.68ZM326.33 27.0901V26.3401H322.3V27.0901H326.33ZM326.33 30.05V29.3H322.3V30.05H326.33Z" fill="white"/>
<path d="M359.27 24.9799C355.27 24.9799 354.16 23.8099 354.03 20.1999L349.87 21.9199C349.77 21.4599 349.61 20.9399 349.41 20.3899C345.44 20.7499 341.51 21.0399 338.84 21.1999C338.78 21.5299 338.48 21.7199 338.19 21.7499L336.86 16.7099C337.61 16.7099 338.45 16.6799 339.36 16.6799C340.27 14.5699 341.18 11.9699 341.7 9.84985L347.1 11.2499C346.97 11.5399 346.61 11.7099 346.09 11.7399C345.6 13.2399 344.89 14.9899 344.14 16.5499L347.65 16.4499C347.23 15.6399 346.77 14.8199 346.32 14.0799L350.38 12.4499C351.81 14.5299 353.31 17.2299 354.02 19.3399V10.2399L359.71 10.5299C359.68 10.8899 359.42 11.1199 358.73 11.2499V14.3699C360.55 13.5899 362.31 12.7099 363.64 11.8999L366.73 15.4399C366.63 15.5399 366.27 15.6399 365.92 15.5699C364.03 16.5499 361.34 17.4899 358.73 18.2699V19.4399C358.73 20.6399 358.89 20.7699 359.97 20.7699H362.64C363.58 20.7699 363.78 20.3099 363.91 17.6499C364.85 18.3699 366.8 19.1099 368.07 19.3699C367.58 23.7299 366.35 24.9599 363.09 24.9599H359.25L359.27 24.9799ZM351.86 22.4099V36.4599C351.86 39.7099 350.79 40.9799 345.68 40.9799C345.48 39.7399 344.8 37.9199 344.22 36.8199C344.74 36.8499 345.39 36.8899 345.88 36.8899C347.05 36.8899 347.18 36.8899 347.18 36.3999V35.5199H343.47V40.9799H339.11V22.4099H351.86ZM347.18 26.2499H343.47V27.3599H347.18V26.2499ZM343.47 32.0699H347.18V30.7999H343.47V32.0699ZM358.72 35.3199C358.72 36.5599 358.91 36.6899 360.02 36.6899H362.78C363.79 36.6899 363.98 36.0999 364.15 32.9799C365.13 33.6999 367.01 34.4099 368.28 34.6999C367.79 39.4099 366.59 40.7799 363.24 40.7799H359.27C355.08 40.7799 354.03 39.4499 354.03 35.3499V25.4999L359.69 25.7899C359.66 26.1499 359.4 26.3799 358.71 26.5099V29.3699C360.63 28.5199 362.45 27.5199 363.82 26.6099L367.07 30.2198C366.84 30.3798 366.52 30.3799 366.19 30.3799C364.21 31.4199 361.44 32.4899 358.71 33.3999V35.3199H358.72Z" fill="white"/>
<path d="M394.39 11.0301H401.54C402.61 13.5301 404.99 15.9401 407.88 17.2101C407.07 18.2801 405.83 20.4301 405.25 21.8301L404.73 21.5001V27.91H387.76V21.6L387.21 21.9601C387.01 21.3401 386.59 20.27 386.14 19.29V22.41H383.8V29.66L386.47 29.0701L386.99 33.23C383.87 34.24 380.58 35.2101 378.41 35.8301C378.38 36.1901 378.12 36.42 377.82 36.48L376.03 31.2501C376.94 31.0901 378.01 30.8901 379.22 30.6301V22.4001H376.62V17.9501H379.22V10.54L384.75 10.8301C384.72 11.1901 384.46 11.4201 383.81 11.5101V17.9501H385.5L385.3 17.5901C387.25 16.4801 389.1 14.4001 390.08 12.1901L394.4 13.72V11.0201L394.39 11.0301ZM389.12 41.04V28.6501H403.39V40.91H398.68V40.1H393.61V41.04H389.12ZM393.74 20.6801C394.03 21.3001 394.29 22.0801 394.49 22.7601V20.29H391.34V21.3301L393.75 20.6801H393.74ZM392.02 24.29C391.89 23.61 391.63 22.57 391.34 21.72V24.5801H394.49V23.5101L392.02 24.29ZM394.39 14.54V14.2801C394.29 14.3101 394.16 14.3101 394.03 14.2801C393.54 15.1901 392.99 16.1 392.34 16.98H399.92C399.3 16.17 398.75 15.35 398.26 14.54H394.39ZM398.68 32.0701H393.61V32.8801H398.68V32.0701ZM393.61 36.6901H398.68V35.8801H393.61V36.6901ZM400.93 21.3401V20.3H397.74V23.1C398 22.29 398.29 21.34 398.42 20.66L400.92 21.3401H400.93ZM397.74 24.5901H400.93V22.3101C400.64 22.9301 400.25 23.7101 399.89 24.2601C399.17 24.0001 398.49 23.7701 397.74 23.5101V24.5801V24.5901Z" fill="white"/>
<path d="M439.75 36.6199V40.5499H417.64V36.6199H420.31V18.64H425.93C426.06 18.09 426.16 17.4699 426.22 16.8499H419.1V12.95C418.38 14.8 417.51 16.7199 416.56 18.5699V40.9399H412.2V25.46C411.78 26.01 411.35 26.5299 410.93 26.9899C410.54 25.8199 409.3 23.1899 408.56 22.0099C411.23 19.1499 413.8 14.69 415.29 10.21L419.58 11.6099C419.45 12.0299 419.29 12.4199 419.12 12.8499H426.7C426.8 11.9099 426.86 10.9999 426.89 10.1799L431.87 10.28C431.74 11.13 431.61 11.9999 431.45 12.8499H439.16V16.8499H430.64C430.51 17.4699 430.38 18.09 430.22 18.64H437.5V36.6199H439.74H439.75ZM424.43 22.02V23.2599H433.18V22.02H424.43ZM433.18 26.4399H424.43V27.71H433.18V26.4399ZM424.43 30.7999V32.0999H433.18V30.7999H424.43ZM424.43 36.6199H433.18V35.2499H424.43V36.6199Z" fill="white"/>
<path d="M452.14 30.67V35.0301C454.19 35.6501 456.27 35.6501 461.89 35.6501C465.5 35.6501 470.25 35.6201 472.72 35.4901C472 36.5601 471.22 38.74 470.93 40.17H458.25C452.56 40.17 448.69 39.45 446.06 36.11C445.73 38.16 445.31 39.9801 444.69 41.4401C443.84 40.8501 442.09 40.0401 441.02 39.6201C442.35 36.4701 442.65 30.6801 442.71 25.1801L447.65 25.8301C447.58 26.1601 447.32 26.3501 446.84 26.3801L446.74 29.2401C447.03 30.1801 447.39 31.0001 447.81 31.7101V23.7101H441.7V19.55H447.72V17.1401H442.65V13.0801H447.72V10.0601L453.09 10.35C453.06 10.71 452.8 10.9001 452.15 11.0001V13.0801H456.12V17.1401H452.15V19.55H456.96V23.7101H452.15V26.6H456.41V30.66H452.15L452.14 30.67ZM465.8 19.7401V15.3201H457.18V11.16H470.32V24.8201H465.8V23.8101H462.55V28.85C462.55 30.05 462.71 30.1801 463.85 30.1801H466.71C467.75 30.1801 467.95 29.6301 468.08 26.1501C469.02 26.8701 470.97 27.61 472.18 27.91C471.69 32.98 470.52 34.3801 467.14 34.3801H463.17C459.2 34.3801 458 33.14 458 28.92V19.7501H465.8V19.7401Z" fill="white"/>
<path d="M476.47 18.9598C478.19 19.6098 480.5 20.7498 481.61 21.7198L478.85 25.5198C477.84 24.5398 475.63 23.2098 473.87 22.4298L476.47 18.9498V18.9598ZM474.36 38.2698C475.56 35.6998 477.19 31.6398 478.46 27.7298L482.3 30.1698C481.23 33.6498 480.02 37.0998 478.98 39.6298C479.21 39.8898 479.31 40.1498 479.31 40.3798C479.31 40.5698 479.28 40.7398 479.18 40.8698L474.37 38.2698H474.36ZM488.67 25.0998L491.01 25.2898C491.01 25.6198 490.98 26.1398 490.95 26.5598C490.66 34.8498 490.33 38.2298 489.42 39.3698C488.18 40.9998 486.69 40.9998 483.24 40.9998C483.18 39.7298 482.69 38.0098 482.04 36.8698C483.15 36.9998 484.15 36.9998 484.74 36.9998C485.16 36.9998 485.46 36.8998 485.78 36.5798C486.17 36.0298 486.46 34.0398 486.66 29.1698H485.46L485.36 29.8898L481.36 29.4998C481.88 26.5698 482.37 22.0898 482.6 18.5098H486.96V15.2598H482.34V13.9898L480.1 17.0098C479.09 15.9998 476.82 14.5998 475.06 13.7898L477.69 10.3398C479.19 10.9298 481.1 11.8998 482.34 12.7798V11.0898H491.15V23.1498H486.96V22.5298H486.24C486.14 23.4098 486.08 24.2898 485.98 25.1298H487.77L488.68 25.0998H488.67ZM500.9 28.7398C501 29.3298 501.13 29.8798 501.26 30.4298C501.78 29.9798 502.27 29.4898 502.63 29.0998L505.49 32.7398C505.36 32.8398 505.16 32.8698 504.97 32.8698C504.81 32.8698 504.64 32.8398 504.48 32.7698C504.06 33.0998 503.31 33.5798 502.56 34.0698C503.24 35.4398 504.19 36.5698 505.36 37.3498C504.42 38.1598 503.08 39.8498 502.5 41.0198C500.97 39.8798 499.87 38.2898 499.05 36.3698L499.28 38.7798C496.74 39.3998 494.11 40.0198 492.39 40.4098C492.33 40.7398 492.06 40.9298 491.8 40.9998L490.34 36.4798C490.92 36.4198 491.61 36.3198 492.32 36.1898V28.7398H491.21V24.8698H492.54V10.8898H504.15V14.5598H496.8V15.6298H503.3V19.1398H496.8V20.2098H503.3V23.7198H496.8V24.8598H504.83V28.7298H500.9V28.7398ZM496.48 35.4998L498.56 35.1398C497.91 33.2498 497.45 31.0798 497.16 28.7298H496.48V35.4898V35.4998Z" fill="white"/>
</svg>
