<svg width="202" height="21" viewBox="0 0 202 21" fill="none" xmlns="http://www.w3.org/2000/svg">
<g opacity="0.6">
<path d="M2.58005 5.56503C2.92505 5.80503 3.9 6.60004 4.125 6.79504L3.75 7.27505C3.54 7.03505 2.98505 6.52505 2.58005 6.15005V8.64001H1.965V6.09C1.515 6.825 0.945044 7.50004 0.420044 7.92004C0.315044 7.77004 0.135 7.57506 0 7.47006C0.66 7.03506 1.38005 6.16506 1.83005 5.31006H0.16507V4.77008H1.95007V3.79504H0.0450439V3.25507H1.18506C1.14006 2.85007 0.975029 2.28005 0.780029 1.83005L1.27505 1.69501C1.48505 2.16001 1.66502 2.76007 1.71002 3.16507L1.36505 3.27008H2.92502C2.80502 3.22508 2.67004 3.17999 2.67004 3.17999C2.85004 2.77499 3.07501 2.12999 3.19501 1.67999L3.90005 1.90503C3.90005 1.90503 3.81006 1.99503 3.72006 1.99503C3.58506 2.35503 3.37499 2.89508 3.17999 3.27008H4.53003V3.81006H2.65503C2.65503 3.81006 2.59503 3.82507 2.56503 3.82507V4.785H4.39499V5.32507H2.56503V5.59506L2.58005 5.56503ZM4.36505 1.06503V1.60501H0.255066V1.06503H1.965V0.0300293L2.74503 0.0750732C2.74503 0.0750732 2.68503 0.180022 2.56503 0.210022V1.06503H4.35004H4.36505ZM8.68506 3.21002V3.79504H7.59V8.625H6.97504V3.79504H5.50507V4.14001C5.50507 5.53501 5.32505 7.36503 3.99005 8.65503C3.91505 8.52003 3.70499 8.31006 3.55499 8.22006C4.76999 7.05006 4.90503 5.44501 4.90503 4.14001V0.91507L5.35501 1.06503C6.31501 0.780033 7.35006 0.405059 7.93506 0.0600586L8.55002 0.54007C8.55002 0.54007 8.46001 0.585007 8.35501 0.570007C7.66501 0.915007 6.52505 1.29004 5.49005 1.54504V3.22504H8.65503L8.68506 3.21002Z" fill="white"/>
<path d="M12.9005 3.88504V6.17999L14.1605 5.80499C14.1605 5.80499 14.1755 5.91006 14.2355 6.34506C13.1555 6.69006 12.0155 7.06505 11.3105 7.27505C11.3105 7.35005 11.2505 7.395 11.1905 7.41L10.9355 6.72006C11.3105 6.63006 11.7755 6.49506 12.3005 6.34506V3.87003H11.1455V3.285H12.3005V1.20007H11.0555V0.600037H14.1155V1.20007H12.9005V3.285H14.0255V3.87003H12.9005V3.88504ZM17.1005 7.77008H19.6955V8.34H13.7405V7.77008H16.5155V6.33005H14.3555V5.76004H16.5155V4.67999H14.4005V0.570007H19.2605V4.67999H17.1005V5.76004H19.3955V6.33005H17.1005V7.77008ZM14.9706 1.125V2.37003H16.5155V1.125H14.9706ZM14.9706 4.14001H16.5155V2.88007H14.9706V4.14001ZM18.6905 2.35501V1.11008H17.1005V2.35501H18.6905ZM18.6905 4.14001V2.88007H17.1005V4.14001H18.6905Z" fill="white"/>
<path d="M24.4055 2.56503C24.7805 2.80503 25.7405 3.52506 25.9805 3.72006L25.6355 4.215C25.3955 3.975 24.8405 3.49504 24.4055 3.13504V5.49005H23.8055V2.86505C23.3855 3.70505 22.8155 4.45503 22.2605 4.90503C22.1555 4.77003 21.9905 4.57506 21.8555 4.47006C22.5455 3.97506 23.2805 2.95501 23.6855 1.98001H22.0505V1.42502H23.8055V0.0300293L24.5855 0.0899963C24.5855 0.0899963 24.5255 0.195022 24.4055 0.210022V1.42502H25.9205V1.98001H24.4055V2.55002V2.56503ZM23.7455 6.34506C23.5055 7.06506 23.1005 7.87503 22.4555 8.37003L21.9605 8.01004C22.5755 7.57504 22.9955 6.82504 23.2055 6.13504L23.7455 6.36008V6.34506ZM25.0505 7.71002C25.0505 7.95002 25.1405 7.99503 25.6505 7.99503H27.4505C27.8555 7.99503 27.9155 7.87508 27.9755 7.02008C28.1105 7.12508 28.3655 7.21503 28.5455 7.24503C28.4555 8.31003 28.2755 8.55002 27.5105 8.55002H25.6205C24.6755 8.55002 24.4505 8.38502 24.4505 7.71002V6.15005L25.2455 6.21002C25.2455 6.21002 25.1855 6.31506 25.0655 6.34506V7.71002H25.0505ZM26.8205 7.14001C26.5055 6.72001 25.8155 6.13503 25.2305 5.74503L25.6355 5.41507C26.2355 5.79007 26.9255 6.36003 27.2555 6.78003L26.8205 7.14001ZM29.9854 0.54007V5.41507H26.3405V0.54007H29.9854ZM29.3855 1.99503V1.06503H26.9255V1.99503H29.3855ZM29.3855 3.43506V2.49005H26.9255V3.43506H29.3855ZM29.3855 4.89001V3.92999H26.9255V4.89001H29.3855ZM30.1055 8.37003C29.7755 7.77003 29.0105 6.945 28.2755 6.375L28.7704 6.07507C29.5054 6.61507 30.3154 7.42505 30.6454 8.02505L30.1055 8.37003Z" fill="white"/>
<path d="M35.6998 0.330048C35.6998 0.330048 35.6097 0.420015 35.4897 0.390015C34.9497 1.06501 33.9898 1.95 33.1648 2.535C33.0898 2.4 32.9097 2.16007 32.8047 2.04007C33.5847 1.53007 34.4997 0.705029 34.9647 0.0300293L35.6848 0.330048H35.6998ZM34.2747 8.625V4.54504C33.9297 4.93504 33.5697 5.29506 33.2247 5.59506C33.1347 5.47506 32.9397 5.22005 32.8197 5.11505C33.7047 4.38005 34.7247 3.16504 35.3547 2.01004L36.0748 2.31006C36.0748 2.31006 35.9697 2.40004 35.8647 2.38504C35.5947 2.85004 35.2647 3.31503 34.9047 3.78003L35.0697 3.84C35.0697 3.84 34.9947 3.94502 34.8897 3.96002V8.625H34.2747ZM41.4297 3.30002V3.90005H39.9597V7.81503C39.9597 8.59503 39.6597 8.61008 37.7997 8.61008C37.7697 8.43008 37.6947 8.19003 37.5897 7.99503C37.9947 7.99503 38.3697 8.01004 38.6697 8.01004C39.2697 8.01004 39.3448 8.01002 39.3448 7.80002V3.88504H36.1197V3.285H41.4447L41.4297 3.30002ZM41.0847 0.600037V1.20007H36.4647V0.600037H41.0847Z" fill="white"/>
<path d="M46.0044 7.18506L47.5494 6.92999L47.5794 7.45505C46.3044 7.71005 44.9694 7.96505 44.1294 8.11505C44.1294 8.19005 44.0694 8.235 43.9944 8.25L43.7844 7.56006C44.2344 7.50006 44.8044 7.39499 45.4194 7.30499V4.54504H43.8744V3.99005H45.4194V2.94003H44.3994V2.73001C44.2944 2.83501 44.1894 2.95506 44.0844 3.06006C43.9794 2.92506 43.7844 2.73003 43.6494 2.65503C44.4744 1.86003 45.1194 0.825044 45.4494 0.0450439L46.2144 0.16507C46.2144 0.16507 46.1394 0.270081 46.0344 0.270081C46.6344 0.750081 47.3094 1.39503 47.6544 1.81503C47.4444 2.07003 47.3544 2.19006 47.2794 2.31006C46.9644 1.89006 46.3344 1.27504 45.7644 0.795044C45.4794 1.29004 45.1194 1.86005 44.6844 2.40005H47.0844V2.94003H45.9894V3.99005H47.4594V4.54504H45.9894V7.20007L46.0044 7.18506ZM44.5193 6.91507C44.4893 6.43507 44.3244 5.715 44.1294 5.16L44.5794 5.04007C44.7894 5.59507 44.9544 6.31503 44.9994 6.78003L44.5193 6.91507ZM47.4594 5.17502C47.4594 5.17502 47.3694 5.26501 47.2644 5.26501C47.1444 5.71501 46.9194 6.39007 46.7244 6.82507L46.3194 6.66C46.4994 6.21 46.7244 5.46007 46.8444 4.95007L47.4744 5.16L47.4594 5.17502ZM49.1544 0.780029C49.1544 0.780029 49.0644 0.870026 48.9594 0.870026C48.7044 1.60503 48.2694 2.4 47.8194 2.91C47.6994 2.805 47.4894 2.65505 47.3544 2.58005C47.7894 2.11505 48.1944 1.33501 48.4494 0.570007L49.1694 0.780029H49.1544ZM51.8994 2.98508V7.875C51.8994 8.565 51.5694 8.62508 50.3094 8.61008C50.2944 8.44508 50.2044 8.19004 50.0994 8.01004C50.3694 8.01004 50.6394 8.02505 50.8194 8.02505C51.2394 8.02505 51.2844 8.02506 51.2844 7.84506V6.70505H48.5544V8.59506H47.9544V2.97006H49.5594V0L50.3544 0.0600586C50.3544 0.0600586 50.2944 0.164993 50.1744 0.179993V2.97006H51.8994V2.98508ZM51.2994 3.55499H48.5694V4.59H51.2994V3.55499ZM48.5694 6.17999H51.2994V5.13007H48.5694V6.17999ZM51.9444 2.80499C51.7344 2.26499 51.1944 1.42506 50.6844 0.810059L51.1794 0.554993C51.6894 1.15499 52.2444 1.98008 52.4694 2.52008L51.9444 2.82001V2.80499Z" fill="white"/>
<path d="M55.291 0.420044H63.106V8.61008H62.506V8.23508H55.8759V8.61008H55.291V0.420044ZM55.8759 7.69501H62.506V0.945007H55.8759V7.69501ZM60.706 5.25C60.706 5.25 60.646 5.34001 60.526 5.35501V5.65503H61.996V6.06006H60.526V6.82507C60.526 7.30507 60.346 7.36504 59.191 7.35004C59.161 7.21504 59.056 7.05001 58.996 6.94501C59.206 6.94501 59.3859 6.94501 59.5359 6.94501C59.9409 6.94501 59.9859 6.94506 59.9859 6.81006V6.06006H56.386V5.65503H59.9859V5.19003L60.706 5.23508V5.25ZM61.666 5.47504C61.561 5.37004 61.396 5.25007 61.231 5.13007C59.566 5.19007 57.841 5.235 56.746 5.25C56.731 5.325 56.6709 5.35503 56.6109 5.37003L56.461 4.84506C57.106 4.84506 57.9459 4.84505 58.8759 4.83005V4.33502H56.9109V2.44501H58.8759V2.04007H56.461V1.63504H58.8759V1.14001L59.581 1.18506C59.581 1.18506 59.521 1.28999 59.416 1.30499V1.63504H61.891V2.04007H59.416V2.44501H61.4859V4.33502H60.706C61.201 4.59002 61.7559 4.93503 62.0559 5.19003L61.6809 5.47504H61.666ZM58.2159 7.23001C58.0359 6.96001 57.661 6.57002 57.316 6.30002L57.721 6.07507C58.066 6.33007 58.456 6.70504 58.636 6.97504L58.2159 7.23001ZM57.421 2.80499V3.22504H58.891V2.80499H57.421ZM57.421 3.99005H58.891V3.57001H57.421V3.99005ZM60.961 2.80499H59.416V3.22504H60.961V2.80499ZM60.961 3.99005V3.57001H59.416V3.99005H60.961ZM59.416 4.33502V4.81503L60.706 4.785C60.526 4.68 60.331 4.57508 60.151 4.48508L60.3759 4.33502H59.416Z" fill="white"/>
<path d="M72.2699 2.38504C72.3899 3.10504 72.5549 3.795 72.7649 4.41C73.2149 4.005 73.7249 3.51001 74.0399 3.10501L74.6099 3.52505C74.6099 3.52505 74.5049 3.58502 74.4149 3.58502C74.0549 3.96002 73.4399 4.50001 72.9599 4.89001C73.3499 5.86501 73.9199 6.67501 74.6699 7.14001C74.5349 7.26001 74.3399 7.47004 74.2499 7.63504C72.9149 6.67504 72.1799 4.815 71.8049 2.535C71.5349 2.82 71.2049 3.09006 70.8749 3.34506C71.9699 4.27506 72.4349 5.73 72.4349 6.84C72.4349 7.68 72.1949 8.625 71.1599 8.625C70.9949 8.625 70.7699 8.62506 70.5149 8.59506C70.5149 8.44506 70.4699 8.19005 70.3799 8.02505C70.6349 8.05505 70.8749 8.05499 71.0399 8.05499C71.2349 8.05499 71.3999 8.04008 71.5499 7.86008C71.7299 7.68008 71.8349 7.29004 71.8349 6.79504C71.8349 6.52504 71.8049 6.22502 71.7299 5.92502C70.9499 6.76502 69.7649 7.63502 68.7449 8.08502C68.6549 7.93502 68.5049 7.74003 68.3699 7.62003C69.4949 7.18503 70.8599 6.22507 71.5799 5.32507C71.4899 5.07007 71.3699 4.83 71.2349 4.59C70.6949 5.085 69.9449 5.64008 69.3449 5.98508C69.2849 5.86508 69.1499 5.68505 69.0149 5.58005C68.8499 6.40505 68.2649 6.42001 67.5299 6.39001C67.5299 6.24001 67.4549 5.98504 67.3649 5.85004C67.4999 5.86504 67.6499 5.88007 67.7699 5.88007C68.1299 5.88007 68.4899 5.88004 68.4899 5.10004C68.4899 4.57504 68.2349 3.94502 67.5149 3.21002C67.8149 2.50502 68.0999 1.65005 68.3099 0.990051H66.9899V8.625H66.4199V0.420044H68.5949L68.7 0.390015L69.0899 0.630066C69.0899 0.630066 69.0449 0.690062 69.0149 0.720062C68.7749 1.42506 68.4149 2.35504 68.0999 3.13504C68.8199 3.90004 69.0599 4.54507 69.0599 5.13007C69.0599 5.26507 69.0599 5.40008 69.0299 5.52008C69.6449 5.22008 70.455 4.68007 70.95 4.20007C70.8 4.00507 70.6349 3.82508 70.4399 3.64508C70.0199 3.93008 69.5699 4.18508 69.1499 4.39508C69.0599 4.29008 68.8949 4.06504 68.7749 3.97504C69.6149 3.60004 70.5299 3.03004 71.1899 2.38504H68.9699V1.84506H70.3649C70.2599 1.42506 69.9749 0.795033 69.6749 0.315033L70.1849 0.105011C70.4999 0.585011 70.7999 1.20004 70.9199 1.63504L70.4399 1.83005H72.7199C72.5699 1.77005 72.3449 1.66507 72.3299 1.66507C72.6299 1.21507 73.005 0.510029 73.2 0.0300293L73.9349 0.300018C73.9349 0.300018 73.8299 0.390015 73.7399 0.390015C73.5149 0.810015 73.1699 1.42506 72.8549 1.84506H74.5649V2.38504H72.2999H72.2699Z" fill="white"/>
<path d="M77.2949 4.72504H79.8299V5.32507H77.2949V4.72504Z" fill="white"/>
<path d="M83.0247 2.655C83.6097 2.88 84.3297 3.28499 84.6897 3.58499L84.3297 4.09503C83.9847 3.78003 83.2647 3.35998 82.6797 3.10498L83.0247 2.655ZM82.9047 8.14505C83.3547 7.39505 83.9997 6.14998 84.4647 5.06998L84.9447 5.41504C84.5247 6.42004 83.9397 7.59003 83.5197 8.31003C83.5497 8.35503 83.5647 8.39998 83.5647 8.44498C83.5647 8.48998 83.5647 8.51999 83.5347 8.54999L82.8897 8.13004L82.9047 8.14505ZM84.7198 1.63501C84.3748 1.30501 83.6847 0.854977 83.0847 0.569977L83.4447 0.119995C84.0147 0.389995 84.7347 0.809984 85.0797 1.13998L84.7047 1.63501H84.7198ZM91.2898 0.435028V1.02005H87.7647C87.6747 1.45505 87.5847 1.91998 87.4947 2.35498H88.6197C88.6197 2.90998 88.6047 4.42505 88.5897 5.14505L88.8297 4.88998C89.3247 5.14498 89.9547 5.55001 90.2847 5.85001V2.20502L91.0347 2.26498C91.0347 2.26498 90.9747 2.37001 90.8547 2.38501V8.62497H90.2847V8.17499H85.8897V8.63998H85.3197V2.20502L86.0697 2.26498C86.0697 2.26498 86.0097 2.37001 85.8897 2.38501V7.63501H90.2847V5.90997L89.9698 6.28497C89.6848 5.99997 89.0847 5.59501 88.5897 5.29501C88.5297 7.11001 88.4547 7.21497 87.5097 7.21497C87.3597 7.21497 87.2097 7.21497 87.0447 7.21497C87.0297 7.06497 86.9847 6.85503 86.9097 6.72003C87.2547 6.73503 87.5547 6.73505 87.7047 6.73505C87.7947 6.73505 87.8547 6.70504 87.8997 6.63004C88.0197 6.43504 88.0648 5.53505 88.0948 2.89505H87.3897L87.3147 3.19498C87.0147 3.11998 86.8947 3.10497 86.7747 3.08997C86.9247 2.54997 87.0897 1.73999 87.2097 1.04999H84.9747V0.464966H91.3047L91.2898 0.435028ZM87.7347 5.40002C87.2397 5.70002 86.7448 6.01499 86.4148 6.20999C86.4148 6.26999 86.3848 6.34497 86.3248 6.37497L85.9947 5.81998C86.3997 5.60998 86.9847 5.28004 87.5847 4.95004L87.7347 5.40002ZM86.5497 3.34503C86.8947 3.64503 87.2847 4.06502 87.4647 4.36502L87.0748 4.67996C86.8948 4.37996 86.5047 3.93004 86.1597 3.63004L86.5497 3.34503ZM90.2247 3.63004C90.2247 3.63004 90.1197 3.68999 90.0447 3.67499C89.8197 3.92999 89.4298 4.33497 89.1298 4.58997L88.7847 4.29004C89.0697 4.00504 89.4748 3.52498 89.6998 3.19498L90.2247 3.61502V3.63004Z" fill="white"/>
<path d="M102.344 6.21002H98.7743C99.3893 7.33502 100.619 7.89001 102.464 8.07001C102.329 8.20501 102.164 8.47501 102.089 8.64001C100.064 8.37001 98.7893 7.66502 98.1293 6.21002H98.0243C97.5743 7.42502 96.5843 8.23501 94.0943 8.64001C94.0493 8.47501 93.8843 8.22002 93.7793 8.08502C95.9393 7.77002 96.8993 7.17002 97.3493 6.21002H93.8843V5.64001H97.5443C97.6343 5.35501 97.6793 5.05504 97.7243 4.72504H93.9293V4.15503H97.7693V3.31503H94.8443V2.77505H97.7693V1.965H94.3493V1.39508H96.3593C96.2243 1.05008 95.9093 0.585081 95.6093 0.270081L96.1343 0.0450439C96.4943 0.390044 96.8393 0.900026 96.9743 1.24503L96.6443 1.39508H99.3443C99.2543 1.35008 99.1643 1.30507 99.0893 1.29007C99.3743 0.96007 99.7493 0.420044 99.9443 0.0450439L100.679 0.330048C100.679 0.330048 100.589 0.405029 100.499 0.405029C100.289 0.690029 99.9743 1.09508 99.6893 1.39508H101.849V1.965H98.3693V2.77505H101.369V3.31503H98.3693V4.15503H102.239V4.72504H98.5193C98.5193 4.72504 98.4293 4.81505 98.3393 4.83005C98.2943 5.11505 98.2493 5.38501 98.1743 5.64001H102.314V6.21002H102.344Z" fill="white"/>
<path d="M113.34 6.22501V6.74997H109.53V7.95004C109.53 8.61004 109.26 8.62497 107.655 8.62497C107.625 8.45997 107.52 8.24999 107.445 8.08499C107.79 8.08499 108.12 8.10001 108.36 8.10001C108.855 8.10001 108.916 8.10001 108.916 7.92001V6.73505H105.105V6.20999H108.916V5.63998L109.395 5.67001C109.8 5.49001 110.22 5.26502 110.565 5.02502H106.77V4.54501H111.225L111.331 4.51498L111.796 4.83002C111.796 4.83002 111.705 4.89 111.66 4.905C111.12 5.31 110.295 5.77504 109.53 6.07504V6.20999H113.34V6.22501ZM105.855 3.88501V5.06998H105.256V3.38998H106.006L105.826 0.450043L106.32 0.584991C106.755 0.449991 107.25 0.27001 107.565 0.13501L107.971 0.554962C107.971 0.554962 107.911 0.584991 107.866 0.584991C107.851 0.584991 107.82 0.584991 107.805 0.584991C107.46 0.704991 106.89 0.870006 106.425 0.975006L106.456 1.39505H107.881V1.84503H106.485L106.515 2.38501H107.925V2.83499H106.546L106.576 3.38998H111.87L111.93 2.83499H110.506V2.38501H111.96L112.006 1.84503H110.55V1.39505H112.035L112.065 0.85498H110.506V0.404999H112.666C112.621 1.365 112.531 2.56498 112.456 3.38998H113.19V5.06998H112.576V3.88501H105.811H105.855ZM110.25 0.330017C110.25 0.330017 110.16 0.419999 110.07 0.404999C109.935 0.554999 109.8 0.70498 109.62 0.85498C109.83 1.00498 110.01 1.15502 110.145 1.27502L109.815 1.58997C109.68 1.45497 109.486 1.28997 109.276 1.12497C108.976 1.34997 108.66 1.54498 108.36 1.69498C108.285 1.60498 108.135 1.47005 108.03 1.39505C108.315 1.26005 108.631 1.065 108.901 0.869995C108.691 0.734995 108.48 0.614995 108.285 0.494995L108.616 0.209991C108.826 0.314991 109.035 0.434977 109.26 0.569977C109.41 0.434977 109.56 0.269995 109.68 0.119995L110.25 0.315002V0.330017ZM108.69 1.83002C108.9 1.93502 109.11 2.05502 109.32 2.20502C109.5 2.04002 109.665 1.85996 109.8 1.67996L110.37 1.88998C110.37 1.88998 110.265 1.96504 110.19 1.95004C110.055 2.11504 109.89 2.27998 109.695 2.44498C109.92 2.60998 110.115 2.77499 110.265 2.92499L109.936 3.22501C109.801 3.07501 109.59 2.89498 109.35 2.72998C109.05 2.95498 108.721 3.165 108.421 3.315C108.346 3.24 108.195 3.08998 108.09 3.01498C108.39 2.87998 108.706 2.68501 108.991 2.47501C108.781 2.34001 108.57 2.20501 108.375 2.10001L108.706 1.83002H108.69Z" fill="white"/>
<path d="M124.35 1.38007H117.165V3.64508C117.165 5.10008 117.045 7.215 116.265 8.625C116.16 8.52 115.92 8.34003 115.77 8.28003C116.505 6.93003 116.58 5.02508 116.58 3.64508V0.825073H120.09V0.0150146L120.915 0.0750732C120.915 0.0750732 120.855 0.180022 120.735 0.210022V0.825073H124.35V1.36505V1.38007ZM120.225 7.80002C120.225 7.80002 120.135 7.84508 120.045 7.86008C119.52 8.14508 118.485 8.47503 117.66 8.65503C117.57 8.53503 117.39 8.34008 117.27 8.23508C118.095 8.07008 119.145 7.75506 119.655 7.47006L120.225 7.81503V7.80002ZM117.51 3.99005H124.38V4.44003H121.08V4.93506H123.51V7.32001H118.14V4.93506H120.48V4.44003H117.51V3.99005ZM122.55 3.57001H119.085V2.535H117.645V2.10004H119.085V1.5L119.865 1.54504C119.865 1.54504 119.805 1.64999 119.685 1.67999V2.10004H121.95V1.5L122.745 1.54504C122.745 1.54504 122.685 1.64999 122.565 1.67999V2.10004H124.305V2.535H122.565V3.57001H122.55ZM118.71 5.32507V5.94003H120.48V5.32507H118.71ZM118.71 6.30002V6.92999H120.48V6.30002H118.71ZM121.95 2.535H119.685V3.16507H121.95V2.535ZM122.91 5.32507H121.08V5.94003H122.91V5.32507ZM122.91 6.92999V6.30002H121.08V6.92999H122.91ZM123.795 8.65503C123.255 8.40003 122.355 8.08505 121.425 7.83005L121.845 7.47006C122.745 7.71006 123.75 8.02503 124.35 8.28003L123.78 8.65503H123.795Z" fill="white"/>
<path d="M131.384 3.58502H135.269V4.18506H126.899V3.58502H130.739V2.01004H128.699C128.444 2.53504 128.174 3.03003 127.889 3.40503C127.754 3.30003 127.514 3.15007 127.349 3.07507C127.904 2.40007 128.414 1.23003 128.714 0.120026L129.494 0.330048C129.494 0.330048 129.419 0.435059 129.299 0.435059C129.194 0.765059 129.074 1.09503 128.954 1.44003H130.739V0.0300293L131.564 0.0899963C131.564 0.0899963 131.504 0.195037 131.384 0.225037V1.45505H134.549V2.02505H131.384V3.60004V3.58502ZM128.294 8.64001V5.08502H133.919V8.64001H133.274V8.26501H128.924V8.65503H128.294V8.64001ZM133.274 5.67004H128.924V7.66507H133.274V5.67004Z" fill="white"/>
<path d="M140.895 0.374969V7.87497C140.895 8.62497 140.49 8.63998 139.35 8.63998C139.32 8.47498 139.245 8.20504 139.155 8.04004C139.38 8.04004 139.605 8.04004 139.77 8.04004C140.25 8.04004 140.31 8.04005 140.31 7.86005V5.41504H138.855C138.78 6.54004 138.585 7.72498 138.135 8.63998C138.03 8.53498 137.775 8.38497 137.625 8.33997C138.27 7.01997 138.33 5.12997 138.33 3.74997V0.374969H140.88H140.895ZM138.915 3.74997C138.915 4.07997 138.915 4.44002 138.9 4.83002H140.31V3.16504H138.915V3.74997ZM140.31 0.975006H138.915V2.58002H140.31V0.975006ZM142.62 0.959991V1.53C142.62 2.34 142.41 3.33004 141.42 4.00504C141.33 3.88504 141.09 3.65999 140.97 3.58499C141.885 2.98499 142.02 2.17498 142.02 1.51498V0.360046H144.945V2.79004C144.945 3.00004 144.96 3.01498 145.125 3.01498H145.62C145.77 3.01498 145.815 2.89504 145.83 1.95004C145.965 2.05504 146.205 2.14499 146.355 2.17499C146.295 3.28499 146.16 3.55496 145.68 3.55496H145.035C144.495 3.55496 144.345 3.39004 144.345 2.79004V0.929962H142.62V0.959991ZM145.335 4.13998L145.74 4.31998C145.74 4.31998 145.695 4.39497 145.65 4.40997C145.32 5.44497 144.78 6.30001 144.09 6.97501C144.735 7.50001 145.515 7.89002 146.385 8.11502C146.235 8.23502 146.055 8.49 145.95 8.655C145.08 8.385 144.3 7.95005 143.625 7.39505C142.935 7.96505 142.155 8.37 141.33 8.655C141.255 8.505 141.105 8.23502 140.97 8.11502C141.75 7.89002 142.515 7.50002 143.175 6.99002C142.605 6.40502 142.14 5.71501 141.81 4.92001L142.305 4.74002H141.405V4.155H145.215L145.335 4.12497V4.13998ZM142.38 4.75504C142.665 5.44504 143.1 6.05999 143.64 6.58499C144.165 6.07499 144.6 5.46004 144.885 4.75504H142.38Z" fill="white"/>
<path d="M149.924 3.52505C149.624 4.06505 149.309 4.57503 148.979 4.99503C148.889 4.86003 148.709 4.62 148.574 4.5C149.414 3.465 150.239 1.72503 150.749 0.0300293L151.514 0.270081C151.514 0.270081 151.409 0.375077 151.289 0.360077C151.049 1.09508 150.749 1.84502 150.419 2.55002L150.719 2.64001C150.719 2.64001 150.659 2.74503 150.539 2.74503V8.64001H149.924V3.54007V3.52505ZM153.209 1.24503C153.209 1.24503 153.119 1.35004 153.029 1.35004C152.699 2.26504 152.054 3.45 151.274 4.215C151.184 4.08 151.004 3.88501 150.899 3.76501C151.619 3.07501 152.189 1.95 152.474 1.035L153.209 1.24503ZM155.864 3.78003H156.209C156.209 3.87003 156.209 3.94508 156.194 4.02008C156.104 7.00508 156.044 8.01 155.789 8.34C155.549 8.64 155.324 8.64001 154.829 8.64001C154.619 8.64001 154.379 8.64 154.124 8.625C154.124 8.43 154.049 8.17504 153.944 8.01004C154.364 8.04004 154.754 8.04007 154.919 8.04007C155.069 8.04007 155.144 8.02504 155.219 7.92004C155.399 7.71004 155.474 6.81004 155.549 4.35004H153.794C153.644 5.94004 153.179 7.68001 151.499 8.64001C151.424 8.50501 151.244 8.28002 151.124 8.17502C152.639 7.35002 153.044 5.86504 153.179 4.35004H151.829V3.78003H155.849H155.864ZM152.999 0.300018H155.534C155.804 1.74002 156.509 3.03008 157.409 3.64508C157.259 3.75008 157.049 3.99001 156.944 4.14001C156.059 3.45001 155.384 2.22001 155.069 0.855011H153.029V0.285004L152.999 0.300018Z" fill="white"/>
<path d="M167.984 1.86008H162.929C162.749 2.25008 162.554 2.625 162.344 3H166.814V7.81503C166.814 8.59503 166.439 8.625 164.789 8.625C164.759 8.445 164.669 8.17504 164.579 8.01004C164.909 8.01004 165.209 8.01004 165.464 8.01004C166.139 8.01004 166.199 8.01002 166.199 7.80002V6.75H162.284V8.625H161.669V4.035C161.204 4.665 160.649 5.23507 160.004 5.70007C159.914 5.56507 159.719 5.32505 159.584 5.20505C160.739 4.39505 161.609 3.18 162.209 1.875H159.779V1.27505H162.479C162.644 0.870055 162.779 0.450044 162.884 0.0450439L163.694 0.255066C163.694 0.255066 163.604 0.360077 163.484 0.360077C163.394 0.660077 163.289 0.97507 163.169 1.29007H167.984V1.89001V1.86008ZM166.199 4.60501V3.57001H162.284V4.60501H166.199ZM162.284 6.21002H166.199V5.16H162.284V6.21002Z" fill="white"/>
<path d="M173.37 0.405029L173.79 0.660004C173.79 0.660004 173.745 0.72 173.7 0.75C173.43 1.47 173.04 2.41507 172.68 3.16507C173.46 3.93007 173.745 4.56002 173.745 5.17502C173.745 6.52502 172.845 6.495 172.065 6.465C172.065 6.3 171.99 6.06 171.915 5.91C172.17 5.925 172.41 5.92502 172.575 5.92502C172.71 5.91002 172.815 5.88001 172.92 5.82001C173.085 5.73001 173.16 5.46002 173.16 5.17502C173.16 4.89002 173.145 4.23005 172.08 3.24005C172.41 2.53505 172.74 1.65007 172.965 1.00507H171.465V8.64001H170.88V0.435059H173.265L173.37 0.405029ZM176.535 4.59C176.67 5.085 176.865 5.565 177.075 6C177.525 5.655 178.035 5.17503 178.35 4.81503L178.92 5.26501C178.92 5.26501 178.815 5.32506 178.74 5.31006C178.395 5.65506 177.81 6.12 177.345 6.465C177.795 7.2 178.395 7.75504 179.145 8.10004C179.01 8.22004 178.815 8.445 178.725 8.625C177.33 7.92 176.445 6.46503 175.98 4.62003H174.915V7.59L176.7 7.215L176.745 7.77008C175.59 8.04008 174.375 8.32505 173.61 8.49005C173.61 8.55005 173.55 8.61 173.49 8.625L173.22 7.92004C173.52 7.86004 173.895 7.78502 174.3 7.71002V0.480011H178.5V4.63504H176.535V4.59ZM177.885 0.990051H174.915V2.20505H177.885V0.990051ZM174.915 2.74503V4.02008H177.885V2.74503H174.915Z" fill="white"/>
<path d="M184.875 0.584991C184.875 0.584991 184.77 0.674988 184.665 0.674988C184.05 2.06999 183.075 3.48004 182.085 4.38004C181.95 4.24504 181.71 4.04999 181.545 3.95999C182.535 3.13499 183.495 1.725 184.065 0.315002L184.875 0.584991ZM185.85 3.65997C185.85 3.65997 185.745 3.78 185.625 3.78C185.19 4.875 184.5 6.36005 183.885 7.48505C185.19 7.45505 186.735 7.39499 188.235 7.33499C187.785 6.70499 187.275 6.03001 186.81 5.47501L187.395 5.19C188.25 6.165 189.24 7.48504 189.705 8.32504L189.09 8.67001C188.97 8.44501 188.805 8.17497 188.61 7.87497C186.285 8.00997 183.81 8.11499 182.28 8.17499C182.265 8.24999 182.19 8.29503 182.13 8.31003L181.875 7.53L183.195 7.49997C183.84 6.34497 184.59 4.65001 185.01 3.42001L185.865 3.64505L185.85 3.65997ZM187.32 0.299988C187.965 1.54499 189.15 3.05998 190.02 3.85498C189.855 3.98998 189.63 4.21504 189.495 4.38004C188.625 3.49504 187.425 1.87496 186.705 0.554962L187.305 0.299988H187.32Z" fill="white"/>
<path d="M200.25 0.645081V7.74005C200.25 8.62505 199.875 8.65503 198.09 8.65503C198.06 8.47503 197.956 8.16 197.866 7.965C198.196 7.965 198.526 7.98001 198.796 7.98001C199.576 7.98001 199.605 7.98005 199.605 7.74005V1.24503H192.811V0.645081H200.25ZM198.511 2.23508V2.80499H192.826V2.23508H198.511ZM197.551 3.79504V6.92999H194.07V7.80002H193.456V3.79504H197.535H197.551ZM196.936 4.35004H194.07V6.375H196.936V4.35004Z" fill="white"/>
<path d="M2.65475 14.4151L3.01474 14.535C3.01474 14.535 2.98477 14.625 2.95477 14.64C2.80477 15.885 2.54973 16.935 2.15973 17.76C3.08973 18.675 4.39473 18.885 5.99973 18.885C6.34473 18.885 8.41478 18.885 8.86478 18.885C8.75978 19.035 8.65471 19.32 8.60971 19.5H5.98471C4.22971 19.5 2.87973 19.26 1.87473 18.33C1.52973 18.945 1.09476 19.4251 0.599762 19.7701C0.509762 19.6351 0.269766 19.425 0.134766 19.335C0.659766 18.99 1.09477 18.495 1.45477 17.85C1.09477 17.37 0.794733 16.7701 0.569733 15.9901L1.06476 15.78C1.24476 16.38 1.45478 16.86 1.73978 17.265C1.99478 16.62 2.18978 15.87 2.30978 15H1.12473L0.929718 15.375L0.359711 15.21C0.839711 14.325 1.40974 13.14 1.79974 12.315H0.209747V11.745H2.15973L2.27975 11.715L2.68478 11.8801C2.68478 11.8801 2.63971 11.97 2.60971 12C2.32471 12.6 1.87473 13.5301 1.40973 14.4151H2.65475ZM5.39978 14.43V13.695H2.77478V13.17H5.39978V12.4351H3.49475V11.925H5.39978V11.085L6.17972 11.1451C6.17972 11.1451 6.11973 11.25 5.99973 11.265V11.925H8.03979V13.17H8.78979V13.695H8.03979V14.94H5.99973V15.705H8.18976V16.2001H5.99973V16.965H8.60971V17.4901H5.99973V18.5251H5.38477V17.4901H2.87979V16.965H5.38477V16.2001H3.28473V15.705H5.38477V14.94H3.41977V14.43H5.38477H5.39978ZM6.01474 12.4351V13.17H7.43976V12.4351H6.01474ZM7.43976 14.43V13.695H6.01474V14.43H7.43976Z" fill="white"/>
<path d="M12.0456 14.85V17.8801C12.7656 18.9751 14.0856 18.975 15.7656 18.975C16.7706 18.975 17.9406 18.9451 18.6606 18.9001C18.5856 19.0501 18.4806 19.35 18.4506 19.53C17.8056 19.56 16.7856 19.5751 15.8706 19.5751C13.9656 19.5751 12.6906 19.575 11.7606 18.42C11.3106 18.825 10.8156 19.2451 10.4256 19.5601C10.4256 19.6501 10.4106 19.68 10.3356 19.71L9.97559 19.0201C10.4256 18.7201 10.9656 18.3001 11.4456 17.8951V15.4351H10.0806V14.835H12.0456V14.85ZM10.6656 11.37C11.2806 11.775 12.0006 12.375 12.3306 12.84L11.8356 13.26C11.5356 12.795 10.8306 12.165 10.2006 11.745L10.6656 11.37ZM18.5106 14.28V14.82H12.4806V14.28H15.2256V12.93H13.8755C13.6955 13.35 13.4706 13.7401 13.2456 14.0251C13.1106 13.9351 12.8706 13.8151 12.7206 13.7401C13.1856 13.1701 13.5756 12.1801 13.8156 11.2351L14.5506 11.445C14.5506 11.445 14.4606 11.535 14.3556 11.535C14.2806 11.805 14.1906 12.0751 14.0856 12.3601H15.2106V11.1151L16.0205 11.16C16.0205 11.16 15.9605 11.265 15.8405 11.295V12.3601H18.1056V12.9151H15.8405V14.265H18.5106V14.28ZM17.7306 18.39H17.1156V18.0751H13.9956V18.42H13.3955V15.5251H17.7155V18.39H17.7306ZM14.0106 17.5201H17.1306V16.05H14.0106V17.5201Z" fill="white"/>
<path d="M22.59 16.215L22.9201 16.2751L22.89 16.4701C22.74 18.4951 22.5901 19.26 22.3351 19.53C22.1251 19.77 21.8551 19.785 21.4951 19.785C21.3001 19.785 21.06 19.7851 20.82 19.7551C20.82 19.5901 20.745 19.35 20.64 19.215C21.03 19.245 21.405 19.245 21.555 19.245C21.69 19.245 21.78 19.23 21.855 19.155C22.035 18.975 22.1701 18.345 22.2901 16.785H20.925C20.865 17.01 20.8201 17.2201 20.7601 17.4001C20.3101 17.3101 20.2651 17.295 20.1901 17.295C20.3551 16.785 20.5351 16.02 20.6701 15.375H19.8301V14.82H23.355V15.375H21.2551C21.1951 15.66 21.1201 15.975 21.0451 16.26H22.5751L22.59 16.215ZM22.9501 11.4901V14.07H20.2951V11.4901H22.9501ZM22.3501 13.53V12.015H20.8351V13.53H22.3501ZM24.195 13.515V15.39C24.195 16.695 24.0601 18.525 23.1901 19.785C23.0851 19.68 22.8601 19.5 22.7251 19.44C23.5351 18.255 23.625 16.62 23.625 15.405V12.9901H25.5V11.1151L26.2801 11.16C26.2801 11.16 26.2201 11.265 26.1001 11.295V11.7901H28.0051V12.315H26.1001V12.975H28.4701C28.4701 13.125 28.275 14.1901 28.125 14.7001L27.645 14.5951C27.705 14.3101 27.7801 13.905 27.8251 13.515H24.195ZM25.7551 16.53C25.7551 16.53 25.6801 16.6351 25.5751 16.6501C25.4701 17.8651 25.2301 19.035 24.2101 19.71C24.1201 19.575 23.9551 19.38 23.8351 19.305C24.7201 18.735 24.96 17.67 25.035 16.455L25.77 16.515L25.7551 16.53ZM26.0851 15.33C26.0851 15.525 26.1151 15.555 26.3851 15.555H27.3C27.51 15.555 27.5551 15.495 27.5851 14.94C27.7051 15.03 27.9151 15.105 28.0801 15.135C28.0201 15.855 27.87 16.05 27.375 16.05H26.3251C25.6801 16.05 25.515 15.9151 25.515 15.3601V14.94L24.5101 15.045L24.4501 14.58L25.5301 14.475V13.635L26.265 13.68C26.265 13.68 26.2051 13.785 26.0851 13.8V14.4151L27.285 14.295L27.3451 14.745L26.1001 14.8801V15.3601L26.0851 15.33ZM26.9551 18.7351C26.9551 19.0201 26.9551 19.0951 27.2251 19.0951H27.6001C28.0201 19.0951 28.02 19.0051 28.05 17.9851C28.155 18.0901 28.35 18.1801 28.5 18.2401C28.47 19.2151 28.47 19.59 27.645 19.59H27.1201C26.9401 19.59 26.7151 19.545 26.5801 19.44C26.4451 19.335 26.4001 19.185 26.4001 18.66V16.425L27.1501 16.4701C27.1501 16.4701 27.0901 16.575 26.9701 16.59V18.7351H26.9551Z" fill="white"/>
<path d="M32.7902 18.54H30.9602V19.32H30.4052V16.035C30.2552 16.38 30.0602 16.695 29.8652 16.965C29.8052 16.83 29.6402 16.56 29.5352 16.44C30.1802 15.495 30.6152 13.89 30.8552 12.195H29.7302V11.625H33.1502V12.195H31.4402C31.3202 13.005 31.1552 13.8 30.9452 14.535H32.7902V18.54ZM32.2351 15.09H30.9602V17.985H32.2351V15.09ZM33.9301 17.13C33.8251 17.94 33.6452 18.825 33.1952 19.335L32.7452 19.08C33.1652 18.6 33.3602 17.79 33.4502 17.025L33.9301 17.13ZM37.8002 15.96L38.1302 16.005C38.1302 16.005 38.1152 16.14 38.1152 16.215C38.0102 18.45 37.8902 19.26 37.6502 19.53C37.4702 19.755 37.2752 19.785 36.7952 19.785C36.5852 19.785 36.3302 19.7851 36.0752 19.7701C36.0602 19.6051 36.0002 19.365 35.9102 19.215C36.3302 19.26 36.7202 19.26 36.8552 19.26C37.0052 19.26 37.0802 19.245 37.1552 19.17C37.3202 18.99 37.4252 18.315 37.5152 16.545H33.5852V11.595H37.9202V12.15H36.0901V13.065H37.7102V13.59H36.0901V14.5201H37.7102V15.045H36.0901V16.005H37.8002V15.96ZM35.5201 12.12H34.1552V13.035H35.5201V12.12ZM35.5201 14.49V13.56H34.1552V14.49H35.5201ZM34.1552 15.015V15.975H35.5201V15.015H34.1552ZM34.5002 19.035C34.5002 18.555 34.4552 17.85 34.3502 17.295L34.8002 17.235C34.9052 17.79 34.9802 18.51 34.9802 18.975L34.5002 19.05V19.035ZM35.7902 18.675C35.7302 18.285 35.5502 17.67 35.3552 17.205L35.7752 17.1C35.9852 17.55 36.1652 18.15 36.2402 18.54L35.7902 18.675ZM36.6451 16.845C36.9151 17.19 37.2002 17.655 37.3202 17.955L36.9452 18.135C36.8252 17.82 36.5552 17.34 36.3002 16.995L36.6451 16.83V16.845Z" fill="white"/>
<path d="M39.7051 14.7001C39.7051 14.3551 39.9301 14.1 40.2451 14.1C40.5601 14.1 40.785 14.3551 40.785 14.7001C40.785 15.0451 40.5751 15.3 40.2451 15.3C39.9001 15.3 39.7051 15.0151 39.7051 14.7001ZM39.7051 18.495C39.7051 18.15 39.9301 17.8951 40.2451 17.8951C40.5601 17.8951 40.785 18.15 40.785 18.495C40.785 18.825 40.5751 19.08 40.2451 19.08C39.9001 19.08 39.7051 18.795 39.7051 18.495Z" fill="white"/>
<path d="M43.7693 20.2351C43.1093 19.3801 42.4043 18.0301 42.4043 15.9901C42.4043 13.9501 43.1093 12.5851 43.7693 11.7001H44.3993C43.6343 12.7351 43.0793 14.0851 43.0793 16.0051C43.0793 17.9251 43.6493 19.2 44.3993 20.25H43.7693V20.2351Z" fill="white"/>
<path d="M47.5499 18.96V12.75H47.5349L46.3948 13.41L46.2148 12.84L47.6549 12.03H48.3149V18.975H47.5649L47.5499 18.96Z" fill="white"/>
<path d="M51.1809 15.51C51.1809 13.08 52.126 11.91 53.416 11.91C54.706 11.91 55.531 13.155 55.531 15.42C55.531 17.835 54.691 19.065 53.311 19.065C52.051 19.065 51.166 17.82 51.166 15.51H51.1809ZM54.766 15.45C54.766 13.71 54.346 12.525 53.371 12.525C52.546 12.525 51.961 13.62 51.961 15.45C51.961 17.28 52.4709 18.435 53.3409 18.435C54.3759 18.435 54.766 17.1 54.766 15.45Z" fill="white"/>
<path d="M57.6304 15.285C57.9454 14.82 58.5153 14.43 59.2503 14.43C60.4203 14.43 61.2153 15.315 61.2153 16.65C61.2153 17.985 60.4353 19.08 59.0853 19.08C57.7353 19.08 56.8203 17.955 56.8203 16.17C56.8203 14.385 57.6903 12.36 59.9403 11.985C60.1953 11.955 60.4353 11.925 60.5853 11.925V12.57C58.6653 12.57 57.7503 13.965 57.6003 15.3H57.6304V15.285ZM60.4354 16.695C60.4354 15.63 59.8654 15.015 59.0254 15.015C58.1854 15.015 57.5853 15.81 57.5853 16.335C57.5853 17.61 58.1253 18.48 59.1003 18.48C59.9103 18.48 60.4354 17.76 60.4354 16.71V16.695Z" fill="white"/>
<path d="M62.9542 11.6851C63.6142 12.5401 64.3192 13.89 64.3192 15.96C64.3192 18.03 63.6292 19.3351 62.9542 20.2351H62.3242C63.0742 19.2001 63.6441 17.85 63.6441 15.96C63.6441 14.07 63.0742 12.7501 62.3242 11.7001H62.9542V11.6851Z" fill="white"/>
<path d="M67.9197 13.785V14.4151C68.1747 14.7601 68.8797 15.795 69.0447 16.05C68.9847 16.155 68.9098 16.26 68.6998 16.53C68.5648 16.23 68.2047 15.6301 67.9197 15.1651V19.7551H67.3497V15.195C67.0197 16.275 66.5847 17.3401 66.1347 17.9701C66.0597 17.8051 65.9097 17.565 65.8047 17.43C66.3897 16.65 66.9747 15.12 67.2747 13.815H65.9997V13.23H67.3497V11.16L68.1147 11.2201C68.1147 11.2201 68.0548 11.325 67.9348 11.34V13.23H69.0297V13.815H67.9348L67.9197 13.785ZM68.6998 16.92C69.1498 16.635 69.8247 16.1401 70.4997 15.6451C70.4997 15.4351 70.4997 15.225 70.4997 15.015V11.1451L71.2647 11.19C71.2647 11.19 71.2047 11.2951 71.0847 11.3251V15.015C71.0847 16.695 70.9047 18.6901 68.9247 19.7701C68.8497 19.6501 68.6697 19.425 68.5347 19.305C69.9297 18.645 70.3347 17.4451 70.4547 16.2751C69.9597 16.6951 69.4797 17.1 69.1347 17.37C69.1347 17.445 69.1048 17.505 69.0598 17.55L68.6848 16.9351L68.6998 16.92ZM69.4647 12.57C69.8097 13.17 70.1997 13.965 70.3497 14.475L69.8547 14.7001C69.7047 14.1751 69.3447 13.365 69.0147 12.765L69.4797 12.555L69.4647 12.57ZM72.6447 18.66C72.6447 19.005 72.6897 19.065 72.9297 19.065H73.7697C73.9797 19.065 74.0248 18.8101 74.0398 17.8951C74.1898 18.0001 74.4147 18.1051 74.5797 18.1501C74.5197 19.2451 74.3697 19.635 73.8147 19.635H72.8547C72.2397 19.635 72.0598 19.44 72.0598 18.66V11.16L72.8397 11.205C72.8397 11.205 72.7797 11.31 72.6597 11.34V15.69L72.9447 15.4351C73.5147 15.9301 74.2347 16.6051 74.5797 17.0401L74.1897 17.445C73.8597 17.025 73.2297 16.365 72.6747 15.885V18.69L72.6447 18.66ZM74.4897 12.8101C74.4897 12.8101 74.3847 12.885 74.2947 12.885C74.0397 13.425 73.6047 14.1901 73.2597 14.6851C73.2597 14.6851 72.8098 14.46 72.8098 14.445C73.1548 13.92 73.5747 13.08 73.8147 12.48L74.4897 12.8101Z" fill="white"/>
<path d="M84.2243 12.465V13.08H80.3393H80.4743C80.4743 13.14 80.4143 13.185 80.2943 13.215V14.4151H83.3243V17.76C83.3243 18.495 83.0243 18.5401 81.2843 18.5401C81.2543 18.3601 81.1493 18.09 81.0593 17.925C81.7193 17.94 82.2893 17.94 82.4693 17.94C82.6343 17.925 82.6793 17.88 82.6793 17.76V15.03H80.2793V19.785H79.6343V15.03H77.3843V18.585H76.7543V14.4151H79.6343V13.08H75.7793V12.465H79.6343V11.1L80.4743 11.1451C80.4743 11.1451 80.4143 11.265 80.2793 11.28V12.4501H84.2093L84.2243 12.465Z" fill="white"/>
<path d="M88.0498 14.0401H88.4848C89.0698 13.3051 89.5649 12.48 89.9549 11.58L90.6598 11.82C90.6598 11.82 90.5549 11.925 90.4349 11.91C90.0899 12.675 89.6698 13.3801 89.1898 14.0251H90.3898V14.58H88.7399C88.4399 14.955 88.0948 15.3001 87.7498 15.6151H89.9098V19.605H89.3099V19.23H87.1048V19.7701H86.5198V16.5601C86.2648 16.7251 86.0099 16.8751 85.7399 17.0251C85.6649 16.9051 85.4849 16.6801 85.3799 16.5601C85.7849 16.3501 86.1598 16.125 86.5198 15.87V15.6301H86.8499C87.2399 15.3301 87.6149 14.9701 87.9749 14.5951H85.5148V14.0401H87.4349V12.795H85.9499V12.2401H87.4349V11.1451L88.1999 11.19C88.1999 11.19 88.1398 11.2951 88.0198 11.3251V12.2401H89.2199V12.795H88.0198V14.0401H88.0498ZM89.3398 17.175V16.155H87.1349V17.175H89.3398ZM87.1349 18.705H89.3398V17.67H87.1349V18.705ZM90.7648 11.67H93.5698C93.6748 11.64 93.6749 11.64 93.7049 11.64C93.7499 11.67 93.7948 11.7 94.1098 11.85C94.1098 11.88 94.0648 11.925 94.0198 11.94C93.6748 12.735 93.1949 13.74 92.6999 14.73C93.6749 15.69 94.0799 16.395 94.0799 17.07C94.0799 18.54 93.1049 18.5401 92.4899 18.5401C92.3399 18.5401 92.2048 18.5401 92.0698 18.5401C92.0698 18.3601 91.9798 18.09 91.8598 17.925C92.1148 17.94 92.3548 17.955 92.5648 17.955C92.9698 17.955 93.4648 17.955 93.4648 17.07C93.4648 16.455 93.0299 15.795 92.0399 14.85C92.4749 13.92 92.8798 13.0201 93.1798 12.2701H91.3799V19.7401H90.7648V11.67Z" fill="white"/>
<path d="M97.7846 14.4151L98.1446 14.535C98.1446 14.535 98.1147 14.625 98.0847 14.64C97.9347 15.885 97.6797 16.935 97.2897 17.76C98.2197 18.675 99.5247 18.885 101.13 18.885C101.475 18.885 103.545 18.885 103.995 18.885C103.89 19.035 103.785 19.32 103.74 19.5H101.115C99.3597 19.5 98.0097 19.26 97.0047 18.33C96.6597 18.945 96.2246 19.4251 95.7296 19.7701C95.6396 19.6351 95.3996 19.425 95.2646 19.335C95.7896 18.99 96.2247 18.495 96.5847 17.85C96.2247 17.37 95.9247 16.7701 95.6997 15.9901L96.1946 15.78C96.3746 16.38 96.5847 16.86 96.8697 17.265C97.1247 16.62 97.3197 15.87 97.4397 15H96.2547L96.0597 15.375L95.4897 15.21C95.9697 14.325 96.5396 13.14 96.9296 12.315H95.3396V11.745H97.2897L97.4096 11.715L97.8147 11.8801C97.8147 11.8801 97.7697 11.97 97.7397 12C97.4547 12.6 97.0047 13.5301 96.5397 14.4151H97.7846ZM100.53 14.43V13.695H97.9047V13.17H100.53V12.4351H98.6246V11.925H100.53V11.085L101.31 11.1451C101.31 11.1451 101.25 11.25 101.13 11.265V11.925H103.17V13.17H103.92V13.695H103.17V14.94H101.13V15.705H103.32V16.2001H101.13V16.965H103.74V17.4901H101.13V18.5251H100.515V17.4901H98.0097V16.965H100.515V16.2001H98.4147V15.705H100.515V14.94H98.5497V14.43H100.515H100.53ZM101.145 12.4351V13.17H102.57V12.4351H101.145ZM102.57 14.43V13.695H101.145V14.43H102.57Z" fill="white"/>
<path d="M109.321 13.6501V14.19H105.166V13.6501H106.936V12.66H105.541V12.12H106.936V11.1451L107.701 11.19C107.701 11.19 107.641 11.2951 107.521 11.3251V12.135H108.961V12.675H107.521V13.6651H109.321V13.6501ZM109.051 17.8801H107.506V19.7401H106.921V17.8801H105.406V17.3251H106.921V16.2751H105.256V15.7201H107.926C107.836 15.6901 107.701 15.63 107.641 15.6C107.821 15.225 108.046 14.6401 108.151 14.2351L108.796 14.46C108.796 14.46 108.706 14.55 108.616 14.55C108.481 14.88 108.241 15.3901 108.046 15.7201H109.171V16.2751H107.491V17.3251H109.036V17.8801H109.051ZM106.201 15.7201C106.171 15.3751 105.976 14.805 105.781 14.37L106.246 14.25C106.456 14.655 106.651 15.21 106.696 15.57L106.201 15.7201ZM111.316 11.175C111.316 11.265 111.241 11.31 111.106 11.34C111.106 11.91 111.106 12.4651 111.106 12.9901H112.861C112.861 14.3101 112.846 19.125 113.311 19.125C113.371 19.125 113.431 18.5101 113.461 17.7751C113.566 17.9101 113.746 18.1051 113.851 18.1651C113.806 19.3651 113.596 19.7701 113.266 19.7701C112.411 19.7701 112.306 17.6101 112.276 13.5751H111.091C111.076 14.4301 111.016 15.2401 110.896 15.9901C111.391 16.3951 111.856 16.815 112.111 17.16L111.736 17.655C111.511 17.355 111.166 17.0101 110.761 16.6501C110.461 17.9701 109.876 19.035 108.811 19.785C108.721 19.65 108.511 19.4551 108.361 19.3651C109.441 18.6301 109.981 17.58 110.251 16.23C109.876 15.93 109.486 15.645 109.126 15.42C109.381 15.075 109.426 15.03 109.471 15C109.756 15.18 110.071 15.39 110.356 15.6C110.446 14.985 110.476 14.31 110.491 13.605H109.201V13.0201H110.506C110.506 12.4351 110.506 11.82 110.506 11.175L111.316 11.205V11.175Z" fill="white"/>
<path d="M116.79 17.865C116.565 18.555 116.145 19.305 115.65 19.755L115.08 19.5C115.545 19.095 115.98 18.39 116.205 17.715L116.79 17.865ZM116.085 16.665V17.25H115.5V11.55H118.17V16.665H116.085ZM117.585 12.12H116.085V13.8H117.585V12.12ZM116.085 16.11H117.585V14.37H116.085V16.11ZM118.035 19.68C118.035 19.245 117.945 18.525 117.84 17.97L118.41 17.91C118.545 18.45 118.635 19.17 118.65 19.59L118.035 19.68ZM123.225 11.595C123.225 11.595 123.225 11.715 123.195 11.775C123.06 14.16 122.925 14.16 121.89 14.16C121.695 14.16 121.455 14.16 121.23 14.13C121.215 13.98 121.155 13.755 121.065 13.605C121.485 13.635 121.89 13.65 122.04 13.65C122.19 13.65 122.265 13.635 122.325 13.56C122.445 13.44 122.535 13.035 122.595 12.09H120.885C120.675 13.17 120.21 13.995 118.71 14.445C118.65 14.31 118.485 14.085 118.365 13.98C119.64 13.635 120.09 13.005 120.27 12.09H118.71V11.535H122.895L123.225 11.565V11.595ZM122.955 14.67V17.235H118.995V14.67H122.955ZM122.34 16.71V15.195H119.58V16.71H122.34ZM120.345 19.695C120.255 19.245 120.015 18.525 119.76 17.97L120.345 17.865C120.6 18.405 120.87 19.125 120.96 19.56L120.345 19.695ZM122.955 19.785C122.73 19.29 122.175 18.48 121.71 17.91L122.28 17.7C122.76 18.27 123.315 19.05 123.57 19.56L122.955 19.785Z" fill="white"/>
<path d="M133.275 16.3801V16.98H129.435V18.975C129.435 19.71 128.985 19.725 127.455 19.725C127.41 19.56 127.29 19.305 127.185 19.125C127.56 19.125 127.92 19.14 128.175 19.14C128.745 19.14 128.775 19.14 128.775 18.96V16.965H124.92V16.3651H128.775V15.51H129.06C129.555 15.24 130.095 14.85 130.5 14.475H126.66V13.905H131.13L131.235 13.875L131.73 14.175C131.73 14.175 131.64 14.25 131.595 14.265C131.07 14.805 130.23 15.4501 129.435 15.9001V16.3951H133.275V16.3801ZM125.88 12.885V14.46H125.265V12.3H128.76V11.1151L129.6 11.175C129.6 11.175 129.54 11.2801 129.42 11.3101V12.315H132.975V14.475H132.345V12.9001H125.895L125.88 12.885Z" fill="white"/>
<path d="M136.785 13.605C136.725 13.305 136.545 12.855 136.365 12.48H135.945C135.675 12.93 135.36 13.3501 135.06 13.6651C134.94 13.5601 134.73 13.41 134.58 13.335C135.12 12.81 135.66 11.94 135.975 11.085L136.68 11.3101C136.68 11.3101 136.575 11.4001 136.485 11.4001C136.41 11.5801 136.32 11.7751 136.23 11.9701H138.795V12.48H136.995C137.145 12.795 137.28 13.1401 137.34 13.3951L136.785 13.605ZM142.32 16.725H142.455L142.815 16.7701C142.815 16.8301 142.8 16.905 142.785 16.965C142.545 19.305 142.365 19.335 141.285 19.335C141.075 19.335 140.82 19.335 140.55 19.32C140.55 19.14 140.475 18.9001 140.37 18.7351C140.835 18.7951 141.27 18.795 141.435 18.795C141.6 18.795 141.69 18.795 141.765 18.705C141.915 18.57 142.02 18.18 142.11 17.265H139.2V19.7401H138.585V17.445C137.655 18.375 136.245 19.1551 135 19.5601C134.91 19.4101 134.73 19.185 134.595 19.065C135.795 18.735 137.145 18.045 138.015 17.265H136.05L135.945 17.6101L135.33 17.5201C135.525 16.9201 135.75 15.9901 135.9 15.2551H138.57V14.25H135.39V13.71H142.185V15.795H139.17V16.725H142.26H142.32ZM138.615 15.795H136.44C136.38 16.095 136.29 16.425 136.215 16.725H138.615V15.795ZM140.37 11.3101C140.37 11.3101 140.28 11.4001 140.19 11.4001C140.1 11.5951 140.01 11.7901 139.905 11.9701H143.205V12.48H140.985C141.225 12.795 141.435 13.14 141.555 13.41L141 13.635C140.88 13.32 140.61 12.855 140.31 12.48H139.59C139.29 12.93 138.945 13.32 138.585 13.605C138.48 13.5 138.255 13.35 138.105 13.26C138.735 12.78 139.32 11.955 139.65 11.085L140.37 11.3101ZM139.23 14.25V15.2551H141.63V14.25H139.23Z" fill="white"/>
<path d="M147.12 12.9151C146.385 13.3951 145.545 13.83 144.69 14.16C144.615 14.025 144.48 13.815 144.36 13.68C145.965 13.095 147.585 12.0751 148.365 11.1301L149.25 11.16C149.25 11.16 149.16 11.265 149.07 11.28C150 12.21 151.695 13.1251 153.105 13.5751C152.97 13.7101 152.835 13.95 152.745 14.1C151.98 13.815 151.14 13.41 150.375 12.945V13.335H147.105V12.9151H147.12ZM145.59 16.215V13.875H151.95V16.215H145.59ZM146.13 14.3101V15.765H148.44V14.3101H146.13ZM146.205 19.7401V16.68H151.365V19.7401H150.735V19.44H146.82V19.7401H146.205ZM147.315 15.705C147.225 15.405 146.985 14.9401 146.745 14.5951L147.195 14.43C147.45 14.76 147.705 15.21 147.795 15.51L147.315 15.69V15.705ZM150.735 17.1451H146.82V17.82H150.735V17.1451ZM146.82 18.975H150.735V18.285H146.82V18.975ZM150.285 12.855C149.67 12.48 149.115 12.045 148.695 11.64C148.32 12.045 147.81 12.465 147.195 12.855H150.285ZM151.38 15.75V14.295H148.965V15.75H151.38ZM150.84 14.64C150.84 14.64 150.735 14.7151 150.66 14.7001C150.51 14.9851 150.255 15.42 150.06 15.705C149.97 15.675 149.73 15.5551 149.64 15.5251C149.82 15.2101 150.075 14.715 150.21 14.385L150.855 14.64H150.84Z" fill="white"/>
<path d="M154.649 11.565H162.464V19.755H161.849V19.35H155.249V19.755H154.649V11.565ZM155.249 18.765H161.849V12.135H155.249V18.765ZM158.879 16.3951C159.089 16.6351 159.344 16.875 159.644 17.085C160.034 16.83 160.529 16.485 160.799 16.245L161.309 16.56C161.309 16.56 161.219 16.62 161.129 16.62C160.844 16.83 160.409 17.1 160.019 17.325C160.499 17.61 161.039 17.835 161.564 17.97C161.444 18.06 161.294 18.255 161.219 18.39C160.289 18.105 159.314 17.52 158.684 16.83V18.495H158.114V17.04C157.469 17.49 156.674 17.865 155.939 18.135C155.864 18.03 155.699 17.835 155.609 17.745C156.479 17.46 157.469 16.9801 158.159 16.3951H156.509V14.835H160.589V16.3951H158.879ZM161.339 13.935V14.355H155.729V13.935H158.219V13.32H156.314V12.9H158.219V12.33L158.984 12.39C158.984 12.39 158.924 12.495 158.804 12.51V12.9H160.769V13.32H158.804V13.935H161.339ZM157.034 15.21V16.005H160.019V15.21H157.034Z" fill="white"/>
<path d="M164.099 15.51C164.099 13.08 165.044 11.91 166.334 11.91C167.624 11.91 168.449 13.155 168.449 15.42C168.449 17.835 167.609 19.065 166.229 19.065C164.969 19.065 164.084 17.82 164.084 15.51H164.099ZM167.684 15.45C167.684 13.71 167.264 12.525 166.289 12.525C165.464 12.525 164.879 13.62 164.879 15.45C164.879 17.28 165.389 18.435 166.259 18.435C167.294 18.435 167.684 17.1 167.684 15.45Z" fill="white"/>
<path d="M169.755 15.51C169.755 13.08 170.7 11.91 171.99 11.91C173.28 11.91 174.105 13.155 174.105 15.42C174.105 17.835 173.265 19.065 171.885 19.065C170.625 19.065 169.74 17.82 169.74 15.51H169.755ZM173.34 15.45C173.34 13.71 172.92 12.525 171.945 12.525C171.12 12.525 170.535 13.62 170.535 15.45C170.535 17.28 171.045 18.435 171.915 18.435C172.95 18.435 173.34 17.1 173.34 15.45Z" fill="white"/>
<path d="M179.355 12.03V12.675H176.865L176.58 14.64C176.73 14.625 176.88 14.6101 177.12 14.6101C178.35 14.6101 179.46 15.3451 179.46 16.7401C179.46 18.1351 178.44 19.0951 177.075 19.0951C176.385 19.0951 175.8 18.885 175.485 18.69L175.71 18.09C175.965 18.27 176.475 18.48 177.075 18.48C177.945 18.48 178.695 17.8351 178.68 16.8451C178.68 15.8851 178.065 15.225 176.775 15.225C176.4 15.225 176.115 15.255 175.89 15.285L176.325 12.0601H179.37L179.355 12.03Z" fill="white"/>
<path d="M184.65 18.96H183.915V17.01H180.885V16.515L183.855 12.015H184.65V16.41H185.595V17.01H184.65V18.96ZM181.665 16.425H183.915V13.965C183.915 13.59 183.93 13.215 183.945 12.855H183.915C183.705 13.275 183.54 13.575 183.36 13.89L181.665 16.41V16.425Z" fill="white"/>
<path d="M189.27 15.21C190.08 15.345 190.785 16.005 190.785 17.01C190.785 18.105 189.99 19.08 188.43 19.08C187.74 19.08 187.11 18.8551 186.795 18.6301L187.02 18.03C187.275 18.195 187.83 18.4501 188.43 18.4501C189.6 18.4501 189.975 17.64 189.975 16.995C189.975 15.975 189.12 15.51 188.205 15.51H187.755V14.94H188.205C188.88 14.94 189.735 14.5201 189.735 13.6501C189.735 13.0501 189.375 12.5251 188.535 12.5251C188.025 12.5251 187.545 12.78 187.26 12.975L187.035 12.405C187.365 12.15 188.01 11.8801 188.685 11.8801C189.96 11.8801 190.515 12.69 190.515 13.515C190.515 14.235 190.065 14.8651 189.255 15.1501V15.18L189.27 15.21Z" fill="white"/>
<path d="M195.106 16.215L195.436 16.2751L195.406 16.4701C195.256 18.4951 195.106 19.26 194.851 19.53C194.641 19.77 194.371 19.785 194.011 19.785C193.816 19.785 193.576 19.7851 193.336 19.7551C193.336 19.5901 193.261 19.35 193.156 19.215C193.546 19.245 193.921 19.245 194.071 19.245C194.206 19.245 194.296 19.23 194.371 19.155C194.551 18.975 194.686 18.345 194.806 16.785H193.441C193.381 17.01 193.336 17.2201 193.276 17.4001C192.826 17.3101 192.781 17.295 192.706 17.295C192.871 16.785 193.051 16.02 193.186 15.375H192.346V14.82H195.871V15.375H193.771C193.711 15.66 193.636 15.975 193.561 16.26H195.091L195.106 16.215ZM195.466 11.4901V14.07H192.811V11.4901H195.466ZM194.866 13.53V12.015H193.351V13.53H194.866ZM196.711 13.515V15.39C196.711 16.695 196.576 18.525 195.706 19.785C195.601 19.68 195.376 19.5 195.241 19.44C196.051 18.255 196.141 16.62 196.141 15.405V12.9901H198.016V11.1151L198.796 11.16C198.796 11.16 198.736 11.265 198.616 11.295V11.7901H200.521V12.315H198.616V12.975H200.986C200.986 13.125 200.791 14.1901 200.641 14.7001L200.161 14.5951C200.221 14.3101 200.296 13.905 200.341 13.515H196.711ZM198.271 16.53C198.271 16.53 198.196 16.6351 198.091 16.6501C197.986 17.8651 197.746 19.035 196.726 19.71C196.636 19.575 196.471 19.38 196.351 19.305C197.236 18.735 197.476 17.67 197.551 16.455L198.286 16.515L198.271 16.53ZM198.601 15.33C198.601 15.525 198.631 15.555 198.901 15.555H199.816C200.026 15.555 200.071 15.495 200.101 14.94C200.221 15.03 200.431 15.105 200.596 15.135C200.536 15.855 200.386 16.05 199.891 16.05H198.841C198.196 16.05 198.031 15.9151 198.031 15.3601V14.94L197.026 15.045L196.966 14.58L198.046 14.475V13.635L198.781 13.68C198.781 13.68 198.721 13.785 198.601 13.8V14.4151L199.801 14.295L199.861 14.745L198.616 14.8801V15.3601L198.601 15.33ZM199.471 18.7351C199.471 19.0201 199.471 19.0951 199.741 19.0951H200.116C200.536 19.0951 200.536 19.0051 200.566 17.9851C200.671 18.0901 200.866 18.1801 201.016 18.2401C200.986 19.2151 200.986 19.59 200.161 19.59H199.636C199.456 19.59 199.231 19.545 199.096 19.44C198.961 19.335 198.916 19.185 198.916 18.66V16.425L199.666 16.4701C199.666 16.4701 199.606 16.575 199.486 16.59V18.7351H199.471Z" fill="white"/>
</g>
</svg>
