<svg width="843" height="360" viewBox="0 0 843 360" fill="none" xmlns="http://www.w3.org/2000/svg">
<path d="M29.3395 67.7192C29.0245 68.2892 28.3345 68.6642 27.3295 68.5292C23.4445 77.1842 17.4295 86.3342 11.0995 92.1692C9.16453 90.2942 5.26453 87.2192 2.89453 85.7192C8.90953 80.8892 14.6845 72.1142 17.6845 63.9092L29.3395 67.7342V67.7192ZM36.6145 88.9742C36.2995 89.6642 35.4895 90.0392 34.2895 90.1592C31.9045 96.5492 28.2145 103.884 24.5695 110.094C30.5245 109.914 36.9145 109.659 43.2445 109.404C41.1145 105.954 38.8495 102.504 36.7195 99.5642L45.6145 95.4842C50.9995 102.384 56.6545 111.339 59.5945 117.549L50.0695 122.559C49.4995 121.119 48.7495 119.544 47.8795 117.789C33.8395 118.794 19.6045 119.604 9.88453 120.039C9.68953 120.729 9.07453 121.104 8.50453 121.104L4.87453 110.574L14.0845 110.379C18.1645 103.104 22.1695 93.5192 24.4945 85.6742L36.5995 88.9292L36.6145 88.9742ZM44.5795 64.0892C47.9695 70.9892 54.7345 79.1342 60.4345 84.4592C57.9895 86.3342 54.4795 89.9792 52.7245 92.4842C46.7695 85.8992 39.9295 76.4342 35.3545 67.7792L44.5645 64.0742L44.5795 64.0892Z" fill="#FFFF00"/>
<path d="M93.1498 73.1196V80.1996H68.0098V73.1196H93.1498ZM119.79 89.4247L125.55 91.6146C125.43 92.1246 125.115 92.3646 124.8 92.7396C122.985 99.5796 120.03 105.16 116.025 109.735C119.535 111.745 123.615 113.305 128.055 114.37C126.045 116.185 123.42 119.89 122.16 122.2C117.21 120.7 112.815 118.57 108.99 115.81C105.045 118.51 100.47 120.64 95.2648 122.2C94.3798 120.01 92.3848 116.56 90.7498 114.55V119.125H78.4648V121.315H70.8148V99.5646H90.7498V114.115C94.9498 113.11 98.7748 111.61 102.09 109.6C99.6448 106.84 97.5748 103.765 95.7598 100.315L103.59 97.8096H93.9298V89.6646H96.4948C95.0548 88.1046 92.4748 85.9596 90.7948 84.8946V88.8396H71.0398V82.0746H90.7948V84.3246C95.8798 80.6946 96.3748 75.9247 96.3748 71.8447V64.3896H118.32V77.7396C118.32 79.6146 118.38 79.8096 118.89 79.8096H119.58C120.21 79.8096 120.465 78.9996 120.585 73.8546C122.16 75.1746 125.655 76.4797 127.92 77.0497C127.17 85.1347 125.1 87.4597 120.525 87.4597H117.21C111.51 87.4597 109.815 85.1346 109.815 77.8746V72.4146H104.985C104.925 78.2496 103.725 85.2096 98.2198 89.6496H118.215L119.775 89.3946L119.79 89.4247ZM90.8248 90.7446V97.5096H71.0698V90.7446H90.8248ZM90.7648 64.5396V71.3046H71.2648V64.5396H90.7648ZM82.9948 112V106.675H78.4798V112H82.9948ZM103.875 97.8246C105.135 100.15 106.815 102.34 108.825 104.275C110.64 102.4 112.14 100.195 113.4 97.8246H103.875Z" fill="#FFFF00"/>
<path d="M177.031 91.1046H170.011C169.261 98.1846 167.821 104.08 165.556 108.91C170.566 113.17 176.521 113.17 183.301 113.17C187.066 113.17 192.391 113.11 194.836 113.05C193.771 114.925 192.586 118.63 192.271 120.88H179.476C172.141 120.88 166.126 119.695 161.416 115.675C159.286 118.315 156.721 120.505 153.646 122.32C152.581 120.37 150.631 117.55 149.071 116.05C152.011 114.55 154.396 112.285 156.346 109.345C154.711 106.33 153.271 102.7 152.146 98.1245L158.851 96.0545C159.226 97.7495 159.736 99.3095 160.231 100.69C161.041 98.0495 161.611 95.1696 162.046 92.0946H159.916L159.226 94.0295L152.146 92.5295L152.836 97.3595L148.756 98.7396V112.975C148.756 119.56 147.061 122.32 137.341 122.32C137.086 119.995 136.156 116.305 135.091 113.86C136.156 113.92 137.281 113.98 138.166 113.98C140.236 113.98 140.491 113.98 140.491 112.915V101.44L137.296 102.445C137.176 103.135 136.606 103.57 136.036 103.705L133.966 93.8646C135.781 93.4896 138.046 92.9946 140.491 92.4246V82.8395H134.911V74.4995H140.491V62.7695L150.526 63.2045C150.466 63.8945 150.031 64.3296 148.771 64.5246V74.4995H152.161V82.8395H148.771V90.4895L151.786 89.7395L151.981 91.1195C154.051 85.7945 156.301 79.4645 158.056 74.1995H152.731V66.1746H162.391L164.026 65.9796L168.541 67.3595C168.421 67.7945 168.226 68.3645 168.046 68.7395C166.666 73.0595 164.596 79.2096 162.406 85.3446H164.911L166.291 85.2245L168.931 85.6595V83.1545H177.076V75.1895C175.006 75.6845 172.936 76.0595 170.926 76.4495C170.551 74.5745 169.366 71.6195 168.286 69.8045C175.051 68.4245 182.206 66.0395 186.586 63.2795L193.546 69.8045C193.231 70.1795 192.601 70.1795 191.851 70.1795C190.351 70.9895 188.596 71.6795 186.706 72.3695L187.276 72.4295C187.216 73.0595 186.706 73.4945 185.521 73.6895V83.1545H193.486V91.1195H185.521V101.08H192.601V108.91H170.536V101.08H177.061V91.1195L177.031 91.1046Z" fill="#FFFF00"/>
<path d="M217.199 113.484C217.199 118.314 213.254 122.259 208.424 122.259C203.594 122.259 199.649 118.314 199.649 113.484C199.649 108.654 203.594 104.709 208.424 104.709C213.254 104.709 217.199 108.789 217.199 113.484ZM214.064 113.484C214.064 110.349 211.559 107.844 208.424 107.844C205.289 107.844 202.784 110.349 202.784 113.484C202.784 116.619 205.289 119.124 208.424 119.124C211.559 119.124 214.064 116.499 214.064 113.484Z" fill="#FFFF00"/>
<path d="M266.715 90.7297C272.805 92.1097 277.89 97.0447 277.89 104.515C277.89 113.665 270.555 121.06 257.79 121.06C251.985 121.06 246.75 119.53 244.005 117.715L246.405 109.585C248.43 110.89 252.87 112.555 257.07 112.555C263.67 112.555 266.94 108.49 266.94 103.99C266.94 97.8247 261.57 94.9146 255.69 94.9146H251.985V87.3696H255.465C259.755 87.3696 265.26 84.9697 265.26 79.6747C265.26 75.8347 262.725 72.9996 257.64 72.9996C253.86 72.9996 250.17 74.6647 248.055 75.9697L245.805 68.2747C248.64 66.3847 254.22 64.4946 260.1 64.4946C270.63 64.4946 276.135 70.6596 276.135 77.9196C276.135 83.5746 272.73 88.2997 266.7 90.5497V90.6996L266.715 90.7297Z" fill="white"/>
<path d="M296.836 65.3945H331.021V72.0696L310.261 120.265H299.236L320.071 74.3945V74.2445H296.851V65.3945H296.836Z" fill="white"/>
<path d="M369.735 96.115L370.92 102.64C363.405 105.52 355.38 108.415 350.04 110.29C350.04 110.86 349.605 111.295 349.095 111.475L345.645 103.57C348.09 102.88 351.105 101.995 354.36 101.005V76.675H347.28V69.715H368.97V76.675H361.95V98.6199L369.72 96.115H369.735ZM403.275 109.66H379.395L385.41 113.74C385.155 113.995 384.78 114.115 384.225 114.175C380.91 116.935 374.325 120.25 368.745 122.005C367.74 120.565 365.67 118.24 364.17 116.86C369.255 115.3 375.525 112.225 378.72 109.645H372.39V76.1649H382.17C382.485 74.7249 382.8 73.2249 383.04 71.7699H369.81V65.4399H405.675V71.7699H391.2C390.825 73.0899 390.33 74.6499 389.82 76.1649H403.305V109.645L403.275 109.66ZM379.395 81.6999V85.72H395.94V81.6999H379.395ZM379.395 90.8499V94.855H395.94V90.8499H379.395ZM379.395 100V104.08H395.94V100H379.395ZM400.77 122.125C398.205 119.8 392.685 116.17 388.545 113.785L394.125 109.78C398.13 111.91 403.785 115.3 406.725 117.685L400.77 122.14V122.125Z" fill="white"/>
<path d="M451.157 113.919H475.607V120.444H419.372V113.919H443.327V109.779H428.162V104.319C427.097 105.759 426.032 107.019 424.907 108.144C423.587 106.884 420.887 104.949 419.207 103.944C422.972 100.434 426.602 94.4793 428.792 88.7793H426.287V65.2144H468.602V88.7793H452.867C452.747 89.3493 452.237 89.7243 451.172 89.9043V93.8494H471.602V100.059H451.172V103.944H466.907V109.779H451.172V113.919H451.157ZM431.102 100.059C430.292 101.439 429.347 102.684 428.477 103.944H443.342V100.059H431.117H431.102ZM443.327 88.7793H432.857L437.492 90.2194C437.177 90.7894 436.547 90.9694 435.857 90.9094C435.482 91.8544 434.987 92.8444 434.537 93.8494H443.312V88.7644L443.327 88.7793ZM433.667 70.9744V74.2893H460.817V70.9744H433.667ZM433.667 79.6294V83.0193H460.817V79.6294H433.667Z" fill="white"/>
<path d="M543.872 82.9597L548.447 84.9097C548.327 85.3447 547.952 85.7197 547.637 85.9747C545.762 95.1847 542.432 103.03 538.052 109.24C541.127 112.18 544.757 114.505 549.212 116.08C547.712 117.4 545.582 120.28 544.577 122.155C540.197 120.34 536.552 117.835 533.477 114.76C530.657 117.64 527.462 120.025 524.072 121.9C523.067 120.265 520.622 117.52 519.062 116.38C522.767 114.565 526.082 112.12 529.037 109.105C526.712 105.535 524.837 101.455 523.397 96.9397C522.017 107.35 519.452 116.065 514.742 122.08C513.617 120.82 510.857 118.63 509.162 117.625C510.602 115.87 511.862 113.8 512.867 111.415L509.042 112.795C508.472 109.78 507.032 105.205 505.652 101.695L511.292 99.8797C512.357 102.385 513.362 105.4 514.112 107.965C517.052 98.9947 517.817 86.9047 517.937 73.4797H512.987L513.107 73.5397C512.852 73.9747 512.237 74.2297 511.352 74.2297C508.472 78.9997 504.077 85.3297 499.997 90.3397L506.522 90.2797C505.772 88.6447 505.022 87.0847 504.197 85.6447L509.582 83.3947C512.027 87.5347 514.532 92.9197 515.357 96.4897L509.522 99.0547C509.342 98.1697 509.087 97.1047 508.712 96.0397L505.457 96.2197V122.05H498.872V101.92C498.557 102.235 498.182 102.355 497.612 102.295C496.982 107.44 495.737 113.455 493.982 117.28C492.662 116.41 490.217 115.27 488.717 114.655C490.292 111.205 491.282 105.25 491.792 99.9247L498.872 101.56V96.6697C496.172 96.7897 493.667 96.9247 491.657 97.0447C491.477 97.6747 490.967 97.9147 490.532 97.9897L489.032 90.4597H493.352C494.417 89.1397 495.482 87.7597 496.487 86.2597C494.672 83.4997 491.717 80.2447 489.152 77.7397L492.722 72.5947L494.102 73.8547C495.917 70.3447 497.732 66.2047 498.797 62.9497L506.132 65.9647C505.952 66.3397 505.322 66.5947 504.437 66.5947C502.937 69.9847 500.432 74.6197 498.227 78.0097C498.977 78.8197 499.727 79.7047 500.297 80.5147C502.487 77.0047 504.497 73.4347 505.997 70.3597L512.762 73.4347V66.5947H534.572L536.072 66.4147L539.762 67.1647C539.702 67.5997 539.582 68.1697 539.447 68.6047C538.817 72.3697 537.752 77.7547 536.687 83.1547H542.642L543.827 82.9597H543.872ZM528.137 91.1797C529.397 85.7197 530.702 78.9547 531.647 73.4947H524.807C524.807 74.8147 524.807 76.1947 524.747 77.4997C526.247 87.7147 528.887 96.6847 533.402 103.645C536.027 99.7597 538.097 95.1847 539.612 89.9197H535.292L534.857 91.9897L528.152 91.1797H528.137Z" fill="white"/>
<path d="M608.879 92.3649H594.089V99.6399H611.774V106.225H594.089V113.815H617.474V120.52H563.624V113.815H586.199V106.225H568.709V99.6399H586.199V92.3649H571.904V87.3549C569.654 88.9299 567.269 90.4299 564.884 91.7499C563.879 89.9949 561.809 87.2349 560.189 85.7349C571.034 80.2149 581.444 70.3749 586.079 62.5449L596.114 63.1149C595.919 63.8049 595.364 64.2399 594.479 64.3749C600.554 72.5799 611.279 80.7399 620.744 84.8049C618.794 86.6799 617.114 89.3199 615.734 91.5699C613.484 90.3099 611.159 88.8699 608.909 87.3699V92.3799L608.879 92.3649ZM606.614 85.7199C599.969 80.8899 593.759 75.1899 590.069 70.0449C586.559 75.1299 580.784 80.7699 574.139 85.7199H606.614Z" fill="white"/>
<path d="M667.604 88.4647V85.2697C666.479 86.6497 665.279 87.9697 664.094 89.0947C663.524 87.8347 662.714 86.2747 661.904 84.8947C661.649 85.0897 661.334 85.2097 660.839 85.3297V120.565H655.379V118.435H639.329V121.255H634.004V83.8897L640.709 84.2647C640.649 84.7747 640.274 85.1497 639.329 85.2697V92.1097C641.144 89.9197 641.834 86.6497 642.089 83.7697L646.664 84.3397C646.604 84.7147 646.229 84.9697 645.599 85.0297C645.479 86.0347 645.284 87.0997 645.029 88.2247C645.839 89.0347 646.664 89.9797 647.354 90.7897C648.674 88.7197 649.229 86.1547 649.484 83.7697L654.059 84.3397C653.999 84.7147 653.624 84.9697 652.994 85.0897C652.874 86.0947 652.679 87.1597 652.304 88.2847C653.429 89.4097 654.569 90.7297 655.379 91.7347V83.9047L661.454 84.2197C661.139 83.7847 660.764 83.2747 660.449 82.8997L661.079 82.3297H632.174V76.6297H635.804V66.4747L643.019 66.9097C642.959 67.4197 642.584 67.7947 641.579 67.9747V76.6297H644.969V62.9647L652.799 63.3997C652.739 63.9697 652.364 64.3447 651.299 64.4647V67.9147H660.764V73.2997H651.299V76.6147H662.519V80.8147C666.914 75.8647 670.859 68.4697 672.734 62.9497L680.639 63.2647C680.519 63.7597 680.204 64.0747 679.634 64.2697C682.454 70.1647 687.599 77.9947 692.114 81.8197C690.794 83.6347 689.174 86.3347 688.109 88.5847C686.924 87.4597 685.784 86.1997 684.659 84.7597V88.4497H667.604V88.4647ZM653.429 95.3047C652.799 94.3597 651.854 93.0547 650.864 91.8547C650.174 93.0397 649.304 94.2397 648.104 95.1697C647.729 94.6597 647.099 93.9097 646.409 93.3547L645.404 94.3597C644.969 93.7297 644.399 92.8597 643.709 92.0347C643.079 93.2197 642.329 94.3597 641.264 95.3497C640.829 94.7197 640.079 93.8497 639.314 93.2197V95.4097H655.364V93.0847L653.414 95.2747L653.429 95.3047ZM646.664 101.635C646.604 102.07 646.229 102.325 645.599 102.385C645.479 103.39 645.344 104.455 645.029 105.58C645.914 106.45 646.724 107.395 647.414 108.22C648.674 106.15 649.229 103.525 649.484 101.14L654.179 101.635C654.059 102.07 653.684 102.325 653.054 102.445C652.934 103.39 652.739 104.515 652.424 105.58C653.489 106.705 654.554 107.905 655.364 108.97V100.63H639.314V109.525C641.129 107.335 641.819 104.005 642.074 101.125L646.649 101.62L646.664 101.635ZM639.329 113.05H655.379V110.725L653.624 112.735C652.994 111.85 652.064 110.545 650.984 109.285C650.294 110.605 649.349 111.79 648.104 112.795C647.789 112.285 647.234 111.67 646.604 111.1L645.734 112.045C645.239 111.355 644.549 110.35 643.724 109.405C643.094 110.665 642.284 111.91 641.159 112.915C640.724 112.345 640.034 111.535 639.344 110.905V113.035L639.329 113.05ZM688.664 92.7397V109.48C688.664 115.69 685.964 116.5 678.194 116.5C678.014 114.55 677.249 111.865 676.379 110.035C677.384 110.035 678.389 110.095 679.259 110.095C681.704 110.095 681.959 110.095 681.959 109.285V99.1297H676.124V122.005H669.479V99.1297H662.834V92.7397H688.664ZM682.904 82.4647C680.144 78.5797 677.759 74.1847 676.139 70.5547C674.699 74.1847 672.434 78.5197 669.749 82.4647H682.919H682.904Z" fill="white"/>
<path d="M729.975 67.5402C729.72 68.0502 729.105 68.4252 728.16 68.2902C724.215 77.1852 718.005 86.4702 711.54 92.4252C709.98 90.8652 706.77 88.3452 704.775 87.1002C711.045 82.0152 717 73.0002 720.33 64.3452L729.99 67.5402H729.975ZM737.055 88.6752C736.8 89.3052 736.05 89.6202 734.985 89.7402C732.42 96.4452 728.4 104.665 724.575 111.31C731.535 111.13 739.125 110.875 746.64 110.56C744.255 106.795 741.63 103.03 739.185 99.8352L746.52 96.4452C752.04 103.27 757.995 112.18 761.07 118.255L753.24 122.395C752.61 120.895 751.74 119.2 750.735 117.385C736.125 118.39 721.08 119.14 711.12 119.635C711 120.265 710.43 120.58 709.86 120.64L706.845 111.805L715.995 111.55C720.135 104.095 724.515 93.9402 726.96 85.9752L737.055 88.6752ZM745.65 64.4802C749.34 71.8752 756.555 80.7252 762.33 86.0502C760.32 87.6102 757.44 90.5652 756 92.6352C750.045 86.2452 742.77 76.2702 738.135 67.5552L745.665 64.4802H745.65Z" fill="white"/>
<path d="M799.876 73.3602V79.3152H775.111V73.3602H799.876ZM827.146 89.8452L831.916 91.7202C831.796 92.1552 831.541 92.3502 831.226 92.6652C829.276 99.7452 826.081 105.46 821.761 110.035C825.526 112.48 829.966 114.295 834.796 115.495C833.161 117.055 830.971 120.07 829.906 122.02C824.641 120.46 820.006 118.135 815.986 115.12C811.786 118.135 806.896 120.385 801.436 122.02C800.686 120.205 798.991 117.19 797.551 115.495V118.75H784.321V121.195H777.931V99.5652H797.551V115.36C802.246 114.175 806.641 112.42 810.346 109.975C807.466 106.78 805.021 103.075 803.071 98.9352L809.521 96.8652H800.686V90.1002H802.876C801.811 88.8402 799.171 86.5302 797.611 85.5252V87.9102H778.111V82.2102H797.611V85.2252C803.071 81.4602 803.761 76.5102 803.761 72.2502V64.7202H824.956V78.8952C824.956 80.6502 825.076 80.8452 825.766 80.8452H827.401C828.211 80.8452 828.466 80.0352 828.586 74.5152C829.906 75.6402 832.786 76.7052 834.661 77.2152C834.031 85.0452 832.336 87.2502 828.136 87.2502H824.431C819.361 87.2502 817.906 85.3002 817.906 79.0452V71.4552H810.826C810.826 75.7752 810.826 84.8052 802.996 90.1302H825.811L827.131 89.8752L827.146 89.8452ZM797.626 90.8502V96.4902H778.126V90.8502H797.626ZM797.506 64.9002V70.6002H778.381V64.9002H797.506ZM791.041 112.795V105.52H784.336V112.795H791.041ZM809.716 96.8652C811.216 100 813.346 102.88 815.926 105.46C818.371 102.955 820.381 100.135 821.881 96.8652H809.716Z" fill="white"/>
<path d="M261.555 178.87L266.82 181.375C266.64 181.81 266.25 182.185 265.875 182.38C262.86 194.35 256.53 204.01 248.82 209.215C247.56 207.58 244.56 204.7 242.745 203.575C248.7 200.005 253.71 193.795 256.605 186.265H244.32V179.185H260.25L261.57 178.87H261.555ZM276.66 171.04C277.845 175.3 279.42 179.38 281.43 183.145C285.75 179.635 290.58 175.12 293.655 171.295L301.425 177.445C301.17 177.76 300.615 177.94 300.045 177.94C299.79 177.94 299.61 177.94 299.355 177.88C295.725 181.33 289.83 185.965 285.12 189.1C289.5 195.115 295.215 199.885 302.49 202.705C300.735 204.205 298.29 207.34 297.105 209.545C287.895 205.345 281.37 198.445 276.675 189.55V204.715C276.675 211.99 273.36 213.055 261.57 213.055C261.255 210.925 260.19 207.73 259.125 205.78C262.38 205.96 266.34 205.96 267.405 205.96C268.53 205.9 268.905 205.585 268.905 204.58V174.925H253.05V167.71H276.69V171.04H276.66ZM261.555 153.55C268.83 155.11 279.42 158.5 284.745 161.32L280.86 169.03C275.85 166.15 265.5 162.265 257.985 160.375L261.555 153.535V153.55Z" fill="white"/>
<path d="M329.82 190.09C329.64 189.205 329.385 188.215 329.01 187.075L326.19 187.255V213.025H319.74V192.91C319.425 193.225 319.05 193.285 318.555 193.225C317.985 198.37 316.86 204.445 315.165 208.15C313.905 207.34 311.595 206.275 310.02 205.645C311.52 202.195 312.405 196.24 312.84 190.915L319.74 192.475V187.705C317.1 187.885 314.73 188.02 312.78 188.08C312.66 188.65 312.15 188.965 311.655 189.025L310.215 181.495H314.535C315.54 180.175 316.545 178.795 317.55 177.355C315.795 174.535 312.915 171.145 310.41 168.58C311.85 166.705 312.975 165.07 314.115 163.435L315.495 164.755C317.19 161.245 318.885 157.165 319.875 153.91L327.21 156.67C326.955 157.165 326.4 157.36 325.515 157.36C324.075 160.87 321.63 165.565 319.44 169.015C320.19 169.825 320.82 170.65 321.45 171.46C323.58 167.95 325.53 164.44 326.97 161.365L333.99 164.5C333.735 164.935 333.12 165.19 332.295 165.19C330.345 168.52 327.66 172.525 324.9 176.35L329.595 174.4C332.04 178.54 334.545 184.06 335.295 187.63L329.835 190.075L329.82 190.09ZM326.745 181.315C326.055 179.755 325.305 178.18 324.555 176.8C323.37 178.375 322.23 179.935 321.045 181.375L326.745 181.315ZM331.83 190.78C333.39 194.605 334.965 199.615 335.715 202.885L330.015 204.895C329.445 201.58 327.885 196.375 326.445 192.475L331.83 190.78ZM366 204.325H360.36C364.125 206.02 368.01 207.835 370.455 209.275L364.065 213.1C361.5 211.405 356.79 208.78 352.59 206.83L355.725 204.325H345.63L349.455 206.83C349.26 207.025 348.885 207.145 348.33 207.205C345.39 209.215 339.435 211.72 334.785 213.04C333.66 211.795 331.53 209.845 330.015 208.72C333.78 207.715 338.16 206.02 341.355 204.325H336.345V184.825H366V204.325ZM347.07 163.765V161.755H332.895V157.18H347.07V153.865L356.1 154.36C356.04 154.99 355.53 155.365 354.405 155.545V157.18H369.705V161.755H354.405V163.765H366.63V168.085H335.91V163.765H347.07ZM334.155 182.83V169.975H368.19V182.83H334.155ZM339.915 179.2H362.1V177.82C361.665 177.94 361.095 177.94 360.54 177.94H357.15C352.635 177.94 352.065 176.995 352.065 173.62H349.5C348.93 175.87 347.43 177.94 342.225 179.08C341.79 178.135 340.785 176.89 339.9 176.26V179.2H339.915ZM339.915 176.185C342.735 175.675 344.055 174.865 344.685 173.62H339.915V176.185ZM342.855 188.47V190.42H359.22V188.47H342.855ZM342.855 193.48V195.55H359.22V193.48H342.855ZM342.855 198.55V200.68H359.22V198.55H342.855ZM359.715 175.225C360.285 175.225 360.525 175.225 360.66 174.97C361.035 175.15 361.545 175.285 362.1 175.405V173.59H357.27C357.27 175.15 357.27 175.225 357.96 175.225H359.715Z" fill="white"/>
<path d="M402.15 156.115V204.82C402.15 211.84 399.525 213.025 390.735 213.025C390.54 211.075 389.67 207.64 388.725 205.75C389.85 205.81 391.05 205.81 391.98 205.81C394.86 205.81 395.175 205.81 395.175 204.685V192.085H388.53C387.96 199.54 386.715 207.325 384.075 213.085C382.755 212.02 379.68 210.265 378 209.635C381.945 200.98 382.2 188.26 382.2 179.05V156.1H402.135L402.15 156.115ZM388.98 177.37C388.98 181.315 388.98 182.95 388.92 185.02H395.19V177.37H388.98ZM395.19 163.075H388.98V170.41H395.19V163.075ZM431.985 179.875L436.5 181.51C436.38 182.005 436.065 182.26 435.81 182.515C434.43 189.535 432.045 195.625 428.79 200.755C431.61 203.575 434.865 205.9 438.45 207.46C436.95 208.78 434.82 211.405 433.755 213.16C430.44 211.405 427.365 209.02 424.725 206.2C422.22 208.96 419.4 211.345 416.325 213.22C415.695 212.095 414.63 210.52 413.505 209.275V213.04H406.365V156.685H434.58V170.23C434.58 176.815 431.265 177.565 421.29 177.565C421.035 175.555 420.09 172.675 419.22 170.86C420.855 170.92 422.67 170.98 424.05 170.98C427.125 170.98 427.365 170.92 427.365 170.035V163.645H413.505V180.13H430.815L432 179.875H431.985ZM413.49 186.955V206.77C415.935 205.135 418.185 203.065 420.195 200.62C417.75 197.05 415.68 192.97 414.12 188.65L419.955 186.955C421.02 189.775 422.4 192.475 424.095 194.98C425.475 192.475 426.6 189.775 427.545 186.955H413.505H413.49Z" fill="white"/>
<path d="M504.21 166.705H500.325C498.69 170.59 496.5 173.98 493.8 176.98C497.25 179.11 501.195 180.745 505.53 181.75C503.955 183.25 501.9 186.145 500.835 188.08C496.2 186.64 492.06 184.57 488.49 181.81C487.05 182.875 485.55 183.88 483.975 184.75L491.565 185.44C491.445 186.01 490.935 186.385 489.93 186.565L489.36 190.645H496.755L498.315 190.525L502.71 191.275C502.65 191.845 502.59 192.655 502.395 193.225C500.52 212.845 499.2 213.04 487.035 212.785C486.855 210.655 486.165 207.715 484.965 205.825C487.29 206.08 489.36 206.14 490.35 206.14C491.22 206.14 491.79 206.02 492.42 205.45C493.17 204.64 493.86 202.195 494.49 196.855H487.905C485.835 203.38 481.83 209.2 472.8 213.085C471.99 211.33 470.1 208.825 468.48 207.445C474.93 204.94 478.32 201.235 480.21 196.855H473.31V190.645H481.965C482.28 188.95 482.46 187.255 482.655 185.44C480.405 186.625 478.08 187.63 475.575 188.455C475.005 187.585 474.075 186.265 473.13 185.065C472.38 188.2 471.435 191.275 470.43 193.72L465.42 191.395C466.11 189.07 466.86 185.875 467.43 182.62H464.04V205C464.04 211.525 461.595 212.83 452.385 212.83C452.13 210.82 451.125 207.685 450.195 205.69C452.58 205.81 455.145 205.81 455.895 205.81C456.645 205.75 456.9 205.555 456.9 204.865V191.455C454.77 196.03 452.13 200.17 449.13 202.87C448.5 200.74 446.805 197.605 445.68 195.595C449.19 192.52 452.445 187.63 454.65 182.62H446.625V176.035H461.115C457.665 173.905 452.835 171.52 449.01 169.96L453.78 165.13C455.22 165.7 456.855 166.33 458.55 167.08C459.99 165.895 461.49 164.515 462.75 163.135H447.705V156.805H468.39L469.575 156.49L475.035 159.625C474.78 160 474.285 160.315 473.775 160.435C471.585 163.45 468.135 167.08 464.43 169.96C466.185 170.83 467.685 171.775 468.885 172.585L465.63 176.035H471.015L474.84 176.155C474.84 176.845 474.645 177.715 473.835 182.05C477.405 180.79 480.675 179.17 483.495 177.16C481.995 175.525 480.615 173.71 479.355 171.775C478.35 173.035 477.285 174.16 476.16 175.165C474.72 173.845 471.9 171.91 470.145 170.905C474.84 167.08 479.175 160.435 481.425 153.85L489.885 156.415C489.705 156.91 489.075 157.225 488.25 157.105C487.815 158.17 487.365 159.175 486.81 160.24H504.24V166.69L504.21 166.705ZM483.525 166.705C484.845 168.895 486.465 170.965 488.415 172.78C489.975 170.965 491.355 168.955 492.495 166.705H483.525Z" fill="white"/>
<path d="M519.556 193.795C523.951 197.365 530.086 203.635 533.101 207.145L526.651 213.04C523.831 209.335 517.501 202.45 513.736 198.94L519.571 193.795H519.556Z" fill="white"/>
<path d="M570.705 156.37L575.595 158.935C575.475 159.25 575.28 159.625 575.025 159.88C573.585 165.025 571.395 171.79 569.505 176.8C573.765 181.63 575.205 185.455 575.205 189.34C575.205 199.495 568.935 199.495 563.73 199.495C563.67 197.545 562.98 194.665 562.095 192.97C563.28 193.09 564.345 193.09 565.17 193.09C567.99 193.09 568.185 190.39 568.185 188.575C568.185 185.635 566.685 181.87 562.86 177.61C564.24 173.53 565.68 167.77 566.745 163.315H561.165V213.085H554.145V156.595H569.505L570.69 156.34L570.705 156.37ZM610.575 170.92H590.445C590.325 173.425 590.19 175.93 590.01 178.51H601.17L602.865 178.45L607.005 178.765C607.005 179.395 606.945 180.325 606.885 181.09C606.315 200.155 605.625 207.415 603.69 209.86C602.25 211.81 600.675 212.935 593.97 212.935C592.905 212.935 591.72 212.935 590.52 212.875C590.4 210.685 589.515 207.49 588.27 205.48C591.15 205.735 593.79 205.735 595.23 205.735C596.115 205.735 596.61 205.48 597.165 204.865C598.23 203.605 598.86 198.415 599.235 185.365H589.335C587.835 195.955 584.385 206.11 575.355 213.07C574.23 211.255 572.1 208.99 570.15 207.685C581.625 199.345 582.63 185.11 583.125 170.95H574.095V163.93H587.82V153.97L596.91 154.465C596.85 155.095 596.34 155.47 595.215 155.665V163.945H610.575V170.965V170.92Z" fill="white"/>
<path d="M640.17 169.165L645.375 171.415C645.255 171.85 644.94 172.36 644.565 172.6C641.685 188.395 634.98 201.13 626.01 207.775C624.69 205.96 621.615 202.945 619.74 201.82C627.135 196.87 632.655 188.155 635.475 177.055H621.81V169.465H638.805L640.185 169.15L640.17 169.165ZM654.21 165.085C655.395 169.54 656.85 173.8 658.665 177.745C663.18 173.665 668.19 168.28 671.385 163.765L679.215 169.6C678.78 170.095 677.955 170.17 677.145 170.095C673.38 174.415 666.93 180.13 661.905 184.075C666.36 191.605 672.375 197.74 680.145 201.445C678.27 203.005 675.63 206.215 674.31 208.465C665.16 203.32 658.77 194.92 654.18 184.585V203.26C654.18 211.03 651.36 213.1 637.95 213.1C637.635 210.715 636.195 206.89 635.01 204.7C637.515 204.82 639.9 204.82 641.775 204.82C645.915 204.82 646.155 204.82 646.155 203.26V153.925L655.875 154.36C655.815 155.05 655.38 155.485 654.18 155.62V165.085H654.21Z" fill="white"/>
<path d="M704.625 211.225V165.115H704.475L694.86 170.14L692.49 162.31L706.095 155.365H715.26V211.24H704.61L704.625 211.225Z" fill="white"/>
<path d="M729.675 183.445C729.675 166.45 735.96 154.48 748.515 154.48C761.07 154.48 766.77 167.485 766.77 183.01C766.77 201.49 759.9 212.05 748.14 212.05C735.135 212.05 729.66 199.045 729.66 183.445H729.675ZM748.305 203.395C753.33 203.395 755.85 196.3 755.85 183.22C755.85 170.14 753.555 163.12 748.38 163.12C743.655 163.12 740.625 169.915 740.625 183.22C740.625 196.525 743.355 203.395 748.245 203.395H748.32H748.305Z" fill="white"/>
<path d="M838.529 192.415V199.75H816.899V213.04H809.129V199.75H780.599V192.415H790.634V175.87H809.129V168.22H795.329C792.569 172.795 789.374 176.995 786.044 180.13C784.664 178.69 781.844 176.185 780.029 174.985C785.549 170.215 790.694 161.815 793.514 153.67L802.604 156.49C802.349 156.985 801.734 157.3 800.849 157.24C800.354 158.5 799.784 159.685 799.214 160.945H835.004V168.22H816.884V175.87H833.624V182.89H816.884V192.415H838.514H838.529ZM798.149 192.415H809.114V182.89H798.149V192.415Z" fill="white"/>
<path d="M4.13965 213.16V185.32H29.0246V212.905H19.9346V211.21H12.7196V213.16H4.13965ZM19.9346 194.035H12.7196V202.495H19.9346V194.035ZM48.3896 155.725V181.045H14.6096V155.725H48.4046H48.3896ZM39.0446 172.405V164.44H23.3846V172.405H39.0596H39.0446ZM33.4646 185.32H58.9797V212.65H49.8296V211.15H42.1796V212.905H33.4646V185.32ZM42.1796 202.435H49.8296V194.035H42.1796V202.435Z" fill="#FFFF00"/>
<path d="M78.7935 177.43C78.7935 180.685 78.7935 181.75 78.7335 183.505H90.3285V210.97H82.7385V191.095H78.4185C77.9235 198.745 76.8585 206.95 74.7135 213.16C72.9585 212.35 69.5085 211.15 67.4385 210.655C70.8285 201.565 71.3235 187.15 71.3235 178.615V155.545L80.4735 156.04C80.4135 156.67 79.9035 157.045 78.7785 157.225V169.765H82.0935V153.715L91.3035 154.21C91.2435 154.84 90.8085 155.215 89.6085 155.395V169.75H93.4335V177.4H78.7635L78.7935 177.43ZM127.573 194.92V202.45H118.858V213.235H110.338V202.45H92.2785V194.92H99.2385C97.8585 193.48 95.4735 191.41 93.9735 190.465C98.2335 188.905 100.993 186.835 102.868 184.57H95.1585V160.495H103.303C104.248 158.245 105.178 155.605 105.688 153.595L116.278 156.16C116.023 156.73 115.468 156.97 114.463 156.97C113.893 158.035 113.143 159.295 112.393 160.48H125.563V184.555H111.898L111.208 185.875L120.673 186.385C120.613 187.075 120.103 187.45 118.858 187.63V194.905H127.573V194.92ZM110.338 187.33C108.388 190.27 105.388 192.91 100.873 194.92H110.338V187.33ZM103.123 167.2V169.39H106.258V167.2H103.123ZM103.123 177.85H105.943C106.063 177.1 106.123 176.35 106.198 175.6H103.123V177.85ZM117.223 177.85V175.6H113.833L113.653 177.85H117.223ZM117.223 169.39V167.2H113.833V169.39H117.223Z" fill="#FFFF00"/>
<path d="M177.031 182.065H170.011C169.261 189.145 167.821 195.04 165.556 199.87C170.566 204.13 176.521 204.13 183.301 204.13C187.066 204.13 192.391 204.07 194.836 204.01C193.771 205.885 192.586 209.59 192.271 211.84H179.476C172.141 211.84 166.126 210.655 161.416 206.635C159.286 209.275 156.721 211.465 153.646 213.28C152.581 211.345 150.631 208.51 149.071 207.01C152.011 205.51 154.396 203.245 156.346 200.305C154.711 197.29 153.271 193.66 152.146 189.085L158.851 187.015C159.226 188.71 159.721 190.27 160.231 191.65C161.041 189.01 161.611 186.13 162.046 183.055H159.916L159.226 185.005L152.146 183.505L152.836 188.335L148.756 189.715V203.95C148.756 210.535 147.061 213.295 137.341 213.295C137.086 210.97 136.156 207.28 135.091 204.835C136.156 204.895 137.281 204.955 138.166 204.955C140.236 204.955 140.491 204.955 140.491 203.89V192.415L137.296 193.42C137.176 194.11 136.606 194.545 136.036 194.68L133.966 184.84C135.781 184.465 138.046 183.97 140.491 183.4V173.815H134.911V165.475H140.491V153.76L150.526 154.195C150.466 154.885 150.016 155.32 148.771 155.515V165.475H152.161V173.815H148.771V181.465L151.786 180.715L151.966 182.095C154.036 176.77 156.286 170.44 158.041 165.16H152.716V157.135H162.376L164.011 156.955L168.526 158.335C168.406 158.77 168.211 159.34 168.031 159.715C166.651 164.035 164.581 170.185 162.391 176.335H164.896L166.276 176.215L168.901 176.65V174.145H177.046V166.18C174.976 166.675 172.906 167.05 170.896 167.44C170.521 165.565 169.336 162.61 168.271 160.795C175.036 159.415 182.191 157.03 186.571 154.27L193.531 160.795C193.216 161.17 192.586 161.17 191.836 161.17C190.336 161.98 188.581 162.67 186.691 163.36L187.261 163.42C187.201 164.05 186.691 164.485 185.506 164.68V174.145H193.471V182.11H185.506V192.07H192.586V199.9H170.521V192.07H177.046V182.11L177.031 182.065Z" fill="#FFFF00"/>
<path d="M217.199 204.445C217.199 209.275 213.254 213.22 208.424 213.22C203.594 213.22 199.649 209.275 199.649 204.445C199.649 199.615 203.594 195.67 208.424 195.67C213.254 195.67 217.199 199.75 217.199 204.445ZM214.064 204.445C214.064 201.31 211.559 198.805 208.424 198.805C205.289 198.805 202.784 201.31 202.784 204.445C202.784 207.58 205.289 210.085 208.424 210.085C211.559 210.085 214.064 207.445 214.064 204.445Z" fill="#FFFF00"/>
<path d="M269.64 284.41C269.385 284.905 268.695 285.16 267.825 285.04C263.565 289.675 256.11 295.705 249.585 299.455C247.95 297.82 245.07 295.315 243.255 294.07C249.78 290.74 257.055 285.235 260.565 280.72L269.655 284.425L269.64 284.41ZM257.985 276.88V278.95H250.395V244.09H295.095V278.635H287.19V276.88H257.97H257.985ZM287.205 251.305H257.985V269.68H287.205V251.305ZM293.16 299.575C289.65 295.495 282 289.105 276.105 284.71L282.435 280.63C288.21 284.71 296.1 290.665 300.045 294.925L293.145 299.56L293.16 299.575Z" fill="white"/>
<path d="M360.42 276.895L364.185 277.27C364.185 277.84 364.125 278.455 364.065 279.085C363.195 299.59 362.565 299.59 352.155 299.335C352.095 298.84 352.035 298.21 351.9 297.58L349.275 298.705C349.08 298.21 348.84 297.64 348.525 297.01C339.435 297.385 330.15 297.76 324.015 297.955C323.895 298.45 323.52 298.705 323.07 298.765L321 293.125C324.825 293.125 329.97 293.125 335.475 293.065V290.935H325.635V285.475C324.69 286.105 323.625 286.795 322.56 287.425C321.81 286.42 320.49 285.1 319.305 284.11C318.24 289.57 316.545 294.775 314.04 298.975C312.66 297.85 309.405 296.035 307.515 295.345C313.35 285.685 313.845 271.645 313.845 261.685V243.25H363.75V255.475H321.18V261.685C321.18 267.58 320.865 275.035 319.62 282.25C323.385 280.12 326.325 277.615 328.395 275.17H323.31V266.71H362.805V275.17H336.72C336.525 275.23 336.285 275.29 335.97 275.29L334.65 277.045H358.98L360.42 276.925V276.895ZM356.415 248.065H321.18V250.705H356.415V248.065ZM323.745 264.985V261.85H337.035V264.985H323.745ZM337.035 257.02V260.155H323.805V257.02H337.035ZM335.475 281.215H330.84C330.21 281.785 329.58 282.4 328.905 282.97H335.49V281.215H335.475ZM329.205 269.68V272.065H334.41V269.68H329.205ZM331.02 287.98H335.475V285.91H331.02V287.98ZM346.38 265.225H339.48V256.195L348 256.69C347.94 257.26 347.49 257.635 346.365 257.815V265.21L346.38 265.225ZM340.11 269.68V272.065H345.435V269.68H340.11ZM352.155 290.935H350.28C351.15 292 352.035 293.125 352.725 294.25H354.42C354.99 294.25 355.365 294.07 355.68 293.56C356.43 292.69 356.865 289.48 357.24 281.215H341.82V282.97H352.17V290.935H352.155ZM341.805 285.925V287.995H346.5V285.925H341.805ZM341.805 293.005H345.885C345.57 292.57 345.195 292.135 344.88 291.745L346.89 290.935H341.82V293.005H341.805ZM348.885 257.02H362.61V260.155H348.885V257.02ZM348.885 264.985V261.85H362.745V264.985H348.885ZM351.135 269.68V272.065H356.595V269.68H351.135Z" fill="white"/>
<path d="M396.45 263.605L400.335 263.725C400.275 264.355 400.275 265.285 400.275 266.05C399.9 286.615 399.585 294.07 397.89 296.395C396.075 299.095 394.185 299.53 386.925 299.335C386.805 297.325 386.055 294.385 384.99 292.495C387.12 292.675 388.935 292.675 390.06 292.675C390.69 292.675 391.185 292.495 391.62 291.73C392.43 290.485 392.805 285.145 393.06 270.415H387.915C387.105 281.455 385.095 291.985 379.515 299.5C378.33 297.685 376.005 295.42 374.055 294.235C380.58 285.52 381.015 271.48 381.195 256.81H375.12V249.85H385.02V240.325L394.17 240.82C394.11 241.39 393.675 241.825 392.475 242.02V249.85H402.69V256.81H388.515C388.455 259.06 388.395 261.325 388.26 263.575H396.405L396.45 263.605ZM421.53 240.34C421.47 240.91 420.96 241.285 420.405 241.465C423.105 248.995 428.43 257.77 434.265 261.34C432.945 263.47 431.505 266.545 430.56 269.05C424.23 264.415 419.22 255.82 416.64 248.74C414.315 255.64 409.185 264.475 402.855 269.11C402.165 266.98 400.725 263.845 399.465 261.97C405.615 257.65 410.805 247.675 412.815 239.965L421.53 240.34ZM424.92 299.395C420.66 295.195 411.375 289.555 403.98 286.105L408.495 280.27C415.77 283.405 425.355 288.61 429.93 292.81L424.92 299.395ZM414.33 264.16C418.275 266.725 423.165 270.55 425.49 273.445L420.165 278.77C418.095 275.83 413.325 271.69 409.38 268.93L414.33 264.16Z" fill="white"/>
<path d="M463.591 242.92C463.411 243.49 462.781 243.805 461.836 243.73C460.201 248.5 458.266 253.315 456.136 257.905L458.521 258.475C458.401 259.105 457.891 259.54 456.826 259.66V299.41H449.371V270.19C447.991 272.32 446.551 274.33 445.111 276.085C444.106 274.39 441.916 271.075 440.596 269.44C446.176 262.915 451.696 251.32 454.951 240.22L463.606 242.92H463.591ZM500.326 251.695C500.326 252.01 499.516 259.345 497.566 267.055L492.931 266.245C496.501 272.89 499.576 281.485 500.701 287.305L493.486 289.93C492.616 284.095 489.541 275.14 486.151 268.495L492.676 266.17L491.176 265.915C491.491 263.965 491.806 261.28 492.181 258.52H484.471V290.995C484.471 296.755 483.211 299.455 472.306 299.455C471.931 297.265 470.806 293.875 469.741 291.865C472.381 291.925 475.066 291.925 475.951 291.925C476.761 291.925 477.016 291.67 477.016 290.86V258.505H470.311C468.301 262.9 466.051 266.845 463.546 269.98C462.226 268.6 459.526 266.35 457.846 265.21C462.481 259.69 466.306 249.91 468.376 240.385L477.151 242.71C476.971 243.205 476.401 243.58 475.456 243.52C474.766 246.22 473.956 248.905 473.011 251.545H496.276L500.356 251.665L500.326 251.695ZM475.246 268.93C475.126 269.425 474.496 269.74 473.686 269.74C471.811 277.075 468.616 285.16 464.911 290.245C463.471 289.12 460.711 287.425 459.016 286.54C462.526 282.025 465.406 274.135 466.981 266.785L475.261 268.915L475.246 268.93Z" fill="white"/>
<path d="M560.565 251.065L564.51 251.32C564.51 251.89 564.45 252.955 564.39 253.705C563.64 282.535 562.95 292.57 560.505 295.765C558.495 298.585 556.305 299.395 550.155 299.395C548.655 299.395 546.96 299.335 545.325 299.335C545.205 297.265 544.26 294.13 543 292.12C546.63 292.375 549.96 292.435 551.52 292.435C552.645 292.435 553.335 292.12 554.025 291.31C555.72 289.36 556.53 280.345 557.1 258.085H544.44C543.315 261.28 542.055 264.235 540.555 266.92L546.135 264.535C549.15 269.05 552.21 274.945 553.155 279.085L546.255 282.1C545.445 278.335 542.865 272.515 540.045 267.865C539.295 269.125 538.545 270.25 537.78 271.315C536.775 270.13 534.84 268.24 533.265 266.995V289.495H517.275V293.95H510.375V250.825H516.825C517.77 247.57 518.7 243.37 519.15 240.235L528.36 242.185C528.105 242.755 527.61 242.995 526.665 243.055C525.975 245.38 524.91 248.32 523.845 250.825H533.25V264.745C537.075 258.85 539.835 249.445 541.275 240.295L550.17 242.305C549.99 242.8 549.42 243.25 548.535 243.19C547.965 245.815 547.335 248.515 546.66 251.155H558.885L560.52 251.095L560.565 251.065ZM526.215 266.62V257.53H517.305V266.62H526.215ZM517.305 282.79H526.215V273.205H517.305V282.79Z" fill="white"/>
<path d="M597.42 261.415L601.245 262.48C601.065 262.975 600.555 263.17 599.685 263.17C599.25 264.235 598.62 265.555 597.93 266.8H604.89V272.125H574.74V266.8H581.385C581.13 265.3 580.635 263.485 580.065 262.03L583.695 261.4V261.34L577.05 261.4V256.315H587.085V251.995L595.11 252.43C595.05 253 594.615 253.375 593.55 253.555V256.315H602.955V261.4H597.435L597.42 261.415ZM584.07 250.63V254.95H577.305V244.54H599.745V240.22L608.955 240.655C608.895 241.345 608.46 241.66 607.32 241.915V244.54H630.075V254.95H622.995V250.63H584.07ZM601.755 274.075V293.575C601.755 298.585 599.805 299.47 591.165 299.47C590.91 297.91 590.1 295.765 589.35 294.265C590.475 294.325 591.735 294.385 592.68 294.385C594.75 294.385 595.005 294.385 595.005 293.515V291.565H585.285V299.395H578.7V274.075H601.77H601.755ZM594.99 278.965H585.27V281.155H594.99V278.965ZM585.27 287.425H594.99V285.235H585.27V287.425ZM591.735 266.68C592.365 265.18 593.115 263.11 593.55 261.415H586.095C586.845 263.11 587.535 265.36 587.73 266.74L587.415 266.8H592.11L591.735 266.68ZM629.475 287.05V290.44C630.735 290.935 632.175 291.385 633.36 291.625C632.67 297.265 630.735 298.9 625.53 298.9H615.87C608.97 298.9 606.975 297.205 606.975 290.935V269.365H622.59V267.115H606.975V252.325L615.375 252.82C615.315 253.39 614.88 253.765 613.815 253.945V256.075H632.055V260.845H613.815V262.66H629.55V273.82H613.815V275.635H628.365V279.4H613.815V281.35H628.11V285.115H613.815V287.065H629.49L629.475 287.05ZM613.8 290.815C613.8 293.005 614.235 293.32 616.815 293.32H624.84C626.475 293.32 626.97 292.825 627.285 290.815H613.8Z" fill="white"/>
<path d="M691.696 264.416C688.066 258.206 685.246 250.061 683.296 242.036L689.941 240.221C691.891 248.681 695.896 257.771 700.531 262.856C698.716 264.296 696.076 266.936 694.756 268.931C694.186 287.306 693.631 294.131 691.876 296.456C690.001 299.021 688.051 299.651 679.906 299.471C679.786 297.341 679.021 294.326 677.896 292.451C680.221 292.706 682.411 292.706 683.476 292.706C684.421 292.706 684.916 292.526 685.546 291.821C686.491 290.501 687.106 285.176 687.496 271.391H680.911C679.786 281.291 677.896 292.391 667.816 299.471C666.811 297.656 664.741 295.211 663.046 293.951C671.131 288.746 672.886 280.031 673.636 271.376H668.551V268.676L668.296 268.991C667.426 268.046 665.851 266.606 664.471 265.481V268.736H656.761V270.176C659.086 272.426 664.156 278.006 665.341 279.461L660.826 285.476C659.956 283.781 658.381 281.336 656.746 278.951V299.321H649.726V280.451C647.851 285.026 645.721 289.286 643.396 292.301C642.706 289.976 641.011 286.661 639.826 284.591C643.021 280.766 646.156 274.376 648.166 268.736H640.831V261.716H649.726V240.206L658.321 240.701C658.261 241.271 657.826 241.646 656.761 241.826V256.436C658.021 252.671 659.206 247.661 659.836 243.896L667.111 245.846C666.991 246.341 666.421 246.596 665.551 246.596C664.486 250.601 662.611 256.316 660.976 259.886C659.731 259.451 658.156 258.941 656.776 258.446V261.701H664.486V262.271C668.311 256.886 671.011 248.606 672.391 240.206L680.986 242.021C680.866 242.651 680.296 242.966 679.351 242.966C677.791 250.736 675.211 258.446 671.641 264.401H689.326L690.961 264.341L691.711 264.401L691.696 264.416ZM646.051 244.361C647.746 248.756 648.931 254.516 649.126 258.341L643.486 259.721C643.426 255.956 642.301 250.136 640.786 245.681L646.051 244.361Z" fill="white"/>
<path d="M732.751 250.69V256.645H706.861V250.69H732.751ZM730.051 276.895V296.08H716.266V298.525H709.741V276.895H730.051ZM709.921 265.24V259.54H730.231V265.24H709.921ZM709.921 273.835V268.195H730.231V273.835H709.921ZM730.291 242.245V247.945H710.296V242.245H730.291ZM723.451 282.865H716.236V290.14H723.451V282.865ZM766.576 261.43V268.885H753.346V299.41H745.696V268.885H732.466V261.43H745.696V240.55L755.101 241.06C755.041 241.69 754.531 242.065 753.346 242.245V261.43H766.576Z" fill="white"/>
<path d="M774.18 297.7V292.75H831.735V297.7H774.18ZM806.34 268.735H831.795V273.37H774.24V268.735H798.69V266.545H778.755V262.54H798.69V260.35H780.69V256.405H798.69V254.215H774.435V250.075H798.69V248.005H781.08V244H798.69V240.235L808.095 240.67C808.035 241.36 807.525 241.735 806.34 241.93V244H825.015V250.075H831.345V254.215H825.015V260.365H806.34V262.555H827.46V266.56H806.34V268.75V268.735ZM781.395 275.44H825.09V290.74H781.395V275.44ZM788.79 279.07V281.26H799.2V279.07H788.79ZM788.79 284.77V287.095H799.2V284.77H788.79ZM817.38 281.26V279.07H806.16V281.26H817.38ZM817.38 287.095V284.77H806.16V287.095H817.38ZM806.34 247.975V250.045H817.44V247.975H806.34ZM806.34 254.185V256.375H817.44V254.185H806.34Z" fill="white"/>
<path d="M10.1545 269.125C8.51945 271.375 6.83945 273.385 5.14445 275.275C4.25945 272.95 2.00945 268.135 0.689453 265.93C6.20945 260.29 11.9095 250 15.2995 240.16L25.5145 243.73C25.2595 244.3 24.5695 244.6 23.5645 244.54C22.0045 248.365 20.1745 252.19 18.2395 255.955L21.0595 256.705C20.8795 257.335 20.3095 257.83 19.1845 257.965V299.59H10.1545V269.125ZM61.1245 253.39V262.42H54.5395V289.255C54.5395 297.595 52.0345 299.785 36.8545 299.785C36.4795 297.22 35.0395 293.14 33.7195 290.635C36.3595 290.83 39.2395 290.89 41.2495 290.89C44.8195 290.89 45.3295 290.89 45.3295 289.195V262.42H22.1845V253.39H45.3145V240.73L56.4145 241.225C56.3545 241.915 55.9195 242.41 54.5395 242.605V253.39H61.1245ZM31.9045 284.485C30.7795 280.54 27.3895 274.33 24.3745 269.695L32.3395 265.87C35.4745 270.265 39.1045 276.085 40.5595 280.165L31.9045 284.485Z" fill="#FFFF00"/>
<path d="M98.0399 279.596H86.8199V291.386C86.8199 296.966 85.6949 299.666 76.4099 299.666C76.1549 297.341 75.1499 294.086 74.2199 291.896C73.5899 293.216 72.9599 294.461 72.2699 295.466C70.6349 294.401 67.7549 293.081 65.8799 292.391C68.0099 289.511 69.3299 284.621 69.9599 280.166L78.3599 282.101C78.1049 282.671 77.6099 282.911 76.9199 282.851C76.3499 285.791 75.4799 289.061 74.2199 291.821C75.5399 291.881 77.0999 291.881 77.6099 291.881C78.1799 291.881 78.3599 291.686 78.3599 291.131V279.596H66.7049V272.201H98.0549V279.596H98.0399ZM78.2849 254.396V252.461H67.1849V245.126H78.2849V240.116L88.6349 240.686C88.5749 241.376 88.0649 241.751 86.8199 241.946V245.141H97.7249V252.476H86.8199V254.411H95.7149V261.686H69.1949V254.411H78.2849V254.396ZM115.08 259.601V265.061C115.08 271.961 117.645 284.366 127.05 291.581C125.49 293.591 122.91 297.341 121.59 299.606C115.2 294.911 111.615 284.996 110.745 279.476H110.685C109.74 285.116 105.48 294.641 98.3399 299.606C97.3949 297.596 94.8299 293.651 93.3299 291.956C94.7099 290.951 96.0299 289.886 97.1549 288.761L90.4499 291.521C90.0749 289.196 88.8149 285.446 87.5699 282.626L94.2749 280.061C95.5949 282.626 97.0349 286.076 97.4699 288.401C104.37 281.066 106.245 271.031 106.245 265.076V261.131C104.865 265.271 103.23 268.961 101.235 271.916C99.8549 270.536 97.2299 268.406 95.1599 267.026V270.536H70.0199V263.261H95.1599V265.076C98.6099 259.121 100.62 249.401 101.55 239.936L112.02 241.946C111.825 242.576 111.27 242.951 110.325 242.951C109.89 245.771 109.44 248.591 108.825 251.411H121.485L126.315 251.531C126.315 251.786 125.37 262.871 123.24 271.091L116.1 269.021C116.475 266.516 116.85 263.126 117.165 259.616H115.095L115.08 259.601Z" fill="#FFFF00"/>
<path d="M174.51 268.436H167.49C166.74 275.516 165.3 281.411 163.035 286.241C168.045 290.501 174 290.501 180.78 290.501C184.545 290.501 189.87 290.441 192.315 290.381C191.25 292.256 190.05 295.961 189.75 298.211H176.955C169.62 298.211 163.605 297.026 158.895 293.006C156.765 295.646 154.2 297.836 151.125 299.651C150.06 297.701 148.11 294.881 146.55 293.381C149.49 291.881 151.875 289.616 153.825 286.676C152.19 283.661 150.75 280.031 149.625 275.456L156.33 273.386C156.705 275.081 157.2 276.641 157.71 278.021C158.52 275.381 159.09 272.501 159.525 269.426H157.395L156.705 271.361L149.625 269.861L150.315 274.691L146.235 276.071V290.306C146.235 296.891 144.54 299.651 134.82 299.651C134.565 297.326 133.635 293.636 132.57 291.191C133.635 291.251 134.76 291.311 135.645 291.311C137.715 291.311 137.97 291.311 137.97 290.246V278.771L134.775 279.776C134.655 280.466 134.085 280.901 133.515 281.036L131.445 271.196C133.26 270.821 135.525 270.326 137.97 269.756V260.171H132.39V251.831H137.97V240.101L148.005 240.536C147.945 241.226 147.51 241.661 146.25 241.856V251.831H149.64V260.171H146.25V267.821L149.265 267.071L149.445 268.451C151.515 263.126 153.765 256.796 155.52 251.531H150.195V243.506H159.855L161.49 243.311L166.005 244.691C165.885 245.126 165.69 245.696 165.51 246.071C164.13 250.391 162.06 256.541 159.87 262.691H162.375L163.755 262.571L166.395 263.006V260.501H174.54V252.536C172.47 253.031 170.4 253.421 168.39 253.796C168.015 251.921 166.83 248.966 165.765 247.151C172.53 245.771 179.685 243.386 184.065 240.626L191.025 247.151C190.71 247.526 190.08 247.526 189.33 247.526C187.83 248.336 186.075 249.026 184.185 249.716L184.755 249.776C184.695 250.406 184.185 250.841 183 251.036V260.501H190.965V268.466H183V278.441H190.08V286.271H168.015V278.441H174.54V268.466L174.51 268.436Z" fill="#FFFF00"/>
<path d="M213.435 290.816C213.435 295.646 209.49 299.591 204.66 299.591C199.83 299.591 195.885 295.646 195.885 290.816C195.885 285.986 199.83 282.041 204.66 282.041C209.49 282.041 213.435 286.121 213.435 290.816ZM210.3 290.816C210.3 287.681 207.795 285.176 204.66 285.176C201.525 285.176 199.02 287.681 199.02 290.816C199.02 293.951 201.525 296.456 204.66 296.456C207.795 296.456 210.3 293.831 210.3 290.816Z" fill="#FFFF00"/>
<path d="M842.49 0.970215H0V17.2902H842.49V0.970215Z" fill="#FFFF00"/>
<path d="M842.49 343.375H0V359.695H842.49V343.375Z" fill="#FFFF00"/>
</svg>
