<svg width="478" height="33" viewBox="0 0 478 33" fill="none" xmlns="http://www.w3.org/2000/svg">
<path d="M10.79 15.03L11.25 18.36C10.2 18.72 9.12 19.05 8.08 19.41V27.52C8.08 31.08 6.77 31.84 1.77 31.84C1.67 30.79 1.18 29.13 0.69 28.08C1.34 28.08 2 28.11 2.55 28.11C4.28 28.11 4.35 28.11 4.35 27.49V20.56L1.57 21.41C1.54 21.74 1.24 21.97 1.01 22.03L0 17.68C1.21 17.42 2.71 17.09 4.35 16.67V10.95H0.43V7.32001H4.35V0.97998L8.93 1.21002C8.9 1.54002 8.67 1.73002 8.08 1.83002V7.32001H10.79V8.37C14.06 6.51 17.2 3.46998 18.74 0.97998L23.25 1.17999C23.15 1.37999 22.96 1.59998 22.63 1.66998C24.66 4.15998 28.35 6.89999 31.52 8.23999C30.77 9.15999 29.92 10.59 29.36 11.71C28.02 10.99 26.61 10.04 25.27 9V10.41H15.89V9.22998C14.58 10.31 13.14 11.29 11.67 12.04C11.44 11.58 11.11 10.96 10.79 10.37V10.96H8.08V15.77L10.79 15.05V15.03ZM28.45 21.83H15.89L15.69 23.14H29.55V31.81H26.12V30.89H18.7V31.84H15.4V24.45C14.78 27.07 13.67 29.62 11.77 31.58C11.28 30.89 9.84 29.55 9.12 29.09C12.36 25.69 12.68 20.85 12.68 17.29V11.76H28.44V21.83H28.45ZM16.19 17.84C16.19 18.26 16.16 18.72 16.16 19.18H24.92V17.84H16.19ZM24.92 14.41H16.19V15.69H24.92V14.41ZM23.65 7.60999C22.47 6.52999 21.39 5.42 20.61 4.37C19.89 5.38 18.88 6.49999 17.73 7.60999H23.65ZM26.13 25.86H18.71V28.18H26.13V25.86Z" fill="white"/>
<path d="M48.4197 19.2502C48.3197 19.5402 48.0597 19.7402 47.5397 19.8102C46.5597 24.6802 45.2197 29.1302 37.5697 31.8102C37.1097 30.8002 36.0697 29.1902 35.1797 28.3802C42.0097 26.4202 43.0597 22.9203 43.5797 18.7003L48.4197 19.2603V19.2502ZM56.3697 26.3502C56.3697 27.4302 56.5297 27.5903 57.5497 27.5903H60.4297C61.4097 27.5903 61.6097 26.9703 61.7397 23.0803C62.5297 23.7303 64.2597 24.3903 65.2997 24.6503C64.9097 29.8803 63.8597 31.2902 60.7897 31.2902H56.9597C53.2697 31.2902 52.4097 30.0802 52.4097 26.3502V18.3702H35.6697V14.5402H48.3197V9.18024H42.5997C41.8797 10.8502 41.0297 12.4502 40.0797 13.6902C39.1997 13.1002 37.5597 12.3203 36.6097 11.9603C38.7697 9.25027 40.3397 4.80024 41.0197 1.43024L45.6297 2.44025C45.5297 2.73025 45.2697 2.90027 44.7797 2.90027C44.5797 3.65027 44.3197 4.54023 44.0297 5.42023H48.3097V0.970215L53.2197 1.20026C53.1897 1.56026 52.9297 1.76022 52.2997 1.85022V5.41022H62.3697V9.17023H52.2997V14.5302H64.9897V18.3602H56.3597V26.3403L56.3697 26.3502Z" fill="white"/>
<path d="M99.0696 7.80011V25.2601H84.3896V7.80011H89.0296L89.4196 5.58014H83.1696V4.24011H83.0996C81.9596 6.10011 80.2196 8.3901 78.4896 10.1601C79.2696 10.7201 79.9597 11.2401 80.4797 11.7301L79.6296 12.8701H82.2496L84.1796 13.0001C83.5296 15.9401 82.7396 18.8501 81.6596 21.6701C78.9796 20.6601 78.9096 20.6201 78.8496 20.6201C79.2096 19.4801 79.6296 17.9101 80.0296 16.3401H78.0996V27.6501C78.0996 30.6901 77.2196 31.8701 71.4896 31.7701C71.3296 30.6901 70.8396 29.0901 70.3096 28.0401C71.7196 28.0701 73.2496 28.0701 73.7096 28.0701C74.1696 28.0401 74.2997 27.9401 74.2997 27.5801V16.3301H69.3896V12.8601H76.2896C74.6197 11.6201 72.4996 10.3401 70.6696 9.46014L72.6296 6.88013C73.5796 7.31013 74.6196 7.8601 75.6696 8.4201C76.3896 7.64011 77.1397 6.69011 77.7997 5.74011H70.0797V2.34015H80.4496L81.0396 2.14014L83.1696 3.4201V2.28009H100.21V5.58014H93.5396C93.3396 6.27014 93.1196 7.02011 92.8496 7.80011H99.0596H99.0696ZM90.9596 27.3501C90.8296 27.4801 90.6297 27.5501 90.3697 27.5801C88.8997 29.0501 85.8596 30.9101 83.2696 31.9001C82.6496 31.1801 81.4997 30.0001 80.6897 29.3501C83.2097 28.4301 86.1196 26.6701 87.5596 25.2601L90.9596 27.3501ZM95.3096 12.7701V10.6801H87.9496V12.7701H95.3096ZM95.3096 17.5401V15.4501H87.9496V17.5401H95.3096ZM95.3096 22.3801V20.2601H87.9496V22.3801H95.3096ZM97.7597 31.8601C96.6197 30.6501 94.1597 28.7201 92.2997 27.4101L95.2096 25.4101C97.0396 26.6201 99.5297 28.4201 100.83 29.6601L97.7597 31.8501V31.8601Z" fill="white"/>
<path d="M111.13 24.84L114.01 23.63C115.12 25.3 116.33 27.52 116.85 28.96C115.9 29.42 114.99 29.88 113.81 30.43C113.35 28.93 112.17 26.6 111.1 24.9C111 25.06 110.74 25.19 110.41 25.16C109.59 27.48 108.19 30.13 106.65 31.8C105.96 31.24 104.72 30.39 103.9 29.97C105.34 28.5 106.58 26.05 107.24 23.69L111.16 24.8L111.13 24.83V24.84ZM115.71 2.17999V23.47H105.67V2.17999H115.71ZM112.24 8.33002V5.28998H109V8.33002H112.24ZM112.24 14.35V11.28H109V14.35H112.24ZM112.24 20.33V17.22H109V20.33H112.24ZM135.03 23.63V26.51H133.1V28.28C133.1 31.49 131.6 31.84 126.89 31.84C126.76 30.89 126.3 29.55 125.88 28.67C127.16 28.74 128.59 28.74 128.99 28.74C129.42 28.74 129.55 28.61 129.55 28.22V26.52H121.64V31.85H118.21V26.52H116.15V23.64H118.21V15.79H123.87V14.45H116.48V11.7H120.44V10.46H118.09V7.81H120.44V6.59998H117.07V3.82001H120.44V0.97998L124.66 1.21002C124.63 1.50002 124.43 1.69999 123.87 1.79999V3.83002H127.24V0.98999L131.56 1.25C131.53 1.54 131.3 1.71 130.74 1.81V3.84003H134.47V6.62H130.74V7.83002H133.52V10.48H130.74V11.72H135.02V14.47H127.27V15.81H133.12V23.66H135.05L135.03 23.63ZM123.85 18.56H121.63V19.8H123.85V18.56ZM121.63 22.39V23.63H123.85V22.39H121.63ZM123.85 6.59998V7.81H127.22V6.59998H123.85ZM123.85 10.46V11.7H127.22V10.46H123.85ZM129.54 18.57H127.25V19.81H129.54V18.57ZM127.25 23.64H129.54V22.4H127.25V23.64Z" fill="white"/>
<path d="M152.78 23.86L153.11 27.0001C148.66 28.1801 143.92 29.35 140.85 30.11C140.82 30.4 140.59 30.6 140.33 30.67L138.76 26.6801C140.95 26.3201 143.96 25.7 147.2 25.04L146.32 24.7501C146.81 22.9501 147.37 20.14 147.56 18.11L151.78 19.29C151.68 19.52 151.39 19.6801 150.93 19.6801C150.64 21.1201 150.14 22.9801 149.65 24.5201L152.79 23.8701L152.78 23.86ZM152.58 2.47003V6.07007H139.3V2.47003H152.58ZM151.86 8.39008V17.6401H140.22V8.39008H151.86ZM143.75 18.4001C144.44 20.2301 144.93 22.6201 145.03 24.1901L141.69 25.0701C141.66 23.5001 141.23 21.0501 140.61 19.1801L143.75 18.3901V18.4001ZM148.36 14.5701V11.4601H143.52V14.5701H148.36ZM160.62 27.4501C160.52 27.5801 160.33 27.6501 160.06 27.6801C158.65 29.0901 155.68 30.8801 153.16 31.8301C152.57 31.1401 151.43 30.0001 150.58 29.3101C153.06 28.4601 155.88 26.7601 157.28 25.3901L160.62 27.4501ZM168.66 7.93005V25.3901H154.24V7.93005H158.36C158.52 7.18005 158.69 6.36008 158.79 5.58008H153.39V2.28003H169.67V5.58008H162.9C162.7 6.30008 162.48 7.12005 162.21 7.93005H168.65H168.66ZM164.9 12.9001V10.8101H157.84V12.9001H164.9ZM164.9 17.67V15.55H157.84V17.67H164.9ZM164.9 22.5101V20.35H157.84V22.5101H164.9ZM167.19 31.8301C166.08 30.6501 163.66 28.7601 161.83 27.5101L164.81 25.6501C166.58 26.7901 169.06 28.5601 170.34 29.7401L167.2 31.8301H167.19Z" fill="white"/>
<path d="M204.11 3.46021V6.66016H198.22C198.74 7.41016 199.2 8.16018 199.46 8.75018L196.12 10.1202C195.73 9.20018 194.91 7.83021 194.06 6.65021H192.72C192.16 7.44021 191.58 8.19018 190.95 8.87018L191.77 8.90021C191.74 9.23021 191.48 9.4202 190.89 9.5202V10.6602H200.67V13.8302H190.89V15.6602H203.9V18.9602H197.72C197.59 19.0902 197.36 19.1902 197 19.2502V20.7902H202.13V24.0602H197V27.7602C197 31.0002 195.79 31.7802 189.9 31.7802C189.7 30.6702 189.08 29.1302 188.56 28.1202C189.48 28.1502 190.42 28.1902 191.14 28.1902C192.91 28.1902 192.91 28.1602 192.91 27.6702V24.0702H183.26C184.93 25.1502 186.76 26.5602 187.67 27.7302L184.89 30.2502C183.88 28.9102 181.62 27.0102 179.69 25.8002L181.65 24.0702H175.9V20.8002H192.9V18.9702H173.87V15.6702H186.79V13.8402H177.31V10.6702H186.79V8.61017L188.16 8.68018C187.67 8.35018 187.18 8.0602 186.79 7.8302C187.22 7.4702 187.61 7.08021 188 6.65021H183.62C184.01 7.40021 184.37 8.15017 184.57 8.74017L181.2 10.1102C180.97 9.19017 180.35 7.8202 179.7 6.6402H179.37C178.45 8.1402 177.41 9.52016 176.39 10.6002C175.64 9.98016 174.26 9.06019 173.32 8.57019C175.31 6.74019 177.18 3.57016 178.23 0.660156L182.48 2.00018C182.32 2.29018 181.99 2.39017 181.63 2.36017L181.14 3.44019H188.4V6.22015C189.74 4.62015 190.88 2.62016 191.6 0.660156C193.27 1.15016 194.61 1.54015 195.92 1.97015C195.82 2.26015 195.49 2.3602 195.1 2.3302L194.61 3.44019H204.09L204.11 3.46021Z" fill="white"/>
<path d="M237.4 21.0802H226.51C226.44 21.5402 226.35 21.9602 226.28 22.4202H238.02V31.7402H234.46V30.7902H228.67V31.7702H225.27V26.3102C224.71 27.9102 223.96 29.4502 222.95 30.7602C222.56 30.2002 221.54 29.2602 220.79 28.7002C220.63 31.4802 218.89 31.7402 215.56 31.7402C215.46 30.8902 215 29.4502 214.58 28.6002C215.69 28.6302 216.8 28.6302 217.13 28.6302C217.52 28.6002 217.62 28.5002 217.62 28.1102V17.8702L213.24 18.3602C213.14 22.7802 212.65 28.3002 210.53 31.8702C209.94 31.3502 208.57 30.4002 207.82 30.0702C209.68 26.9002 210.04 22.5202 210.11 18.7202L209.42 18.7902C209.35 19.0802 209.09 19.2502 208.83 19.2802L207.88 15.7202L210.1 15.5602V5.42017H213.01C213.4 4.01017 213.8 2.21016 213.99 0.910156L218.44 1.96021C218.31 2.19021 218.05 2.35016 217.59 2.35016C217.26 3.27016 216.81 4.41017 216.35 5.42017H220.8V7.97015C223.71 6.27015 226.62 3.33019 228.03 1.01019L232.35 1.17017C232.32 1.40017 232.09 1.56019 231.79 1.63019C233.59 3.82019 236.76 6.27017 239.47 7.55017C238.78 8.43017 237.9 9.87017 237.38 10.9202C236.3 10.3302 235.19 9.51016 234.11 8.66016V9.90021H225.87V8.62018C224.69 9.67018 223.42 10.6202 222.08 11.3702C221.75 10.7202 221.3 9.80017 220.8 9.05017V14.6102L222.37 14.4802L222.43 17.2902L220.8 17.4902V27.5902C223.15 23.8602 223.45 18.9902 223.45 15.4902V11.0102H237.41V21.0802H237.4ZM213.23 15.2902L217.61 14.9002V8.46021H213.23V15.2902ZM214.83 14.3102C214.67 13.1702 214.08 11.4302 213.39 10.1202L215.65 9.24017C216.37 10.5202 217.02 12.2202 217.25 13.3602L214.83 14.3102ZM217.02 18.9502C216.99 19.1802 216.82 19.3402 216.37 19.4102V26.3402H214.18V18.7502L217.03 18.9502H217.02ZM226.83 17.1502C226.83 17.5702 226.8 18.0302 226.76 18.4902H233.99V17.1502H226.83ZM233.99 13.5902H226.86V14.8302H233.99V13.5902ZM232.45 7.21021C231.44 6.23021 230.49 5.2202 229.8 4.2702C229.18 5.1902 228.33 6.20021 227.32 7.21021H232.45ZM234.44 25.2902H228.65V27.8702H234.44V25.2902Z" fill="white"/>
<path d="M258.47 0.630127H260.07V32.6401H258.47V0.630127Z" fill="white"/>
<path d="M277.88 15.72C277.88 7.72003 280.84 2.08008 286.75 2.08008C292.66 2.08008 295.34 8.20007 295.34 15.5101C295.34 24.2101 292.1 29.1801 286.57 29.1801C280.45 29.1801 277.87 23.06 277.87 15.72H277.88ZM286.65 25.11C289.02 25.11 290.2 21.77 290.2 15.61C290.2 9.45005 289.12 6.15009 286.69 6.15009C284.46 6.15009 283.04 9.35005 283.04 15.61C283.04 21.87 284.33 25.11 286.62 25.11H286.66H286.65Z" fill="white"/>
<path d="M308.78 14.6401C311.7 15.3001 314.14 17.6701 314.14 21.2501C314.14 25.6301 310.63 29.1801 304.5 29.1801C301.72 29.1801 299.21 28.4501 297.89 27.5801L299.04 23.6801C300.01 24.3101 302.14 25.11 304.15 25.11C307.32 25.11 308.88 23.1601 308.88 21.0001C308.88 18.0401 306.31 16.6501 303.49 16.6501H301.72V13.03H303.39C305.44 13.03 308.09 11.8801 308.09 9.34009C308.09 7.50009 306.87 6.14008 304.44 6.14008C302.63 6.14008 300.86 6.94007 299.85 7.57007L298.77 3.88007C300.13 2.98007 302.81 2.07007 305.62 2.07007C310.66 2.07007 313.31 5.03007 313.31 8.51007C313.31 11.2201 311.68 13.4801 308.79 14.5601V14.6301L308.78 14.6401Z" fill="white"/>
<path d="M317.65 16.4102H327.18V19.9602H317.65V16.4102Z" fill="white"/>
<path d="M339.19 14.6401C342.11 15.3001 344.55 17.6701 344.55 21.2501C344.55 25.6301 341.04 29.1801 334.91 29.1801C332.13 29.1801 329.62 28.4501 328.3 27.5801L329.45 23.6801C330.42 24.3101 332.55 25.11 334.56 25.11C337.73 25.11 339.29 23.1601 339.29 21.0001C339.29 18.0401 336.72 16.6501 333.9 16.6501H332.13V13.03H333.8C335.85 13.03 338.5 11.8801 338.5 9.34009C338.5 7.50009 337.28 6.14008 334.85 6.14008C333.04 6.14008 331.27 6.94007 330.26 7.57007L329.18 3.88007C330.54 2.98007 333.22 2.07007 336.03 2.07007C341.07 2.07007 343.72 5.03007 343.72 8.51007C343.72 11.2201 342.08 13.4801 339.2 14.5601V14.6301L339.19 14.6401Z" fill="white"/>
<path d="M348.09 15.72C348.09 7.72003 351.05 2.08008 356.96 2.08008C362.87 2.08008 365.55 8.20007 365.55 15.5101C365.55 24.2101 362.31 29.1801 356.78 29.1801C350.66 29.1801 348.08 23.06 348.08 15.72H348.09ZM356.86 25.11C359.23 25.11 360.41 21.77 360.41 15.61C360.41 9.45005 359.33 6.15009 356.9 6.15009C354.67 6.15009 353.25 9.35005 353.25 15.61C353.25 21.87 354.54 25.11 356.83 25.11H356.86Z" fill="white"/>
<path d="M375.4 28.8V7.09003H375.33L370.81 9.46002L369.7 5.77002L376.1 2.5H380.41V28.8H375.4Z" fill="white"/>
<path d="M387.86 16.4102H397.39V19.9602H387.86V16.4102Z" fill="white"/>
<path d="M405.81 28.8V7.09003H405.74L401.22 9.46002L400.11 5.77002L406.51 2.5H410.82V28.8H405.81Z" fill="white"/>
<path d="M422.17 14.9901C419.73 13.6301 418.45 11.4401 418.45 9.21008C418.45 4.86008 422.03 2.08008 426.59 2.08008C431.81 2.08008 434.28 5.38006 434.28 8.69006C434.28 10.8101 433.1 13.14 430.42 14.6V14.67C432.99 15.85 435.12 18.1101 435.12 21.3801C435.12 26.0801 431.43 29.17 426.21 29.17C420.61 29.17 417.62 25.73 417.62 21.97C417.62 18.73 419.53 16.4001 422.18 15.0801V14.98L422.17 14.9901ZM429.96 21.8101C429.96 19.2401 428.22 17.6001 425.92 16.8401C423.94 17.5701 422.75 19.4101 422.75 21.5001C422.75 23.7301 424.11 25.67 426.33 25.67C428.55 25.67 429.95 23.8601 429.95 21.8101H429.96ZM423.28 8.97003C423.28 10.99 424.74 12.3801 426.79 13.1401C428.25 12.5501 429.47 10.9101 429.47 9.14008C429.47 7.37008 428.6 5.52008 426.41 5.52008C424.22 5.52008 423.28 7.29008 423.28 8.96008V8.97003Z" fill="white"/>
<path d="M443.46 14.9901C441.02 13.6301 439.74 11.4401 439.74 9.21008C439.74 4.86008 443.32 2.08008 447.88 2.08008C453.1 2.08008 455.57 5.38006 455.57 8.69006C455.57 10.8101 454.39 13.14 451.71 14.6V14.67C454.28 15.85 456.41 18.1101 456.41 21.3801C456.41 26.0801 452.72 29.17 447.5 29.17C441.9 29.17 438.91 25.73 438.91 21.97C438.91 18.73 440.82 16.4001 443.47 15.0801V14.98L443.46 14.9901ZM451.25 21.8101C451.25 19.2401 449.51 17.6001 447.21 16.8401C445.23 17.5701 444.04 19.4101 444.04 21.5001C444.04 23.7301 445.4 25.67 447.62 25.67C449.84 25.67 451.24 23.8601 451.24 21.8101H451.25ZM444.57 8.97003C444.57 10.99 446.03 12.3801 448.08 13.1401C449.54 12.5501 450.76 10.9101 450.76 9.14008C450.76 7.37008 449.89 5.52008 447.7 5.52008C445.51 5.52008 444.57 7.29008 444.57 8.96008V8.97003Z" fill="white"/>
<path d="M464.75 14.9901C462.31 13.6301 461.03 11.4401 461.03 9.21008C461.03 4.86008 464.61 2.08008 469.17 2.08008C474.39 2.08008 476.86 5.38006 476.86 8.69006C476.86 10.8101 475.68 13.14 473 14.6V14.67C475.57 15.85 477.7 18.1101 477.7 21.3801C477.7 26.0801 474.01 29.17 468.79 29.17C463.19 29.17 460.2 25.73 460.2 21.97C460.2 18.73 462.11 16.4001 464.76 15.0801V14.98L464.75 14.9901ZM472.54 21.8101C472.54 19.2401 470.8 17.6001 468.5 16.8401C466.52 17.5701 465.33 19.4101 465.33 21.5001C465.33 23.7301 466.69 25.67 468.91 25.67C471.13 25.67 472.53 23.8601 472.53 21.8101H472.54ZM465.86 8.97003C465.86 10.99 467.32 12.3801 469.37 13.1401C470.83 12.5501 472.05 10.9101 472.05 9.14008C472.05 7.37008 471.18 5.52008 468.99 5.52008C466.8 5.52008 465.86 7.29008 465.86 8.96008V8.97003Z" fill="white"/>
</svg>
