<?xml version="1.0" encoding="utf-8"?>
<!-- Generator: Adobe Illustrator 27.0.0, SVG Export Plug-In . SVG Version: 6.00 Build 0)  -->
<svg version="1.1" id="_圖層_2" xmlns="http://www.w3.org/2000/svg" xmlns:xlink="http://www.w3.org/1999/xlink" x="0px" y="0px"
	 viewBox="0 0 181.4 96.4" style="enable-background:new 0 0 181.4 96.4;" xml:space="preserve">
<style type="text/css">
	.st0{fill:#FFFFFF;}
</style>
<g id="_圖層_1-2">
	<g>
		<g>
			<path class="st0" d="M80.3,48.4h2.3c0.8-0.8,1.1-1.8,1.2-2.8l2.3,0.2c0,0.1-0.2,0.2-0.4,0.3c-0.2,1.5-0.6,3.3-2.5,4.5
				c-0.1-0.2-0.2-0.4-0.4-0.6v0.1h-5.3v0.6h-1.9v-4.4c-0.1,0.1-0.2,0.3-0.4,0.4c-0.2-0.4-0.7-1.2-0.9-1.6c0.7-0.8,1.4-2.1,1.8-3.4
				h-1.2v-3.4h3.6v3.4h-1.1l0.8,0.3c-0.1,0.1-0.2,0.2-0.4,0.2l-0.2,0.5h1c0.2-0.4,0.3-0.9,0.4-1.2v-3.2h3.7v3.4h-2.9l1.3,0.4
				c0,0.1-0.2,0.2-0.4,0.2l-0.3,0.4h2.3v1.6h-2.4v0.4h2v1.4h-2v0.4h2v1.4h-2V48.4L80.3,48.4z M75.9,37.9v-0.6h-1.5v-1.6h1.5v-1
				l2.5,0.1c0,0.2-0.1,0.3-0.4,0.3v0.6h1.5v-1l2.5,0.1c0,0.2-0.1,0.3-0.4,0.3v0.6h1.3v1.6h-1.3v0.6h-2v-0.6h-1.5v0.6
				C77.9,37.9,75.9,37.9,75.9,37.9z M76.4,39.7v0.6h0.5v-0.6H76.4z M78.3,44.7v-0.4h-0.9v0.4H78.3z M78.3,46.6v-0.4h-0.9v0.4H78.3z
				 M77.5,47.9v0.4h0.9v-0.4H77.5z M80.5,39.7v0.6h0.6v-0.6H80.5z M88.2,48c0,0.5,0,0.5,0.1,0.5h0.1c0.2,0,0.2-0.2,0.3-1.8
				c0.4,0.3,1.2,0.6,1.8,0.8c-0.2,2.3-0.7,2.9-1.8,2.9h-0.8c-1.5,0-1.8-0.6-1.8-2.4v-2.8h-3v-9.9h6.4v9.9h-1.4L88.2,48L88.2,48z
				 M85.3,37.3V38h2.2v-0.7H85.3z M85.3,39.8v0.7h2.2v-0.7H85.3z M85.3,42.4v0.7h2.2v-0.7H85.3z"/>
			<path class="st0" d="M98.5,43.4c0,0.2-0.2,0.3-0.5,0.4c-0.4,2.9-1,5.4-5.5,6.9c-0.2-0.6-0.9-1.6-1.5-2.1c3.9-1.1,4.2-2.9,4.4-5.4
				L98.5,43.4L98.5,43.4z M102.5,47.5c0,0.6,0.1,0.7,0.5,0.7h1.2c0.5,0,0.6-0.4,0.7-2.6c0.5,0.4,1.6,0.8,2.2,1
				c-0.2,3-0.8,3.9-2.7,3.9h-1.8c-2.1,0-2.6-0.8-2.6-3V43h-8.5v-2.3h6.3v-6l3,0.2c0,0.2-0.2,0.3-0.5,0.4v5.4h6.5V43h-4
				c-0.1,0-0.2,0.1-0.3,0.1V47.5L102.5,47.5z M94.8,35.3c0.7,1.3,1.5,2.9,1.8,4l-2.4,1c-0.2-1.1-0.9-2.8-1.6-4.1L94.8,35.3
				L94.8,35.3z M101.5,39.4c0.7-1.1,1.5-2.8,1.9-4.1l2.8,1.1c-0.1,0.1-0.3,0.2-0.6,0.2c-0.5,1.2-1.4,2.7-2,3.7L101.5,39.4
				L101.5,39.4z"/>
		</g>
		<g>
			<path class="st0" d="M70.7,56.7c-0.2-0.1-0.6-0.2-1-0.2c-0.6,0-0.9,0.3-0.9,0.6c0,0.4,0.3,0.6,1,0.9c0.9,0.4,1.4,1,1.4,1.7
				c0,1-0.8,1.8-2.1,1.8c-0.6,0-1.2-0.2-1.4-0.3l0.2-1c0.3,0.2,0.8,0.3,1.3,0.3c0.6,0,1-0.3,1-0.7s-0.3-0.7-0.9-1
				c-0.9-0.4-1.4-0.9-1.4-1.7c0-1,0.8-1.7,2-1.7c0.6,0,1,0.1,1.3,0.3L70.7,56.7L70.7,56.7z"/>
			<path class="st0" d="M72.1,55.6h1.1v5.9h-1.1V55.6z"/>
			<path class="st0" d="M78.6,61.2c-0.3,0.1-1,0.3-1.7,0.3c-0.9,0-1.6-0.2-2.1-0.7S74,59.5,74,58.6c0-2,1.3-3.1,3-3.1
				c0.6,0,1.1,0.1,1.4,0.2l-0.2,1c-0.3-0.1-0.6-0.2-1.1-0.2c-1,0-1.9,0.6-1.9,2.1s0.7,2,1.7,2c0.3,0,0.5,0,0.6-0.1v-1.4h-0.9v-0.9
				h1.9L78.6,61.2L78.6,61.2z"/>
			<path class="st0" d="M83.9,61.5h-1.1V59h-2v2.5h-1.1v-5.9h1.1V58h2v-2.4h1.1V61.5z"/>
			<path class="st0" d="M88.6,56.6h-1.5v4.9H86v-4.9h-1.5v-1h4C88.6,55.6,88.6,56.6,88.6,56.6z"/>
			<path class="st0" d="M92.1,56.7c-0.2-0.1-0.6-0.2-1-0.2c-0.6,0-0.9,0.3-0.9,0.6c0,0.4,0.3,0.6,1,0.9c0.9,0.4,1.4,1,1.4,1.7
				c0,1-0.8,1.8-2.1,1.8c-0.6,0-1.2-0.2-1.5-0.3l0.2-1c0.3,0.2,0.8,0.3,1.3,0.3c0.6,0,1-0.3,1-0.7s-0.3-0.7-0.9-1
				c-0.9-0.4-1.4-0.9-1.4-1.7c0-1,0.8-1.7,2-1.7c0.6,0,1,0.1,1.3,0.3L92.1,56.7L92.1,56.7z"/>
			<path class="st0" d="M96.8,61.5h-3.3v-5.9h3.2v1h-2V58h1.9v0.9h-1.9v1.6h2.2C96.8,60.5,96.8,61.5,96.8,61.5z"/>
			<path class="st0" d="M100.9,61.5h-3.3v-5.9h3.2v1h-2V58h1.9v0.9h-1.9v1.6h2.2C100.9,60.5,100.9,61.5,100.9,61.5z"/>
			<path class="st0" d="M101.8,55.6h1.1v5.9h-1.1V55.6z"/>
			<path class="st0" d="M108.4,61.5h-1.1l-1.3-2.4c-0.3-0.6-0.7-1.3-0.9-2l0,0c0,0.7,0.1,1.5,0.1,2.6v1.8h-1v-5.9h1.2l1.2,2.4
				c0.3,0.6,0.6,1.3,0.9,1.9l0,0c-0.1-0.8-0.1-1.6-0.1-2.5v-1.8h1L108.4,61.5L108.4,61.5z"/>
			<path class="st0" d="M113.8,61.2c-0.3,0.1-1,0.3-1.7,0.3c-0.9,0-1.6-0.2-2.1-0.7s-0.8-1.3-0.8-2.2c0-2,1.3-3.1,3-3.1
				c0.6,0,1.1,0.1,1.4,0.2l-0.2,1c-0.3-0.1-0.6-0.2-1.1-0.2c-1,0-1.8,0.6-1.8,2.1s0.7,2,1.7,2c0.3,0,0.5,0,0.6-0.1v-1.4H112v-0.9
				h1.9L113.8,61.2L113.8,61.2z"/>
		</g>
	</g>
</g>
<g>
	<path class="st0" d="M104.1,83.6v8.8h-0.9v-0.4h-6.5v0.4h-0.9v-8.8H104.1z M103.1,91v-6.6h-6.5V91H103.1z M102.4,86.8
		c-0.2,0.9-0.6,1.7-1.1,2.4c0.2,0.4,0.4,0.7,0.6,0.7c0.1,0,0.2-0.4,0.3-1c0.2,0.2,0.4,0.3,0.6,0.4c-0.1,1.1-0.6,1.5-1.1,1.3
		c-0.4-0.1-0.7-0.4-0.9-0.8c-0.3,0.4-0.8,0.7-1.2,1c-0.1-0.1-0.4-0.4-0.5-0.6c0.3-0.2,0.5-0.3,0.8-0.5c-1,0.2-2,0.3-2.8,0.5L97,89.5
		c0.7-0.1,1.8-0.3,2.9-0.4l0,0.6c0.2-0.2,0.4-0.4,0.6-0.6c-0.2-0.8-0.4-1.7-0.5-2.8h-2.9v-0.7h2.9c0-0.3,0-0.6-0.1-1h0.8
		c0,0.3,0,0.7,0,1h1.4c-0.2-0.2-0.6-0.5-1-0.7l0.4-0.4c0.4,0.2,0.8,0.4,1,0.7l-0.4,0.5h0.6v0.7h-2c0.1,0.7,0.2,1.4,0.3,2
		c0.3-0.5,0.5-1,0.6-1.6L102.4,86.8z M99.6,86.8v1.9h-2.2v-1.9H99.6z M98.9,87.3H98v0.9h0.9V87.3z"/>
	<path class="st0" d="M109,83.8c-0.3,0.8-0.6,1.8-0.9,2.6c0.6,0.8,0.8,1.5,0.8,2.1c0,0.6-0.1,1-0.4,1.2c-0.1,0.1-0.3,0.2-0.5,0.2
		c-0.2,0-0.4,0-0.6,0c0-0.2-0.1-0.6-0.2-0.8c0.2,0,0.3,0,0.5,0c0.1,0,0.2,0,0.3-0.1c0.1-0.1,0.2-0.4,0.2-0.7c0-0.5-0.2-1.2-0.8-1.9
		c0.2-0.7,0.5-1.5,0.6-2.2h-1v7.9h-0.8v-8.7h2.1l0.1,0L109,83.8z M110.2,86.5c0.1-0.2,0.2-0.3,0.3-0.5c-0.2-0.2-0.5-0.5-0.8-0.7
		c-0.2,0.3-0.4,0.5-0.7,0.8c-0.1-0.1-0.4-0.4-0.6-0.5c0.7-0.6,1.2-1.4,1.5-2.4l0.7,0.2c-0.1,0.2-0.2,0.4-0.2,0.6h0.9l0.1,0L112,84
		l0,0.2l0.5-0.1v-0.4h1.7l0.2,0l0.5,0.3c-0.3,0.8-0.8,1.7-1.3,2.3c0.4,0.6,0.9,1.1,1.5,1.4c-0.2,0.2-0.4,0.4-0.5,0.7
		c-0.4-0.3-0.8-0.6-1.2-1.1v0.6h-3v-0.4c-0.3,0.4-0.7,0.7-1,0.9c-0.1-0.2-0.3-0.4-0.5-0.6c0.4-0.2,0.9-0.6,1.2-1.1
		c-0.5,0.1-0.9,0.2-1.3,0.2l-0.1-0.6c0.4,0,0.9-0.1,1.5-0.2L110.2,86.5z M110.8,90.1c-0.4,0.6-0.9,1.4-1.4,1.8
		c-0.2-0.1-0.5-0.4-0.7-0.5c0.5-0.4,0.9-1.1,1.3-1.6L110.8,90.1z M112.3,89.4v2.9h-0.9v-2.9h-2v-0.8h4.9v0.8H112.3z M110.2,84.5
		c0,0.1-0.1,0.1-0.1,0.2c0.3,0.2,0.5,0.4,0.8,0.6c0.1-0.3,0.2-0.5,0.3-0.8H110.2z M113.2,87c-0.6-0.8-1-1.7-1.3-2.7
		c-0.3,1.1-0.8,2-1.3,2.7H113.2z M112.7,84.3c0.1,0.4,0.3,0.8,0.5,1.2c0.2-0.4,0.5-0.8,0.7-1.2H112.7z M113.6,89.7
		c0.5,0.5,1.1,1.2,1.4,1.6l-0.7,0.5c-0.3-0.4-0.9-1.2-1.4-1.7L113.6,89.7z"/>
	<path class="st0" d="M124.6,91.4c0.2,0,0.2-0.1,0.2-1.3c0.1,0.1,0.5,0.3,0.7,0.3c-0.1,1.4-0.2,1.7-0.8,1.7h-0.5
		c-0.6,0-0.8-0.2-0.8-1v-2.1h-0.5c-0.1,1.4-0.5,2.6-1.7,3.2c-0.1-0.2-0.2-0.3-0.3-0.5h-3v0.5h-0.7v-3.2c-0.2,0.2-0.3,0.4-0.5,0.6
		c-0.1-0.1-0.3-0.5-0.4-0.6c0.5-0.5,1-1.3,1.3-2.1h-0.9v-1.8h1.9v1.8h-1l0.6,0.2c-0.1,0.2-0.1,0.4-0.2,0.6h1
		c-0.1-0.2-0.2-0.3-0.3-0.5l0.6-0.2c0.1,0.2,0.3,0.5,0.4,0.7h1.3v0.6h-1.3v0.5h1.1v0.6h-1.1V90h1.2v0.6h-1.2v0.6h1.3v0.3
		c0.8-0.5,1.1-1.4,1.2-2.4h-0.8v-5.6h3.7v5.6h-0.9v2.1c0,0.2,0,0.3,0.1,0.3H124.6z M117.6,84.4h-1.4v-0.7h1.4v-0.6h0.7v1.8h-0.7
		V84.4z M117.2,86.4h0.8v-0.8h-0.8V86.4z M118.9,88.3h-1.1v0.5h1.1V88.3z M118.9,89.5h-1.1V90h1.1V89.5z M117.8,91.2h1.1v-0.6h-1.1
		V91.2z M120.9,86.9H119v-1.8h1.9V86.9z M119.9,84.9h-0.7v-1.8h0.7v0.6h1.2v0.7h-1.2V84.9z M120.3,85.6h-0.8v0.8h0.8V85.6z
		 M122.1,85.1h2.1v-0.8h-2.1V85.1z M122.1,86.7h2.1v-0.8h-2.1V86.7z M122.1,88.2h2.1v-0.8h-2.1V88.2z"/>
	<path class="st0" d="M134.7,91.2c0.3,0,0.3-0.1,0.4-0.9c0.2,0.2,0.6,0.3,0.9,0.4c-0.1,1.1-0.4,1.4-1.1,1.4h-1.4
		c-1,0-1.2-0.3-1.2-1.2v-3.2h-1.4c-0.2,2.2-0.7,3.8-3.2,4.7c-0.1-0.2-0.4-0.6-0.6-0.8c2.3-0.7,2.6-2.1,2.8-3.9H127v-0.9h3.8v-3.6h1
		v3.6h3.8v0.9H133v3.2c0,0.3,0.1,0.4,0.4,0.4H134.7z M129.2,86.3c-0.3-0.6-0.9-1.4-1.4-2.1l0.7-0.4c0.5,0.6,1.2,1.5,1.5,2
		L129.2,86.3z M135.2,84.1c-0.5,0.8-1.1,1.6-1.6,2.1l-0.8-0.3c0.5-0.6,1.1-1.5,1.4-2.1L135.2,84.1z"/>
	<path class="st0" d="M137.2,87.6c0.2-0.7,0.4-1.8,0.5-2.6l0.7,0.1c-0.1,0.8-0.2,2-0.5,2.7L137.2,87.6z M140.1,86.3
		c-0.1-0.4-0.3-0.9-0.5-1.4v7.3h-0.9v-9.2h0.9v1.6l0.5-0.2c0.2,0.5,0.5,1.1,0.6,1.5L140.1,86.3z M145.9,91.3c0,0.4-0.1,0.7-0.4,0.8
		c-0.3,0.1-0.8,0.1-1.5,0.1c0-0.2-0.1-0.6-0.3-0.8c0.5,0,0.9,0,1.1,0c0.1,0,0.2,0,0.2-0.2v-0.6h-3.3c-0.1,0.6-0.3,1.2-0.7,1.6
		c-0.1-0.2-0.5-0.5-0.7-0.6c0.6-0.7,0.6-1.7,0.6-2.5v-1.8h4.9V91.3z M146.4,86.3V87h-6.1v-0.7h2.5v-0.6h-2v-0.6h2v-0.5h-2.3v-0.7
		h2.3v-0.7h0.9v0.7h2.3v0.7h-2.3v0.5h2v0.6h-2v0.6H146.4z M145,90.1v-0.6h-3.1c0,0.2,0,0.4,0,0.6H145z M141.8,88.2v0.6h3.1v-0.6
		H141.8z"/>
	<path class="st0" d="M151,89.9c-1,0.4-2.1,0.9-3,1.2l-0.3-0.9c0.3-0.1,0.8-0.2,1.2-0.4v-3.3h-1v-0.9h1v-2.3h0.9v2.3h0.9v0.9h-0.9v3
		l1-0.4L151,89.9z M155.7,91.4c0.1,0,0.2,0,0.3,0c0.1,0,0.1-0.1,0.1-0.2c0-0.1,0-0.4,0-0.8c0.2,0.2,0.5,0.3,0.7,0.4
		c0,0.4-0.1,0.8-0.1,0.9c-0.1,0.2-0.2,0.3-0.4,0.3c-0.2,0.1-0.4,0.1-0.6,0.1h-0.7c-0.2,0-0.5-0.1-0.7-0.2c-0.2-0.1-0.2-0.3-0.2-0.9
		v-1.4h-0.8c-0.2,1.4-0.7,2.2-2.5,2.6c-0.1-0.2-0.3-0.6-0.5-0.7c1.6-0.3,2-0.8,2.1-1.9h-0.9v-2.9h4.6v2.9H155v1.4
		c0,0.1,0,0.2,0.1,0.3c0.1,0,0.1,0,0.2,0H155.7z M156.7,86.4h-5.6v-0.8h1.3c-0.1-0.2-0.2-0.6-0.3-0.8l0.8-0.2c0.1,0.3,0.3,0.7,0.3,1
		l-0.2,0h1.4c0.1-0.3,0.3-0.7,0.4-1l0.8,0.2c-0.1,0.3-0.3,0.6-0.4,0.8h1.4V86.4z M156.4,84.6h-5v-0.8h2.1c-0.1-0.2-0.1-0.4-0.2-0.6
		l0.9-0.2c0.1,0.2,0.2,0.5,0.3,0.7h2V84.6z M152.4,88h2.9v-0.5h-2.9V88z M152.4,89.1h2.9v-0.6h-2.9V89.1z"/>
	<path class="st0" d="M161.1,88.3c-0.5,1.2-1.2,2.4-2,3.1c-0.2-0.2-0.6-0.5-0.9-0.6c0.8-0.7,1.4-1.7,1.8-2.8L161.1,88.3z
		 M163.3,87.1v5.1h-1v-5.1h-3.8v-0.9h8.8v0.9H163.3z M166.4,84.7h-7v-0.9h7V84.7z M165.7,88c0.7,0.9,1.5,2.2,1.8,3l-1,0.4
		c-0.2-0.8-1-2.1-1.7-3L165.7,88z"/>
	<path class="st0" d="M169,91.6c0.5-0.4,0.9-1.1,1.2-1.7l0.8,0.3c-0.3,0.6-0.7,1.4-1.2,1.8L169,91.6z M177.7,86.1h-8.5v-0.7h2.2
		c-0.1-0.2-0.2-0.5-0.3-0.7l0.7-0.1h-2.1v-0.7h3.4c-0.1-0.2-0.2-0.4-0.3-0.6l0.9-0.2c0.1,0.2,0.3,0.5,0.4,0.8h3.1v0.7h-2l0.7,0.1
		c-0.1,0.3-0.3,0.5-0.4,0.7h2.3V86.1z M176.6,89.5h-3.3c0.5,0.2,1,0.6,1.3,0.8l-0.6,0.6c-0.3-0.3-1-0.8-1.6-1.1l0.4-0.3h-2.5v-2.9
		h6.3V89.5z M175.6,87.2h-4.5v0.6h4.5V87.2z M175.6,88.3h-4.5v0.6h4.5V88.3z M174.4,91.4c0.4,0,0.5-0.1,0.5-0.9
		c0.2,0.1,0.6,0.2,0.8,0.3c-0.1,1.1-0.4,1.4-1.2,1.4h-1.8c-1.1,0-1.4-0.2-1.4-1V90h0.9v1.2c0,0.2,0.1,0.3,0.6,0.3H174.4z
		 M171.9,84.5c0.2,0.3,0.3,0.6,0.4,0.9h2.2c0.1-0.3,0.3-0.6,0.4-0.9H171.9z M176.5,89.8c0.5,0.5,1,1.2,1.3,1.7l-0.8,0.4
		c-0.2-0.5-0.7-1.2-1.2-1.8L176.5,89.8z"/>
</g>
</svg>
