<svg width="582" height="226" viewBox="0 0 582 226" fill="none" xmlns="http://www.w3.org/2000/svg">
<path d="M39.3005 69.7996L40.6405 83.8296C28.1005 86.7496 15.0105 89.5496 6.50047 91.3496C6.28047 92.4696 5.27047 93.2596 4.26047 93.3696L0.230469 76.4196C3.81047 75.9696 7.95047 75.2996 12.4305 74.5096V54.7596H3.14047V39.8396H12.4305V22.9996H2.36047V7.96957H37.6205V23.0096H27.6605V39.8396H36.9505V54.7596H27.6605V71.9296L39.3005 69.7996ZM99.7505 81.4696H80.8305V93.5896C80.8305 104.47 77.3605 106.94 59.4505 106.94C58.7805 103.35 57.3205 98.6396 55.7605 95.0496C51.3905 99.1996 46.1305 103.24 41.1005 106.16C38.6405 103.35 33.7105 98.7496 30.6905 96.3996C37.4105 93.1496 44.3505 87.6496 48.1505 82.4896L64.1605 88.4396C63.7105 89.3396 62.5905 89.7896 61.1405 89.5596C59.8005 91.1296 58.2305 92.6996 56.5505 94.3896C59.3505 94.4996 62.5905 94.4996 63.6005 94.4996C64.8305 94.3896 65.2805 94.1596 65.2805 93.0396V81.4796H46.4705V56.5696H99.7505V81.4796V81.4696ZM106.58 40.7396V53.5296H38.9605V40.7396H64.1505V36.3596H45.0105V3.80957H101.09V36.3596H83.9605C83.6205 37.2596 82.6205 37.8196 80.7105 38.1596V40.7396H106.57H106.58ZM59.5605 13.1296V15.7096H85.7505V13.1296H59.5605ZM59.5605 24.4596V27.0396H85.7505V24.4596H59.5605ZM61.3505 66.7596V71.2496H83.9605V66.7596H61.3505ZM96.5005 105.59C93.7005 101.21 86.9905 94.2596 81.5005 89.5396L93.8105 82.8096C99.1805 87.0696 106.23 93.5796 109.7 98.1796L96.4905 105.59H96.5005Z" fill="white"/>
<path d="M216.83 6.0599L227.24 9.8799C227.13 10.6699 226.79 11.4499 226.12 12.0099C223.1 21.6599 219.4 33.1099 214.93 44.9999C224 56.3299 226.8 63.9599 226.8 70.8099C226.8 93.5899 211.46 93.5899 201.73 93.2499C201.62 88.9899 199.83 82.4799 197.36 78.0999V106.94H181.35V16.4999C178.89 22.4499 176.09 28.1699 172.95 33.5599H178.43V47.5899H163.54C161.75 49.8299 159.96 51.9699 158.17 53.9899H175.3V106.17H159.96V102.35H145.74V107.18H131.08V75.7599C129.74 76.5499 128.39 77.3299 126.94 77.9999C125.26 74.5199 121.34 68.0099 118.77 64.8699C123.02 62.9599 127.17 60.6099 131.08 58.0299V53.9899H136.56C139.13 51.9699 141.49 49.8399 143.84 47.5899H121.45V33.5599H139.47V25.0299H125.81V11.1099H139.47V0.899902L157.72 1.9099C157.61 3.0299 156.71 3.8199 154.47 4.1499V11.1099H164.1V19.0799C165.89 15.3799 167.46 11.5599 168.8 7.6299L181.34 11.6699V6.6199H213.47L216.83 6.0599ZM159.96 71.8199V66.7699H145.74V71.8199H159.96ZM145.74 89.4399H159.96V83.9399H145.74V89.4399ZM154.47 33.5599H155.7C157.6 30.8699 159.39 27.9499 160.96 25.0299H154.47V33.5599ZM197.34 21.8899V77.5499C200.03 77.7699 202.38 77.7699 203.94 77.7699C209.54 77.7699 210.66 75.1899 210.66 70.0299C210.66 64.5299 207.64 58.4699 198.46 47.8099C201.37 38.3799 203.83 29.7399 205.85 21.8899H197.34Z" fill="white"/>
<path d="M315.121 51.2796H302.581C301.241 63.9596 298.661 74.5096 294.631 83.1496C303.591 90.7796 314.221 90.7796 326.311 90.7796C333.031 90.7796 342.541 90.6696 346.911 90.5596C345.011 93.9296 342.881 100.55 342.321 104.59H319.481C306.381 104.59 295.641 102.46 287.241 95.2796C283.431 99.9896 278.841 103.92 273.361 107.17C271.461 103.69 267.991 98.6396 265.191 95.9496C270.451 93.2596 274.711 89.2196 278.181 83.9396C275.271 78.5496 272.691 72.0496 270.681 63.8496L282.661 60.1496C283.331 63.1796 284.231 65.9896 285.121 68.4496C286.571 63.7396 287.581 58.5796 288.371 53.0796H284.561L283.331 56.5596L270.681 53.8696L271.911 62.5096L264.631 64.9796V90.4496C264.631 102.23 261.611 107.17 244.261 107.17C243.811 103.02 242.131 96.3996 240.231 92.0196C242.131 92.1296 244.151 92.2396 245.711 92.2396C249.401 92.2396 249.851 92.2396 249.851 90.3296V69.7896L244.141 71.5896C243.921 72.8196 242.911 73.6096 241.901 73.8296L238.211 56.2096C241.461 55.5396 245.491 54.6396 249.851 53.6296V36.4596H239.891V21.5396H249.851V0.55957L267.761 1.34957C267.651 2.57957 266.861 3.36957 264.631 3.70957V21.5496H270.671V36.4696H264.631V50.1596L270.001 48.8096L270.341 51.2796C274.031 41.7396 278.061 30.4096 281.201 20.9796H271.691V6.61957H288.931L291.841 6.27957L299.901 8.74957C299.681 9.53957 299.341 10.5496 299.001 11.2196C296.541 18.9596 292.841 29.9596 288.931 40.9596H293.411L295.871 40.7396L300.571 41.5296V37.0396H315.121V22.7896C311.431 23.6896 307.731 24.3596 304.151 25.0396C303.481 21.6696 301.351 16.3996 299.451 13.1496C311.541 10.6796 324.301 6.41957 332.141 1.47957L344.571 13.1496C344.011 13.8196 342.891 13.8196 341.551 13.8196C338.861 15.2796 335.731 16.5096 332.371 17.7496L333.381 17.8596C333.271 18.9796 332.371 19.7696 330.251 20.0996V37.0396H344.471V51.2896H330.251V69.1296H342.901V83.1596H303.501V69.1296H315.141V51.2896L315.121 51.2796Z" fill="white"/>
<path d="M418.78 37.2499H462.21V49.2599H359.9V37.2499H402.21V34.2199H372.88V22.8899H402.21V19.7499H366.28V7.73986H402.21V0.109863L422.25 1.11986C422.14 2.46986 421.13 3.24986 418.78 3.58986V7.73986H454.94V19.7499H418.78V22.8899H449V34.2199H418.78V37.2499ZM445.42 52.5099V92.5699C445.42 105.59 439.26 107.27 416.88 107.27C416.1 103.34 413.97 97.9599 412.07 94.3699C415.09 94.5899 419.35 94.7099 422.37 94.7099C424.16 94.7099 425.62 94.5999 426.18 94.5999C428.87 94.5999 428.87 93.8099 428.87 91.1199H392.6V107.05H376.37V52.5199H445.44L445.42 52.5099ZM428.85 63.9599H392.58V67.0999H428.85V63.9599ZM392.58 80.7899H428.85V77.4199H392.58V80.7899Z" fill="white"/>
<path d="M581.54 68.3398V84.1598H544.38V107.05H527.59V84.1598H477.67V68.3398H495.02V42.0798C493.12 44.4398 491.1 46.6798 489.09 48.5898C486.07 45.4498 479.91 39.9498 475.99 37.2598C485.62 28.9598 494.46 14.1398 499.05 0.00976562L518.53 6.06977C518.08 7.07977 516.85 7.74977 515.17 7.52977C514.61 9.09977 513.94 10.5598 513.27 12.1298H574.84V27.9498H544.39V39.2798H572.26V54.4298H544.39V68.3398H581.55H581.54ZM527.59 27.9398H504.98C502.63 31.9798 500.05 35.7998 497.26 39.2698H527.6V27.9398H527.59ZM511.36 68.3398H527.59V54.4298H511.36V68.3398Z" fill="white"/>
<path d="M106.01 148.53V162.67H90.6704L91.0104 162.78C90.4504 163.79 89.3304 164.24 87.5404 164.24C85.9704 166.93 83.8504 170.19 81.6104 173.11H103.33V187.25H66.3904C66.0504 188.15 65.0504 188.71 63.1404 189.05V194.55H98.0604V208.58H63.1404V224.4H46.1304V208.58H13.3304V194.55H46.1304V187.26H6.61039V173.12H28.4404C27.1004 169.75 25.3104 166.05 23.5104 162.91L24.2904 162.69H4.15039V148.55H46.1304V141.82H15.4504V127.79H46.1204V118.81L66.6004 119.93C66.4904 121.16 65.4804 121.95 63.1304 122.4V127.79H95.1404V141.82H63.1304V148.55H106L106.01 148.53ZM40.4104 162.67C42.5404 166.15 44.4404 170.08 45.3304 173.11H64.4704C66.1504 170.08 68.0504 166.27 69.5104 162.67H40.4104Z" fill="white"/>
<path d="M166.011 143.48C165.671 144.27 164.891 144.94 164.001 145.27C161.201 153.35 157.171 161.32 152.361 168.72C155.721 171.19 160.641 175.23 163.891 177.92V172.65H223.551V223.93H207.541V220.45H179.111V224.38H163.891V183.76L157.061 193.52C155.491 191.39 153.371 188.81 151.131 186.23V224.49H135.351V189.37C132.551 192.06 129.531 194.42 126.621 196.44C125.391 192.06 121.691 183.98 119.461 180.95C129.651 175 139.051 164.34 145.211 152.79H122.821V138.31H135.361V117.89L154.391 118.9C154.281 120.13 153.381 120.92 151.141 121.26V138.32C153.491 138.32 153.711 138.21 155.841 137.76L166.031 143.48H166.011ZM161.761 121.15H226.801V134.73H161.761V121.15ZM169.371 138.09H218.511V169.17H169.371V138.09ZM185.711 185.89H179.111V189.93H185.711V185.89ZM179.111 207.21H185.711V202.72H179.111V207.21ZM203.511 157.05V150.21H183.701V157.05H203.511ZM207.541 189.93V185.89H200.601V189.93H207.541ZM200.601 207.21H207.541V202.72H200.601V207.21Z" fill="white"/>
<path d="M252.77 170.07C250.2 173.55 247.62 176.92 244.93 179.83C243.47 175.79 239.56 167.15 237.43 163.11C246.72 153.24 256.35 135.28 262.06 118L279.86 124.17C279.19 125.29 277.96 125.74 276.39 125.63C273.7 132.47 270.57 139.54 267.1 146.28L271.8 147.51C271.58 148.63 270.57 149.53 268.55 149.75V224.37H252.77V170.06V170.07ZM318.25 205.53H345.79V221.02H273.25V205.53H301.68V186.57H279.18V171.2H301.68V154.59H275.6V139.1H303.36C298.32 135.62 292.61 131.92 287.8 129.23L298.55 117.56C306.72 121.71 318.59 128.56 324.41 133.61L319.48 139.11H344.22V154.6H318.25V171.21H341.2V186.58H318.25V205.54V205.53Z" fill="white"/>
<path d="M406.801 133.61C408.261 136.98 409.711 140.79 411.051 144.61V117.9L428.961 118.8C428.851 120.03 427.951 120.82 425.711 121.16V166.05C425.711 188.38 421.231 211.95 401.311 225.07C399.181 221.93 394.151 216.09 390.901 213.4C401.531 208.13 406.571 199.6 408.921 189.84C406.121 192.53 403.431 194.89 401.311 196.8C401.421 198.03 400.861 199.04 399.971 199.49L392.921 185.24L390.901 188.04C389.891 185.46 388.441 182.21 386.761 178.73V224.4H372.101V187.71C369.641 194.44 366.951 200.39 363.821 204.99C362.481 200.61 359.121 194.33 356.881 190.51C363.041 181.98 368.301 167.84 370.981 155.5H359.671V140.46H372.091V117.79L390.001 118.8C389.891 119.92 388.991 120.6 386.751 121.04V140.45H395.711L394.931 138.32L406.801 133.61ZM396.051 180.85C396.501 180.85 408.141 172.88 411.051 170.86V160.09L402.321 163.68C401.541 157.96 399.071 149.65 396.501 142.47V155.49H386.761V159.19C389.671 163 397.281 174 399.071 176.58L396.051 180.84V180.85ZM466.241 140.12C465.681 141.13 464.341 141.47 462.771 141.35C460.421 147.75 455.941 156.72 452.701 162.45L445.421 158.63V167.72L448.111 165.36C453.931 171.64 461.991 180.4 465.681 186.01L455.051 196C453.041 192.41 449.341 187.47 445.421 182.65V202.74C445.421 208.24 445.531 208.91 446.991 208.91H450.011C451.581 208.91 452.031 205.99 452.251 196.23C455.721 198.81 461.321 201.5 465.681 202.51C464.111 217.43 460.421 223.38 451.461 223.38H443.851C433.221 223.38 430.191 218.78 430.191 202.62V117.9L448.661 118.91C448.551 120.14 447.651 120.82 445.411 121.27V147.64C447.201 142.59 448.881 137.09 450.001 132.6L466.231 140.12H466.241Z" fill="white"/>
<path d="M480.9 121.71H578.17V224.5H562.28V220.8H496.12V224.5H480.9V121.71ZM496.12 206.21H562.28V186.24C561.72 186.8 560.6 187.03 559.37 186.8C557.36 188.03 554.33 189.83 551.42 191.51C554.78 192.86 558.36 193.98 561.94 194.76C559.25 197.12 555.56 201.83 553.77 204.86C546.83 202.73 540.34 199.14 534.74 194.76V204.19H520.52V195.32C515.26 198.13 509.66 200.59 504.18 202.5C502.5 199.92 498.7 195.21 496.34 192.85C504.51 190.49 513.13 186.9 519.96 182.41H505.63V164.01H551.97V178.82L562.27 186V136.29H496.11V206.2L496.12 206.21ZM559.37 152.8V161.55H498.92V152.8H521.75V150.11H504.18V141.58H521.75V137.09L539.66 138.1C539.55 139.22 538.65 139.9 536.41 140.34V141.57H554.1V150.1H536.41V152.79H559.36L559.37 152.8ZM537.88 174.91V171.43H518.96V174.91H537.88ZM538.66 182.43L537.54 183.44C538.77 184.56 540.23 185.57 541.68 186.47C543.47 185.24 545.49 183.89 547.28 182.43H538.66Z" fill="white"/>
</svg>
