<svg width="458" height="159" viewBox="0 0 458 159" fill="none" xmlns="http://www.w3.org/2000/svg">
<path d="M72.8503 14.43H43.3803C42.8503 16.87 42.1604 19.55 41.3904 22.07H65.2104V72.85H53.3004V68.42H23.2904V72.85H11.9904V22.07H29.5504C30.0104 19.7 30.4703 17.03 30.7703 14.43H3.36035V4.05005H72.8503V14.43ZM53.3004 40.16V32.2901H23.2904V40.16H53.3004ZM23.2904 58.18H53.3004V50.16H23.2904V58.18Z" fill="white"/>
<path d="M104.3 4.66003C103.99 5.35003 103.23 5.73003 102.01 5.58003C100.33 10.09 98.3499 14.59 96.2799 18.94L99.2599 19.93C99.0299 20.62 98.3399 21.3 96.9699 21.46V73.15H86.1999V36.42C84.5999 38.63 82.9899 40.77 81.3099 42.68C80.3899 40.01 77.8699 33.98 76.4199 31.3C82.4499 24.5 88.6399 12.29 92.2999 0.530029L104.29 4.65003L104.3 4.66003ZM142.48 53.37C146.07 57.26 150.19 62.53 151.8 66.43L143.02 71.39C142.33 69.56 141.11 67.34 139.66 65.05C138.51 71.16 135.92 72.84 130.34 72.84H122.93C112.55 72.84 112.32 68.95 112.32 60.39C110.79 64.28 108.65 68.33 105.75 71.31L97.8899 65.66C100.94 62.91 103.54 58.48 104.91 54.36L112.32 57.49V54.36L121.33 54.9C120.41 54.06 119.42 53.22 118.43 52.53L119.65 51.54H105.45V28.79H145.99V51.54H130.49C131.94 52.76 133.16 54.06 134 55.13L126.98 60.78C126.14 59.48 124.69 57.95 123.09 56.43C122.86 56.43 122.63 56.51 122.33 56.58V62.23C122.33 64.21 122.64 64.37 124.54 64.37H129.2C130.8 64.37 131.18 63.76 131.41 59.71C132.78 60.78 135.61 61.85 137.98 62.53C136.76 60.93 135.54 59.32 134.32 57.87L142.49 53.37H142.48ZM102.93 6.11003H119.73V0.920029L133.17 1.61003C133.09 2.53003 132.41 2.99003 130.88 3.29003V6.12003H148.67V14.13H143.55L144.31 14.36C144 14.97 143.32 15.28 142.17 15.28L140.64 18.03H150.72V26.51H100.17V18.03H110.48C110.02 16.73 109.41 15.28 108.88 14.14H102.92V6.11003H102.93ZM115.91 35.2V37.34H135V35.2H115.91ZM115.91 42.91V45.12H135V42.91H115.91ZM119.12 14.12C119.73 15.42 120.34 16.79 120.8 18.01H130.12C130.65 16.79 131.11 15.41 131.57 14.12H119.12Z" fill="white"/>
<path d="M225.78 38.4801H185.08C179.96 52.9101 172.63 64.9001 162.17 72.8401C160.41 70.6301 156.29 66.5801 153.77 64.5901C162.17 58.8601 168.43 49.7001 172.86 38.4801H155.68V28.0201H176.37C177.21 24.7401 178.05 21.3001 178.66 17.7901H168.81V26.1101H157.97V7.79006H184.69V0.310059L198.43 1.07006C198.35 1.91006 197.74 2.44006 196.14 2.67006V7.79006H223.55V26.1101H212.17V17.7901H184.99L192.24 19.3201C192.01 20.1601 191.25 20.6201 189.95 20.6201C189.42 23.1401 188.81 25.5801 188.19 28.0301H225.76V38.4901L225.78 38.4801ZM210.51 46.1201C216.01 52.3001 223.11 60.9301 226.09 66.8901L216.55 72.9201C216.02 71.7701 215.33 70.4001 214.49 69.0301C201.97 70.0201 189.29 70.8601 180.66 71.3201C180.43 72.0801 179.74 72.4601 179.06 72.5401L174.78 60.4801L182.42 60.2501C185.25 54.0701 187.99 46.0501 189.6 39.5601L202.66 43.0001C202.35 43.7601 201.51 44.1501 200.22 44.2201C198.62 49.1801 196.33 54.9101 193.96 59.8701C198.54 59.7201 203.27 59.5601 208.09 59.3301C206.03 56.5101 203.81 53.7601 201.75 51.3101L210.53 46.1201H210.51Z" fill="white"/>
<path d="M257.46 62.76H267.92C271.74 59.17 272.73 54.51 273.19 49.86L283.57 51.01C283.42 51.62 282.81 52.08 281.74 52.23C280.59 59.03 278.84 67.27 270.29 72.69C269.83 71.85 269.22 70.86 268.53 69.79V70.02H244.55V72.92H235.77V53.07C235.16 53.76 234.62 54.44 234.01 55.06C233.17 53.3 230.96 49.64 229.73 47.96C233.09 44.37 236.3 38.42 238.28 32.31H232.78V16.96H249.27V32.31H244.23L247.97 33.53C247.66 34.06 247.05 34.45 246.06 34.37L245.07 36.97H249.65C250.41 35.06 251.02 33 251.41 31.32V16.96H268.13V32.31H255.15L261.11 33.91C260.88 34.52 260.27 34.83 259.12 34.83L258.05 36.97H268.43V44.15H257.43V46.14H266.74V52.4H257.43V54.46H266.74V60.72H257.43V62.78L257.46 62.76ZM237.38 15.19V12.29H230.74V5.04H237.38V0.380005L248.68 0.990005C248.6 1.75 247.99 2.21 246.62 2.44V5.04H253.57V0.380005L264.87 0.990005C264.79 1.75 264.18 2.21 262.81 2.44V5.04H268.92V12.29H262.81V15.19H253.57V12.29H246.62V15.19H237.38ZM239.67 23.21V26.03H242.04V23.21H239.67ZM248.53 46.12V44.13H244.56V46.12H248.53ZM248.53 54.44V52.38H244.56V54.44H248.53ZM244.56 60.7V62.76H248.53V60.7H244.56ZM258.3 23.21V26.03H260.9V23.21H258.3ZM293.65 60.85C293.65 62.99 293.73 63.22 294.26 63.22H294.95C295.71 63.22 296.02 62.23 296.17 54.9C297.85 56.43 301.82 57.88 304.26 58.56C303.5 69.02 301.21 71.85 296.01 71.85H292.5C285.78 71.85 284.41 69.1 284.41 60.93V48.03H270.82V2.9H300.22V48.03H293.65V60.86V60.85ZM280.21 12.29V15.5H290.37V12.29H280.21ZM280.21 23.82V27.03H290.37V23.82H280.21ZM280.21 35.35V38.56H290.37V35.35H280.21Z" fill="white"/>
<path d="M379.63 21.46H349.93C348.71 24.82 347.41 28.1 345.88 31.16H350.84V23.07L363.97 23.76C363.89 24.6 363.28 25.13 361.68 25.36V31.16H377.26V53.46C377.26 61.48 374.74 63.77 364.2 63.77C363.89 61.02 362.83 57.13 361.68 54.45V72.93H350.84V41.09H345.95V63.69H335.64V46.97C334.11 48.73 332.51 50.33 330.75 51.86C329.76 50.1 327.77 47.2 326.02 44.99V73.16H315.25V36.42C313.65 38.63 312.04 40.77 310.36 42.68C309.44 40.01 306.92 33.98 305.47 31.3C311.5 24.5 317.69 12.29 321.35 0.53L333.34 4.65C333.03 5.34 332.27 5.72 331.05 5.57C329.37 10.08 327.38 14.58 325.32 18.93L328.3 19.92C328.07 20.61 327.38 21.29 326.01 21.45V41.15C331.2 36.34 335.33 29.47 338.61 21.45H329.37V11.38H341.97C342.96 7.72 343.88 3.9 344.57 0L357.09 2.75C356.86 3.51 356.1 3.97 354.88 3.97C354.35 6.49 353.73 8.93 353.05 11.38H379.62V21.46H379.63ZM366.65 41.08H361.69V54.14C363.22 54.22 365.05 54.22 365.74 54.22C366.43 54.14 366.66 53.99 366.66 53.3V41.08H366.65Z" fill="white"/>
<path d="M447.04 30.77L453.22 31.23C453.14 32.07 453.14 33.44 452.99 34.51C452.3 56.8 451.54 65.59 449.33 68.56C446.81 72 443.99 73.06 433.91 72.84C433.83 70.93 433.3 68.41 432.54 66.2H414.52V70.93H404.36V44.05H435.21V62.76C438.19 62.76 438.57 62.76 439.49 61.54C440.64 60.09 441.25 54.51 441.7 40.47H401.69C400.39 51.31 397.49 62.84 391.69 70.94C389.86 68.8801 385.2 65.14 382.76 63.92C391.08 52.24 391.69 34.75 391.69 22.69V3.67004H447.35V26.95H402.61C402.61 28.17 402.53 29.47 402.46 30.84H444.61L447.05 30.76L447.04 30.77ZM436.2 12.9H402.68V17.71H436.2V12.9ZM424.9 57.57V52.68H414.52V57.57H424.9Z" fill="white"/>
<path d="M27.2701 132.68L28.1901 142.22C19.6401 144.21 10.7001 146.11 4.90012 147.34C4.75012 148.1 4.06012 148.64 3.37012 148.71L0.620117 137.18C3.06012 136.88 5.89012 136.42 8.94012 135.88V122.44H2.60012V112.28H8.94012V100.83H2.07012V90.6H26.1201V100.83H19.3201V112.28H25.6601V122.44H19.3201V134.12L27.2601 132.67L27.2701 132.68ZM68.5001 140.62H55.6001V148.87C55.6001 156.28 53.2301 157.96 41.0201 157.96C40.5601 155.52 39.5701 152.31 38.5001 149.87C35.5201 152.7 31.9301 155.44 28.5001 157.43C26.8201 155.52 23.4601 152.39 21.4001 150.79C25.9801 148.58 30.7201 144.83 33.3101 141.32L44.2301 145.37C43.9201 145.98 43.1601 146.29 42.1701 146.13C41.2501 147.2 40.1801 148.27 39.0401 149.41C40.9501 149.49 43.1601 149.49 43.8501 149.49C44.6901 149.41 45.0001 149.26 45.0001 148.5V140.63H32.1701V123.68H68.5201V140.63L68.5001 140.62ZM73.1601 112.9V121.6H27.0401V112.9H44.2201V109.92H31.1601V87.78H69.4101V109.92H57.7301C57.5001 110.53 56.8101 110.91 55.5201 111.14V112.9H73.1601ZM41.0901 94.12V95.88H58.9601V94.12H41.0901ZM41.0901 101.83V103.59H58.9601V101.83H41.0901ZM42.3101 130.62V133.67H57.7301V130.62H42.3101ZM66.2901 157.04C64.3801 154.06 59.8001 149.33 56.0601 146.12L64.4601 141.54C68.1301 144.44 72.9401 148.87 75.3001 152L66.2901 157.04Z" fill="white"/>
<path d="M143.78 89.31L150.88 91.91C150.8 92.44 150.57 92.98 150.12 93.36C148.06 99.93 145.54 107.72 142.48 115.81C148.66 123.52 150.57 128.71 150.57 133.37C150.57 148.87 140.11 148.87 133.47 148.64C133.39 145.74 132.17 141.31 130.49 138.33V157.95H119.57V96.41C117.89 100.46 115.98 104.35 113.84 108.02H117.58V117.57H107.42C106.2 119.1 104.98 120.55 103.75 121.92H115.43V157.43H104.97V154.83H95.2701V158.11H85.2701V136.73C84.3501 137.26 83.4401 137.8 82.4401 138.26C81.2901 135.89 78.6201 131.46 76.8701 129.33C79.7701 128.03 82.6001 126.43 85.2701 124.67V121.92H89.0101C90.7701 120.55 92.3701 119.1 93.9701 117.57H78.7001V108.02H90.9901V102.22H81.6701V92.75H90.9901V85.8L103.44 86.49C103.36 87.25 102.75 87.79 101.23 88.02V92.75H107.8V98.17C109.02 95.65 110.09 93.05 111.01 90.38L119.56 93.13V89.69H141.47L143.76 89.31H143.78ZM104.99 134.05V130.61H95.2901V134.05H104.99ZM95.2901 146.04H104.99V142.3H95.2901V146.04ZM101.25 108.01H102.09C103.39 106.18 104.61 104.19 105.68 102.21H101.25V108.01ZM130.49 100.07V137.94C132.32 138.09 133.93 138.09 134.99 138.09C138.81 138.09 139.57 136.33 139.57 132.82C139.57 129.08 137.51 124.95 131.25 117.7C133.24 111.29 134.91 105.41 136.29 100.06H130.49V100.07Z" fill="white"/>
<path d="M226.93 144.67H217.61C221.2 147.34 225.4 150.55 227.69 152.92L219.52 158.04C217 155.21 211.5 150.56 207.38 147.43L212.04 144.68H201.04L205.77 147.43C205.54 147.74 205.08 147.96 204.55 148.04C201.88 151.32 195.85 155.83 190.73 158.04C189.13 156.28 186.23 153.61 184.01 151.93C182.33 158.12 176.37 158.12 170.11 158.12C169.96 155.14 168.96 151.02 167.51 148.35C169.42 148.58 171.1 148.58 172.17 148.58C173.09 148.58 173.7 148.35 174.31 147.36C175.15 145.91 175.46 140.03 175.68 123.84H171.56C170.49 136.74 168.05 148.96 161.63 157.97C159.87 155.3 156.59 151.94 153.84 150.18C161.25 139.8 161.7 123.99 161.93 106.96H155.06V96.7301H165.98V85.5801L178.81 86.2701C178.73 87.11 178.12 87.5701 176.6 87.8701V96.7301H186.37V98.5601C189.04 94.8201 191.1 90.0801 192.17 85.4301L203.24 88.2601C203.01 88.8701 202.4 89.2501 201.33 89.1801C200.95 90.4001 200.49 91.7001 200.03 92.9201H226.91V101.78H195.53L194.84 102.85L204.77 103.38C204.69 104.14 204.08 104.6 202.63 104.91V108.5H210.27V102.7L222.64 103.39C222.56 104.15 221.95 104.69 220.43 104.92V108.51H225.93V117.14H220.43V136.08H226.92V144.71L226.93 144.67ZM180.35 113.82L185.77 113.97C185.77 114.81 185.77 116.03 185.69 117.18C185.46 137.11 185.23 146.96 184.09 151.54C187.83 149.94 191.8 147.26 194.63 144.67H186.31V136.04H192.65V117.1H187.38V108.47H192.65V105.64C192.04 106.4 191.35 107.09 190.66 107.7C189.67 106.71 187.99 105.49 186.38 104.34V106.94H172.33L172.1 113.81H180.35V113.82ZM210.28 117.1H202.64V118.86H210.28V117.1ZM210.28 127.41V125.58H202.64V127.41H210.28ZM202.64 134.13V136.04H210.28V134.13H202.64Z" fill="white"/>
<path d="M260.14 123.75L257.39 124.13V149.1C257.39 156.05 255.1 158.11 246.09 158.11C245.86 155.82 244.79 152.15 243.65 149.94C244.8 150.02 246.02 150.09 246.93 150.09C249.14 150.09 249.37 150.09 249.37 148.94V125.27L242.12 126.26C241.97 136.57 240.98 149.7 236.62 158.18C235.17 156.88 231.66 154.74 229.75 153.98C233.42 146.57 234.18 136.19 234.33 127.26L233.41 127.41C233.26 128.1 232.57 128.48 231.96 128.56L230.05 119.4L234.33 119.02V95.65H240.67C241.2 92.37 241.66 88.4 241.82 85.42L253.2 87.41C252.97 88.02 252.28 88.4 251.14 88.48C250.53 90.54 249.69 93.21 248.85 95.66H257.4V116.81L259.92 116.58L260.15 123.76L260.14 123.75ZM247.01 105.42C248.16 108.02 249.07 111.38 249.38 113.9H249.46L249.38 103.9H242.13V107.03L247.02 105.43L247.01 105.42ZM242.12 118.32L249.37 117.63V114.58L243.72 116.49C243.64 114.35 242.96 111.22 242.12 108.47V118.32ZM249.3 127.56C249.22 128.1 248.77 128.48 247.85 128.55V144.43H243.19V127.17L249.3 127.55V127.56ZM299.01 148.48H303.29V156.73H258.24V148.48H262.52V128.55H299.02V148.48H299.01ZM268.16 125.73V126.8H260.75V88.01H282.43V94.88H277.24V98.47H282.13V106.26C284.19 100.99 285.26 93.05 285.8 85.57L296.34 87.71C296.11 88.32 295.5 88.78 294.51 88.78C294.28 90.84 294.05 92.9 293.67 95.04H302.99V103.29H292.07C291.15 106.96 290.01 110.31 288.56 112.99C287.03 111.69 284.28 110.01 282.15 108.79V115.13H277.26V118.72H283.44V125.74H268.17L268.16 125.73ZM270.37 94.88H268.16V98.47H270.37V94.88ZM274.87 104.73H268.15V108.85H274.87V104.73ZM270.37 118.7V115.11H268.16V118.7H270.37ZM270.68 136.72V148.48H272.66V136.72H270.68ZM281.52 136.72H279.53V148.48H281.52V136.72ZM284.5 122.14V113.89H301.76V122.14H284.5ZM290.38 136.72H288.39V148.48H290.38V136.72Z" fill="white"/>
<path d="M327.02 115.05V139.02C331.3 146.12 339.62 146.12 352.75 146.12C361.76 146.12 372.53 145.82 380.24 145.13C379.02 147.8 377.26 153.15 376.73 156.43C371 156.73 363.29 156.96 355.96 156.96C337.02 156.96 329.08 156.58 322.13 148.49C319 151.24 315.79 153.99 313.04 156.12C313.04 157.11 312.73 157.57 311.82 157.88L306.32 145.66C309.45 143.9 312.96 141.77 316.17 139.48V125.28H308.31V115.05H327.02ZM316.25 87.26C320.6 90.39 326.18 95.05 328.77 98.64L319.91 105.97C317.7 102.46 312.35 97.34 308 93.91L316.25 87.27V87.26ZM329 108.56H336.48C334.04 107.18 330.68 105.73 328.31 104.74C332.05 100.39 335.03 92.91 336.56 86.11L348.32 89.09V85.5L361.61 86.19C361.53 87.03 360.85 87.56 359.32 87.87V93.6H375.13V102.92H359.32V108.57H378.48V117.81H329V108.57V108.56ZM373.36 144.45H362.44V142.69H345.34V144.67H334.96V120.16H373.37V144.44L373.36 144.45ZM348.32 108.56V102.91H341.52C340.53 104.97 339.38 106.88 338.16 108.56H348.32ZM345.34 133.45H362.44V128.79H345.34V133.45ZM348.32 93.59V89.47C348.01 89.93 347.4 90.16 346.49 90.16C346.18 91.31 345.8 92.45 345.42 93.6H348.32V93.59Z" fill="white"/>
<path d="M456.13 143.53H447.35C451.17 146.43 454.99 149.87 457.28 152.39L447.81 158.27C445.29 154.99 439.87 149.87 435.44 146.28L440.94 143.53H427.2L434 146.2C433.62 146.96 432.7 147.12 431.86 146.96C427.89 150.93 421.7 155.28 415.83 158.11C414.3 156.2 411.4 152.92 409.34 151.01C401.25 152.39 393.46 153.68 388.04 154.45C387.89 155.21 387.2 155.67 386.51 155.83L383.53 144.53C386.66 144.23 390.48 143.77 394.68 143.31V141.17L387.88 143.31C387.5 139.8 386.28 134.53 385.05 130.48L392.15 128.49C393.14 131.32 394.06 134.67 394.67 137.58V127.65H385.05V118.34H394.67V114.14H388.87V111.62C387.11 109.41 384.37 106.73 382.46 105.43C388.34 99.4 392.77 91.69 395.29 85.5L407.2 87.56C406.97 88.32 406.36 88.78 405.21 88.86L405.06 89.09C408.27 91.23 411.86 93.82 414.6 96.19V91.46H429.41V85.5L442.24 86.19C442.16 87.03 441.55 87.49 440.03 87.79V91.46H455.22V100.16H440.03V102.3H451.64V132.54H418.73V102.3H429.42V100.16H416.75L411.63 108.1L411.25 107.64V114.13H404.45V118.33H413.61V127.64H404.45V138.41C405.29 135.36 406.28 131.23 406.66 128.25L415.98 131.08C415.67 131.61 414.99 131.92 413.92 131.92C413.23 134.67 411.93 138.64 410.71 141.31L413.84 140.93V134.36H456.14V143.52L456.13 143.53ZM408.71 104.97C406.34 102.68 403.29 100.16 400.39 98.02C399.09 100.31 397.64 102.6 395.96 104.97H408.71ZM404.43 139.56V142.16L409.7 141.47L404.43 139.56ZM414.74 143.53L414.97 147.73C417.18 146.43 419.25 144.98 420.93 143.53H414.75H414.74ZM441.08 110.47V108.71H428.71V110.47H441.08ZM441.08 118.26V116.5H428.71V118.26H441.08ZM441.08 126.12V124.29H428.71V126.12H441.08Z" fill="white"/>
</svg>
