<svg width="977" height="513" viewBox="0 0 977 513" fill="none" xmlns="http://www.w3.org/2000/svg">
<path d="M163.995 72.665C156.6 65.765 148.965 59.105 141.81 53.195L169.665 31.505C194.31 50.48 225.12 77.84 238.68 98.795L207.87 123.68C204.66 118.01 199.98 111.605 194.31 104.945C129.495 108.155 62.46 110.855 18.33 112.34C17.595 115.055 15.12 116.285 12.66 116.525L0.329956 76.595L43.215 75.86C58.005 53.675 73.53 24.59 82.65 0.200012L127.02 16.46C125.79 18.92 122.58 20.15 118.395 20.15C110.01 37.4 97.9349 57.365 85.8599 74.87L163.995 72.65V72.665ZM36.8249 236.81V128.375H201.705V235.835H163.995V229.43H72.81V236.825H36.8249V236.81ZM163.995 162.62H72.81V194.66H163.995V162.62Z" fill="white"/>
<path d="M266.28 70.19C278.595 75.86 295.11 85.22 303.255 92.615L282.555 119.975C275.415 112.58 259.14 101.735 246.825 95.09L266.295 70.205L266.28 70.19ZM271.455 6.11C283.785 12.275 300.045 22.37 307.935 30.26L286.5 57.125C279.6 48.995 263.58 37.655 251.25 30.26L271.455 6.11ZM252.975 216.335C262.095 196.865 274.41 166.055 284.025 136.475L312.375 154.715C304.485 181.085 295.125 207.215 287.235 226.43C288.96 228.155 289.95 230.12 289.95 232.1C289.95 233.33 289.455 234.56 288.96 235.79L252.975 216.32V216.335ZM459.27 90.89L473.07 86.45C477.75 96.305 482.43 109.13 484.41 117.5L466.425 123.665C465.195 117.26 462.48 107.885 459.285 99.515V129.095H437.1V104.195C434.385 112.82 430.695 121.94 426.015 128.105C423.3 125.645 418.62 122.195 414.675 119.48V127.61H366.855V113.315L351.075 117.755C350.34 112.085 348.615 103.7 346.635 96.305V129.08H324.945V106.16C321.99 113.795 318.285 121.445 313.86 127.115C310.17 123.665 303.255 118.73 298.83 116.03C304.005 108.89 307.95 97.295 310.17 86.45L324.96 90.635V82.505L311.16 83.24C310.665 85.205 308.94 86.195 307.215 86.45L300.81 62.54H315.345C317.31 60.08 319.53 57.605 321.75 55.145C316.575 49.715 309.915 43.805 303.765 39.365L314.61 22.115L317.325 23.84C321.51 16.7 325.455 8.31501 327.915 1.91001L349.845 14.225C348.855 15.71 346.635 16.445 343.935 16.19C340.98 21.365 336.54 28.52 331.86 34.925L335.07 37.88C338.76 32.705 342.21 27.53 344.925 23.09L360.21 32.705V26.795H419.115V32.21L425.52 22.1L428.235 23.825C432.675 16.685 436.86 8.3 439.575 1.895L461.505 14.21C460.515 15.695 458.295 16.43 455.595 16.175C452.385 21.35 447.705 28.505 443.025 34.91L446.475 38.12C450.66 32.705 454.605 27.275 457.56 22.34L478.995 35.9C477.765 37.625 475.305 37.865 472.83 37.625C466.92 44.765 458.775 54.14 450.405 62.51H460.995C460.26 60.05 459.27 57.575 458.28 55.37L474.795 48.71C479.235 58.07 483.42 70.895 484.65 79.025L467.16 86.42C466.92 84.695 466.665 82.73 466.17 80.75L459.27 81.245V90.86V90.89ZM446.205 184.295L453.105 183.305L473.07 188.72C472.575 191.18 471.84 193.655 470.61 195.62C464.205 234.32 455.58 236.78 418.365 236.78C412.2 236.78 405.06 236.78 397.665 236.54C397.425 228.65 393.72 218.06 389.04 210.905C398.895 211.895 409.5 212.135 416.4 212.135C429.465 212.135 431.43 212.135 434.385 205.73H348.615L346.89 211.895L314.85 207.95C319.29 194.39 323.97 175.175 326.925 159.155H423.54V154.22H319.035V134.255H456.555V179.105H355.26L354.03 184.28H446.205V184.295ZM414.66 110.105C417.615 103.205 419.835 94.58 421.32 86.45L437.1 90.89V82.505L424.035 83.24C423.54 85.205 421.815 86.195 420.09 86.45L414.42 65.015H366.855V49.49H414.675V62.555H426.255C428.475 60.335 430.695 57.875 432.915 55.16C428.73 50.975 424.05 46.535 419.115 42.83V44.555H360.21V38.39C354.795 45.29 347.145 54.17 339.015 62.54H348.375L346.155 55.4L360.69 50.225C363.405 56.63 365.37 64.28 366.855 70.925V69.935H414.675V85.46H366.855V81.02L352.56 86.195C352.56 84.47 352.32 82.745 352.065 80.78L346.635 81.275V90.635L361.17 86.945C363.39 93.845 365.61 102.23 366.84 108.635V90.395H414.66V110.105ZM412.695 6.09501V21.875H369.315V6.09501H412.695ZM393.72 112.805V105.17H386.82V112.805H393.72Z" fill="white"/>
<path d="M695.61 127.37L717.54 135.26C716.805 137.48 715.815 138.215 714.585 139.7C709.155 160.4 700.29 178.4 688.455 193.19C700.29 200.09 713.595 205.265 728.88 208.715C721.485 215.12 712.125 228.185 707.685 236.57C691.665 231.89 677.61 224.99 665.295 216.365C654.69 224.75 642.87 231.65 629.565 237.065C625.875 229.43 618.225 217.835 611.82 210.935V236.81H577.56V216.845C553.155 219.56 529.74 222.26 513.24 223.745C512.745 226.205 510.78 227.435 508.8 227.69L499.185 194.165C505.095 193.925 511.995 193.67 519.645 193.175V122.69H498.945V94.595H726.435V122.69H611.835V208.955C622.425 205.265 632.295 200.09 640.92 193.67C632.79 183.815 626.13 172.715 620.46 160.4L639.195 155.225H616.275V128.36H689.97L695.64 127.37H695.61ZM693.645 10.55V88.43H531.72V10.55H693.645ZM577.56 122.69H552.18V128.6H577.56V122.69ZM552.18 152.765V159.425H577.56V152.765H552.18ZM552.18 191.465L577.56 189.74V183.575H552.18V191.465ZM657.66 38.9V32.99H565.98V38.9H657.66ZM657.66 66.005V59.84H565.98V66.005H657.66ZM650.52 155.225C653.73 161.39 657.915 167.06 662.595 172.475C666.78 167.045 670.23 161.39 673.44 155.225H650.52Z" fill="white"/>
<path d="M969.66 103.715H884.625C898.92 150.785 926.025 186.275 975.81 202.055C967.185 209.945 955.35 226.205 949.935 236.81C904.335 219.305 877.725 188.99 859.98 146.6C845.925 183.08 819.555 214.865 769.77 236.81C764.595 226.7 753.75 213.395 743.64 205.265C801.315 182.09 823.74 146.36 832.365 103.73H748.815V66.515H836.805C838.035 46.055 837.795 24.62 838.035 2.67499L884.865 5.62999C884.37 8.58499 881.91 10.565 877.23 11.3C876.99 29.54 876.495 48.275 875.505 66.5H969.645V103.715H969.66Z" fill="white"/>
<path d="M178.05 292.445H230.055V323.255H178.05V330.155H209.595V385.355H32.64V330.155H60.735V323.255H9.22496V292.445H60.735V277.415L103.62 279.635C103.38 282.35 101.16 284.075 96.225 285.05V292.445H142.32V277.415L185.445 279.635C185.205 282.59 183.225 284.075 178.05 285.05V292.445ZM10.95 438.095V392.495H228.33V438.095H193.08V419.12H123.33C122.1 420.35 120.12 421.085 117.66 421.085L113.22 426.26H160.545L166.215 425.03L190.365 436.37C189.63 438.095 188.145 438.83 186.675 439.82C161.79 482.21 109.035 502.67 48.1649 512.03C44.9549 503.645 37.815 490.34 32.145 482.945C50.385 481.22 68.13 478.01 84.15 473.585C79.965 470.87 75.525 468.41 71.34 466.685L92.535 449.675H86.3699C74.0549 458.3 59.505 466.43 41.52 473.585C37.08 465.95 27.225 454.115 20.565 448.94C45.945 441.05 64.68 430.7 77.25 419.12H44.475V438.095H10.95ZM81.435 362.93V352.325H64.185V362.93H81.435ZM94.5 449.69C101.895 452.645 110.025 457.085 116.43 461.525C123.57 458.075 129.99 454.13 135.66 449.69H94.5ZM142.32 330.155V323.255H96.225V330.155H142.32ZM128.76 362.93V352.325H111.015V362.93H128.76ZM176.325 362.93V352.325H158.325V362.93H176.325Z" fill="white"/>
<path d="M291.915 428.495V389.795C285.255 400.4 277.86 409.76 270.225 416.9C265.05 409.265 254.445 397.925 247.305 392.015C262.59 380.675 277.125 361.205 286.74 341.735H253.71V311.66H291.915V277.655L333.075 279.875C332.82 282.59 330.855 284.06 325.92 285.05V311.675H357.96V341.75H325.92V348.155C335.535 353.825 358.2 369.35 364.125 373.79L345.39 402.38C340.455 396.71 333.315 389.57 325.92 382.67V428.51H291.915V428.495ZM312.12 449.195C305.22 469.16 295.365 490.355 280.08 504.65L250.005 483.695C263.31 472.355 274.41 454.61 280.32 436.625L312.12 449.195ZM351.3 470.39C351.3 477.53 353.025 478.28 363.135 478.28H388.275C396.165 478.28 397.635 476.06 398.865 460.535C405.765 465.71 420.795 470.885 430.41 472.865C426.225 502.445 416.85 509.84 391.71 509.84H358.185C323.43 509.84 315.795 499.985 315.795 470.9V441.575L348.57 443.3L339.45 436.4L362.865 417.92L367.305 420.875V289.505H470.565V425.3H373.71C384.315 433.19 395.16 442.55 400.815 450.2L375.675 470.405C371.235 464 363.345 455.87 354.48 448.22L351.27 448.955V470.39H351.3ZM399.855 317.345V326.705H436.335V317.345H399.855ZM399.855 352.595V362.21H436.335V352.595H399.855ZM399.855 387.845V397.7H436.335V387.845H399.855ZM454.32 506.885C447.915 490.865 429.675 467.705 412.17 451.19L441.255 433.685C458.76 449.21 478.23 470.66 486.105 487.655L454.305 506.885H454.32Z" fill="white"/>
<path d="M729.615 468.425H699.555C711.135 477.05 724.695 487.4 732.09 495.05L705.72 511.565C697.59 502.445 679.845 487.415 666.54 477.305L681.57 468.44H646.08L661.365 477.305C660.63 478.295 659.145 479.03 657.42 479.27C648.795 489.875 629.325 504.41 612.81 511.55C607.635 505.88 598.275 497.255 591.12 491.84C585.69 511.805 566.475 511.805 546.27 511.805C545.775 502.19 542.58 488.885 537.885 480.26C544.05 480.995 549.465 480.995 552.915 480.995C555.87 480.995 557.85 480.26 559.815 477.05C562.53 472.37 563.505 453.395 564.255 401.135H550.95C547.5 442.79 539.61 482.225 518.91 511.31C513.24 502.685 502.65 491.84 493.77 486.17C517.68 452.645 519.15 401.63 519.9 346.67H497.715V313.64H532.965V277.655L574.365 279.875C574.125 282.59 572.145 284.06 567.21 285.05V313.64H598.755V319.55C607.38 307.475 614.04 292.19 617.49 277.16L653.22 286.28C652.485 288.245 650.505 289.49 647.055 289.235C645.825 293.18 644.34 297.365 642.87 301.31H729.63V329.9H628.335L626.115 333.35L658.155 335.075C657.9 337.535 655.935 339.02 651.255 340.01V351.59H675.9V332.855L715.83 335.075C715.59 337.535 713.61 339.26 708.69 340.01V351.59H726.435V379.445H708.69V440.57H729.645V468.425H729.615ZM579.27 368.855L596.76 369.35C596.76 372.065 596.76 376.01 596.52 379.7C595.785 444.02 595.035 475.82 591.345 490.61C603.42 485.435 616.23 476.81 625.35 468.425H598.485V440.57H618.945V379.445H601.935V351.59H618.945V342.47C616.98 344.93 614.76 347.15 612.54 349.13C609.33 345.92 603.915 341.99 598.74 338.285V346.67H553.395L552.66 368.855H579.285H579.27ZM675.885 379.46H651.24V385.13H675.885V379.46ZM675.885 412.73V406.82H651.24V412.73H675.885ZM651.24 434.42V440.585H675.885V434.42H651.24Z" fill="white"/>
<path d="M836.82 400.895L827.955 402.125V482.72C827.955 505.145 820.56 511.805 791.475 511.805C790.74 504.41 787.29 492.575 783.585 485.435C787.275 485.675 791.22 485.93 794.19 485.93C801.33 485.93 802.08 485.93 802.08 482.24V405.845L778.665 409.055C778.17 442.325 774.975 484.715 760.92 512.075C756.24 507.89 744.9 500.99 738.735 498.515C750.57 474.605 753.03 441.095 753.525 412.25L750.57 412.745C750.075 414.965 747.855 416.195 745.89 416.435L739.725 386.855L753.525 385.625V310.205H773.985C775.71 299.6 777.195 286.79 777.675 277.175L814.395 283.58C813.66 285.545 811.44 286.79 807.735 287.03C805.77 293.69 803.055 302.315 800.34 310.205H827.94V378.47L836.07 377.735L836.805 400.91L836.82 400.895ZM794.43 341.75C798.12 350.135 801.09 360.98 802.065 369.11H802.305L802.065 336.83H778.65V346.94L794.43 341.765V341.75ZM778.65 383.405L802.065 381.185V371.33L783.825 377.495C783.585 370.595 781.365 360.485 778.65 351.62V383.42V383.405ZM801.81 413.225C801.57 414.95 800.085 416.18 797.13 416.435V467.705H782.1V412.01L801.81 413.24V413.225ZM962.25 480.755H976.05V507.38H830.64V480.755H844.44V416.435H962.25V480.755ZM862.68 407.315V410.765H838.77V285.56H908.76V307.745H892.005V319.325H907.785V344.465C914.445 327.455 917.895 301.835 919.62 277.67L953.625 284.57C952.89 286.535 950.91 288.02 947.715 288.02C946.98 294.68 946.23 301.325 945 308.225H975.075V334.85H939.825C936.87 346.685 933.165 357.53 928.485 366.155C923.55 361.97 914.685 356.54 907.785 352.595V373.055H892.005V384.635H911.97V407.315H862.68ZM869.82 307.745H862.68V319.325H869.82V307.745ZM884.355 339.545H862.665V352.85H884.355V339.545ZM869.82 384.65V373.07H862.68V384.65H869.82ZM870.81 442.82V480.77H877.215V442.82H870.81ZM905.805 442.82H899.4V480.77H905.805V442.82ZM915.42 395.75V369.125H971.115V395.75H915.42ZM934.395 442.82H927.99V480.77H934.395V442.82Z" fill="white"/>
</svg>
