<?xml version="1.0" encoding="utf-8"?>
<!-- Generator: Adobe Illustrator 27.0.0, SVG Export Plug-In . SVG Version: 6.00 Build 0)  -->
<svg version="1.1" id="圖層_1" xmlns="http://www.w3.org/2000/svg" xmlns:xlink="http://www.w3.org/1999/xlink" x="0px" y="0px"
	 viewBox="0 0 390 60" style="enable-background:new 0 0 390 60;" xml:space="preserve">
<style type="text/css">
	.st0{fill:#FFFFFF;}
	.st1{fill:#FFE900;}
	.st2{fill:#2E318B;}
</style>
<path class="st0" d="M359.9,0.7H29.5C13.3,0.7,0.1,13.9,0.1,30.1s13.2,29.4,29.4,29.4h330.4c16.2,0,29.4-13.2,29.4-29.4
	S376.1,0.7,359.9,0.7z"/>
<path class="st1" d="M127.9,6.6h-98C17,6.6,6.5,17.1,6.5,30.1v0C6.5,43,17,53.5,29.9,53.5h98c12.9,0,23.4-10.5,23.4-23.4v0
	C151.4,17.1,140.9,6.6,127.9,6.6z"/>
<path class="st2" d="M25.9,42.3v-12h10.7v11.8h-3.9v-0.7h-3.1v0.8L25.9,42.3L25.9,42.3z M32.7,34.1h-3.1v3.6h3.1V34.1z M44.9,17.6
	v10.9H30.4V17.6H44.9z M40.9,24.8v-3.4h-6.7v3.4H40.9z M38.5,30.3h11v11.7h-3.9v-0.6h-3.3v0.8h-3.8V30.3z M42.2,37.7h3.3v-3.6h-3.3
	V37.7z"/>
<path class="st2" d="M56.3,26.9c0,1.4,0,1.9,0,2.6h5v11.8H58v-8.5h-1.9c-0.2,3.3-0.7,6.8-1.6,9.5c-0.8-0.3-2.2-0.9-3.1-1.1
	c1.5-3.9,1.7-10.1,1.7-13.8v-9.9l3.9,0.2c0,0.3-0.2,0.4-0.7,0.5v5.4h1.4v-6.9l4,0.2c0,0.3-0.2,0.4-0.7,0.5v6.2h1.6v3.3L56.3,26.9
	L56.3,26.9z M77.3,34.4v3.2h-3.8v4.6h-3.7v-4.6h-7.8v-3.2h3c-0.6-0.6-1.6-1.5-2.3-1.9c1.8-0.7,3-1.6,3.8-2.5h-3.3V19.7h3.5
	c0.4-1,0.8-2.1,1-3l4.6,1.1c-0.1,0.2-0.3,0.3-0.8,0.3c-0.2,0.5-0.6,1-0.9,1.5h5.7V30h-5.9l-0.3,0.6l4.1,0.2c0,0.3-0.2,0.5-0.8,0.5
	v3.1H77.3L77.3,34.4z M69.9,31.2c-0.8,1.3-2.1,2.4-4.1,3.3h4.1V31.2z M66.8,22.5v0.9h1.3v-0.9H66.8z M66.8,27.1H68
	c0.1-0.3,0.1-0.6,0.1-1h-1.3V27.1z M72.9,27.1v-1h-1.5l-0.1,1H72.9z M72.9,23.5v-0.9h-1.5v0.9H72.9z"/>
<path class="st2" d="M104.2,37.6h-3.3c1.3,0.9,2.7,2.1,3.6,2.9l-2.9,1.8c-0.9-1-2.8-2.6-4.3-3.8l1.7-1h-3.9l1.7,1
	c-0.1,0.1-0.2,0.2-0.4,0.2c-0.9,1.2-3.1,2.7-4.9,3.5c-0.6-0.6-1.6-1.6-2.4-2.2c-0.6,2.2-2.7,2.2-4.9,2.2c-0.1-1.1-0.4-2.5-0.9-3.4
	c0.7,0.1,1.3,0.1,1.7,0.1c0.3,0,0.5-0.1,0.8-0.4c0.3-0.5,0.4-2.6,0.5-8.3h-1.5c-0.4,4.6-1.2,8.9-3.5,12c-0.6-0.9-1.8-2.1-2.7-2.7
	c2.6-3.7,2.8-9.2,2.9-15.3h-2.4v-3.6h3.9v-3.9l4.5,0.2c0,0.3-0.2,0.5-0.8,0.6v3.1h3.5v0.6c0.9-1.3,1.7-3,2.1-4.6l3.9,1
	c-0.1,0.2-0.3,0.3-0.7,0.3c-0.1,0.4-0.3,0.9-0.5,1.3h9.5v3.1H93.1l-0.2,0.4l3.5,0.2c0,0.3-0.2,0.4-0.8,0.5v1.3h2.7v-2l4.4,0.2
	c0,0.3-0.2,0.5-0.8,0.5v1.3h1.9v3h-1.9v6.7h2.3V37.6L104.2,37.6z M87.8,26.7l1.9,0.1c0,0.3,0,0.7,0,1.1c-0.1,7-0.2,10.5-0.6,12.1
	c1.3-0.6,2.7-1.5,3.7-2.4h-2.9v-3h2.2v-6.7h-1.9v-3h1.9v-1c-0.2,0.3-0.4,0.5-0.7,0.7c-0.3-0.3-0.9-0.8-1.5-1.2v0.9h-4.9l-0.1,2.4
	H87.8L87.8,26.7z M98.4,27.9h-2.7v0.6h2.7V27.9z M98.4,31.5v-0.6h-2.7v0.6H98.4z M95.7,33.9v0.7h2.7v-0.7H95.7z"/>
<path class="st2" d="M115.9,30.2l-1,0.1v8.8c0,2.4-0.8,3.2-4,3.2c-0.1-0.8-0.5-2.1-0.9-2.9c0.4,0,0.8,0.1,1.2,0.1
	c0.8,0,0.9,0,0.9-0.4v-8.4l-2.6,0.3c-0.1,3.6-0.4,8.3-1.9,11.3c-0.5-0.5-1.8-1.2-2.4-1.5c1.3-2.6,1.6-6.3,1.6-9.4l-0.3,0.1
	c-0.1,0.2-0.3,0.4-0.5,0.4l-0.7-3.2l1.5-0.1v-8.2h2.2c0.2-1.2,0.3-2.6,0.4-3.6l4,0.7c-0.1,0.2-0.3,0.3-0.7,0.4
	c-0.2,0.7-0.5,1.7-0.8,2.5h3v7.5l0.9-0.1L115.9,30.2L115.9,30.2z M111.3,23.7c0.4,0.9,0.7,2.1,0.8,3h0l0-3.5h-2.6v1.1L111.3,23.7z
	 M109.6,28.3l2.6-0.2V27l-2,0.7c0-0.8-0.3-1.9-0.6-2.8V28.3z M112.1,31.6c0,0.2-0.2,0.3-0.5,0.3v5.6h-1.7v-6.1L112.1,31.6z
	 M129.6,38.9h1.5v2.9h-15.9v-2.9h1.5v-7h12.9V38.9z M118.8,30.9v0.4h-2.6V17.6h7.7V20H122v1.3h1.7V24c0.7-1.9,1.1-4.7,1.3-7.3
	l3.7,0.8c-0.1,0.2-0.3,0.4-0.6,0.4c-0.1,0.7-0.2,1.5-0.3,2.2h3.3V23h-3.9c-0.3,1.3-0.7,2.5-1.2,3.4c-0.5-0.5-1.5-1-2.3-1.5v2.2h-1.7
	v1.3h2.2v2.5L118.8,30.9L118.8,30.9z M119.5,20h-0.8v1.3h0.8V20z M121.1,23.5h-2.4V25h2.4V23.5z M119.5,28.4v-1.3h-0.8v1.3H119.5z
	 M119.6,34.8V39h0.7v-4.2H119.6z M123.5,34.8h-0.7V39h0.7V34.8z M124.5,29.7v-2.9h6.1v2.9H124.5z M126.6,34.8h-0.7V39h0.7V34.8z"/>
<g>
	<path class="st2" d="M170.1,36.4v1.5h5.5v2h-13.1v-2h5.3v-1.5h-4v-1.9h4v-1.4h-3.2v-1.3c-0.5,0.3-1.1,0.7-1.6,1
		c-0.3-0.5-0.9-1.4-1.4-1.8c2.6-1.3,5.1-3.6,6.2-5.5l2.9,0.1c-0.1,0.2-0.2,0.3-0.5,0.3c1.5,2,4,3.8,6.3,4.7c-0.6,0.6-1.1,1.3-1.5,2
		c-0.5-0.3-1.1-0.6-1.6-0.9v1.3h-3.3v1.4h4.1v1.9H170.1z M172.4,31.1c-1.4-1-2.7-2.3-3.5-3.4c-0.8,1.1-2,2.3-3.4,3.4H172.4
		L172.4,31.1z"/>
	<path class="st2" d="M192.3,37.6v2h-11.5v0.5h-2.2V26.1h13.2v1.9h-11.1v9.6L192.3,37.6L192.3,37.6z M181.5,37.1v-4.3h4.4v4.3H181.5
		z M189.3,28.6v3.8H183v-3.8H189.3z M183.3,34.3v1.3h0.7v-1.3H183.3z M187,30.9v-1h-2v1H187z M190.8,32.8v4.3h-4.5v-4.3H190.8z
		 M188.9,35.6v-1.3h-0.8v1.3H188.9z"/>
	<path class="st2" d="M206.5,33.4l1.4,0.5c0,0.1-0.1,0.2-0.2,0.3c-0.3,1.3-0.9,2.4-1.6,3.3c0.7,0.4,1.6,0.8,2.5,1
		c-0.5,0.4-1,1.2-1.3,1.7c-1-0.3-1.9-0.7-2.6-1.3c-0.7,0.5-1.4,0.9-2.2,1.3c-0.2-0.5-0.7-1.2-1.1-1.6v1.6h-2.1v-1.2
		c-1.5,0.2-3,0.3-4,0.4c0,0.2-0.1,0.2-0.3,0.2l-0.6-2.1c0.4,0,0.8,0,1.3-0.1v-4.4h-1.3v-1.7h14.1v1.7h-7.1v5.4
		c0.7-0.2,1.3-0.6,1.8-0.9c-0.5-0.6-0.9-1.3-1.3-2.1l1.2-0.3h-1.4v-1.7h4.6L206.5,33.4z M206.4,26.1V31h-10.1v-4.8H206.4z
		 M199.2,33.1h-1.6v0.4h1.6V33.1z M197.6,35v0.4h1.6V35H197.6z M197.6,37.4l1.6-0.1v-0.4h-1.6V37.4z M204.2,27.9v-0.4h-5.7v0.4
		H204.2z M204.2,29.6v-0.4h-5.7v0.4H204.2z M203.7,35.1c0.2,0.4,0.5,0.7,0.8,1.1c0.3-0.3,0.5-0.7,0.7-1.1H203.7z"/>
	<path class="st2" d="M224.5,31.9h-5.3c0.9,2.9,2.6,5.1,5.7,6.1c-0.5,0.5-1.3,1.5-1.6,2.2c-2.8-1.1-4.5-3-5.6-5.6
		c-0.9,2.3-2.5,4.2-5.6,5.6c-0.3-0.6-1-1.5-1.6-2c3.6-1.4,5-3.7,5.5-6.3h-5.2v-2.3h5.5c0.1-1.3,0.1-2.6,0.1-4l2.9,0.2
		c0,0.2-0.2,0.3-0.5,0.3c0,1.1,0,2.3-0.1,3.4h5.8V31.9L224.5,31.9z"/>
	<path class="st2" d="M235.1,31.7l1.5,0.7c0,0.1-0.1,0.2-0.3,0.3c-0.7,2.9-2.1,5.3-3.9,6.5c-0.4-0.5-1.3-1.3-1.8-1.7
		c1.3-0.8,2.4-2.1,3-3.7H231v-2.1h3.7L235.1,31.7z M239.2,29.8c0.3,0.9,0.6,1.9,1,2.7c0.9-0.8,2-1.8,2.7-2.7l2.3,1.8
		c-0.1,0.1-0.2,0.1-0.4,0.1c-0.1,0-0.1,0-0.2,0c-0.8,0.8-2.1,1.8-3.2,2.5c1,1.3,2.3,2.4,4,3c-0.5,0.5-1.2,1.4-1.6,2
		c-2-1-3.5-2.4-4.6-4.3v2.7c0,2-0.9,2.4-3.9,2.4c-0.1-0.6-0.4-1.6-0.7-2.1c0.7,0,1.7,0,2,0c0.3,0,0.4-0.1,0.4-0.3v-6.6h-3.6V29h5.4
		c-1.3-0.6-3-1.2-4.3-1.5l1.1-2c1.7,0.3,4.3,1.2,5.6,1.8l-1.2,2.3c-0.2-0.1-0.4-0.2-0.7-0.3V29.8L239.2,29.8z"/>
	<path class="st2" d="M260.5,38h-1c0.8,0.4,1.6,0.8,2.1,1l-1.9,1.1c-0.6-0.4-1.8-1-2.7-1.5l0.8-0.6h-2.1l0.9,0.6
		c0,0-0.1,0.1-0.3,0.1c-0.7,0.5-2.2,1.1-3.3,1.4c-0.3-0.4-0.9-0.9-1.4-1.3c0.8-0.2,1.7-0.6,2.4-0.9h-0.9v-0.3l-1.6,0.6
		c-0.1-0.6-0.4-1.6-0.6-2.4v4.3H249v-4.8c-0.1,1.2-0.4,2.7-0.8,3.6c-0.4-0.2-1.1-0.6-1.5-0.7c0.3-0.8,0.5-2.3,0.6-3.6l1.7,0.4v-1
		l-1.5,0.1c0,0.2-0.2,0.2-0.3,0.2l-0.4-2.2h1.1c0.2-0.3,0.4-0.5,0.6-0.8c-0.4-0.7-1.1-1.5-1.6-2.1c0.3-0.5,0.7-1,1-1.5l0.2,0.2
		c0.4-0.8,0.7-1.7,1-2.5l2.1,0.8c-0.1,0.1-0.2,0.2-0.5,0.2c-0.4,0.8-0.9,2-1.4,2.8c0.1,0.1,0.2,0.2,0.3,0.4c0.5-0.8,0.9-1.6,1.2-2.3
		l2,0.9c-0.1,0.1-0.2,0.2-0.5,0.2c-0.4,0.8-1,1.6-1.7,2.5l1.1-0.5c0.3,0.6,0.6,1.2,0.9,1.8v-2.9h8.5v3.2h-8.3
		c0.2,0.4,0.3,0.8,0.3,1.1l-1.6,0.7c0-0.2-0.1-0.5-0.2-0.7l-0.4,0v1.2l1.4-0.5c0.3,0.9,0.7,2.1,0.9,2.9v-4.4h7.3L260.5,38L260.5,38z
		 M249.8,32.3h0.9c-0.1-0.3-0.2-0.5-0.3-0.8L249.8,32.3z M255.6,28v-0.3h-3.3v-1.3h3.3v-0.7l2.6,0.1c0,0.2-0.1,0.3-0.5,0.3v0.3h3.6
		v1.3h-3.6V28h2.8v1.2h-7.5V28L255.6,28L255.6,28z M254.3,31.1c0.5-0.1,0.7-0.2,0.9-0.5h-0.9V31.1z M254.8,31.8
		c-0.1-0.2-0.4-0.5-0.6-0.7v0.7H254.8z M256.5,30.6c-0.1,0.5-0.4,0.9-1.5,1.2h4.2v-0.2c-0.1,0-0.2,0-0.3,0h-0.7
		c-1.1,0-1.4-0.2-1.4-1L256.5,30.6L256.5,30.6z M255.1,34.2v0.4h3.4v-0.4H255.1z M255.1,35.4v0.4h3.4v-0.4H255.1z M255.1,36.6V37
		h3.4v-0.4H255.1z M258.5,30.6c0,0,0,0.1,0,0.2c0,0,0,0.1,0.1,0.1c0.3,0,0.4,0,0.4,0c0.1,0,0.2,0.1,0.3,0.1v-0.3H258.5z"/>
	<path class="st2" d="M263.8,40.2v-6.8h6.1v6.7h-2.2v-0.4h-1.8v0.5H263.8z M267.6,35.5h-1.8v2.1h1.8V35.5z M274.6,26.1v6.2h-8.2
		v-6.2H274.6z M272.3,30.2v-2h-3.8v2H272.3z M270.9,33.4h6.2v6.7h-2.2v-0.4H273v0.4h-2.1L270.9,33.4L270.9,33.4z M273,37.6h1.9v-2.1
		H273V37.6z"/>
	<path class="st2" d="M282,31.4c0,0.8,0,1,0,1.5h2.8v6.7H283v-4.9h-1c-0.1,1.9-0.4,3.9-0.9,5.4c-0.4-0.2-1.3-0.5-1.8-0.6
		c0.8-2.2,0.9-5.7,0.9-7.8v-5.6l2.2,0.1c0,0.1-0.1,0.2-0.4,0.3v3.1h0.8v-3.9l2.2,0.1c0,0.1-0.1,0.2-0.4,0.3v3.5h0.9v1.9L282,31.4
		L282,31.4z M293.9,35.7v1.8h-2.1v2.6h-2.1v-2.6h-4.4v-1.8h1.7c-0.3-0.3-0.9-0.9-1.3-1.1c1-0.4,1.7-0.9,2.2-1.4H286v-5.9h2
		c0.2-0.6,0.5-1.2,0.6-1.7l2.6,0.6c-0.1,0.1-0.2,0.2-0.5,0.2c-0.1,0.3-0.3,0.6-0.5,0.9h3.2v5.9H290l-0.2,0.3l2.3,0.1
		c0,0.2-0.1,0.3-0.5,0.3v1.8L293.9,35.7L293.9,35.7z M289.7,33.9c-0.5,0.7-1.2,1.4-2.3,1.8h2.3V33.9z M287.9,29v0.5h0.8V29H287.9z
		 M287.9,31.6h0.7c0-0.2,0-0.4,0.1-0.6h-0.8V31.6z M291.4,31.6V31h-0.8l0,0.6H291.4z M291.4,29.5V29h-0.8v0.5H291.4z"/>
	<path class="st2" d="M314,28.5h-5.9c-0.1,0.5-0.2,1-0.4,1.5h4.8v10.2H310v-0.9h-6v0.9h-2.3V30h3.5c0.1-0.5,0.2-1,0.2-1.5H300v-2.1
		h13.9L314,28.5L314,28.5z M310,33.6V32h-6v1.6H310z M304,37.2h6v-1.6h-6V37.2z"/>
	<path class="st2" d="M321.2,26.5c-0.1,0.1-0.2,0.2-0.5,0.2c-0.3,0.9-0.7,1.8-1.2,2.7l0.6,0.2c0,0.1-0.2,0.3-0.5,0.3v10.4h-2.2v-7.4
		c-0.3,0.5-0.6,0.9-1,1.3c-0.2-0.5-0.7-1.7-1-2.3c1.2-1.4,2.4-3.8,3.2-6.2L321.2,26.5L321.2,26.5z M328.8,36.3
		c0.7,0.8,1.5,1.8,1.9,2.6l-1.8,1c-0.1-0.4-0.4-0.8-0.7-1.3c-0.2,1.2-0.8,1.6-1.9,1.6h-1.5c-2.1,0-2.1-0.8-2.1-2.5
		c-0.3,0.8-0.7,1.6-1.3,2.2l-1.6-1.1c0.6-0.6,1.1-1.4,1.4-2.3l1.5,0.6v-0.6l1.8,0.1c-0.2-0.2-0.4-0.3-0.6-0.5l0.2-0.2h-2.9v-4.6h8.1
		v4.6h-3.1c0.3,0.2,0.5,0.5,0.7,0.7l-1.4,1.1c-0.2-0.3-0.5-0.6-0.8-0.9c0,0-0.1,0-0.1,0V38c0,0.4,0.1,0.4,0.5,0.4h0.9
		c0.3,0,0.4-0.1,0.4-0.9c0.3,0.2,0.8,0.4,1.3,0.6c-0.2-0.3-0.5-0.6-0.7-0.9L328.8,36.3L328.8,36.3z M320.9,26.8h3.4v-1l2.7,0.1
		c0,0.2-0.1,0.3-0.5,0.3v0.6h3.6v1.6h-1l0.1,0c-0.1,0.1-0.2,0.2-0.4,0.2l-0.3,0.6h2v1.7h-10.1v-1.7h2.1c-0.1-0.3-0.2-0.6-0.3-0.8
		h-1.2L320.9,26.8L320.9,26.8z M323.5,32.6V33h3.8v-0.4H323.5z M323.5,34.2v0.4h3.8v-0.4H323.5z M324.1,28.4
		c0.1,0.3,0.2,0.5,0.3,0.8h1.9c0.1-0.2,0.2-0.5,0.3-0.8H324.1z"/>
	<path class="st2" d="M336.1,31.6v4.8c0.9,1.4,2.5,1.4,5.2,1.4c1.8,0,4-0.1,5.5-0.2c-0.2,0.5-0.6,1.6-0.7,2.3
		c-1.2,0.1-2.7,0.1-4.2,0.1c-3.8,0-5.4-0.1-6.8-1.7c-0.6,0.6-1.3,1.1-1.8,1.5c0,0.2-0.1,0.3-0.2,0.3l-1.1-2.4c0.6-0.3,1.3-0.8,2-1.2
		v-2.8h-1.6v-2.1H336.1L336.1,31.6z M334,26c0.9,0.6,2,1.6,2.5,2.3l-1.8,1.5c-0.5-0.7-1.5-1.7-2.4-2.4L334,26z M336.5,30.3h1.5
		c-0.5-0.3-1.2-0.6-1.6-0.8c0.8-0.9,1.4-2.4,1.6-3.7l2.4,0.6v-0.7l2.7,0.1c0,0.2-0.2,0.3-0.5,0.3v1.2h3.2v1.9h-3.2v1.1h3.8v1.8h-9.9
		L336.5,30.3L336.5,30.3z M345.4,37.5h-2.2v-0.3h-3.4v0.4h-2.1v-4.9h7.7L345.4,37.5L345.4,37.5z M340.4,30.3v-1.1H339
		c-0.2,0.4-0.4,0.8-0.7,1.1H340.4z M339.8,35.3h3.4v-0.9h-3.4V35.3z M340.4,27.3v-0.8c-0.1,0.1-0.2,0.1-0.4,0.1
		c-0.1,0.2-0.1,0.5-0.2,0.7H340.4z"/>
	<path class="st2" d="M362.9,37.3h-1.8c0.8,0.6,1.5,1.3,2,1.8l-1.9,1.2c-0.5-0.7-1.6-1.7-2.5-2.4l1.1-0.6h-2.8l1.4,0.5
		c-0.1,0.1-0.3,0.2-0.4,0.1c-0.8,0.8-2,1.7-3.2,2.2c-0.3-0.4-0.9-1-1.3-1.4c-1.6,0.3-3.2,0.5-4.3,0.7c0,0.2-0.2,0.2-0.3,0.3
		l-0.6-2.3c0.6-0.1,1.4-0.2,2.2-0.2v-0.4l-1.4,0.4c-0.1-0.7-0.3-1.8-0.6-2.6l1.4-0.4c0.2,0.6,0.4,1.2,0.5,1.8v-2h-1.9v-1.9h1.9v-0.8
		h-1.2v-0.5c-0.3-0.5-0.9-1-1.3-1.2c1.2-1.2,2.1-2.8,2.6-4l2.4,0.4c0,0.1-0.2,0.2-0.4,0.3l0,0c0.6,0.4,1.4,0.9,1.9,1.4v-0.9h3v-1.2
		l2.6,0.1c0,0.2-0.1,0.3-0.5,0.3v0.7h3v1.7h-3V29h2.3V35h-6.6V29h2.1v-0.4H355l-1,1.6l-0.1-0.1v1.3h-1.4v0.8h1.8v1.9h-1.8v2.2
		c0.2-0.6,0.4-1.4,0.5-2l1.9,0.6c-0.1,0.1-0.2,0.2-0.4,0.2c-0.1,0.6-0.4,1.3-0.6,1.9l0.6-0.1v-1.3h8.5V37.3L362.9,37.3z M353.4,29.5
		c-0.5-0.5-1.1-1-1.7-1.4c-0.3,0.5-0.6,0.9-0.9,1.4H353.4z M352.6,36.5V37l1.1-0.1L352.6,36.5L352.6,36.5z M354.6,37.3l0,0.8
		c0.4-0.3,0.9-0.6,1.2-0.8H354.6z M359.9,30.6v-0.3h-2.5v0.3H359.9z M359.9,32.2v-0.3h-2.5v0.3H359.9z M359.9,33.8v-0.4h-2.5v0.4
		H359.9z"/>
</g>
</svg>
