<svg width="190" height="78" viewBox="0 0 190 78" fill="none" xmlns="http://www.w3.org/2000/svg">
<path d="M21.9702 65.13C20.6802 62.84 17.5402 61.09 17.5402 61.09C17.5402 61.09 18.0102 63.74 18.1902 65.38C18.2502 65.92 18.4402 66.48 18.7102 67.03C18.2702 66.65 17.8002 66.3 17.3102 66C16.5802 65.16 15.8802 64.3 15.2102 63.4C15.7102 62.18 16.6302 59.58 16.1502 57.59C15.5402 55.04 13.0002 52.47 13.0002 52.47C13.0002 52.47 12.7202 55.13 12.4402 56.75C12.3502 57.28 12.3702 57.87 12.4802 58.48C12.1502 57.98 11.7802 57.5 11.3802 57.06C10.9102 56.07 10.4802 55.06 10.1002 54.04C10.9202 53.03 12.5402 50.79 12.6402 48.75C12.7602 46.14 11.0202 42.96 11.0202 42.96C11.0202 42.96 10.0102 45.42 9.29023 46.88C9.05023 47.36 8.91023 47.93 8.85023 48.54C8.69023 48.05 8.51023 47.56 8.29023 47.09C8.09023 45.9 7.94023 44.73 7.83023 43.59C8.91023 42.85 11.0502 41.19 11.7002 39.29C12.5402 36.83 11.7502 33.3 11.7502 33.3C11.7502 33.3 10.1002 35.36 8.99023 36.55C8.63023 36.94 8.34023 37.45 8.10023 38.01C8.08023 37.31 8.01023 36.6 7.86023 35.93C7.83023 35.81 7.80023 35.69 7.77023 35.57C7.85023 34.74 7.95023 33.93 8.08023 33.13C9.05023 32.85 11.9102 31.9 13.1302 30.17C14.5502 28.17 14.7602 24.74 14.7602 24.74C14.7602 24.74 12.7002 26.16 11.3702 26.94C10.9302 27.2 10.5302 27.58 10.1702 28.02C10.3402 27.38 10.4602 26.72 10.5002 26.06C10.5202 25.72 10.5202 25.36 10.4802 25C10.6802 24.55 10.9002 24.1 11.1202 23.66C11.1602 23.63 11.2002 23.59 11.2502 23.55C11.9802 23.57 15.0502 23.56 16.7002 22.27C18.4902 20.87 19.5502 17.9 19.5502 17.9C19.5502 17.9 17.3402 18.61 15.9502 18.95C15.4902 19.06 15.0402 19.29 14.6002 19.59C14.9102 19.07 15.1902 18.51 15.4002 17.95C15.5302 17.6 15.6302 17.22 15.6902 16.82C16.1202 16.31 16.5802 15.8 17.0502 15.3C17.8302 15.54 20.2402 16.19 21.8502 15.56C23.7002 14.84 25.3302 12.61 25.3302 12.61C25.3302 12.61 23.2802 12.65 22.0202 12.58C21.6102 12.56 21.1602 12.64 20.7202 12.78C21.1102 12.42 21.4802 12.03 21.8002 11.6C23.6502 9.13004 23.4302 3.92004 23.4302 3.92004C23.4302 3.92004 19.1002 6.81003 18.1602 10.19C17.7502 11.64 17.0902 13.88 16.7902 14.87C16.4502 15.22 16.1102 15.58 15.7802 15.94C15.9902 12.75 14.7302 8.97003 14.7302 8.97003C14.7302 8.97003 10.9402 13.55 10.9802 17.57C11.0002 19.18 10.9802 21.61 10.9802 22.9C10.7602 23.32 10.5502 23.74 10.3502 24.17C9.70024 20.7 7.13023 16.94 7.13023 16.94C7.13023 16.94 4.60023 22.87 5.85023 27.04C6.38023 28.82 7.16023 31.57 7.51023 32.82C7.42023 33.29 7.33023 33.77 7.26023 34.25C5.65023 30.84 1.82023 27.69 1.82023 27.69C1.82023 27.69 1.01023 34.46 3.48023 38.31C4.59023 40.04 6.28023 42.78 6.94023 43.85C6.98023 44.32 7.03023 44.78 7.09023 45.25C4.63023 42.37 -0.00976562 40.38 -0.00976562 40.38C-0.00976562 40.38 1.10023 47.14 4.52023 50.15C6.03023 51.48 8.36024 53.6 9.31024 54.46C9.47024 54.9 9.64023 55.33 9.82023 55.76C6.67023 53.72 1.76023 53.14 1.76023 53.14C1.76023 53.14 4.69023 59.35 8.80023 61.27C10.4802 62.06 13.0102 63.29 14.2902 63.92C14.5702 64.32 14.8602 64.71 15.1502 65.1C11.6102 64.16 7.00023 64.95 7.00023 64.95C7.00023 64.95 11.5202 70.1 15.9702 70.78C17.6202 71.03 20.0302 71.44 21.5102 71.69C23.7202 73.5 26.1102 75.04 28.6302 76.28C29.5302 76.25 30.4202 76.23 31.3202 76.22C28.2502 74.93 25.3302 73.18 22.6602 71.09C22.8102 69.81 22.9802 66.96 21.9502 65.14L21.9702 65.13Z" fill="white"/>
<path d="M167.56 65.13C168.85 62.84 171.99 61.09 171.99 61.09C171.99 61.09 171.52 63.74 171.34 65.38C171.28 65.92 171.09 66.48 170.82 67.03C171.26 66.65 171.73 66.3 172.22 66C172.95 65.16 173.65 64.3 174.32 63.4C173.82 62.18 172.9 59.58 173.38 57.59C173.99 55.04 176.53 52.47 176.53 52.47C176.53 52.47 176.81 55.13 177.09 56.75C177.18 57.28 177.16 57.87 177.05 58.48C177.38 57.98 177.75 57.5 178.15 57.06C178.62 56.07 179.05 55.06 179.43 54.04C178.61 53.03 176.99 50.79 176.89 48.75C176.77 46.14 178.51 42.96 178.51 42.96C178.51 42.96 179.52 45.42 180.24 46.88C180.48 47.36 180.62 47.93 180.68 48.54C180.84 48.05 181.02 47.56 181.24 47.09C181.44 45.9 181.59 44.73 181.7 43.59C180.62 42.85 178.48 41.19 177.83 39.29C176.99 36.83 177.78 33.3 177.78 33.3C177.78 33.3 179.43 35.36 180.54 36.55C180.9 36.94 181.19 37.45 181.43 38.01C181.45 37.31 181.52 36.6 181.67 35.93C181.7 35.81 181.73 35.69 181.76 35.57C181.68 34.74 181.58 33.93 181.45 33.13C180.48 32.85 177.62 31.9 176.4 30.17C174.98 28.17 174.77 24.74 174.77 24.74C174.77 24.74 176.83 26.16 178.16 26.94C178.6 27.2 179 27.58 179.36 28.02C179.19 27.38 179.07 26.72 179.03 26.06C179.01 25.72 179.01 25.36 179.05 25C178.85 24.55 178.63 24.1 178.41 23.66C178.37 23.63 178.33 23.59 178.28 23.55C177.55 23.57 174.48 23.56 172.83 22.27C171.04 20.87 169.98 17.9 169.98 17.9C169.98 17.9 172.19 18.61 173.58 18.95C174.04 19.06 174.49 19.29 174.93 19.59C174.62 19.07 174.34 18.51 174.13 17.95C174 17.6 173.9 17.22 173.84 16.82C173.41 16.31 172.95 15.8 172.48 15.3C171.7 15.54 169.29 16.19 167.68 15.56C165.83 14.84 164.2 12.61 164.2 12.61C164.2 12.61 166.25 12.65 167.51 12.58C167.92 12.56 168.37 12.64 168.81 12.78C168.42 12.42 168.05 12.03 167.73 11.6C165.88 9.13004 166.1 3.92004 166.1 3.92004C166.1 3.92004 170.43 6.81003 171.37 10.19C171.78 11.64 172.44 13.88 172.74 14.87C173.08 15.22 173.42 15.58 173.75 15.94C173.54 12.75 174.8 8.97003 174.8 8.97003C174.8 8.97003 178.59 13.55 178.55 17.57C178.53 19.18 178.55 21.61 178.55 22.9C178.77 23.32 178.98 23.74 179.18 24.17C179.83 20.7 182.4 16.94 182.4 16.94C182.4 16.94 184.93 22.87 183.68 27.04C183.15 28.82 182.37 31.57 182.02 32.82C182.11 33.29 182.2 33.77 182.27 34.25C183.88 30.84 187.71 27.69 187.71 27.69C187.71 27.69 188.52 34.46 186.05 38.31C184.94 40.04 183.25 42.78 182.59 43.85C182.55 44.32 182.5 44.78 182.44 45.25C184.9 42.37 189.54 40.38 189.54 40.38C189.54 40.38 188.43 47.14 185.01 50.15C183.5 51.48 181.17 53.6 180.22 54.46C180.06 54.9 179.89 55.33 179.71 55.76C182.86 53.72 187.77 53.14 187.77 53.14C187.77 53.14 184.84 59.35 180.73 61.27C179.05 62.06 176.52 63.29 175.24 63.92C174.96 64.32 174.67 64.71 174.38 65.1C177.92 64.16 182.53 64.95 182.53 64.95C182.53 64.95 178.01 70.1 173.56 70.78C171.91 71.03 169.5 71.44 168.02 71.69C165.81 73.5 163.42 75.04 160.9 76.28C160 76.25 159.11 76.23 158.21 76.22C161.28 74.93 164.2 73.18 166.87 71.09C166.72 69.81 166.55 66.96 167.58 65.14L167.56 65.13Z" fill="white"/>
<path d="M91.5701 24.74L91.0501 31.12C91.5401 32.01 91.8301 32.66 91.9001 33.08C91.9701 33.5 91.8801 33.84 91.6001 34.11C91.2101 34.58 90.7101 34.75 90.1201 34.63C89.5301 34.53 88.9501 34.28 88.3901 33.89C87.8501 33.5 87.3401 33.02 86.8801 32.45C85.8701 31.24 85.0101 29.74 84.3001 27.95C82.1601 30.66 79.6001 32.79 76.6201 34.33L76.1801 33.92C79.0601 31.88 81.4701 29.02 83.4101 25.36C82.3501 21.72 81.6301 16.45 81.2301 9.56003H74.2501V15.35H80.1201V16.79C80.1001 21.02 79.9701 24.01 79.7501 25.76C79.5501 27.51 79.1601 28.66 78.5701 29.23C77.7101 30.02 76.6901 30.41 75.5101 30.41C75.5101 29.25 75.3501 28.52 75.0301 28.2C74.7101 27.81 74.0901 27.51 73.1801 27.31V27.01C72.2201 30.23 70.5501 32.85 68.1601 34.87L67.6801 34.5C69.1301 32.26 70.0701 29.78 70.4901 27.04C70.9301 24.31 71.1501 21.09 71.1501 17.37V8.22003C71.0501 8.54003 70.7301 8.70004 70.1901 8.70004H57.4201L57.1201 7.67004H65.9401L67.8201 5.23004C69.1701 6.34004 70.2801 7.28004 71.1401 8.07004V8.48004H81.1401C80.9901 5.18004 80.8901 2.57003 80.8401 0.660034L84.2401 1.18002C84.2601 2.58002 84.2901 3.98005 84.3101 5.39005C84.3301 6.77005 84.3501 7.80002 84.3501 8.49002H86.3101L88.1601 6.28003C87.9601 6.18003 87.8201 6.10002 87.7201 6.02002C87.6001 5.35002 87.3001 4.64004 86.8301 3.88004C86.3601 3.12004 85.8701 2.50003 85.3501 2.03003L85.7201 1.77002C88.3501 2.14002 89.9101 2.98003 90.4101 4.28003C90.6801 5.04003 90.5201 5.67003 89.9301 6.16003C89.5101 6.45003 89.0401 6.54004 88.5301 6.42004C89.8601 7.43004 90.9201 8.28003 91.7001 8.97003C91.6001 9.36003 91.2701 9.56003 90.7001 9.56003H84.3901C84.5601 14.01 84.9101 17.73 85.4201 20.71C86.3101 18.15 86.9701 15.42 87.4101 12.52L90.2901 13.89C89.4301 18.22 88.1401 21.86 86.4101 24.81C87.0501 26.78 87.8101 28.3 88.7001 29.39C88.9201 29.68 89.0901 29.83 89.2201 29.83C89.3401 29.81 89.4801 29.61 89.6301 29.24C90.0501 28.31 90.5501 26.79 91.1401 24.7L91.5501 24.74H91.5701ZM68.7301 23.63V31.86C68.7101 32.01 68.3901 32.2 67.7701 32.45C67.1801 32.7 66.6401 32.82 66.1501 32.82H65.6301V31.01H61.6801V33.52C61.6801 33.69 61.3901 33.9 60.7901 34.15C60.2201 34.4 59.6301 34.52 59.0201 34.52H58.6101V22.12H68.7201V23.63H68.7301ZM69.1401 4.18002H58.9901L58.7301 3.11002H69.1401V4.18002ZM69.2901 12.48V13.51H58.9901L58.7301 12.48H69.2901ZM58.9901 18.39L58.7301 17.32H69.2901V18.39H58.9901ZM61.6801 29.94H65.6301V23.19H61.6801V29.94ZM77.4401 16.43H74.2701V17.35C74.2701 21.21 73.9401 24.34 73.2701 26.72C74.1301 26.79 74.9701 26.83 75.7801 26.83C76.2501 26.83 76.5601 26.74 76.7001 26.57C76.9501 26.28 77.1201 25.4 77.2201 23.95C77.3201 22.47 77.3901 19.96 77.4401 16.42V16.43Z" fill="white"/>
<path d="M106.85 0.570068L110.54 2.16006C109.46 5.48006 108.45 8.36005 107.51 10.8V33.7901C107.49 33.8901 107.34 34.0101 107.07 34.1601C106.8 34.3301 106.43 34.4801 105.96 34.6001C105.52 34.7501 105.09 34.8201 104.67 34.8201H104.01V15.3C102.61 17.24 101.13 18.93 99.5801 20.36L99.1001 20.0301C100.62 17.5901 102.09 14.6201 103.49 11.1001C104.92 7.58007 106.04 4.08005 106.85 0.580048V0.570068ZM134.2 8.47006V9.54007H110.69L110.39 8.47006H134.19H134.2ZM131.91 13.3801V14.4501H113.05L112.76 13.3801H131.91ZM113.05 19.4001L112.76 18.3701H131.91V19.4001H113.05ZM127 23.2401H130.88V33.5001C130.86 33.6501 130.49 33.8401 129.77 34.0901C129.08 34.3601 128.47 34.5001 127.92 34.5001H127.33V32.0301H116.41V33.6201C116.41 33.8201 116.08 34.0401 115.41 34.2801C114.77 34.5501 114.12 34.6901 113.45 34.6901H112.93V23.2501H126.99L127 23.2401ZM130.99 4.45007H113.64L113.34 3.38007H130.98V4.45007H130.99ZM116.41 30.9501H127.33V24.2701H116.41V30.9501Z" fill="white"/>
<path d="M60.0101 51.11V55.4101C60.5801 56.0101 61.2301 56.4 61.9601 56.58C62.6901 56.76 63.8501 56.8501 65.4401 56.8501C68.4901 56.8501 70.7101 56.8301 72.0801 56.7801V57.0001C71.4401 57.1301 71.0801 57.5701 71.0101 58.3201H65.4501C63.8301 58.3201 62.6201 58.15 61.8401 57.8C61.0501 57.46 60.3701 56.7601 59.7901 55.7201C59.1301 56.5901 58.3901 57.4401 57.5401 58.2801C57.5601 58.4401 57.4901 58.5601 57.3201 58.6601L56.3901 56.8801C56.9101 56.6701 57.6201 56.3401 58.5201 55.9001V50.9001H56.5201L56.4201 50.4201H60.0001V51.1201L60.0101 51.11ZM56.7301 43.83L56.8801 43.7101C58.4301 44.0901 59.4201 44.7001 59.8301 45.5601C60.0701 46.0701 60.0601 46.5 59.7801 46.86C59.5101 47.19 59.1601 47.2501 58.7301 47.0401C58.6601 47.0101 58.5901 46.9601 58.5101 46.9101C58.4101 46.4101 58.1901 45.8701 57.8401 45.2901C57.5001 44.7101 57.1201 44.2201 56.7201 43.8201L56.7301 43.83ZM60.8101 45.6801L60.6801 45.2001H65.2901V43.1901L66.8201 43.4101V45.2101H71.7301V45.6901H66.8201V47.1901H70.5201V52.4401C70.5101 52.5101 70.3501 52.6001 70.0401 52.7201C69.7301 52.8401 69.4601 52.9001 69.2201 52.9001H68.9501V52.2201H66.8201V54.0701H71.9801V54.55H66.8201V55.9301C66.8201 56.0201 66.6801 56.1301 66.4001 56.2601C66.1201 56.3801 65.8401 56.4401 65.5701 56.4401H65.2901V54.5401H60.5801L60.4501 54.0601H65.3001V52.2101H63.2201V52.6601C63.2201 52.7501 63.0801 52.8501 62.7901 52.9801C62.5001 53.1101 62.2101 53.1601 61.9201 53.1601H61.7001V47.1801H65.3001V45.6801H60.8201H60.8101ZM65.2901 47.6601H63.2101V49.3901H65.2901V47.6601ZM63.2101 51.7201H65.2901V49.8701H63.2101V51.7201ZM68.9501 47.6601H66.8201V49.3901H68.9501V47.6601ZM66.8201 51.7201H68.9501V49.8701H66.8201V51.7201Z" fill="white"/>
<path d="M88.8699 47.4001H90.4199V50.61C90.4099 50.67 90.2799 50.7401 90.0399 50.8401C89.7999 50.9301 89.5699 50.9801 89.3599 51.0101L90.2899 51.7101C90.1699 51.8501 89.9799 51.9501 89.7399 51.9901V56.1201C89.7299 56.1901 89.5699 56.2801 89.2599 56.3901C88.9499 56.5001 88.6799 56.5601 88.4399 56.5601H88.1699V56.0101H83.7099V56.33C83.7099 56.33 83.6499 56.4401 83.5299 56.5101C83.4099 56.5901 83.2399 56.6601 83.0299 56.7301C82.8299 56.7901 82.6299 56.8101 82.4299 56.8101H82.2099V51.0001C82.0399 51.0401 81.8799 51.0801 81.7099 51.1001C81.7499 51.5201 81.6299 51.8201 81.3399 51.9801C81.0599 52.1501 80.7699 52.09 80.4599 51.8C80.4299 51.48 80.3499 51.1101 80.2299 50.7001L79.3099 50.9701V58.2601C79.3099 58.2601 79.2599 58.3501 79.1599 58.4101C79.0699 58.4801 78.9299 58.5401 78.7399 58.5901C78.5499 58.6501 78.3499 58.6701 78.1399 58.6701H77.8899V53.3801C77.7999 53.4701 77.6499 53.52 77.4399 53.55C76.9799 55.2 76.3799 56.4801 75.6299 57.3801L75.3599 57.2501C75.7799 56.0301 76.0599 54.5401 76.1899 52.7901L77.8899 53.1201V51.3701C76.9899 51.6001 76.4999 51.7301 76.4099 51.7501C76.3199 51.9401 76.1799 52.0601 75.9799 52.1001L75.3999 50.5201C75.7799 50.5201 76.2899 50.5001 76.9499 50.4701C77.9199 48.7201 78.7499 46.9601 79.4599 45.1901L80.7899 45.9401C79.8999 47.4701 78.7999 48.9801 77.4899 50.4501C77.9399 50.4301 78.8099 50.3801 80.0699 50.3201C79.9099 49.9201 79.6999 49.4801 79.4199 49.0001L79.5999 48.9301C80.4499 49.3201 81.0599 49.7901 81.4099 50.3501V47.4001H88.8499H88.8699ZM77.7099 43.1901L79.1599 43.9101C78.4499 45.1301 77.7899 46.0501 77.1999 46.6601C77.7299 47.0801 77.9299 47.5201 77.7999 47.9801C77.7099 48.3101 77.5099 48.4801 77.1799 48.5001C76.9899 48.5101 76.7999 48.45 76.5999 48.3C76.5099 47.57 76.1099 46.82 75.3799 46.05L75.5499 45.9301C76.0499 46.0601 76.4699 46.2201 76.7999 46.4001C77.1299 45.4101 77.4399 44.3501 77.7199 43.2001L77.7099 43.1901ZM79.6099 52.7301L79.8099 52.6601C80.9199 53.3301 81.5299 54.0601 81.6199 54.8701C81.6899 55.3701 81.5599 55.7201 81.2399 55.9201C80.9399 56.1001 80.6399 56.0301 80.3399 55.7201C80.3399 54.8701 80.0999 53.8701 79.6099 52.7201V52.7301ZM80.6799 58.6901L80.5299 58.4601C81.2399 58.2001 81.9599 57.8501 82.6799 57.4101C83.4099 56.9801 83.9799 56.5601 84.3799 56.1601L85.3599 57.2401C84.1799 57.9601 82.6199 58.4401 80.6799 58.6901ZM81.2799 45.0701L81.1499 44.5901H85.1599V43.2901L86.6899 43.4701V44.5901H90.9699V45.0701H86.6899V46.0901H90.4199V46.5701H82.1099L81.9799 46.0901H85.1599V45.0701H81.2799ZM88.7599 50.5701L89.0099 50.7501V50.3701H82.8199V50.6701C82.8199 50.6701 82.7499 50.7801 82.5999 50.8501L83.7999 51.33H88.0299L88.7599 50.5601V50.5701ZM86.3499 47.8901H85.5199C85.4399 48.3201 85.2199 48.6801 84.8499 48.9601C84.4799 49.2401 83.8499 49.4601 82.9499 49.6401L82.8199 49.4901V49.8901H89.0099V49.2901C88.7699 49.3201 88.4099 49.3401 87.9299 49.3401H87.2799C86.8899 49.3401 86.6399 49.2801 86.5099 49.1701C86.3999 49.0501 86.3399 48.8301 86.3399 48.5001V47.8801L86.3499 47.8901ZM84.3499 47.8901H82.8199V49.3501C83.3599 49.1701 83.7399 48.9701 83.9499 48.7301C84.1699 48.5001 84.3099 48.2101 84.3499 47.8801V47.8901ZM83.7199 52.7201H88.1799V51.8201H83.7199V52.7201ZM83.7199 53.2001V54.1001H88.1799V53.2001H83.7199ZM83.7199 55.5301H88.1799V54.58H83.7199V55.5301ZM86.4199 56.6901L86.4999 56.4401C88.8199 56.5701 90.2099 56.9701 90.6599 57.6201C90.8799 57.9401 90.8299 58.2201 90.5099 58.4501C90.1899 58.7001 89.8299 58.7401 89.4399 58.5701C89.3399 58.5301 89.2499 58.4601 89.1699 58.3901C88.5399 57.6801 87.6199 57.1101 86.4099 56.6901H86.4199ZM89.0199 47.8801H87.3899V48.33C87.3899 48.41 87.3999 48.4601 87.4199 48.5001C87.4499 48.5201 87.5199 48.5301 87.6199 48.5301H88.4699C88.5799 48.5301 88.6499 48.5301 88.6699 48.5101C88.7399 48.5101 88.8299 48.5001 88.9399 48.4801L89.0199 47.8801Z" fill="white"/>
<path d="M99.6102 56.3901L102.09 56.7201V57.2501H95.2002V56.7201L97.7602 56.3901C97.7802 55.0601 97.7902 54.0601 97.7902 53.3901V46.1801L95.4602 46.4001V45.7701L99.3902 44.8L99.6202 44.9801L99.5702 47.6301V53.3901C99.5702 54.0301 99.5802 55.0301 99.6002 56.3901H99.6102Z" fill="white"/>
<path d="M108.31 46.55L108.09 49.98C108.69 49.79 109.34 49.7 110.05 49.7C111.32 49.7 112.32 50.04 113.06 50.71C113.8 51.38 114.17 52.32 114.17 53.53C114.17 54.74 113.76 55.71 112.95 56.43C112.14 57.15 111.07 57.51 109.75 57.51C108.76 57.51 107.97 57.28 107.36 56.83C106.75 56.38 106.38 55.73 106.24 54.88C106.38 54.47 106.68 54.26 107.14 54.26C107.42 54.26 107.63 54.35 107.79 54.53C107.95 54.71 108.07 55.01 108.17 55.45L108.45 56.7C108.79 56.8 109.16 56.85 109.55 56.85C110.42 56.85 111.09 56.57 111.57 56C112.05 55.43 112.29 54.65 112.29 53.65C112.29 52.65 112.04 51.95 111.53 51.42C111.02 50.89 110.34 50.62 109.49 50.62C108.9 50.62 108.31 50.71 107.72 50.9L107.24 50.72L107.62 44.99H113.78V46.55H108.29H108.31Z" fill="white"/>
<path d="M133.32 53.8801V54.36H127.36V58.1901C127.36 58.1901 127.3 58.29 127.19 58.36C127.09 58.44 126.92 58.5001 126.69 58.5601C126.46 58.6301 126.21 58.6601 125.94 58.6601H125.64V54.36H118L117.85 53.8801H120.73V49.4301H125.64V46.2501H122.24C121.01 47.9201 119.59 49.2401 117.98 50.2101L117.78 50.0401C118.57 49.2201 119.34 48.1701 120.09 46.9101C120.84 45.6301 121.46 44.3101 121.92 42.9501L123.55 43.8501C123.28 44.5501 122.96 45.1901 122.57 45.7601H132.79V46.2401H127.35V49.4201H132.26V49.9001H127.35V53.86H133.31L133.32 53.8801ZM122.4 53.8801H125.65V49.9201H122.4V53.8801Z" fill="white"/>
<path d="M54.3201 71.89H48.5101C49.2401 72.7 50.2101 73.42 51.4201 74.04C52.6401 74.65 53.9001 75.08 55.1801 75.34L55.1501 75.52C54.5001 75.68 54.0701 76.15 53.8701 76.93C51.3101 75.98 49.3901 74.33 48.1301 71.98V76.78C48.1301 76.87 47.9901 76.96 47.7001 77.06C47.4201 77.16 47.1401 77.21 46.8501 77.21H46.5501V73.01C44.9301 74.64 42.7301 75.91 39.9601 76.82L39.8301 76.59C40.9501 76.02 41.9901 75.33 42.9401 74.49C43.9101 73.66 44.7101 72.79 45.3401 71.88H40.9601L40.8301 71.4H46.5601V69.1L48.1401 69.3V71.4H54.3301V71.88L54.3201 71.89ZM52.2101 68.68H42.5201C42.4501 69.66 42.1001 70.34 41.4501 70.73C41.2201 70.9 40.9501 70.96 40.6501 70.91C40.3501 70.87 40.1501 70.72 40.0501 70.46C39.8901 70.02 40.0801 69.65 40.6001 69.36C40.9601 69.19 41.2801 68.92 41.5801 68.53C41.8901 68.14 42.0701 67.73 42.1101 67.28H42.3801C42.4501 67.54 42.4901 67.84 42.5101 68.2H52.1701L52.9001 67.47C52.4601 66.77 51.7001 66.07 50.6401 65.37C49.9801 66.31 48.6601 67.05 46.6601 67.57L46.4901 67.34C46.8701 67.2 47.2101 67.04 47.5101 66.87C47.8201 66.69 48.0901 66.53 48.3101 66.39C48.5401 66.23 48.7401 66.05 48.9101 65.82C49.0901 65.6 49.2301 65.41 49.3401 65.27C49.4601 65.11 49.5601 64.9 49.6401 64.64C49.7201 64.36 49.7701 64.15 49.8101 64.01C49.8501 63.85 49.8901 63.62 49.9101 63.29C49.9301 62.96 49.9401 62.72 49.9401 62.57C49.9501 62.41 49.9601 62.15 49.9601 61.77L51.3901 61.94C51.3201 63.39 51.1601 64.4 50.8901 64.95C52.3701 65.16 53.3201 65.62 53.7501 66.33C53.9901 66.74 53.9901 67.08 53.7501 67.35C53.6601 67.45 53.5401 67.51 53.3801 67.53L54.0801 68.81C53.4401 69.47 52.6301 70.02 51.6701 70.49L51.5001 70.37C51.7101 69.97 51.9401 69.41 52.2001 68.67L52.2101 68.68ZM43.4701 61.77L44.8401 61.94C44.7701 63.35 44.6501 64.3 44.4601 64.8C45.6601 64.98 46.4001 65.37 46.6701 65.98C46.8401 66.35 46.7901 66.64 46.5401 66.86C46.3001 67.08 45.9901 67.09 45.6201 66.88C45.4101 66.29 44.9601 65.72 44.2901 65.17C43.7301 66.27 42.4301 67.11 40.3801 67.68L40.2101 67.45C40.6501 67.26 41.0501 67.06 41.3901 66.85C41.7301 66.63 42.0201 66.41 42.2401 66.2C42.4701 65.99 42.6701 65.74 42.8201 65.47C42.9801 65.18 43.0901 64.92 43.1701 64.69C43.2601 64.46 43.3301 64.17 43.3701 63.82C43.4101 63.48 43.4401 63.18 43.4501 62.92C43.4601 62.65 43.4701 62.31 43.4701 61.9V61.77ZM41.9201 62.55L42.2201 62.57C42.3901 63.29 42.4101 63.89 42.2901 64.35C42.1701 64.82 41.9601 65.15 41.6601 65.37C41.4901 65.51 41.2901 65.58 41.0401 65.57C40.8101 65.56 40.6501 65.46 40.5601 65.29C40.4201 64.97 40.5501 64.67 40.9601 64.41C41.2201 64.27 41.4401 64.02 41.6401 63.66C41.8401 63.29 41.9301 62.93 41.9201 62.56V62.55ZM45.1701 64.7L44.9401 64.52C45.2201 64.13 45.6001 63.47 46.0701 62.54L46.8501 63.27C46.2701 63.91 45.7101 64.39 45.1701 64.7ZM48.5001 62.57H48.8001C48.9701 63.31 48.9801 63.91 48.8301 64.37C48.7001 64.83 48.4701 65.15 48.1601 65.35C47.9701 65.48 47.7601 65.54 47.5301 65.53C47.3001 65.51 47.1401 65.41 47.0601 65.23C46.9201 64.9 47.0601 64.61 47.4801 64.38C47.7501 64.24 47.9801 63.99 48.1801 63.65C48.3901 63.29 48.5001 62.93 48.5001 62.57ZM51.8301 64.87L51.6101 64.67C51.9901 64.17 52.4301 63.45 52.9301 62.52L53.8601 63.42C53.2001 64.04 52.5301 64.53 51.8301 64.87Z" fill="white"/>
<path d="M62.0702 61.76L63.4402 62.74C62.9602 63.62 62.4102 64.4 61.7702 65.09C62.5902 66.48 63.0302 68.39 63.0902 70.82C63.1602 73.61 62.8502 75.5 62.1602 76.5C61.8002 76.98 61.1702 77.22 60.2502 77.22C60.2502 76.71 60.1602 76.35 59.9702 76.14C59.7502 75.93 59.3902 75.77 58.8902 75.66V75.39C59.6202 75.46 60.1802 75.49 60.5702 75.49C60.8002 75.49 60.9702 75.42 61.0702 75.27C61.4702 74.68 61.6702 73.2 61.6702 70.82V70.12C60.8702 71.14 59.8602 72.02 58.6402 72.75L58.4702 72.58C59.1402 71.86 59.7202 71.03 60.2402 70.08C60.7602 69.12 61.1402 68.18 61.3702 67.25C61.2802 66.74 61.1602 66.28 61.0002 65.88C60.2802 66.57 59.5302 67.15 58.7702 67.63L58.5902 67.46C59.3002 66.72 59.9602 65.84 60.5702 64.83C60.1602 64.02 59.6002 63.26 58.9002 62.55L59.1202 62.37C59.8602 62.86 60.5002 63.41 61.0402 64.04C61.5002 63.21 61.8402 62.45 62.0902 61.76H62.0702ZM63.7702 63.96L63.6502 63.48H66.1302V61.8L67.5102 61.98V63.48H69.7602V61.8L71.1802 61.98V63.48H74.1902V63.96H71.1802V64.74C71.1802 64.74 71.1502 64.81 71.1002 64.86C71.0402 64.89 70.9502 64.93 70.8202 64.98C70.7002 65.02 70.5502 65.05 70.3702 65.06C70.2702 65.26 70.0802 65.37 69.7902 65.38C69.4802 65.66 69.1302 65.94 68.7602 66.23H73.6902V66.71H69.8102V67.83H73.3202V68.31H69.8102V69.44H73.2902V69.91H69.8102V71.06H74.0602V71.54H66.0502V71.76C66.0502 71.76 66.0102 71.86 65.9202 71.93C65.8302 72 65.6902 72.06 65.5002 72.13C65.3102 72.19 65.1102 72.21 64.8802 72.21H64.6302V67.6C64.1602 68 63.6702 68.34 63.1602 68.62L62.9902 68.42C63.4702 67.93 63.9102 67.32 64.3202 66.57C64.7402 65.82 65.0602 65.1 65.2702 64.44L66.1402 64.76V63.98H63.7802L63.7702 63.96ZM72.4302 72.55V73.27C71.8202 74.01 71.1102 74.64 70.3202 75.14C71.4902 75.44 72.8102 75.63 74.2802 75.72V75.9C73.6802 76.07 73.3102 76.53 73.1602 77.28C71.4202 76.96 69.9702 76.5 68.8302 75.9C67.2502 76.59 65.3302 77.04 63.0702 77.25L62.9902 77C64.8502 76.62 66.4802 76.06 67.8502 75.32C66.9502 74.7 66.2502 73.94 65.7402 73.04H64.1702L64.0202 72.56H72.4302V72.55ZM67.5202 63.96V64.81C67.5202 64.92 67.3402 65.01 66.9902 65.08L67.1402 65.13C67.0502 65.3 66.8502 65.37 66.5402 65.36C66.4302 65.55 66.2502 65.8 66.0102 66.13L68.1102 66.23C68.2702 65.56 68.3702 65.03 68.4102 64.61L69.7802 64.89V63.96H67.5302H67.5202ZM68.3902 67.82V66.7H66.0402V67.82H68.3902ZM68.3902 69.44V68.31H66.0402V69.44H68.3902ZM68.3902 71.06V69.91H66.0402V71.06H68.3902ZM70.6002 73.04H66.2002C66.8102 73.68 67.7002 74.23 68.8602 74.69C69.5702 74.2 70.1502 73.65 70.5902 73.04H70.6002Z" fill="white"/>
<path d="M93.06 72.6701L92.83 75.55C93.05 75.95 93.18 76.2401 93.21 76.4301C93.24 76.6201 93.2 76.7701 93.08 76.9001C92.9 77.1101 92.68 77.1901 92.41 77.1301C92.14 77.0901 91.88 76.97 91.63 76.8C91.39 76.62 91.16 76.4101 90.95 76.1501C90.49 75.6101 90.11 74.9301 89.78 74.1201C88.81 75.3401 87.66 76.3001 86.32 77.0001L86.12 76.8201C87.42 75.9001 88.51 74.6101 89.38 72.9601C88.9 71.3201 88.57 68.94 88.4 65.83H85.25V68.4401H87.9V69.0901C87.89 71.0001 87.83 72.3501 87.73 73.1401C87.64 73.9301 87.46 74.4501 87.2 74.7101C86.81 75.0701 86.35 75.2401 85.82 75.2401C85.82 74.7201 85.75 74.3901 85.6 74.2401C85.46 74.0601 85.18 73.9301 84.77 73.8401V73.7101C84.34 75.1601 83.58 76.3501 82.51 77.2601L82.29 77.0901C82.94 76.0801 83.37 74.9601 83.56 73.7301C83.76 72.5001 83.86 71.0401 83.86 69.3701V65.2401C83.82 65.3801 83.67 65.4601 83.43 65.4601H77.67L77.54 64.9901H81.52L82.37 63.8901C82.98 64.3901 83.48 64.8201 83.87 65.1701V65.3501H88.38C88.31 63.8601 88.27 62.6901 88.25 61.8201L89.78 62.05C89.79 62.68 89.8 63.3201 89.81 63.9501C89.82 64.5701 89.83 65.0401 89.83 65.3501H90.71L91.54 64.3501C91.45 64.3101 91.38 64.2701 91.34 64.2301C91.28 63.9301 91.15 63.6101 90.94 63.2601C90.73 62.9201 90.51 62.6401 90.27 62.4301L90.44 62.3101C91.63 62.4801 92.33 62.8501 92.55 63.4401C92.67 63.7801 92.6 64.0701 92.33 64.2901C92.14 64.4201 91.93 64.4601 91.7 64.4101C92.3 64.8701 92.78 65.2501 93.13 65.5601C93.09 65.7401 92.94 65.83 92.68 65.83H89.83C89.91 67.84 90.06 69.52 90.3 70.86C90.7 69.71 91 68.4701 91.2 67.1601L92.5 67.7801C92.11 69.7301 91.53 71.3801 90.75 72.7101C91.04 73.6001 91.38 74.2901 91.78 74.7701C91.88 74.9001 91.96 74.9701 92.01 74.9701C92.07 74.9601 92.13 74.8701 92.19 74.7001C92.38 74.2801 92.61 73.6001 92.87 72.6501L93.05 72.6701H93.06ZM82.75 72.1701V75.8801C82.74 75.9501 82.59 76.0401 82.32 76.1501C82.05 76.2601 81.81 76.3201 81.59 76.3201H81.36V75.5001H79.58V76.6301C79.58 76.7101 79.45 76.8001 79.18 76.9101C78.92 77.0201 78.66 77.08 78.38 77.08H78.2V71.4901H82.76V72.1701H82.75ZM82.93 63.3901H78.35L78.23 62.9101H82.93V63.3901ZM83 67.1401V67.61H78.35L78.23 67.1401H82.99H83ZM78.35 69.8L78.23 69.3201H82.99V69.8H78.34H78.35ZM79.57 75.0101H81.35V71.9601H79.57V75.0101ZM86.68 68.9201H85.25V69.3401C85.25 71.0801 85.1 72.4901 84.8 73.5701C85.19 73.6001 85.57 73.6201 85.93 73.6201C86.14 73.6201 86.28 73.5801 86.35 73.5001C86.46 73.3701 86.54 72.9701 86.58 72.3201C86.62 71.6501 86.66 70.5201 86.68 68.9201Z" fill="white"/>
<path d="M99.96 61.76L101.63 62.48C101.14 63.98 100.69 65.28 100.26 66.38V76.75C100.26 76.75 100.18 76.85 100.06 76.92C99.94 77 99.77 77.06 99.56 77.12C99.36 77.19 99.17 77.22 98.98 77.22H98.68V68.41C98.05 69.29 97.38 70.05 96.68 70.69L96.46 70.54C97.15 69.44 97.81 68.1 98.44 66.51C99.08 64.92 99.59 63.34 99.96 61.76ZM112.3 65.32V65.8H101.69L101.56 65.32H112.3ZM111.27 67.53V68.01H102.76L102.63 67.53H111.27ZM102.76 70.24L102.63 69.77H111.27V70.24H102.76ZM109.05 71.97H110.8V76.6C110.79 76.67 110.62 76.76 110.3 76.87C109.99 76.99 109.71 77.05 109.47 77.05H109.2V75.93H104.27V76.65C104.27 76.74 104.12 76.84 103.82 76.95C103.53 77.07 103.24 77.13 102.94 77.13H102.71V71.97H109.05ZM110.85 63.5H103.02L102.89 63.02H110.85V63.5ZM104.27 75.46H109.2V72.45H104.27V75.46Z" fill="white"/>
<path d="M120.67 68.0601V68.7601C120.37 70.8901 119.86 72.5901 119.14 73.8501C119.89 74.4501 120.83 74.8501 121.94 75.0701C123.05 75.2701 124.5 75.3701 126.3 75.3701C128.72 75.3701 130.34 75.3701 131.15 75.3501V75.5701C130.53 75.7001 130.19 76.1501 130.15 76.9201H126.19C124.27 76.9201 122.72 76.7601 121.54 76.4401C120.36 76.1201 119.39 75.5201 118.63 74.6601C117.89 75.7001 116.9 76.5601 115.67 77.2401L115.52 77.0101C116.56 76.1701 117.38 75.0801 117.97 73.7501C117.4 72.8301 116.94 71.6301 116.59 70.1501L116.81 70.05C117.2 71.25 117.69 72.2301 118.28 72.9801C118.7 71.7601 118.99 70.28 119.15 68.55H117.78C117.72 68.65 117.65 68.7901 117.56 68.9801C117.48 69.1601 117.42 69.29 117.38 69.36C116.97 69.47 116.5 69.4301 115.96 69.2301C116.73 67.6001 117.51 65.7401 118.31 63.6701H115.85L115.7 63.1901H119.81V63.9701C119.28 65.2401 118.67 66.6001 118 68.0701H120.7L120.67 68.0601ZM131.36 65.7501V66.2301H129.11V68.58C129.1 68.65 128.94 68.7401 128.64 68.8501C128.35 68.9501 128.1 69.0001 127.87 69.0001H127.64V68.4301H125.69V70.1401H130.04V70.6201H125.69V72.3701H130.69V72.8501H125.69V74.55C125.69 74.63 125.55 74.72 125.27 74.83C125 74.93 124.74 74.9801 124.47 74.9801H124.15V72.8501H120.45L120.32 72.3701H124.15V70.6201H121.15L121.02 70.1401H124.15V68.4301H121.37L121.22 67.9501H124.15V66.2401H120.19L120.06 65.7601H124.16V64.08H121.4L121.25 63.6001H124.16V61.8L125.69 62.0201V63.6001H129.1V65.7601H131.35L131.36 65.7501ZM125.7 64.0701V65.7501H127.65V64.0701H125.7ZM127.65 67.9501V66.2401H125.7V67.9501H127.65Z" fill="white"/>
<path d="M150.04 63.9301V64.4101H144.55L145.92 64.8401C145.41 65.6601 144.89 66.3001 144.36 66.7701H149.01V75.2801C149.01 75.8901 148.88 76.3401 148.61 76.6301C148.34 76.9301 147.77 77.1201 146.88 77.2101C146.82 76.6801 146.7 76.3201 146.51 76.1301C146.22 75.8501 145.76 75.6701 145.13 75.6001V75.3501C146.18 75.4301 146.83 75.4701 147.08 75.4701C147.33 75.4701 147.45 75.3601 147.45 75.1401V67.2601H144.3V68.6601C144.3 68.8301 144.31 68.9301 144.33 68.9601C144.36 68.9901 144.45 69.0101 144.58 69.0101H145.9C146.06 69.0101 146.16 68.9701 146.2 68.8901C146.28 68.7801 146.39 68.4601 146.53 67.9201H146.75L146.78 68.8501C146.98 68.9401 147.1 69.0101 147.15 69.0701C147.19 69.1101 147.22 69.19 147.22 69.3C147.22 69.84 146.77 70.1201 145.87 70.1201H144.4C143.8 70.1201 143.41 70.0301 143.23 69.8401C143.05 69.6501 142.96 69.24 142.96 68.61V67.2601H141.55C141.32 68.2301 140.88 69.0001 140.23 69.5901C139.59 70.1801 138.7 70.6401 137.58 70.9701L137.5 70.7401C138.95 69.9901 139.8 68.8201 140.03 67.2601H137.27V76.7001C137.27 76.8001 137.13 76.9101 136.84 77.0301C136.56 77.1601 136.27 77.2301 135.96 77.2301H135.71V66.7701H139.82C139.75 66.7501 139.68 66.7001 139.59 66.6201C139.51 65.8901 139.21 65.1801 138.69 64.4901L138.82 64.4101H134.76L134.63 63.9301H141.49V61.8101L143.09 61.9901V63.9201H150.07L150.04 63.9301ZM140.6 66.7801H143.65C143.95 65.9001 144.17 65.1101 144.3 64.4101H138.91C139.38 64.5201 139.76 64.6701 140.08 64.8401C140.4 65.0101 140.63 65.1801 140.76 65.3701C140.89 65.5601 140.97 65.7501 140.99 65.9401C141.02 66.1201 141 66.2801 140.92 66.4401C140.85 66.5801 140.75 66.6901 140.6 66.7701V66.7801ZM145.3 71.6901V75.0901C145.29 75.1501 145.14 75.2201 144.85 75.3201C144.57 75.4101 144.32 75.4501 144.1 75.4501H143.87V74.5201H140.72V75.2201C140.72 75.3001 140.58 75.3901 140.3 75.5001C140.03 75.6101 139.77 75.6701 139.5 75.6701H139.3V71.0401H145.29V71.6901H145.3ZM140.72 74.0401H143.87V71.5301H140.72V74.0401Z" fill="white"/>
</svg>
