<svg width="568" height="270" viewBox="0 0 568 270" fill="none" xmlns="http://www.w3.org/2000/svg">
<path d="M179.585 88.52H160.46V83.585H147.065V88.4H127.94V49.385H113.885V98.165H193.88V116.51H113.885V123.92H94.3702V49.385H76.1602V31.04H94.3702V4.50501L117.785 5.81001C117.65 7.23501 116.615 8.15001 113.885 8.54001V31.04H127.94V1.77501L150.965 2.94501C150.83 4.50501 149.795 5.28501 147.065 5.81001V31.04H160.46V2.94501L183.485 4.11501C183.35 5.67501 182.315 6.45501 179.585 6.98001V31.04H198.575V49.385H179.585V88.535V88.52ZM147.065 66.02H160.46V49.37H147.065V66.02Z" fill="white"/>
<path d="M334.235 61.85H314.855C323.435 69.395 335.015 75.38 347.9 78.89C343.745 82.535 338.15 89.945 335.42 94.76C327.485 92.03 320.195 88.13 313.7 83.315V124.16H294.965V74.855L304.325 75.38C300.17 71.225 296.39 66.665 293.015 61.85H278.45C275.195 66.53 271.295 70.82 267.14 74.855L281.06 75.635C280.925 77.06 279.89 77.975 277.28 78.365V84.485C277.28 97.625 273.38 115.31 247.235 125.33C244.895 121.04 238.91 114.14 235.01 110.9C258.95 102.83 258.95 89.705 258.95 81.89C251.795 87.23 243.86 91.775 235.4 94.895C232.67 90.47 227.21 83.45 223.175 79.805C235.535 76.025 247.37 69.53 255.95 61.85H238.385V4.355H334.25V61.85H334.235ZM256.715 19.445V26.075H275.96V19.445H256.715ZM256.715 39.995V46.76H275.96V39.995H256.715ZM314.99 26.075V19.445H294.44V26.075H314.99ZM314.99 46.76V39.995H294.44V46.76H314.99Z" fill="white"/>
<path d="M484.969 40.775L496.279 45.59C496.024 46.505 495.244 47.54 494.464 48.185C490.819 67.31 484.579 83.57 476.119 96.695C481.969 101.765 488.869 105.8 497.194 108.785C493.414 112.16 488.224 119.315 485.749 124.13C477.559 120.62 470.659 116.06 464.944 110.6C459.874 115.67 454.414 119.96 448.429 123.35C446.089 119.45 440.104 112.82 436.204 109.82C433.999 115.025 431.389 119.705 428.269 123.875C425.404 120.875 418.519 115.295 414.349 112.82C416.689 109.835 418.774 106.445 420.469 102.545L412.144 105.665C411.229 100.985 409.279 94.355 407.329 88.235V123.875H390.934V83.555H390.544C389.509 94.085 387.169 106.58 383.644 114.515C380.269 112.31 374.284 109.7 370.504 108.14C373.489 100.985 375.184 88.76 375.964 77.96L390.919 81.335V72.755C385.849 73.01 381.169 73.4 377.254 73.535C376.864 74.96 375.694 75.485 374.659 75.62L371.284 57.155H380.644C382.339 54.95 384.019 52.73 385.714 50.39C382.069 44.66 376.354 38.165 371.269 33.215L380.119 20.21L382.324 22.16C385.699 15.14 388.954 6.93499 391.039 0.439987L409.114 7.72999C408.589 8.64499 407.164 9.15499 405.214 9.15499C402.229 16.175 397.024 25.67 392.599 32.705C393.514 33.74 394.414 34.91 395.194 35.96C399.484 29.195 403.264 22.295 406.114 16.19L421.459 23.09V7.47499H465.424L469.324 7.21999L478.174 8.77999C478.039 9.81499 477.784 11.12 477.529 12.155C476.359 19.955 474.409 30.5 472.324 41.285H481.954L484.939 40.76L484.969 40.775ZM406.669 56.78C405.634 54.185 404.464 51.575 403.294 49.1C401.209 51.83 399.139 54.44 397.174 56.9L406.669 56.765V56.78ZM407.314 81.89L419.284 77.99C420.979 82.415 422.794 87.485 424.354 92.3C429.559 74.345 430.864 50.675 430.984 24.785H422.659C421.879 25.31 420.844 25.565 419.404 25.565C415.504 32.075 410.164 39.875 404.569 47.42L416.149 42.605C420.964 51.455 425.899 63.02 427.339 70.835L412.894 77.21C412.639 75.395 412.249 73.445 411.589 71.225L407.299 71.615V81.89H407.314ZM453.364 96.845C449.989 91.385 446.989 85.4 444.514 78.89C442.699 90.2 440.089 100.475 436.444 109.19C442.684 105.935 448.414 101.78 453.349 96.83L453.364 96.845ZM448.414 24.785C448.279 28.04 448.279 31.295 448.159 34.535C449.194 41.825 450.634 48.71 452.449 55.085C454.399 45.335 456.484 34.28 458.179 24.77H448.429L448.414 24.785ZM453.874 60.035C456.469 68.495 459.859 76.16 464.284 82.925C468.574 75.77 472.084 67.445 474.559 58.085H468.964L468.184 61.73L453.874 60.035Z" fill="white"/>
<path d="M11.2694 180.83C18.1694 183.425 27.3944 187.985 31.8194 191.885L20.7644 207.11C16.7294 203.21 7.87937 197.87 0.859375 194.75L11.2694 180.83ZM2.80938 258.095C7.62438 247.82 14.1194 231.56 19.2044 215.945L34.5494 225.695C30.2594 239.615 25.4444 253.4 21.2744 263.54C22.1894 264.575 22.5794 265.625 22.5794 266.525C22.5794 267.305 22.4444 267.95 22.0544 268.475L2.80938 258.065V258.095ZM16.0844 146.36C23.1044 149.09 32.3444 153.905 36.8894 157.94L25.6994 173.03C21.6644 168.995 12.5594 163.4 5.53938 160.16L16.0694 146.375L16.0844 146.36ZM121.579 149.48V250.94C121.579 264.335 117.544 269.93 98.0294 269.93C97.3844 265.25 94.7744 257.06 92.2994 252.635C96.3344 252.89 100.759 252.89 102.184 252.89C103.744 252.89 104.269 252.245 104.269 250.55V227.66H95.2994C93.3494 243.005 88.7894 258.485 79.0394 269.285C76.0544 266.42 69.0194 261.605 64.9844 259.79C67.4594 257.06 69.6644 254.06 71.3594 250.82H51.8444V259.28H35.8394V204.785H47.4194V186.71H32.5844V169.67H47.4194V145.61L67.8344 146.78C67.6994 148.085 66.7994 148.865 64.1894 149.375V169.67H77.0594V186.71H64.1894V204.785H75.8894V240.17C79.9244 227.555 80.4344 213.5 80.4344 201.41V149.51H121.534L121.579 149.48ZM59.6594 234.68V220.895H51.8594V234.68H59.6594ZM96.8594 201.38C96.8594 204.5 96.8594 207.62 96.7244 211.01H104.269V196.7H96.8594V201.38ZM104.269 166.13H96.8594V180.05H104.269V166.13Z" fill="white"/>
<path d="M159.545 180.965C166.835 183.695 176.33 188.51 181.13 192.665L169.94 207.89C165.785 203.72 156.41 198.14 149.135 194.885L159.545 180.965ZM151.61 257.315C156.95 247.04 164.36 230.78 170.075 215.165L185.3 225.575C180.35 239.63 174.89 253.28 170.075 263.42C170.99 264.455 171.38 265.505 171.38 266.54C171.38 267.32 171.125 267.965 170.855 268.625L151.61 257.315ZM187.505 158.195L176.315 173.15C172.025 168.86 162.665 163.13 155.24 159.62L165.77 145.835C173.06 148.82 182.675 153.635 187.49 157.925V156.11H219.485V145.31L241.73 146.48C241.595 147.905 240.56 148.82 237.965 149.21V156.11H271.13V180.17H253.7V169.64H204.14V180.17H187.49V158.195H187.505ZM265.805 249.11H255.92C262.94 252.23 269.84 255.485 274.385 257.96L260.075 269.015C253.955 265.25 243.17 259.265 233.675 254.96L239.66 249.11H221.195L229.385 255.095C228.86 255.62 227.96 255.875 227.045 255.875C220.025 260.81 205.97 266.285 194.39 269.015C192.05 265.37 187.625 259.775 184.37 256.265C191.39 254.705 199.325 251.975 205.835 249.11H197.255V221.015C194.915 221.54 192.44 222.05 190.1 222.44C188.285 218.675 183.86 211.52 180.995 208.13C186.455 207.35 191.915 206.435 197.255 205.4V202.67C195.95 203.195 194.66 203.705 193.355 204.095C191.15 200.72 186.725 195.515 183.335 192.515C190.88 190.31 198.95 185.885 203.75 181.85L207.53 184.19V173.525H250.325V183.545C250.85 183.155 251.24 182.765 251.75 182.24L269.57 190.565C268.79 191.48 267.365 191.99 265.415 191.735C261.26 195.5 256.445 199.025 250.97 202.145H265.805V249.095V249.11ZM218.33 190.835C217.805 191.615 216.905 192.005 215.345 191.87C211.31 195.245 204.935 199.28 198.305 202.145H210.92C214.04 201.365 217.04 200.45 219.89 199.415V186.41H211.175L218.33 190.835ZM214.685 227H247.595V224.135H214.685V227ZM247.595 236.24H214.685V239.225H247.595V236.24ZM247.595 212.045H229.52C226.79 213.08 224.06 213.995 221.195 214.91H247.595V212.045ZM237.185 186.425V192.41C240.83 190.595 244.085 188.645 246.935 186.425H237.185Z" fill="white"/>
<path d="M368.959 156.245H415.654V186.935H396.799V171.98H321.874V186.935H303.919V156.245H349.444V145.19L372.859 146.495C372.724 147.92 371.689 148.835 368.959 149.225V156.245ZM312.124 268.895V221.675H407.464V268.895H388.729V266.42H329.929V268.895H312.109H312.124ZM322.924 218.69V190.34H396.019V218.69H322.924ZM326.434 174.98H392.644V187.34H326.434V174.98ZM349.714 235.07H329.944V238.445H349.714V235.07ZM329.944 253.025H349.714V249.515H329.944V253.025ZM340.084 202.295V206.72H377.674V202.295H340.084ZM388.729 238.46V235.085H368.179V238.46H388.729ZM368.179 253.025H388.729V249.515H368.179V253.025Z" fill="white"/>
<path d="M567.44 215.69H530.375V223.88H558.47V269.015H539.48V265.505H502.145V269.015H484.07V223.88H511.385V215.69H478.34V208.01H478.205C476.9 228.815 473.135 253.145 461.945 269.405C458.3 266.285 449.855 261.335 445.04 259.52C458.69 240.005 459.74 210.62 459.74 189.935V151.43H560.15V190.055H534.26C534.125 191.615 532.955 192.395 530.36 192.92V198.905H567.425V215.69H567.44ZM478.865 190.07C478.865 192.8 478.865 195.8 478.73 198.92H511.385V190.07H478.865ZM541.04 167.825H478.865V173.675H541.04V167.825ZM539.48 249.125V240.275H502.145V249.125H539.48Z" fill="white"/>
</svg>
