<svg width="378" height="62" viewBox="0 0 378 62" fill="none" xmlns="http://www.w3.org/2000/svg">
<path d="M346.981 0.530029H30.4506C13.7109 0.530029 0.140625 14.1003 0.140625 30.8401C0.140625 47.5798 13.7109 61.1501 30.4506 61.1501H346.981C363.72 61.1501 377.291 47.5798 377.291 30.8401C377.291 14.1003 363.72 0.530029 346.981 0.530029Z" fill="#FFE900"/>
<path d="M120.28 17.2001L120.77 17.1601L122.04 17.3001L121.98 17.9801C121.73 23.1201 121.49 25.1701 120.92 25.8801C120.33 26.6001 119.65 26.7601 118.03 26.7601C117.66 26.7601 117.25 26.7601 116.84 26.7401C116.8 26.0601 116.53 25.1201 116.16 24.5101C117.06 24.5901 117.96 24.5901 118.39 24.5901C118.64 24.5901 118.8 24.5301 118.96 24.3401C119.29 23.9701 119.49 22.6201 119.66 19.3001H117.74C117.72 19.5901 117.68 19.8701 117.64 20.1201L115.53 19.7901C115.8 17.9901 116.06 15.1601 116.16 12.9501H119.62V10.4301H115.65V8.1601H121.96V15.7201H119.63V15.1101H118.16L117.98 17.2001H120.29H120.28ZM134.74 21.9101V23.9201H129.58V26.7901H127.25V23.9201H122.17V21.9101H127.25V20.9101H123.36V13.5801H133.6V20.9101H129.59V21.9101H134.75H134.74ZM128.04 7.88013V12.7501H122.88V7.88013H128.04ZM125.97 11.1201V9.52014H124.84V11.1201H125.97ZM125.48 15.3601V16.4001H127.24V15.3601H125.48ZM125.48 19.1101H127.24V18.0701H125.48V19.1101ZM134.12 7.89014V12.7201H128.92V7.89014H134.12ZM131.36 16.4101V15.3701H129.58V16.4101H131.36ZM131.36 19.1101V18.0701H129.58V19.1101H131.36ZM132.06 11.0601V9.52014H130.87V11.0601H132.06Z" fill="#30009D"/>
<path d="M143.931 16.4802C144.561 15.3102 144.851 13.2902 144.891 11.5902L146.811 11.8402C146.831 13.7602 146.501 16.0402 145.771 17.4702L143.931 16.4902V16.4802ZM158.591 23.7702H163.401V26.1202H150.911V23.7702H156.131V19.9402H152.341V17.6902H156.131V14.1902H153.921C153.611 15.2102 153.261 16.1602 152.861 16.9102C152.391 16.5402 151.451 16.0302 150.851 15.7602C151.121 15.2702 151.361 14.6502 151.591 13.9602L150.611 14.6202C150.361 14.0502 149.871 13.2302 149.381 12.4502V26.7602H146.961V7.4502L149.911 7.61017C149.891 7.82017 149.731 7.94018 149.381 8.00018V11.2402L150.421 10.6102C150.911 11.2702 151.481 12.0802 151.891 12.7602C152.221 11.4102 152.441 9.87021 152.611 8.40021L155.401 8.97015C155.361 9.13015 155.191 9.24017 154.911 9.24017C154.811 10.1002 154.661 11.0002 154.481 11.8802H156.141V7.46021L159.131 7.62018C159.111 7.85018 158.971 7.95015 158.601 8.03015V11.8802H162.881V14.1902H158.601V17.6902H162.141V19.9402H158.601V23.7702H158.591Z" fill="#30009D"/>
<path d="M181.07 23.5103H177.94V26.7902H175.91V23.5103H172.69V21.3602H175.91V20.1302H173.33V12.6602H175.89V11.5703H172.98V9.44025H175.89V7.47021L178.41 7.61023C178.39 7.79023 178.27 7.92027 177.92 7.96027V9.43024H180.85V11.5602H177.92V12.6503H180.64V20.1202H177.94V21.3502H181.07V23.5002V23.5103ZM175.03 14.3802V15.5903H176.14V14.3802H175.03ZM175.03 17.2103V18.4402H176.14V17.2103H175.03ZM178.86 15.5903V14.3802H177.71V15.5903H178.86ZM178.86 18.4402V17.2103H177.71V18.4402H178.86ZM187.77 24.2103H192.09V26.2802H180.93V24.2103H185.31V21.1202H181.87V19.0502H191.43V21.1202H187.76V24.2103H187.77ZM185.03 11.2103C184.99 11.3703 184.85 11.4803 184.58 11.4603C184.25 12.2203 183.62 13.5302 183.04 14.5502C183.84 15.7402 184.6 17.1103 184.96 18.0103C184.92 18.0303 184.88 18.0503 183.06 18.7703C182.69 17.6403 181.87 16.0503 180.95 14.5703C181.65 13.3003 182.36 11.7402 182.75 10.7202L185.02 11.2103H185.03ZM191.79 8.30023V10.3702H181.41V8.30023H191.79ZM186.49 18.7003C186.08 17.5903 185.2 16.0202 184.18 14.5402C184.92 13.2702 185.7 11.7303 186.08 10.7103L188.37 11.2003C188.31 11.3803 188.16 11.4702 187.9 11.4702C187.55 12.2102 186.9 13.5003 186.3 14.5203C187.14 15.6703 187.98 17.0202 188.37 17.9202L186.49 18.7003ZM189.99 18.7603C189.54 17.6303 188.58 16.0402 187.49 14.5602C188.29 13.2902 189.11 11.7303 189.56 10.7103L191.85 11.2402C191.81 11.4002 191.65 11.4902 191.4 11.4902C191.01 12.2302 190.29 13.5202 189.68 14.5402C190.56 15.6902 191.46 17.0602 191.89 17.9802L189.99 18.7603Z" fill="#30009D"/>
<path d="M207.101 21.0702C207.711 21.4402 209.431 22.7102 209.841 23.0602L208.551 24.6802C208.241 24.2702 207.671 23.6402 207.101 23.0602V26.8102H204.911V23.1002C204.231 24.0602 203.481 24.9402 202.721 25.5402C202.371 25.0502 201.721 24.3102 201.251 23.9002C202.441 23.1602 203.731 21.8502 204.611 20.5002H201.851V18.6402H204.921V17.2702L203.021 17.3502C203.001 17.4902 202.861 17.6002 202.711 17.6202L202.141 15.8402L203.551 15.8202C203.711 15.5502 203.861 15.2502 204.001 14.9402H201.811V13.5302H203.431V8.0202H211.521V9.43018H205.661V10.0002H210.861V11.1902H205.661V11.7602H210.861V12.9502H205.661V13.5202H212.321V14.9302H210.331C211.031 15.5902 211.741 16.3802 212.091 16.9802L210.491 17.7602C210.371 17.5302 210.181 17.2702 209.981 17.0002L207.581 17.1202C207.541 17.2602 207.401 17.3502 207.111 17.4102V18.6402H209.631V20.5002H207.111V21.0702H207.101ZM208.981 14.9302H206.071C205.931 15.1802 205.741 15.4802 205.541 15.7902L208.841 15.7102C208.681 15.5502 208.491 15.3802 208.331 15.2402L208.991 14.9302H208.981ZM213.031 17.2902H217.511C218.021 18.8302 219.311 20.1802 220.831 20.8502C220.421 21.2602 219.791 22.1002 219.501 22.6302C218.071 21.8102 216.841 20.5002 216.121 19.0902H213.091C212.521 20.4002 211.531 21.7902 210.431 22.6502C210.081 22.2602 209.411 21.6102 208.961 21.3002C209.961 20.5802 210.821 19.3302 211.271 18.0402L213.031 18.5302V17.2802V17.2902ZM216.571 24.0702C216.261 23.6602 215.961 23.2702 215.651 22.9002L217.371 22.1002C218.411 23.2302 219.521 24.7802 219.951 25.9102L218.111 26.7902C218.011 26.4802 217.841 26.1602 217.661 25.8102C215.041 25.9702 212.461 26.1202 210.701 26.2002C210.661 26.3802 210.491 26.4902 210.351 26.5302L209.571 24.2202C210.201 24.2202 210.941 24.2202 211.741 24.2002C212.251 23.1202 212.781 21.7002 213.071 20.6202L215.691 21.3602C215.611 21.5002 215.441 21.6102 215.161 21.6102C214.851 22.3702 214.401 23.3102 213.951 24.1702L216.571 24.0902V24.0702ZM220.691 13.9502C220.631 14.0902 220.461 14.1702 220.221 14.1702C218.721 15.6002 216.021 16.6102 213.011 17.2002C212.761 16.6702 212.251 15.9702 211.821 15.5202C214.441 15.1702 217.061 14.3902 218.331 13.1902L220.681 13.9502H220.691ZM219.501 8.67017C219.441 8.77017 219.271 8.85016 219.031 8.85016C217.661 9.71016 215.281 10.6902 213.441 11.2502C213.091 10.8002 212.541 10.2102 212.031 9.82019C213.731 9.35019 216.081 8.49017 217.311 7.67017L219.501 8.67017ZM220.091 11.2702C220.031 11.4102 219.891 11.4702 219.641 11.4702C218.271 12.5602 215.891 13.5002 213.661 14.0702C213.351 13.6002 212.821 12.9602 212.351 12.5502C214.341 12.1402 216.671 11.3602 217.861 10.4202L220.091 11.2602V11.2702Z" fill="#30009D"/>
<path d="M232.961 16.28C232.331 17.18 231.671 18.0001 230.991 18.7401C230.741 18.1301 230.131 16.8401 229.761 16.2601C231.641 14.3101 233.571 10.89 234.721 7.54004L237.511 8.50006C237.451 8.68006 237.261 8.77006 236.941 8.75006C236.411 10.0801 235.811 11.4101 235.141 12.6801L235.941 12.9001C235.901 13.0801 235.741 13.2101 235.411 13.2501V26.79H232.971V16.29L232.961 16.28ZM249.401 11.92V14.36H247.001V23.86C247.001 26.3 246.221 26.8701 241.411 26.8301C241.311 26.1501 240.901 25.0501 240.551 24.3701C241.451 24.4101 242.391 24.4301 243.071 24.4301C244.421 24.4301 244.521 24.43 244.521 23.86V14.36H236.621V11.92H244.521V7.70007L247.551 7.84009C247.531 8.05009 247.411 8.19004 247.001 8.23004V11.92H249.401ZM240.191 21.8301C239.761 20.5001 238.591 18.4101 237.511 16.8701L239.661 15.8301C240.771 17.3301 242.011 19.29 242.511 20.66L240.201 21.8301H240.191Z" fill="#30009D"/>
<path d="M92.1206 50.5502C92.1206 51.3002 92.1206 51.3802 92.3006 51.3802C92.5506 51.3802 92.5806 51.3802 92.6506 51.2802C92.8306 51.0302 92.8306 48.9502 92.8306 47.7202C93.4306 48.2702 94.5606 48.8502 95.3906 49.1302C95.2706 52.2402 95.1406 54.3502 92.6306 54.3502H91.2506C90.6006 54.3502 89.8706 54.1002 89.4206 53.6002C88.9406 53.1002 88.7406 52.4702 88.7406 50.5602V47.2002C87.9906 49.8302 86.7306 52.3702 84.7006 54.3502C84.0206 53.7002 82.5406 52.6402 81.6106 52.1902C82.3106 51.5402 82.9106 50.8302 83.4406 50.0802L81.2606 51.2302C80.9606 50.4002 80.3306 49.2502 79.7006 48.1902V50.7702C79.7006 53.2302 79.0706 54.3102 75.3406 54.3102C75.2406 53.4602 74.8606 52.2802 74.4906 51.4002C74.1606 52.0302 73.7906 52.6002 73.4106 53.0802C72.8806 52.4802 71.7806 51.3502 71.1006 50.8202C71.9306 49.6902 72.5306 47.7802 72.8606 46.0302L76.1506 46.9602V45.5302H72.8106V37.6002H82.9706V45.5302H79.7106V47.0402L81.9906 45.9602C82.7406 46.9102 83.5006 48.1702 84.0006 49.1702C85.6306 46.2602 86.1606 42.8202 86.3106 39.9102H84.0006V36.7702H71.4306V33.4102H76.1006V30.4202L80.5706 30.6502C80.5406 30.9502 80.3406 31.1002 79.8206 31.2002V33.4102H84.2106V36.4502H86.3706V30.4302L90.6606 30.6602C90.6306 30.9402 90.4106 31.1102 89.9106 31.1902V36.4602H95.2006V39.9202H89.8606C89.8306 40.2502 89.8306 40.6002 89.8106 40.9202L92.8706 41.1002C92.8406 41.3802 92.6406 41.5302 92.1406 41.6002V50.5602L92.1206 50.5502ZM75.8106 51.0002C76.0606 51.0002 76.1406 50.9202 76.1406 50.7002V47.4102H75.9906C75.6906 48.5602 75.2406 49.8402 74.6906 51.0002H75.8206H75.8106ZM76.1606 40.6702V42.5002H79.3506V40.6702H76.1606ZM92.9206 30.8602C93.9506 32.0402 94.8806 33.6402 95.2806 34.8202L92.2706 36.2502C91.9406 35.1002 91.0406 33.3702 90.0906 32.1102L92.9206 30.8602Z" fill="#30009D"/>
<path d="M120.451 48.6702V50.5002C121.431 50.5502 121.981 50.5502 123.811 50.5502C125.921 50.5502 128.901 50.5202 130.461 50.4702C129.961 51.2702 129.431 52.8802 129.261 53.9302H121.911C117.521 53.9302 114.461 53.3502 112.331 50.6702C111.451 52.1302 110.301 53.3502 108.921 54.2602C108.391 53.5802 107.161 52.3802 106.391 51.8002C108.821 50.4202 110.301 47.7102 110.861 44.5302L115.001 45.3302C114.921 45.5602 114.701 45.7102 114.321 45.7302C114.191 46.2302 114.071 46.7302 113.921 47.2102C114.551 48.5102 115.501 49.3202 116.701 49.7902V44.1702H107.391V40.9802H129.641V44.1702H120.461V45.5202H128.061V48.6602H120.461L120.451 48.6702ZM127.151 31.2102V40.1902H110.421V31.2102H127.151ZM123.441 34.5202V33.7202H113.931V34.5202H123.441ZM123.441 37.6802V36.8502H113.931V37.6802H123.441Z" fill="#30009D"/>
<path d="M165.281 47.1403H160.391C159.861 48.0903 159.241 48.9002 158.561 49.6202C160.741 50.2202 162.721 50.8202 164.251 51.3502L162.091 54.3102C160.281 53.6102 157.901 52.7802 155.241 51.9802C152.461 53.3302 148.821 53.9602 143.931 54.3602C143.651 53.3102 143.101 52.0302 142.551 51.2502C145.461 51.1502 147.891 50.9503 149.951 50.5203L148.771 50.2202L148.671 50.3702L145.131 49.3203C145.611 48.6903 146.161 47.9403 146.711 47.1403H141.891V44.2302H148.661C148.961 43.7302 149.261 43.2503 149.561 42.7703H144.021V35.3702H149.161V34.3702H142.061V31.2302H165.091V34.3702H157.741V35.3702H163.131V42.7703H154.281C154.151 43.0003 153.931 43.1202 153.451 43.1002L152.751 44.2302H165.271V47.1403H165.281ZM147.441 38.2103V39.9702H149.171V38.2103H147.441ZM150.901 47.1403L150.601 47.5903L154.661 48.5703C155.211 48.1703 155.711 47.6903 156.141 47.1403H150.901ZM152.611 34.3702V35.3702H154.321V34.3702H152.611ZM152.611 39.9603H154.321V38.2003H152.611V39.9603ZM159.511 38.2003H157.751V39.9603H159.511V38.2003Z" fill="#30009D"/>
<path d="M200.681 34.8302C200.681 34.9802 200.381 38.2202 199.601 41.3002L198.021 41.0202C199.321 43.6302 200.451 46.9102 200.851 49.2202L197.361 50.5002C197.061 48.1902 195.931 44.6102 194.681 41.9702L197.591 40.9402L196.511 40.7402C196.591 40.0402 196.711 39.1102 196.811 38.1302H194.601V50.3202C194.601 52.7002 194.201 54.3102 189.381 54.3102C189.231 53.2602 188.681 51.6302 188.151 50.6502C189.131 50.6702 190.181 50.6702 190.531 50.6702C190.861 50.6702 190.981 50.5902 190.981 50.2702V38.1302H188.901C188.401 39.2302 187.851 40.2602 187.241 41.1702L190.931 42.1202C190.851 42.3502 190.601 42.4702 190.251 42.4702C189.521 45.3302 188.291 48.5702 186.841 50.6002C186.161 50.0502 184.831 49.2502 184.011 48.8202C185.241 47.1902 186.321 44.3802 186.901 41.7202H186.871C186.641 42.0502 186.421 42.3502 186.171 42.6502C185.591 42.0502 184.391 41.0202 183.591 40.4402V54.3102H179.981V43.4702C179.551 44.0702 179.131 44.6202 178.701 45.1502C178.251 44.3202 177.171 42.6702 176.541 41.8902C178.751 39.3802 180.901 34.7902 182.161 30.4502L186.301 31.7302C186.201 31.9802 185.921 32.1102 185.521 32.0802C184.871 33.9402 184.121 35.8202 183.291 37.6202L184.341 37.8702C184.291 38.1502 184.061 38.3502 183.591 38.4002V40.1102C185.401 37.9002 186.881 34.1402 187.651 30.5302L191.841 31.6302C191.761 31.8602 191.511 32.0102 191.111 31.9802C190.861 32.9102 190.581 33.8402 190.261 34.7602H198.711L200.671 34.8102L200.681 34.8302Z" fill="#30009D"/>
<path d="M222.231 50.5302H218.571V54.2703H215.581V50.5302H211.841V47.3702H215.581V46.1902H212.601V36.8602H215.561V35.8102H212.221V32.7003H215.561V30.4902L219.201 30.6902C219.181 30.9402 219.001 31.0902 218.521 31.1702V32.7003H221.931V35.8102H218.521V36.8602H221.711V46.1902H218.571V47.3702H222.231V50.5302ZM215.061 39.3403V40.3403H215.941V39.3403H215.061ZM215.061 42.6802V43.7103H215.941V42.6802H215.061ZM219.121 40.3502V39.3502H218.221V40.3502H219.121ZM219.121 43.7103V42.6802H218.221V43.7103H219.121ZM227.301 35.2603C227.251 35.4603 227.071 35.5903 226.721 35.5903C226.341 36.5203 225.641 38.0502 225.011 39.2802C225.941 40.6902 226.821 42.2703 227.241 43.3403L224.461 44.4202C224.031 43.0402 223.081 41.1102 221.981 39.3002C222.781 37.7502 223.611 35.8603 224.041 34.5803L227.301 35.2603ZM230.841 50.6602H235.781V53.7003H222.231V50.6602H227.171V47.5203H223.261V44.4802H235.001V47.5203H230.841V50.6602ZM235.381 31.3702V34.4102H222.611V31.3702H235.381ZM228.611 44.3102C228.111 42.9602 227.081 41.0502 225.851 39.2402C226.731 37.6802 227.611 35.8503 228.061 34.5703L231.351 35.2502C231.271 35.4802 231.101 35.6002 230.751 35.6002C230.351 36.5002 229.621 37.9803 228.941 39.2103C229.941 40.5603 230.901 42.1203 231.371 43.2003L228.611 44.3002V44.3102ZM232.851 44.4102C232.301 43.0302 231.171 41.1002 229.871 39.2902C230.821 37.7402 231.781 35.8503 232.301 34.5703L235.591 35.3002C235.541 35.5002 235.341 35.6302 235.011 35.6302C234.561 36.5302 233.761 38.0403 233.031 39.2703C234.081 40.6303 235.111 42.2102 235.611 43.2802L232.851 44.4102Z" fill="#30009D"/>
<path d="M254.34 47.3403C255.04 47.7703 257.05 49.1702 257.55 49.6002L255.67 51.9802C255.37 51.5502 254.87 50.9302 254.34 50.3502V54.3102H251.13V50.6002C250.48 51.5002 249.75 52.3102 249.02 52.9102C248.52 52.1802 247.54 51.0802 246.86 50.5002C248.21 49.6702 249.62 48.2903 250.65 46.8403H247.61V44.1302H251.12V42.8002L249.06 42.8802C249.03 43.0802 248.86 43.2102 248.68 43.2302L247.88 40.7202H249.61C249.74 40.4402 249.89 40.1403 250.01 39.8403H247.55V37.8602H249.41V31.0402H259.49V33.0203H252.69V33.5502H258.66V35.1802H252.69V35.7103H258.66V37.3403H252.69V37.8702H260.42V39.8502H258.34C259.14 40.6302 259.9 41.5602 260.27 42.2802L257.94 43.3602C257.82 43.1102 257.64 42.8102 257.41 42.4802L254.85 42.6102C254.75 42.7102 254.57 42.7602 254.32 42.8102V44.1403H257.1V46.5703C257.93 45.6903 258.58 44.5602 258.96 43.4102L261.32 44.0602V42.5803H261.4C261.02 41.8003 260.32 40.8203 259.69 40.2003C262.78 39.8203 265.86 38.9503 267.37 37.5703L270.78 38.6503C270.7 38.8303 270.5 38.9503 270.15 38.9503C268.34 40.6803 265.33 41.8603 261.8 42.5903H266.99C267.59 44.3203 269.12 45.8502 270.98 46.6302C270.38 47.2302 269.45 48.4602 269.05 49.2402C267.34 48.2602 265.91 46.8102 265.01 45.2302H261.5C260.77 46.7602 259.67 48.3203 258.36 49.3203C257.86 48.7703 256.85 47.8102 256.2 47.3602C256.43 47.2102 256.63 47.0302 256.83 46.8602H254.32V47.3602L254.34 47.3403ZM256.32 39.8403H253.31C253.23 39.8703 253.13 39.8702 253.03 39.8702C252.88 40.1202 252.7 40.4003 252.5 40.7003L255.91 40.6503C255.76 40.5003 255.63 40.3502 255.48 40.2202L256.31 39.8403H256.32ZM265.23 50.6002C264.95 50.2202 264.7 49.8702 264.43 49.5502L266.96 48.3702C268.16 49.7502 269.47 51.6303 269.95 53.0103L267.24 54.3102C267.11 53.9602 266.96 53.5602 266.74 53.1302C263.7 53.3602 260.72 53.5302 258.64 53.6302C258.59 53.8602 258.39 53.9802 258.19 54.0302L257.06 50.7202C257.86 50.7202 258.79 50.7202 259.79 50.6902C260.34 49.4102 260.87 47.8602 261.17 46.6302L265.01 47.6802C264.91 47.8802 264.68 48.0103 264.28 48.0103C263.95 48.8103 263.5 49.7403 263.05 50.6403L265.23 50.5903V50.6002ZM269.49 32.1902C269.41 32.3402 269.19 32.4402 268.86 32.4402C267.2 33.4702 264.32 34.6503 262.09 35.3203C261.61 34.6703 260.79 33.7903 260.03 33.2103C262.04 32.6803 264.9 31.6802 266.3 30.7302L269.49 32.1902ZM270.12 35.4003C270.04 35.5703 269.84 35.6802 269.52 35.6802C267.84 37.0102 264.95 38.1603 262.2 38.8403C261.77 38.1603 261 37.2302 260.29 36.6302C262.67 36.1802 265.51 35.2802 266.89 34.1702L270.13 35.4003H270.12Z" fill="#30009D"/>
<path d="M302.83 49.8802H299.12C301.63 50.7602 304.36 51.7902 306.04 52.5402L302.03 54.3202C300.55 53.4902 297.79 52.2602 295.11 51.3302L297.42 49.8702H290.55L293.38 51.2802C293.28 51.4002 293.1 51.4802 292.88 51.4802C292.8 51.4802 292.7 51.4802 292.63 51.4602C290.57 52.5102 287.46 53.6702 284.8 54.3702C284.2 53.6702 283.04 52.4602 282.32 51.8602C284.63 51.4102 287.19 50.6602 288.92 49.8802H285.71V38.7902H302.84V49.8802H302.83ZM304.26 31.4402V38.0602H284.04V31.4402H304.26ZM289.79 35.4002V34.1002H287.41V35.4002H289.79ZM289.21 41.0202V41.8202H299.14V41.0202H289.21ZM289.21 43.9002V44.7302H299.14V43.9002H289.21ZM289.21 46.8102V47.6402H299.14V46.8102H289.21ZM295.21 35.4002V34.1002H292.8V35.4002H295.21ZM300.73 35.4002V34.1002H298.22V35.4002H300.73Z" fill="#30009D"/>
</svg>
