<svg width="390" height="59" viewBox="0 0 390 59" fill="none" xmlns="http://www.w3.org/2000/svg">
<path d="M359.839 0.0151367H29.4494C13.2206 0.0151367 0.0644531 13.1712 0.0644531 29.4001C0.0644531 45.629 13.2206 58.7851 29.4494 58.7851H359.839C376.068 58.7851 389.224 45.629 389.224 29.4001C389.224 13.1712 376.068 0.0151367 359.839 0.0151367Z" fill="white"/>
<path d="M127.894 5.94016H29.8845C16.9361 5.94016 6.43945 16.4368 6.43945 29.3852V29.4001C6.43945 42.3484 16.9361 52.8451 29.8845 52.8451H127.894C140.843 52.8451 151.339 42.3484 151.339 29.4001V29.3852C151.339 16.4368 140.843 5.94016 127.894 5.94016Z" fill="#FFE900"/>
<path d="M31.1292 31.9351L33.2591 31.1851L33.9941 34.5751C31.3541 35.8201 28.5492 37.0202 26.6742 37.8152C26.6442 38.1152 26.4642 38.3251 26.2092 38.4151L24.5142 34.1251C25.3542 33.8851 26.3741 33.5551 27.4991 33.1801V26.0701H25.1591V22.3801H27.4991V16.2901L31.9242 16.5302C31.8942 16.8302 31.6841 16.9951 31.1441 17.0701V22.3801H33.4391V26.0701H31.1441V31.9501L31.1292 31.9351ZM38.9442 35.8651C38.9442 37.5151 39.1241 37.6951 40.7141 37.6951H45.2441C46.6391 37.6951 46.9091 37.1551 47.1641 34.5751C48.0041 35.1451 49.5041 35.7601 50.5541 35.9701C50.0891 39.8551 48.9641 41.1751 45.6191 41.1751H40.3391C36.3191 41.1751 35.2241 40.0501 35.2241 35.8651V29.5652L33.4242 30.3451L31.9692 26.8651L35.2241 25.4851V18.7201L39.7241 18.9601C39.6941 19.2601 39.4842 19.4252 38.9442 19.5302V23.8951L40.3992 23.2802V16.0051L44.8391 16.2451C44.8091 16.5451 44.5992 16.7101 44.0592 16.7851V21.7201L45.9792 20.9101L46.7591 20.4001L49.8342 21.5102C49.7592 21.6752 49.5942 21.8551 49.3542 21.9901C49.3542 27.1951 49.2942 29.9851 49.2192 31.1251C49.1142 33.6601 47.4941 34.1101 44.9141 34.1101C44.8091 33.1351 44.5092 31.6651 44.1042 30.8701C44.4492 30.9001 44.9141 30.9001 45.1241 30.9001C45.3941 30.9001 45.5291 30.8252 45.5891 30.4202C45.6491 30.0902 45.6492 28.5602 45.6492 25.0652L44.0891 25.7401V35.1902H40.4291V27.3301L38.9741 27.9451V35.8651H38.9442Z" fill="#2E318B"/>
<path d="M73.6398 27.7951L76.0848 28.68C76.0248 28.92 75.8898 29.01 75.7548 29.16C75.0798 31.965 73.9548 34.275 72.3798 36.165C73.8648 37.02 75.6198 37.65 77.6298 38.055C76.7748 38.895 75.6048 40.5 75.0648 41.58C72.8598 40.98 70.9998 40.125 69.4098 38.97C67.8798 40.095 66.0648 40.9951 64.0548 41.6701C63.6198 40.6501 62.6748 39.03 61.9248 38.22C63.6798 37.755 65.2398 37.095 66.5898 36.195C65.6148 34.95 64.8048 33.5251 64.1148 31.9051L65.9748 31.425H63.3948V27.9H64.1448C63.6348 27.3 62.8848 26.61 62.3148 26.145V26.25H57.3798V27.8701H62.5548V31.485H57.3798V33.555L63.1998 32.91L63.3348 36.195C61.3098 36.54 59.2398 36.8701 57.3798 37.1701V41.595H53.6598V37.74L53.1948 37.8151C53.1348 38.0851 52.8948 38.2501 52.6848 38.2951L51.4248 34.14C52.0998 34.08 52.8498 34.005 53.6598 33.93V17.955L55.6548 18.57C57.5448 17.865 59.4198 16.92 60.6348 16.035L64.0248 18.8851C63.8898 19.0501 63.5898 19.05 63.2448 19.05C61.7148 19.89 59.5248 20.745 57.3648 21.39V22.6351H62.2998V25.605C64.4898 24.255 64.6998 22.485 64.6998 20.805V16.9201H73.9098V23.115C73.9098 23.895 73.9098 23.97 74.1198 23.97C74.4648 23.97 74.4948 23.97 74.5698 23.895C74.7648 23.76 74.7798 23.355 74.8398 21.36C75.4848 21.93 76.7748 22.575 77.7198 22.89C77.5248 25.185 77.3898 27.06 74.6148 27.06H73.0848C72.3498 27.06 71.4948 26.7901 71.0148 26.2801C70.5048 25.7401 70.2648 25.065 70.2648 23.205V20.2951H68.2698C68.2698 22.3201 68.2698 25.6801 65.4198 27.8701H72.9648L73.6098 27.765L73.6398 27.7951ZM67.7448 31.425C68.1948 32.28 68.7348 33.075 69.3798 33.765C69.9948 33.06 70.5048 32.28 70.9398 31.425H67.7298H67.7448Z" fill="#2E318B"/>
<path d="M104.194 36.9001H100.909C102.169 37.8451 103.654 38.9701 104.464 39.8101L101.584 41.6101C100.699 40.6201 98.7487 38.9701 97.2937 37.8601L98.9437 36.8852H95.0587L96.7237 37.8601C96.6487 37.9651 96.4837 38.0551 96.2887 38.0701C95.3437 39.2251 93.2137 40.8151 91.4137 41.5951C90.8437 40.9801 89.8237 40.0351 89.0437 39.4351C88.4587 41.6101 86.3437 41.6101 84.1387 41.6101C84.0787 40.5601 83.7337 39.1051 83.2237 38.1601C83.8987 38.2351 84.4837 38.2351 84.8737 38.2351C85.1887 38.2351 85.4137 38.1601 85.6237 37.8001C85.9237 37.2901 86.0287 35.2201 86.1037 29.5051H84.6487C84.2737 34.0651 83.4037 38.3701 81.1537 41.5501C80.5387 40.6051 79.3687 39.4201 78.4087 38.8051C81.0187 35.1451 81.1837 29.5651 81.2587 23.5501H78.8287V19.9351H82.6837V16.0051L87.2137 16.2451C87.1837 16.5451 86.9737 16.7102 86.4337 16.8152V19.9351H89.8837V20.5801C90.8287 19.2601 91.5487 17.5951 91.9387 15.9451L95.8387 16.9351C95.7637 17.1451 95.5387 17.2801 95.1637 17.2651C95.0287 17.7001 94.8637 18.1501 94.6987 18.5851H104.179V21.7051H93.1087L92.8687 22.0801L96.3637 22.2751C96.3337 22.5451 96.1237 22.7102 95.6137 22.8152V24.0751H98.3137V22.0351L102.679 22.2751C102.649 22.5451 102.439 22.7402 101.899 22.8152V24.0751H103.834V27.1201H101.899V33.7952H104.194V36.8401V36.9001ZM87.7537 26.0102L89.6587 26.0701C89.6587 26.3701 89.6587 26.8051 89.6287 27.1951C89.5537 34.2301 89.4637 37.6952 89.0587 39.3152C90.3787 38.7452 91.7737 37.8002 92.7787 36.8852H89.8387V33.8401H92.0737V27.1651H90.2137V24.1201H92.0737V23.1301C91.8637 23.4001 91.6237 23.6402 91.3687 23.8502C91.0237 23.5052 90.4237 23.0701 89.8537 22.6651V23.5801H84.9037L84.8287 26.0102H87.7387H87.7537ZM98.3137 27.1651H95.6137V27.7802H98.3137V27.1651ZM98.3137 30.7952V30.1501H95.6137V30.7952H98.3137ZM95.6137 33.1651V33.8401H98.3137V33.1651H95.6137Z" fill="#2E318B"/>
<path d="M115.908 29.5201L114.933 29.6552V38.4601C114.933 40.9051 114.123 41.6401 110.943 41.6401C110.868 40.8301 110.493 39.5402 110.088 38.7602C110.493 38.7902 110.928 38.8201 111.243 38.8201C112.023 38.8201 112.098 38.8201 112.098 38.4151V30.0601L109.533 30.4052C109.473 34.0352 109.128 38.6702 107.598 41.6702C107.088 41.2052 105.843 40.4551 105.168 40.1851C106.458 37.5751 106.728 33.9151 106.788 30.7501L106.458 30.8101C106.398 31.0501 106.158 31.1851 105.948 31.2151L105.273 27.9752L106.788 27.8401V19.5901H109.023C109.203 18.4351 109.368 17.0252 109.428 15.9752L113.448 16.6801C113.373 16.8901 113.118 17.0251 112.713 17.0551C112.503 17.7901 112.203 18.7201 111.903 19.5901H114.918V27.0452L115.803 26.9701L115.878 29.5051L115.908 29.5201ZM111.273 23.0551C111.678 23.9701 112.008 25.1551 112.113 26.0401H112.143L112.113 22.5151H109.548V23.6251L111.273 23.0551ZM109.548 27.6151L112.113 27.3751V26.2952L110.118 26.9701C110.088 26.2201 109.848 25.1102 109.548 24.1352V27.6151ZM112.083 30.8701C112.053 31.0651 111.888 31.2001 111.573 31.2151V36.8251H109.923V30.7351L112.083 30.8701ZM129.618 38.2501H131.133V41.1601H115.233V38.2501H116.748V31.2151H129.618V38.2501ZM118.728 30.2252V30.6002H116.118V16.9202H123.768V19.3502H121.938V20.6101H123.663V23.3551C124.383 21.4951 124.773 18.6901 124.953 16.0501L128.673 16.8001C128.598 17.0101 128.373 17.1751 128.028 17.1751C127.953 17.8951 127.863 18.6301 127.728 19.3801H131.013V22.2901H127.158C126.843 23.5801 126.438 24.7651 125.913 25.7101C125.373 25.2451 124.413 24.6602 123.648 24.2252V26.4601H121.923V27.7201H124.098V30.1951H118.713L118.728 30.2252ZM119.508 19.3351H118.728V20.5951H119.508V19.3351ZM121.098 22.8152H118.728V24.2701H121.098V22.8152ZM119.508 27.7501V26.4901H118.728V27.7501H119.508ZM119.613 34.1101V38.2651H120.318V34.1101H119.613ZM123.438 34.1101H122.733V38.2651H123.438V34.1101ZM124.488 28.9651V26.0551H130.578V28.9651H124.488ZM126.558 34.1101H125.853V38.2651H126.558V34.1101Z" fill="#2E318B"/>
<g filter="url(#filter0_d_70_1747)">
<path d="M173.015 31.3351H170.27V31.9351H172.025V33.7351H167.015V34.2751H172.82V36.1801H167.015V37.9501H164.81V36.1801H159.17V34.2751H164.81V33.7351H160.01V31.9351H161.6V31.3351H158.93V29.4751H161.6V28.9051H160.145V27.1051H171.86V28.9051H170.255V29.4751H173V31.3351H173.015ZM162.185 26.7901V26.3851H159.14V24.4201H162.185V23.4001L164.81 23.5351C164.795 23.7001 164.675 23.8051 164.36 23.8501V24.4201H167.495V23.4001L170.135 23.5351C170.135 23.7001 170 23.8051 169.67 23.8501V24.4201H172.85V26.3851H169.67V26.7901H167.495V26.3851H164.36V26.7901H162.185ZM163.67 28.9201V29.4901H164.825V28.9201H163.67ZM163.67 31.9351H164.825V31.3351H163.67V31.9351ZM168.215 29.4901V28.9201H167.015V29.4901H168.215ZM168.215 31.9351V31.3351H167.015V31.9351H168.215Z" fill="#2E318B"/>
<path d="M189.229 30.6751H187.189C187.894 31.2301 188.689 31.6801 189.559 32.0101C189.064 32.4451 188.404 33.2851 188.089 33.8251C187.504 33.5701 186.964 33.2401 186.469 32.8951C186.034 33.2101 185.299 33.7051 184.849 33.9601L183.499 32.8201C183.949 32.5051 184.534 31.9951 184.969 31.5451C184.729 31.2601 184.474 30.9601 184.249 30.6601H180.184C179.929 30.9901 179.644 31.3351 179.344 31.6651C179.869 32.0401 180.424 32.4601 180.739 32.8051L179.344 34.2151C179.074 33.8701 178.504 33.3601 177.964 32.9401C177.514 33.3001 177.034 33.6451 176.494 33.9601C176.164 33.4501 175.354 32.7301 174.814 32.4451C175.804 31.9201 176.629 31.3051 177.334 30.6601H175.174V28.8751H178.834C178.939 28.7101 179.044 28.5601 179.134 28.3801H176.854V26.7151H179.914C179.974 26.5651 180.019 26.4301 180.064 26.2651H176.059V24.5251H180.499C180.559 24.1501 180.619 23.7751 180.664 23.3851L183.409 23.58C183.379 23.775 183.214 23.8951 182.929 23.9251C182.899 24.1201 182.854 24.3001 182.809 24.5101H188.404V26.2501H182.374C182.329 26.4001 182.269 26.5351 182.224 26.7001H187.819V28.3651H185.134C185.239 28.5301 185.344 28.6951 185.449 28.8601H189.214V30.6451L189.229 30.6751ZM183.244 35.1751L184.144 33.9151C185.584 34.4551 187.354 35.3101 188.449 35.8801L187.279 37.6651C186.304 37.0501 184.609 36.2101 183.229 35.6101V36.0751C183.229 37.6051 182.674 37.9651 180.079 37.9651C179.989 37.4701 179.749 36.81 179.494 36.33C178.624 36.705 177.784 37.0501 177.139 37.2751C177.139 37.4101 177.049 37.5301 176.929 37.5901L175.864 35.5351C177.034 35.2201 178.789 34.6351 180.469 34.0651L180.829 35.7601L179.749 36.2101C180.199 36.2401 180.664 36.2401 180.814 36.2401C181.009 36.2401 181.069 36.1801 181.069 36.0151V31.0951L183.679 31.2001C183.679 31.3501 183.559 31.4701 183.244 31.5151V35.1601V35.1751ZM181.564 28.3951C181.489 28.5601 181.399 28.7101 181.324 28.8901H183.169C183.079 28.7251 183.004 28.5751 182.929 28.3951H181.579H181.564Z" fill="#2E318B"/>
<path d="M205.445 24.7951V26.8051H203.06C203 26.9551 202.865 27.0151 202.595 27.0301C202.46 27.3151 202.295 27.6451 202.1 27.9451H204.83V35.6251C204.83 37.5751 203.96 37.9201 201.26 37.9201C201.2 37.5451 201.05 37.0351 200.885 36.5701H197.42V37.4101H195.455V32.6401C195.29 32.7001 195.125 32.7301 194.93 32.7751C194.825 32.4901 194.6 32.0701 194.33 31.7251V37.9501H192.215V27.9301H194.81C194.69 27.5701 194.555 27.1651 194.39 26.8351L194.645 26.7901H191.495V24.7801H197.195V23.3851L199.955 23.5351C199.94 23.7001 199.82 23.8051 199.49 23.8501V24.7651H205.43L205.445 24.7951ZM194.345 29.8501V31.2301C195.575 30.9751 195.905 30.5551 195.995 29.8501H194.345ZM201.68 32.5351V35.8951H202.355C202.595 35.8951 202.685 35.8201 202.685 35.6101V32.0101C202.505 32.0551 202.28 32.0701 202.04 32.0701H200.885C199.115 32.0701 199.01 31.4101 199.01 29.8651H198.005C198.005 29.8651 197.945 29.8801 197.9 29.8801C197.78 31.0201 197.48 31.9651 195.845 32.5501H201.665L201.68 32.5351ZM196.73 26.8051C196.91 27.1951 197.06 27.6151 197.18 27.9601H199.655C199.805 27.6001 199.94 27.1951 200.075 26.8051H196.73ZM199.685 34.9651V34.1401H197.42V34.9651H199.685ZM201.785 30.4801C201.995 30.4801 202.055 30.4351 202.1 30.3001C202.235 30.3901 202.46 30.4951 202.685 30.5851V29.8501H200.93C200.93 30.4201 200.93 30.4801 201.215 30.4801H201.785Z" fill="#2E318B"/>
<path d="M219.215 30.9751C219.44 30.3001 219.635 29.5801 219.785 28.8451L222.08 29.3701C222.035 29.5051 221.885 29.5951 221.645 29.5951C221.21 31.3951 220.58 33.045 219.725 34.455C219.935 35.355 220.16 35.9101 220.385 35.9101C220.58 35.9101 220.745 35.1601 220.775 33.6601C221.18 34.1701 221.765 34.7101 222.26 34.9651C221.945 37.3801 221.405 37.9651 220.145 37.9651C219.365 37.9651 218.81 37.4101 218.345 36.3451C217.775 36.9601 217.16 37.5001 216.47 37.9351C216.185 37.5601 215.51 36.8701 215.075 36.5401C216.08 35.9401 216.95 35.1301 217.64 34.1251C217.265 32.3401 217.04 30.0751 216.935 27.7801H214.175V29.3401H215.87L216.845 29.3701V29.9401C216.8 33.0751 216.725 34.4251 216.41 34.8601C216.02 35.4001 215.6 35.5351 214.25 35.5351C214.22 35.0251 214.085 34.3501 213.875 33.9001C213.59 35.4301 213.05 36.9601 212.03 38.0551C211.715 37.6501 210.845 36.945 210.41 36.705C211.115 35.94 211.535 35.0101 211.76 34.0201C210.53 34.6051 209.27 35.1901 208.385 35.5351C208.37 35.7001 208.265 35.8201 208.13 35.8651L207.185 33.4351C207.635 33.3151 208.175 33.1351 208.775 32.9251V28.9501H207.56V26.8501H208.775V23.58L211.22 23.7151C211.22 23.8651 211.085 23.9551 210.77 24.0151V26.8501H211.91V28.9501H210.77V32.2651L211.745 31.9201L211.955 32.9251C212.075 32.0551 212.09 31.1851 212.09 30.4051V25.8001H216.8C216.8 25.0051 216.77 24.2251 216.77 23.4601L219.32 23.6101C219.305 23.7751 219.155 23.8651 218.84 23.9101C218.825 24.5101 218.825 25.1551 218.84 25.8001H220.01C219.77 25.3201 219.365 24.7651 219.02 24.3151L220.55 23.4601C221.06 24.0151 221.615 24.7651 221.855 25.3051L220.97 25.8151H221.735V27.8251H218.915C218.975 28.9351 219.035 30.0151 219.14 31.0201H219.155L219.215 30.9751ZM214.175 31.1101C214.16 31.9351 214.085 32.8351 213.935 33.7501C214.175 33.7801 214.37 33.7801 214.52 33.7801C214.67 33.7801 214.775 33.7351 214.88 33.6001C214.985 33.4201 215.03 32.7901 215.06 31.1251H214.19L214.175 31.1101Z" fill="#2E318B"/>
<path d="M225.005 33.0451C226.025 33.8851 227.54 35.4301 228.23 36.2401L226.325 37.9501C225.68 37.0951 224.135 35.3551 223.265 34.5301L224.99 33.0301L225.005 33.0451Z" fill="#2E318B"/>
<path d="M246.32 29.6851H241.04C241.925 32.6101 243.605 34.8151 246.71 35.7901C246.17 36.2851 245.435 37.2901 245.105 37.9501C242.27 36.8701 240.62 34.9801 239.51 32.3401C238.64 34.6051 237.005 36.5851 233.9 37.9501C233.585 37.3201 232.91 36.4951 232.28 35.9851C235.865 34.5451 237.26 32.3251 237.785 29.6701H232.595V27.3601H238.055C238.13 26.0851 238.115 24.7501 238.13 23.4001L241.04 23.58C241.01 23.76 240.86 23.8801 240.56 23.9251C240.56 25.0651 240.515 26.2201 240.455 27.3601H246.305V29.6701L246.32 29.6851Z" fill="#2E318B"/>
<path d="M249.005 23.9401H262.31V37.9651H260.135V37.455H251.09V37.9651H249.005V23.9401ZM251.09 35.4751H260.135V32.7451C260.06 32.8201 259.91 32.8501 259.73 32.8201C259.46 32.9851 259.04 33.2401 258.65 33.4651C259.115 33.6451 259.595 33.7951 260.09 33.9151C259.715 34.2301 259.22 34.8751 258.965 35.2951C258.02 35.0101 257.135 34.5151 256.355 33.9151V35.205H254.405V33.9901C253.685 34.3801 252.92 34.7101 252.17 34.9651C251.945 34.6201 251.42 33.9751 251.105 33.6451C252.23 33.3301 253.4 32.8351 254.33 32.2201H252.365V29.7151H258.71V31.7401L260.12 32.7151V25.9351H251.075V35.4751H251.09ZM259.745 28.1851V29.3851H251.48V28.1851H254.6V27.8101H252.2V26.6401H254.6V26.0251L257.045 26.1601C257.045 26.3101 256.91 26.4001 256.595 26.4601V26.6251H259.01V27.7951H256.595V28.1701H259.73L259.745 28.1851ZM256.805 31.2001V30.7201H254.225V31.2001H256.805ZM256.91 32.2201L256.76 32.3551C256.925 32.5051 257.135 32.6401 257.33 32.7751C257.57 32.6101 257.855 32.4301 258.095 32.2201H256.91Z" fill="#2E318B"/>
<path d="M278.916 24.7952V26.8052H276.531C276.471 26.9552 276.336 27.0152 276.066 27.0302C275.931 27.3152 275.766 27.6452 275.571 27.9452H278.301V35.6252C278.301 37.5752 277.431 37.9202 274.731 37.9202C274.671 37.5452 274.521 37.0352 274.356 36.5702H270.891V37.4102H268.926V32.6402C268.761 32.7002 268.596 32.7301 268.401 32.7751C268.296 32.4901 268.071 32.0702 267.801 31.7252V37.9502H265.686V27.9302H268.281C268.161 27.5702 268.026 27.1652 267.861 26.8352L268.116 26.7902H264.966V24.7802H270.666V23.3852L273.426 23.5352C273.411 23.7002 273.291 23.8052 272.961 23.8502V24.7652H278.901L278.916 24.7952ZM267.816 29.8502V31.2302C269.046 30.9752 269.376 30.5552 269.466 29.8502H267.816ZM275.151 32.5352V35.8952H275.826C276.066 35.8952 276.156 35.8202 276.156 35.6102V32.0102C275.976 32.0552 275.751 32.0702 275.511 32.0702H274.371C272.601 32.0702 272.496 31.4101 272.496 29.8651H271.491C271.491 29.8651 271.431 29.8802 271.386 29.8802C271.266 31.0202 270.966 31.9652 269.331 32.5502H275.151V32.5352ZM270.201 26.8052C270.381 27.1952 270.531 27.6152 270.651 27.9602H273.126C273.276 27.6002 273.411 27.1952 273.546 26.8052H270.201ZM273.156 34.9652V34.1402H270.891V34.9652H273.156ZM275.256 30.4802C275.466 30.4802 275.526 30.4352 275.571 30.3002C275.706 30.3902 275.931 30.4952 276.156 30.5852V29.8502H274.401C274.401 30.4202 274.401 30.4802 274.686 30.4802H275.256Z" fill="#2E318B"/>
<path d="M281.466 23.94H294.771V37.965H292.596V37.455H283.551V37.965H281.466V23.94ZM283.551 35.475H292.596V25.935H283.551V31.68C284.166 31.395 284.676 31.02 285.111 30.555H283.926V29.295H286.026C286.116 29.13 286.191 28.965 286.266 28.77H285.381V28.305C285.216 28.5 285.051 28.68 284.871 28.83C284.601 28.575 284.076 28.185 283.731 27.99C284.271 27.525 284.796 26.775 285.111 26.085L286.776 26.64C286.731 26.745 286.626 26.805 286.446 26.775C286.311 27.03 286.146 27.3 285.936 27.57H286.671C286.791 27.105 286.881 26.64 286.941 26.13L288.891 26.415C288.861 26.535 288.741 26.625 288.531 26.64L288.351 27.555H290.106C289.866 27.27 289.596 26.985 289.356 26.745L290.616 26.025C291.261 26.625 292.056 27.48 292.431 28.08L291.096 28.875C290.991 28.695 290.841 28.47 290.661 28.245V28.755H289.911C289.986 28.935 290.076 29.1 290.166 29.28H292.161V30.54H291.156C291.561 30.93 292.011 31.23 292.551 31.44C292.191 31.74 291.711 32.355 291.471 32.79C290.946 32.535 290.481 32.175 290.076 31.755C289.971 33.435 289.761 33.645 287.781 33.57C287.751 33.24 287.631 32.76 287.466 32.475C287.796 32.505 288.066 32.52 288.216 32.52C288.321 32.52 288.531 32.52 288.591 32.235H287.136V33.39C287.136 33.825 287.256 33.87 287.871 33.87H289.731C290.181 33.87 290.286 33.735 290.346 32.955C290.706 33.165 291.336 33.39 291.786 33.465C291.621 34.83 291.156 35.19 289.911 35.19H287.646C285.951 35.19 285.441 34.8 285.441 33.435V32.385C285.156 32.595 284.826 32.805 284.496 32.97C284.316 32.625 283.851 32.01 283.551 31.71V35.49V35.475ZM289.536 31.08C289.416 30.915 289.311 30.75 289.206 30.555H287.151C287.046 30.735 286.926 30.9 286.776 31.08H289.326H289.521H289.536ZM288.621 29.31L288.441 28.785H288.006C287.946 28.965 287.886 29.13 287.811 29.31H288.621Z" fill="#2E318B"/>
<path d="M302.391 31.9502L300.966 32.3702V35.5952C300.966 37.1702 300.651 38.0102 297.876 37.9652C297.816 37.3802 297.561 36.4352 297.276 35.8352C297.816 35.8502 298.401 35.8502 298.611 35.8502C298.806 35.8502 298.866 35.7901 298.866 35.5801V32.9702L297.771 33.2702C297.741 33.4352 297.591 33.5252 297.456 33.5552L296.961 31.1252C297.501 31.0352 298.161 30.9002 298.881 30.7352V28.3052H297.201V26.2652H298.881V23.4001L301.431 23.5052C301.416 23.6702 301.311 23.7902 300.981 23.8352V26.2502H302.316V28.2902H300.981V30.2852L302.181 30.0302L302.406 31.9352L302.391 31.9502ZM311.421 33.0302H308.811C309.546 34.1702 310.686 35.2351 311.826 35.8651C311.346 36.2551 310.701 37.0202 310.371 37.5302C309.441 36.8852 308.556 35.9252 307.836 34.8602V37.8152H305.736V34.6802C304.926 35.8652 303.921 36.8852 302.796 37.5602C302.466 37.0352 301.791 36.2402 301.326 35.8502C302.601 35.2352 303.786 34.1852 304.581 33.0302H302.436V31.1102H305.736V29.6102L308.271 29.7452C308.271 29.9102 308.121 30.0002 307.821 30.0602V31.0952H311.406V33.0152L311.421 33.0302ZM311.211 25.1852C311.136 25.2452 311.076 25.2452 310.761 25.2452C308.646 25.8452 305.496 26.2202 302.721 26.3852C302.646 25.8752 302.391 25.0801 302.136 24.6151C304.866 24.4201 307.821 24.0002 309.741 23.3852L311.196 25.1852H311.211ZM304.221 26.6102C304.596 27.4802 304.986 28.6501 305.106 29.4001L303.231 29.8352C303.141 29.0852 302.796 27.8852 302.451 26.9702L304.206 26.6252L304.221 26.6102ZM306.981 26.2652C307.326 27.1652 307.611 28.3501 307.641 29.1151L305.676 29.4152C305.676 28.6652 305.451 27.4502 305.136 26.5202L306.981 26.2652ZM311.736 26.7902C311.661 26.9252 311.466 26.9701 311.256 26.9551C310.776 27.9751 309.951 29.3402 309.306 30.2102L307.746 29.4752C308.361 28.5152 309.081 27.0152 309.471 25.8602L311.721 26.7751L311.736 26.7902Z" fill="#2E318B"/>
<path d="M325.909 35.2651H323.644C325.174 35.8051 326.839 36.4351 327.874 36.8851L325.429 37.9651C324.529 37.4551 322.849 36.7051 321.199 36.1501L322.609 35.2651H318.409L320.134 36.1201C320.074 36.1951 319.969 36.2401 319.834 36.2401C319.789 36.2401 319.729 36.2401 319.684 36.2251C318.424 36.8701 316.534 37.5751 314.914 37.9951C314.539 37.5601 313.849 36.8251 313.399 36.4651C314.809 36.1951 316.369 35.7301 317.419 35.2501H315.454V28.4851H325.909V35.2501V35.2651ZM326.779 24.0151V28.0651H314.434V24.0151H326.779ZM317.944 26.4301V25.6351H316.489V26.4301H317.944ZM317.599 29.8651V30.3601H323.659V29.8651H317.599ZM317.599 31.6201V32.1301H323.659V31.6201H317.599ZM317.599 33.3901V33.9001H323.659V33.3901H317.599ZM321.259 26.4301V25.6351H319.789V26.4301H321.259ZM324.634 26.4301V25.6351H323.104V26.4301H324.634Z" fill="#2E318B"/>
<path d="M337.909 34.1701V35.6401H343.399V37.6201H330.289V35.6401H335.554V34.1701H331.519V32.2501H335.554V30.8401H332.344V29.5351C331.804 29.8801 331.264 30.2251 330.694 30.5251C330.409 30.0001 329.794 29.1751 329.314 28.7551C331.954 27.4651 334.429 25.1251 335.524 23.2951L338.449 23.4451C338.389 23.6251 338.239 23.7601 337.984 23.7901C339.469 25.7851 342.034 27.6151 344.314 28.5001C343.744 29.0701 343.264 29.8351 342.844 30.5101C342.304 30.2401 341.779 29.8951 341.239 29.5651V30.8401H337.909V32.2501H342.019V34.1701H337.909ZM340.264 28.8901C338.824 27.8401 337.519 26.6101 336.724 25.5001C335.929 26.6251 334.699 27.8101 333.274 28.8901H340.249H340.264Z" fill="#2E318B"/>
<path d="M351.079 24.1501C351.019 24.2851 350.869 24.3751 350.614 24.3601C350.269 25.5001 349.849 26.6551 349.384 27.7801L350.119 27.9451C350.089 28.0951 349.954 28.2151 349.654 28.2451V37.9651H347.494V31.4401C347.299 31.7401 347.104 32.0551 346.879 32.3251C346.609 31.8301 345.964 30.8401 345.574 30.3751C346.759 28.8301 347.899 26.0251 348.559 23.4001L351.049 24.1351L351.079 24.1501ZM360.274 34.6351H357.919C358.804 35.2201 359.794 35.9251 360.334 36.4501L358.834 37.9801C358.219 37.2901 356.824 36.2401 355.804 35.5351L356.719 34.6351H353.779L355.084 35.5651C355.024 35.6701 354.904 35.7151 354.679 35.6851C353.929 36.5101 352.624 37.4251 351.439 37.9801C351.139 37.5001 350.539 36.7801 350.074 36.3751C351.004 35.9701 352.009 35.3251 352.759 34.6351H350.359V32.6701H351.574V23.9701H359.044V32.6701H360.289V34.6351H360.274ZM356.809 25.7251H353.674V26.3551H356.809V25.7251ZM356.809 28.455V27.8101H353.674V28.455H356.809ZM356.809 29.9101H353.674V30.5701H356.809V29.9101ZM353.674 32.0251V32.6851H356.809V32.0251H353.674Z" fill="#2E318B"/>
<path d="M370.369 34.1701V35.6401H375.859V37.6201H362.749V35.6401H368.014V34.1701H363.979V32.2501H368.014V30.8401H364.804V29.5351C364.264 29.8801 363.724 30.2251 363.154 30.5251C362.869 30.0001 362.254 29.1751 361.774 28.7551C364.414 27.4651 366.889 25.1251 367.984 23.2951L370.909 23.4451C370.849 23.6251 370.699 23.7601 370.444 23.7901C371.929 25.7851 374.494 27.6151 376.774 28.5001C376.204 29.0701 375.724 29.8351 375.304 30.5101C374.764 30.2401 374.239 29.8951 373.699 29.5651V30.8401H370.369V32.2501H374.479V34.1701H370.369ZM372.724 28.8901C371.284 27.8401 369.979 26.6101 369.184 25.5001C368.389 26.6251 367.159 27.8101 365.734 28.8901H372.709H372.724Z" fill="#2E318B"/>
</g>
<defs>
<filter id="filter0_d_70_1747" x="158.51" y="22.8751" width="220.665" height="17.5799" filterUnits="userSpaceOnUse" color-interpolation-filters="sRGB">
<feFlood flood-opacity="0" result="BackgroundImageFix"/>
<feColorMatrix in="SourceAlpha" type="matrix" values="0 0 0 0 0 0 0 0 0 0 0 0 0 0 0 0 0 0 127 0" result="hardAlpha"/>
<feOffset dx="0.99" dy="0.99"/>
<feGaussianBlur stdDeviation="0.705"/>
<feColorMatrix type="matrix" values="0 0 0 0 0.0941176 0 0 0 0 0.121569 0 0 0 0 0.215686 0 0 0 0.34 0"/>
<feBlend mode="normal" in2="BackgroundImageFix" result="effect1_dropShadow_70_1747"/>
<feBlend mode="normal" in="SourceGraphic" in2="effect1_dropShadow_70_1747" result="shape"/>
</filter>
</defs>
</svg>
