<svg width="852" height="73" viewBox="0 0 852 73" fill="none" xmlns="http://www.w3.org/2000/svg">
<path d="M39.75 25.32H69.93V32.16H0.809982V25.32H30.465V22.125H9.40495V15.66H30.465V12.39H5.21999V5.54998H30.465V0.0749817L41.7899 0.689982C41.7149 1.45498 41.1 1.97998 39.735 2.12998V5.54998H65.205V12.39H39.735V15.66H61.17V22.125H39.735V25.32H39.75ZM58.38 35.28V63.57C58.38 71.625 54.3449 72.165 40.2899 72.165C39.8399 69.96 38.61 66.915 37.545 64.86C39.45 64.935 41.58 65.01 43.395 65.01C49.095 65.01 49.095 64.935 49.095 63.495V60.6H21.345V72H12.225V35.28H58.38ZM49.11 41.82H21.36V45.165H49.11V41.82ZM21.36 54.675H49.11V51.18H21.36V54.675Z" fill="white"/>
<path d="M208.86 46.995V55.89H182.625V72.015H173.19V55.89H138.6V46.995H150.765V26.925H173.19V17.655H156.465C153.12 23.205 149.235 28.305 145.215 32.1C143.535 30.345 140.115 27.315 137.91 25.86C144.6 20.085 150.84 9.89998 154.26 0.0149841L165.285 3.43498C164.985 4.04998 164.22 4.42498 163.155 4.34998C162.54 5.86498 161.865 7.31998 161.175 8.83498H204.585V17.655H182.61V26.925H202.905V35.445H182.61V46.995H208.845H208.86ZM159.9 46.995H173.205V35.445H159.9V46.995Z" fill="white"/>
<path d="M324.15 21.285C324.84 29.04 326.055 36.57 327.495 42.96C330.615 37.635 333.12 31.785 334.95 25.545L345.45 28.515C345.3 29.205 344.535 29.655 343.32 29.58C340.275 38.7 336.09 46.92 330.93 54.06C333.135 59.61 335.715 63.03 338.385 63.03C340.29 63.03 341.355 58.995 341.805 49.35C343.71 51.405 346.74 53.61 349.185 54.525C347.67 68.67 344.7 72.09 337.635 72.09C332.31 72.015 327.975 68.13 324.555 61.755C320.67 65.79 316.35 69.36 311.55 72.255C310.26 70.35 307.365 66.855 305.55 65.115C311.25 61.995 316.425 57.735 320.835 52.575C317.94 43.83 316.125 32.805 315.135 21.33H292.17V29.01H306.915L311.625 29.16V31.905C311.325 49.095 310.86 55.935 309.12 58.29C306.915 61.11 304.635 61.785 295.05 61.56C294.825 58.905 293.91 55.32 292.545 53.115C295.365 53.34 297.945 53.415 299.16 53.415C300.15 53.415 300.84 53.19 301.44 52.5C302.28 51.435 302.58 47.475 302.805 37.365H292.155C291.855 48.465 290.1 62.985 283.11 72.195C281.67 70.44 277.935 67.335 275.97 66.195C282.585 57.3 283.11 44.22 283.11 34.335V12.54H314.505C314.28 8.505 314.13 4.41 314.13 0.375L325.605 0.99C325.53 1.83 324.84 2.28 323.4 2.505C323.325 5.85 323.4 9.195 323.55 12.54H336.33C333.675 10.26 330.015 7.605 326.895 5.7L332.595 0.375C336.555 2.655 341.79 6.075 344.385 8.67L340.425 12.54H347.04V21.285H324.15Z" fill="white"/>
<path d="M460.56 28.44C461.7 31.86 463.065 35.055 464.67 38.1C468.54 35.52 472.725 32.4 475.545 29.73L483.525 36.96C483.225 37.26 482.61 37.41 482.01 37.41C481.785 37.41 481.485 37.41 481.17 37.335C478.2 39.54 473.34 42.585 469.155 44.94C473.715 50.79 479.565 55.35 486.945 58.095C484.89 59.925 482.16 63.495 480.78 66C466.485 59.685 458.04 46.92 453.03 30.42C450.975 31.86 448.77 33.165 446.415 34.455C456.225 41.37 460.17 50.265 460.17 57.57C460.17 66.315 454.62 72.165 445.875 72.165C444.045 72.165 441.915 72.09 439.785 72.015C439.635 69.585 438.945 66.015 437.355 63.345C439.935 63.645 442.215 63.72 444.045 63.72C445.875 63.72 447.465 63.495 448.605 62.28C450.045 61.29 450.885 59.235 450.885 56.58C450.885 55.665 450.81 54.675 450.585 53.685C442.215 60.075 430.665 66.075 420.78 69.42C419.715 67.215 417.81 63.87 415.995 61.89C426.87 59.145 439.8 52.845 447.315 46.53C446.865 45.84 446.325 45.165 445.725 44.475C439.26 48.735 430.215 53.07 423.06 55.65C422.07 53.595 420.165 50.475 418.5 48.735C425.64 46.98 434.85 43.335 440.775 39.69C440.085 39.165 439.335 38.625 438.57 38.1C433.47 40.23 427.995 41.985 422.76 43.275C421.845 41.52 419.79 38.1 418.5 36.435C426.63 34.77 435.225 32.025 442.14 28.455H429.9V20.7H470.655V28.455H460.545L460.56 28.44ZM427.11 16.05V24.945H418.215V7.75498H445.59V0.224976L457.065 0.839976C456.99 1.60498 456.45 2.05498 455.01 2.27998V7.75498H482.985V24.945H473.64V16.05H427.11Z" fill="white"/>
<path d="M552.045 49.875C556.38 44.25 559.035 35.505 560.25 26.985L568.995 29.19C567.555 38.16 565.185 47.895 560.625 53.82L552.03 49.86L552.045 49.875ZM583.365 58.92C583.365 62.565 583.98 63.18 587.625 63.18H598.5C602.07 63.18 602.685 61.05 603.21 50.1C605.34 51.69 609.21 53.22 611.73 53.82C610.665 67.5 608.085 71.76 599.19 71.76H586.5C576.99 71.76 574.26 68.94 574.185 59.445C569.325 62.79 564.075 65.76 558.525 68.34C557.31 66.21 554.49 62.865 552.6 61.035C560.43 57.69 567.66 53.28 574.2 48.33V21.285L585.45 21.9C585.375 22.74 584.835 23.19 583.395 23.415V40.515C594.795 29.715 603.54 17.1 609.165 4.70999L619.74 9.19499C619.29 9.95999 618.45 10.26 617.16 10.11C609.78 25.02 598.53 40.29 583.395 52.62V58.935L583.365 58.92ZM579.03 0.224991C586.485 2.65499 595.23 6.91499 600.315 10.41L594.24 18.54C589.38 14.745 580.56 10.095 573.105 7.58999L579.03 0.209991V0.224991ZM617.43 54.66C615.525 47.895 610.44 37.545 605.49 30.03L613.86 25.92C619.185 33.375 624.195 43.26 626.49 49.95L617.445 54.66H617.43Z" fill="white"/>
<path d="M761.31 30.87H719.94C719.415 31.935 718.8 33 718.185 34.065H754.155V72.165H744.96V69.435H717.21V72.165H708.465V46.92C705.045 50.415 701.085 53.535 696.6 56.115C695.385 53.985 692.64 50.64 690.9 48.81C698.88 44.475 704.97 38.16 709.53 30.87H693.255V23.73H713.4C713.85 22.59 714.39 21.525 714.84 20.385H698.64V13.47H717.27L718.185 10.2C711.87 10.425 705.495 10.5 699.48 10.425C699.405 8.44499 698.565 5.39999 697.8 3.58499C716.505 3.58499 738.63 2.66999 751.56 0.539993L757.11 7.30499C756.885 7.45499 756.495 7.52999 756.12 7.52999C755.82 7.52999 755.505 7.45499 755.13 7.37999C748.215 8.44499 739.32 9.28499 729.735 9.73499C729.435 10.185 728.82 10.5 727.83 10.5C727.53 11.49 727.305 12.48 726.99 13.47H757.095V20.385H724.635C724.26 21.525 723.795 22.59 723.345 23.73H761.28V30.87H761.31ZM744.96 44.25V40.98H717.21V44.25H744.96ZM744.96 53.295V49.95H717.21V53.295H744.96ZM717.21 62.49H744.96V58.995H717.21V62.49Z" fill="white"/>
<path d="M836.97 58.545C836.97 54.51 840.24 51.165 844.275 51.165C848.31 51.165 851.505 54.51 851.505 58.545C851.505 62.58 848.31 65.925 844.275 65.925C840.24 65.925 836.97 62.505 836.97 58.545ZM840.015 45.615L838.11 6.44998H850.725L848.895 45.615H840H840.015Z" fill="white"/>
</svg>
