<svg width="390" height="60" viewBox="0 0 390 60" fill="none" xmlns="http://www.w3.org/2000/svg">
<path d="M360.34 0.975098H29.9494C13.7205 0.975098 0.564453 14.1312 0.564453 30.36C0.564453 46.5889 13.7205 59.7451 29.9494 59.7451H360.34C376.568 59.7451 389.724 46.5889 389.724 30.36C389.724 14.1312 376.568 0.975098 360.34 0.975098Z" fill="white"/>
<path d="M128.394 6.91504H30.3845C17.4361 6.91504 6.93945 17.4117 6.93945 30.36V30.3751C6.93945 43.3234 17.4361 53.8201 30.3845 53.8201H128.394C141.343 53.8201 151.839 43.3234 151.839 30.3751V30.36C151.839 17.4117 141.343 6.91504 128.394 6.91504Z" fill="#FFE900"/>
<path d="M45.0544 29.7301C45.2644 30.5401 45.5343 31.35 45.8643 32.13C46.6743 31.35 47.4544 30.4801 47.9944 29.7601L51.2043 32.505C51.0993 32.64 50.9044 32.7 50.6644 32.7C50.5594 32.7 50.4244 32.6701 50.3194 32.6401C49.6444 33.3151 48.4594 34.2601 47.4694 34.9801C48.4144 36.2701 49.6294 37.4101 51.1594 38.1601C50.4394 38.8651 49.2994 40.3651 48.7894 41.3401C47.1694 40.2901 45.9094 38.73 44.9644 37.005V39.0301C44.9644 41.7301 44.2144 42.5551 39.7144 42.5551C39.6094 41.7151 39.2644 40.5601 38.8744 39.6751C38.3044 40.1101 37.7944 40.515 37.3444 40.83C37.3744 41.1 37.2694 41.3401 37.0444 41.4751L35.0494 37.8901L33.4294 38.49C33.2644 37.65 32.9494 36.495 32.5894 35.415V42.5851H29.1994V34.2301H29.1244C28.9144 36.4051 28.4194 39.0001 27.6994 40.6351C26.9944 40.1701 25.7644 39.6451 24.9844 39.3151C25.5994 37.8301 25.9594 35.295 26.1094 33.06L29.2144 33.7651V31.9801C28.1644 32.0401 27.1894 32.1151 26.3794 32.1451C26.3044 32.4451 26.0494 32.55 25.8394 32.58L25.1344 28.755H27.0694C27.4144 28.29 27.7744 27.84 28.1194 27.36C27.3694 26.175 26.1844 24.8251 25.1344 23.8051L26.9644 21.1051L27.4294 21.5101C28.1344 20.0551 28.8094 18.3601 29.2294 17.0101L32.9794 18.525C32.8744 18.72 32.5744 18.825 32.1694 18.825C31.5544 20.28 30.4744 22.245 29.5594 23.7C29.7544 23.91 29.9344 24.1651 30.0994 24.3751C30.9844 22.9801 31.7643 21.5401 32.3643 20.2801L35.9494 21.9C35.8144 22.11 35.5144 22.2301 35.1094 22.2301C34.2994 23.5801 33.2044 25.2001 32.0344 26.7601L34.4344 25.7701C34.9444 26.7451 35.4844 27.8401 35.9194 28.9201V26.4751H44.1094L44.2744 25.6201H40.2544L40.1194 26.13L36.4893 25.56C37.2243 23.325 38.1394 19.8 38.6794 17.025L42.9694 17.49C42.9094 17.79 42.6994 17.9551 42.1594 18.0001L41.9494 18.9751H46.3894L47.2294 18.915L49.0894 19.2451C49.0594 19.3801 48.6244 22.32 47.7694 26.49H50.8594V29.775H45.0994L45.0544 29.7301ZM32.4394 28.6801C32.2294 28.1401 31.9744 27.6001 31.7344 27.0901C31.2994 27.6601 30.8644 28.2001 30.4744 28.7101L32.4394 28.6801ZM32.5744 33.8851L35.0044 33.1051C35.4844 34.3651 36.0244 35.955 36.3544 37.095C37.5994 36.375 39.0994 35.43 40.5544 34.485L41.4094 36.615V29.7451H36.2043C36.3843 30.2851 36.5494 30.795 36.6394 31.275L38.2894 29.8951C39.3394 30.7801 40.6894 32.0851 41.3044 33.0001L38.6044 35.3701C38.0644 34.4251 36.8044 33 35.7544 32.025L33.7294 32.9101C33.6694 32.5351 33.5944 32.13 33.4594 31.665L32.5744 31.74V33.8701V33.8851ZM41.4094 37.575C40.6894 38.19 39.9544 38.79 39.2494 39.36C41.4094 39.435 41.4094 39.36 41.4094 38.985V37.5901V37.575ZM41.0044 22.7101H44.7694L44.9344 21.825H41.2144L41.0044 22.7101Z" fill="#2E318B"/>
<path d="M59.1543 37.2301C58.3743 39.1351 57.2193 40.92 55.2543 42.075L52.2393 39.9451C53.9043 39.0601 55.2243 37.545 55.8993 35.955L59.1543 37.2151V37.2301ZM77.3043 23.595V26.505H52.5693V23.595H58.7343C58.5993 23.055 58.4043 22.485 58.2243 22.005L58.8993 21.81H54.6093V18.9H62.9643V16.935L67.7043 17.1751C67.6743 17.5051 67.4343 17.655 66.8943 17.775V18.9H75.2193V21.81H72.3843C72.2493 21.915 72.0393 21.9751 71.7693 21.9751C71.5293 22.4551 71.2293 23.025 70.9143 23.595H77.3043ZM66.9093 39.4951C67.6593 39.4951 67.8543 39.195 67.9593 37.56C68.6643 38.07 70.0893 38.505 71.0643 38.685C70.5993 38.31 70.0893 37.9351 69.6393 37.6051L72.6093 35.6401C74.3943 36.7651 76.5993 38.55 77.6493 39.9L74.4693 42.075C73.7943 41.1 72.5043 39.8401 71.1543 38.7301C70.8093 41.5801 69.8343 42.36 67.3293 42.36H63.8043C60.2793 42.36 59.4093 41.4751 59.4093 38.7301V36.6601L62.2593 36.825C61.9293 36.66 61.6443 36.5251 61.3443 36.3901L62.1843 35.5501H56.7393V27.0901H73.2543V35.5501H66.7593C67.3293 35.8801 67.8693 36.1651 68.2443 36.4651L65.8143 38.9401C65.2743 38.4751 64.3893 37.9501 63.4143 37.4101C63.3543 37.4401 63.2793 37.47 63.2043 37.47V38.7151C63.2043 39.4201 63.3843 39.4951 64.3293 39.4951H66.9093ZM60.4143 29.5201V30.1951H69.3543V29.5201H60.4143ZM60.4143 32.4601V33.1351H69.3543V32.4601H60.4143ZM67.2093 23.595C67.4193 23.055 67.6143 22.41 67.7793 21.81H61.9893C62.2293 22.41 62.4543 23.055 62.5593 23.595H67.2243H67.2093Z" fill="#2E318B"/>
<path d="M104.694 37.8751H101.409C102.669 38.8201 104.154 39.9451 104.964 40.7851L102.084 42.5851C101.199 41.5951 99.2492 39.9451 97.7942 38.8351L99.4442 37.86H95.5591L97.2242 38.8351C97.1492 38.9401 96.9842 39.0301 96.7892 39.0451C95.8442 40.2001 93.7142 41.7901 91.9142 42.5701C91.3442 41.9551 90.3242 41.0101 89.5442 40.4101C88.9592 42.5851 86.8442 42.5851 84.6392 42.5851C84.5792 41.5351 84.2342 40.0801 83.7242 39.1351C84.3992 39.2101 84.9842 39.2101 85.3742 39.2101C85.6892 39.2101 85.9142 39.135 86.1242 38.775C86.4242 38.265 86.5292 36.1951 86.6042 30.4801H85.1491C84.7741 35.0401 83.9042 39.345 81.6542 42.525C81.0392 41.58 79.8692 40.3951 78.9092 39.7801C81.5192 36.1201 81.6842 30.54 81.7592 24.525H79.3291V20.9101H83.1841V16.9801L87.7142 17.22C87.6842 17.52 87.4741 17.685 86.9341 17.79V20.9101H90.3842V21.5551C91.3292 20.2351 92.0492 18.5701 92.4392 16.9201L96.3392 17.9101C96.2642 18.1201 96.0392 18.255 95.6642 18.24C95.5292 18.675 95.3642 19.125 95.1992 19.56H104.679V22.6801H93.6092L93.3692 23.0551L96.8641 23.2501C96.8341 23.5201 96.6241 23.685 96.1141 23.79V25.0501H98.8142V23.0101L103.179 23.2501C103.149 23.5201 102.939 23.715 102.399 23.79V25.0501H104.334V28.095H102.399V34.7701H104.694V37.8151V37.8751ZM88.2542 26.985L90.1592 27.0451C90.1592 27.3451 90.1592 27.7801 90.1292 28.1701C90.0542 35.2051 89.9641 38.67 89.5591 40.29C90.8791 39.72 92.2742 38.775 93.2792 37.86H90.3392V34.8151H92.5742V28.1401H90.7142V25.095H92.5742V24.1051C92.3642 24.3751 92.1242 24.615 91.8692 24.825C91.5242 24.48 90.9242 24.0451 90.3542 23.6401V24.5551H85.4042L85.3291 26.985H88.2391H88.2542ZM98.8142 28.1401H96.1141V28.755H98.8142V28.1401ZM98.8142 31.7701V31.1251H96.1141V31.7701H98.8142ZM96.1141 34.1401V34.8151H98.8142V34.1401H96.1141Z" fill="#2E318B"/>
<path d="M116.409 30.4951L115.434 30.63V39.435C115.434 41.88 114.624 42.615 111.444 42.615C111.369 41.805 110.994 40.515 110.589 39.735C110.994 39.765 111.429 39.7951 111.744 39.7951C112.524 39.7951 112.599 39.7951 112.599 39.3901V31.0351L110.034 31.38C109.974 35.01 109.629 39.6451 108.099 42.6451C107.589 42.1801 106.344 41.4301 105.669 41.1601C106.959 38.5501 107.229 34.8901 107.289 31.7251L106.959 31.7851C106.899 32.0251 106.659 32.1601 106.449 32.1901L105.774 28.95L107.289 28.8151V20.5651H109.524C109.704 19.4101 109.869 18 109.929 16.95L113.949 17.6551C113.874 17.8651 113.619 18.0001 113.214 18.0301C113.004 18.7651 112.704 19.6951 112.404 20.5651H115.419V28.0201L116.304 27.9451L116.379 30.4801L116.409 30.4951ZM111.774 24.0301C112.179 24.9451 112.509 26.1301 112.614 27.0151H112.644L112.614 23.49H110.049V24.6001L111.774 24.0301ZM110.049 28.5901L112.614 28.3501V27.2701L110.619 27.9451C110.589 27.1951 110.349 26.085 110.049 25.11V28.5901ZM112.584 31.845C112.554 32.04 112.389 32.1751 112.074 32.1901V37.8001H110.424V31.7101L112.584 31.845ZM130.119 39.2251H131.634V42.1351H115.734V39.2251H117.249V32.1901H130.119V39.2251ZM119.229 31.2V31.575H116.619V17.8951H124.269V20.325H122.439V21.5851H124.164V24.33C124.884 22.47 125.274 19.665 125.454 17.025L129.174 17.775C129.099 17.985 128.874 18.15 128.529 18.15C128.454 18.87 128.364 19.6051 128.229 20.3551H131.514V23.2651H127.659C127.344 24.5551 126.939 25.74 126.414 26.685C125.874 26.22 124.914 25.635 124.149 25.2V27.435H122.424V28.6951H124.599V31.1701H119.214L119.229 31.2ZM120.009 20.31H119.229V21.5701H120.009V20.31ZM121.599 23.79H119.229V25.2451H121.599V23.79ZM120.009 28.7251V27.4651H119.229V28.7251H120.009ZM120.114 35.0851V39.24H120.819V35.0851H120.114ZM123.939 35.0851H123.234V39.24H123.939V35.0851ZM124.989 29.9401V27.0301H131.079V29.9401H124.989ZM127.059 35.0851H126.354V39.24H127.059V35.0851Z" fill="#2E318B"/>
<g filter="url(#filter0_d_70_1770)">
<path d="M171.866 30.2549C172.031 30.7799 172.24 31.275 172.495 31.77C173.155 31.305 173.831 30.78 174.311 30.315L176.245 32.07C176.17 32.13 176.05 32.16 175.885 32.16C175.825 32.16 175.765 32.16 175.705 32.16C175.18 32.52 174.341 33.045 173.591 33.465C174.431 34.47 175.495 35.28 176.8 35.805C176.29 36.255 175.615 37.1399 175.285 37.7549C172.525 36.4199 170.981 33.9599 170.006 30.7199C169.661 30.9449 169.27 31.185 168.85 31.395C170.755 32.745 171.491 34.455 171.491 35.895C171.491 37.845 170.156 38.9699 168.521 38.9699C168.146 38.9699 167.755 38.955 167.35 38.94C167.32 38.37 167.186 37.575 166.841 36.945C165.731 37.53 164.59 38.0399 163.54 38.4149C163.285 37.8599 162.805 37.065 162.355 36.57C164.485 36.06 166.991 34.9049 168.506 33.7199L168.37 33.555C167.08 34.35 165.371 35.16 164.006 35.64C163.766 35.145 163.3 34.395 162.895 33.975C164.26 33.675 165.955 33.0599 167.125 32.4149L166.915 32.265C165.955 32.655 164.92 32.955 163.915 33.195C163.705 32.76 163.195 31.935 162.895 31.545C164.365 31.275 165.896 30.8399 167.186 30.2549H165.4V28.3799H173.335V30.2549H171.866ZM165.025 27.765V29.43H162.85V25.7549H168.205V24.36L170.966 24.51C170.951 24.675 170.83 24.78 170.5 24.825V25.7399H176.006V29.4149H173.725V27.75H165.025V27.765ZM169.241 35.4899C168.581 35.9699 167.816 36.435 167.021 36.87C167.426 36.9 167.755 36.9149 168.07 36.9149C168.4 36.9149 168.701 36.8699 168.881 36.6299C169.121 36.4499 169.286 36.0299 169.241 35.4899Z" fill="#2E318B"/>
<path d="M192.896 36.69V38.34H189.01V38.925H187.331V33.69L187.196 33.84L187.046 33.6299C186.536 35.9099 185.53 37.83 183.565 38.91C183.325 38.49 182.726 37.7549 182.351 37.4549C183.401 36.9449 184.196 36.1799 184.766 35.2049C184.196 35.2949 183.686 35.385 183.266 35.445C183.236 35.58 183.13 35.6549 183.01 35.6849L182.44 33.765C182.71 33.75 183.026 33.72 183.341 33.69C183.581 33.36 183.821 32.97 184.061 32.565C183.686 32.025 183.176 31.425 182.681 30.945L182.951 32.7899L181.961 33.12V36.6149C181.961 38.0849 181.66 38.955 179.05 38.91C179.005 38.355 178.765 37.44 178.495 36.84C178.78 36.855 179.081 36.87 179.306 36.87C179.861 36.87 179.921 36.8699 179.921 36.6149V33.78C179.606 33.885 179.29 33.975 179.035 34.05C179.005 34.215 178.871 34.32 178.736 34.35L178.226 31.95C178.706 31.86 179.276 31.74 179.921 31.575V29.25H178.451V27.21H179.921V24.3449L182.381 24.45C182.366 24.615 182.261 24.72 181.946 24.765V27.195H182.726V25.89H186.671V24.3299L189.236 24.465C189.236 24.63 189.1 24.72 188.785 24.78V25.875H192.851V27.765H184.436L186.026 28.395C185.966 28.515 185.83 28.5599 185.605 28.5599C185.38 29.1449 184.976 29.925 184.616 30.57L184.916 30.9149C185.186 30.3749 185.44 29.865 185.635 29.385L187.361 30.105C187.301 30.225 187.15 30.285 186.925 30.285C186.43 31.23 185.711 32.43 185.006 33.465L185.41 33.42L185.546 32.7899L186.55 32.985C186.37 32.76 186.176 32.5349 186.026 32.3999C186.941 31.3799 187.66 29.565 188.05 27.765L190.061 28.305C190.016 28.425 189.881 28.5 189.686 28.5C189.566 28.95 189.431 29.385 189.266 29.82H189.76C189.97 29.16 190.21 28.395 190.315 27.795L192.385 28.3799C192.325 28.4999 192.191 28.5599 191.951 28.5599C191.816 28.9349 191.635 29.37 191.41 29.82H192.656V31.4549H191.171V32.145H192.341V33.6H191.171V34.335H192.416V35.7899H191.171V36.6H192.851L192.896 36.69ZM181.961 29.295V31.14L182.666 30.96L182.501 30.795L183.355 29.385L183.581 29.5949C183.836 29.0099 184.076 28.365 184.226 27.855H182.8V29.3099H181.961V29.295ZM189.686 32.235V31.545H189.01V32.235H189.686ZM189.686 34.425V33.69H189.01V34.425H189.686ZM189.01 35.8799V36.69H189.686V35.8799H189.01Z" fill="#2E318B"/>
<path d="M205.615 25.275H208.72V27.1051H205.615V27.5701H203.44V27.1051H200.185V27.5701H198.01V27.1051H195.01V25.275H198.01V24.3901L200.635 24.525C200.635 24.69 200.5 24.7951 200.185 24.8401V25.275H203.44V24.3901L206.08 24.525C206.065 24.69 205.945 24.7951 205.615 24.8401V25.275ZM208.075 33.1051V37.0351C208.075 38.4751 207.655 38.955 205.57 38.955C205.51 38.58 205.39 38.145 205.24 37.74L203.86 38.0551C203.86 37.8751 203.83 37.6801 203.785 37.4401C201.97 37.5901 200.155 37.7401 198.91 37.8151C198.865 37.9651 198.745 38.0401 198.625 38.0551L197.965 35.9251C198.715 35.9251 199.675 35.925 200.755 35.88V34.9051H197.875V38.97H195.76V33.1051H200.755V32.7301H196.99V27.735H206.905V32.7301H202.87V33.1051H208.09H208.075ZM199.06 29.1601V29.595H200.74V29.1601H199.06ZM199.06 31.3351H200.74V30.9H199.06V31.3351ZM204.715 29.595V29.1601H202.855V29.595H204.715ZM204.715 31.3351V30.9H202.855V31.3351H204.715ZM202.855 35.8501H203.365C203.305 35.6401 203.23 35.415 203.155 35.235L204.58 34.9201H202.87V35.8501H202.855ZM204.79 34.9201C205.12 35.6401 205.405 36.495 205.54 37.2C205.87 37.2 205.915 37.2001 205.915 37.0201V34.9201H204.79Z" fill="#2E318B"/>
<path d="M225.386 31.575V33.675H221.771V38.925H219.551V33.675H216.176L216.416 35.07C214.766 35.715 213.011 36.36 211.856 36.75C211.841 36.915 211.721 37.035 211.586 37.065L210.671 34.62C211.181 34.5 211.811 34.35 212.486 34.14V30.075H211.031V27.975H212.486V24.51L215.096 24.645C215.096 24.81 214.961 24.915 214.646 24.96V27.96H215.996V30.0599H214.646V33.51L215.936 33.135V31.545H219.551V27.045H216.401V24.975H225.026V27.045H221.786V31.545H225.401L225.386 31.575ZM217.331 31.4699C217.256 30.5549 216.866 29.115 216.416 28.05L218.276 27.48C218.786 28.53 219.191 29.895 219.311 30.84L217.331 31.4699ZM225.371 28.215C225.311 28.335 225.161 28.395 224.906 28.395C224.621 29.355 224.096 30.6449 223.661 31.4699L222.041 30.825C222.416 29.895 222.806 28.47 223.001 27.405L225.356 28.2L225.371 28.215Z" fill="#2E318B"/>
<path d="M228.206 28.5599C229.016 28.8599 230.11 29.3999 230.62 29.8649L229.315 31.6499C228.835 31.1849 227.801 30.555 226.976 30.195L228.206 28.5599ZM227.216 37.6499C227.786 36.4349 228.551 34.5299 229.151 32.6849L230.951 33.84C230.441 35.475 229.886 37.095 229.391 38.295C229.496 38.415 229.541 38.535 229.541 38.64C229.541 38.73 229.525 38.8049 229.48 38.8649L227.216 37.635V37.6499ZM228.776 24.495C229.601 24.81 230.696 25.38 231.221 25.86L229.901 27.6299C229.421 27.1499 228.356 26.4899 227.531 26.1149L228.776 24.495ZM241.196 24.87V36.8099C241.196 38.3849 240.716 39.045 238.421 39.045C238.346 38.49 238.045 37.5299 237.745 37.0049C238.225 37.0349 238.736 37.035 238.916 37.035C239.096 37.035 239.156 36.96 239.156 36.765V34.065H238.105C237.88 35.865 237.341 37.6949 236.186 38.9699C235.841 38.6399 235 38.0699 234.535 37.8449C234.82 37.5299 235.09 37.17 235.285 36.795H232.991V37.785H231.101V31.3649H232.466V29.235H230.726V27.225H232.466V24.39L234.866 24.5249C234.866 24.6749 234.746 24.765 234.431 24.825V27.21H235.946V29.2199H234.431V31.35H235.811V35.52C236.291 34.035 236.351 32.385 236.351 30.96V24.855H241.196V24.87ZM233.906 34.905V33.285H232.991V34.905H233.906ZM238.285 30.9899C238.285 31.3649 238.285 31.7249 238.285 32.1299H239.171V30.45H238.3V31.0049L238.285 30.9899ZM239.156 26.835H238.285V28.4699H239.156V26.835Z" fill="#2E318B"/>
<path d="M244.436 28.575C245.291 28.89 246.416 29.46 246.971 29.955L245.651 31.74C245.156 31.245 244.061 30.5851 243.206 30.2101L244.436 28.575ZM243.506 37.56C244.136 36.345 245.006 34.44 245.681 32.595L247.466 33.825C246.881 35.475 246.236 37.0801 245.681 38.2801C245.786 38.4001 245.831 38.5201 245.831 38.6551C245.831 38.7451 245.801 38.8201 245.771 38.8951L243.506 37.56ZM247.736 25.8901L246.416 27.6451C245.906 27.1351 244.811 26.4601 243.941 26.0551L245.186 24.435C246.041 24.78 247.181 25.35 247.751 25.86V25.65H251.516V24.3751L254.141 24.5101C254.126 24.6751 254.006 24.78 253.691 24.825V25.6351H257.591V28.47H255.536V27.2251H249.701V28.47H247.736V25.8751V25.8901ZM256.946 36.6001H255.776C256.601 36.9751 257.411 37.3501 257.951 37.6351L256.271 38.9401C255.551 38.4901 254.276 37.785 253.166 37.29L253.871 36.6001H251.696L252.656 37.3051C252.656 37.3051 252.491 37.3951 252.386 37.3951C251.561 37.9801 249.911 38.6251 248.546 38.9401C248.276 38.5051 247.751 37.8601 247.361 37.4401C248.186 37.2601 249.116 36.9301 249.881 36.6001H248.876V33.3001C248.606 33.3601 248.306 33.4201 248.036 33.4651C247.826 33.0151 247.301 32.1751 246.971 31.7851C247.616 31.6951 248.261 31.59 248.891 31.47V31.1551C248.741 31.2151 248.591 31.2751 248.426 31.3201C248.171 30.9151 247.646 30.315 247.241 29.955C248.126 29.7 249.086 29.1751 249.641 28.6951L250.091 28.9651V27.705H255.131V28.8901C255.131 28.8901 255.236 28.8 255.296 28.74L257.396 29.7151C257.306 29.8201 257.141 29.8801 256.901 29.8501C256.406 30.3001 255.851 30.705 255.206 31.08H256.946V36.615V36.6001ZM251.351 29.7451C251.291 29.8351 251.186 29.88 251.006 29.865C250.526 30.27 249.776 30.735 248.996 31.08H250.481C250.856 30.99 251.201 30.8851 251.531 30.7651V29.235H250.511L251.351 29.7601V29.7451ZM250.916 34.005H254.786V33.6751H250.916V34.005ZM254.786 35.1001H250.916V35.4451H254.786V35.1001ZM254.786 32.2501H252.656C252.341 32.3701 252.011 32.475 251.681 32.58H254.786V32.2501ZM253.556 29.235V29.9401C253.991 29.7301 254.366 29.49 254.711 29.235H253.556Z" fill="#2E318B"/>
<path d="M273.805 34.2899H271.855C272.5 35.1899 273.34 36.015 274.18 36.555C273.685 36.975 272.98 37.77 272.62 38.34C271.99 37.755 271.405 36.9599 270.91 36.0599V38.91H268.81V36.03C268.225 36.99 267.505 37.8 266.65 38.37C266.35 37.875 265.735 37.125 265.285 36.765C266.29 36.225 267.13 35.3249 267.76 34.2899H266.47V32.37H268.795V30.84L271.315 30.975C269.98 30.33 268.765 29.4449 267.76 28.3649V31.3649H265.525V28.425C264.655 29.385 263.59 30.21 262.42 30.84L264.715 30.96C264.715 31.125 264.58 31.215 264.265 31.26V32.34H266.095V34.26H264.265V34.395C264.865 34.725 265.87 35.3849 266.17 35.5949L264.88 37.215C264.73 37.035 264.505 36.795 264.265 36.555V38.8799H262.18V36.3449C261.655 37.1549 261.025 37.8449 260.305 38.3099C260.14 37.6799 259.69 36.81 259.375 36.21C260.155 35.745 260.86 35.04 261.4 34.26H259.705V32.34H262.195V30.93C261.865 31.095 261.505 31.245 261.16 31.395C260.875 30.87 260.245 30.0899 259.795 29.6849C261.145 29.2649 262.435 28.59 263.425 27.765H260.56V25.815H265.54V24.3L268.24 24.4349C268.24 24.6149 268.09 24.705 267.775 24.765V25.8H273.04V27.75H269.89C270.97 28.53 272.32 29.16 273.745 29.52C273.265 29.955 272.635 30.795 272.32 31.335C271.99 31.215 271.66 31.0799 271.345 30.9149C271.33 31.0799 271.195 31.17 270.895 31.23V32.295H273.79V34.215L273.805 34.2899Z" fill="#2E318B"/>
<path d="M279.669 36.0451C279.204 37.0801 278.544 38.055 277.434 38.685L275.694 37.4251C276.639 36.9451 277.389 36.1501 277.779 35.2951L279.684 36.0451H279.669ZM281.964 36.5701C281.964 36.9901 282.069 37.0351 282.669 37.0351H284.229C284.679 37.0351 284.784 36.915 284.844 36.255C285.264 36.525 286.134 36.8251 286.704 36.9301C286.479 38.4001 285.909 38.79 284.469 38.79H282.384C280.284 38.79 279.819 38.25 279.819 36.615V35.2501L281.829 35.3551L281.379 35.0551L282.024 34.5301C281.694 34.8451 280.569 34.845 280.164 34.845C280.089 34.365 279.849 33.78 279.639 33.36C279.894 33.375 280.209 33.3751 280.329 33.3751C280.494 33.3751 280.494 33.33 280.494 32.985H278.709V34.86H276.744V28.485H281.694C281.634 28.335 281.574 28.1701 281.484 27.9751C279.684 28.0951 277.869 28.2001 276.654 28.2601C276.624 28.3951 276.504 28.47 276.399 28.485L275.799 26.595H276.879C277.284 25.89 277.704 25.02 277.944 24.345L280.299 25.0201C280.239 25.1551 280.089 25.2151 279.834 25.2151C279.609 25.6201 279.279 26.0851 278.949 26.5501L280.554 26.505C280.389 26.295 280.224 26.0701 280.044 25.8751L281.589 25.08C282.294 25.83 283.059 26.865 283.344 27.615L281.769 28.455H282.459V33.165C282.459 33.735 282.399 34.0801 282.159 34.3351L282.744 33.8551C283.434 34.2601 284.274 34.8751 284.679 35.3701L283.209 36.63C282.999 36.33 282.609 35.955 282.189 35.61C282.129 35.64 282.054 35.6551 281.964 35.6701V36.54V36.5701ZM280.494 29.8951H278.709V30.24H280.494V29.8951ZM278.709 31.7851H280.494V31.4401H278.709V31.7851ZM287.709 27.6901C288.129 27.6901 288.219 27.5701 288.294 26.8351C288.699 27.1051 289.509 27.4051 290.049 27.5101C289.839 29.0251 289.284 29.4451 287.919 29.4451H285.969C284.019 29.4451 283.584 28.8901 283.584 27.2101V24.4051L286.059 24.54C286.059 24.69 285.924 24.7951 285.609 24.8401V25.74C286.494 25.5 287.334 25.2 287.904 24.915L289.464 26.2801C289.389 26.3551 289.254 26.3551 289.089 26.3551C288.189 26.6851 286.869 27.03 285.609 27.255C285.609 27.63 285.729 27.6901 286.254 27.6901H287.694H287.709ZM287.784 32.865C288.234 32.865 288.324 32.7301 288.384 31.9051C288.774 32.1901 289.614 32.49 290.154 32.595C289.944 34.17 289.389 34.6201 287.994 34.6201H285.984C284.019 34.6201 283.584 34.0651 283.584 32.3701V29.4601L286.059 29.595C286.059 29.745 285.924 29.8501 285.609 29.8951V30.735C286.539 30.48 287.469 30.1651 288.069 29.8501L289.659 31.2301C289.599 31.3051 289.509 31.3051 289.254 31.3051C288.309 31.6801 286.914 32.0401 285.594 32.2951C285.594 32.8051 285.654 32.865 286.254 32.865H287.754H287.784ZM288.294 38.6701C287.874 37.9201 286.839 36.8851 285.894 36.1801L287.664 35.1451C288.624 35.7901 289.719 36.7651 290.199 37.5451L288.279 38.685L288.294 38.6701Z" fill="#2E318B"/>
<path d="M306.235 28.4549H300.46C300.385 28.6649 300.31 28.9049 300.22 29.1299H304.51V38.925H302.185V38.295H296.41V38.925H294.19V29.1299H297.745C297.79 28.9049 297.82 28.6799 297.85 28.4549H292.24V26.3999H295.405C295.12 25.9799 294.745 25.5449 294.43 25.1849L296.5 24.2549C297.085 24.7949 297.715 25.53 298.045 26.055L297.4 26.385H300.415C300.865 25.77 301.33 24.96 301.6 24.315L304.48 25.11C304.405 25.245 304.255 25.305 303.985 25.305C303.76 25.635 303.46 26.025 303.16 26.37H306.235V28.425V28.4549ZM302.17 31.6499V31.035H296.395V31.6499H302.17ZM296.395 33.315V33.9899H302.17V33.315H296.395ZM296.395 36.375H302.17V35.655H296.395V36.375Z" fill="#2E318B"/>
<path d="M317.095 25.755H322.525V27.735H311.5V30.0151C311.5 32.5651 311.26 36.5101 309.82 38.9251C309.43 38.5501 308.5 37.9351 308.005 37.6951C309.295 35.5201 309.385 32.2801 309.385 30.0151V25.755H314.77V24.3751L317.56 24.525C317.545 24.69 317.425 24.7951 317.095 24.8551V25.74V25.755ZM320.68 27.9C320.68 28.065 320.545 28.1701 320.215 28.2151V28.7251H322.405V30.4951H320.215V32.9101H317.95V33.5701H321.73V36.45C321.73 38.13 321.085 38.49 318.715 38.49C318.64 37.89 318.4 37.1101 318.145 36.5701C318.565 36.6001 319.135 36.6001 319.315 36.6001C319.495 36.6001 319.54 36.5551 319.54 36.4051V35.4601H317.95V38.955H315.76V35.4601H314.275V38.49H312.115V33.5701H315.76V32.9101H313.555V30.4951H311.8V28.7251H313.555V27.7651L316.06 27.9C316.045 28.065 315.925 28.1701 315.595 28.2151V28.7251H318.04V27.7651L320.665 27.9H320.68ZM318.055 31.2V30.4951H315.61V31.2H318.055Z" fill="#2E318B"/>
<path d="M332.846 36.3449H338.666V38.52H324.731V36.3449H330.521V33.75H326.561V31.605H330.521V29.28H327.566C327.131 30.18 326.651 31.02 326.126 31.68C325.676 31.26 324.776 30.63 324.221 30.285C325.316 28.98 326.291 26.625 326.786 24.45L329.501 25.1849C329.441 25.3199 329.291 25.41 329.036 25.395C328.871 25.965 328.676 26.535 328.466 27.09H330.506V24.3449L333.311 24.495C333.311 24.66 333.161 24.765 332.831 24.825V27.075H337.886V29.25H332.831V31.575H337.226V33.7199H332.831V36.315L332.846 36.3449Z" fill="#2E318B"/>
<path d="M341.756 28.5599C342.686 28.8749 343.976 29.475 344.621 29.985L343.331 31.8299C342.761 31.3049 341.531 30.6299 340.556 30.2399L341.756 28.5599ZM341.006 37.335C341.771 36.165 342.881 34.29 343.751 32.46L345.446 33.855C344.696 35.475 343.871 37.05 343.151 38.265C343.241 38.37 343.271 38.4749 343.271 38.5799C343.271 38.6849 343.241 38.775 343.181 38.85L341.006 37.32V37.335ZM355.151 31.02H351.146V32.565H354.206V38.85H351.956V38.295H348.191V38.91H346.046V32.565H348.896V31.02H345.086V28.89H348.896V27.405C347.921 27.54 346.901 27.6449 345.941 27.7199C345.866 27.2549 345.626 26.5349 345.386 26.0399L344.216 27.69C343.661 27.15 342.446 26.46 341.486 26.055L342.686 24.42C343.586 24.735 344.786 25.32 345.431 25.815C348.131 25.575 350.981 25.0499 352.766 24.3449L354.656 26.145C354.551 26.235 354.431 26.235 354.161 26.235C353.291 26.535 352.256 26.805 351.146 27.03V28.875H355.151V31.0049V31.02ZM351.956 36.285V34.575H348.191V36.285H351.956Z" fill="#2E318B"/>
</g>
<defs>
<filter id="filter0_d_70_1770" x="161.935" y="23.8349" width="195.615" height="17.6101" filterUnits="userSpaceOnUse" color-interpolation-filters="sRGB">
<feFlood flood-opacity="0" result="BackgroundImageFix"/>
<feColorMatrix in="SourceAlpha" type="matrix" values="0 0 0 0 0 0 0 0 0 0 0 0 0 0 0 0 0 0 127 0" result="hardAlpha"/>
<feOffset dx="0.99" dy="0.99"/>
<feGaussianBlur stdDeviation="0.705"/>
<feColorMatrix type="matrix" values="0 0 0 0 0.0941176 0 0 0 0 0.121569 0 0 0 0 0.215686 0 0 0 0.34 0"/>
<feBlend mode="normal" in2="BackgroundImageFix" result="effect1_dropShadow_70_1770"/>
<feBlend mode="normal" in="SourceGraphic" in2="effect1_dropShadow_70_1770" result="shape"/>
</filter>
</defs>
</svg>
