<svg width="455" height="159" viewBox="0 0 455 159" fill="none" xmlns="http://www.w3.org/2000/svg">
<path d="M100.98 47.3399L101.9 56.8799C93.3496 58.8699 84.4196 60.7699 78.6096 61.9999C78.4596 62.7599 77.7696 63.2999 77.0796 63.3699L74.3296 51.8399C76.7696 51.5399 79.5996 51.0799 82.6496 50.5399V37.0999H76.3096V26.9499H82.6496V15.4999H75.7796V5.26994H99.8296V15.4999H93.0296V26.9499H99.3696V37.0999H93.0296V48.7799L100.97 47.3299L100.98 47.3399ZM142.21 55.2799H129.31V63.5299C129.31 70.9399 126.94 72.6199 114.73 72.6199C114.27 70.1799 113.28 66.9699 112.21 64.5299C109.23 67.3499 105.64 70.0999 102.21 72.0899C100.53 70.1799 97.1696 67.0499 95.1096 65.4499C99.6896 63.2399 104.43 59.4899 107.02 55.9799L117.94 60.0299C117.63 60.6399 116.87 60.9499 115.88 60.7899C114.96 61.8599 113.89 62.9299 112.75 64.0699C114.66 64.1499 116.87 64.1499 117.56 64.1499C118.4 64.0699 118.71 63.9199 118.71 63.1599V55.2999H105.88V38.3499H142.22V55.2999L142.21 55.2799ZM146.87 27.5599V36.2599H100.75V27.5599H117.93V24.5799H104.87V2.43994H143.12V24.5899H131.44C131.21 25.1999 130.52 25.5799 129.23 25.8099V27.5699H146.87V27.5599ZM114.8 8.77994V10.5399H132.67V8.77994H114.8ZM114.8 16.4899V18.2499H132.67V16.4899H114.8ZM116.02 45.2799V48.3299H131.44V45.2799H116.02ZM140 71.6999C138.09 68.7199 133.51 63.9899 129.77 60.7799L138.17 56.1999C141.84 59.0999 146.65 63.5299 149.01 66.6599L140 71.6999Z" fill="#F8EA21"/>
<path d="M217.49 3.96996L224.59 6.56996C224.51 7.09996 224.28 7.63996 223.83 8.01996C221.77 14.59 219.25 22.37 216.19 30.47C222.37 38.18 224.28 43.37 224.28 48.03C224.28 63.53 213.82 63.53 207.18 63.3C207.1 60.4 205.88 55.97 204.2 52.99V72.61H193.28V11.07C191.6 15.12 189.69 19.01 187.55 22.68H191.29V32.22H181.13C179.91 33.75 178.69 35.2 177.46 36.57H189.14V72.07H178.68V69.47H168.98V72.75H158.98V51.37C158.06 51.9 157.15 52.44 156.15 52.9C155 50.53 152.33 46.1 150.58 43.97C153.48 42.67 156.31 41.07 158.98 39.31V36.56H162.72C164.48 35.19 166.08 33.73 167.68 32.21H152.41V22.67H164.7V16.87H155.38V7.40996H164.7V0.459961L177.15 1.14996C177.07 1.90996 176.46 2.44996 174.94 2.67996V7.40996H181.51V12.83C182.73 10.31 183.8 7.70996 184.72 5.03996L193.27 7.78996V4.34996H215.18L217.47 3.96996H217.49ZM178.7 48.71V45.27H169V48.71H178.7ZM169 60.7H178.7V56.96H169V60.7ZM174.96 22.68H175.8C177.1 20.85 178.32 18.86 179.39 16.88H174.96V22.68ZM204.2 14.74V52.61C206.03 52.76 207.64 52.76 208.7 52.76C212.52 52.76 213.28 51 213.28 47.49C213.28 43.75 211.22 39.62 204.96 32.37C206.94 25.96 208.62 20.08 210 14.73H204.2V14.74Z" fill="#F8EA21"/>
<path d="M247.26 25.35L253.37 27.03C253.29 27.64 253.06 28.33 252.76 28.79C251.92 38.72 250.32 47.34 247.95 54.45C254.9 59.34 264.06 60.33 274.45 60.41C279.87 60.41 294.91 60.41 301.4 60.1C299.72 62.62 297.89 67.74 297.2 70.94H274.14C261.85 70.94 251.69 69.56 243.6 64.07C241.46 67.74 238.87 70.79 235.89 73.08C234.21 70.94 229.93 67.05 227.57 65.67C230.93 63.3 233.6 60.25 235.74 56.36C232.91 52.47 230.47 47.58 228.49 41.47L237.12 38.49C237.96 41.09 238.95 43.3 240.02 45.29C240.78 42.24 241.39 38.88 241.85 35.21H238.8L238.04 36.97L228.04 34.45C231.02 27.96 234.38 20.25 237.05 13.68H228.35V4.05H243.01L245.07 3.82L251.25 5.88C251.02 6.41 250.72 7.1 250.41 7.64C248.58 12.37 245.83 18.94 243 25.58H245.44L247.27 25.35H247.26ZM268.33 15.12V13.36H255.81V5.12H268.33V0L281.31 0.69C281.23 1.53 280.62 2.06 279.1 2.29V5.12H293.84V15.12H300.25V23.52H293.84V33.52H279.1V35.28H295.06V43.14H279.1V44.97H298.49V53.6H279.1V59.1H268.33V53.6H251.07V44.97H268.33V43.14H254.43V35.28H268.33V33.52H255.58V25.27H268.33V23.51H250V15.12H268.33ZM282.91 13.36H279.09V15.12H282.91V13.36ZM282.91 25.27V23.51H279.09V25.27H282.91Z" fill="#F8EA21"/>
<path d="M335.07 12.83V21.46H304.45V12.83H335.07ZM367.52 32.68L374.54 35.35C374.39 35.96 374.01 36.27 373.62 36.73C371.41 45.05 367.82 51.85 362.93 57.42C367.21 59.86 372.17 61.77 377.59 63.07C375.15 65.28 371.94 69.79 370.41 72.61C364.38 70.78 359.03 68.18 354.38 64.82C349.57 68.1 344 70.7 337.66 72.61C336.59 69.94 334.15 65.74 332.16 63.29V68.86H317.19V71.53H307.87V45.03H332.15V62.74C337.27 61.52 341.92 59.69 345.97 57.24C342.99 53.88 340.47 50.14 338.26 45.94L347.8 42.89H336.04V32.96H339.17C337.41 31.05 334.28 28.46 332.22 27.16V31.97H308.17V23.72H332.22V26.47C338.4 22.04 339.02 16.24 339.02 11.28V2.20996H365.74V18.48C365.74 20.77 365.82 21 366.43 21H367.27C368.03 21 368.34 20.01 368.49 13.75C370.4 15.35 374.67 16.96 377.42 17.64C376.5 27.49 373.98 30.32 368.41 30.32H364.36C357.41 30.32 355.35 27.49 355.35 18.64V12H349.47C349.39 19.1 347.94 27.58 341.22 33H365.58L367.49 32.7L367.52 32.68ZM332.24 34.28V42.53H308.19V34.28H332.24ZM332.16 2.35996V10.61H308.41V2.36996H332.16V2.35996ZM322.69 60.16V53.67H317.19V60.16H322.69ZM348.12 42.9C349.65 45.73 351.71 48.4 354.15 50.77C356.36 48.48 358.2 45.81 359.72 42.9H348.11H348.12Z" fill="#F8EA21"/>
<path d="M70.3598 105.58H41.5698C41.1898 106.65 40.8098 107.79 40.3498 108.94H61.7298V157.81H50.1198V154.68H21.3298V157.81H10.2598V108.94H27.9698C28.1998 107.79 28.3498 106.73 28.4998 105.58H0.549805V95.35H16.3598C14.9098 93.29 13.0798 91.07 11.4698 89.32L21.7798 84.66C24.6798 87.33 27.8098 91 29.4898 93.67L26.2798 95.35H41.3198C43.5298 92.3 45.8998 88.25 47.1998 85.04L61.5498 89.01C61.1698 89.7 60.3998 90 59.1098 90C57.9698 91.68 56.5098 93.59 54.9898 95.34H70.3398V105.57L70.3598 105.58ZM50.1298 121.54V118.49H21.3398V121.54H50.1298ZM21.3398 129.86V133.22H50.1298V129.86H21.3398ZM21.3398 145.13H50.1298V141.54H21.3398V145.13Z" fill="#F8EA21"/>
<path d="M128.69 138.33H118.23V99.62L112.5 107.64C111.28 106.42 109.75 105.12 107.99 103.75V107.49H90.7297V104.74C89.1297 106.34 87.3697 107.87 85.4597 109.4H114.63V134.75H90.4297C90.3497 135.44 90.1997 136.13 90.0497 136.81H115.93V157.58H106.31V155.75H96.0797V157.74H86.8397V148.12C85.6197 151.1 84.0897 153.92 82.1797 156.37C80.7297 154.54 76.7597 150.87 74.8497 149.73C81.4897 140.87 82.1797 128.43 82.1797 119.72V111.85C81.5697 112.31 80.9597 112.69 80.2697 113.15C79.1997 110.63 76.3797 106.43 74.4697 104.6C83.6297 99.18 89.8897 91.85 93.4097 85.28L105.32 87.57C105.09 88.33 104.4 88.87 103.26 88.87L103.18 88.95C108.75 92 114.56 96.13 118.22 99.11V94.68L130.89 95.37C130.81 96.21 130.2 96.67 128.68 96.97V138.35L128.69 138.33ZM91.2797 127.26H104.8V125.2H91.4397L91.2897 127.26H91.2797ZM104.8 116.95H91.5897V118.86H104.8V116.95ZM103.2 100.23C101.44 99.01 99.6897 97.86 97.9297 96.72C97.0097 97.94 96.0997 99.09 95.0297 100.23H103.2ZM106.33 144.59H96.0997V147.95H106.33V144.59ZM134.73 86.87L147.79 87.4C147.64 88.24 147.1 88.85 145.5 89.08V144.9C145.5 154.37 143.13 157.73 126.26 157.73C125.88 154.6 124.27 149.56 122.75 146.35C126.95 146.58 131.38 146.58 132.91 146.58C134.21 146.58 134.74 146.12 134.74 144.82V86.87H134.73Z" fill="#F8EA21"/>
<path d="M173.74 115.58L181.45 119.24C181.22 119.85 180.76 120.39 180.15 120.69C176.71 135.05 169.61 146.96 160.45 153.29C158.62 150.92 154.11 146.65 151.44 144.97C158.01 141 163.27 134.43 166.48 126.42H153.5V115.96H171.83L173.74 115.58ZM194.05 106.19C195.42 110.92 197.1 115.43 199.17 119.63C203.9 115.74 209.02 110.77 212.38 106.42L223.76 115.58C223.38 115.96 222.61 116.19 221.77 116.19C221.46 116.19 221.16 116.19 220.85 116.11C216.8 119.93 210.16 125.12 204.74 128.56C209.86 135.2 216.35 140.47 224.74 143.75C222.14 146.04 218.55 150.7 216.8 153.91C206.72 149.1 199.47 141.85 194.05 132.53V145.97C194.05 155.9 189.7 157.88 174.5 157.88C174.04 154.75 172.44 150.01 170.91 147.19C174.42 147.42 179.39 147.42 180.68 147.42C182.05 147.34 182.51 146.96 182.51 145.82V112.83H164.41V102.22H191.13C184.72 99.39 176.32 96.49 169.83 94.81L175.18 84.73C183.66 86.49 196.71 90.53 203.2 93.89L197.4 105.34C196.41 104.81 195.34 104.2 194.04 103.58V106.18L194.05 106.19Z" fill="#F8EA21"/>
<path d="M274.75 95.88L282.77 100C282.46 100.69 281.93 101.3 281.24 101.6C279.48 108.09 277.19 114.2 274.44 119.85C279.4 131.91 288.64 142.45 301.32 147.8C298.65 150.17 294.91 154.9 293.07 158.03C281.69 152.3 273.52 143.22 267.41 131.69C259.09 143.6 248.17 152.69 235.88 158.11C234.43 155.21 230.69 149.94 228.17 147.8C246.04 140.85 260.16 127.18 267.19 107.64H252.99C248.56 115.81 243.14 123.06 237.03 128.41C234.97 126.12 230.62 122.3 227.87 120.39C237.41 113.14 245.28 99.39 249.17 85.27L262.91 89.16C262.6 89.85 261.69 90.38 260.47 90.23C259.78 92.29 259.02 94.35 258.18 96.41H272.76L274.74 95.88H274.75Z" fill="#F8EA21"/>
<path d="M376.3 131.77H362.63C366.91 137.73 372.79 143.3 378.74 146.81C376.22 148.87 372.63 152.92 370.88 155.67C366.07 152 361.41 146.74 357.52 140.86V157.81H346.37V141.32C342.25 147.05 337.36 151.93 332.09 155.45C330.41 152.78 326.97 148.81 324.53 146.67V157.82H313.76V120.86C312 123.23 310.25 125.52 308.42 127.5C307.43 124.75 304.75 118.87 303.3 116.12C309.64 109.4 316.2 97.1801 320.1 85.4301L332.24 89.6301C331.78 90.3901 330.94 90.7001 329.87 90.6201C328.04 95.2801 325.9 100.09 323.53 104.67L326.74 105.51C326.59 106.27 325.9 106.88 324.53 107.04V146.52C330.79 143.24 336.9 137.74 341.25 131.78H327.51V121.78H346.37V115.98H332.24V88.4901H372.86V115.98H357.51V121.78H376.29V131.78L376.3 131.77ZM342.7 98.1701V106.26H361.79V98.1701H342.7Z" fill="#F8EA21"/>
<path d="M452.34 101.38H446.84C444.93 105.2 442.41 108.63 439.43 111.61C443.93 113.52 449.05 115.05 454.85 115.89C452.86 117.95 450.12 122.08 448.82 124.75C442.25 123.3 436.45 120.93 431.56 117.96C426.75 121.01 421.18 123.38 415.07 125.14C414.15 123.54 412.32 120.94 410.64 118.96V145H401.1V96.67C400.11 99.19 399.11 101.63 398.05 104.08L400.65 104.92C400.42 105.61 399.73 106.22 398.44 106.45V158.07H387.9V122.87C386.6 124.78 385.3 126.53 384.01 128.14C383.17 125.32 380.8 118.98 379.51 116.23C385.01 109.43 390.51 97.22 393.79 85.46L405.7 89.43C405.39 90.12 404.63 90.5 403.41 90.42L401.58 95.54L412.73 96.15C412.65 96.91 412.12 97.45 410.67 97.68V102.95C415.1 98.29 418.84 91.8 420.9 85.24L432.12 88.45C431.89 89.14 431.13 89.52 430.06 89.44C429.68 90.51 429.22 91.65 428.69 92.72H452.36V101.42L452.34 101.38ZM410.65 116.73C415.31 115.59 419.58 113.98 423.4 111.92C421.87 110.55 420.5 109.1 419.28 107.64C417.98 109.17 416.61 110.54 415.23 111.76C414.08 110.69 412.4 109.24 410.65 107.94V116.72V116.73ZM454.78 140.32C454.47 140.93 453.79 141.31 452.57 141.31C444.78 149.71 431.72 154.6 416.38 157.5C415.23 154.83 412.94 151.16 410.81 148.87C424.32 147.11 437.23 143.3 443.64 136.42L454.79 140.31L454.78 140.32ZM440.73 124.29C440.5 124.82 439.89 125.13 438.97 125.13C434.62 128.87 427.14 132.38 420.03 134.6C418.73 132.62 416.37 130.02 414.3 128.34C420.48 126.89 427.74 123.99 431.4 120.86L440.72 124.3L440.73 124.29ZM448.21 130.93C447.98 131.46 447.37 131.77 446.38 131.85C440.58 137.5 430.42 142 419.73 144.68C418.58 142.54 416.45 139.64 414.54 137.81C424.01 136.05 434.01 132.47 438.97 127.58L448.21 130.94V130.93ZM424.77 101.38C426.37 103.21 428.36 105.05 430.73 106.72C432.49 105.12 434.01 103.36 435.31 101.38H424.77Z" fill="#F8EA21"/>
</svg>
