<svg width="524" height="250" viewBox="0 0 524 250" fill="none" xmlns="http://www.w3.org/2000/svg">
<path d="M165.28 82.27H147.61V77.7H135.23V82.15H117.56V46.09H104.58V91.17H178.51V108.12H104.57V114.97H86.54V46.09H69.71V29.14H86.54V4.61997L108.18 5.81997C108.06 7.13997 107.1 7.97997 104.57 8.33997V29.14H117.55V2.08997L138.83 3.16997C138.71 4.60997 137.75 5.32997 135.22 5.80997V29.13H147.6V3.16997L168.88 4.24997C168.76 5.68997 167.8 6.40997 165.27 6.88997V29.13H182.82V46.08H165.27V82.26L165.28 82.27ZM135.23 61.47H147.61V46.08H135.23V61.47Z" fill="white"/>
<path d="M308.2 57.63H290.29C298.22 64.6 308.92 70.13 320.82 73.38C316.97 76.75 311.8 83.6 309.28 88.05C301.95 85.53 295.22 81.92 289.2 77.47V115.22H271.89V69.66L280.55 70.14C276.7 66.29 273.22 62.09 270.09 57.64H256.63C253.62 61.97 250.02 65.93 246.17 69.66L259.03 70.38C258.91 71.7 257.95 72.54 255.54 72.9V78.55C255.54 90.69 251.93 107.04 227.77 116.3C225.61 112.33 220.08 105.96 216.47 102.96C238.59 95.51 238.59 83.37 238.59 76.15C231.98 81.08 224.65 85.29 216.83 88.17C214.31 84.08 209.26 77.59 205.53 74.23C216.95 70.74 227.89 64.73 235.82 57.64H219.59V4.51001H308.18V57.64L308.2 57.63ZM236.56 18.44V24.57H254.35V18.44H236.56ZM236.56 37.43V43.68H254.35V37.43H236.56ZM290.41 24.57V18.44H271.42V24.57H290.41ZM290.41 43.68V37.43H271.42V43.68H290.41Z" fill="white"/>
<path d="M447.52 38.15L457.98 42.6C457.74 43.44 457.02 44.4 456.3 45C452.93 62.67 447.16 77.7 439.35 89.84C444.76 94.53 451.13 98.26 458.82 101.02C455.33 104.14 450.53 110.76 448.24 115.2C440.67 111.95 434.3 107.75 429.01 102.7C424.32 107.39 419.27 111.36 413.74 114.48C411.58 110.87 406.05 104.74 402.44 101.98C400.4 106.79 397.99 111.12 395.11 114.96C392.47 112.2 386.09 107.03 382.25 104.74C384.41 101.98 386.34 98.85 387.9 95.24L380.21 98.12C379.37 93.79 377.56 87.66 375.76 82.01V114.95H360.61V77.69H360.25C359.29 87.43 357.12 98.97 353.88 106.3C350.75 104.26 345.22 101.85 341.74 100.41C344.5 93.8 346.07 82.5 346.79 72.52L360.61 75.64V67.71C355.92 67.95 351.59 68.31 347.99 68.43C347.63 69.75 346.55 70.23 345.59 70.35L342.46 53.28H351.11C352.67 51.24 354.24 49.19 355.8 47.03C352.43 41.74 347.14 35.73 342.46 31.16L350.63 19.14L352.67 20.94C355.8 14.45 358.8 6.87999 360.72 0.859985L377.43 7.58998C376.95 8.42998 375.63 8.90999 373.82 8.90999C371.05 15.4 366.25 24.18 362.16 30.67C363 31.63 363.84 32.71 364.56 33.68C368.53 27.43 372.01 21.06 374.66 15.41L388.84 21.78V7.35999H429.47L433.08 7.11999L441.25 8.55998C441.13 9.51998 440.89 10.72 440.65 11.68C439.57 18.89 437.76 28.63 435.84 38.61H444.74L447.51 38.13L447.52 38.15ZM375.15 52.94C374.19 50.54 373.11 48.13 372.02 45.85C370.1 48.37 368.17 50.78 366.37 53.06L375.15 52.94ZM375.75 76.14L386.81 72.53C388.37 76.62 390.06 81.31 391.5 85.75C396.31 69.16 397.51 47.28 397.63 23.36H389.94C389.22 23.84 388.26 24.08 386.93 24.08C383.32 30.09 378.4 37.3 373.23 44.28L383.93 39.83C388.38 48 392.95 58.7 394.27 65.92L380.93 71.81C380.69 70.13 380.33 68.32 379.73 66.28L375.76 66.64V76.14H375.75ZM418.3 89.96C415.17 84.91 412.41 79.38 410.13 73.37C408.45 83.83 406.04 93.33 402.68 101.38C408.45 98.38 413.74 94.53 418.31 89.96H418.3ZM413.73 23.36C413.61 26.37 413.61 29.37 413.49 32.38C414.45 39.11 415.77 45.48 417.46 51.37C419.26 42.35 421.19 32.14 422.75 23.36H413.73ZM418.78 55.94C421.18 63.75 424.31 70.85 428.4 77.1C432.37 70.49 435.61 62.8 437.9 54.14H432.73L432.01 57.51L418.79 55.95L418.78 55.94Z" fill="white"/>
<path d="M9.73035 167.59C16.1004 169.99 24.6404 174.2 28.7204 177.81L18.5004 191.87C14.7704 188.26 6.60035 183.34 0.110352 180.45L9.73035 167.59ZM1.92035 238.99C6.37035 229.49 12.3804 214.47 17.0704 200.04L31.2504 209.06C27.2804 221.92 22.8404 234.66 18.9904 244.04C19.8304 245 20.1904 245.96 20.1904 246.8C20.1904 247.52 20.0704 248.12 19.7104 248.6L1.92035 238.98V238.99ZM14.1804 135.73C20.6704 138.25 29.2104 142.7 33.4104 146.43L23.0704 160.37C19.3404 156.64 10.9304 151.47 4.44035 148.47L14.1804 135.73ZM111.67 138.61V232.37C111.67 244.75 107.94 249.92 89.9104 249.92C89.3104 245.59 86.9104 238.02 84.6204 233.93C88.3504 234.17 92.4304 234.17 93.7604 234.17C95.2004 234.17 95.6804 233.57 95.6804 232.01V210.85H87.3904C85.5904 225.03 81.3804 239.34 72.3604 249.32C69.5904 246.68 63.1003 242.23 59.3803 240.54C61.6603 238.02 63.7103 235.25 65.2703 232.25H47.2404V240.06H32.4504V189.69H43.1504V172.98H29.4504V157.23H43.1504V134.99L62.0203 136.07C61.9003 137.27 61.0604 137.99 58.6504 138.47V157.22H70.5504V172.97H58.6504V189.68H69.4704V222.38C73.2004 210.72 73.6804 197.74 73.6804 186.56V138.6H111.67V138.61ZM54.4504 217.35V204.61H47.2404V217.35H54.4504ZM88.8304 186.58C88.8304 189.46 88.8304 192.35 88.7104 195.48H95.6804V182.26H88.8304V186.59V186.58ZM95.6804 154H88.8304V166.86H95.6804V154Z" fill="white"/>
<path d="M146.761 167.71C153.491 170.23 162.271 174.68 166.711 178.53L156.371 192.59C152.521 188.74 143.871 183.57 137.141 180.57L146.761 167.71ZM139.431 238.27C144.361 228.77 151.211 213.75 156.501 199.32L170.561 208.94C165.991 221.92 160.941 234.54 156.501 243.92C157.341 244.88 157.701 245.84 157.701 246.8C157.701 247.52 157.461 248.12 157.221 248.72L139.431 238.26V238.27ZM172.611 146.67L162.271 160.49C158.301 156.52 149.651 151.23 142.801 147.99L152.541 135.25C159.271 138.01 168.171 142.46 172.611 146.43V144.75H202.181V134.77L222.741 135.85C222.621 137.17 221.661 138.01 219.251 138.37V144.74H249.901V166.98H233.791V157.24H187.991V166.98H172.601V146.66L172.611 146.67ZM244.981 230.7H235.841C242.331 233.58 248.701 236.59 252.911 238.87L239.691 249.09C234.041 245.6 224.061 240.07 215.291 236.11L220.821 230.7H203.751L211.321 236.23C210.841 236.71 210.001 236.95 209.161 236.95C202.671 241.52 189.691 246.57 178.991 249.09C176.831 245.72 172.741 240.55 169.731 237.31C176.221 235.87 183.551 233.34 189.561 230.7H181.631V204.73C179.471 205.21 177.181 205.69 175.021 206.05C173.341 202.56 169.251 195.95 166.611 192.83C171.661 192.11 176.711 191.27 181.641 190.31V187.79C180.441 188.27 179.241 188.75 178.031 189.11C175.991 185.99 171.901 181.18 168.771 178.41C175.741 176.37 183.201 172.28 187.641 168.55L191.131 170.71V160.85H230.681V170.11C231.161 169.75 231.521 169.39 232.001 168.91L248.471 176.6C247.751 177.44 246.431 177.92 244.621 177.68C240.771 181.17 236.331 184.41 231.281 187.3H244.981V230.7ZM201.101 176.85C200.621 177.57 199.781 177.93 198.341 177.81C194.611 180.94 188.721 184.66 182.591 187.31H194.251C197.141 186.59 199.901 185.75 202.541 184.79V172.77H194.491L201.101 176.86V176.85ZM197.731 210.27H228.141V207.63H197.731V210.27ZM228.141 218.8H197.731V221.57H228.141V218.8ZM228.141 196.44H211.431C208.911 197.4 206.381 198.24 203.741 199.08H228.141V196.44ZM218.521 172.76V178.29C221.891 176.61 224.891 174.8 227.541 172.76H218.521Z" fill="white"/>
<path d="M340.29 144.87H383.45V173.24H366.02V159.42H296.78V173.24H280.19V144.87H322.26V134.65L343.9 135.85C343.78 137.17 342.82 138.01 340.29 138.37V144.86V144.87ZM287.76 248.97V205.33H375.87V248.97H358.56V246.69H304.23V248.97H287.76ZM297.74 202.57V176.36H365.3V202.57H297.74ZM300.99 162.18H362.18V173.6H300.99V162.18ZM322.51 217.72H304.24V220.84H322.51V217.72ZM304.24 234.31H322.51V231.06H304.24V234.31ZM313.62 187.43V191.52H348.36V187.43H313.62ZM358.58 220.85V217.73H339.59V220.85H358.58ZM339.59 234.31H358.58V231.06H339.59V234.31Z" fill="white"/>
<path d="M523.73 199.81H489.47V207.38H515.44V249.09H497.89V245.84H463.39V249.09H446.68V207.38H471.92V199.81H441.39V192.72H441.27C440.07 211.95 436.58 234.43 426.24 249.46C422.87 246.58 415.06 242.01 410.61 240.32C423.23 222.29 424.19 195.12 424.19 176.01V140.43H516.99V176.13H493.07C492.95 177.57 491.87 178.29 489.46 178.77V184.3H523.72V199.81H523.73ZM441.87 176.13C441.87 178.65 441.87 181.42 441.75 184.3H471.92V176.13H441.87ZM499.33 155.57H441.87V160.98H499.33V155.57ZM497.89 230.7V222.53H463.39V230.7H497.89Z" fill="white"/>
</svg>
