<svg width="1166" height="61" viewBox="0 0 1166 61" fill="none" xmlns="http://www.w3.org/2000/svg">
<path d="M11.9152 31.89C9.69522 29.85 4.68521 27.195 0.845215 25.71C2.39021 23.355 3.93522 21.015 5.42022 18.66C9.20022 19.89 14.2702 22.185 16.8052 24.105L11.9152 31.89ZM59.2252 41.73H48.3352C51.5452 45.63 55.8802 49.215 60.3352 51.435C58.2352 53.1 55.3852 56.445 53.9602 58.8C50.0002 56.085 46.2952 52.065 43.2652 47.49V60.105H34.4152V47.805C30.8902 52.44 26.4952 56.34 21.3652 58.875C20.0602 56.835 17.5252 53.685 15.7402 52.005C21.1852 49.845 26.0002 46.125 29.4652 41.745H19.3852V40.32C16.6702 46.875 13.6402 53.19 10.9702 58.005C11.3452 58.5 11.5252 58.935 11.5252 59.37C11.5252 59.745 11.4052 60.105 11.1502 60.42L2.30022 54.6C5.21022 49.785 9.35022 42.045 12.6352 34.56L19.3702 39.75V33.75H34.4002V27.81L43.8652 28.305C40.8952 27.315 40.2202 24.84 40.2202 19.95V12.465L50.1802 13.02C50.1202 13.635 49.6252 14.07 48.4552 14.25V19.875C48.4552 21.48 48.5752 21.6 49.5052 21.6H51.3652C52.1752 21.6 52.4152 21.165 52.5952 18.945C54.0802 20.055 57.4252 21.3 59.6452 21.735C58.7752 27.24 56.6752 28.785 52.3402 28.785H48.0052C46.8952 28.785 45.9052 28.725 45.0352 28.605C44.9152 29.16 44.4202 29.475 43.2352 29.715V33.735H59.1952V41.715L59.2252 41.73ZM8.45022 2.145C12.0952 3.63 17.0452 6.225 19.4602 8.385L13.9552 15.615C11.7952 13.395 7.02522 10.485 3.32022 8.685L8.45022 2.13V2.145ZM39.3052 13.395C39.2452 13.95 38.7502 14.385 37.7602 14.505C36.8302 21.87 34.9702 27.615 22.5502 30.705C21.8752 28.725 19.8952 25.695 18.2902 24.21C28.2502 22.23 29.2402 18.765 29.7352 12.585L39.3202 13.395H39.3052ZM27.8002 11.595V18.405H20.0752V4.06502H58.3552V18.405H50.2552V11.595H27.8002Z" fill="white"/>
<path d="M135.245 31.89V40.185H129.5V60.225H120.905V40.185H116.15C115.28 47.91 112.94 55.71 107.555 60.465C105.83 59.22 102.11 57.18 100.01 56.265C104.84 52.365 106.82 46.185 107.615 40.185H101.87V35.295H93.95C96.17 37.395 101.495 43.095 102.8 44.505L98.105 50.25C97.115 48.585 95.57 46.35 93.905 44.13V60.21H85.625V47.475C83.9 50.88 81.98 54.03 79.88 56.325C79.13 53.85 77.345 50.325 76.04 48.165C79.07 44.88 82.04 39.945 84.02 35.295H76.715V27.81H85.625V25.71H78.335V18.225H85.625V16.185H77.21V8.70001H85.625V1.47L95.705 2.02502C95.645 2.64002 95.15 3.075 93.905 3.27V8.715H102.005V16.2H93.905V18.24H100.64V25.725H93.905V27.825H102.065V31.905H108.125V21.51H103.175V13.215H108.125V1.59L118.325 2.145C118.265 2.82 117.77 3.19501 116.525 3.45001V13.215H120.92V1.47L131.315 2.02502C131.255 2.70002 130.76 3.07501 129.515 3.33001V13.23H134.645V21.525H129.515V31.92H135.26L135.245 31.89ZM116.51 31.89H120.905V21.495H116.51V31.89Z" fill="white"/>
<path d="M179.03 10.245C179.84 12.105 180.635 14.205 181.385 16.305V1.58998L191.285 2.08498C191.225 2.75998 190.73 3.19498 189.485 3.38998V28.125C189.485 40.425 187.01 53.415 176 60.66C174.83 58.935 172.04 55.71 170.255 54.225C176.135 51.315 178.91 46.62 180.215 41.235C178.67 42.72 177.185 44.01 176.015 45.075C176.075 45.75 175.76 46.32 175.28 46.56L171.38 38.7L170.27 40.245C169.715 38.82 168.905 37.035 167.975 35.115V60.285H159.875V40.065C158.51 43.77 157.025 47.055 155.3 49.59C154.55 47.175 152.705 43.71 151.46 41.61C154.865 36.915 157.775 29.115 159.26 22.32H153.02V14.04H159.89V1.54498L169.79 2.09998C169.73 2.71498 169.235 3.08998 167.99 3.34498V14.04H172.94L172.505 12.87L179.06 10.275L179.03 10.245ZM173.09 36.285C173.33 36.285 179.765 31.89 181.37 30.78V24.84L176.54 26.82C176.105 23.67 174.74 19.095 173.33 15.135V22.305H167.945V24.345C169.55 26.445 173.765 32.505 174.755 33.93L173.09 36.285ZM211.865 13.83C211.55 14.385 210.815 14.58 209.945 14.505C208.64 18.03 206.18 22.98 204.38 26.13L200.36 24.03V29.04L201.845 27.735C205.055 31.2 209.51 36.015 211.55 39.12L205.67 44.625C204.56 42.645 202.52 39.93 200.345 37.26V48.33C200.345 51.36 200.405 51.735 201.215 51.735H202.88C203.75 51.735 203.99 50.13 204.11 44.745C206.03 46.17 209.12 47.655 211.535 48.21C210.665 56.43 208.625 59.715 203.675 59.715H199.475C193.595 59.715 191.93 57.18 191.93 48.27V1.57499L202.13 2.12998C202.07 2.80498 201.575 3.17997 200.33 3.43497V17.97C201.32 15.195 202.25 12.15 202.865 9.68999L211.835 13.83H211.865Z" fill="white"/>
<path d="M229.88 3.69H283.625V60.345H274.85V58.305H238.295V60.345H229.88V3.69ZM238.295 50.265H274.85V39.255C274.535 39.57 273.92 39.69 273.245 39.57C272.135 40.245 270.455 41.235 268.85 42.165C270.71 42.915 272.69 43.53 274.67 43.965C273.185 45.27 271.145 47.865 270.155 49.53C266.315 48.36 262.73 46.38 259.64 43.965V49.155H251.78V44.265C248.87 45.81 245.78 47.175 242.75 48.225C241.82 46.8 239.72 44.205 238.415 42.915C242.93 41.61 247.685 39.63 251.465 37.155H243.545V27.015H269.15V35.175L274.835 39.135V11.745H238.28V50.28L238.295 50.265ZM273.23 20.82V25.65H239.84V20.82H252.455V19.335H242.75V14.64H252.455V12.165L262.355 12.72C262.295 13.335 261.8 13.71 260.555 13.965V14.64H270.32V19.335H260.555V20.82H273.23ZM261.35 33V31.08H250.895V33H261.35ZM261.785 37.14L261.17 37.695C261.845 38.31 262.655 38.865 263.465 39.36C264.455 38.685 265.565 37.935 266.555 37.14H261.8H261.785Z" fill="white"/>
<path d="M333.725 54.405H303.725V47.595L309.17 41.715C317.27 33.24 322.16 27.735 322.16 22.05C322.16 18.465 320 15.495 315.485 15.495C312.335 15.495 309.245 17.1 307.07 18.645L304.22 10.725C307.13 8.62501 312.26 6.70502 317.645 6.70502C328.22 6.70502 332.99 13.2 332.99 21.045C332.99 28.89 327.545 35.7 321.8 41.385L317.84 45.165V45.285H333.74V54.375L333.725 54.405Z" fill="white"/>
<path d="M381.65 7.41V16.38H366.185L365.315 23.805C366.065 23.745 366.74 23.685 367.475 23.685C374.765 23.685 383.24 27.705 383.24 38.46C383.24 47.37 376.37 55.095 364.625 55.095C359.93 55.095 355.595 53.985 353.315 52.8L355.235 44.58C357.215 45.51 360.425 46.56 363.89 46.56C368.285 46.56 372.305 43.965 372.305 39.255C372.305 34.005 368.105 31.395 360.62 31.395C358.7 31.395 357.215 31.455 355.73 31.71L358.445 7.41H381.635H381.65Z" fill="white"/>
<path d="M460.01 38.94V47.655H439.475V60.27H430.205V47.655H402.62V38.94H412.205V24.465C411.155 25.77 410.045 27 408.92 28.05C407.255 26.31 403.85 23.295 401.69 21.81C407.015 17.235 411.89 9.07502 414.425 1.27502L425.18 4.62002C424.94 5.17502 424.25 5.55001 423.32 5.43001C423.005 6.30001 422.645 7.09501 422.27 7.96501H456.29V16.68H439.475V22.92H454.88V31.275H439.475V38.94H460.01ZM430.205 16.68H417.71C416.405 18.9 414.995 21.015 413.45 22.92H430.205V16.68ZM421.235 38.94H430.205V31.275H421.235V38.94Z" fill="white"/>
<path d="M506.404 4.065H560.149V60.465H551.239V58.05H514.879V60.465H506.404V4.065ZM514.879 50.01H551.239V12.105H546.544C547.969 12.975 549.334 13.965 550.069 14.895L547.849 17.19H549.889V23.37H539.929C540.109 25.47 540.304 27.45 540.544 29.31C541.159 27.765 541.714 26.1 542.149 24.42L550.009 26.34C549.889 26.835 549.334 27.15 548.464 27.15C547.099 31.485 545.194 35.565 542.779 39.09C543.274 40.26 543.889 41.01 544.504 41.19H544.564C545.059 41.19 545.494 38.715 545.734 35.94C547.099 37.245 549.694 39.405 551.119 40.275C550.384 46.395 547.909 49.185 544.744 49.185C543.139 49.185 539.914 48.255 537.814 45.045C536.014 46.77 534.034 48.315 531.934 49.56C531.064 48.255 529.144 45.975 527.854 44.67C524.389 45.225 521.179 45.72 518.824 46.035C518.704 46.59 518.269 46.905 517.834 47.025L515.734 39.915C520.069 39.6 526.309 39.045 532.549 38.43L532.609 40.845C533.479 40.035 534.214 39.24 535.024 38.37C533.854 34.23 533.164 29.025 532.729 23.4H516.469V17.22H532.294C532.174 15.735 532.114 14.25 532.039 12.705L541.189 13.08C541.129 13.695 540.574 14.25 539.464 14.385C539.464 15.315 539.524 16.305 539.524 17.235H544.039C542.989 16.425 541.819 15.57 540.754 14.94L543.604 12.15H514.849V50.055L514.879 50.01ZM531.634 25.335V37.02H517.714V25.335H531.634ZM525.754 32.505V29.85H523.279V32.505H525.754Z" fill="white"/>
<path d="M618.726 25.275C619.401 27.375 620.271 29.415 621.261 31.395C623.916 29.535 626.646 27.375 628.566 25.515L636.351 32.625C636.036 32.865 635.541 33 634.926 33C634.671 33 634.431 33 634.191 32.94C632.091 34.425 628.686 36.525 625.656 38.19C629.061 42.27 633.321 45.555 638.646 47.655C636.606 49.455 633.891 53.04 632.526 55.515C621.396 50.13 615.141 40.185 611.196 27.135C609.771 28.065 608.226 28.995 606.561 29.85C614.226 35.295 617.196 42.225 617.196 48.03C617.196 55.89 611.811 60.465 605.196 60.465C603.711 60.465 602.106 60.405 600.501 60.345C600.381 58.05 599.826 54.84 598.461 52.305C594.006 54.66 589.371 56.76 585.171 58.245C584.121 56.025 582.201 52.8 580.416 50.82C589.011 48.78 599.151 44.085 605.271 39.315L604.716 38.64C599.526 41.85 592.596 45.135 587.091 47.055C586.101 45.075 584.241 42.045 582.636 40.32C588.141 39.09 595.011 36.615 599.706 34.005L598.836 33.39C594.936 34.935 590.796 36.18 586.716 37.155C585.846 35.43 583.806 32.085 582.576 30.48C588.516 29.37 594.696 27.63 599.886 25.29H592.656V17.745H624.696V25.29H618.756L618.726 25.275ZM591.081 15.195V21.93H582.306V7.08002H603.951V1.45502L615.081 2.07002C615.021 2.74502 614.526 3.18002 613.221 3.37502V7.08002H635.421V21.93H626.211V15.195H591.081ZM608.091 46.365C605.436 48.285 602.346 50.205 599.121 51.93C600.726 52.05 602.091 52.11 603.396 52.11C604.701 52.11 605.931 51.93 606.681 50.94C607.671 50.19 608.286 48.525 608.106 46.365H608.091Z" fill="white"/>
<path d="M670.371 21.945L675.321 23.31C675.261 23.805 675.066 24.36 674.826 24.735C674.151 32.775 672.846 39.765 670.926 45.51C676.551 49.47 683.976 50.28 692.391 50.34C696.786 50.34 708.966 50.34 714.216 50.085C712.851 52.125 711.366 56.265 710.811 58.875H692.136C682.176 58.875 673.956 57.765 667.401 53.31C665.676 56.28 663.561 58.755 661.161 60.615C659.796 58.89 656.331 55.725 654.426 54.615C657.141 52.695 659.316 50.22 661.041 47.07C658.746 43.92 656.781 39.96 655.161 35.01L662.151 32.595C662.826 34.695 663.636 36.495 664.506 38.1C665.121 35.625 665.616 32.91 665.991 29.94H663.516L662.901 31.365L654.801 29.325C657.216 24.075 659.931 17.82 662.091 12.51H655.041V4.70999H666.921L668.586 4.53L673.596 6.195C673.416 6.63 673.161 7.185 672.921 7.62C671.436 11.46 669.216 16.77 666.921 22.155H668.901L670.386 21.975L670.371 21.945ZM687.441 13.665V12.24H677.301V5.565H687.441V1.42499L697.956 1.98C697.896 2.655 697.401 3.09 696.156 3.285V5.57999H708.096V13.68H713.286V20.49H708.096V28.59H696.156V30.015H709.086V36.39H696.156V37.875H711.861V44.865H696.156V49.32H687.441V44.865H673.461V37.875H687.441V36.39H676.191V30.015H687.441V28.59H677.106V21.915H687.441V20.49H672.606V13.68H687.441V13.665ZM699.246 12.24H696.156V13.665H699.246V12.24ZM699.246 21.885V20.46H696.156V21.885H699.246Z" fill="white"/>
<path d="M788.075 46.125H769.895C774.965 48.54 782.075 50.325 789.185 51.075C787.265 52.935 784.73 56.46 783.5 58.74C776.39 57.255 769.4 54.345 764.015 50.265V60.225H755.3V50.145C749.855 54.165 742.805 57.255 735.695 58.86C734.465 56.7 731.99 53.355 730.19 51.555C736.925 50.565 743.795 48.645 748.745 46.11H731.3V39.18H755.3V36.465C754.55 35.655 753.635 34.8 752.825 34.05C746.15 35.22 739.655 36.27 735.02 36.9C734.96 37.455 734.525 37.77 734.03 37.89L731.435 30.165C733.97 29.985 737.12 29.73 740.585 29.43V23.985H733.28V17.925H755.855V23.985H748.685V28.68L755.915 27.93L755.975 29.595C757.895 27.87 758.135 25.95 758.135 23.85V17.67H773.465C772.91 16.305 771.74 14.325 770.555 12.6H767.525C766.295 14.145 764.93 15.63 763.565 16.8C761.705 15.495 758.375 13.89 756.14 12.9L756.515 12.585H750.02C750.77 13.755 751.385 14.94 751.745 15.87L744.575 17.91C744.14 16.485 743.09 14.385 741.98 12.585H741.545C740.12 14.385 738.575 16.11 737.03 17.475C735.365 16.05 732.275 14.01 730.295 12.96C733.88 10.11 737.345 5.23502 739.265 0.900024L748.535 3.93001C748.22 4.48501 747.545 4.66503 746.87 4.60503L746.315 5.65502H758.75V10.545C761.345 7.83001 763.64 4.23002 764.93 0.900024L774.395 3.67501C774.14 4.23001 773.525 4.48501 772.73 4.42501C772.55 4.86001 772.355 5.23501 772.115 5.67001H788.57V12.6H779.3C780.11 13.71 780.785 14.82 781.22 15.75L774.05 17.67H781.415V27.69C781.415 29.55 781.415 29.73 781.91 29.73C782.72 29.73 782.78 29.73 782.96 29.61C783.395 29.175 783.515 26.955 783.575 24.36C784.805 25.53 787.415 26.835 789.26 27.45C788.825 32.775 788.525 36.795 782.525 36.795H779.375C777.65 36.795 775.79 36.24 774.68 35.07C773.93 34.26 773.45 33.345 773.195 31.725L769.79 34.755C768.86 33.39 767.135 31.545 765.395 29.94C764.84 31.8 763.79 33.465 762.245 35.01L765.83 35.19C765.77 35.865 765.275 36.3 764.03 36.495V39.21H788.09V46.14L788.075 46.125ZM772.985 23.37H766.25C766.25 24.735 766.25 24.975 766.13 26.58L768.98 24.165C770.285 25.095 771.77 26.325 773 27.51V23.37H772.985Z" fill="white"/>
<path d="M848.571 40.305L855.621 43.275C855.306 43.83 854.571 44.025 853.701 43.95C852.471 46.11 850.416 48.78 848.691 51H861.306V58.665H808.986V51H820.056C819.006 48.345 817.206 44.88 815.421 42.225L819.996 40.305H812.271V32.64H829.956V27.69H819.321V24.84C816.531 26.82 813.636 28.68 810.606 30.285C809.436 28.185 806.961 24.84 805.101 23.115C815.676 17.985 825.636 8.58 830.091 1.155L841.836 1.82999C841.656 2.50499 841.026 3.135 840.036 3.195C845.976 11.175 856.296 18.525 865.461 22.125C863.241 24.42 861.201 27.51 859.521 30.225C856.551 28.68 853.521 26.76 850.551 24.66V27.69H839.541V32.64H857.406V40.305H848.556H848.571ZM829.956 40.305H823.461C825.441 43.155 827.481 46.545 828.291 49.02L823.776 51H829.956V40.305ZM844.371 19.89C840.531 16.68 837.201 13.215 834.906 10.05C832.611 13.26 829.401 16.665 825.696 19.89H844.371ZM840.666 49.515C842.466 47.04 844.626 43.395 845.991 40.305H839.556V51H843.756L840.666 49.515Z" fill="white"/>
<path d="M894.831 26.46H892.416C892.416 29.175 891.606 35.61 887.586 39.075C886.101 37.965 882.756 36.165 880.851 35.37C883.941 32.895 884.496 28.56 884.556 26.46H881.211V19.59H894.816V17.115H883.806V3.32999L892.836 3.825C892.776 4.44 892.341 4.815 891.231 4.995V10.38H894.816V1.53L904.716 2.08499C904.656 2.69999 904.161 3.07499 902.916 3.32999V37.215H894.816V26.46H894.831ZM938.991 48.225H920.316C924.396 51.075 930.831 52.125 940.416 52.125C938.556 54.045 936.396 57.75 935.406 60.345C922.236 59.415 915.246 56.445 910.611 49.275C907.341 54.78 900.591 58.365 885.066 60.345C884.451 58.05 882.471 54.66 880.926 52.74C890.571 51.87 896.196 50.445 899.541 48.225H882.231V40.92H904.131C904.446 39.12 904.626 37.08 904.746 34.74L915.696 35.61C915.576 36.285 914.946 36.72 913.896 36.915L913.341 40.935H923.481C921.681 40.32 919.896 39.765 918.291 39.33L920.826 35.925C920.391 34.005 919.521 31.845 918.786 30.24C920.331 30.3 922.491 30.3 923.121 30.3C923.751 30.3 923.991 30.12 923.991 29.49V26.64H915.021C916.566 28.245 918.051 30.045 918.861 31.53L912.486 35.115C911.676 33.255 909.516 30.48 907.536 28.5L910.821 26.64H904.326V20.58H907.596C906.786 19.035 905.616 17.31 904.686 16.125C907.401 15.885 910.071 15.57 912.546 15.075C911.616 14.325 910.566 13.59 909.576 12.975L913.971 11.175C915.201 11.85 916.686 12.84 917.871 13.77C918.486 13.65 919.041 13.455 919.596 13.215C918.486 12.345 917.001 11.415 915.696 10.74L918.171 9.495H916.011C913.656 10.545 911.061 11.475 908.091 12.345C907.161 10.86 905.121 8.63999 903.636 7.70999C910.806 6.22499 915.876 4.125 918.726 1.53L926.451 3.01498C926.331 3.50998 925.836 3.825 925.026 3.825L924.216 4.49999H932.376L933.681 4.32L938.571 6.36C938.451 6.735 938.136 6.975 937.896 7.23C935.301 11.565 931.401 14.595 926.586 16.875L934.131 17.115C934.011 17.73 933.636 18.225 932.466 18.345V20.565H940.011V26.625H932.466V29.775C932.466 34.665 930.861 35.28 928.446 36.09C930.801 36.84 933.021 37.635 934.566 38.31L932.706 40.905H939.021V48.21L938.991 48.225ZM923.961 17.925C920.991 19.035 917.721 19.905 914.196 20.58H923.961V17.925ZM921.606 9.50999C922.536 10.005 923.466 10.62 924.201 11.175C925.191 10.68 926.061 10.125 926.856 9.50999H921.606Z" fill="white"/>
<path d="M958.911 47.79H1012.9V57H958.911V47.79ZM962.376 7.41H1009.69V16.62H962.376V7.41ZM966.831 27.135H1004.74V36.285H966.831V27.135Z" fill="white"/>
<path d="M1057.19 49.155C1057.19 51.69 1058 52.005 1063.31 52.005H1077.91C1082.36 52.005 1083.04 50.955 1083.59 44.145C1085.51 45.45 1089.16 46.68 1091.45 47.115C1090.22 57.195 1087.67 59.73 1078.34 59.73H1062.88C1051.87 59.73 1048.84 57.375 1048.84 49.275V36.465H1046.54C1046.54 41.715 1046.54 53.16 1037.57 60.525C1036.4 58.86 1033 55.455 1031.39 54.405C1038.26 48.96 1038.26 41.79 1038.26 36.465H1033.07V28.185H1062.08V20.52H1074.76V14.52L1079.27 14.7V12.285H1043.41V15.93H1059.92V24.15H1037.6V18.09H1034.63V3.98999H1088.56V18.09H1083.31V20.505H1089.68V28.485H1083.31V41.535C1083.31 47.16 1082.14 50.07 1071.49 50.07C1071.17 47.715 1070 44.325 1068.89 42.15C1070.81 42.27 1073.09 42.27 1073.78 42.27C1074.53 42.27 1074.77 42.015 1074.77 41.34V28.47H1062.34V32.055L1069.01 29.34C1071.11 32.19 1073.09 36.015 1073.96 38.67L1066.73 42.015C1066.06 39.42 1064.26 35.52 1062.34 32.55V36.45H1057.21V49.125L1057.19 49.155Z" fill="white"/>
<path d="M1141.49 49.455H1165.43V58.305H1108.65V49.455H1131.84V35.535H1114.65V26.685H1131.84V14.565H1111.62V5.715H1162.28V14.565H1141.5V26.685H1159.8V35.535H1141.5V49.455H1141.49Z" fill="white"/>
</svg>
