<svg width="390" height="59" viewBox="0 0 390 59" fill="none" xmlns="http://www.w3.org/2000/svg">
<path d="M128.431 6.29987H30.4206C17.4723 6.29987 6.97559 16.7966 6.97559 29.7449V29.7599C6.97559 42.7082 17.4723 53.2048 30.4206 53.2048H128.431C141.379 53.2048 151.876 42.7082 151.876 29.7599V29.7449C151.876 16.7966 141.379 6.29987 128.431 6.29987Z" fill="#FFE900"/>
<path d="M25.8391 33.2984H50.287V34.9678H25.8391V33.2984ZM26.3776 18.8128H49.6408V20.4552H26.3776V18.8128ZM29.7971 27.6442H46.1675V28.8827H29.7971V27.6442ZM42.0211 31.3329H43.9866V38.4411C43.9866 39.5719 43.7443 40.1104 42.8827 40.3797C41.9941 40.6759 40.594 40.6759 38.44 40.6759C38.3323 40.1374 38.0362 39.4104 37.74 38.845C39.517 38.8988 40.971 38.8988 41.4287 38.8988C41.9134 38.845 42.0211 38.7642 42.0211 38.4142V31.3329ZM30.6587 36.0986L31.9242 34.887C33.5128 35.8563 35.4783 37.3102 36.4207 38.3872L35.0744 39.7066C34.1859 38.6296 32.2742 37.0948 30.6587 36.0986ZM31.0895 16.5241L32.7319 15.8241C33.5397 16.6318 34.509 17.7896 34.9936 18.5704L33.2704 19.3782C32.8396 18.5974 31.8973 17.3857 31.0895 16.5241ZM30.3895 23.39V30.2828H45.6559V23.39H30.3895ZM28.5316 22.0707H47.5945V31.6021H28.5316V22.0707ZM42.9365 15.851L45.0097 16.4703C44.202 17.6281 43.2865 18.8397 42.5326 19.6474L41.0248 19.082C41.671 18.1935 42.5057 16.7934 42.9365 15.851ZM39.3286 19.5936H41.1056V24.4939C41.1056 25.0324 41.2402 25.1401 42.0211 25.1401C42.4249 25.1401 44.5251 25.1401 45.0097 25.1401C45.4944 25.1401 45.629 25.1132 45.6829 24.9786C46.0598 25.194 46.6522 25.3555 47.1099 25.4094C46.9753 26.0556 46.4906 26.2979 45.279 26.2979C44.8482 26.2979 42.2365 26.2979 41.8326 26.2979C39.8132 26.2979 39.3286 25.9748 39.3286 24.467V19.5936ZM34.8052 19.5667H36.5553V22.7977C36.5553 24.6016 35.7206 26.3787 31.8703 27.3749C31.6819 26.998 31.2241 26.3787 30.8741 26.0825C34.3474 25.4363 34.8052 24.0631 34.8052 22.7977V19.5667ZM54.5412 30.7136H75.6504V32.4907H54.5412V30.7136ZM63.8842 27.9134H65.9035V40.622H63.8842V27.9134ZM63.4264 31.4406L65.0689 32.1137C62.7264 35.6678 58.4184 38.4949 54.0027 39.8412C53.7065 39.3027 53.1411 38.5488 52.6834 38.118C57.0452 37.041 61.2994 34.51 63.4264 31.4406ZM66.4959 31.6021C68.6768 34.51 72.9579 37.041 77.1582 38.1449C76.6735 38.5757 76.0543 39.3835 75.7312 39.9489C71.5309 38.5757 67.2767 35.6947 64.9073 32.2753L66.4959 31.6021ZM53.7873 25.4363H76.2697V29.7982H74.2503V27.2134H55.7259V29.7982H53.7873V25.4363ZM62.9956 17.305L64.6919 17.9512C63.8572 19.0282 62.9687 20.1321 62.2417 20.886L61.0032 20.2936C61.6763 19.4859 62.5379 18.1666 62.9956 17.305ZM58.203 21.586L59.4954 20.4552C60.9224 21.3706 62.861 22.663 63.8842 23.4708L62.511 24.7363C61.5686 23.9016 59.6569 22.5284 58.203 21.586ZM58.5799 15.8779H60.4108C60.1685 21.2629 59.1184 23.9285 53.8411 25.3825C53.6796 24.9247 53.168 24.2247 52.818 23.9016C57.5837 22.69 58.3915 20.5629 58.5799 15.8779ZM55.5105 17.3588L56.8837 17.8165C56.4259 19.1897 55.699 20.6167 54.4604 21.4783L53.1949 20.6706C54.2989 19.9167 55.1066 18.5974 55.5105 17.3588ZM74.7888 17.2511L76.5389 17.9242C75.6504 19.0551 74.6003 20.2129 73.7926 20.9937L72.5271 20.4013C73.281 19.5397 74.2772 18.1666 74.7888 17.2511ZM69.4846 21.3976L70.75 20.2398C72.6079 21.3976 75.2196 23.0669 76.5389 24.0901L75.2465 25.4632C73.9541 24.4132 71.3962 22.6361 69.4846 21.3976ZM69.8346 15.8779H71.6655C71.4501 20.9937 70.4 23.6323 65.392 25.1132C65.2035 24.6555 64.7188 23.9824 64.3419 23.6323C68.8384 22.4207 69.6192 20.2936 69.8346 15.8779ZM66.6844 17.2511L68.0845 17.7088C67.6267 19.1359 66.9536 20.5629 65.6343 21.3976L64.3419 20.5629C65.5266 19.8628 66.3343 18.5435 66.6844 17.2511ZM79.6084 20.2398H90.0553V22.1515H79.6084V20.2398ZM83.7279 25.5979H88.2782V27.4826H83.7279V25.5979ZM84.1048 15.9318H86.0704V20.9668H84.1048V15.9318ZM87.6051 25.5979H89.436C89.436 25.5979 89.436 26.2441 89.436 26.5402C89.2475 35.7217 89.1129 38.7373 88.4398 39.6527C88.0359 40.272 87.5782 40.4605 86.905 40.5412C86.3396 40.5951 85.3972 40.5951 84.4549 40.5412C84.4279 40.0027 84.2395 39.2219 83.9433 38.7103C84.8587 38.818 85.6665 38.818 86.0704 38.818C86.3935 38.818 86.6089 38.7642 86.7973 38.468C87.2551 37.8218 87.4435 34.8062 87.6051 26.0287V25.5979ZM92.4516 18.732H104.218V20.4283H92.4516V18.732ZM90.6745 23.4708H103.922V25.0863H90.6745V23.4708ZM93.9594 27.0518H100.637V28.4519H93.9594V27.0518ZM93.9594 30.4982H100.637V31.8983H93.9594V30.4982ZM89.9745 33.9715H104.406V35.6409H89.9745V33.9715ZM93.017 21.5591H94.8479V34.7254H93.017V21.5591ZM99.856 21.5591H101.714V34.6716H99.856V21.5591ZM92.8016 15.8779L94.6325 16.2818C93.8248 19.0012 92.3708 21.5591 90.8092 23.2285C90.4591 22.9323 89.6783 22.3938 89.2206 22.1515C90.8361 20.6167 92.1016 18.3012 92.8016 15.8779ZM98.5636 36.8256L99.9637 35.9371C101.525 37.041 103.518 38.6834 104.541 39.7335L103.033 40.7566C102.091 39.7066 100.125 37.9834 98.5636 36.8256ZM94.2825 35.7755L96.0057 36.7179C94.6864 38.1718 92.5324 39.7335 90.7284 40.622C90.4322 40.272 89.8129 39.7066 89.3821 39.3835C91.213 38.5219 93.2863 37.0141 94.2825 35.7755ZM82.7855 21.4783H84.6164V26.8364C84.6164 31.3329 84.1318 36.4217 80.6315 40.7028C80.2815 40.2989 79.6084 39.7873 79.1237 39.4642C82.4086 35.5063 82.7855 30.7405 82.7855 26.8364V21.4783ZM110.68 30.0405H111.811V36.4486H110.68V30.0405ZM108.849 19.5667H114.18V21.1822H108.849V19.5667ZM113.184 19.5667H114.745V38.6296C114.745 39.545 114.557 40.0566 113.992 40.3258C113.372 40.5951 112.43 40.622 110.868 40.622C110.814 40.1912 110.572 39.4912 110.33 39.0604C111.461 39.0873 112.457 39.0873 112.753 39.0604C113.076 39.0604 113.184 38.9527 113.184 38.6296V19.5667ZM107.933 19.5667H109.468V29.3404C109.468 32.8138 109.253 37.6064 107.557 40.7297C107.26 40.4605 106.587 40.0297 106.21 39.895C107.799 36.8794 107.933 32.6253 107.933 29.3404V19.5667ZM106.291 28.048C108.768 27.9134 112.484 27.6442 116.146 27.3749V28.9366C112.645 29.2327 109.064 29.5289 106.48 29.7174L106.291 28.048ZM110.061 22.7438L111.218 22.3669C111.757 23.5516 112.161 25.1401 112.241 26.1633L111.003 26.5672C110.949 25.5171 110.545 23.9554 110.061 22.7438ZM110.868 15.8779L112.834 16.201C112.376 17.655 111.865 19.2974 111.434 20.3744L109.926 20.0244C110.276 18.8935 110.707 17.0626 110.868 15.8779ZM124.923 26.5402H130.712V28.1557H124.923V26.5402ZM116.469 27.8865H124.196V29.3135H116.469V27.8865ZM125.596 19.7551H131.116V21.3706H125.596V19.7551ZM119.78 17.3857H121.234V20.9668H119.78V17.3857ZM119.78 24.817H121.234V28.6942H119.78V24.817ZM115.338 38.4411H131.251V40.0566H115.338V38.4411ZM116.469 16.7395H123.846V18.1396H117.95V28.8558H116.469V16.7395ZM117.438 20.3475H123.523V25.4902H117.438V24.1439H122.042V21.6937H117.438V20.3475ZM125.704 15.9049L127.481 16.1741C127.023 19.4051 126.242 22.663 125.085 24.7632C124.762 24.5478 123.954 24.0901 123.55 23.8747C124.681 21.8822 125.354 18.8935 125.704 15.9049ZM117.196 31.1983H129.635V39.2488H127.966V32.8138H125.812V39.2488H124.412V32.8138H122.311V39.2488H120.884V32.8138H118.811V39.2488H117.196V31.1983Z" fill="#2E318B"/>
<path d="M166.089 23.6264L167.282 23.963C166.319 26.3498 164.819 28.6142 163.259 30.083C163.029 29.8688 162.539 29.4557 162.233 29.2721C163.825 27.941 165.232 25.8143 166.089 23.6264ZM165.905 25.4624H174.535V26.5487H165.355L165.905 25.4624ZM174.167 25.4624H175.315C175.315 25.4624 175.315 25.8449 175.315 26.0132C175.162 31.1693 175.009 32.99 174.565 33.5561C174.29 33.908 173.984 34.0304 173.525 34.0763C173.096 34.1222 172.331 34.1069 171.505 34.0763C171.49 33.7397 171.368 33.2807 171.184 32.9747C171.964 33.0512 172.699 33.0665 172.989 33.0665C173.234 33.0665 173.402 33.0206 173.525 32.8523C173.877 32.4545 174.03 30.695 174.167 25.6919V25.4624ZM165.095 31.8272H169.853V29.2109H164.773V28.1858H171V32.8523H165.095V31.8272ZM164.544 31.8272H165.691V35.7593C165.691 36.3866 165.997 36.5243 167.65 36.5243C168.43 36.5243 172.393 36.5243 173.418 36.5243C174.81 36.5243 175.04 36.2183 175.177 34.4588C175.468 34.6271 175.958 34.8107 176.279 34.8719C176.049 37.0751 175.606 37.6106 173.433 37.6106C172.867 37.6106 168.246 37.6106 167.711 37.6106C165.263 37.6106 164.544 37.274 164.544 35.7593V31.8272ZM186.989 25.187V26.7323H189.62V25.187H186.989ZM183.363 25.187V26.7323H185.933V25.187H183.363ZM179.813 25.187V26.7323H182.307V25.187H179.813ZM178.712 24.3149H190.768V27.6197H178.712V24.3149ZM180.502 32.8523H181.573V37.7942H180.502V32.8523ZM187.754 30.2513H188.779V36.6773H187.754V30.2513ZM182.093 31.2305L182.919 30.9245C183.5 31.7354 184.067 32.837 184.281 33.5561L183.409 33.9386C183.21 33.2042 182.644 32.072 182.093 31.2305ZM177.992 29.7005L178.589 29.0273C179.461 29.5934 180.548 30.4349 181.052 31.0316L180.41 31.8119C179.92 31.1999 178.865 30.3125 177.992 29.7005ZM182.139 34.2446L183.011 33.9539C183.485 34.7189 183.975 35.7746 184.143 36.4478L183.225 36.7997C183.072 36.1265 182.613 35.0555 182.139 34.2446ZM180.593 27.4973L181.527 27.941C180.961 28.7825 180.303 29.6852 179.752 30.2972L178.972 29.8994C179.507 29.2568 180.211 28.2317 180.593 27.4973ZM182.506 28.6754L183.424 29.1497C182.384 30.4808 181.007 32.0414 179.905 33.0512L179.155 32.5922C180.257 31.5824 181.695 29.9147 182.506 28.6754ZM177.763 32.4239C179.201 32.4086 181.297 32.378 183.393 32.3321L183.378 33.2348C181.374 33.3113 179.339 33.3878 177.839 33.4184L177.763 32.4239ZM178.834 33.9692L179.828 34.1987C179.538 35.3156 179.048 36.4631 178.513 37.2281C178.329 37.0751 177.87 36.8456 177.625 36.7385C178.161 36.0194 178.589 34.9943 178.834 33.9692ZM185.734 27.7115L186.775 27.9716C186.147 29.5475 185.153 31.1234 184.158 32.1638C183.959 31.9802 183.531 31.6589 183.286 31.5059C184.296 30.5573 185.183 29.1344 185.734 27.7115ZM188.504 27.8033L189.575 28.0787C189.177 28.9049 188.718 29.8229 188.335 30.4196L187.478 30.1595C187.846 29.5016 188.274 28.4918 188.504 27.8033ZM185.857 29.6546H191.472V30.6032H185.857V37.7942H184.816V30.1901L185.336 29.6546H185.857ZM185.352 31.8731H191.105V32.7452H185.352V31.8731ZM185.352 34.0457H191.105V34.9178H185.352V34.0457ZM185.291 36.2336H191.717V37.1822H185.291V36.2336ZM199.443 27.2525H200.545V35.438H199.443V27.2525ZM196.123 29.5322V30.6338H203.926V29.5322H196.123ZM196.123 27.635V28.7366H203.926V27.635H196.123ZM195.021 26.8088H205.073V31.46H195.021V26.8088ZM194.057 32.3933H205.318V33.3725H195.144V37.7789H194.057V32.3933ZM205.012 32.3933H206.114V36.6008C206.114 37.1516 206.022 37.427 205.64 37.5953C205.242 37.7483 204.599 37.7636 203.605 37.7636C203.559 37.4729 203.421 37.0904 203.283 36.815C203.987 36.8303 204.584 36.8303 204.752 36.815C204.951 36.815 205.012 36.7691 205.012 36.5855V32.3933ZM196.108 35.1626C197.867 35.1014 200.575 34.9943 203.222 34.8566L203.207 35.7899C200.652 35.9429 198.005 36.0806 196.184 36.1724L196.108 35.1626ZM201.769 33.908L202.641 33.6326C203.314 34.4588 204.002 35.6063 204.232 36.3866L203.329 36.6926C203.1 35.9276 202.442 34.7648 201.769 33.908ZM196.72 23.7029H197.837V26.5946H196.72V23.7029ZM202.105 23.7029H203.222V26.5946H202.105V23.7029ZM193.415 24.6362H206.634V25.6307H193.415V24.6362ZM212.693 31.4294L213.443 30.848C217.099 32.9288 217.436 36.3713 215.86 37.3964C215.355 37.7177 214.957 37.8248 214.33 37.8248C213.993 37.8248 213.534 37.8095 213.075 37.7942C213.06 37.5035 212.953 37.0598 212.754 36.7538C213.274 36.815 213.794 36.815 214.131 36.815C214.498 36.815 214.835 36.7844 215.126 36.5702C216.166 35.8817 215.829 33.2807 212.693 31.4294ZM214.269 31.9343L215.08 32.3627C213.733 33.449 211.301 34.4894 209.403 34.9637C209.25 34.7189 208.96 34.3517 208.761 34.1528C210.643 33.755 213.045 32.8676 214.269 31.9343ZM215.294 33.3266L216.12 33.7856C214.483 35.3462 211.53 36.7844 209.174 37.4729C209.021 37.2281 208.715 36.8303 208.485 36.6008C210.887 36.0194 213.794 34.7036 215.294 33.3266ZM212.341 24.728H216.854V25.646H212.341V24.728ZM215.156 29.6393L216.044 30.0677C214.361 31.2611 211.576 32.225 209.296 32.7911C209.174 32.5922 208.868 32.1485 208.684 31.9496C210.964 31.4906 213.641 30.6491 215.156 29.6393ZM216.472 29.8382C217.375 32.9594 219.333 35.3921 222.332 36.3713C222.087 36.5855 221.75 37.0139 221.597 37.3199C218.476 36.1418 216.518 33.5714 215.523 30.0677L216.472 29.8382ZM220.909 30.4961L221.842 31.1846C220.664 32.0108 219.073 32.9747 217.864 33.5408L217.145 32.9441C218.323 32.3474 219.976 31.2917 220.909 30.4961ZM211.193 27.6809V29.4404H219.563V27.6809H211.193ZM210.107 26.7935H220.679V30.3278H210.107V26.7935ZM212.754 23.657L213.947 23.9018C212.876 25.4318 211.331 27.0383 209.22 28.3235C209.051 28.0634 208.684 27.6962 208.439 27.5279C210.444 26.4263 211.943 24.9116 212.754 23.657ZM214.712 27.2219H215.845V29.9453H214.712V27.2219ZM216.426 24.728H216.671L216.854 24.6821L217.635 25.187C217.145 26.0438 216.334 27.023 215.661 27.6197C215.447 27.4667 215.08 27.2219 214.82 27.0842C215.447 26.5334 216.12 25.5848 216.426 24.9575V24.728ZM227.886 36.707C227.169 36.707 226.53 36.5838 225.968 36.3375C225.41 36.0912 224.967 35.7489 224.637 35.3107C224.311 34.8688 224.134 34.3562 224.105 33.7731H225.474C225.503 34.1316 225.626 34.4413 225.843 34.7021C226.06 34.9593 226.345 35.1585 226.696 35.2998C227.048 35.4411 227.437 35.5117 227.864 35.5117C228.342 35.5117 228.766 35.4284 229.136 35.2618C229.505 35.0951 229.795 34.8633 230.005 34.5663C230.215 34.2693 230.32 33.9252 230.32 33.534C230.32 33.1247 230.219 32.7643 230.016 32.4528C229.813 32.1376 229.516 31.8913 229.125 31.7139C228.734 31.5364 228.256 31.4476 227.69 31.4476H226.799V30.2523H227.69C228.132 30.2523 228.52 30.1726 228.853 30.0133C229.19 29.8539 229.453 29.6293 229.641 29.3395C229.833 29.0498 229.929 28.7093 229.929 28.3181C229.929 27.9414 229.846 27.6136 229.679 27.3347C229.512 27.0558 229.277 26.8384 228.973 26.6827C228.672 26.5269 228.317 26.449 227.908 26.449C227.524 26.449 227.162 26.5197 226.821 26.6609C226.484 26.7986 226.209 26.9996 225.995 27.264C225.782 27.5248 225.666 27.84 225.648 28.2094H224.344C224.365 27.6262 224.541 27.1155 224.871 26.6772C225.2 26.2353 225.631 25.8912 226.164 25.6449C226.7 25.3986 227.288 25.2755 227.93 25.2755C228.618 25.2755 229.208 25.4149 229.701 25.6938C230.193 25.9691 230.572 26.3331 230.836 26.7859C231.101 27.2387 231.233 27.7277 231.233 28.2529C231.233 28.8795 231.068 29.4138 230.739 29.8557C230.413 30.2976 229.969 30.6037 229.407 30.7739V30.8608C230.11 30.9767 230.659 31.2756 231.054 31.7573C231.448 32.2354 231.646 32.8277 231.646 33.534C231.646 34.1389 231.481 34.6822 231.151 35.164C230.825 35.6421 230.38 36.0188 229.815 36.2941C229.25 36.5694 228.607 36.707 227.886 36.707ZM234.216 36.5549L239.193 26.7098V26.6229H233.455V25.4276H240.584V26.6881L235.628 36.5549H234.216ZM242.253 25.493H247.455V26.564H242.253V25.493ZM244.272 26.0591H245.42V33.4337H244.272V26.0591ZM241.931 33.7703C243.339 33.3572 245.542 32.6228 247.638 31.9037L247.822 32.9135C245.925 33.6173 243.89 34.3364 242.39 34.8719L241.931 33.7703ZM247.531 24.4373H256.176V25.4318H247.531V24.4373ZM249.352 30.1748V31.6589H254.462V30.1748H249.352ZM249.352 32.5157V34.0151H254.462V32.5157H249.352ZM249.352 27.8492V29.318H254.462V27.8492H249.352ZM248.281 26.9465H255.594V34.9178H248.281V26.9465ZM251.234 24.9269L252.549 25.1105C252.274 25.9979 251.968 26.9924 251.708 27.635L250.668 27.4361C250.882 26.7323 251.127 25.6766 251.234 24.9269ZM249.933 35.1473L250.928 35.7899C249.933 36.5702 248.357 37.3505 247.011 37.7942C246.843 37.5647 246.506 37.2128 246.276 36.9833C247.592 36.5702 249.168 35.8052 249.933 35.1473ZM252.473 35.8358L253.345 35.2085C254.37 35.7287 255.717 36.5396 256.436 37.121L255.518 37.8095C254.875 37.2434 253.529 36.3866 252.473 35.8358ZM259.542 33.7703H269.487V34.7189H259.542V33.7703ZM259.863 31.3376H270.129V32.3321H259.863V31.3376ZM257.736 36.3866H271.093V37.3964H257.736V36.3866ZM263.826 30.0983H265.004V37.0598H263.826V30.0983ZM260.444 27.482V28.8437H268.354V27.482H260.444ZM260.444 25.2482V26.6099H268.354V25.2482H260.444ZM259.327 24.3302H269.532V29.777H259.327V24.3302ZM260.322 29.7923L261.439 30.1136C260.72 31.613 259.572 33.0818 258.471 34.0304C258.256 33.8315 257.797 33.4796 257.507 33.3113C258.639 32.4545 259.695 31.1387 260.322 29.7923ZM277.932 24.6668H283.823V25.7378H277.932V24.6668ZM283.348 24.6668H283.486L283.654 24.6056L284.435 24.728C284.175 26.3192 283.731 28.5989 283.364 30.2972L282.308 30.1748C282.706 28.4612 283.165 26.0285 283.348 24.8045V24.6668ZM283.211 28.5377H285.766V29.5781H282.905L283.211 28.5377ZM285.383 28.5377H285.597L285.812 28.4918L286.485 28.7672C285.552 33.4184 283.165 36.2948 280.258 37.7789C280.089 37.5188 279.722 37.0904 279.477 36.9221C282.323 35.5757 284.572 32.9135 285.383 28.7672V28.5377ZM280.411 26.3345C281.252 31.2764 283.042 35.438 286.929 36.8609C286.668 37.0751 286.347 37.5035 286.179 37.7942C282.201 36.1418 280.457 31.8425 279.569 26.4875L280.411 26.3345ZM275.04 23.7182L276.05 24.116C275.469 25.2329 274.75 26.5946 274.153 27.4361L273.357 27.0689C273.939 26.1968 274.643 24.728 275.04 23.7182ZM276.754 25.4624L277.718 25.8908C276.678 27.6503 275.209 29.8688 274.077 31.2152L273.373 30.8174C274.505 29.4404 275.943 27.1148 276.754 25.4624ZM272.623 26.9312L273.204 26.1815C274.061 26.9006 275.025 27.8951 275.438 28.5836L274.826 29.4557C274.413 28.7366 273.449 27.6656 272.623 26.9312ZM276.387 29.012L277.198 28.6907C277.825 29.6699 278.437 30.9857 278.651 31.8272L277.779 32.225C277.58 31.3682 276.984 30.0218 276.387 29.012ZM272.577 30.5726C273.908 30.5267 275.867 30.4349 277.84 30.3278L277.825 31.2611C275.958 31.3988 274.092 31.5212 272.669 31.613L272.577 30.5726ZM276.647 32.6075L277.473 32.3474C277.902 33.1736 278.284 34.3058 278.437 35.0402L277.55 35.3462C277.412 34.5965 277.029 33.4643 276.647 32.6075ZM273.434 32.4545L274.428 32.6381C274.214 34.0763 273.832 35.5604 273.342 36.5396C273.143 36.4172 272.684 36.203 272.439 36.0959C272.944 35.1626 273.25 33.8009 273.434 32.4545ZM275.086 31.001H276.111V37.8248H275.086V31.001ZM279.416 25.3094H280.441V28.0022C280.441 30.8633 280.181 34.8107 277.84 37.7483C277.657 37.58 277.244 37.274 276.984 37.1516C279.217 34.3517 279.416 30.6338 279.416 28.0022V25.3094ZM294.946 24.8198C293.691 26.6864 291.228 28.9661 288.642 30.4808C288.489 30.2054 288.168 29.8076 287.923 29.5628C290.555 28.1093 293.11 25.6766 294.288 23.6876H295.466C297.057 25.952 299.735 28.1858 302.137 29.3792C301.846 29.6699 301.571 30.0524 301.372 30.389C299 29.0273 296.323 26.7476 294.946 24.8198ZM289.774 32.7758H300.209V33.8009H289.774V32.7758ZM290.463 29.3486H299.612V30.389H290.463V29.3486ZM288.52 36.3254H301.555V37.3658H288.52V36.3254ZM294.349 29.777H295.558V36.9068H294.349V29.777ZM310.429 30.8939H316.106V31.919H310.429V30.8939ZM311.669 28.5989H315.708V29.5475H311.669V28.5989ZM312.388 31.4906H313.428V37.7789H312.388V31.4906ZM315.54 30.8939H316.58V35.0555C316.58 35.5604 316.473 35.8664 316.09 36.05C315.723 36.2183 315.142 36.2336 314.193 36.2336C314.178 35.9276 314.025 35.5145 313.887 35.2238C314.56 35.2391 315.126 35.2391 315.31 35.2238C315.494 35.2238 315.54 35.1779 315.54 35.0249V30.8939ZM313.673 24.881C313.046 26.4722 311.868 28.3847 310.506 29.5934C310.368 29.318 310.108 28.9202 309.909 28.6601C311.24 27.5126 312.525 25.4471 313.107 23.7182H314.147C314.928 25.5236 316.259 27.4667 317.529 28.4918C317.314 28.7672 317.039 29.1803 316.886 29.5016C315.616 28.3388 314.377 26.4722 313.673 24.881ZM305.625 28.5836L306.314 28.6601C306.161 29.8229 305.809 30.8174 305.166 31.46C305.074 31.3529 304.83 31.1234 304.677 31.001C305.273 30.4349 305.518 29.5781 305.625 28.5836ZM307.553 28.5989L308.226 28.6754C308.058 29.8076 307.675 30.7868 306.987 31.4141C306.895 31.307 306.666 31.0775 306.497 30.9551C307.125 30.4043 307.431 29.5781 307.553 28.5989ZM305.625 32.7605L306.298 32.837C306.161 33.9998 305.809 35.0096 305.151 35.6675C305.044 35.5604 304.799 35.3156 304.661 35.2085C305.258 34.6118 305.503 33.7703 305.625 32.7605ZM307.568 32.7758L308.226 32.8523C308.073 33.9998 307.691 34.9943 307.002 35.6369C306.91 35.5298 306.666 35.3003 306.513 35.1932C307.14 34.6118 307.446 33.7856 307.568 32.7758ZM303.254 27.1148H310.491V28.0481H303.254V27.1148ZM307.109 25.0646H309.986V25.952H307.109V25.0646ZM304.248 31.6742H309.542V32.531H304.248V31.6742ZM304.248 35.9276H309.573V36.815H304.248V35.9276ZM306.513 23.7182H307.492V27.6197H306.513V23.7182ZM304.355 24.5903H305.289V27.5738H304.355V24.5903ZM303.804 28.5683H304.677V37.6565H303.804V28.5683ZM309.006 28.5683H309.909V37.4423H309.006V28.5683ZM305.503 29.9759L305.962 29.5934C306.283 29.93 306.635 30.3737 306.819 30.6491L306.329 31.0928C306.145 30.8021 305.793 30.3125 305.503 29.9759ZM307.4 30.0065L307.844 29.5934C308.257 30.0218 308.746 30.6032 308.976 30.9398L308.502 31.4141C308.257 31.0316 307.798 30.4349 307.4 30.0065ZM305.472 34.1681L305.931 33.7856C306.283 34.1375 306.65 34.5812 306.834 34.8719L306.36 35.3309C306.176 35.0096 305.793 34.52 305.472 34.1681ZM307.415 34.214L307.859 33.8009C308.287 34.2599 308.777 34.826 309.022 35.1779L308.547 35.6522C308.287 35.2697 307.813 34.6577 307.415 34.214ZM324.337 29.2568L325.683 29.5934C324.72 31.9037 323.388 34.7648 322.256 36.6161L321.201 36.2795C322.287 34.3976 323.618 31.4141 324.337 29.2568ZM319.319 35.9276C322.119 35.8358 326.571 35.6522 330.671 35.4533L330.641 36.5549C326.632 36.7844 322.348 37.0139 319.472 37.1363L319.319 35.9276ZM327.275 32.6075L328.376 32.1026C329.769 33.7091 331.344 35.8358 332.109 37.2281L330.947 37.8554C330.228 36.4631 328.636 34.2293 327.275 32.6075ZM322.792 24.1619L324.062 24.5138C323.037 26.9771 321.43 29.318 319.808 30.8327C319.563 30.6032 319.028 30.1901 318.707 30.0065C320.39 28.6295 321.904 26.4263 322.792 24.1619ZM328.269 24.1466C329.279 26.1509 331.207 28.5683 332.614 29.8382C332.308 30.083 331.88 30.5267 331.65 30.8174C330.228 29.3639 328.315 26.7629 327.137 24.6209L328.269 24.1466ZM340.846 24.1925H341.947V26.0591C341.947 27.3902 341.611 29.012 339.974 30.0983C339.821 29.8841 339.377 29.4863 339.147 29.3333C340.616 28.3847 340.846 27.1148 340.846 26.0438V24.1925ZM344.579 24.1925H345.665V27.9563C345.665 28.2929 345.711 28.3541 345.956 28.3541C346.078 28.3541 346.583 28.3541 346.736 28.3541C346.996 28.3541 347.058 28.1552 347.088 26.6864C347.302 26.8547 347.761 27.023 348.052 27.0995C347.96 28.8896 347.685 29.3639 346.859 29.3639C346.66 29.3639 345.987 29.3639 345.788 29.3639C344.854 29.3639 344.579 29.0579 344.579 27.9716V24.1925ZM341.672 31.4141C342.728 34.0457 345.007 36.0041 348.083 36.7844C347.823 37.0292 347.486 37.4882 347.333 37.7789C344.151 36.8456 341.871 34.7342 340.647 31.7354L341.672 31.4141ZM345.956 30.3431H346.185L346.384 30.2972L347.119 30.5879C346.032 34.5965 343.156 36.7997 339.805 37.7789C339.683 37.5035 339.392 37.0139 339.178 36.7691C342.269 35.9888 345.038 33.9233 345.956 30.5267V30.3431ZM339.851 30.3431H346.4V31.3835H339.851V30.3431ZM341.305 24.1925H345.13V25.2176H341.305V24.1925ZM334.557 28.3388H339.117V29.2568H334.557V28.3388ZM334.634 24.2537H339.086V25.1717H334.634V24.2537ZM334.557 30.389H339.117V31.307H334.557V30.389ZM333.838 26.258H339.652V27.2066H333.838V26.258ZM335.108 32.4545H339.117V36.9221H335.108V35.9582H338.107V33.4031H335.108V32.4545ZM334.542 32.4545H335.537V37.6259H334.542V32.4545Z" fill="#2E318B"/>
<path d="M359.915 0.204956H29.5251C13.2962 0.204956 0.140137 13.3611 0.140137 29.59C0.140137 45.8188 13.2962 58.975 29.5251 58.975H359.915C376.144 58.975 389.3 45.8188 389.3 29.59C389.3 13.3611 376.144 0.204956 359.915 0.204956Z" fill="white"/>
<path d="M127.97 6.14496H29.9601C17.0118 6.14496 6.51514 16.6416 6.51514 29.59V29.605C6.51514 42.5533 17.0118 53.05 29.9601 53.05H127.97C140.918 53.05 151.415 42.5533 151.415 29.605V29.59C151.415 16.6416 140.918 6.14496 127.97 6.14496Z" fill="#FFE900"/>
<path d="M50.2855 33.52V36.505H44.7055V38.125C44.7055 41.095 43.6555 41.815 38.5105 41.815C38.3455 40.765 37.7905 39.31 37.2955 38.365C38.3755 38.425 39.8755 38.425 40.2805 38.425C40.6855 38.395 40.8205 38.35 40.8205 38.02V36.505H34.2805C35.2555 37.12 36.1405 37.795 36.6805 38.365L34.1005 41.005C33.2455 39.985 31.2955 38.53 29.7355 37.615L30.8605 36.505H25.0405V33.52H40.8205V32.74H28.2355V22.39H33.5455V21.715H25.5505V18.775H31.0705C30.8005 18.34 30.4855 17.89 30.1555 17.515L33.3355 16.255C34.0105 16.975 34.8205 18.01 35.1655 18.73L35.0305 18.79H40.1455C40.6855 17.98 41.2555 16.96 41.5705 16.18L45.9055 17.56C45.8005 17.77 45.5305 17.86 45.1255 17.86C44.8855 18.16 44.5555 18.475 44.2405 18.805H49.6855V21.745H41.3905V22.42H47.1055V32.77H44.9455C44.9455 32.77 44.7805 32.8 44.7055 32.83V33.55H50.2855V33.52ZM31.7455 26.17C32.7955 25.87 33.2605 25.285 33.4405 24.61H31.7455V26.17ZM31.7455 27.925H33.2605C32.7955 27.325 32.2105 26.665 31.7455 26.26V27.925ZM31.7455 29.92V30.535H43.4155V29.92H31.7455ZM40.9855 27.355C38.5855 27.355 38.1055 26.74 38.1055 24.61H36.7105C36.4705 25.87 35.8255 27.055 34.6105 27.925H43.4155V27.28C43.1155 27.34 42.8005 27.355 42.3955 27.355H41.0005H40.9855ZM36.7855 21.73V22.405H38.1055V21.73H36.7855ZM43.4155 24.61H41.3905C41.3905 24.85 41.3905 25.045 41.4205 25.15C41.4505 25.225 41.5255 25.285 41.6305 25.285C42.2005 25.285 42.2455 25.285 42.3505 24.94C42.6205 25.075 42.9955 25.24 43.4005 25.345V24.625L43.4155 24.61Z" fill="#2E318B"/>
<path d="M75.4855 34.465H69.0956C71.2856 35.995 74.2405 37.27 77.2855 37.96C76.3405 38.815 75.0956 40.495 74.4506 41.575C71.4656 40.555 68.6006 38.8 66.3356 36.625V41.8H62.4506V36.955C60.1856 39.025 57.3356 40.585 54.1256 41.53C53.5556 40.54 52.4305 38.965 51.5605 38.155C54.8755 37.45 57.9205 36.16 60.0805 34.465H53.8556V31.075H62.4506V29.05L67.1305 29.29C67.1005 29.59 66.8605 29.77 66.3205 29.89V31.075H75.4555V34.465H75.4855ZM51.9655 20.86C52.9555 20.11 53.6906 18.865 53.9906 17.635L56.4355 18.445C56.0605 19.96 55.4606 21.385 54.2306 22.33L51.9655 20.875V20.86ZM52.8505 25.63H53.3905C53.0155 24.925 52.4455 24.175 51.9955 23.74C56.7355 22.555 57.0355 20.5 57.1405 16.225L61.2055 16.495C61.1755 16.765 60.9655 16.96 60.5305 17.005C60.4555 18.295 60.3356 19.45 60.0956 20.53H60.1256C60.6356 19.675 61.2055 18.49 61.5055 17.65L64.9555 18.94C65.1955 18.43 65.3905 17.92 65.4955 17.41L67.9706 18.22C67.6256 19.735 67.0855 21.205 65.9005 22.15L63.5905 20.695C64.1305 20.26 64.6105 19.705 64.9405 19.03H64.9105C64.7755 19.165 64.5355 19.225 64.2355 19.225C63.7555 19.945 62.9155 21.025 62.2705 21.73L60.1105 20.71L60.0055 21.115C61.1305 21.73 62.7056 22.63 63.5006 23.215L61.0255 25.615C60.4855 25.15 59.5105 24.505 58.5805 23.89C58.0105 24.565 57.2306 25.135 56.2106 25.645H65.3905C64.9855 24.895 64.3705 24.025 63.8305 23.545C68.3605 22.3 68.6455 20.17 68.8105 16.24L72.9355 16.54C72.9055 16.81 72.6956 17.005 72.2306 17.05C72.1256 18.475 71.9905 19.765 71.6605 20.935C73.2505 21.85 75.4855 23.14 76.6705 23.95L75.0055 25.645H76.3556V30.625H72.4255V28.975H56.6156V30.625H52.8656V25.645L52.8505 25.63ZM73.0555 25.63C72.1855 25.03 71.1355 24.37 70.1755 23.74C69.5605 24.46 68.7206 25.09 67.5956 25.63H73.0705H73.0555ZM77.2555 18.835C77.1505 19.045 76.8805 19.135 76.5055 19.135C75.9655 19.855 75.0506 20.92 74.3756 21.61L72.0655 20.53C72.6355 19.645 73.3105 18.37 73.6555 17.485L77.2705 18.835H77.2555Z" fill="#2E318B"/>
<path d="M104.27 37.09H100.985C102.245 38.035 103.73 39.16 104.54 40L101.66 41.8C100.775 40.81 98.8254 39.16 97.3704 38.05L99.0203 37.075H95.1354L96.8004 38.05C96.7254 38.155 96.5604 38.245 96.3654 38.26C95.4204 39.415 93.2904 41.005 91.4904 41.785C90.9204 41.17 89.9004 40.225 89.1204 39.625C88.5354 41.8 86.4204 41.8 84.2154 41.8C84.1554 40.75 83.8104 39.295 83.3004 38.35C83.9754 38.425 84.5604 38.425 84.9504 38.425C85.2654 38.425 85.4904 38.35 85.7004 37.99C86.0004 37.48 86.1054 35.41 86.1804 29.695H84.7254C84.3504 34.255 83.4804 38.56 81.2304 41.74C80.6154 40.795 79.4454 39.61 78.4854 38.995C81.0954 35.335 81.2604 29.755 81.3354 23.74H78.9053V20.125H82.7604V16.195L87.2903 16.435C87.2603 16.735 87.0504 16.9 86.5104 17.005V20.125H89.9604V20.77C90.9054 19.45 91.6254 17.785 92.0154 16.135L95.9153 17.125C95.8403 17.335 95.6154 17.47 95.2404 17.455C95.1054 17.89 94.9404 18.34 94.7754 18.775H104.255V21.895H93.1854L92.9454 22.27L96.4403 22.465C96.4103 22.735 96.2004 22.9 95.6904 23.005V24.265H98.3904V22.225L102.755 22.465C102.725 22.735 102.515 22.93 101.975 23.005V24.265H103.91V27.31H101.975V33.985H104.27V37.03V37.09ZM87.8304 26.2L89.7354 26.26C89.7354 26.56 89.7354 26.995 89.7054 27.385C89.6304 34.42 89.5404 37.885 89.1354 39.505C90.4554 38.935 91.8504 37.99 92.8554 37.075H89.9153V34.03H92.1504V27.355H90.2903V24.31H92.1504V23.32C91.9404 23.59 91.7004 23.83 91.4454 24.04C91.1004 23.695 90.5004 23.26 89.9304 22.855V23.77H84.9804L84.9053 26.2H87.8154H87.8304ZM98.3904 27.355H95.6904V27.97H98.3904V27.355ZM98.3904 30.985V30.34H95.6904V30.985H98.3904ZM95.6904 33.355V34.03H98.3904V33.355H95.6904Z" fill="#2E318B"/>
<path d="M115.97 29.71L114.995 29.845V38.65C114.995 41.095 114.185 41.83 111.005 41.83C110.93 41.02 110.555 39.73 110.15 38.95C110.555 38.98 110.99 39.01 111.305 39.01C112.085 39.01 112.16 39.01 112.16 38.605V30.25L109.595 30.595C109.535 34.225 109.19 38.86 107.66 41.86C107.15 41.395 105.905 40.645 105.23 40.375C106.52 37.765 106.79 34.105 106.85 30.94L106.52 31C106.46 31.24 106.22 31.375 106.01 31.405L105.335 28.165L106.85 28.03V19.78H109.085C109.265 18.625 109.43 17.215 109.49 16.165L113.51 16.87C113.435 17.08 113.18 17.215 112.775 17.245C112.565 17.965 112.265 18.91 111.965 19.78H114.98V27.235L115.865 27.16L115.94 29.695L115.97 29.71ZM111.335 23.245C111.74 24.16 112.07 25.345 112.175 26.23H112.205L112.175 22.705H109.61V23.815L111.335 23.245ZM109.61 27.805L112.175 27.565V26.485L110.18 27.16C110.15 26.41 109.91 25.3 109.61 24.325V27.805ZM112.145 31.06C112.115 31.255 111.95 31.39 111.635 31.405V37.015H109.985V30.925L112.145 31.06ZM129.68 38.44H131.195V41.35H115.295V38.44H116.81V31.405H129.68V38.44ZM118.79 30.415V30.79H116.18V17.11H123.83V19.54H122V20.8H123.725V23.545C124.445 21.685 124.835 18.88 125.015 16.24L128.735 16.99C128.66 17.2 128.435 17.365 128.09 17.365C128.015 18.085 127.925 18.82 127.79 19.57H131.075V22.48H127.22C126.905 23.77 126.5 24.955 125.975 25.9C125.435 25.435 124.475 24.85 123.71 24.415V26.65H121.985V27.91H124.16V30.385H118.775L118.79 30.415ZM119.57 19.525H118.79V20.785H119.57V19.525ZM121.16 23.005H118.79V24.46H121.16V23.005ZM119.57 27.94V26.68H118.79V27.94H119.57ZM119.675 34.3V38.455H120.38V34.3H119.675ZM123.5 34.3H122.795V38.455H123.5V34.3ZM124.55 29.155V26.245H130.64V29.155H124.55ZM126.62 34.3H125.915V38.455H126.62V34.3Z" fill="#2E318B"/>
<g filter="url(#filter0_d_70_1878)">
<path d="M166.161 35.2451C166.161 35.9051 166.416 35.9951 168.021 35.9951H172.311C173.586 35.9951 173.781 35.7701 173.946 34.2851C174.471 34.6001 175.446 34.9451 176.076 35.0501C175.731 37.4651 175.026 38.0651 172.416 38.0651H167.961C164.856 38.0651 163.971 37.4651 163.971 35.2901V31.6301H168.786V30.2201H164.691V29.4251C164.271 29.9501 163.866 30.4001 163.431 30.8201C162.996 30.3701 162.141 29.6501 161.601 29.3051C163.131 28.0301 164.601 25.7201 165.381 23.5301L168.036 24.3851C167.976 24.5201 167.811 24.6101 167.556 24.5801C167.466 24.8051 167.361 25.0451 167.256 25.2701H174.066L175.311 25.3301C175.311 25.5101 175.311 25.7951 175.281 26.0201C175.161 30.9101 175.011 32.7701 174.561 33.3851C173.991 34.2251 173.286 34.2851 171.531 34.2851C171.501 33.6851 171.291 32.8301 170.976 32.2451V33.5651H166.176V35.2301L166.161 35.2451ZM166.101 27.3701C165.921 27.6701 165.741 27.9701 165.531 28.2551H170.946V32.1701C171.411 32.2301 171.801 32.2301 172.056 32.2301C172.266 32.2301 172.401 32.1701 172.551 31.9901C172.761 31.6751 172.881 30.4751 172.971 27.3701H166.116H166.101Z" fill="#2E318B"/>
<path d="M192.35 35.9651V37.7051H187.205V38.2151H185.195V32.3501C185 32.1701 184.7 31.9151 184.415 31.7051C184.73 32.4401 184.985 33.2201 185.075 33.7901L183.44 34.4051C183.44 34.2551 183.395 34.0901 183.35 33.8951L182.555 33.9401V34.7351L183.95 34.2401C184.37 35.0051 184.82 36.0401 184.985 36.7001L183.29 37.3601C183.185 36.8051 182.87 35.9801 182.555 35.2451V38.1401H180.545V35.1551C180.305 36.0701 179.885 37.1501 179.405 37.8551C179.03 37.5851 178.34 37.2401 177.875 37.0451C178.325 36.3701 178.685 35.2901 178.88 34.3151L180.53 34.7801V34.0301C179.855 34.0601 179.225 34.0901 178.715 34.1051C178.67 34.2551 178.55 34.3151 178.43 34.3301L177.92 32.3051H179.465C179.69 32.1251 179.93 31.9001 180.155 31.6751C179.615 31.1351 178.835 30.5051 178.19 30.0551L179.315 28.7051L179.72 28.9601C179.96 28.6301 180.215 28.2551 180.41 27.9251H178.85V24.0551H191.555V27.9251H189.47L191.165 28.4201C191.105 28.5401 190.97 28.6001 190.73 28.6001C190.58 28.9001 190.4 29.2751 190.19 29.6201H192.11V31.3601H190.085V31.8551H191.66V33.4001H190.085V33.8951H191.66V35.4401H190.085V35.9501H192.32L192.35 35.9651ZM180.995 25.6301V26.3801H182.405V25.6301H180.995ZM181.82 27.9401L182.66 28.3601C182.6 28.4651 182.435 28.5101 182.21 28.4951C181.925 28.9301 181.475 29.4701 181.04 29.9501C181.19 30.0851 181.34 30.2051 181.475 30.3401C181.985 29.7701 182.435 29.1851 182.81 28.6751L184.715 29.6801C184.64 29.7851 184.475 29.8301 184.25 29.8301C183.8 30.3401 183.26 30.9251 182.675 31.4951L183.92 31.0601C184.715 30.2951 185.42 29.1101 185.87 27.9401H181.82ZM182.885 32.3201C182.795 32.0801 182.705 31.8251 182.6 31.5851C182.36 31.8401 182.09 32.0951 181.835 32.3351H182.9L182.885 32.3201ZM184.43 25.6151V26.3651H185.87V25.6151H184.43ZM188.165 28.2551C188.12 28.3751 187.985 28.4501 187.76 28.4351C187.61 28.8401 187.43 29.2301 187.205 29.6351H188.225C188.48 29.0801 188.735 28.4501 188.9 27.9401H187.07L188.15 28.2551H188.165ZM188.195 31.8701V31.3751H187.22V31.8701H188.195ZM188.195 33.9101V33.4151H187.22V33.9101H188.195ZM187.22 35.4551V35.9651H188.195V35.4551H187.22ZM187.895 25.6301V26.3801H189.35V25.6301H187.895Z" fill="#2E318B"/>
<path d="M205.19 24.49H208.295V26.32H205.19V26.785H203.015V26.32H199.76V26.785H197.585V26.32H194.585V24.49H197.585V23.605L200.21 23.74C200.21 23.905 200.075 24.01 199.76 24.055V24.49H203.015V23.605L205.655 23.74C205.64 23.905 205.52 24.01 205.19 24.055V24.49ZM207.65 32.32V36.25C207.65 37.69 207.23 38.17 205.145 38.17C205.085 37.795 204.965 37.36 204.815 36.955L203.435 37.27C203.435 37.09 203.405 36.895 203.36 36.655C201.545 36.805 199.73 36.955 198.485 37.03C198.44 37.18 198.32 37.255 198.2 37.27L197.54 35.14C198.29 35.14 199.25 35.14 200.33 35.095V34.12H197.45V38.185H195.335V32.32H200.33V31.945H196.565V26.95H206.48V31.945H202.445V32.32H207.665H207.65ZM198.635 28.375V28.81H200.315V28.375H198.635ZM198.635 30.55H200.315V30.115H198.635V30.55ZM204.29 28.81V28.375H202.43V28.81H204.29ZM204.29 30.55V30.115H202.43V30.55H204.29ZM202.43 35.065H202.94C202.88 34.855 202.805 34.63 202.73 34.45L204.155 34.135H202.445V35.065H202.43ZM204.365 34.135C204.695 34.855 204.98 35.71 205.115 36.415C205.445 36.415 205.49 36.415 205.49 36.235V34.135H204.365Z" fill="#2E318B"/>
<path d="M222.891 30.7751L224.796 32.2601C224.736 32.3351 224.616 32.3651 224.466 32.3651C224.406 32.3651 224.346 32.3651 224.286 32.3501C223.641 32.7251 222.576 33.2651 221.706 33.6551C222.516 34.6151 223.581 35.3651 224.901 35.8451C224.421 36.2801 223.776 37.1351 223.476 37.7201C220.626 36.4751 219.081 34.1501 218.121 30.9551C217.806 31.1501 217.446 31.3451 217.086 31.5101C218.826 32.7101 219.546 34.2251 219.546 35.4851C219.546 37.2101 218.271 38.2601 216.501 38.2601C216.111 38.2601 215.691 38.2451 215.256 38.2301C215.226 37.7351 215.091 37.0901 214.821 36.5651C213.816 37.0301 212.751 37.4051 211.761 37.6901C211.491 37.2251 210.921 36.4901 210.516 36.1001C212.736 35.6351 215.211 34.7201 216.771 33.7001L216.591 33.4751C215.226 34.2701 213.516 34.9451 211.956 35.2901C211.701 34.8551 211.176 34.1951 210.801 33.8201C212.376 33.5651 214.116 33.0701 215.376 32.4551L215.151 32.3201C214.071 32.6951 212.916 33.0101 211.821 33.2351C211.611 32.8601 211.116 32.1101 210.816 31.7651C212.106 31.5551 213.486 31.2101 214.701 30.8051H212.346V28.5551L212.031 28.7501C211.716 28.2401 211.026 27.4901 210.546 27.1751C212.496 26.1701 213.876 24.8051 214.656 23.5601L217.191 24.0551C217.146 24.2051 217.011 24.3101 216.756 24.3101L216.576 24.5501H219.006L219.321 24.4451L221.046 25.4651C220.971 25.5851 220.821 25.6451 220.641 25.6751C220.416 25.9901 220.116 26.3951 219.786 26.8001H223.251V30.7901H222.906L222.891 30.7751ZM214.401 28.3601V29.2001H216.516V28.3601H214.401ZM217.221 26.7851C217.386 26.5901 217.536 26.3651 217.686 26.1551H215.211C215.016 26.3651 214.791 26.5751 214.566 26.7851H217.236H217.221ZM217.401 35.1551C216.771 35.5751 216.081 35.9351 215.376 36.2951C215.631 36.2951 215.886 36.2951 216.096 36.2951C216.471 36.2951 216.786 36.2651 217.011 36.0701C217.266 35.9051 217.416 35.5751 217.386 35.1551H217.401ZM221.031 29.2001V28.3601H218.706V29.2001H221.031ZM220.056 30.7751C220.221 31.2701 220.431 31.7351 220.671 32.1851C221.451 31.7501 222.246 31.2251 222.816 30.7751H220.056Z" fill="#2E318B"/>
<path d="M231.8 30.4451C233.075 30.7451 234.095 31.7951 234.095 33.3251C234.095 35.2901 232.475 36.8651 229.715 36.8651C228.44 36.8651 227.33 36.5651 226.73 36.1901L227.3 34.1501C227.75 34.4201 228.665 34.7501 229.49 34.7501C230.69 34.7501 231.365 34.0601 231.365 33.1901C231.365 32.0201 230.33 31.5101 229.205 31.5101H228.44V29.6201H229.13C229.985 29.6201 231.05 29.2001 231.05 28.2251C231.05 27.5201 230.54 27.0101 229.58 27.0101C228.83 27.0101 228.08 27.3101 227.63 27.5801L227.105 25.6451C227.72 25.2551 228.965 24.8801 230.225 24.8801C232.52 24.8801 233.75 26.2001 233.75 27.7601C233.75 28.9601 233.03 29.9201 231.8 30.4151V30.4451Z" fill="#2E318B"/>
<path d="M236.795 25.0601H244.205V26.7401L240.005 36.7001H237.245L241.445 27.3251V27.2951H236.795V25.0601Z" fill="#2E318B"/>
<path d="M251.946 31.6L252.321 33.535C250.506 34.24 248.571 34.93 247.266 35.395C247.266 35.545 247.146 35.665 247.011 35.71L246.021 33.3851C246.591 33.2351 247.281 33.055 248.031 32.815V27.2351H246.486V25.18H251.796V27.2351H250.281V32.1251L251.961 31.6H251.946ZM260.226 35.05H258.201C259.131 35.575 260.376 36.3401 261.051 36.8651L259.296 38.17C258.681 37.6 257.346 36.7151 256.386 36.1151L257.871 35.05H254.496L256.011 36.1151C256.011 36.1151 255.861 36.205 255.741 36.22C254.916 36.88 253.296 37.7051 251.946 38.1401C251.646 37.7051 251.046 37.0451 250.596 36.6251C251.721 36.2951 253.055 35.62 253.91 35.05H252.591V26.83H254.901L255.035 26.02H252.035V24.175H260.796V26.02H257.436C257.361 26.275 257.271 26.56 257.181 26.83H260.226V35.05ZM254.646 28.42V29.1101H258.051V28.42H254.646ZM254.646 30.58V31.27H258.051V30.58H254.646ZM254.646 32.7551V33.445H258.051V32.7551H254.646Z" fill="#2E318B"/>
<path d="M270.846 35.8601H276.576V37.7651H262.926V35.8601H268.536V35.2001H265.026V34.0151C264.831 34.2701 264.636 34.5101 264.426 34.7201C264.021 34.3301 263.226 33.7751 262.746 33.4751C263.586 32.6651 264.396 31.3151 264.906 30.0251H264.501V24.0851H274.956V30.0251H271.296C271.251 30.1451 271.116 30.2351 270.831 30.2801V31.0001H275.571V32.8151H270.831V33.4751H274.461V35.1701H270.831V35.8301L270.846 35.8601ZM265.836 32.8451C265.701 33.0701 265.566 33.2951 265.401 33.5051H268.521V32.8451H265.821H265.836ZM268.536 30.0401H266.436L267.456 30.3551C267.396 30.4751 267.246 30.5501 267.021 30.5351C266.961 30.6851 266.886 30.8501 266.811 31.0151H268.521V30.0401H268.536ZM266.706 25.7651V26.2901H272.661V25.7651H266.706ZM266.706 27.8351V28.3751H272.661V27.8351H266.706Z" fill="#2E318B"/>
<path d="M291.981 28.3751L293.316 28.9451C293.286 29.0501 293.196 29.1701 293.106 29.2451C292.671 31.4951 291.936 33.4151 290.946 34.9601C291.636 35.5601 292.446 36.0251 293.421 36.3851C292.971 36.7901 292.356 37.6301 292.071 38.1851C291.111 37.7651 290.301 37.2401 289.626 36.5951C289.026 37.1951 288.381 37.6901 287.676 38.0951C287.406 37.6301 286.701 36.8501 286.236 36.5051C285.981 37.1201 285.666 37.6751 285.306 38.1551C284.976 37.8101 284.151 37.1501 283.671 36.8501C283.941 36.5051 284.196 36.1001 284.391 35.6351L283.416 36.0101C283.311 35.4551 283.086 34.6751 282.846 33.9551V38.1551H280.911V33.4151H280.866C280.746 34.6601 280.461 36.1301 280.056 37.0601C279.651 36.8051 278.946 36.4901 278.511 36.3101C278.871 35.4701 279.066 34.0301 279.156 32.7551L280.911 33.1601V32.1551C280.311 32.1851 279.771 32.2301 279.306 32.2451C279.261 32.4101 279.126 32.4701 279.006 32.4851L278.601 30.3101H279.711C279.906 30.0551 280.101 29.7851 280.311 29.5151C279.876 28.8401 279.216 28.0751 278.616 27.4901L279.651 25.9601L279.906 26.1851C280.296 25.3601 280.686 24.4001 280.926 23.6351L283.056 24.4901C282.996 24.5951 282.831 24.6551 282.591 24.6551C282.246 25.4801 281.631 26.6051 281.106 27.4301C281.211 27.5501 281.316 27.6851 281.406 27.8051C281.916 27.0101 282.351 26.2001 282.696 25.4801L284.511 26.2901V24.4451H289.686L290.151 24.4151L291.186 24.5951C291.171 24.7151 291.141 24.8651 291.111 25.0001C290.976 25.9151 290.736 27.1601 290.496 28.4351H291.636L291.981 28.3751ZM282.756 30.2651C282.636 29.9651 282.501 29.6501 282.366 29.3651C282.126 29.6801 281.871 29.9951 281.646 30.2801H282.771L282.756 30.2651ZM282.831 33.2051L284.241 32.7401C284.436 33.2651 284.661 33.8651 284.841 34.4201C285.456 32.3051 285.606 29.5151 285.621 26.4701H284.646C284.556 26.5301 284.436 26.5601 284.271 26.5601C283.806 27.3251 283.191 28.2401 282.531 29.1251L283.896 28.5551C284.466 29.5901 285.051 30.9551 285.216 31.8701L283.521 32.6201C283.491 32.4101 283.446 32.1701 283.371 31.9151L282.861 31.9601V33.1751L282.831 33.2051ZM288.246 34.9601C287.841 34.3151 287.496 33.6101 287.211 32.8451C287.001 34.1801 286.686 35.3801 286.266 36.4151C287.001 36.0251 287.676 35.5451 288.261 34.9601H288.246ZM287.661 26.4701C287.646 26.8451 287.646 27.2351 287.631 27.6251C287.751 28.4801 287.916 29.2901 288.141 30.0401C288.366 28.8851 288.621 27.5951 288.816 26.4701H287.661ZM288.306 30.6251C288.606 31.6151 289.011 32.5301 289.536 33.3251C290.046 32.4851 290.451 31.5101 290.751 30.4001H290.091L290.001 30.8351L288.321 30.6401L288.306 30.6251Z" fill="#2E318B"/>
<path d="M303.291 34.3751V35.8451H308.781V37.8251H295.671V35.8451H300.936V34.3751H296.901V32.4551H300.936V31.0451H297.726V29.7401C297.186 30.0851 296.646 30.4301 296.076 30.7301C295.791 30.2051 295.176 29.3801 294.696 28.9601C297.336 27.6701 299.811 25.3301 300.906 23.5001L303.831 23.6501C303.771 23.8301 303.621 23.9651 303.366 23.9951C304.851 25.9901 307.416 27.8201 309.696 28.7051C309.126 29.2751 308.631 30.0401 308.226 30.7151C307.686 30.4451 307.161 30.1001 306.621 29.7701V31.0451H303.291V32.4551H307.401V34.3751H303.291ZM305.646 29.0951C304.206 28.0451 302.901 26.8151 302.106 25.7051C301.311 26.8301 300.081 28.0151 298.656 29.0951H305.631H305.646Z" fill="#2E318B"/>
<path d="M319.836 30.04V29.38C319.611 29.635 319.371 29.905 319.131 30.115C318.996 29.8 318.816 29.41 318.606 29.05C318.561 29.14 318.471 29.2 318.276 29.23V37.885H316.701V37.405H313.041V38.02H311.511V28.855L313.416 28.96C313.401 29.095 313.296 29.185 313.041 29.215V30.565C313.386 30.07 313.521 29.395 313.551 28.795L314.811 28.93C314.811 29.035 314.706 29.095 314.541 29.11C314.526 29.32 314.481 29.575 314.436 29.83C314.586 29.98 314.721 30.13 314.871 30.295C315.126 29.83 315.246 29.305 315.291 28.795L316.551 28.93C316.536 29.035 316.446 29.095 316.296 29.125C316.266 29.335 316.221 29.59 316.161 29.845C316.356 30.04 316.581 30.295 316.746 30.49V28.855L318.621 28.96C318.531 28.825 318.456 28.69 318.366 28.555H311.181V26.89H311.931V24.475L314.001 24.595C313.986 24.73 313.881 24.82 313.611 24.865V26.89H314.211V23.635L316.461 23.755C316.446 23.905 316.341 23.995 316.041 24.04V24.745H318.231V26.305H316.041V26.89H318.636V27.76C319.641 26.59 320.601 24.835 321.021 23.605L323.286 23.695C323.256 23.83 323.166 23.905 323.031 23.95C323.691 25.255 324.906 27.1 325.956 27.94C325.566 28.48 325.101 29.29 324.786 29.965C324.561 29.755 324.321 29.5 324.096 29.23V30.025H319.881L319.836 30.04ZM313.041 31.51H313.461C313.356 31.36 313.206 31.18 313.041 31.03V31.51ZM314.811 33.205C314.796 33.31 314.706 33.37 314.541 33.385C314.541 33.595 314.481 33.85 314.436 34.105C314.586 34.255 314.736 34.42 314.886 34.585C315.126 34.12 315.246 33.58 315.291 33.07L316.566 33.205C316.536 33.31 316.446 33.37 316.296 33.4C316.266 33.61 316.221 33.85 316.161 34.09C316.356 34.285 316.551 34.525 316.731 34.705V33.01H313.071V34.885C313.416 34.375 313.566 33.685 313.596 33.085L314.856 33.22L314.811 33.205ZM313.416 35.845C313.311 35.71 313.176 35.56 313.041 35.41V35.845H313.416ZM315.021 35.845C314.961 35.74 314.856 35.62 314.766 35.515L314.511 35.785C314.406 35.62 314.241 35.395 314.046 35.17C313.926 35.41 313.761 35.65 313.536 35.845H315.021ZM315.021 31.51C314.931 31.39 314.811 31.24 314.676 31.09L314.406 31.39C314.316 31.255 314.181 31.075 314.016 30.865C313.896 31.09 313.746 31.315 313.536 31.495H315.021V31.51ZM316.176 31.51C316.056 31.315 315.876 31.06 315.666 30.835C315.516 31.075 315.336 31.315 315.081 31.51H316.161H316.176ZM316.251 35.845C316.116 35.65 315.921 35.395 315.696 35.14C315.561 35.38 315.366 35.635 315.126 35.845H316.251ZM316.686 31.51V31.015L316.266 31.51H316.686ZM316.311 35.845H316.686V35.365L316.311 35.845ZM325.086 30.88V34.9C325.086 36.565 324.456 36.91 322.431 36.91C322.401 36.475 322.266 35.92 322.101 35.44V38.14H320.136V32.77H318.726V30.88H325.086ZM323.331 28.27C322.776 27.445 322.311 26.56 321.966 25.84C321.666 26.56 321.201 27.43 320.646 28.27H323.331ZM322.101 32.755V35.005C322.431 35.02 322.791 35.02 322.911 35.02C323.061 35.02 323.106 34.99 323.106 34.84V32.755H322.101Z" fill="#2E318B"/>
<path d="M334.131 24.8351C334.056 24.9701 333.891 25.0601 333.636 25.0301C332.691 27.1451 331.221 29.3801 329.676 30.8051C329.196 30.3401 328.251 29.5901 327.666 29.2301C329.136 28.0451 330.546 25.9001 331.281 23.9051L334.131 24.8351ZM335.901 30.0251C335.826 30.1901 335.631 30.2801 335.331 30.3101C334.746 31.8701 333.846 33.6701 332.961 35.1851C334.416 35.1401 335.976 35.0801 337.521 35.0201C336.996 34.1801 336.456 33.3401 335.931 32.6201L338.106 31.6301C339.426 33.3101 340.806 35.5001 341.526 37.0151L339.201 38.2451C339.066 37.9001 338.886 37.5101 338.661 37.0751C335.226 37.3151 331.761 37.5251 329.376 37.6301C329.331 37.7951 329.181 37.8851 329.046 37.8851L328.161 35.3201L330.411 35.2751C331.401 33.5051 332.391 31.1501 332.946 29.2451L335.901 30.0401V30.0251ZM337.851 23.9501C338.676 25.6301 340.326 27.6251 341.721 28.9301C341.121 29.3951 340.266 30.2801 339.831 30.8951C338.376 29.2901 336.711 26.9801 335.586 24.8651L337.836 23.9651L337.851 23.9501Z" fill="#2E318B"/>
<path d="M349.716 26.155V27.88H343.581V26.155H349.716ZM356.226 30.13L357.636 30.67C357.606 30.79 357.531 30.85 357.456 30.94C357.006 32.605 356.286 33.97 355.311 35.095C356.166 35.59 357.171 35.965 358.251 36.235C357.756 36.685 357.126 37.585 356.811 38.155C355.596 37.78 354.531 37.27 353.601 36.595C352.641 37.255 351.516 37.78 350.241 38.155C350.031 37.615 349.536 36.775 349.146 36.28V37.405H346.146V37.945H344.271V32.635H349.146V36.19C350.166 35.95 351.111 35.575 351.921 35.095C351.321 34.42 350.811 33.67 350.376 32.83L352.296 32.215H349.941V30.22H350.571C350.211 29.83 349.596 29.32 349.176 29.05V30.01H344.361V28.36H349.176V28.915C350.421 28.03 350.541 26.86 350.541 25.87V24.055H355.896V27.31C355.896 27.775 355.911 27.82 356.031 27.82H356.196C356.346 27.82 356.406 27.625 356.436 26.365C356.811 26.68 357.681 27.01 358.221 27.145C358.041 29.125 357.531 29.68 356.406 29.68H355.596C354.201 29.68 353.796 29.11 353.796 27.34V26.005H352.611C352.596 27.43 352.311 29.125 350.961 30.22H355.851L356.241 30.16L356.226 30.13ZM349.146 30.445V32.095H344.331V30.445H349.146ZM349.146 24.04V25.69H344.391V24.04H349.146ZM347.241 35.635V34.33H346.131V35.635H347.241ZM352.341 32.17C352.641 32.74 353.061 33.265 353.556 33.745C354.006 33.28 354.366 32.755 354.681 32.17H352.356H352.341Z" fill="#2E318B"/>
</g>
<defs>
<filter id="filter0_d_70_1878" x="161.181" y="23.0801" width="199.47" height="17.58" filterUnits="userSpaceOnUse" color-interpolation-filters="sRGB">
<feFlood flood-opacity="0" result="BackgroundImageFix"/>
<feColorMatrix in="SourceAlpha" type="matrix" values="0 0 0 0 0 0 0 0 0 0 0 0 0 0 0 0 0 0 127 0" result="hardAlpha"/>
<feOffset dx="0.99" dy="0.99"/>
<feGaussianBlur stdDeviation="0.705"/>
<feColorMatrix type="matrix" values="0 0 0 0 0.0941176 0 0 0 0 0.121569 0 0 0 0 0.215686 0 0 0 0.34 0"/>
<feBlend mode="normal" in2="BackgroundImageFix" result="effect1_dropShadow_70_1878"/>
<feBlend mode="normal" in="SourceGraphic" in2="effect1_dropShadow_70_1878" result="shape"/>
</filter>
</defs>
</svg>
