<?xml version="1.0" encoding="utf-8"?>
<!-- Generator: Adobe Illustrator 27.0.0, SVG Export Plug-In . SVG Version: 6.00 Build 0)  -->
<svg version="1.1" id="_圖層_2" xmlns="http://www.w3.org/2000/svg" xmlns:xlink="http://www.w3.org/1999/xlink" x="0px" y="0px"
	 viewBox="0 0 65.2 26.9" style="enable-background:new 0 0 65.2 26.9;" xml:space="preserve">
<style type="text/css">
	.st0{fill:#FFFFFF;}
</style>
<g id="_圖層_1-2">
	<g>
		<g>
			<path class="st0" d="M31.7,9.1h-4.8v1.1h3.6V16h-2.5v-0.4h-4.8V16H21v-5.8h3.5V9.1h-4.2v-1h0c-0.2,2.7-0.6,5.8-2.1,7.9
				c-0.5-0.4-1.6-1-2.2-1.3c1.8-2.5,1.9-6.3,1.9-9v-5h12.9v5h-3.3c0,0.2-0.2,0.3-0.5,0.4v0.8h4.8C31.7,6.9,31.7,9.1,31.7,9.1z
				 M20.3,5.8c0,0.3,0,0.7,0,1.1h4.2V5.8H20.3z M28.3,2.9h-8v0.8h8V2.9z M28.1,13.4v-1.1h-4.8v1.1H28.1z"/>
			<path class="st0" d="M34.9,7.8c-0.4,0.5-0.8,1-1.2,1.5c-0.2-0.6-0.8-1.9-1.1-2.5c1.4-1.5,2.8-4.2,3.7-6.7L38.9,1
				c-0.1,0.2-0.3,0.2-0.5,0.2c-0.4,1-0.9,2.1-1.4,3.1l0.7,0.2c0,0.2-0.2,0.3-0.5,0.3v11.1h-2.4V7.8z M44.7,13.1h4.1v2.3H37.9v-2.3
				h4.2v-2.8h-3.4V8h3.4V5.5h-3.9V3.2h4.2c-0.8-0.5-1.6-1.1-2.3-1.5L41.7,0c1.2,0.6,3,1.6,3.9,2.4l-0.7,0.8h3.7v2.3h-3.9V8h3.4v2.3
				h-3.4L44.7,13.1L44.7,13.1z"/>
		</g>
		<g>
			<path class="st0" d="M12.7,24c0.4,0.2,0.6,0.6,0.8,1.2c0.2,0.7,0.3,1.4,0.4,1.6h-1.2c-0.1-0.2-0.2-0.7-0.4-1.4
				c-0.2-0.8-0.4-1-0.9-1h-0.4v2.4H10V21c0.4-0.1,0.9-0.1,1.5-0.1c0.7,0,2.2,0.1,2.2,1.7C13.8,23.3,13.3,23.8,12.7,24L12.7,24
				L12.7,24z M11.6,23.6c0.6,0,1-0.4,1-0.9c0-0.8-0.6-0.9-1-0.9c-0.2,0-0.4,0-0.5,0v1.8L11.6,23.6L11.6,23.6z"/>
			<path class="st0" d="M18,26.8h-3.3v-5.9h3.2v1h-2v1.4h1.9v0.9h-1.9v1.6H18C18,25.9,18,26.8,18,26.8z"/>
			<path class="st0" d="M21.7,22c-0.2-0.1-0.6-0.2-1-0.2c-0.6,0-0.9,0.3-0.9,0.6c0,0.4,0.3,0.6,1,0.9c0.9,0.4,1.4,1,1.4,1.7
				c0,1-0.8,1.8-2.1,1.8c-0.6,0-1.2-0.2-1.4-0.3l0.2-1c0.3,0.2,0.8,0.3,1.3,0.3c0.6,0,1-0.3,1-0.7s-0.3-0.7-0.9-1
				c-0.9-0.4-1.4-0.9-1.4-1.7c0-1,0.8-1.7,2-1.7c0.6,0,1,0.1,1.3,0.3L21.7,22L21.7,22z"/>
			<path class="st0" d="M23.1,20.9h1.1v5.9h-1.1V20.9z"/>
			<path class="st0" d="M25.3,21c0.4-0.1,0.9-0.1,1.5-0.1c1,0,1.6,0.2,2.1,0.6c0.6,0.5,0.9,1.2,0.9,2.2c0,1.3-0.4,2-0.9,2.4
				c-0.5,0.5-1.4,0.7-2.4,0.7c-0.5,0-1,0-1.3-0.1V21z M26.5,25.9c0.1,0,0.3,0,0.4,0c1.1,0,1.8-0.7,1.8-2.2c0-1.3-0.6-2-1.7-2
				c-0.2,0-0.4,0-0.5,0C26.5,21.8,26.5,25.9,26.5,25.9z"/>
			<path class="st0" d="M34.1,26.8h-3.3v-5.9h3.2v1h-2v1.4h1.9v0.9h-1.9v1.6h2.2C34.1,25.9,34.1,26.8,34.1,26.8z"/>
			<path class="st0" d="M39.2,26.8h-1.1l-1.3-2.4c-0.3-0.6-0.7-1.3-0.9-2h0c0,0.7,0.1,1.5,0.1,2.6v1.8h-1v-5.9h1.2l1.2,2.4
				c0.3,0.6,0.6,1.3,0.9,1.9h0c-0.1-0.8-0.1-1.6-0.1-2.5v-1.8h1L39.2,26.8L39.2,26.8z"/>
			<path class="st0" d="M43.9,21.9h-1.5v4.9h-1.1v-4.9h-1.5v-1h4V21.9z"/>
			<path class="st0" d="M44.6,20.9h1.1v5.9h-1.1V20.9z"/>
			<path class="st0" d="M51.2,26.8H50l-0.4-1.5H48l-0.4,1.5h-1.2l1.7-5.9h1.4L51.2,26.8L51.2,26.8z M49.4,24.4l-0.3-1.3
				c-0.1-0.4-0.2-0.8-0.3-1.2h0c-0.1,0.4-0.2,0.9-0.3,1.2l-0.3,1.4L49.4,24.4L49.4,24.4z"/>
			<path class="st0" d="M55.2,26.8H52v-5.9h1.1v4.9h2.1V26.8z"/>
		</g>
	</g>
</g>
</svg>
