<svg width="349" height="141" viewBox="0 0 349 141" fill="none" xmlns="http://www.w3.org/2000/svg">
<path d="M40.7401 118.65C38.3701 114.45 32.61 111.24 32.61 111.24C32.61 111.24 33.48 116.1 33.795 119.115C33.9 120.105 34.2451 121.14 34.7401 122.145C33.9301 121.455 33.0601 120.81 32.1751 120.255C30.8251 118.725 29.5501 117.135 28.3351 115.485C29.2651 113.25 30.9301 108.48 30.0601 104.835C28.9351 100.155 24.285 95.43 24.285 95.43C24.285 95.43 23.775 100.305 23.25 103.29C23.085 104.265 23.13 105.345 23.325 106.455C22.71 105.54 22.05 104.655 21.315 103.845C20.445 102.03 19.6651 100.185 18.9601 98.31C20.4601 96.465 23.445 92.355 23.61 88.59C23.82 83.805 20.6401 77.97 20.6401 77.97C20.6401 77.97 18.7951 82.485 17.4601 85.17C17.0251 86.055 16.7701 87.105 16.6501 88.215C16.3651 87.315 16.0201 86.415 15.6151 85.545C15.2551 83.37 14.9851 81.225 14.7751 79.125C16.7701 77.76 20.685 74.73 21.87 71.235C23.4 66.72 21.9601 60.24 21.9601 60.24C21.9601 60.24 18.9301 64.02 16.8901 66.21C16.2301 66.93 15.69 67.86 15.27 68.88C15.225 67.59 15.1051 66.3 14.8351 65.055C14.7901 64.83 14.73 64.62 14.67 64.395C14.805 62.88 15.0001 61.395 15.2401 59.925C17.0251 59.415 22.26 57.675 24.51 54.495C27.105 50.82 27.495 44.535 27.495 44.535C27.495 44.535 23.715 47.145 21.27 48.57C20.475 49.035 19.74 49.74 19.065 50.55C19.365 49.38 19.59 48.165 19.68 46.965C19.725 46.335 19.7101 45.69 19.6501 45.015C20.0251 44.19 20.4151 43.365 20.8201 42.555C20.8801 42.495 20.9701 42.42 21.0601 42.345C22.3951 42.375 28.035 42.36 31.065 40.005C34.335 37.44 36.3001 31.98 36.3001 31.98C36.3001 31.98 32.2501 33.285 29.6851 33.9C28.8451 34.11 28.0051 34.53 27.2101 35.07C27.7801 34.11 28.29 33.09 28.68 32.055C28.92 31.41 29.1001 30.705 29.2201 29.985C30.0151 29.04 30.8551 28.11 31.7101 27.195C33.1501 27.645 37.5601 28.815 40.5151 27.675C43.9201 26.355 46.905 22.26 46.905 22.26C46.905 22.26 43.1551 22.335 40.8451 22.215C40.0801 22.17 39.2701 22.32 38.4601 22.575C39.1801 21.915 39.855 21.195 40.44 20.415C43.845 15.885 43.4251 6.33002 43.4251 6.33002C43.4251 6.33002 35.49 11.625 33.75 17.82C33 20.49 31.785 24.585 31.245 26.415C30.615 27.06 30.0001 27.72 29.4001 28.38C29.7901 22.53 27.4801 15.585 27.4801 15.585C27.4801 15.585 20.52 23.985 20.61 31.365C20.64 34.32 20.61 38.775 20.61 41.145C20.205 41.91 19.815 42.69 19.455 43.47C18.27 37.095 13.545 30.21 13.545 30.21C13.545 30.21 8.89503 41.085 11.19 48.735C12.165 51.99 13.59 57.045 14.235 59.34C14.07 60.21 13.905 61.08 13.77 61.965C10.815 55.725 3.79504 49.92 3.79504 49.92C3.79504 49.92 2.31004 62.34 6.84004 69.405C8.88004 72.585 11.9851 77.61 13.1851 79.56C13.2601 80.415 13.35 81.27 13.455 82.125C8.94005 76.845 0.435059 73.185 0.435059 73.185C0.435059 73.185 2.46003 85.59 8.74503 91.11C11.52 93.555 15.795 97.44 17.535 99.03C17.835 99.84 18.15 100.635 18.465 101.43C12.69 97.695 3.67506 96.615 3.67506 96.615C3.67506 96.615 9.06004 108 16.59 111.525C19.665 112.965 24.315 115.23 26.655 116.385C27.165 117.12 27.705 117.84 28.245 118.545C21.75 116.82 13.29 118.275 13.29 118.275C13.29 118.275 21.585 127.71 29.745 128.955C32.76 129.42 37.2 130.17 39.915 130.635C43.965 133.95 48.3601 136.785 52.9801 139.05C54.6301 138.99 56.265 138.96 57.915 138.945C52.275 136.575 46.935 133.38 42.03 129.525C42.3 127.17 42.6151 121.935 40.7401 118.605V118.65Z" fill="white"/>
<path d="M307.861 118.65C310.231 114.45 315.991 111.24 315.991 111.24C315.991 111.24 315.121 116.1 314.806 119.115C314.701 120.105 314.356 121.14 313.861 122.145C314.671 121.455 315.526 120.81 316.426 120.255C317.776 118.725 319.051 117.135 320.266 115.485C319.336 113.25 317.671 108.48 318.541 104.835C319.666 100.155 324.316 95.43 324.316 95.43C324.316 95.43 324.826 100.305 325.351 103.29C325.516 104.265 325.471 105.345 325.276 106.455C325.891 105.54 326.551 104.655 327.286 103.845C328.156 102.03 328.936 100.185 329.641 98.31C328.141 96.465 325.156 92.355 324.991 88.59C324.781 83.805 327.961 77.97 327.961 77.97C327.961 77.97 329.806 82.485 331.141 85.17C331.576 86.055 331.831 87.105 331.951 88.215C332.236 87.315 332.581 86.415 332.986 85.545C333.346 83.37 333.616 81.225 333.826 79.125C331.831 77.76 327.916 74.73 326.731 71.235C325.201 66.72 326.641 60.24 326.641 60.24C326.641 60.24 329.671 64.02 331.711 66.21C332.386 66.93 332.911 67.86 333.331 68.88C333.376 67.59 333.496 66.3 333.766 65.055C333.811 64.83 333.871 64.62 333.931 64.395C333.796 62.88 333.601 61.395 333.361 59.925C331.576 59.415 326.341 57.675 324.091 54.495C321.496 50.82 321.106 44.535 321.106 44.535C321.106 44.535 324.886 47.145 327.331 48.57C328.126 49.035 328.861 49.74 329.536 50.55C329.236 49.38 329.011 48.165 328.921 46.965C328.876 46.335 328.891 45.69 328.951 45.015C328.576 44.19 328.186 43.365 327.781 42.555C327.721 42.495 327.631 42.42 327.541 42.345C326.206 42.375 320.566 42.36 317.536 40.005C314.266 37.44 312.301 31.98 312.301 31.98C312.301 31.98 316.351 33.285 318.916 33.9C319.756 34.11 320.596 34.53 321.391 35.07C320.821 34.11 320.311 33.09 319.921 32.055C319.681 31.41 319.501 30.705 319.381 29.985C318.586 29.04 317.746 28.11 316.891 27.195C315.451 27.645 311.041 28.815 308.086 27.675C304.681 26.355 301.696 22.26 301.696 22.26C301.696 22.26 305.446 22.335 307.756 22.215C308.521 22.17 309.331 22.32 310.141 22.575C309.421 21.915 308.746 21.195 308.161 20.415C304.771 15.885 305.176 6.33002 305.176 6.33002C305.176 6.33002 313.111 11.625 314.851 17.82C315.601 20.49 316.816 24.585 317.356 26.415C317.986 27.06 318.601 27.72 319.201 28.38C318.811 22.53 321.121 15.585 321.121 15.585C321.121 15.585 328.081 23.985 327.991 31.365C327.961 34.32 327.991 38.775 327.991 41.145C328.396 41.91 328.786 42.69 329.146 43.47C330.331 37.095 335.056 30.21 335.056 30.21C335.056 30.21 339.706 41.085 337.411 48.735C336.436 51.99 335.011 57.045 334.366 59.34C334.531 60.21 334.696 61.08 334.831 61.965C337.786 55.725 344.806 49.92 344.806 49.92C344.806 49.92 346.291 62.34 341.761 69.405C339.721 72.585 336.616 77.61 335.416 79.56C335.341 80.415 335.251 81.27 335.146 82.125C339.661 76.845 348.166 73.185 348.166 73.185C348.166 73.185 346.141 85.59 339.856 91.11C337.081 93.555 332.806 97.44 331.066 99.03C330.766 99.84 330.451 100.635 330.136 101.43C335.911 97.695 344.926 96.615 344.926 96.615C344.926 96.615 339.541 108 332.011 111.525C328.936 112.965 324.286 115.23 321.946 116.385C321.436 117.12 320.896 117.84 320.356 118.545C326.851 116.82 335.311 118.275 335.311 118.275C335.311 118.275 327.016 127.71 318.856 128.955C315.841 129.42 311.401 130.17 308.686 130.635C304.636 133.95 300.241 136.785 295.621 139.05C293.971 138.99 292.336 138.96 290.686 138.945C296.326 136.575 301.666 133.38 306.571 129.525C306.301 127.17 305.986 121.935 307.861 118.605V118.65Z" fill="white"/>
<path d="M128.821 27.42V30.135C125.116 43.185 117.451 52.395 105.796 57.765L105.181 56.88C109.651 53.715 113.311 49.77 116.146 45.03C118.996 40.245 121.036 35.04 122.311 29.385H107.341L106.726 27.42H128.806H128.821ZM157.801 16.32L163.021 21.33C158.056 25.935 152.476 29.835 146.296 33.045C151.171 41.04 158.806 47.01 169.186 50.985L168.976 51.735C167.626 52.005 166.471 52.665 165.526 53.7C164.581 54.735 163.906 56.055 163.501 57.63C159.571 55.2 156.226 52.545 153.481 49.71C150.721 46.815 148.216 43.125 145.966 38.61C143.746 34.05 142.021 28.695 140.746 22.56V54.855C140.746 57.42 140.131 59.34 138.916 60.615C137.746 61.875 135.211 62.685 131.326 63.045C131.011 60.735 130.396 59.19 129.496 58.365C128.191 57.285 125.971 56.52 122.866 56.07V55.05C128.236 55.455 131.491 55.665 132.616 55.665C133.741 55.665 134.236 55.155 134.236 54.105V17.67H117.376L116.761 15.705H140.731V18.75C141.856 23.76 143.461 28.095 145.546 31.755C147.886 29.415 150.211 26.79 152.521 23.895C154.816 20.955 156.586 18.435 157.801 16.305V16.32ZM125.086 1.35L125.356 0.404999C134.881 0.494999 141.286 2.295 144.586 5.82C146.251 7.62 146.686 9.315 145.876 10.89C145.246 12.24 144.091 12.765 142.426 12.45C142.156 12.36 141.886 12.27 141.616 12.18C140.221 10.425 138.046 8.52 135.121 6.495C132.181 4.47 128.851 2.745 125.101 1.35H125.086Z" fill="white"/>
<path d="M237.631 17.265H243.931V30.33C243.886 30.555 243.361 30.87 242.371 31.275C241.381 31.635 240.451 31.86 239.596 31.95L243.391 34.8C242.896 35.385 242.146 35.775 241.156 35.955V52.755C241.111 53.025 240.451 53.385 239.191 53.835C237.931 54.285 236.821 54.51 235.876 54.51H234.796V52.275H216.646V53.565C216.646 53.745 216.391 54 215.896 54.315C215.401 54.63 214.726 54.93 213.871 55.2C213.061 55.425 212.251 55.545 211.441 55.545H210.556V31.92C209.881 32.1 209.206 32.235 208.531 32.325C208.711 34.035 208.216 35.235 207.046 35.91C205.921 36.585 204.721 36.345 203.461 35.16C203.326 33.855 203.011 32.355 202.516 30.69L198.796 31.77V61.425C198.796 61.605 198.586 61.815 198.181 62.04C197.821 62.31 197.251 62.565 196.486 62.79C195.721 63.015 194.911 63.135 194.056 63.135H193.036V41.61C192.676 41.97 192.061 42.195 191.206 42.285C189.361 49.005 186.901 54.195 183.826 57.855L182.746 57.315C184.456 52.35 185.596 46.305 186.136 39.165L193.036 40.515V33.405C189.376 34.35 187.366 34.875 187.006 34.965C186.646 35.73 186.061 36.21 185.251 36.39L182.881 29.955C184.411 29.955 186.511 29.895 189.181 29.76C193.111 22.635 196.516 15.465 199.411 8.29501L204.826 11.34C201.211 17.565 196.741 23.685 191.416 29.685C193.261 29.595 196.771 29.415 201.916 29.145C201.286 27.525 200.401 25.74 199.276 23.79L200.026 23.52C203.506 25.095 205.966 27.015 207.406 29.28V17.295H237.676L237.631 17.265ZM192.256 0.13501L198.151 3.04501C195.256 8.01001 192.601 11.73 190.156 14.22C192.316 15.93 193.141 17.715 192.586 19.575C192.226 20.925 191.386 21.63 190.081 21.675C189.316 21.72 188.521 21.45 187.711 20.865C187.351 17.88 185.701 14.835 182.776 11.73L183.451 11.25C185.476 11.79 187.171 12.42 188.536 13.14C189.886 9.12001 191.131 4.78501 192.256 0.13501ZM199.981 38.94L200.791 38.67C205.306 41.385 207.766 44.385 208.171 47.67C208.441 49.695 207.916 51.12 206.611 51.93C205.396 52.65 204.181 52.38 202.951 51.12C202.951 47.64 201.961 43.575 199.966 38.94H199.981ZM204.316 63.18L203.701 62.235C206.596 61.2 209.506 59.775 212.431 57.975C215.416 56.22 217.711 54.525 219.331 52.89L223.321 57.285C218.536 60.225 212.191 62.175 204.301 63.18H204.316ZM206.746 7.80001L206.206 5.83501H222.526V0.54001L228.751 1.29001V5.82001H246.151V7.78501H228.751V11.91H243.916V13.875H210.136L209.596 11.91H222.526V7.78501H206.746V7.80001ZM237.151 30.15L238.171 30.9V29.34H212.986V30.555C212.986 30.735 212.686 30.99 212.101 31.305L216.976 33.27H234.181L237.166 30.15H237.151ZM227.326 19.245H223.936C223.621 21 222.721 22.455 221.221 23.58C219.736 24.705 217.156 25.635 213.496 26.355L212.956 25.74V27.36H238.141V24.93C237.151 25.065 235.681 25.125 233.746 25.125H231.106C229.531 25.125 228.481 24.9 227.986 24.45C227.536 23.955 227.311 23.055 227.311 21.735V19.23L227.326 19.245ZM219.196 19.245H212.971V25.2C215.176 24.48 216.721 23.64 217.576 22.695C218.476 21.75 219.016 20.595 219.196 19.245ZM216.616 38.88H234.766V35.22H216.616V38.88ZM216.616 40.845V44.505H234.766V40.845H216.616ZM216.616 50.325H234.766V46.47H216.616V50.325ZM227.581 55.065L227.926 54.045C237.361 54.585 243.001 56.19 244.861 58.86C245.761 60.165 245.566 61.29 244.246 62.25C242.941 63.285 241.486 63.45 239.911 62.73C239.506 62.55 239.146 62.295 238.831 61.98C236.251 59.085 232.516 56.79 227.596 55.08L227.581 55.065ZM238.141 19.245H231.511V21.075C231.511 21.39 231.556 21.615 231.646 21.75C231.781 21.84 232.051 21.885 232.456 21.885H235.906C236.356 21.885 236.626 21.87 236.716 21.81C236.986 21.81 237.346 21.765 237.796 21.675L238.141 19.245Z" fill="white"/>
<path d="M118.47 90.705V91.92C116.805 97.8 113.34 101.955 108.09 104.385L107.82 103.995C109.83 102.57 111.48 100.785 112.77 98.655C114.06 96.495 114.975 94.14 115.545 91.605H108.795L108.525 90.72H118.485L118.47 90.705ZM131.55 85.695L133.905 87.96C131.67 90.03 129.15 91.8 126.36 93.24C128.565 96.84 132 99.54 136.68 101.34L136.59 101.67C135.975 101.79 135.465 102.09 135.03 102.555C134.595 103.02 134.295 103.62 134.115 104.325C132.345 103.23 130.83 102.03 129.6 100.755C128.355 99.45 127.23 97.785 126.21 95.745C125.205 93.69 124.425 91.275 123.855 88.5V103.065C123.855 104.22 123.585 105.09 123.03 105.66C122.505 106.23 121.365 106.59 119.61 106.755C119.46 105.72 119.19 105.015 118.785 104.64C118.2 104.145 117.195 103.8 115.785 103.605V103.14C118.215 103.32 119.67 103.41 120.18 103.41C120.69 103.41 120.915 103.17 120.915 102.705V86.265H113.31L113.04 85.38H123.855V86.76C124.365 89.025 125.085 90.975 126.03 92.625C127.095 91.56 128.145 90.39 129.18 89.085C130.215 87.765 131.01 86.625 131.565 85.665L131.55 85.695ZM116.79 78.945L116.91 78.51C121.2 78.555 124.095 79.365 125.58 80.955C126.33 81.765 126.525 82.53 126.165 83.25C125.88 83.865 125.355 84.09 124.605 83.955C124.485 83.91 124.365 83.88 124.245 83.835C123.615 83.04 122.64 82.185 121.305 81.27C119.985 80.355 118.47 79.575 116.79 78.945Z" fill="white"/>
<path d="M167.565 86.115H170.4V92.01C170.385 92.115 170.145 92.25 169.695 92.445C169.245 92.61 168.825 92.715 168.45 92.745L170.16 94.035C169.935 94.305 169.605 94.47 169.155 94.56V102.135C169.14 102.255 168.84 102.42 168.27 102.63C167.7 102.84 167.205 102.93 166.77 102.93H166.275V101.925H158.085V102.51C158.085 102.585 157.98 102.705 157.755 102.84C157.53 102.975 157.23 103.11 156.84 103.23C156.48 103.335 156.105 103.38 155.745 103.38H155.355V92.715C155.055 92.79 154.74 92.85 154.44 92.895C154.515 93.675 154.29 94.215 153.765 94.515C153.255 94.815 152.715 94.71 152.145 94.185C152.085 93.6 151.935 92.925 151.71 92.175L150.03 92.67V106.05C150.03 106.125 149.94 106.23 149.76 106.32C149.595 106.44 149.34 106.56 148.995 106.65C148.65 106.755 148.275 106.8 147.9 106.8H147.435V97.08C147.27 97.245 147 97.35 146.61 97.38C145.77 100.41 144.66 102.75 143.28 104.4L142.785 104.16C143.565 101.925 144.06 99.195 144.315 95.97L147.435 96.585V93.375C145.785 93.81 144.885 94.035 144.72 94.08C144.555 94.425 144.285 94.635 143.925 94.725L142.86 91.83C143.55 91.83 144.495 91.8 145.695 91.74C147.465 88.53 149.01 85.29 150.315 82.05L152.76 83.43C151.125 86.235 149.115 88.995 146.715 91.71C147.555 91.665 149.13 91.59 151.455 91.47C151.17 90.735 150.78 89.925 150.27 89.055L150.6 88.935C152.16 89.64 153.285 90.51 153.93 91.53V86.13H167.58L167.565 86.115ZM147.105 78.39L149.76 79.71C148.455 81.945 147.255 83.625 146.16 84.75C147.135 85.53 147.51 86.325 147.255 87.165C147.09 87.78 146.715 88.095 146.13 88.11C145.785 88.125 145.425 88.005 145.065 87.735C144.9 86.385 144.165 85.02 142.83 83.61L143.13 83.4C144.045 83.64 144.81 83.925 145.425 84.255C146.04 82.44 146.595 80.49 147.105 78.39ZM150.585 95.895L150.945 95.775C152.985 96.99 154.095 98.355 154.275 99.84C154.395 100.755 154.17 101.4 153.57 101.76C153.015 102.09 152.475 101.97 151.92 101.385C151.92 99.825 151.47 97.98 150.57 95.88L150.585 95.895ZM152.535 106.83L152.265 106.395C153.57 105.93 154.875 105.285 156.21 104.475C157.56 103.68 158.595 102.915 159.33 102.18L161.13 104.16C158.97 105.48 156.105 106.365 152.55 106.815L152.535 106.83ZM153.63 81.84L153.39 80.955H160.755V78.57L163.56 78.9V80.955H171.405V81.84H163.56V83.7H170.4V84.585H155.16L154.92 83.7H160.755V81.84H153.63ZM167.34 91.92L167.805 92.25V91.545H156.435V92.1C156.435 92.175 156.3 92.295 156.045 92.43L158.25 93.315H166.005L167.355 91.905L167.34 91.92ZM162.915 87H161.385C161.235 87.795 160.83 88.44 160.17 88.95C159.495 89.46 158.34 89.88 156.69 90.195L156.45 89.925V90.66H167.82V89.565C167.37 89.625 166.71 89.655 165.84 89.655H164.655C163.935 89.655 163.47 89.55 163.245 89.355C163.035 89.13 162.945 88.725 162.945 88.125V87H162.915ZM159.255 87H156.45V89.685C157.455 89.355 158.145 88.98 158.52 88.56C158.925 88.125 159.165 87.615 159.255 87ZM158.1 95.865H166.29V94.215H158.1V95.865ZM158.1 96.75V98.4H166.29V96.75H158.1ZM158.1 101.025H166.29V99.285H158.1V101.025ZM163.05 103.17L163.2 102.705C167.46 102.945 169.995 103.68 170.835 104.88C171.24 105.465 171.15 105.975 170.565 106.41C169.98 106.875 169.32 106.95 168.615 106.62C168.435 106.545 168.27 106.425 168.12 106.29C166.965 104.985 165.27 103.95 163.05 103.17ZM167.82 87.015H164.82V87.84C164.82 87.975 164.835 88.08 164.88 88.14C164.94 88.185 165.06 88.2 165.24 88.2H166.8C167.01 88.2 167.13 88.2 167.16 88.17C167.28 88.17 167.445 88.155 167.655 88.11L167.805 87.015H167.82Z" fill="white"/>
<path d="M185.655 80.31H188.685V103.155C188.685 104.295 188.445 105.135 187.98 105.66C187.53 106.215 186.57 106.545 185.085 106.665C184.98 105.66 184.785 105.015 184.5 104.715C184.11 104.22 183.39 103.905 182.325 103.74V103.275C183.96 103.395 184.935 103.455 185.295 103.455C185.73 103.455 185.94 103.26 185.94 102.84V95.355H182.22C181.815 100.26 180.435 104.085 178.065 106.815L177.6 106.575C178.245 104.985 178.74 103.095 179.07 100.92C179.415 98.715 179.61 96.87 179.655 95.355C179.715 93.825 179.745 91.785 179.745 89.22V80.295H185.67L185.655 80.31ZM182.295 94.485H185.925V88.155H182.415V89.22C182.415 91.5 182.37 93.255 182.295 94.47V94.485ZM185.925 81.165H182.415V87.27H185.925V81.165ZM204.75 90.39V91.68C204.015 95.025 202.8 97.89 201.12 100.29C202.65 101.7 204.525 102.87 206.745 103.8L206.655 104.13C205.395 104.295 204.48 105.09 203.94 106.545C202.065 105.285 200.58 103.875 199.485 102.33C198 103.875 196.29 105.165 194.355 106.215L194.085 105.825C195.78 104.505 197.235 102.81 198.48 100.755C197.07 98.295 196.125 95.13 195.615 91.29H193.935V105.93C193.935 106.035 193.845 106.14 193.665 106.26C193.5 106.395 193.23 106.53 192.84 106.65C192.48 106.77 192.075 106.83 191.655 106.83H191.19V80.31H204.42V81.555C204.375 83.49 204.255 84.93 204.06 85.86C203.88 86.775 203.535 87.42 203.055 87.78C202.365 88.275 201.33 88.515 199.935 88.515C199.935 87.72 199.755 87.165 199.38 86.835C199.02 86.49 198.165 86.205 196.845 85.98V85.515C197.115 85.53 197.505 85.56 198.03 85.605C198.585 85.62 199.065 85.65 199.47 85.695C199.905 85.71 200.19 85.725 200.325 85.725C200.715 85.725 200.97 85.65 201.12 85.515C201.405 85.245 201.585 83.79 201.645 81.15H193.95V90.375H204.795L204.75 90.39ZM201.75 91.275H196.155C196.8 94.17 197.94 96.615 199.545 98.61C200.535 96.435 201.27 93.99 201.75 91.275Z" fill="white"/>
<path d="M241.036 83.46H238.066C237.196 85.515 235.891 87.33 234.181 88.89C236.116 89.82 238.546 90.51 241.486 90.93L241.426 91.29C240.631 91.665 240.151 92.565 239.986 94.005C236.791 93.135 234.256 91.89 232.381 90.315C231.481 90.945 230.491 91.53 229.381 92.055L232.246 92.415C232.141 93.78 232.021 94.875 231.886 95.685H238.936V96.975C238.636 101.925 237.841 104.895 236.581 105.87C235.726 106.485 234.601 106.785 233.191 106.785C233.191 105.915 233.011 105.3 232.636 104.955C232.201 104.565 231.316 104.25 229.951 103.98V103.515C232.006 103.68 233.266 103.755 233.746 103.755C234.226 103.755 234.586 103.665 234.781 103.485C235.426 102.9 235.906 100.59 236.191 96.585H231.706C231.436 97.665 231.091 98.655 230.641 99.585C230.221 100.5 229.621 101.415 228.871 102.33C228.121 103.245 227.131 104.085 225.901 104.835C224.701 105.585 223.276 106.245 221.656 106.785L221.386 106.32C225.466 104.37 227.956 101.115 228.871 96.57H223.471L223.201 95.685H229.036C229.216 94.62 229.336 93.42 229.366 92.085C227.596 92.925 225.571 93.615 223.291 94.2L223.081 93.765C226.336 92.535 228.991 90.96 231.061 88.995C230.041 87.87 229.111 86.445 228.256 84.69C227.266 85.71 226.141 86.58 224.926 87.285L225.901 89.355C225.406 90.135 224.776 90.855 223.981 91.53C223.186 92.175 222.436 92.715 221.716 93.15L221.386 92.94C222.031 91.68 222.571 90.435 222.976 89.22H220.861V103.035C220.861 104.19 220.606 105.075 220.096 105.69C219.586 106.305 218.551 106.665 216.976 106.785C216.931 105.855 216.721 105.165 216.331 104.73C215.836 104.235 214.951 103.905 213.676 103.725V103.29C215.746 103.44 217.006 103.5 217.426 103.5C217.666 103.5 217.831 103.455 217.921 103.38C218.026 103.275 218.071 103.125 218.071 102.915V94.815C216.601 97.26 214.801 99.375 212.671 101.145L212.266 100.755C214.636 97.8 216.391 93.96 217.546 89.205H212.896L212.626 88.35H219.991C219.706 88.305 219.451 88.23 219.226 88.11C218.641 86.55 217.381 84.99 215.476 83.43L215.746 83.19C217.411 83.415 218.746 83.835 219.721 84.45C220.501 83.37 221.176 82.29 221.761 81.21H213.391L213.121 80.355H225.001V81.765C223.636 82.905 222.106 83.955 220.381 84.915C220.786 85.26 221.086 85.635 221.266 86.04C221.476 86.445 221.536 86.82 221.476 87.135C221.431 87.465 221.296 87.75 221.071 87.99C220.861 88.215 220.606 88.335 220.276 88.35H222.871L224.371 86.79L224.521 86.94C226.351 84.825 227.776 81.975 228.766 78.42L231.301 79.8C231.001 80.76 230.551 81.675 229.981 82.545H241.006V83.43L241.036 83.46ZM234.736 83.46H229.336C229.216 83.625 229.006 83.865 228.721 84.195C229.681 85.62 230.851 86.82 232.231 87.765C233.371 86.4 234.211 84.96 234.736 83.46Z" fill="white"/>
<path d="M118.47 124.755V125.97C116.805 131.85 113.34 136.005 108.09 138.435L107.82 138.045C109.83 136.62 111.48 134.835 112.77 132.705C114.06 130.545 114.975 128.19 115.545 125.655H108.795L108.525 124.77H118.485L118.47 124.755ZM131.55 119.745L133.905 122.01C131.67 124.08 129.15 125.85 126.36 127.29C128.565 130.89 132 133.59 136.68 135.39L136.59 135.72C135.975 135.84 135.465 136.14 135.03 136.605C134.595 137.07 134.295 137.67 134.115 138.375C132.345 137.28 130.83 136.08 129.6 134.805C128.355 133.5 127.23 131.835 126.21 129.795C125.205 127.74 124.425 125.325 123.855 122.55V137.115C123.855 138.27 123.585 139.14 123.03 139.71C122.505 140.28 121.365 140.64 119.61 140.805C119.46 139.77 119.19 139.065 118.785 138.69C118.2 138.195 117.195 137.85 115.785 137.655V137.19C118.215 137.37 119.67 137.46 120.18 137.46C120.69 137.46 120.915 137.22 120.915 136.755V120.315H113.31L113.04 119.43H123.855V120.81C124.365 123.075 125.085 125.025 126.03 126.675C127.095 125.61 128.145 124.44 129.18 123.135C130.215 121.815 131.01 120.675 131.565 119.715L131.55 119.745ZM116.79 112.995L116.91 112.56C121.2 112.605 124.095 113.415 125.58 115.005C126.33 115.815 126.525 116.58 126.165 117.3C125.88 117.915 125.355 118.14 124.605 118.005C124.485 117.96 124.365 117.93 124.245 117.885C123.615 117.09 122.64 116.235 121.305 115.32C119.985 114.405 118.47 113.625 116.79 112.995Z" fill="white"/>
<path d="M162.346 117.795V119.325C162.046 120.615 161.656 121.995 161.191 123.48C162.166 130.125 165.706 134.85 171.796 137.655L171.766 138.015C170.266 138.255 169.366 139.2 169.081 140.85C164.416 137.85 161.641 132.465 160.741 124.695C159.241 128.61 157.081 131.925 154.261 134.655C151.456 137.385 147.661 139.47 142.891 140.91L142.621 140.475C151.516 136.485 157.021 129.21 159.121 118.665H152.821C150.601 123.51 147.526 127.185 143.596 129.69L143.266 129.42C145.096 127.425 146.731 124.935 148.186 121.965C149.626 118.965 150.676 115.77 151.336 112.38L154.516 113.64C154.156 115.245 153.706 116.64 153.196 117.795H162.361H162.346Z" fill="white"/>
<path d="M184.125 120.63V139.935C184.11 140.07 183.825 140.265 183.3 140.49C182.79 140.715 182.295 140.82 181.8 140.82H181.275V124.44C180.06 125.985 178.845 127.275 177.645 128.325L177.255 128.055C178.545 126.12 179.745 123.75 180.885 120.96C182.04 118.155 182.94 115.305 183.57 112.44L186.57 113.76C185.775 116.445 184.965 118.74 184.125 120.63ZM206.055 128.385H197.505C198.465 130.02 199.77 131.505 201.42 132.84C203.07 134.19 204.765 135.21 206.52 135.93L206.46 136.26C205.305 136.485 204.51 137.325 204.105 138.765C201.045 136.56 198.735 133.35 197.175 129.135V139.98C197.175 140.055 197.085 140.16 196.905 140.28C196.725 140.415 196.44 140.55 196.05 140.67C195.66 140.79 195.24 140.85 194.79 140.85H194.295V131.865C192.15 134.76 189.15 137.16 185.28 139.08L184.98 138.69C186.69 137.4 188.22 135.855 189.555 134.04C190.92 132.225 192 130.335 192.795 128.355H185.46L185.22 127.47H194.295V123.195H191.205V124.26C191.205 124.425 190.935 124.62 190.38 124.845C189.825 125.07 189.285 125.175 188.73 125.175H188.34V114.45H203.25V123.795C203.235 123.915 202.935 124.08 202.365 124.29C201.795 124.47 201.285 124.56 200.835 124.56H200.34V123.18H197.16V127.455H206.055V128.34V128.385ZM191.205 115.365V122.325H200.34V115.365H191.205Z" fill="white"/>
<path d="M217.395 112.47L220.14 113.715C219.42 116.49 218.775 118.86 218.19 120.87V140.055C218.175 140.175 217.92 140.34 217.425 140.55C216.96 140.76 216.495 140.85 216.015 140.85H215.52V124.695C214.545 126.225 213.585 127.47 212.655 128.415L212.22 128.175C213.285 126.165 214.275 123.75 215.22 120.93C216.15 118.125 216.885 115.305 217.395 112.47ZM222.87 117.45V136.425C222.87 136.59 222.63 136.785 222.165 137.01C221.715 137.22 221.265 137.31 220.785 137.31H220.29V117.09L222.855 117.45H222.87ZM222.315 140.85L222.195 140.355C225.555 139.485 228.48 138.345 230.97 136.935C233.46 135.525 235.635 133.62 237.51 131.19L239.715 133.2C237.345 135.585 234.78 137.34 231.99 138.45C229.215 139.59 226.005 140.385 222.33 140.835L222.315 140.85ZM240.855 117.36H237.195C236.355 119.13 235.11 120.765 233.445 122.25C235.5 123.225 238.08 123.9 241.17 124.26L241.14 124.59C240.075 124.98 239.46 125.82 239.28 127.125C236.1 126.39 233.58 125.205 231.705 123.555C229.485 125.055 226.74 126.24 223.455 127.095L223.275 126.705C226.17 125.55 228.555 124.065 230.43 122.28C229.56 121.275 228.735 120.015 227.955 118.485C226.635 120.12 225.18 121.425 223.59 122.4L223.2 122.1C225.345 119.58 226.95 116.355 228.03 112.44L230.595 113.82C230.235 114.915 229.83 115.8 229.41 116.475H240.9V117.36H240.855ZM231.87 125.28L234.9 127.23C234.66 127.47 234.285 127.53 233.775 127.41C231.165 129.105 228.045 130.41 224.43 131.325L224.13 130.8C227.145 129.39 229.725 127.56 231.885 125.265L231.87 125.28ZM224.355 135.915L224.115 135.39C228.48 133.59 232.05 131.175 234.84 128.115L237.93 130.095C237.705 130.38 237.3 130.455 236.715 130.305C233.295 132.87 229.185 134.73 224.37 135.9L224.355 135.915ZM233.79 117.375H228.78C228.705 117.525 228.555 117.705 228.345 117.96C229.14 119.175 230.175 120.24 231.465 121.14C232.455 120 233.235 118.74 233.79 117.375Z" fill="white"/>
</svg>
