<svg width="303" height="14" viewBox="0 0 303 14" fill="none" xmlns="http://www.w3.org/2000/svg">
<path d="M4.42493 9.08997C4.91993 9.41997 6.405 10.545 6.75 10.86L5.93994 11.88C5.62494 11.535 4.98 10.92 4.41 10.395V13.935H3.04495V10.515C2.39995 11.475 1.64999 12.345 0.929993 12.9C0.704993 12.585 0.285 12.135 0 11.91C1.02 11.22 2.13001 9.98997 2.82001 8.77497H0.344971V7.57497H3.04495V6.25497H0.164978V5.08497H1.81494C1.72494 4.48497 1.50001 3.70497 1.23001 3.08997L2.20496 2.80497H0.449982V1.63497H3.02994V0.0299683L4.73996 0.134969C4.73996 0.254969 4.63499 0.344968 4.39499 0.374968V1.63497H7.035V2.80497H5.32498L6.53998 3.14997C6.50998 3.25497 6.39001 3.29997 6.19501 3.31497C6.01501 3.82497 5.70001 4.52997 5.44501 5.08497H7.34995V6.25497H4.66498C4.66498 6.25497 4.52999 6.32997 4.39499 6.35997V7.57497H7.125V8.77497H4.39499V9.08997H4.42493ZM4.28998 4.99497C4.54498 4.39497 4.87498 3.47997 5.03998 2.80497H2.35501C2.68501 3.49497 2.93992 4.39497 3.01492 4.97997L2.68497 5.08497H4.57498L4.30499 4.99497H4.28998ZM14.055 5.05497V6.35997H12.465V13.95H11.0999V6.35997H9.20993C9.20993 8.06997 9.165 11.655 6.84 13.98C6.66 13.665 6.14993 13.17 5.83493 13.005C7.67993 11.16 7.875 8.63997 7.875 6.56997V1.42497L8.68497 1.66497C10.155 1.22997 11.67 0.629968 12.57 0.0599682L13.92 1.07997C13.92 1.07997 13.71 1.18497 13.545 1.15497C12.48 1.70997 10.7999 2.27997 9.20993 2.71497V5.05497H14.055Z" fill="white"/>
<path d="M20.115 9.765L21.975 9.255C21.975 9.255 22.005 9.375 22.155 10.455C20.4 11.01 18.5401 11.565 17.3551 11.895C17.3551 12.03 17.2351 12.12 17.1451 12.15L16.665 10.65C17.25 10.515 17.9551 10.335 18.7501 10.125V6.495H17.025V5.205H18.7501V2.205H16.89V0.899997H21.915V2.205H20.115V5.205H21.78V6.495H20.115V9.75V9.765ZM26.85 12.21H30.81V13.5H21.2851V12.21H25.53V10.26H22.245V9H25.53V7.5H22.3051V0.809998H30.1951V7.515H26.835V9.015H30.345V10.275H26.835V12.225L26.85 12.21ZM23.58 2.025V3.585H25.545V2.025H23.58ZM23.58 6.285H25.545V4.71H23.58V6.285ZM28.89 3.585V2.025H26.85V3.585H28.89ZM28.89 6.285V4.71H26.85V6.285H28.89Z" fill="white"/>
<path d="M36.285 8.92498V5.36998C35.685 6.44998 34.965 7.43998 34.215 8.06998C34.005 7.75498 33.5699 7.31998 33.2999 7.07998C34.3499 6.32998 35.43 4.85998 36.06 3.41998H33.66V2.21998H36.285V0.0449829L37.965 0.149983C37.965 0.269983 37.8599 0.344983 37.6199 0.389983V2.21998H39.8699V3.41998H37.6199V4.15498C38.2049 4.51498 39.705 5.59498 40.08 5.89498L39.33 7.03498C38.97 6.64498 38.2499 5.99998 37.6199 5.45998V8.92498H36.285ZM36.66 10.215C36.255 11.4 35.6399 12.69 34.6349 13.515L33.48 12.69C34.395 12 35.07 10.83 35.43 9.74998L36.66 10.23V10.215ZM38.8499 12.105C38.8499 12.51 38.985 12.57 39.72 12.57H42.1349C42.7349 12.57 42.8249 12.405 42.8849 11.19C43.1849 11.415 43.755 11.61 44.145 11.7C43.965 13.425 43.56 13.845 42.24 13.845H39.57C37.86 13.845 37.4399 13.455 37.4399 12.135V9.89998L39.195 10.005C39.165 10.125 39.0749 10.215 38.8349 10.245V12.12L38.8499 12.105ZM41.205 11.505C40.725 10.845 39.69 9.94498 38.775 9.32998L39.705 8.59498C40.605 9.16498 41.685 10.02 42.195 10.695L41.205 11.49V11.505ZM46.5149 0.794983V8.74498H40.5299V0.794983H46.5149ZM45.165 3.10498V1.93498H41.82V3.10498H45.165ZM45.165 5.35498V4.18498H41.82V5.35498H45.165ZM45.165 7.61998V6.41998H41.82V7.61998H45.165ZM46.29 13.56C45.81 12.615 44.61 11.25 43.485 10.305L44.61 9.59998C45.735 10.5 46.98 11.79 47.52 12.78L46.29 13.56Z" fill="white"/>
<path d="M52.3049 7.91997C51.8249 8.44497 51.3599 8.92497 50.8799 9.34497C50.6849 9.04497 50.2499 8.47497 49.9949 8.20497C51.4199 7.06497 53.0399 5.09997 54.0299 3.23997L55.6049 3.89997C55.5449 4.00497 55.4099 4.06497 55.2149 4.03497C54.7949 4.73997 54.3149 5.45997 53.7749 6.16497L54.0749 6.25497C54.0449 6.37497 53.9399 6.47997 53.7149 6.49497V13.935H52.3049V7.93497V7.91997ZM55.0049 0.689968C54.9449 0.794968 54.8249 0.839968 54.6299 0.824968C53.7149 1.91997 52.1699 3.40497 50.7749 4.36497C50.5949 4.04997 50.2199 3.50997 49.9949 3.23997C51.2249 2.42997 52.6799 1.09497 53.4299 0.0299683L55.0049 0.704968V0.689968ZM63.9449 5.23497V6.56997H61.6799V12.24C61.6799 13.755 61.0499 13.935 58.0499 13.905C57.9899 13.5 57.7949 12.915 57.5999 12.51C58.1849 12.51 58.7549 12.54 59.1899 12.54C60.1199 12.54 60.2249 12.54 60.2249 12.225V6.56997H55.4399V5.23497H63.9299H63.9449ZM63.3599 0.929968V2.27997H56.0099V0.929968H63.3599Z" fill="white"/>
<path d="M70.455 11.34L72.7501 10.98L72.825 12.15C70.815 12.54 68.7301 12.915 67.3951 13.125C67.3951 13.26 67.275 13.335 67.155 13.365L66.72 11.865C67.41 11.775 68.2651 11.655 69.1951 11.52V7.57497H66.9301V6.37497H69.1951V4.97997H67.74V4.72497L67.47 5.00997C67.245 4.70997 66.81 4.27497 66.51 4.09497C67.785 2.84997 68.7451 1.25997 69.2851 0.0299683L70.8751 0.284968C70.8451 0.419968 70.74 0.494968 70.545 0.494968V0.539968C71.415 1.22997 72.465 2.11497 72.99 2.74497C72.63 3.20997 72.42 3.52497 72.21 3.86997C71.73 3.25497 70.7851 2.36997 69.9451 1.66497C69.5401 2.35497 69.0901 3.08997 68.5201 3.80997H72.075V4.99497H70.47V6.38997H72.615V7.58997H70.47V11.355L70.455 11.34ZM67.7851 11.13C67.7101 10.38 67.455 9.28497 67.17 8.42997L68.115 8.17497C68.43 8.99997 68.7 10.125 68.775 10.83L67.7851 11.13ZM72.765 8.50497C72.705 8.59497 72.585 8.63997 72.42 8.63997C72.225 9.31497 71.8951 10.305 71.6251 10.935L70.755 10.62C71.01 9.91497 71.325 8.81997 71.46 8.06997L72.765 8.50497ZM75.5551 1.33497C75.5251 1.43997 75.405 1.49997 75.225 1.48497C74.835 2.62497 74.19 3.89997 73.485 4.73997C73.23 4.52997 72.75 4.19997 72.45 4.04997C73.11 3.29997 73.695 2.06997 74.04 0.884969L75.5551 1.33497ZM79.905 4.79997V12.36C79.905 13.77 79.29 13.92 77.175 13.92C77.115 13.53 76.92 12.945 76.725 12.57C77.115 12.57 77.5201 12.6 77.8051 12.6C78.4501 12.6 78.5551 12.6 78.5551 12.33V10.995H74.7301V13.92H73.38V4.78497H75.885V0.0299683L77.595 0.119968C77.595 0.254968 77.4901 0.329968 77.2501 0.374968V4.79997H79.905ZM78.5551 6.04497H74.7301V7.31997H78.5551V6.04497ZM74.7301 9.80997H78.5551V8.50497H74.7301V9.80997ZM78.8401 0.824968C79.5901 1.75497 80.445 3.07497 80.775 3.91497L79.575 4.57497C79.26 3.71997 78.4651 2.36997 77.7301 1.39497L78.8401 0.824968Z" fill="white"/>
<path d="M83.955 0.585022H96.66V13.92H95.295V13.35H85.29V13.92H83.97V0.585022H83.955ZM85.275 12.18H95.2799V1.75502H85.275V12.18ZM92.73 8.37002C92.7 8.49002 92.64 8.55002 92.415 8.59502V9.01502H94.59V9.81002H92.415V10.725C92.415 11.58 92.115 11.76 90.24 11.73C90.15 11.46 89.97 11.1 89.82 10.875C90.36 10.89 90.87 10.89 91.02 10.89C91.17 10.89 91.23 10.845 91.23 10.695V9.81002H88.275C88.725 10.2 89.19 10.71 89.43 11.085L88.485 11.61C88.245 11.19 87.735 10.59 87.255 10.17L87.945 9.81002H85.92V9.01502H91.23V8.35502C89.4 8.41502 87.6749 8.46002 86.4599 8.47502C86.4299 8.58002 86.34 8.64002 86.25 8.65502L85.95 7.69502C86.925 7.69502 88.2 7.69502 89.61 7.66502V7.05002H86.67V4.03502H89.61V3.51002H85.9949V2.71502H89.61V2.01002L91.095 2.11502C91.095 2.22002 91.0049 2.29502 90.7799 2.34002V2.71502H94.47V3.51002H90.7799V4.03502H93.825V7.05002H93.09C93.735 7.44002 94.38 7.89002 94.74 8.25002L93.93 8.79002C93.78 8.64002 93.585 8.46002 93.36 8.28002C92.895 8.28002 92.43 8.31002 91.965 8.31002L92.715 8.37002H92.73ZM87.7799 4.66502V5.22002H89.625V4.66502H87.7799ZM87.7799 6.40502H89.625V5.83502H87.7799V6.40502ZM92.7 4.66502H90.795V5.22002H92.7V4.66502ZM90.795 6.40502H92.7V5.83502H90.795V6.40502ZM90.795 7.05002V7.66502L92.49 7.63502C92.25 7.48502 92.0249 7.35002 91.8149 7.23002L92.13 7.05002H90.795Z" fill="white"/>
<path d="M110.415 4.11001C110.58 5.05501 110.79 5.98501 111.06 6.84001C111.675 6.25501 112.32 5.58001 112.74 5.02501L113.955 5.97001C113.955 5.97001 113.745 6.07501 113.58 6.04501C113.04 6.60001 112.17 7.35001 111.435 7.92001C112.05 9.40501 112.875 10.62 114 11.37C113.685 11.61 113.265 12.12 113.07 12.465C111 10.89 109.935 7.95001 109.365 4.41001C108.99 4.78501 108.555 5.16001 108.105 5.50501C109.845 7.00501 110.535 9.19501 110.535 10.905C110.535 11.955 110.265 12.84 109.845 13.26C109.32 13.875 108.81 13.92 107.955 13.92C107.745 13.92 107.535 13.92 107.325 13.89C107.325 13.53 107.22 12.99 106.995 12.615C107.4 12.66 107.76 12.675 108.03 12.675C108.345 12.675 108.585 12.63 108.78 12.33C109.035 12.06 109.17 11.505 109.17 10.785C109.17 10.515 109.17 10.215 109.11 9.93001C107.895 11.175 106.2 12.39 104.73 13.095C104.535 12.765 104.175 12.345 103.875 12.09C105.615 11.415 107.64 10.005 108.78 8.64001C108.675 8.34001 108.54 8.04001 108.375 7.77001C107.52 8.53501 106.38 9.33001 105.495 9.85501C105.36 9.64501 105.165 9.34501 104.955 9.10501C104.625 10.53 103.455 10.485 102.525 10.44C102.525 10.095 102.375 9.58501 102.21 9.27001C102.51 9.27001 102.81 9.27001 103.02 9.27001C103.455 9.27001 103.77 9.07501 103.77 8.13001C103.77 7.38001 103.41 6.43501 102.405 5.34001C102.795 4.30501 103.17 2.95501 103.44 1.92001H101.82V13.935H100.575V0.660015H104.01L104.22 0.615014L105.135 1.09501C105.135 1.09501 105.06 1.26001 105 1.29001C104.655 2.44501 104.13 3.99001 103.65 5.19001C104.685 6.36001 105.06 7.35001 105.06 8.26501C105.06 8.43001 105.06 8.59501 105.03 8.74501C105.945 8.29501 107.055 7.57501 107.805 6.90001C107.61 6.64501 107.385 6.40501 107.145 6.18001C106.53 6.58501 105.915 6.94501 105.3 7.21501C105.12 6.97501 104.745 6.49501 104.505 6.28501C105.69 5.77501 106.98 4.99501 107.97 4.09501H104.85V2.88001H106.89C106.68 2.20501 106.26 1.29001 105.825 0.600015L106.95 0.150015C107.475 0.885015 107.94 1.87501 108.12 2.53501L107.37 2.86501H110.745L110.055 2.58001C110.52 1.89001 111.09 0.795015 111.39 0.0150146L112.98 0.585014C112.92 0.690014 112.8 0.735014 112.605 0.735014C112.275 1.38001 111.765 2.23501 111.3 2.88001H113.715V4.09501H110.4L110.415 4.11001Z" fill="white"/>
<path d="M116.64 7.5H120.72V8.73H116.64V7.5Z" fill="white"/>
<path d="M124.23 4.18498C125.13 4.52998 126.27 5.12998 126.825 5.62498L126 6.76498C125.46 6.26998 124.35 5.60998 123.45 5.20498L124.245 4.18498H124.23ZM123.735 12.96C124.425 11.775 125.4 9.80998 126.105 8.05498L127.215 8.84998C126.57 10.455 125.76 12.225 125.115 13.38C125.19 13.47 125.22 13.575 125.22 13.65C125.22 13.725 125.22 13.785 125.175 13.83L123.72 12.96H123.735ZM137.37 1.91998H131.85L131.49 3.77998H133.215C133.215 4.87498 133.185 7.10998 133.155 8.08498L133.5 7.70998C134.16 8.03998 134.94 8.53498 135.48 8.96998V6.10498C135.48 6.10498 135.405 6.10498 135.36 6.10498C135.015 6.49498 134.385 7.07998 133.935 7.43998L133.215 6.76498C133.65 6.34498 134.25 5.60998 134.595 5.11498L135.465 5.83498V3.59998L137.085 3.68998C137.085 3.80998 136.98 3.88498 136.755 3.92998V13.905H135.465V13.245H128.925V13.935H127.65V3.59998L129.255 3.68998C129.255 3.80998 129.15 3.88498 128.925 3.92998V9.10498C129.585 8.77498 130.44 8.29498 131.37 7.78498L131.715 8.75998C130.965 9.23998 130.23 9.71998 129.705 10.035C129.705 10.155 129.66 10.26 129.57 10.32L128.91 9.19498V12.045H135.45V9.61498L134.985 10.155C134.58 9.73498 133.815 9.17998 133.11 8.72998C132.99 11.475 132.87 11.625 130.65 11.565C130.62 11.235 130.515 10.785 130.35 10.5C130.815 10.545 131.175 10.545 131.37 10.545C131.55 10.545 131.655 10.5 131.745 10.35C131.925 10.05 131.985 8.74498 132.015 4.93498H131.22L131.115 5.33998C130.575 5.21998 130.245 5.17498 129.9 5.12998C130.125 4.28998 130.395 3.04498 130.575 1.94998H127.245L126.57 2.83498C126.03 2.29498 124.935 1.60498 124.035 1.16998L124.83 0.164978C125.625 0.509978 126.57 1.01998 127.17 1.49998V0.659978H137.34V1.94998L137.37 1.91998ZM129.975 5.38498C130.515 5.84998 131.1 6.49498 131.355 6.95998L130.485 7.63498C130.23 7.15498 129.645 6.47998 129.135 5.98498L129.975 5.38498Z" fill="white"/>
<path d="M153.9 10.245H148.545C149.565 11.7 151.41 12.435 154.17 12.645C153.855 12.96 153.48 13.545 153.3 13.95C150.09 13.545 148.17 12.45 147.045 10.26C146.295 12.045 144.75 13.26 140.79 13.92C140.67 13.545 140.34 12.975 140.1 12.66C143.28 12.225 144.75 11.445 145.47 10.245H140.295V9.01501H145.95C146.04 8.64001 146.115 8.23501 146.16 7.81501H140.34V6.55501H146.31V5.52001H141.855V4.32001H146.31V3.31501H141.03V2.07001H144C143.76 1.56001 143.37 0.975015 142.995 0.525015L144.18 0.0450146C144.72 0.585015 145.2 1.32001 145.41 1.86001L144.945 2.07001H148.875L148.5 1.92001C148.92 1.39501 149.43 0.600015 149.715 0.0150146L151.365 0.615014C151.32 0.720014 151.2 0.750015 151.005 0.750015C150.735 1.14001 150.315 1.63501 149.94 2.07001H153.105V3.31501H147.735V4.32001H152.325V5.52001H147.735V6.55501H153.765V7.81501H147.93C147.885 7.92001 147.765 7.99501 147.585 8.01001C147.525 8.37001 147.465 8.70001 147.39 9.01501H153.855V10.245H153.9Z" fill="white"/>
<path d="M170.28 9.91499V11.055H164.4V12.54C164.4 13.8 163.86 13.935 161.22 13.935C161.145 13.56 160.95 13.08 160.755 12.735C161.595 12.765 162.48 12.765 162.705 12.765C162.96 12.765 163.02 12.69 163.02 12.51V11.055H157.17V9.91499H163.02V9.135L163.845 9.16499C164.325 8.93999 164.79 8.63999 165.225 8.35499H159.81V7.335H166.62L166.83 7.26L167.865 7.935C167.805 8.025 167.685 8.07 167.55 8.085C166.77 8.685 165.585 9.405 164.475 9.945H170.28V9.91499ZM158.61 6.45V8.29499H157.275V5.4H158.445L158.16 0.674995L159.075 0.884995C159.78 0.659995 160.545 0.344995 161.055 0.119995L161.88 1.01999C161.88 1.01999 161.76 1.095 161.685 1.095C161.64 1.095 161.595 1.095 161.55 1.065C161.04 1.245 160.215 1.485 159.525 1.665L159.555 2.17499H161.67V3.07499H159.6L159.645 3.78H161.73V4.695H159.69L159.735 5.4H167.7L167.775 4.695H165.735V3.78H167.85L167.91 3.07499H165.795V2.17499H167.97L168 1.47H165.735V0.554995H169.38C169.305 2.1 169.17 4.035 169.035 5.4H170.19V8.29499H168.795V6.45H158.595H158.61ZM165.465 0.539995C165.435 0.629995 165.33 0.674995 165.165 0.659995C164.985 0.884995 164.76 1.11 164.505 1.32C164.82 1.545 165.09 1.75499 165.285 1.94999L164.58 2.57999C164.385 2.38499 164.1 2.145 163.785 1.905C163.35 2.22 162.885 2.505 162.435 2.715C162.285 2.535 161.94 2.235 161.745 2.085C162.18 1.89 162.6 1.64999 163.02 1.365C162.705 1.17 162.405 0.974995 162.12 0.824995L162.795 0.254995C163.11 0.404995 163.44 0.584995 163.74 0.779995C163.98 0.569995 164.19 0.344995 164.37 0.119995L165.48 0.524995L165.465 0.539995ZM165.615 3.03C165.57 3.135 165.45 3.18 165.3 3.165C165.105 3.405 164.865 3.645 164.595 3.885C164.925 4.125 165.225 4.36499 165.42 4.57499L164.7 5.22C164.49 4.995 164.19 4.73999 163.86 4.48499C163.395 4.81499 162.915 5.13 162.45 5.34C162.285 5.16 161.955 4.86 161.73 4.695C162.18 4.5 162.63 4.23 163.065 3.915C162.765 3.72 162.45 3.54 162.165 3.375L162.855 2.805C163.155 2.955 163.485 3.135 163.785 3.345C164.04 3.105 164.28 2.86499 164.46 2.60999L165.6 3.01499L165.615 3.03Z" fill="white"/>
<path d="M175.905 2.44498V5.68498C175.905 8.06998 175.695 11.625 174.375 13.935C174.15 13.695 173.58 13.275 173.265 13.155C174.48 10.995 174.585 7.90498 174.585 5.69998V1.25998H180.075V0.0449829L181.89 0.149983C181.89 0.284983 181.785 0.359983 181.545 0.404983V1.25998H187.125V2.45998H175.89L175.905 2.44498ZM180.795 12.615C180.795 12.615 180.645 12.705 180.51 12.72C179.655 13.17 178.005 13.695 176.7 13.95C176.505 13.695 176.1 13.29 175.845 13.065C177.15 12.81 178.8 12.3 179.64 11.85L180.795 12.63V12.615ZM187.17 7.34998H182.13V7.99498H185.94V11.775H177.165V7.99498H180.825V7.34998H176.355V6.40498H187.185V7.34998H187.17ZM178.635 2.47498L180.315 2.57998C180.3 2.69998 180.195 2.78998 179.955 2.83498V3.35998H183.075V2.48998L184.815 2.59498C184.815 2.71498 184.695 2.80498 184.47 2.84998V3.37498H187.05V4.25998H184.47V5.86498H178.635V4.25998H176.505V3.37498H178.635V2.50498V2.47498ZM178.455 8.72998V9.50998H180.81V8.72998H178.455ZM178.455 10.23V11.025H180.81V10.23H178.455ZM183.075 4.24498H179.955V5.02498H183.075V4.24498ZM184.59 8.72998H182.145V9.50998H184.59V8.72998ZM184.59 11.025V10.23H182.145V11.025H184.59ZM185.955 13.95C185.145 13.575 183.72 13.065 182.31 12.66L183.255 11.88C184.665 12.27 186.285 12.765 187.23 13.155L185.94 13.965L185.955 13.95Z" fill="white"/>
<path d="M197.715 5.62501H203.76V6.93001H190.275V5.62501H196.275V3.40501H193.335C192.96 4.18501 192.54 4.90501 192.12 5.47501C191.82 5.25001 191.265 4.93501 190.905 4.75501C191.76 3.69001 192.585 1.84501 193.035 0.105015L194.745 0.585014C194.7 0.690014 194.565 0.750015 194.37 0.750015C194.235 1.20001 194.07 1.65001 193.89 2.11501H196.275V0.0150146L198.075 0.120015C198.075 0.240015 197.955 0.330015 197.715 0.375015V2.11501H202.56V3.40501H197.715V5.62501ZM192.405 13.95V8.14501H201.705V13.92H200.235V13.365H193.815V13.95H192.405ZM200.235 9.45001H193.815V12.06H200.235V9.45001Z" fill="white"/>
<path d="M214.89 2.37001C214.89 3.72001 214.575 5.38501 213.015 6.46501C212.82 6.22501 212.325 5.77501 212.025 5.59501V12.345C212.025 13.77 211.425 13.965 209.445 13.935C209.415 13.575 209.235 12.945 209.04 12.585C209.37 12.585 209.67 12.585 209.91 12.585C210.645 12.585 210.72 12.585 210.72 12.3V8.82001H208.83C208.695 10.635 208.395 12.54 207.735 13.95C207.48 13.74 206.925 13.41 206.595 13.29C207.57 11.19 207.645 8.17501 207.645 5.97001V0.555009H212.025V5.50501C213.345 4.60501 213.54 3.36001 213.54 2.32501V0.51001H218.46V4.21501C218.46 4.59001 218.49 4.63501 218.685 4.63501H219.24C219.465 4.63501 219.525 4.42501 219.555 2.98501C219.825 3.19501 220.35 3.42001 220.725 3.49501C220.605 5.35501 220.275 5.83501 219.405 5.83501H218.475C217.455 5.83501 217.14 5.47501 217.14 4.23001V1.83001H214.92V2.38501L214.89 2.37001ZM208.92 5.98501C208.92 6.46501 208.92 6.96001 208.89 7.50001H210.72V5.31001H208.92V5.98501ZM210.72 1.87501H208.92V4.02001H210.72V1.87501ZM218.925 6.54001L219.84 6.93001C219.81 7.03501 219.735 7.08001 219.675 7.14001C219.195 8.76001 218.385 10.095 217.35 11.175C218.34 11.88 219.495 12.42 220.755 12.765C220.425 13.05 220.005 13.605 219.795 13.98C218.49 13.56 217.32 12.93 216.3 12.12C215.265 12.93 214.065 13.545 212.805 13.98C212.64 13.62 212.295 13.05 212.01 12.75C213.165 12.42 214.29 11.895 215.25 11.175C214.44 10.35 213.765 9.37501 213.24 8.31001L214.35 7.90501H212.73V6.60001H218.655L218.91 6.54001H218.925ZM214.56 7.90501C214.98 8.77501 215.565 9.58501 216.285 10.275C216.975 9.58501 217.53 8.79001 217.935 7.90501H214.56Z" fill="white"/>
<path d="M227.055 4.25998C227.025 4.37998 226.92 4.48498 226.695 4.49998V13.95H225.315V6.40498C224.91 7.07998 224.505 7.69498 224.085 8.24998C223.89 7.93498 223.47 7.33498 223.215 7.04998C224.505 5.44498 225.765 2.68498 226.53 0.0449829L228.21 0.554983C228.15 0.659983 228.015 0.734983 227.82 0.719983C227.445 1.85998 226.995 3.02998 226.485 4.13998L227.07 4.28998L227.055 4.25998ZM234.525 0.434983C234.93 2.65498 235.98 4.69498 237.465 5.74498C237.15 6.01498 236.67 6.56998 236.43 6.92998C236.115 6.67498 235.83 6.38998 235.575 6.07498C235.575 6.20998 235.575 6.38998 235.56 6.53998C235.44 11.145 235.305 12.795 234.9 13.335C234.615 13.71 234.315 13.845 233.895 13.905C233.67 13.935 233.34 13.95 232.995 13.95C232.74 13.95 232.455 13.95 232.185 13.935C232.155 13.515 232.005 12.93 231.78 12.54C232.395 12.6 232.935 12.6 233.19 12.6C233.43 12.6 233.55 12.57 233.685 12.405C233.925 12.09 234.06 10.8 234.15 7.33498H231.84C231.6 9.85498 230.865 12.39 228.21 13.95C228.06 13.62 227.67 13.14 227.385 12.885C229.65 11.685 230.25 9.61498 230.46 7.34998H228.585V6.17998C228.345 6.47998 228.09 6.76498 227.85 7.00498C227.67 6.71998 227.265 6.22498 227.025 5.99998C228.105 4.93498 228.99 3.19498 229.395 1.79998L231 2.26498C230.955 2.36998 230.835 2.42998 230.64 2.42998C230.22 3.53998 229.545 4.93498 228.66 6.08998H234.825L235.59 6.11998C234.6 4.94998 233.85 3.38998 233.43 1.73998H230.295V0.494983H234.54L234.525 0.434983Z" fill="white"/>
<path d="M253.56 3.255H245.565C245.355 3.765 245.115 4.245 244.845 4.74H251.7V12.24C251.7 13.815 250.965 13.905 248.325 13.905C248.28 13.5 248.07 12.9 247.875 12.51C248.325 12.51 248.76 12.54 249.135 12.54C250.215 12.54 250.275 12.54 250.275 12.225V10.98H244.71V13.92H243.285V7.14C242.595 7.995 241.83 8.79 240.945 9.45C240.72 9.135 240.24 8.625 239.97 8.34C241.725 7.11 243.045 5.25 243.96 3.255H240.315V1.905H244.515C244.755 1.26 244.95 0.63 245.115 0L246.885 0.45C246.855 0.585 246.72 0.66 246.51 0.645C246.39 1.065 246.24 1.47 246.09 1.905H253.545V3.255H253.56ZM250.29 7.275V5.97H244.725V7.275H250.29ZM244.725 9.78H250.29V8.46H244.725V9.78Z" fill="white"/>
<path d="M261.195 0.61499L262.11 1.12499C262.11 1.12499 262.035 1.27499 261.975 1.31999C261.585 2.48999 261.03 4.04999 260.505 5.24999C261.645 6.43499 262.035 7.40999 262.035 8.33999C262.035 10.68 260.505 10.62 259.32 10.59C259.32 10.23 259.17 9.70499 258.99 9.35999C259.215 9.38999 259.425 9.40499 259.605 9.40499C260.355 9.40499 260.715 9.23999 260.715 8.23499C260.715 7.45499 260.31 6.52499 259.23 5.42999C259.65 4.39499 260.055 3.01499 260.37 1.94999H258.555V13.935H257.235V0.659991H260.97L261.195 0.61499ZM266.67 7.51499C266.865 8.18999 267.105 8.83499 267.39 9.41999C268.005 8.87999 268.635 8.24999 269.055 7.73999L270.315 8.68499C270.315 8.68499 270.105 8.78999 269.94 8.75999C269.445 9.25499 268.65 9.91499 267.96 10.44C268.635 11.43 269.49 12.225 270.57 12.705C270.255 12.975 269.835 13.515 269.64 13.875C267.435 12.735 266.145 10.44 265.455 7.51499H264.06V11.775C264.855 11.625 265.695 11.46 266.52 11.295L266.64 12.525C264.855 12.945 262.995 13.35 261.825 13.605C261.795 13.74 261.705 13.83 261.6 13.845L261.03 12.33C261.51 12.24 262.05 12.15 262.68 12.03V0.689991H269.535V7.52999H266.67V7.51499ZM268.155 1.91999H264.06V3.47999H268.155V1.91999ZM264.06 4.64999V6.29999H268.155V4.64999H264.06Z" fill="white"/>
<path d="M279.135 1.01998C279.06 1.15498 278.895 1.19998 278.73 1.18498C277.77 3.35998 276.27 5.57998 274.71 7.00498C274.41 6.71998 273.84 6.23998 273.465 6.02998C274.98 4.76998 276.465 2.57998 277.305 0.434983L279.135 1.03498V1.01998ZM280.755 5.99998C280.695 6.13498 280.545 6.20998 280.32 6.22498C279.645 7.90498 278.64 10.035 277.695 11.73C279.57 11.67 281.67 11.595 283.755 11.52C283.11 10.575 282.405 9.58498 281.73 8.75998L283.08 8.12998C284.43 9.73498 285.915 11.835 286.665 13.23L285.225 13.995C285.045 13.635 284.82 13.23 284.55 12.78C280.935 13.005 277.2 13.185 274.77 13.29C274.74 13.425 274.635 13.5 274.5 13.515L273.93 11.835C274.56 11.835 275.265 11.805 276.075 11.775C277.08 9.95998 278.22 7.40998 278.835 5.47498L280.74 5.99998H280.755ZM282.96 0.434983C283.905 2.30998 285.705 4.55998 287.085 5.81998C286.71 6.10498 286.185 6.64498 285.9 7.03498C284.505 5.56498 282.69 3.10498 281.565 1.00498L282.96 0.419983V0.434983Z" fill="white"/>
<path d="M302.655 0.960022V12.09C302.655 13.77 302.01 13.965 299.055 13.965C298.995 13.53 298.785 12.84 298.56 12.42C299.175 12.45 299.805 12.465 300.255 12.465C301.08 12.465 301.2 12.465 301.2 12.075V2.31002H290.595V0.960022H302.64H302.655ZM299.61 3.61502V4.86002H290.655V3.61502H299.61ZM292.29 6.22502H298.14V11.34H292.98V12.615H291.615V6.24002H292.29V6.22502ZM296.76 10.08V7.44002H292.98V10.08H296.76Z" fill="white"/>
</svg>
