<svg width="1409" height="127" viewBox="0 0 1409 127" fill="none" xmlns="http://www.w3.org/2000/svg">
<g filter="url(#filter0_d_1_465)">
<path d="M107.22 24.645H63.015C62.22 28.305 61.185 32.325 60.03 36.105H95.76V112.275H77.895V105.63H32.895V112.275H15.945V36.105H42.285C42.975 32.55 43.665 28.545 44.115 24.645H3V9.07498H107.22V24.645ZM77.895 63.24V51.45H32.895V63.24H77.91H77.895ZM32.88 90.27H77.895V78.24H32.895V90.27H32.88Z" fill="white"/>
<path d="M154.41 9.99C153.945 11.025 152.805 11.595 150.975 11.37C148.455 18.12 145.485 24.885 142.38 31.41L146.85 32.895C146.505 33.93 145.47 34.95 143.415 35.19V112.725H127.26V57.63C124.86 60.945 122.445 64.155 119.925 67.02C118.545 63.015 114.765 53.97 112.59 49.95C121.635 39.75 130.92 21.435 136.41 3.795L154.395 9.975L154.41 9.99ZM211.68 83.055C217.065 88.89 223.245 96.795 225.66 102.645L212.49 110.085C211.455 107.34 209.625 104.01 207.45 100.575C205.725 109.74 201.84 112.26 193.47 112.26H182.355C166.785 112.26 166.44 106.425 166.44 93.585C164.145 99.42 160.95 105.495 156.585 109.965L144.795 101.49C149.37 97.365 153.27 90.72 155.325 84.54L166.44 89.235V84.54L179.955 85.335C178.575 84.075 177.09 82.815 175.605 81.78L177.435 80.295H156.135V46.185H216.945V80.31H193.695C195.87 82.14 197.7 84.09 198.96 85.695L188.43 94.17C187.17 92.22 184.995 89.925 182.595 87.645C182.25 87.645 181.905 87.765 181.455 87.87V96.345C181.455 99.33 181.92 99.555 184.77 99.555H191.76C194.16 99.555 194.73 98.64 195.075 92.565C197.13 94.17 201.375 95.775 204.93 96.81C203.1 94.41 201.27 91.995 199.44 89.82L211.695 83.07L211.68 83.055ZM152.34 12.165H177.54V4.38L197.7 5.415C197.58 6.795 196.56 7.47 194.265 7.935V12.18H220.95V24.195H213.27L214.41 24.54C213.945 25.455 212.925 25.92 211.2 25.92L208.905 30.045H224.025V42.765H148.2V30.045H163.665C162.975 28.095 162.06 25.92 161.265 24.21H152.325V12.165H152.34ZM171.81 55.8V59.01H200.445V55.8H171.81ZM171.81 67.365V70.68H200.445V67.365H171.81ZM176.625 24.18C177.54 26.13 178.455 28.185 179.145 30.015H193.125C193.92 28.185 194.61 26.115 195.3 24.18H176.625Z" fill="white"/>
<path d="M336.615 60.72H275.565C267.885 82.365 256.89 100.35 241.2 112.26C238.56 108.945 232.38 102.87 228.6 99.885C241.2 91.29 250.59 77.55 257.235 60.72H231.465V45.03H262.5C263.76 40.11 265.02 34.95 265.935 29.685H251.16V42.165H234.9V14.685H274.98V3.465L295.59 4.605C295.47 5.865 294.555 6.66 292.155 7.005V14.685H333.27V42.165H316.2V29.685H275.43L286.305 31.98C285.96 33.24 284.82 33.93 282.87 33.93C282.075 37.71 281.145 41.37 280.23 45.045H336.585V60.735L336.615 60.72ZM313.71 72.18C321.96 81.45 332.61 94.395 337.08 103.335L322.77 112.38C321.975 110.655 320.94 108.6 319.68 106.545C300.9 108.03 281.88 109.29 268.935 109.98C268.59 111.12 267.555 111.69 266.535 111.81L260.115 93.72L271.575 93.375C275.82 84.105 279.93 72.075 282.345 62.34L301.935 67.5C301.47 68.64 300.225 69.21 298.275 69.33C295.875 76.77 292.44 85.365 288.885 92.805C295.755 92.58 302.85 92.34 310.08 92.01C306.99 87.765 303.66 83.655 300.57 79.98L313.74 72.195L313.71 72.18Z" fill="white"/>
<path d="M384.15 97.14H399.84C405.57 91.755 407.055 84.765 407.745 77.79L423.315 79.515C423.09 80.43 422.175 81.12 420.57 81.345C418.845 91.545 416.22 103.905 403.395 112.035C402.705 110.775 401.79 109.29 400.755 107.685V108.03H364.785V112.38H351.615V82.605C350.7 83.64 349.89 84.66 348.975 85.59C347.715 82.95 344.4 77.46 342.555 74.94C347.595 69.555 352.41 60.63 355.38 51.465H347.13V28.44H371.865V51.465H364.305L369.915 53.295C369.45 54.09 368.535 54.675 367.05 54.555L365.565 58.455H372.435C373.575 55.59 374.49 52.5 375.075 49.98V28.455H400.155V51.48H380.685L389.625 53.88C389.28 54.795 388.365 55.26 386.64 55.26L385.035 58.47H400.605V69.24H384.105V72.225H398.085V81.615H384.105V84.705H398.085V94.095H384.105V97.185L384.15 97.14ZM354.03 25.785V21.435H344.07V10.56H354.03V3.57001L370.98 4.48501C370.86 5.62501 369.945 6.31501 367.89 6.66001V10.56H378.315V3.57001L395.265 4.48501C395.145 5.62501 394.23 6.31501 392.175 6.66001V10.56H401.34V21.435H392.175V25.785H378.315V21.435H367.89V25.785H354.03ZM357.465 37.815V42.045H361.02V37.815H357.465ZM370.755 72.18V69.195H364.8V72.18H370.755ZM370.755 84.66V81.57H364.8V84.66H370.755ZM364.8 94.05V97.14H370.755V94.05H364.8ZM385.41 37.815V42.045H389.31V37.815H385.41ZM438.435 94.275C438.435 97.485 438.555 97.83 439.35 97.83H440.385C441.525 97.83 441.99 96.345 442.215 85.35C444.735 87.645 450.69 89.82 454.35 90.84C453.21 106.53 449.775 110.775 441.975 110.775H436.71C426.63 110.775 424.575 106.65 424.575 94.395V75.045H404.19V7.35001H448.29V75.045H438.435V94.29V94.275ZM418.275 21.435V26.25H433.515V21.435H418.275ZM418.275 38.73V43.545H433.515V38.73H418.275ZM418.275 56.025V60.84H433.515V56.025H418.275Z" fill="white"/>
<path d="M567.39 35.19H522.84C521.01 40.23 519.06 45.15 516.765 49.74H524.205V37.605L543.9 38.64C543.78 39.9 542.865 40.695 540.465 41.04V49.74H563.835V83.19C563.835 95.22 560.055 98.655 544.245 98.655C543.78 94.53 542.19 88.695 540.465 84.675V112.395H524.205V64.635H516.87V98.535H501.405V73.455C499.11 76.095 496.71 78.495 494.07 80.79C492.585 78.15 489.6 73.8 486.975 70.485V112.755H470.82V57.63C468.42 60.945 466.005 64.155 463.485 67.02C462.105 63.015 458.325 53.97 456.15 49.95C465.195 39.75 474.48 21.435 479.97 3.795L497.955 9.975C497.49 11.01 496.35 11.58 494.52 11.355C492 18.105 489.03 24.87 485.925 31.395L490.395 32.88C490.05 33.915 489.015 34.935 486.96 35.175V64.725C494.745 57.51 500.94 47.205 505.86 35.175H492V20.07H510.9C512.385 14.58 513.765 8.85 514.8 3L533.58 7.125C533.235 8.265 532.095 8.955 530.265 8.955C529.47 12.735 528.54 16.395 527.52 20.07H567.375V35.19H567.39ZM547.92 64.62H540.48V84.21C542.775 84.33 545.52 84.33 546.555 84.33C547.59 84.21 547.935 83.985 547.935 82.95V64.62H547.92Z" fill="white"/>
<path d="M668.52 49.155L677.79 49.845C677.67 51.105 677.67 53.16 677.445 54.765C676.41 88.215 675.27 101.385 671.94 105.84C668.16 111 663.93 112.59 648.81 112.26C648.69 109.395 647.895 105.615 646.755 102.3H619.725V109.395H604.485V69.075H650.76V97.14C655.23 97.14 655.8 97.14 657.18 95.31C658.905 93.135 659.82 84.78 660.495 63.705H600.48C598.53 79.965 594.18 97.26 585.48 109.41C582.735 106.32 575.745 100.71 572.085 98.88C584.565 81.36 585.48 55.125 585.48 37.035V8.50502H668.97V43.425H601.86C601.86 45.255 601.74 47.205 601.635 49.26H664.86L668.52 49.14V49.155ZM652.26 22.35H601.98V29.565H652.26V22.35ZM635.31 89.355V82.02H619.74V89.355H635.31Z" fill="white"/>
<path d="M749.94 74.355L751.32 88.665C738.495 91.65 725.1 94.5 716.385 96.345C716.16 97.485 715.125 98.295 714.09 98.4L709.965 81.105C713.625 80.64 717.87 79.965 722.445 79.155V58.995H712.935V43.755H722.445V26.595H712.14V11.25H748.215V26.595H738.015V43.77H747.525V59.01H738.015V76.53L749.925 74.355H749.94ZM811.785 86.265H792.435V98.64C792.435 109.755 788.88 112.275 770.565 112.275C769.875 108.615 768.39 103.8 766.785 100.14C762.315 104.37 756.93 108.495 751.785 111.48C749.265 108.615 744.225 103.92 741.135 101.52C748.005 98.205 755.115 92.58 759 87.315L775.38 93.39C774.915 94.305 773.775 94.77 772.29 94.53C770.91 96.135 769.305 97.74 767.595 99.45C770.46 99.57 773.775 99.57 774.81 99.57C776.07 99.45 776.535 99.225 776.535 98.085V86.295H757.29V60.87H811.8V86.295L811.785 86.265ZM818.775 44.685V57.735H749.595V44.685H775.365V40.215H755.775V7.00502H813.15V40.23H795.63C795.285 41.145 794.25 41.715 792.315 42.06V44.7H818.775V44.685ZM770.67 16.515V19.155H797.475V16.515H770.67ZM770.67 28.08V30.72H797.475V28.08H770.67ZM772.5 71.265V75.84H795.63V71.265H772.5ZM808.47 110.895C805.605 106.425 798.735 99.33 793.125 94.515L805.725 87.645C811.215 91.995 818.445 98.64 821.985 103.335L808.47 110.895Z" fill="white"/>
<path d="M924.705 9.3L935.355 13.2C935.235 13.995 934.89 14.805 934.215 15.375C931.125 25.23 927.345 36.9 922.755 49.05C932.025 60.615 934.89 68.4 934.89 75.39C934.89 98.64 919.2 98.64 909.24 98.295C909.12 93.945 907.29 87.3 904.77 82.83V112.26H888.39V19.95C885.87 26.025 883.005 31.86 879.795 37.365H885.405V51.675H870.165C868.335 53.97 866.505 56.145 864.66 58.2H882.18V111.465H866.49V107.565H851.94V112.485H836.94V80.415C835.56 81.21 834.195 82.02 832.695 82.71C830.97 79.155 826.965 72.51 824.34 69.315C828.69 67.365 832.935 64.965 836.94 62.325V58.2H842.55C845.19 56.145 847.59 53.955 849.99 51.675H827.085V37.365H845.52V28.665H831.54V14.46H845.52V4.035L864.195 5.07C864.075 6.21 863.16 7.02 860.88 7.365V14.46H870.735V22.59C872.565 18.81 874.17 14.91 875.55 10.905L888.375 15.03V9.87H921.24L924.675 9.3H924.705ZM866.52 76.41V71.25H851.97V76.41H866.52ZM851.97 94.395H866.52V88.785H851.97V94.395ZM860.91 37.365H862.17C864.12 34.62 865.95 31.635 867.555 28.665H860.91V37.365ZM904.77 25.455V82.26C907.515 82.485 909.93 82.485 911.52 82.485C917.25 82.485 918.39 79.845 918.39 74.58C918.39 68.97 915.3 62.79 905.91 51.9C908.895 42.285 911.415 33.465 913.47 25.44H904.77V25.455Z" fill="white"/>
<path d="M1049.43 92.34H1035.45C1040.83 96.345 1047.13 101.16 1050.57 104.715L1038.31 112.395C1034.53 108.15 1026.28 101.175 1020.1 96.48L1027.09 92.355H1010.59L1017.69 96.48C1017.34 96.945 1016.65 97.275 1015.86 97.395C1011.85 102.315 1002.81 109.08 995.13 112.395C992.73 109.755 988.38 105.75 985.05 103.23C982.53 112.5 973.59 112.5 964.2 112.5C963.975 108.03 962.475 101.85 960.3 97.845C963.165 98.19 965.685 98.19 967.29 98.19C968.67 98.19 969.585 97.845 970.5 96.36C971.76 94.185 972.225 85.365 972.555 61.08H966.375C964.77 80.43 961.11 98.76 951.48 112.275C948.84 108.27 943.92 103.23 939.795 100.59C950.91 85.02 951.585 61.305 951.93 35.76H941.625V20.415H958.005V3.69L977.25 4.725C977.13 5.985 976.215 6.675 973.935 7.125V20.415H988.59V23.16C992.595 17.55 995.685 10.44 997.29 3.465L1013.89 7.71C1013.55 8.625 1012.63 9.195 1011.03 9.09C1010.46 10.92 1009.77 12.87 1009.08 14.7H1049.4V27.99H1002.33L1001.29 29.595L1016.19 30.39C1016.07 31.53 1015.15 32.22 1012.98 32.685V38.07H1024.44V29.37L1042.99 30.405C1042.87 31.545 1041.96 32.355 1039.68 32.7V38.085H1047.93V51.03H1039.68V79.44H1049.41V92.385L1049.43 92.34ZM979.56 46.065L987.69 46.29C987.69 47.55 987.69 49.38 987.57 51.105C987.225 81 986.88 95.775 985.17 102.645C990.78 100.245 996.735 96.225 1000.98 92.34H988.5V79.395H998.01V50.985H990.105V38.04H998.01V33.795C997.095 34.935 996.06 35.97 995.04 36.885C993.555 35.4 991.035 33.57 988.62 31.845V35.745H967.545L967.2 46.05H979.575L979.56 46.065ZM1024.45 50.985H1012.99V53.625H1024.45V50.985ZM1024.45 66.45V63.705H1012.99V66.45H1024.45ZM1012.99 76.53V79.395H1024.45V76.53H1012.99Z" fill="white"/>
<path d="M1099.25 60.96L1095.12 61.53V98.985C1095.12 109.41 1091.69 112.5 1078.17 112.5C1077.83 109.065 1076.22 103.56 1074.51 100.245C1076.22 100.365 1078.07 100.47 1079.43 100.47C1082.75 100.47 1083.09 100.47 1083.09 98.745V63.24L1072.22 64.725C1071.99 80.19 1070.51 99.885 1063.97 112.605C1061.79 110.655 1056.53 107.445 1053.66 106.305C1059.17 95.19 1060.31 79.62 1060.53 66.225L1059.15 66.45C1058.93 67.485 1057.89 68.055 1056.98 68.175L1054.11 54.435L1060.53 53.865V18.81H1070.04C1070.84 13.89 1071.53 7.935 1071.77 3.465L1088.84 6.45C1088.49 7.365 1087.46 7.935 1085.75 8.055C1084.83 11.145 1083.57 15.15 1082.31 18.825H1095.14V50.535L1098.92 50.19L1099.26 60.96H1099.25ZM1079.55 33.465C1081.28 37.365 1082.64 42.405 1083.11 46.185H1083.23L1083.11 31.185H1072.23V35.88L1079.57 33.48L1079.55 33.465ZM1072.22 52.815L1083.09 51.78V47.205L1074.62 50.07C1074.5 46.86 1073.48 42.165 1072.22 38.04V52.815ZM1082.99 66.675C1082.87 67.47 1082.19 68.055 1080.81 68.16V91.98H1073.82V66.09L1082.99 66.66V66.675ZM1157.55 98.055H1163.97V110.43H1096.4V98.055H1102.82V68.16H1157.57V98.055H1157.55ZM1111.28 63.93V65.535H1100.16V7.35H1132.68V17.655H1124.9V23.04H1132.23V34.725C1135.32 26.82 1136.93 14.91 1137.72 3.69L1153.53 6.9C1153.19 7.815 1152.27 8.505 1150.79 8.505C1150.44 11.595 1150.1 14.685 1149.53 17.895H1163.51V30.27H1147.13C1145.75 35.76 1144.04 40.8 1141.86 44.82C1139.57 42.87 1135.44 40.35 1132.25 38.52V48.03H1124.91V53.415H1134.18V63.945H1111.28V63.93ZM1114.59 17.655H1111.28V23.04H1114.59V17.655ZM1121.34 32.43H1111.26V38.61H1121.34V32.43ZM1114.59 53.385V48H1111.28V53.385H1114.59ZM1115.06 80.415V98.055H1118.03V80.415H1115.06ZM1131.32 80.415H1128.33V98.055H1131.32V80.415ZM1135.79 58.545V46.17H1161.68V58.545H1135.79ZM1144.61 80.415H1141.62V98.055H1144.61V80.415Z" fill="white"/>
<path d="M1199.56 47.895V83.865C1205.98 94.515 1218.46 94.515 1238.16 94.515C1251.67 94.515 1267.83 94.05 1279.39 93.03C1277.56 97.035 1274.92 105.06 1274.13 109.98C1265.53 110.445 1253.97 110.775 1242.97 110.775C1214.56 110.775 1202.65 110.205 1192.23 98.055C1187.53 102.18 1182.72 106.305 1178.59 109.515C1178.59 111 1178.13 111.69 1176.76 112.155L1168.51 93.825C1173.21 91.185 1178.47 87.99 1183.29 84.54V63.24H1171.5V47.895H1199.56ZM1183.41 6.21001C1189.93 10.905 1198.3 17.895 1202.19 23.28L1188.9 34.275C1185.58 29.01 1177.56 21.33 1171.03 16.185L1183.41 6.22501V6.21001ZM1202.53 38.16H1213.75C1210.09 36.105 1205.05 33.915 1201.5 32.43C1207.11 25.905 1211.58 14.67 1213.87 4.48501L1231.51 8.95501V3.57001L1251.45 4.60501C1251.33 5.86501 1250.31 6.66001 1248.01 7.12501V15.72H1271.73V29.7H1248.01V38.175H1276.77V52.035H1202.55V38.175L1202.53 38.16ZM1269.07 91.995H1252.69V89.355H1227.04V92.34H1211.47V55.575H1269.09V91.995H1269.07ZM1231.51 38.16V29.685H1221.31C1219.83 32.775 1218.1 35.64 1216.27 38.16H1231.51ZM1227.04 75.495H1252.69V68.505H1227.04V75.495ZM1231.51 15.705V9.52501C1231.05 10.215 1230.13 10.56 1228.77 10.56C1228.3 12.285 1227.73 13.995 1227.16 15.72H1231.51V15.705Z" fill="white"/>
<path d="M1393.23 90.615H1380.06C1385.79 94.965 1391.52 100.125 1394.95 103.905L1380.75 112.725C1376.97 107.805 1368.84 100.125 1362.19 94.74L1370.44 90.615H1349.83L1360.03 94.62C1359.46 95.76 1358.08 96 1356.82 95.76C1350.87 101.715 1341.58 108.24 1332.78 112.485C1330.48 109.62 1326.13 104.7 1323.04 101.835C1310.91 103.89 1299.22 105.84 1291.09 106.995C1290.87 108.135 1289.83 108.825 1288.8 109.05L1284.33 92.1C1289.02 91.635 1294.75 90.96 1301.05 90.27V87.06L1290.85 90.27C1290.28 85.005 1288.45 77.1 1286.61 71.025L1297.26 68.04C1298.74 72.285 1300.12 77.325 1301.04 81.675V66.78H1286.61V52.815H1301.04V46.515H1292.34V42.735C1289.7 39.42 1285.59 35.4 1282.72 33.465C1291.54 24.42 1298.19 12.855 1301.97 3.57001L1319.83 6.66001C1319.49 7.80001 1318.57 8.49001 1316.85 8.61001L1316.62 8.95501C1321.44 12.165 1326.82 16.05 1330.93 19.605V12.51H1353.15V3.57001L1372.39 4.60501C1372.27 5.86501 1371.36 6.55501 1369.08 7.00501V12.495H1391.86V25.56H1369.08V28.77H1386.49V74.13H1337.13V28.77H1353.16V25.56H1334.16L1326.48 37.47L1325.91 36.78V46.515H1315.71V52.815H1329.45V66.78H1315.71V82.935C1316.97 78.36 1318.45 72.165 1319.02 67.695L1333 71.94C1332.54 72.735 1331.52 73.2 1329.91 73.2C1328.88 77.325 1326.93 83.28 1325.1 87.285L1329.79 86.715V76.86H1393.24V90.6L1393.23 90.615ZM1322.1 32.775C1318.54 29.34 1313.97 25.56 1309.62 22.35C1307.67 25.785 1305.49 29.22 1302.97 32.775H1322.1ZM1315.68 84.66V88.56L1323.58 87.525L1315.68 84.66ZM1331.14 90.615L1331.49 96.915C1334.8 94.965 1337.91 92.79 1340.43 90.615H1331.16H1331.14ZM1370.65 41.025V38.385H1352.1V41.025H1370.65ZM1370.65 52.71V50.07H1352.1V52.71H1370.65ZM1370.65 64.5V61.755H1352.1V64.5H1370.65Z" fill="white"/>
</g>
<defs>
<filter id="filter0_d_1_465" x="0.63" y="0.63" width="1407.73" height="125.535" filterUnits="userSpaceOnUse" color-interpolation-filters="sRGB">
<feFlood flood-opacity="0" result="BackgroundImageFix"/>
<feColorMatrix in="SourceAlpha" type="matrix" values="0 0 0 0 0 0 0 0 0 0 0 0 0 0 0 0 0 0 127 0" result="hardAlpha"/>
<feOffset dx="5.52" dy="5.52"/>
<feGaussianBlur stdDeviation="3.945"/>
<feColorMatrix type="matrix" values="0 0 0 0 0.101961 0 0 0 0 0.12549 0 0 0 0 0.219608 0 0 0 0.34 0"/>
<feBlend mode="normal" in2="BackgroundImageFix" result="effect1_dropShadow_1_465"/>
<feBlend mode="normal" in="SourceGraphic" in2="effect1_dropShadow_1_465" result="shape"/>
</filter>
</defs>
</svg>
