<?xml version="1.0" encoding="utf-8"?>
<!-- Generator: Adobe Illustrator 27.0.0, SVG Export Plug-In . SVG Version: 6.00 Build 0)  -->
<svg version="1.1" id="圖層_1" xmlns="http://www.w3.org/2000/svg" xmlns:xlink="http://www.w3.org/1999/xlink" x="0px" y="0px"
	 viewBox="0 0 390 60" style="enable-background:new 0 0 390 60;" xml:space="preserve">
<style type="text/css">
	.st0{fill:#FFFFFF;}
	.st1{fill:#FFE900;}
	.st2{fill:#2E318B;}
</style>
<path class="st0" d="M359.8,0.4H29.4C13.2,0.4,0.1,13.5,0.1,29.7s13.2,29.4,29.4,29.4h330.4c16.2,0,29.4-13.2,29.4-29.4
	S376.1,0.4,359.8,0.4z"/>
<path class="st1" d="M127.9,6.3h-98C16.9,6.3,6.4,16.8,6.4,29.7v0c0,12.9,10.5,23.4,23.4,23.4h98c12.9,0,23.4-10.5,23.4-23.4v0
	C151.3,16.8,140.8,6.3,127.9,6.3z"/>
<path class="st2" d="M39.7,37.4h10.2v3.8H25.4v-3.8h10.2v-4.6h-7v-3.8h7V25h-5.2c-0.8,1.6-1.6,3.1-2.5,4.2c-0.8-0.7-2.4-1.9-3.3-2.4
	c1.9-2.3,3.6-6.4,4.5-10.3l4.8,1.3c-0.1,0.2-0.4,0.4-0.8,0.4c-0.3,1-0.6,2-1,3h3.6v-4.8l4.9,0.3c0,0.3-0.3,0.5-0.8,0.6v4h8.9V25
	h-8.9v4.1h7.7v3.8h-7.7L39.7,37.4L39.7,37.4z"/>
<path class="st2" d="M53.7,23.7c1.7,0.6,3.9,1.6,5,2.5l-2.3,3.3c-1-0.9-3.2-2.1-4.9-2.8L53.7,23.7L53.7,23.7z M52.4,39.2
	c1.3-2,3.3-5.4,4.8-8.6l3,2.4c-1.3,2.9-2.8,5.6-4,7.8c0.2,0.2,0.2,0.4,0.2,0.6s-0.1,0.3-0.2,0.5L52.4,39.2L52.4,39.2z M77.3,28.1
	h-7.1v2.7h5.4v11h-4v-1H65v1.1h-3.8V30.8h5V28h-6.7v-3.8h6.7v-2.6c-1.7,0.2-3.5,0.4-5.2,0.6c-0.1-0.8-0.6-2.1-1-3L58,22.2
	c-1-0.9-3.1-2.2-4.8-2.9l2.1-2.9c1.6,0.6,3.7,1.6,4.8,2.4c4.7-0.4,9.8-1.3,12.9-2.6l3.3,3.2c-0.2,0.2-0.4,0.2-0.9,0.2
	c-1.5,0.5-3.3,1-5.3,1.4v3.3h7.1L77.3,28.1L77.3,28.1z M71.6,37.3v-3H65v3H71.6z"/>
<path class="st2" d="M104.2,37.3h-3.3c1.3,0.9,2.7,2.1,3.6,2.9l-2.9,1.8c-0.9-1-2.8-2.6-4.3-3.8l1.7-1h-3.9l1.7,1
	c-0.1,0.1-0.2,0.2-0.4,0.2c-0.9,1.2-3.1,2.7-4.9,3.5c-0.6-0.6-1.6-1.6-2.4-2.2C88.5,42,86.3,42,84.1,42c-0.1-1-0.4-2.5-0.9-3.4
	c0.7,0.1,1.3,0.1,1.7,0.1c0.3,0,0.5-0.1,0.8-0.4c0.3-0.5,0.4-2.6,0.5-8.3h-1.5c-0.4,4.6-1.2,8.9-3.5,12c-0.6-0.9-1.8-2.1-2.7-2.7
	c2.6-3.7,2.8-9.2,2.8-15.3h-2.4v-3.6h3.9v-3.9l4.5,0.2c0,0.3-0.2,0.5-0.8,0.6v3.1h3.4v0.6c0.9-1.3,1.7-3,2.1-4.6l3.9,1
	c-0.1,0.2-0.3,0.3-0.7,0.3c-0.1,0.4-0.3,0.9-0.5,1.3h9.5v3.1H93.1l-0.2,0.4l3.5,0.2c0,0.3-0.2,0.4-0.8,0.5v1.3h2.7v-2l4.4,0.2
	c0,0.3-0.2,0.5-0.8,0.5v1.3h1.9v3h-1.9v6.7h2.3V37.3L104.2,37.3z M87.8,26.4l1.9,0.1c0,0.3,0,0.7,0,1.1c-0.1,7-0.2,10.5-0.6,12.1
	c1.3-0.6,2.7-1.5,3.7-2.4h-2.9v-3h2.2v-6.7h-1.9v-3h1.9v-1c-0.2,0.3-0.5,0.5-0.7,0.7c-0.3-0.3-0.9-0.8-1.5-1.2v0.9h-5l-0.1,2.4H87.8
	L87.8,26.4z M98.3,27.5h-2.7v0.6h2.7V27.5z M98.3,31.2v-0.6h-2.7v0.6H98.3z M95.6,33.5v0.7h2.7v-0.7H95.6z"/>
<path class="st2" d="M115.9,29.9l-1,0.1v8.8c0,2.4-0.8,3.2-4,3.2c-0.1-0.8-0.4-2.1-0.9-2.9c0.4,0,0.8,0.1,1.2,0.1
	c0.8,0,0.9,0,0.9-0.4v-8.4l-2.6,0.3c-0.1,3.6-0.4,8.3-1.9,11.3c-0.5-0.5-1.8-1.2-2.4-1.5c1.3-2.6,1.6-6.3,1.6-9.4l-0.3,0.1
	c-0.1,0.2-0.3,0.4-0.5,0.4l-0.7-3.2l1.5-0.1v-8.2h2.2c0.2-1.2,0.3-2.6,0.4-3.6l4,0.7c-0.1,0.2-0.3,0.3-0.7,0.4
	c-0.2,0.7-0.5,1.7-0.8,2.5h3v7.5l0.9-0.1L115.9,29.9L115.9,29.9z M111.3,23.4c0.4,0.9,0.7,2.1,0.8,3h0l0-3.5h-2.6V24L111.3,23.4z
	 M109.5,28l2.6-0.2v-1.1l-2,0.7c0-0.8-0.3-1.9-0.6-2.8V28z M112.1,31.2c0,0.2-0.2,0.3-0.5,0.3v5.6h-1.6v-6.1L112.1,31.2z
	 M129.6,38.6h1.5v2.9h-15.9v-2.9h1.5v-7h12.9V38.6z M118.7,30.6V31h-2.6V17.3h7.6v2.4h-1.8V21h1.7v2.7c0.7-1.9,1.1-4.7,1.3-7.3
	l3.7,0.8c-0.1,0.2-0.3,0.4-0.6,0.4c-0.1,0.7-0.2,1.5-0.3,2.2h3.3v2.9h-3.9c-0.3,1.3-0.7,2.5-1.2,3.4c-0.5-0.5-1.5-1.1-2.3-1.5v2.2
	h-1.7v1.3h2.2v2.5L118.7,30.6L118.7,30.6z M119.5,19.7h-0.8V21h0.8V19.7z M121.1,23.2h-2.4v1.5h2.4V23.2z M119.5,28.1v-1.3h-0.8v1.3
	H119.5z M119.6,34.5v4.2h0.7v-4.2H119.6z M123.4,34.5h-0.7v4.2h0.7V34.5z M124.5,29.3v-2.9h6.1v2.9H124.5z M126.5,34.5h-0.7v4.2h0.7
	V34.5z"/>
<g>
	<path class="st2" d="M166.1,35.4c0,0.7,0.3,0.8,1.9,0.8h4.3c1.3,0,1.5-0.2,1.6-1.7c0.5,0.3,1.5,0.7,2.1,0.8c-0.3,2.4-1.1,3-3.7,3
		h-4.5c-3.1,0-4-0.6-4-2.8v-3.7h4.8v-1.4h-4.1v-0.8c-0.4,0.5-0.8,1-1.3,1.4c-0.4-0.4-1.3-1.2-1.8-1.5c1.5-1.3,3-3.6,3.8-5.8l2.7,0.9
		c-0.1,0.1-0.2,0.2-0.5,0.2c-0.1,0.2-0.2,0.5-0.3,0.7h6.8l1.2,0.1c0,0.2,0,0.5,0,0.7c-0.1,4.9-0.3,6.7-0.7,7.4
		c-0.6,0.8-1.3,0.9-3,0.9c0-0.6-0.2-1.5-0.6-2v1.3h-4.8L166.1,35.4L166.1,35.4z M166,27.5c-0.2,0.3-0.4,0.6-0.6,0.9h5.4v3.9
		c0.5,0.1,0.9,0.1,1.1,0.1c0.2,0,0.3-0.1,0.5-0.2c0.2-0.3,0.3-1.5,0.4-4.6H166L166,27.5z"/>
	<path class="st2" d="M192.3,36.1v1.7h-5.1v0.5h-2v-5.9c-0.2-0.2-0.5-0.4-0.8-0.6c0.3,0.7,0.6,1.5,0.7,2.1l-1.6,0.6
		c0-0.1,0-0.3-0.1-0.5l-0.8,0v0.8l1.4-0.5c0.4,0.8,0.9,1.8,1,2.5l-1.7,0.7c-0.1-0.6-0.4-1.4-0.7-2.1v2.9h-2v-3
		c-0.2,0.9-0.7,2-1.1,2.7c-0.4-0.3-1.1-0.6-1.5-0.8c0.4-0.7,0.8-1.8,1-2.7l1.7,0.5v-0.8c-0.7,0-1.3,0.1-1.8,0.1
		c0,0.2-0.2,0.2-0.3,0.2l-0.5-2h1.5c0.2-0.2,0.5-0.4,0.7-0.6c-0.5-0.5-1.3-1.2-2-1.6l1.1-1.4l0.4,0.3c0.2-0.3,0.5-0.7,0.7-1h-1.6
		v-3.9h12.7v3.9h-2.1l1.7,0.5c-0.1,0.1-0.2,0.2-0.4,0.2c-0.1,0.3-0.3,0.7-0.5,1h1.9v1.7h-2V32h1.6v1.5H190V34h1.6v1.5H190v0.5
		L192.3,36.1L192.3,36.1z M180.9,25.8v0.8h1.4v-0.8H180.9z M181.7,28.1l0.8,0.4c-0.1,0.1-0.2,0.1-0.4,0.1c-0.3,0.4-0.7,1-1.2,1.5
		c0.2,0.1,0.3,0.3,0.4,0.4c0.5-0.6,1-1.2,1.3-1.7l1.9,1c-0.1,0.1-0.2,0.1-0.5,0.1c-0.4,0.5-1,1.1-1.6,1.7l1.2-0.4
		c0.8-0.8,1.5-2,1.9-3.1H181.7z M182.8,32.5c-0.1-0.2-0.2-0.5-0.3-0.7c-0.2,0.3-0.5,0.5-0.8,0.8L182.8,32.5L182.8,32.5z M184.4,25.8
		v0.8h1.4v-0.8H184.4z M188.1,28.4c0,0.1-0.2,0.2-0.4,0.2c-0.1,0.4-0.3,0.8-0.6,1.2h1c0.3-0.6,0.5-1.2,0.7-1.7H187L188.1,28.4
		L188.1,28.4z M188.1,32v-0.5h-1V32H188.1z M188.1,34.1v-0.5h-1v0.5H188.1z M187.1,35.6v0.5h1v-0.5H187.1z M187.8,25.8v0.8h1.5v-0.8
		H187.8z"/>
	<path class="st2" d="M205.1,24.7h3.1v1.8h-3.1V27h-2.2v-0.5h-3.3V27h-2.2v-0.5h-3v-1.8h3v-0.9l2.6,0.1c0,0.2-0.1,0.3-0.4,0.3v0.4
		h3.3v-0.9l2.6,0.1c0,0.2-0.1,0.3-0.5,0.3V24.7z M207.6,32.5v3.9c0,1.4-0.4,1.9-2.5,1.9c-0.1-0.4-0.2-0.8-0.3-1.2l-1.4,0.3
		c0-0.2,0-0.4-0.1-0.6c-1.8,0.1-3.6,0.3-4.9,0.4c0,0.1-0.2,0.2-0.3,0.2l-0.7-2.1c0.8,0,1.7,0,2.8,0v-1h-2.9v4.1h-2.1v-5.9h5v-0.4
		h-3.8v-5h9.9v5h-4v0.4H207.6L207.6,32.5z M198.6,28.5V29h1.7v-0.4H198.6z M198.6,30.7h1.7v-0.4h-1.7V30.7z M204.2,29v-0.4h-1.9V29
		H204.2z M204.2,30.7v-0.4h-1.9v0.4H204.2z M202.4,35.2h0.5c-0.1-0.2-0.1-0.4-0.2-0.6l1.4-0.3h-1.7L202.4,35.2L202.4,35.2z
		 M204.3,34.3c0.3,0.7,0.6,1.6,0.8,2.3c0.3,0,0.4,0,0.4-0.2v-2.1H204.3z"/>
	<path class="st2" d="M222.8,30.9l1.9,1.5c-0.1,0.1-0.2,0.1-0.3,0.1c-0.1,0-0.1,0-0.2,0c-0.6,0.4-1.7,0.9-2.6,1.3
		c0.8,1,1.9,1.7,3.2,2.2c-0.5,0.4-1.1,1.3-1.4,1.9c-2.9-1.2-4.4-3.6-5.4-6.8c-0.3,0.2-0.7,0.4-1,0.6c1.7,1.2,2.5,2.7,2.5,4
		c0,1.7-1.3,2.8-3,2.8c-0.4,0-0.8,0-1.2,0c0-0.5-0.2-1.1-0.4-1.7c-1,0.5-2.1,0.8-3.1,1.1c-0.3-0.5-0.8-1.2-1.2-1.6
		c2.2-0.5,4.7-1.4,6.3-2.4l-0.2-0.2c-1.4,0.8-3.1,1.5-4.6,1.8c-0.3-0.4-0.8-1.1-1.2-1.5c1.6-0.3,3.3-0.8,4.6-1.4l-0.2-0.1
		c-1.1,0.4-2.2,0.7-3.3,0.9c-0.2-0.4-0.7-1.1-1-1.5c1.3-0.2,2.7-0.6,3.9-1h-2.4v-2.2l-0.3,0.2c-0.3-0.5-1-1.3-1.5-1.6
		c2-1,3.3-2.4,4.1-3.6l2.5,0.5c0,0.2-0.2,0.3-0.4,0.3l-0.2,0.2h2.4l0.3-0.1l1.7,1c-0.1,0.1-0.2,0.2-0.4,0.2
		c-0.2,0.3-0.5,0.7-0.9,1.1h3.5v4L222.8,30.9L222.8,30.9z M214.3,28.5v0.8h2.1v-0.8H214.3z M217.1,26.9c0.2-0.2,0.3-0.4,0.5-0.6
		h-2.5c-0.2,0.2-0.4,0.4-0.6,0.6H217.1L217.1,26.9z M217.3,35.3c-0.6,0.4-1.3,0.8-2,1.1c0.3,0,0.5,0,0.7,0c0.4,0,0.7,0,0.9-0.2
		C217.2,36.1,217.3,35.7,217.3,35.3L217.3,35.3z M221,29.4v-0.8h-2.3v0.8H221z M220,30.9c0.2,0.5,0.4,1,0.6,1.4
		c0.8-0.4,1.6-1,2.1-1.4H220z"/>
	<path class="st2" d="M231.7,30.6c1.3,0.3,2.3,1.4,2.3,2.9c0,2-1.6,3.5-4.4,3.5c-1.3,0-2.4-0.3-3-0.7l0.6-2c0.4,0.3,1.4,0.6,2.2,0.6
		c1.2,0,1.9-0.7,1.9-1.6c0-1.2-1-1.7-2.2-1.7h-0.8v-1.9h0.7c0.9,0,1.9-0.4,1.9-1.4c0-0.7-0.5-1.2-1.5-1.2c-0.8,0-1.5,0.3-2,0.6
		l-0.5-1.9c0.6-0.4,1.9-0.8,3.1-0.8c2.3,0,3.5,1.3,3.5,2.9C233.7,29.1,233,30.1,231.7,30.6L231.7,30.6z"/>
	<path class="st2" d="M236.7,25.2h7.4v1.7l-4.2,10h-2.8l4.2-9.4v0h-4.7V25.2z"/>
	<path class="st2" d="M251.9,31.8l0.4,1.9c-1.8,0.7-3.8,1.4-5.1,1.9c0,0.2-0.1,0.3-0.3,0.3l-1-2.3c0.6-0.2,1.3-0.3,2-0.6v-5.6h-1.5
		v-2.1h5.3v2.1h-1.5v4.9L251.9,31.8L251.9,31.8z M260.2,35.2h-2c0.9,0.5,2.2,1.3,2.9,1.8l-1.8,1.3c-0.6-0.6-2-1.5-2.9-2.1l1.5-1.1
		h-3.4l1.5,1.1c0,0-0.1,0.1-0.3,0.1c-0.8,0.7-2.4,1.5-3.8,1.9c-0.3-0.4-0.9-1.1-1.3-1.5c1.1-0.3,2.5-1,3.3-1.6h-1.3V27h2.3l0.1-0.8
		h-3v-1.8h8.8v1.8h-3.4c-0.1,0.3-0.2,0.5-0.3,0.8h3V35.2z M254.6,28.6v0.7h3.4v-0.7H254.6z M254.6,30.7v0.7h3.4v-0.7H254.6z
		 M254.6,32.9v0.7h3.4v-0.7H254.6z"/>
	<path class="st2" d="M270.8,36h5.7v1.9h-13.6V36h5.6v-0.7h-3.5v-1.2c-0.2,0.3-0.4,0.5-0.6,0.7c-0.4-0.4-1.2-0.9-1.7-1.2
		c0.8-0.8,1.6-2.2,2.2-3.4h-0.4v-5.9h10.5v5.9h-3.7c0,0.1-0.2,0.2-0.5,0.3v0.7h4.7V33h-4.7v0.7h3.6v1.7h-3.6L270.8,36L270.8,36z
		 M265.8,33c-0.1,0.2-0.3,0.4-0.4,0.7h3.1V33H265.8L265.8,33z M268.5,30.2h-2.1l1,0.3c-0.1,0.1-0.2,0.2-0.4,0.2
		c-0.1,0.1-0.1,0.3-0.2,0.5h1.7L268.5,30.2L268.5,30.2z M266.6,25.9v0.5h6v-0.5H266.6z M266.6,28v0.5h6V28H266.6z"/>
	<path class="st2" d="M291.9,28.5l1.3,0.6c0,0.1-0.1,0.2-0.2,0.3c-0.4,2.2-1.2,4.2-2.2,5.7c0.7,0.6,1.5,1.1,2.5,1.4
		c-0.4,0.4-1.1,1.2-1.4,1.8c-1-0.4-1.8-0.9-2.4-1.6c-0.6,0.6-1.2,1.1-2,1.5c-0.3-0.5-1-1.2-1.4-1.6c-0.3,0.6-0.6,1.2-0.9,1.6
		c-0.3-0.3-1.2-1-1.6-1.3c0.3-0.3,0.5-0.8,0.7-1.2l-1,0.4c-0.1-0.6-0.3-1.3-0.6-2.1v4.2h-1.9v-4.7h0c-0.1,1.2-0.4,2.7-0.8,3.6
		c-0.4-0.3-1.1-0.6-1.5-0.8c0.4-0.8,0.6-2.3,0.6-3.6l1.8,0.4v-1c-0.6,0-1.2,0.1-1.6,0.1c0,0.2-0.2,0.2-0.3,0.2l-0.4-2.2h1.1
		c0.2-0.3,0.4-0.5,0.6-0.8c-0.4-0.7-1.1-1.4-1.7-2l1-1.5l0.3,0.2c0.4-0.8,0.8-1.8,1-2.5l2.1,0.9c-0.1,0.1-0.2,0.2-0.5,0.2
		c-0.3,0.8-1,2-1.5,2.8c0.1,0.1,0.2,0.3,0.3,0.4c0.5-0.8,0.9-1.6,1.3-2.3l1.8,0.8v-1.8h5.2l0.5,0l1,0.2c0,0.1,0,0.3-0.1,0.4
		c-0.1,0.9-0.4,2.2-0.6,3.4h1.1L291.9,28.5L291.9,28.5z M282.7,30.4c-0.1-0.3-0.3-0.6-0.4-0.9c-0.2,0.3-0.5,0.6-0.7,0.9L282.7,30.4
		L282.7,30.4z M282.8,33.4l1.4-0.5c0.2,0.5,0.4,1.1,0.6,1.7c0.6-2.1,0.8-4.9,0.8-8h-1c-0.1,0.1-0.2,0.1-0.4,0.1
		c-0.5,0.8-1.1,1.7-1.7,2.6l1.4-0.6c0.6,1,1.2,2.4,1.3,3.3l-1.7,0.8c0-0.2-0.1-0.4-0.1-0.7l-0.5,0L282.8,33.4L282.8,33.4z
		 M288.2,35.1c-0.4-0.6-0.8-1.3-1-2.1c-0.2,1.3-0.5,2.5-0.9,3.6C286.9,36.2,287.6,35.7,288.2,35.1L288.2,35.1z M287.6,26.6
		c0,0.4,0,0.8,0,1.2c0.1,0.9,0.3,1.7,0.5,2.4c0.2-1.2,0.5-2.4,0.7-3.6H287.6z M288.2,30.8c0.3,1,0.7,1.9,1.2,2.7
		c0.5-0.8,0.9-1.8,1.2-2.9H290l-0.1,0.4L288.2,30.8L288.2,30.8z"/>
	<path class="st2" d="M303.2,34.5V36h5.5v2h-13.1v-2h5.3v-1.5h-4v-1.9h4v-1.4h-3.2v-1.3c-0.5,0.3-1.1,0.7-1.6,1
		c-0.3-0.5-0.9-1.4-1.4-1.8c2.6-1.3,5.1-3.6,6.2-5.5l2.9,0.1c-0.1,0.2-0.2,0.3-0.5,0.3c1.5,2,4,3.8,6.3,4.7c-0.6,0.6-1,1.3-1.5,2
		c-0.5-0.3-1.1-0.6-1.6-0.9v1.3h-3.3v1.4h4.1v1.9H303.2z M305.6,29.2c-1.4-1.1-2.7-2.3-3.5-3.4c-0.8,1.1-2,2.3-3.4,3.4H305.6
		L305.6,29.2z"/>
	<path class="st2" d="M319.8,30.2v-0.7c-0.2,0.3-0.5,0.5-0.7,0.7c-0.1-0.3-0.3-0.7-0.5-1.1c0,0.1-0.1,0.2-0.3,0.2V38h-1.6v-0.5H313
		v0.6h-1.5V29l1.9,0.1c0,0.1-0.1,0.2-0.4,0.3v1.3c0.3-0.5,0.5-1.2,0.5-1.8l1.3,0.1c0,0.1-0.1,0.2-0.3,0.2c0,0.2-0.1,0.5-0.1,0.7
		c0.1,0.1,0.3,0.3,0.4,0.5c0.3-0.5,0.4-1,0.4-1.5l1.3,0.1c0,0.1-0.1,0.2-0.3,0.2c0,0.2-0.1,0.5-0.1,0.7c0.2,0.2,0.4,0.5,0.6,0.6V29
		l1.9,0.1c-0.1-0.1-0.2-0.3-0.3-0.4h-7.2V27h0.8v-2.4l2.1,0.1c0,0.1-0.1,0.2-0.4,0.3v2h0.6v-3.3l2.2,0.1c0,0.1-0.1,0.2-0.4,0.3v0.7
		h2.2v1.6H316V27h2.6v0.9c1-1.2,2-2.9,2.4-4.2l2.3,0.1c0,0.1-0.1,0.2-0.3,0.3c0.7,1.3,1.9,3.1,2.9,4c-0.4,0.5-0.9,1.4-1.2,2
		c-0.2-0.2-0.5-0.5-0.7-0.7v0.8L319.8,30.2L319.8,30.2z M313,31.7h0.4c-0.1-0.1-0.3-0.3-0.4-0.5V31.7z M314.7,33.4
		c0,0.1-0.1,0.2-0.3,0.2c0,0.2-0.1,0.5-0.1,0.7c0.1,0.2,0.3,0.3,0.5,0.5c0.2-0.5,0.4-1,0.4-1.5l1.3,0.1c0,0.1-0.1,0.2-0.3,0.2
		c0,0.2-0.1,0.5-0.1,0.7c0.2,0.2,0.4,0.4,0.6,0.6v-1.7H313V35c0.3-0.5,0.5-1.2,0.5-1.8L314.7,33.4L314.7,33.4z M313.3,36
		c-0.1-0.1-0.2-0.3-0.4-0.4V36H313.3z M314.9,36c-0.1-0.1-0.2-0.2-0.3-0.3l-0.3,0.3c-0.1-0.2-0.3-0.4-0.5-0.6
		c-0.1,0.2-0.3,0.5-0.5,0.7H314.9z M314.9,31.7c-0.1-0.1-0.2-0.3-0.3-0.4l-0.3,0.3c-0.1-0.1-0.2-0.3-0.4-0.5
		c-0.1,0.2-0.3,0.4-0.5,0.6L314.9,31.7L314.9,31.7z M316.1,31.7c-0.1-0.2-0.3-0.5-0.5-0.7c-0.1,0.2-0.3,0.5-0.6,0.7H316.1
		L316.1,31.7z M316.2,36c-0.1-0.2-0.3-0.5-0.6-0.7c-0.1,0.2-0.3,0.5-0.6,0.7H316.2z M316.6,31.7v-0.5l-0.4,0.5H316.6z M316.2,36h0.4
		v-0.5L316.2,36z M325,31v4c0,1.7-0.6,2-2.7,2c0-0.4-0.2-1-0.3-1.5v2.7h-2v-5.4h-1.4V31H325z M323.3,28.4c-0.6-0.8-1-1.7-1.4-2.4
		c-0.3,0.7-0.8,1.6-1.3,2.4H323.3z M322,32.9v2.2c0.3,0,0.7,0,0.8,0c0.1,0,0.2,0,0.2-0.2v-2.1H322z"/>
	<path class="st2" d="M334.1,25c-0.1,0.1-0.2,0.2-0.5,0.2c-0.9,2.1-2.4,4.4-4,5.8c-0.5-0.5-1.4-1.2-2-1.6c1.5-1.2,2.9-3.3,3.6-5.3
		L334.1,25z M335.8,30.2c-0.1,0.2-0.3,0.3-0.6,0.3c-0.6,1.6-1.5,3.4-2.4,4.9c1.5,0,3-0.1,4.6-0.2c-0.5-0.8-1.1-1.7-1.6-2.4l2.2-1
		c1.3,1.7,2.7,3.9,3.4,5.4l-2.3,1.2c-0.1-0.3-0.3-0.7-0.5-1.2c-3.4,0.2-6.9,0.5-9.3,0.6c0,0.2-0.2,0.3-0.3,0.3l-0.9-2.6l2.2,0
		c1-1.8,2-4.1,2.5-6L335.8,30.2L335.8,30.2z M337.8,24.1c0.8,1.7,2.5,3.7,3.9,5c-0.6,0.5-1.5,1.4-1.9,2c-1.5-1.6-3.1-3.9-4.2-6
		L337.8,24.1L337.8,24.1z"/>
	<path class="st2" d="M349.6,26.3V28h-6.1v-1.7H349.6z M356.1,30.3l1.4,0.5c0,0.1-0.1,0.2-0.2,0.3c-0.5,1.7-1.2,3-2.1,4.2
		c0.9,0.5,1.9,0.9,2.9,1.1c-0.5,0.5-1.1,1.3-1.4,1.9c-1.2-0.4-2.3-0.9-3.2-1.6c-1,0.7-2.1,1.2-3.4,1.6c-0.2-0.5-0.7-1.4-1.1-1.9v1.1
		h-3v0.5h-1.9v-5.3h4.9v3.6c1-0.2,2-0.6,2.8-1.1c-0.6-0.7-1.1-1.4-1.5-2.3l1.9-0.6h-2.4v-2h0.6c-0.3-0.4-1-0.9-1.4-1.2v1h-4.8v-1.6
		h4.8v0.6c1.2-0.9,1.4-2.1,1.4-3v-1.8h5.4v3.3c0,0.5,0,0.5,0.1,0.5h0.2c0.2,0,0.2-0.2,0.2-1.5c0.4,0.3,1.2,0.6,1.8,0.8
		c-0.2,2-0.7,2.5-1.8,2.5h-0.8c-1.4,0-1.8-0.6-1.8-2.3v-1.3h-1.2c0,1.4-0.3,3.1-1.7,4.2h4.9L356.1,30.3L356.1,30.3z M349.1,30.6v1.7
		h-4.8v-1.7H349.1z M349.1,24.2v1.6h-4.8v-1.6H349.1z M347.2,35.8v-1.3h-1.1v1.3H347.2z M352.3,32.3c0.3,0.6,0.7,1.1,1.2,1.6
		c0.4-0.5,0.8-1,1.1-1.6H352.3L352.3,32.3z"/>
</g>
</svg>
