<svg width="1168" height="111" viewBox="0 0 1168 111" fill="none" xmlns="http://www.w3.org/2000/svg">
<path d="M40.3251 72.27L41.7051 86.58C28.8801 89.565 15.4701 92.415 6.7701 94.26C6.5451 95.4 5.5101 96.21 4.4751 96.315L0.350098 79.02C4.0101 78.57 8.2551 77.88 12.8301 77.07V56.91H3.3201V41.685H12.8301V24.51H2.5251V9.16502H38.6001V24.51H28.4001V41.685H37.9101V56.91H28.4001V74.43L40.3101 72.255L40.3251 72.27ZM102.17 84.18H82.8201V96.555C82.8201 107.67 79.2651 110.19 60.9501 110.19C60.2601 106.53 58.7751 101.715 57.1701 98.055C52.7001 102.285 47.3151 106.41 42.1701 109.395C39.6501 106.53 34.6101 101.835 31.5201 99.435C38.3901 96.12 45.5001 90.495 49.3851 85.23L65.7651 91.305C65.3001 92.22 64.1601 92.685 62.6751 92.445C61.2951 94.05 59.6901 95.655 57.9801 97.365C60.8451 97.485 64.1601 97.485 65.1951 97.485C66.4551 97.365 66.9201 97.14 66.9201 96V84.21H47.6751V58.785H102.2V84.21L102.17 84.18ZM109.16 42.6V55.65H39.9801V42.6H65.7501V38.13H46.1601V4.92001H103.535V38.13H86.0151C85.6701 39.045 84.6351 39.615 82.7001 39.96V42.6H109.16ZM61.0551 14.43V17.07H87.8601V14.43H61.0551ZM61.0551 25.995V28.635H87.8601V25.995H61.0551ZM62.8851 69.18V73.755H86.0151V69.18H62.8851ZM98.8551 108.81C95.9901 104.34 89.1201 97.245 83.5101 92.43L96.1101 85.56C101.615 89.91 108.83 96.555 112.37 101.25L98.8551 108.81Z" fill="#F8EA21"/>
<path d="M215.105 7.21502L225.755 11.115C225.635 11.91 225.29 12.72 224.615 13.29C221.525 23.145 217.745 34.815 213.155 46.965C222.425 58.53 225.29 66.315 225.29 73.305C225.29 96.555 209.6 96.555 199.64 96.21C199.52 91.86 197.69 85.215 195.17 80.745V110.175H178.79V17.865C176.27 23.94 173.405 29.775 170.195 35.28H175.805V49.59H160.565C158.735 51.885 156.905 54.06 155.075 56.115H172.595V109.365H156.905V105.465H142.355V110.385H127.355V78.315C125.975 79.11 124.61 79.92 123.11 80.61C121.385 77.055 117.38 70.41 114.755 67.215C119.105 65.265 123.35 62.865 127.355 60.225V56.1H132.965C135.605 54.045 138.005 51.855 140.405 49.575H117.5V35.265H135.935V26.565H121.955V12.36H135.935V1.93503L154.61 2.97003C154.49 4.11003 153.575 4.92003 151.295 5.26503V12.36H161.15V20.49C162.98 16.71 164.585 12.81 165.965 8.80503L178.79 12.93V7.77003H211.655L215.09 7.20003L215.105 7.21502ZM156.92 74.325V69.165H142.37V74.325H156.92ZM142.37 92.31H156.92V86.7H142.37V92.31ZM151.31 35.28H152.57C154.52 32.535 156.35 29.55 157.955 26.58H151.31V35.28ZM195.17 23.37V80.175C197.915 80.4 200.33 80.4 201.92 80.4C207.65 80.4 208.79 77.76 208.79 72.495C208.79 66.885 205.7 60.69 196.31 49.815C199.295 40.2 201.8 31.38 203.87 23.355H195.17V23.37Z" fill="#F8EA21"/>
<path d="M259.76 39.285L268.925 41.805C268.805 42.72 268.46 43.755 268.01 44.445C266.75 59.34 264.35 72.27 260.795 82.935C271.22 90.27 284.96 91.755 300.545 91.875C308.675 91.875 331.235 91.875 340.97 91.41C338.45 95.19 335.705 102.87 334.67 107.67H300.08C281.645 107.67 266.405 105.6 254.27 97.365C251.06 102.87 247.175 107.445 242.705 110.88C240.185 107.67 233.765 101.835 230.225 99.765C235.265 96.21 239.27 91.635 242.48 85.8C238.235 79.965 234.575 72.63 231.605 63.465L244.55 58.995C245.81 62.895 247.295 66.21 248.9 69.195C250.04 64.62 250.955 59.58 251.645 54.075H247.07L245.93 56.715L230.93 52.935C235.4 43.2 240.44 31.635 244.445 21.78H231.395V7.35003H253.385L256.475 7.00502L265.745 10.095C265.4 10.89 264.95 11.925 264.485 12.735C261.74 19.83 257.615 29.685 253.37 39.645H257.03L259.775 39.3L259.76 39.285ZM291.365 23.94V21.3H272.585V8.92502H291.365V1.24503L310.835 2.28002C310.715 3.54002 309.8 4.33503 307.52 4.68003V8.92502H329.63V23.925H339.245V36.525H329.63V51.525H307.52V54.165H331.46V65.955H307.52V68.7H336.605V81.645H307.52V89.895H291.365V81.645H265.475V68.7H291.365V65.955H270.515V54.165H291.365V51.525H272.24V39.15H291.365V36.51H263.87V23.91H291.365V23.94ZM313.235 21.3H307.505V23.94H313.235V21.3ZM313.235 39.165V36.525H307.505V39.165H313.235Z" fill="#F8EA21"/>
<path d="M391.46 20.49V33.435H345.53V20.49H391.46ZM440.135 50.265L450.665 54.27C450.44 55.185 449.87 55.65 449.285 56.34C445.97 68.82 440.585 79.02 433.25 87.375C439.67 91.035 447.11 93.9 455.24 95.85C451.58 99.165 446.765 105.93 444.47 110.16C435.425 107.415 427.4 103.515 420.425 98.475C413.21 103.395 404.855 107.295 395.345 110.16C393.74 106.155 390.08 99.855 387.095 96.18V104.535H364.64V108.54H350.66V68.79H387.08V95.355C394.76 93.525 401.735 90.78 407.81 87.105C403.34 82.065 399.56 76.455 396.245 70.155L410.555 65.58H392.915V50.685H397.61C394.97 47.82 390.275 43.935 387.185 41.985V49.2H351.11V36.825H387.185V40.95C396.455 34.305 397.385 25.605 397.385 18.165V4.53H437.465V28.92C437.465 32.355 437.585 32.7 438.5 32.7H439.76C440.9 32.7 441.365 31.215 441.59 21.825C444.455 24.225 450.86 26.64 454.985 27.66C453.605 42.435 449.825 46.68 441.47 46.68H435.395C424.97 46.68 421.88 42.435 421.88 29.16V19.2H413.06C412.94 29.85 410.765 42.57 400.685 50.7H437.225L440.09 50.25L440.135 50.265ZM387.215 52.665V65.04H351.14V52.665H387.215ZM387.095 4.78501V17.16H351.47V4.78501H387.095ZM372.89 91.485V81.75H364.64V91.485H372.89ZM411.035 65.595C413.33 69.84 416.42 73.845 420.08 77.4C423.395 73.965 426.155 69.96 428.435 65.595H411.02H411.035Z" fill="#F8EA21"/>
<path d="M590.975 31.95H547.79C547.22 33.555 546.65 35.265 545.96 36.99H578.03V110.295H560.615V105.6H517.43V110.295H500.825V36.99H527.39C527.735 35.265 527.96 33.675 528.185 31.95H486.26V16.605H509.975C507.8 13.515 505.055 10.185 502.64 7.56001L518.105 0.570007C522.455 4.57501 527.15 10.08 529.67 14.085L524.855 16.605H547.415C550.73 12.03 554.285 5.95501 556.235 1.14001L577.76 7.09502C577.19 8.13002 576.05 8.58001 574.1 8.58001C572.39 11.1 570.2 13.965 567.92 16.59H590.945V31.935L590.975 31.95ZM560.63 55.89V51.315H517.445V55.89H560.63ZM517.445 68.37V73.41H560.63V68.37H517.445ZM517.445 91.275H560.63V85.89H517.445V91.275Z" fill="#F8EA21"/>
<path d="M678.469 81.075H662.779V23.01L654.184 35.04C652.354 33.21 650.059 31.26 647.434 29.205V34.815H621.544V30.69C619.144 33.09 616.504 35.385 613.639 37.68H657.394V75.705H621.094C620.974 76.74 620.749 77.76 620.524 78.795H659.344V109.95H644.914V107.205H629.569V110.19H615.709V95.76C613.879 100.23 611.584 104.46 608.719 108.135C606.544 105.39 600.589 99.885 597.724 98.175C607.684 84.885 608.719 66.225 608.719 53.16V41.37C607.804 42.06 606.889 42.63 605.854 43.32C604.249 39.54 600.019 33.24 597.154 30.495C610.894 22.365 620.284 11.37 625.564 1.51501L643.429 4.95002C643.084 6.09002 642.049 6.90001 640.339 6.90001L640.219 7.02001C648.574 11.595 657.289 17.79 662.779 22.26V15.615L681.784 16.65C681.664 17.91 680.749 18.6 678.469 19.05V81.12V81.075ZM622.354 64.47H642.634V61.38H622.594L622.369 64.47H622.354ZM642.634 49.005H622.819V51.87H642.634V49.005ZM640.234 23.925C637.594 22.095 634.969 20.37 632.329 18.66C630.949 20.49 629.584 22.215 627.979 23.925H640.234ZM644.929 90.465H629.584V95.505H644.929V90.465ZM687.529 3.88501L707.119 4.68002C706.894 5.94002 706.084 6.85502 703.684 7.20002V90.93C703.684 105.135 700.129 110.175 674.824 110.175C674.254 105.48 671.839 97.92 669.559 93.105C675.859 93.45 682.504 93.45 684.799 93.45C686.749 93.45 687.544 92.76 687.544 90.81V3.88501H687.529Z" fill="#F8EA21"/>
<path d="M746.03 46.95L757.595 52.44C757.25 53.355 756.56 54.165 755.645 54.615C750.485 76.155 739.835 94.02 726.095 103.515C723.35 99.96 716.585 93.555 712.58 91.035C722.435 85.08 730.325 75.225 735.14 63.21H715.67V47.52H743.165L746.03 46.95ZM776.495 32.865C778.55 39.96 781.07 46.725 784.175 53.025C791.27 47.19 798.95 39.735 803.99 33.21L821.06 46.95C820.49 47.52 819.335 47.865 818.075 47.865C817.61 47.865 817.16 47.865 816.695 47.745C810.62 53.475 800.66 61.26 792.53 66.42C800.21 76.38 809.945 84.285 822.53 89.22C818.63 92.655 813.245 99.645 810.62 104.445C795.5 97.23 784.625 86.355 776.495 72.375V92.535C776.495 107.43 769.97 110.4 747.17 110.4C746.48 105.705 744.08 98.595 741.785 94.365C747.05 94.71 754.505 94.71 756.44 94.71C758.495 94.59 759.185 94.02 759.185 92.31V42.84H732.035V26.925H772.115C762.5 22.68 749.9 18.33 740.165 15.81L748.19 0.690002C760.91 3.33 780.485 9.39001 790.22 14.43L781.52 31.605C780.035 30.81 778.43 29.88 776.48 28.965V32.865H776.495Z" fill="#F8EA21"/>
<path d="M897.56 17.4L909.59 23.58C909.125 24.615 908.33 25.53 907.295 25.98C904.655 35.715 901.22 44.88 897.095 53.355C904.535 71.445 918.395 87.255 937.415 95.28C933.41 98.835 927.8 105.93 925.04 110.625C907.97 102.03 895.715 88.41 886.55 71.115C874.07 88.98 857.69 102.615 839.255 110.745C837.08 106.395 831.47 98.49 827.69 95.28C854.495 84.855 875.675 64.35 886.22 35.04H864.92C858.275 47.295 850.145 58.17 840.98 66.195C837.89 62.76 831.365 57.03 827.24 54.165C841.55 43.29 853.355 22.665 859.19 1.48502L879.8 7.32001C879.335 8.35501 877.97 9.15001 876.14 8.92501C875.105 12.015 873.965 15.105 872.705 18.195H894.575L897.56 17.4Z" fill="#F8EA21"/>
<path d="M1049.87 71.235H1029.37C1035.79 80.16 1044.61 88.53 1053.53 93.795C1049.75 96.885 1044.37 102.96 1041.74 107.085C1034.53 101.595 1027.54 93.69 1021.7 84.87V110.295H1004.98V85.56C998.795 94.155 991.46 101.475 983.555 106.74C981.035 102.735 975.875 96.78 972.215 93.57V110.295H956.06V54.855C953.42 58.41 950.795 61.845 948.05 64.815C946.565 60.69 942.56 51.87 940.37 47.745C949.88 37.665 959.72 19.335 965.57 1.69501L983.78 7.99501C983.09 9.13501 981.83 9.60001 980.225 9.48001C977.48 16.47 974.27 23.685 970.715 30.555L975.53 31.815C975.305 32.955 974.27 33.87 972.215 34.11V93.33C981.605 88.41 990.77 80.16 997.295 71.22H976.685V56.22H1004.98V47.52H983.78V6.28502H1044.71V47.52H1021.69V56.22H1049.86V71.22L1049.87 71.235ZM999.47 20.835V32.97H1028.11V20.835H999.47Z" fill="#F8EA21"/>
<path d="M1163.95 25.65H1155.7C1152.83 31.38 1149.05 36.525 1144.58 40.995C1151.35 43.86 1159.01 46.155 1167.71 47.415C1164.73 50.505 1160.62 56.685 1158.67 60.705C1148.81 58.53 1140.11 54.975 1132.78 50.52C1125.56 55.095 1117.21 58.65 1108.04 61.29C1106.66 58.89 1103.92 54.99 1101.4 52.005V91.065H1087.09V18.57C1085.6 22.35 1084.1 26.01 1082.51 29.685L1086.41 30.945C1086.07 31.98 1085.03 32.895 1083.1 33.24V110.67H1067.29V57.87C1065.34 60.735 1063.39 63.375 1061.45 65.775C1060.19 61.53 1056.64 52.035 1054.7 47.91C1062.95 37.71 1071.2 19.395 1076.12 1.75502L1093.99 7.71002C1093.52 8.74502 1092.38 9.31502 1090.55 9.19502L1087.81 16.875L1104.53 17.79C1104.41 18.93 1103.62 19.74 1101.44 20.085V27.99C1108.09 21 1113.7 11.265 1116.79 1.42502L1133.62 6.24003C1133.27 7.27503 1132.13 7.84503 1130.53 7.72503C1129.96 9.33003 1129.27 11.04 1128.47 12.645H1163.98V25.695L1163.95 25.65ZM1101.41 48.675C1108.4 46.95 1114.81 44.55 1120.54 41.46C1118.24 39.405 1116.19 37.215 1114.36 35.04C1112.41 37.335 1110.35 39.39 1108.28 41.22C1106.56 39.615 1104.05 37.44 1101.41 35.49V48.66V48.675ZM1167.61 84.06C1167.14 84.975 1166.12 85.545 1164.29 85.545C1152.61 98.145 1133.03 105.48 1110.01 109.83C1108.28 105.825 1104.85 100.32 1101.65 96.885C1121.92 94.245 1141.28 88.53 1150.9 78.21L1167.62 84.045L1167.61 84.06ZM1146.53 60.015C1146.19 60.81 1145.27 61.275 1143.89 61.275C1137.37 66.885 1126.15 72.15 1115.48 75.48C1113.53 72.495 1109.99 68.61 1106.89 66.09C1116.16 63.915 1127.05 59.565 1132.54 54.87L1146.52 60.03L1146.53 60.015ZM1157.75 69.975C1157.41 70.77 1156.49 71.235 1155.01 71.355C1146.31 79.83 1131.07 86.595 1115.03 90.6C1113.31 87.39 1110.11 83.04 1107.25 80.295C1121.45 77.655 1136.45 72.285 1143.89 64.95L1157.75 69.99V69.975ZM1122.59 25.65C1124.99 28.395 1127.98 31.155 1131.53 33.66C1134.17 31.26 1136.45 28.62 1138.4 25.65H1122.59Z" fill="#F8EA21"/>
</svg>
