<?xml version="1.0" encoding="utf-8"?>
<!-- Generator: Adobe Illustrator 27.0.0, SVG Export Plug-In . SVG Version: 6.00 Build 0)  -->
<svg version="1.1" id="_圖層_2" xmlns="http://www.w3.org/2000/svg" xmlns:xlink="http://www.w3.org/1999/xlink" x="0px" y="0px"
	 viewBox="0 0 65.2 26.9" style="enable-background:new 0 0 65.2 26.9;" xml:space="preserve">
<style type="text/css">
	.st0{fill:#FFFFFF;}
</style>
<g id="_圖層_1-2">
	<g>
		<g>
			<path class="st0" d="M23.1,1.3v2.1h-15V1.3h6.1V0l3,0.2c0,0.2-0.1,0.3-0.5,0.3v0.8H23.1L23.1,1.3z M22.5,13.5
				c0,1.1-0.2,1.7-0.9,2c-0.7,0.4-1.6,0.4-2.7,0.4c-0.1-0.4-0.2-0.8-0.3-1.3h-4.2v0.7h-2.1v-4.6h6.4v2.9c0.4,0,0.8,0,1,0
				c0.2,0,0.3-0.1,0.3-0.2v-3.2h-8.9V16H8.8V8.2h13.7C22.5,8.2,22.5,13.5,22.5,13.5z M10.9,3.8h9.3l0,3.8h-9.3V3.8z M17.8,5.4h-4.5
				v0.7h4.5V5.4z M16.7,12.4h-2.2v0.7h2.2V12.4z M20.2,3.8L20.2,3.8L20.2,3.8L20.2,3.8L20.2,3.8z"/>
			<path class="st0" d="M29.2,7.3c0.5,0.4,2,1.9,2.3,2.3l-1.4,1.9c-0.2-0.4-0.5-1.1-0.9-1.7V16h-2.4v-5.3c-0.4,1.1-0.9,2.1-1.5,2.8
				c-0.2-0.7-0.7-1.7-1.1-2.3c0.8-1,1.6-2.6,2.1-4.1h-1.8V4.8h2.3V3.3c-0.6,0.2-1.2,0.3-1.8,0.4c-0.1-0.5-0.4-1.3-0.7-1.8
				c1.9-0.4,4-1.1,5.3-1.9l1.9,1.7c-0.1,0.1-0.3,0.1-0.5,0.1c-0.5,0.2-1.2,0.5-1.8,0.7v2.2H31v2.3h-1.9V7.3L29.2,7.3z M40.3,11.4
				l-1.9,0.4V16h-2.5v-3.7l-4.6,0.8l-0.4-2.3l5-0.9V0.1l3,0.2c0,0.2-0.2,0.3-0.5,0.4v8.8l1.6-0.3L40.3,11.4L40.3,11.4z M33.9,9.5
				c-0.5-0.8-1.6-1.9-2.5-2.7L33,5.4c0.9,0.7,2.1,1.8,2.7,2.6L33.9,9.5L33.9,9.5z M33.3,1c0.9,0.8,2,1.9,2.5,2.7l-1.9,1.5
				c-0.4-0.8-1.5-2-2.3-2.8C31.6,2.3,33.3,1,33.3,1z"/>
			<path class="st0" d="M47.1,7.2l0.2,2.1c-0.6,0.2-1.1,0.4-1.7,0.5v3.6c0,1.9-0.6,2.5-3.5,2.5c-0.1-0.6-0.4-1.6-0.7-2.2
				c0.6,0,1.3,0,1.5,0c0.2,0,0.3-0.1,0.3-0.3v-2.9c-0.4,0.1-0.8,0.2-1.2,0.3c0,0.2-0.2,0.3-0.3,0.3L41,8.4c0.6-0.1,1.4-0.2,2.2-0.4
				V5.3h-1.9V3h1.9V0l2.9,0.1c0,0.2-0.2,0.3-0.5,0.4V3h1.6v2.2h-1.6v2.2L47.1,7.2L47.1,7.2z M54.9,6.3L56.5,7c0,0.1-0.1,0.2-0.2,0.3
				c-0.5,2-1.4,3.7-2.6,5c1,0.7,2.2,1.2,3.5,1.6c-0.5,0.5-1.2,1.4-1.6,2.1c-1.4-0.5-2.7-1.2-3.8-2c-1.2,0.9-2.7,1.5-4.3,2
				c-0.2-0.6-0.8-1.6-1.3-2.1c1.5-0.4,2.8-0.9,3.9-1.6c-0.7-0.9-1.3-1.9-1.8-3.1l1.6-0.5h-2.4V6.4h3.2V4.6h-3.3V2.4h3.3V0l3,0.2
				c0,0.2-0.2,0.3-0.5,0.4v1.8h3.7v2.2h-3.7v1.8h1.4L54.9,6.3L54.9,6.3z M50.5,8.6c0.3,0.7,0.8,1.4,1.3,2c0.5-0.6,1-1.3,1.4-2H50.5z
				"/>
		</g>
		<g>
			<path class="st0" d="M12.1,21.9h-1.5v4.9H9.5v-4.9H8.1v-1h4V21.9z"/>
			<path class="st0" d="M16.1,26.8h-3.3v-5.9h3.2v1h-2v1.4h1.9v0.9h-1.9v1.6h2.2C16.1,25.9,16.1,26.8,16.1,26.8z"/>
			<path class="st0" d="M20.7,26.7c-0.2,0.1-0.7,0.2-1.3,0.2c-1.8,0-2.8-1.2-2.8-3c0-2.1,1.3-3.1,2.9-3.1c0.6,0,1,0.1,1.2,0.2
				L20.5,22c-0.2-0.1-0.5-0.2-0.9-0.2c-1,0-1.8,0.7-1.8,2.1c0,1.3,0.7,2,1.8,2c0.4,0,0.7-0.1,1-0.2L20.7,26.7L20.7,26.7z"/>
			<path class="st0" d="M25.8,26.8h-1.1v-2.5h-2v2.5h-1.1v-5.9h1.1v2.4h2v-2.4h1.1C25.8,20.9,25.8,26.8,25.8,26.8z"/>
			<path class="st0" d="M31.2,26.8h-1.1l-1.3-2.4c-0.3-0.6-0.7-1.3-0.9-2h0c0,0.7,0.1,1.5,0.1,2.6v1.8h-1v-5.9h1.2l1.2,2.4
				c0.3,0.6,0.6,1.3,0.9,1.9h0c-0.1-0.8-0.1-1.6-0.1-2.5v-1.8h1L31.2,26.8L31.2,26.8z"/>
			<path class="st0" d="M37.1,23.8c0,2-1,3.1-2.5,3.1c-1.6,0-2.4-1.3-2.4-3s1-3.1,2.5-3.1C36.3,20.8,37.1,22.2,37.1,23.8L37.1,23.8z
				 M33.3,23.9c0,1.2,0.5,2.1,1.3,2.1s1.3-0.9,1.3-2.1c0-1.1-0.4-2.1-1.3-2.1S33.3,22.8,33.3,23.9L33.3,23.9z"/>
			<path class="st0" d="M41.2,26.8h-3.2v-5.9h1.1v4.9h2.1V26.8z"/>
			<path class="st0" d="M46.6,23.8c0,2-1,3.1-2.5,3.1c-1.6,0-2.4-1.3-2.4-3s1-3.1,2.5-3.1C45.8,20.8,46.6,22.2,46.6,23.8L46.6,23.8z
				 M42.8,23.9c0,1.2,0.5,2.1,1.3,2.1s1.3-0.9,1.3-2.1c0-1.1-0.4-2.1-1.3-2.1S42.8,22.8,42.8,23.9L42.8,23.9z"/>
			<path class="st0" d="M51.7,26.6c-0.3,0.1-1,0.3-1.7,0.3c-0.9,0-1.6-0.2-2.1-0.7c-0.5-0.5-0.8-1.3-0.8-2.2c0-2,1.3-3.1,3-3.1
				c0.6,0,1.1,0.1,1.4,0.2L51.3,22c-0.3-0.1-0.6-0.2-1.1-0.2c-1,0-1.8,0.6-1.8,2.1s0.7,2,1.7,2c0.3,0,0.5,0,0.6-0.1v-1.4h-0.8v-0.9
				h1.9L51.7,26.6L51.7,26.6z"/>
			<path class="st0" d="M56.7,20.9L55,24.4v2.4h-1.1v-2.4l-1.7-3.5h1.3l0.6,1.5c0.2,0.4,0.3,0.8,0.4,1.2h0c0.1-0.4,0.3-0.8,0.4-1.2
				l0.6-1.4L56.7,20.9L56.7,20.9z"/>
		</g>
	</g>
</g>
</svg>
