<?xml version="1.0" encoding="utf-8"?>
<!-- Generator: Adobe Illustrator 27.0.0, SVG Export Plug-In . SVG Version: 6.00 Build 0)  -->
<svg version="1.1" id="_圖層_2" xmlns="http://www.w3.org/2000/svg" xmlns:xlink="http://www.w3.org/1999/xlink" x="0px" y="0px"
	 viewBox="0 0 65.2 26.9" style="enable-background:new 0 0 65.2 26.9;" xml:space="preserve">
<style type="text/css">
	.st0{fill:#FFFFFF;}
</style>
<g id="_圖層_1-2">
	<g>
		<g>
			<path class="st0" d="M28.3,4.2c1.3,0.9,3,2.2,3.9,3.2L30,9.1c-0.2-0.3-0.6-0.7-1-1c-0.1,0.1-0.2,0.2-0.5,0.2
				c-0.6,1.3-1.3,2.4-2.2,3.3c1.6,1.1,3.6,1.8,6.1,2.1c-0.5,0.6-1.3,1.6-1.6,2.3c-2.7-0.5-4.8-1.4-6.5-2.7c-1.8,1.2-3.9,2.1-6.4,2.7
				c-0.3-0.6-1-1.7-1.4-2.2c2.4-0.4,4.4-1.2,6-2.3c-0.8-1-1.5-2.2-2.1-3.6c-0.6,0.5-1.2,0.9-1.8,1.3c-0.5-0.5-1.3-1.4-1.9-1.8
				c1.5-0.7,3.1-2,4-3.2H17V1.8h6.2V0l3,0.2c0,0.2-0.1,0.3-0.5,0.3v1.3h6.2v2.4C31.9,4.2,28.3,4.2,28.3,4.2z M21,4.2l2.6,1.1
				c-0.1,0.1-0.2,0.2-0.4,0.2c0,0-0.1,0-0.2,0c-0.7,0.7-1.5,1.5-2.4,2.3l2.1-0.6c0.4,1,1,2,1.7,2.8c0.7-0.8,1.3-1.7,1.7-2.8L29,7.9
				c-0.9-0.9-2.1-1.8-3.1-2.6l1.6-1.2L21,4.2L21,4.2z"/>
			<path class="st0" d="M37.6,6.5v5.4c0.8,1.6,2.5,1.6,5.7,1.6c2,0,4.4-0.1,6.1-0.2c-0.3,0.6-0.6,1.7-0.8,2.4
				c-1.3,0.1-3.1,0.1-4.8,0.1c-4.1,0-5.9,0-7.3-1.9c-0.7,0.6-1.5,1.2-2.1,1.7c0,0.2-0.1,0.3-0.3,0.4l-1.2-2.6
				c0.7-0.4,1.5-0.8,2.2-1.3V8.8h-2V6.5C33.3,6.5,37.6,6.5,37.6,6.5z M35.2,0.4c1,0.7,2.4,1.7,3,2.5l-1.8,1.8
				c-0.5-0.8-1.8-1.9-2.8-2.7L35.2,0.4L35.2,0.4z M41.1,10.6v2.4h-2.3V4.2H42c-0.6-0.2-1.2-0.5-1.7-0.7l1.5-1.2h-2.7V0.5h7.5L47,0.4
				l1.7,1.1c-0.1,0.1-0.2,0.2-0.5,0.2c-0.7,0.6-1.6,1.4-2.7,2.1c0.3,0.2,0.6,0.3,0.9,0.4h2v6.7c0,1.7-0.6,2.1-3,2.1
				c-0.1-0.6-0.3-1.4-0.6-1.9c0.4,0,0.9,0,1.1,0c0.2,0,0.2-0.1,0.2-0.6h-1.5v2.3h-2.2v-2.3L41.1,10.6L41.1,10.6z M42.6,6h-1.4v0.6
				h1.4V6z M41.1,8.8h1.4V8.2h-1.4V8.8z M42.1,2.3c0.5,0.2,1,0.4,1.6,0.6c0.3-0.2,0.6-0.4,0.8-0.6H42.1z M46.2,6h-1.5v0.6h1.5V6z
				 M44.7,8.8h1.5V8.2h-1.5V8.8z"/>
		</g>
		<g>
			<path class="st0" d="M4.5,21.9H3.1v4.9H1.9v-4.9H0.5v-1h4V21.9z"/>
			<path class="st0" d="M7.9,24c0.4,0.2,0.6,0.6,0.8,1.2c0.2,0.7,0.3,1.4,0.4,1.6H8c-0.1-0.2-0.2-0.7-0.4-1.4c-0.2-0.8-0.4-1-0.9-1
				H6.3v2.4H5.2V21c0.4-0.1,0.9-0.1,1.5-0.1C7.5,20.9,9,21,9,22.6C9,23.3,8.5,23.8,7.9,24L7.9,24L7.9,24z M6.8,23.6
				c0.6,0,1-0.4,1-0.9c0-0.8-0.6-0.9-1-0.9c-0.2,0-0.4,0-0.5,0v1.8L6.8,23.6L6.8,23.6z"/>
			<path class="st0" d="M14.2,26.8H13l-0.4-1.5H11l-0.4,1.5H9.5l1.7-5.9h1.4L14.2,26.8L14.2,26.8z M12.4,24.4l-0.4-1.3
				c-0.1-0.4-0.2-0.8-0.3-1.2h0c-0.1,0.4-0.2,0.9-0.3,1.2l-0.4,1.4L12.4,24.4L12.4,24.4z"/>
			<path class="st0" d="M19.3,26.8h-1.1l-1.3-2.4c-0.3-0.6-0.7-1.3-0.9-2h0C16,23.1,16,23.9,16,25v1.8h-1v-5.9h1.2l1.2,2.4
				c0.3,0.6,0.6,1.3,0.9,1.9h0c-0.1-0.8-0.1-1.6-0.1-2.5v-1.8h1L19.3,26.8L19.3,26.8z"/>
			<path class="st0" d="M23.3,22c-0.2-0.1-0.6-0.2-1-0.2c-0.6,0-0.9,0.3-0.9,0.6c0,0.4,0.3,0.6,1,0.9c0.9,0.4,1.4,1,1.4,1.7
				c0,1-0.8,1.8-2.1,1.8c-0.6,0-1.2-0.2-1.5-0.3l0.2-1c0.3,0.2,0.8,0.3,1.3,0.3c0.6,0,1-0.3,1-0.7s-0.3-0.7-0.9-1
				c-0.9-0.4-1.4-0.9-1.4-1.7c0-1,0.8-1.7,2-1.7c0.6,0,1,0.1,1.3,0.3L23.3,22L23.3,22z"/>
			<path class="st0" d="M24.6,21c0.4-0.1,0.9-0.1,1.5-0.1c0.7,0,1.3,0.1,1.7,0.5c0.4,0.3,0.6,0.8,0.6,1.3c0,1.6-1.4,2-2.2,2
				c-0.2,0-0.3,0-0.4,0v2.2h-1.1L24.6,21L24.6,21z M25.8,23.7c0.1,0,0.2,0,0.4,0c0.7,0,1.1-0.4,1.1-1s-0.4-1-1-1c-0.2,0-0.4,0-0.5,0
				V23.7L25.8,23.7z"/>
			<path class="st0" d="M33.9,23.8c0,2-1,3.1-2.5,3.1c-1.6,0-2.4-1.3-2.4-3s1-3.1,2.5-3.1C33.1,20.8,33.9,22.2,33.9,23.8L33.9,23.8z
				 M30.1,23.9c0,1.2,0.5,2.1,1.3,2.1c0.8,0,1.3-0.9,1.3-2.1c0-1.1-0.4-2.1-1.3-2.1C30.6,21.8,30.1,22.8,30.1,23.9L30.1,23.9z"/>
			<path class="st0" d="M37.5,24c0.4,0.2,0.6,0.6,0.8,1.2c0.2,0.7,0.3,1.4,0.4,1.6h-1.2c-0.1-0.2-0.2-0.7-0.4-1.4
				c-0.2-0.8-0.4-1-0.9-1h-0.4v2.4h-1.1V21c0.4-0.1,0.9-0.1,1.5-0.1c0.7,0,2.2,0.1,2.2,1.7C38.5,23.3,38.1,23.8,37.5,24L37.5,24
				L37.5,24z M36.3,23.6c0.6,0,1-0.4,1-0.9c0-0.8-0.6-0.9-1-0.9c-0.2,0-0.4,0-0.5,0v1.8L36.3,23.6L36.3,23.6z"/>
			<path class="st0" d="M43,21.9h-1.5v4.9h-1.1v-4.9H39v-1h4V21.9z"/>
			<path class="st0" d="M47.8,26.8h-1.2l-0.4-1.5h-1.6l-0.4,1.5h-1.2l1.7-5.9h1.4L47.8,26.8L47.8,26.8z M46.1,24.4l-0.3-1.3
				c-0.1-0.4-0.2-0.8-0.3-1.2h0c-0.1,0.4-0.2,0.9-0.3,1.2l-0.3,1.4L46.1,24.4L46.1,24.4z"/>
			<path class="st0" d="M52,21.9h-1.5v4.9h-1.1v-4.9h-1.5v-1h4V21.9z"/>
			<path class="st0" d="M52.6,20.9h1.1v5.9h-1.1V20.9z"/>
			<path class="st0" d="M59.6,23.8c0,2-1,3.1-2.5,3.1c-1.6,0-2.4-1.3-2.4-3s1-3.1,2.5-3.1C58.8,20.8,59.6,22.2,59.6,23.8L59.6,23.8z
				 M55.8,23.9c0,1.2,0.5,2.1,1.3,2.1s1.3-0.9,1.3-2.1c0-1.1-0.4-2.1-1.3-2.1S55.8,22.8,55.8,23.9L55.8,23.9z"/>
			<path class="st0" d="M64.7,26.8h-1.1l-1.3-2.4c-0.3-0.6-0.7-1.3-0.9-2h0c0,0.7,0.1,1.5,0.1,2.6v1.8h-1v-5.9h1.2l1.2,2.4
				c0.3,0.6,0.6,1.3,0.9,1.9h0c-0.1-0.8-0.1-1.6-0.1-2.5v-1.8h1L64.7,26.8L64.7,26.8z"/>
		</g>
	</g>
</g>
</svg>
