<svg width="597" height="49" viewBox="0 0 597 49" fill="none" xmlns="http://www.w3.org/2000/svg">
<path d="M8.47012 22.97C4.14012 20.56 1.85012 16.66 1.85012 12.69C1.85012 4.95 8.23012 0 16.3401 0C25.6301 0 30.0201 5.88001 30.0201 11.76C30.0201 15.54 27.9201 19.68 23.1501 22.28V22.4C27.7301 24.5 31.5101 28.53 31.5101 34.35C31.5101 42.71 24.9501 48.22 15.6601 48.22C5.69012 48.22 0.370117 42.09 0.370117 35.41C0.370117 29.65 3.77012 25.51 8.48012 23.15V22.96L8.47012 22.97ZM22.3401 35.1C22.3401 30.52 19.2401 27.61 15.1601 26.25C11.6301 27.55 9.53012 30.83 9.53012 34.55C9.53012 38.51 11.9401 41.98 15.9101 41.98C19.8801 41.98 22.3501 38.76 22.3501 35.11L22.3401 35.1ZM10.4501 12.26C10.4501 15.85 13.0501 18.33 16.7001 19.69C19.3001 18.64 21.4701 15.73 21.4701 12.57C21.4701 9.41001 19.9201 6.13 16.0201 6.13C12.1201 6.13 10.4501 9.29001 10.4501 12.26Z" fill="white"/>
<path d="M80.7503 20.69H63.3603C66.2203 30.72 71.8403 38.32 81.8103 41.66C80.4103 42.92 78.5203 45.53 77.6003 47.23C68.3003 43.6 62.7803 36.91 59.2403 27.57C56.5803 35.51 51.3503 42.63 40.7903 47.28C39.9203 45.63 38.1703 43.5 36.5303 42.2C48.3503 37.41 52.9003 29.56 54.5903 20.7H37.4403V14.69H55.4103C55.7503 10.38 55.7003 5.96999 55.7503 1.60999L63.4503 2.08998C63.3503 2.61998 62.9203 2.95999 62.0903 3.10999C62.0403 6.83999 61.9903 10.76 61.6503 14.69H80.7303V20.7L80.7503 20.69Z" fill="white"/>
<path d="M102.49 22.58L103.07 27.5701C101.33 28.1501 99.5802 28.7301 97.8402 29.2701V40.9901C97.8402 46.2201 95.8502 47.19 88.3002 47.19C88.1102 45.74 87.3802 43.36 86.6502 41.86C88.5402 41.96 90.5702 41.9601 91.2002 41.9601C91.8802 41.9101 92.1202 41.7201 92.1202 41.0401V31.0101L87.8102 32.3201C87.7602 32.8001 87.3702 33.09 86.9902 33.19L85.2002 26.6001C87.0902 26.2101 89.4602 25.68 92.1302 25.05V15.9901H85.9302V10.61H92.1302V1.60005L99.1502 1.89005C99.1002 2.42005 98.7602 2.71005 97.8402 2.86005V10.61H102.68V15.9901H97.8402V23.69L102.49 22.58ZM110.24 14.73C110.24 16.57 110.72 16.81 113.73 16.81H122.64C125.16 16.81 125.59 16.0401 125.93 11.2401C127.14 12.0601 129.56 12.9801 131.16 13.2701C130.43 20.2 128.74 21.9901 123.12 21.9901H113.19C106.31 21.9901 104.47 20.3401 104.47 14.7701V1.55005L111.54 1.94005C111.49 2.38005 111.1 2.71004 110.23 2.81004V7.99005C115.22 6.78005 120.3 5.18005 123.6 3.63005L128.1 8.04005C127.91 8.23005 127.52 8.23004 126.89 8.23004C122.63 9.97004 116.14 11.57 110.23 12.73V14.72L110.24 14.73ZM105.25 47.28V24.86H128.11V46.9901H122.35V45.34H110.73V47.28H105.26H105.25ZM122.35 29.75H110.73V32.75H122.35V29.75ZM110.73 40.5H122.35V37.3501H110.73V40.5Z" fill="white"/>
<path d="M146.9 19.3301C148.26 21.2201 151.89 26.8901 152.66 28.2401L149.66 32.4101C149.08 30.8601 147.96 28.5801 146.9 26.4001V47.2301H141.62V28.8301C140.36 32.6601 138.86 36.0901 137.16 38.5601C136.63 36.9601 135.42 34.7301 134.59 33.4301C137.35 29.6001 139.92 22.8701 141.18 17.0601H135.71V11.6801H141.62V1.56006L148.16 1.95006C148.11 2.39006 147.77 2.68007 146.9 2.82007V11.6801H151.74V17.0601H146.9V19.3401V19.3301ZM161.87 38.6101C161.77 38.9001 161.39 39.0501 160.85 39.0001C159.2 41.3201 156.35 44.2801 153.63 46.1701C152.81 45.0601 151.26 43.5501 150.05 42.6301C152.62 40.9801 155.28 38.2201 156.83 35.8501L161.87 38.6101ZM180.66 35.4601H168.94V42.1401C168.94 46.7401 166.95 47.3201 160.8 47.3201C160.61 45.8701 159.88 43.9801 159.25 42.6201C160.17 42.6701 161.09 42.7201 161.82 42.7201C163.47 42.7201 163.56 42.6201 163.56 42.0901V35.4601H151.94V30.8101H180.66V35.4601ZM160.37 10.4701V8.19006H152.19V3.59006H180.57V8.19006H172.05V10.4701H179.31V22.9201H153.59V10.4701H160.37ZM178.05 28.8701H155.09V24.6601H178.05V28.8701ZM158.34 14.6801V18.7001H160.91V14.6801H158.34ZM167.54 14.6801H164.83V18.7001H167.54V14.6801ZM167.54 10.4701V8.19006H164.88V10.4701H167.54ZM176.69 46.1601C175.48 44.1301 172.72 40.9301 170.44 38.6501L174.56 35.9401C176.88 38.0701 179.74 41.0301 181.05 43.1101L176.69 46.1601ZM174.32 18.7001V14.6801H171.46V18.7001H174.32Z" fill="white"/>
<path d="M237.46 18.51L240.32 18.66C240.32 19.1 240.27 19.77 240.27 20.36C239.88 37.31 239.5 43.22 238.28 45.06C237.31 46.42 236.2 47.29 232.13 47.29C231.55 47.29 230.97 47.29 230.39 47.24C230.34 46.17 230.05 44.72 229.57 43.51L228.8 43.85C228.7 43.46 228.61 43.03 228.46 42.59C222.89 43.17 217.27 43.66 213.64 43.95C213.54 44.39 213.2 44.58 212.82 44.63L211.51 39.35C213.88 39.3 216.93 39.2 220.28 39.06V35.96H213.45V28.6L212.97 29.04C212.29 28.07 210.84 26.33 209.77 25.31C209.82 26.23 209.82 27.2 209.82 28.17C209.82 36.65 209.48 45.8 204.25 46.86C202.51 47.3 200.57 47.34 198.54 47.25C198.54 45.41 198.1 43.33 197.14 41.68C198.25 41.78 199.22 41.78 200 41.78C201.7 41.78 202.42 41.73 203.05 40.91C203.97 39.7 204.36 34.9 204.41 29.4799C202.67 31.7599 200.78 33.84 198.99 35.39C198.12 33.99 196.52 32.1 195.21 31.03C198.41 28.9 201.94 24.93 204.07 21.15C203.88 19.5 203.54 17.9 203.1 16.36C201.84 17.62 200.53 18.83 199.23 19.9C198.31 18.74 196.52 17.0399 195.31 16.1199C197.2 14.7199 199.09 12.88 200.83 10.89C199.62 8.85995 198.02 6.81996 195.94 4.87996L199.96 1.82996C201.66 3.37996 203.06 4.92995 204.22 6.47995C205.19 5.02995 206.06 3.52996 206.79 2.06996L212.5 4.82996V3.37996H239.77V15.63H221.37L222.77 16.07C222.62 16.51 222.19 16.65 221.51 16.6C221.22 17.28 220.93 17.91 220.59 18.59H236.38L237.49 18.54L237.46 18.51ZM212.47 15.6V4.98996C212.23 5.27996 211.84 5.37996 211.36 5.32996C210.25 7.35996 208.79 9.53996 207.15 11.63C208.99 15.8 209.57 20.11 209.77 24.66C212.19 22.53 214.47 19.09 215.97 15.6H212.48H212.47ZM220.27 23.3H217.8C217.17 24.27 216.44 25.24 215.72 26.11H220.27V23.3ZM217.36 7.60995V11.29H220.17V7.60995H217.36ZM217.6 32.5H220.26V29.5H217.6V32.5ZM224.48 7.60995V11.29H227.39V7.60995H224.48ZM231.7 42.53C232.81 42.53 233.1 42.53 233.64 41.76C234.37 40.69 234.75 36.14 235 23.31H225.8C225.7 23.65 225.36 23.89 224.69 23.99V26.1199H231.91V35.95H230.12C231.23 37.94 232.25 40.36 232.69 42.1L231.72 42.54L231.7 42.53ZM224.68 29.5V32.5H227.49V29.5H224.68ZM224.68 38.8L226.96 38.7C226.67 38.07 226.38 37.49 226.09 36.96L228.51 35.94H224.68V38.8ZM231.65 7.60995V11.29H234.65V7.60995H231.65Z" fill="white"/>
<path d="M274.46 19.5301C275.19 21.7101 276.06 23.7401 277.08 25.6801C279.55 24.0301 282.21 22.0501 284.01 20.3501L289.1 24.9501C288.91 25.1401 288.52 25.2401 288.13 25.2401C287.98 25.2401 287.79 25.2401 287.6 25.1901C285.71 26.5901 282.61 28.5301 279.95 30.0301C282.86 33.7601 286.58 36.6701 291.28 38.4101C289.97 39.5701 288.23 41.8501 287.36 43.4501C278.26 39.4301 272.88 31.2901 269.68 20.7801C268.37 21.7001 266.97 22.5201 265.47 23.3501C271.72 27.7601 274.24 33.4201 274.24 38.0701C274.24 43.6401 270.7 47.3701 265.13 47.3701C263.97 47.3701 262.61 47.3201 261.26 47.2701C261.16 45.7201 260.73 43.4401 259.71 41.7501C261.36 41.9401 262.81 41.9901 263.97 41.9901C265.13 41.9901 266.15 41.8401 266.88 41.0701C267.8 40.4401 268.33 39.1301 268.33 37.4401C268.33 36.8601 268.28 36.2301 268.14 35.6001C262.81 39.6701 255.45 43.4901 249.15 45.6301C248.47 44.2301 247.26 42.0901 246.1 40.8401C253.03 39.1001 261.26 35.0801 266.05 31.0601C265.76 30.6201 265.42 30.1901 265.03 29.7501C260.91 32.4601 255.15 35.2201 250.6 36.8701C249.97 35.5601 248.76 33.5801 247.69 32.4601C252.24 31.3501 258.1 29.0201 261.88 26.7001C261.44 26.3601 260.96 26.0201 260.48 25.6801C257.24 27.0401 253.75 28.1501 250.41 28.9701C249.83 27.8601 248.52 25.6801 247.7 24.6101C252.88 23.5401 258.35 21.8001 262.76 19.5201H254.96V14.5801H280.92V19.5201H274.48L274.46 19.5301ZM253.15 11.6401V17.3101H247.48V6.36006H264.92V1.57007L272.23 1.96007C272.18 2.44007 271.84 2.73007 270.92 2.88007V6.37006H288.74V17.3201H282.78V11.6501H253.14L253.15 11.6401Z" fill="white"/>
<path d="M320.46 33.38V40.69C322.2 40.88 324.09 40.9799 326.03 40.9799C328.65 40.9799 336.73 40.98 340.03 40.83C339.16 42.23 338.24 45 337.95 46.74H325.75C316.65 46.74 309.96 45.24 305.51 38.22C303.91 42 301.73 45.19 298.83 47.47C297.86 46.4 295.68 44.52 294.37 43.64C299.46 40.01 301.93 32.94 302.8 24.56L309.82 25.58C309.67 26.02 309.29 26.31 308.61 26.35C308.37 28.05 308.08 29.64 307.74 31.24C309.19 35.21 311.52 37.58 314.42 38.99V21.8H304.44V16.28H330.35V21.8H320.47V27.9H333.89V33.3699H320.47L320.46 33.38ZM302.54 12.26V18.99H296.83V6.77995H314.31V1.44995L321.87 1.88995C321.82 2.36995 321.43 2.65995 320.51 2.80995V6.77995H338.09V18.99H332.08V12.26H302.54Z" fill="white"/>
<path d="M381.53 33.72L386.52 35.61C386.33 35.95 385.89 36.19 385.26 36.09C383.86 37.69 382.16 39.19 380.22 40.55C381.33 41.42 382.55 41.95 383.8 41.95C385.05 41.95 385.4 41.13 385.64 38.32C386.75 39.29 388.4 40.21 389.76 40.6C388.94 46.12 387.34 47.28 383.46 47.28C380.31 47.23 377.5 45.83 375.18 43.45C372.03 44.95 368.59 46.21 365.11 47.08C364.58 45.97 363.32 43.79 362.49 42.77C365.83 42.04 369.27 40.98 372.27 39.57C371.3 37.88 370.43 35.89 369.75 33.71H360.21V35.65L367.52 35.26V39.13L360.21 39.71V42.18C360.21 46.44 358.76 47.26 349.8 47.26C349.51 45.9 348.83 44.06 348.15 42.8C349.22 42.85 350.43 42.9 351.44 42.9C354.64 42.9 354.64 42.85 354.64 42.03V40.14C351.88 40.33 349.31 40.53 347.28 40.62C347.18 41.01 346.84 41.25 346.46 41.35L344.81 36.31C347.47 36.21 350.91 36.07 354.64 35.87V33.69H344.95V29.43H354.64V27.54C352.07 27.78 349.46 27.93 346.99 28.02C346.84 27 346.31 25.5 345.83 24.53C351.45 24.19 357.79 23.51 362.1 22.64H344.47V18.23H363.75V16.44H349.85V12.42H363.75V10.63H347.28V6.32004H356.05C355.52 5.25004 354.79 4.14003 354.06 3.22003L359.15 1.57004C360.41 2.88004 361.62 4.77003 362.15 6.12003L361.62 6.31003H372.13L371.69 6.16003C372.56 4.76003 373.63 2.82003 374.16 1.41003L380.99 3.30003C380.84 3.69003 380.41 3.83003 379.73 3.83003C379.25 4.56003 378.52 5.48003 377.84 6.30003H386.46V10.61H369.75V12.4H383.94V16.42H369.75V18.21H389.46V22.62H363.94L367.23 25.82C367.04 25.97 366.94 25.97 366.12 25.97C364.47 26.31 362.44 26.65 360.21 26.94V29.41H368.64C368.25 27.38 368.01 25.24 367.87 23.07L374.94 23.31C374.94 23.79 374.55 24.13 373.63 24.23C373.68 25.97 373.92 27.77 374.31 29.41H381.91C380.21 28.15 377.84 26.79 375.86 25.92L379.1 22.67C381.72 23.74 385.01 25.53 386.7 26.98L384.33 29.4H388.93V33.66H381.52L381.53 33.72ZM375.62 33.72C376.06 34.88 376.59 35.95 377.17 36.87C378.57 35.9 379.74 34.88 380.71 33.72H375.63H375.62Z" fill="white"/>
<path d="M442.02 24.32H430.59V29.94H444.25V35.03H430.59V40.89H448.65V46.07H407.05V40.89H424.49V35.03H410.98V29.94H424.49V24.32H413.45V20.45C411.71 21.66 409.87 22.82 408.03 23.84C407.26 22.48 405.66 20.35 404.4 19.19C412.78 14.93 420.82 7.32002 424.4 1.27002L432.15 1.71002C432 2.24002 431.57 2.58002 430.89 2.68002C435.59 9.02002 443.87 15.32 451.18 18.47C449.68 19.92 448.37 21.96 447.31 23.7C445.57 22.73 443.77 21.62 442.03 20.45V24.32H442.02ZM440.28 19.19C435.15 15.46 430.35 11.05 427.49 7.08002C424.78 11 420.32 15.36 415.19 19.19H440.28Z" fill="white"/>
<path d="M468.99 31.05V31.78C470.54 32.7 475 35.95 476.11 36.82L472.82 40.99C471.95 40.02 470.5 38.57 468.99 37.16V47.28H463.37V37.98C461.53 40.5 459.5 42.77 457.46 44.32C456.59 43.06 454.89 41.17 453.68 40.2C456.88 38.17 460.22 34.58 462.45 31.05H454.94V26.16H463.37V22.62H454.36V17.83H459.15C458.86 16.09 458.28 13.96 457.5 12.26L460.65 11.34H455.32V6.58997H463.36V1.59998L470.24 1.93997C470.19 2.41997 469.85 2.70997 468.98 2.85997V6.58997H476.87V11.34H472.03L475.95 12.36C475.8 12.7 475.42 12.89 474.74 12.94C474.21 14.39 473.34 16.23 472.46 17.83H477.88V22.62H470.03C469.84 22.81 469.5 23.01 468.96 23.06V26.16H477.15V31.05H468.96H468.99ZM467.54 17.78C468.27 15.99 469.14 13.37 469.67 11.34H462.16C463.08 13.42 463.81 15.94 464.05 17.73L463.76 17.83H467.68L467.53 17.78H467.54ZM499.94 17.73V23.11H495.24V47.28H489.57V23.11H484.73C484.73 30.28 483.66 40.69 477.13 47.37C476.4 46.11 474.37 44.12 473.01 43.4C478.68 37.49 479.21 29.31 479.21 22.77V6.05997L482.21 6.92998C486.67 5.47998 491.27 3.53998 494.03 1.64998L499.5 5.81998C499.21 6.10998 498.73 6.10997 498.14 6.10997C494.75 7.89997 489.66 9.73998 484.72 11.15V17.74H499.93L499.94 17.73Z" fill="white"/>
<path d="M543.33 33.28L547.54 36.28C547.39 36.52 547.06 36.62 546.67 36.62C546.52 36.62 546.33 36.6201 546.19 36.5701C544.83 37.3901 542.75 38.6001 540.81 39.5701C543.18 40.9301 546.04 41.9401 549.29 42.5201C548.08 43.6301 546.58 45.81 545.85 47.31C540.38 45.91 536.21 43.48 533.02 40.05L533.21 43.4901C527.25 44.6001 521.1 45.67 517.08 46.3C517.03 46.78 516.64 47.03 516.31 47.12L514.18 41.2601C515.63 41.1101 517.28 40.9201 519.12 40.6801V33.2701H513.79V29.2H513.74C513.06 35.64 511.61 42.42 508.41 47.41C507.25 46.49 504.68 44.94 503.23 44.41C508.07 36.9 508.46 25.91 508.46 18.11V3.68005H545.99V16.8501H540.66C540.47 17.1401 540.13 17.2901 539.5 17.3801V20.0401H546.33V24.9301H539.5V28.37H548.65V33.2601H543.32L543.33 33.28ZM514.32 16.86C514.32 19.91 514.32 23.64 513.88 28.39H521.48V24.95H515.33V20.06H521.48V16.86H514.31H514.32ZM540.13 8.58005H514.32V11.92H540.13V8.58005ZM524.44 33.28V40.06C526.96 39.72 529.53 39.3801 532.14 38.9901C530.74 37.3001 529.57 35.41 528.6 33.28H524.43H524.44ZM534.13 20.06V16.86H527.98C527.79 17.1 527.45 17.3 526.82 17.39V20.05H534.13V20.06ZM534.13 28.39V24.95H526.82V28.39H534.13ZM534.18 33.28C534.95 34.49 535.83 35.65 536.89 36.67C538.63 35.6 540.52 34.35 541.93 33.28H534.18Z" fill="white"/>
<path d="M574.22 20.74H561.05V47.28H555.38V3.44995H574.22V20.74ZM568.75 7.61995H561.05V10.09H568.75V7.61995ZM561.05 16.58H568.75V13.8699H561.05V16.58ZM588.46 36.29H583.04V46.41H577.96V36.29H573.17C572.59 39.39 570.89 44.09 566.97 46.75C566.2 45.73 564.4 44.13 563.29 43.36C566.24 41.42 567.65 38.61 568.18 36.29H563.34V31.54H568.47V27.86H564.06V23.26H587.65V27.86H583.05V31.54H588.47V36.29H588.46ZM573.4 31.54H577.95V27.86H573.4V31.54ZM596.6 3.44995V40.5C596.6 46.07 594.52 47.14 586.28 47.14C586.09 45.54 585.31 42.88 584.54 41.38C585.8 41.43 587.16 41.4799 588.22 41.4799C590.64 41.4799 590.88 41.48 590.88 40.46V20.85H577.42V3.45996H596.6V3.44995ZM590.89 7.61995H582.95V10.09H590.89V7.61995ZM582.95 16.68H590.89V13.8699H582.95V16.68Z" fill="white"/>
</svg>
