<svg width="524" height="148" viewBox="0 0 524 148" fill="none" xmlns="http://www.w3.org/2000/svg">
<path d="M88.5204 147.09H57.5304V113.025H0.380371V90.9L50.4204 0.839996H88.5204V87.435H104.105V113.025H88.5204V147.09ZM29.6304 87.435H57.5304V57.6C57.5304 49.32 58.2954 39.51 58.6854 30.855H58.1154C54.0804 39.51 50.4204 48.18 45.8004 57.03L29.6304 87.045V87.435Z" fill="#FFFF00"/>
<path d="M142.985 147.09V30.855H142.595L117.38 43.755L109.88 19.32L147.41 0.839996H176.09V147.09H142.985Z" fill="#FFFF00"/>
<path d="M281.345 147.09H250.355V113.025H193.205V90.9L243.245 0.839996H281.345V87.435H296.93V113.025H281.345V147.09ZM222.455 87.435H250.355V57.6C250.355 49.32 251.12 39.51 251.51 30.855H250.94C246.905 39.51 243.245 48.18 238.625 57.03L222.455 87.045V87.435Z" fill="#FFFF00"/>
<path d="M306.755 0.839996H399.89V22.005L347.165 147.09H312.53L365.255 29.31V28.92H306.755V0.824982V0.839996Z" fill="#FFFF00"/>
<path d="M523.145 89.5799V106.14H494.63V147.585H477.11V106.14H450.53L452.465 117.135C439.415 122.205 425.645 127.29 416.465 130.425C416.345 131.76 415.37 132.72 414.29 132.96L407.045 113.625C411.035 112.665 415.985 111.45 421.43 109.875V77.85H409.955V61.29H421.43V33.99L441.965 35.07C441.845 36.405 440.885 37.245 438.455 37.605V61.29H449.09V77.85H438.455V105.03L448.61 102.135V89.565H477.125V54.045H452.24V37.74H520.265V54.045H494.645V89.565H523.16L523.145 89.5799ZM459.59 88.7399C458.99 81.4949 455.96 70.125 452.345 61.8L466.97 57.33C470.96 65.67 474.215 76.425 475.19 83.79L459.605 88.7399H459.59ZM523.025 63C522.545 63.96 521.33 64.455 519.395 64.455C517.1 72.075 512.99 82.2149 509.615 88.7399L496.805 83.67C499.7 76.305 502.85 65.055 504.41 56.73L523.01 63.015L523.025 63Z" fill="white"/>
</svg>
