<svg width="1095" height="117" viewBox="0 0 1095 117" fill="none" xmlns="http://www.w3.org/2000/svg">
<g filter="url(#filter0_d_70_2438)">
<path d="M39.35 68.88L40.625 82.125C28.76 84.885 16.355 87.525 8.3 89.22C8.09 90.285 7.13 91.02 6.185 91.125L2.375 75.12C5.765 74.7 9.695 74.055 13.925 73.32V54.675H5.135V40.575H13.925V24.675H4.385V10.47H37.76V24.675H28.325V40.575H37.115V54.675H28.325V70.89L39.35 68.88ZM96.575 79.905H78.665V91.35C78.665 101.625 75.38 103.965 58.43 103.965C57.8 100.575 56.42 96.12 54.935 92.73C50.81 96.645 45.815 100.47 41.06 103.215C38.735 100.56 34.07 96.225 31.205 93.99C37.565 90.915 44.135 85.725 47.735 80.85L62.885 86.46C62.465 87.315 61.4 87.735 60.02 87.525C58.745 89.01 57.26 90.495 55.67 92.085C58.325 92.19 61.385 92.19 62.345 92.19C63.515 92.085 63.935 91.875 63.935 90.81V79.89H46.13V56.37H96.575V79.89V79.905ZM103.04 41.43V53.505H39.035V41.43H62.885V37.29H44.765V6.55502H97.865V37.29H81.65C81.335 38.145 80.375 38.67 78.575 38.985V41.415H103.055L103.04 41.43ZM58.535 15.36V17.79H83.33V15.36H58.535ZM58.535 26.07V28.5H83.33V26.07H58.535ZM60.23 66.015V70.26H81.635V66.015H60.23ZM93.5 102.675C90.845 98.55 84.5 91.965 79.295 87.525L90.95 81.165C96.035 85.185 102.71 91.335 105.995 95.685L93.485 102.675H93.5Z" fill="#F1E321"/>
<path d="M201.065 8.68503L210.92 12.285C210.815 13.02 210.5 13.77 209.855 14.295C206.99 23.415 203.495 34.215 199.265 45.45C207.845 56.16 210.5 63.36 210.5 69.825C210.5 91.335 195.98 91.335 186.755 91.02C186.65 87 184.955 80.85 182.63 76.71V103.95H167.48V18.54C165.155 24.15 162.5 29.565 159.53 34.65H164.72V47.895H150.62C148.925 50.01 147.23 52.035 145.535 53.94H161.75V103.215H147.23V99.615H133.775V104.175H119.9V74.505C118.625 75.24 117.35 75.99 115.985 76.62C114.395 73.335 110.69 67.185 108.245 64.215C112.265 62.415 116.195 60.195 119.9 57.75V53.94H125.09C127.52 52.035 129.755 50.025 131.975 47.895H110.78V34.65H127.835V26.595H114.905V13.455H127.835V3.81003L145.115 4.77003C145.01 5.83503 144.155 6.57002 142.04 6.88502V13.455H151.16V20.985C152.855 17.49 154.34 13.89 155.615 10.17L167.48 13.98V9.21003H197.9L201.08 8.68503H201.065ZM147.23 70.785V66.015H133.775V70.785H147.23ZM133.775 87.42H147.23V82.23H133.775V87.42ZM142.04 34.65H143.21C145.01 32.1 146.705 29.355 148.19 26.595H142.04V34.65ZM182.63 23.625V76.185C185.18 76.395 187.4 76.395 188.885 76.395C194.18 76.395 195.245 73.965 195.245 69.075C195.245 63.885 192.38 58.155 183.695 48.09C186.455 39.195 188.78 31.035 190.685 23.61H182.63V23.625Z" fill="#F1E321"/>
<path d="M242.392 38.3548L250.867 40.6798C250.762 41.5348 250.447 42.4798 250.027 43.1098C248.857 56.8798 246.637 68.8648 243.352 78.7198C252.997 85.4998 265.717 86.8798 280.117 86.9848C287.647 86.9848 308.512 86.9848 317.527 86.5648C315.202 90.0598 312.652 97.1548 311.692 101.61H279.682C262.627 101.61 248.527 99.7048 237.292 92.0698C234.322 97.1548 230.722 101.4 226.597 104.58C224.272 101.61 218.332 96.2098 215.047 94.3048C219.712 91.0198 223.417 86.7748 226.387 81.3748C222.472 75.9748 219.067 69.1948 216.322 60.7048L228.292 56.5648C229.462 60.1648 230.842 63.2398 232.312 65.9998C233.377 61.7548 234.217 57.1048 234.862 52.0048H230.617L229.552 54.4348L215.677 50.9398C219.817 41.9248 224.467 31.2298 228.187 22.1098H216.112V8.75983H236.452L239.317 8.44483L247.897 11.3098C247.582 12.0448 247.147 13.0048 246.727 13.7398C244.177 20.3098 240.367 29.4298 236.452 38.6398H239.842L242.392 38.3248V38.3548ZM271.642 24.1498V21.7198H254.257V10.2748H271.642V3.17984L289.657 4.13984C289.552 5.30984 288.697 6.04483 286.582 6.35983V10.2748H307.042V24.1498H315.937V35.8048H307.042V49.6798H286.582V52.1098H308.737V63.0298H286.582V65.5798H313.507V77.5498H286.582V85.1848H271.642V77.5498H247.687V65.5798H271.642V63.0298H252.352V52.1098H271.642V49.6798H253.942V38.2348H271.642V35.8048H246.202V24.1498H271.642ZM291.877 21.7198H286.582V24.1498H291.877V21.7198ZM291.877 38.2498V35.8198H286.582V38.2498H291.877Z" fill="#F1E321"/>
<path d="M364.265 20.9699V32.9399H321.77V20.9699H364.265ZM409.31 48.5249L419.06 52.2299C418.85 53.0849 418.325 53.5049 417.785 54.1349C414.71 65.6849 409.73 75.1199 402.95 82.8599C408.89 86.2499 415.775 88.9049 423.29 90.7049C419.9 93.7799 415.445 100.035 413.33 103.95C404.96 101.4 397.535 97.7999 391.07 93.1349C384.395 97.6949 376.655 101.295 367.865 103.95C366.38 100.245 362.99 94.4099 360.23 91.0199V98.7599H339.455V102.465H326.525V65.6849H360.23V90.2699C367.325 88.5749 373.79 86.0249 379.415 82.6349C375.275 77.9699 371.78 72.7799 368.705 66.9449L381.95 62.6999H365.63V48.9299H369.98C367.55 46.2749 363.2 42.6749 360.335 40.8749V47.5499H326.96V36.1049H360.335V39.9149C368.915 33.7649 369.77 25.7099 369.77 18.8249V6.20987H406.865V28.7849C406.865 31.9649 406.97 32.2799 407.825 32.2799H408.995C410.06 32.2799 410.48 30.8999 410.69 22.2149C413.345 24.4349 419.27 26.6699 423.095 27.6149C421.82 41.2799 418.325 45.2099 410.585 45.2099H404.96C395.315 45.2099 392.45 41.2949 392.45 28.9949V19.7699H384.29C384.185 29.6249 382.175 41.3849 372.845 48.9149H406.655L409.31 48.4949V48.5249ZM360.35 50.7449V62.1899H326.975V50.7449H360.35ZM360.245 6.44987V17.8949H327.29V6.44987H360.245ZM347.105 86.6699V77.6549H339.47V86.6699H347.105ZM382.4 62.7149C384.515 66.6299 387.38 70.3499 390.77 73.6349C393.845 70.4549 396.395 66.7499 398.51 62.7149H382.4Z" fill="#F1E321"/>
<path d="M548.87 31.5749H508.925C508.4 33.0599 507.86 34.6499 507.23 36.2399H536.9V104.055H520.79V99.7049H480.845V104.055H465.485V36.2399H490.07C490.385 34.6499 490.595 33.1649 490.805 31.5749H452.015V17.3699H473.945C471.935 14.5049 469.385 11.4299 467.165 8.99994L481.475 2.53494C485.495 6.23994 489.845 11.3249 492.185 15.0449L487.73 17.3699H508.61C511.685 13.1249 514.97 7.51494 516.77 3.05994L536.69 8.56494C536.165 9.52494 535.1 9.94493 533.3 9.94493C531.71 12.2699 529.7 14.9249 527.585 17.3699H548.885V31.5749H548.87ZM520.79 53.7299V49.4849H480.845V53.7299H520.79ZM480.845 65.2799V69.9449H520.79V65.2799H480.845ZM480.845 86.4749H520.79V81.4949H480.845V86.4749Z" fill="#F1E321"/>
<path d="M629.824 77.0401H615.304V23.3101L607.354 34.4401C605.659 32.7451 603.544 30.9451 601.099 29.0401V34.2301H577.144V30.4201C574.924 32.6401 572.479 34.7701 569.824 36.8851H610.309V72.0751H576.709C576.604 73.0351 576.394 73.9801 576.184 74.9401H612.109V103.77H598.759V101.22H584.554V103.98H571.729V90.6301C570.034 94.7701 567.919 98.6851 565.264 102.075C563.254 99.5251 557.734 94.4401 555.094 92.8501C564.319 80.5651 565.264 63.2851 565.264 51.2101V40.2901C564.409 40.9201 563.569 41.4601 562.609 42.0901C561.124 38.5951 557.209 32.7601 554.554 30.2251C567.274 22.6951 575.959 12.5251 580.834 3.42007L597.364 6.60008C597.049 7.66508 596.089 8.40007 594.499 8.40007L594.394 8.50507C602.134 12.7501 610.189 18.4651 615.274 22.6051V16.4551L632.869 17.4151C632.764 18.5851 631.909 19.2151 629.794 19.6351V77.0701L629.824 77.0401ZM577.894 61.6801H596.644V58.8151H578.104L577.894 61.6801ZM596.644 47.3701H578.314V50.0251H596.644V47.3701ZM594.424 24.1651C591.994 22.4701 589.549 20.8801 587.104 19.2901C585.829 20.9851 584.554 22.5751 583.084 24.1651H594.424ZM598.774 85.7401H584.569V90.4051H598.774V85.7401ZM638.194 5.62508L656.314 6.36007C656.104 7.53007 655.354 8.37008 653.134 8.68508V86.1451C653.134 99.2851 649.849 103.95 626.434 103.95C625.909 99.6001 623.674 92.6101 621.559 88.1551C627.394 88.4701 633.529 88.4701 635.659 88.4701C637.459 88.4701 638.209 87.8401 638.209 86.0401V5.61007L638.194 5.62508Z" fill="#F1E321"/>
<path d="M692.345 45.45L703.04 50.535C702.725 51.39 702.08 52.125 701.24 52.545C696.47 72.465 686.615 88.995 673.895 97.8C671.345 94.515 665.105 88.575 661.385 86.25C670.505 80.745 677.81 71.625 682.265 60.495H664.25V45.975H689.69L692.345 45.45ZM720.53 32.415C722.435 38.985 724.775 45.24 727.625 51.06C734.195 45.66 741.29 38.76 745.955 32.73L761.75 45.45C761.225 45.975 760.16 46.305 758.99 46.305C758.57 46.305 758.135 46.305 757.715 46.2C752.09 51.495 742.88 58.71 735.35 63.48C742.445 72.705 751.46 80.01 763.115 84.57C759.515 87.75 754.535 94.215 752.09 98.67C738.095 91.995 728.03 81.93 720.515 69V87.645C720.515 101.415 714.47 104.175 693.38 104.175C692.75 99.825 690.515 93.255 688.4 89.34C693.275 89.655 700.16 89.655 701.96 89.655C703.865 89.55 704.51 89.025 704.51 87.435V41.655H679.4V26.925H716.495C707.6 23.01 695.93 18.975 686.93 16.65L694.355 2.65503C706.115 5.08503 724.235 10.71 733.25 15.375L725.195 31.275C723.815 30.54 722.33 29.685 720.53 28.845V32.445V32.415Z" fill="#F1E321"/>
<path d="M832.548 18.1197L843.678 23.8347C843.258 24.7947 842.508 25.6347 841.563 26.0547C839.133 35.0697 835.953 43.5447 832.128 51.3897C839.013 68.1297 851.838 82.7547 869.433 90.1797C865.728 93.4647 860.538 100.035 857.988 104.385C842.193 96.4347 830.853 83.8197 822.378 67.8297C810.828 84.3597 795.678 96.9747 778.608 104.49C776.598 100.47 771.408 93.1497 767.898 90.1797C792.693 80.5347 812.298 61.5747 822.048 34.4397H802.338C796.188 45.7797 788.673 55.8447 780.183 63.2697C777.318 60.0897 771.288 54.7947 767.463 52.1397C780.708 42.0747 791.628 22.9947 797.028 3.38968L816.108 8.78968C815.688 9.74968 814.413 10.4847 812.718 10.2747C811.758 13.1397 810.708 15.9897 809.538 18.8547H829.773L832.533 18.1197H832.548Z" fill="#F1E321"/>
<path d="M973.489 67.9199H954.514C960.454 76.1849 968.614 83.9249 976.879 88.7999C973.384 91.6649 968.404 97.2749 965.959 101.1C959.284 96.0149 952.819 88.6949 947.419 80.5349V104.055H931.939V81.1649C926.224 89.1149 919.429 95.8949 912.124 100.77C909.799 97.0649 905.029 91.5449 901.639 88.5899V104.055H886.699V52.7699C884.269 56.0549 881.824 59.2349 879.274 61.9949C877.894 58.1849 874.189 50.0249 872.179 46.1999C880.969 36.8699 890.089 19.9199 895.489 3.59988L912.334 9.43488C911.704 10.4999 910.534 10.9199 909.049 10.8149C906.499 17.2799 903.544 23.9549 900.259 30.3149L904.714 31.4849C904.504 32.5499 903.544 33.3899 901.639 33.5999V88.3949C910.324 83.8349 918.814 76.2149 924.844 67.9349H905.764V54.0599H931.939V46.0049H912.334V7.85988H968.704V46.0049H947.404V54.0599H973.474V67.9349L973.489 67.9199ZM926.869 21.2849V32.5199H953.359V21.2849H926.869Z" fill="#F1E321"/>
<path d="M1079.04 25.7399H1071.41C1068.75 31.0349 1065.26 35.8049 1061.13 39.9449C1067.39 42.5999 1074.48 44.7149 1082.54 45.8849C1079.78 48.7499 1075.97 54.4649 1074.17 58.1849C1065.05 56.1749 1056.99 52.8899 1050.21 48.7499C1043.54 52.9949 1035.8 56.2799 1027.32 58.7099C1026.05 56.4899 1023.51 52.8749 1021.17 50.1299V86.2649H1007.93V19.1849C1006.55 22.6799 1005.17 26.0699 1003.68 29.4599L1007.28 30.6299C1006.97 31.5899 1006.01 32.4299 1004.21 32.7449V104.385H989.584V55.5299C987.784 58.1849 985.984 60.6149 984.184 62.8499C983.014 58.9349 979.729 50.1299 977.929 46.3199C985.564 36.8849 993.184 19.9349 997.744 3.61494L1014.27 9.11994C1013.85 10.0799 1012.79 10.6049 1011.09 10.4999L1008.54 17.5949L1024.01 18.4499C1023.9 19.5149 1023.17 20.2499 1021.14 20.5649V27.8699C1027.29 21.4049 1032.48 12.4049 1035.35 3.28494L1050.93 7.73994C1050.62 8.69994 1049.55 9.22494 1048.07 9.11994C1047.54 10.6049 1046.9 12.1949 1046.16 13.6799H1079.01V25.7549L1079.04 25.7399ZM1021.19 47.0399C1027.65 45.4499 1033.59 43.2299 1038.89 40.3649C1036.77 38.4599 1034.87 36.4499 1033.17 34.4249C1031.37 36.5399 1029.47 38.4449 1027.56 40.1399C1025.97 38.6549 1023.65 36.6449 1021.2 34.8449V47.0249L1021.19 47.0399ZM1082.43 79.7849C1082.01 80.6249 1081.05 81.1649 1079.36 81.1649C1068.54 92.8199 1050.42 99.5999 1029.12 103.635C1027.53 99.9299 1024.35 94.8449 1021.38 91.6649C1040.13 89.2349 1058.04 83.9249 1066.95 74.3849L1082.42 79.7849H1082.43ZM1062.93 57.5249C1062.62 58.2599 1061.76 58.6949 1060.5 58.6949C1054.46 63.8849 1044.08 68.7599 1034.22 71.8349C1032.42 69.0749 1029.14 65.4749 1026.27 63.1499C1034.85 61.1399 1044.92 57.1049 1050 52.7699L1062.93 57.5399V57.5249ZM1073.31 66.7499C1073 67.4849 1072.14 67.9199 1070.76 68.0249C1062.71 75.8699 1048.61 82.1249 1033.77 85.8299C1032.18 82.8599 1029.21 78.8399 1026.57 76.2899C1039.71 73.8599 1053.59 68.8649 1060.49 62.0849L1073.31 66.7499ZM1040.78 25.7399C1043 28.2899 1045.76 30.8249 1049.04 33.1649C1051.47 30.9449 1053.6 28.4999 1055.4 25.7399H1040.78Z" fill="#F1E321"/>
</g>
<defs>
<filter id="filter0_d_70_2438" x="0.2" y="0.359943" width="1094.74" height="116.625" filterUnits="userSpaceOnUse" color-interpolation-filters="sRGB">
<feFlood flood-opacity="0" result="BackgroundImageFix"/>
<feColorMatrix in="SourceAlpha" type="matrix" values="0 0 0 0 0 0 0 0 0 0 0 0 0 0 0 0 0 0 127 0" result="hardAlpha"/>
<feOffset dx="5.115" dy="5.115"/>
<feGaussianBlur stdDeviation="3.645"/>
<feColorMatrix type="matrix" values="0 0 0 0 0.101961 0 0 0 0 0.12549 0 0 0 0 0.219608 0 0 0 0.34 0"/>
<feBlend mode="normal" in2="BackgroundImageFix" result="effect1_dropShadow_70_2438"/>
<feBlend mode="normal" in="SourceGraphic" in2="effect1_dropShadow_70_2438" result="shape"/>
</filter>
</defs>
</svg>
