<?xml version="1.0" encoding="utf-8"?>
<!-- Generator: Adobe Illustrator 27.0.0, SVG Export Plug-In . SVG Version: 6.00 Build 0)  -->
<svg version="1.1" id="_圖層_2" xmlns="http://www.w3.org/2000/svg" xmlns:xlink="http://www.w3.org/1999/xlink" x="0px" y="0px"
	 viewBox="0 0 181.4 96.4" style="enable-background:new 0 0 181.4 96.4;" xml:space="preserve">
<style type="text/css">
	.st0{fill:#FFFFFF;}
</style>
<g id="_圖層_1-2">
	<g>
		<g>
			<path class="st0" d="M86.4,38.9c1.3,0.9,3,2.2,3.9,3.2l-2.2,1.7c-0.2-0.3-0.6-0.7-1-1C87,42.9,86.9,43,86.6,43
				c-0.6,1.3-1.3,2.4-2.2,3.3c1.6,1.1,3.6,1.8,6.1,2.1C90,49,89.2,50,88.9,50.7c-2.7-0.5-4.8-1.4-6.5-2.7c-1.8,1.2-3.9,2.1-6.4,2.7
				c-0.3-0.6-1-1.7-1.4-2.2c2.4-0.4,4.4-1.2,6-2.3c-0.8-1-1.5-2.2-2.1-3.6c-0.6,0.5-1.2,0.9-1.8,1.3c-0.5-0.5-1.3-1.4-1.9-1.8
				c1.5-0.7,3.1-2,4-3.2h-3.7v-2.4h6.2v-1.8l3,0.2c0,0.2-0.1,0.3-0.5,0.3v1.3H90v2.4C90,38.9,86.4,38.9,86.4,38.9z M79.1,38.9
				l2.6,1.1c-0.1,0.1-0.2,0.2-0.4,0.2c0,0-0.1,0-0.2,0c-0.7,0.7-1.5,1.5-2.4,2.3l2.1-0.6c0.4,1,1,2,1.7,2.8c0.7-0.8,1.3-1.7,1.7-2.8
				l2.9,0.7C86.2,41.7,85,40.8,84,40l1.6-1.2L79.1,38.9L79.1,38.9z"/>
			<path class="st0" d="M95.7,41.2v5.4c0.8,1.6,2.5,1.6,5.7,1.6c2,0,4.4-0.1,6.1-0.2c-0.3,0.6-0.6,1.7-0.8,2.4
				c-1.3,0.1-3.1,0.1-4.8,0.1c-4.1,0-5.9,0-7.3-1.9c-0.7,0.6-1.5,1.2-2.1,1.7c0,0.2-0.1,0.3-0.3,0.4L91,48.1
				c0.7-0.4,1.5-0.8,2.2-1.3v-3.3h-2v-2.3C91.4,41.2,95.7,41.2,95.7,41.2z M93.3,35.1c1,0.7,2.4,1.7,3,2.5l-1.8,1.8
				c-0.5-0.8-1.8-1.9-2.8-2.7L93.3,35.1L93.3,35.1z M99.2,45.3v2.4h-2.3v-8.8h3.2c-0.6-0.2-1.2-0.5-1.7-0.7l1.5-1.2h-2.7v-1.8h7.5
				l0.4-0.1l1.7,1.1c-0.1,0.1-0.2,0.2-0.5,0.2c-0.7,0.6-1.6,1.4-2.7,2.1c0.3,0.2,0.6,0.3,0.9,0.4h2v6.7c0,1.7-0.6,2.1-3,2.1
				c-0.1-0.6-0.3-1.4-0.6-1.9c0.4,0,0.9,0,1.1,0s0.2-0.1,0.2-0.6h-1.5v2.3h-2.2v-2.3L99.2,45.3L99.2,45.3z M100.7,40.7h-1.4v0.6h1.4
				V40.7z M99.2,43.5h1.4v-0.6h-1.4V43.5z M100.2,37c0.5,0.2,1,0.4,1.6,0.6c0.3-0.2,0.6-0.4,0.8-0.6C102.6,37,100.2,37,100.2,37z
				 M104.3,40.7h-1.5v0.6h1.5V40.7z M102.8,43.5h1.5v-0.6h-1.5V43.5z"/>
		</g>
		<g>
			<path class="st0" d="M62.6,56.6h-1.4v4.9H60v-4.9h-1.4v-1h4V56.6z"/>
			<path class="st0" d="M66,58.7c0.4,0.2,0.6,0.6,0.8,1.2c0.2,0.7,0.3,1.4,0.4,1.6h-1.1c-0.1-0.2-0.2-0.7-0.4-1.4
				c-0.2-0.8-0.4-1-0.9-1h-0.4v2.4h-1.1v-5.8c0.4-0.1,0.9-0.1,1.5-0.1c0.8,0,2.3,0.1,2.3,1.7C67.1,58,66.6,58.5,66,58.7L66,58.7
				L66,58.7z M64.9,58.3c0.6,0,1-0.4,1-0.9c0-0.8-0.6-0.9-1-0.9c-0.2,0-0.4,0-0.5,0v1.8H64.9L64.9,58.3z"/>
			<path class="st0" d="M72.3,61.5h-1.2L70.7,60h-1.6l-0.4,1.5h-1.1l1.7-5.9h1.4L72.3,61.5L72.3,61.5z M70.5,59.1l-0.4-1.3
				c-0.1-0.4-0.2-0.8-0.3-1.2l0,0c-0.1,0.4-0.2,0.9-0.3,1.2l-0.4,1.4L70.5,59.1L70.5,59.1z"/>
			<path class="st0" d="M77.4,61.5h-1.1L75,59.1c-0.3-0.6-0.7-1.3-0.9-2l0,0c0,0.7,0,1.5,0,2.6v1.8h-1v-5.9h1.2l1.2,2.4
				c0.3,0.6,0.6,1.3,0.9,1.9l0,0c-0.1-0.8-0.1-1.6-0.1-2.5v-1.8h1L77.4,61.5L77.4,61.5z"/>
			<path class="st0" d="M81.4,56.7c-0.2-0.1-0.6-0.2-1-0.2c-0.6,0-0.9,0.3-0.9,0.6c0,0.4,0.3,0.6,1,0.9c0.9,0.4,1.4,1,1.4,1.7
				c0,1-0.8,1.8-2.1,1.8c-0.6,0-1.2-0.2-1.5-0.3l0.2-1c0.3,0.2,0.8,0.3,1.3,0.3c0.6,0,1-0.3,1-0.7s-0.3-0.7-0.9-1
				c-0.9-0.4-1.4-0.9-1.4-1.7c0-1,0.8-1.7,2-1.7c0.6,0,1,0.1,1.3,0.3L81.4,56.7L81.4,56.7z"/>
			<path class="st0" d="M82.7,55.7c0.4-0.1,0.9-0.1,1.5-0.1c0.7,0,1.3,0.1,1.7,0.5c0.4,0.3,0.6,0.8,0.6,1.3c0,1.6-1.4,2-2.2,2
				c-0.2,0-0.3,0-0.4,0v2.2h-1.1L82.7,55.7L82.7,55.7z M83.9,58.4c0.1,0,0.2,0,0.4,0c0.7,0,1.1-0.4,1.1-1c0-0.6-0.4-1-1-1
				c-0.2,0-0.4,0-0.5,0V58.4L83.9,58.4z"/>
			<path class="st0" d="M92,58.5c0,2-1,3.1-2.5,3.1c-1.6,0-2.4-1.3-2.4-3s1-3.1,2.5-3.1C91.2,55.5,92,56.9,92,58.5L92,58.5z
				 M88.2,58.6c0,1.2,0.5,2.1,1.3,2.1c0.8,0,1.3-0.9,1.3-2.1c0-1.1-0.4-2.1-1.3-2.1C88.7,56.5,88.2,57.5,88.2,58.6L88.2,58.6z"/>
			<path class="st0" d="M95.6,58.7c0.4,0.2,0.6,0.6,0.8,1.2c0.2,0.7,0.3,1.4,0.4,1.6h-1.2c-0.1-0.2-0.2-0.7-0.4-1.4
				c-0.2-0.8-0.4-1-0.9-1h-0.4v2.4h-1.1v-5.8c0.4-0.1,0.9-0.1,1.5-0.1c0.7,0,2.2,0.1,2.2,1.7C96.6,58,96.2,58.5,95.6,58.7L95.6,58.7
				L95.6,58.7z M94.4,58.3c0.6,0,1-0.4,1-0.9c0-0.8-0.6-0.9-1-0.9c-0.2,0-0.4,0-0.5,0v1.8H94.4L94.4,58.3z"/>
			<path class="st0" d="M101.1,56.6h-1.5v4.9h-1.1v-4.9h-1.4v-1h4V56.6z"/>
			<path class="st0" d="M105.9,61.5h-1.2l-0.4-1.5h-1.6l-0.4,1.5h-1.2l1.7-5.9h1.4L105.9,61.5L105.9,61.5z M104.2,59.1l-0.3-1.3
				c-0.1-0.4-0.2-0.8-0.3-1.2l0,0c-0.1,0.4-0.2,0.9-0.3,1.2l-0.3,1.4L104.2,59.1L104.2,59.1z"/>
			<path class="st0" d="M110.1,56.6h-1.5v4.9h-1.1v-4.9H106v-1h4L110.1,56.6L110.1,56.6z"/>
			<path class="st0" d="M110.7,55.6h1.1v5.9h-1.1V55.6z"/>
			<path class="st0" d="M117.7,58.5c0,2-1,3.1-2.5,3.1c-1.6,0-2.4-1.3-2.4-3s1-3.1,2.5-3.1C116.9,55.5,117.7,56.9,117.7,58.5
				L117.7,58.5z M113.9,58.6c0,1.2,0.5,2.1,1.3,2.1c0.8,0,1.3-0.9,1.3-2.1c0-1.1-0.4-2.1-1.3-2.1C114.3,56.5,113.9,57.5,113.9,58.6
				L113.9,58.6z"/>
			<path class="st0" d="M122.8,61.5h-1.1l-1.3-2.4c-0.3-0.6-0.7-1.3-0.9-2l0,0c0,0.7,0.1,1.5,0.1,2.6v1.8h-1v-5.9h1.2L121,58
				c0.3,0.6,0.6,1.3,0.9,1.9l0,0c-0.1-0.8-0.1-1.6-0.1-2.5v-1.8h1V61.5L122.8,61.5z"/>
		</g>
	</g>
</g>
<g>
	<path class="st0" d="M123.2,87.5c-0.4,1-0.9,1.8-1.6,2.4c1,0.7,2.3,1.2,3.8,1.4c-0.2,0.2-0.4,0.6-0.6,0.8c-1.6-0.3-2.9-0.8-3.9-1.7
		c-1.1,0.8-2.4,1.3-3.9,1.7c-0.1-0.2-0.4-0.6-0.6-0.8c1.5-0.3,2.8-0.8,3.8-1.5c-0.6-0.7-1.1-1.5-1.5-2.4l0.8-0.3
		c0.3,0.8,0.8,1.5,1.4,2.1c0.6-0.6,1.1-1.3,1.4-2.1L123.2,87.5z M119.9,85.9c-0.7,0.8-1.7,1.7-2.6,2.3c-0.2-0.2-0.5-0.5-0.7-0.7
		c0.9-0.5,1.9-1.2,2.4-2L119.9,85.9z M125.2,85.4h-8.6v-0.9h4c-0.1-0.3-0.4-0.8-0.6-1.1l0.9-0.3c0.3,0.4,0.6,1,0.7,1.3l-0.3,0.1h3.9
		V85.4z M122.7,85.5c0.9,0.6,2,1.5,2.6,2.1l-0.8,0.6c-0.5-0.6-1.6-1.6-2.5-2.2L122.7,85.5z"/>
	<path class="st0" d="M129.4,87.8c-0.2,0.9-0.5,1.8-0.8,2.6c0.2,0.1,0.4,0.3,0.7,0.5c0.7,0.4,1.6,0.5,2.8,0.5c1.2,0,2.9-0.1,4-0.2
		c-0.1,0.2-0.2,0.7-0.3,1c-0.8,0-2.6,0.1-3.8,0.1c-1.3,0-2.2-0.1-2.9-0.5c-0.4-0.2-0.8-0.6-1-0.6c-0.2,0-0.6,0.6-0.8,1.3l-0.6-0.9
		c0.3-0.5,0.7-0.8,1-1c0.3-0.5,0.5-1.3,0.6-1.9h-1.3c0.2-0.6,0.5-1.4,0.8-2.2h-1v-0.8h2.2c-0.2,0.7-0.5,1.5-0.7,2.2h0.5l0.1,0
		L129.4,87.8z M127.9,85.1c-0.1-0.4-0.4-1.1-0.5-1.7l0.8-0.2c0.2,0.5,0.4,1.2,0.5,1.6L127.9,85.1z M130.9,90.7H130v-5.1h2.6
		c-0.5-0.2-1.1-0.5-1.6-0.7l0.6-0.5c0.4,0.1,0.8,0.3,1.3,0.5c0.4-0.2,0.8-0.4,1.1-0.7h-3.9v-0.7h4.7l0.2,0l0.6,0.4
		c-0.5,0.5-1.2,1-1.9,1.4c0.3,0.1,0.5,0.2,0.7,0.3h1.2v4.3c0,0.4-0.1,0.6-0.4,0.7c-0.3,0.1-0.7,0.1-1.3,0.1c0-0.2-0.1-0.5-0.2-0.7
		c0.4,0,0.8,0,0.9,0c0.1,0,0.2,0,0.2-0.2v-0.7h-1.5v1.5h-0.8v-1.5h-1.4V90.7z M130.9,86.3V87h1.4v-0.7H130.9z M132.3,88.5v-0.7h-1.4
		v0.7H132.3z M134.7,86.3h-1.5V87h1.5V86.3z M134.7,88.5v-0.7h-1.5v0.7H134.7z"/>
	<path class="st0" d="M137.2,87.6c0.2-0.7,0.4-1.8,0.5-2.6l0.7,0.1c-0.1,0.8-0.2,2-0.5,2.7L137.2,87.6z M140.1,86.3
		c-0.1-0.4-0.3-0.9-0.5-1.4v7.3h-0.9v-9.2h0.9v1.6l0.5-0.2c0.2,0.5,0.5,1.1,0.6,1.5L140.1,86.3z M145.9,91.3c0,0.4-0.1,0.7-0.4,0.8
		c-0.3,0.1-0.8,0.1-1.5,0.1c0-0.2-0.1-0.6-0.3-0.8c0.5,0,0.9,0,1.1,0c0.1,0,0.2,0,0.2-0.2v-0.6h-3.3c-0.1,0.6-0.3,1.2-0.7,1.6
		c-0.1-0.2-0.5-0.5-0.7-0.6c0.6-0.7,0.6-1.7,0.6-2.5v-1.8h4.9V91.3z M146.4,86.3V87h-6.1v-0.7h2.5v-0.6h-2v-0.6h2v-0.5h-2.3v-0.7
		h2.3v-0.7h0.9v0.7h2.3v0.7h-2.3v0.5h2v0.6h-2v0.6H146.4z M145,90.1v-0.6h-3.1c0,0.2,0,0.4,0,0.6H145z M141.8,88.2v0.6h3.1v-0.6
		H141.8z"/>
	<path class="st0" d="M151,89.9c-1,0.4-2.1,0.9-3,1.2l-0.3-0.9c0.3-0.1,0.8-0.2,1.2-0.4v-3.3h-1v-0.9h1v-2.3h0.9v2.3h0.9v0.9h-0.9v3
		l1-0.4L151,89.9z M155.7,91.4c0.1,0,0.2,0,0.3,0c0.1,0,0.1-0.1,0.1-0.2c0-0.1,0-0.4,0-0.8c0.2,0.2,0.5,0.3,0.7,0.4
		c0,0.4-0.1,0.8-0.1,0.9c-0.1,0.2-0.2,0.3-0.4,0.3c-0.2,0.1-0.4,0.1-0.6,0.1h-0.7c-0.2,0-0.5-0.1-0.7-0.2c-0.2-0.1-0.2-0.3-0.2-0.9
		v-1.4h-0.8c-0.2,1.4-0.7,2.2-2.5,2.6c-0.1-0.2-0.3-0.6-0.5-0.7c1.6-0.3,2-0.8,2.1-1.9h-0.9v-2.9h4.6v2.9H155v1.4
		c0,0.1,0,0.2,0.1,0.3c0.1,0,0.1,0,0.2,0H155.7z M156.7,86.4h-5.6v-0.8h1.3c-0.1-0.2-0.2-0.6-0.3-0.8l0.8-0.2c0.1,0.3,0.3,0.7,0.3,1
		l-0.2,0h1.4c0.1-0.3,0.3-0.7,0.4-1l0.8,0.2c-0.1,0.3-0.3,0.6-0.4,0.8h1.4V86.4z M156.4,84.6h-5v-0.8h2.1c-0.1-0.2-0.1-0.4-0.2-0.6
		l0.9-0.2c0.1,0.2,0.2,0.5,0.3,0.7h2V84.6z M152.4,88h2.9v-0.5h-2.9V88z M152.4,89.1h2.9v-0.6h-2.9V89.1z"/>
	<path class="st0" d="M161.1,88.3c-0.5,1.2-1.2,2.4-2,3.1c-0.2-0.2-0.6-0.5-0.9-0.6c0.8-0.7,1.4-1.7,1.8-2.8L161.1,88.3z
		 M163.3,87.1v5.1h-1v-5.1h-3.8v-0.9h8.8v0.9H163.3z M166.4,84.7h-7v-0.9h7V84.7z M165.7,88c0.7,0.9,1.5,2.2,1.8,3l-1,0.4
		c-0.2-0.8-1-2.1-1.7-3L165.7,88z"/>
	<path class="st0" d="M169,91.6c0.5-0.4,0.9-1.1,1.2-1.7l0.8,0.3c-0.3,0.6-0.7,1.4-1.2,1.8L169,91.6z M177.7,86.1h-8.5v-0.7h2.2
		c-0.1-0.2-0.2-0.5-0.3-0.7l0.7-0.1h-2.1v-0.7h3.4c-0.1-0.2-0.2-0.4-0.3-0.6l0.9-0.2c0.1,0.2,0.3,0.5,0.4,0.8h3.1v0.7h-2l0.7,0.1
		c-0.1,0.3-0.3,0.5-0.4,0.7h2.3V86.1z M176.6,89.5h-3.3c0.5,0.2,1,0.6,1.3,0.8l-0.6,0.6c-0.3-0.3-1-0.8-1.6-1.1l0.4-0.3h-2.5v-2.9
		h6.3V89.5z M175.6,87.2h-4.5v0.6h4.5V87.2z M175.6,88.3h-4.5v0.6h4.5V88.3z M174.4,91.4c0.4,0,0.5-0.1,0.5-0.9
		c0.2,0.1,0.6,0.2,0.8,0.3c-0.1,1.1-0.4,1.4-1.2,1.4h-1.8c-1.1,0-1.4-0.2-1.4-1V90h0.9v1.2c0,0.2,0.1,0.3,0.6,0.3H174.4z
		 M171.9,84.5c0.2,0.3,0.3,0.6,0.4,0.9h2.2c0.1-0.3,0.3-0.6,0.4-0.9H171.9z M176.5,89.8c0.5,0.5,1,1.2,1.3,1.7l-0.8,0.4
		c-0.2-0.5-0.7-1.2-1.2-1.8L176.5,89.8z"/>
</g>
</svg>
