<svg width="466" height="170" viewBox="0 0 466 170" fill="none" xmlns="http://www.w3.org/2000/svg">
<g filter="url(#filter0_d_3_1392)">
<path d="M102.98 49.3399L103.9 58.8799C95.3496 60.8699 86.4196 62.7699 80.6096 63.9999C80.4596 64.7599 79.7696 65.2999 79.0796 65.3699L76.3296 53.8399C78.7696 53.5399 81.5996 53.0799 84.6496 52.5399V39.0999H78.3096V28.9499H84.6496V17.4999H77.7796V7.26994H101.83V17.4999H95.0296V28.9499H101.37V39.0999H95.0296V50.7799L102.97 49.3299L102.98 49.3399ZM144.21 57.2799H131.31V65.5299C131.31 72.9399 128.94 74.6199 116.73 74.6199C116.27 72.1799 115.28 68.9699 114.21 66.5299C111.23 69.3499 107.64 72.0999 104.21 74.0899C102.53 72.1799 99.1696 69.0499 97.1096 67.4499C101.69 65.2399 106.43 61.4899 109.02 57.9799L119.94 62.0299C119.63 62.6399 118.87 62.9499 117.88 62.7899C116.96 63.8599 115.89 64.9299 114.75 66.0699C116.66 66.1499 118.87 66.1499 119.56 66.1499C120.4 66.0699 120.71 65.9199 120.71 65.1599V57.2999H107.88V40.3499H144.22V57.2999L144.21 57.2799ZM148.87 29.5599V38.2599H102.75V29.5599H119.93V26.5799H106.87V4.43994H145.12V26.5899H133.44C133.21 27.1999 132.52 27.5799 131.23 27.8099V29.5699H148.87V29.5599ZM116.8 10.7799V12.5399H134.67V10.7799H116.8ZM116.8 18.4899V20.2499H134.67V18.4899H116.8ZM118.02 47.2799V50.3299H133.44V47.2799H118.02ZM142 73.6999C140.09 70.7199 135.51 65.9899 131.77 62.7799L140.17 58.1999C143.84 61.0999 148.65 65.5299 151.01 68.6599L142 73.6999Z" fill="#F8EA21"/>
<path d="M219.49 5.96996L226.59 8.56996C226.51 9.09996 226.28 9.63996 225.83 10.02C223.77 16.59 221.25 24.37 218.19 32.47C224.37 40.18 226.28 45.37 226.28 50.03C226.28 65.53 215.82 65.53 209.18 65.3C209.1 62.4 207.88 57.97 206.2 54.99V74.61H195.28V13.07C193.6 17.12 191.69 21.01 189.55 24.68H193.29V34.22H183.13C181.91 35.75 180.69 37.2 179.46 38.57H191.14V74.07H180.68V71.47H170.98V74.75H160.98V53.37C160.06 53.9 159.15 54.44 158.15 54.9C157 52.53 154.33 48.1 152.58 45.97C155.48 44.67 158.31 43.07 160.98 41.31V38.56H164.72C166.48 37.19 168.08 35.73 169.68 34.21H154.41V24.67H166.7V18.87H157.38V9.40996H166.7V2.45996L179.15 3.14996C179.07 3.90996 178.46 4.44996 176.94 4.67996V9.40996H183.51V14.83C184.73 12.31 185.8 9.70996 186.72 7.03996L195.27 9.78996V6.34996H217.18L219.47 5.96996H219.49ZM180.7 50.71V47.27H171V50.71H180.7ZM171 62.7H180.7V58.96H171V62.7ZM176.96 24.68H177.8C179.1 22.85 180.32 20.86 181.39 18.88H176.96V24.68ZM206.2 16.74V54.61C208.03 54.76 209.64 54.76 210.7 54.76C214.52 54.76 215.28 53 215.28 49.49C215.28 45.75 213.22 41.62 206.96 34.37C208.94 27.96 210.62 22.08 212 16.73H206.2V16.74Z" fill="#F8EA21"/>
<path d="M249.26 27.35L255.37 29.03C255.29 29.64 255.06 30.33 254.76 30.79C253.92 40.72 252.32 49.34 249.95 56.45C256.9 61.34 266.06 62.33 276.45 62.41C281.87 62.41 296.91 62.41 303.4 62.1C301.72 64.62 299.89 69.74 299.2 72.94H276.14C263.85 72.94 253.69 71.56 245.6 66.07C243.46 69.74 240.87 72.79 237.89 75.08C236.21 72.94 231.93 69.05 229.57 67.67C232.93 65.3 235.6 62.25 237.74 58.36C234.91 54.47 232.47 49.58 230.49 43.47L239.12 40.49C239.96 43.09 240.95 45.3 242.02 47.29C242.78 44.24 243.39 40.88 243.85 37.21H240.8L240.04 38.97L230.04 36.45C233.02 29.96 236.38 22.25 239.05 15.68H230.35V6.05H245.01L247.07 5.82L253.25 7.88C253.02 8.41 252.72 9.1 252.41 9.64C250.58 14.37 247.83 20.94 245 27.58H247.44L249.27 27.35H249.26ZM270.33 17.12V15.36H257.81V7.12H270.33V2L283.31 2.69C283.23 3.53 282.62 4.06 281.1 4.29V7.12H295.84V17.12H302.25V25.52H295.84V35.52H281.1V37.28H297.06V45.14H281.1V46.97H300.49V55.6H281.1V61.1H270.33V55.6H253.07V46.97H270.33V45.14H256.43V37.28H270.33V35.52H257.58V27.27H270.33V25.51H252V17.12H270.33ZM284.91 15.36H281.09V17.12H284.91V15.36ZM284.91 27.27V25.51H281.09V27.27H284.91Z" fill="#F8EA21"/>
<path d="M337.07 14.83V23.46H306.45V14.83H337.07ZM369.52 34.68L376.54 37.35C376.39 37.96 376.01 38.27 375.62 38.73C373.41 47.05 369.82 53.85 364.93 59.42C369.21 61.86 374.17 63.77 379.59 65.07C377.15 67.28 373.94 71.79 372.41 74.61C366.38 72.78 361.03 70.18 356.38 66.82C351.57 70.1 346 72.7 339.66 74.61C338.59 71.94 336.15 67.74 334.16 65.29V70.86H319.19V73.53H309.87V47.03H334.15V64.74C339.27 63.52 343.92 61.69 347.97 59.24C344.99 55.88 342.47 52.14 340.26 47.94L349.8 44.89H338.04V34.96H341.17C339.41 33.05 336.28 30.46 334.22 29.16V33.97H310.17V25.72H334.22V28.47C340.4 24.04 341.02 18.24 341.02 13.28V4.20996H367.74V20.48C367.74 22.77 367.82 23 368.43 23H369.27C370.03 23 370.34 22.01 370.49 15.75C372.4 17.35 376.67 18.96 379.42 19.64C378.5 29.49 375.98 32.32 370.41 32.32H366.36C359.41 32.32 357.35 29.49 357.35 20.64V14H351.47C351.39 21.1 349.94 29.58 343.22 35H367.58L369.49 34.7L369.52 34.68ZM334.24 36.28V44.53H310.19V36.28H334.24ZM334.16 4.35996V12.61H310.41V4.36996H334.16V4.35996ZM324.69 62.16V55.67H319.19V62.16H324.69ZM350.12 44.9C351.65 47.73 353.71 50.4 356.15 52.77C358.36 50.48 360.2 47.81 361.72 44.9H350.11H350.12Z" fill="#F8EA21"/>
<path d="M72.3598 107.58H43.5698C43.1898 108.65 42.8098 109.79 42.3498 110.94H63.7298V159.81H52.1198V156.68H23.3298V159.81H12.2598V110.94H29.9698C30.1998 109.79 30.3498 108.73 30.4998 107.58H2.5498V97.35H18.3598C16.9098 95.29 15.0798 93.07 13.4698 91.32L23.7798 86.66C26.6798 89.33 29.8098 93 31.4898 95.67L28.2798 97.35H43.3198C45.5298 94.3 47.8998 90.25 49.1998 87.04L63.5498 91.01C63.1698 91.7 62.3998 92 61.1098 92C59.9698 93.68 58.5098 95.59 56.9898 97.34H72.3398V107.57L72.3598 107.58ZM52.1298 123.54V120.49H23.3398V123.54H52.1298ZM23.3398 131.86V135.22H52.1298V131.86H23.3398ZM23.3398 147.13H52.1298V143.54H23.3398V147.13Z" fill="#F8EA21"/>
<path d="M130.69 140.33H120.23V101.62L114.5 109.64C113.28 108.42 111.75 107.12 109.99 105.75V109.49H92.7297V106.74C91.1297 108.34 89.3697 109.87 87.4597 111.4H116.63V136.75H92.4297C92.3497 137.44 92.1997 138.13 92.0497 138.81H117.93V159.58H108.31V157.75H98.0797V159.74H88.8397V150.12C87.6197 153.1 86.0897 155.92 84.1797 158.37C82.7297 156.54 78.7597 152.87 76.8497 151.73C83.4897 142.87 84.1797 130.43 84.1797 121.72V113.85C83.5697 114.31 82.9597 114.69 82.2697 115.15C81.1997 112.63 78.3797 108.43 76.4697 106.6C85.6297 101.18 91.8897 93.85 95.4097 87.28L107.32 89.57C107.09 90.33 106.4 90.87 105.26 90.87L105.18 90.95C110.75 94 116.56 98.13 120.22 101.11V96.68L132.89 97.37C132.81 98.21 132.2 98.67 130.68 98.97V140.35L130.69 140.33ZM93.2797 129.26H106.8V127.2H93.4397L93.2897 129.26H93.2797ZM106.8 118.95H93.5897V120.86H106.8V118.95ZM105.2 102.23C103.44 101.01 101.69 99.86 99.9297 98.72C99.0097 99.94 98.0997 101.09 97.0297 102.23H105.2ZM108.33 146.59H98.0997V149.95H108.33V146.59ZM136.73 88.87L149.79 89.4C149.64 90.24 149.1 90.85 147.5 91.08V146.9C147.5 156.37 145.13 159.73 128.26 159.73C127.88 156.6 126.27 151.56 124.75 148.35C128.95 148.58 133.38 148.58 134.91 148.58C136.21 148.58 136.74 148.12 136.74 146.82V88.87H136.73Z" fill="#F8EA21"/>
<path d="M175.74 117.58L183.45 121.24C183.22 121.85 182.76 122.39 182.15 122.69C178.71 137.05 171.61 148.96 162.45 155.29C160.62 152.92 156.11 148.65 153.44 146.97C160.01 143 165.27 136.43 168.48 128.42H155.5V117.96H173.83L175.74 117.58ZM196.05 108.19C197.42 112.92 199.1 117.43 201.17 121.63C205.9 117.74 211.02 112.77 214.38 108.42L225.76 117.58C225.38 117.96 224.61 118.19 223.77 118.19C223.46 118.19 223.16 118.19 222.85 118.11C218.8 121.93 212.16 127.12 206.74 130.56C211.86 137.2 218.35 142.47 226.74 145.75C224.14 148.04 220.55 152.7 218.8 155.91C208.72 151.1 201.47 143.85 196.05 134.53V147.97C196.05 157.9 191.7 159.88 176.5 159.88C176.04 156.75 174.44 152.01 172.91 149.19C176.42 149.42 181.39 149.42 182.68 149.42C184.05 149.34 184.51 148.96 184.51 147.82V114.83H166.41V104.22H193.13C186.72 101.39 178.32 98.49 171.83 96.81L177.18 86.73C185.66 88.49 198.71 92.53 205.2 95.89L199.4 107.34C198.41 106.81 197.34 106.2 196.04 105.58V108.18L196.05 108.19Z" fill="#F8EA21"/>
<path d="M276.75 97.88L284.77 102C284.46 102.69 283.93 103.3 283.24 103.6C281.48 110.09 279.19 116.2 276.44 121.85C281.4 133.91 290.64 144.45 303.32 149.8C300.65 152.17 296.91 156.9 295.07 160.03C283.69 154.3 275.52 145.22 269.41 133.69C261.09 145.6 250.17 154.69 237.88 160.11C236.43 157.21 232.69 151.94 230.17 149.8C248.04 142.85 262.16 129.18 269.19 109.64H254.99C250.56 117.81 245.14 125.06 239.03 130.41C236.97 128.12 232.62 124.3 229.87 122.39C239.41 115.14 247.28 101.39 251.17 87.27L264.91 91.16C264.6 91.85 263.69 92.38 262.47 92.23C261.78 94.29 261.02 96.35 260.18 98.41H274.76L276.74 97.88H276.75Z" fill="#F8EA21"/>
<path d="M378.3 133.77H364.63C368.91 139.73 374.79 145.3 380.74 148.81C378.22 150.87 374.63 154.92 372.88 157.67C368.07 154 363.41 148.74 359.52 142.86V159.81H348.37V143.32C344.25 149.05 339.36 153.93 334.09 157.45C332.41 154.78 328.97 150.81 326.53 148.67V159.82H315.76V122.86C314 125.23 312.25 127.52 310.42 129.5C309.43 126.75 306.75 120.87 305.3 118.12C311.64 111.4 318.2 99.1801 322.1 87.4301L334.24 91.6301C333.78 92.3901 332.94 92.7001 331.87 92.6201C330.04 97.2801 327.9 102.09 325.53 106.67L328.74 107.51C328.59 108.27 327.9 108.88 326.53 109.04V148.52C332.79 145.24 338.9 139.74 343.25 133.78H329.51V123.78H348.37V117.98H334.24V90.4901H374.86V117.98H359.51V123.78H378.29V133.78L378.3 133.77ZM344.7 100.17V108.26H363.79V100.17H344.7Z" fill="#F8EA21"/>
<path d="M454.34 103.38H448.84C446.93 107.2 444.41 110.63 441.43 113.61C445.93 115.52 451.05 117.05 456.85 117.89C454.86 119.95 452.12 124.08 450.82 126.75C444.25 125.3 438.45 122.93 433.56 119.96C428.75 123.01 423.18 125.38 417.07 127.14C416.15 125.54 414.32 122.94 412.64 120.96V147H403.1V98.67C402.11 101.19 401.11 103.63 400.05 106.08L402.65 106.92C402.42 107.61 401.73 108.22 400.44 108.45V160.07H389.9V124.87C388.6 126.78 387.3 128.53 386.01 130.14C385.17 127.32 382.8 120.98 381.51 118.23C387.01 111.43 392.51 99.22 395.79 87.46L407.7 91.43C407.39 92.12 406.63 92.5 405.41 92.42L403.58 97.54L414.73 98.15C414.65 98.91 414.12 99.45 412.67 99.68V104.95C417.1 100.29 420.84 93.8 422.9 87.24L434.12 90.45C433.89 91.14 433.13 91.52 432.06 91.44C431.68 92.51 431.22 93.65 430.69 94.72H454.36V103.42L454.34 103.38ZM412.65 118.73C417.31 117.59 421.58 115.98 425.4 113.92C423.87 112.55 422.5 111.1 421.28 109.64C419.98 111.17 418.61 112.54 417.23 113.76C416.08 112.69 414.4 111.24 412.65 109.94V118.72V118.73ZM456.78 142.32C456.47 142.93 455.79 143.31 454.57 143.31C446.78 151.71 433.72 156.6 418.38 159.5C417.23 156.83 414.94 153.16 412.81 150.87C426.32 149.11 439.23 145.3 445.64 138.42L456.79 142.31L456.78 142.32ZM442.73 126.29C442.5 126.82 441.89 127.13 440.97 127.13C436.62 130.87 429.14 134.38 422.03 136.6C420.73 134.62 418.37 132.02 416.3 130.34C422.48 128.89 429.74 125.99 433.4 122.86L442.72 126.3L442.73 126.29ZM450.21 132.93C449.98 133.46 449.37 133.77 448.38 133.85C442.58 139.5 432.42 144 421.73 146.68C420.58 144.54 418.45 141.64 416.54 139.81C426.01 138.05 436.01 134.47 440.97 129.58L450.21 132.94V132.93ZM426.77 103.38C428.37 105.21 430.36 107.05 432.73 108.72C434.49 107.12 436.01 105.36 437.31 103.38H426.77Z" fill="#F8EA21"/>
</g>
<defs>
<filter id="filter0_d_3_1392" x="0.969805" y="0.42" width="464.82" height="168.63" filterUnits="userSpaceOnUse" color-interpolation-filters="sRGB">
<feFlood flood-opacity="0" result="BackgroundImageFix"/>
<feColorMatrix in="SourceAlpha" type="matrix" values="0 0 0 0 0 0 0 0 0 0 0 0 0 0 0 0 0 0 127 0" result="hardAlpha"/>
<feOffset dx="3.68" dy="3.68"/>
<feGaussianBlur stdDeviation="2.63"/>
<feColorMatrix type="matrix" values="0 0 0 0 0.101961 0 0 0 0 0.12549 0 0 0 0 0.219608 0 0 0 0.34 0"/>
<feBlend mode="normal" in2="BackgroundImageFix" result="effect1_dropShadow_3_1392"/>
<feBlend mode="normal" in="SourceGraphic" in2="effect1_dropShadow_3_1392" result="shape"/>
</filter>
</defs>
</svg>
