<svg width="532" height="74" viewBox="0 0 532 74" fill="none" xmlns="http://www.w3.org/2000/svg">
<g filter="url(#filter0_d_10_1700)">
<path d="M51.3399 30.1701V32.6001C52.3399 33.9201 55.0499 37.9201 55.6899 38.8801C55.4399 39.2701 55.1499 39.6701 54.3299 40.7001C53.7899 39.5601 52.4399 37.2401 51.3299 35.4201V53.0901H49.1199V35.4901C47.8699 39.6701 46.1899 43.7301 44.4399 46.2001C44.1499 45.5601 43.5799 44.6701 43.1899 44.1301C45.4399 41.1001 47.7199 35.2401 48.8299 30.1801H43.8999V27.9301H49.1099V19.9701L52.0399 20.1801C51.9999 20.3901 51.7899 20.5701 51.3299 20.6401V27.9201H55.5399V30.1701H51.3299H51.3399ZM54.3699 42.2301C56.0799 41.1201 58.7199 39.2301 61.2899 37.3001C61.3299 36.4801 61.3299 35.6601 61.3299 34.8701V19.9901L64.2599 20.1701C64.2199 20.4201 64.0499 20.6001 63.5799 20.6701V34.8701C63.5799 41.3301 62.8699 49.0401 55.2599 53.2101C54.9699 52.7501 54.2599 51.8901 53.7599 51.4301C59.1099 48.8601 60.6799 44.2601 61.1499 39.7201C59.2599 41.3601 57.3999 42.9001 56.0799 43.9301C56.1199 44.2201 55.9699 44.4701 55.7899 44.6101L54.3599 42.2201L54.3699 42.2301ZM57.2999 25.4601C58.6599 27.7801 60.1199 30.8101 60.6899 32.8101L58.7599 33.7001C58.1899 31.6701 56.7999 28.5601 55.5099 26.2401L57.2899 25.4501L57.2999 25.4601ZM69.5799 48.9401C69.5799 50.2601 69.7599 50.5101 70.6899 50.5101H73.8999C74.7199 50.5101 74.8599 49.5101 74.9399 45.9801C75.5099 46.4101 76.3699 46.8001 77.0099 46.9801C76.7999 51.2301 76.2199 52.6901 74.0499 52.6901H70.3699C67.9799 52.6901 67.2999 51.9401 67.2999 48.9101V20.0001L70.2999 20.1801C70.2599 20.4301 70.0499 20.6101 69.5899 20.6801V37.4201L70.6599 36.4601C72.8699 38.3501 75.6199 40.9601 76.9399 42.6301L75.4399 44.1601C74.1899 42.5501 71.7299 40.0201 69.5899 38.1301V48.9401H69.5799ZM76.6799 26.4201C76.5399 26.6301 76.2899 26.7101 75.9299 26.7101C74.9299 28.7801 73.2899 31.7401 71.9699 33.6701C71.9299 33.6701 70.2599 32.7801 70.2199 32.7401C71.5399 30.7401 73.1799 27.4901 74.0699 25.1701L76.6799 26.4201Z" fill="white"/>
<path d="M89.2699 21.6101H119.36V53.1601H117V51.5901H91.5499V53.1601H89.2699V21.6101ZM91.5499 49.3801H117V23.8301H91.5499V49.3801ZM105.54 40.2401C106.33 41.1701 107.32 42.0601 108.5 42.8801C110.03 41.9201 111.89 40.5601 112.96 39.6301L114.92 40.8401C114.81 40.9801 114.56 41.0501 114.21 41.0501C113.1 41.8401 111.43 42.9101 109.93 43.7601C111.79 44.8701 113.86 45.7201 115.89 46.2601C115.43 46.6201 114.86 47.3701 114.53 47.8701C110.96 46.7601 107.21 44.5201 104.75 41.8701V48.2901H102.57V42.6901C100.07 44.4001 96.9999 45.8701 94.1799 46.9001C93.8899 46.5101 93.2499 45.7601 92.8999 45.4001C96.2499 44.2901 100.07 42.4401 102.71 40.2201H96.3599V34.1901H112.1V40.2201H105.53L105.54 40.2401ZM115.03 30.7801V32.4201H93.4399V30.7801H103.04V28.3901H95.6899V26.7801H103.04V24.6001L105.97 24.8101C105.93 25.0201 105.76 25.2001 105.29 25.2701V26.7701H112.89V28.3801H105.29V30.7701H115.03V30.7801ZM98.4299 35.6701V38.7401H109.92V35.6701H98.4299Z" fill="white"/>
<path d="M140.33 29.5001C140.08 28.3601 139.4 26.6101 138.72 25.1801H137.08C136.04 26.9301 134.83 28.5301 133.65 29.7501C133.19 29.3601 132.36 28.7901 131.79 28.5001C133.9 26.5001 135.97 23.1501 137.18 19.8301L139.89 20.7201C139.82 20.9701 139.5 21.0801 139.14 21.0401C138.85 21.7501 138.5 22.5001 138.14 23.2201H148.03V25.1801H141.11C141.72 26.3901 142.22 27.7501 142.47 28.6801L140.33 29.5001ZM161.64 41.5301L162.18 41.4901L163.57 41.7001C163.57 41.9501 163.5 42.2001 163.46 42.4501C162.53 51.4401 161.82 51.5901 157.68 51.5901C156.86 51.5901 155.9 51.5901 154.86 51.5201C154.82 50.8101 154.57 49.9101 154.18 49.2701C155.96 49.4801 157.68 49.4801 158.28 49.4801C158.92 49.4801 159.28 49.4401 159.57 49.1601C160.14 48.6601 160.53 47.1601 160.93 43.6301H149.72V53.1601H147.36V44.3401C143.79 47.9101 138.37 50.9401 133.55 52.5101C133.19 51.9401 132.51 51.0501 132.01 50.5801C136.61 49.3001 141.82 46.6501 145.18 43.6201H137.58L137.19 44.9401L134.83 44.5801C135.58 42.3001 136.47 38.6901 137.04 35.8701H147.35V31.9801H135.11V29.9101H161.31V37.9401H149.71V41.5101H161.63L161.64 41.5301ZM147.36 37.9601H138.97C138.72 39.1401 138.4 40.3901 138.11 41.5301H147.35V37.9601H147.36ZM154.11 20.6901C154.04 20.9401 153.75 21.0101 153.4 21.0101C153.08 21.7601 152.72 22.5101 152.33 23.2201H165.04V25.1801H156.51C157.44 26.3901 158.26 27.7501 158.69 28.7501L156.58 29.6101C156.12 28.4001 155.05 26.6101 153.9 25.1801H151.12C149.98 26.8901 148.62 28.4301 147.23 29.5301C146.8 29.1401 145.98 28.5301 145.41 28.2101C147.84 26.3501 150.09 23.1801 151.33 19.8201L154.11 20.6801V20.6901ZM149.72 32.0001V35.8901H158.96V32.0001H149.72Z" fill="white"/>
<path d="M177.09 48.02H208.46V50.45H177.09V48.02ZM179.16 23.5H206.46V25.93H179.16V23.5ZM181.48 35.38H203.68V37.81H181.48V35.38Z" fill="white"/>
<path d="M253.31 25.0701V27.4301H238.36V27.4701H238.9C238.86 27.7201 238.65 27.9001 238.19 27.9701V32.5701H249.9V45.4501C249.9 48.2701 248.76 48.4801 242.05 48.4801C241.94 47.7701 241.51 46.7701 241.19 46.0901C243.76 46.1601 245.94 46.1601 246.61 46.1601C247.25 46.0901 247.43 45.9501 247.43 45.4501V34.9201H238.19V53.2601H235.69V34.9201H227.02V48.6201H224.59V32.5601H235.69V27.4201H220.84V25.0601H235.69V19.8101L238.94 19.9901C238.9 20.2801 238.69 20.4501 238.19 20.5301V25.0601H253.32L253.31 25.0701Z" fill="white"/>
<path d="M282.39 26.5001H295.74V43.3101H293.28V41.2001H282.39V53.0801H279.89V41.2001H269.15V43.4801H266.76V26.4901H279.89V19.9601L283.1 20.1701C283.06 20.4201 282.85 20.6001 282.39 20.6701V26.4901V26.5001ZM269.15 38.8101H279.89V28.8501H269.15V38.8101ZM282.39 38.8101H293.28V28.8501H282.39V38.8101Z" fill="white"/>
<path d="M308.33 46.27C310.83 43.09 312.04 37.7 312.54 33.03L314.86 33.53C314.29 38.31 313.11 44.13 310.51 47.59L308.33 46.27ZM318.54 30.07L321.68 30.28C321.64 30.53 321.47 30.71 321 30.74V48.41C321 50.09 321.39 50.41 323.46 50.41H330.49C332.7 50.41 333.06 49.09 333.31 42.7C333.92 43.16 334.88 43.59 335.59 43.81C335.23 50.63 334.45 52.66 330.56 52.66H323.28C319.57 52.66 318.53 51.73 318.53 48.38V30.07H318.54ZM331.35 28.25C328.53 26.22 323.21 23.54 318.82 22L320.32 20.14C324.67 21.64 329.99 24.24 332.85 26.14L331.35 28.25ZM340.38 46.52C339.52 42.7 336.81 37.06 333.71 32.92L335.85 31.88C339.1 36.02 341.85 41.55 342.77 45.41L340.38 46.52Z" fill="white"/>
<path d="M385.27 35.4201C385.31 36.1301 385.31 36.9501 385.27 37.2401L383.13 37.4201V50.5501C383.13 53.0101 381.77 53.1201 377.7 53.1201C377.63 52.5501 377.31 51.6601 377.02 51.1201C377.84 51.1201 378.59 51.1601 379.16 51.1601C380.94 51.1601 381.05 51.1601 381.05 50.5201V37.6001C378.77 37.8101 376.52 37.9901 374.59 38.1401C374.59 42.6701 374.23 49.0601 371.59 53.2401C371.23 52.8501 370.38 52.3101 369.88 52.1001C372.31 48.2101 372.56 42.6801 372.56 38.2901L371.24 38.4001C371.2 38.6901 370.99 38.8301 370.7 38.8601L369.95 36.4001L372.56 36.2601V24.9801H375.59C376.13 23.4801 376.73 21.4101 377.05 19.9801L379.98 20.7701C379.91 21.0201 379.66 21.1301 379.23 21.1301C378.87 22.2401 378.3 23.7401 377.73 24.9801H383.12V35.5801L385.26 35.4401L385.27 35.4201ZM374.6 26.9601V36.1001C376.6 35.9901 378.81 35.8501 381.06 35.7101V26.9701H374.6V26.9601ZM377.42 28.5701C378.45 30.1001 379.38 32.1701 379.67 33.5701C378.67 34.0001 378.31 34.1401 377.96 34.2801C377.67 32.8901 376.82 30.7801 375.85 29.2101L377.42 28.5701ZM379.06 39.1301C379.02 39.3401 378.85 39.5201 378.42 39.5601V47.7001H376.78V38.9901L379.06 39.1301ZM398.65 48.8701C398.65 50.4001 398.69 50.6201 399.47 50.6201C401.22 50.6201 401.47 50.6201 401.61 49.5101C401.68 48.9701 401.72 47.7301 401.75 46.0801C402.21 46.5101 402.93 46.8301 403.53 47.0401C403.42 51.8201 402.92 52.6401 400.6 52.6401H398.92C396.31 52.6401 396.31 51.1401 396.31 48.6101V34.3301H389.85V40.2501C389.85 44.2801 389.24 49.6001 385.71 53.1301C385.32 52.7001 384.35 51.9901 383.82 51.7401C387.18 48.4201 387.57 43.8501 387.57 40.1801V32.1901H398.63V48.8601L398.65 48.8701ZM403.25 25.9601V28.1401H384.41V25.9601H392.4V20.1101L395.43 20.3201C395.39 20.5301 395.22 20.7101 394.72 20.7801V25.9601H403.25Z" fill="white"/>
<path d="M427.84 27.6801C427.77 27.9301 427.52 28.1101 427.09 28.1401C426.13 33.3201 424.16 37.1301 416.1 39.1001C415.85 38.4901 415.24 37.5701 414.78 37.1001C422.13 35.4901 424.02 32.2801 424.7 27.3601L427.84 27.6801ZM432.05 42.3501V49.8101H446.86V52.0601H414.99V49.8101H429.59V42.3501H418.85V40.1401H443.23V42.3501H432.06H432.05ZM418.2 26.5401V31.4301H415.81V24.3301H429.59V19.9801L432.77 20.1901C432.73 20.4401 432.52 20.6201 432.06 20.6901V24.3301H445.98V31.4301H443.52V26.5401H418.22H418.2ZM433.73 27.0801L436.8 27.2601C436.76 27.5101 436.59 27.6901 436.09 27.7601V34.2901C436.09 35.1501 436.34 35.3301 437.91 35.3301H443.3C444.44 35.3301 444.66 35.0101 444.76 32.9001C445.26 33.2601 446.22 33.5801 446.9 33.7201C446.61 36.6801 445.9 37.4301 443.58 37.4301H437.69C434.51 37.4301 433.73 36.7901 433.73 34.3201V27.0701V27.0801Z" fill="white"/>
<path d="M465.16 41.7001C466.34 41.2001 467.55 40.6601 468.76 40.1701L469.22 42.2801C465.83 43.8901 462.26 45.5301 460.01 46.5301C459.97 46.8201 459.83 47.0301 459.62 47.1401L458.34 44.4301C459.62 43.9701 461.2 43.3201 462.94 42.6101V30.7601H458.98V28.4801H462.94V20.3801L465.87 20.5601C465.83 20.8101 465.62 20.9901 465.16 21.0601V28.4801H468.8V30.7601H465.16V41.7201V41.7001ZM483.68 28.1401C483.89 33.1001 484.32 37.7801 484.97 41.6301C486.47 38.7701 487.65 35.5601 488.5 32.0301L491.28 32.7101C491.21 32.9601 490.96 33.1001 490.49 33.1001C489.35 37.4901 487.74 41.4501 485.6 44.8101C486.49 48.5901 487.63 50.9801 488.99 50.9801C489.78 50.9801 490.17 49.0501 490.31 44.8101C490.81 45.3101 491.56 45.8801 492.09 46.0901C491.66 51.5901 490.95 53.2301 488.7 53.2601C486.59 53.2601 485.02 50.9401 483.92 47.1601C482.14 49.4401 480.07 51.3701 477.71 52.9101C477.39 52.4801 476.64 51.7301 476.14 51.3801C478.92 49.6701 481.28 47.3101 483.24 44.4901C482.28 40.0301 481.71 34.2501 481.46 28.1401H472V33.1701H478.03L478.53 33.1301L479.64 33.2001V33.9901C479.5 42.2701 479.35 45.0901 478.71 45.9801C477.96 46.9401 477.07 46.9401 475.46 46.9401C474.85 46.9401 474.21 46.9001 473.57 46.8701C473.5 46.2601 473.32 45.3701 473 44.8401C474.29 44.9501 475.5 44.9501 475.96 44.9501C476.42 44.9501 476.67 44.9101 476.89 44.5901C477.25 44.0501 477.39 41.7401 477.5 35.2001H472V36.5201C472 41.6601 471.36 48.6201 467.43 53.2601C467.07 52.8001 466.14 52.0501 465.61 51.7601C469.36 47.4101 469.75 41.2701 469.75 36.5201V25.8801H481.35C481.31 23.9501 481.24 21.9901 481.24 20.0301L484.27 20.2101C484.23 20.5001 484.02 20.6401 483.52 20.7101C483.52 22.4201 483.52 24.1701 483.59 25.8801H491.51V28.1301H483.66L483.68 28.1401ZM486.68 20.0001C488.43 21.2501 490.5 23.0301 491.5 24.3201L489.79 25.5301C488.86 24.2801 486.79 22.4301 485.04 21.1001L486.68 19.9901V20.0001Z" fill="white"/>
</g>
<path opacity="0.6" d="M531.56 0.459961H0.560059V73.46H531.56V0.459961Z" stroke="white" stroke-width="0.87" stroke-miterlimit="10"/>
<defs>
<filter id="filter0_d_10_1700" x="42.4499" y="19.0701" width="453.82" height="38.3701" filterUnits="userSpaceOnUse" color-interpolation-filters="sRGB">
<feFlood flood-opacity="0" result="BackgroundImageFix"/>
<feColorMatrix in="SourceAlpha" type="matrix" values="0 0 0 0 0 0 0 0 0 0 0 0 0 0 0 0 0 0 127 0" result="hardAlpha"/>
<feOffset dx="1.72" dy="1.72"/>
<feGaussianBlur stdDeviation="1.23"/>
<feColorMatrix type="matrix" values="0 0 0 0 0.101961 0 0 0 0 0.12549 0 0 0 0 0.219608 0 0 0 0.34 0"/>
<feBlend mode="normal" in2="BackgroundImageFix" result="effect1_dropShadow_10_1700"/>
<feBlend mode="normal" in="SourceGraphic" in2="effect1_dropShadow_10_1700" result="shape"/>
</filter>
</defs>
</svg>
