<svg width="390" height="60" viewBox="0 0 390 60" fill="none" xmlns="http://www.w3.org/2000/svg">
<path d="M359.876 0.975098H29.4855C13.2566 0.975098 0.100586 14.1312 0.100586 30.36C0.100586 46.5889 13.2566 59.7451 29.4855 59.7451H359.876C376.104 59.7451 389.261 46.5889 389.261 30.36C389.261 14.1312 376.104 0.975098 359.876 0.975098Z" fill="white"/>
<path d="M127.931 6.91504H29.9206C16.9723 6.91504 6.47559 17.4117 6.47559 30.36V30.3751C6.47559 43.3234 16.9723 53.8201 29.9206 53.8201H127.931C140.879 53.8201 151.376 43.3234 151.376 30.3751V30.36C151.376 17.4117 140.879 6.91504 127.931 6.91504Z" fill="#FFE900"/>
<path d="M43.7965 23.7C45.9565 25.215 48.6715 27.255 50.0515 28.785L46.5565 31.485C46.1815 30.975 45.6415 30.405 44.9965 29.82C44.8615 30.015 44.5915 30.1501 44.1565 30.1201C43.2115 32.1451 42.0565 33.915 40.6615 35.43C43.1965 37.125 46.4215 38.28 50.4415 38.88C49.5565 39.765 48.4165 41.52 47.8765 42.63C43.5115 41.79 40.1365 40.335 37.4815 38.235C34.6465 40.23 31.2115 41.6551 27.1915 42.6001C26.7265 41.6551 25.6315 39.93 24.8965 39.075C28.7215 38.37 32.0065 37.155 34.6165 35.415C33.2665 33.75 32.1715 31.83 31.1965 29.625C30.2215 30.375 29.2015 31.11 28.2265 31.695C27.4915 30.885 26.0965 29.52 25.1815 28.845C27.5515 27.66 30.1315 25.605 31.6465 23.73H25.5565V19.9051H35.5015V16.965L40.3465 17.235C40.3165 17.535 40.1065 17.715 39.5365 17.805V19.9051H49.5565V23.73H43.7965V23.7ZM32.0815 23.7L36.2365 25.485C36.1015 25.65 35.9065 25.755 35.6365 25.755C35.5615 25.755 35.4415 25.7551 35.3665 25.7251C34.2865 26.9101 32.9215 28.2 31.4665 29.355L34.9165 28.365C35.5915 30.03 36.4765 31.515 37.6165 32.79C38.8015 31.5 39.7165 29.985 40.3915 28.23L44.8315 29.685C43.3465 28.29 41.4115 26.745 39.8215 25.56L42.3565 23.7H32.0965H32.0815Z" fill="#2E318B"/>
<path d="M58.6767 27.4201V36.0451C60.0567 38.6101 62.6067 38.61 67.8567 38.61C71.0967 38.61 74.9217 38.505 77.6067 38.265C77.1717 39.15 76.5867 40.965 76.3917 42.06C74.2917 42.165 71.4117 42.255 68.7117 42.255C62.0517 42.255 59.2766 42.195 57.0266 39.27C55.8716 40.26 54.6867 41.205 53.6817 41.97C53.6517 42.315 53.5467 42.4801 53.2467 42.5851L51.3867 38.4601C52.4967 37.8451 53.7567 37.11 54.9117 36.3V31.05H51.7317V27.435H58.6617L58.6767 27.4201ZM54.7917 17.535C56.4417 18.645 58.5867 20.3401 59.5917 21.6001L56.6817 24.435C55.8267 23.175 53.7417 21.315 52.1067 20.07L54.8067 17.535H54.7917ZM64.3617 33.915V37.7101H60.7017V23.7601H65.7416C64.8266 23.3551 63.8817 22.9501 63.0717 22.6351L65.4417 20.7H61.0767V17.79H73.1967L73.7667 17.595L76.5717 19.3501C76.4367 19.5601 76.1667 19.6801 75.8517 19.7251C74.7267 20.7451 73.2117 21.99 71.5917 23.07C72.1017 23.31 72.5967 23.55 72.9867 23.775H76.1967V34.5C76.1967 37.17 75.2217 37.845 71.3517 37.845C71.2167 36.9 70.8117 35.64 70.4067 34.8C71.0217 34.83 71.8617 34.83 72.1017 34.83C72.4767 34.83 72.4767 34.755 72.4767 33.945H70.1367V37.6351H66.6567V33.945H64.3617V33.915ZM66.6567 26.535H64.3617V27.48H66.6567V26.535ZM64.3617 31.14H66.6567V30.15H64.3617V31.14ZM65.8767 20.685C66.6567 20.955 67.5417 21.3 68.4417 21.66C68.9067 21.36 69.3567 21.045 69.7917 20.685H65.8917H65.8767ZM72.4767 26.535H70.1367V27.48H72.4767V26.535ZM70.1367 31.14H72.4767V30.15H70.1367V31.14Z" fill="#2E318B"/>
<path d="M104.231 37.875H100.946C102.206 38.82 103.691 39.945 104.501 40.785L101.621 42.5851C100.736 41.5951 98.7862 39.9451 97.3312 38.8351L98.9813 37.86H95.0963L96.7613 38.8351C96.6863 38.9401 96.5213 39.0301 96.3263 39.0451C95.3813 40.2001 93.2513 41.79 91.4513 42.57C90.8813 41.955 89.8612 41.01 89.0812 40.41C88.4962 42.585 86.3813 42.5851 84.1763 42.5851C84.1163 41.5351 83.7713 40.0801 83.2613 39.1351C83.9363 39.2101 84.5213 39.2101 84.9113 39.2101C85.2263 39.2101 85.4513 39.135 85.6613 38.775C85.9613 38.265 86.0663 36.195 86.1413 30.48H84.6862C84.3112 35.04 83.4413 39.345 81.1913 42.525C80.5763 41.58 79.4063 40.3951 78.4463 39.7801C81.0563 36.1201 81.2213 30.54 81.2963 24.525H78.8662V20.91H82.7213V16.98L87.2513 17.22C87.2213 17.52 87.0113 17.685 86.4713 17.79V20.91H89.9213V21.555C90.8663 20.235 91.5863 18.5701 91.9763 16.9201L95.8763 17.91C95.8013 18.12 95.5763 18.255 95.2013 18.24C95.0663 18.675 94.9013 19.125 94.7363 19.56H104.216V22.68H93.1463L92.9063 23.055L96.4012 23.25C96.3712 23.52 96.1612 23.685 95.6512 23.79V25.05H98.3513V23.0101L102.716 23.25C102.686 23.52 102.476 23.715 101.936 23.79V25.05H103.871V28.095H101.936V34.77H104.231V37.8151V37.875ZM87.7913 26.985L89.6963 27.0451C89.6963 27.3451 89.6963 27.7801 89.6663 28.1701C89.5913 35.2051 89.5013 38.67 89.0963 40.29C90.4163 39.72 91.8113 38.775 92.8163 37.86H89.8763V34.8151H92.1113V28.14H90.2513V25.095H92.1113V24.105C91.9013 24.375 91.6613 24.615 91.4063 24.825C91.0613 24.48 90.4613 24.045 89.8913 23.64V24.555H84.9413L84.8662 26.985H87.7762H87.7913ZM98.3513 28.14H95.6512V28.755H98.3513V28.14ZM98.3513 31.77V31.125H95.6512V31.77H98.3513ZM95.6512 34.14V34.8151H98.3513V34.14H95.6512Z" fill="#2E318B"/>
<path d="M115.931 30.4951L114.956 30.6301V39.4351C114.956 41.8801 114.146 42.6151 110.966 42.6151C110.891 41.8051 110.516 40.5151 110.111 39.7351C110.516 39.7651 110.951 39.7952 111.266 39.7952C112.046 39.7952 112.121 39.7951 112.121 39.3901V31.0351L109.556 31.3801C109.496 35.0101 109.151 39.6451 107.621 42.6451C107.111 42.1801 105.866 41.4301 105.191 41.1601C106.481 38.5501 106.751 34.8902 106.811 31.7252L106.481 31.7851C106.421 32.0251 106.181 32.1602 105.971 32.1902L105.296 28.9501L106.811 28.8152V20.5652H109.046C109.226 19.4102 109.391 18.0001 109.451 16.9501L113.471 17.6552C113.396 17.8652 113.141 18.0002 112.736 18.0302C112.526 18.7652 112.226 19.6952 111.926 20.5652H114.941V28.0201L115.826 27.9451L115.901 30.4801L115.931 30.4951ZM111.296 24.0302C111.701 24.9452 112.031 26.1301 112.136 27.0151H112.166L112.136 23.4901H109.571V24.6002L111.296 24.0302ZM109.571 28.5901L112.136 28.3502V27.2701L110.141 27.9451C110.111 27.1951 109.871 26.0851 109.571 25.1101V28.5901ZM112.106 31.8451C112.076 32.0401 111.911 32.1752 111.596 32.1902V37.8001H109.946V31.7101L112.106 31.8451ZM129.641 39.2252H131.156V42.1352H115.256V39.2252H116.771V32.1902H129.641V39.2252ZM118.751 31.2001V31.5751H116.141V17.8951H123.791V20.3251H121.961V21.5851H123.686V24.3301C124.406 22.4701 124.796 19.6651 124.976 17.0251L128.696 17.7751C128.621 17.9851 128.396 18.1501 128.051 18.1501C127.976 18.8701 127.886 19.6051 127.751 20.3551H131.036V23.2651H127.181C126.866 24.5551 126.461 25.7401 125.936 26.6851C125.396 26.2201 124.436 25.6351 123.671 25.2001V27.4351H121.946V28.6951H124.121V31.1702H118.736L118.751 31.2001ZM119.531 20.3101H118.751V21.5701H119.531V20.3101ZM121.121 23.7901H118.751V25.2451H121.121V23.7901ZM119.531 28.7252V27.4651H118.751V28.7252H119.531ZM119.636 35.0851V39.2401H120.341V35.0851H119.636ZM123.461 35.0851H122.756V39.2401H123.461V35.0851ZM124.511 29.9402V27.0302H130.601V29.9402H124.511ZM126.581 35.0851H125.876V39.2401H126.581V35.0851Z" fill="#2E318B"/>
<g filter="url(#filter0_d_70_1854)">
<path d="M171.041 37.47H168.251L167.561 34.7101H164.831L164.186 37.47H161.456L164.576 25.6351H167.996L171.026 37.47H171.041ZM167.246 32.6701L166.721 30.3001C166.571 29.5951 166.376 28.545 166.211 27.825H166.181C166.031 28.545 165.836 29.6251 165.686 30.3001L165.146 32.6701H167.231H167.246Z" fill="#2E318B"/>
<path d="M176.007 37.4699V28.215H175.977L173.967 29.235L173.367 27.285L176.352 25.815H178.632V37.4549H175.992L176.007 37.4699Z" fill="#2E318B"/>
<path d="M189.747 25.83V28.0501H185.922L185.712 29.88C185.892 29.88 186.057 29.8501 186.252 29.8501C188.052 29.8501 190.152 30.8401 190.152 33.5101C190.152 35.7151 188.457 37.6351 185.547 37.6351C184.377 37.6351 183.312 37.3651 182.742 37.0651L183.222 35.025C183.717 35.25 184.512 35.5201 185.367 35.5201C186.447 35.5201 187.452 34.875 187.452 33.72C187.452 32.415 186.417 31.7701 184.557 31.7701C184.077 31.7701 183.717 31.785 183.342 31.845L184.017 25.83H189.762H189.747Z" fill="#2E318B"/>
<path d="M202.826 35.79V36.6901C203.201 36.7351 203.636 36.7501 204.851 36.7501C205.556 36.7501 206.516 36.7501 207.011 36.7501C206.756 37.1851 206.486 38.1001 206.411 38.6401H204.011C202.046 38.6401 200.426 38.325 199.211 37.11C198.896 37.845 198.461 38.5051 197.936 39.0001C197.576 38.6701 196.826 38.115 196.361 37.845C197.366 36.975 197.891 35.3701 198.071 33.6451L200.381 34.0651C200.336 34.2001 200.216 34.275 200.006 34.29C199.961 34.605 199.901 34.935 199.826 35.235C200.081 35.61 200.411 35.8951 200.771 36.1051V33.45H198.146V31.83H200.771V31.3351H197.501L197.681 32.7301C197.186 32.8801 196.706 33.0451 196.211 33.2101V36.5851C196.211 38.1601 195.896 39 193.121 38.955C193.061 38.37 192.806 37.425 192.521 36.825C193.061 36.84 193.646 36.8401 193.856 36.8401C194.051 36.8401 194.111 36.7801 194.111 36.5701V33.8551L193.031 34.1701C193.001 34.3351 192.866 34.44 192.731 34.47L192.206 32.04C192.746 31.935 193.406 31.8001 194.126 31.6201V29.2951H192.446V27.255H194.126V24.3901L196.676 24.4951C196.661 24.6601 196.556 24.78 196.226 24.825V27.24H197.561V29.2801H196.226V31.095L197.141 30.8851V29.61H200.786V29.1601H198.161V27.525H200.786V27.0901H197.426V25.38H200.786V24.345L203.276 24.4801C203.276 24.6301 203.141 24.7351 202.826 24.7801V25.38H206.726V27.0901H202.826V27.525H205.871V29.61H206.906V31.3051H205.871V33.4201H202.826V34.0651H206.096V35.7601H202.826V35.79ZM202.826 29.1901V29.6401H203.816V29.1901H202.826ZM202.826 31.3351V31.83H203.816V31.3351H202.826Z" fill="#2E318B"/>
<path d="M212.396 30.315V35.2199C213.176 36.6749 214.661 36.675 217.616 36.675C219.446 36.675 221.621 36.615 223.166 36.48C222.926 36.99 222.581 38.01 222.476 38.64C221.276 38.7 219.641 38.745 218.111 38.745C214.376 38.745 212.771 38.715 211.466 37.05C210.881 37.62 210.281 38.1449 209.771 38.5799C209.771 38.7749 209.711 38.85 209.546 38.925L208.496 36.585C209.066 36.255 209.696 35.82 210.281 35.37V32.37H208.691V30.315H212.411H212.396ZM210.371 24.78C211.211 25.455 212.276 26.4449 212.756 27.1649L210.926 28.5599C210.506 27.8399 209.501 26.7899 208.676 26.0399L210.371 24.78ZM216.536 36.4349V35.565H212.771V33.9899H216.536V33.6149H213.671V29.0249H216.536V28.68H213.326V27.18H216.536V26.385L219.146 26.52C219.146 26.685 219.011 26.79 218.696 26.835V27.1649H222.011V28.6649H218.696V29.01H221.651V33.6H218.696V33.975H222.686V35.55H218.696V36.42H216.536V36.4349ZM214.856 26.235V26.85H212.906V24.675H222.551V26.85H220.511V26.235H214.841H214.856ZM215.561 30.3299V30.7049H216.536V30.3299H215.561ZM215.561 32.295H216.536V31.92H215.561V32.295ZM219.686 30.3299H218.711V30.7049H219.686V30.3299ZM219.686 32.295V31.92H218.711V32.295H219.686Z" fill="#2E318B"/>
<path d="M225.235 35.97C225.235 35.01 225.925 34.3051 226.795 34.3051C227.665 34.3051 228.355 34.965 228.355 35.97C228.355 36.975 227.725 37.6351 226.795 37.6351C225.865 37.6351 225.235 36.93 225.235 35.97Z" fill="#2E318B"/>
<path d="M230.785 25.0049H244.09V38.9699H241.885V38.37H232.885V38.9699H230.785V25.0049ZM232.885 36.375H241.885V26.985H240.715C241.06 27.195 241.405 27.45 241.585 27.675L241.03 28.245H241.54V29.7749H239.08C239.125 30.2999 239.17 30.78 239.23 31.245C239.38 30.855 239.515 30.45 239.62 30.03L241.57 30.51C241.54 30.63 241.405 30.7049 241.195 30.7049C240.865 31.7699 240.385 32.79 239.785 33.66C239.905 33.945 240.055 34.1399 240.22 34.1849C240.34 34.1849 240.445 33.5699 240.505 32.8799C240.835 33.1949 241.48 33.735 241.84 33.945C241.66 35.46 241.045 36.1499 240.265 36.1499C239.875 36.1499 239.065 35.9249 238.555 35.1299C238.105 35.5649 237.625 35.9399 237.1 36.2549C236.89 35.9399 236.41 35.3699 236.095 35.0399C235.24 35.1749 234.445 35.295 233.86 35.37C233.83 35.505 233.725 35.58 233.62 35.61L233.095 33.855C234.16 33.78 235.72 33.645 237.265 33.48V34.0799C237.49 33.8849 237.685 33.675 237.88 33.465C237.595 32.445 237.415 31.155 237.31 29.76H233.29V28.23H237.205C237.175 27.87 237.16 27.495 237.145 27.105L239.41 27.195C239.395 27.345 239.26 27.48 238.975 27.51C238.975 27.735 238.975 27.99 238.975 28.215H240.1C239.845 28.02 239.545 27.795 239.29 27.645L239.995 26.9549H232.87V36.3449L232.885 36.375ZM237.04 30.27V33.1649H233.59V30.27H237.04ZM235.585 32.0399V31.3799H234.97V32.0399H235.585Z" fill="#2E318B"/>
<path d="M250.392 30.3151V35.13C251.247 36.555 252.912 36.5551 255.552 36.5551C257.367 36.5551 259.512 36.495 261.057 36.36C260.817 36.9 260.457 37.9651 260.352 38.6251C259.197 38.6851 257.652 38.7301 256.182 38.7301C252.387 38.7301 250.797 38.6551 249.402 37.0351C248.772 37.5901 248.127 38.1301 247.587 38.5651C247.587 38.7601 247.527 38.8501 247.347 38.9101L246.252 36.4651C246.882 36.1201 247.587 35.685 248.232 35.22V32.3701H246.657V30.3151H250.407H250.392ZM248.232 24.735C249.102 25.365 250.227 26.2951 250.737 27.0151L248.967 28.485C248.517 27.78 247.452 26.7601 246.582 26.0701L248.232 24.735ZM251.922 28.6201H254.097C254.142 28.4551 254.172 28.275 254.217 28.095H250.752V26.325H252.732C252.522 25.905 252.252 25.47 251.982 25.095L253.692 24.3751C254.157 24.9301 254.637 25.68 254.832 26.22L254.592 26.325H256.317L256.197 26.2801C256.527 25.7101 256.902 24.945 257.097 24.36L259.557 25.0351C259.497 25.1701 259.362 25.2151 259.107 25.2301C258.882 25.5451 258.552 25.95 258.252 26.31H260.607V28.08H256.482C256.392 28.245 256.317 28.4251 256.212 28.6051H259.392V36.1801H257.187V35.9401H254.007V36.1801H251.907V28.6051L251.922 28.6201ZM257.202 30.6601V30.2251H254.022V30.6601H257.202ZM254.022 32.0701V32.5201H257.202V32.0701H254.022ZM254.022 34.38H257.202V33.915H254.022V34.38Z" fill="#2E318B"/>
<path d="M263.096 35.97C263.096 35.01 263.786 34.3051 264.656 34.3051C265.526 34.3051 266.216 34.965 266.216 35.97C266.216 36.975 265.586 37.6351 264.656 37.6351C263.726 37.6351 263.096 36.93 263.096 35.97Z" fill="#2E318B"/>
<path d="M282.176 25.5451V27.435H268.451V25.5451H274.046V24.345L276.806 24.4951C276.806 24.6601 276.671 24.765 276.341 24.81V25.5301H282.176V25.5451ZM281.621 36.6751C281.621 37.6351 281.441 38.2201 280.796 38.5501C280.151 38.8801 279.356 38.9251 278.351 38.9251C278.306 38.5951 278.201 38.16 278.066 37.755H274.256V38.415H272.336V34.2H278.231V36.8551C278.606 36.8701 278.981 36.8701 279.116 36.8701C279.311 36.8551 279.386 36.8101 279.386 36.6451V33.6751H271.271V38.955H269.096V31.845H281.621V36.6901V36.6751ZM271.031 27.8701H279.536V31.38H271.031V27.8701ZM277.286 29.31H273.131V29.9251H277.286V29.31ZM276.281 35.6551H274.241V36.3001H276.281V35.6551Z" fill="#2E318B"/>
<path d="M296.5 32.025C296.665 31.56 296.8 31.0801 296.935 30.5851L299.125 31.1401C299.08 31.2751 298.93 31.3501 298.69 31.3501C298.24 32.8951 297.625 34.35 296.815 35.61C296.95 36.42 297.115 36.8551 297.295 36.8551C297.49 36.8551 297.61 36.2251 297.67 34.5301C298.06 34.9651 298.63 35.415 299.08 35.595C298.9 38.43 298.36 38.9101 297.1 38.9101C296.35 38.9101 295.81 38.3851 295.435 37.4401C294.925 37.9801 294.4 38.4451 293.815 38.8501C293.635 38.6251 293.305 38.2651 293.005 37.9651C291.88 38.0701 290.83 38.145 290.065 38.205C290.035 38.34 289.93 38.4151 289.81 38.4301L289.555 37.47C287.905 37.755 286.21 38.055 285.115 38.22C285.085 38.37 284.95 38.4601 284.83 38.4751L284.245 36.2701C284.8 36.2251 285.49 36.15 286.225 36.06V35.505L285.01 35.8201C284.965 35.1451 284.755 34.1101 284.545 33.3151L285.805 33.0001C285.955 33.5401 286.105 34.2001 286.225 34.7701V32.8051H284.53V30.9451H286.225V30.075H285.205V29.235C284.875 28.815 284.395 28.335 284.035 28.095C285.235 27.015 285.985 25.59 286.39 24.36L288.7 24.735C288.67 24.885 288.55 24.975 288.325 24.99C288.88 25.44 289.555 25.9501 289.975 26.3851V25.4401H291.13V24.3751L293.5 24.5101C293.5 24.6601 293.365 24.7501 293.08 24.7951V25.4401H294.175V27.1051H293.08V27.72H294.46C294.445 26.67 294.445 25.545 294.445 24.36L297.01 24.4951C296.995 24.6751 296.845 24.765 296.53 24.81V25.365L297.85 24.7951C298.285 25.4851 298.72 26.4001 298.885 27.0151L297.355 27.705H298.84V29.4301H296.47C296.47 30.3601 296.47 31.2151 296.515 31.9801H296.53L296.5 32.025ZM289 28.29C288.685 27.855 288.07 27.3 287.485 26.775C287.215 27.285 286.885 27.795 286.525 28.29H289ZM292.93 36.525L293.755 36.4951C294.145 36.1051 294.52 35.7 294.85 35.22C294.61 33.705 294.505 31.7401 294.46 29.4601H289.435V27.735H291.085V27.1201H289.93V26.9401L289.03 28.29H289.165V30.0901H288.04V30.9601H289.51V32.8201H288.04V34.575C288.205 34.02 288.355 33.3751 288.46 32.9101L289.765 33.36V33.1951H294.25V34.5301H292.915V34.8751H294.085V36.1201H292.915V36.54L292.93 36.525ZM289.54 36.63L291.07 36.5851V36.1051H289.945V34.86H291.07V34.5151H289.765V33.6451H289.72C289.555 34.2151 289.21 35.055 288.955 35.61L288.055 35.2501V35.865L289.48 35.685L289.54 36.6451V36.63ZM289.87 32.8501V29.8501H294.16V32.8501H289.87ZM291.43 31.1551V31.5301H292.495V31.1551H291.43ZM297.13 27.735C297.01 27.24 296.755 26.5801 296.455 25.9801C296.44 26.5951 296.425 27.18 296.425 27.735H297.13Z" fill="#2E318B"/>
<path d="M318.596 33.4651H315.072C314.967 34.2751 314.756 35.0401 314.366 35.7451C315.686 36.3751 317.382 36.735 319.407 36.915C318.927 37.41 318.341 38.355 318.041 38.97C316.016 38.7 314.367 38.1901 313.032 37.3951C312.282 38.0401 311.292 38.595 310.017 38.985C309.747 38.505 309.072 37.605 308.622 37.185C309.852 36.945 310.736 36.5851 311.366 36.1351C310.841 35.6101 310.376 35.0101 309.956 34.3501L311.907 33.7651C312.102 34.0501 312.341 34.3351 312.611 34.5901C312.746 34.2451 312.821 33.8701 312.881 33.4951H309.732V27.6751H312.956V27.075H309.401V25.455C309.071 26.355 308.667 27.2551 308.247 28.1401L308.846 28.3351C308.801 28.4701 308.666 28.6051 308.381 28.6351V39.0001H306.221V31.6351C305.906 32.0851 305.577 32.5051 305.247 32.8951C305.067 32.3551 304.556 31.155 304.271 30.615C305.486 29.25 306.716 26.805 307.451 24.45L309.506 25.1551H319.001V27.0901H315.177V27.6901H318.611V33.5101L318.596 33.4651ZM311.786 29.235V29.8051H312.971V29.235H311.786ZM311.786 31.29V31.8751H312.971V31.29H311.786ZM316.436 29.235H315.161V29.8051H316.436V29.235ZM316.436 31.8751V31.29H315.161V31.8751H316.436Z" fill="#2E318B"/>
<path d="M331.316 35.79V36.6901C331.691 36.7351 332.126 36.7501 333.341 36.7501C334.046 36.7501 335.006 36.7501 335.501 36.7501C335.246 37.1851 334.976 38.1001 334.901 38.6401H332.501C330.536 38.6401 328.916 38.325 327.701 37.11C327.386 37.845 326.951 38.5051 326.426 39.0001C326.066 38.6701 325.316 38.115 324.851 37.845C325.856 36.975 326.381 35.3701 326.561 33.6451L328.871 34.0651C328.826 34.2001 328.706 34.275 328.496 34.29C328.451 34.605 328.391 34.935 328.316 35.235C328.571 35.61 328.901 35.8951 329.261 36.1051V33.45H326.636V31.83H329.261V31.3351H325.991L326.171 32.7301C325.676 32.8801 325.196 33.0451 324.701 33.2101V36.5851C324.701 38.1601 324.386 39 321.611 38.955C321.551 38.37 321.296 37.425 321.011 36.825C321.551 36.84 322.136 36.8401 322.346 36.8401C322.541 36.8401 322.601 36.7801 322.601 36.5701V33.8551L321.521 34.1701C321.491 34.3351 321.356 34.44 321.221 34.47L320.696 32.04C321.236 31.935 321.896 31.8001 322.616 31.6201V29.2951H320.936V27.255H322.616V24.3901L325.166 24.4951C325.151 24.6601 325.046 24.78 324.716 24.825V27.24H326.051V29.2801H324.716V31.095L325.631 30.8851V29.61H329.276V29.1601H326.651V27.525H329.276V27.0901H325.916V25.38H329.276V24.345L331.766 24.4801C331.766 24.6301 331.631 24.7351 331.316 24.7801V25.38H335.216V27.0901H331.316V27.525H334.361V29.61H335.396V31.3051H334.361V33.4201H331.316V34.0651H334.586V35.7601H331.316V35.79ZM331.316 29.1901V29.6401H332.306V29.1901H331.316ZM331.316 31.3351V31.83H332.306V31.3351H331.316Z" fill="#2E318B"/>
<path d="M345.506 36.345H351.326V38.5201H337.391V36.345H343.181V33.7501H339.221V31.6051H343.181V29.2801H340.226C339.791 30.1801 339.311 31.0201 338.786 31.6801C338.336 31.2601 337.436 30.6301 336.881 30.2851C337.976 28.9801 338.951 26.625 339.446 24.45L342.161 25.185C342.101 25.32 341.951 25.4101 341.696 25.3951C341.531 25.9651 341.336 26.5351 341.126 27.0901H343.166V24.345L345.971 24.4951C345.956 24.6601 345.821 24.765 345.491 24.825V27.075H350.546V29.2501H345.491V31.575H349.886V33.72H345.491V36.3151L345.506 36.345Z" fill="#2E318B"/>
<path d="M354.416 28.56C355.346 28.875 356.636 29.475 357.281 29.985L355.991 31.845C355.421 31.32 354.191 30.645 353.216 30.255L354.416 28.575V28.56ZM353.666 37.3351C354.431 36.1651 355.541 34.2901 356.411 32.4601L358.106 33.8551C357.356 35.4751 356.531 37.0501 355.811 38.2651C355.901 38.3701 355.931 38.475 355.931 38.58C355.931 38.685 355.901 38.7751 355.841 38.8501L353.666 37.3201V37.3351ZM367.811 31.0201H363.806V32.5651H366.866V38.8501H364.616V38.2951H360.851V38.9101H358.706V32.5651H361.556V31.0201H357.746V28.8901H361.556V27.4051C360.581 27.5401 359.561 27.645 358.601 27.72C358.526 27.255 358.286 26.535 358.046 26.04L356.876 27.6901C356.321 27.1501 355.106 26.4601 354.146 26.0551L355.346 24.4201C356.246 24.7351 357.446 25.3201 358.091 25.8151C360.791 25.5751 363.641 25.05 365.426 24.345L367.316 26.1451C367.211 26.2351 367.091 26.235 366.821 26.235C365.951 26.535 364.916 26.8051 363.806 27.0301V28.8901H367.811V31.0201ZM364.616 36.2851V34.575H360.851V36.2851H364.616Z" fill="#2E318B"/>
</g>
<defs>
<filter id="filter0_d_70_1854" x="161.036" y="23.925" width="209.174" height="17.475" filterUnits="userSpaceOnUse" color-interpolation-filters="sRGB">
<feFlood flood-opacity="0" result="BackgroundImageFix"/>
<feColorMatrix in="SourceAlpha" type="matrix" values="0 0 0 0 0 0 0 0 0 0 0 0 0 0 0 0 0 0 127 0" result="hardAlpha"/>
<feOffset dx="0.99" dy="0.99"/>
<feGaussianBlur stdDeviation="0.705"/>
<feColorMatrix type="matrix" values="0 0 0 0 0.0941176 0 0 0 0 0.121569 0 0 0 0 0.215686 0 0 0 0.34 0"/>
<feBlend mode="normal" in2="BackgroundImageFix" result="effect1_dropShadow_70_1854"/>
<feBlend mode="normal" in="SourceGraphic" in2="effect1_dropShadow_70_1854" result="shape"/>
</filter>
</defs>
</svg>
