<svg width="1230" height="60" viewBox="0 0 1230 60" fill="none" xmlns="http://www.w3.org/2000/svg">
<path d="M53.82 38.2051V44.8651H30.18V57.8851H22.935V44.8651H3.05176e-05V38.2051H22.935V32.8951H5.83503V5.98505H47.685V32.8951H31.695C31.575 33.3601 31.11 33.6001 30.18 33.7651V38.2051H53.82ZM12.735 12.12V16.5601H40.44V12.12H12.72H12.735ZM12.735 22.2751V26.7151H40.44V22.2751H12.72H12.735Z" fill="#FFFF00"/>
<path d="M70.74 44.79C69.45 49.455 67.53 54.4801 64.26 57.7501L58.65 54.2551C61.62 51.4501 63.72 47.0251 64.83 42.7501L70.725 44.79H70.74ZM113.115 34.0501H73.95V36.6751H106.575L108.03 36.495L111.765 37.0801C111.765 37.6051 111.645 38.2501 111.525 38.8951C110.76 49.635 109.95 54.075 108.435 55.815C107.085 57.21 105.69 57.915 100.845 57.915C99.855 57.915 98.745 57.9151 97.635 57.8551C97.575 56.1601 96.87 53.775 96 52.245C98.16 52.485 100.08 52.485 100.965 52.485C101.85 52.485 102.3 52.3651 102.84 51.9001C103.605 51.0301 104.295 48.2251 104.76 41.6251H67.005V7.18507H80.61C81.195 5.55007 81.72 3.85508 82.005 2.46008L90.885 3.85507C90.705 4.32007 90.3 4.56004 89.43 4.62004L88.08 7.18507H104.895V26.6251H73.965V29.19H113.13V34.0351L113.115 34.0501ZM74.25 55.995C74.43 53.13 73.965 48.585 73.14 45.075L78.855 44.2051C79.845 47.6551 80.37 52.2 80.37 55.065L74.235 55.995H74.25ZM98.01 12.0451H73.965V14.6701H98.01V12.0451ZM73.965 21.7951H98.01V18.9901H73.965V21.7951ZM85.23 54.8851C84.99 52.2601 83.88 48.1201 82.665 44.9701L87.975 43.6801C89.31 46.7701 90.6 50.8051 90.945 53.3101L85.23 54.8851ZM95.325 51.735C94.74 49.635 93.225 46.3651 91.77 43.9201L96.735 42.165C98.25 44.505 99.885 47.7151 100.59 49.7551L95.34 51.735H95.325Z" fill="#FFFF00"/>
<path d="M171.06 15.03V46.2H144.855V15.03H153.135L153.84 11.055H142.695V8.65503H142.575C140.535 11.985 137.445 16.065 134.34 19.215C135.735 20.205 136.965 21.135 137.895 22.02L136.38 24.0601H141.045L144.48 24.3001C143.31 29.5501 141.915 34.7401 139.98 39.7651C135.195 37.9501 135.075 37.8901 134.955 37.8901C135.6 35.8501 136.35 33.0451 137.055 30.2401H133.62V50.43C133.62 55.86 132.045 57.96 121.83 57.78C121.545 55.86 120.66 52.995 119.73 51.12C122.235 51.18 124.98 51.18 125.805 51.18C126.615 51.12 126.855 50.9401 126.855 50.3101V30.225H118.095V24.045H130.41C127.44 21.825 123.645 19.5451 120.375 17.9701L123.87 13.3651C125.565 14.1301 127.425 15.12 129.3 16.11C130.59 14.715 131.925 13.02 133.095 11.325H119.325V5.25005H137.82L138.87 4.90503L142.665 7.18506V5.14503H173.07V11.04H161.16C160.815 12.27 160.395 13.6051 159.93 15.0151H171.015L171.06 15.03ZM156.585 49.9351C156.345 50.1751 156 50.28 155.535 50.34C152.91 52.965 147.48 56.2951 142.875 58.0501C141.765 56.7601 139.725 54.6601 138.27 53.5051C142.77 51.8701 147.96 48.72 150.525 46.215L156.6 49.95L156.585 49.9351ZM164.34 23.91V20.1751H151.215V23.91H164.34ZM164.34 32.43V28.6951H151.215V32.43H164.34ZM164.34 41.0701V37.2751H151.215V41.0701H164.34ZM168.72 57.9901C166.68 55.8301 162.3 52.38 158.97 50.055L164.16 46.5C167.43 48.66 171.87 51.87 174.195 54.09L168.705 58.0051L168.72 57.9901Z" fill="#FFFF00"/>
<path d="M227.67 13.3351L231.405 13.575C231.405 14.16 231.345 15.0901 231.285 15.8551C230.58 42.2401 229.89 51.4051 227.61 54.3751C225.735 57.0001 223.635 57.825 217.575 57.825C216 57.825 214.365 57.7651 212.73 57.7051C212.61 55.8301 211.74 52.9801 210.51 51.1051C214.185 51.3901 217.515 51.3901 219.03 51.3901C220.2 51.3901 220.845 51.2101 221.535 50.4001C223.23 48.6451 223.875 40.125 224.46 19.995H209.805C208.41 23.085 206.835 25.8901 205.2 28.1701C203.97 27.1201 201.645 25.4851 199.89 24.5551C201.93 27.7051 203.805 31.1551 204.615 33.7201C202.635 34.7701 200.94 35.7001 199.245 36.6451C199.005 35.7751 198.6 34.7251 198.135 33.6151L193.755 33.9001V57.8851H187.335V39.2701C187.155 39.6151 186.69 39.7351 186.165 39.6751C185.46 44.5201 184.125 50.1151 182.37 53.6851C181.08 52.8151 178.695 51.705 177.18 51.12C178.815 47.91 179.865 42.3601 180.45 37.3501L187.335 39.0451V34.3201C184.47 34.5001 181.965 34.6051 179.865 34.7251C179.685 35.2501 179.22 35.4901 178.755 35.5351L177.42 28.53H181.68C182.67 27.3 183.72 26.0251 184.77 24.6151C182.955 22.2151 180.105 19.3651 177.645 17.2651L180.855 12.4801L182.145 13.53C184.185 10.2 186.225 6.12005 187.395 2.85005L194.4 5.71506C194.16 6.18006 193.59 6.42005 192.825 6.36005C191.19 9.63005 188.445 13.9501 186.165 17.1601C187.035 18.0301 187.8 18.8551 188.445 19.6051C190.845 16.1551 193.005 12.6601 194.625 9.63008L201.45 12.78C201.165 13.185 200.58 13.3651 199.755 13.3651C196.83 17.9101 192.405 23.7601 188.25 28.4251L195.54 28.3051C194.67 26.8501 193.785 25.3801 192.915 24.0451C194.79 23.0551 196.365 22.29 197.88 21.54C198.465 22.35 198.99 23.1751 199.575 24.0451C203.25 19.1401 206.28 10.8001 207.975 2.80505L216.27 4.90504C216.09 5.43004 215.565 5.71506 214.695 5.67006C214.05 8.23506 213.3 10.8601 212.355 13.4251H226.125L227.64 13.3651L227.67 13.3351ZM198.135 50.985C197.49 47.835 195.795 42.8701 194.22 39.1351L199.71 37.3201C201.345 40.9951 203.16 45.66 203.91 48.825L198.135 50.985ZM210.975 26.8801C214.005 30.9601 217.395 36.3901 218.625 40.1251L212.505 43.2751C211.455 39.6601 208.305 33.9301 205.32 29.7301L210.975 26.8651V26.8801Z" fill="#FFFF00"/>
<path d="M261.69 44.8501C264.03 44.3851 266.415 43.8601 268.875 43.3351C267.705 41.4601 266.43 39.6601 265.14 38.0251L270.63 35.1601C274.425 39.7651 278.565 46.0201 280.2 50.3401L274.245 53.61C273.78 52.215 273.015 50.6401 272.145 48.9451C265.665 50.8201 259.185 52.5601 254.805 53.7301C254.685 54.3151 254.28 54.7201 253.875 54.8401L251.13 46.905C252.3 46.725 253.575 46.44 255.045 46.2V5.76006H276.99V34.6501H261.705V44.8651L261.69 44.8501ZM270.51 12.2251H261.69V17.0101H270.51V12.2251ZM261.69 28.155H270.51V23.2501H261.69V28.155ZM304.005 5.62506V41.2201C304.005 47.9851 301.32 49.5151 292.56 49.5151C292.32 47.4151 291.21 43.9051 290.16 41.9251C291.555 42.0451 292.965 42.0451 294.075 42.0451C296.46 42.0451 296.7 42.0451 296.7 41.0551V12.69H288.36V57.87H281.175V5.64008H303.99L304.005 5.62506Z" fill="#FFFF00"/>
<path d="M336.57 56.985C334.935 54.765 331.665 51.555 328.575 48.75C324.495 52.305 319.875 55.41 315.03 57.915C314.04 56.16 312.105 53.835 310.425 52.305C320.115 48.105 329.445 40.5751 334.53 31.6501L341.76 34.455C341.52 34.86 340.995 35.16 340.185 35.16C338.31 38.31 336.045 41.2951 333.48 44.0851C336.63 46.7101 340.185 49.8601 342.12 52.1401L336.57 56.985ZM330.39 16.59C330.105 17.055 329.52 17.1751 328.695 17.1751C326.94 19.8001 324.195 23.13 321.81 25.815C322.98 26.685 324.09 27.5701 325.02 28.3801C327.585 25.6951 329.805 22.725 331.44 19.68L338.685 22.245C338.445 22.71 337.98 23.01 337.17 23.01C332.385 31.245 324.27 39 315.465 44.19C314.475 42.615 312.66 40.4551 310.965 39.0601C314.175 37.4251 317.325 35.3251 320.25 32.9251C317.625 30.5251 314.01 27.7951 311.085 25.6951L315 21.09C315.645 21.495 316.335 21.9601 316.98 22.4251C318.555 20.4451 320.13 18.1651 321.48 16.0051H311.205V9.76506H323.34V2.76004L331.74 3.22504C331.68 3.81004 331.275 4.15507 330.165 4.33507V9.76506H341.55V16.0051H329.175L330.405 16.59H330.39ZM352.095 10.35C352.035 10.935 351.63 11.2201 350.58 11.4001V43.215H343.98V9.88504L352.095 10.35ZM356.355 4.05006L364.695 4.39503C364.635 4.98003 364.23 5.38507 363.18 5.50507V49.575C363.18 56.4 360.615 57.87 349.635 57.87C349.35 55.89 348.345 52.74 347.415 50.745C350.685 50.865 353.895 50.8651 355.005 50.8651C355.995 50.8051 356.34 50.52 356.34 49.53V4.06503L356.355 4.05006Z" fill="#FFFF00"/>
<path d="M395.745 25.8901H379.875V57.87H373.05V5.05505H395.76V25.8901H395.745ZM389.145 10.0801H379.86V13.0501H389.145V10.0801ZM379.86 20.8801H389.145V17.61H379.86V20.8801ZM412.89 44.6401H406.35V56.8351H400.215V44.6401H394.44C393.735 48.3751 391.695 54.0301 386.97 57.2401C386.04 56.0101 383.88 54.0901 382.53 53.1601C386.085 50.8201 387.78 47.4451 388.425 44.6401H382.59V38.9251H388.77V34.485H383.46V28.9351H411.885V34.485H406.335V38.9251H412.875V44.6401H412.89ZM394.74 38.9251H400.23V34.485H394.74V38.9251ZM422.7 5.07007V49.7251C422.7 56.4301 420.195 57.7201 410.265 57.7201C410.025 55.8001 409.095 52.5901 408.165 50.7751C409.68 50.8351 411.315 50.8951 412.605 50.8951C415.53 50.8951 415.815 50.895 415.815 49.665V26.0251H399.585V5.07007H422.7ZM415.815 10.0951H406.245V13.065H415.815V10.0951ZM406.245 21.0151H415.815V17.6251H406.245V21.0151Z" fill="#FFFF00"/>
<path d="M479.67 11.1151L483.12 11.235C482.715 15.255 483.18 39.885 480.72 43.62C480.315 44.205 479.91 44.6701 479.49 45.0151C480.945 45.9451 483.285 46.7701 484.92 47.1151C484.05 54.6451 482.115 56.9251 476.1 56.9251H465.135C457.89 56.9251 455.79 55.0051 455.79 47.8201V26.52C455.325 27.105 454.86 27.69 454.395 28.215C453.525 27.225 451.995 25.65 450.66 24.54H445.755V30.7201H452.115V36.795H445.755V44.7301L452.76 42.975L453.57 48.69C445.98 51.03 437.925 53.355 432.795 54.825C432.675 55.41 432.27 55.755 431.865 55.875L429.18 48.75L431.625 48.165V28.725L438.63 29.1301C438.57 29.6551 438.225 29.8951 437.235 30.0601V46.875L439.635 46.2301V24.5251H431.82V5.02505H451.485V21.36C455.1 16.515 458.19 9.57003 460.065 2.74503L467.775 4.96504C467.595 5.43004 467.07 5.73004 466.26 5.67004C465.675 7.48504 465.03 9.28504 464.34 11.1H479.685L479.67 11.1151ZM437.76 10.995V18.645H445.17V10.995H437.76ZM462.27 47.76C462.27 50.385 462.735 50.79 465.885 50.79H475.515C478.02 50.79 478.545 49.92 478.905 45.42C477.27 46.41 475.815 46.41 470.97 46.41C470.85 44.535 470.265 41.9101 469.335 40.2301C471.03 40.4101 472.545 40.41 473.415 40.41C474.12 40.41 474.645 40.29 475.05 39.54C475.92 38.205 476.34 32.715 476.625 17.415H461.445C460.8 18.765 460.05 20.1 459.345 21.33H473.055V39.78H462.255V47.7751L462.27 47.76ZM462.27 27.1051V34.0501H467.175V27.1051H462.27Z" fill="#FFFF00"/>
<path d="M520.365 28.575C515.145 25.665 512.385 20.97 512.385 16.2C512.385 6.87004 520.065 0.915039 529.845 0.915039C541.035 0.915039 546.33 7.99506 546.33 15.0901C546.33 19.6351 543.795 24.6451 538.05 27.7651V27.915C543.57 30.45 548.115 35.295 548.115 42.315C548.115 52.38 540.21 59.0251 529.02 59.0251C517.005 59.0251 510.6 51.6451 510.6 43.5901C510.6 36.6601 514.71 31.65 520.365 28.815V28.5901V28.575ZM537.075 43.2C537.075 37.68 533.34 34.1701 528.42 32.5351C524.175 34.0951 521.625 38.0551 521.625 42.5251C521.625 47.2951 524.535 51.4801 529.305 51.4801C534.075 51.4801 537.06 47.595 537.06 43.2H537.075ZM522.75 15.6751C522.75 19.9951 525.885 22.9801 530.28 24.6301C533.415 23.3551 536.025 19.8601 536.025 16.0501C536.025 12.2401 534.165 8.29506 529.455 8.29506C524.745 8.29506 522.735 12.1051 522.735 15.6751H522.75Z" fill="#FFFF00"/>
<path d="M607.485 25.8301H586.53C589.98 37.9051 596.745 47.0701 608.76 51.1051C607.065 52.6201 604.785 55.7701 603.69 57.8101C592.485 53.4301 585.825 45.375 581.565 34.11C578.355 43.68 572.055 52.26 559.335 57.87C558.285 55.89 556.185 53.325 554.205 51.735C568.44 45.96 573.93 36.495 575.97 25.815H555.315V18.5851H576.975C577.38 13.3951 577.32 8.08507 577.38 2.82007L586.665 3.40504C586.545 4.05004 586.02 4.45506 585.03 4.63506C584.97 9.13506 584.91 13.8601 584.505 18.5851H607.5V25.815L607.485 25.8301Z" fill="#FFFF00"/>
<path d="M633.69 28.0951L634.395 34.11C632.295 34.815 630.195 35.5051 628.095 36.1501V50.28C628.095 56.58 625.695 57.75 616.59 57.75C616.35 55.995 615.48 53.145 614.61 51.33C616.89 51.45 619.335 51.45 620.1 51.45C620.91 51.39 621.21 51.165 621.21 50.34V38.2651L616.02 39.84C615.96 40.425 615.495 40.7701 615.03 40.8901L612.87 32.955C615.15 32.49 618 31.845 621.21 31.08V20.16H613.74V13.68H621.21V2.82005L629.67 3.16502C629.61 3.81002 629.205 4.15507 628.095 4.33507V13.68H633.93V20.16H628.095V29.4451L633.705 28.11L633.69 28.0951ZM643.035 18.645C643.035 20.865 643.62 21.1501 647.235 21.1501H657.975C661.005 21.1501 661.53 20.2201 661.95 14.4451C663.405 15.4351 666.33 16.5451 668.25 16.8901C667.38 25.2301 665.325 27.3901 658.56 27.3901H646.59C638.295 27.3901 636.09 25.41 636.09 18.69V2.76004L644.61 3.22504C644.55 3.75004 644.085 4.15505 643.035 4.27505V10.5151C649.05 9.06006 655.17 7.12506 659.145 5.26506L664.575 10.575C664.335 10.815 663.87 10.815 663.12 10.815C657.99 12.915 650.16 14.835 643.05 16.245V18.645H643.035ZM637.02 57.87V30.84H664.575V57.51H657.63V55.53H643.62V57.87H637.02ZM657.63 36.735H643.62V40.35H657.63V36.735ZM643.62 49.6951H657.63V45.9001H643.62V49.6951Z" fill="#FFFF00"/>
<path d="M687.195 24.1951C688.83 26.4751 693.21 33.3001 694.14 34.9351L690.525 39.9601C689.82 38.0851 688.485 35.3551 687.195 32.7301V57.825H680.835V35.6401C679.32 40.2451 677.505 44.4 675.465 47.37C674.82 45.45 673.365 42.765 672.375 41.19C675.705 36.585 678.795 28.4701 680.31 21.4651H673.71V14.985H680.835V2.79004L688.71 3.25508C688.65 3.78008 688.245 4.12505 687.195 4.30505V14.985H693.03V21.4651H687.195V24.2101V24.1951ZM705.225 47.4301C705.105 47.7751 704.64 47.9551 703.995 47.8951C702.015 50.7001 698.565 54.2551 695.295 56.5351C694.305 55.2001 692.43 53.3851 690.975 52.2751C694.065 50.2951 697.275 46.9651 699.15 44.1001L705.225 47.4301ZM727.875 43.6351H713.745V51.69C713.745 57.24 711.36 57.9301 703.935 57.9301C703.695 56.1751 702.825 53.9101 702.06 52.2751C703.17 52.3351 704.28 52.3951 705.15 52.3951C707.13 52.3951 707.25 52.2751 707.25 51.6301V43.6351H693.24V38.0251H727.845V43.6351H727.875ZM703.425 13.5151V10.7701H693.555V5.22008H727.755V10.7701H717.48V13.5151H726.24V28.5151H695.25V13.5151H703.425ZM724.725 35.7H697.065V30.6151H724.725V35.7ZM700.965 18.6001V23.4451H704.055V18.6001H700.965ZM712.05 18.6001H708.78V23.4451H712.05V18.6001ZM712.05 13.5151V10.7701H708.84V13.5151H712.05ZM723.075 56.5351C721.62 54.0901 718.29 50.2351 715.545 47.4901L720.51 44.2201C723.315 46.7851 726.75 50.355 728.325 52.86L723.075 56.5351ZM720.21 23.4451V18.6001H716.76V23.4451H720.21Z" fill="#FFFF00"/>
<path d="M796.335 23.205L799.785 23.385C799.785 23.91 799.725 24.72 799.725 25.425C799.26 45.855 798.795 52.98 797.34 55.185C796.17 56.82 794.835 57.87 789.93 57.87C789.225 57.87 788.535 57.87 787.83 57.81C787.77 56.52 787.425 54.78 786.84 53.31L785.91 53.715C785.79 53.25 785.67 52.725 785.505 52.2C778.8 52.905 772.02 53.4901 767.64 53.8351C767.52 54.3601 767.115 54.6 766.65 54.645L765.075 48.285C767.94 48.225 771.615 48.105 775.635 47.94V44.205H767.4V35.34L766.815 35.865C766.005 34.695 764.25 32.595 762.96 31.365C763.02 32.475 763.02 33.645 763.02 34.815C763.02 45.03 762.615 56.055 756.315 57.345C754.215 57.87 751.875 57.93 749.43 57.81C749.43 55.59 748.905 53.085 747.735 51.105C749.085 51.225 750.24 51.225 751.185 51.225C753.225 51.225 754.11 51.165 754.86 50.175C755.97 48.72 756.435 42.945 756.495 36.405C754.395 39.15 752.115 41.655 749.955 43.53C748.905 41.835 746.985 39.555 745.41 38.28C749.265 35.715 753.525 30.93 756.09 26.37C755.85 24.39 755.445 22.455 754.92 20.595C753.405 22.11 751.83 23.565 750.255 24.855C749.145 23.46 746.985 21.405 745.53 20.295C747.81 18.6 750.09 16.38 752.19 13.995C750.735 11.55 748.8 9.09005 746.295 6.76505L751.14 3.09003C753.18 4.96503 754.875 6.82501 756.27 8.70001C757.44 6.94501 758.49 5.14505 759.36 3.39005L766.245 6.72005V4.96503H799.11V19.725H776.925L778.62 20.25C778.44 20.775 777.915 20.955 777.105 20.895C776.76 21.705 776.4 22.47 775.995 23.295H795.015L796.35 23.235L796.335 23.205ZM766.215 19.7101V6.93002C765.93 7.27502 765.45 7.39505 764.865 7.33505C763.53 9.78005 761.775 12.42 759.795 14.925C762.015 19.95 762.72 25.1401 762.945 30.6301C765.87 28.0651 768.6 23.9251 770.415 19.7101H766.215ZM775.605 28.995H772.635C771.87 30.165 771 31.335 770.13 32.385H775.62V28.995H775.605ZM772.11 10.08V14.52H775.5V10.08H772.11ZM772.395 40.08H775.605V36.465H772.395V40.08ZM780.69 10.08V14.52H784.185V10.08H780.69ZM789.39 52.155C790.725 52.155 791.085 52.155 791.73 51.225C792.6 49.935 793.065 44.46 793.365 28.995H782.28C782.16 29.4 781.755 29.7 780.93 29.805V32.37H789.63V44.22H787.47C788.805 46.62 790.035 49.5301 790.56 51.6301L789.39 52.155ZM780.93 36.45V40.065H784.32V36.45H780.93ZM780.93 47.655L783.675 47.535C783.33 46.77 782.97 46.08 782.625 45.435L785.55 44.205H780.945V47.655H780.93ZM789.33 10.065V14.5051H792.945V10.065H789.33Z" fill="#FFFF00"/>
<path d="M840.915 24.42C841.785 27.045 842.835 29.505 844.065 31.83C847.035 29.85 850.245 27.45 852.405 25.41L858.54 30.9601C858.3 31.2001 857.835 31.305 857.37 31.305C857.19 31.305 856.965 31.305 856.725 31.245C854.445 32.94 850.71 35.265 847.5 37.08C850.995 41.58 855.495 45.0751 861.15 47.1751C859.575 48.5701 857.475 51.315 856.425 53.25C845.445 48.405 838.98 38.5951 835.125 25.9351C833.55 27.0451 831.855 28.0351 830.04 29.0251C837.57 34.3351 840.6 41.16 840.6 46.77C840.6 53.475 836.34 57.975 829.62 57.975C828.225 57.975 826.59 57.9151 824.955 57.8551C824.835 55.9801 824.31 53.2501 823.08 51.1951C825.06 51.4351 826.815 51.4801 828.21 51.4801C829.605 51.4801 830.835 51.3 831.705 50.37C832.815 49.605 833.46 48.0301 833.46 45.9901C833.46 45.2851 833.4 44.535 833.22 43.77C826.8 48.675 817.935 53.2801 810.345 55.8451C809.535 54.1501 808.065 51.5851 806.67 50.0701C815.01 47.9701 824.94 43.125 830.715 38.28C830.37 37.755 829.95 37.23 829.485 36.705C824.52 39.975 817.575 43.305 812.085 45.285C811.32 43.71 809.865 41.31 808.59 39.975C814.08 38.64 821.145 35.835 825.69 33.03C825.165 32.625 824.58 32.2201 823.995 31.8001C820.08 33.4351 815.88 34.7701 811.86 35.7751C811.155 34.4401 809.58 31.8001 808.59 30.5251C814.83 29.2351 821.43 27.1351 826.74 24.3901H817.35V18.4351H848.64V24.3901H840.885L840.915 24.42ZM815.235 14.91V21.735H808.41V8.55006H829.425V2.77505L838.245 3.24005C838.185 3.82505 837.78 4.17004 836.67 4.35004V8.55006H858.15V21.735H850.965V14.91H815.25H815.235Z" fill="#FFFF00"/>
<path d="M896.355 41.1151V49.9351C898.455 50.1751 900.735 50.28 903.06 50.28C906.21 50.28 915.96 50.28 919.935 50.1C918.885 51.795 917.775 55.125 917.43 57.225H902.715C891.75 57.225 883.695 55.41 878.325 46.95C876.405 51.495 873.78 55.3501 870.27 58.0951C869.1 56.8051 866.475 54.5401 864.9 53.4901C871.035 49.1101 874.005 40.59 875.055 30.495L883.515 31.725C883.335 32.25 882.87 32.595 882.06 32.655C881.775 34.695 881.415 36.6301 881.01 38.5501C882.765 43.3351 885.57 46.2 889.065 47.895V27.18H877.035V20.52H908.265V27.18H896.355V34.53H912.525V41.1301H896.355V41.1151ZM874.755 15.6751V23.79H867.87V9.07503H888.945V2.65503L898.05 3.18004C897.99 3.76504 897.525 4.11002 896.415 4.29002V9.07503H917.595V23.79H910.365V15.6751H874.755Z" fill="#FFFF00"/>
<path d="M969.96 41.52L975.975 43.8001C975.735 44.2051 975.21 44.505 974.46 44.385C972.765 46.305 970.725 48.1201 968.385 49.7551C969.72 50.8051 971.19 51.45 972.705 51.45C974.22 51.45 974.625 50.4601 974.925 47.0701C976.275 48.2401 978.255 49.35 979.89 49.815C978.9 56.475 976.965 57.87 972.3 57.87C968.505 57.81 965.115 56.1151 962.325 53.2651C958.53 55.0801 954.39 56.595 950.19 57.645C949.545 56.31 948.03 53.67 947.04 52.455C951.06 51.585 955.215 50.295 958.83 48.6C957.66 46.56 956.61 44.16 955.8 41.535H944.295V43.875L953.115 43.41V48.075L944.295 48.78V51.75C944.295 56.88 942.54 57.885 931.74 57.885C931.395 56.25 930.57 54.0301 929.76 52.5151C931.05 52.5751 932.505 52.635 933.735 52.635C937.59 52.635 937.59 52.5751 937.59 51.5851V49.305C934.26 49.545 931.17 49.7701 928.725 49.8901C928.605 50.3551 928.2 50.655 927.735 50.76L925.755 44.6851C928.965 44.5651 933.105 44.4 937.605 44.16V41.535H925.935V36.405H937.605V34.125C934.515 34.41 931.365 34.5901 928.38 34.7101C928.2 33.4801 927.57 31.68 926.985 30.51C933.75 30.105 941.4 29.2801 946.59 28.2301H925.35V22.92H948.585V20.76H931.83V15.915H948.585V13.7551H928.74V8.56503H939.3C938.655 7.27503 937.785 5.94005 936.9 4.83005L943.035 2.85004C944.55 4.42504 946.005 6.70504 946.65 8.34004L946.005 8.58005H958.665L958.14 8.40005C959.19 6.70505 960.48 4.38006 961.11 2.68506L969.345 4.96504C969.165 5.43004 968.64 5.61003 967.83 5.61003C967.245 6.48003 966.375 7.59005 965.55 8.58005H975.945V13.77H955.815V15.93H972.915V20.7751H955.815V22.9351H979.575V28.245H948.81L952.785 32.1C952.545 32.28 952.44 32.28 951.435 32.28C949.455 32.685 946.995 33.09 944.31 33.45V36.42H954.465C954 33.975 953.7 31.395 953.535 28.77L962.055 29.055C962.055 29.64 961.59 30.045 960.48 30.165C960.54 32.265 960.825 34.425 961.29 36.405H970.455C968.415 34.89 965.55 33.255 963.165 32.205L967.08 28.29C970.23 29.58 974.205 31.7401 976.245 33.4801L973.38 36.405H978.93V41.535H970.005L969.96 41.52ZM962.835 41.52C963.36 42.915 964.005 44.205 964.71 45.315C966.405 44.145 967.8 42.915 968.97 41.52H962.85H962.835Z" fill="#FFFF00"/>
<path d="M1042.84 30.2101H1029.07V36.9751H1045.53V43.11H1029.07V50.1751H1050.84V56.415H1000.71V50.1751H1021.73V43.11H1005.43V36.9751H1021.73V30.2101H1008.42V25.5451C1006.32 27.0001 1004.1 28.4101 1001.88 29.6251C1000.95 27.9901 999.015 25.4251 997.5 24.0151C1007.6 18.8851 1017.29 9.72004 1021.61 2.41504L1030.93 2.94005C1030.75 3.58505 1030.23 3.99005 1029.42 4.11005C1035.08 11.76 1045.07 19.3501 1053.87 23.1301C1052.06 24.8851 1050.48 27.3301 1049.2 29.4301C1047.1 28.2601 1044.94 26.9251 1042.84 25.5151V30.1801V30.2101ZM1040.75 24.03C1034.57 19.53 1028.77 14.2201 1025.34 9.43507C1022.07 14.1601 1016.7 19.41 1010.52 24.03H1040.76H1040.75Z" fill="#FFFF00"/>
<path d="M1075.35 38.3101V39.18C1077.23 40.29 1082.6 44.2051 1083.93 45.2551L1079.96 50.28C1078.91 49.11 1077.15 47.3551 1075.35 45.6751V57.87H1068.59V46.665C1066.37 49.695 1063.92 52.44 1061.46 54.315C1060.41 52.8 1058.37 50.52 1056.9 49.35C1060.76 46.905 1064.78 42.585 1067.46 38.325H1058.42V32.43H1068.57V28.17H1057.71V22.395H1063.49C1063.14 20.295 1062.44 17.73 1061.51 15.69L1065.3 14.58H1058.88V8.86505H1068.57V2.85004L1076.87 3.25507C1076.81 3.84007 1076.4 4.18505 1075.35 4.36505V8.86505H1084.86V14.58H1079.03L1083.75 15.8101C1083.57 16.2151 1083.11 16.4551 1082.3 16.5151C1081.65 18.2701 1080.6 20.49 1079.55 22.41H1086.09V28.1851H1076.64C1076.4 28.4251 1076 28.6501 1075.35 28.7101V32.4451H1085.22V38.34H1075.35V38.3101ZM1073.6 22.3201C1074.47 20.1601 1075.52 17.01 1076.16 14.565H1067.12C1068.23 17.07 1069.1 20.1151 1069.4 22.2751L1069.05 22.395H1073.78L1073.6 22.3351V22.3201ZM1112.64 22.26V28.7401H1106.99V57.87H1100.16V28.7401H1094.33C1094.33 37.3801 1093.04 49.92 1085.16 57.975C1084.29 56.46 1081.83 54.06 1080.2 53.19C1087.02 46.065 1087.67 36.2101 1087.67 28.3201V8.19003L1091.28 9.24005C1096.65 7.48505 1102.2 5.16007 1105.52 2.88007L1112.12 7.90503C1111.77 8.25003 1111.19 8.25005 1110.48 8.25005C1106.4 10.41 1100.27 12.63 1094.31 14.325V22.26H1112.64Z" fill="#FFFF00"/>
<path d="M1164.93 40.995L1170 44.61C1169.82 44.895 1169.42 45.0151 1168.95 45.0151C1168.77 45.0151 1168.54 45.015 1168.36 44.955C1166.73 45.945 1164.23 47.4001 1161.89 48.5701C1164.75 50.2051 1168.19 51.435 1172.1 52.125C1170.65 53.475 1168.83 56.1001 1167.96 57.9001C1161.36 56.2051 1156.35 53.2951 1152.5 49.1401L1152.74 53.28C1145.55 54.615 1138.14 55.905 1133.3 56.67C1133.24 57.255 1132.77 57.54 1132.36 57.66L1129.8 50.5951C1131.56 50.4151 1133.54 50.1901 1135.76 49.8901V40.965H1129.34V36.0601H1129.27C1128.46 43.8301 1126.71 51.9901 1122.86 58.0051C1121.46 56.8951 1118.35 55.0351 1116.61 54.3901C1122.45 45.3451 1122.92 32.1001 1122.92 22.6951V5.29504H1168.16V21.165H1161.74C1161.5 21.51 1161.09 21.6901 1160.34 21.8101V25.02H1168.58V30.915H1160.34V35.055H1171.36V40.95H1164.95L1164.93 40.995ZM1129.97 21.2101C1129.97 24.8851 1129.97 29.385 1129.44 35.1H1138.61V30.9601H1131.2V25.065H1138.61V21.2101H1129.97ZM1161.08 11.235H1129.97V15.2551H1161.08V11.235ZM1142.16 40.995V49.17C1145.19 48.765 1148.3 48.3601 1151.45 47.8801C1149.75 45.8401 1148.35 43.56 1147.18 40.995H1142.16ZM1153.83 25.065V21.2101H1146.42C1146.18 21.4951 1145.77 21.7351 1145.02 21.8551V25.065H1153.85H1153.83ZM1153.83 35.1V30.9601H1145.01V35.1H1153.83ZM1153.89 40.995C1154.82 42.45 1155.87 43.86 1157.16 45.075C1159.26 43.785 1161.54 42.27 1163.24 40.995H1153.89Z" fill="#FFFF00"/>
<path d="M1202.16 25.8901H1186.29V57.87H1179.47V5.05505H1202.18V25.8901H1202.16ZM1195.56 10.0801H1186.28V13.0501H1195.56V10.0801ZM1186.28 20.8801H1195.56V17.61H1186.28V20.8801ZM1219.31 44.6401H1212.77V56.8351H1206.63V44.6401H1200.86C1200.15 48.3751 1198.11 54.0301 1193.39 57.2401C1192.46 56.0101 1190.3 54.0901 1188.95 53.1601C1192.5 50.8201 1194.2 47.4451 1194.84 44.6401H1189.01V38.9251H1195.19V34.485H1189.88V28.9351H1218.3V34.485H1212.75V38.9251H1219.29V44.6401H1219.31ZM1201.16 38.9251H1206.65V34.485H1201.16V38.9251ZM1229.12 5.07007V49.7251C1229.12 56.4301 1226.61 57.7201 1216.68 57.7201C1216.44 55.8001 1215.51 52.5901 1214.58 50.7751C1216.1 50.8351 1217.73 50.8951 1219.02 50.8951C1221.95 50.8951 1222.23 50.895 1222.23 49.665V26.0251H1206V5.07007H1229.12ZM1222.23 10.0951H1212.66V13.065H1222.23V10.0951ZM1212.66 21.0151H1222.23V17.6251H1212.66V21.0151Z" fill="#FFFF00"/>
</svg>
