<svg width="523" height="147" viewBox="0 0 523 147" fill="none" xmlns="http://www.w3.org/2000/svg">
<path d="M88.14 146.25H57.15V112.185H0V90.06L50.04 0H88.14V86.595H103.725V112.185H88.14V146.25ZM29.25 86.595H57.15V56.76C57.15 48.48 57.915 38.67 58.305 30.015H57.735C53.7 38.67 50.04 47.34 45.42 56.19L29.25 86.205V86.595Z" fill="#FFFF00"/>
<path d="M142.605 146.25V30.015H142.215L117 42.915L109.5 18.48L147.03 0H175.71V146.25H142.605Z" fill="#FFFF00"/>
<path d="M280.965 146.25H249.975V112.185H192.825V90.06L242.865 0H280.965V86.595H296.55V112.185H280.965V146.25ZM222.075 86.595H249.975V56.76C249.975 48.48 250.74 38.67 251.13 30.015H250.56C246.525 38.67 242.865 47.34 238.245 56.19L222.075 86.205V86.595Z" fill="#FFFF00"/>
<path d="M306.375 0H399.51V21.165L346.785 146.25H312.15L364.875 28.47V28.08H306.375V0Z" fill="#FFFF00"/>
<path d="M522.765 88.74V105.3H494.25V146.745H476.73V105.3H450.15L452.085 116.295C439.035 121.365 425.265 126.45 416.085 129.585C415.965 130.92 414.99 131.88 413.91 132.12L406.665 112.785C410.655 111.825 415.605 110.61 421.05 109.035V77.01H409.575V60.45H421.05V33.165L441.585 34.26C441.465 35.595 440.505 36.435 438.075 36.795V60.48H448.71V77.04H438.075V104.22L448.23 101.325V88.755H476.745V53.235H451.86V36.93H519.885V53.235H494.265V88.755H522.78L522.765 88.74ZM459.21 87.9C458.61 80.655 455.58 69.3 451.965 60.96L466.59 56.49C470.58 64.83 473.835 75.585 474.81 82.95L459.225 87.9H459.21ZM522.645 62.16C522.165 63.12 520.95 63.615 519.015 63.615C516.72 71.22 512.61 81.375 509.22 87.9L496.41 82.83C499.305 75.465 502.455 64.215 504.03 55.89L522.63 62.175L522.645 62.16Z" fill="white"/>
</svg>
