<svg width="602" height="31" viewBox="0 0 602 31" fill="none" xmlns="http://www.w3.org/2000/svg">
<path d="M0.949707 1.41992H11.0597V12.0499H10.2597V11.4599H1.70971V12.0499H0.949707V1.41992ZM1.71971 10.7099H10.2497V2.15991H1.70971V10.7099H1.71971ZM2.30971 8.85989C3.24971 8.69989 4.63971 8.43991 6.02971 8.18991L6.06971 8.72992C4.81971 9.00992 3.54971 9.27991 2.74971 9.43991C2.73971 9.53991 2.67971 9.5799 2.60971 9.6199L2.31971 8.8699L2.30971 8.85989ZM6.92971 4.4599C7.03971 5.5599 7.20971 6.5899 7.41971 7.4299C7.83971 6.7299 8.15971 5.93992 8.37971 5.06992L9.21971 5.2699C9.19971 5.3499 9.11971 5.38992 8.97971 5.38992C8.68971 6.43992 8.24971 7.39991 7.67971 8.21991C7.96971 8.93991 8.37971 9.46991 8.77971 9.46991C8.95971 9.46991 9.07971 8.94991 9.15971 8.18991C9.28971 8.31991 9.53971 8.48992 9.68971 8.56992C9.55971 9.66992 9.26971 10.1899 8.80971 10.1899C8.72971 10.1899 8.63971 10.1799 8.54971 10.1399C7.96971 10.0299 7.53971 9.5599 7.18971 8.8399C6.69971 9.4299 6.11971 9.9199 5.46971 10.2999C5.36971 10.1699 5.16971 9.92991 5.02971 9.80991C5.74971 9.39991 6.38971 8.8399 6.90971 8.1499C6.58971 7.1599 6.36971 5.85992 6.22971 4.44992H2.41971V3.8299H6.16971C6.12971 3.3899 6.09971 2.92992 6.06971 2.47992L7.02971 2.52991C7.01971 2.62991 6.92971 2.6899 6.78971 2.7099C6.79971 3.0899 6.82971 3.4699 6.85971 3.8399H9.58971V4.4599H6.89971H6.92971ZM2.88971 5.27991H5.59971V7.6499H2.87971V5.27991H2.88971ZM4.98971 7.12991V5.80991H3.47971V7.12991H4.98971ZM7.92971 2.37991C8.40971 2.57991 8.98971 2.9199 9.26971 3.2099L8.88971 3.6499C8.59971 3.3699 8.02971 2.9999 7.54971 2.7699L7.92971 2.3699V2.37991Z" fill="white"/>
<path d="M20.0101 4.93997C20.2501 5.72997 20.5901 6.48998 20.9901 7.16998C21.7801 6.67998 22.7201 6.00998 23.3201 5.47998L24.0501 6.13998C24.0501 6.13998 23.8901 6.19997 23.8001 6.18997C23.1901 6.66997 22.1901 7.30996 21.3901 7.76996C22.2501 8.95996 23.3901 9.86998 24.8101 10.32C24.6301 10.48 24.4001 10.79 24.2701 11C21.8101 10.1 20.2301 7.88997 19.3801 5.15997C19.0001 5.44997 18.5401 5.73996 18.0601 5.98996C19.7101 7.17996 20.4201 8.70998 20.4201 9.91998C20.4201 11.21 19.6001 12.01 18.3601 12.01C18.0601 12.01 17.6801 12 17.2801 11.97C17.2701 11.77 17.2001 11.43 17.0601 11.21C17.5001 11.25 17.9201 11.26 18.1901 11.26C18.5401 11.26 18.8301 11.24 19.0801 11.03C19.4201 10.81 19.6101 10.37 19.6101 9.81998C19.6101 9.47998 19.5401 9.10997 19.3801 8.71997C18.0601 9.85997 16.0001 11 14.2601 11.57C14.1601 11.37 14.0001 11.07 13.8301 10.89C15.6501 10.4 17.8601 9.21998 19.0701 8.06998C18.9101 7.81998 18.7201 7.56996 18.5101 7.32996C17.4801 8.09996 15.8601 8.91997 14.6001 9.37997C14.5001 9.18997 14.3201 8.90996 14.1701 8.73996C15.4401 8.36996 17.1001 7.58996 18.0701 6.86996C17.8701 6.68996 17.6401 6.49998 17.3901 6.31998C16.4901 6.73998 15.5201 7.08998 14.6101 7.34998C14.5101 7.18998 14.3201 6.87996 14.2001 6.73996C15.6801 6.36996 17.3501 5.72996 18.5301 4.92996H15.6901V4.21997H22.5601V4.92996H20.0301L20.0101 4.93997ZM14.9301 2.99997V4.61996H14.1501V2.25998H18.7201V0.839966L19.7901 0.909973C19.7801 0.989973 19.7101 1.04998 19.5501 1.06998V2.25998H24.1901V4.61996H23.3701V2.99997H14.9201H14.9301Z" fill="white"/>
<path d="M31.05 2.88004V3.55002H26.73V2.88004H31.05ZM30.71 7.77002V11.3H27.95V11.86H27.25V7.77002H30.7H30.71ZM30.7 4.51004V5.17004H27.27V4.51004H30.7ZM27.27 6.80002V6.14005H30.7V6.80002H27.27ZM30.65 1.28003V1.94003H27.33V1.28003H30.65ZM30 8.45004H27.95V10.61H30V8.45004ZM32.49 8.41003C32.35 9.45003 32.08 10.59 31.43 11.27L30.82 10.86C31.41 10.27 31.7 9.22004 31.82 8.23004L32.49 8.41003ZM34.59 2.01004C34.49 2.53004 34.37 3.08003 34.19 3.62003C34.77 3.91003 35.29 4.21003 35.67 4.47003L35.26 5.11002C34.92 4.86002 34.44 4.57003 33.92 4.28003C33.49 5.19003 32.82 6.02002 31.69 6.58002C31.59 6.41002 31.35 6.14003 31.19 6.00003C32.22 5.51003 32.86 4.76003 33.27 3.94003C32.73 3.68003 32.17 3.44004 31.65 3.26004L32.05 2.68002C32.53 2.85002 33.03 3.05003 33.54 3.28003C33.68 2.86003 33.78 2.43004 33.85 2.01004H31.75V1.31003H37.15L37.58 1.35004C37.51 1.82004 37.51 5.39003 37.02 5.94003C36.73 6.29003 36.43 6.29004 35.87 6.29004C35.57 6.29004 35.2 6.28003 34.83 6.25003C34.82 6.03003 34.75 5.73004 34.61 5.54004C35.25 5.59004 35.51 5.59003 36.05 5.59003C36.19 5.59003 36.28 5.57003 36.36 5.47003C36.56 5.23003 36.68 4.35003 36.78 2.00003H34.61L34.59 2.01004ZM33.77 10.75C33.77 11.03 33.82 11.07 34.17 11.07H35.35C35.66 11.07 35.72 10.91 35.75 9.71002C35.92 9.83002 36.23 9.95004 36.43 10.01C36.36 11.44 36.14 11.79 35.42 11.79H34.08C33.23 11.79 33.02 11.56 33.02 10.75V7.87003L34 7.94003C33.99 8.01003 33.92 8.07004 33.77 8.10004V10.75ZM35.28 8.31003C34.85 7.79003 33.94 7.08002 33.15 6.61002L33.67 6.14005C34.45 6.59005 35.38 7.28004 35.83 7.79004L35.29 8.31003H35.28ZM37.33 11.24C37.17 10.42 36.63 9.21004 36 8.32004L36.66 8.06003C37.32 8.94003 37.87 10.12 38.06 10.94L37.33 11.24Z" fill="white"/>
<path d="M44.0099 2.88V3.54999H39.8799V2.88H44.0099ZM43.6599 7.76999V11.28H41.0799V11.86H40.3799V7.76999H43.6499H43.6599ZM40.3999 5.17001V4.51001H43.6599V5.17001H40.3999ZM40.3999 6.79999V6.14001H43.6599V6.79999H40.3999ZM43.6099 1.28V1.94H40.4599V1.28H43.6099ZM42.9599 8.44H41.0799V10.6H42.9599V8.44ZM45.7299 5.10999V4.57001C45.2699 5.15001 44.7499 5.60999 44.1899 5.95999C44.0899 5.78999 43.8899 5.52999 43.7199 5.39999C44.2799 5.08999 44.8499 4.57 45.3199 3.94C45.0699 3.59 44.6099 3.11999 44.1899 2.79999L44.6599 2.34C45.0299 2.62 45.4599 3.00001 45.7199 3.32001C45.9599 2.90001 46.1599 2.45999 46.3199 1.98999H44.4099V1.32999H46.6499L46.7799 1.29001L47.2399 1.48999C47.2299 1.54999 47.1799 1.58999 47.1599 1.60999C46.8799 2.69999 46.4199 3.64999 45.8399 4.42999H49.1299C48.4199 3.50999 47.8899 2.31999 47.5699 1.01999L48.2199 0.859985C48.3399 1.32999 48.4999 1.78001 48.6799 2.23001C49.0599 1.91001 49.4999 1.49999 49.7599 1.20999L50.3499 1.73001C50.3499 1.73001 50.2099 1.8 50.1099 1.78C49.8099 2.04 49.3199 2.44 48.9099 2.72C49.0499 3 49.1999 3.26 49.3699 3.5C49.7699 3.19 50.2299 2.77 50.5099 2.47L51.1099 3.03C51.1099 3.03 50.9699 3.08999 50.8699 3.07999C50.5799 3.31999 50.0999 3.67 49.6799 3.94C50.1099 4.47 50.5999 4.9 51.1599 5.19C50.9799 5.33 50.7499 5.60999 50.6399 5.79999C50.0899 5.47999 49.5999 5.02001 49.1799 4.48001V5.10001H45.7499L45.7299 5.10999ZM48.4999 10.93C48.3599 10.87 48.1399 10.79 48.0199 10.75C48.2599 10.23 48.5599 9.38001 48.6999 8.82001L49.6199 9.10999C49.5799 9.17999 49.5099 9.22 49.3699 9.22C49.1899 9.71 48.9099 10.43 48.6499 10.94H51.0199V11.65H43.9399V10.94H46.0599C45.9899 10.42 45.7199 9.64001 45.4499 9.04001L46.1299 8.85001C46.4299 9.44001 46.6899 10.22 46.7899 10.73L46.0899 10.94H48.4799L48.4999 10.93ZM44.9599 8.75V5.92001H49.9299V8.75H44.9599ZM45.6999 6.59V8.07999H49.1399V6.59H45.6999Z" fill="white"/>
<path d="M54.5801 9.52997V0.72998H58.5701V1.34998H55.2001V9.52997H54.5801Z" fill="white"/>
<path d="M67.9699 2.40994C69.2499 3.38994 70.7399 4.80995 71.4099 5.81995L70.7299 6.36993C70.5099 6.02993 70.2099 5.64994 69.8499 5.24994C66.4799 5.38994 62.8599 5.50994 60.6799 5.58994C60.6699 5.68994 60.5799 5.72994 60.4899 5.74994L60.1899 4.76993L62.2199 4.72995C62.9899 3.63995 63.8999 2.01995 64.4299 0.819946L65.4399 1.22995C65.4199 1.29995 65.3099 1.33994 65.1799 1.33994C64.6599 2.35994 63.8699 3.67993 63.1699 4.70993L69.1899 4.53995C68.6099 3.94995 67.9799 3.37994 67.3699 2.90994L67.9899 2.41995L67.9699 2.40994ZM61.9899 11.9899V6.88995H69.6099V11.9399H68.7699V11.4699H62.7999V11.9899H61.9999H61.9899ZM68.7699 7.66995H62.7999V10.6799H68.7699V7.66995Z" fill="white"/>
<path d="M73.7898 4.24997C74.4398 4.56997 75.2098 5.08997 75.5798 5.46997L75.0998 6.07996C74.7398 5.69996 73.9698 5.13996 73.3398 4.79996L73.7999 4.24997H73.7898ZM73.5698 11.41C74.0098 10.46 74.6498 8.87997 75.1098 7.52997L75.7498 7.94998C75.3398 9.20998 74.7799 10.68 74.3699 11.6C74.4299 11.67 74.4498 11.73 74.4498 11.79C74.4498 11.84 74.4398 11.86 74.4298 11.9L73.5798 11.42L73.5698 11.41ZM75.2798 2.92996C74.9298 2.50996 74.1998 1.92998 73.5898 1.53998L74.0698 1.00998C74.6798 1.36998 75.4298 1.91996 75.7698 2.32996L75.2798 2.92996ZM77.0298 5.08997C76.9898 5.16997 76.9198 5.19997 76.8298 5.18997C76.6998 5.73997 76.4898 6.37998 76.2398 6.78998C76.1398 6.68998 75.9398 6.55996 75.8198 6.48996C76.0498 6.11996 76.1998 5.48997 76.3198 4.87997L77.0298 5.08997ZM75.9398 3.93997H76.5298C76.6898 3.72997 76.8398 3.51997 76.9998 3.27997C76.7498 2.98997 76.3898 2.63998 76.0598 2.38998L76.3798 1.97998L76.5198 2.08997C76.7498 1.67997 76.9899 1.18996 77.1199 0.829956L77.7999 1.13998C77.7599 1.19998 77.6798 1.23996 77.5698 1.23996C77.4098 1.55996 77.1499 2.02998 76.9099 2.38998C77.0499 2.51998 77.1998 2.63996 77.3098 2.76996C77.5298 2.41996 77.7198 2.09997 77.8598 1.80997L78.5298 2.15997C78.4798 2.22997 78.3898 2.25996 78.2798 2.23996C77.9998 2.71996 77.5598 3.36997 77.1498 3.90997L78.0598 3.86996C77.9898 3.69996 77.9198 3.54996 77.8298 3.39996L78.2498 3.22998C78.4798 3.60998 78.6898 4.13998 78.7798 4.47998L78.3198 4.66998C78.2998 4.56998 78.2698 4.46998 78.2398 4.34998L77.6498 4.39996V6.92996H77.0698V4.44998C76.7698 4.46998 76.5098 4.48997 76.2898 4.49997C76.2698 4.57997 76.2099 4.62997 76.1199 4.65997L75.9198 3.93997H75.9398ZM83.2898 9.72998L83.4498 9.68997L83.9398 9.85995C83.9198 9.91995 83.8898 9.98996 83.8598 10.05C83.4298 11.92 83.0798 11.99 82.0098 11.99C81.6498 11.99 81.1499 11.98 80.6199 11.95C80.6099 11.75 80.5198 11.48 80.3998 11.3C80.9498 11.36 81.4998 11.37 81.8398 11.37H82.0698C82.4898 11.37 82.7498 11.37 83.0098 10.29H77.4799L77.3699 10.65L76.6298 10.52C76.8498 9.95996 77.0698 9.14996 77.2398 8.48996H82.6098V7.80997H76.6599V7.25998H83.3598V9.05997H77.8298L77.6498 9.71997H83.2898V9.72998ZM78.3998 4.88998C78.5298 5.31998 78.6598 5.84998 78.7098 6.19998L78.2198 6.32996C78.1698 5.96996 78.0498 5.42997 77.9298 4.99997L78.3998 4.88998ZM81.4898 2.06998V2.59998H78.5499V2.06998H81.4898ZM78.8998 6.71997V4.90997H81.1898V6.71997H78.8998ZM81.1698 3.03998V3.52997H78.9298V3.03998H81.1698ZM78.9298 4.45996V3.96997H81.1698V4.45996H78.9298ZM81.0998 1.14996V1.63998H78.9898V1.14996H81.0998ZM79.4698 5.37997V6.23996H80.6298V5.37997H79.4698ZM82.5499 5.08997C82.5299 5.14997 82.4698 5.18997 82.3298 5.18997C82.1998 5.71997 81.9898 6.33998 81.7398 6.72998C81.6298 6.64998 81.4398 6.51997 81.3098 6.43997C81.5398 6.06997 81.7198 5.47997 81.8398 4.87997L82.5499 5.08997ZM81.3898 3.92996H82.0098C82.1698 3.73996 82.3198 3.51998 82.4898 3.28998C82.2398 2.99998 81.8398 2.63997 81.5098 2.37997L81.8298 1.95996L82.0098 2.07996C82.2398 1.67996 82.4898 1.18996 82.6498 0.829956L83.3298 1.13998C83.2798 1.21998 83.1898 1.24996 83.0898 1.23996C82.9198 1.55996 82.6498 2.01998 82.3898 2.38998C82.5598 2.52998 82.6998 2.67997 82.8198 2.80997C83.0698 2.44997 83.2898 2.08998 83.4598 1.78998L84.1298 2.13998C84.0898 2.19998 84.0098 2.21997 83.8898 2.21997C83.5798 2.69997 83.0998 3.34998 82.6498 3.88998L83.6798 3.86996C83.5798 3.69996 83.4998 3.54997 83.3998 3.40997L83.8298 3.20996C84.1198 3.58996 84.4098 4.12998 84.5098 4.47998L84.0398 4.71997C83.9998 4.60997 83.9598 4.47998 83.8998 4.34998L83.2498 4.39996V6.93997H82.6498V4.43997L81.7398 4.49997C81.7298 4.56997 81.6598 4.61998 81.5798 4.63998L81.3598 3.91998L81.3898 3.92996ZM83.9998 6.61996C83.9298 6.18996 83.7398 5.52996 83.5698 5.01996L84.0499 4.88998C84.2399 5.38998 84.4298 6.04996 84.5198 6.45996L83.9998 6.61996Z" fill="white"/>
<path d="M90.4398 2.88V3.54999H86.5298V2.88H90.4398ZM90.1198 11.29H87.6898V11.87H87.0198V7.78H90.1298V11.29H90.1198ZM90.1298 4.51001V5.17001H87.0198V4.51001H90.1298ZM87.0198 6.79999V6.14001H90.1298V6.79999H87.0198ZM90.0898 1.28V1.94H87.0998V1.28H90.0898ZM89.4298 8.44H87.6798V10.6H89.4298V8.44ZM95.3298 3.85001C95.3898 5.39001 95.4898 6.85 95.6398 8.06C96.0798 7.11 96.4198 6.05 96.6598 4.91L97.5198 5.22C97.4798 5.29 97.4098 5.33 97.2798 5.34C96.9598 6.74 96.4598 8.05 95.8298 9.19C96.0598 10.35 96.4298 11.23 96.8298 11.23C97.0198 11.23 97.1998 10.34 97.3098 9.17999C97.4498 9.31999 97.6798 9.49 97.8298 9.56C97.6598 11.23 97.3298 11.99 96.7698 11.99C96.0898 11.99 95.6198 11.2 95.3098 10.05C94.8298 10.77 94.2898 11.4 93.6998 11.92C93.5798 11.8 93.3498 11.61 93.1798 11.51C93.8998 10.89 94.5498 10.07 95.0998 9.12C94.8398 7.68 94.6998 5.82 94.6198 3.84H91.7398V5.60001H94.0898V5.88C94.0298 8.58 93.9798 9.49001 93.7698 9.79001C93.5898 10.01 93.4298 10.1 92.6998 10.1C92.5198 10.1 92.2998 10.09 92.0998 10.09C92.0898 9.87 92.0298 9.6 91.9098 9.41C92.3398 9.45 92.7498 9.45001 92.9198 9.45001C93.0298 9.45001 93.1098 9.42999 93.1598 9.32999C93.2898 9.14999 93.3398 8.40999 93.3898 6.29999H91.7498C91.7498 7.77999 91.6498 10.31 90.6898 12.02C90.5698 11.88 90.2598 11.61 90.0798 11.53C90.9198 9.99 90.9998 7.88 90.9998 6.34V3.10999H94.5898C94.5698 2.37999 94.5498 1.62 94.5298 0.880005L95.5098 0.940002C95.5098 1.02 95.4298 1.07999 95.2698 1.10999L95.3098 3.10999H97.5998V3.85001H95.3298ZM96.2998 0.950012C96.7798 1.34001 97.3398 1.91999 97.6098 2.32999L97.0298 2.69C96.7798 2.29 96.2298 1.68001 95.7598 1.26001L96.2998 0.950012Z" fill="white"/>
<path d="M101.33 5.08994C100.87 5.84994 100.37 6.51994 99.8697 7.08994C99.7897 6.89994 99.5797 6.52993 99.4497 6.32993C100.6 5.07993 101.75 3.00993 102.45 0.929932L103.41 1.24994C103.36 1.32994 103.28 1.36992 103.13 1.35992C102.82 2.19992 102.45 3.03994 102.03 3.83994L102.35 3.91995C102.33 3.98995 102.27 4.04994 102.11 4.05994V12.0099H101.33V5.06995V5.08994ZM102.94 3.11993H110.86V3.79993H102.94V3.11993ZM103.83 11.9999V8.14993H110.03V11.9599H109.21V11.3999H104.6V11.9999H103.82H103.83ZM109.92 4.79993V5.46994H103.95V4.79993H109.92ZM103.95 7.14993V6.47995H109.91V7.14993H103.95ZM109.71 1.43994V2.10992H104.09V1.43994H109.71ZM109.22 8.81995H104.61V10.7299H109.22V8.81995Z" fill="white"/>
<path d="M116.04 5.08994L116.51 5.24994C116.5 5.30994 116.46 5.35995 116.43 5.38995C116.24 7.00995 115.9 8.34993 115.41 9.42993C116.61 10.6199 118.31 10.8799 120.39 10.8799C120.85 10.8799 123.51 10.8799 124.1 10.8699C123.97 11.0599 123.82 11.4299 123.78 11.6599H120.39C118.12 11.6599 116.36 11.35 115.06 10.14C114.6 10.93 114.05 11.5599 113.42 12.0099C113.3 11.8399 112.99 11.56 112.82 11.45C113.49 10.99 114.07 10.3599 114.52 9.52994C114.05 8.90994 113.67 8.12994 113.37 7.12994L114.01 6.86993C114.24 7.63993 114.53 8.26995 114.89 8.78995C115.23 7.95995 115.48 6.98995 115.62 5.84995H114.08L113.83 6.33994L113.09 6.13995C113.71 4.98995 114.46 3.46995 114.96 2.38995H112.91V1.65994H115.43L115.59 1.61993L116.11 1.83994C116.11 1.83994 116.05 1.94994 116.01 1.99994C115.64 2.76994 115.05 3.97994 114.46 5.12994H115.91L116.07 5.10992L116.04 5.08994ZM119.59 5.13995V4.17993H116.18V3.50995H119.59V2.55994H117.13V1.89993H119.59V0.819946L120.61 0.889954C120.6 0.969954 120.54 1.02993 120.38 1.04993V1.89993H123.02V3.50995H123.99V4.17993H123.02V5.79993H120.38V6.79993H123.22V7.44995H120.38V8.44995H123.76V9.11993H120.38V10.45H119.59V9.11993H116.34V8.44995H119.59V7.44995H116.88V6.79993H119.59V5.79993H117.05V5.13995H119.59ZM120.38 2.55994V3.50995H122.23V2.55994H120.38ZM122.23 5.13995V4.17993H120.38V5.13995H122.23Z" fill="white"/>
<path d="M136.99 2.20996V2.94998H134.1L134.74 3.10995C134.7 3.17995 134.62 3.21997 134.48 3.21997C134.31 3.59997 134.06 4.11998 133.81 4.53998H136.36V10.99C136.36 12 135.88 12.02 133.81 12.02C133.76 11.79 133.64 11.44 133.52 11.23C134 11.24 134.46 11.25 134.79 11.25C135.52 11.25 135.58 11.25 135.58 10.97V5.24997H133.03V6.31998C133.03 6.52998 133.08 6.56998 133.41 6.56998H134.6C134.85 6.56998 134.91 6.50996 134.94 5.98996C135.08 6.09996 135.37 6.20996 135.58 6.23996C135.51 7.00996 135.29 7.19998 134.7 7.19998H133.35C132.51 7.19998 132.32 7.02998 132.32 6.31998V5.23996H130.73C130.57 6.54996 130.08 7.34998 128.24 7.78998C128.18 7.60998 127.99 7.34996 127.84 7.20996C129.36 6.89996 129.84 6.32998 130 5.22998H127.75V11.98H126.97V4.50998H129.42C129.29 4.08998 129.05 3.52997 128.8 3.08997L129.56 2.91998C129.85 3.37998 130.14 3.99996 130.24 4.39996L129.84 4.50998H132.96C133.2 4.06998 133.49 3.40996 133.67 2.92996H126.27V2.18997H131.19V0.829956L132.25 0.899963C132.24 0.979963 132.18 1.03997 132.01 1.05997V2.18997H137.04L136.99 2.20996ZM133.94 10.77H130.07V11.5H129.34V7.80997H133.95V10.77H133.94ZM133.2 8.45996H130.07V10.13H133.2V8.45996Z" fill="white"/>
<path d="M142.93 3.18994V11.9899H138.94V11.3599H142.31V3.18994H142.93Z" fill="white"/>
<path d="M146.6 12.1199C146.79 11.5199 147.03 10.3299 147.13 9.56992L148.43 9.3999C148.18 10.3099 147.67 11.5599 147.4 12.0299L146.61 12.1299L146.6 12.1199Z" fill="white"/>
<path d="M164.52 3.29996H159.47C159.37 3.65996 159.27 4.09997 159.13 4.49997H162.98V12H162.15V11.28H156.12V12H155.33V4.49997H158.29C158.39 4.12997 158.48 3.68996 158.55 3.29996H153.64V2.54996H156.77C156.53 2.11996 156.1 1.54996 155.71 1.14996L156.44 0.829956C156.9 1.28996 157.39 1.90997 157.63 2.33997L157.21 2.55997H160.4C160.81 2.06997 161.3 1.35997 161.58 0.839966L162.62 1.19998C162.57 1.25998 162.49 1.30996 162.36 1.29996C162.11 1.67996 161.74 2.14997 161.38 2.55997H164.51V3.30997L164.52 3.29996ZM162.16 6.50998V5.21997H156.13V6.50998H162.16ZM156.13 7.16998V8.50998H162.16V7.16998H156.13ZM156.13 10.54H162.16V9.16998H156.13V10.54Z" fill="white"/>
<path d="M172.64 7.84998H168.5C168.38 9.15998 168.03 10.64 167.15 11.75C167.03 11.61 166.74 11.34 166.6 11.26C167.7 9.85998 167.85 7.95998 167.85 6.56998V4.53998H172.65V7.84998H172.64ZM170.82 1.02997C170.78 1.10997 170.71 1.16998 170.57 1.16998V1.18997C171.55 1.78997 172.69 2.64998 173.28 3.22998L172.82 3.83997C172.23 3.24997 171.15 2.38998 170.18 1.75998C169.86 2.21998 169.47 2.69996 169.03 3.17996H171.92V3.78998H168.91V3.29996C168.38 3.84996 167.77 4.37995 167.07 4.85995C166.97 4.66995 166.75 4.38996 166.6 4.26996C168.14 3.26996 169.25 1.92998 169.85 0.849976L170.81 1.01996L170.82 1.02997ZM168.53 11.98V8.61996H172.92V11.88H172.19V11.45H169.24V11.98H168.53ZM168.57 6.47998C168.57 6.83998 168.57 7.01997 168.56 7.24997H171.92V6.47998H168.57ZM171.92 5.16998H168.57V5.90997H171.92V5.16998ZM172.2 9.25998H169.25V10.82H172.2V9.25998ZM174.75 2.38998C174.74 2.46998 174.68 2.52997 174.52 2.55997V9.03998H173.74V2.33997L174.75 2.39996V2.38998ZM176.49 1.08997L177.52 1.14996C177.5 1.22996 177.44 1.28998 177.28 1.31998V10.9C177.28 11.92 176.82 12.03 174.68 12C174.63 11.79 174.51 11.42 174.38 11.2C174.81 11.21 175.21 11.21 175.52 11.21C176.46 11.21 176.49 11.21 176.49 10.91V1.08997Z" fill="white"/>
<path d="M183.56 5.67996L184.12 5.96997C184.12 5.96997 184.05 6.06997 183.99 6.08997C183.35 8.42997 181.96 10.23 180.39 11.22C180.26 11.05 179.95 10.74 179.75 10.62C181.14 9.79996 182.38 8.33997 183 6.49997H180V5.71997H183.41L183.55 5.67996H183.56ZM185.81 4.09998C186.09 5.07998 186.46 6.00996 186.93 6.82996C187.91 6.09996 189.11 5.02997 189.86 4.18997L190.72 4.83997C190.66 4.90997 190.54 4.91997 190.43 4.90997C189.63 5.67997 188.33 6.73998 187.3 7.44998C188.22 8.82998 189.45 9.89998 190.99 10.48C190.81 10.65 190.56 10.96 190.43 11.19C188.29 10.28 186.8 8.53997 185.81 6.24997V10.95C185.81 11.47 185.69 11.71 185.33 11.84C184.96 11.97 184.32 11.98 183.32 11.98C183.28 11.75 183.15 11.42 183.03 11.19C183.8 11.21 184.51 11.21 184.71 11.21C184.93 11.2 185 11.14 185 10.93V4.20996H181.57V3.42996H185.82V4.07996L185.81 4.09998ZM183.09 0.829956C184.59 1.18996 186.58 1.85997 187.61 2.40997L187.21 3.23996C186.2 2.67996 184.24 1.93996 182.7 1.54996L183.08 0.829956H183.09Z" fill="white"/>
<path d="M200.21 2.79999L200.79 3.10001C200.77 3.16001 200.71 3.21999 200.65 3.23999C200.39 4.29999 200.04 5.27 199.61 6.16C200.46 8.44 202.13 10.45 204.22 11.33C204.03 11.5 203.76 11.82 203.63 12.04C201.66 11.12 200.1 9.27999 199.13 7.07999C197.75 9.42999 195.8 11.07 193.63 12.06C193.52 11.86 193.25 11.5 193.05 11.34C196.05 10.08 198.6 7.54999 199.68 3.67999H196.37C195.61 5.12999 194.67 6.40999 193.6 7.32999C193.46 7.15999 193.14 6.90999 192.95 6.76999C194.52 5.49999 195.85 3.27 196.62 0.880005L197.68 1.19C197.64 1.27 197.55 1.32 197.39 1.31C197.21 1.84 196.99 2.37 196.77 2.87H200.07L200.23 2.82001L200.21 2.79999Z" fill="white"/>
<path d="M207.77 5.08994C207.31 5.84994 206.81 6.51994 206.31 7.08994C206.23 6.89994 206.02 6.52993 205.89 6.32993C207.04 5.07993 208.19 3.00993 208.89 0.929932L209.85 1.24994C209.8 1.32994 209.72 1.36992 209.57 1.35992C209.26 2.19992 208.89 3.03994 208.47 3.83994L208.79 3.91995C208.77 3.98995 208.71 4.04994 208.55 4.05994V12.0099H207.77V5.06995V5.08994ZM217.21 7.60992H214.26C215.05 8.92992 216.35 10.1999 217.55 10.8499C217.36 11.0099 217.11 11.2899 216.97 11.4999C215.81 10.7699 214.57 9.43993 213.74 8.04993V12.0099H212.94V8.10992C212.08 9.49992 210.78 10.7799 209.56 11.4799C209.43 11.2799 209.18 10.9899 209 10.8299C210.27 10.2099 211.61 8.92993 212.44 7.61993H209.32V6.85992H212.94V5.46994H210.24V1.43994H216.55V5.46994H213.74V6.85992H217.21V7.61993V7.60992ZM211.02 2.15994V4.72995H215.76V2.15994H211.02Z" fill="white"/>
<path d="M220.7 5.19998C220.3 5.90998 219.88 6.56996 219.44 7.11996C219.36 6.92996 219.16 6.51997 219.04 6.33997C220.07 5.08997 221.07 3.00996 221.68 0.929962L222.63 1.22998C222.59 1.30998 222.51 1.35995 222.35 1.35995C222.09 2.15995 221.77 2.96998 221.43 3.72998L221.71 3.80997C221.69 3.88997 221.63 3.93997 221.48 3.96997V12.01H220.7V5.19998ZM222.56 2.26996L223.51 2.32996C223.5 2.39996 223.44 2.45996 223.28 2.48996V9.95996H222.56V2.26996ZM230.31 2.87997H229.31C228.91 3.73997 228.34 4.47996 227.63 5.07996C228.49 5.60996 229.54 6.02996 230.78 6.26996C230.62 6.40996 230.43 6.70998 230.32 6.91998C229.01 6.61998 227.93 6.12998 227.06 5.53998C226.16 6.17998 225.09 6.65997 223.93 6.99997C223.83 6.81997 223.62 6.52997 223.47 6.37997C224.57 6.08997 225.59 5.66998 226.46 5.09998C225.86 4.60998 225.39 4.07998 225.06 3.53998C224.71 4.01998 224.34 4.43998 223.97 4.78998C223.84 4.65998 223.57 4.42998 223.41 4.31998C224.3 3.52998 225.18 2.20998 225.69 0.849976L226.61 1.12997C226.56 1.22997 226.45 1.24996 226.35 1.23996C226.22 1.55996 226.06 1.89997 225.89 2.21997H230.3V2.88998L230.31 2.87997ZM230.51 9.19998C230.46 9.26998 230.38 9.29997 230.27 9.27997C229.12 10.59 226.83 11.49 224.24 11.94C224.16 11.74 223.98 11.46 223.82 11.28C226.3 10.91 228.55 10.1 229.65 8.85995L230.51 9.19998ZM228.06 6.65997C228.02 6.71997 227.96 6.75998 227.86 6.75998C227.16 7.40998 225.91 8.06997 224.75 8.43997C224.64 8.27997 224.44 8.07998 224.28 7.94998C225.38 7.60998 226.62 7.02997 227.28 6.37997L228.06 6.66998V6.65997ZM229.22 7.81998C229.18 7.87998 229.11 7.91998 229 7.91998C228.14 8.77998 226.52 9.57996 224.9 10.02C224.79 9.84996 224.62 9.61997 224.46 9.46997C226.02 9.10997 227.61 8.39998 228.45 7.53998L229.22 7.82996V7.81998ZM225.49 2.87997L225.44 2.94998C225.8 3.54998 226.32 4.13997 227.01 4.65997C227.61 4.15997 228.11 3.56996 228.47 2.86996H225.48L225.49 2.87997Z" fill="white"/>
<path d="M232.86 8.68994C233.75 9.39994 234.92 10.5799 235.57 11.3399L234.85 11.9999C234.25 11.2299 233.03 9.96994 232.22 9.24994L232.86 8.68994Z" fill="white"/>
<path d="M243.36 5.67996L243.92 5.96997C243.92 5.96997 243.85 6.06997 243.79 6.08997C243.15 8.42997 241.76 10.23 240.19 11.22C240.06 11.05 239.75 10.74 239.55 10.62C240.94 9.79996 242.18 8.33997 242.8 6.49997H239.8V5.71997H243.21L243.35 5.67996H243.36ZM245.61 4.09998C245.89 5.07998 246.26 6.00996 246.73 6.82996C247.71 6.09996 248.91 5.02997 249.66 4.18997L250.52 4.83997C250.46 4.90997 250.34 4.91997 250.23 4.90997C249.43 5.67997 248.13 6.73998 247.1 7.44998C248.02 8.82998 249.25 9.89998 250.79 10.48C250.61 10.65 250.36 10.96 250.23 11.19C248.09 10.28 246.6 8.53997 245.61 6.24997V10.95C245.61 11.47 245.49 11.71 245.13 11.84C244.76 11.97 244.12 11.98 243.12 11.98C243.08 11.75 242.95 11.42 242.83 11.19C243.6 11.21 244.31 11.21 244.51 11.21C244.73 11.2 244.8 11.14 244.8 10.93V4.20996H241.37V3.42996H245.62V4.07996L245.61 4.09998ZM242.89 0.829956C244.39 1.18996 246.38 1.85997 247.41 2.40997L247.01 3.23996C246 2.67996 244.04 1.93996 242.5 1.54996L242.88 0.829956H242.89Z" fill="white"/>
<path d="M256.62 7.43997C256.56 7.25997 256.49 7.03996 256.38 6.79996L255.42 6.85995V11.99H254.7V6.88998C254.06 6.90998 253.49 6.93996 253.03 6.95996C253.01 7.03996 252.93 7.08996 252.85 7.11996L252.63 6.21997H253.45C253.71 5.87997 254 5.49997 254.29 5.08997C253.93 4.52997 253.31 3.81998 252.75 3.28998C253 3.02998 253.09 2.90996 253.17 2.76996C253.3 2.88996 253.43 3.01996 253.57 3.14996C253.95 2.44996 254.39 1.50996 254.64 0.829956L255.52 1.16998C255.48 1.23998 255.4 1.26996 255.27 1.26996C254.96 1.94996 254.45 2.93995 254.02 3.60995C254.28 3.89995 254.54 4.18998 254.72 4.44998C255.21 3.67998 255.67 2.87996 256 2.20996L256.85 2.60995C256.8 2.66995 256.72 2.70996 256.59 2.70996C255.99 3.73996 255.04 5.16996 254.22 6.20996L256.09 6.16998C255.89 5.76998 255.65 5.36996 255.42 5.01996L256.01 4.76996C256.53 5.50996 257.07 6.50996 257.26 7.14996L256.64 7.43997H256.62ZM254.26 7.97998C254.24 8.08998 254.14 8.10998 254.03 8.09998C253.87 9.10998 253.61 10.27 253.26 10.98C253.12 10.88 252.85 10.77 252.67 10.68C253.01 10.01 253.25 8.85998 253.39 7.75998L254.25 7.97998H254.26ZM256.48 7.73996C256.83 8.47996 257.15 9.46998 257.27 10.1L256.63 10.32C256.52 9.66998 256.2 8.67996 255.86 7.92996L256.47 7.73996H256.48ZM259.83 10.8C259.83 10.8 259.72 10.87 259.6 10.88C259.04 11.29 257.89 11.77 256.94 12.01C256.82 11.87 256.56 11.63 256.39 11.49C257.36 11.25 258.51 10.79 259.09 10.39L259.83 10.8ZM259.97 2.77997V2.17996H256.96V1.61996H259.97V0.849976L260.99 0.919983C260.98 0.999983 260.92 1.05996 260.76 1.07996V1.61996H263.93V2.17996H260.76V2.77997H263.39V3.32996H257.54V2.77997H259.98H259.97ZM263.57 3.83997V6.14996H257.32V3.83997H263.57ZM263.22 10.38H257.69V6.72998H263.22V10.38ZM257.99 5.65997H262.87V5.19998C262.77 5.26998 262.62 5.30997 262.39 5.30997H261.55C260.91 5.30997 260.76 5.20998 260.76 4.69998V4.33997H259.96C259.86 4.91997 259.49 5.29996 258.38 5.51996C258.32 5.38996 258.18 5.20996 258.07 5.11996C258.91 4.98996 259.26 4.78997 259.38 4.33997H258V5.65997H257.99ZM258.41 7.22998V7.78998H262.48V7.22998H258.41ZM258.41 8.24997V8.83997H262.48V8.24997H258.41ZM258.41 9.28998V9.87997H262.48V9.28998H258.41ZM263.29 12.04C262.77 11.67 261.86 11.2 261 10.84L261.53 10.41C262.41 10.75 263.41 11.21 264 11.6L263.29 12.04ZM262.27 4.89996C262.43 4.89996 262.47 4.88996 262.5 4.82996C262.6 4.88996 262.74 4.92996 262.87 4.95996V4.33997H261.38V4.69998C261.38 4.87998 261.4 4.89996 261.61 4.89996H262.27Z" fill="white"/>
<path d="M270.27 1.29993V10.9999C270.27 11.9799 269.77 11.9999 268.24 11.9999C268.22 11.7999 268.11 11.4399 268 11.2199C268.3 11.2299 268.58 11.2299 268.8 11.2299C269.267 11.2299 269.5 11.1499 269.5 10.9899V7.85992H267.45C267.34 9.30992 267.1 10.8499 266.54 12.0099C266.4 11.8799 266.07 11.6899 265.88 11.6199C266.72 9.89993 266.78 7.46995 266.78 5.66995V1.29993H270.27ZM267.52 5.66995C267.52 6.10995 267.51 6.58995 267.5 7.09995H269.5V4.92993H267.52V5.66995ZM269.5 2.06995H267.52V4.16995H269.5V2.06995ZM276.26 5.84995L276.76 6.04993C276.75 6.10993 276.69 6.15993 276.65 6.17993C276.33 7.56993 275.79 8.77994 275.09 9.77994C275.7 10.4799 276.42 11.0399 277.2 11.3999C277.03 11.5399 276.79 11.8199 276.68 12.0099C275.92 11.6199 275.24 11.0499 274.63 10.3699C274.07 11.0499 273.42 11.6099 272.73 12.0299C272.62 11.8399 272.41 11.5699 272.24 11.4299C272.91 11.0499 273.57 10.4799 274.15 9.75995C273.51 8.90995 273.01 7.90995 272.65 6.84995L273.3 6.65994C273.61 7.55994 274.04 8.41995 274.58 9.16995C275.07 8.42995 275.48 7.56995 275.76 6.63995H272.22V12.0099H271.44V1.39993H276.42V4.16995C276.42 5.01995 276.06 5.05994 274.26 5.05994C274.22 4.83994 274.12 4.53994 274.01 4.33994C274.35 4.33994 274.66 4.34995 274.9 4.34995C275.393 4.34995 275.64 4.28995 275.64 4.16995V2.15994H272.22V5.89993H276.12L276.25 5.85992L276.26 5.84995Z" fill="white"/>
<path d="M290.09 2.86993H289.08C288.74 3.76993 288.24 4.53993 287.6 5.17993C288.38 5.76993 289.29 6.20995 290.29 6.47995C290.12 6.63995 289.91 6.94994 289.79 7.15994C288.77 6.84994 287.85 6.33995 287.06 5.69995C286.26 6.36995 285.3 6.88995 284.22 7.25995C284.14 7.11995 283.98 6.89995 283.85 6.72995C283.67 7.26995 283.47 7.76995 283.25 8.16995L282.67 7.87994C282.92 7.35994 283.17 6.56995 283.38 5.84995H282.12V11.0299C282.12 11.9099 281.72 11.95 280.25 11.95C280.21 11.75 280.11 11.4099 279.99 11.1899C280.3 11.1999 280.6 11.2099 280.83 11.2099C281.31 11.2099 281.36 11.2099 281.36 11.0199V6.81995C280.88 8.04995 280.21 9.27993 279.51 9.98993C279.43 9.76993 279.22 9.44995 279.08 9.25995C279.85 8.51995 280.63 7.13994 281.08 5.83994H279.17V5.11993H282.53C281.93 4.55993 280.76 3.81994 279.77 3.37994L280.27 2.85992C280.65 3.02992 281.06 3.22995 281.46 3.44995C281.96 3.08995 282.47 2.60993 282.85 2.14993H279.31V1.43994H283.47L283.61 1.39993L284.21 1.76993C284.21 1.76993 284.1 1.86994 284.04 1.87994C283.57 2.51994 282.8 3.25993 282.06 3.79993C282.48 4.05993 282.84 4.32995 283.1 4.56995L282.61 5.10992H283.83L284.26 5.12994C284.26 5.28994 283.96 6.25993 283.88 6.54993C284.86 6.22993 285.75 5.76995 286.48 5.16995C286.01 4.68995 285.59 4.14994 285.26 3.55994C284.97 3.95994 284.66 4.31993 284.35 4.61993C284.19 4.47993 283.91 4.25995 283.71 4.13995C284.56 3.39995 285.34 2.12995 285.77 0.819946L286.75 1.10992C286.73 1.18992 286.63 1.23995 286.5 1.22995C286.39 1.52995 286.26 1.82994 286.1 2.12994H290.07V2.84995L290.09 2.86993ZM289.13 7.85992L289.6 7.95993C289.6 8.02993 289.59 8.12995 289.55 8.19995C289.33 10.44 289.12 11.33 288.78 11.67C288.52 11.93 288.25 11.9799 287.54 11.9799C287.29 11.9799 286.99 11.9799 286.69 11.9599C286.67 11.7299 286.59 11.41 286.46 11.2C287 11.25 287.5 11.2599 287.7 11.2599C287.9 11.2599 288.01 11.24 288.12 11.14C288.35 10.91 288.53 10.2299 288.7 8.58994H286.74C286.33 9.98994 285.54 11.2799 283.74 12.0299C283.66 11.8499 283.43 11.5699 283.26 11.4299C284.78 10.8299 285.53 9.78994 285.92 8.58994H284.06V7.88995H286.1C286.2 7.46995 286.26 7.02995 286.3 6.59995L287.33 6.69995C287.31 6.79995 287.22 6.83993 287.08 6.86993C287.03 7.21993 286.98 7.54993 286.91 7.89993H288.94L289.12 7.87994L289.13 7.85992ZM285.74 2.86993L285.69 2.94995C286.03 3.59995 286.48 4.18995 287.03 4.69995C287.53 4.16995 287.95 3.56992 288.24 2.85992H285.73L285.74 2.86993Z" fill="white"/>
<path d="M292.52 12.1199C292.71 11.5199 292.95 10.3299 293.05 9.56992L294.35 9.3999C294.1 10.3099 293.59 11.5599 293.32 12.0299L292.53 12.1299L292.52 12.1199Z" fill="white"/>
<path d="M310.5 8.57001V9.25H307.56V11.1C307.56 11.54 307.46 11.76 307.1 11.88C306.73 12 306.13 12 305.13 12C305.09 11.79 304.99 11.5 304.88 11.28C305.65 11.3 306.32 11.3 306.52 11.3C306.71 11.29 306.77 11.23 306.77 11.08V9.23999H299.48V8.56H306.77V7.76999L307.79 7.82001C307.77 7.90001 307.71 7.94999 307.55 7.98999V8.57001H310.49H310.5ZM304.58 3.22V2.48999H299.6V1.82999H304.58V0.869995L305.61 0.940002C305.6 1.02 305.54 1.07999 305.37 1.10999V1.82999H310.42V2.48999H305.37V3.22H308.99V6.51999H307.72C308.6 6.85999 309.53 7.35001 310.05 7.73001L309.57 8.20999C309.38 8.04999 309.13 7.88999 308.84 7.70999C305.76 7.80999 302.45 7.89 300.41 7.91C300.39 8.01 300.31 8.05001 300.23 8.07001L299.98 7.26999C301.17 7.26999 302.8 7.26001 304.59 7.23001V6.51999H301.05V3.22H304.59H304.58ZM303.48 11.38C303.05 10.9 302.17 10.24 301.44 9.78L301.99 9.29999C302.72 9.71999 303.62 10.36 304.05 10.82L303.47 11.37L303.48 11.38ZM301.81 3.79999V4.59H304.58V3.79999H301.81ZM301.81 5.95001H304.58V5.13H301.81V5.95001ZM308.2 3.79999H305.37V4.59H308.2V3.79999ZM308.2 5.95001V5.13H305.37V5.95001H308.2ZM305.37 6.53V7.23001L307.83 7.19C307.49 7.03 307.15 6.90001 306.82 6.79001L307.11 6.53H305.37Z" fill="white"/>
<path d="M312.99 4.24994C313.82 4.50994 314.86 4.97994 315.39 5.37994L314.95 6.07993C314.43 5.67993 313.41 5.16993 312.58 4.86993L313 4.25995L312.99 4.24994ZM313 11.2799C313.66 10.3399 314.63 8.72995 315.33 7.34995L315.92 7.88995C315.28 9.15995 314.42 10.6699 313.81 11.6099C313.85 11.6699 313.87 11.7199 313.87 11.7699C313.87 11.8299 313.85 11.8799 313.81 11.9099L313.01 11.2899L313 11.2799ZM313.7 0.949951C314.52 1.25995 315.52 1.79995 316.03 2.22995L315.56 2.90994C315.07 2.44994 314.08 1.87995 313.26 1.53995L313.7 0.939941V0.949951ZM320.15 10.8399H323.75V11.6199H315.74V10.8399H319.33V7.74994H316.6V6.97995H319.33V4.23993H316.15V3.45993H323.5V4.23993H320.15V6.97995H323.04V7.74994H320.15V10.8399ZM318.28 0.809937C319.29 1.32994 320.51 2.12995 321.1 2.72995L320.54 3.40994C319.98 2.79994 318.78 1.94995 317.76 1.41995L318.29 0.809937H318.28Z" fill="white"/>
<path d="M328.69 6.70996C329.36 6.53996 330.06 6.36997 330.74 6.18997L330.82 6.88998C330.11 7.09998 329.38 7.29996 328.69 7.48996V10.95C328.69 11.96 328.2 11.99 326.35 11.99C326.3 11.77 326.18 11.43 326.07 11.21C326.77 11.22 327.41 11.22 327.61 11.22C327.8 11.21 327.87 11.15 327.87 10.94V7.70996L326.15 8.18997C326.15 8.26997 326.08 8.34996 325.99 8.36996L325.68 7.41998C326.27 7.28998 327.04 7.10996 327.86 6.89996V4.12997H325.8V3.34998H327.86V0.839966L328.92 0.899963C328.91 0.999963 328.85 1.03998 328.68 1.06998V3.34998H330.56V4.12997H328.68V6.69998L328.69 6.70996ZM336.98 1.93997V2.72998H334.7V10.87C334.7 11.47 334.54 11.72 334.12 11.85C333.7 11.99 332.97 11.99 331.78 11.99C331.73 11.76 331.61 11.4 331.48 11.18C332.03 11.19 332.55 11.2 332.94 11.2C333.79 11.2 333.86 11.2 333.86 10.86V2.71997H330.2V1.92996H336.96L336.98 1.93997Z" fill="white"/>
<path d="M341.54 5.64996V9.56998C342.48 11 344.19 11 346.35 11C347.65 11 349.17 10.96 350.1 10.9C350 11.09 349.86 11.48 349.84 11.72C349.01 11.76 347.69 11.78 346.51 11.78C344.04 11.78 342.4 11.78 341.19 10.29C340.6 10.82 339.97 11.36 339.45 11.77C339.46 11.88 339.43 11.93 339.34 11.96L338.87 11.07C339.45 10.69 340.15 10.13 340.76 9.60995V6.41998H339V5.64996H341.54ZM339.75 1.14996C340.55 1.66996 341.48 2.45998 341.9 3.03998L341.26 3.57996C340.86 2.97996 339.95 2.15997 339.15 1.62997L339.75 1.14996ZM349.91 4.91998V5.62997H342.1V4.91998H345.65V3.17996H343.9C343.66 3.71996 343.37 4.21995 343.08 4.60995C342.91 4.48995 342.6 4.34997 342.41 4.24997C343.01 3.50997 343.53 2.23998 343.84 1.00998L344.8 1.26996C344.78 1.34996 344.69 1.38998 344.55 1.38998C344.45 1.73998 344.33 2.09996 344.2 2.45996H345.65V0.849976L346.69 0.909973C346.68 0.989973 346.61 1.04996 346.45 1.07996V2.45996H349.38V3.17996H346.45V4.91998H349.9H349.91ZM348.9 10.23H348.11V9.81998H344.08V10.26H343.31V6.51996H348.9V10.23ZM344.08 9.09998H348.11V7.18997H344.08V9.09998Z" fill="white"/>
<path d="M353.58 9.52997V0.72998H357.57V1.34998H354.2V9.52997H353.58Z" fill="white"/>
<path d="M361.48 9.13998C362.01 9.00998 362.55 8.87998 363.09 8.72998L363.16 9.43997C361.85 9.80997 360.49 10.18 359.62 10.41C359.61 10.51 359.55 10.58 359.46 10.59L359.16 9.68997C359.59 9.58997 360.12 9.47996 360.71 9.32996V6.19998H359.48V5.44998H360.71V2.78998H359.31V2.01996H362.91V2.78998H361.48V5.44998H362.73V6.19998H361.48V9.13998ZM365.38 9.91998C365.34 9.98998 365.25 10.03 365.13 10.02C364.59 10.66 363.71 11.33 362.92 11.76C362.8 11.6 362.55 11.38 362.38 11.24C363.14 10.87 364 10.25 364.49 9.58997L365.38 9.92996V9.91998ZM370.25 5.40997V6.08997H362.97V5.40997H366.16V4.58997H363.76V1.32996H369.46V4.58997H367.22C367.2 4.66997 367.14 4.70998 366.98 4.72998V5.39996H370.25V5.40997ZM369.36 9.21997H366.97V11.16C366.97 11.96 366.66 11.99 364.99 11.99C364.95 11.78 364.86 11.52 364.75 11.32C365.11 11.33 365.42 11.34 365.65 11.34C366.17 11.34 366.19 11.33 366.19 11.16V9.21997H363.88V6.76996H369.36V9.21997ZM364.5 1.88998V2.67996H368.69V1.88998H364.5ZM364.5 3.21997V4.01996H368.69V3.21997H364.5ZM364.63 7.35995V8.62997H368.58V7.35995H364.63ZM369.64 11.69C369.27 11.2 368.46 10.45 367.78 9.94998L368.39 9.57996C369.06 10.06 369.89 10.78 370.28 11.27L369.63 11.69H369.64Z" fill="white"/>
<path d="M375.67 4.60999H376.23C376.99 3.65999 377.63 2.59999 378.14 1.42999L379.05 1.73999C379.01 1.81999 378.91 1.86999 378.76 1.85999C378.32 2.83999 377.78 3.76999 377.15 4.60999H378.71V5.32999H376.58C376.18 5.80999 375.75 6.25 375.3 6.66H378.11V11.82H377.34V11.34H374.49V12.04H373.73V7.89001C373.41 8.11001 373.07 8.29999 372.72 8.48999C372.61 8.32999 372.4 8.04 372.25 7.88C372.77 7.62 373.26 7.32001 373.73 6.98001V6.67001H374.16C374.66 6.27001 375.16 5.82 375.61 5.34H372.42V4.62H374.9V3H372.97V2.28H374.9V0.859985L375.9 0.920013C375.89 1.00001 375.83 1.06 375.67 1.09V2.28H377.23V3H375.67V4.62V4.60999ZM377.34 8.66V7.34H374.49V8.66H377.34ZM374.49 10.65H377.34V9.32001H374.49V10.65ZM379.19 1.54999H382.82C382.95 1.50999 382.96 1.51001 382.99 1.51001C383.05 1.55001 383.11 1.58999 383.52 1.76999C383.51 1.81999 383.46 1.87001 383.41 1.89001C382.97 2.92001 382.34 4.23001 381.71 5.51001C382.97 6.75001 383.5 7.66999 383.5 8.54999C383.5 10.46 382.24 10.46 381.45 10.46C381.26 10.46 381.08 10.46 380.9 10.45C380.89 10.22 380.78 9.86999 380.62 9.64999C380.94 9.66999 381.27 9.69 381.53 9.69C382.06 9.69 382.69 9.69001 382.69 8.54001C382.69 7.75001 382.13 6.90001 380.84 5.67001C381.4 4.46001 381.92 3.31001 382.32 2.32001H379.98V12H379.19V1.54999Z" fill="white"/>
<path d="M389.28 5.67996L389.84 5.96997C389.84 5.96997 389.77 6.06997 389.71 6.08997C389.07 8.42997 387.68 10.23 386.11 11.22C385.98 11.05 385.67 10.74 385.47 10.62C386.86 9.79996 388.1 8.33997 388.72 6.49997H385.72V5.71997H389.13L389.27 5.67996H389.28ZM391.53 4.09998C391.81 5.07998 392.18 6.00996 392.65 6.82996C393.63 6.09996 394.83 5.02997 395.58 4.18997L396.44 4.83997C396.38 4.90997 396.26 4.91997 396.15 4.90997C395.35 5.67997 394.05 6.73998 393.02 7.44998C393.94 8.82998 395.17 9.89998 396.71 10.48C396.53 10.65 396.28 10.96 396.15 11.19C394.02 10.28 392.52 8.53997 391.53 6.24997V10.95C391.53 11.47 391.41 11.71 391.05 11.84C390.68 11.97 390.04 11.98 389.04 11.98C389 11.75 388.87 11.42 388.75 11.19C389.52 11.21 390.23 11.21 390.43 11.21C390.65 11.2 390.72 11.14 390.72 10.93V4.20996H387.29V3.42996H391.54V4.07996L391.53 4.09998ZM388.81 0.829956C390.31 1.18996 392.3 1.85997 393.33 2.40997L392.93 3.23996C391.92 2.67996 389.96 1.93996 388.42 1.54996L388.8 0.829956H388.81Z" fill="white"/>
<path d="M402.54 7.43997C402.48 7.25997 402.41 7.03996 402.3 6.79996L401.34 6.85995V11.99H400.62V6.88998C399.98 6.90998 399.41 6.93996 398.95 6.95996C398.93 7.03996 398.85 7.08996 398.77 7.11996L398.55 6.21997H399.37C399.63 5.87997 399.92 5.49997 400.21 5.08997C399.85 4.52997 399.23 3.81998 398.67 3.28998C398.92 3.02998 399.01 2.90996 399.09 2.76996C399.22 2.88996 399.35 3.01996 399.49 3.14996C399.87 2.44996 400.31 1.50996 400.56 0.829956L401.44 1.16998C401.4 1.23998 401.32 1.26996 401.19 1.26996C400.88 1.94996 400.37 2.93995 399.94 3.60995C400.2 3.89995 400.46 4.18998 400.64 4.44998C401.13 3.67998 401.59 2.87996 401.92 2.20996L402.77 2.60995C402.72 2.66995 402.64 2.70996 402.51 2.70996C401.91 3.73996 400.96 5.16996 400.14 6.20996L402.01 6.16998C401.81 5.76998 401.57 5.36996 401.34 5.01996L401.93 4.76996C402.45 5.50996 402.99 6.50996 403.18 7.14996L402.56 7.43997H402.54ZM400.18 7.97998C400.16 8.08998 400.06 8.10998 399.95 8.09998C399.79 9.10998 399.53 10.27 399.18 10.98C399.04 10.88 398.77 10.77 398.59 10.68C398.93 10.01 399.17 8.85998 399.31 7.75998L400.17 7.97998H400.18ZM402.4 7.73996C402.75 8.47996 403.07 9.46998 403.19 10.1L402.55 10.32C402.44 9.66998 402.12 8.67996 401.78 7.92996L402.39 7.73996H402.4ZM405.75 10.8C405.75 10.8 405.64 10.87 405.52 10.88C404.96 11.29 403.81 11.77 402.86 12.01C402.74 11.87 402.48 11.63 402.31 11.49C403.28 11.25 404.43 10.79 405.01 10.39L405.75 10.8ZM405.89 2.77997V2.17996H402.88V1.61996H405.89V0.849976L406.91 0.919983C406.9 0.999983 406.84 1.05996 406.68 1.07996V1.61996H409.85V2.17996H406.68V2.77997H409.31V3.32996H403.46V2.77997H405.9H405.89ZM409.49 3.83997V6.14996H403.24V3.83997H409.49ZM409.14 10.38H403.61V6.72998H409.14V10.38ZM403.91 5.65997H408.79V5.19998C408.69 5.26998 408.54 5.30997 408.31 5.30997H407.47C406.83 5.30997 406.68 5.20998 406.68 4.69998V4.33997H405.88C405.78 4.91997 405.41 5.29996 404.3 5.51996C404.24 5.38996 404.1 5.20996 403.99 5.11996C404.83 4.98996 405.18 4.78997 405.3 4.33997H403.92V5.65997H403.91ZM404.33 7.22998V7.78998H408.4V7.22998H404.33ZM404.33 8.24997V8.83997H408.4V8.24997H404.33ZM404.33 9.28998V9.87997H408.4V9.28998H404.33ZM409.21 12.04C408.69 11.67 407.78 11.2 406.92 10.84L407.45 10.41C408.33 10.75 409.33 11.21 409.92 11.6L409.21 12.04ZM408.19 4.89996C408.35 4.89996 408.39 4.88996 408.42 4.82996C408.52 4.88996 408.66 4.92996 408.79 4.95996V4.33997H407.3V4.69998C407.3 4.87998 407.32 4.89996 407.53 4.89996H408.19Z" fill="white"/>
<path d="M417.31 10.27C417.31 10.77 417.45 10.88 418.23 10.88H420.94C421.64 10.88 421.76 10.57 421.84 8.99997C422.04 9.15997 422.39 9.29995 422.64 9.35995C422.51 11.17 422.23 11.68 420.96 11.68H418.19C416.83 11.68 416.44 11.39 416.44 10.28V8.11996L412.15 8.66998L412.03 7.89996L416.44 7.34998V5.34998C415.37 5.60998 414.25 5.84996 413.18 6.04996C413.13 5.85996 413.01 5.55996 412.92 5.36996C415.28 4.92996 417.96 4.24996 419.42 3.54996L420.16 4.22998C420.16 4.22998 420.08 4.27997 420.02 4.27997C419.98 4.27997 419.95 4.27996 419.91 4.26996C419.2 4.56996 418.29 4.86996 417.28 5.14996H417.54C417.53 5.24996 417.47 5.30996 417.3 5.32996V7.25998L422.78 6.55997L422.9 7.29996L417.3 8.01996V10.29L417.31 10.27ZM413.22 3.10995V4.84998H412.4V2.32996H416.99V0.839966L418.07 0.909973C418.06 0.989973 418 1.04996 417.83 1.07996V2.32996H422.47V4.84998H421.63V3.10995H413.21H413.22Z" fill="white"/>
<path d="M428.77 3.18994V11.9899H424.78V11.3599H428.15V3.18994H428.77Z" fill="white"/>
<path d="M432.44 12.1199C432.63 11.5199 432.87 10.3299 432.97 9.56992L434.27 9.3999C434.02 10.3099 433.51 11.5599 433.24 12.0299L432.45 12.1299L432.44 12.1199Z" fill="white"/>
<path d="M450.04 1.48993C450.03 1.54993 449.99 1.59994 449.96 1.62994C449.64 3.29994 449.02 4.64993 448.2 5.70993C448.85 6.40993 449.62 6.94994 450.54 7.27994C450.37 7.41994 450.14 7.70995 450.04 7.91995C449.13 7.53995 448.36 6.97994 447.72 6.27994C447.05 6.97994 446.28 7.51993 445.45 7.89993V7.87994L445.31 7.91995V8.81995H449.15V9.52994H445.31V10.9099H450.44V11.64H439.41V10.9099H444.48V9.52994H440.7V8.81995H444.48V7.67993L445.36 7.73993C445.25 7.57993 445.11 7.38994 444.99 7.27994C445.81 6.93994 446.57 6.39993 447.24 5.67993C446.56 4.73993 446.05 3.61994 445.72 2.30994L446.39 2.14993C446.68 3.26993 447.12 4.25995 447.71 5.09995C448.32 4.26995 448.8 3.26994 449.1 2.08994H445.15V1.34995H449.43L449.57 1.32993L450.04 1.49994V1.48993ZM440.72 7.39993V7.99994H439.96V1.31995H444.75V1.97995H442.83V3.09995H444.61V5.58994H442.83V6.73993H444.8V7.39993H440.72ZM442.11 1.97995H440.72V3.09995H442.11V1.97995ZM443.87 4.96994V3.71994H440.72V4.96994H443.87ZM442.11 6.73993V5.58994H440.72V6.73993H442.11Z" fill="white"/>
<path d="M456.52 6.17996L456.63 6.87997L455.18 7.39996V11.02C455.18 11.88 454.78 12.01 453.19 11.99C453.15 11.8 453.03 11.46 452.93 11.25C453.49 11.26 454.01 11.26 454.17 11.26C454.33 11.25 454.4 11.2 454.4 11.03V7.67996C453.84 7.86996 453.32 8.04996 452.91 8.17996C452.91 8.27996 452.85 8.34996 452.77 8.36996L452.43 7.41998C452.97 7.27998 453.65 7.06997 454.4 6.83997V4.01996H452.58V3.25998H454.4V0.839966L455.43 0.899963C455.42 0.999963 455.36 1.03998 455.19 1.06998V3.26996H456.57V4.02997H455.19V6.59998L456.53 6.17996H456.52ZM463.63 5.62997H462.11C462.07 5.69997 462.01 5.75998 461.87 5.78998V7.15997H463.47V7.89996H461.87V11.05C461.87 11.97 461.4 12 459.7 12C459.66 11.79 459.54 11.47 459.42 11.24C459.76 11.25 460.07 11.25 460.32 11.25H460.85C461.02 11.25 461.07 11.2 461.07 11.05V7.89996H456.7V7.15997H461.07V5.63998H456.43V4.88998H459.6V3.15997H457.23V2.41998H459.6V0.859955L460.64 0.929962C460.63 1.00996 460.56 1.06998 460.4 1.09998V2.41998H462.87V3.15997H460.4V4.88998H463.64V5.63998L463.63 5.62997ZM458.9 10.75C458.62 10.19 457.96 9.30997 457.39 8.68997L458 8.30997C458.56 8.91997 459.24 9.75996 459.54 10.3L458.9 10.76V10.75Z" fill="white"/>
<path d="M467.18 9.52997V0.72998H471.17V1.34998H467.8V9.52997H467.18Z" fill="white"/>
<path d="M477.15 1.29993V10.9999C477.15 11.9799 476.65 11.9999 475.12 11.9999C475.1 11.7999 474.99 11.4399 474.88 11.2199C475.18 11.2299 475.46 11.2299 475.68 11.2299C476.146 11.2299 476.38 11.1499 476.38 10.9899V7.85992H474.33C474.22 9.30992 473.98 10.8499 473.42 12.0099C473.28 11.8799 472.95 11.6899 472.76 11.6199C473.6 9.89993 473.66 7.46995 473.66 5.66995V1.29993H477.15ZM474.4 5.66995C474.4 6.10995 474.39 6.58995 474.38 7.09995H476.38V4.92993H474.4V5.66995ZM476.38 2.06995H474.4V4.16995H476.38V2.06995ZM483.14 5.84995L483.64 6.04993C483.63 6.10993 483.57 6.15993 483.53 6.17993C483.21 7.56993 482.67 8.77994 481.97 9.77994C482.58 10.4799 483.3 11.0399 484.08 11.3999C483.91 11.5399 483.67 11.8199 483.56 12.0099C482.8 11.6199 482.12 11.0499 481.51 10.3699C480.95 11.0499 480.3 11.6099 479.61 12.0299C479.5 11.8399 479.29 11.5699 479.12 11.4299C479.79 11.0499 480.45 10.4799 481.03 9.75995C480.39 8.90995 479.89 7.90995 479.53 6.84995L480.18 6.65994C480.49 7.55994 480.92 8.41995 481.46 9.16995C481.95 8.42995 482.36 7.56995 482.64 6.63995H479.1V12.0099H478.32V1.39993H483.3V4.16995C483.3 5.01995 482.94 5.05994 481.14 5.05994C481.1 4.83994 481 4.53994 480.89 4.33994C481.23 4.33994 481.54 4.34995 481.78 4.34995C482.273 4.34995 482.52 4.28995 482.52 4.16995V2.15994H479.1V5.89993H483L483.13 5.85992L483.14 5.84995Z" fill="white"/>
<path d="M496.97 2.86993H495.96C495.62 3.76993 495.12 4.53993 494.48 5.17993C495.26 5.76993 496.17 6.20995 497.17 6.47995C497 6.63995 496.79 6.94994 496.67 7.15994C495.65 6.84994 494.73 6.33995 493.94 5.69995C493.14 6.36995 492.18 6.88995 491.1 7.25995C491.02 7.11995 490.86 6.89995 490.73 6.72995C490.55 7.26995 490.35 7.76995 490.13 8.16995L489.55 7.87994C489.8 7.35994 490.05 6.56995 490.26 5.84995H489V11.0299C489 11.9099 488.6 11.95 487.13 11.95C487.09 11.75 486.99 11.4099 486.87 11.1899C487.18 11.1999 487.48 11.2099 487.71 11.2099C488.19 11.2099 488.24 11.2099 488.24 11.0199V6.81995C487.76 8.04995 487.09 9.27993 486.39 9.98993C486.31 9.76993 486.1 9.44995 485.96 9.25995C486.73 8.51995 487.51 7.13994 487.96 5.83994H486.05V5.11993H489.41C488.81 4.55993 487.64 3.81994 486.65 3.37994L487.15 2.85992C487.53 3.02992 487.94 3.22995 488.34 3.44995C488.84 3.08995 489.35 2.60993 489.73 2.14993H486.19V1.43994H490.35L490.49 1.39993L491.09 1.76993C491.09 1.76993 490.98 1.86994 490.92 1.87994C490.45 2.51994 489.68 3.25993 488.94 3.79993C489.36 4.05993 489.72 4.32995 489.98 4.56995L489.49 5.10992H490.71L491.14 5.12994C491.14 5.28994 490.84 6.25993 490.76 6.54993C491.74 6.22993 492.63 5.76995 493.36 5.16995C492.89 4.68995 492.47 4.14994 492.14 3.55994C491.85 3.95994 491.54 4.31993 491.23 4.61993C491.07 4.47993 490.79 4.25995 490.59 4.13995C491.44 3.39995 492.22 2.12995 492.65 0.819946L493.63 1.10992C493.61 1.18992 493.51 1.23995 493.38 1.22995C493.27 1.52995 493.14 1.82994 492.98 2.12994H496.95V2.84995L496.97 2.86993ZM496.01 7.85992L496.48 7.95993C496.48 8.02993 496.47 8.12995 496.43 8.19995C496.21 10.44 496 11.33 495.66 11.67C495.4 11.93 495.13 11.9799 494.42 11.9799C494.17 11.9799 493.87 11.9799 493.57 11.9599C493.55 11.7299 493.47 11.41 493.34 11.2C493.88 11.25 494.38 11.2599 494.58 11.2599C494.78 11.2599 494.89 11.24 495 11.14C495.23 10.91 495.41 10.2299 495.58 8.58994H493.62C493.21 9.98994 492.42 11.2799 490.62 12.0299C490.54 11.8499 490.31 11.5699 490.14 11.4299C491.66 10.8299 492.41 9.78994 492.8 8.58994H490.94V7.88995H492.98C493.08 7.46995 493.14 7.02995 493.18 6.59995L494.21 6.69995C494.19 6.79995 494.1 6.83993 493.96 6.86993C493.91 7.21993 493.86 7.54993 493.79 7.89993H495.82L496 7.87994L496.01 7.85992ZM492.62 2.86993L492.57 2.94995C492.91 3.59995 493.36 4.18995 493.91 4.69995C494.41 4.16995 494.83 3.56992 495.12 2.85992H492.61L492.62 2.86993Z" fill="white"/>
<path d="M505.14 9.14001V10.89C505.73 10.96 506.27 10.97 507.56 10.97C508.51 10.97 509.91 10.97 510.32 10.96C510.2 11.15 510.07 11.51 510.02 11.74H506.71C504.2 11.74 502.63 11.34 501.64 9.62C501.17 10.62 500.52 11.44 499.68 12C499.56 11.84 499.3 11.58 499.13 11.46C500.37 10.67 501.18 9.22001 501.5 7.39001L502.5 7.59C502.48 7.67 502.4 7.72001 502.26 7.73001C502.19 8.07001 502.1 8.39001 502 8.70001C502.48 9.85001 503.25 10.44 504.31 10.73V6.95999H499.36V6.23001H510.11V6.95999H505.14V8.39999H509.31V9.13H505.14V9.14001ZM508.81 1.37V5.32001H501.03V1.37H508.81ZM507.99 3.04001V2H501.8V3.04001H507.99ZM507.99 4.70001V3.64001H501.8V4.70001H507.99Z" fill="white"/>
<path d="M517.65 1.13C517.61 1.21 517.52 1.26001 517.37 1.26001C517.21 1.75001 517.05 2.26999 516.84 2.76999H523.18V3.54999H516.49C516.09 4.39999 515.63 5.23999 515.05 6.01999L515.18 6.06C515.16 6.14 515.08 6.2 514.94 6.22V12.01H514.14V7.14001C513.71 7.61001 513.24 8.03 512.72 8.41C512.62 8.19 512.41 7.85999 512.28 7.67999C512.98 7.17999 513.6 6.56 514.14 5.88V5.79999H514.19C514.73 5.11999 515.2 4.35 515.58 3.56H512.57V2.78H515.94C516.2 2.14 516.42 1.49999 516.6 0.859985L517.64 1.14001L517.65 1.13ZM519.88 7.37V10.96H523.19V11.72H515.83V10.96H519.07V7.37H516.31V6.60999H519.07V4.20001L520.11 4.26999C520.1 4.34999 520.04 4.39999 519.88 4.42999V6.60999H522.71V7.37H519.88Z" fill="white"/>
<path d="M529.26 5.83997C529.68 6.90997 530.28 7.82995 531.06 8.60995C531.84 7.83995 532.44 6.90996 532.86 5.76996L533.87 6.10995C533.85 6.17995 533.74 6.22997 533.59 6.21997C533.12 7.38997 532.47 8.34997 531.67 9.15997C532.95 10.2 534.62 10.9 536.66 11.23C536.48 11.41 536.24 11.77 536.12 12C534.03 11.59 532.35 10.85 531.03 9.71997C529.7 10.81 528 11.54 525.96 12.03C525.86 11.83 525.65 11.48 525.49 11.3C527.48 10.87 529.15 10.2 530.44 9.16998C529.61 8.31998 528.96 7.28997 528.48 6.08997L529.25 5.84998L529.26 5.83997ZM529.84 4.08997C529.8 4.18997 529.7 4.19997 529.58 4.18997C528.75 5.25997 527.44 6.33998 526.27 7.03998C526.14 6.85998 525.85 6.56996 525.67 6.42996C526.81 5.81996 528.13 4.75996 528.88 3.67996L529.84 4.08997ZM536.36 2.46997V3.25998H525.71V2.46997H530.6V0.839966L531.66 0.899963C531.65 0.979963 531.59 1.03998 531.42 1.06998V2.46997H536.36ZM535.76 6.92996C535.11 6.12996 533.7 4.94997 532.52 4.12997L533.18 3.64996C534.33 4.41996 535.77 5.55995 536.47 6.35995L535.76 6.91998V6.92996Z" fill="white"/>
<path d="M540.71 4.24997V4.85995C540.71 6.93995 540.54 9.95997 539.29 12C539.13 11.87 538.79 11.66 538.58 11.59C539.79 9.60997 539.9 6.83995 539.9 4.85995V1.47998H548.75V4.24997H540.7H540.71ZM545.33 10.92H549.6V11.6H540.41V10.92H544.55V9.61996H541.41V8.94998H544.55V7.91998C543.36 7.96998 542.27 7.99997 541.44 8.02997C541.42 8.10997 541.34 8.16997 541.26 8.18997L540.98 7.34998L542.38 7.31998C542.69 6.88998 543.04 6.32998 543.3 5.81998H540.73V5.13998H549.33V5.81998H544.21C543.96 6.24998 543.6 6.81997 543.24 7.30997C544.44 7.26997 545.79 7.24998 547.14 7.19998C546.73 6.88998 546.29 6.57998 545.88 6.31998L546.48 5.91998C547.4 6.46998 548.52 7.29998 549.07 7.91998L548.42 8.35995C548.26 8.17995 548.07 7.97998 547.83 7.75998L545.53 7.86996C545.53 7.86996 545.42 7.93998 545.31 7.94998V8.92996H548.57V9.59998H545.31V10.9L545.33 10.92ZM547.96 2.17996H540.72V3.56998H547.96V2.17996Z" fill="white"/>
<path d="M553.45 6.48996C552.99 7.02996 552.51 7.51996 552.07 7.92996C551.97 7.76996 551.76 7.42998 551.63 7.25998C552.66 6.37998 553.87 4.91997 554.64 3.52997L555.53 3.89996C555.49 3.96996 555.4 4.00997 555.27 3.99997C554.97 4.48997 554.62 5.00997 554.25 5.49997L554.47 5.56998C554.43 5.63998 554.37 5.69998 554.23 5.72998V12H553.46V6.49997L553.45 6.48996ZM555.16 1.20996C555.12 1.27996 555.03 1.31997 554.91 1.30997C554.29 2.19997 553.16 3.37996 552.2 4.17996C552.09 4.00996 551.88 3.71996 551.73 3.57996C552.64 2.86996 553.7 1.75995 554.25 0.859955L555.16 1.21997V1.20996ZM561.2 7.26996L561.75 7.52997C561.71 7.58997 561.67 7.60998 561.63 7.63998C561.16 8.61998 560.44 9.43998 559.58 10.1C560.59 10.68 561.77 11.1 563.03 11.32C562.85 11.49 562.65 11.8 562.54 12.02C561.22 11.73 559.97 11.23 558.92 10.54C557.82 11.24 556.53 11.73 555.25 12.02C555.17 11.82 554.97 11.5 554.84 11.32C556.03 11.09 557.23 10.67 558.26 10.07C557.67 9.60998 557.14 9.06996 556.72 8.48996C556.24 8.91996 555.75 9.28995 555.26 9.60995C555.15 9.44995 554.91 9.17996 554.76 9.04996C555.83 8.40996 557 7.36998 557.78 6.25998L555.3 6.33997C555.28 6.43997 555.2 6.49998 555.12 6.50998L554.86 5.59998L556.73 5.55997C557.01 5.33997 557.28 5.11995 557.57 4.85995C556.99 4.21995 556.05 3.37997 555.23 2.80997L555.73 2.28998C555.96 2.44998 556.2 2.62998 556.45 2.81998C556.99 2.25998 557.65 1.43997 558.02 0.839966L558.88 1.29996C558.83 1.36996 558.74 1.39996 558.62 1.39996C558.2 1.93996 557.53 2.70997 556.96 3.24997C557.4 3.61997 557.82 4.00997 558.14 4.33997C559.03 3.49997 559.9 2.57998 560.53 1.81998L561.41 2.28998C561.37 2.34998 561.27 2.38996 561.13 2.36996C560.25 3.32996 558.97 4.57998 557.81 5.53998C558.93 5.51998 560.15 5.48996 561.36 5.45996C561.05 5.05996 560.71 4.67997 560.39 4.33997L561.01 3.97998C561.8 4.76998 562.69 5.84998 563.08 6.56998L562.41 6.97998C562.28 6.72998 562.09 6.42998 561.85 6.09998C560.83 6.13998 559.78 6.17997 558.78 6.21997L558.9 6.26996C558.86 6.33996 558.77 6.37996 558.64 6.36996C558.42 6.68996 558.18 7.00998 557.91 7.31998H561.06L561.2 7.27997V7.26996ZM557.3 7.94998L557.23 8.01996C557.65 8.62996 558.23 9.17997 558.91 9.65997C559.59 9.17997 560.17 8.59998 560.58 7.94998H557.31H557.3Z" fill="white"/>
<path d="M569.93 5.44H566.33V12.01H565.54V1.39001H569.93V5.44ZM569.16 2.01999H566.33V3.07999H569.16V2.01999ZM566.33 4.79999H569.16V3.67001H566.33V4.79999ZM573.8 9H572.1V11.77H571.37V9H569.54C569.46 9.78 569.07 11.09 567.88 11.88C567.76 11.72 567.52 11.5 567.34 11.38C568.4 10.72 568.74 9.71 568.82 9H567.25V8.32001H568.85V6.92001H567.49V6.23999H573.55V6.92001H572.11V8.32001H573.81V9H573.8ZM569.55 8.32001H571.36V6.92001H569.55V8.32001ZM575.55 1.39001V10.91C575.55 11.94 575.09 11.99 573.21 11.99C573.17 11.76 573.07 11.39 572.95 11.16C573.36 11.17 573.75 11.19 574.05 11.19C574.69 11.19 574.76 11.19 574.76 10.91V5.45001H571.05V1.38H575.55V1.39001ZM574.76 2.01999H571.83V3.07999H574.76V2.01999ZM571.83 4.81H574.76V3.67001H571.83V4.81Z" fill="white"/>
<path d="M582.26 3.34998L582.72 3.46997L582.65 3.63998C582.48 5.75998 582.1 7.46996 581.5 8.79996C582.09 9.25996 582.59 9.69995 582.92 10.11L582.43 10.77C582.13 10.39 581.67 9.94996 581.15 9.51996C580.54 10.64 579.73 11.45 578.78 12.03C578.67 11.83 578.44 11.54 578.28 11.37C579.18 10.89 579.94 10.11 580.53 9.02997C580.09 8.68997 579.62 8.37995 579.16 8.10995L579.02 8.63998L578.34 8.27997C578.64 7.21997 579.01 5.69996 579.36 4.14996H578.16V3.38998H579.53C579.72 2.48998 579.89 1.62995 580.03 0.859955L581.01 0.97998C581 1.05998 580.93 1.10996 580.77 1.11996C580.64 1.79996 580.47 2.57998 580.29 3.38998H582.14L582.28 3.34998H582.26ZM580.1 4.13998C579.85 5.25998 579.57 6.37996 579.32 7.36996C579.82 7.64996 580.34 7.97998 580.84 8.31998C581.32 7.19998 581.67 5.80996 581.84 4.14996H580.1V4.13998ZM587.43 2.82996C588.21 3.80996 589.05 5.10998 589.35 5.97998L588.64 6.35995C588.56 6.11995 588.44 5.83996 588.29 5.54996C586.4 5.70996 584.45 5.82997 583.19 5.90997C583.17 6.00997 583.09 6.04998 583.02 6.06998L582.68 5.12997L583.65 5.08997C584.15 3.89997 584.72 2.11996 585.02 0.829956L586.08 1.08997C586.04 1.16997 585.95 1.21998 585.8 1.22998C585.48 2.34998 584.94 3.89997 584.45 5.05997L587.94 4.88998C587.59 4.29998 587.17 3.67996 586.76 3.14996L587.42 2.80997L587.43 2.82996ZM583.59 11.99V7.06998H588.68V11.94H587.88V11.42H584.37V11.98H583.6L583.59 11.99ZM587.87 7.82996H584.36V10.68H587.87V7.82996Z" fill="white"/>
<path d="M595.01 3.18994V11.9899H591.02V11.3599H594.39V3.18994H595.01Z" fill="white"/>
<path d="M601.54 10.32C601.54 11.24 600.78 12 599.86 12C598.94 12 598.18 11.24 598.18 10.32C598.18 9.40001 598.94 8.64001 599.86 8.64001C600.78 8.64001 601.54 9.42001 601.54 10.32ZM601.11 10.32C601.11 9.62001 600.56 9.07001 599.86 9.07001C599.16 9.07001 598.63 9.62001 598.63 10.32C598.63 11.02 599.18 11.56 599.86 11.56C600.58 11.56 601.11 10.98 601.11 10.32Z" fill="white"/>
<path d="M10.6099 21.53H2.38988V23.2C2.38988 25.25 2.22988 28.23 1.05988 30.24C0.919883 30.12 0.569883 29.92 0.379883 29.84C1.51988 27.9 1.61988 25.16 1.61988 23.2V19.58H10.6099V21.53ZM9.81988 20.13H2.38988V20.97H9.82988V20.13H9.81988ZM11.2999 27.78H9.19988C8.94988 28.25 8.58988 28.64 8.10988 28.95C9.23988 29.2 10.2599 29.47 11.0199 29.74L10.5799 30.26C9.73988 29.95 8.60988 29.65 7.33988 29.37C6.27988 29.85 4.84988 30.11 3.00988 30.27C2.95988 30.08 2.83988 29.83 2.72988 29.68C4.17988 29.6 5.35988 29.44 6.28988 29.16C5.68988 29.05 5.07988 28.94 4.44988 28.86L4.30988 29L3.64988 28.77C3.92988 28.48 4.24988 28.13 4.55988 27.76H2.50988V27.18H5.05988L5.51988 26.62H3.41988V25.06H6.38988V24.57H3.74988V23.62H2.62988V23.07H3.74988V22.13H6.38988V21.54L7.34988 21.6C7.33988 21.68 7.27988 21.74 7.11988 21.76V22.13H9.82988V23.07H11.2499V23.62H9.82988V24.57H7.11988V25.06H10.1699V26.62H6.59988C6.54988 26.68 6.47988 26.7 6.33988 26.69C6.21988 26.85 6.07988 27.01 5.92988 27.18H11.2999V27.76V27.78ZM4.12988 25.54V26.19H6.39988V25.54H4.12988ZM6.39988 22.61H4.47988V23.14H6.39988V22.61ZM4.47988 24.13H6.39988V23.59H4.47988V24.13ZM5.43988 27.78C5.25988 27.98 5.07988 28.2 4.89988 28.39C5.68988 28.5 6.48988 28.63 7.25988 28.79C7.75988 28.53 8.14988 28.19 8.40988 27.78H5.43988ZM9.09988 22.61H7.12988V23.14H9.09988V22.61ZM7.12988 24.13H9.09988V23.59H7.12988V24.13ZM9.44988 25.53H7.12988V26.18H9.44988V25.53Z" fill="white"/>
<path d="M14.0797 19.21C14.5797 19.69 14.9897 20.17 15.2997 20.67C15.6797 20.17 16.0197 19.65 16.2697 19.16L17.1197 19.59C17.0797 19.66 16.9897 19.69 16.8797 19.67C16.5797 20.22 16.1597 20.81 15.6797 21.37C16.3197 22.73 16.4197 24.15 16.4197 25.65C16.4197 27.44 16.2997 29.16 15.8297 29.8C15.6097 30.1 15.3497 30.24 14.3197 30.24C14.1897 30.24 14.0397 30.24 13.8997 30.23C13.8897 29.98 13.8197 29.67 13.6697 29.45C13.9197 29.46 14.1597 29.47 14.3697 29.47C15.0197 29.47 15.1297 29.41 15.2297 29.25C15.5397 28.85 15.6497 27.24 15.6497 25.64C15.6497 25.41 15.6497 25.19 15.6397 24.97C15.1097 25.83 14.4197 26.66 13.7797 27.2C13.6597 27.01 13.4297 26.73 13.2397 26.58C14.0797 25.98 15.0297 24.82 15.5397 23.74C15.4697 23.14 15.3397 22.56 15.1197 22C14.6997 22.44 14.2697 22.86 13.8197 23.24C13.6797 23.08 13.4397 22.86 13.2597 22.74C13.7897 22.32 14.2997 21.82 14.7697 21.28C14.4697 20.72 14.0497 20.16 13.4997 19.64L14.0597 19.21H14.0797ZM17.7597 26.24V23.29C17.4997 23.63 17.2297 23.93 16.9597 24.18C16.8497 24.04 16.6397 23.78 16.4897 23.66C17.1697 23.05 17.8897 22.02 18.3197 20.99L18.8497 21.17V20.68H16.9397V20.03H18.8497V19.09L19.8197 19.16C19.8097 19.23 19.7497 19.29 19.5897 19.32V20.03H21.6597V19.09L22.6297 19.16C22.6197 19.23 22.5597 19.29 22.3997 19.32V20.03H24.5297V20.68H22.3997V21.42H21.6697C21.6697 21.42 21.5897 21.44 21.5397 21.44C21.4397 21.61 21.3197 21.82 21.1897 22.03H24.0997V22.58H21.2297V23.25H23.6997V23.74H21.2297V24.45H23.7097V24.94H21.2297V25.67H24.4197V26.23H17.7397L17.7597 26.24ZM23.2297 26.8L23.7297 27.1C23.7097 27.16 23.6597 27.2 23.5997 27.21C23.0797 27.95 22.3497 28.53 21.4697 28.99C22.4297 29.3 23.5297 29.52 24.6797 29.63C24.5097 29.77 24.3297 30.07 24.2197 30.28C22.8997 30.12 21.6697 29.84 20.6097 29.38C19.4897 29.82 18.2197 30.11 16.9197 30.29C16.8497 30.11 16.6697 29.8 16.5397 29.64C17.6897 29.51 18.8097 29.3 19.7997 28.98C19.1497 28.62 18.6097 28.18 18.2197 27.65L18.6597 27.48H17.3097V26.85H23.0897L23.2297 26.81V26.8ZM20.5297 23.25V22.58H18.4797V23.25H20.5297ZM20.5297 24.45V23.74H18.4797V24.45H20.5297ZM20.5297 25.67V24.94H18.4797V25.67H20.5297ZM21.6697 20.67H19.5997V21.41H18.9197C18.8197 21.62 18.7197 21.82 18.5997 22.02H20.4497C20.6197 21.72 20.7997 21.34 20.8897 21.07L21.6797 21.27V20.66L21.6697 20.67ZM18.9497 27.47C19.3597 27.95 19.9297 28.35 20.6397 28.66C21.3797 28.35 22.0097 27.95 22.4897 27.47H18.9497Z" fill="white"/>
<path d="M26.8701 19.6799H36.9801V30.3099H36.1801V29.7199H27.6401V30.3099H26.8701V19.6799ZM27.6401 28.9699H36.1801V20.42H27.6401V28.9699ZM28.2301 27.1199C29.1701 26.9599 30.5601 26.7 31.9501 26.45L31.9901 26.9899C30.7401 27.2699 29.4701 27.54 28.6701 27.7C28.6601 27.8 28.6001 27.8399 28.5301 27.8799L28.2401 27.1199H28.2301ZM32.8501 22.7199C32.9601 23.8199 33.1301 24.8499 33.3401 25.6899C33.7601 24.9899 34.0801 24.1999 34.3001 23.3299L35.1401 23.5299C35.1201 23.6099 35.0401 23.6499 34.9001 23.6499C34.6101 24.7099 34.1701 25.6599 33.6001 26.4799C33.8901 27.1999 34.3001 27.7299 34.7001 27.7299C34.8801 27.7299 35.0001 27.21 35.0801 26.45C35.2101 26.58 35.4601 26.7499 35.6101 26.8299C35.4801 27.9299 35.1901 28.45 34.7301 28.45C34.6501 28.45 34.5601 28.4399 34.4701 28.3999C33.8901 28.2899 33.4601 27.8199 33.1201 27.1099C32.6301 27.6999 32.0501 28.1899 31.4001 28.5699C31.3001 28.4399 31.1001 28.1999 30.9601 28.0799C31.6801 27.6699 32.3201 27.11 32.8401 26.42C32.5201 25.42 32.3001 24.1299 32.1601 22.7099H28.3501V22.0899H32.1001C32.0601 21.6499 32.0301 21.1899 32.0001 20.7399L32.9601 20.7899C32.9501 20.8899 32.8601 20.9499 32.7201 20.9699C32.7301 21.3499 32.7601 21.7299 32.7901 22.0999H35.5201V22.7199H32.8301H32.8501ZM28.8101 23.5299H31.5201V25.9099H28.8101V23.5299ZM30.9101 25.3799V24.0599H29.4001V25.3799H30.9101ZM33.8501 20.6299C34.3301 20.8299 34.9101 21.1699 35.1901 21.4599L34.8101 21.8999C34.5201 21.6199 33.9501 21.2499 33.4701 21.0199L33.8501 20.6199V20.6299Z" fill="white"/>
<path d="M45.7298 23.21C45.9698 24 46.3098 24.76 46.7098 25.44C47.4998 24.95 48.4398 24.28 49.0398 23.75L49.7698 24.41C49.7698 24.41 49.6098 24.47 49.5198 24.46C48.9098 24.94 47.9098 25.58 47.1098 26.04C47.9698 27.23 49.1098 28.14 50.5298 28.59C50.3498 28.75 50.1198 29.06 49.9898 29.27C47.5298 28.37 45.9498 26.16 45.0998 23.43C44.7198 23.72 44.2598 24.01 43.7798 24.26C45.4298 25.45 46.1398 26.98 46.1398 28.19C46.1398 29.48 45.3198 30.28 44.0798 30.28C43.7798 30.28 43.3998 30.27 42.9998 30.24C42.9898 30.04 42.9198 29.7 42.7798 29.48C43.2198 29.52 43.6398 29.53 43.9098 29.53C44.2598 29.53 44.5498 29.51 44.7998 29.3C45.1398 29.08 45.3298 28.64 45.3298 28.09C45.3298 27.75 45.2598 27.38 45.0998 26.99C43.7798 28.13 41.7198 29.27 39.9798 29.84C39.8798 29.64 39.7198 29.34 39.5498 29.16C41.3698 28.67 43.5798 27.49 44.7898 26.34C44.6298 26.09 44.4398 25.84 44.2298 25.6C43.1998 26.37 41.5798 27.19 40.3198 27.65C40.2198 27.46 40.0398 27.18 39.8898 27.01C41.1598 26.64 42.8198 25.86 43.7898 25.14C43.5898 24.96 43.3598 24.77 43.1098 24.59C42.2098 25.01 41.2398 25.36 40.3298 25.62C40.2298 25.46 40.0398 25.15 39.9198 25.01C41.3998 24.64 43.0698 24 44.2498 23.2H41.4098V22.49H48.2798V23.2H45.7498L45.7298 23.21ZM40.6498 21.27V22.89H39.8698V20.53H44.4398V19.11L45.5098 19.18C45.4998 19.26 45.4298 19.32 45.2698 19.34V20.53H49.9098V22.89H49.0898V21.27H40.6498Z" fill="white"/>
<path d="M55.4397 23.35L55.9097 23.51C55.8997 23.57 55.8597 23.62 55.8297 23.65C55.6397 25.27 55.2997 26.61 54.8097 27.69C56.0097 28.88 57.7097 29.14 59.7897 29.14C60.2497 29.14 62.9097 29.14 63.4997 29.13C63.3697 29.32 63.2197 29.69 63.1797 29.92H59.7897C57.5197 29.92 55.7597 29.61 54.4597 28.4C53.9997 29.19 53.4497 29.82 52.8197 30.27C52.6997 30.1 52.3897 29.81 52.2197 29.71C52.8897 29.25 53.4697 28.62 53.9197 27.79C53.4497 27.17 53.0697 26.39 52.7697 25.39L53.4097 25.13C53.6397 25.9 53.9297 26.53 54.2897 27.05C54.6297 26.22 54.8797 25.25 55.0197 24.11H53.4797L53.2297 24.6L52.4897 24.4C53.1097 23.25 53.8597 21.73 54.3597 20.65H52.3097V19.92H54.8297L54.9897 19.88L55.5097 20.1C55.5097 20.1 55.4497 20.21 55.4097 20.26C55.0397 21.03 54.4497 22.24 53.8597 23.39H55.3097L55.4697 23.37L55.4397 23.35ZM58.9897 23.4V22.44H55.5797V21.77H58.9897V20.82H56.5297V20.16H58.9897V19.08L60.0097 19.15C59.9997 19.23 59.9397 19.29 59.7797 19.31V20.16H62.4197V21.77H63.3897V22.44H62.4197V24.06H59.7797V25.06H62.6197V25.71H59.7797V26.71H63.1597V27.38H59.7797V28.71H58.9897V27.38H55.7397V26.71H58.9897V25.71H56.2797V25.06H58.9897V24.06H56.4497V23.4H58.9897ZM59.7797 20.82V21.77H61.6297V20.82H59.7797ZM61.6297 23.4V22.44H59.7797V23.4H61.6297Z" fill="white"/>
<path d="M76.2297 27.2899H71.8596C72.9996 28.1499 74.8497 28.8899 76.4697 29.2199C76.2897 29.3899 76.0597 29.7 75.9397 29.92C74.2997 29.5 72.3696 28.6099 71.1796 27.5399V30.2499H70.3896V27.5399C69.1996 28.6199 67.2997 29.52 65.6597 29.95C65.5397 29.75 65.3096 29.4499 65.1396 29.2899C66.7396 28.9399 68.5496 28.1699 69.6696 27.2899H65.3896V26.6199H70.3796V25.5699C70.0596 25.8599 69.6196 26.1099 69.0596 26.3399C68.9596 26.1699 68.6896 25.8799 68.5296 25.7799C70.2096 25.1699 70.5196 24.3199 70.5196 23.5099V22.2999H74.7696V24.8199C74.7696 25.2399 74.7696 25.2699 75.0296 25.2699H75.3896C75.7996 25.2699 75.7997 25.2199 75.8297 24.0099C75.9697 24.1399 76.2096 24.2499 76.3896 24.3099C76.3496 25.5299 76.3096 25.92 75.4196 25.92H74.8596C73.9996 25.92 73.9996 25.4599 73.9996 24.7699V22.89H71.2696V23.5399C71.2696 24.2199 71.0896 24.9499 70.3896 25.5699L71.3997 25.6299C71.3897 25.7099 71.3296 25.7699 71.1696 25.7999V26.64H76.2197V27.3099L76.2297 27.2899ZM68.0596 21.9799C67.9596 21.6399 67.7396 21.1499 67.4996 20.7399H66.9097C66.5697 21.2299 66.1997 21.6899 65.8297 22.0199C65.6897 21.8899 65.4097 21.6999 65.2297 21.5999C65.8997 21.0199 66.5596 20.0299 66.9596 19.0599L67.8796 19.3699C67.8396 19.4299 67.7596 19.4799 67.6296 19.4699C67.5496 19.6599 67.4397 19.8699 67.3297 20.0699H70.6396V20.7399H68.2496C68.4696 21.0999 68.6496 21.4999 68.7396 21.7799L68.0596 21.9699V21.9799ZM69.8297 24.9099C68.3097 25.1999 66.7197 25.4699 65.7197 25.6299C65.7097 25.7299 65.6497 25.7699 65.5797 25.7999L65.2796 24.9999C65.8296 24.9299 66.5196 24.8299 67.2796 24.7199V22.9899H65.5097V22.3699H69.7896V22.9899H68.0296V24.6099L69.8196 24.3499L69.8396 24.9099H69.8297ZM73.4596 22.0099C73.3196 21.6699 72.9796 21.1599 72.6396 20.7499H71.6096C71.2596 21.2099 70.8696 21.6299 70.4596 21.9399C70.2996 21.8199 69.9996 21.6399 69.8096 21.5399C70.5696 20.9899 71.2997 20.0499 71.6897 19.0699L72.6296 19.3599C72.6096 19.4299 72.5196 19.4699 72.3796 19.4699C72.2796 19.6799 72.1796 19.8799 72.0596 20.0799H76.3297V20.7499H73.4896C73.7796 21.0999 74.0297 21.4799 74.1597 21.7699L73.4596 22.0099ZM71.9596 23.4399C72.5796 23.7999 73.3396 24.3399 73.7096 24.7099L73.2297 25.2099C72.8597 24.8299 72.1096 24.2499 71.4896 23.8799L71.9596 23.4399Z" fill="white"/>
<path d="M84.1297 26.0599V29.1299H88.9797V29.8499H78.5697V29.1299H83.2997V26.0599H79.1097V25.3399H83.2997V23.6599H80.7197V22.9799C80.0697 23.4799 79.3797 23.9499 78.6797 24.3499C78.5597 24.1699 78.3397 23.8799 78.1797 23.7099C80.2797 22.5899 82.3397 20.6799 83.2897 19.0599L84.4697 19.1299C84.4497 19.2299 84.3497 19.2899 84.2297 19.3099C85.3897 20.9199 87.5497 22.6599 89.4097 23.5599C89.2197 23.7699 89.0097 24.0299 88.8697 24.2699C86.9997 23.2399 84.8497 21.4899 83.7297 19.8999C83.0897 20.8699 82.0297 21.9599 80.7897 22.9299H86.8197V23.6599H84.1497V25.3399H88.4297V26.0599H84.1497H84.1297ZM81.2997 28.9299C81.1397 28.3199 80.6597 27.3699 80.1697 26.6599L80.8297 26.4099C81.3297 27.0799 81.8397 28.0199 82.0097 28.6299L81.2997 28.9299ZM87.4597 26.7699C87.4197 26.8399 87.3297 26.8799 87.1997 26.8699C86.8497 27.4899 86.2797 28.3799 85.8197 28.9599L85.2197 28.6599C85.6597 28.0599 86.2497 27.0799 86.5597 26.3799L87.4597 26.7799V26.7699Z" fill="white"/>
<path d="M91.76 19.25C92.19 19.72 92.53 20.2 92.8 20.69C93.16 20.2 93.46 19.68 93.69 19.2L94.52 19.6C94.48 19.66 94.41 19.7 94.3 19.7C94.01 20.25 93.62 20.86 93.16 21.45C93.69 22.78 93.78 24.17 93.78 25.67C93.78 27.43 93.68 29.26 93.25 29.87C92.99 30.22 92.61 30.29 91.56 30.25C91.56 30.01 91.48 29.71 91.37 29.49C91.59 29.51 91.79 29.51 91.97 29.51C92.32 29.51 92.53 29.5 92.68 29.32C92.97 28.95 93.05 27.23 93.05 25.65V25.12C92.59 25.95 92.03 26.73 91.49 27.25C91.38 27.06 91.17 26.78 91 26.63C91.72 26.02 92.52 24.84 92.97 23.75C92.9 23.17 92.8 22.62 92.62 22.08C92.27 22.46 91.91 22.84 91.54 23.17C91.41 23.03 91.17 22.81 91 22.69C91.46 22.3 91.91 21.81 92.32 21.31C92.06 20.73 91.68 20.17 91.19 19.63L91.75 19.23L91.76 19.25ZM95.19 24.06V25.33H97.38V29.52H96.7V28.92H95.19V30.06H94.51V20.77H95.35C95.51 20.25 95.67 19.57 95.77 19.1L96.71 19.38C96.67 19.45 96.59 19.49 96.46 19.5C96.36 19.85 96.21 20.34 96.05 20.77H97.35V24.07H95.2L95.19 24.06ZM96.65 21.47H95.19V23.35H96.65V21.47ZM96.7 26.04H95.19V28.21H96.7V26.04ZM102.29 20.37H100.27V22.3H101.89V27.78C101.89 28.49 101.53 28.55 100.63 28.55C100.61 28.36 100.5 28.08 100.41 27.9C100.73 27.91 101.01 27.91 101.11 27.91C101.21 27.9 101.23 27.87 101.23 27.78V23.01H100.27V30.25H99.59V23.01H98.65V28.61H98.01V22.3H99.58V20.37H97.59V19.65H102.28V20.37H102.29Z" fill="white"/>
<path d="M115.12 27.62H110.63C111.42 28.84 113.02 29.38 115.34 29.53C115.16 29.71 114.97 30.03 114.87 30.27C112.3 30.01 110.64 29.27 109.79 27.62H109.5C108.83 28.95 107.5 29.83 104.44 30.26C104.38 30.07 104.2 29.74 104.06 29.58C106.63 29.26 107.9 28.63 108.57 27.62H104.24V26.91H108.93C109.09 26.49 109.18 26.02 109.25 25.51L110.29 25.61C110.28 25.69 110.18 25.75 110.05 25.77C109.98 26.18 109.89 26.56 109.79 26.92H112.99C112.43 26.69 111.69 26.46 111.11 26.31L111.43 25.81H111.38C111.34 25.61 111.24 25.37 111.13 25.17C111.44 25.17 111.71 25.18 111.92 25.18C112.51 25.18 112.57 25.18 112.57 24.99V23.65H108.19V23.04H112.57V22.06L113.57 22.11C113.56 22.19 113.5 22.25 113.34 22.28V23.05H115.25V23.66H113.34V25.03C113.34 25.79 112.99 25.82 111.49 25.82C112.31 26 113.36 26.34 113.92 26.6L113.72 26.94H115.11V27.65L115.12 27.62ZM105.75 23.58C105.75 24.46 105.62 25.49 104.72 26.22C104.56 26.09 104.26 25.93 104.07 25.84C105.02 25.13 105.02 24.13 105.02 23.59H104.18V22.92H106.94V21.97H104.81V19.49L105.73 19.55C105.72 19.62 105.66 19.68 105.5 19.71V21.32H106.94V19.14L107.91 19.2C107.9 19.28 107.84 19.34 107.68 19.37V26.01H106.94V23.6H105.75V23.58ZM111.1 20.45C111.52 20.64 112.01 20.94 112.32 21.21C112.74 20.96 113.11 20.67 113.4 20.35H110.52C110.02 20.64 109.42 20.91 108.73 21.15C108.63 20.99 108.43 20.79 108.27 20.69C109.61 20.27 110.64 19.69 111.2 19.12L112.05 19.26C112.04 19.34 111.97 19.39 111.82 19.39C111.68 19.52 111.52 19.65 111.35 19.79H113.89L114.02 19.77L114.5 20C114.5 20 114.43 20.08 114.4 20.11C113.37 21.78 111.03 22.58 108.66 22.94C108.6 22.77 108.44 22.53 108.32 22.39C109.04 22.31 109.76 22.16 110.44 21.97C110.15 21.72 109.77 21.45 109.42 21.25L109.85 20.99C110.25 21.21 110.71 21.52 111 21.79C111.28 21.69 111.54 21.6 111.79 21.48C111.49 21.23 111.05 20.94 110.66 20.75L111.07 20.46L111.1 20.45ZM109.7 23.7C110.2 24.04 110.78 24.54 111.04 24.92L110.48 25.3C110.22 24.94 109.65 24.4 109.16 24.04L109.7 23.69V23.7Z" fill="white"/>
<path d="M117.46 26.95C118.35 27.66 119.52 28.8399 120.17 29.5999L119.45 30.2599C118.85 29.4899 117.63 28.2299 116.82 27.5099L117.46 26.95Z" fill="white"/>
<path d="M129.97 26.0599V29.1299H134.82V29.8499H124.41V29.1299H129.14V26.0599H124.95V25.3399H129.14V23.6599H126.56V22.9799C125.91 23.4799 125.22 23.9499 124.52 24.3499C124.4 24.1699 124.18 23.8799 124.02 23.7099C126.12 22.5899 128.18 20.6799 129.13 19.0599L130.31 19.1299C130.29 19.2299 130.19 19.2899 130.07 19.3099C131.23 20.9199 133.39 22.6599 135.25 23.5599C135.06 23.7699 134.85 24.0299 134.71 24.2699C132.84 23.2399 130.69 21.4899 129.57 19.8999C128.93 20.8699 127.87 21.9599 126.63 22.9299H132.66V23.6599H129.99V25.3399H134.27V26.0599H129.99H129.97ZM127.14 28.9299C126.98 28.3199 126.5 27.3699 126.01 26.6599L126.67 26.4099C127.17 27.0799 127.68 28.0199 127.85 28.6299L127.14 28.9299ZM133.3 26.7699C133.26 26.8399 133.17 26.8799 133.04 26.8699C132.69 27.4899 132.12 28.3799 131.66 28.9599L131.06 28.6599C131.5 28.0599 132.09 27.0799 132.4 26.3799L133.3 26.7799V26.7699Z" fill="white"/>
<path d="M143.49 24.32C143.72 25.02 144.02 25.66 144.38 26.25C145.29 25.75 146.38 25.03 147.04 24.47L147.8 25.05C147.75 25.11 147.64 25.12 147.55 25.11C146.83 25.61 145.67 26.31 144.74 26.77C145.57 27.91 146.69 28.76 148.11 29.22C147.93 29.38 147.71 29.68 147.59 29.89C145.17 28.99 143.6 27.04 142.78 24.39C142.41 24.62 141.98 24.83 141.51 25.04C143.15 26.07 143.86 27.46 143.86 28.53C143.86 29.6 143.22 30.29 141.99 30.29C141.7 30.29 141.35 30.29 140.96 30.27C140.95 30.05 140.86 29.74 140.73 29.54C141.15 29.58 141.58 29.59 141.85 29.59C142.14 29.59 143.1 29.59 143.1 28.45C143.1 28.15 143.02 27.81 142.86 27.47C141.49 28.57 139.39 29.56 137.69 30.05C137.58 29.87 137.37 29.58 137.21 29.43C139.04 28.99 141.29 27.97 142.52 26.91C142.38 26.69 142.2 26.48 141.97 26.26C140.87 27.02 139.18 27.71 137.86 28.05C137.75 27.87 137.54 27.61 137.38 27.45C138.76 27.16 140.47 26.54 141.52 25.87C141.3 25.69 141.06 25.52 140.79 25.37C139.79 25.75 138.72 26.08 137.74 26.31C137.66 26.15 137.46 25.88 137.33 25.73C138.71 25.43 140.35 24.95 141.58 24.35H138.44V22.25C138.2 22.43 137.94 22.6 137.67 22.75C137.55 22.57 137.31 22.32 137.12 22.2C138.72 21.31 139.93 20.09 140.57 19.09L141.57 19.27C141.55 19.35 141.46 19.41 141.32 19.41C141.19 19.59 141.04 19.77 140.89 19.96H143.7L143.83 19.91L144.44 20.31C144.42 20.37 144.34 20.39 144.28 20.41C144.06 20.77 143.74 21.19 143.4 21.57H146.81V24.34H143.5L143.49 24.32ZM139.2 22.19V23.69H142.13V22.19H139.2ZM142.44 21.56C142.7 21.27 142.98 20.92 143.18 20.6H140.31C140.01 20.92 139.67 21.25 139.29 21.56H142.43H142.44ZM146.01 23.69V22.19H142.92V23.69H146.01Z" fill="white"/>
<path d="M160.96 27.62H156.47C157.26 28.84 158.86 29.38 161.18 29.53C161 29.71 160.81 30.03 160.71 30.27C158.14 30.01 156.48 29.27 155.62 27.62H155.33C154.66 28.95 153.33 29.83 150.27 30.26C150.21 30.07 150.03 29.74 149.89 29.58C152.46 29.26 153.73 28.63 154.4 27.62H150.07V26.91H154.76C154.92 26.49 155.01 26.02 155.08 25.51L156.12 25.61C156.11 25.69 156.01 25.75 155.88 25.77C155.81 26.18 155.72 26.56 155.62 26.92H158.82C158.26 26.69 157.52 26.46 156.94 26.31L157.26 25.81H157.21C157.17 25.61 157.07 25.37 156.96 25.17C157.27 25.17 157.54 25.18 157.75 25.18C158.34 25.18 158.4 25.18 158.4 24.99V23.65H154.02V23.04H158.4V22.06L159.4 22.11C159.39 22.19 159.33 22.25 159.17 22.28V23.05H161.08V23.66H159.17V25.03C159.17 25.79 158.82 25.82 157.32 25.82C158.14 26 159.19 26.34 159.75 26.6L159.55 26.94H160.94V27.65L160.96 27.62ZM151.59 23.58C151.59 24.46 151.46 25.49 150.56 26.22C150.4 26.09 150.1 25.93 149.91 25.84C150.86 25.13 150.86 24.13 150.86 23.59H150.02V22.92H152.78V21.97H150.65V19.49L151.57 19.55C151.56 19.62 151.5 19.68 151.34 19.71V21.32H152.78V19.14L153.75 19.2C153.74 19.28 153.68 19.34 153.52 19.37V26.01H152.78V23.6H151.59V23.58ZM156.94 20.45C157.36 20.64 157.85 20.94 158.16 21.21C158.58 20.96 158.95 20.67 159.24 20.35H156.36C155.86 20.64 155.26 20.91 154.57 21.15C154.47 20.99 154.27 20.79 154.11 20.69C155.45 20.27 156.48 19.69 157.04 19.12L157.89 19.26C157.88 19.34 157.81 19.39 157.66 19.39C157.52 19.52 157.36 19.65 157.19 19.79H159.73L159.86 19.77L160.34 20C160.34 20 160.27 20.08 160.24 20.11C159.21 21.78 156.87 22.58 154.5 22.94C154.44 22.77 154.28 22.53 154.16 22.39C154.88 22.31 155.6 22.16 156.28 21.97C155.99 21.72 155.61 21.45 155.26 21.25L155.69 20.99C156.09 21.21 156.55 21.52 156.84 21.79C157.12 21.69 157.38 21.6 157.63 21.48C157.33 21.23 156.89 20.94 156.5 20.75L156.91 20.46L156.94 20.45ZM155.54 23.7C156.04 24.04 156.62 24.54 156.88 24.92L156.32 25.3C156.06 24.94 155.49 24.4 155 24.04L155.54 23.69V23.7Z" fill="white"/>
<path d="M163.16 30.3799C163.35 29.7799 163.59 28.5899 163.69 27.8299L164.99 27.6599C164.74 28.5699 164.23 29.8199 163.96 30.2899L163.17 30.3899L163.16 30.3799Z" fill="white"/>
<path d="M173.24 22.99C173.79 23.76 174.37 24.8 174.57 25.47L173.92 25.78C173.86 25.56 173.76 25.32 173.64 25.06C173.28 25.08 172.92 25.1 172.57 25.12V30.25H171.85V25.15C171.18 25.17 170.58 25.2 170.1 25.22C170.09 25.3 170.02 25.35 169.93 25.38L169.71 24.48H170.55C170.81 24.16 171.09 23.78 171.38 23.38C171.01 22.83 170.38 22.12 169.83 21.6L170.25 21.08C170.37 21.19 170.5 21.31 170.63 21.44C171.04 20.74 171.51 19.78 171.77 19.1L172.62 19.46C172.58 19.53 172.5 19.57 172.37 19.57C172.06 20.24 171.53 21.22 171.08 21.9C171.36 22.19 171.61 22.49 171.8 22.75C172.32 21.97 172.8 21.15 173.14 20.47L173.98 20.87C173.94 20.93 173.85 20.98 173.72 20.98C173.11 22 172.15 23.43 171.31 24.47L173.34 24.43C173.12 24.02 172.88 23.6 172.63 23.24L173.23 22.98L173.24 22.99ZM171.39 26.25C171.35 26.32 171.28 26.37 171.15 26.37C170.98 27.39 170.71 28.54 170.35 29.25C170.18 29.14 169.92 29.02 169.75 28.94C170.1 28.27 170.35 27.12 170.51 26.02L171.4 26.25H171.39ZM173.63 26.01C173.98 26.72 174.31 27.63 174.43 28.24C174.29 28.29 174.14 28.35 173.76 28.47C173.66 27.86 173.34 26.92 173 26.2L173.62 26.01H173.63ZM173.92 28.91C174.6 28.51 175.62 27.87 176.62 27.22L176.87 27.84C176.01 28.46 175.12 29.1 174.52 29.49C174.53 29.57 174.5 29.66 174.42 29.71L173.92 28.91ZM177.9 24.21C178.04 24.91 178.25 25.64 178.57 26.33C179.13 25.86 179.78 25.25 180.18 24.78L180.91 25.36C180.85 25.43 180.75 25.44 180.66 25.42C180.22 25.86 179.48 26.49 178.88 26.92C179.4 27.78 180.12 28.54 181.13 29.02C180.96 29.16 180.72 29.49 180.61 29.7C179.19 28.92 178.37 27.62 177.88 26.35V29.4C177.88 30.24 177.46 30.28 176.03 30.28C176.01 30.08 175.9 29.78 175.8 29.57C176.06 29.58 176.32 29.58 176.52 29.58C177.07 29.58 177.13 29.58 177.13 29.39V24.21H174.22V23.49H178.45C178.51 23.19 178.58 22.87 178.65 22.54H175.82L175.7 22.97L174.92 22.84C175.24 21.87 175.65 20.27 175.9 19.11L176.88 19.23C176.86 19.33 176.78 19.37 176.62 19.37L176.45 20.08H179.27L179.44 20.06L179.9 20.19C179.89 20.25 179.86 20.32 179.84 20.37C179.71 21.13 179.46 22.41 179.22 23.49H181.02V24.21H177.89H177.9ZM175.13 24.89C175.67 25.35 176.29 26.01 176.57 26.47L175.98 26.96C175.72 26.49 175.12 25.8 174.58 25.32L175.13 24.89ZM176.32 20.74C176.22 21.12 176.13 21.52 176.02 21.89H178.8C178.87 21.48 178.96 21.09 179.02 20.74H176.32Z" fill="white"/>
<path d="M185.91 19.38C185.87 19.46 185.79 19.5 185.65 19.51C185.36 20.22 184.94 21.15 184.53 21.91C185.38 21.89 186.33 21.85 187.29 21.81C187.01 21.35 186.7 20.89 186.39 20.48L187.05 20.2C187.72 21.03 188.42 22.14 188.71 22.89L188.01 23.21C187.93 22.99 187.82 22.74 187.67 22.48C185.99 22.6 184.26 22.68 183.16 22.73C183.15 22.83 183.06 22.87 182.98 22.9L182.72 21.95L183.7 21.92C184.14 21.11 184.65 19.94 184.92 19.1L185.9 19.36L185.91 19.38ZM187.85 23.7V29.32C187.85 30.22 187.37 30.26 185.85 30.26C185.8 30.04 185.68 29.72 185.56 29.5C185.92 29.51 186.24 29.52 186.48 29.52C187 29.52 187.06 29.52 187.06 29.3V27.98H184.33V30.28H183.57V23.68H187.85V23.7ZM187.06 24.4H184.33V25.52H187.06V24.4ZM184.33 27.35H187.06V26.16H184.33V27.35ZM192.55 23.69C193.04 23.69 193.13 23.49 193.17 22.25C193.35 22.39 193.67 22.51 193.91 22.57C193.8 24.03 193.56 24.43 192.61 24.43H190.44C189.32 24.43 189.02 24.18 189.02 23.24V19.13L190.05 19.19C190.04 19.27 189.98 19.33 189.82 19.36V21.23C190.9 20.87 192.04 20.43 192.75 20.05L193.36 20.71C193.36 20.71 193.29 20.75 193.24 20.75C193.2 20.75 193.17 20.75 193.13 20.74C192.31 21.11 191.01 21.54 189.82 21.89V23.23C189.82 23.61 189.92 23.69 190.49 23.69H192.53H192.55ZM189.83 28.94C189.83 29.35 189.95 29.42 190.55 29.42H192.66C193.2 29.42 193.28 29.18 193.33 27.79C193.52 27.92 193.85 28.04 194.06 28.1C193.96 29.72 193.72 30.14 192.72 30.14H190.48C189.35 30.14 189.04 29.9 189.04 28.95V24.79L190.07 24.85C190.06 24.93 190 24.99 189.83 25.02V26.77C190.98 26.42 192.22 25.93 192.94 25.47L193.54 26.14C193.54 26.14 193.47 26.18 193.41 26.18C193.39 26.18 193.35 26.18 193.31 26.17C192.51 26.63 191.09 27.11 189.83 27.45V28.94Z" fill="white"/>
<path d="M198.3 24.91V28.4C198.86 28.29 199.44 28.18 200.01 28.06L200.06 28.74C198.63 29.05 197.13 29.36 196.2 29.54C196.18 29.64 196.12 29.7 196.03 29.72L195.75 28.83L197.58 28.52V24.9H195.84V24.18H197.58V22.82H196.44V22.63C196.36 22.74 196.27 22.83 196.18 22.94C196.05 22.77 195.8 22.52 195.62 22.42C196.57 21.38 197.29 20.07 197.71 19.09L198.67 19.23C198.65 19.33 198.59 19.37 198.45 19.39C199.05 19.92 199.77 20.59 200.13 21.02L199.66 21.64C199.32 21.21 198.69 20.56 198.1 20.03C197.78 20.68 197.34 21.4 196.84 22.11H199.57V22.82H198.29V24.18H199.94V24.9H198.29L198.3 24.91ZM196.63 25.55C196.87 26.25 197.07 27.16 197.12 27.76C196.76 27.84 196.64 27.88 196.52 27.9C196.48 27.3 196.29 26.4 196.06 25.68L196.62 25.55H196.63ZM199.95 25.75H206.93V26.34H199.95V25.85C199.95 25.85 199.85 25.89 199.77 25.89C199.63 26.44 199.36 27.27 199.13 27.81C199.12 27.81 198.63 27.62 198.63 27.62C198.85 27.04 199.11 26.13 199.24 25.51L199.95 25.76V25.75ZM206.58 22.33H206.99C206.99 22.44 206.71 23.47 206.44 24.01L205.8 23.89C205.92 23.64 206.03 23.28 206.12 22.92H200.02V22.33H206.58ZM202.95 21.19V20.47H200.16V19.91H202.95V19.11L203.95 19.18C203.94 19.25 203.88 19.31 203.72 19.34V19.92H206.63V20.48H203.72V21.2H206.21V21.76H200.64V21.2H202.94L202.95 21.19ZM202.73 26.84V29.35H200.87V29.85H200.27V26.84H202.73ZM200.4 24.62H202.97V23.97H201.11V23.47H205.49V23.97H203.7V24.62H206.18V25.14H200.4V24.62ZM202.13 27.4H200.87V28.78H202.13V27.4ZM206.05 26.46C206.03 26.53 205.98 26.58 205.82 26.62V27.17H206.77V27.76H205.82V29.52C205.82 30.2 205.54 30.24 204.19 30.24C204.17 30.06 204.07 29.83 203.97 29.66C204.45 29.67 204.85 29.67 204.98 29.67C205.1 29.66 205.14 29.62 205.14 29.51V27.75H202.95V27.16H205.14V26.39L206.05 26.45V26.46ZM203.57 27.95C203.95 28.3 204.35 28.78 204.49 29.14L203.97 29.48C203.81 29.11 203.44 28.62 203.07 28.24L203.56 27.95H203.57Z" fill="white"/>
<path d="M215.17 23.21C215.41 24 215.75 24.76 216.15 25.44C216.94 24.95 217.88 24.28 218.48 23.75L219.21 24.41C219.21 24.41 219.05 24.47 218.96 24.46C218.35 24.94 217.35 25.58 216.55 26.04C217.41 27.23 218.55 28.14 219.97 28.59C219.79 28.75 219.56 29.06 219.43 29.27C216.97 28.37 215.39 26.16 214.54 23.43C214.16 23.72 213.7 24.01 213.22 24.26C214.88 25.45 215.58 26.98 215.58 28.19C215.58 29.48 214.76 30.28 213.52 30.28C213.22 30.28 212.84 30.27 212.44 30.24C212.43 30.04 212.36 29.7 212.22 29.48C212.66 29.52 213.08 29.53 213.35 29.53C213.7 29.53 213.99 29.51 214.24 29.3C214.58 29.08 214.77 28.64 214.77 28.09C214.77 27.75 214.7 27.38 214.54 26.99C213.22 28.13 211.16 29.27 209.42 29.84C209.32 29.64 209.16 29.34 208.99 29.16C210.81 28.67 213.02 27.49 214.23 26.34C214.07 26.09 213.88 25.84 213.67 25.6C212.64 26.37 211.02 27.19 209.76 27.65C209.66 27.46 209.48 27.18 209.33 27.01C210.6 26.64 212.26 25.86 213.23 25.14C213.03 24.96 212.8 24.77 212.55 24.59C211.65 25.01 210.68 25.36 209.77 25.62C209.67 25.46 209.48 25.15 209.36 25.01C210.84 24.64 212.51 24 213.69 23.2H210.85V22.49H217.72V23.2H215.19L215.17 23.21ZM210.09 21.27V22.89H209.31V20.53H213.88V19.11L214.95 19.18C214.94 19.26 214.87 19.32 214.71 19.34V20.53H219.35V22.89H218.53V21.27H210.09Z" fill="white"/>
<path d="M223.49 21.17C223.72 20.56 223.96 19.7199 224.08 19.1099L225.11 19.3599C225.07 19.4399 225 19.4799 224.85 19.4799C224.72 19.9699 224.48 20.64 224.25 21.17H226.26V28.3099H222.97V29.3099H222.21V21.1799H223.48L223.49 21.17ZM225.49 24.3099V21.9099H222.97V24.3099H225.49ZM222.97 27.5599H225.49V25.0299H222.97V27.5599ZM232.05 21.1899L232.47 21.2099C232.46 21.2699 232.46 21.3899 232.46 21.4699C232.29 27.2699 232.14 29.1899 231.67 29.7699C231.37 30.1799 231.05 30.2499 230.21 30.2499C229.81 30.2499 229.32 30.24 228.83 30.2C228.81 29.97 228.71 29.6399 228.57 29.4299C229.42 29.4899 230.19 29.4899 230.52 29.4899C230.71 29.4899 230.84 29.4399 230.96 29.3099C231.34 28.8899 231.52 27.0199 231.67 21.9299H228.3C227.92 22.9899 227.45 23.9399 226.92 24.6599C226.79 24.5199 226.5 24.2499 226.32 24.1299C227.17 22.9899 227.87 21.0199 228.28 19.0699L229.3 19.3099C229.26 19.4199 229.17 19.4499 229.04 19.4399C228.91 20.0199 228.75 20.6 228.56 21.17H232.06L232.05 21.1899ZM228.64 23.7299C229.34 24.6699 230.04 25.8999 230.3 26.7199L229.57 27.0699C229.32 26.2499 228.65 24.9799 227.95 24.0499L228.65 23.7399L228.64 23.7299Z" fill="white"/>
<path d="M237.84 23.35L238.31 23.51C238.3 23.57 238.26 23.62 238.23 23.65C238.04 25.27 237.7 26.61 237.21 27.69C238.41 28.88 240.11 29.14 242.19 29.14C242.65 29.14 245.31 29.14 245.9 29.13C245.77 29.32 245.62 29.69 245.58 29.92H242.19C239.92 29.92 238.16 29.61 236.86 28.4C236.4 29.19 235.85 29.82 235.22 30.27C235.1 30.1 234.79 29.81 234.62 29.71C235.29 29.25 235.87 28.62 236.32 27.79C235.85 27.17 235.47 26.39 235.17 25.39L235.81 25.13C236.04 25.9 236.33 26.53 236.69 27.05C237.03 26.22 237.28 25.25 237.42 24.11H235.88L235.63 24.6L234.89 24.4C235.51 23.25 236.26 21.73 236.76 20.65H234.71V19.92H237.23L237.39 19.88L237.91 20.1C237.91 20.1 237.85 20.21 237.81 20.26C237.44 21.03 236.85 22.24 236.26 23.39H237.71L237.87 23.37L237.84 23.35ZM241.39 23.4V22.44H237.98V21.77H241.39V20.82H238.93V20.16H241.39V19.08L242.41 19.15C242.4 19.23 242.34 19.29 242.18 19.31V20.16H244.82V21.77H245.79V22.44H244.82V24.06H242.18V25.06H245.02V25.71H242.18V26.71H245.56V27.38H242.18V28.71H241.39V27.38H238.14V26.71H241.39V25.71H238.68V25.06H241.39V24.06H238.85V23.4H241.39ZM242.18 20.82V21.77H244.03V20.82H242.18ZM244.03 23.4V22.44H242.18V23.4H244.03Z" fill="white"/>
<path d="M258.63 27.2899H254.26C255.4 28.1499 257.25 28.8899 258.87 29.2199C258.69 29.3899 258.46 29.7 258.34 29.92C256.7 29.5 254.77 28.6099 253.58 27.5399V30.2499H252.79V27.5399C251.6 28.6199 249.7 29.52 248.06 29.95C247.94 29.75 247.71 29.4499 247.54 29.2899C249.14 28.9399 250.95 28.1699 252.07 27.2899H247.79V26.6199H252.78V25.5699C252.46 25.8599 252.02 26.1099 251.46 26.3399C251.36 26.1699 251.09 25.8799 250.93 25.7799C252.61 25.1699 252.92 24.3199 252.92 23.5099V22.2999H257.17V24.8199C257.17 25.2399 257.17 25.2699 257.43 25.2699H257.79C258.2 25.2699 258.2 25.2199 258.23 24.0099C258.37 24.1399 258.61 24.2499 258.79 24.3099C258.75 25.5299 258.71 25.92 257.82 25.92H257.26C256.4 25.92 256.4 25.4599 256.4 24.7699V22.89H253.67V23.5399C253.67 24.2199 253.49 24.9499 252.79 25.5699L253.8 25.6299C253.79 25.7099 253.73 25.7699 253.57 25.7999V26.64H258.62V27.3099L258.63 27.2899ZM250.46 21.9799C250.36 21.6399 250.14 21.1499 249.9 20.7399H249.31C248.97 21.2299 248.6 21.6899 248.23 22.0199C248.09 21.8899 247.81 21.6999 247.63 21.5999C248.3 21.0199 248.96 20.0299 249.36 19.0599L250.28 19.3699C250.24 19.4299 250.16 19.4799 250.03 19.4699C249.95 19.6599 249.84 19.8699 249.73 20.0699H253.04V20.7399H250.65C250.87 21.0999 251.05 21.4999 251.14 21.7799L250.46 21.9699V21.9799ZM252.23 24.9099C250.71 25.1999 249.12 25.4699 248.12 25.6299C248.11 25.7299 248.05 25.7699 247.98 25.7999L247.68 24.9999C248.23 24.9299 248.91 24.8299 249.68 24.7199V22.9899H247.91V22.3699H252.19V22.9899H250.43V24.6099L252.22 24.3499L252.24 24.9099H252.23ZM255.86 22.0099C255.72 21.6699 255.38 21.1599 255.04 20.7499H254.01C253.66 21.2099 253.27 21.6299 252.86 21.9399C252.7 21.8199 252.4 21.6399 252.21 21.5399C252.97 20.9899 253.7 20.0499 254.09 19.0699L255.03 19.3599C255.01 19.4299 254.92 19.4699 254.78 19.4699C254.68 19.6799 254.58 19.8799 254.46 20.0799H258.73V20.7499H255.89C256.18 21.0999 256.43 21.4799 256.56 21.7699L255.86 22.0099ZM254.36 23.4399C254.98 23.7999 255.74 24.3399 256.11 24.7099L255.63 25.2099C255.26 24.8299 254.51 24.2499 253.89 23.8799L254.36 23.4399Z" fill="white"/>
<path d="M264.55 28.51C265.01 28.75 265.16 28.84 265.31 28.94C265.26 28.99 265.18 29.01 265.07 29.02C264.28 29.52 262.58 30.04 261.15 30.29C261.04 30.13 260.81 29.87 260.66 29.71C262.09 29.49 263.81 29 264.56 28.5L264.55 28.51ZM269.38 22.37H271.62V23.01H269.33L269.23 24.11H262.74L262.88 23.01H260.71V22.37H262.96L263.09 21.3H269.46L269.36 22.37H269.38ZM261.91 20.71V21.95H261.17V20.04H265.74V19.1L266.78 19.16C266.77 19.26 266.7 19.3 266.54 19.33V20.04H271.17V21.95H270.4V20.71H261.91ZM269.95 24.63V28.47H262.43V24.63H269.95ZM269.13 25.73V25.15H263.21V25.73H269.13ZM269.13 26.83V26.23H263.21V26.83H269.13ZM269.13 27.95V27.34H263.21V27.95H269.13ZM263.63 22.94L263.55 23.59H265.65C265.67 23.39 265.71 23.17 265.73 22.94H263.63ZM265.78 22.41C265.79 22.21 265.82 22 265.83 21.81H263.78L263.71 22.41H265.78ZM266.36 23.59H268.54L268.59 22.94H266.43L266.36 23.59ZM268.64 22.41L268.69 21.81H266.52L266.48 22.41H268.64ZM270.94 30.27C270.03 29.92 268.54 29.42 267.01 29L267.56 28.53C269.05 28.92 270.64 29.42 271.63 29.78L270.95 30.27H270.94Z" fill="white"/>
<path d="M283.21 21.79C283.39 21.79 283.41 21.79 283.59 21.78L284.06 21.83C284.06 21.9 284.05 22.02 284.04 22.11C283.86 27.38 283.68 29.16 283.2 29.71C282.86 30.13 282.48 30.2 281.7 30.2C281.29 30.2 280.78 30.19 280.29 30.15C280.28 29.91 280.17 29.55 280 29.31C280.85 29.38 281.62 29.39 281.92 29.39C282.17 29.39 282.32 29.35 282.45 29.21C282.85 28.81 283.04 27.09 283.19 22.6H278.88C278.71 25.14 277.9 28.11 274.33 30.3C274.2 30.1 273.9 29.8 273.71 29.66C277.08 27.63 277.87 24.92 278.04 22.6H274.06V21.79H278.08C278.09 21.57 278.09 21.37 278.09 21.17V19.13L279.17 19.2C279.16 19.28 279.09 19.34 278.93 19.37V21.17C278.93 21.38 278.93 21.58 278.92 21.79H283.21Z" fill="white"/>
<path d="M297.4 21.49H290.86C290.63 21.99 290.38 22.49 290.1 22.97H295.89V29.21C295.89 30.23 295.41 30.25 293.26 30.25C293.22 30.02 293.1 29.67 292.98 29.45C293.4 29.46 293.8 29.46 294.12 29.46C294.98 29.46 295.08 29.46 295.08 29.2V27.83H290.01V30.25H289.21V24.31C288.6 25.13 287.89 25.86 287.06 26.46C286.94 26.28 286.69 25.98 286.52 25.81C288.01 24.77 289.15 23.18 289.93 21.49H286.78V20.71H290.27C290.49 20.18 290.65 19.64 290.8 19.11L291.84 19.37C291.82 19.45 291.72 19.5 291.58 19.5C291.46 19.9 291.33 20.29 291.17 20.7H297.39V21.48L297.4 21.49ZM295.1 25.04V23.7H290.03V25.04H295.1ZM290.03 27.11H295.1V25.74H290.03V27.11Z" fill="white"/>
<path d="M300.72 19.95H308.85V30.2599H308.01V29.4099H301.52V30.2599H300.72V19.95ZM308.01 20.7299H301.52V22.8299H308.01V20.7299ZM308.01 23.5999H301.52V25.7199H308.01V23.5999ZM301.52 28.6299H308.01V26.5099H301.52V28.6299Z" fill="white"/>
<path d="M320.14 25.56H323.04V26.35H312.03V25.56H314.88V22.39H312.58V21.6H314.88V19.22L315.95 19.29C315.94 19.36 315.88 19.42 315.71 19.45V21.6H319.31V19.22L320.38 19.29C320.37 19.36 320.31 19.42 320.14 19.45V21.6H322.59V22.39H320.14V25.56ZM316.49 27.44C316.45 27.51 316.36 27.55 316.23 27.54C315.44 28.44 314.02 29.57 312.79 30.29C312.62 30.1 312.32 29.83 312.13 29.69C313.37 29.03 314.78 27.96 315.48 27.03L316.5 27.45L316.49 27.44ZM315.71 22.39V25.56H319.31V22.39H315.71ZM322.13 30.26C321.4 29.53 319.9 28.33 318.74 27.48L319.46 27.04C320.6 27.86 322.12 29.01 322.9 29.74L322.13 30.27V30.26Z" fill="white"/>
<path d="M328.7 19.88V28.23H326.07V29.31H325.31V19.88H328.69H328.7ZM327.93 20.61H326.07V22.4H327.93V20.61ZM326.07 23.1V24.91H327.93V23.1H326.07ZM326.07 27.49H327.93V25.62H326.07V27.49ZM336.06 23.03V23.75H333.21C332.66 24.34 332.06 24.88 331.42 25.36H335.14V30.21H334.37V29.85H331.02V30.26H330.28V26.15C329.92 26.36 329.56 26.57 329.19 26.76C329.09 26.58 328.9 26.27 328.76 26.1C330 25.51 331.16 24.72 332.17 23.76H328.93V23.04H331.34V21.47H329.44V20.76H331.34V19.12L332.35 19.18C332.34 19.26 332.28 19.32 332.11 19.35V20.77H333.97V21.48H332.11V23.05H332.88C333.74 22.09 334.48 20.99 335.03 19.78L335.93 20.1C335.88 20.2 335.76 20.22 335.65 20.21C335.16 21.24 334.55 22.19 333.84 23.05H336.07L336.06 23.03ZM334.37 27.24V26.04H331.02V27.24H334.37ZM331.02 29.15H334.37V27.9H331.02V29.15ZM334.41 25.28C334.15 24.99 333.62 24.57 333.2 24.33L333.68 23.91C334.12 24.15 334.64 24.55 334.9 24.82L334.41 25.28Z" fill="white"/>
<path d="M340.98 28.5799C340.98 29.4999 340.22 30.2599 339.3 30.2599C338.38 30.2599 337.62 29.4999 337.62 28.5799C337.62 27.6599 338.38 26.8999 339.3 26.8999C340.22 26.8999 340.98 27.6799 340.98 28.5799ZM340.55 28.5799C340.55 27.8799 340 27.3299 339.3 27.3299C338.6 27.3299 338.06 27.8799 338.06 28.5799C338.06 29.2799 338.61 29.8199 339.3 29.8199C340.02 29.8199 340.55 29.2399 340.55 28.5799Z" fill="white"/>
</svg>
