<svg width="533" height="145" viewBox="0 0 533 145" fill="none" xmlns="http://www.w3.org/2000/svg">
<path d="M60.3399 100.38C57.2399 98.6499 55.5999 95.87 55.5999 93.03C55.5999 87.5 60.1599 83.96 65.9599 83.96C72.5999 83.96 75.7399 88.1699 75.7399 92.3699C75.7399 95.0699 74.2399 98.04 70.8299 99.89V99.9799C74.1099 101.48 76.8099 104.36 76.8099 108.52C76.8099 114.5 72.1199 118.44 65.4799 118.44C58.3499 118.44 54.5499 114.06 54.5499 109.28C54.5499 105.16 56.9799 102.2 60.3499 100.52V100.39L60.3399 100.38ZM70.2599 109.06C70.2599 105.78 68.0499 103.7 65.1299 102.73C62.6099 103.66 61.0999 106.01 61.0999 108.66C61.0999 111.49 62.8299 113.97 65.6599 113.97C68.4899 113.97 70.2599 111.67 70.2599 109.06ZM61.7599 92.7299C61.7599 95.2999 63.6199 97.0699 66.2299 98.0399C68.0899 97.2899 69.6399 95.21 69.6399 92.95C69.6399 90.69 68.5299 88.3499 65.7399 88.3499C62.9499 88.3499 61.7599 90.6099 61.7599 92.7299Z" fill="white"/>
<path d="M112.01 98.7599H99.5799C101.62 105.93 105.64 111.36 112.77 113.75C111.77 114.65 110.42 116.52 109.76 117.73C103.11 115.13 99.1699 110.36 96.6399 103.67C94.7399 109.35 90.9999 114.44 83.4499 117.76C82.8299 116.58 81.5799 115.06 80.3999 114.12C88.8499 110.69 92.0999 105.08 93.3099 98.7499H81.0499V94.4599H93.8899C94.1299 91.3799 94.0999 88.2299 94.1299 85.1099L99.6399 85.4599C99.5699 85.8399 99.2599 86.0799 98.6699 86.1899C98.6399 88.8599 98.5999 91.6599 98.3599 94.4599H112V98.7499L112.01 98.7599Z" fill="white"/>
<path d="M127.57 100.11L127.99 103.68C126.74 104.1 125.5 104.51 124.25 104.89V113.27C124.25 117.01 122.83 117.7 117.43 117.7C117.29 116.66 116.77 114.96 116.25 113.89C117.6 113.96 119.05 113.96 119.5 113.96C119.98 113.93 120.16 113.79 120.16 113.3V106.13L117.08 107.06C117.05 107.41 116.77 107.61 116.49 107.68L115.21 102.97C116.56 102.69 118.26 102.31 120.16 101.86V95.3901H115.73V91.55H120.16V85.11L125.18 85.3201C125.15 85.7001 124.9 85.9101 124.25 86.0101V91.55H127.71V95.3901H124.25V100.89L127.57 100.09V100.11ZM133.11 94.5001C133.11 95.8201 133.46 95.9901 135.6 95.9901H141.97C143.77 95.9901 144.08 95.4401 144.32 92.0101C145.19 92.6001 146.92 93.2601 148.06 93.4601C147.54 98.4101 146.33 99.6901 142.31 99.6901H135.21C130.29 99.6901 128.98 98.5101 128.98 94.5301V85.0801L134.03 85.36C134 85.67 133.72 85.91 133.1 85.98V89.6801C136.67 88.8101 140.3 87.6701 142.66 86.5601L145.88 89.7101C145.74 89.8501 145.46 89.85 145.01 89.85C141.96 91.1 137.32 92.2401 133.1 93.0701V94.4901L133.11 94.5001ZM129.54 117.77V101.74H145.88V117.56H141.76V116.38H133.45V117.76H129.54V117.77ZM141.76 105.24H133.45V107.39H141.76V105.24ZM133.45 112.93H141.76V110.68H133.45V112.93Z" fill="white"/>
<path d="M159.32 97.7898C160.29 99.1398 162.89 103.19 163.44 104.16L161.29 107.14C160.87 106.03 160.08 104.41 159.32 102.85V117.74H155.55V104.58C154.65 107.32 153.58 109.77 152.36 111.54C151.98 110.4 151.11 108.81 150.53 107.87C152.5 105.14 154.34 100.32 155.24 96.1698H151.33V92.3298H155.55V85.0898L160.22 85.3698C160.19 85.6798 159.94 85.8898 159.32 85.9898V92.3298H162.78V96.1698H159.32V97.7998V97.7898ZM170.02 111.57C169.95 111.78 169.67 111.88 169.29 111.85C168.11 113.51 166.07 115.62 164.13 116.97C163.54 116.17 162.43 115.1 161.57 114.44C163.4 113.26 165.31 111.29 166.42 109.59L170.02 111.56V111.57ZM183.45 109.32H175.07V114.1C175.07 117.39 173.65 117.8 169.25 117.8C169.11 116.76 168.59 115.41 168.14 114.44C168.8 114.47 169.46 114.51 169.97 114.51C171.15 114.51 171.22 114.44 171.22 114.06V109.32H162.91V106H183.44V109.32H183.45ZM168.94 91.4598V89.8298H163.09V86.5398H183.38V89.8298H177.29V91.4598H182.48V100.36H164.1V91.4598H168.95H168.94ZM181.58 104.62H165.17V101.61H181.58V104.62ZM167.49 94.4798V97.3498H169.32V94.4798H167.49ZM174.07 94.4798H172.13V97.3498H174.07V94.4798ZM174.07 91.4698V89.8398H172.17V91.4698H174.07ZM180.61 116.99C179.74 115.54 177.77 113.25 176.14 111.62L179.08 109.68C180.74 111.2 182.78 113.32 183.72 114.8L180.6 116.98L180.61 116.99ZM178.91 97.3598V94.4898H176.87V97.3598H178.91Z" fill="white"/>
<path d="M224.07 97.2L226.11 97.3C226.11 97.61 226.08 98.1 226.08 98.51C225.8 110.63 225.53 114.85 224.66 116.17C223.97 117.14 223.17 117.76 220.26 117.76C219.84 117.76 219.43 117.76 219.01 117.73C218.98 116.97 218.77 115.93 218.42 115.06L217.87 115.3C217.8 115.02 217.73 114.71 217.63 114.4C213.65 114.82 209.63 115.16 207.04 115.37C206.97 115.68 206.73 115.82 206.45 115.85L205.52 112.08C207.22 112.05 209.4 111.98 211.79 111.87V109.65H206.91V104.39L206.56 104.7C206.08 104.01 205.04 102.76 204.27 102.03C204.3 102.69 204.3 103.38 204.3 104.07C204.3 110.13 204.06 116.67 200.32 117.43C199.07 117.74 197.69 117.78 196.23 117.71C196.23 116.39 195.92 114.91 195.23 113.73C196.03 113.8 196.72 113.8 197.27 113.8C198.48 113.8 199 113.77 199.45 113.18C200.11 112.31 200.39 108.89 200.42 105.01C199.17 106.64 197.82 108.13 196.54 109.23C195.92 108.23 194.77 106.88 193.84 106.11C196.12 104.59 198.65 101.75 200.18 99.05C200.04 97.87 199.8 96.73 199.49 95.62C198.59 96.52 197.66 97.39 196.72 98.15C196.06 97.32 194.78 96.11 193.92 95.45C195.27 94.45 196.62 93.13 197.87 91.71C197 90.26 195.86 88.8 194.37 87.42L197.24 85.24C198.45 86.35 199.46 87.46 200.29 88.56C200.98 87.52 201.61 86.45 202.12 85.41L206.21 87.38V86.34H225.7V95.1H212.54L213.54 95.41C213.44 95.72 213.12 95.83 212.64 95.79C212.43 96.27 212.22 96.72 211.98 97.21H223.27L224.07 97.18V97.2ZM206.2 95.12V87.54C206.03 87.75 205.75 87.82 205.4 87.78C204.6 89.23 203.57 90.79 202.39 92.28C203.71 95.26 204.12 98.34 204.26 101.59C205.99 100.07 207.62 97.61 208.69 95.12H206.2ZM211.77 100.62H210C209.55 101.31 209.03 102 208.51 102.63H211.76V100.62H211.77ZM209.69 89.4V92.03H211.7V89.4H209.69ZM209.86 107.2H211.76V105.05H209.86V107.2ZM214.78 89.4V92.03H216.86V89.4H214.78ZM219.94 114.36C220.74 114.36 220.94 114.36 221.32 113.81C221.84 113.05 222.12 109.79 222.29 100.62H215.71C215.64 100.86 215.4 101.04 214.91 101.1V102.62H220.07V109.65H218.79C219.59 111.07 220.31 112.8 220.62 114.05L219.93 114.36H219.94ZM214.92 105.05V107.2H216.93V105.05H214.92ZM214.92 111.7L216.55 111.63C216.34 111.18 216.13 110.76 215.93 110.38L217.66 109.65H214.93V111.69L214.92 111.7ZM219.91 89.4V92.03H222.06V89.4H219.91Z" fill="white"/>
<path d="M250.53 97.9298C251.05 99.4898 251.67 100.94 252.4 102.33C254.17 101.15 256.07 99.7298 257.35 98.5198L260.99 101.81C260.85 101.95 260.57 102.02 260.3 102.02C260.2 102.02 260.06 102.02 259.92 101.99C258.57 102.99 256.35 104.38 254.45 105.45C256.53 108.12 259.19 110.19 262.55 111.44C261.62 112.27 260.37 113.9 259.75 115.04C253.24 112.17 249.4 106.35 247.11 98.8398C246.18 99.4998 245.17 100.09 244.1 100.67C248.57 103.82 250.37 107.87 250.37 111.19C250.37 115.17 247.84 117.84 243.86 117.84C243.03 117.84 242.06 117.81 241.09 117.77C241.02 116.66 240.71 115.04 239.98 113.82C241.16 113.96 242.2 113.99 243.03 113.99C243.86 113.99 244.59 113.89 245.11 113.33C245.77 112.88 246.15 111.95 246.15 110.73C246.15 110.31 246.12 109.86 246.01 109.41C242.2 112.32 236.94 115.05 232.44 116.58C231.96 115.58 231.09 114.05 230.26 113.15C235.21 111.9 241.1 109.03 244.52 106.16C244.31 105.85 244.07 105.54 243.79 105.22C240.85 107.16 236.73 109.13 233.47 110.31C233.02 109.37 232.15 107.96 231.39 107.16C234.64 106.36 238.83 104.7 241.53 103.04C241.22 102.8 240.87 102.56 240.53 102.31C238.21 103.28 235.72 104.08 233.33 104.66C232.91 103.86 231.98 102.31 231.39 101.54C235.09 100.78 239.01 99.5298 242.16 97.8998H236.59V94.3698H255.15V97.8998H250.55L250.53 97.9298ZM235.3 92.2898V96.3398H231.25V88.5198H243.71V85.0898L248.94 85.3698C248.91 85.7198 248.66 85.9198 248.01 86.0298V88.5198H260.75V96.3398H256.49V92.2898H235.3Z" fill="white"/>
<path d="M283.43 107.83V113.06C284.68 113.2 286.03 113.27 287.41 113.27C289.28 113.27 295.06 113.27 297.42 113.17C296.8 114.17 296.14 116.15 295.93 117.39H287.21C280.7 117.39 275.92 116.32 272.74 111.3C271.6 114 270.04 116.29 267.96 117.91C267.27 117.15 265.71 115.8 264.77 115.17C268.41 112.57 270.17 107.52 270.79 101.53L275.81 102.26C275.71 102.57 275.43 102.78 274.94 102.81C274.77 104.02 274.56 105.16 274.32 106.31C275.36 109.15 277.02 110.85 279.1 111.85V99.56H271.97V95.61H290.49V99.56H283.43V103.92H293.02V107.83H283.43ZM270.62 92.73V97.54H266.53V88.82H279.03V85.01L284.43 85.32C284.4 85.67 284.12 85.87 283.46 85.98V88.82H296.03V97.54H291.74V92.73H270.62Z" fill="white"/>
<path d="M327.09 108.07L330.66 109.42C330.52 109.66 330.21 109.84 329.76 109.77C328.76 110.91 327.54 111.99 326.16 112.96C326.96 113.58 327.82 113.96 328.72 113.96C329.62 113.96 329.86 113.37 330.04 111.36C330.84 112.05 332.01 112.71 332.98 112.99C332.39 116.94 331.25 117.77 328.48 117.77C326.23 117.74 324.22 116.73 322.56 115.04C320.31 116.11 317.85 117.01 315.36 117.64C314.98 116.84 314.08 115.29 313.49 114.56C315.88 114.04 318.34 113.28 320.48 112.27C319.79 111.06 319.16 109.64 318.68 108.08H311.86V109.46L317.09 109.18V111.95L311.86 112.37V114.14C311.86 117.19 310.82 117.78 304.42 117.78C304.21 116.81 303.73 115.5 303.24 114.59C304 114.62 304.87 114.66 305.59 114.66C307.88 114.66 307.88 114.63 307.88 114.04V112.69C305.91 112.83 304.07 112.97 302.62 113.04C302.55 113.32 302.31 113.49 302.03 113.56L300.85 109.96C302.75 109.89 305.21 109.79 307.88 109.65V108.09H300.96V105.04H307.88V103.69C306.05 103.86 304.18 103.97 302.41 104.04C302.31 103.31 301.93 102.24 301.58 101.55C305.6 101.31 310.13 100.82 313.21 100.2H300.61V97.05H314.39V95.7701H304.45V92.9001H314.39V91.6201H302.62V88.54H308.89C308.51 87.78 307.99 86.9801 307.47 86.3201L311.11 85.1401C312.01 86.0701 312.88 87.4301 313.26 88.3901L312.88 88.5301H320.39L320.08 88.4301C320.7 87.4301 321.46 86.04 321.85 85.04L326.73 86.3901C326.63 86.6701 326.31 86.7701 325.83 86.7701C325.48 87.2901 324.96 87.95 324.48 88.54H330.64V91.6201H318.7V92.9001H328.84V95.7701H318.7V97.05H332.79V100.2H314.54L316.89 102.49C316.75 102.59 316.68 102.59 316.09 102.59C314.91 102.83 313.46 103.07 311.87 103.28V105.05H317.89C317.61 103.6 317.44 102.07 317.34 100.51L322.39 100.68C322.39 101.03 322.11 101.27 321.46 101.34C321.49 102.59 321.67 103.87 321.94 105.04H327.38C326.17 104.14 324.47 103.17 323.05 102.55L325.37 100.23C327.24 100.99 329.59 102.27 330.81 103.31L329.11 105.04H332.4V108.09H327.1L327.09 108.07ZM322.87 108.07C323.18 108.9 323.56 109.66 323.98 110.32C324.98 109.63 325.81 108.9 326.51 108.07H322.87Z" fill="white"/>
<path d="M370.35 101.35H362.18V105.37H371.94V109.01H362.18V113.2H375.09V116.9H345.35V113.2H357.81V109.01H348.15V105.37H357.81V101.35H349.92V98.5799C348.67 99.4499 347.36 100.28 346.04 101C345.49 100.03 344.34 98.5099 343.44 97.6799C349.43 94.6299 355.18 89.1999 357.74 84.8699L363.28 85.1799C363.18 85.5599 362.86 85.7999 362.38 85.8699C365.74 90.4099 371.66 94.9099 376.89 97.1599C375.82 98.1999 374.88 99.6499 374.12 100.9C372.87 100.21 371.59 99.4099 370.35 98.5799V101.35ZM369.1 97.6799C365.43 95.0099 362 91.8599 359.96 89.0199C358.02 91.8199 354.84 94.9399 351.17 97.6799H369.1Z" fill="white"/>
<path d="M389.64 106.17V106.69C390.75 107.35 393.93 109.67 394.73 110.29L392.38 113.27C391.76 112.58 390.72 111.54 389.65 110.53V117.77H385.63V111.12C384.31 112.92 382.86 114.55 381.41 115.66C380.79 114.76 379.58 113.41 378.71 112.72C381 111.27 383.38 108.7 384.98 106.18H379.61V102.68H385.63V100.15H379.19V96.7198H382.62C382.41 95.4698 382 93.9499 381.44 92.7399L383.69 92.0799H379.88V88.6899H385.63V85.1199L390.55 85.3599C390.52 85.7099 390.27 85.9099 389.65 86.0199V88.6899H395.29V92.0799H391.83L394.63 92.8099C394.53 93.0499 394.25 93.1899 393.76 93.2299C393.38 94.2699 392.76 95.5799 392.13 96.7299H396.01V100.16H390.4C390.26 100.3 390.02 100.44 389.64 100.47V102.69H395.49V106.19H389.64V106.17ZM388.6 96.6799C389.12 95.3999 389.74 93.5299 390.12 92.0799H384.75C385.41 93.5699 385.93 95.3699 386.1 96.6499L385.89 96.7198H388.69L388.59 96.6899L388.6 96.6799ZM411.76 96.6499V100.49H408.4V117.77H404.35V100.49H400.89C400.89 105.61 400.13 113.06 395.45 117.84C394.93 116.94 393.48 115.52 392.51 115C396.56 110.78 396.94 104.92 396.94 100.25V88.3099L399.09 88.9299C402.28 87.8899 405.56 86.5099 407.54 85.1599L411.45 88.1399C411.24 88.3499 410.9 88.3499 410.48 88.3499C408.06 89.6299 404.42 90.9499 400.89 91.9499V96.6599H411.76V96.6499Z" fill="white"/>
<path d="M442.79 107.76L445.8 109.91C445.7 110.08 445.45 110.15 445.18 110.15C445.08 110.15 444.94 110.15 444.83 110.12C443.86 110.71 442.37 111.57 440.99 112.27C442.69 113.24 444.73 113.97 447.05 114.38C446.18 115.18 445.11 116.73 444.59 117.81C440.68 116.81 437.7 115.08 435.41 112.62L435.55 115.08C431.29 115.88 426.89 116.64 424.02 117.09C423.99 117.44 423.71 117.61 423.47 117.68L421.95 113.49C422.99 113.39 424.17 113.25 425.48 113.07V107.77H421.67V104.86H421.64C421.16 109.46 420.12 114.31 417.83 117.88C417 117.22 415.16 116.11 414.13 115.73C417.59 110.36 417.87 102.5 417.87 96.9299V86.6099H444.7V96.0299H440.89C440.75 96.2399 440.51 96.3399 440.06 96.4099V98.3099H444.94V101.81H440.06V104.27H446.6V107.77H442.79V107.76ZM422.05 96.0199C422.05 98.1999 422.05 100.87 421.74 104.26H427.18V101.8H422.78V98.2999H427.18V96.0099H422.06L422.05 96.0199ZM440.5 90.0999H422.05V92.4899H440.5V90.0999ZM429.28 107.76V112.61C431.08 112.37 432.92 112.13 434.78 111.85C433.78 110.64 432.95 109.29 432.25 107.76H429.27H429.28ZM436.2 98.3099V96.0199H431.8C431.66 96.1899 431.42 96.3299 430.97 96.3999V98.2999H436.2V98.3099ZM436.2 104.27V101.81H430.97V104.27H436.2ZM436.23 107.77C436.78 108.64 437.41 109.47 438.17 110.19C439.42 109.43 440.77 108.53 441.77 107.77H436.23Z" fill="white"/>
<path d="M464.88 98.7899H455.46V117.76H451.41V86.4299H464.88V98.7899ZM460.97 89.4099H455.47V91.1799H460.97V89.4099ZM455.47 95.8199H460.97V93.8799H455.47V95.8199ZM475.07 109.91H471.19V117.15H467.55V109.91H464.12C463.7 112.13 462.49 115.48 459.69 117.39C459.14 116.66 457.86 115.52 457.06 114.97C459.17 113.59 460.18 111.58 460.56 109.92H457.1V106.53H460.77V103.9H457.62V100.61H474.48V103.9H471.19V106.53H475.07V109.92V109.91ZM464.3 106.52H467.55V103.89H464.3V106.52ZM480.88 86.4399V112.93C480.88 116.91 479.39 117.67 473.51 117.67C473.37 116.53 472.82 114.62 472.26 113.55C473.16 113.58 474.13 113.62 474.89 113.62C476.62 113.62 476.79 113.62 476.79 112.89V98.8699H467.17V86.4399H480.88ZM476.79 89.4199H471.11V91.1899H476.79V89.4199ZM471.11 95.89H476.79V93.8799H471.11V95.89Z" fill="white"/>
<path d="M102.79 55.9001V61.7401H82.0299V73.17H75.6699V61.7401H55.5199V55.9001H75.6699V51.23H60.6499V27.5901H97.4099V51.23H83.3599C83.2599 51.64 82.8499 51.8501 82.0299 52.0001V55.9001H102.79ZM66.6999 32.98V36.8801H91.0499V32.98H66.6999ZM66.6999 41.9001V45.8H91.0499V41.9001H66.6999Z" fill="#FFFF00"/>
<path d="M117.66 61.6901C116.53 65.7901 114.84 70.2001 111.97 73.0701L107.05 69.9901C109.66 67.5301 111.51 63.6301 112.48 59.8901L117.66 61.6801V61.6901ZM154.88 52.2601H120.48V54.5701H149.14L150.42 54.42L153.7 54.9301C153.7 55.3901 153.6 55.9601 153.49 56.5201C152.82 65.9501 152.11 69.8501 150.77 71.3901C149.59 72.6201 148.36 73.2401 144.1 73.2401C143.23 73.2401 142.25 73.2401 141.28 73.1901C141.23 71.7001 140.61 69.6001 139.84 68.2701C141.74 68.4801 143.43 68.48 144.2 68.48C144.97 68.48 145.38 68.38 145.84 67.97C146.51 67.2 147.12 64.7401 147.53 58.9501H114.36V28.7001H126.31C126.82 27.2601 127.28 25.78 127.54 24.55L135.33 25.7801C135.18 26.1901 134.82 26.4001 134.05 26.4501L132.87 28.7101H147.64V45.7801H120.47V48.04H154.87V52.3L154.88 52.2601ZM120.73 71.54C120.88 69.03 120.47 65.0301 119.76 61.9501L124.78 61.1801C125.65 64.2001 126.11 68.2 126.11 70.72L120.73 71.54ZM141.6 32.9301H120.48V35.2401H141.6V32.9301ZM120.48 41.4901H141.6V39.0301H120.48V41.4901ZM130.38 70.5601C130.17 68.2501 129.2 64.6101 128.12 61.8401L132.79 60.7101C133.97 63.4301 135.1 66.96 135.4 69.17L130.38 70.55V70.5601ZM139.25 67.79C138.74 65.94 137.4 63.07 136.12 60.92L140.48 59.3801C141.81 61.4301 143.25 64.25 143.86 66.05L139.25 67.79Z" fill="#FFFF00"/>
<path d="M205.8 35.5499V62.9299H182.78V35.5499H190.06L190.68 32.0599H180.89V29.96H180.79C179 32.88 176.28 36.4699 173.56 39.2399C174.79 40.1099 175.87 40.93 176.69 41.7L175.36 43.4899H179.46L182.48 43.7C181.45 48.31 180.22 52.8799 178.53 57.2899C174.33 55.6999 174.22 55.65 174.12 55.65C174.68 53.86 175.35 51.3899 175.97 48.9299H172.95V66.6699C172.95 71.4399 171.57 73.2799 162.59 73.1299C162.33 71.4399 161.56 68.9299 160.74 67.2899C162.94 67.3399 165.35 67.34 166.07 67.34C166.79 67.29 166.99 67.1299 166.99 66.5699V48.9299H159.3V43.4999H170.12C167.51 41.5499 164.17 39.5499 161.3 38.1699L164.38 34.1199C165.87 34.7899 167.51 35.66 169.15 36.53C170.28 35.3 171.46 33.81 172.48 32.33H160.38V26.9999H176.63L177.55 26.6899L180.88 28.6899V26.9H207.59V32.08H197.13C196.82 33.16 196.46 34.3399 196.05 35.5699H205.79L205.8 35.5499ZM193.09 66.21C192.88 66.42 192.58 66.5199 192.17 66.5699C189.86 68.8799 185.09 71.8 181.04 73.34C180.07 72.21 178.27 70.37 176.99 69.34C180.94 67.9 185.5 65.1399 187.76 62.9299L193.09 66.21ZM199.91 43.34V40.0599H188.37V43.34H199.91ZM199.91 50.83V47.5499H188.37V50.83H199.91ZM199.91 58.4199V55.09H188.37V58.4199H199.91ZM203.76 73.2899C201.97 71.3899 198.12 68.3699 195.2 66.3199L199.76 63.1899C202.63 65.0899 206.53 67.9099 208.58 69.8599L203.76 73.2999V73.2899Z" fill="#FFFF00"/>
<path d="M255.53 34.0601L258.81 34.2701C258.81 34.7801 258.76 35.6001 258.71 36.2701C258.09 59.4401 257.48 67.49 255.48 70.11C253.84 72.42 251.99 73.1301 246.66 73.1301C245.28 73.1301 243.84 73.0801 242.4 73.0301C242.3 71.3901 241.53 68.8801 240.45 67.2401C243.68 67.5001 246.6 67.5001 247.94 67.5001C248.97 67.5001 249.53 67.3501 250.14 66.6301C251.63 65.0901 252.19 57.61 252.7 39.92H239.83C238.6 42.64 237.22 45.1 235.78 47.1C234.7 46.18 232.65 44.74 231.11 43.92C232.9 46.69 234.55 49.71 235.26 51.97C233.52 52.89 232.03 53.7101 230.54 54.5301C230.33 53.7601 229.98 52.84 229.57 51.86L225.72 52.1201V73.1901H220.08V56.8401C219.93 57.1501 219.52 57.2501 219.05 57.2001C218.43 61.4601 217.26 66.3801 215.72 69.5001C214.59 68.7301 212.49 67.7601 211.16 67.2401C212.6 64.4201 213.52 59.5501 214.03 55.1401L220.08 56.6301V52.48C217.57 52.63 215.36 52.7401 213.52 52.8401C213.37 53.3001 212.96 53.5101 212.55 53.5601L211.37 47.41H215.11C215.98 46.33 216.9 45.21 217.83 43.97C216.24 41.87 213.73 39.3601 211.58 37.5101L214.4 33.3101L215.53 34.23C217.32 31.31 219.12 27.72 220.14 24.85L226.29 27.36C226.08 27.77 225.57 27.98 224.91 27.92C223.47 30.79 221.06 34.5901 219.07 37.4001C219.84 38.1701 220.51 38.89 221.07 39.55C223.17 36.53 225.07 33.4501 226.5 30.7801L232.5 33.55C232.24 33.91 231.73 34.0601 231.01 34.0601C228.45 38.0601 224.55 43.19 220.91 47.29L227.32 47.1901C226.55 45.9101 225.78 44.6301 225.01 43.4501C226.65 42.5801 228.03 41.9101 229.37 41.2501C229.88 41.9701 230.34 42.6901 230.86 43.4501C234.09 39.1401 236.76 31.81 238.24 24.79L245.52 26.6401C245.37 27.1001 244.9 27.3601 244.14 27.3101C243.58 29.5701 242.91 31.8701 242.09 34.1301H254.19L255.52 34.0801L255.53 34.0601ZM229.59 67.1301C229.03 64.3601 227.54 60 226.15 56.72L230.97 55.1301C232.41 58.3601 233.99 62.46 234.66 65.23L229.58 67.1301H229.59ZM240.87 45.9601C243.54 49.5501 246.51 54.32 247.59 57.6L242.21 60.3701C241.29 57.1901 238.52 52.17 235.9 48.48L240.87 45.97V45.9601Z" fill="#FFFF00"/>
<path d="M285.42 61.74C287.47 61.33 289.57 60.87 291.73 60.41C290.7 58.77 289.58 57.18 288.45 55.74L293.27 53.23C296.6 57.28 300.24 62.77 301.68 66.56L296.45 69.43C296.04 68.2 295.37 66.82 294.6 65.33C288.91 66.97 283.22 68.51 279.37 69.53C279.27 70.04 278.91 70.4 278.55 70.5L276.14 63.53C277.17 63.38 278.29 63.12 279.58 62.91V27.38H298.86V52.76H285.43V61.73L285.42 61.74ZM293.16 33.08H285.42V37.28H293.16V33.08ZM285.42 47.08H293.16V42.77H285.42V47.08ZM322.59 27.29V58.56C322.59 64.51 320.23 65.84 312.54 65.84C312.33 63.99 311.36 60.92 310.44 59.17C311.67 59.27 312.9 59.27 313.88 59.27C315.98 59.27 316.19 59.27 316.19 58.4V33.48H308.86V73.16H302.55V27.27H322.6L322.59 27.29Z" fill="#FFFF00"/>
<path d="M351.21 72.41C349.77 70.46 346.9 67.6401 344.19 65.1801C340.6 68.3101 336.55 71.02 332.3 73.23C331.43 71.69 329.74 69.6401 328.25 68.3101C336.76 64.6201 344.96 58 349.42 50.16L355.78 52.6201C355.57 52.9801 355.11 53.2401 354.4 53.2401C352.76 56.0101 350.76 58.6201 348.5 61.0801C351.27 63.3901 354.4 66.16 356.09 68.16L351.22 72.42L351.21 72.41ZM345.78 36.9301C345.52 37.3401 345.01 37.4401 344.29 37.4401C342.75 39.7501 340.34 42.6701 338.24 45.0301C339.27 45.8001 340.24 46.57 341.06 47.29C343.32 44.93 345.26 42.3201 346.7 39.6501L353.06 41.91C352.85 42.32 352.44 42.5801 351.73 42.5801C347.53 49.8101 340.4 56.6301 332.66 61.1901C331.79 59.8101 330.2 57.9101 328.71 56.6801C331.53 55.2401 334.3 53.4 336.86 51.3C334.55 49.2 331.37 46.7901 328.81 44.9401L332.25 40.8901C332.81 41.2501 333.43 41.6601 333.99 42.0701C335.37 40.3301 336.76 38.3301 337.94 36.4301H328.92V30.9401H339.58V24.79L346.96 25.2001C346.91 25.7101 346.55 26.02 345.58 26.17V30.9401H355.58V36.4301H344.71L345.79 36.9401L345.78 36.9301ZM364.85 31.4401C364.8 31.9501 364.44 32.21 363.52 32.36V60.3H357.73V31.0301L364.86 31.4401H364.85ZM368.59 25.9001L375.92 26.2101C375.87 26.7201 375.51 27.0801 374.59 27.1801V65.8901C374.59 71.8901 372.33 73.17 362.7 73.17C362.44 71.43 361.57 68.66 360.75 66.92C363.62 67.02 366.44 67.0201 367.42 67.0201C368.29 66.9701 368.6 66.7101 368.6 65.8401V25.9001H368.59Z" fill="#FFFF00"/>
<path d="M403.2 45.08H389.25V73.18H383.25V26.78H403.19V45.08H403.2ZM397.41 31.19H389.26V33.8H397.41V31.19ZM389.26 40.67H397.41V37.8H389.26V40.67ZM418.28 61.54H412.54V72.26H407.16V61.54H402.08C401.46 64.82 399.67 69.79 395.52 72.61C394.7 71.53 392.8 69.84 391.62 69.02C394.75 66.97 396.23 64 396.8 61.53H391.67V56.51H397.1V52.61H392.43V47.74H417.4V52.61H412.53V56.51H418.27V61.53L418.28 61.54ZM402.34 56.52H407.16V52.62H402.34V56.52ZM426.9 26.78V66C426.9 71.9 424.7 73.02 415.98 73.02C415.77 71.33 414.95 68.51 414.13 66.92C415.46 66.97 416.9 67.02 418.03 67.02C420.59 67.02 420.85 67.02 420.85 65.94V45.18H406.6V26.77H426.9V26.78ZM420.85 31.19H412.44V33.8H420.85V31.19ZM412.44 40.78H420.85V37.81H412.44V40.78Z" fill="#FFFF00"/>
<path d="M476.93 32.11L479.95 32.2101C479.59 35.7501 480 57.38 477.85 60.66C477.49 61.17 477.13 61.5801 476.77 61.8901C478.05 62.7101 480.1 63.4301 481.54 63.7401C480.77 70.3501 479.08 72.35 473.8 72.35H464.16C457.8 72.35 455.96 70.66 455.96 64.35V45.6401C455.55 46.1501 455.14 46.6701 454.73 47.1301C453.96 46.2601 452.63 44.8701 451.45 43.9001H447.14V49.3301H452.73V54.66H447.14V61.6301L453.29 60.0901L454.01 65.11C447.34 67.16 440.27 69.2101 435.76 70.4901C435.66 71.0001 435.3 71.31 434.94 71.41L432.58 65.16L434.73 64.6501V47.5801L440.88 47.9401C440.83 48.4001 440.52 48.6101 439.65 48.7601V63.5301L441.75 62.97V43.9001H434.88V26.7801H452.16V41.1401C455.34 36.8801 458.06 30.78 459.7 24.79L466.47 26.7401C466.32 27.1501 465.85 27.41 465.14 27.36C464.63 28.95 464.06 30.5401 463.45 32.1301H476.93V32.11ZM440.12 32.0101V38.73H446.63V32.0101H440.12ZM461.65 64.3101C461.65 66.6201 462.06 66.98 464.83 66.98H473.29C475.49 66.98 475.96 66.2101 476.26 62.2601C474.82 63.1301 473.54 63.1301 469.29 63.1301C469.19 61.4901 468.67 59.1801 467.85 57.7001C469.34 57.8501 470.67 57.85 471.44 57.85C472.06 57.85 472.52 57.7501 472.88 57.0801C473.65 55.9001 474.01 51.0801 474.26 37.6501H460.93C460.37 38.8301 459.7 40.0101 459.08 41.0901H471.13V57.29H461.65V64.3101ZM461.65 46.16V52.2601H465.96V46.16H461.65Z" fill="#FFFF00"/>
<path d="M508.73 0.810059H24.01C11.3019 0.810059 1 11.112 1 23.8201V120.98C1 133.688 11.3019 143.99 24.01 143.99H508.73C521.438 143.99 531.74 133.688 531.74 120.98V23.8201C531.74 11.112 521.438 0.810059 508.73 0.810059Z" stroke="white" stroke-width="0.6" stroke-miterlimit="10"/>
<path d="M60.3399 100.38C57.2399 98.6499 55.5999 95.87 55.5999 93.03C55.5999 87.5 60.1599 83.96 65.9599 83.96C72.5999 83.96 75.7399 88.1699 75.7399 92.3699C75.7399 95.0699 74.2399 98.04 70.8299 99.89V99.9799C74.1099 101.48 76.8099 104.36 76.8099 108.52C76.8099 114.5 72.1199 118.44 65.4799 118.44C58.3499 118.44 54.5499 114.06 54.5499 109.28C54.5499 105.16 56.9799 102.2 60.3499 100.52V100.39L60.3399 100.38ZM70.2599 109.06C70.2599 105.78 68.0499 103.7 65.1299 102.73C62.6099 103.66 61.0999 106.01 61.0999 108.66C61.0999 111.49 62.8299 113.97 65.6599 113.97C68.4899 113.97 70.2599 111.67 70.2599 109.06ZM61.7599 92.7299C61.7599 95.2999 63.6199 97.0699 66.2299 98.0399C68.0899 97.2899 69.6399 95.21 69.6399 92.95C69.6399 90.69 68.5299 88.3499 65.7399 88.3499C62.9499 88.3499 61.7599 90.6099 61.7599 92.7299Z" fill="white"/>
<path d="M112.01 98.7599H99.5799C101.62 105.93 105.64 111.36 112.77 113.75C111.77 114.65 110.42 116.52 109.76 117.73C103.11 115.13 99.1699 110.36 96.6399 103.67C94.7399 109.35 90.9999 114.44 83.4499 117.76C82.8299 116.58 81.5799 115.06 80.3999 114.12C88.8499 110.69 92.0999 105.08 93.3099 98.7499H81.0499V94.4599H93.8899C94.1299 91.3799 94.0999 88.2299 94.1299 85.1099L99.6399 85.4599C99.5699 85.8399 99.2599 86.0799 98.6699 86.1899C98.6399 88.8599 98.5999 91.6599 98.3599 94.4599H112V98.7499L112.01 98.7599Z" fill="white"/>
<path d="M127.57 100.11L127.99 103.68C126.74 104.1 125.5 104.51 124.25 104.89V113.27C124.25 117.01 122.83 117.7 117.43 117.7C117.29 116.66 116.77 114.96 116.25 113.89C117.6 113.96 119.05 113.96 119.5 113.96C119.98 113.93 120.16 113.79 120.16 113.3V106.13L117.08 107.06C117.05 107.41 116.77 107.61 116.49 107.68L115.21 102.97C116.56 102.69 118.26 102.31 120.16 101.86V95.3901H115.73V91.55H120.16V85.11L125.18 85.3201C125.15 85.7001 124.9 85.9101 124.25 86.0101V91.55H127.71V95.3901H124.25V100.89L127.57 100.09V100.11ZM133.11 94.5001C133.11 95.8201 133.46 95.9901 135.6 95.9901H141.97C143.77 95.9901 144.08 95.4401 144.32 92.0101C145.19 92.6001 146.92 93.2601 148.06 93.4601C147.54 98.4101 146.33 99.6901 142.31 99.6901H135.21C130.29 99.6901 128.98 98.5101 128.98 94.5301V85.0801L134.03 85.36C134 85.67 133.72 85.91 133.1 85.98V89.6801C136.67 88.8101 140.3 87.6701 142.66 86.5601L145.88 89.7101C145.74 89.8501 145.46 89.85 145.01 89.85C141.96 91.1 137.32 92.2401 133.1 93.0701V94.4901L133.11 94.5001ZM129.54 117.77V101.74H145.88V117.56H141.76V116.38H133.45V117.76H129.54V117.77ZM141.76 105.24H133.45V107.39H141.76V105.24ZM133.45 112.93H141.76V110.68H133.45V112.93Z" fill="white"/>
<path d="M159.32 97.7898C160.29 99.1398 162.89 103.19 163.44 104.16L161.29 107.14C160.87 106.03 160.08 104.41 159.32 102.85V117.74H155.55V104.58C154.65 107.32 153.58 109.77 152.36 111.54C151.98 110.4 151.11 108.81 150.53 107.87C152.5 105.14 154.34 100.32 155.24 96.1698H151.33V92.3298H155.55V85.0898L160.22 85.3698C160.19 85.6798 159.94 85.8898 159.32 85.9898V92.3298H162.78V96.1698H159.32V97.7998V97.7898ZM170.02 111.57C169.95 111.78 169.67 111.88 169.29 111.85C168.11 113.51 166.07 115.62 164.13 116.97C163.54 116.17 162.43 115.1 161.57 114.44C163.4 113.26 165.31 111.29 166.42 109.59L170.02 111.56V111.57ZM183.45 109.32H175.07V114.1C175.07 117.39 173.65 117.8 169.25 117.8C169.11 116.76 168.59 115.41 168.14 114.44C168.8 114.47 169.46 114.51 169.97 114.51C171.15 114.51 171.22 114.44 171.22 114.06V109.32H162.91V106H183.44V109.32H183.45ZM168.94 91.4598V89.8298H163.09V86.5398H183.38V89.8298H177.29V91.4598H182.48V100.36H164.1V91.4598H168.95H168.94ZM181.58 104.62H165.17V101.61H181.58V104.62ZM167.49 94.4798V97.3498H169.32V94.4798H167.49ZM174.07 94.4798H172.13V97.3498H174.07V94.4798ZM174.07 91.4698V89.8398H172.17V91.4698H174.07ZM180.61 116.99C179.74 115.54 177.77 113.25 176.14 111.62L179.08 109.68C180.74 111.2 182.78 113.32 183.72 114.8L180.6 116.98L180.61 116.99ZM178.91 97.3598V94.4898H176.87V97.3598H178.91Z" fill="white"/>
<path d="M224.07 97.2L226.11 97.3C226.11 97.61 226.08 98.1 226.08 98.51C225.8 110.63 225.53 114.85 224.66 116.17C223.97 117.14 223.17 117.76 220.26 117.76C219.84 117.76 219.43 117.76 219.01 117.73C218.98 116.97 218.77 115.93 218.42 115.06L217.87 115.3C217.8 115.02 217.73 114.71 217.63 114.4C213.65 114.82 209.63 115.16 207.04 115.37C206.97 115.68 206.73 115.82 206.45 115.85L205.52 112.08C207.22 112.05 209.4 111.98 211.79 111.87V109.65H206.91V104.39L206.56 104.7C206.08 104.01 205.04 102.76 204.27 102.03C204.3 102.69 204.3 103.38 204.3 104.07C204.3 110.13 204.06 116.67 200.32 117.43C199.07 117.74 197.69 117.78 196.23 117.71C196.23 116.39 195.92 114.91 195.23 113.73C196.03 113.8 196.72 113.8 197.27 113.8C198.48 113.8 199 113.77 199.45 113.18C200.11 112.31 200.39 108.89 200.42 105.01C199.17 106.64 197.82 108.13 196.54 109.23C195.92 108.23 194.77 106.88 193.84 106.11C196.12 104.59 198.65 101.75 200.18 99.05C200.04 97.87 199.8 96.73 199.49 95.62C198.59 96.52 197.66 97.39 196.72 98.15C196.06 97.32 194.78 96.11 193.92 95.45C195.27 94.45 196.62 93.13 197.87 91.71C197 90.26 195.86 88.8 194.37 87.42L197.24 85.24C198.45 86.35 199.46 87.46 200.29 88.56C200.98 87.52 201.61 86.45 202.12 85.41L206.21 87.38V86.34H225.7V95.1H212.54L213.54 95.41C213.44 95.72 213.12 95.83 212.64 95.79C212.43 96.27 212.22 96.72 211.98 97.21H223.27L224.07 97.18V97.2ZM206.2 95.12V87.54C206.03 87.75 205.75 87.82 205.4 87.78C204.6 89.23 203.57 90.79 202.39 92.28C203.71 95.26 204.12 98.34 204.26 101.59C205.99 100.07 207.62 97.61 208.69 95.12H206.2ZM211.77 100.62H210C209.55 101.31 209.03 102 208.51 102.63H211.76V100.62H211.77ZM209.69 89.4V92.03H211.7V89.4H209.69ZM209.86 107.2H211.76V105.05H209.86V107.2ZM214.78 89.4V92.03H216.86V89.4H214.78ZM219.94 114.36C220.74 114.36 220.94 114.36 221.32 113.81C221.84 113.05 222.12 109.79 222.29 100.62H215.71C215.64 100.86 215.4 101.04 214.91 101.1V102.62H220.07V109.65H218.79C219.59 111.07 220.31 112.8 220.62 114.05L219.93 114.36H219.94ZM214.92 105.05V107.2H216.93V105.05H214.92ZM214.92 111.7L216.55 111.63C216.34 111.18 216.13 110.76 215.93 110.38L217.66 109.65H214.93V111.69L214.92 111.7ZM219.91 89.4V92.03H222.06V89.4H219.91Z" fill="white"/>
<path d="M250.53 97.9298C251.05 99.4898 251.67 100.94 252.4 102.33C254.17 101.15 256.07 99.7298 257.35 98.5198L260.99 101.81C260.85 101.95 260.57 102.02 260.3 102.02C260.2 102.02 260.06 102.02 259.92 101.99C258.57 102.99 256.35 104.38 254.45 105.45C256.53 108.12 259.19 110.19 262.55 111.44C261.62 112.27 260.37 113.9 259.75 115.04C253.24 112.17 249.4 106.35 247.11 98.8398C246.18 99.4998 245.17 100.09 244.1 100.67C248.57 103.82 250.37 107.87 250.37 111.19C250.37 115.17 247.84 117.84 243.86 117.84C243.03 117.84 242.06 117.81 241.09 117.77C241.02 116.66 240.71 115.04 239.98 113.82C241.16 113.96 242.2 113.99 243.03 113.99C243.86 113.99 244.59 113.89 245.11 113.33C245.77 112.88 246.15 111.95 246.15 110.73C246.15 110.31 246.12 109.86 246.01 109.41C242.2 112.32 236.94 115.05 232.44 116.58C231.96 115.58 231.09 114.05 230.26 113.15C235.21 111.9 241.1 109.03 244.52 106.16C244.31 105.85 244.07 105.54 243.79 105.22C240.85 107.16 236.73 109.13 233.47 110.31C233.02 109.37 232.15 107.96 231.39 107.16C234.64 106.36 238.83 104.7 241.53 103.04C241.22 102.8 240.87 102.56 240.53 102.31C238.21 103.28 235.72 104.08 233.33 104.66C232.91 103.86 231.98 102.31 231.39 101.54C235.09 100.78 239.01 99.5298 242.16 97.8998H236.59V94.3698H255.15V97.8998H250.55L250.53 97.9298ZM235.3 92.2898V96.3398H231.25V88.5198H243.71V85.0898L248.94 85.3698C248.91 85.7198 248.66 85.9198 248.01 86.0298V88.5198H260.75V96.3398H256.49V92.2898H235.3Z" fill="white"/>
<path d="M283.43 107.83V113.06C284.68 113.2 286.03 113.27 287.41 113.27C289.28 113.27 295.06 113.27 297.42 113.17C296.8 114.17 296.14 116.15 295.93 117.39H287.21C280.7 117.39 275.92 116.32 272.74 111.3C271.6 114 270.04 116.29 267.96 117.91C267.27 117.15 265.71 115.8 264.77 115.17C268.41 112.57 270.17 107.52 270.79 101.53L275.81 102.26C275.71 102.57 275.43 102.78 274.94 102.81C274.77 104.02 274.56 105.16 274.32 106.31C275.36 109.15 277.02 110.85 279.1 111.85V99.56H271.97V95.61H290.49V99.56H283.43V103.92H293.02V107.83H283.43ZM270.62 92.73V97.54H266.53V88.82H279.03V85.01L284.43 85.32C284.4 85.67 284.12 85.87 283.46 85.98V88.82H296.03V97.54H291.74V92.73H270.62Z" fill="white"/>
<path d="M327.09 108.07L330.66 109.42C330.52 109.66 330.21 109.84 329.76 109.77C328.76 110.91 327.54 111.99 326.16 112.96C326.96 113.58 327.82 113.96 328.72 113.96C329.62 113.96 329.86 113.37 330.04 111.36C330.84 112.05 332.01 112.71 332.98 112.99C332.39 116.94 331.25 117.77 328.48 117.77C326.23 117.74 324.22 116.73 322.56 115.04C320.31 116.11 317.85 117.01 315.36 117.64C314.98 116.84 314.08 115.29 313.49 114.56C315.88 114.04 318.34 113.28 320.48 112.27C319.79 111.06 319.16 109.64 318.68 108.08H311.86V109.46L317.09 109.18V111.95L311.86 112.37V114.14C311.86 117.19 310.82 117.78 304.42 117.78C304.21 116.81 303.73 115.5 303.24 114.59C304 114.62 304.87 114.66 305.59 114.66C307.88 114.66 307.88 114.63 307.88 114.04V112.69C305.91 112.83 304.07 112.97 302.62 113.04C302.55 113.32 302.31 113.49 302.03 113.56L300.85 109.96C302.75 109.89 305.21 109.79 307.88 109.65V108.09H300.96V105.04H307.88V103.69C306.05 103.86 304.18 103.97 302.41 104.04C302.31 103.31 301.93 102.24 301.58 101.55C305.6 101.31 310.13 100.82 313.21 100.2H300.61V97.05H314.39V95.7701H304.45V92.9001H314.39V91.6201H302.62V88.54H308.89C308.51 87.78 307.99 86.9801 307.47 86.3201L311.11 85.1401C312.01 86.0701 312.88 87.4301 313.26 88.3901L312.88 88.5301H320.39L320.08 88.4301C320.7 87.4301 321.46 86.04 321.85 85.04L326.73 86.3901C326.63 86.6701 326.31 86.7701 325.83 86.7701C325.48 87.2901 324.96 87.95 324.48 88.54H330.64V91.6201H318.7V92.9001H328.84V95.7701H318.7V97.05H332.79V100.2H314.54L316.89 102.49C316.75 102.59 316.68 102.59 316.09 102.59C314.91 102.83 313.46 103.07 311.87 103.28V105.05H317.89C317.61 103.6 317.44 102.07 317.34 100.51L322.39 100.68C322.39 101.03 322.11 101.27 321.46 101.34C321.49 102.59 321.67 103.87 321.94 105.04H327.38C326.17 104.14 324.47 103.17 323.05 102.55L325.37 100.23C327.24 100.99 329.59 102.27 330.81 103.31L329.11 105.04H332.4V108.09H327.1L327.09 108.07ZM322.87 108.07C323.18 108.9 323.56 109.66 323.98 110.32C324.98 109.63 325.81 108.9 326.51 108.07H322.87Z" fill="white"/>
<path d="M370.35 101.35H362.18V105.37H371.94V109.01H362.18V113.2H375.09V116.9H345.35V113.2H357.81V109.01H348.15V105.37H357.81V101.35H349.92V98.5799C348.67 99.4499 347.36 100.28 346.04 101C345.49 100.03 344.34 98.5099 343.44 97.6799C349.43 94.6299 355.18 89.1999 357.74 84.8699L363.28 85.1799C363.18 85.5599 362.86 85.7999 362.38 85.8699C365.74 90.4099 371.66 94.9099 376.89 97.1599C375.82 98.1999 374.88 99.6499 374.12 100.9C372.87 100.21 371.59 99.4099 370.35 98.5799V101.35ZM369.1 97.6799C365.43 95.0099 362 91.8599 359.96 89.0199C358.02 91.8199 354.84 94.9399 351.17 97.6799H369.1Z" fill="white"/>
<path d="M389.64 106.17V106.69C390.75 107.35 393.93 109.67 394.73 110.29L392.38 113.27C391.76 112.58 390.72 111.54 389.65 110.53V117.77H385.63V111.12C384.31 112.92 382.86 114.55 381.41 115.66C380.79 114.76 379.58 113.41 378.71 112.72C381 111.27 383.38 108.7 384.98 106.18H379.61V102.68H385.63V100.15H379.19V96.7198H382.62C382.41 95.4698 382 93.9499 381.44 92.7399L383.69 92.0799H379.88V88.6899H385.63V85.1199L390.55 85.3599C390.52 85.7099 390.27 85.9099 389.65 86.0199V88.6899H395.29V92.0799H391.83L394.63 92.8099C394.53 93.0499 394.25 93.1899 393.76 93.2299C393.38 94.2699 392.76 95.5799 392.13 96.7299H396.01V100.16H390.4C390.26 100.3 390.02 100.44 389.64 100.47V102.69H395.49V106.19H389.64V106.17ZM388.6 96.6799C389.12 95.3999 389.74 93.5299 390.12 92.0799H384.75C385.41 93.5699 385.93 95.3699 386.1 96.6499L385.89 96.7198H388.69L388.59 96.6899L388.6 96.6799ZM411.76 96.6499V100.49H408.4V117.77H404.35V100.49H400.89C400.89 105.61 400.13 113.06 395.45 117.84C394.93 116.94 393.48 115.52 392.51 115C396.56 110.78 396.94 104.92 396.94 100.25V88.3099L399.09 88.9299C402.28 87.8899 405.56 86.5099 407.54 85.1599L411.45 88.1399C411.24 88.3499 410.9 88.3499 410.48 88.3499C408.06 89.6299 404.42 90.9499 400.89 91.9499V96.6599H411.76V96.6499Z" fill="white"/>
<path d="M442.79 107.76L445.8 109.91C445.7 110.08 445.45 110.15 445.18 110.15C445.08 110.15 444.94 110.15 444.83 110.12C443.86 110.71 442.37 111.57 440.99 112.27C442.69 113.24 444.73 113.97 447.05 114.38C446.18 115.18 445.11 116.73 444.59 117.81C440.68 116.81 437.7 115.08 435.41 112.62L435.55 115.08C431.29 115.88 426.89 116.64 424.02 117.09C423.99 117.44 423.71 117.61 423.47 117.68L421.95 113.49C422.99 113.39 424.17 113.25 425.48 113.07V107.77H421.67V104.86H421.64C421.16 109.46 420.12 114.31 417.83 117.88C417 117.22 415.16 116.11 414.13 115.73C417.59 110.36 417.87 102.5 417.87 96.9299V86.6099H444.7V96.0299H440.89C440.75 96.2399 440.51 96.3399 440.06 96.4099V98.3099H444.94V101.81H440.06V104.27H446.6V107.77H442.79V107.76ZM422.05 96.0199C422.05 98.1999 422.05 100.87 421.74 104.26H427.18V101.8H422.78V98.2999H427.18V96.0099H422.06L422.05 96.0199ZM440.5 90.0999H422.05V92.4899H440.5V90.0999ZM429.28 107.76V112.61C431.08 112.37 432.92 112.13 434.78 111.85C433.78 110.64 432.95 109.29 432.25 107.76H429.27H429.28ZM436.2 98.3099V96.0199H431.8C431.66 96.1899 431.42 96.3299 430.97 96.3999V98.2999H436.2V98.3099ZM436.2 104.27V101.81H430.97V104.27H436.2ZM436.23 107.77C436.78 108.64 437.41 109.47 438.17 110.19C439.42 109.43 440.77 108.53 441.77 107.77H436.23Z" fill="white"/>
<path d="M464.88 98.7899H455.46V117.76H451.41V86.4299H464.88V98.7899ZM460.97 89.4099H455.47V91.1799H460.97V89.4099ZM455.47 95.8199H460.97V93.8799H455.47V95.8199ZM475.07 109.91H471.19V117.15H467.55V109.91H464.12C463.7 112.13 462.49 115.48 459.69 117.39C459.14 116.66 457.86 115.52 457.06 114.97C459.17 113.59 460.18 111.58 460.56 109.92H457.1V106.53H460.77V103.9H457.62V100.61H474.48V103.9H471.19V106.53H475.07V109.92V109.91ZM464.3 106.52H467.55V103.89H464.3V106.52ZM480.88 86.4399V112.93C480.88 116.91 479.39 117.67 473.51 117.67C473.37 116.53 472.82 114.62 472.26 113.55C473.16 113.58 474.13 113.62 474.89 113.62C476.62 113.62 476.79 113.62 476.79 112.89V98.8699H467.17V86.4399H480.88ZM476.79 89.4199H471.11V91.1899H476.79V89.4199ZM471.11 95.89H476.79V93.8799H471.11V95.89Z" fill="white"/>
<path d="M102.79 55.9001V61.7401H82.0299V73.17H75.6699V61.7401H55.5199V55.9001H75.6699V51.23H60.6499V27.5901H97.4099V51.23H83.3599C83.2599 51.64 82.8499 51.8501 82.0299 52.0001V55.9001H102.79ZM66.6999 32.98V36.8801H91.0499V32.98H66.6999ZM66.6999 41.9001V45.8H91.0499V41.9001H66.6999Z" fill="#FFFF00"/>
<path d="M117.66 61.6901C116.53 65.7901 114.84 70.2001 111.97 73.0701L107.05 69.9901C109.66 67.5301 111.51 63.6301 112.48 59.8901L117.66 61.6801V61.6901ZM154.88 52.2601H120.48V54.5701H149.14L150.42 54.42L153.7 54.9301C153.7 55.3901 153.6 55.9601 153.49 56.5201C152.82 65.9501 152.11 69.8501 150.77 71.3901C149.59 72.6201 148.36 73.2401 144.1 73.2401C143.23 73.2401 142.25 73.2401 141.28 73.1901C141.23 71.7001 140.61 69.6001 139.84 68.2701C141.74 68.4801 143.43 68.48 144.2 68.48C144.97 68.48 145.38 68.38 145.84 67.97C146.51 67.2 147.12 64.7401 147.53 58.9501H114.36V28.7001H126.31C126.82 27.2601 127.28 25.78 127.54 24.55L135.33 25.7801C135.18 26.1901 134.82 26.4001 134.05 26.4501L132.87 28.7101H147.64V45.7801H120.47V48.04H154.87V52.3L154.88 52.2601ZM120.73 71.54C120.88 69.03 120.47 65.0301 119.76 61.9501L124.78 61.1801C125.65 64.2001 126.11 68.2 126.11 70.72L120.73 71.54ZM141.6 32.9301H120.48V35.2401H141.6V32.9301ZM120.48 41.4901H141.6V39.0301H120.48V41.4901ZM130.38 70.5601C130.17 68.2501 129.2 64.6101 128.12 61.8401L132.79 60.7101C133.97 63.4301 135.1 66.96 135.4 69.17L130.38 70.55V70.5601ZM139.25 67.79C138.74 65.94 137.4 63.07 136.12 60.92L140.48 59.3801C141.81 61.4301 143.25 64.25 143.86 66.05L139.25 67.79Z" fill="#FFFF00"/>
<path d="M205.8 35.5499V62.9299H182.78V35.5499H190.06L190.68 32.0599H180.89V29.96H180.79C179 32.88 176.28 36.4699 173.56 39.2399C174.79 40.1099 175.87 40.93 176.69 41.7L175.36 43.4899H179.46L182.48 43.7C181.45 48.31 180.22 52.8799 178.53 57.2899C174.33 55.6999 174.22 55.65 174.12 55.65C174.68 53.86 175.35 51.3899 175.97 48.9299H172.95V66.6699C172.95 71.4399 171.57 73.2799 162.59 73.1299C162.33 71.4399 161.56 68.9299 160.74 67.2899C162.94 67.3399 165.35 67.34 166.07 67.34C166.79 67.29 166.99 67.1299 166.99 66.5699V48.9299H159.3V43.4999H170.12C167.51 41.5499 164.17 39.5499 161.3 38.1699L164.38 34.1199C165.87 34.7899 167.51 35.66 169.15 36.53C170.28 35.3 171.46 33.81 172.48 32.33H160.38V26.9999H176.63L177.55 26.6899L180.88 28.6899V26.9H207.59V32.08H197.13C196.82 33.16 196.46 34.3399 196.05 35.5699H205.79L205.8 35.5499ZM193.09 66.21C192.88 66.42 192.58 66.5199 192.17 66.5699C189.86 68.8799 185.09 71.8 181.04 73.34C180.07 72.21 178.27 70.37 176.99 69.34C180.94 67.9 185.5 65.1399 187.76 62.9299L193.09 66.21ZM199.91 43.34V40.0599H188.37V43.34H199.91ZM199.91 50.83V47.5499H188.37V50.83H199.91ZM199.91 58.4199V55.09H188.37V58.4199H199.91ZM203.76 73.2899C201.97 71.3899 198.12 68.3699 195.2 66.3199L199.76 63.1899C202.63 65.0899 206.53 67.9099 208.58 69.8599L203.76 73.2999V73.2899Z" fill="#FFFF00"/>
<path d="M255.53 34.0601L258.81 34.2701C258.81 34.7801 258.76 35.6001 258.71 36.2701C258.09 59.4401 257.48 67.49 255.48 70.11C253.84 72.42 251.99 73.1301 246.66 73.1301C245.28 73.1301 243.84 73.0801 242.4 73.0301C242.3 71.3901 241.53 68.8801 240.45 67.2401C243.68 67.5001 246.6 67.5001 247.94 67.5001C248.97 67.5001 249.53 67.3501 250.14 66.6301C251.63 65.0901 252.19 57.61 252.7 39.92H239.83C238.6 42.64 237.22 45.1 235.78 47.1C234.7 46.18 232.65 44.74 231.11 43.92C232.9 46.69 234.55 49.71 235.26 51.97C233.52 52.89 232.03 53.7101 230.54 54.5301C230.33 53.7601 229.98 52.84 229.57 51.86L225.72 52.1201V73.1901H220.08V56.8401C219.93 57.1501 219.52 57.2501 219.05 57.2001C218.43 61.4601 217.26 66.3801 215.72 69.5001C214.59 68.7301 212.49 67.7601 211.16 67.2401C212.6 64.4201 213.52 59.5501 214.03 55.1401L220.08 56.6301V52.48C217.57 52.63 215.36 52.7401 213.52 52.8401C213.37 53.3001 212.96 53.5101 212.55 53.5601L211.37 47.41H215.11C215.98 46.33 216.9 45.21 217.83 43.97C216.24 41.87 213.73 39.3601 211.58 37.5101L214.4 33.3101L215.53 34.23C217.32 31.31 219.12 27.72 220.14 24.85L226.29 27.36C226.08 27.77 225.57 27.98 224.91 27.92C223.47 30.79 221.06 34.5901 219.07 37.4001C219.84 38.1701 220.51 38.89 221.07 39.55C223.17 36.53 225.07 33.4501 226.5 30.7801L232.5 33.55C232.24 33.91 231.73 34.0601 231.01 34.0601C228.45 38.0601 224.55 43.19 220.91 47.29L227.32 47.1901C226.55 45.9101 225.78 44.6301 225.01 43.4501C226.65 42.5801 228.03 41.9101 229.37 41.2501C229.88 41.9701 230.34 42.6901 230.86 43.4501C234.09 39.1401 236.76 31.81 238.24 24.79L245.52 26.6401C245.37 27.1001 244.9 27.3601 244.14 27.3101C243.58 29.5701 242.91 31.8701 242.09 34.1301H254.19L255.52 34.0801L255.53 34.0601ZM229.59 67.1301C229.03 64.3601 227.54 60 226.15 56.72L230.97 55.1301C232.41 58.3601 233.99 62.46 234.66 65.23L229.58 67.1301H229.59ZM240.87 45.9601C243.54 49.5501 246.51 54.32 247.59 57.6L242.21 60.3701C241.29 57.1901 238.52 52.17 235.9 48.48L240.87 45.97V45.9601Z" fill="#FFFF00"/>
<path d="M285.42 61.74C287.47 61.33 289.57 60.87 291.73 60.41C290.7 58.77 289.58 57.18 288.45 55.74L293.27 53.23C296.6 57.28 300.24 62.77 301.68 66.56L296.45 69.43C296.04 68.2 295.37 66.82 294.6 65.33C288.91 66.97 283.22 68.51 279.37 69.53C279.27 70.04 278.91 70.4 278.55 70.5L276.14 63.53C277.17 63.38 278.29 63.12 279.58 62.91V27.38H298.86V52.76H285.43V61.73L285.42 61.74ZM293.16 33.08H285.42V37.28H293.16V33.08ZM285.42 47.08H293.16V42.77H285.42V47.08ZM322.59 27.29V58.56C322.59 64.51 320.23 65.84 312.54 65.84C312.33 63.99 311.36 60.92 310.44 59.17C311.67 59.27 312.9 59.27 313.88 59.27C315.98 59.27 316.19 59.27 316.19 58.4V33.48H308.86V73.16H302.55V27.27H322.6L322.59 27.29Z" fill="#FFFF00"/>
<path d="M351.21 72.41C349.77 70.46 346.9 67.6401 344.19 65.1801C340.6 68.3101 336.55 71.02 332.3 73.23C331.43 71.69 329.74 69.6401 328.25 68.3101C336.76 64.6201 344.96 58 349.42 50.16L355.78 52.6201C355.57 52.9801 355.11 53.2401 354.4 53.2401C352.76 56.0101 350.76 58.6201 348.5 61.0801C351.27 63.3901 354.4 66.16 356.09 68.16L351.22 72.42L351.21 72.41ZM345.78 36.9301C345.52 37.3401 345.01 37.4401 344.29 37.4401C342.75 39.7501 340.34 42.6701 338.24 45.0301C339.27 45.8001 340.24 46.57 341.06 47.29C343.32 44.93 345.26 42.3201 346.7 39.6501L353.06 41.91C352.85 42.32 352.44 42.5801 351.73 42.5801C347.53 49.8101 340.4 56.6301 332.66 61.1901C331.79 59.8101 330.2 57.9101 328.71 56.6801C331.53 55.2401 334.3 53.4 336.86 51.3C334.55 49.2 331.37 46.7901 328.81 44.9401L332.25 40.8901C332.81 41.2501 333.43 41.6601 333.99 42.0701C335.37 40.3301 336.76 38.3301 337.94 36.4301H328.92V30.9401H339.58V24.79L346.96 25.2001C346.91 25.7101 346.55 26.02 345.58 26.17V30.9401H355.58V36.4301H344.71L345.79 36.9401L345.78 36.9301ZM364.85 31.4401C364.8 31.9501 364.44 32.21 363.52 32.36V60.3H357.73V31.0301L364.86 31.4401H364.85ZM368.59 25.9001L375.92 26.2101C375.87 26.7201 375.51 27.0801 374.59 27.1801V65.8901C374.59 71.8901 372.33 73.17 362.7 73.17C362.44 71.43 361.57 68.66 360.75 66.92C363.62 67.02 366.44 67.0201 367.42 67.0201C368.29 66.9701 368.6 66.7101 368.6 65.8401V25.9001H368.59Z" fill="#FFFF00"/>
<path d="M403.2 45.08H389.25V73.18H383.25V26.78H403.19V45.08H403.2ZM397.41 31.19H389.26V33.8H397.41V31.19ZM389.26 40.67H397.41V37.8H389.26V40.67ZM418.28 61.54H412.54V72.26H407.16V61.54H402.08C401.46 64.82 399.67 69.79 395.52 72.61C394.7 71.53 392.8 69.84 391.62 69.02C394.75 66.97 396.23 64 396.8 61.53H391.67V56.51H397.1V52.61H392.43V47.74H417.4V52.61H412.53V56.51H418.27V61.53L418.28 61.54ZM402.34 56.52H407.16V52.62H402.34V56.52ZM426.9 26.78V66C426.9 71.9 424.7 73.02 415.98 73.02C415.77 71.33 414.95 68.51 414.13 66.92C415.46 66.97 416.9 67.02 418.03 67.02C420.59 67.02 420.85 67.02 420.85 65.94V45.18H406.6V26.77H426.9V26.78ZM420.85 31.19H412.44V33.8H420.85V31.19ZM412.44 40.78H420.85V37.81H412.44V40.78Z" fill="#FFFF00"/>
<path d="M476.93 32.11L479.95 32.2101C479.59 35.7501 480 57.38 477.85 60.66C477.49 61.17 477.13 61.5801 476.77 61.8901C478.05 62.7101 480.1 63.4301 481.54 63.7401C480.77 70.3501 479.08 72.35 473.8 72.35H464.16C457.8 72.35 455.96 70.66 455.96 64.35V45.6401C455.55 46.1501 455.14 46.6701 454.73 47.1301C453.96 46.2601 452.63 44.8701 451.45 43.9001H447.14V49.3301H452.73V54.66H447.14V61.6301L453.29 60.0901L454.01 65.11C447.34 67.16 440.27 69.2101 435.76 70.4901C435.66 71.0001 435.3 71.31 434.94 71.41L432.58 65.16L434.73 64.6501V47.5801L440.88 47.9401C440.83 48.4001 440.52 48.6101 439.65 48.7601V63.5301L441.75 62.97V43.9001H434.88V26.7801H452.16V41.1401C455.34 36.8801 458.06 30.78 459.7 24.79L466.47 26.7401C466.32 27.1501 465.85 27.41 465.14 27.36C464.63 28.95 464.06 30.5401 463.45 32.1301H476.93V32.11ZM440.12 32.0101V38.73H446.63V32.0101H440.12ZM461.65 64.3101C461.65 66.6201 462.06 66.98 464.83 66.98H473.29C475.49 66.98 475.96 66.2101 476.26 62.2601C474.82 63.1301 473.54 63.1301 469.29 63.1301C469.19 61.4901 468.67 59.1801 467.85 57.7001C469.34 57.8501 470.67 57.85 471.44 57.85C472.06 57.85 472.52 57.7501 472.88 57.0801C473.65 55.9001 474.01 51.0801 474.26 37.6501H460.93C460.37 38.8301 459.7 40.0101 459.08 41.0901H471.13V57.29H461.65V64.3101ZM461.65 46.16V52.2601H465.96V46.16H461.65Z" fill="#FFFF00"/>
<path d="M508.73 0.810059H24.01C11.3019 0.810059 1 11.112 1 23.8201V120.98C1 133.688 11.3019 143.99 24.01 143.99H508.73C521.438 143.99 531.74 133.688 531.74 120.98V23.8201C531.74 11.112 521.438 0.810059 508.73 0.810059Z" stroke="white" stroke-width="0.6" stroke-miterlimit="10"/>
</svg>
