<svg width="322" height="131" viewBox="0 0 322 131" fill="none" xmlns="http://www.w3.org/2000/svg">
<path d="M37.29 109.8C35.1 105.915 29.775 102.945 29.775 102.945C29.775 102.945 30.57 107.43 30.87 110.235C30.975 111.15 31.29 112.11 31.74 113.04C30.99 112.41 30.195 111.81 29.37 111.285C28.125 109.86 26.94 108.39 25.815 106.875C26.67 104.805 28.215 100.38 27.405 97.02C26.37 92.685 22.065 88.32 22.065 88.32C22.065 88.32 21.585 92.835 21.105 95.595C20.94 96.495 20.985 97.5 21.165 98.52C20.595 97.665 19.98 96.855 19.305 96.105C18.51 94.425 17.775 92.715 17.13 90.975C18.525 89.265 21.285 85.455 21.435 81.99C21.63 77.565 18.69 72.165 18.69 72.165C18.69 72.165 16.98 76.335 15.75 78.825C15.345 79.65 15.105 80.61 15 81.645C14.73 80.805 14.415 79.98 14.04 79.185C13.71 77.16 13.455 75.18 13.26 73.245C15.105 71.985 18.735 69.18 19.83 65.955C21.255 61.785 19.92 55.785 19.92 55.785C19.92 55.785 17.115 59.28 15.24 61.305C14.625 61.965 14.13 62.82 13.74 63.78C13.71 62.595 13.59 61.395 13.335 60.24C13.29 60.03 13.245 59.835 13.185 59.625C13.32 58.23 13.5 56.85 13.71 55.485C15.36 55.005 20.205 53.4 22.29 50.46C24.705 47.055 25.05 41.25 25.05 41.25C25.05 41.25 21.555 43.665 19.29 44.985C18.555 45.42 17.865 46.065 17.25 46.83C17.535 45.735 17.745 44.625 17.82 43.5C17.865 42.915 17.85 42.315 17.79 41.7C18.135 40.935 18.495 40.17 18.885 39.42C18.945 39.36 19.02 39.3 19.11 39.225C20.34 39.255 25.575 39.24 28.365 37.05C31.395 34.68 33.21 29.625 33.21 29.625C33.21 29.625 29.46 30.825 27.09 31.41C26.31 31.605 25.545 31.995 24.795 32.505C25.335 31.62 25.8 30.675 26.16 29.715C26.385 29.115 26.535 28.47 26.655 27.795C27.39 26.925 28.17 26.07 28.965 25.215C30.3 25.62 34.38 26.715 37.11 25.65C40.26 24.42 43.02 20.64 43.02 20.64C43.02 20.64 39.555 20.7 37.41 20.595C36.705 20.565 35.955 20.685 35.205 20.925C35.88 20.31 36.495 19.65 37.035 18.93C40.185 14.73 39.81 5.89499 39.81 5.89499C39.81 5.89499 32.46 10.8 30.87 16.53C30.18 19.005 29.055 22.8 28.545 24.48C27.96 25.08 27.39 25.68 26.835 26.31C27.195 20.895 25.05 14.475 25.05 14.475C25.05 14.475 18.615 22.245 18.69 29.085C18.72 31.815 18.69 35.94 18.69 38.13C18.315 38.835 17.955 39.555 17.61 40.29C16.515 34.395 12.135 28.02 12.135 28.02C12.135 28.02 7.845 38.085 9.96 45.165C10.86 48.18 12.18 52.86 12.78 54.99C12.615 55.8 12.48 56.595 12.345 57.42C9.615 51.645 3.105 46.275 3.105 46.275C3.105 46.275 1.725 57.765 5.925 64.305C7.8 67.245 10.68 71.895 11.79 73.71C11.865 74.505 11.94 75.3 12.045 76.08C7.86 71.205 0 67.815 0 67.815C0 67.815 1.875 79.29 7.695 84.405C10.26 86.67 14.22 90.255 15.84 91.725C16.11 92.475 16.41 93.21 16.695 93.945C11.355 90.495 3.015 89.49 3.015 89.49C3.015 89.49 7.995 100.02 14.955 103.29C17.805 104.625 22.095 106.725 24.27 107.79C24.75 108.465 25.23 109.125 25.74 109.785C19.725 108.18 11.91 109.53 11.91 109.53C11.91 109.53 19.59 118.26 27.135 119.415C29.925 119.835 34.035 120.54 36.54 120.96C40.29 124.035 44.355 126.645 48.63 128.76C50.16 128.7 51.675 128.67 53.205 128.655C47.985 126.465 43.035 123.495 38.505 119.94C38.745 117.765 39.045 112.92 37.305 109.845L37.29 109.8Z" fill="white"/>
<path d="M284.474 109.8C286.664 105.915 291.989 102.945 291.989 102.945C291.989 102.945 291.194 107.43 290.894 110.235C290.789 111.15 290.474 112.11 290.024 113.04C290.774 112.41 291.569 111.81 292.394 111.285C293.639 109.86 294.824 108.39 295.949 106.875C295.094 104.805 293.549 100.38 294.359 97.0203C295.394 92.6853 299.699 88.3203 299.699 88.3203C299.699 88.3203 300.179 92.8353 300.659 95.5953C300.824 96.4953 300.779 97.5003 300.599 98.5203C301.169 97.6653 301.784 96.8553 302.459 96.1053C303.254 94.4253 303.989 92.7153 304.634 90.9753C303.239 89.2653 300.479 85.4553 300.329 81.9903C300.134 77.5653 303.074 72.1653 303.074 72.1653C303.074 72.1653 304.784 76.3353 306.014 78.8253C306.419 79.6503 306.659 80.6103 306.764 81.6453C307.034 80.8053 307.349 79.9803 307.724 79.1853C308.054 77.1603 308.309 75.1803 308.504 73.2453C306.659 71.9853 303.029 69.1803 301.934 65.9553C300.509 61.7853 301.844 55.7853 301.844 55.7853C301.844 55.7853 304.649 59.2803 306.524 61.3053C307.139 61.9653 307.634 62.8203 308.024 63.7803C308.054 62.5953 308.174 61.3953 308.429 60.2403C308.474 60.0303 308.519 59.8353 308.579 59.6253C308.444 58.2303 308.264 56.8503 308.054 55.4853C306.404 55.0053 301.559 53.4003 299.474 50.4603C297.059 47.0553 296.714 41.2503 296.714 41.2503C296.714 41.2503 300.209 43.6653 302.474 44.9853C303.209 45.4203 303.899 46.0653 304.514 46.8303C304.229 45.7353 304.019 44.6253 303.944 43.5003C303.899 42.9153 303.914 42.3153 303.974 41.7003C303.629 40.9353 303.269 40.1703 302.879 39.4203C302.819 39.3603 302.744 39.3003 302.654 39.2253C301.424 39.2553 296.189 39.2403 293.399 37.0503C290.369 34.6803 288.554 29.6253 288.554 29.6253C288.554 29.6253 292.304 30.8253 294.674 31.4103C295.454 31.6053 296.219 31.9953 296.969 32.5053C296.429 31.6203 295.964 30.6753 295.604 29.7153C295.379 29.1153 295.229 28.4703 295.109 27.7953C294.374 26.9253 293.594 26.0703 292.799 25.2153C291.464 25.6203 287.384 26.7153 284.654 25.6503C281.504 24.4203 278.744 20.6403 278.744 20.6403C278.744 20.6403 282.209 20.7003 284.354 20.5953C285.059 20.5653 285.809 20.6853 286.559 20.9253C285.884 20.3103 285.269 19.6503 284.729 18.9303C281.579 14.7303 281.954 5.89526 281.954 5.89526C281.954 5.89526 289.304 10.8003 290.894 16.5303C291.584 19.0053 292.709 22.8003 293.219 24.4803C293.804 25.0803 294.374 25.6803 294.929 26.3103C294.569 20.8953 296.714 14.4753 296.714 14.4753C296.714 14.4753 303.149 22.2453 303.074 29.0853C303.044 31.8153 303.074 35.9403 303.074 38.1303C303.449 38.8353 303.809 39.5553 304.154 40.2903C305.249 34.3953 309.629 28.0203 309.629 28.0203C309.629 28.0203 313.919 38.0853 311.804 45.1653C310.904 48.1803 309.584 52.8603 308.984 54.9903C309.149 55.8003 309.284 56.5953 309.419 57.4203C312.149 51.6453 318.659 46.2753 318.659 46.2753C318.659 46.2753 320.039 57.7653 315.839 64.3053C313.964 67.2453 311.084 71.8953 309.974 73.7103C309.899 74.5053 309.824 75.3003 309.719 76.0803C313.904 71.2053 321.764 67.8153 321.764 67.8153C321.764 67.8153 319.889 79.2903 314.069 84.4053C311.504 86.6703 307.544 90.2553 305.924 91.7253C305.654 92.4753 305.354 93.2103 305.069 93.9453C310.409 90.4953 318.749 89.4903 318.749 89.4903C318.749 89.4903 313.769 100.02 306.809 103.29C303.959 104.625 299.669 106.725 297.494 107.79C297.014 108.465 296.534 109.125 296.024 109.785C302.039 108.18 309.854 109.53 309.854 109.53C309.854 109.53 302.174 118.26 294.629 119.415C291.839 119.835 287.729 120.54 285.224 120.96C281.474 124.035 277.409 126.645 273.134 128.76C271.604 128.7 270.089 128.67 268.559 128.655C273.779 126.465 278.729 123.495 283.259 119.94C283.019 117.765 282.719 112.92 284.459 109.845L284.474 109.8Z" fill="white"/>
<path d="M155.445 41.22L154.575 52.065C155.415 53.565 155.895 54.675 156.015 55.38C156.135 56.085 155.97 56.67 155.52 57.135C154.845 57.93 154.02 58.215 153.015 58.005C152.01 57.84 151.035 57.42 150.075 56.745C149.16 56.07 148.305 55.26 147.51 54.3C145.8 52.26 144.33 49.71 143.13 46.65C139.5 51.24 135.15 54.855 130.095 57.495L129.345 56.805C134.235 53.34 138.33 48.495 141.63 42.27C139.83 36.09 138.6 27.15 137.94 15.45H126.105V25.29H136.065V27.735C136.02 34.92 135.81 39.99 135.435 42.96C135.105 45.93 134.43 47.895 133.425 48.855C131.97 50.19 130.23 50.865 128.22 50.865C128.22 48.9 127.95 47.655 127.41 47.1C126.87 46.44 125.82 45.93 124.275 45.6V45.105C122.64 50.58 119.805 55.02 115.755 58.455L114.945 57.825C117.405 54.03 118.995 49.8 119.7 45.165C120.45 40.53 120.825 35.055 120.825 28.755V13.215C120.66 13.755 120.12 14.025 119.19 14.025H97.5145L97.0195 12.27H111.99L115.185 8.12999C117.48 10.005 119.355 11.625 120.825 12.96V13.65H137.805C137.55 8.05499 137.385 3.62999 137.31 0.359985L143.07 1.22999C143.115 3.61499 143.16 5.98499 143.19 8.36999C143.235 10.71 143.25 12.465 143.25 13.635H146.565L149.7 9.86999C149.37 9.70499 149.115 9.55499 148.95 9.43499C148.74 8.30999 148.245 7.09499 147.45 5.80499C146.655 4.51499 145.815 3.46499 144.945 2.66999L145.575 2.23499C150.045 2.86499 152.7 4.27499 153.525 6.49499C153.99 7.78499 153.705 8.84999 152.715 9.68999C152.01 10.185 151.215 10.335 150.33 10.125C152.58 11.835 154.38 13.275 155.715 14.445C155.55 15.12 154.98 15.45 154.02 15.45H143.31C143.595 23.01 144.18 29.325 145.065 34.365C146.565 30.015 147.69 25.38 148.44 20.46L153.33 22.785C151.86 30.135 149.67 36.315 146.745 41.325C147.825 44.67 149.13 47.25 150.63 49.095C151.005 49.59 151.305 49.845 151.5 49.845C151.71 49.8 151.935 49.47 152.19 48.84C152.895 47.25 153.75 44.685 154.755 41.13L155.445 41.19V41.22ZM116.655 39.345V53.31C116.61 53.565 116.07 53.895 115.02 54.315C114.015 54.735 113.1 54.945 112.26 54.945H111.39V51.87H104.685V56.13C104.685 56.415 104.19 56.775 103.185 57.195C102.225 57.615 101.22 57.825 100.185 57.825H99.4945V36.78H116.67V39.345H116.655ZM117.345 6.32999H100.11L99.6745 4.51499H117.345V6.32999ZM117.6 20.43V22.185H100.125L99.6895 20.43H117.615H117.6ZM100.125 30.45L99.6895 28.635H117.615V30.45H100.14H100.125ZM104.7 50.055H111.405V38.595H104.7V50.055ZM131.445 27.12H126.06V28.68C126.06 35.235 125.49 40.545 124.365 44.595C125.82 44.715 127.245 44.775 128.625 44.775C129.42 44.775 129.945 44.625 130.185 44.34C130.605 43.845 130.89 42.36 131.055 39.885C131.22 37.38 131.34 33.12 131.43 27.105L131.445 27.12Z" fill="white"/>
<path d="M181.395 0.194993L187.665 2.89499C185.82 8.53499 184.11 13.425 182.52 17.55V56.58C182.475 56.745 182.22 56.955 181.77 57.21C181.305 57.495 180.69 57.75 179.895 57.96C179.145 58.215 178.41 58.335 177.705 58.335H176.58V25.185C174.195 28.485 171.69 31.35 169.065 33.765L168.255 33.195C170.85 29.055 173.325 24 175.71 18.03C178.14 12.06 180.03 6.10499 181.41 0.179993L181.395 0.194993ZM227.82 13.605V15.42H187.905L187.41 13.605H227.82ZM223.935 21.945V23.76H191.925L191.43 21.945H223.95H223.935ZM191.925 32.16L191.43 30.405H223.95V32.16H191.94H191.925ZM215.61 38.67H222.195V56.085C222.15 56.34 221.52 56.67 220.32 57.09C219.15 57.555 218.1 57.78 217.185 57.78H216.18V53.58H197.64V56.28C197.64 56.61 197.07 56.985 195.945 57.405C194.865 57.87 193.755 58.095 192.63 58.095H191.76V38.67H215.625H215.61ZM222.375 6.77999H192.93L192.435 4.96499H222.39V6.77999H222.375ZM197.625 51.765H216.165V40.425H197.625V51.765Z" fill="white"/>
<path d="M101.881 85.9948V93.2848C102.841 94.3048 103.951 94.9648 105.196 95.2648C106.441 95.5648 108.406 95.7148 111.106 95.7148C116.296 95.7148 120.046 95.6848 122.386 95.5948V95.9548C121.291 96.1798 120.691 96.9298 120.571 98.1898H111.136C108.391 98.1898 106.336 97.9048 105.001 97.3198C103.666 96.7348 102.496 95.5648 101.521 93.7798C100.411 95.2498 99.1357 96.7048 97.7107 98.1298C97.7557 98.3998 97.6207 98.6098 97.3357 98.7748L95.7607 95.7448C96.6457 95.3848 97.8457 94.8298 99.3757 94.0798V85.6048H95.9857L95.8207 84.7798H101.896V85.9648L101.881 85.9948ZM96.3157 73.6348L96.5707 73.4398C99.2107 74.0848 100.876 75.1198 101.581 76.5748C102.001 77.4448 101.971 78.1798 101.491 78.7798C101.041 79.3498 100.441 79.4548 99.7057 79.0948C99.5857 79.0348 99.4657 78.9598 99.3457 78.8698C99.1807 78.0148 98.7907 77.1148 98.2207 76.1248C97.6357 75.1498 97.0057 74.3098 96.3307 73.6348H96.3157ZM103.246 76.7698L103.021 75.9448H110.851V72.5248L113.446 72.8848V75.9448H121.786V76.7698H113.446V79.3198H119.716V88.2298C119.701 88.3498 119.416 88.4998 118.891 88.7098C118.366 88.9198 117.901 89.0248 117.511 89.0248H117.061V87.8698H113.446V91.0048H122.206V91.8298H113.446V94.1698C113.446 94.3198 113.206 94.5148 112.741 94.7398C112.276 94.9498 111.796 95.0548 111.331 95.0548H110.851V91.8298H102.856L102.631 91.0048H110.851V87.8698H107.311V88.6348C107.311 88.7848 107.071 88.9648 106.576 89.1748C106.081 89.3848 105.601 89.4898 105.106 89.4898H104.731V79.3348H110.836V76.7848H103.231L103.246 76.7698ZM110.851 80.1298H107.311V83.0698H110.851V80.1298ZM107.311 87.0298H110.851V83.8948H107.311V87.0298ZM117.061 80.1298H113.446V83.0698H117.061V80.1298ZM113.446 87.0298H117.061V83.8948H113.446V87.0298Z" fill="white"/>
<path d="M150.873 79.6798H153.498V85.1398C153.483 85.2298 153.258 85.3648 152.853 85.5298C152.433 85.6798 152.057 85.7698 151.697 85.8148L153.288 86.9998C153.078 87.2398 152.762 87.4048 152.357 87.4798V94.4848C152.342 94.6048 152.057 94.7548 151.532 94.9348C151.007 95.1298 150.542 95.2198 150.152 95.2198H149.703V94.2898H142.127V94.8298C142.127 94.9048 142.023 95.0098 141.812 95.1448C141.602 95.2798 141.318 95.3998 140.958 95.5198C140.613 95.6098 140.283 95.6548 139.938 95.6548H139.562V85.7848C139.278 85.8598 138.993 85.9198 138.708 85.9498C138.783 86.6698 138.573 87.1648 138.078 87.4498C137.613 87.7348 137.103 87.6298 136.578 87.1348C136.518 86.5948 136.398 85.9648 136.188 85.2748L134.627 85.7248V98.0998C134.627 98.0998 134.538 98.2648 134.373 98.3548C134.223 98.4748 133.982 98.5648 133.667 98.6698C133.352 98.7598 133.007 98.8048 132.647 98.8048H132.228V89.8198C132.078 89.9698 131.822 90.0598 131.462 90.1048C130.682 92.9098 129.662 95.0848 128.387 96.5998L127.938 96.3748C128.657 94.3048 129.123 91.7848 129.348 88.7998L132.228 89.3698V86.3998C130.698 86.7898 129.858 87.0148 129.708 87.0448C129.558 87.3598 129.318 87.5698 128.973 87.6448L127.982 84.9598C128.627 84.9598 129.497 84.9298 130.607 84.8698C132.242 81.8998 133.667 78.8998 134.882 75.9148L137.147 77.1898C135.647 79.7848 133.772 82.3498 131.552 84.8548C132.317 84.8248 133.788 84.7348 135.933 84.6298C135.663 83.9548 135.302 83.2048 134.822 82.3948L135.137 82.2748C136.592 82.9348 137.612 83.7298 138.212 84.6748V79.6648H150.842L150.873 79.6798ZM131.927 72.5248L134.387 73.7398C133.187 75.8098 132.078 77.3698 131.058 78.4048C131.958 79.1248 132.303 79.8598 132.078 80.6398C131.928 81.2098 131.582 81.4948 131.027 81.5098C130.712 81.5248 130.383 81.4198 130.038 81.1648C129.888 79.9198 129.197 78.6448 127.967 77.3548L128.252 77.1598C129.107 77.3848 129.813 77.6548 130.368 77.9548C130.938 76.2748 131.447 74.4748 131.927 72.5248ZM135.152 88.7248L135.498 88.6048C137.388 89.7298 138.407 90.9898 138.572 92.3698C138.692 93.2248 138.467 93.8098 137.927 94.1548C137.417 94.4548 136.907 94.3498 136.397 93.8098C136.397 92.3548 135.977 90.6598 135.152 88.7248ZM136.967 98.8498L136.712 98.4598C137.912 98.0248 139.127 97.4248 140.357 96.6748C141.602 95.9398 142.562 95.2348 143.237 94.5598L144.902 96.3898C142.907 97.6198 140.253 98.4298 136.953 98.8498H136.967ZM137.987 75.7198L137.762 74.8948H144.572V72.6898L147.167 73.0048V74.8948H154.427V75.7198H147.167V77.4448H153.498V78.2698H139.397L139.172 77.4448H144.572V75.7198H137.987ZM150.677 85.0498L151.098 85.3648V84.7198H140.583V85.2298C140.583 85.3048 140.463 85.4098 140.223 85.5448L142.262 86.3698H149.447L150.692 85.0648L150.677 85.0498ZM146.583 80.5048H145.172C145.037 81.2398 144.662 81.8398 144.047 82.3198C143.417 82.7848 142.352 83.1748 140.822 83.4748L140.598 83.2198V83.8948H151.112V82.8748C150.692 82.9348 150.092 82.9648 149.282 82.9648H148.172C147.512 82.9648 147.078 82.8748 146.868 82.6798C146.688 82.4698 146.583 82.0948 146.583 81.5548V80.5048ZM143.192 80.5048H140.598V82.9948C141.528 82.6948 142.158 82.3498 142.518 81.9448C142.893 81.5548 143.117 81.0748 143.192 80.5048ZM142.112 88.7098H149.688V87.1798H142.112V88.7098ZM142.112 89.5348V91.0648H149.688V89.5348H142.112ZM142.112 93.4948H149.688V91.8898H142.112V93.4948ZM146.688 95.4748L146.822 95.0548C150.767 95.2798 153.122 95.9548 153.887 97.0648C154.262 97.6048 154.187 98.0848 153.632 98.4748C153.077 98.9098 152.477 98.9698 151.817 98.6698C151.652 98.5948 151.503 98.4898 151.368 98.3548C150.288 97.1548 148.727 96.1948 146.672 95.4748H146.688ZM151.098 80.5198H148.322V81.2848C148.322 81.4198 148.337 81.5098 148.382 81.5698C148.442 81.6148 148.548 81.6298 148.728 81.6298H150.167C150.362 81.6298 150.467 81.6298 150.512 81.5998C150.632 81.5998 150.782 81.5848 150.962 81.5398L151.098 80.5198Z" fill="white"/>
<path d="M169.096 94.9497L173.311 95.5197V96.4197H161.611V95.5197L165.961 94.9497C166.006 92.6847 166.021 90.9897 166.021 89.8647V77.6247L162.061 77.9847V76.9047L168.736 75.2697L169.126 75.5847L169.036 80.0847V89.8647C169.036 90.9597 169.051 92.6547 169.096 94.9497Z" fill="white"/>
<path d="M183.887 78.2398L183.512 84.0598C184.532 83.7448 185.642 83.5798 186.842 83.5798C188.987 83.5798 190.697 84.1498 191.942 85.2898C193.187 86.4298 193.817 88.0348 193.817 90.0748C193.817 92.1148 193.127 93.7648 191.747 94.9948C190.367 96.2248 188.567 96.8398 186.317 96.8398C184.637 96.8398 183.287 96.4498 182.252 95.6848C181.232 94.9048 180.587 93.8098 180.347 92.3698C180.587 91.6798 181.097 91.3198 181.877 91.3198C182.342 91.3198 182.717 91.4698 182.972 91.7698C183.242 92.0698 183.452 92.5948 183.617 93.3298L184.097 95.4448C184.682 95.6098 185.297 95.6998 185.957 95.6998C187.427 95.6998 188.567 95.2198 189.392 94.2598C190.217 93.2998 190.622 91.9648 190.622 90.2698C190.622 88.5748 190.187 87.3898 189.332 86.4748C188.477 85.5748 187.322 85.1248 185.867 85.1248C184.862 85.1248 183.872 85.2898 182.867 85.6048L182.042 85.2898L182.687 75.5698H193.142V78.2248H183.812L183.887 78.2398Z" fill="white"/>
<path d="M226.337 90.6898V91.5148H216.212V98.0098C216.212 98.0848 216.122 98.1748 215.927 98.2948C215.762 98.4298 215.477 98.5348 215.087 98.6398C214.697 98.7598 214.262 98.8048 213.812 98.8048H213.302V91.5148H200.327L200.072 90.6898H204.962V83.1448H213.302V77.7448H207.542C205.457 80.5648 203.042 82.8148 200.312 84.4648L199.967 84.1798C201.302 82.7848 202.607 81.0148 203.897 78.8698C205.172 76.7098 206.207 74.4598 207.002 72.1348L209.777 73.6648C209.327 74.8498 208.772 75.9298 208.112 76.9198H225.467V77.7448H216.227V83.1448H224.567V83.9698H216.227V90.6898H226.352H226.337ZM207.797 90.6898H213.302V83.9698H207.797V90.6898Z" fill="white"/>
<path d="M92.2068 121.26H82.3368C83.5818 122.64 85.2318 123.855 87.2868 124.905C89.3568 125.94 91.4868 126.675 93.6768 127.11L93.6168 127.425C92.5068 127.695 91.7718 128.49 91.4418 129.825C87.0918 128.205 83.8368 125.4 81.6918 121.425V129.57C81.6918 129.72 81.4518 129.885 80.9568 130.05C80.4918 130.215 80.0118 130.305 79.5168 130.305H79.0068V123.18C76.2618 125.955 72.5268 128.115 67.8168 129.66L67.5918 129.27C69.4968 128.31 71.2518 127.125 72.8718 125.715C74.5068 124.305 75.8718 122.82 76.9368 121.275H69.4968L69.2718 120.45H78.9918V116.55L81.6768 116.895V120.45H92.1918V121.275L92.2068 121.26ZM88.6218 115.8H72.1668C72.0468 117.465 71.4468 118.62 70.3518 119.28C69.9618 119.565 69.4968 119.67 69.0018 119.595C68.4918 119.52 68.1468 119.265 67.9818 118.83C67.7118 118.08 68.0268 117.45 68.9118 116.97C69.5118 116.685 70.0668 116.22 70.5768 115.56C71.1018 114.9 71.4018 114.195 71.4768 113.445H71.9268C72.0468 113.88 72.1068 114.39 72.1518 115.005H88.5468L89.7918 113.76C89.0418 112.575 87.7518 111.39 85.9518 110.205C84.8418 111.81 82.5918 113.055 79.2018 113.94L78.9168 113.55C79.5618 113.31 80.1318 113.04 80.6418 112.755C81.1668 112.455 81.6168 112.185 81.9918 111.93C82.3818 111.66 82.7268 111.345 83.0118 110.97C83.3118 110.595 83.5518 110.28 83.7468 110.04C83.9568 109.77 84.1218 109.425 84.2568 108.96C84.3918 108.495 84.4818 108.135 84.5418 107.88C84.6168 107.61 84.6768 107.205 84.7068 106.665C84.7518 106.095 84.7668 105.69 84.7668 105.45C84.7818 105.18 84.7968 104.73 84.7968 104.1L87.2268 104.385C87.1068 106.86 86.8368 108.555 86.3718 109.5C88.8768 109.86 90.4968 110.64 91.2318 111.84C91.6518 112.53 91.6518 113.115 91.2318 113.565C91.0818 113.73 90.8718 113.835 90.6018 113.88L91.7868 116.055C90.6918 117.165 89.3268 118.125 87.6918 118.905L87.4068 118.71C87.7668 118.035 88.1568 117.075 88.5918 115.83L88.6218 115.8ZM73.7868 104.07L76.0968 104.355C75.9768 106.755 75.7668 108.375 75.4518 109.215C77.4918 109.515 78.7368 110.19 79.2168 111.225C79.5018 111.84 79.4268 112.35 78.9918 112.725C78.5718 113.1 78.0618 113.115 77.4318 112.755C77.0718 111.75 76.3218 110.79 75.1668 109.845C74.2218 111.705 72.0168 113.13 68.5218 114.12L68.2368 113.73C68.9868 113.415 69.6618 113.07 70.2468 112.71C70.8318 112.335 71.3118 111.96 71.6868 111.6C72.0768 111.24 72.4068 110.835 72.6768 110.355C72.9468 109.86 73.1418 109.425 73.2768 109.02C73.4268 108.63 73.5468 108.135 73.6218 107.55C73.6968 106.965 73.7418 106.455 73.7568 106.02C73.7718 105.57 73.7868 105 73.7868 104.295V104.07ZM71.1618 105.405L71.6718 105.435C71.9568 106.665 71.9868 107.67 71.7918 108.465C71.5818 109.26 71.2218 109.83 70.7118 110.19C70.4268 110.43 70.0818 110.55 69.6618 110.535C69.2718 110.52 68.9868 110.355 68.8368 110.055C68.5968 109.515 68.8218 109.005 69.5118 108.555C69.9468 108.315 70.3368 107.88 70.6668 107.28C71.0118 106.665 71.1618 106.035 71.1468 105.42L71.1618 105.405ZM76.6668 109.05L76.2768 108.735C76.7418 108.075 77.3868 106.95 78.1968 105.375L79.5318 106.62C78.5568 107.715 77.5968 108.525 76.6818 109.05H76.6668ZM82.3218 105.435H82.8318C83.1168 106.695 83.1318 107.715 82.8918 108.495C82.6668 109.275 82.2918 109.83 81.7668 110.16C81.4518 110.385 81.0918 110.49 80.6868 110.475C80.2968 110.43 80.0268 110.265 79.8918 109.965C79.6518 109.395 79.8918 108.915 80.5968 108.525C81.0468 108.285 81.4368 107.865 81.7818 107.28C82.1418 106.68 82.3218 106.065 82.3218 105.45V105.435ZM87.9768 109.335L87.6018 108.99C88.2468 108.135 88.9818 106.92 89.8368 105.345L91.4118 106.875C90.3018 107.925 89.1468 108.75 87.9618 109.335H87.9768Z" fill="white"/>
<path d="M105.379 104.07L107.704 105.735C106.894 107.22 105.949 108.555 104.884 109.725C106.279 112.08 107.029 115.32 107.119 119.445C107.239 124.17 106.699 127.395 105.544 129.09C104.944 129.9 103.864 130.305 102.289 130.305C102.289 129.435 102.124 128.82 101.809 128.46C101.434 128.1 100.819 127.83 99.9638 127.635V127.185C101.209 127.305 102.154 127.35 102.814 127.35C103.204 127.35 103.489 127.23 103.669 126.975C104.344 125.97 104.689 123.465 104.689 119.43V118.245C103.339 119.985 101.614 121.47 99.5438 122.715L99.2588 122.43C100.384 121.2 101.389 119.79 102.259 118.185C103.144 116.565 103.789 114.96 104.179 113.385C104.029 112.515 103.819 111.75 103.549 111.075C102.319 112.245 101.059 113.235 99.7538 114.045L99.4388 113.76C100.639 112.5 101.764 111.015 102.799 109.29C102.109 107.91 101.164 106.62 99.9788 105.42L100.339 105.105C101.599 105.93 102.679 106.875 103.594 107.925C104.359 106.515 104.959 105.225 105.379 104.055V104.07ZM108.259 107.805L108.064 106.98H112.279V104.13L114.619 104.445V106.995H118.429V104.145L120.829 104.46V107.01H125.944V107.835H120.829V109.17C120.829 109.17 120.784 109.29 120.694 109.365C120.604 109.425 120.439 109.485 120.214 109.56C120.004 109.635 119.749 109.68 119.449 109.695C119.284 110.04 118.954 110.22 118.459 110.235C117.934 110.7 117.349 111.18 116.704 111.675H125.074V112.5H118.489V114.39H124.459V115.215H118.489V117.135H124.399V117.93H118.489V119.88H125.704V120.705H112.114V121.08C112.114 121.155 112.039 121.245 111.889 121.365C111.739 121.485 111.499 121.59 111.184 121.71C110.869 121.8 110.509 121.845 110.134 121.845H109.714V114.015C108.919 114.69 108.094 115.275 107.224 115.74L106.939 115.395C107.749 114.57 108.499 113.52 109.204 112.26C109.924 110.985 110.464 109.77 110.809 108.645L112.279 109.185V107.85H108.259V107.805ZM122.959 122.385V123.6C121.924 124.86 120.724 125.925 119.374 126.765C121.354 127.275 123.589 127.605 126.094 127.755V128.07C125.074 128.355 124.444 129.135 124.204 130.41C121.249 129.87 118.789 129.075 116.854 128.07C114.184 129.24 110.914 130.005 107.074 130.365L106.939 129.945C110.104 129.3 112.849 128.355 115.189 127.095C113.659 126.045 112.459 124.755 111.604 123.225H108.949L108.694 122.4H122.974L122.959 122.385ZM114.619 107.805V109.245C114.619 109.44 114.319 109.59 113.719 109.695L113.974 109.785C113.824 110.07 113.479 110.205 112.954 110.175C112.759 110.49 112.459 110.925 112.054 111.48L115.609 111.645C115.879 110.52 116.044 109.605 116.119 108.9L118.444 109.38V107.79H114.634L114.619 107.805ZM116.089 114.36V112.47H112.099V114.36H116.089ZM116.089 117.105V115.185H112.099V117.105H116.089ZM116.089 119.85V117.9H112.099V119.85H116.089ZM119.854 123.21H112.384C113.419 124.305 114.934 125.235 116.914 126.015C118.114 125.19 119.104 124.26 119.854 123.21Z" fill="white"/>
<path d="M157.981 122.595L157.591 127.485C157.966 128.16 158.191 128.67 158.236 128.985C158.296 129.3 158.221 129.57 158.011 129.78C157.711 130.14 157.336 130.275 156.886 130.17C156.436 130.095 155.986 129.9 155.551 129.6C155.131 129.3 154.756 128.925 154.396 128.505C153.616 127.575 152.956 126.435 152.416 125.055C150.781 127.125 148.816 128.76 146.536 129.945L146.191 129.63C148.396 128.07 150.241 125.88 151.726 123.075C150.916 120.285 150.361 116.25 150.061 110.97H144.721V115.41H149.221V116.505C149.206 119.745 149.101 122.04 148.936 123.375C148.786 124.71 148.486 125.595 148.036 126.03C147.376 126.63 146.596 126.93 145.696 126.93C145.696 126.045 145.576 125.475 145.336 125.235C145.096 124.935 144.616 124.71 143.926 124.56V124.335C143.191 126.81 141.916 128.805 140.086 130.35L139.711 130.065C140.821 128.355 141.541 126.45 141.856 124.35C142.201 122.265 142.366 119.79 142.366 116.94V109.935C142.291 110.175 142.051 110.31 141.631 110.31H131.851L131.626 109.515H138.376L139.816 107.655C140.851 108.51 141.706 109.23 142.366 109.83V110.145H150.031C149.911 107.625 149.836 105.615 149.806 104.145L152.401 104.535C152.416 105.615 152.431 106.68 152.461 107.76C152.476 108.81 152.491 109.605 152.491 110.13H153.991L155.401 108.435C155.251 108.36 155.131 108.3 155.056 108.24C154.966 107.73 154.741 107.19 154.381 106.605C154.021 106.02 153.646 105.555 153.256 105.195L153.541 105C155.551 105.285 156.751 105.93 157.126 106.92C157.336 107.505 157.216 107.985 156.766 108.36C156.451 108.585 156.091 108.645 155.686 108.555C156.706 109.335 157.516 109.98 158.116 110.505C158.041 110.805 157.786 110.955 157.351 110.955H152.521C152.656 114.36 152.911 117.21 153.316 119.49C153.991 117.525 154.501 115.44 154.846 113.22L157.051 114.27C156.391 117.585 155.401 120.375 154.081 122.64C154.576 124.155 155.161 125.31 155.836 126.15C156.001 126.375 156.136 126.495 156.226 126.495C156.316 126.48 156.421 126.33 156.541 126.045C156.856 125.325 157.246 124.17 157.696 122.565L158.011 122.595H157.981ZM140.476 121.74V128.04C140.461 128.16 140.206 128.31 139.741 128.49C139.291 128.685 138.871 128.775 138.496 128.775H138.106V127.395H135.076V129.315C135.076 129.45 134.851 129.6 134.401 129.795C133.966 129.99 133.516 130.08 133.036 130.08H132.721V120.585H140.461V121.74H140.476ZM140.791 106.845H133.021L132.826 106.02H140.791V106.845ZM140.911 113.205V114H133.021L132.826 113.205H140.911ZM133.021 117.735L132.826 116.91H140.911V117.735H133.021ZM135.091 126.585H138.121V121.41H135.091V126.585ZM147.166 116.235H144.736V116.94C144.736 119.895 144.481 122.295 143.971 124.125C144.631 124.185 145.276 124.215 145.891 124.215C146.251 124.215 146.491 124.155 146.596 124.02C146.776 123.795 146.911 123.12 146.986 122.01C147.061 120.885 147.121 118.95 147.151 116.25L147.166 116.235Z" fill="white"/>
<path d="M169.697 104.07L172.517 105.285C171.692 107.835 170.912 110.04 170.192 111.9V129.51C170.177 129.585 170.057 129.675 169.847 129.795C169.637 129.93 169.352 130.035 168.992 130.14C168.647 130.26 168.317 130.305 168.002 130.305H167.492V115.35C166.412 116.835 165.287 118.125 164.102 119.22L163.727 118.965C164.897 117.105 166.022 114.825 167.087 112.125C168.182 109.425 169.037 106.74 169.652 104.07H169.697ZM190.637 110.115V110.94H172.637L172.412 110.115H190.652H190.637ZM188.882 113.88V114.705H174.437L174.212 113.88H188.882ZM174.437 118.485L174.212 117.69H188.882V118.485H174.437ZM185.117 121.425H188.087V129.285C188.072 129.405 187.787 129.555 187.232 129.735C186.707 129.945 186.227 130.05 185.822 130.05H185.372V128.16H177.002V129.375C177.002 129.525 176.747 129.69 176.237 129.885C175.742 130.095 175.247 130.2 174.737 130.2H174.347V121.44H185.117V121.425ZM188.177 107.04H174.887L174.662 106.215H188.177V107.04ZM177.017 127.335H185.387V122.22H177.017V127.335Z" fill="white"/>
<path d="M204.857 114.765V115.95C204.347 119.565 203.477 122.445 202.262 124.605C203.537 125.625 205.127 126.315 207.017 126.675C208.907 127.02 211.367 127.185 214.427 127.185C218.537 127.185 221.282 127.185 222.647 127.155V127.53C221.597 127.755 221.027 128.52 220.952 129.825H214.217C210.962 129.825 208.322 129.555 206.327 129C204.332 128.46 202.682 127.44 201.377 125.97C200.117 127.74 198.437 129.195 196.352 130.35L196.097 129.96C197.867 128.535 199.247 126.675 200.252 124.425C199.292 122.865 198.512 120.825 197.912 118.32L198.287 118.155C198.947 120.195 199.772 121.845 200.777 123.135C201.497 121.065 201.977 118.56 202.247 115.62H199.937C199.847 115.785 199.727 116.04 199.562 116.355C199.427 116.655 199.322 116.88 199.247 117C198.557 117.195 197.747 117.12 196.847 116.775C198.152 114 199.472 110.865 200.837 107.34H196.652L196.397 106.515H203.372V107.85C202.472 109.995 201.437 112.32 200.297 114.81H204.872L204.857 114.765ZM223.007 110.835V111.66H219.197V115.65C219.182 115.77 218.912 115.92 218.402 116.1C217.907 116.265 217.472 116.355 217.097 116.355H216.707V115.395H213.407V118.305H220.787V119.13H213.407V122.1H221.882V122.925H213.407V125.805C213.407 125.94 213.167 126.09 212.702 126.285C212.252 126.45 211.802 126.54 211.352 126.54H210.812V122.925H204.542L204.317 122.1H210.812V119.13H205.727L205.502 118.305H210.812V115.395H206.087L205.832 114.57H210.812V111.66H204.077L203.852 110.835H210.812V107.985H206.117L205.862 107.16H210.812V104.1L213.407 104.46V107.145H219.197V110.82H223.007V110.835ZM213.392 107.985V110.835H216.692V107.985H213.392ZM216.692 114.57V111.66H213.392V114.57H216.692Z" fill="white"/>
<path d="M254.717 107.745V108.57H245.387L247.712 109.305C246.842 110.7 245.957 111.795 245.057 112.59H252.947V127.035C252.947 128.07 252.722 128.835 252.272 129.33C251.822 129.84 250.847 130.17 249.332 130.32C249.242 129.42 249.032 128.805 248.702 128.475C248.207 128.01 247.427 127.71 246.362 127.575V127.155C248.147 127.29 249.257 127.35 249.677 127.35C250.097 127.35 250.307 127.155 250.307 126.78V113.415H244.967V115.785C244.967 116.07 244.982 116.235 245.027 116.295C245.087 116.355 245.222 116.385 245.447 116.385H247.682C247.952 116.385 248.117 116.325 248.192 116.19C248.327 115.995 248.507 115.455 248.762 114.555H249.137L249.197 116.145C249.542 116.295 249.737 116.415 249.812 116.52C249.887 116.595 249.932 116.73 249.932 116.91C249.932 117.84 249.167 118.29 247.637 118.29H245.147C244.127 118.29 243.467 118.125 243.167 117.81C242.867 117.495 242.717 116.79 242.717 115.725V113.43H240.317C239.927 115.065 239.177 116.385 238.082 117.39C236.987 118.395 235.487 119.175 233.582 119.73L233.447 119.34C235.922 118.065 237.347 116.085 237.737 113.43H233.042V129.465C233.042 129.63 232.802 129.825 232.307 130.035C231.842 130.26 231.332 130.38 230.807 130.38H230.387V112.635H237.362C237.242 112.605 237.122 112.515 236.972 112.38C236.837 111.135 236.327 109.935 235.442 108.765L235.667 108.63H228.767L228.542 107.805H240.182V104.22L242.897 104.535V107.82H254.747L254.717 107.745ZM238.697 112.575H243.872C244.382 111.09 244.742 109.755 244.982 108.555H235.817C236.612 108.75 237.272 108.99 237.797 109.29C238.337 109.575 238.727 109.875 238.952 110.19C239.177 110.505 239.312 110.835 239.342 111.15C239.402 111.45 239.357 111.735 239.222 112.005C239.102 112.245 238.937 112.44 238.682 112.575H238.697ZM246.662 120.915V126.675C246.647 126.765 246.392 126.9 245.897 127.065C245.432 127.215 244.997 127.29 244.622 127.29H244.232V125.7H238.892V126.885C238.892 127.02 238.652 127.17 238.187 127.365C237.737 127.56 237.287 127.65 236.837 127.65H236.492V119.79H246.662V120.9V120.915ZM238.892 124.905H244.232V120.63H238.892V124.905Z" fill="white"/>
</svg>
