<svg width="393" height="724" viewBox="0 0 393 724" fill="none" xmlns="http://www.w3.org/2000/svg">
<g filter="url(#filter0_d_3_854)">
<path d="M327.7 16.85H364.89V38.88H327.7V43.81H350.26V83.29H223.71V43.81H243.8V38.88H206.96V16.85H243.8V6.09998L274.47 7.68998C274.29 9.62998 272.71 10.86 269.18 11.57V16.86H302.14V6.10998L332.98 7.69997C332.8 9.81997 331.39 10.87 327.69 11.58V16.87L327.7 16.85ZM208.2 121.02V88.41H363.66V121.02H338.46V107.45H288.58C287.7 108.33 286.29 108.86 284.53 108.86L281.36 112.56H315.2L319.25 111.68L336.52 119.79C335.99 121.02 334.93 121.55 333.88 122.26C316.08 152.58 278.36 167.2 234.83 173.9C232.54 167.91 227.43 158.39 223.37 153.1C236.41 151.87 249.1 149.57 260.56 146.4C257.56 144.46 254.39 142.7 251.39 141.46L266.55 129.3H262.14C253.33 135.47 242.93 141.29 230.06 146.4C226.89 140.94 219.84 132.48 215.08 128.77C233.23 123.13 246.63 115.73 255.62 107.44H232.18V121.01H208.21L208.2 121.02ZM258.61 67.26V59.68H246.27V67.26H258.61ZM267.95 129.3C273.24 131.42 279.05 134.59 283.64 137.76C288.75 135.29 293.33 132.47 297.39 129.3H267.96H267.95ZM302.14 43.82V38.89H269.18V43.82H302.14ZM292.45 67.26V59.68H279.76V67.26H292.45ZM326.47 67.26V59.68H313.6V67.26H326.47Z" fill="white"/>
<path d="M232.88 290.4V262.73C228.12 270.31 222.83 277.01 217.37 282.12C213.67 276.66 206.09 268.55 200.98 264.32C211.91 256.21 222.31 242.29 229.18 228.36H205.56V206.86H232.88V182.54L262.31 184.13C262.13 186.07 260.72 187.13 257.2 187.83V206.87H280.11V228.37H257.2V232.95C264.07 237 280.29 248.11 284.52 251.28L271.12 271.73C267.59 267.68 262.48 262.57 257.2 257.63V290.41H232.88V290.4ZM247.33 305.21C242.4 319.49 235.35 334.64 224.42 344.87L202.92 329.89C212.44 321.78 220.37 309.09 224.6 296.23L247.34 305.22L247.33 305.21ZM275.35 320.37C275.35 325.48 276.58 326.01 283.81 326.01H301.79C307.43 326.01 308.49 324.42 309.37 313.32C314.31 317.02 325.06 320.72 331.93 322.13C328.93 343.28 322.24 348.57 304.26 348.57H280.29C255.44 348.57 249.97 341.52 249.97 320.72V299.75L273.41 300.98L266.89 296.04L283.63 282.82L286.8 284.94V191H360.65V288.12H291.38C298.96 293.76 306.71 300.46 310.77 305.92L292.79 320.37C289.62 315.79 283.98 309.97 277.63 304.51L275.34 305.04V320.37H275.35ZM310.07 210.92V217.62H336.16V210.92H310.07ZM310.07 236.12V242.99H336.16V236.12H310.07ZM310.07 261.32V268.37H336.16V261.32H310.07ZM349.02 346.45C344.44 334.99 331.39 318.43 318.88 306.62L339.68 294.11C352.19 305.21 366.12 320.55 371.76 332.71L349.02 346.46V346.45Z" fill="white"/>
<path d="M369.65 495.21H348.15C356.43 501.38 366.13 508.78 371.42 514.25L352.56 526.06C346.74 519.54 334.05 508.79 324.54 501.56L335.29 495.22H309.91L320.84 501.56C320.31 502.26 319.25 502.79 318.02 502.97C311.85 510.55 297.93 520.95 286.12 526.06C282.42 522.01 275.72 515.84 270.61 511.96C266.73 526.24 252.99 526.24 238.53 526.24C238.18 519.37 235.89 509.85 232.54 503.68C236.95 504.21 240.82 504.21 243.29 504.21C245.41 504.21 246.82 503.68 248.23 501.39C250.17 498.04 250.87 484.47 251.4 447.1H241.88C239.41 476.89 233.77 505.09 218.97 525.89C214.92 519.72 207.34 511.97 200.99 507.91C218.09 483.94 219.14 447.45 219.67 408.15H203.81V384.53H229.01V358.8L258.62 360.39C258.44 362.33 257.03 363.39 253.51 364.09V384.54H276.07V388.77C282.24 380.13 287 369.21 289.47 358.45L315.03 364.97C314.5 366.38 313.09 367.26 310.62 367.08C309.74 369.9 308.68 372.9 307.62 375.72H369.66V396.17H297.22L295.63 398.64L318.54 399.87C318.36 401.63 316.95 402.69 313.61 403.4V411.68H331.24V398.28L359.79 399.87C359.61 401.63 358.2 402.87 354.68 403.4V411.68H367.37V431.6H354.68V475.31H369.66V495.23L369.65 495.21ZM262.13 424L274.64 424.35C274.64 426.29 274.64 429.11 274.46 431.75C273.93 477.75 273.4 500.49 270.76 511.06C279.4 507.36 288.56 501.19 295.08 495.2H275.87V475.28H290.5V431.57H278.34V411.65H290.5V405.13C289.09 406.89 287.5 408.48 285.92 409.89C283.63 407.6 279.75 404.78 276.05 402.13V408.12H243.62L243.09 423.98H262.13V424ZM331.22 431.58H313.59V435.63H331.22V431.58ZM331.22 455.37V451.14H313.59V455.37H331.22ZM313.59 470.88V475.29H331.22V470.88H313.59Z" fill="white"/>
<path d="M270.07 623.18L263.72 624.06V681.7C263.72 697.74 258.43 702.5 237.63 702.5C237.1 697.21 234.63 688.75 231.99 683.64C234.63 683.82 237.45 683.99 239.57 683.99C244.68 683.99 245.21 683.99 245.21 681.35V626.71L228.47 629C228.12 652.79 225.83 683.11 215.78 702.67C212.43 699.67 204.32 694.74 199.92 692.98C208.38 675.88 210.14 651.91 210.5 631.29L208.38 631.64C208.03 633.23 206.44 634.11 205.03 634.28L200.62 613.13L210.49 612.25V558.32H225.12C226.35 550.74 227.41 541.58 227.76 534.7L254.02 539.28C253.49 540.69 251.9 541.57 249.26 541.75C247.85 546.51 245.91 552.68 243.97 558.32H263.71V607.14L269.53 606.61L270.06 623.18H270.07ZM239.75 580.88C242.39 586.87 244.51 594.63 245.21 600.44H245.39L245.21 577.35H228.47V584.58L239.75 580.88ZM228.47 610.67L245.21 609.08V602.03L232.17 606.44C231.99 601.5 230.41 594.28 228.47 587.93V610.67ZM245.04 632C244.86 633.23 243.81 634.12 241.69 634.29V670.95H230.94V631.12L245.04 632ZM359.78 680.29H369.65V699.33H265.66V680.29H275.53V634.29H359.78V680.29ZM288.57 627.77V630.24H271.47V540.7H321.53V556.56H309.54V564.84H320.82V582.82C325.58 570.66 328.05 552.33 329.28 535.06L353.6 540C353.07 541.41 351.66 542.47 349.37 542.47C348.84 547.23 348.31 551.99 347.43 556.92H368.93V575.96H343.73C341.61 584.42 338.97 592.18 335.62 598.34C332.1 595.34 325.75 591.47 320.81 588.65V603.28H309.53V611.56H323.81V627.78H288.56L288.57 627.77ZM293.68 556.56H288.57V564.84H293.68V556.56ZM304.08 579.3H288.57V588.82H304.08V579.3ZM293.68 611.55V603.27H288.57V611.55H293.68ZM294.38 653.15V680.29H298.96V653.15H294.38ZM319.41 653.15H314.83V680.29H319.41V653.15ZM326.28 619.49V600.45H366.11V619.49H326.28ZM339.85 653.15H335.27V680.29H339.85V653.15Z" fill="white"/>
<path d="M121.17 56.16C115.88 51.23 110.42 46.47 105.31 42.24L125.23 26.73C142.86 40.3 164.89 59.87 174.58 74.85L152.55 92.65C150.26 88.6 146.91 84.01 142.86 79.25C96.5 81.54 48.56 83.48 17.01 84.54C16.48 86.48 14.72 87.36 12.96 87.54L4.14999 58.99L34.82 58.46C45.4 42.6 56.5 21.8 63.02 4.34998L94.75 15.98C93.87 17.74 91.58 18.62 88.58 18.62C82.59 30.96 73.95 45.23 65.31 57.75L121.18 56.16H121.17ZM30.22 173.55V96H148.13V172.85H121.16V168.27H55.95V173.56H30.22V173.55ZM121.17 120.5H55.95V143.41H121.16V120.5H121.17Z" fill="white"/>
<path d="M18.06 230.65C26.87 234.7 38.68 241.4 44.5 246.69L29.69 266.25C24.58 260.96 12.95 253.21 4.13 248.45L18.05 230.65H18.06ZM21.76 184.82C30.57 189.23 42.21 196.45 47.85 202.09L32.52 221.3C27.59 215.48 16.13 207.38 7.32001 202.09L21.77 184.82H21.76ZM8.54001 335.17C15.06 321.25 23.87 299.21 30.75 278.06L51.02 291.1C45.38 309.96 38.68 328.64 33.04 342.39C34.27 343.62 34.98 345.03 34.98 346.44C34.98 347.32 34.63 348.2 34.28 349.08L8.55 335.16L8.54001 335.17ZM156.07 245.46L165.94 242.29C169.29 249.34 172.64 258.51 174.05 264.5L161.18 268.91C160.3 264.33 158.36 257.63 156.07 251.64V272.79H140.21V254.99C138.27 261.16 135.63 267.68 132.28 272.09C130.34 270.33 126.99 267.86 124.17 265.92V271.74H89.98V261.52L78.7 264.69C78.17 260.64 76.94 254.64 75.53 249.36V272.8H60.02V256.41C57.9 261.87 55.26 267.34 52.09 271.39C49.45 268.92 44.51 265.4 41.34 263.46C45.04 258.35 47.86 250.06 49.45 242.31L60.03 245.31V239.49L50.16 240.02C49.81 241.43 48.57 242.13 47.34 242.31L42.76 225.21H53.16C54.57 223.45 56.16 221.69 57.74 219.92C54.04 216.04 49.28 211.81 44.87 208.64L52.63 196.3L54.57 197.53C57.57 192.42 60.39 186.43 62.15 181.84L77.84 190.65C77.13 191.71 75.55 192.24 73.61 192.06C71.49 195.76 68.32 200.87 64.97 205.46L67.26 207.57C69.9 203.87 72.37 200.17 74.31 196.99L85.24 203.86V199.63H127.36V203.51L131.94 196.28L133.88 197.51C137.05 192.4 140.05 186.41 141.99 181.82L157.68 190.63C156.97 191.69 155.39 192.22 153.45 192.04C151.16 195.74 147.81 200.85 144.46 205.44L146.93 207.73C149.93 203.85 152.75 199.98 154.86 196.45L170.19 206.14C169.31 207.37 167.55 207.55 165.78 207.37C161.55 212.48 155.73 219.18 149.74 225.17H157.32C156.79 223.41 156.09 221.65 155.38 220.06L167.19 215.3C170.36 222 173.36 231.16 174.24 236.98L161.73 242.27C161.55 241.04 161.38 239.63 161.02 238.22L156.09 238.57V245.44L156.07 245.46ZM146.73 312.26L151.67 311.55L165.95 315.43C165.6 317.19 165.07 318.96 164.19 320.37C159.61 348.04 153.44 349.8 126.82 349.8C122.41 349.8 117.3 349.8 112.01 349.62C111.83 343.98 109.19 336.4 105.84 331.29C112.89 332 120.47 332.17 125.4 332.17C134.74 332.17 136.15 332.17 138.27 327.59H76.93L75.7 332L52.79 329.18C55.96 319.49 59.31 305.74 61.43 294.28H130.52V290.75H55.77V276.47H154.12V308.55H81.68L80.8 312.25H146.72L146.73 312.26ZM124.17 259.21C126.29 254.27 127.87 248.11 128.93 242.29L140.21 245.46V239.47L130.87 240C130.52 241.41 129.28 242.11 128.05 242.29L124 226.96H89.98V215.86H124.17V225.2H132.45C134.04 223.61 135.62 221.85 137.21 219.91C134.21 216.91 130.86 213.74 127.34 211.1V212.33H85.22V207.92C81.34 212.86 75.88 219.2 70.06 225.19H76.76L75.17 220.08L85.57 216.38C87.51 220.96 88.92 226.43 89.98 231.19V230.48H124.17V241.58H89.98V238.41L79.76 242.11C79.76 240.88 79.58 239.64 79.41 238.23L75.53 238.58V245.28L85.93 242.64C87.52 247.58 89.1 253.57 89.98 258.15V245.11H124.17V259.21ZM122.76 184.83V196.11H91.74V184.83H122.76ZM109.19 261.15V255.69H104.25V261.15H109.19Z" fill="white"/>
<path d="M148.84 447.8L164.53 453.44C164 455.03 163.3 455.56 162.41 456.61C158.53 471.42 152.19 484.28 143.73 494.86C152.19 499.8 161.71 503.5 172.64 505.96C167.35 510.54 160.66 519.88 157.48 525.88C146.02 522.53 135.98 517.6 127.16 511.43C119.58 517.42 111.12 522.36 101.6 526.24C98.96 520.78 93.49 512.49 88.91 507.56V526.07H64.41V511.79C46.96 513.73 30.22 515.67 18.41 516.73C18.06 518.49 16.65 519.37 15.24 519.55L8.37 495.58C12.6 495.4 17.53 495.23 23 494.88V444.47H8.19V424.38H170.87V444.47H88.91V506.16C96.49 503.52 103.54 499.81 109.71 495.23C103.89 488.18 99.13 480.25 95.08 471.44L108.48 467.74H92.09V448.53H144.79L148.84 447.83V447.8ZM147.43 364.26V419.96H31.63V364.26H147.43ZM64.41 444.46H46.26V448.69H64.41V444.46ZM46.26 465.96V470.72H64.41V465.96H46.26ZM46.26 493.63L64.41 492.4V487.99H46.26V493.63ZM121.7 384.53V380.3H56.13V384.53H121.7ZM121.7 403.92V399.51H56.13V403.92H121.7ZM116.59 467.72C118.88 472.13 121.88 476.18 125.23 480.06C128.23 476.18 130.69 472.13 132.98 467.72H116.59Z" fill="white"/>
<path d="M168.58 607.14H107.77C117.99 640.8 137.38 666.18 172.98 677.47C166.81 683.11 158.35 694.74 154.47 702.32C121.86 689.81 102.83 668.13 90.14 637.81C80.09 663.9 61.23 686.63 25.63 702.32C21.93 695.09 14.17 685.58 6.95001 679.76C48.19 663.19 64.23 637.64 70.4 607.14H10.65V580.53H73.57C74.45 565.9 74.28 550.57 74.45 534.88L107.94 536.99C107.59 539.11 105.83 540.52 102.48 541.04C102.3 554.08 101.95 567.48 101.25 580.52H168.58V607.13V607.14Z" fill="white"/>
</g>
<defs>
<filter id="filter0_d_3_854" x="0.490005" y="0.709975" width="391.91" height="722.6" filterUnits="userSpaceOnUse" color-interpolation-filters="sRGB">
<feFlood flood-opacity="0" result="BackgroundImageFix"/>
<feColorMatrix in="SourceAlpha" type="matrix" values="0 0 0 0 0 0 0 0 0 0 0 0 0 0 0 0 0 0 127 0" result="hardAlpha"/>
<feOffset dx="8.5" dy="8.5"/>
<feGaussianBlur stdDeviation="6.07"/>
<feColorMatrix type="matrix" values="0 0 0 0 0.101961 0 0 0 0 0.12549 0 0 0 0 0.219608 0 0 0 0.34 0"/>
<feBlend mode="normal" in2="BackgroundImageFix" result="effect1_dropShadow_3_854"/>
<feBlend mode="normal" in="SourceGraphic" in2="effect1_dropShadow_3_854" result="shape"/>
</filter>
</defs>
</svg>
