<svg width="648" height="247" viewBox="0 0 648 247" fill="none" xmlns="http://www.w3.org/2000/svg">
<path d="M127.642 13.215C127.642 18.615 125.047 20.205 121.417 20.205C120.532 20.205 119.437 20.055 118.777 19.83L119.182 16.74C119.662 16.89 120.322 17.025 121.072 17.025C122.767 17.025 123.892 16.26 123.892 13.2V0.315033H127.657V13.215H127.642Z" fill="white"/>
<path d="M138.368 0.315002H142.133V19.92H138.368V0.315002Z" fill="white"/>
<path d="M167.302 19.92H163.537L159.337 11.82C158.287 9.81 157.147 7.38 156.337 5.25H156.232C156.382 7.665 156.457 10.425 156.457 13.92V19.935H153.052V0.315002H157.117L161.242 8.265C162.292 10.23 163.372 12.615 164.167 14.67H164.212C163.987 12.165 163.882 9.39 163.882 6.21V0.315002H167.287V19.92H167.302Z" fill="white"/>
<path d="M192.397 19.155C191.257 19.59 189.037 20.13 186.832 20.13C183.862 20.13 181.597 19.365 179.947 17.73C178.267 16.08 177.307 13.395 177.307 10.29C177.307 3.65999 181.702 0.119995 187.327 0.119995C189.307 0.119995 190.957 0.479995 191.902 0.929995L191.107 4.035C190.222 3.63 189.097 3.315 187.372 3.315C183.892 3.315 181.252 5.45999 181.252 10.2C181.252 14.94 183.667 17.025 186.892 17.025C187.807 17.025 188.497 16.905 188.827 16.74V11.955H186.007V8.96999H192.412V19.14L192.397 19.155Z" fill="white"/>
<path d="M215.469 0.569978C216.849 0.314978 218.619 0.164978 220.539 0.164978C223.794 0.164978 225.999 0.854978 227.634 2.20498C229.494 3.73498 230.589 6.14998 230.589 9.70498C230.589 13.905 229.134 16.35 227.634 17.7C225.849 19.305 223.134 20.1 219.729 20.1C217.914 20.1 216.474 19.965 215.484 19.845V0.569978H215.469ZM219.204 17.01C219.579 17.085 220.149 17.085 220.659 17.085C224.244 17.115 226.644 14.895 226.644 9.74998C226.644 5.30998 224.484 3.11998 221.004 3.11998C220.224 3.11998 219.624 3.19498 219.219 3.26998V17.01H219.204Z" fill="white"/>
<path d="M254.528 11.79C254.528 17.52 251.813 20.205 247.388 20.205C242.963 20.205 240.503 17.58 240.503 11.82V0.300018H244.268V12.15C244.268 15.585 245.558 17.1 247.493 17.1C249.533 17.1 250.778 15.645 250.778 12.15V0.300018H254.543V11.79H254.528Z" fill="white"/>
<path d="M292.329 19.92H288.384L286.989 14.745H281.754L280.404 19.92H276.594L282.144 0.330017H286.869L292.329 19.92ZM286.449 11.895L285.279 7.44002C284.979 6.22502 284.649 4.63502 284.394 3.43502H284.319C284.064 4.66502 283.734 6.25502 283.449 7.41002L282.279 11.895H286.449Z" fill="white"/>
<path d="M315.442 0.315002L309.487 19.905H305.182L299.512 0.315002H303.622L305.827 8.97C306.412 11.295 306.997 13.635 307.402 16.005H307.477C307.912 13.665 308.497 11.265 309.097 8.97L311.362 0.315002H315.412H315.442Z" fill="white"/>
<path d="M324.562 0.315002H328.327V19.92H324.562V0.315002Z" fill="white"/>
<path d="M353.571 19.92H349.626L348.231 14.745H342.996L341.646 19.92H337.836L343.386 0.330017H348.111L353.571 19.92ZM347.691 11.895L346.521 7.44002C346.221 6.22502 345.891 4.63502 345.636 3.43502H345.561C345.306 4.66502 344.976 6.25502 344.691 7.41002L343.521 11.895H347.691Z" fill="white"/>
<path d="M374.288 3.58503H369.458V19.92H365.693V3.58503H360.893V0.315033H374.288V3.58503Z" fill="white"/>
<path d="M383.617 0.315002H387.382V19.92H383.617V0.315002Z" fill="white"/>
<path d="M413.739 9.87C413.739 16.695 410.289 20.19 405.429 20.19C400.269 20.19 397.344 15.855 397.344 10.17C397.344 4.485 400.569 0 405.684 0C411.099 0 413.739 4.635 413.739 9.855V9.87ZM401.274 10.095C401.274 13.935 402.774 17.1 405.549 17.1C408.324 17.1 409.794 13.965 409.794 10.02C409.794 6.435 408.444 3.09 405.579 3.09C402.714 3.09 401.274 6.51 401.274 10.095Z" fill="white"/>
<path d="M437.961 19.92H434.196L429.996 11.82C428.946 9.81 427.806 7.38 426.996 5.25H426.891C427.041 7.665 427.116 10.425 427.116 13.92V19.935H423.711V0.315002H427.776L431.901 8.265C432.951 10.23 434.031 12.615 434.826 14.67H434.871C434.646 12.165 434.541 9.39 434.541 6.21V0.315002H437.946V19.92H437.961Z" fill="white"/>
<path d="M474.021 19.44C473.286 19.8 471.711 20.175 469.701 20.175C463.821 20.175 460.566 16.17 460.566 10.365C460.566 3.51001 464.961 0.0450134 470.151 0.0450134C472.266 0.0450134 473.631 0.480013 474.201 0.780013L473.466 3.84001C472.701 3.51001 471.681 3.21001 470.346 3.21001C467.121 3.21001 464.526 5.43001 464.526 10.17C464.526 14.61 466.791 16.965 470.316 16.965C471.486 16.965 472.731 16.74 473.496 16.41L474.036 19.44H474.021Z" fill="white"/>
<path d="M483.879 0.315002H487.644V19.92H483.879V0.315002Z" fill="white"/>
<path d="M510.399 3.585H505.569V19.92H501.804V3.585H497.004V0.315002H510.399V3.585Z" fill="white"/>
<path d="M533.046 0.315002L527.256 11.805V19.905H523.491V11.94L517.941 0.315002H522.141L524.076 5.13C524.631 6.525 525.096 7.755 525.546 9.105H525.591C525.966 7.8 526.446 6.525 527.016 5.1L528.891 0.315002H533.031H533.046Z" fill="white"/>
<path d="M54.936 149.31C52.251 154.755 48.2161 158.565 42.8311 160.74V171.63C55.6111 170.535 64.461 163.095 69.396 149.325H54.936V149.31Z" fill="white"/>
<path d="M297.907 53.1301C297.202 56.5951 296.347 60.2401 295.312 62.6551H311.407V156.795C311.752 167.535 306.562 172.74 295.837 172.395H285.967V159.39H290.122C293.572 159.735 295.132 157.83 294.787 153.675V144.84H283.882C283.537 138.945 282.847 133.575 281.812 128.715V130.275C283.192 151.785 275.917 166.5 260.002 174.48V160.44C263.812 154.89 265.537 145.53 265.192 132.345V118.815H260.002V105.285H265.192V62.6401H276.607C276.952 61.6051 277.462 60.0451 278.167 57.9601C278.512 56.2351 278.857 54.1501 279.202 53.1151H297.892L297.907 53.1301ZM291.157 80.8651C292.537 85.0201 293.572 90.5701 294.277 97.5151C294.622 98.5501 294.802 99.4201 294.802 100.11H283.897C283.897 99.4201 283.717 98.5501 283.372 97.5151C283.372 95.1001 282.847 90.9301 281.812 85.0351V105.315H294.787V76.1851H281.812V80.8651H291.157ZM291.682 124.56C293.407 130.455 294.442 135.66 294.802 140.16V118.83H281.827V124.545H291.697L291.682 124.56ZM367.987 153.165C367.987 155.25 368.842 156.285 370.582 156.285C371.962 156.285 372.652 155.25 372.652 153.165V148.485H383.032V156.285C383.377 165.3 378.877 169.635 369.532 169.29H362.782C352.747 169.635 347.902 164.61 348.247 154.2V104.265H339.427V113.625C339.427 130.62 337.687 143.28 334.237 151.59C330.772 159.225 323.677 166.5 312.952 173.43V158.34C317.452 151.065 319.522 136.5 319.177 114.645V89.6851H367.972V153.15L367.987 153.165ZM314.002 63.1801H333.202V53.1301H356.557V63.1801H377.317V78.2701H313.987V63.1801H314.002Z" fill="white"/>
<path d="M394.988 117.135V105.165C409.283 101.355 419.243 94.5901 424.898 84.8851H448.838C439.193 104.655 421.238 115.41 394.988 117.135ZM506.678 63.5551V87.4801H486.233V78.1201H415.928V87.4801H395.483V63.5551H438.368V53.1151H464.303V63.5551H506.678ZM506.678 156.135V170.175H395.483V156.135H439.358V131.175H409.448V115.575H492.218V131.175H462.308V156.135H506.678ZM506.678 117.12C480.413 115.395 462.458 104.64 452.828 84.8701H476.768C482.423 94.5751 492.383 101.34 506.678 105.15V117.12Z" fill="white"/>
<path d="M555.759 152.64C547.449 157.155 537.834 160.44 524.334 162.525V145.365C526.749 145.365 528.069 145.02 530.844 144.33V89.7001H524.094V75.1351H530.844V53.1151H550.059V75.1351H555.534V89.7001H550.059V139.635C552.129 139.29 554.034 138.6 555.774 137.55V152.64H555.759ZM577.044 84.4951V98.0251H598.329V143.805C598.674 154.56 594.174 159.93 584.829 159.93H576.009V145.89H578.079C581.199 146.235 582.579 144.675 582.234 141.21V112.08H577.044V129.765C577.389 150.57 569.424 165.135 553.164 173.46V159.93C556.974 154.38 558.699 145.71 558.354 133.92V69.9451H598.839V53.1301H618.054V69.9451H623.244V55.3801H638.814V69.9451H644.004V84.5101H618.054C618.054 98.3851 618.579 110.52 619.614 120.915C622.734 112.59 624.804 103.065 625.839 92.3101H644.004C639.504 116.58 632.589 134.79 623.244 146.925C625.314 154.905 628.089 158.715 631.554 158.37C633.624 158.37 634.674 155.955 634.674 151.095H647.139C647.484 165.66 642.294 172.755 631.569 172.425C622.569 172.425 615.639 168.27 610.809 159.945C606.309 164.1 600.939 168.435 594.714 172.95V157.86C598.869 153.705 602.499 149.715 605.619 145.89C605.274 144.855 604.914 143.115 604.584 140.685C604.239 139.65 604.059 138.78 604.059 138.09C601.284 120.06 599.724 102.195 599.394 84.5101H577.074L577.044 84.4951Z" fill="white"/>
<path d="M136.057 76.4401V63.5401H150.397V53.1151H169.192V63.5401H182.047V70.5001C183.127 67.7551 185.512 62.8651 185.932 60.1801H199.852V57.0901H246.322V65.8801C246.322 71.1301 245.917 76.3801 245.047 81.5701C243.247 92.2051 241.042 99.8851 238.417 104.625C244.357 112.875 247.312 121.605 247.312 130.83C247.312 147.645 238.732 156.045 221.602 156.045V141.21C226.867 140.88 229.507 136.755 229.507 128.85C229.837 120.615 226.867 112.71 220.612 105.12C223.897 96.5551 225.877 85.8301 226.552 72.9751H219.142V172.485H199.867V72.8101C196.327 78.7351 193.762 81.8851 190.477 86.8201H197.392V101.775H179.797C176.827 105.075 175.582 106.44 171.622 109.065H193.927V156.645C193.927 165.105 187.072 171.975 178.597 171.975H140.032V125.88C137.842 128.13 136.792 128.805 132.127 131.325V115.995C141.682 111.39 150.097 107.715 157.342 101.775H132.622V86.8201H150.427V76.4401H136.087H136.057ZM157.807 122.43V131.325H176.602V122.43H157.807ZM176.602 149.13V144.18H157.807V153.075H172.642C175.612 153.075 176.917 151.755 176.602 149.115V149.13ZM170.662 86.8351L171.157 86.3401C174.442 82.3801 176.752 79.0951 178.072 76.4551H169.177V86.8351H170.662Z" fill="white"/>
<path d="M5.0759 71.97H14.3309V100.215H4.6709V114.285H14.3309V154.875C14.2259 154.89 14.0909 154.92 14.0009 154.935C10.2959 155.835 4.9559 155.88 4.9559 155.88V171.39C27.0359 168.84 40.2209 162.465 40.2209 162.465V148.845C39.7709 149.325 36.1409 150.27 31.7009 151.305V114.3H40.2209V100.23H31.7009V71.985H42.8309V57.435H5.06089V71.985L5.0759 71.97Z" fill="white"/>
<path d="M90.2451 98.085V94.995H104.705C112.1 95.685 115.58 89.55 115.13 76.575V56.19H48.5601V94.995H74.1051V98.085H42.8301V113.025H120.83V98.085H90.2301H90.2451ZM62.3451 67.89H101.345V71.985H62.3451V67.89ZM62.3451 83.745V80.16H101.015C100.79 82.89 99.5601 84.09 97.3101 83.745H62.3451Z" fill="white"/>
<path d="M112.432 126.315V115.5H51.2471V146.64H76.1321V152.1C76.3571 156.675 75.1271 158.79 72.4271 158.43H68.3921V171.63H78.4721C86.5421 171.975 90.4571 166.17 90.2471 154.215V146.64H102.682C110.542 146.37 112.882 138.645 112.432 126.315ZM95.2871 135.72H65.3621V126.555H98.3171V127.605C98.1521 131.715 99.1871 135.885 95.2871 135.72Z" fill="white"/>
<path d="M107.723 149.31H93.2627C98.1977 163.095 107.048 170.535 119.828 171.615V160.725C114.443 158.55 110.408 154.74 107.723 149.295V149.31Z" fill="white"/>
<path d="M23.0462 219.21H40.4762V223.155H0.576172V219.21H17.6912V217.365H5.52618V213.63H17.6912V211.74H3.11118V207.795H17.6912V204.63L24.2312 204.975C24.1862 205.41 23.8412 205.725 23.0462 205.815V207.795H37.7462V211.74H23.0462V213.63H35.4212V217.365H23.0462V219.21ZM33.8012 224.955V241.29C33.8012 245.94 31.4762 246.255 23.3462 246.255C23.0912 244.98 22.3862 243.225 21.7712 242.04C22.8662 242.085 24.0962 242.13 25.1462 242.13C28.4462 242.13 28.4462 242.085 28.4462 241.26V239.595H12.4262V246.18H7.16117V224.97H33.8012V224.955ZM28.4462 228.735H12.4262V230.67H28.4462V228.735ZM12.4262 236.16H28.4462V234.135H12.4262V236.16Z" fill="white"/>
<path d="M120.681 231.72V236.85H105.531V246.15H100.086V236.85H80.1062V231.72H87.1262V220.125H100.071V214.77H90.4112C88.4762 217.98 86.2412 220.92 83.9162 223.11C82.9562 222.105 80.9762 220.35 79.7012 219.51C83.5712 216.18 87.1712 210.285 89.1362 204.585L95.4962 206.565C95.3162 206.91 94.8812 207.135 94.2662 207.09C93.9212 207.96 93.5162 208.8 93.1262 209.685H118.191V214.77H105.501V220.125H117.216V225.045H105.501V231.72H120.651H120.681ZM92.4062 231.72H100.086V225.045H92.4062V231.72Z" fill="white"/>
<path d="M187.252 216.885C187.642 221.37 188.347 225.705 189.187 229.395C190.987 226.32 192.442 222.945 193.492 219.345L199.552 221.055C199.462 221.445 199.027 221.715 198.322 221.67C196.567 226.935 194.152 231.675 191.167 235.8C192.442 239.01 193.927 240.975 195.472 240.975C196.567 240.975 197.182 238.65 197.452 233.07C198.547 234.255 200.302 235.53 201.712 236.055C200.842 244.215 199.117 246.195 195.037 246.195C191.962 246.15 189.457 243.915 187.492 240.225C185.257 242.55 182.752 244.62 179.992 246.285C179.242 245.19 177.577 243.165 176.527 242.16C179.827 240.36 182.812 237.9 185.347 234.915C183.682 229.86 182.632 223.5 182.047 216.87H168.787V221.31H177.307L180.022 221.4V222.975C179.842 232.89 179.587 236.85 178.567 238.215C177.292 239.835 175.972 240.24 170.437 240.105C170.302 238.575 169.777 236.505 168.982 235.23C170.602 235.365 172.102 235.41 172.807 235.41C173.377 235.41 173.767 235.275 174.127 234.885C174.607 234.27 174.787 231.99 174.922 226.155H168.772C168.592 232.56 167.587 240.945 163.552 246.255C162.712 245.25 160.567 243.45 159.427 242.79C163.252 237.66 163.552 230.1 163.552 224.4V211.845H181.687C181.552 209.52 181.462 207.15 181.462 204.825L188.092 205.17C188.047 205.65 187.657 205.92 186.817 206.055C186.772 207.99 186.817 209.925 186.907 211.845H194.287C192.757 210.525 190.642 208.995 188.842 207.9L192.142 204.825C194.422 206.145 197.452 208.11 198.952 209.61L196.672 211.845H200.497V216.9H187.282L187.252 216.885Z" fill="white"/>
<path d="M266.031 221.01C266.691 222.99 267.486 224.835 268.401 226.59C270.636 225.09 273.051 223.29 274.671 221.76L279.276 225.93C279.096 226.11 278.751 226.185 278.391 226.185C278.256 226.185 278.091 226.185 277.911 226.14C276.201 227.415 273.396 229.17 270.981 230.535C273.621 233.91 276.996 236.55 281.256 238.125C280.071 239.175 278.496 241.245 277.701 242.685C269.451 239.04 264.576 231.66 261.681 222.135C260.496 222.975 259.221 223.71 257.856 224.46C263.526 228.45 265.806 233.595 265.806 237.81C265.806 242.865 262.596 246.24 257.556 246.24C256.506 246.24 255.276 246.195 254.046 246.15C253.956 244.74 253.566 242.685 252.636 241.14C254.136 241.32 255.441 241.365 256.506 241.365C257.571 241.365 258.486 241.23 259.146 240.525C259.986 239.955 260.466 238.77 260.466 237.225C260.466 236.7 260.421 236.13 260.286 235.56C255.456 239.25 248.781 242.715 243.081 244.65C242.466 243.375 241.371 241.44 240.321 240.3C246.591 238.725 254.061 235.08 258.411 231.435C258.141 231.045 257.841 230.64 257.481 230.25C253.746 232.71 248.526 235.215 244.401 236.7C243.831 235.515 242.736 233.715 241.761 232.71C245.886 231.705 251.196 229.59 254.616 227.49C254.226 227.19 253.776 226.875 253.341 226.575C250.401 227.805 247.236 228.81 244.206 229.56C243.681 228.555 242.496 226.575 241.746 225.615C246.441 224.655 251.406 223.065 255.396 221.01H248.331V216.525H271.866V221.01H266.031ZM246.711 213.855V218.985H241.581V209.07H257.391V204.72L264.021 205.065C263.976 205.5 263.676 205.77 262.836 205.905V209.07H278.991V218.985H273.591V213.855H246.726H246.711Z" fill="white"/>
<path d="M405.832 225.585H384.982V246.18H379.927V242.1C375.277 242.715 370.792 243.195 367.672 243.555C367.582 243.945 367.282 244.17 366.967 244.215L365.467 239.205L369.292 238.935V225.585H365.467V221.415H405.817V225.585H405.832ZM399.997 206.31V219.75H371.332V206.31H399.997ZM379.927 227.34V225.585H374.092V227.34H379.927ZM379.927 232.83V230.985H374.092V232.83H379.927ZM374.092 238.575L379.927 238.14V236.475H374.092V238.59V238.575ZM394.717 211.395V209.73H376.372V211.395H394.717ZM394.717 216.315V214.605H376.372V216.315H394.717ZM400.867 227.07L404.122 228.3C403.987 228.645 403.807 228.735 403.642 229.005C402.547 232.83 400.792 236.07 398.467 238.8C400.702 240.21 403.297 241.305 406.237 242.01C405.142 242.97 403.777 244.905 403.117 246.135C400.042 245.22 397.327 243.9 395.002 242.145C392.887 243.81 390.517 245.175 387.937 246.225C387.322 244.995 386.047 243.105 385.087 242.145C387.367 241.395 389.527 240.255 391.402 238.815C389.737 236.835 388.327 234.6 387.232 232.095L390.037 231.3H385.912V227.265H399.997L400.882 227.085L400.867 227.07ZM391.597 231.285C392.392 232.86 393.442 234.36 394.672 235.68C395.812 234.36 396.772 232.875 397.522 231.285H391.597Z" fill="white"/>
<path d="M485.21 222.075H469.445C472.04 231.165 477.125 238.05 486.17 241.08C484.895 242.22 483.185 244.59 482.345 246.135C473.915 242.835 468.905 236.79 465.71 228.315C463.295 235.515 458.555 241.965 448.985 246.18C448.19 244.68 446.615 242.76 445.115 241.575C455.825 237.225 459.95 230.115 461.495 222.09H445.955V216.645H462.245C462.545 212.745 462.515 208.74 462.545 204.795L469.52 205.23C469.43 205.71 469.04 206.025 468.29 206.16C468.245 209.535 468.2 213.09 467.9 216.645H485.195V222.09L485.21 222.075Z" fill="white"/>
<path d="M562.056 215.04L564.816 215.175C564.771 215.565 564.771 216.27 564.726 216.84C564.336 235.275 563.976 241.725 562.581 243.75C561.051 246.03 559.371 246.255 553.281 246.12C553.191 244.665 552.621 242.52 551.751 241.11C553.821 241.29 555.621 241.29 556.536 241.29C557.241 241.29 557.676 241.11 558.111 240.54C558.996 239.355 559.386 234.045 559.686 220.035H555.246C554.541 231.06 552.171 240.315 543.921 246.195C543.126 244.92 541.506 243.165 540.186 242.25C542.301 240.795 543.966 239.13 545.316 237.24C538.596 238.86 531.666 240.45 527.091 241.41C527.046 241.845 526.746 242.115 526.341 242.205L524.316 236.235C525.276 236.1 526.386 235.92 527.571 235.71V206.565H542.931V232.995L545.961 232.425L546.276 235.755C548.736 231.45 549.696 226.14 550.101 220.035H544.476V215.025H550.311C550.356 211.815 550.356 208.395 550.356 204.795L556.806 205.14C556.761 205.62 556.326 205.935 555.531 206.07C555.531 209.145 555.486 212.13 555.441 215.025H562.026L562.056 215.04ZM538.086 211.305H532.296V215.79H538.086V211.305ZM538.086 224.91V220.395H532.296V224.91H538.086ZM532.296 229.515V234.915C534.141 234.6 536.121 234.255 538.086 233.865V229.515H532.296Z" fill="white"/>
<path d="M640.823 213.9L643.898 214.125C643.898 214.56 643.853 215.4 643.808 215.97C643.238 234.315 642.668 240.945 640.868 243.18C639.248 245.325 637.448 245.895 632.798 245.895C631.703 245.895 630.563 245.85 629.423 245.805C629.288 244.23 628.538 241.77 627.488 240.225C630.248 240.45 632.798 240.45 633.983 240.45C634.868 240.45 635.348 240.315 635.873 239.745C637.103 238.47 637.718 232.635 638.153 219.24H625.643C624.938 228.465 621.863 239.34 609.398 246.375C608.513 245.055 606.548 243.045 605.273 242.115C616.298 236.1 619.238 227.01 619.973 219.24H606.623V213.93H620.183V204.795L626.993 205.185C626.948 205.62 626.603 205.935 625.808 206.07V213.93H639.593L640.823 213.885V213.9Z" fill="white"/>
</svg>
