<svg width="221" height="57" viewBox="0 0 221 57" fill="none" xmlns="http://www.w3.org/2000/svg">
<path d="M145.928 17.64V16.44L147.713 16.59C148.043 16.605 148.208 16.695 148.208 16.875C148.208 16.98 148.103 17.16 147.878 17.37V17.625H152.393V20.535H154.343V22.245H152.393V25.155H147.878V26.505H152.648V28.215H147.878V29.595H153.158V31.38H147.878V33.78C149.033 33.825 150.353 33.84 151.793 33.84C152.453 33.84 153.308 33.825 154.358 33.75L153.413 35.895C149.573 35.895 146.648 35.76 144.593 35.55C142.913 35.37 141.533 35.085 140.468 34.725C139.658 34.44 138.938 34.095 138.323 33.69C137.603 34.665 136.733 35.505 135.683 36.15L134.243 34.605C135.248 34.08 136.103 33.36 136.748 32.445C136.043 31.755 135.323 30.675 134.573 29.235L136.118 28.65C136.703 29.55 137.258 30.24 137.738 30.765C138.263 29.565 138.608 27.885 138.758 25.74H136.973L136.268 27.18L134.573 26.595L137.918 19.605H134.663V17.82H138.338L138.863 17.64C139.043 17.64 139.193 17.7 139.373 17.82L140.438 18.48C140.573 18.57 140.648 18.675 140.648 18.765C140.648 18.96 140.468 19.155 140.123 19.35L137.858 23.955H140.648C140.513 27.45 140.108 30.045 139.403 31.71C139.358 31.845 139.298 31.95 139.253 32.04C140.213 32.655 141.293 33.075 142.493 33.285C143.258 33.48 144.413 33.615 145.943 33.705V31.395H140.663V29.61H145.943V28.23H141.338V26.52H145.943V25.17H141.833V23.46H145.943V22.26H140.048V20.55H145.943V19.35H141.833V17.64H145.943H145.928ZM147.893 20.55H150.533V19.35H147.893V20.55ZM147.893 23.46H150.533V22.26H147.893V23.46Z" fill="white"/>
<path d="M164.273 19.695V21.405H156.413V19.695H164.273ZM163.838 28.905V35.805H162.038V34.785H158.723V35.985H156.938V28.905H163.838ZM163.418 22.83V24.45H157.163V22.83H163.418ZM163.418 25.725V27.345H157.163V25.725H163.418ZM163.328 16.77V18.39H157.253V16.77H163.328ZM162.038 33.15V30.51H158.723V33.15H162.038ZM172.463 16.86V21.555C172.463 22.185 172.553 22.5 172.748 22.5H173.858C173.963 22.5 174.083 22.44 174.158 22.275C174.248 22.095 174.353 21.45 174.488 20.265L176.273 20.85C175.973 22.335 175.613 23.28 175.253 23.625C174.848 24.015 174.293 24.195 173.543 24.195H172.568C171.233 24.195 170.573 23.46 170.573 21.975V18.48H167.948C167.858 20.055 167.663 21.21 167.363 21.96C166.973 22.86 166.298 23.775 165.353 24.72L163.913 23.52C164.783 22.77 165.353 22.035 165.668 21.33C165.968 20.76 166.148 19.275 166.148 16.875H172.463V16.86ZM172.643 25.545C172.853 25.365 173.018 25.29 173.063 25.29C173.198 25.29 173.348 25.38 173.483 25.515L174.488 26.46C174.623 26.595 174.683 26.715 174.683 26.85C174.683 26.985 174.488 27.15 174.098 27.345C173.273 29.73 172.343 31.47 171.338 32.565C172.523 33.18 174.128 33.675 176.138 34.095L174.938 35.97C172.838 35.4 171.158 34.725 169.853 33.9C168.668 34.725 167.168 35.4 165.368 35.97L164.093 34.275C165.383 33.99 166.433 33.66 167.228 33.285C167.618 33.105 167.963 32.91 168.293 32.685C167.288 31.725 166.253 30.42 165.218 28.71L166.568 27.855C167.573 29.445 168.638 30.675 169.733 31.53C169.883 31.35 170.033 31.185 170.168 31.005C170.828 30.18 171.443 28.935 171.998 27.255H165.533V25.545H172.628H172.643Z" fill="white"/>
<path d="M180.653 20.97V16.185L182.318 16.32C182.618 16.335 182.768 16.41 182.768 16.53C182.768 16.635 182.663 16.815 182.438 17.055V20.97H184.148V22.68H182.438V23.415C183.068 24.72 183.818 25.815 184.643 26.685L183.383 28.035C183.038 27.51 182.723 26.97 182.438 26.37V36.075H180.638V27.465C180.248 28.68 179.828 29.82 179.348 30.855L177.638 29.76C178.328 28.71 178.943 27.6 179.468 26.4C179.768 25.68 180.173 24.615 180.623 23.175V22.665H178.223V20.955H180.623L180.653 20.97ZM195.668 16.98C195.833 17.07 195.923 17.16 195.923 17.22C195.923 17.355 195.788 17.475 195.578 17.565L193.853 20.445C194.198 20.73 194.528 20.985 194.843 21.255L196.028 19.185L197.273 19.965C197.408 20.055 197.468 20.16 197.468 20.295C197.468 20.43 197.333 20.505 197.123 20.55L194.933 24.03C195.353 23.97 195.773 23.88 196.163 23.79C196.058 23.49 195.938 23.175 195.863 22.86L197.213 22.53C197.693 23.745 198.038 24.885 198.248 25.935L196.718 26.265C196.673 25.875 196.583 25.47 196.493 25.065C195.683 25.305 194.588 25.59 193.223 25.935C193.088 26.115 192.983 26.19 192.878 26.19C192.773 26.19 192.713 26.1 192.713 25.935L192.383 24.39C192.638 24.375 192.878 24.345 193.148 24.3L194.153 22.56C193.403 21.93 192.608 21.315 191.768 20.73C191.873 23.22 192.113 25.425 192.518 27.3H194.333C194.168 27.12 194.003 26.97 193.838 26.79L194.873 25.935C195.353 26.31 195.818 26.76 196.268 27.285H198.038V28.92H192.908C193.148 29.82 193.433 30.6 193.733 31.275C194.183 30.705 194.633 30.045 195.038 29.325L196.463 30.105C196.598 30.195 196.658 30.3 196.658 30.435C196.658 30.57 196.508 30.6 196.253 30.6C195.623 31.515 195.053 32.28 194.573 32.85C194.663 33.03 194.768 33.15 194.858 33.285C195.248 33.825 195.608 34.095 195.908 34.095C196.118 34.095 196.478 33.345 196.943 31.86L198.293 32.97C197.393 35.115 196.628 36.21 195.998 36.21C195.368 36.21 194.603 35.625 193.688 34.485C193.583 34.335 193.493 34.2 193.403 34.065C193.118 34.305 192.833 34.53 192.578 34.74C191.918 35.205 191.063 35.655 190.013 36.135L188.828 34.665C189.968 34.275 190.883 33.855 191.603 33.33C191.933 33.09 192.233 32.835 192.518 32.565C191.978 31.485 191.513 30.27 191.168 28.875H188.063C188.003 29.415 187.928 29.91 187.868 30.345C188.828 31.05 189.773 31.845 190.703 32.79L189.233 33.735C188.663 33.075 188.078 32.46 187.463 31.92V31.965C187.163 32.865 186.803 33.63 186.413 34.26C186.083 34.77 185.693 35.265 185.228 35.79L183.593 34.77C184.058 34.335 184.403 33.96 184.673 33.615C185.153 32.955 185.543 32.22 185.873 31.335C186.083 30.675 186.263 29.85 186.398 28.89H184.628V27.255H190.793C190.313 24.585 190.088 20.88 190.088 16.095L191.663 16.38C191.858 16.425 191.978 16.485 191.978 16.605C191.978 16.755 191.888 16.935 191.708 17.1C191.708 18.15 191.738 19.125 191.768 20.085L192.398 19.32C192.533 19.41 192.638 19.5 192.743 19.56L194.513 16.32L195.713 16.935L195.668 16.98ZM188.483 16.98C188.663 17.07 188.768 17.16 188.768 17.22C188.768 17.355 188.633 17.475 188.423 17.565L186.533 20.43C186.833 20.655 187.103 20.865 187.343 21.06L188.588 19.185L189.833 19.965C189.968 20.055 190.028 20.16 190.028 20.295C190.028 20.43 189.923 20.505 189.698 20.55L186.938 24.24C187.418 24.195 187.883 24.135 188.363 24.06C188.273 23.76 188.213 23.43 188.138 23.1L189.428 22.755C189.773 24.03 190.043 25.185 190.193 26.25L188.753 26.595C188.708 26.205 188.663 25.815 188.603 25.365C187.718 25.545 186.503 25.755 185.003 25.995C184.868 26.175 184.763 26.235 184.658 26.235C184.553 26.235 184.493 26.175 184.493 25.995L184.163 24.45C184.493 24.45 184.823 24.42 185.153 24.375L186.548 22.26C185.783 21.645 184.958 21.06 184.088 20.445L185.018 19.335C185.153 19.425 185.258 19.515 185.393 19.59L187.313 16.335L188.498 16.95L188.483 16.98Z" fill="white"/>
<path d="M202.748 20.37V16.11L204.413 16.215C204.713 16.23 204.893 16.305 204.893 16.44C204.893 16.575 204.758 16.74 204.548 16.965V20.37H206.693V22.08H204.578C205.283 24.105 206.153 25.77 207.203 27.045L205.928 28.395C205.433 27.525 204.968 26.61 204.548 25.605V36.24H202.763V25.95C202.673 26.25 202.613 26.52 202.568 26.76C202.223 28.2 201.848 29.52 201.413 30.72L199.613 29.52C200.228 28.47 200.753 27.315 201.203 26.07C201.503 25.2 201.893 23.88 202.388 22.095H200.033V20.385H202.763L202.748 20.37ZM210.083 17.91V16.11L211.748 16.215C212.048 16.23 212.228 16.305 212.228 16.44C212.228 16.575 212.108 16.74 211.883 16.965V17.91H214.703V16.11L216.368 16.215C216.683 16.23 216.848 16.305 216.848 16.44C216.848 16.575 216.713 16.74 216.503 16.965V17.91H219.233V19.44H216.503V20.64H218.648V22.08H216.503V23.28H219.908V24.81H214.388V25.845H218.648V31.395H220.178V32.925H218.648V34.38C218.648 35.205 218.138 35.76 217.148 36.015C216.353 36.21 215.573 36.315 214.808 36.315L214.133 34.53H216.053C216.578 34.47 216.863 34.245 216.863 33.855V32.925H210.113V36.09H208.328V32.925H206.213V31.395H208.328V25.845H212.603V24.81H206.708V23.28H210.113V22.08H208.058V20.64H210.113V19.44H207.293V17.91H210.113H210.083ZM212.573 28.74V27.36H210.083V28.74H212.573ZM212.573 31.38V30.18H210.083V31.38H212.573ZM214.688 19.425H211.868V20.625H214.688V19.425ZM214.688 22.065H211.868V23.265H214.688V22.065ZM214.358 28.725H216.833V27.345H214.358V28.725ZM214.358 31.365H216.833V30.165H214.358V31.365Z" fill="white"/>
<path d="M135.173 43.23C135.293 43.155 135.368 43.035 135.428 42.9C135.488 42.75 135.518 42.585 135.533 42.39C135.548 42.195 135.563 41.97 135.563 41.73V40.02C135.563 39.75 135.563 39.48 135.548 39.225C135.548 38.955 135.533 38.7 135.518 38.43C135.578 38.43 135.638 38.43 135.683 38.445C135.743 38.445 135.788 38.445 135.848 38.445C135.908 38.445 135.953 38.445 136.013 38.445C136.058 38.445 136.118 38.445 136.178 38.43C136.178 38.7 136.148 38.97 136.133 39.225C136.133 39.48 136.118 39.75 136.118 40.02C136.118 40.215 136.118 40.395 136.118 40.59C136.118 40.785 136.118 40.98 136.118 41.175C136.118 41.37 136.118 41.55 136.118 41.73C136.118 41.91 136.118 42.075 136.118 42.225C136.118 42.405 136.088 42.585 136.028 42.735C135.953 42.885 135.863 43.02 135.743 43.14C135.623 43.26 135.473 43.35 135.308 43.425C135.143 43.5 134.948 43.53 134.753 43.53L134.693 43.35C134.888 43.35 135.038 43.305 135.143 43.23H135.173Z" fill="white"/>
<path d="M137.483 38.43C137.483 38.43 137.633 38.34 137.723 38.34C137.813 38.34 137.903 38.37 137.963 38.43C138.038 38.49 138.068 38.565 138.068 38.655C138.068 38.745 138.038 38.82 137.963 38.88C137.888 38.94 137.813 38.97 137.723 38.97C137.633 38.97 137.543 38.94 137.483 38.88C137.423 38.82 137.378 38.745 137.378 38.655C137.378 38.565 137.408 38.49 137.483 38.43ZM137.468 40.305C137.468 40.095 137.453 39.915 137.423 39.735C137.543 39.75 137.648 39.765 137.723 39.765C137.798 39.765 137.903 39.765 138.023 39.735C138.008 39.915 137.993 40.095 137.978 40.305C137.978 40.515 137.978 40.71 137.978 40.89V41.535C137.978 41.715 137.978 41.91 137.978 42.12C137.978 42.33 138.008 42.51 138.023 42.675C137.918 42.675 137.813 42.675 137.723 42.675C137.633 42.675 137.528 42.675 137.423 42.675C137.438 42.51 137.453 42.33 137.468 42.12C137.468 41.91 137.468 41.715 137.468 41.535V40.89C137.468 40.71 137.468 40.515 137.468 40.305Z" fill="white"/>
<path d="M141.218 40.23C141.083 40.065 140.903 39.99 140.678 39.99C140.363 39.99 140.123 40.08 139.988 40.245C139.838 40.425 139.763 40.665 139.763 40.995V41.52C139.763 41.7 139.763 41.895 139.763 42.105C139.763 42.315 139.793 42.495 139.808 42.66C139.703 42.66 139.598 42.66 139.508 42.66C139.418 42.66 139.313 42.66 139.208 42.66C139.223 42.495 139.253 42.315 139.253 42.105C139.253 41.895 139.253 41.7 139.253 41.52V40.875C139.253 40.695 139.253 40.5 139.253 40.29C139.253 40.08 139.238 39.9 139.208 39.72C139.343 39.735 139.433 39.75 139.508 39.75C139.538 39.75 139.583 39.75 139.628 39.75C139.673 39.75 139.718 39.75 139.778 39.72C139.763 39.885 139.763 40.05 139.763 40.215C139.898 40.035 140.048 39.9 140.228 39.795C140.393 39.705 140.618 39.645 140.858 39.645C140.978 39.645 141.113 39.66 141.248 39.69C141.383 39.72 141.488 39.78 141.593 39.855C141.698 39.93 141.788 40.05 141.848 40.185C141.908 40.32 141.953 40.5 141.953 40.71C141.953 40.89 141.953 41.07 141.953 41.265C141.953 41.445 141.953 41.655 141.953 41.865V42.27C141.953 42.27 141.953 42.39 141.953 42.465C141.953 42.525 141.953 42.585 141.953 42.645C141.863 42.645 141.758 42.645 141.668 42.645C141.578 42.645 141.473 42.645 141.383 42.645C141.383 42.435 141.398 42.21 141.413 41.985C141.413 41.76 141.428 41.52 141.428 41.28V40.905C141.428 40.59 141.368 40.365 141.233 40.2L141.218 40.23Z" fill="white"/>
<path d="M142.898 40.23C142.973 40.11 143.063 40.005 143.183 39.915C143.303 39.84 143.438 39.765 143.603 39.735C143.753 39.69 143.918 39.675 144.098 39.675C144.188 39.675 144.263 39.675 144.353 39.675C144.428 39.675 144.533 39.675 144.653 39.69C144.758 39.69 144.848 39.705 144.938 39.705C145.013 39.705 145.088 39.705 145.133 39.705C145.388 39.705 145.568 39.705 145.688 39.675C145.688 39.69 145.688 39.72 145.688 39.735C145.688 39.75 145.688 39.78 145.688 39.795C145.688 39.81 145.688 39.84 145.688 39.855C145.688 39.885 145.688 39.9 145.688 39.915C145.553 39.915 145.433 39.915 145.298 39.9C145.178 39.9 145.043 39.885 144.923 39.87C145.058 39.945 145.178 40.065 145.268 40.2C145.358 40.35 145.388 40.5 145.388 40.65C145.388 40.965 145.268 41.205 145.043 41.37C144.818 41.55 144.503 41.64 144.113 41.64C144.053 41.64 143.993 41.64 143.918 41.64C143.858 41.64 143.798 41.64 143.738 41.64C143.663 41.64 143.588 41.67 143.513 41.73C143.438 41.79 143.408 41.85 143.408 41.94C143.408 42.045 143.438 42.12 143.498 42.18C143.558 42.225 143.663 42.255 143.813 42.255C143.948 42.255 144.068 42.255 144.188 42.255C144.308 42.255 144.428 42.255 144.563 42.255C144.773 42.255 144.953 42.285 145.103 42.33C145.253 42.375 145.373 42.42 145.463 42.495C145.553 42.57 145.628 42.645 145.673 42.735C145.718 42.825 145.733 42.93 145.733 43.035C145.733 43.185 145.703 43.32 145.643 43.47C145.583 43.62 145.478 43.755 145.358 43.875C145.223 43.995 145.058 44.085 144.863 44.175C144.668 44.25 144.413 44.295 144.128 44.295C143.693 44.295 143.348 44.22 143.093 44.055C142.838 43.89 142.718 43.68 142.718 43.41C142.718 43.305 142.748 43.2 142.778 43.11C142.823 43.02 142.883 42.945 142.943 42.87C143.018 42.795 143.093 42.75 143.183 42.705C143.273 42.66 143.348 42.63 143.438 42.615C143.303 42.57 143.198 42.51 143.123 42.42C143.048 42.33 143.018 42.225 143.018 42.105C143.018 42.03 143.018 41.97 143.063 41.91C143.093 41.85 143.123 41.805 143.168 41.76C143.213 41.715 143.258 41.685 143.318 41.64C143.378 41.61 143.438 41.595 143.483 41.58C143.273 41.49 143.108 41.37 142.988 41.22C142.868 41.07 142.808 40.875 142.808 40.65C142.808 40.485 142.838 40.335 142.913 40.2L142.898 40.23ZM144.968 42.81C144.803 42.705 144.548 42.66 144.173 42.66C143.843 42.66 143.573 42.705 143.393 42.81C143.198 42.915 143.108 43.095 143.108 43.35C143.108 43.485 143.138 43.605 143.183 43.71C143.243 43.815 143.303 43.89 143.393 43.95C143.483 44.01 143.588 44.055 143.708 44.085C143.828 44.115 143.963 44.13 144.113 44.13C144.248 44.13 144.383 44.115 144.503 44.085C144.638 44.055 144.758 44.01 144.863 43.935C144.968 43.875 145.043 43.785 145.103 43.68C145.163 43.575 145.193 43.455 145.193 43.32C145.193 43.08 145.118 42.9 144.953 42.795L144.968 42.81ZM144.638 40.05C144.503 39.915 144.323 39.855 144.098 39.855C143.858 39.855 143.663 39.93 143.528 40.08C143.393 40.23 143.318 40.425 143.318 40.68C143.318 40.935 143.378 41.145 143.513 41.295C143.633 41.445 143.828 41.52 144.098 41.52C144.233 41.52 144.338 41.49 144.443 41.445C144.533 41.4 144.608 41.34 144.668 41.25C144.728 41.175 144.773 41.07 144.803 40.965C144.833 40.86 144.848 40.755 144.848 40.635C144.848 40.38 144.773 40.17 144.653 40.035L144.638 40.05Z" fill="white"/>
<path d="M147.833 41.04V41.43H146.138V41.04H147.833Z" fill="white"/>
<path d="M148.763 39.225C148.763 38.955 148.748 38.7 148.733 38.43C148.898 38.43 149.078 38.43 149.243 38.445C149.408 38.445 149.588 38.445 149.753 38.445C149.918 38.445 150.098 38.445 150.263 38.445C150.428 38.445 150.608 38.445 150.773 38.445C151.178 38.445 151.523 38.49 151.793 38.595C152.078 38.685 152.318 38.82 152.498 39C152.678 39.18 152.813 39.39 152.903 39.645C152.978 39.9 153.023 40.185 153.023 40.5C153.023 40.92 152.948 41.265 152.783 41.55C152.633 41.835 152.423 42.06 152.183 42.24C151.943 42.405 151.673 42.54 151.388 42.615C151.088 42.69 150.818 42.72 150.548 42.72C150.398 42.72 150.233 42.72 150.083 42.72C149.933 42.72 149.783 42.72 149.633 42.72H149.183C149.033 42.72 148.883 42.72 148.733 42.72C148.748 42.465 148.763 42.21 148.763 41.94C148.763 41.67 148.778 41.4 148.778 41.13V40.065C148.778 39.795 148.778 39.525 148.763 39.27V39.225ZM149.378 42.405C149.468 42.42 149.603 42.435 149.768 42.45C149.933 42.45 150.098 42.45 150.263 42.45C150.518 42.45 150.758 42.42 151.013 42.375C151.268 42.33 151.493 42.225 151.688 42.075C151.883 41.925 152.048 41.715 152.168 41.46C152.288 41.205 152.363 40.875 152.363 40.455C152.363 40.095 152.318 39.795 152.213 39.57C152.123 39.345 151.988 39.15 151.808 39.015C151.643 38.88 151.433 38.79 151.193 38.745C150.953 38.7 150.698 38.67 150.413 38.67C150.218 38.67 150.023 38.67 149.843 38.685C149.663 38.685 149.513 38.715 149.363 38.73C149.363 38.925 149.333 39.135 149.333 39.345C149.333 39.555 149.333 39.78 149.333 40.005V41.07C149.333 41.52 149.333 41.955 149.378 42.375V42.405Z" fill="white"/>
<path d="M153.938 41.175C153.938 41.025 153.938 40.875 153.938 40.71C153.938 40.545 153.938 40.41 153.938 40.245C153.938 40.08 153.938 39.9 153.938 39.735C154.058 39.75 154.148 39.765 154.223 39.765C154.298 39.765 154.388 39.765 154.508 39.735C154.493 39.975 154.463 40.26 154.463 40.545C154.463 40.845 154.448 41.145 154.448 41.445C154.448 41.655 154.463 41.82 154.508 41.94C154.553 42.06 154.598 42.135 154.658 42.195C154.718 42.255 154.808 42.315 154.898 42.36C154.988 42.405 155.108 42.435 155.243 42.435C155.438 42.435 155.588 42.39 155.723 42.315C155.858 42.24 155.948 42.15 155.993 42.03C156.023 41.955 156.053 41.895 156.068 41.85C156.083 41.805 156.098 41.73 156.113 41.655C156.113 41.58 156.128 41.46 156.128 41.325V39.975C156.128 39.885 156.128 39.81 156.128 39.735C156.173 39.735 156.218 39.75 156.263 39.765C156.308 39.765 156.353 39.765 156.398 39.765C156.443 39.765 156.488 39.765 156.533 39.765C156.578 39.765 156.623 39.765 156.668 39.735C156.653 40.05 156.638 40.365 156.623 40.665C156.623 40.965 156.623 41.28 156.623 41.61C156.623 41.79 156.623 41.97 156.623 42.15C156.623 42.33 156.623 42.495 156.638 42.66C156.548 42.66 156.458 42.66 156.368 42.66C156.278 42.66 156.188 42.66 156.098 42.66C156.098 42.63 156.098 42.585 156.098 42.54C156.098 42.495 156.098 42.45 156.098 42.405V42.135H156.083C155.963 42.33 155.813 42.48 155.633 42.57C155.438 42.66 155.243 42.705 155.033 42.705C154.673 42.705 154.403 42.615 154.208 42.45C153.998 42.285 153.908 42.03 153.908 41.715C153.908 41.505 153.908 41.31 153.908 41.16L153.938 41.175Z" fill="white"/>
<path d="M163.073 42.525C162.983 42.57 162.878 42.6 162.758 42.63C162.638 42.66 162.503 42.69 162.338 42.72C162.188 42.735 162.023 42.75 161.858 42.75C161.498 42.75 161.168 42.705 160.868 42.615C160.568 42.525 160.298 42.375 160.073 42.195C159.863 42.015 159.683 41.775 159.563 41.505C159.443 41.235 159.383 40.92 159.383 40.56C159.383 40.2 159.443 39.9 159.563 39.63C159.683 39.36 159.863 39.12 160.088 38.925C160.313 38.73 160.583 38.595 160.898 38.49C161.213 38.385 161.558 38.34 161.933 38.34C162.233 38.34 162.503 38.37 162.758 38.415C162.998 38.475 163.223 38.535 163.418 38.625C163.373 38.685 163.343 38.76 163.328 38.865C163.313 38.97 163.283 39.045 163.283 39.105H163.238C163.238 39.105 163.133 39.015 163.043 38.955C162.968 38.895 162.863 38.835 162.758 38.775C162.653 38.715 162.533 38.67 162.398 38.625C162.263 38.58 162.113 38.565 161.948 38.565C161.678 38.565 161.423 38.61 161.198 38.685C160.973 38.76 160.763 38.88 160.598 39.045C160.433 39.21 160.298 39.405 160.193 39.66C160.103 39.915 160.058 40.2 160.058 40.545C160.058 40.89 160.103 41.19 160.193 41.43C160.283 41.685 160.418 41.895 160.598 42.045C160.763 42.21 160.958 42.33 161.198 42.405C161.423 42.48 161.678 42.525 161.948 42.525C162.113 42.525 162.263 42.51 162.398 42.465C162.533 42.435 162.668 42.39 162.773 42.33C162.893 42.285 162.998 42.225 163.088 42.165C163.178 42.105 163.253 42.06 163.328 42.015L163.358 42.045L163.298 42.405C163.298 42.405 163.193 42.48 163.103 42.51L163.073 42.525Z" fill="white"/>
<path d="M164.003 40.5C164.093 40.305 164.228 40.14 164.378 40.02C164.543 39.9 164.723 39.81 164.918 39.75C165.113 39.69 165.308 39.66 165.503 39.66C165.698 39.66 165.894 39.69 166.089 39.75C166.284 39.81 166.463 39.885 166.628 40.02C166.793 40.14 166.913 40.305 167.018 40.5C167.108 40.695 167.168 40.935 167.168 41.22C167.168 41.505 167.123 41.73 167.018 41.925C166.913 42.12 166.793 42.285 166.628 42.405C166.478 42.525 166.299 42.615 166.089 42.66C165.894 42.705 165.698 42.735 165.503 42.735C165.308 42.735 165.113 42.705 164.918 42.66C164.723 42.615 164.543 42.525 164.378 42.405C164.228 42.285 164.093 42.12 164.003 41.925C163.898 41.73 163.854 41.49 163.854 41.22C163.854 40.95 163.898 40.695 164.003 40.5ZM164.499 41.715C164.529 41.88 164.588 42.015 164.678 42.15C164.753 42.27 164.873 42.375 165.008 42.45C165.143 42.525 165.308 42.57 165.518 42.57C165.728 42.57 165.879 42.525 166.014 42.45C166.149 42.375 166.253 42.27 166.343 42.15C166.433 42.03 166.478 41.88 166.523 41.715C166.553 41.55 166.569 41.385 166.569 41.22C166.569 41.055 166.553 40.875 166.523 40.725C166.493 40.56 166.433 40.425 166.343 40.29C166.268 40.17 166.164 40.065 166.014 39.99C165.879 39.915 165.713 39.885 165.518 39.885C165.323 39.885 165.143 39.915 165.008 39.99C164.873 40.065 164.768 40.17 164.678 40.29C164.603 40.41 164.544 40.56 164.499 40.725C164.469 40.89 164.453 41.055 164.453 41.22C164.453 41.385 164.469 41.565 164.499 41.715Z" fill="white"/>
<path d="M169.928 40.23C169.793 40.065 169.613 39.99 169.388 39.99C169.073 39.99 168.833 40.08 168.683 40.245C168.533 40.425 168.458 40.665 168.458 40.995V41.52C168.458 41.7 168.458 41.895 168.458 42.105C168.458 42.315 168.473 42.495 168.503 42.66C168.398 42.66 168.293 42.66 168.188 42.66C168.083 42.66 167.993 42.66 167.888 42.66C167.903 42.495 167.918 42.315 167.933 42.105C167.933 41.895 167.933 41.7 167.933 41.52V40.875C167.933 40.695 167.933 40.5 167.933 40.29C167.933 40.08 167.918 39.9 167.888 39.72C168.008 39.735 168.113 39.75 168.188 39.75C168.218 39.75 168.263 39.75 168.308 39.75C168.353 39.75 168.398 39.75 168.458 39.72C168.458 39.885 168.443 40.05 168.443 40.215C168.578 40.035 168.728 39.9 168.893 39.795C169.073 39.705 169.283 39.645 169.538 39.645C169.658 39.645 169.793 39.66 169.928 39.69C170.063 39.72 170.168 39.78 170.273 39.855C170.378 39.93 170.468 40.05 170.528 40.185C170.603 40.32 170.633 40.5 170.633 40.71C170.633 40.89 170.633 41.07 170.633 41.265C170.633 41.445 170.633 41.655 170.633 41.865V42.27C170.633 42.27 170.633 42.39 170.633 42.465C170.633 42.525 170.633 42.585 170.633 42.645C170.543 42.645 170.438 42.645 170.348 42.645C170.258 42.645 170.153 42.645 170.063 42.645C170.063 42.435 170.078 42.21 170.093 41.985C170.093 41.76 170.108 41.52 170.108 41.28V40.905C170.108 40.59 170.048 40.365 169.913 40.2L169.928 40.23Z" fill="white"/>
<path d="M171.758 42.225C171.758 42.225 171.863 42.315 171.923 42.36C171.983 42.405 172.058 42.435 172.148 42.465C172.238 42.495 172.328 42.51 172.418 42.51C172.508 42.51 172.583 42.51 172.658 42.465C172.733 42.435 172.808 42.405 172.868 42.36C172.928 42.315 172.988 42.255 173.018 42.195C173.063 42.12 173.078 42.045 173.078 41.955C173.078 41.82 173.033 41.73 172.958 41.655C172.883 41.58 172.778 41.535 172.658 41.49C172.538 41.445 172.418 41.415 172.268 41.37C172.133 41.34 171.998 41.295 171.878 41.235C171.758 41.175 171.668 41.1 171.578 40.995C171.503 40.89 171.458 40.755 171.458 40.59C171.458 40.455 171.488 40.32 171.533 40.215C171.578 40.095 171.653 40.005 171.758 39.915C171.848 39.84 171.968 39.765 172.103 39.72C172.238 39.675 172.403 39.645 172.583 39.645C172.748 39.645 172.898 39.66 173.003 39.705C173.123 39.75 173.228 39.78 173.333 39.81C173.288 39.87 173.258 39.945 173.228 40.035C173.198 40.125 173.183 40.2 173.168 40.245H173.093C173.063 40.155 172.988 40.065 172.883 39.975C172.778 39.9 172.643 39.855 172.493 39.855C172.433 39.855 172.358 39.855 172.283 39.885C172.223 39.915 172.148 39.945 172.103 39.975C172.043 40.02 171.998 40.065 171.968 40.14C171.923 40.2 171.908 40.275 171.908 40.365C171.908 40.5 171.953 40.605 172.028 40.665C172.103 40.74 172.208 40.8 172.328 40.83C172.448 40.875 172.568 40.905 172.718 40.935C172.853 40.965 172.988 41.01 173.108 41.07C173.228 41.13 173.318 41.205 173.408 41.295C173.483 41.4 173.528 41.535 173.528 41.7C173.528 41.82 173.498 41.94 173.438 42.06C173.378 42.18 173.303 42.27 173.198 42.375C173.093 42.465 172.973 42.54 172.808 42.585C172.658 42.645 172.493 42.66 172.298 42.66C172.088 42.66 171.908 42.645 171.773 42.6C171.638 42.57 171.518 42.525 171.413 42.465C171.443 42.405 171.473 42.33 171.503 42.24C171.533 42.15 171.548 42.075 171.548 42.015H171.623C171.623 42.015 171.683 42.105 171.728 42.15L171.758 42.225Z" fill="white"/>
<path d="M174.953 38.895C174.953 39.045 174.924 39.21 174.924 39.36C174.924 39.51 174.908 39.66 174.893 39.81C174.938 39.81 175.028 39.81 175.178 39.81C175.313 39.81 175.463 39.81 175.628 39.81C175.628 39.81 175.628 39.84 175.628 39.885V40.02C175.628 40.02 175.628 40.065 175.628 40.08C175.568 40.08 175.508 40.08 175.448 40.08C175.388 40.08 175.313 40.08 175.238 40.08H174.909C174.909 40.08 174.908 40.155 174.893 40.275C174.893 40.395 174.893 40.53 174.878 40.68C174.878 40.845 174.878 41.01 174.878 41.175C174.878 41.355 174.878 41.505 174.878 41.64C174.878 41.76 174.878 41.88 174.878 41.985C174.878 42.09 174.908 42.195 174.938 42.285C174.968 42.375 175.029 42.45 175.104 42.495C175.179 42.555 175.283 42.57 175.418 42.57C175.448 42.57 175.509 42.57 175.569 42.57C175.629 42.57 175.673 42.555 175.733 42.54V42.69C175.658 42.69 175.569 42.72 175.479 42.735C175.389 42.75 175.298 42.765 175.208 42.765C174.923 42.765 174.713 42.705 174.578 42.57C174.443 42.435 174.368 42.255 174.368 42C174.368 41.895 174.368 41.775 174.368 41.64C174.368 41.505 174.368 41.37 174.383 41.22C174.383 41.07 174.398 40.89 174.398 40.71C174.398 40.515 174.398 40.32 174.398 40.08H174.188C174.188 40.08 174.114 40.08 174.069 40.08C174.024 40.08 173.993 40.08 173.933 40.08C173.933 40.05 173.933 40.035 173.933 40.005C173.933 39.975 173.933 39.96 173.933 39.93C173.933 39.915 173.933 39.885 173.933 39.87C173.933 39.855 173.933 39.825 173.933 39.81C174.128 39.81 174.278 39.825 174.383 39.825C174.383 39.735 174.383 39.645 174.383 39.51C174.383 39.39 174.383 39.255 174.368 39.135L174.938 38.925H174.968L174.953 38.895Z" fill="white"/>
<path d="M177.653 40.17C177.653 40.17 177.518 40.14 177.458 40.14C177.353 40.14 177.249 40.17 177.174 40.215C177.084 40.26 177.008 40.32 176.948 40.395C176.888 40.47 176.843 40.56 176.813 40.665C176.783 40.77 176.768 40.875 176.768 41.01V41.685C176.768 41.955 176.768 42.18 176.768 42.315C176.768 42.465 176.769 42.585 176.799 42.66C176.709 42.66 176.619 42.66 176.514 42.66C176.409 42.66 176.319 42.66 176.229 42.66C176.244 42.525 176.243 42.33 176.258 42.09C176.258 41.85 176.258 41.55 176.258 41.205V41.01C176.258 40.845 176.258 40.665 176.258 40.455C176.258 40.245 176.259 40.005 176.229 39.735C176.274 39.735 176.333 39.75 176.363 39.765C176.408 39.765 176.454 39.765 176.499 39.765C176.544 39.765 176.588 39.765 176.633 39.765C176.678 39.765 176.724 39.765 176.784 39.735C176.754 39.885 176.753 40.005 176.753 40.095C176.753 40.185 176.753 40.26 176.753 40.335C177.023 39.9 177.323 39.675 177.653 39.675C177.698 39.675 177.728 39.675 177.758 39.675C177.788 39.675 177.833 39.675 177.878 39.705C177.863 39.75 177.848 39.825 177.833 39.93C177.833 40.035 177.833 40.125 177.833 40.2L177.788 40.23C177.788 40.23 177.713 40.185 177.653 40.155V40.17Z" fill="white"/>
<path d="M178.508 41.175C178.508 41.025 178.508 40.875 178.508 40.71C178.508 40.545 178.508 40.41 178.508 40.245C178.508 40.08 178.508 39.9 178.508 39.735C178.613 39.75 178.718 39.765 178.793 39.765C178.868 39.765 178.958 39.765 179.063 39.735C179.048 39.975 179.033 40.26 179.018 40.545C179.018 40.845 179.003 41.145 179.003 41.445C179.003 41.655 179.018 41.82 179.063 41.94C179.108 42.06 179.153 42.135 179.213 42.195C179.273 42.255 179.348 42.315 179.453 42.36C179.543 42.405 179.663 42.435 179.798 42.435C179.993 42.435 180.143 42.39 180.278 42.315C180.398 42.24 180.503 42.15 180.548 42.03C180.578 41.955 180.608 41.895 180.623 41.85C180.638 41.805 180.653 41.73 180.668 41.655C180.668 41.58 180.683 41.46 180.683 41.325C180.683 41.19 180.683 40.995 180.683 40.755V40.245C180.683 40.155 180.683 40.065 180.683 39.99C180.683 39.9 180.683 39.825 180.683 39.75C180.728 39.75 180.788 39.765 180.818 39.78C180.863 39.78 180.908 39.78 180.953 39.78C180.998 39.78 181.058 39.78 181.103 39.78C181.148 39.78 181.193 39.78 181.238 39.75C181.208 40.065 181.208 40.38 181.193 40.68C181.193 40.98 181.193 41.295 181.193 41.625C181.193 41.805 181.193 41.985 181.193 42.165C181.193 42.345 181.193 42.51 181.223 42.675C181.133 42.675 181.043 42.675 180.953 42.675C180.863 42.675 180.773 42.675 180.683 42.675C180.683 42.645 180.683 42.6 180.683 42.555C180.683 42.51 180.683 42.465 180.683 42.42V42.15C180.563 42.345 180.413 42.495 180.233 42.585C180.053 42.675 179.843 42.72 179.633 42.72C179.273 42.72 179.003 42.63 178.808 42.465C178.598 42.3 178.508 42.045 178.508 41.73C178.508 41.52 178.508 41.325 178.508 41.175Z" fill="white"/>
<path d="M182.198 40.515C182.303 40.32 182.423 40.17 182.588 40.035C182.753 39.9 182.933 39.81 183.143 39.75C183.353 39.69 183.563 39.66 183.788 39.66C184.043 39.66 184.253 39.69 184.463 39.75C184.658 39.81 184.793 39.87 184.883 39.945C184.853 40.005 184.823 40.065 184.793 40.14C184.763 40.2 184.748 40.275 184.733 40.35H184.673C184.673 40.35 184.598 40.245 184.538 40.185C184.493 40.125 184.418 40.08 184.343 40.035C184.268 39.99 184.193 39.945 184.088 39.915C183.998 39.885 183.893 39.87 183.788 39.87C183.593 39.87 183.413 39.9 183.263 39.975C183.113 40.05 182.993 40.14 182.903 40.26C182.813 40.38 182.738 40.515 182.708 40.68C182.663 40.845 182.648 41.01 182.648 41.205C182.648 41.625 182.753 41.955 182.948 42.165C183.143 42.39 183.443 42.495 183.833 42.495C183.923 42.495 184.013 42.495 184.103 42.465C184.193 42.435 184.298 42.42 184.388 42.375C184.478 42.33 184.553 42.285 184.643 42.24C184.718 42.18 184.793 42.12 184.853 42.06H184.883C184.853 42.18 184.853 42.27 184.838 42.375C184.703 42.48 184.538 42.555 184.328 42.63C184.133 42.705 183.923 42.735 183.698 42.735C183.503 42.735 183.308 42.705 183.113 42.66C182.918 42.615 182.738 42.525 182.588 42.405C182.423 42.285 182.303 42.12 182.198 41.925C182.108 41.73 182.048 41.49 182.048 41.22C182.048 40.95 182.093 40.725 182.198 40.53V40.515Z" fill="white"/>
<path d="M186.293 38.895C186.293 39.045 186.263 39.21 186.263 39.36C186.263 39.51 186.263 39.66 186.248 39.81C186.293 39.81 186.398 39.81 186.533 39.81C186.668 39.81 186.818 39.81 186.968 39.81C186.968 39.81 186.968 39.84 186.968 39.885V40.02C186.968 40.02 186.968 40.065 186.968 40.08C186.908 40.08 186.848 40.08 186.788 40.08C186.728 40.08 186.653 40.08 186.593 40.08H186.263C186.263 40.08 186.263 40.155 186.263 40.275C186.263 40.395 186.263 40.53 186.248 40.68C186.248 40.845 186.248 41.01 186.248 41.175C186.248 41.355 186.248 41.505 186.248 41.64C186.248 41.76 186.248 41.88 186.248 41.985C186.248 42.09 186.278 42.195 186.308 42.285C186.338 42.375 186.398 42.45 186.473 42.495C186.548 42.555 186.653 42.57 186.788 42.57C186.833 42.57 186.878 42.57 186.938 42.57C186.998 42.57 187.058 42.555 187.103 42.54V42.69C187.028 42.69 186.938 42.72 186.848 42.735C186.758 42.75 186.668 42.765 186.578 42.765C186.293 42.765 186.083 42.705 185.948 42.57C185.813 42.435 185.738 42.255 185.738 42C185.738 41.895 185.738 41.775 185.738 41.64C185.738 41.505 185.738 41.37 185.753 41.22C185.753 41.07 185.753 40.89 185.753 40.71C185.753 40.515 185.753 40.32 185.753 40.08H185.543C185.543 40.08 185.468 40.08 185.423 40.08C185.378 40.08 185.333 40.08 185.288 40.08C185.288 40.05 185.288 40.035 185.288 40.005C185.288 39.975 185.288 39.96 185.288 39.93C185.288 39.915 185.288 39.885 185.288 39.87C185.288 39.855 185.288 39.825 185.288 39.81C185.498 39.81 185.648 39.825 185.738 39.825C185.738 39.735 185.738 39.645 185.738 39.51C185.738 39.39 185.738 39.255 185.723 39.135L186.278 38.925H186.308L186.293 38.895Z" fill="white"/>
<path d="M187.748 38.43C187.748 38.43 187.898 38.34 187.988 38.34C188.078 38.34 188.168 38.37 188.228 38.43C188.303 38.49 188.333 38.565 188.333 38.655C188.333 38.745 188.303 38.82 188.228 38.88C188.153 38.94 188.078 38.97 187.988 38.97C187.898 38.97 187.808 38.94 187.748 38.88C187.688 38.82 187.643 38.745 187.643 38.655C187.643 38.565 187.673 38.49 187.748 38.43ZM187.733 40.305C187.733 40.095 187.718 39.915 187.688 39.735C187.823 39.75 187.913 39.765 188.003 39.765C188.078 39.765 188.183 39.765 188.303 39.735C188.288 39.915 188.273 40.095 188.258 40.305C188.258 40.515 188.258 40.71 188.258 40.89V41.535C188.258 41.715 188.258 41.91 188.258 42.12C188.258 42.33 188.288 42.51 188.303 42.675C188.198 42.675 188.093 42.675 188.003 42.675C187.913 42.675 187.808 42.675 187.688 42.675C187.718 42.51 187.718 42.33 187.733 42.12C187.733 41.91 187.733 41.715 187.733 41.535V40.89C187.733 40.71 187.733 40.515 187.733 40.305Z" fill="white"/>
<path d="M189.323 40.5C189.413 40.305 189.548 40.14 189.713 40.02C189.878 39.9 190.043 39.81 190.253 39.75C190.448 39.69 190.643 39.66 190.838 39.66C191.033 39.66 191.228 39.69 191.423 39.75C191.618 39.81 191.798 39.885 191.948 40.02C192.113 40.14 192.233 40.305 192.323 40.5C192.428 40.695 192.473 40.935 192.473 41.22C192.473 41.505 192.428 41.73 192.323 41.925C192.233 42.12 192.098 42.285 191.948 42.405C191.783 42.525 191.618 42.615 191.423 42.66C191.228 42.705 191.033 42.735 190.838 42.735C190.643 42.735 190.448 42.705 190.253 42.66C190.058 42.615 189.878 42.525 189.713 42.405C189.548 42.285 189.428 42.12 189.323 41.925C189.233 41.73 189.173 41.49 189.173 41.22C189.173 40.95 189.218 40.695 189.323 40.5ZM189.818 41.715C189.848 41.88 189.908 42.015 189.998 42.15C190.073 42.27 190.193 42.375 190.313 42.45C190.448 42.525 190.628 42.57 190.823 42.57C191.018 42.57 191.198 42.525 191.318 42.45C191.453 42.375 191.558 42.27 191.648 42.15C191.723 42.03 191.783 41.88 191.828 41.715C191.858 41.55 191.888 41.385 191.888 41.22C191.888 41.055 191.873 40.875 191.828 40.725C191.798 40.56 191.738 40.425 191.648 40.29C191.573 40.17 191.468 40.065 191.318 39.99C191.183 39.915 191.018 39.885 190.823 39.885C190.628 39.885 190.448 39.915 190.313 39.99C190.178 40.065 190.073 40.17 189.998 40.29C189.908 40.41 189.863 40.56 189.818 40.725C189.788 40.89 189.773 41.055 189.773 41.22C189.773 41.385 189.788 41.565 189.818 41.715Z" fill="white"/>
<path d="M195.248 40.23C195.113 40.065 194.933 39.99 194.708 39.99C194.393 39.99 194.168 40.08 194.018 40.245C193.868 40.425 193.793 40.665 193.793 40.995V41.52C193.793 41.7 193.793 41.895 193.793 42.105C193.793 42.315 193.808 42.495 193.838 42.66C193.733 42.66 193.628 42.66 193.523 42.66C193.418 42.66 193.328 42.66 193.223 42.66C193.253 42.495 193.268 42.315 193.268 42.105C193.268 41.895 193.268 41.7 193.268 41.52V40.875C193.268 40.695 193.268 40.5 193.268 40.29C193.268 40.08 193.253 39.9 193.223 39.72C193.358 39.735 193.463 39.75 193.523 39.75C193.553 39.75 193.598 39.75 193.643 39.75C193.688 39.75 193.733 39.75 193.793 39.72C193.793 39.885 193.778 40.05 193.778 40.215H193.793C193.913 40.035 194.063 39.9 194.243 39.795C194.423 39.705 194.633 39.645 194.873 39.645C195.008 39.645 195.128 39.66 195.263 39.69C195.398 39.72 195.518 39.78 195.608 39.855C195.713 39.93 195.803 40.05 195.863 40.185C195.938 40.32 195.968 40.5 195.968 40.71C195.968 40.89 195.968 41.07 195.968 41.265C195.968 41.445 195.968 41.655 195.968 41.865V42.27C195.968 42.27 195.968 42.39 195.968 42.465C195.968 42.525 195.968 42.585 195.968 42.645C195.878 42.645 195.788 42.645 195.683 42.645C195.578 42.645 195.488 42.645 195.398 42.645C195.398 42.435 195.413 42.21 195.428 41.985C195.428 41.76 195.428 41.52 195.428 41.28V40.905C195.428 40.59 195.368 40.365 195.233 40.2L195.248 40.23Z" fill="white"/>
<path d="M202.374 42.525C202.284 42.57 202.178 42.6 202.058 42.63C201.938 42.66 201.789 42.69 201.639 42.72C201.489 42.735 201.324 42.75 201.159 42.75C200.799 42.75 200.468 42.705 200.168 42.615C199.868 42.525 199.599 42.375 199.389 42.195C199.164 42.015 198.998 41.775 198.878 41.505C198.758 41.235 198.683 40.92 198.683 40.56C198.683 40.2 198.743 39.9 198.878 39.63C198.998 39.36 199.178 39.12 199.403 38.925C199.628 38.73 199.899 38.595 200.214 38.49C200.529 38.385 200.874 38.34 201.249 38.34C201.549 38.34 201.818 38.37 202.073 38.415C202.313 38.475 202.538 38.535 202.733 38.625C202.703 38.685 202.673 38.76 202.643 38.865C202.613 38.97 202.598 39.045 202.583 39.105H202.538C202.538 39.105 202.433 39.015 202.358 38.955C202.268 38.895 202.178 38.835 202.073 38.775C201.968 38.715 201.833 38.67 201.698 38.625C201.563 38.58 201.414 38.565 201.249 38.565C200.979 38.565 200.739 38.61 200.499 38.685C200.274 38.76 200.078 38.88 199.898 39.045C199.733 39.21 199.598 39.405 199.493 39.66C199.403 39.915 199.358 40.2 199.358 40.545C199.358 40.89 199.403 41.19 199.493 41.43C199.598 41.685 199.718 41.895 199.898 42.045C200.063 42.21 200.274 42.33 200.499 42.405C200.724 42.48 200.979 42.525 201.249 42.525C201.414 42.525 201.563 42.51 201.698 42.465C201.833 42.435 201.968 42.39 202.073 42.33C202.193 42.285 202.299 42.225 202.389 42.165C202.479 42.105 202.553 42.06 202.628 42.015L202.659 42.045L202.598 42.405C202.598 42.405 202.493 42.48 202.403 42.51L202.374 42.525Z" fill="white"/>
<path d="M203.303 40.5C203.393 40.305 203.529 40.14 203.694 40.02C203.844 39.9 204.023 39.81 204.218 39.75C204.413 39.69 204.608 39.66 204.803 39.66C204.998 39.66 205.194 39.69 205.389 39.75C205.584 39.81 205.763 39.885 205.913 40.02C206.078 40.14 206.198 40.305 206.288 40.5C206.393 40.695 206.438 40.935 206.438 41.22C206.438 41.505 206.393 41.73 206.288 41.925C206.198 42.12 206.063 42.285 205.913 42.405C205.763 42.525 205.569 42.615 205.389 42.66C205.194 42.705 204.998 42.735 204.803 42.735C204.608 42.735 204.413 42.705 204.218 42.66C204.023 42.615 203.844 42.525 203.694 42.405C203.529 42.285 203.408 42.12 203.303 41.925C203.198 41.73 203.153 41.49 203.153 41.22C203.153 40.95 203.198 40.695 203.303 40.5ZM203.799 41.715C203.829 41.88 203.889 42.015 203.979 42.15C204.069 42.27 204.158 42.375 204.308 42.45C204.443 42.525 204.609 42.57 204.819 42.57C205.029 42.57 205.193 42.525 205.328 42.45C205.463 42.375 205.568 42.27 205.643 42.15C205.718 42.03 205.778 41.88 205.823 41.715C205.853 41.55 205.868 41.385 205.868 41.22C205.868 41.055 205.868 40.875 205.823 40.725C205.793 40.56 205.733 40.425 205.643 40.29C205.568 40.17 205.448 40.065 205.328 39.99C205.193 39.915 205.029 39.885 204.819 39.885C204.609 39.885 204.458 39.915 204.308 39.99C204.173 40.065 204.069 40.17 203.979 40.29C203.889 40.41 203.844 40.56 203.799 40.725C203.769 40.89 203.753 41.055 203.753 41.22C203.753 41.385 203.769 41.565 203.799 41.715Z" fill="white"/>
<path d="M207.368 42.135C207.443 42.06 207.533 42.03 207.638 42.03C207.743 42.03 207.833 42.06 207.908 42.135C207.983 42.21 208.028 42.285 208.028 42.39C208.028 42.495 207.983 42.57 207.908 42.63C207.833 42.69 207.743 42.72 207.638 42.72C207.533 42.72 207.443 42.69 207.368 42.63C207.293 42.57 207.248 42.495 207.248 42.39C207.248 42.285 207.278 42.21 207.368 42.135Z" fill="white"/>
<path d="M209.409 42.03C209.409 42.03 209.528 41.955 209.618 41.955C209.663 41.955 209.724 41.97 209.784 42C209.844 42.03 209.874 42.09 209.874 42.165C209.874 42.21 209.873 42.255 209.843 42.3C209.813 42.345 209.798 42.375 209.768 42.42L208.913 43.71L208.793 43.665L209.319 42.18C209.319 42.18 209.364 42.075 209.409 42.015V42.03Z" fill="white"/>
<path d="M211.133 39.225C211.133 38.955 211.104 38.7 211.089 38.43C211.149 38.43 211.208 38.43 211.253 38.445C211.313 38.445 211.358 38.445 211.418 38.445C211.463 38.445 211.523 38.445 211.583 38.445C211.643 38.445 211.704 38.445 211.764 38.43C211.749 38.7 211.733 38.97 211.718 39.225C211.718 39.48 211.703 39.75 211.703 40.02C211.703 40.545 211.703 40.995 211.703 41.37C211.703 41.745 211.703 42.09 211.703 42.39C212.018 42.39 212.333 42.39 212.618 42.39C212.918 42.39 213.233 42.36 213.578 42.315C213.563 42.39 213.549 42.45 213.549 42.51C213.549 42.555 213.548 42.615 213.578 42.675C213.368 42.675 213.158 42.675 212.948 42.675H211.688C211.493 42.675 211.283 42.675 211.058 42.675C211.073 42.42 211.089 42.165 211.104 41.895C211.104 41.625 211.104 41.355 211.104 41.085V40.02C211.104 39.75 211.104 39.48 211.104 39.225H211.133Z" fill="white"/>
<path d="M215.018 38.895C215.003 39.045 215.003 39.21 214.988 39.36C214.988 39.51 214.988 39.66 214.958 39.81C215.003 39.81 215.108 39.81 215.243 39.81C215.378 39.81 215.528 39.81 215.678 39.81C215.678 39.81 215.678 39.84 215.678 39.885V40.02C215.678 40.02 215.678 40.065 215.678 40.08C215.618 40.08 215.558 40.08 215.498 40.08C215.438 40.08 215.363 40.08 215.303 40.08H214.973C214.973 40.08 214.973 40.155 214.958 40.275C214.958 40.395 214.958 40.53 214.943 40.68C214.943 40.845 214.943 41.01 214.943 41.175C214.943 41.355 214.943 41.505 214.943 41.64C214.943 41.76 214.943 41.88 214.943 41.985C214.943 42.09 214.973 42.195 215.018 42.285C215.048 42.375 215.108 42.45 215.183 42.495C215.258 42.555 215.363 42.57 215.498 42.57C215.528 42.57 215.588 42.57 215.648 42.57C215.708 42.57 215.768 42.555 215.813 42.54V42.69C215.738 42.69 215.648 42.72 215.558 42.735C215.468 42.75 215.363 42.765 215.288 42.765C215.003 42.765 214.793 42.705 214.658 42.57C214.523 42.435 214.448 42.255 214.448 42C214.448 41.895 214.448 41.775 214.448 41.64C214.448 41.505 214.448 41.37 214.463 41.22C214.463 41.07 214.463 40.89 214.478 40.71C214.478 40.515 214.478 40.32 214.478 40.08H214.268C214.268 40.08 214.193 40.08 214.148 40.08C214.103 40.08 214.058 40.08 214.013 40.08C214.013 40.05 214.013 40.035 214.013 40.005C214.013 39.975 214.013 39.96 214.013 39.93C214.013 39.915 214.013 39.885 214.013 39.87C214.013 39.855 214.013 39.825 214.013 39.81C214.208 39.81 214.373 39.825 214.463 39.825C214.463 39.735 214.463 39.645 214.463 39.51C214.463 39.39 214.463 39.255 214.448 39.135L215.018 38.925H215.048L215.018 38.895Z" fill="white"/>
<path d="M218.588 42.075C218.588 42.075 218.498 42.21 218.438 42.285C218.378 42.36 218.303 42.435 218.198 42.495C218.108 42.57 218.003 42.615 217.868 42.66C217.733 42.705 217.598 42.72 217.433 42.72C217.268 42.72 217.088 42.69 216.923 42.645C216.758 42.585 216.608 42.51 216.488 42.39C216.353 42.27 216.248 42.105 216.173 41.91C216.098 41.715 216.053 41.49 216.053 41.22C216.053 40.95 216.098 40.725 216.188 40.53C216.278 40.335 216.383 40.17 216.518 40.05C216.653 39.915 216.818 39.825 216.983 39.765C217.163 39.705 217.328 39.675 217.508 39.675C218.003 39.675 218.363 39.885 218.558 40.29V39.21C218.558 39.045 218.558 38.895 218.558 38.745C218.558 38.595 218.558 38.46 218.558 38.34C218.558 38.205 218.558 38.1 218.558 37.995C218.603 37.995 218.663 38.01 218.708 38.025C218.753 38.025 218.813 38.025 218.858 38.025C218.903 38.025 218.948 38.025 219.008 38.025C219.053 38.025 219.113 38.025 219.173 37.995C219.173 38.13 219.143 38.325 219.143 38.565C219.143 38.82 219.128 39.09 219.113 39.39C219.113 39.69 219.113 40.005 219.113 40.32C219.113 40.635 219.113 40.935 219.113 41.19C219.113 41.475 219.113 41.73 219.113 41.955C219.113 42.18 219.113 42.42 219.113 42.66C219.023 42.66 218.933 42.66 218.858 42.66C218.783 42.66 218.693 42.66 218.603 42.66V42.075H218.588ZM216.743 41.865C216.803 42.03 216.878 42.15 216.968 42.255C217.058 42.345 217.148 42.42 217.268 42.45C217.373 42.495 217.493 42.51 217.598 42.51C217.778 42.51 217.928 42.465 218.048 42.39C218.168 42.315 218.288 42.21 218.363 42.075C218.453 41.955 218.513 41.805 218.543 41.64C218.588 41.475 218.603 41.31 218.603 41.145C218.603 40.755 218.528 40.44 218.348 40.245C218.183 40.035 217.928 39.93 217.598 39.93C217.433 39.93 217.298 39.96 217.178 40.035C217.058 40.095 216.953 40.2 216.878 40.32C216.803 40.44 216.743 40.59 216.713 40.74C216.668 40.905 216.653 41.07 216.653 41.265C216.653 41.52 216.683 41.715 216.743 41.88V41.865Z" fill="white"/>
<path d="M88.5685 33.81L86.4535 33.735L86.6035 34.71L87.2185 34.845C90.1285 35.7 91.2685 37.2 93.4585 39.72L94.5685 41.175L94.8535 41.625C95.4835 42.03 95.8435 41.82 96.0535 41.595C96.5485 41.04 96.4735 39.72 95.8885 37.575C95.6485 36.66 93.9535 34.245 88.5835 33.81H88.5685Z" fill="white"/>
<path d="M90.6685 23.79L89.2435 25.56H80.2735L76.0435 23.82V33.165H76.3735C76.7635 33.165 77.0335 33.165 77.2585 33.165C76.3885 35.745 74.0035 38.925 71.7685 40.695L71.5285 40.875L72.1435 41.91L72.4135 41.805C75.4435 40.635 78.8186 38.22 80.7986 35.415C80.9336 35.415 81.0835 35.415 81.1885 35.415C81.7285 35.415 82.0735 35.235 82.3285 34.83L82.5085 34.53L79.1635 32.67C79.9585 32.34 80.2435 31.965 80.3335 31.605H83.0035V39.57C83.0035 39.69 83.0035 39.735 82.9885 39.765C82.9735 39.765 82.9435 39.765 82.8835 39.765H79.0585V40.875L79.3585 40.905C81.5935 41.13 81.8935 41.715 81.8935 43.86V44.22L82.2535 44.19C86.2735 43.89 86.7385 42.225 86.7385 39.63V31.59H89.4085V32.85H89.7535C91.1785 32.85 92.1385 32.58 92.6785 32.37C92.9935 32.25 93.7435 31.905 93.7435 31.545V27.63C94.3285 27.45 94.7335 27.165 94.9285 26.94L95.1685 26.655L90.6835 23.76L90.6685 23.79ZM94.8685 23.655C95.7235 23.655 96.4735 23.595 96.8785 22.875L97.0285 22.605L92.8885 19.68C93.4285 19.425 93.6985 19.14 93.6985 18.945V12.15C94.3135 11.955 94.3585 11.955 94.6435 11.61L94.8835 10.65L92.8735 9.165L91.1485 9.87H80.3035L76.0285 8.13V20.535H76.3585C79.6885 20.535 80.0486 19.17 80.0486 18.915V18.72H82.9585V22.305H74.3185C74.3185 22.305 74.7385 21.855 74.7835 21.795L74.9335 21.555L71.6035 18.555L69.9385 20.145V14.475H73.0435C73.9885 14.475 74.6635 14.34 75.0535 13.71L75.2185 13.455L71.1235 10.335L67.1785 13.095H61.9285L62.2735 14.49H66.3385V21.18H62.7835L63.2035 22.575H66.3385V31.095C64.5985 31.35 61.7035 31.86 61.0585 31.935L60.6235 31.98L63.2185 37.155L63.4885 37.11C63.9535 37.02 64.3885 36.645 64.6285 36.12C69.3685 33.735 74.7985 31.47 76.4485 30.42L76.6435 30.3L76.4785 29.355L69.9835 30.405V22.56H72.8635C73.0135 22.56 73.1636 22.56 73.2986 22.56L73.4935 23.67H94.8985L94.8685 23.655ZM89.6485 14.79V17.325H80.0785V14.79H89.6485ZM80.0785 14.415V11.265H87.9985M90.8035 22.29H86.6935V21.36C87.2785 21.255 87.6535 21.075 87.7735 20.715L87.8635 20.385L83.8435 18.705H89.6335V20.28H89.9635C91.4035 20.28 92.1385 20.01 92.8135 19.71L90.7735 22.305L90.8035 22.29ZM80.3785 30.225V26.895H89.4236V30.225H80.3785Z" fill="white"/>
<path d="M99.8186 31.005V48.375H100.719C102.354 48.375 103.449 47.565 103.449 46.92V45.27H110.229V47.16H110.559C111.924 47.16 112.824 46.89 113.349 46.665C113.649 46.53 114.009 46.2 114.009 45.825V34.395C114.579 34.215 115.044 33.93 115.284 33.57L115.479 33.285L111.549 29.925L110.049 32.055H101.454L99.8036 30.99L99.8186 31.005ZM110.244 43.815H103.464V39.39H110.244V43.815ZM103.134 33.54H110.244V38.94" fill="white"/>
<path d="M107.484 26.865V21.345H113.333L112.509 20.145L110.964 18.195L108.234 19.995H107.484V16.41C108.354 16.275 108.894 16.005 108.999 15.27L109.044 14.94L103.734 14.43V19.995H98.3785L98.7836 21.33H103.749V26.73H95.7686L96.1135 28.035H116.199C116.679 28.035 117.039 28.005 117.354 27.885V48.195H118.299C120.189 48.195 121.179 47.25 121.179 46.74V18.87H125.949V18.93C125.274 21.72 124.299 25.95 123.669 28.125L123.609 28.32L123.743 28.455C126.098 30.69 127.284 33.27 127.284 36.135C127.284 37.29 127.044 37.995 126.549 38.295C126.384 38.4 126.219 38.43 125.889 38.43H122.649V39.54L122.919 39.585C124.359 39.84 125.094 40.08 125.094 42.36V42.72L125.439 42.69C127.599 42.495 129.129 41.85 130.134 40.725C131.034 39.69 131.484 38.28 131.484 36.405C131.484 33.285 129.414 30.525 125.124 28.005C126.684 25.815 128.874 22.29 130.104 20.145C130.854 20.13 131.409 20.01 131.724 19.56L131.874 19.35L128.019 15.33L123.714 17.58H121.689L117.354 15.885V27.135L116.049 25.035L113.259 26.88H107.514L107.484 26.865Z" fill="white"/>
<path d="M118.223 18.45C117.383 18.36 120.833 18.99 121.913 17.505L116.243 14.445C116.243 14.445 112.959 21.885 105.639 28.8C99.8185 34.29 93.3685 36.645 92.1685 37.245C92.1685 37.245 99.5035 35.955 106.374 31.665C112.974 27.54 118.223 18.45 118.223 18.45Z" fill="white"/>
<path d="M16.1935 53.49L17.4236 51.3C16.9736 51.3 16.5385 51.27 16.1035 51.24L14.8285 53.535C15.2785 53.535 15.7435 53.52 16.1935 53.505V53.49Z" fill="white"/>
<path d="M13.4035 54.165L12.1135 56.46C12.2935 56.46 12.4735 56.46 12.6535 56.46L13.9436 54.15C13.7636 54.15 13.5835 54.15 13.4035 54.15V54.165Z" fill="white"/>
<path d="M14.3035 53.535L15.5935 51.225C15.4285 51.225 15.2635 51.225 15.0985 51.21H15.0685L13.7635 53.535C13.9435 53.535 14.1235 53.535 14.3035 53.535Z" fill="white"/>
<path d="M23.3785 52.425L24.5035 50.415C23.2435 50.715 21.9985 50.94 20.7535 51.09L19.5835 53.175C20.8585 52.995 22.1185 52.74 23.3635 52.425H23.3785Z" fill="white"/>
<path d="M19.0285 53.235L20.1835 51.15C19.4335 51.225 18.6835 51.255 17.9335 51.285L16.7185 53.46C17.4835 53.415 18.2635 53.34 19.0285 53.235Z" fill="white"/>
<path d="M40.6736 5.32498C42.3686 5.50498 44.0186 5.93998 45.6236 6.50998C47.2286 7.07998 48.7436 7.88998 50.0786 8.96998C51.4135 10.035 52.5386 11.37 53.3636 12.855C54.1886 14.355 54.7286 16.005 54.9686 17.685C55.4636 21.075 54.8635 24.555 53.7085 27.75C53.1235 29.355 52.4035 30.9 51.5785 32.4C50.7535 33.885 49.8236 35.34 48.7736 36.675C46.6736 39.36 44.1835 41.745 41.5285 43.875C38.8585 45.99 35.9635 47.85 32.9185 49.395C29.9485 50.91 26.8286 52.125 23.6036 52.965L22.1786 55.515C33.9986 52.665 46.0286 44.085 52.0736 33.27C59.8586 19.335 54.7435 6.94498 40.6885 5.33998L40.6736 5.32498Z" fill="white"/>
<path d="M19.2235 53.82L17.8435 56.295C19.0735 56.145 20.3335 55.905 21.5785 55.635L22.9885 53.1C21.7435 53.4 20.4835 53.64 19.2085 53.82H19.2235Z" fill="white"/>
<path d="M14.4686 54.18L13.1786 56.49C13.6136 56.49 14.0636 56.52 14.5136 56.52L15.8485 54.15C15.3985 54.165 14.9336 54.18 14.4836 54.18H14.4686Z" fill="white"/>
<path d="M45.0236 6.405C54.5486 9.495 57.4736 19.47 51.2936 30.51C45.9836 40.005 35.4836 47.61 25.0886 50.265L23.9786 52.26C26.9786 51.465 29.9036 50.34 32.6936 48.945C35.7086 47.43 38.6036 45.615 41.2586 43.53C43.9286 41.445 46.4036 39.105 48.5036 36.45C49.5536 35.13 50.4836 33.705 51.3236 32.235C52.1486 30.765 52.8836 29.235 53.4836 27.645C54.6536 24.48 55.2836 21.045 54.8036 17.685C54.5636 16.02 54.0536 14.37 53.2436 12.885C52.4336 11.4 51.3386 10.08 50.0186 9C48.7136 7.92 47.1986 7.095 45.6086 6.525C44.0186 5.94 42.3686 5.505 40.6736 5.31C42.2786 5.505 43.7186 5.88 45.0236 6.39V6.405Z" fill="white"/>
<path d="M16.3736 54.105L15.0236 56.505C15.7736 56.475 16.5386 56.43 17.2886 56.355L18.6685 53.895C17.9035 53.985 17.1386 54.06 16.3736 54.105Z" fill="white"/>
<path d="M36.4585 2.73002L37.8685 0.210022C36.6385 0.360022 35.3785 0.600022 34.1335 0.870022L32.6936 3.45002C33.9386 3.15002 35.1985 2.89502 36.4735 2.71502L36.4585 2.73002Z" fill="white"/>
<path d="M39.3085 2.445L40.6736 0C39.9236 0.03 39.1735 0.09 38.4085 0.165L37.0135 2.655C37.7785 2.565 38.5435 2.49 39.3085 2.445Z" fill="white"/>
<path d="M10.0886 50.055C8.48357 49.485 6.96853 48.675 5.63353 47.595C4.29853 46.53 3.17352 45.195 2.34852 43.71C1.52352 42.21 0.983512 40.56 0.743512 38.88C0.233512 35.49 0.833553 32.01 2.00355 28.815C2.58855 27.21 3.30853 25.665 4.13353 24.165C4.97353 22.68 5.88852 21.24 6.93852 19.89C9.03852 17.19 11.5136 14.82 14.1986 12.69C16.8686 10.575 19.7635 8.715 22.7935 7.17C25.7485 5.67 28.8535 4.455 32.0635 3.63L33.5186 1.035C21.6986 3.885 9.66859 12.465 3.63859 23.28C-3.59141 36.24 0.30852 47.835 12.1885 50.715C11.4835 50.535 10.7786 50.325 10.1036 50.07L10.0886 50.055Z" fill="white"/>
<path d="M41.2136 2.37L42.5336 0.03C42.0836 0.015 41.6485 0 41.1985 0L39.8485 2.415C40.2985 2.4 40.7636 2.385 41.2136 2.37Z" fill="white"/>
<path d="M42.2785 2.38498L43.5835 0.0449829C43.4035 0.0449829 43.2235 0.0449829 43.0435 0.0449829L41.7385 2.38498C41.9185 2.38498 42.0985 2.38498 42.2785 2.38498Z" fill="white"/>
<path d="M39.4735 3.07498L38.2736 5.23498C38.7086 5.23498 39.1436 5.26498 39.5936 5.29498L40.8536 3.04498C40.4036 3.04498 39.9386 3.05998 39.4886 3.08998L39.4735 3.07498Z" fill="white"/>
<path d="M41.3786 3.02997L40.1036 5.30997C40.2686 5.30997 40.4336 5.30997 40.5986 5.33997C40.5986 5.33997 40.6136 5.33997 40.6286 5.33997L41.9036 3.04497C41.7236 3.04497 41.5436 3.04497 41.3636 3.04497L41.3786 3.02997Z" fill="white"/>
<path d="M23.0335 7.60501C20.0035 9.12001 17.1385 10.935 14.4685 13.005C11.7985 15.09 9.32348 17.43 7.22348 20.085C6.17348 21.405 5.24348 22.83 4.40348 24.3C3.57848 25.77 2.84347 27.3 2.24347 28.89C1.07347 32.055 0.443541 35.475 0.908541 38.85C1.14854 40.53 1.65851 42.165 2.46851 43.65C3.27851 45.135 4.37354 46.455 5.69354 47.535C6.99854 48.615 8.51355 49.44 10.1035 50.01C11.0785 50.37 12.0685 50.655 13.0735 50.88C13.7035 51 14.3485 51.12 15.0235 51.195C13.4185 50.985 11.9786 50.625 10.6736 50.115C1.14856 47.025 -1.76152 37.065 4.40348 26.01C9.71348 16.515 20.2135 8.91001 30.6085 6.25501L31.6885 4.32001C28.7035 5.11501 25.7935 6.24001 23.0335 7.62001V7.60501Z" fill="white"/>
<path d="M36.6385 3.33001L35.4985 5.37001C36.2485 5.29501 36.9985 5.26501 37.7485 5.25001L38.9485 3.10501C38.1835 3.15001 37.4035 3.24001 36.6535 3.33001H36.6385Z" fill="white"/>
<path d="M32.2886 4.15497L31.1936 6.11997C32.4536 5.81997 33.6986 5.59497 34.9286 5.44497L36.0686 3.40497C34.7936 3.58497 33.5336 3.83997 32.2886 4.15497Z" fill="white"/>
<path d="M25.2085 27.105C25.2085 27.105 25.1485 26.97 25.1035 26.925C23.0935 24.045 17.6035 25.425 12.9235 29.97C8.21354 34.515 6.02346 40.545 8.06346 43.41C8.48346 44.04 9.08352 44.46 9.80352 44.685L21.1435 31.605L25.2235 27.105H25.2085Z" fill="white"/>
<path d="M31.8985 27.375C32.3785 27.09 32.8286 26.85 33.3236 26.655C34.5836 25.92 35.8436 24.96 37.0736 23.775C41.7236 19.275 43.8986 13.35 41.9336 10.53C39.9536 7.72502 34.5685 9.09002 29.9035 13.605C25.2385 18.12 23.0786 24.03 25.0586 26.85C25.1186 26.91 25.1785 27 25.2385 27.06L33.2636 18.21L31.8985 27.375Z" fill="white"/>
<path d="M33.3235 26.655C32.8285 26.91 32.3635 27.165 31.8985 27.375L31.2385 31.8L28.9735 44.625C30.9985 43.95 33.2335 42.57 35.3485 40.65C40.2085 36.105 42.5935 30.09 40.6285 27.18C39.3235 25.275 36.4885 25.2 33.3235 26.64V26.655Z" fill="white"/>
<path d="M24.5935 34.425C25.5385 32.955 26.7835 31.455 28.2085 30.12C29.4085 29.025 30.6235 28.125 31.8385 27.405C29.0485 28.65 26.5585 28.605 25.2385 27.06L25.2085 27.09C26.2885 28.815 25.9585 31.56 24.5935 34.41V34.425Z" fill="white"/>
<path d="M15.4735 40.23H14.9935L13.2986 43.425L13.1036 43.74C13.0286 43.875 12.9536 43.98 12.9086 44.07C12.8336 44.175 12.7435 44.25 12.6535 44.325C12.5635 44.37 12.5036 44.4 12.4436 44.4C12.4136 44.4 12.3985 44.4 12.3835 44.4C12.3835 44.4 12.3685 44.37 12.3835 44.28C12.3835 44.19 12.4286 43.98 12.6386 43.59L12.7136 43.44L12.1736 43.59V43.62C11.8886 44.13 11.7686 44.49 11.7686 44.715C11.7686 44.895 11.8286 45.12 12.1736 45.12H12.1885C12.3985 45.12 12.6386 45 12.9236 44.745C13.1636 44.505 13.4336 44.115 13.7636 43.515L15.4885 40.26L15.4735 40.23Z" fill="white"/>
<path d="M16.1936 40.23L13.6436 45.015H14.1236L16.6586 40.23H16.1936Z" fill="white"/>
<path d="M18.9836 40.23L17.2435 43.53L17.7986 40.23H17.3485L14.7836 45.015H15.2935L17.0336 41.715L16.4485 45.015H16.9286L19.4786 40.23H18.9836Z" fill="white"/>
<path d="M19.6885 43.185H20.4236L20.0186 43.95C19.8836 44.055 19.7336 44.13 19.5536 44.235H19.5385C19.3735 44.34 19.2386 44.385 19.1036 44.385C18.9986 44.385 18.9085 44.355 18.8635 44.31C18.8035 44.25 18.7735 44.145 18.7735 43.995C18.7585 43.695 18.8935 43.305 19.2385 42.615C19.4485 42.225 19.6735 41.91 19.9135 41.625C20.1535 41.325 20.3335 41.13 20.5285 40.995C20.7235 40.875 20.8886 40.815 21.0686 40.815C21.1736 40.815 21.2635 40.845 21.2785 40.89C21.2785 40.89 21.3536 41.055 21.3536 41.145C21.3236 41.325 21.2785 41.52 21.1885 41.715L21.1285 41.88L21.6835 41.655V41.625C21.8485 41.28 21.9086 41.04 21.9236 40.815C21.9236 40.635 21.9086 40.485 21.8186 40.335C21.7286 40.17 21.5185 40.155 21.3685 40.155C21.0985 40.155 20.8135 40.26 20.5435 40.455C20.2735 40.635 19.9736 40.89 19.6586 41.25C19.3136 41.685 19.0135 42.135 18.7585 42.6C18.4885 43.095 18.3236 43.53 18.2486 43.89C18.1586 44.28 18.1736 44.55 18.2636 44.775C18.3686 44.985 18.5485 45.09 18.8485 45.09C19.0135 45.09 19.2085 45.03 19.5235 44.88L19.6285 44.82C19.8385 44.7 20.0636 44.565 20.3036 44.355L21.2785 42.495H20.0635L19.6736 43.17L19.6885 43.185Z" fill="white"/>
<path d="M25.5685 41.565C25.6885 41.205 25.7335 40.965 25.7335 40.8C25.7335 40.56 25.6435 40.44 25.5535 40.365C25.4635 40.275 25.3135 40.23 25.0585 40.23H24.1585L21.6085 45.015H22.6285C22.8835 45.015 23.1535 44.925 23.3935 44.775C23.6485 44.61 23.9185 44.37 24.2485 43.995C24.5635 43.545 24.8485 43.08 25.0885 42.615C25.3135 42.255 25.4935 41.88 25.5835 41.565H25.5685ZM23.9035 43.68C23.7385 43.875 23.5735 44.04 23.3785 44.175C23.2585 44.265 23.0935 44.31 22.8685 44.31H22.4485L24.2935 40.92H24.7435C24.8935 40.92 24.9985 40.95 25.0735 40.98C25.1335 41.055 25.1335 41.22 25.1035 41.445C25.0435 41.715 24.8785 42.09 24.6385 42.525C24.4135 42.975 24.1735 43.35 23.9185 43.665L23.9035 43.68Z" fill="white"/>
<path d="M29.0336 40.245H28.5386L27.0985 42.975C26.7085 43.65 26.4535 43.98 26.3335 44.13C26.1385 44.31 25.9436 44.4 25.7636 44.4C25.7486 44.4 25.7185 44.4 25.7035 44.4C25.5535 44.4 25.5235 44.34 25.4935 44.295C25.4635 44.22 25.4335 44.115 25.5085 43.92C25.5535 43.77 25.6885 43.485 25.8985 43.065L27.4136 40.26H26.9035L25.4636 42.99C25.0436 43.725 24.8335 44.295 24.8485 44.595C24.8485 44.925 25.0585 45.105 25.4185 45.105C25.5835 45.105 25.7636 45.06 25.9136 44.985C26.1086 44.91 26.3036 44.745 26.4836 44.565C26.4836 44.565 26.5136 44.535 26.5136 44.52C27.0086 43.995 27.4586 43.125 27.5036 43.065L29.0036 40.26L29.0336 40.245Z" fill="white"/>
</svg>
