<svg width="1829" height="150" viewBox="0 0 1829 150" fill="none" xmlns="http://www.w3.org/2000/svg">
<g style="mix-blend-mode:overlay">
<path d="M-1 2.99C9.26 1.085 22.55 -0.0550003 36.8 -0.0550003C61.115 -0.0550003 77.63 5.075 89.795 15.14C103.655 26.54 111.83 44.585 111.83 70.985C111.83 102.32 101 120.56 89.795 130.625C76.505 142.595 56.18 148.475 30.725 148.475C17.24 148.475 6.41 147.53 -1 146.57V2.99ZM26.915 125.495C29.765 126.065 33.935 126.065 37.745 126.065C64.52 126.26 82.385 109.73 82.385 71.36C82.385 38.315 66.245 21.98 40.22 21.98C34.34 21.98 29.96 22.55 26.93 23.12V125.495H26.915Z" fill="white"/>
<path d="M224.06 78.2C234.32 82.19 240.02 92.06 243.44 106.88C247.625 124.16 251.42 141.635 254.27 147.14H225.395C223.31 142.955 219.695 130.235 216.275 112.58C212.48 93.77 206.585 87.89 193.295 87.89H183.8V147.14H155.885V2.99C165.575 1.28 179.24 -0.0550003 193.49 -0.0550003C211.91 -0.0550003 249.14 2.225 249.14 41.345C249.14 59.195 237.74 72.305 224.075 77.615V78.185L224.06 78.2ZM195.38 66.995C211.34 66.995 221.015 57.695 221.015 43.82C221.015 25.01 206.96 21.41 196.7 21.41C190.43 21.41 186.065 21.785 183.785 22.55V66.995H195.365H195.38Z" fill="white"/>
<path d="M376.94 147.14H295.265V1.085H373.895V24.635H323.375V59.96H371.045V82.94H323.375V123.59H376.94V147.14Z" fill="white"/>
<path d="M528.32 147.14H498.875L488.435 108.59H449.315L439.25 147.14H410.765L452.15 1.085H487.475L528.305 147.14H528.32ZM484.445 87.32L475.715 54.08C473.435 44.96 470.96 33.185 469.07 24.26H468.5C466.595 33.38 464.135 45.335 462.035 53.885L453.305 87.305H484.46L484.445 87.32Z" fill="white"/>
<path d="M711.395 147.14H684.62L681.965 90.35C681.2 70.97 680.255 51.23 680.45 32.795H679.88C675.695 50.27 670.385 69.635 665.45 85.97L647.6 145.04H626.33L610.19 86.915C605.435 70.385 600.89 50.645 597.47 32.78H596.9C596.525 51.2 595.565 72.86 594.62 90.905L591.77 147.125H566.135L575.99 1.085H610.745L626.51 55.97C631.265 73.64 635.435 90.725 638.66 107.435H639.23C642.65 91.1 647.015 73.445 651.95 55.97L668.48 1.085H703.04L711.395 147.14Z" fill="white"/>
<path d="M822.695 147.14V1.085H900.95V24.635H850.805V63.185H897.53V86.165H850.805V147.125H822.695V147.14Z" fill="white"/>
<path d="M1027.81 147.14H947.465V1.085H975.575V123.395H1027.81V147.14Z" fill="white"/>
<path d="M1176.32 147.14H1146.88L1136.44 108.59H1097.32L1087.25 147.14H1058.77L1100.17 1.085H1135.49L1176.32 147.14ZM1132.45 87.32L1123.72 54.08C1121.44 44.96 1118.96 33.185 1117.07 24.26H1116.5C1114.6 33.38 1112.14 45.335 1110.04 53.885L1101.31 87.305H1132.46L1132.45 87.32Z" fill="white"/>
<path d="M1323.71 141.44C1315.16 144.665 1298.64 148.655 1282.11 148.655C1259.9 148.655 1242.99 142.955 1230.65 130.805C1218.11 118.46 1210.9 98.525 1210.9 75.35C1210.9 25.97 1243.75 -0.43 1285.73 -0.43C1300.55 -0.43 1312.9 2.225 1319.92 5.645L1314.02 28.82C1307.38 25.775 1299.02 23.495 1286.11 23.495C1260.08 23.495 1240.34 39.455 1240.34 74.78C1240.34 110.105 1258.39 125.675 1282.51 125.675C1289.35 125.675 1294.47 124.73 1296.93 123.59V87.89H1275.86V65.675H1323.73V141.455L1323.71 141.44Z" fill="white"/>
<path d="M1442.78 28.625C1437.65 25.97 1428.72 22.355 1416.75 22.355C1401.93 22.355 1395.29 30.335 1395.29 38.495C1395.29 48.935 1402.51 53.69 1420.36 61.85C1443.71 72.29 1454.16 85.775 1454.16 104.96C1454.16 130.415 1434.98 149.03 1400.99 149.03C1386.56 149.03 1371.93 145.04 1365.09 140.87L1370.6 117.32C1378.19 121.88 1390.35 125.48 1402.13 125.48C1417.7 125.48 1425.88 118.07 1425.88 107.24C1425.88 96.41 1418.84 90.53 1402.7 83.495C1380.66 74 1367 60.32 1367 41.33C1367 17.405 1385.81 -1.03 1417.32 -1.03C1431.18 -1.03 1441.82 2.195 1448.66 5.615L1442.78 28.595V28.625Z" fill="white"/>
<path d="M1604.41 147.14H1576.3V84.275H1526.54V147.14H1498.43V1.085H1526.54V59.39H1576.3V1.085H1604.41V147.14Z" fill="white"/>
<path d="M1655.67 1.085H1683.78V147.14H1655.67V1.085Z" fill="white"/>
<path d="M1735.07 2.99C1744.19 1.28 1756.71 -0.0550003 1772.87 -0.0550003C1791.29 -0.0550003 1805.15 3.56 1814.47 11.525C1823.2 18.935 1828.52 30.71 1828.52 44.195C1828.52 84.275 1795.1 93.2 1773.24 93.2C1769.25 93.2 1765.84 93.005 1762.99 92.435V147.14H1735.07V2.99ZM1762.99 70.415C1765.64 70.985 1768.68 71.18 1772.85 71.18C1790.33 71.18 1800.59 61.31 1800.59 45.545C1800.59 29.78 1790.72 21.8 1775.14 21.8C1769.44 21.8 1765.45 22.37 1762.99 22.94V70.415Z" fill="white"/>
</g>
</svg>
