<svg width="543" height="140" viewBox="0 0 543 140" fill="none" xmlns="http://www.w3.org/2000/svg">
<path d="M43.8097 0.969971H498.97C523.03 0.969971 542.56 20.5 542.56 44.56C542.56 68.62 523.03 88.15 498.97 88.15H43.8097C19.7497 88.15 0.219727 68.62 0.219727 44.56C0.219727 20.5 19.7497 0.969971 43.8097 0.969971Z" fill="white"/>
<path d="M158.239 36.2599H185.159V39.8199H158.239V36.2599ZM184.299 18.3799V21.8499H159.209V18.3799H169.749V13.2L174.289 13.4399C174.259 13.7299 174.019 13.91 173.469 14.03V18.39H184.309L184.299 18.3799ZM166.249 22.9199C167.519 26.5999 168.399 31.2199 168.639 34.3799C168.549 34.3799 168.489 34.3799 164.959 35.2899C164.869 32.1999 163.989 27.4299 162.869 23.7999L166.259 22.9199H166.249ZM181.559 23.8599C181.439 24.1199 181.089 24.3299 180.619 24.3599C179.829 28.0099 178.259 32.8099 176.969 35.8199L173.669 34.8499C174.909 31.6399 176.139 26.6 176.759 22.78L181.559 23.8699V23.8599Z" fill="#2B009E"/>
<path d="M203.729 34.4099C204.909 34.1699 206.119 33.9099 207.349 33.6399C206.759 32.6999 206.109 31.7899 205.469 30.9599L208.239 29.5199C210.149 31.8499 212.249 34.9999 213.069 37.1799L210.069 38.8299C209.829 38.1199 209.449 37.3298 209.009 36.4698C205.739 37.4098 202.469 38.2999 200.259 38.8899C200.199 39.1799 199.999 39.3899 199.789 39.4499L198.409 35.4499C198.999 35.3599 199.649 35.2099 200.379 35.0999V14.6899H211.449V29.2699H203.729V34.4199V34.4099ZM208.179 17.9499H203.729V20.3699H208.179V17.9499ZM203.729 25.9899H208.179V23.5199H203.729V25.9899ZM225.079 14.6199V32.5799C225.079 35.9999 223.729 36.7599 219.309 36.7599C219.189 35.6999 218.629 33.9299 218.099 32.9299C218.809 32.9899 219.509 32.9899 220.069 32.9899C221.279 32.9899 221.399 32.9899 221.399 32.4899V18.1799H217.189V40.9698H213.569V14.6099H225.079V14.6199Z" fill="#2B009E"/>
<path d="M248.579 25.8699L248.989 28.8699C248.049 29.1899 247.079 29.4899 246.129 29.8099V37.1099C246.129 40.3199 244.949 40.9999 240.449 40.9999C240.359 40.0599 239.919 38.5599 239.479 37.6099C240.069 37.6099 240.659 37.64 241.159 37.64C242.719 37.64 242.779 37.64 242.779 37.08V30.84L240.279 31.6099C240.249 31.8999 239.989 32.1099 239.779 32.1699L238.869 28.2499C239.959 28.0099 241.309 27.72 242.789 27.34V22.1899H239.259V18.9199H242.789V13.21L246.909 13.4199C246.879 13.7099 246.669 13.8899 246.139 13.9799V18.9299H248.579V19.8699C251.519 18.1899 254.349 15.45 255.739 13.21L259.799 13.39C259.709 13.57 259.529 13.77 259.239 13.83C261.069 16.07 264.389 18.5399 267.249 19.7499C266.569 20.5699 265.809 21.8699 265.309 22.8699C264.099 22.2199 262.839 21.3699 261.629 20.4299V21.7H253.179V20.64C251.999 21.61 250.709 22.4999 249.379 23.1699C249.169 22.7599 248.879 22.1999 248.589 21.6699V22.2H246.149V26.53L248.589 25.8799L248.579 25.8699ZM264.479 31.9999H253.169L252.989 33.1799H265.479V40.9799H262.389V40.1599H255.699V41.0099H252.729V34.3499C252.169 36.7099 251.169 39 249.459 40.77C249.019 40.15 247.719 38.94 247.069 38.53C249.989 35.47 250.279 31.11 250.279 27.9V22.9199H264.469V31.9899L264.479 31.9999ZM253.439 28.4099C253.439 28.7899 253.409 29.1999 253.409 29.6199H261.299V28.4099H253.439ZM261.299 25.3199H253.439V26.4699H261.299V25.3199ZM260.149 19.2C259.089 18.23 258.119 17.23 257.409 16.28C256.759 17.19 255.849 18.19 254.819 19.2H260.149ZM262.389 35.6299H255.699V37.7199H262.389V35.6299Z" fill="#2B009E"/>
<path d="M291.899 29.6699C291.809 29.9399 291.579 30.1099 291.109 30.1699C290.229 34.5599 289.019 38.5599 282.129 40.9799C281.719 40.0699 280.779 38.62 279.979 37.89C286.129 36.12 287.079 32.9699 287.549 29.1699L291.909 29.6699H291.899ZM299.059 36.0599C299.059 37.0299 299.209 37.1799 300.119 37.1799H302.709C303.589 37.1799 303.769 36.6199 303.889 33.1199C304.599 33.7099 306.159 34.3 307.099 34.53C306.749 39.24 305.799 40.5099 303.039 40.5099H299.589C296.259 40.5099 295.499 39.4199 295.499 36.0599V28.8699H280.419V25.4199H291.819V20.59H286.669C286.019 22.09 285.259 23.54 284.399 24.65C283.599 24.12 282.129 23.41 281.279 23.09C283.219 20.65 284.639 16.6399 285.259 13.6099L289.409 14.52C289.319 14.78 289.089 14.9299 288.639 14.9299C288.459 15.6099 288.229 16.4 287.959 17.2H291.819V13.2L296.239 13.4099C296.209 13.7299 295.979 13.9099 295.419 13.9999V17.21H304.489V20.5999H295.419V25.4299H306.849V28.8799H299.079V36.0699L299.059 36.0599Z" fill="#2B009E"/>
<path d="M346.93 19.36V35.09H333.71V19.36H337.89L338.24 17.36H332.62V16.15H332.56C331.53 17.83 329.97 19.89 328.41 21.48C329.12 21.98 329.74 22.45 330.21 22.89L329.44 23.92H331.8L333.54 24.04C332.95 26.69 332.24 29.31 331.27 31.84C328.86 30.93 328.8 30.9 328.74 30.9C329.06 29.87 329.45 28.46 329.8 27.04H328.06V37.23C328.06 39.97 327.26 41.03 322.11 40.94C321.96 39.97 321.52 38.52 321.05 37.58C322.32 37.61 323.7 37.61 324.11 37.61C324.52 37.58 324.64 37.49 324.64 37.17V27.04H320.22V23.92H326.43C324.93 22.8 323.01 21.65 321.36 20.86L323.13 18.53C323.98 18.91 324.93 19.41 325.87 19.91C326.52 19.2 327.2 18.35 327.78 17.49H320.83V14.43H330.17L330.7 14.25L332.61 15.4V14.37H347.95V17.34H341.94C341.76 17.96 341.56 18.64 341.32 19.34H346.92L346.93 19.36ZM339.63 36.97C339.51 37.09 339.34 37.15 339.1 37.18C337.77 38.51 335.04 40.18 332.71 41.07C332.15 40.42 331.12 39.36 330.38 38.77C332.65 37.94 335.27 36.35 336.56 35.09L339.62 36.97H339.63ZM343.55 23.84V21.96H336.92V23.84H343.55ZM343.55 28.14V26.26H336.92V28.14H343.55ZM343.55 32.5V30.59H336.92V32.5H343.55ZM345.76 41.04C344.73 39.95 342.52 38.21 340.84 37.03L343.46 35.23C345.11 36.32 347.35 37.94 348.53 39.06L345.76 41.03V41.04Z" fill="#2B009E"/>
<path d="M386.1 18.5099L387.98 18.6299C387.98 18.9199 387.95 19.4 387.92 19.78C387.57 33.09 387.21 37.7099 386.06 39.2199C385.12 40.5499 384.06 40.96 381 40.96C380.2 40.96 379.38 40.93 378.56 40.9C378.5 39.96 378.06 38.5099 377.44 37.5699C379.3 37.7199 380.97 37.7199 381.74 37.7199C382.33 37.7199 382.65 37.6299 383.01 37.2199C383.86 36.3399 384.19 32.0399 384.48 21.8799H377.09C376.38 23.4399 375.59 24.8499 374.76 25.9999C374.14 25.4699 372.96 24.6499 372.08 24.1699C373.11 25.7599 374.05 27.4999 374.47 28.7899C373.47 29.3199 372.62 29.7899 371.76 30.2599C371.64 29.8199 371.44 29.2899 371.2 28.7299L368.99 28.8799V40.9799H365.75V31.59C365.66 31.77 365.43 31.8299 365.16 31.7999C364.81 34.2399 364.13 37.0699 363.25 38.8699C362.6 38.4299 361.39 37.8699 360.63 37.5699C361.45 35.9499 361.99 33.1499 362.28 30.6199L365.76 31.4699V29.08C364.32 29.17 363.05 29.2299 361.99 29.2899C361.9 29.5599 361.67 29.67 361.43 29.7L360.75 26.1699H362.9C363.4 25.5499 363.93 24.9 364.46 24.2C363.55 22.99 362.1 21.5499 360.87 20.4899L362.49 18.08L363.14 18.6099C364.17 16.9299 365.2 14.8699 365.79 13.2199L369.32 14.6599C369.2 14.8999 368.91 15.0099 368.53 14.9799C367.71 16.6299 366.32 18.8099 365.17 20.4299C365.61 20.8699 365.99 21.2799 366.32 21.6699C367.53 19.9299 368.62 18.1699 369.44 16.6299L372.89 18.2199C372.74 18.4299 372.45 18.5099 372.04 18.5099C370.57 20.8099 368.33 23.7499 366.24 26.1099L369.92 26.0499C369.48 25.3099 369.04 24.58 368.59 23.9C369.53 23.4 370.33 23.0199 371.09 22.6299C371.38 23.0399 371.65 23.45 371.94 23.9C373.8 21.43 375.33 17.2099 376.18 13.1799L380.36 14.2399C380.27 14.4999 380.01 14.6499 379.56 14.6199C379.24 15.9099 378.85 17.2399 378.38 18.5399H385.33L386.1 18.5099ZM371.2 37.5099C370.88 35.9199 370.02 33.42 369.23 31.53L372 30.6199C372.82 32.4799 373.74 34.8299 374.12 36.4199L371.2 37.5099ZM377.68 25.3499C379.21 27.4099 380.92 30.1499 381.54 32.0399L378.45 33.6299C377.92 31.7999 376.33 28.9199 374.83 26.7999L377.69 25.3599L377.68 25.3499Z" fill="#2B009E"/>
<path d="M161.78 56.02H165.26V59.08H149.15V61.64H145.23V68.15L149.47 67.56L149.65 70.48C145.73 71.22 141.64 71.92 139.02 72.34C138.99 72.6 138.76 72.78 138.49 72.84L137.52 69.16C138.82 69.01 140.38 68.84 142.11 68.6V61.65H138.02V58.65H142.11V56.47H139.55V56.18L139.46 56.27C138.93 55.5 137.84 54.39 137.1 53.91C139.49 51.52 141.28 48.43 142.31 46.02L146.2 46.7C146.11 46.97 145.91 47.11 145.49 47.14L145.46 47.23C147.05 48.41 148.96 49.88 150.05 51.03V49.56H152.52V46.03L156.47 46.27C156.44 46.54 156.23 46.71 155.73 46.8V49.57H158.53V46.04L162.53 46.28C162.5 46.55 162.29 46.72 161.76 46.81V49.58H164.59V52.55H161.76V56.05L161.78 56.02ZM139.4 68.18C139.25 66.77 138.78 64.65 138.25 63.03L140.55 62.38C141.14 64 141.64 66.09 141.82 67.45L139.41 68.19L139.4 68.18ZM147.82 53.51C146.82 52.42 145.32 51.12 143.93 50.03C143.28 51.18 142.55 52.33 141.69 53.51H147.82ZM149.15 58.63V56.01H152.54V52.51H150.07V51.83L148.48 54.24C148.39 54.12 148.27 53.97 148.16 53.86V56.45H145.24V58.63H149.16H149.15ZM149.74 63.19C149.62 63.4 149.39 63.51 149 63.51C148.68 64.72 148.09 66.51 147.56 67.69L145.47 66.92C145.91 65.62 146.44 63.62 146.68 62.24L149.74 63.18V63.19ZM151.12 73.79V60.77H163.64V73.67H160.28V72.61H154.3V73.79H151.12ZM160.28 63.6H154.3V65.31H160.28V63.6ZM154.3 69.7H160.28V67.9H154.3V69.7ZM158.54 52.5H155.74V56H158.54V52.5Z" fill="#2B009E"/>
<path d="M185.04 57.55V67.06C186.81 70.06 190.05 70.06 195.46 70.06C198.96 70.06 203.18 69.97 206 69.74C205.59 70.56 205.06 72.18 204.88 73.19C202.64 73.31 199.4 73.37 196.43 73.37C189.63 73.37 186.24 73.37 183.56 69.98C182.38 71.13 181.15 72.25 180.08 73.13C180.11 73.48 179.99 73.6 179.7 73.75L177.96 70.04C179.11 69.27 180.43 68.33 181.64 67.33V60.82H178.31V57.55H185.02H185.04ZM181.15 46.77C182.83 48.1 184.89 50.07 185.83 51.48L182.91 53.69C182.09 52.28 180.11 50.21 178.43 48.77L181.14 46.77H181.15ZM190.13 58.67V68.95H187.07V55.99H189.37V46.89H202V55.99H204.27V65.91C204.27 68.56 203.33 69 199.44 69C199.32 68.23 199.03 67.2 198.67 66.44H194.22V67.35H191.69V59.9H199.46V66.26H200.67C200.96 66.26 201.05 66.17 201.05 65.88V58.67H190.12H190.13ZM192.43 49.51V55.99H194.14V51.34H198.82V49.51H192.43ZM196.91 64.21V62.15H194.23V64.21H196.91ZM198.82 55.99V53.55H196.64V55.99H198.82Z" fill="#2B009E"/>
<path d="M245.839 68.38H237.889C240.919 69.38 244.189 70.62 246.219 71.47L243.189 73.83C241.219 72.86 237.889 71.44 234.679 70.33C235.449 69.62 236.089 69 236.709 68.39H227.879L230.769 70.36C230.649 70.45 230.449 70.54 230.209 70.54C228.299 71.69 224.609 73.13 221.669 73.87C221.109 73.16 220.049 72.1 219.279 71.43C222.169 70.81 225.639 69.52 227.499 68.4H219.429V65.48H245.849V68.4L245.839 68.38ZM230.699 52.36V51.09H220.299V48.14H230.699V45.99L235.239 46.23C235.209 46.52 234.969 46.7 234.419 46.82V48.15H245.199V51.1H234.419V52.37H241.989V64.36H223.759V52.37H230.709L230.699 52.36ZM238.389 55.72V54.45H227.169V55.72H238.389ZM238.389 58.96V57.69H227.169V58.96H238.389ZM238.389 62.26V60.93H227.169V62.26H238.389Z" fill="#2B009E"/>
<path d="M284.269 51.1L286.129 51.22C286.129 51.48 286.099 51.99 286.069 52.34C285.719 65.89 285.389 70.6 284.239 72.1C283.299 73.43 282.269 73.81 279.379 73.81C278.669 73.81 277.879 73.78 277.109 73.78C277.049 72.81 276.609 71.34 276.019 70.39C277.729 70.51 279.289 70.54 280.019 70.54C280.549 70.54 280.869 70.39 281.199 70.01C281.989 69.1 282.379 64.86 282.639 54.4H276.689C276.159 55.9 275.569 57.29 274.859 58.55L277.479 57.43C278.889 59.55 280.339 62.32 280.779 64.26L277.539 65.67C277.159 63.9 275.949 61.16 274.619 58.99C274.269 59.58 273.909 60.11 273.559 60.61C273.089 60.05 272.179 59.17 271.439 58.58V69.15H263.929V71.24H260.689V50.98H263.719C264.159 49.45 264.599 47.48 264.809 46L269.139 46.91C269.019 47.17 268.789 47.29 268.339 47.32C268.019 48.41 267.519 49.79 267.009 50.97H271.429V57.51C273.229 54.74 274.519 50.32 275.199 46.02L279.379 46.96C279.289 47.2 279.029 47.4 278.609 47.37C278.349 48.61 278.049 49.87 277.729 51.11H283.469L284.239 51.08L284.269 51.1ZM268.129 58.4V54.13H263.949V58.4H268.129ZM263.949 66H268.129V61.49H263.949V66Z" fill="#2B009E"/>
<path d="M315.66 59.52L317.9 57.31C320.99 59.19 325.5 62.11 327.68 64.08L324.85 67.05C322.94 65.11 318.84 62.16 315.66 60.1V73.79H311.98V59.42C309.3 62.48 306.03 65.28 302.29 67.34C301.79 66.46 300.64 65.04 299.96 64.28C305.56 61.45 310.24 56.45 312.98 51.56H301.02V48H326.82V51.56H317.4C316.78 52.74 316.07 53.92 315.31 55.09L316.49 55.36C316.43 55.62 316.2 55.86 315.67 55.92V59.51L315.66 59.52Z" fill="#2B009E"/>
<path d="M368.43 63.7299V66.9999H364.78V69.9698C364.78 73.4998 362.95 73.8299 357.68 73.8299C357.5 72.8899 356.94 71.3899 356.44 70.4999C357.41 70.5599 358.5 70.5599 359.33 70.5599C361.04 70.5599 361.24 70.5599 361.24 69.9099V66.9899H347.84V73.8199H344.34V66.9899H340.63V63.7198H344.34V52.8199H352.64V50.8499H341.83V47.6099H367.22V50.8499H356.18V52.8199H364.78V63.7198H368.43V63.7299ZM352.64 56.0099H347.84V58.3099H352.64V56.0099ZM347.84 61.3099V63.7198H352.64V61.3099H347.84ZM361.24 56.0099H356.17V58.3099H361.24V56.0099ZM356.17 63.7299H361.24V61.3199H356.17V63.7299Z" fill="#2B009E"/>
<path d="M408.39 52.98H392.78C392.46 53.75 392.1 54.51 391.75 55.25H404.74V69.8C404.74 73.36 403.06 73.75 397.85 73.75C397.7 72.72 397.2 71.19 396.73 70.25C397.64 70.31 398.64 70.31 399.41 70.31C401.09 70.31 401.18 70.31 401.18 69.72V68.1H391.4V73.78H387.84V61.38C386.63 62.88 385.25 64.21 383.72 65.36C383.16 64.56 381.95 63.24 381.25 62.56C384.55 60.26 387.02 56.76 388.76 52.99H382.02V49.6H390.15C390.56 48.39 390.92 47.18 391.18 46.01L395.6 47.1C395.51 47.36 395.22 47.54 394.75 47.51C394.54 48.19 394.34 48.89 394.1 49.6H408.41V52.99L408.39 52.98ZM401.17 60.25V58.34H391.39V60.25H401.17ZM391.39 65.14H401.17V63.2H391.39V65.14Z" fill="#2B009E"/>
<path d="M301.4 114.75C300.43 111.12 299.47 107.49 298.5 103.87C296.85 97.71 295.17 91.55 293.55 85.38C292.56 81.6 295.32 78.48 299.19 78.93C301.32 79.17 302.75 80.49 303.4 82.87C304.62 87.38 305.82 91.8901 307.03 96.4001C307.12 96.7301 307.24 97.05 307.39 97.52C310.13 95.38 312.82 95.15 315.41 97.55C318.69 94.88 321.09 94.85 323.91 97.47C324.33 97.16 324.75 96.8301 325.19 96.5301C328.24 94.4801 332.04 95.77 333.02 99.3C334.87 105.98 336.72 112.66 338.4 119.39C340.04 125.93 337.28 132.1 331.15 135.62C325.91 138.63 320.17 139.71 314.16 139.24C310.88 138.98 308.01 137.54 305.67 135.34C300.2 130.17 294.78 124.93 289.52 119.54C286.88 116.84 287.13 113.95 289.65 111.58C291.12 110.19 292.86 109.89 294.68 110.56C295.79 110.97 296.82 111.64 297.81 112.32C298.96 113.12 300.02 114.05 301.11 114.92C301.21 114.87 301.31 114.82 301.41 114.77L301.4 114.75ZM316.82 137.35C321.55 137 326.2 136.25 330.35 133.72C335.26 130.73 337.75 125.82 336.53 120.59C334.9 113.6 332.92 106.69 331.03 99.76C330.56 98.03 329.05 97.3 327.37 97.74C325.7 98.17 324.84 99.56 325.19 101.31C325.39 102.29 325.81 103.24 325.9 104.23C325.95 104.78 325.5 105.38 325.28 105.95C324.85 105.56 324.18 105.25 324.02 104.76C323.47 103.15 323.13 101.47 322.64 99.83C322.09 98.03 320.67 97.25 318.91 97.71C317.21 98.15 316.38 99.61 316.81 101.46C317.06 102.54 317.38 103.59 317.66 104.66C317.85 105.42 318.32 106.37 317.2 106.69C315.95 107.05 315.9 105.89 315.67 105.12C315.22 103.58 314.84 102.02 314.41 100.47C313.84 98.44 312.43 97.52 310.63 98.01C308.8 98.5 308.03 99.98 308.55 102.01C308.97 103.66 309.49 105.3 309.81 106.97C309.9 107.44 309.43 108.01 309.21 108.54C308.77 108.17 308.29 107.84 307.9 107.42C307.72 107.22 307.72 106.86 307.64 106.56C305.85 99.87 304.06 93.17 302.26 86.48C301.94 85.27 301.66 84.04 301.25 82.85C300.71 81.28 299.23 80.6 297.6 81.05C295.99 81.5 295.13 82.86 295.45 84.5C295.55 84.99 295.7 85.47 295.83 85.96C298.59 96.29 301.37 106.62 304.09 116.97C304.24 117.54 303.93 118.22 303.83 118.85C303.25 118.67 302.62 118.58 302.11 118.28C301.43 117.87 300.86 117.28 300.22 116.79C298.42 115.43 296.7 113.94 294.78 112.77C292.77 111.55 290.67 112.48 289.94 114.65C289.45 116.11 290.14 117.27 291.07 118.19C296.26 123.36 301.45 128.55 306.78 133.58C309.54 136.18 312.94 137.51 316.84 137.34L316.82 137.35Z" fill="black"/>
<path d="M316.81 137.35C312.92 137.52 309.51 136.19 306.75 133.59C301.42 128.56 296.24 123.38 291.04 118.2C290.11 117.28 289.42 116.11 289.91 114.66C290.65 112.49 292.74 111.56 294.75 112.78C296.67 113.95 298.39 115.44 300.19 116.8C300.83 117.28 301.4 117.88 302.08 118.29C302.58 118.59 303.22 118.68 303.8 118.86C303.9 118.23 304.21 117.54 304.06 116.98C301.34 106.64 298.56 96.3099 295.8 85.9699C295.67 85.4799 295.52 85 295.42 84.51C295.1 82.87 295.96 81.5099 297.57 81.0599C299.21 80.6099 300.68 81.2899 301.22 82.8599C301.63 84.0399 301.9 85.2799 302.23 86.4899C304.02 93.1799 305.81 99.88 307.61 106.57C307.69 106.86 307.69 107.23 307.87 107.43C308.25 107.85 308.74 108.18 309.18 108.55C309.39 108.02 309.86 107.45 309.78 106.98C309.46 105.31 308.95 103.67 308.52 102.02C308 99.99 308.77 98.52 310.6 98.02C312.39 97.54 313.81 98.4499 314.38 100.48C314.81 102.03 315.19 103.59 315.64 105.13C315.87 105.9 315.92 107.06 317.17 106.7C318.29 106.37 317.82 105.42 317.63 104.67C317.35 103.6 317.03 102.54 316.78 101.47C316.35 99.6199 317.19 98.1599 318.88 97.7199C320.65 97.2599 322.07 98.03 322.61 99.84C323.1 101.47 323.44 103.16 323.99 104.77C324.16 105.25 324.82 105.57 325.25 105.96C325.47 105.39 325.91 104.79 325.87 104.24C325.79 103.25 325.36 102.3 325.16 101.32C324.81 99.57 325.67 98.1799 327.34 97.7499C329.02 97.3099 330.53 98.05 331 99.77C332.89 106.7 334.86 113.61 336.5 120.6C337.72 125.83 335.23 130.74 330.32 133.73C326.17 136.26 321.52 137.01 316.79 137.36L316.81 137.35Z" fill="white"/>
</svg>
