<svg width="390" height="60" viewBox="0 0 390 60" fill="none" xmlns="http://www.w3.org/2000/svg">
<path d="M359.876 0.705078H29.4855C13.2566 0.705078 0.100586 13.8612 0.100586 30.0901C0.100586 46.319 13.2566 59.4752 29.4855 59.4752H359.876C376.104 59.4752 389.261 46.319 389.261 30.0901C389.261 13.8612 376.104 0.705078 359.876 0.705078Z" fill="white"/>
<path d="M127.931 6.63013H29.9206C16.9723 6.63013 6.47559 17.1268 6.47559 30.0751V30.0901C6.47559 43.0385 16.9723 53.5352 29.9206 53.5352H127.931C140.879 53.5352 151.376 43.0385 151.376 30.0901V30.0751C151.376 17.1268 140.879 6.63013 127.931 6.63013Z" fill="#FFE900"/>
<path d="M25.8867 42.2852V30.3302H36.5816V42.1802H32.6817V41.4603H29.5767V42.3003H25.8867V42.2852ZM32.6817 34.0653H29.5767V37.6953H32.6817V34.0653ZM44.9067 17.6102V28.5002H30.3867V17.6102H44.9067ZM40.8867 24.7803V21.3602H34.1516V24.7803H40.8867ZM38.4867 30.3302H49.4517V42.0752H45.5217V41.4302H42.2367V42.1802H38.4867V30.3302ZM42.2367 37.6802H45.5217V34.0653H42.2367V37.6802Z" fill="#2E318B"/>
<path d="M56.3369 26.9252C56.3369 28.3202 56.3369 28.7852 56.3069 29.5352H61.2869V41.3402H58.0319V32.8052H56.1719C55.9619 36.0902 55.4968 39.6152 54.5818 42.2852C53.8318 41.9402 52.3469 41.4301 51.4619 41.2051C52.9169 37.3051 53.1269 31.1102 53.1269 27.4352V17.5202L57.0569 17.7302C57.0269 18.0002 56.8169 18.1651 56.3369 18.2401V23.6252H57.7619V16.7252L61.7219 16.9352C61.6919 17.2052 61.5119 17.3702 61.0019 17.4452V23.6102H62.6369V26.8952H56.3369V26.9252ZM77.2919 34.4402V37.6802H73.5419V42.3152H69.8819V37.6802H62.1269V34.4402H65.1119C64.5269 33.8252 63.4919 32.9252 62.8469 32.5352C64.6769 31.8602 65.8619 30.9752 66.6719 30.0002H63.3569V19.6501H66.8519C67.2569 18.6751 67.6619 17.5502 67.8719 16.6802L72.4319 17.7902C72.3269 18.0302 72.0869 18.1352 71.6519 18.1352C71.4119 18.6002 71.0819 19.1251 70.7669 19.6501H76.4219V30.0002H70.5419L70.2419 30.5702L74.3069 30.7802C74.2769 31.0802 74.0669 31.2452 73.5269 31.3202V34.4402H77.2769H77.2919ZM69.8819 31.1852C69.0419 32.4452 67.7519 33.5852 65.8169 34.4402H69.8819V31.1852ZM66.7919 22.5302V23.4752H68.1419V22.5302H66.7919ZM66.7919 27.1052H68.0069C68.0669 26.7752 68.0819 26.4602 68.1119 26.1302H66.7919V27.1052ZM72.8519 27.1052V26.1302H71.3969L71.3219 27.1052H72.8519ZM72.8519 23.4752V22.5302H71.3969V23.4752H72.8519Z" fill="#2E318B"/>
<path d="M104.231 37.5902H100.946C102.206 38.5352 103.691 39.6602 104.501 40.5002L101.621 42.3002C100.736 41.3102 98.7862 39.6602 97.3312 38.5502L98.9813 37.5752H95.0963L96.7613 38.5502C96.6863 38.6552 96.5213 38.7453 96.3263 38.7603C95.3813 39.9153 93.2513 41.5052 91.4513 42.2852C90.8813 41.6702 89.8612 40.7252 89.0812 40.1252C88.4962 42.3002 86.3813 42.3002 84.1763 42.3002C84.1163 41.2502 83.7713 39.7953 83.2613 38.8503C83.9363 38.9253 84.5213 38.9252 84.9113 38.9252C85.2263 38.9252 85.4513 38.8502 85.6613 38.4902C85.9613 37.9802 86.0663 35.9102 86.1413 30.1952H84.6862C84.3112 34.7552 83.4413 39.0602 81.1913 42.2402C80.5763 41.2952 79.4063 40.1102 78.4463 39.4952C81.0563 35.8352 81.2213 30.2552 81.2963 24.2402H78.8662V20.6252H82.7213V16.6952L87.2513 16.9352C87.2213 17.2352 87.0113 17.4002 86.4713 17.5052V20.6252H89.9213V21.2702C90.8663 19.9502 91.5863 18.2853 91.9763 16.6353L95.8763 17.6252C95.8013 17.8352 95.5763 17.9702 95.2013 17.9552C95.0663 18.3902 94.9013 18.8402 94.7363 19.2752H104.216V22.3952H93.1463L92.9063 22.7702L96.4012 22.9652C96.3712 23.2352 96.1612 23.4002 95.6512 23.5052V24.7652H98.3513V22.7253L102.716 22.9652C102.686 23.2352 102.476 23.4302 101.936 23.5052V24.7652H103.871V27.8102H101.936V34.4852H104.231V37.5302V37.5902ZM87.7913 26.7002L89.6963 26.7603C89.6963 27.0603 89.6963 27.4953 89.6663 27.8853C89.5913 34.9203 89.5013 38.3852 89.0963 40.0052C90.4163 39.4352 91.8113 38.4902 92.8163 37.5752H89.8763V34.5302H92.1113V27.8552H90.2513V24.8102H92.1113V23.8202C91.9013 24.0902 91.6613 24.3302 91.4063 24.5402C91.0613 24.1952 90.4613 23.7602 89.8913 23.3552V24.2702H84.9413L84.8662 26.7002H87.7762H87.7913ZM98.3513 27.8552H95.6512V28.4702H98.3513V27.8552ZM98.3513 31.4852V30.8402H95.6512V31.4852H98.3513ZM95.6512 33.8552V34.5302H98.3513V33.8552H95.6512Z" fill="#2E318B"/>
<path d="M115.931 30.2102L114.956 30.3452V39.1501C114.956 41.5951 114.146 42.3301 110.966 42.3301C110.891 41.5201 110.516 40.2302 110.111 39.4502C110.516 39.4802 110.951 39.5102 111.266 39.5102C112.046 39.5102 112.121 39.5102 112.121 39.1052V30.7502L109.556 31.0952C109.496 34.7252 109.151 39.3602 107.621 42.3602C107.111 41.8952 105.866 41.1452 105.191 40.8752C106.481 38.2652 106.751 34.6052 106.811 31.4402L106.481 31.5002C106.421 31.7402 106.181 31.8752 105.971 31.9052L105.296 28.6652L106.811 28.5302V20.2802H109.046C109.226 19.1252 109.391 17.7152 109.451 16.6652L113.471 17.3702C113.396 17.5802 113.141 17.7152 112.736 17.7452C112.526 18.4802 112.226 19.4102 111.926 20.2802H114.941V27.7352L115.826 27.6602L115.901 30.1952L115.931 30.2102ZM111.296 23.7452C111.701 24.6602 112.031 25.8452 112.136 26.7302H112.166L112.136 23.2051H109.571V24.3152L111.296 23.7452ZM109.571 28.3052L112.136 28.0652V26.9852L110.141 27.6602C110.111 26.9102 109.871 25.8002 109.571 24.8252V28.3052ZM112.106 31.5602C112.076 31.7552 111.911 31.8902 111.596 31.9052V37.5152H109.946V31.4252L112.106 31.5602ZM129.641 38.9402H131.156V41.8502H115.256V38.9402H116.771V31.9052H129.641V38.9402ZM118.751 30.9152V31.2902H116.141V17.6102H123.791V20.0402H121.961V21.3002H123.686V24.0452C124.406 22.1852 124.796 19.3801 124.976 16.7401L128.696 17.4901C128.621 17.7001 128.396 17.8651 128.051 17.8651C127.976 18.5851 127.886 19.3202 127.751 20.0702H131.036V22.9802H127.181C126.866 24.2702 126.461 25.4551 125.936 26.4001C125.396 25.9351 124.436 25.3502 123.671 24.9152V27.1501H121.946V28.4102H124.121V30.8852H118.736L118.751 30.9152ZM119.531 20.0251H118.751V21.2852H119.531V20.0251ZM121.121 23.5052H118.751V24.9602H121.121V23.5052ZM119.531 28.4402V27.1802H118.751V28.4402H119.531ZM119.636 34.8002V38.9551H120.341V34.8002H119.636ZM123.461 34.8002H122.756V38.9551H123.461V34.8002ZM124.511 29.6552V26.7452H130.601V29.6552H124.511ZM126.581 34.8002H125.876V38.9551H126.581V34.8002Z" fill="#2E318B"/>
<g filter="url(#filter0_d_70_1813)">
<path d="M170.051 36.4052V37.8751H175.541V39.8551H162.431V37.8751H167.696V36.4052H163.661V34.4851H167.696V33.0751H164.486V31.7701C163.946 32.1151 163.406 32.4602 162.836 32.7602C162.551 32.2352 161.936 31.4101 161.456 30.9901C164.096 29.7001 166.571 27.3602 167.666 25.5302L170.591 25.6801C170.531 25.8601 170.381 25.9951 170.126 26.0251C171.611 28.0201 174.176 29.8501 176.456 30.7351C175.886 31.3051 175.391 32.0701 174.986 32.7451C174.446 32.4751 173.921 32.1301 173.381 31.8001V33.0751H170.051V34.4851H174.161V36.4052H170.051ZM172.406 31.1251C170.966 30.0751 169.661 28.8451 168.866 27.7351C168.071 28.8601 166.841 30.0451 165.416 31.1251H172.391H172.406Z" fill="#2E318B"/>
<path d="M192.326 37.6352V39.6451H180.822V40.1851H178.646V26.1002H191.892V28.0501H180.822V37.6501H192.326V37.6352ZM181.512 37.0951V32.8351H185.876V37.0951H181.512ZM189.251 28.5601V32.3701H183.041V28.5601H189.251ZM183.297 34.2901V35.6401H184.001V34.2901H183.297ZM187.047 30.9451V29.9701H185.096V30.9451H187.047ZM190.826 32.8351V37.0951H186.372V32.8351H190.826ZM188.922 35.6401V34.2901H188.172V35.6401H188.922Z" fill="#2E318B"/>
<path d="M206.546 33.3902L207.911 33.8852C207.866 34.0202 207.806 34.0652 207.731 34.1552C207.401 35.4452 206.846 36.5551 206.111 37.4851C206.846 37.9201 207.671 38.2352 208.616 38.4452C208.151 38.8502 207.581 39.6602 207.296 40.1702C206.306 39.8852 205.421 39.4502 204.671 38.9102C204.011 39.4352 203.276 39.8551 202.451 40.2001C202.226 39.7201 201.746 39.0001 201.341 38.5801V40.1851H199.211V38.9402C197.696 39.1052 196.241 39.2702 195.221 39.3752C195.191 39.5252 195.071 39.6001 194.951 39.6151L194.351 37.5302C194.726 37.5152 195.146 37.5001 195.626 37.4701V33.0901H194.336V31.3502H208.466V33.0901H201.341V38.4452C202.001 38.2202 202.616 37.8902 203.156 37.5002C202.646 36.8852 202.241 36.1951 201.881 35.4301L203.051 35.1151H201.626V33.4501H206.201L206.546 33.3902ZM206.426 26.1301V30.9752H196.361V26.1301H206.426ZM199.211 33.0901H197.636V33.4651H199.211V33.0901ZM197.636 34.9651V35.3852H199.211V34.9651H197.636ZM197.636 37.3651L199.211 37.2602V36.8702H197.636V37.3651ZM204.191 27.8852V27.5251H198.491V27.8852H204.191ZM204.191 29.5652V29.1752H198.491V29.5652H204.191ZM203.741 35.1151C203.936 35.5051 204.206 35.8501 204.491 36.1801C204.746 35.8501 204.971 35.4901 205.166 35.1151H203.741Z" fill="#2E318B"/>
<path d="M224.486 31.9201H219.206C220.091 34.8451 221.771 37.0501 224.876 38.0251C224.336 38.5201 223.601 39.5251 223.271 40.1851C220.436 39.1051 218.786 37.2151 217.676 34.5751C216.806 36.8401 215.171 38.8201 212.066 40.1851C211.751 39.5551 211.076 38.7301 210.446 38.2201C214.031 36.7801 215.426 34.5601 215.966 31.9051H210.776V29.5951H216.236C216.311 28.3201 216.296 26.9851 216.311 25.6351L219.221 25.8151C219.191 25.9951 219.041 26.1151 218.741 26.1601C218.741 27.3001 218.696 28.4551 218.636 29.5951H224.486V31.9051V31.9201Z" fill="#2E318B"/>
<path d="M235.091 31.7101L236.636 32.4451C236.591 32.5651 236.501 32.6701 236.381 32.7301C235.691 35.6101 234.266 37.9951 232.436 39.2701C232.061 38.7901 231.161 37.9351 230.636 37.6051C231.956 36.8101 233.006 35.4902 233.651 33.8852H231.041V31.7851H234.716L235.091 31.7101ZM239.156 29.8201C239.426 30.7651 239.771 31.6801 240.176 32.5201C241.121 31.7401 242.156 30.7501 242.831 29.8651L245.111 31.7101C245.036 31.7851 244.886 31.8301 244.706 31.8301C244.646 31.8301 244.586 31.8302 244.526 31.8152C243.716 32.5802 242.381 33.6151 241.301 34.3051C242.321 35.6401 243.626 36.6902 245.306 37.3502C244.781 37.8152 244.061 38.7451 243.716 39.3901C241.691 38.4301 240.236 36.9752 239.156 35.1002V37.8001C239.156 39.7951 238.286 40.1851 235.241 40.1851C235.151 39.5551 234.821 38.6101 234.521 38.0401C235.226 38.0851 236.216 38.0851 236.486 38.0851C236.756 38.0701 236.861 37.9951 236.861 37.7701V31.1552H233.231V29.0251H238.586C237.296 28.4551 235.616 27.8701 234.311 27.5401L235.376 25.5151C237.071 25.8601 239.696 26.6851 241.001 27.3601L239.831 29.6552C239.636 29.5502 239.411 29.4301 239.156 29.3101V29.8351V29.8201Z" fill="#2E318B"/>
<path d="M260.5 38.0402H259.48C260.29 38.4152 261.1 38.7902 261.625 39.0752L259.75 40.2002C259.135 39.7952 257.995 39.1503 257.005 38.6703L257.785 38.0402H255.655L256.585 38.6852C256.585 38.6852 256.435 38.7602 256.315 38.7752C255.595 39.2402 254.14 39.8552 253.06 40.1852C252.73 39.8102 252.115 39.2702 251.665 38.9252C252.43 38.7302 253.315 38.3702 254.035 38.0402H253.165V37.6952L251.53 38.2802C251.425 37.6352 251.155 36.7052 250.885 35.8652V40.2002H248.98V35.4452C248.875 36.6752 248.62 38.1602 248.23 39.0752C247.855 38.8352 247.18 38.5202 246.73 38.3552C247.06 37.5152 247.24 36.0752 247.315 34.8002L248.995 35.1902V34.2002L247.495 34.2902C247.465 34.4402 247.33 34.5152 247.21 34.5302L246.805 32.3552H247.855C248.05 32.1002 248.26 31.8152 248.455 31.5302C248.035 30.8702 247.39 30.0753 246.82 29.4753C247.165 28.9503 247.525 28.4552 247.87 27.9452L248.095 28.1703C248.47 27.3603 248.83 26.4302 249.055 25.6802L251.171 26.4753C251.111 26.5953 250.96 26.6552 250.72 26.6552C250.36 27.4952 249.79 28.6052 249.28 29.4302C249.385 29.5502 249.475 29.6702 249.565 29.8052C250.03 29.0252 250.45 28.2302 250.78 27.5402L252.805 28.4252C252.745 28.5452 252.58 28.6052 252.34 28.6052C251.89 29.3552 251.305 30.2552 250.675 31.1102L251.74 30.6602C252.04 31.2302 252.355 31.8752 252.595 32.4902V29.6252H261.055V32.8652H252.73C252.88 33.2852 252.986 33.6602 253.046 33.9902L251.44 34.6952C251.41 34.4852 251.365 34.2452 251.29 33.9902L250.87 34.0352V35.2052L252.25 34.7552C252.58 35.6552 252.97 36.8403 253.15 37.6353V33.2253H260.485V38.0552L260.5 38.0402ZM249.76 32.2953H250.705C250.6 32.0253 250.48 31.7552 250.375 31.5002L249.76 32.2953ZM255.625 28.0202V27.6752H252.355V26.3702H255.625V25.6353L258.265 25.7702C258.25 25.9352 258.13 26.0402 257.8 26.0852V26.3552H261.385V27.6602H257.8V28.0052H260.605V29.2352H253.09V28.0052H255.64L255.625 28.0202ZM254.26 31.0652C254.74 30.9752 254.98 30.8252 255.115 30.6152H254.26V31.0652ZM254.845 31.8302C254.725 31.6052 254.47 31.3052 254.26 31.1252V31.8302H254.845ZM256.51 30.6152C256.39 31.0652 256.09 31.5302 255.04 31.8302H259.285V31.5902C259.195 31.6052 259.105 31.6052 259.015 31.6052H258.325C257.23 31.6052 256.975 31.4102 256.96 30.6302H256.51V30.6152ZM255.07 34.2152V34.5752H258.49V34.2152H255.07ZM255.07 35.4152V35.8052H258.49V35.4152H255.07ZM255.07 36.6302V37.0352H258.49V36.6302H255.07ZM258.46 30.6302C258.46 30.6302 258.46 30.7652 258.475 30.8102C258.475 30.8552 258.52 30.8853 258.58 30.8853C258.91 30.8853 258.955 30.8852 259.015 30.8402C259.09 30.8702 259.18 30.9002 259.285 30.9302V30.6302H258.46Z" fill="#2E318B"/>
<path d="M263.756 40.1702V33.3752H269.831V40.1101H267.611V39.6902H265.856V40.1702H263.756ZM267.611 35.5051H265.856V37.5751H267.611V35.5051ZM274.556 26.1451V32.3251H266.306V26.1451H274.556ZM272.276 30.2252V28.2751H268.451V30.2252H272.276ZM270.911 33.3752H277.136V40.0502H274.901V39.6752H273.026V40.1101H270.896V33.3752H270.911ZM273.041 37.5601H274.916V35.5051H273.041V37.5601Z" fill="#2E318B"/>
<path d="M281.98 31.4402C281.98 32.2352 281.98 32.4902 281.98 32.9252H284.815V39.6302H282.955V34.7702H281.905C281.785 36.6452 281.515 38.6402 281.005 40.1552C280.57 39.9602 279.73 39.6602 279.235 39.5402C280.06 37.3202 280.18 33.7952 280.18 31.7102V26.0702L282.415 26.1902C282.4 26.3402 282.28 26.4303 281.995 26.4753V29.5352H282.805V25.6202L285.055 25.7402C285.04 25.8902 284.935 25.9802 284.635 26.0252V29.5352H285.565V31.4102H281.98V31.4402ZM293.89 35.7152V37.5602H291.76V40.2002H289.675V37.5602H285.265V35.7152H286.96C286.63 35.3702 286.045 34.8603 285.67 34.6353C286.705 34.2453 287.38 33.7502 287.845 33.1952H285.97V27.3152H287.965C288.19 26.7602 288.43 26.1153 288.55 25.6353L291.13 26.2652C291.07 26.4002 290.935 26.4602 290.68 26.4602C290.545 26.7152 290.365 27.0302 290.17 27.3152H293.38V33.1952H290.05L289.885 33.5103L292.195 33.6302C292.195 33.7952 292.06 33.8852 291.745 33.9302V35.7002H293.875L293.89 35.7152ZM289.675 33.8702C289.195 34.5902 288.46 35.2352 287.365 35.7152H289.675V33.8702ZM287.92 28.9502V29.4902H288.685V28.9502H287.92ZM287.92 31.5602H288.61C288.64 31.3802 288.655 31.1852 288.67 31.0052H287.92V31.5602ZM291.37 31.5602V31.0052H290.545L290.5 31.5602H291.37ZM291.37 29.4902V28.9502H290.545V29.4902H291.37Z" fill="#2E318B"/>
<path d="M313.961 28.455H308.051C307.946 28.95 307.811 29.4751 307.646 29.9851H312.416V40.1701H310.031V39.2851H304.016V40.1701H301.751V29.9851H305.276C305.366 29.5051 305.456 28.98 305.516 28.455H300.011V26.3701H313.946V28.455H313.961ZM310.046 33.6151V32.0401H304.031V33.6151H310.046ZM304.031 37.2301H310.046V35.6251H304.031V37.2301Z" fill="#2E318B"/>
<path d="M321.176 26.4901C321.116 26.6251 320.966 26.7002 320.711 26.6702C320.381 27.5702 319.976 28.4701 319.556 29.3551L320.156 29.5501C320.111 29.6851 319.976 29.8202 319.691 29.8502V40.2151H317.531V32.8502C317.216 33.3002 316.886 33.7201 316.556 34.1101C316.376 33.5701 315.866 32.3701 315.581 31.8301C316.796 30.4651 318.026 28.0201 318.761 25.6651L321.161 26.4901H321.176ZM328.826 36.2551C329.546 37.0351 330.371 38.1001 330.701 38.8801L328.946 39.8701C328.811 39.4951 328.571 39.0601 328.271 38.5951C328.046 39.8251 327.521 40.1552 326.396 40.1552H324.911C322.826 40.1552 322.781 39.3751 322.781 37.6651C322.481 38.4451 322.046 39.2551 321.461 39.8551L319.886 38.7151C320.501 38.1601 321.026 37.2751 321.296 36.4501L322.781 37.0801V36.4501L324.581 36.5551C324.401 36.3901 324.206 36.2251 323.996 36.0751L324.236 35.8801H321.386V31.3201H329.516V35.8801H326.411C326.696 36.1201 326.951 36.3902 327.116 36.6002L325.706 37.7401C325.541 37.4851 325.241 37.1701 324.926 36.8701C324.881 36.8701 324.836 36.8851 324.776 36.9001V38.0401C324.776 38.4451 324.836 38.4752 325.226 38.4752H326.156C326.471 38.4752 326.561 38.3552 326.606 37.5452C326.876 37.7552 327.446 37.9801 327.926 38.1151C327.686 37.8001 327.431 37.4701 327.191 37.1851L328.826 36.2851V36.2551ZM320.891 26.7751H324.266V25.7401L326.966 25.8751C326.966 26.0551 326.816 26.1451 326.501 26.2051V26.7751H330.071V28.3801H329.051L329.201 28.4251C329.141 28.5451 329.006 28.6051 328.766 28.6051L328.466 29.1601H330.491V30.8551H320.351V29.1601H322.421C322.331 28.9051 322.211 28.6051 322.106 28.3801H320.906V26.7751H320.891ZM323.501 32.6101V33.0452H327.326V32.6101H323.501ZM323.501 34.1552V34.6051H327.326V34.1552H323.501ZM324.146 28.3801C324.266 28.6351 324.386 28.9201 324.476 29.1601H326.351C326.456 28.9201 326.546 28.6351 326.636 28.3801H324.146Z" fill="#2E318B"/>
<path d="M336.132 31.5602V36.3752C336.987 37.8002 338.652 37.8002 341.292 37.8002C343.107 37.8002 345.252 37.7402 346.797 37.6052C346.557 38.1452 346.197 39.2102 346.092 39.8702C344.937 39.9302 343.392 39.9753 341.922 39.9753C338.127 39.9753 336.537 39.9002 335.142 38.2802C334.512 38.8352 333.867 39.3752 333.327 39.8102C333.327 40.0052 333.267 40.0952 333.087 40.1552L331.992 37.7102C332.622 37.3652 333.327 36.9302 333.972 36.4652V33.6152H332.397V31.5602H336.147H336.132ZM333.972 25.9802C334.842 26.6102 335.967 27.5403 336.477 28.2603L334.707 29.7302C334.257 29.0252 333.192 28.0052 332.322 27.3152L333.972 25.9802ZM336.522 30.2552H338.022C337.527 29.9852 336.852 29.6852 336.387 29.4902C337.137 28.6202 337.737 27.1202 338.037 25.7552L340.392 26.3552V25.6353L343.062 25.7702C343.047 25.9352 342.912 26.0403 342.597 26.1003V27.2552H345.762V29.1302H342.597V30.2702H346.437V32.1152H336.507V30.2702L336.522 30.2552ZM345.417 37.4552H343.227V37.1102H339.792V37.5152H337.707V32.5952H345.402V37.4702L345.417 37.4552ZM340.392 30.2552V29.1152H339.027C338.832 29.5352 338.592 29.9102 338.352 30.2552H340.392ZM339.792 35.2502H343.227V34.3202H339.792V35.2502ZM340.392 27.2552V26.4302C340.332 26.5202 340.212 26.5652 340.017 26.5652C339.957 26.7902 339.882 27.0302 339.807 27.2552H340.392Z" fill="#2E318B"/>
<path d="M362.936 37.2751H361.181C361.946 37.8601 362.712 38.5501 363.177 39.0451L361.271 40.2301C360.761 39.5701 359.682 38.55 358.797 37.83L359.907 37.2751H357.146L358.512 37.8151C358.437 37.9651 358.256 37.9951 358.076 37.9651C357.281 38.7601 356.036 39.6301 354.866 40.2001C354.566 39.8101 353.981 39.1651 353.561 38.7751C351.941 39.0451 350.381 39.3151 349.286 39.4651C349.256 39.6151 349.121 39.7051 348.971 39.7351L348.372 37.4701C349.002 37.4101 349.767 37.3201 350.607 37.2301V36.7951L349.241 37.2301C349.166 36.5251 348.927 35.4751 348.672 34.6651L350.096 34.2601C350.291 34.8301 350.472 35.5051 350.607 36.0751V34.08H348.672V32.205H350.607V31.3651H349.436V30.8551C349.091 30.4051 348.536 29.8801 348.146 29.6101C349.331 28.3951 350.217 26.8501 350.727 25.6201L353.111 26.0401C353.066 26.1901 352.946 26.2801 352.706 26.2951L352.677 26.3401C353.322 26.7751 354.041 27.2851 354.596 27.7651V26.8201H357.567V25.6201L360.131 25.7551C360.131 25.9201 359.996 26.0101 359.681 26.0701V26.8051H362.727V28.5451H359.681V28.9801H362.006V35.0401H355.407V28.9801H357.552V28.5451H355.017L353.997 30.1351L353.922 30.0451V31.3501H352.556V32.1901H354.387V34.0651H352.556V36.2251C352.721 35.6101 352.931 34.7851 353.006 34.1851L354.881 34.7551C354.821 34.8601 354.687 34.9201 354.462 34.9201C354.327 35.4751 354.057 36.2701 353.817 36.8101L354.447 36.7351V35.4151H362.936V37.2601V37.2751ZM353.427 29.5351C352.947 29.0701 352.347 28.5751 351.762 28.1401C351.507 28.6051 351.206 29.0551 350.876 29.5351H353.427ZM352.572 36.4651V36.9901L353.622 36.8551L352.572 36.4801V36.4651ZM354.642 37.2601L354.686 38.1001C355.136 37.8451 355.542 37.5451 355.887 37.2601H354.642ZM359.922 30.6301V30.2851H357.447V30.6301H359.922ZM359.922 32.1901V31.8451H357.447V32.1901H359.922ZM359.922 33.7651V33.4051H357.447V33.7651H359.922Z" fill="#2E318B"/>
</g>
<defs>
<filter id="filter0_d_70_1813" x="161.036" y="25.0951" width="204.541" height="17.535" filterUnits="userSpaceOnUse" color-interpolation-filters="sRGB">
<feFlood flood-opacity="0" result="BackgroundImageFix"/>
<feColorMatrix in="SourceAlpha" type="matrix" values="0 0 0 0 0 0 0 0 0 0 0 0 0 0 0 0 0 0 127 0" result="hardAlpha"/>
<feOffset dx="0.99" dy="0.99"/>
<feGaussianBlur stdDeviation="0.705"/>
<feColorMatrix type="matrix" values="0 0 0 0 0.0941176 0 0 0 0 0.121569 0 0 0 0 0.215686 0 0 0 0.34 0"/>
<feBlend mode="normal" in2="BackgroundImageFix" result="effect1_dropShadow_70_1813"/>
<feBlend mode="normal" in="SourceGraphic" in2="effect1_dropShadow_70_1813" result="shape"/>
</filter>
</defs>
</svg>
