<svg width="397" height="34" viewBox="0 0 397 34" fill="none" xmlns="http://www.w3.org/2000/svg">
<path d="M18.5315 11.805H32.6015V15H0.396484V11.805H14.2115V10.32H4.4015V7.30498H14.2115V5.77498H2.4515V2.57998H14.2115V0.0299835L19.4915 0.314984C19.4615 0.674984 19.1765 0.914984 18.5315 0.989984V2.57998H30.3965V5.77498H18.5315V7.30498H28.5215V10.32H18.5315V11.805ZM27.2165 16.44V29.625C27.2165 33.375 25.3415 33.63 18.7865 33.63C18.5765 32.595 18.0065 31.185 17.5115 30.225C18.3965 30.255 19.3865 30.3 20.2415 30.3C22.8965 30.3 22.8965 30.27 22.8965 29.595V28.245H9.96649V33.555H5.7065V16.44H27.2165ZM22.8965 19.485H9.96649V21.045H22.8965V19.485ZM9.96649 25.47H22.8965V23.835H9.96649V25.47Z" fill="white"/>
<path d="M97.327 21.9V26.04H85.1019V33.555H80.707V26.04H64.582V21.9H70.252V12.54H80.707V8.22002H72.907C71.347 10.8 69.547 13.185 67.657 14.955C66.877 14.145 65.287 12.72 64.252 12.045C67.372 9.36001 70.282 4.60502 71.872 1.52588e-05L77.002 1.59002C76.867 1.87502 76.5069 2.05502 76.0119 2.01002C75.7269 2.71502 75.4119 3.39002 75.0969 4.09502H95.332V8.20501H85.087V12.525H94.5519V16.5H85.087V21.885H97.3119L97.327 21.9ZM74.5119 21.9H80.707V16.515H74.5119V21.9Z" fill="white"/>
<path d="M151.026 9.91501C151.341 13.53 151.911 17.04 152.586 20.01C154.041 17.535 155.211 14.805 156.051 11.895L160.941 13.275C160.866 13.59 160.521 13.8 159.951 13.77C158.541 18.015 156.591 21.84 154.176 25.185C155.211 27.765 156.411 29.37 157.641 29.37C158.526 29.37 159.021 27.495 159.231 22.995C160.116 23.955 161.541 24.975 162.666 25.41C161.961 31.995 160.581 33.6 157.281 33.6C154.806 33.57 152.781 31.755 151.191 28.785C149.391 30.66 147.366 32.325 145.131 33.675C144.531 32.79 143.181 31.155 142.326 30.345C144.981 28.89 147.396 26.91 149.451 24.495C148.101 20.415 147.261 15.285 146.796 9.93001H136.101V13.515H142.971L145.161 13.59V14.865C145.026 22.875 144.801 26.055 143.991 27.165C142.971 28.47 141.906 28.8 137.436 28.695C137.331 27.45 136.911 25.785 136.266 24.765C137.571 24.87 138.786 24.9 139.341 24.9C139.806 24.9 140.121 24.795 140.406 24.48C140.796 23.985 140.931 22.14 141.036 17.43H136.071C135.936 22.605 135.111 29.37 131.856 33.66C131.181 32.85 129.441 31.395 128.526 30.855C131.616 26.715 131.856 20.61 131.856 16.005V5.85001H146.496C146.391 3.97501 146.316 2.05501 146.316 0.180008L151.671 0.465008C151.641 0.855008 151.311 1.06501 150.636 1.17001C150.606 2.73001 150.636 4.29001 150.711 5.85001H156.666C155.421 4.78501 153.726 3.54001 152.271 2.65501L154.926 0.180008C156.771 1.24501 159.216 2.83501 160.416 4.03501L158.571 5.85001H161.661V9.93001H150.996L151.026 9.91501Z" fill="white"/>
<path d="M214.582 13.245C215.107 14.835 215.752 16.32 216.502 17.745C218.302 16.545 220.252 15.09 221.572 13.845L225.292 17.205C225.157 17.34 224.872 17.415 224.587 17.415C224.482 17.415 224.332 17.415 224.197 17.385C222.817 18.405 220.552 19.83 218.602 20.925C220.732 23.655 223.462 25.785 226.897 27.06C225.937 27.915 224.662 29.58 224.032 30.75C217.372 27.81 213.442 21.855 211.102 14.175C210.142 14.85 209.122 15.45 208.012 16.05C212.587 19.275 214.432 23.415 214.432 26.82C214.432 30.9 211.852 33.63 207.772 33.63C206.917 33.63 205.927 33.6 204.937 33.555C204.862 32.415 204.547 30.75 203.797 29.52C204.997 29.655 206.062 29.7 206.917 29.7C207.772 29.7 208.507 29.595 209.047 29.025C209.722 28.56 210.112 27.615 210.112 26.37C210.112 25.95 210.082 25.485 209.977 25.02C206.077 27.99 200.692 30.795 196.087 32.355C195.592 31.32 194.707 29.775 193.852 28.845C198.922 27.57 204.937 24.63 208.447 21.69C208.237 21.375 207.982 21.06 207.697 20.73C204.682 22.71 200.467 24.735 197.137 25.935C196.672 24.975 195.787 23.52 195.007 22.71C198.337 21.9 202.627 20.19 205.387 18.495C205.072 18.24 204.712 18 204.367 17.745C201.997 18.735 199.447 19.545 197.002 20.16C196.582 19.35 195.622 17.745 195.022 16.98C198.817 16.2 202.822 14.925 206.047 13.26H200.347V9.645H219.337V13.26H214.627L214.582 13.245ZM198.997 7.47V11.61H194.857V3.615H207.607V0.104996L212.962 0.389996C212.932 0.749996 212.677 0.959996 212.002 1.065V3.615H225.037V11.625H220.672V7.485H198.982L198.997 7.47Z" fill="white"/>
<path d="M257.182 23.25C259.207 20.625 260.437 16.56 261.007 12.585L265.087 13.62C264.412 17.805 263.317 22.335 261.187 25.095L257.182 23.25ZM271.777 27.465C271.777 29.16 272.062 29.445 273.757 29.445H278.827C280.492 29.445 280.777 28.455 281.017 23.355C282.007 24.105 283.822 24.81 284.992 25.095C284.497 31.47 283.297 33.465 279.142 33.465H273.232C268.807 33.465 267.532 32.16 267.487 27.72C265.222 29.28 262.777 30.66 260.182 31.86C259.612 30.87 258.307 29.31 257.422 28.455C261.067 26.895 264.442 24.84 267.487 22.545V9.915L272.737 10.2C272.707 10.59 272.452 10.8 271.777 10.905V18.885C277.087 13.86 281.167 7.965 283.792 2.19L288.712 4.275C288.502 4.635 288.112 4.77 287.512 4.695C284.077 11.64 278.827 18.765 271.777 24.495V27.435V27.465ZM269.767 0.104996C273.232 1.245 277.312 3.225 279.682 4.86L276.847 8.655C274.582 6.885 270.472 4.725 266.992 3.555L269.752 0.119996L269.767 0.104996ZM287.662 25.47C286.777 22.32 284.407 17.505 282.097 13.995L285.997 12.075C288.472 15.54 290.812 20.145 291.877 23.265L287.662 25.455V25.47Z" fill="white"/>
<path d="M354.682 14.385H335.407C335.152 14.88 334.882 15.375 334.597 15.87H351.352V33.615H347.062V32.34H334.132V33.615H330.052V21.855C328.462 23.49 326.617 24.945 324.532 26.145C323.962 25.155 322.687 23.595 321.877 22.74C325.597 20.715 328.432 17.775 330.562 14.385H322.987V11.055H332.377C332.587 10.53 332.842 10.035 333.052 9.49501H325.507V6.27001H334.192L334.612 4.74001C331.672 4.84501 328.702 4.87501 325.897 4.84501C325.867 3.93001 325.477 2.50501 325.117 1.65001C333.832 1.65001 344.137 1.23001 350.167 0.240005L352.747 3.39001C352.642 3.46501 352.462 3.49501 352.282 3.49501C352.147 3.49501 351.997 3.46501 351.817 3.42001C348.592 3.91501 344.452 4.30501 339.982 4.51501C339.847 4.72501 339.562 4.87501 339.097 4.87501C338.962 5.34001 338.857 5.79001 338.707 6.25501H352.732V9.48001H337.597C337.417 10.005 337.207 10.5 336.997 11.04H354.682V14.37V14.385ZM347.062 20.625V19.095H334.132V20.625H347.062ZM347.062 24.84V23.28H334.132V24.84H347.062ZM334.132 29.13H347.062V27.495H334.132V29.13Z" fill="white"/>
<path d="M389.932 27.285C389.932 25.41 391.462 23.85 393.337 23.85C395.212 23.85 396.697 25.41 396.697 27.285C396.697 29.16 395.212 30.72 393.337 30.72C391.462 30.72 389.932 29.13 389.932 27.285ZM391.342 21.255L390.457 3.01503H396.337L395.482 21.255H391.342Z" fill="white"/>
</svg>
