<svg width="1281" height="111" viewBox="0 0 1281 111" fill="none" xmlns="http://www.w3.org/2000/svg">
<path d="M76.05 33.675C72.615 30.465 69.06 27.375 65.745 24.63L78.69 14.55C90.15 23.37 104.46 36.075 110.76 45.825L96.45 57.39C94.965 54.75 92.79 51.78 90.15 48.69C60.03 50.175 28.875 51.435 8.37 52.125C8.025 53.385 6.885 53.955 5.73 54.075L0 35.505L19.935 35.16C26.805 24.855 34.02 11.34 38.25 0L58.86 7.56C58.29 8.7 56.805 9.285 54.855 9.285C50.955 17.295 45.345 26.58 39.735 34.71L76.035 33.675H76.05ZM16.95 109.95V59.55H93.57V109.485H76.05V106.5H33.675V109.935H16.95V109.95ZM76.05 75.48H33.675V90.375H76.05V75.48Z" fill="white"/>
<path d="M123.57 32.52C129.3 35.16 136.965 39.51 140.745 42.945L131.13 55.665C127.815 52.23 120.255 47.19 114.525 44.1L123.57 32.535V32.52ZM125.97 2.745C131.7 5.61 139.26 10.305 142.92 13.965L132.96 26.445C129.75 22.665 122.31 17.4 116.58 13.965L125.97 2.745ZM117.375 100.44C121.62 91.395 127.335 77.07 131.805 63.33L144.975 71.805C141.315 84.06 136.95 96.195 133.29 105.135C134.085 105.93 134.55 106.86 134.55 107.775C134.55 108.345 134.325 108.915 134.085 109.5L117.36 100.455L117.375 100.44ZM213.24 42.15L219.66 40.095C221.835 44.67 224.01 50.625 224.925 54.525L216.57 57.39C216 54.405 214.74 50.055 213.255 46.17V59.91H202.95V48.345C201.69 52.35 199.98 56.595 197.79 59.46C196.53 58.32 194.355 56.715 192.525 55.455V59.235H170.31V52.59L162.975 54.645C162.63 52.005 161.835 48.12 160.92 44.685V59.925H150.84V49.275C149.46 52.83 147.75 56.37 145.68 59.01C143.955 57.405 140.76 55.11 138.69 53.85C141.09 50.535 142.935 45.15 143.955 40.11L150.825 42.06V38.28L144.405 38.625C144.18 39.54 143.37 40.005 142.575 40.11L139.59 28.995H146.34C147.255 27.855 148.29 26.7 149.325 25.56C146.925 23.04 143.835 20.295 140.97 18.225L146.01 10.215L147.27 11.01C149.22 7.695 151.05 3.795 152.19 0.809998L162.39 6.54C161.925 7.23 160.905 7.575 159.645 7.455C158.265 9.855 156.21 13.185 154.035 16.155L155.52 17.535C157.245 15.135 158.835 12.72 160.095 10.665L167.19 15.135V12.39H194.565V14.91L197.55 10.215L198.81 11.01C200.865 7.695 202.815 3.795 204.075 0.809998L214.275 6.54C213.81 7.23 212.79 7.575 211.53 7.455C210.045 9.855 207.87 13.185 205.695 16.155L207.3 17.64C209.25 15.12 211.08 12.6 212.46 10.305L222.42 16.605C221.85 17.4 220.695 17.52 219.555 17.4C216.81 20.715 213.03 25.08 209.13 28.965H214.05C213.705 27.825 213.255 26.67 212.79 25.65L220.47 22.56C222.525 26.91 224.475 32.865 225.045 36.645L216.915 40.08C216.795 39.285 216.69 38.355 216.45 37.44L213.24 37.665V42.135V42.15ZM207.165 85.56L210.375 85.095L219.645 87.615C219.42 88.755 219.075 89.91 218.505 90.825C215.52 108.81 211.515 109.95 194.22 109.95C191.355 109.95 188.04 109.95 184.605 109.83C184.485 106.17 182.775 101.235 180.6 97.92C185.175 98.385 190.11 98.49 193.32 98.49C199.395 98.49 200.31 98.49 201.675 95.505H161.82L161.025 98.37L146.13 96.54C148.185 90.24 150.375 81.3 151.74 73.86H196.635V71.565H148.08V62.295H211.995V83.145H164.925L164.355 85.545H207.195L207.165 85.56ZM192.51 51.09C193.89 47.88 194.91 43.875 195.6 40.095L202.935 42.15V38.25L196.86 38.595C196.635 39.51 195.825 39.975 195.03 40.08L192.39 30.12H170.28V22.905H192.495V28.98H197.88C198.915 27.945 199.935 26.805 200.97 25.545C199.02 23.595 196.845 21.54 194.55 19.815V20.61H167.175V17.745C164.655 20.955 161.1 25.08 157.32 28.965H161.67L160.635 25.65L167.385 23.25C168.645 26.235 169.56 29.775 170.25 32.865V32.4H192.465V39.615H170.25V37.56L163.605 39.96C163.605 39.165 163.485 38.355 163.38 37.44L160.86 37.665V42.015L167.61 40.29C168.645 43.5 169.665 47.385 170.25 50.37V41.895H192.465V51.06L192.51 51.09ZM191.595 2.76V10.08H171.435V2.745H191.595V2.76ZM182.775 52.35V48.795H179.565V52.35H182.775Z" fill="white"/>
<path d="M331.785 61.62H293.07C292.275 70.095 290.205 78 285.63 85.095C299.265 91.17 316.785 92.535 340.035 92.775C336.72 96.78 333.165 104.115 332.25 109.95C308.085 108.69 288.72 105.705 273.615 97.35C265.71 102.96 254.835 107.55 240.06 110.52C238.11 106.74 233.535 99.405 229.86 95.625C243.255 93.57 252.885 90.585 259.635 86.805C254.37 81.42 249.9 74.775 246 66.645L260.775 61.605H239.82V15.24H276.015V1.83L296.865 2.865C296.745 4.245 295.725 5.04 293.31 5.505V15.24H331.8V61.62H331.785ZM256.08 31.155V45.705H276.015V31.155H256.08ZM261.585 61.62C264.555 67.11 267.885 71.7 271.665 75.48C274.065 71.355 275.22 66.66 275.67 61.62H261.585ZM314.61 31.155H293.31V45.705H314.61V31.155Z" fill="white"/>
<path d="M404.4 87.39H451.935V104.22H346.215V87.39H386.415V2.40001L408.06 3.54001C407.94 4.92001 406.92 5.71501 404.4 6.18001V34.02H443.805V50.85H404.4V87.39Z" fill="white"/>
<path d="M576.075 59.1L586.275 62.76C585.93 63.795 585.48 64.14 584.895 64.815C582.375 74.43 578.25 82.8 572.76 89.67C578.25 92.88 584.445 95.28 591.54 96.885C588.105 99.87 583.755 105.93 581.685 109.83C574.245 107.655 567.705 104.445 561.99 100.44C557.07 104.34 551.565 107.535 545.385 110.055C543.66 106.5 540.12 101.115 537.135 97.92V109.95H521.22V100.665C509.88 101.925 499.005 103.185 491.325 103.875C491.1 105.015 490.185 105.585 489.27 105.705L484.8 90.135C487.545 90.015 490.755 89.91 494.31 89.67V56.91H484.695V43.86H590.415V56.91H537.15V96.99C542.07 95.265 546.66 92.865 550.665 89.895C546.885 85.32 543.795 80.16 541.155 74.43L549.855 72.03H539.205V59.55H573.45L576.09 59.085L576.075 59.1ZM575.16 4.81499V40.995H499.905V4.81499H575.16ZM521.22 56.925H509.43V59.67H521.22V56.925ZM509.43 70.905V73.995H521.22V70.905H509.43ZM509.43 88.89L521.22 88.095V85.23H509.43V88.89ZM558.45 18V15.255H515.85V18H558.45ZM558.45 30.6V27.735H515.85V30.6H558.45ZM555.135 72.06C556.62 74.925 558.57 77.565 560.745 80.07C562.695 77.55 564.3 74.91 565.785 72.06H555.135Z" fill="white"/>
<path d="M659.79 93.915H704.685V106.86H599.55V93.915H643.065V90.135H608.025V77.76H643.065V74.325H611.805V37.23H643.065V34.365H600.225V21.525H643.065V17.97C632.295 18.54 621.42 18.885 611.115 19.005C610.77 15.45 609.06 9.735 607.68 6.525C635.055 5.955 665.865 4.005 685.215 0.690002L695.985 13.065C695.52 13.41 694.725 13.635 693.93 13.635C693.465 13.635 693.015 13.515 692.445 13.41C683.055 14.895 671.835 16.05 659.805 16.965V21.54H703.905V34.365H659.805V37.23H693.015V74.34H659.805V77.775H697.26V90.15H659.805V93.93L659.79 93.915ZM628.065 47.88V50.97H643.065V47.88H628.065ZM628.065 63.69H643.065V60.6H628.065V63.69ZM675.945 47.88H659.79V50.97H675.945V47.88ZM675.945 63.69V60.6H659.79V63.69H675.945Z" fill="white"/>
<path d="M714.06 35.97H819.195V47.535H714.06V35.97ZM774.54 92.55V95.295H819.21V107.205H714.075V95.295H758.4V92.55H724.845V82.245H758.4V79.845H727.815V50.07H805.125V79.845H774.54V82.245H808.44V92.55H774.54ZM803.28 4.58998V33.21H729.87V4.57498H803.28V4.58998ZM743.385 58.425V61.065H758.385V58.425H743.385ZM743.385 71.475H758.385V68.835H743.385V71.475ZM786.45 15.12V12.6H745.905V15.12H786.45ZM786.45 25.2V22.68H745.905V25.2H786.45ZM788.745 61.05V58.41H774.54V61.05H788.745ZM788.745 71.475V68.835H774.54V71.475H788.745Z" fill="white"/>
<path d="M926.175 36.765L936.135 41.01C935.91 41.805 935.22 42.735 934.53 43.305C931.32 60.135 925.83 74.46 918.375 86.025C923.535 90.495 929.595 94.05 936.93 96.675C933.615 99.66 929.025 105.945 926.85 110.19C919.635 107.1 913.56 103.095 908.52 98.28C904.05 102.75 899.25 106.53 893.97 109.5C891.915 106.065 886.635 100.23 883.2 97.59C881.25 102.165 878.955 106.29 876.21 109.965C873.69 107.325 867.615 102.405 863.955 100.23C866.01 97.59 867.855 94.62 869.34 91.185L862.005 93.93C861.21 89.805 859.485 83.97 857.76 78.585V109.965H843.33V74.46H842.985C842.07 83.73 840 94.74 836.91 101.715C833.925 99.765 828.66 97.47 825.345 96.105C827.985 89.805 829.47 79.035 830.16 69.54L843.33 72.525V64.965C838.86 65.19 834.735 65.535 831.3 65.655C830.955 66.915 829.92 67.38 829.005 67.485L826.02 51.225H834.27C835.755 49.275 837.24 47.325 838.74 45.27C835.53 40.23 830.49 34.5 826.02 30.15L833.805 18.69L835.755 20.415C838.74 14.235 841.59 7.01998 843.435 1.28998L859.35 7.70998C858.885 8.50498 857.625 8.96998 855.915 8.96998C853.275 15.15 848.7 23.52 844.8 29.7C845.595 30.615 846.405 31.65 847.095 32.565C850.875 26.61 854.19 20.535 856.71 15.15L870.225 21.225V7.43998H908.94L912.375 7.21498L920.16 8.59498C920.04 9.50998 919.815 10.65 919.59 11.58C918.555 18.45 916.845 27.735 915.015 37.23H923.49L926.13 36.765H926.175ZM857.22 50.85C856.305 48.555 855.27 46.275 854.25 44.1C852.42 46.5 850.59 48.795 848.865 50.97L857.22 50.85ZM857.79 72.96L868.32 69.525C869.805 73.425 871.41 77.88 872.79 82.125C877.365 66.315 878.52 45.48 878.625 22.68H871.29C870.6 23.145 869.685 23.37 868.425 23.37C864.99 29.1 860.295 35.97 855.375 42.615L865.575 38.37C869.82 46.155 874.17 56.355 875.43 63.225L862.71 68.835C862.485 67.23 862.14 65.52 861.57 63.57L857.79 63.915V72.96ZM898.335 86.13C895.35 81.315 892.725 76.05 890.55 70.32C888.945 80.28 886.65 89.325 883.455 97.005C888.945 94.14 893.985 90.48 898.35 86.13H898.335ZM893.985 22.68C893.865 25.545 893.865 28.41 893.76 31.275C894.675 37.695 895.935 43.755 897.54 49.365C899.265 40.77 901.095 31.035 902.58 22.68H893.985ZM898.8 53.715C901.095 61.155 904.065 67.92 907.965 73.875C911.745 67.575 914.835 60.24 917.01 52.005H912.09L911.4 55.215L898.8 53.73V53.715Z" fill="white"/>
<path d="M992.475 47.19H962.925V109.95H946.665V5.26501H992.475V47.19ZM976.905 16.95H962.94V20.73H976.905V16.95ZM962.94 35.505H976.905V31.26H962.94V35.505ZM1024.56 85.215H1013.45V108H998.895V85.215H990.54C988.935 92.55 984.93 102.975 976.455 108.69C974.28 105.825 969.24 101.25 966.03 99.075C971.64 95.295 974.73 89.91 976.23 85.215H966.72V71.82H977.25V65.295H968.205V52.35H1022.96V65.295H1013.45V71.82H1024.56V85.215ZM991.35 71.82H998.91V65.295H991.35V71.82ZM1045.05 5.26501V91.275C1045.05 105.015 1041.05 109.71 1019.63 109.485C1019.16 105.015 1016.99 97.35 1014.81 93.105C1017.45 93.33 1020.42 93.33 1022.84 93.33C1028.1 93.33 1028.67 93.33 1028.67 91.035V47.535H998.43V5.26501H1045.05ZM1028.67 16.95H1014.24V20.73H1028.67V16.95ZM1014.24 35.85H1028.67V31.275H1014.24V35.85Z" fill="white"/>
<path d="M1148.8 11.79C1148.34 12.255 1147.54 12.48 1146.63 12.48C1146.16 12.48 1145.71 12.48 1145.25 12.36C1142.85 14.415 1139.07 17.28 1135.64 19.695C1137.02 21.18 1138.38 22.56 1139.98 23.94C1143.76 20.85 1148.23 16.605 1150.98 13.29L1164.15 23.25C1163.8 23.715 1162.89 23.94 1161.98 23.94C1161.51 23.94 1161.06 23.94 1160.59 23.82C1158.19 25.875 1154.17 28.98 1150.51 31.38C1155.21 34.02 1160.25 36.075 1165.75 37.68C1162.32 40.665 1157.97 46.725 1155.8 50.625C1152.36 49.365 1149.05 47.985 1145.94 46.395V52.23C1145.94 54.87 1145.94 55.2 1146.98 55.2C1148.58 55.2 1148.8 55.2 1149.03 55.08C1150.06 54.735 1150.29 52.335 1150.41 49.125C1152.81 51.3 1158.09 53.82 1161.87 55.08C1160.83 61.38 1160.04 66.87 1149.39 66.87H1143.43C1132.09 66.87 1132.09 57.705 1132.09 52.215V47.64H1124.19C1123.5 55.2 1120.63 63.21 1112.5 68.835H1142.74L1145.14 68.49L1154.08 71.355C1153.86 72.15 1153.51 72.495 1153.05 73.08C1150.53 80.865 1146.75 87.285 1141.83 92.55C1147.21 94.5 1153.39 95.865 1160.26 96.675C1156.95 99.885 1152.82 105.945 1150.75 109.965C1142.5 108.36 1135.29 105.72 1129.23 102.06C1122.93 105.495 1115.71 108.015 1107.58 109.845C1106.2 106.29 1103.11 100.905 1100.59 97.935C1107.01 96.9 1112.73 95.295 1117.89 93.12C1114.68 89.805 1112.06 86.13 1109.76 82.005L1118.35 79.71H1106.67V68.835H1111.48C1109.53 66.315 1105.41 61.965 1102.66 59.895V68.595H1088.11V66.3H1079.76L1078.84 72.48H1091.44L1094.76 72.255L1103.11 73.395C1103.11 74.655 1102.89 76.14 1102.65 77.52C1100.59 109.125 1098.3 110.04 1072.3 109.59C1071.96 105.24 1070.13 99.51 1067.61 95.73C1072.77 96.195 1078.03 96.3 1080.43 96.3C1085.01 96.3 1086.16 95.61 1087.3 84.27H1076.77L1076.2 87.24L1063.03 85.185C1064.86 76.935 1066.93 64.335 1068.07 54.255H1088.11V47.835H1074.82C1071.61 49.665 1068.18 51.39 1064.74 52.875C1062.69 49.215 1058.56 43.59 1055.35 40.62C1061.19 38.565 1066.69 35.7 1071.73 32.265C1068.87 30.315 1065.21 28.26 1062.34 26.655L1071.51 18.06H1064.98V5.26501H1095.57L1098.21 4.69501L1108.98 9.51001C1108.63 10.425 1107.94 10.89 1107.25 11.46C1103.7 20.745 1098.21 28.755 1091.34 35.505H1102.68V58.635C1110.12 53.82 1111.03 48.105 1111.03 42.825V35.265H1130.39C1121.79 27.135 1115.26 16.935 1110.45 4.80001L1123.74 1.14001C1125 4.12501 1126.38 6.97501 1128.09 9.73501C1130.95 7.09501 1133.7 4.24501 1135.65 1.83001L1148.82 11.79H1148.8ZM1071.84 18.09C1075.05 19.47 1078.93 21.405 1082.04 23.355C1083.64 21.63 1085.01 19.92 1086.28 18.09H1071.85H1071.84ZM1122.91 79.71C1124.62 82.005 1126.81 84.06 1129.21 85.89C1131.27 84.06 1133.12 81.99 1134.6 79.71H1122.91Z" fill="white"/>
<path d="M1277.31 85.44H1246.15C1255.77 89.79 1268.37 93.12 1280.74 94.725C1277.19 98.16 1272.49 104.58 1270.21 108.81C1256.7 105.72 1243.18 99.87 1232.65 92.205V109.845H1215.93V92.895C1205.73 100.335 1192.56 105.945 1179.16 109.05C1176.99 105.15 1172.41 98.85 1168.96 95.655C1181.56 93.825 1194.27 90.165 1203.67 85.455H1172.17V71.94H1215.93V66.21C1207.11 68.04 1196.23 69.42 1182.6 70.455C1181.91 66.555 1179.28 61.065 1177.09 57.735C1190.83 57.045 1201.38 56.01 1209.51 54.75L1205.95 53.835L1205.16 54.75L1189.35 50.625C1191.75 47.88 1194.39 44.67 1197.25 41.235H1173.31V28.41H1207.09L1211.79 21.885H1192.32V26.7H1176.97V8.355H1216.26V1.035L1236.42 2.07C1236.3 3.45 1235.28 4.125 1232.98 4.59V8.37H1273.06V26.7H1257.03V21.885H1218.78L1230.57 25.32C1230.1 26.46 1228.96 26.925 1226.79 26.805L1225.65 28.41H1275.93V41.235H1256.46C1256.23 41.355 1255.89 41.355 1255.54 41.46C1253.37 45.24 1250.97 48.795 1247.86 51.765C1256.56 54.285 1264.59 56.805 1270.54 59.1L1260.69 70.56C1254.04 67.695 1244.19 64.38 1233.43 61.17C1229.77 62.655 1225.65 64.035 1220.71 65.175L1236.18 65.97C1236.06 67.35 1235.04 68.025 1232.62 68.49V71.925H1277.29V85.44H1277.31ZM1216.03 41.235L1214.08 43.635C1219.47 44.67 1225.3 46.035 1231.15 47.415C1233.67 45.585 1235.5 43.515 1236.99 41.235H1216.03Z" fill="white"/>
</svg>
