<?xml version="1.0" encoding="utf-8"?>
<!-- Generator: Adobe Illustrator 27.0.0, SVG Export Plug-In . SVG Version: 6.00 Build 0)  -->
<svg version="1.1" id="_圖層_2" xmlns="http://www.w3.org/2000/svg" xmlns:xlink="http://www.w3.org/1999/xlink" x="0px" y="0px"
	 viewBox="0 0 65.2 26.9" style="enable-background:new 0 0 65.2 26.9;" xml:space="preserve">
<style type="text/css">
	.st0{fill:#FFFFFF;}
</style>
<g id="_圖層_1-2">
	<g>
		<g>
			<path class="st0" d="M17.3,5.7c-0.3-0.5-0.8-1.4-1.2-1.8C18.8,3,21.6,1.5,23,0l3,0.1c0,0.2-0.2,0.3-0.5,0.3
				C27.1,1.9,30,3,32.4,3.6c-0.5,0.6-1.1,1.4-1.4,2c-0.2-0.1-0.5-0.2-0.8-0.3v4.3H18.3V5.3L17.3,5.7z M21.3,3.9
				c-0.6,0.3-1.3,0.7-1.9,1H29c-0.6-0.3-1.2-0.6-1.8-0.9v0.5h-6L21.3,3.9L21.3,3.9z M19.4,15.9V10H29v5.8h-2.5v-0.3h-4.7v0.4
				L19.4,15.9L19.4,15.9z M20.3,8.2H21c-0.1-0.5-0.2-1.1-0.4-1.6l1.1-0.3h-1.5V8.2L20.3,8.2z M23.2,8.2V6.3h-0.8
				c0.2,0.5,0.4,1.2,0.4,1.6l-1,0.3H23.2z M26.5,11.6h-4.7V12h4.7V11.6z M21.8,14h4.7v-0.4h-4.7V14z M25.5,3c-0.5-0.3-1-0.7-1.4-1.1
				c-0.4,0.4-0.8,0.7-1.3,1.1H25.5z M25.4,7.9c0.2-0.5,0.4-1.1,0.5-1.6h-0.8v1.9h1.1L25.4,7.9L25.4,7.9z M28,6.7V6.3h-1.3L28,6.7z
				 M28,6.9c-0.1,0-0.2,0-0.3,0c-0.2,0.4-0.5,0.9-0.7,1.3h1V6.9L28,6.9z"/>
			<path class="st0" d="M46.9,11.2l1.5,1.1c-0.1,0.1-0.2,0.1-0.3,0.1c-0.1,0-0.1,0-0.2,0c-0.4,0.2-0.9,0.5-1.5,0.8
				c0.7,0.3,1.5,0.6,2.4,0.7c-0.5,0.5-1.1,1.4-1.4,2c-1.9-0.5-3.2-1.3-4.3-2.4l0.1,1.2c-2,0.4-4,0.7-5.3,0.9c0,0.2-0.2,0.3-0.3,0.3
				l-0.9-2.4l1.6-0.2v-2.1h-1.6v-0.8h0c-0.3,2-0.8,4.1-1.8,5.6c-0.5-0.4-1.6-1-2.2-1.3c1.7-2.6,1.8-6.4,1.8-9.1v-5h13.2v4.8h-1.7
				c-0.1,0.1-0.2,0.1-0.4,0.2v0.7h2.1v2h-2.1v0.9h3v2C48.7,11.2,46.9,11.2,46.9,11.2z M37.1,5.5c0,0.8,0,2.1-0.2,3.7h2.3V8.3h-1.9
				v-2h1.9V5.5L37.1,5.5L37.1,5.5z M45.4,2.7h-8.2v0.7h8.2V2.7z M40.7,13.1l2-0.2c-0.3-0.5-0.6-1-0.9-1.6h-1.1L40.7,13.1L40.7,13.1z
				 M43.5,6.3V5.5h-1.6c-0.1,0.1-0.2,0.1-0.4,0.2v0.7H43.5z M43.5,9.2V8.3h-2v0.9H43.5z M44.1,11.2c0.2,0.3,0.4,0.6,0.7,0.8
				c0.4-0.2,0.8-0.5,1.2-0.8C46,11.2,44.1,11.2,44.1,11.2z"/>
		</g>
		<g>
			<path class="st0" d="M15.9,26.8h-3.3v-5.9h3.2v1h-2v1.4h1.9v0.9h-1.9v1.6h2.2C15.9,25.9,15.9,26.8,15.9,26.8z"/>
			<path class="st0" d="M20.8,26.8h-1.3L19,25.7c-0.2-0.4-0.3-0.7-0.5-1.1h0c-0.1,0.4-0.3,0.7-0.4,1.1l-0.5,1.1h-1.2l1.5-3l-1.5-2.9
				h1.3l0.5,1.2c0.1,0.3,0.3,0.6,0.4,1h0c0.1-0.4,0.2-0.6,0.4-1l0.5-1.1h1.2l-1.5,2.9C19.2,23.8,20.8,26.8,20.8,26.8z"/>
			<path class="st0" d="M25.8,26.8h-1.1v-2.5h-2v2.5h-1.1v-5.9h1.1v2.4h2v-2.4h1.1V26.8z"/>
			<path class="st0" d="M26.9,20.9H28v5.9h-1.1V20.9z"/>
			<path class="st0" d="M31.9,23.6c0.7,0.2,1.1,0.7,1.1,1.4c0,0.5-0.2,0.9-0.5,1.2c-0.4,0.4-1.1,0.5-2.1,0.5c-0.6,0-1,0-1.3-0.1V21
				c0.3-0.1,0.9-0.1,1.5-0.1c0.7,0,1.2,0.1,1.6,0.4c0.3,0.2,0.6,0.6,0.6,1.1C32.9,22.9,32.5,23.4,31.9,23.6L31.9,23.6L31.9,23.6z
				 M30.7,23.3c0.6,0,1-0.3,1-0.8c0-0.6-0.4-0.8-0.9-0.8c-0.2,0-0.4,0-0.5,0v1.6H30.7z M30.3,26c0.1,0,0.2,0,0.5,0
				c0.6,0,1.1-0.3,1.1-0.9s-0.6-0.9-1.2-0.9h-0.4V26z"/>
			<path class="st0" d="M34,20.9h1.1v5.9H34V20.9z"/>
			<path class="st0" d="M39.8,21.9h-1.5v4.9h-1.1v-4.9h-1.5v-1h4V21.9z"/>
			<path class="st0" d="M40.5,20.9h1.1v5.9h-1.1V20.9z"/>
			<path class="st0" d="M47.4,23.8c0,2-1,3.1-2.5,3.1c-1.6,0-2.4-1.3-2.4-3s1-3.1,2.5-3.1C46.6,20.8,47.4,22.2,47.4,23.8L47.4,23.8z
				 M43.7,23.9c0,1.2,0.5,2.1,1.3,2.1s1.3-0.9,1.3-2.1c0-1.1-0.4-2.1-1.3-2.1S43.7,22.8,43.7,23.9L43.7,23.9z"/>
			<path class="st0" d="M52.6,26.8h-1.1l-1.3-2.4c-0.3-0.6-0.7-1.3-0.9-2h0c0,0.7,0.1,1.5,0.1,2.6v1.8h-1v-5.9h1.2l1.2,2.4
				c0.3,0.6,0.6,1.3,0.9,1.9h0c-0.1-0.8-0.1-1.6-0.1-2.5v-1.8h1L52.6,26.8L52.6,26.8z"/>
		</g>
	</g>
</g>
</svg>
