<svg width="508" height="37" viewBox="0 0 508 37" fill="none" xmlns="http://www.w3.org/2000/svg">
<g filter="url(#filter0_d_3_1110)">
<path d="M32.78 11.64H30.5C29.85 16.19 28.78 20.06 27.09 23.25C28.65 25.33 30.63 27.02 33.14 28.16C32.07 29.1 30.64 30.96 29.95 32.22C27.61 30.95 25.69 29.33 24.16 27.38C22.18 29.46 19.67 31.12 16.52 32.36C16.1 31.25 14.93 29.27 14.18 28.33C17.4 27.22 19.81 25.53 21.63 23.26C20.85 21.67 20.2 19.91 19.65 18.06C19.32 18.58 18.97 19.07 18.58 19.52C18 18.8 16.82 17.63 15.85 16.79H12.99V22.81L16.7 22.1L17.12 26.59C12.24 27.76 7.01002 28.9 3.66002 29.61C3.60002 29.97 3.27002 30.16 2.98002 30.23L1.52002 24.86L3.44002 24.57V10.91L8.42002 11.17C8.39002 11.53 8.13002 11.72 7.54002 11.82V23.85L8.58002 23.65V7.41998H2.40002V3.09998H17.36V7.41998H13V12.53H16.19V14.74C18.17 11.42 19.44 6.42 20.09 1.38L25.68 2.48999C25.58 2.80999 25.26 3.00998 24.74 3.03998C24.51 4.46998 24.22 5.89999 23.89 7.29999H32.8V11.66L32.78 11.64ZM22.63 11.64L22.53 11.93C22.95 14.14 23.54 16.26 24.32 18.17C25 16.25 25.46 14.07 25.78 11.63H22.63V11.64Z" fill="white"/>
<path d="M47.09 8.93994L51.71 10.27C51.58 10.56 51.26 10.7299 50.77 10.7299C50.15 12.3599 49.31 14.1799 48.27 15.9999L50.03 16.5499C49.97 16.8399 49.67 17.0999 49.09 17.1699V32.2899H44.63V21.2399C44.17 21.7599 43.69 22.25 43.2 22.7C42.84 22.21 42.32 21.5299 41.74 20.8799C41.35 25.0099 40.47 29.33 38.75 32.46C37.9 31.65 35.82 30.28 34.72 29.83C37.29 25.15 37.48 18.1899 37.48 13.3799V4.59991H49.12V1.40991L55.04 1.73993C55.01 2.09993 54.75 2.31995 54.06 2.44995V4.59991H65.6V8.95996H47.1L47.09 8.93994ZM42.08 8.93994V13.39C42.08 14.59 42.05 15.96 41.98 17.39C43.96 14.92 45.52 11.6399 46.34 8.93994H42.08ZM53.07 25.95C52.65 24.29 51.44 21.72 50.31 19.84L54.08 18.3099C55.32 20.0999 56.52 22.4999 57.04 24.1599L53.07 25.95ZM65.75 13.0399V17.3699H62.76V27.3799C62.76 31.1799 61.72 32.39 54.96 32.39C54.8 31.09 54.18 29.1399 53.56 27.8699C55.09 27.9399 56.91 27.9399 57.46 27.9399C57.98 27.9399 58.18 27.7799 58.18 27.3199V17.3699H50.54V13.0399H58.18V9.39996L63.71 9.62994C63.68 9.98994 63.45 10.2199 62.77 10.3499V13.0499H65.76L65.75 13.0399Z" fill="white"/>
<path d="M71.2499 17.39C70.6999 18.2 70.1399 18.9499 69.5899 19.6299C69.2299 18.4299 68.2199 15.7299 67.6699 14.5599C70.0099 11.6699 72.3499 6.45996 73.7499 1.45996L78.8199 3.14996C78.6899 3.43996 78.3599 3.60995 77.8399 3.56995C77.1599 5.51995 76.4099 7.46995 75.5599 9.38995L76.6699 9.74994C76.5699 10.0399 76.2799 10.3 75.7299 10.4V32.3799H71.2399V17.39H71.2499ZM99.1199 11.1799H97.9799C97.5199 16.0199 96.7399 20.28 95.2799 23.83C96.3499 25.78 97.7199 27.47 99.5099 28.64C98.6999 29.45 97.3599 31.2399 96.7799 32.3499C95.2499 31.1499 94.0199 29.6799 93.0099 27.9899C91.7399 29.7099 90.2499 31.1799 88.3599 32.3499C87.8099 31.4399 86.4099 29.7499 85.5299 28.9999L86.0199 28.71H81.2699V31.1199H77.2399V16.1599H80.1699V11.28H76.6899V7.04993H80.1699V1.81995L85.3699 2.10992C85.3399 2.43992 85.0799 2.65995 84.4599 2.75995V7.04993H87.6799V11.0499C88.6599 8.24993 89.3399 4.80993 89.7299 1.42993L94.6399 2.43994C94.5399 2.76994 94.2499 2.92993 93.7599 2.92993C93.5299 4.35993 93.2399 5.81994 92.9099 7.24994H99.1199V11.1799ZM83.3499 24.71V20.1299H81.2699V24.71H83.3499ZM86.8599 16.1599C86.4699 15.7399 86.0499 15.3499 85.7199 15.0499C86.4399 14.0399 87.0499 12.74 87.5699 11.28H84.4499V16.1599H86.8599ZM87.4499 27.6699C88.8499 26.4999 89.9499 25 90.8299 23.28C90.1499 21.3 89.6299 19.2199 89.2399 17.1299C89.0499 17.4599 88.8199 17.7799 88.5899 18.1099C88.3299 17.7499 87.9099 17.26 87.4499 16.78V27.6699ZM91.8399 11.2199C92.0699 13.1399 92.3899 15.1199 92.8499 17.1099C93.2099 15.2899 93.4699 13.3099 93.6299 11.1899H91.8699L91.8399 11.2199Z" fill="white"/>
<path d="M108.61 10.04L114.07 10.33C114.04 10.69 113.78 10.88 113.13 11.01V32.31H108.61V24.86H107.5C107.44 27.27 106.92 30.19 104.51 32.31C103.76 31.43 102.14 30.16 101.06 29.58C102.85 28.18 103.4 26.39 103.53 24.87H101.9V20.77H108.6V19.34H107.14V19.89H103.01V10.66L108.05 10.92C108.02 11.28 107.79 11.47 107.14 11.57V15.41H108.6V10.04H108.61ZM109.13 9.45001V7.95001H102.24V3.63H109.13V1.39001L114.79 1.67999C114.76 2.03999 114.47 2.27002 113.81 2.40002V3.64001H119.79V1.40002L125.48 1.69C125.45 2.08 125.19 2.27997 124.5 2.40997V3.65002H131.52V7.96997H124.5V9.46997H119.79V7.96997H113.81V9.46997H109.13V9.45001ZM131.79 20.25H125.16V26.98H131.27V31.3H114.43V26.98H120.48V20.25H113.94V15.92H120.48V10.04L126.14 10.33C126.11 10.69 125.81 10.91 125.16 11.04V15.92H131.79V20.25Z" fill="white"/>
<path d="M157.25 23.99H152.8V7.5L150.36 10.91C149.84 10.39 149.19 9.84 148.44 9.25V10.84H141.09V9.66998C140.41 10.35 139.66 11 138.85 11.65H151.27V22.45H140.96C140.93 22.74 140.86 23.03 140.8 23.33H151.82V32.17H147.72V31.39H143.36V32.24H139.43V28.14C138.91 29.41 138.26 30.61 137.45 31.65C136.83 30.87 135.14 29.31 134.33 28.82C137.16 25.05 137.45 19.75 137.45 16.04V12.69C137.19 12.89 136.93 13.05 136.64 13.24C136.18 12.17 134.98 10.38 134.17 9.59998C138.07 7.28998 140.74 4.17 142.23 1.37L147.3 2.34998C147.2 2.66998 146.91 2.90002 146.42 2.90002L146.39 2.92999C148.76 4.22999 151.23 5.99001 152.8 7.26001V5.37L158.2 5.65997C158.17 6.01997 157.91 6.21003 157.26 6.34003V23.96L157.25 23.99ZM141.32 19.28H147.08V18.4H141.39L141.32 19.28ZM147.08 14.89H141.46V15.7H147.08V14.89ZM146.4 7.77002C145.65 7.25002 144.9 6.76002 144.16 6.27002C143.77 6.79002 143.38 7.28002 142.92 7.77002H146.4ZM147.73 26.66H143.37V28.09H147.73V26.66ZM159.83 2.08002L165.39 2.31C165.33 2.67 165.1 2.93003 164.41 3.03003V26.8C164.41 30.83 163.4 32.26 156.22 32.26C156.06 30.93 155.37 28.78 154.72 27.41C156.51 27.51 158.39 27.51 159.04 27.51C159.59 27.51 159.82 27.31 159.82 26.76V2.08002H159.83Z" fill="white"/>
<path d="M178.52 15.4099V16.7399C180.15 17.9099 183.2 20.4099 183.98 21.0999L181.31 25.2C180.59 24.26 179.55 23.0499 178.51 21.9199V32.2899H173.89V22.08C172.65 24.52 171.22 26.7899 169.73 28.4199C169.27 27.0199 168.14 25.0099 167.36 23.7399C169.51 21.6599 171.59 18.4099 172.95 15.4199H168.14V11.0599H173.9V7.90991C172.31 8.29991 170.71 8.61995 169.15 8.88995C168.92 7.84995 168.24 6.21997 167.72 5.27997C172.14 4.39997 176.86 2.96991 179.82 1.40991L183.69 4.94995C183.5 5.14995 183.23 5.14996 182.71 5.14996C181.51 5.69996 180.08 6.21993 178.52 6.67993V11.0699H183.82V15.4299H178.52V15.4099ZM190.68 5.68994C190.65 6.04994 190.39 6.26993 189.74 6.36993V23.9899H185.15V5.38995L190.68 5.67993V5.68994ZM192.66 2.07996L198.32 2.33997C198.29 2.69997 198.06 2.95994 197.34 3.05994V26.7299C197.34 31.1199 196.07 32.3199 188.5 32.3199C188.31 30.9499 187.56 28.7399 186.87 27.4099C188.92 27.5099 191.06 27.5099 191.78 27.5099C192.4 27.5099 192.66 27.31 192.66 26.7V2.07996Z" fill="white"/>
<path d="M227.72 15.64L231 17.23C230.9 17.46 230.67 17.59 230.45 17.75C226.61 27.02 217.67 30.76 206.13 32.28C205.74 31.01 204.86 29.06 204.08 27.99C208.4 27.6 212.34 26.82 215.72 25.55C214.84 24.84 213.87 24.12 213.02 23.53L216.5 21.03C217.57 21.68 218.91 22.56 219.98 23.44C221.57 22.4 222.94 21.16 223.98 19.7H217.28C214.74 21.42 211.72 22.98 208.08 24.32C207.49 23.21 206.16 21.46 205.22 20.65C210.1 19.22 213.74 17.27 216.31 15.12V15.09C212.57 17.01 208.25 18.31 203.73 19.19C203.31 18.02 202.4 16.2 201.58 15.19C205.19 14.67 208.7 13.76 211.82 12.52C211.04 12 210.23 11.51 209.51 11.12L212.7 8.54999C213.74 9.03999 215.01 9.72002 216.05 10.4C217.48 9.55002 218.75 8.58001 219.82 7.51001H213.02C210.78 9.04001 208.11 10.44 204.96 11.71C204.31 10.6 202.85 8.97998 201.84 8.22998C207.56 6.46998 211.46 3.90002 213.68 1.27002L219.31 2.44C219.21 2.77 218.85 2.98999 218.33 2.98999L217.68 3.66998H223.21L223.96 3.51001L227.24 5.22998C227.11 5.45998 226.91 5.58997 226.65 5.71997C225.09 8.54997 222.81 10.92 220.05 12.84L224.44 13.78C224.31 14.14 223.95 14.37 223.4 14.37C222.98 14.86 222.52 15.35 222.03 15.8H226.94L227.72 15.64Z" fill="white"/>
<path d="M242.84 32.2499V17.8099H255.75V32.1199H251.04V31.2399H247.3V32.2499H242.84ZM251.03 22.33H247.29V26.7199H251.03V22.33ZM265.79 2.45996V15.5999H248.26V2.45996H265.79ZM260.95 11.1099V6.97992H252.82V11.1099H260.95ZM258.06 17.8099H271.29V31.9899H266.54V31.21H262.57V32.1199H258.05V17.8099H258.06ZM262.58 26.6899H266.55V22.33H262.58V26.6899Z" fill="white"/>
<path d="M280.27 13.72C280.27 15.41 280.27 15.96 280.24 16.87H286.26V31.11H282.33V20.8H280.09C279.83 24.77 279.28 29.03 278.17 32.25C277.26 31.83 275.47 31.21 274.4 30.95C276.16 26.24 276.42 18.76 276.42 14.33V2.35999L281.17 2.62C281.14 2.95 280.88 3.13999 280.29 3.23999V9.73999H282.01V1.41998L286.79 1.67999C286.76 2.00999 286.53 2.19999 285.91 2.29999V9.75H287.89V13.72H280.28H280.27ZM305.57 22.79V26.69H301.05V32.28H296.63V26.69H287.27V22.79H290.88C290.16 22.04 288.93 20.97 288.15 20.48C290.36 19.67 291.79 18.59 292.77 17.42H288.77V4.92999H293C293.49 3.75999 293.98 2.38998 294.24 1.34998L299.74 2.67999C299.61 2.96999 299.32 3.09998 298.8 3.09998C298.51 3.64998 298.12 4.29998 297.73 4.91998H304.56V17.41H297.47L297.11 18.09L302.02 18.35C301.99 18.71 301.73 18.9 301.08 19V22.77H305.6L305.57 22.79ZM296.63 18.86C295.62 20.39 294.06 21.75 291.72 22.79H296.63V18.86ZM292.89 8.41998V9.56H294.52V8.41998H292.89ZM292.89 13.95H294.35C294.41 13.56 294.45 13.17 294.48 12.78H292.89V13.95ZM300.21 13.95V12.78H298.45L298.35 13.95H300.2H300.21ZM300.21 9.56V8.41998H298.45V9.56H300.21Z" fill="white"/>
<path d="M316 12.1201L318.6 12.8401C318.57 13.1001 318.47 13.3901 318.34 13.5901C317.98 17.8201 317.3 21.4901 316.29 24.5201C319.25 26.6001 323.15 27.0201 327.57 27.0601C329.88 27.0601 336.28 27.0601 339.05 26.9301C338.33 28.0001 337.55 30.18 337.26 31.55H327.44C322.2 31.55 317.88 30.9701 314.43 28.6201C313.52 30.1801 312.41 31.4801 311.15 32.4601C310.43 31.5501 308.61 29.8901 307.61 29.3101C309.04 28.3001 310.18 27.0001 311.09 25.3401C309.89 23.6801 308.85 21.6001 308 19.0001L311.67 17.73C312.03 18.84 312.45 19.7801 312.91 20.6201C313.24 19.3201 313.5 17.8901 313.69 16.3301H312.39L312.06 17.0801L307.8 16.0101C309.07 13.2501 310.5 9.96004 311.64 7.17004H307.93V3.07007H314.17L315.05 2.97003L317.68 3.85004C317.58 4.08004 317.45 4.37004 317.32 4.60004C316.54 6.62004 315.37 9.41005 314.17 12.2401H315.21L315.99 12.1401L316 12.1201ZM324.97 7.76007V7.01007H319.64V3.50006H324.97V1.32007L330.5 1.61005C330.47 1.97005 330.21 2.20004 329.56 2.29004V3.49005H335.84V7.75006H338.57V11.3301H335.84V15.5901H329.56V16.3401H336.36V19.6901H329.56V20.47H337.82V24.1401H329.56V26.48H324.98V24.1401H317.63V20.47H324.98V19.6901H319.06V16.3401H324.98V15.5901H319.55V12.0801H324.98V11.3301H317.18V7.75006H324.98L324.97 7.76007ZM331.18 7.01007H329.55V7.76007H331.18V7.01007ZM331.18 12.0801V11.3301H329.55V12.0801H331.18Z" fill="white"/>
<path d="M354.05 6.78998V10.46H341.01V6.78998H354.05ZM367.87 15.24L370.86 16.38C370.8 16.64 370.63 16.77 370.47 16.97C369.53 20.51 368 23.41 365.92 25.78C367.74 26.82 369.85 27.63 372.16 28.19C371.12 29.13 369.75 31.05 369.1 32.25C366.53 31.47 364.25 30.36 362.27 28.93C360.22 30.33 357.85 31.43 355.15 32.25C354.69 31.11 353.65 29.32 352.81 28.28V30.65H346.44V31.79H342.47V20.51H352.81V28.05C354.99 27.53 356.97 26.75 358.7 25.71C357.43 24.28 356.36 22.69 355.42 20.9L359.48 19.6H354.47V15.37H355.8C355.05 14.56 353.72 13.45 352.84 12.9V14.95H342.6V11.44H352.84V12.61C355.47 10.72 355.73 8.25001 355.73 6.14001V2.27002H367.11V9.20001C367.11 10.18 367.14 10.27 367.4 10.27H367.76C368.08 10.27 368.21 9.84999 368.28 7.17999C369.09 7.85999 370.91 8.55003 372.08 8.84003C371.69 13.03 370.62 14.24 368.24 14.24H366.52C363.56 14.24 362.68 13.04 362.68 9.26001V6.42999H360.18C360.15 9.44999 359.53 13.06 356.67 15.37H367.04L367.85 15.24H367.87ZM352.85 15.92V19.43H342.61V15.92H352.85ZM352.82 2.33002V5.84003H342.71V2.33002H352.82ZM348.79 26.95V24.19H346.45V26.95H348.79ZM359.62 19.6C360.27 20.8 361.15 21.94 362.19 22.95C363.13 21.98 363.91 20.84 364.56 19.6H359.62Z" fill="white"/>
<path d="M384.42 21.98V26.24C386.6 26.95 388.87 26.95 394.56 26.95C398.17 26.95 402.95 26.92 405.42 26.79C404.7 27.86 403.92 30.04 403.63 31.47H390.88C385.06 31.47 381.13 30.76 378.52 27.21C378.23 29.26 377.84 31.15 377.35 32.61C376.5 32.09 374.85 31.41 373.81 31.05C374.85 27.8 375.21 21.91 375.31 16.48L380.06 17.2C379.99 17.53 379.73 17.69 379.28 17.72L379.18 20.09C379.47 21.16 379.86 22.07 380.29 22.82V15.02H374.44V10.86H380.13V8.45001H375.29V4.39001H380.13V1.37L385.37 1.65997C385.34 1.98997 385.08 2.21 384.46 2.31V4.39001H388.49V8.45001H384.46V10.86H388.95V12.03C390.97 10.83 392.14 8.88002 392.66 6.40002H389.6V2.5H400.66L401.64 2.42999L404.14 2.65997L404.04 3.90002C403.84 9.27002 403.52 11.67 402.77 12.65C401.73 13.88 400.4 14.11 396.75 14.05C396.69 13.01 396.33 11.58 395.84 10.54C394.96 12.36 393.73 13.82 392.13 14.9H403.32V26.05H398.83V25.07H394.6V26.18H390.31V14.9H391.87C391.19 14.25 389.92 13.31 388.94 12.66V15.03H384.42V17.92H388.39V21.98H384.42ZM398.82 18.73H394.59V21.23H398.82V18.73ZM397.13 6.40997C396.9 7.77997 396.51 9.01002 396.02 10.15C396.61 10.18 397.13 10.21 397.55 10.21C399.01 10.21 399.21 10.21 399.44 6.40997H397.13Z" fill="white"/>
<path d="M434.6 3.34998C434.44 3.60998 434.08 3.74002 433.56 3.71002C432.91 4.49002 432.03 5.40002 431.15 6.21002H437.72V10.47H407.87V6.21002H414.7C413.98 5.20002 413.01 4.06 412.13 3.19L416.52 1.34003C417.89 2.54003 419.48 4.3 420.23 5.63L418.83 6.21002H427.12L425.66 5.59003C426.83 4.39003 428.23 2.62998 429.04 1.22998L434.6 3.34003V3.34998ZM422.47 12.32V28.03C422.47 31.35 421.23 32.39 416.29 32.39C416.06 31.22 415.41 29.46 414.83 28.42C415.38 28.45 416.03 28.49 416.55 28.49C417.79 28.49 417.92 28.49 417.92 27.97V25.92H414.28V32.26H409.83V12.33H422.48L422.47 12.32ZM417.92 16.26H414.28V17.63H417.92V16.26ZM414.28 22.5H417.92V21.04H414.28V22.5ZM429.86 12.97C429.83 13.33 429.57 13.52 428.92 13.65V26.01H424.43V12.68L429.86 12.97ZM435.65 27.47C435.65 30.59 435 32.44 428.3 32.35C428.07 31.08 427.32 29.1 426.64 27.89C427.58 27.95 428.59 27.99 429.34 27.99C430.84 27.99 431 27.99 431 27.4V11.82L436.62 12.05C436.56 12.41 436.33 12.67 435.64 12.76V27.46L435.65 27.47Z" fill="white"/>
<path d="M452.42 8.47998L456.26 9.52002C456.13 9.81002 455.84 9.94 455.35 9.94C454.99 10.98 454.47 12.28 453.95 13.39H457.53V17.65H440.69V13.39H444.01C443.91 12.25 443.55 10.56 443.1 9.33002L446.87 8.54999C447.42 9.81999 447.88 11.54 448.01 12.71L445.05 13.39H450.42L450 13.26C450.52 11.93 451.14 9.97998 451.43 8.47998H441.32V4.41998H446.98V1.39001L452.51 1.67999C452.48 2.03999 452.22 2.26999 451.57 2.35999V4.40997H457.16V8.46997H452.45L452.42 8.47998ZM442.37 32.35V19.41H456.25V32.22H451.67V30.85H446.73V32.35H442.37ZM451.67 23.47H446.73V26.79H451.67V23.47ZM468.58 3.04999L471.54 4.12C471.51 4.38 471.41 4.57999 471.21 4.73999C470.33 7.56999 469.23 10.95 467.89 14.46C470.56 17.78 471.4 20.02 471.4 22.04C471.4 28.48 467.01 28.54 465.19 28.54C464.87 28.54 464.51 28.54 464.18 28.51C464.15 27.37 463.66 25.58 462.98 24.35V32.28H458.36V3.21002H467.63L468.57 3.04999H468.58ZM462.99 7.63V24.05C463.77 24.12 464.42 24.12 464.88 24.12C466.47 24.12 466.83 23.4 466.83 21.81C466.83 20.22 465.92 18.4 463.22 15.24C464.1 12.48 464.81 9.94 465.43 7.63H462.99Z" fill="white"/>
<path d="M496.7 13.2C497.81 12.32 498.81 11.41 499.69 10.44L503.92 13.14C503.76 13.3 503.5 13.4 503.2 13.4C503.07 13.4 502.94 13.37 502.78 13.33C501.97 14.18 501.06 14.99 500.11 15.74H503.88V19.41H494.74C494.15 19.74 493.57 20.06 492.95 20.39H501.18V32.36H496.34V31.55H485.67V32.36H481.05V25.08C479.2 25.63 477.31 26.12 475.42 26.54C475.03 25.53 474.05 23.68 473.37 22.7C475.94 22.21 478.54 21.56 481.04 20.81V20.39H482.41C483.32 20.1 484.26 19.77 485.17 19.41H474.57V15.74H485.79V14.63H478.08V11.12H485.79V10.05H476.13V2.38H502.24V10.05H491.15C491.02 10.21 490.76 10.31 490.37 10.37V11.12H496.68V13.2H496.7ZM483.37 6.89001V5.48999H480.64V6.89001H483.37ZM496.34 23.51H485.84L485.68 23.58V24.46H496.35V23.52L496.34 23.51ZM485.67 28.29H496.34V27.28H485.67V28.29ZM487.65 5.5V6.90002H490.41V5.5H487.65ZM490.38 14.64V15.75H492.98C493.6 15.39 494.18 15.04 494.74 14.64H490.38ZM494.7 5.5V6.90002H497.53V5.5H494.7Z" fill="white"/>
</g>
<defs>
<filter id="filter0_d_3_1110" x="0.85002" y="0.559981" width="506.88" height="35.86" filterUnits="userSpaceOnUse" color-interpolation-filters="sRGB">
<feFlood flood-opacity="0" result="BackgroundImageFix"/>
<feColorMatrix in="SourceAlpha" type="matrix" values="0 0 0 0 0 0 0 0 0 0 0 0 0 0 0 0 0 0 127 0" result="hardAlpha"/>
<feOffset dx="1.57" dy="1.57"/>
<feGaussianBlur stdDeviation="1.12"/>
<feColorMatrix type="matrix" values="0 0 0 0 0.101961 0 0 0 0 0.12549 0 0 0 0 0.219608 0 0 0 0.34 0"/>
<feBlend mode="normal" in2="BackgroundImageFix" result="effect1_dropShadow_3_1110"/>
<feBlend mode="normal" in="SourceGraphic" in2="effect1_dropShadow_3_1110" result="shape"/>
</filter>
</defs>
</svg>
