<svg width="523" height="157" viewBox="0 0 523 157" fill="none" xmlns="http://www.w3.org/2000/svg">
<g filter="url(#filter0_d_10_1701)">
<path d="M143.59 105.56H122.93V82.8501H84.8301V68.1001L118.19 8.06006H143.59V65.7901H153.98V82.8501H143.59V105.56ZM104.33 65.7901H122.93V45.9001C122.93 40.3801 123.44 33.8401 123.7 28.0701H123.32C120.63 33.8401 118.19 39.6201 115.11 45.5201L104.33 65.5301V65.7901Z" fill="#FFFF00"/>
<path d="M179.9 105.56V28.0701H179.64L162.83 36.6701L157.83 20.3801L182.85 8.06006H201.97V105.56H179.9Z" fill="#FFFF00"/>
<path d="M272.15 105.56H251.49V82.8501H213.39V68.1001L246.75 8.06006H272.15V65.7901H282.54V82.8501H272.15V105.56ZM232.89 65.7901H251.49V45.9001C251.49 40.3801 252 33.8401 252.26 28.0701H251.88C249.19 33.8401 246.75 39.6201 243.67 45.5201L232.89 65.5301V65.7901Z" fill="#FFFF00"/>
<path d="M289.09 8.06004H351.18V22.17L316.03 105.56H292.94L328.09 27.04V26.78H289.09V8.05005V8.06004Z" fill="#FFFF00"/>
<path d="M433.34 67.22V78.26H414.33V105.89H402.65V78.26H384.93L386.22 85.59C377.52 88.97 368.34 92.36 362.22 94.45C362.14 95.34 361.49 95.98 360.77 96.14L355.94 83.25C358.6 82.61 361.9 81.8 365.53 80.75V59.4H357.88V48.36H365.53V30.16L379.22 30.88C379.14 31.77 378.5 32.33 376.88 32.57V48.36H383.97V59.4H376.88V77.52L383.65 75.59V67.21H402.66V43.53H386.07V32.66H431.42V43.53H414.34V67.21H433.35L433.34 67.22ZM390.97 66.66C390.57 61.83 388.55 54.25 386.14 48.7L395.89 45.72C398.55 51.28 400.72 58.45 401.37 63.36L390.98 66.66H390.97ZM433.26 49.5C432.94 50.14 432.13 50.47 430.84 50.47C429.31 55.55 426.57 62.31 424.32 66.66L415.78 63.28C417.71 58.37 419.81 50.87 420.85 45.32L433.25 49.51L433.26 49.5Z" fill="white"/>
</g>
<path d="M87.8001 135.11C89.4401 135.73 91.6501 136.82 92.7001 137.75L90.0601 141.38C89.1001 140.45 86.9901 139.18 85.3101 138.43L87.7901 135.11H87.8001ZM85.7801 153.54C86.9301 151.09 88.4801 147.21 89.6901 143.49L93.3501 145.82C92.3301 149.14 91.1801 152.43 90.1901 154.85C90.4101 155.1 90.5001 155.35 90.5001 155.56C90.5001 155.75 90.4701 155.9 90.3801 156.02L85.7901 153.54H85.7801ZM88.9401 126.89C90.6201 127.54 92.8201 128.69 93.9001 129.65L91.2301 133.25C90.2701 132.29 88.1001 130.96 86.4201 130.18L88.9301 126.89H88.9401ZM114.1 127.63V151.83C114.1 155.03 113.14 156.36 108.49 156.36C108.33 155.24 107.71 153.29 107.12 152.23C108.08 152.29 109.14 152.29 109.48 152.29C109.85 152.29 109.98 152.13 109.98 151.73V146.27H107.84C107.37 149.93 106.29 153.62 103.96 156.2C103.25 155.52 101.57 154.37 100.61 153.94C101.2 153.29 101.73 152.57 102.13 151.8H97.4801V153.82H93.6601V140.82H96.4201V136.51H92.8801V132.45H96.4201V126.71L101.29 126.99C101.26 127.3 101.04 127.49 100.42 127.61V132.45H103.49V136.51H100.42V140.82H103.21V149.26C104.17 146.25 104.3 142.9 104.3 140.01V127.63H114.1ZM99.3301 147.95V144.66H97.4701V147.95H99.3301ZM108.2 140.01C108.2 140.76 108.2 141.5 108.17 142.31H109.97V138.9H108.2V140.02V140.01ZM109.97 131.6H108.2V134.92H109.97V131.6Z" fill="white"/>
<path d="M119.45 135.14C121.19 135.79 123.45 136.94 124.6 137.93L121.93 141.56C120.94 140.57 118.7 139.23 116.97 138.46L119.45 135.14ZM117.56 153.35C118.83 150.9 120.6 147.02 121.96 143.3L125.59 145.78C124.41 149.13 123.11 152.39 121.96 154.81C122.18 155.06 122.27 155.31 122.27 155.55C122.27 155.74 122.21 155.89 122.15 156.05L117.56 153.35ZM126.12 129.71L123.45 133.28C122.43 132.26 120.19 130.89 118.42 130.05L120.93 126.76C122.67 127.47 124.96 128.62 126.11 129.65V129.22H133.74V126.64L139.04 126.92C139.01 127.26 138.76 127.48 138.14 127.57V129.21H146.05V134.95H141.89V132.44H130.07V134.95H126.1V129.71H126.12ZM144.79 151.39H142.43C144.11 152.14 145.75 152.91 146.83 153.5L143.42 156.14C141.96 155.24 139.39 153.81 137.12 152.79L138.55 151.39H134.15L136.1 152.82C135.98 152.94 135.76 153.01 135.54 153.01C133.86 154.19 130.51 155.49 127.75 156.14C127.19 155.27 126.14 153.94 125.36 153.1C127.03 152.73 128.93 152.08 130.48 151.39H128.43V144.69C127.87 144.81 127.28 144.94 126.72 145.03C126.29 144.13 125.23 142.42 124.55 141.62C125.85 141.43 127.16 141.22 128.43 140.97V140.32C128.12 140.44 127.81 140.57 127.5 140.66C126.97 139.85 125.92 138.61 125.11 137.9C126.91 137.37 128.83 136.32 129.98 135.36L130.88 135.92V133.38H141.09V135.77C141.21 135.68 141.31 135.58 141.43 135.46L145.68 137.45C145.49 137.67 145.15 137.79 144.69 137.73C143.7 138.63 142.55 139.47 141.25 140.21H144.79V151.41V151.39ZM133.47 137.49C133.35 137.68 133.13 137.77 132.76 137.74C131.8 138.55 130.28 139.51 128.7 140.19H131.71C132.45 140 133.17 139.79 133.85 139.54V136.44H131.77L133.48 137.49H133.47ZM132.6 146.11H140.45V145.43H132.6V146.11ZM140.45 148.31H132.6V149.02H140.45V148.31ZM140.45 142.54H136.14C135.49 142.79 134.84 143.01 134.15 143.22H140.45V142.54ZM137.97 136.43V137.86C138.84 137.43 139.61 136.96 140.3 136.43H137.97Z" fill="white"/>
<path d="M156.06 144.97L158.51 144.1L159.35 148.01C156.31 149.44 153.08 150.83 150.91 151.73C150.88 152.07 150.66 152.32 150.38 152.41L148.43 147.48C149.39 147.2 150.57 146.83 151.87 146.39V138.2H149.17V133.95H151.87V126.94L156.96 127.22C156.93 127.56 156.68 127.75 156.06 127.84V133.95H158.7V138.2H156.06V144.96V144.97ZM165.06 149.5C165.06 151.39 165.28 151.61 167.11 151.61H172.32C173.93 151.61 174.24 150.99 174.52 148.01C175.48 148.66 177.22 149.38 178.43 149.62C177.9 154.09 176.6 155.61 172.75 155.61H166.67C162.05 155.61 160.78 154.31 160.78 149.5V142.24L158.7 143.14L157.03 139.14L160.78 137.56V129.77L165.96 130.05C165.93 130.39 165.68 130.58 165.06 130.7V135.73L166.74 135.02V126.64L171.86 126.92C171.83 127.26 171.58 127.45 170.96 127.54V133.22L173.16 132.29L174.06 131.7L177.6 132.97C177.51 133.16 177.32 133.37 177.04 133.53C177.04 139.52 176.98 142.74 176.89 144.05C176.77 146.97 174.9 147.49 171.93 147.49C171.81 146.37 171.46 144.67 171 143.77C171.4 143.8 171.93 143.8 172.18 143.8C172.49 143.8 172.65 143.71 172.71 143.24C172.77 142.87 172.77 141.1 172.77 137.07L170.97 137.85V148.74H166.75V139.68L165.07 140.39V149.51L165.06 149.5Z" fill="white"/>
<path d="M197.36 150.68H209.37V155.12H180.89V150.68H192.52V143.7H183.9V139.26H192.52V133.18H182.38V128.74H207.79V133.18H197.37V139.26H206.55V143.7H197.37V150.68H197.36Z" fill="white"/>
<path d="M248.24 145.41V149.78H237.94V156.11H233.29V149.78H219.45V145.41H224.26V138.15C223.73 138.8 223.17 139.42 222.62 139.95C221.78 139.08 220.08 137.56 218.99 136.82C221.66 134.52 224.11 130.43 225.38 126.52L230.78 128.2C230.66 128.48 230.31 128.66 229.85 128.6C229.69 129.03 229.51 129.44 229.32 129.87H246.38V134.24H237.94V137.37H245.66V141.56H237.94V145.41H248.24ZM233.29 134.24H227.02C226.37 135.36 225.65 136.41 224.88 137.37H233.29V134.24ZM228.79 145.41H233.29V141.56H228.79V145.41Z" fill="white"/>
<path d="M257.56 133.43V138.05C257.56 143.23 257.06 151.2 254.15 156.1C253.37 155.35 251.48 154.08 250.46 153.62C253.07 149.22 253.25 142.64 253.25 138.05V129.43H264.17V126.64L269.82 126.95C269.79 127.29 269.54 127.51 268.89 127.63V129.43H279.9V133.43H271.4V133.46L276.18 133.68C276.15 134.02 275.9 134.24 275.28 134.36V135.38H279.72V138.82H275.28V143.29H262.07V138.82H258.22V135.38H262.07V133.43H257.57H257.56ZM275.58 144.19L278.53 145.49C278.44 145.74 278.28 145.83 278.1 145.95C276.98 148.15 275.4 149.92 273.48 151.35C275.5 151.81 277.79 152.16 280.27 152.34C279.34 153.27 278.19 155.07 277.63 156.22C274.16 155.82 271.15 155.07 268.57 153.92C265.65 155.04 262.33 155.75 258.71 156.22C258.37 155.1 257.53 153.43 256.85 152.47C259.46 152.25 261.94 151.88 264.17 151.29C263.12 150.45 262.15 149.52 261.32 148.44L263.18 147.79H258.34V144.32H274.84L275.58 144.2V144.19ZM270.8 135.38V133.43H262.64V133.46L267.23 133.68C267.2 134.02 266.92 134.24 266.3 134.36V135.38H270.8ZM265.87 147.79C266.65 148.5 267.58 149.12 268.66 149.68C269.75 149.12 270.68 148.5 271.51 147.79H265.86H265.87ZM270.8 140.03V138.82H266.3V140.03H270.8Z" fill="white"/>
<path d="M311.08 143.61H302.36C302.24 143.73 302.02 143.83 301.71 143.77C301.62 143.96 301.49 144.14 301.37 144.33H308.5L309.24 144.3L311.07 144.39C311.07 144.67 311.04 145.01 311.04 145.35C310.92 151.83 310.76 154.16 310.2 155C309.67 155.81 308.9 156.24 306.32 156.15C306.29 155.9 306.26 155.59 306.2 155.28L305.02 155.68C304.99 155.43 304.93 155.15 304.86 154.84C302.07 155.12 299.34 155.34 297.48 155.49C297.45 155.74 297.26 155.89 297.01 155.92L296.05 153.04L300.52 152.85V151.83H297.23V149.22C296.92 149.47 296.58 149.75 296.27 149.96C296.11 149.74 295.9 149.4 295.65 149.06C295 151.7 293.97 154.15 292.3 156.07C291.62 155.45 290 154.36 289.1 153.96C289.94 153 290.59 151.94 291.12 150.8H286.93V153.47H283.27V128.06H291.71V149.28C292.83 145.93 292.95 142.21 292.95 139.07V127.28H310.69V133.42H296.67V139.07C296.67 141.18 296.58 143.6 296.24 146.05C296.98 145.34 297.67 144.5 298.26 143.6H297.33V138.85H311.07V143.6L311.08 143.61ZM288 131.85H286.95V134.39H288V131.85ZM286.95 138.05V140.69H288V138.05H286.95ZM286.95 146.98H288V144.34H286.95V146.98ZM306.74 129.95H296.69V130.76H306.74V129.95ZM297.65 138.2V136.46H301.87V138.2H297.65ZM297.77 134.11H301.83V135.85H297.77V134.11ZM300.53 146.67H299.69C299.5 146.92 299.29 147.13 299.1 147.38H300.53V146.67ZM299.69 150.08H300.53V149.12H299.69V150.08ZM300.22 140.8V141.64H301.18V140.8H300.22ZM302.52 133.67L306.61 133.92C306.58 134.2 306.36 134.35 305.83 134.45V138.45H302.51V133.67H302.52ZM306.43 151.82C306.65 152.35 306.86 152.91 307.05 153.43C307.11 153.37 307.21 153.31 307.27 153.18C307.49 152.75 307.58 151.16 307.67 146.67H303.36V147.38H306.77V151.82H306.43ZM304.26 149.12H303.36V150.08H304.26V149.12ZM303.36 152.72L304.2 152.66C304.14 152.47 304.05 152.32 303.98 152.13L305 151.82H303.36V152.72ZM303.61 140.81V141.65H304.6V140.81H303.61ZM306.59 135.85V134.11H310.81V135.85H306.59ZM310.93 136.47V138.21H306.59V136.47H310.93ZM307.05 140.81V141.65H308.07V140.81H307.05Z" fill="white"/>
<path d="M317.1 128.63H339.34V156.12H334.53V154.29H321.66V156.12H317.1V128.63ZM334.53 133.04H321.66V135.74H334.53V133.04ZM334.53 139.99H321.66V142.84H334.53V139.99ZM321.66 149.89H334.53V147.1H321.66V149.89Z" fill="white"/>
<path d="M349.03 141.13C348.19 142.28 347.29 143.33 346.39 144.26C345.92 143.11 344.75 140.69 344.06 139.58C346.91 136.79 349.86 131.64 351.57 126.71L356.78 128.51C356.63 128.82 356.28 128.98 355.79 128.91C355.01 130.8 354.12 132.7 353.12 134.56L354.52 134.93C354.46 135.24 354.18 135.49 353.59 135.58V156.12H349.03V141.14V141.13ZM374 139.08L365.69 139.86C366.47 146.28 367.92 151.4 369.35 151.43C369.94 151.43 370.31 149.79 370.47 146.19C371.43 147.28 372.95 148.45 374.19 148.95C373.48 154.84 372.08 156.12 369.04 156.12H368.92C364.39 156.09 362.06 149.02 361.04 140.33L354.99 140.89L354.56 136.55L360.61 135.99C360.39 132.98 360.3 129.88 360.3 126.9L366.16 127.21C366.13 127.61 365.82 127.83 365.11 127.92C365.05 130.4 365.11 133.01 365.3 135.55L373.58 134.81L374.01 139.09L374 139.08ZM369.72 126.8C371.27 128.35 373.19 130.55 374 132.14L370.31 134.44C369.63 132.92 367.83 130.56 366.28 128.89L369.72 126.81V126.8Z" fill="white"/>
<path d="M394.85 142.59C395.32 143.83 395.9 144.98 396.59 146C398.14 144.98 399.75 143.74 400.87 142.68L404.96 145.94C404.84 146.09 404.59 146.16 404.28 146.16C404.16 146.16 404.03 146.16 403.88 146.13C402.7 146.94 400.84 148.02 399.16 148.89C400.93 150.35 403.1 151.43 405.86 152.12C404.87 153.05 403.56 154.94 402.94 156.15C398.81 154.88 395.93 152.77 393.82 149.85L394.04 153.51C389.57 154.32 384.86 155.09 381.79 155.59C381.7 155.9 381.45 156.09 381.2 156.15L379.53 151.5L382.54 151.16V148.37C381.36 148.87 380.15 149.27 378.94 149.61C378.29 148.56 376.99 146.85 376.05 145.92C379.21 145.21 382.5 144 385.17 142.6H376.45V138.82H388.49V137.64H379.84V134.01H388.49V132.86H378.32V129.07H388.49V126.65L393.98 126.93C393.95 127.3 393.7 127.49 393.05 127.61V129.07H403.6V132.86H393.05V134.01H402.48V137.64H393.05V138.82H405.24V142.6H394.85V142.59ZM387.99 146.28C387.93 146.59 387.65 146.87 387.06 146.96V150.59C389.23 150.31 391.53 150 393.73 149.69C392.55 148.02 391.62 146.03 390.81 143.77C389.69 144.64 388.48 145.41 387.18 146.16L387.99 146.28Z" fill="white"/>
<path d="M437.45 135.92H429.11V138.5H436.68V142.59H429.11V145.38H437.08V149.57H429.11V156.12H424.46V135.92H423.5C422.32 138.25 421.02 140.42 419.65 142.09C418.94 141.25 417.48 139.83 416.49 139.02V156.11H412.02V141.03C411.21 142.15 410.38 143.14 409.54 144.07C409.11 142.92 407.99 140.53 407.34 139.45C410.07 136.66 412.89 131.57 414.57 126.7L419.63 128.47C419.51 128.75 419.16 128.9 418.67 128.87C417.89 130.76 416.99 132.65 416.03 134.52L417.43 134.89C417.34 135.2 417.06 135.45 416.5 135.51V138.61C418.73 135.85 420.84 131.23 422.02 126.88L427.32 128.46C427.2 128.74 426.85 128.92 426.39 128.86C426.08 129.76 425.74 130.69 425.4 131.62H437.47V135.9L437.45 135.92Z" fill="white"/>
<path opacity="0.35" d="M10.6401 0.469971H0.640137V153.47H10.6401V0.469971Z" fill="white"/>
<path opacity="0.35" d="M522.64 0.469971H512.64V153.47H522.64V0.469971Z" fill="white"/>
<defs>
<filter id="filter0_d_10_1701" x="83.1701" y="6.39005" width="359.6" height="108.92" filterUnits="userSpaceOnUse" color-interpolation-filters="sRGB">
<feFlood flood-opacity="0" result="BackgroundImageFix"/>
<feColorMatrix in="SourceAlpha" type="matrix" values="0 0 0 0 0 0 0 0 0 0 0 0 0 0 0 0 0 0 127 0" result="hardAlpha"/>
<feOffset dx="3.88" dy="3.88"/>
<feGaussianBlur stdDeviation="2.77"/>
<feColorMatrix type="matrix" values="0 0 0 0 0.101961 0 0 0 0 0.12549 0 0 0 0 0.219608 0 0 0 0.34 0"/>
<feBlend mode="normal" in2="BackgroundImageFix" result="effect1_dropShadow_10_1701"/>
<feBlend mode="normal" in="SourceGraphic" in2="effect1_dropShadow_10_1701" result="shape"/>
</filter>
</defs>
</svg>
