<?xml version="1.0" encoding="utf-8"?>
<!-- Generator: Adobe Illustrator 27.0.0, SVG Export Plug-In . SVG Version: 6.00 Build 0)  -->
<svg version="1.1" id="圖層_1" xmlns="http://www.w3.org/2000/svg" xmlns:xlink="http://www.w3.org/1999/xlink" x="0px" y="0px"
	 viewBox="0 0 390 59" style="enable-background:new 0 0 390 59;" xml:space="preserve">
<style type="text/css">
	.st0{fill:#FFE900;}
	.st1{fill:#2E318B;}
	.st2{fill:#FFFFFF;}
</style>
<path class="st0" d="M128.4,6.3h-98C17.5,6.3,7,16.8,7,29.7v0c0,12.9,10.5,23.4,23.4,23.4h98c12.9,0,23.4-10.5,23.4-23.4v0
	C151.9,16.8,141.4,6.3,128.4,6.3z"/>
<path class="st1" d="M25.8,33.3h24.4V35H25.8V33.3z M26.4,18.8h23.3v1.6H26.4V18.8z M29.8,27.6h16.4v1.2H29.8V27.6z M42,31.3h2v7.1
	c0,1.1-0.2,1.7-1.1,1.9c-0.9,0.3-2.3,0.3-4.4,0.3c-0.1-0.5-0.4-1.3-0.7-1.8c1.8,0.1,3.2,0.1,3.7,0.1c0.5-0.1,0.6-0.1,0.6-0.5V31.3z
	 M30.7,36.1l1.3-1.2c1.6,1,3.6,2.4,4.5,3.5l-1.3,1.3C34.2,38.6,32.3,37.1,30.7,36.1z M31.1,16.5l1.6-0.7c0.8,0.8,1.8,2,2.3,2.7
	l-1.7,0.8C32.8,18.6,31.9,17.4,31.1,16.5z M30.4,23.4v6.9h15.3v-6.9H30.4z M28.5,22.1h19.1v9.5H28.5V22.1z M42.9,15.9l2.1,0.6
	c-0.8,1.2-1.7,2.4-2.5,3.2L41,19.1C41.7,18.2,42.5,16.8,42.9,15.9z M39.3,19.6h1.8v4.9c0,0.5,0.1,0.6,0.9,0.6c0.4,0,2.5,0,3,0
	c0.5,0,0.6,0,0.7-0.2c0.4,0.2,1,0.4,1.4,0.4c-0.1,0.6-0.6,0.9-1.8,0.9c-0.4,0-3,0-3.4,0c-2,0-2.5-0.3-2.5-1.8V19.6z M34.8,19.6h1.8
	v3.2c0,1.8-0.8,3.6-4.7,4.6c-0.2-0.4-0.6-1-1-1.3c3.5-0.6,3.9-2,3.9-3.3V19.6z M54.5,30.7h21.1v1.8H54.5V30.7z M63.9,27.9h2v12.7h-2
	V27.9z M63.4,31.4l1.6,0.7c-2.3,3.6-6.7,6.4-11.1,7.7c-0.3-0.5-0.9-1.3-1.3-1.7C57,37,61.3,34.5,63.4,31.4z M66.5,31.6
	c2.2,2.9,6.5,5.4,10.7,6.5c-0.5,0.4-1.1,1.2-1.4,1.8c-4.2-1.4-8.5-4.3-10.8-7.7L66.5,31.6z M53.8,25.4h22.5v4.4h-2v-2.6H55.7v2.6
	h-1.9V25.4z M63,17.3l1.7,0.6c-0.8,1.1-1.7,2.2-2.5,2.9L61,20.3C61.7,19.5,62.5,18.2,63,17.3z M58.2,21.6l1.3-1.1
	c1.4,0.9,3.4,2.2,4.4,3l-1.4,1.3C61.6,23.9,59.7,22.5,58.2,21.6z M58.6,15.9h1.8c-0.2,5.4-1.3,8.1-6.6,9.5c-0.2-0.5-0.7-1.2-1-1.5
	C57.6,22.7,58.4,20.6,58.6,15.9z M55.5,17.4l1.4,0.5c-0.5,1.4-1.2,2.8-2.4,3.7l-1.3-0.8C54.3,19.9,55.1,18.6,55.5,17.4z M74.8,17.3
	l1.8,0.7c-0.9,1.1-1.9,2.3-2.7,3.1l-1.3-0.6C73.3,19.5,74.3,18.2,74.8,17.3z M69.5,21.4l1.3-1.2c1.9,1.2,4.5,2.8,5.8,3.9l-1.3,1.4
	C74,24.4,71.4,22.6,69.5,21.4z M69.8,15.9h1.8c-0.2,5.1-1.3,7.8-6.3,9.2c-0.2-0.5-0.7-1.1-1.1-1.5C68.8,22.4,69.6,20.3,69.8,15.9z
	 M66.7,17.3l1.4,0.5c-0.5,1.4-1.1,2.9-2.5,3.7l-1.3-0.8C65.5,19.9,66.3,18.5,66.7,17.3z M79.6,20.2h10.4v1.9H79.6V20.2z M83.7,25.6
	h4.6v1.9h-4.6V25.6z M84.1,15.9h2v5h-2V15.9z M87.6,25.6h1.8c0,0,0,0.6,0,0.9c-0.2,9.2-0.3,12.2-1,13.1c-0.4,0.6-0.9,0.8-1.5,0.9
	c-0.6,0.1-1.5,0.1-2.5,0c0-0.5-0.2-1.3-0.5-1.8c0.9,0.1,1.7,0.1,2.1,0.1c0.3,0,0.5-0.1,0.7-0.4c0.5-0.6,0.6-3.7,0.8-12.4V25.6z
	 M92.5,18.7h11.8v1.7H92.5V18.7z M90.7,23.5h13.2v1.6H90.7V23.5z M94,27.1h6.7v1.4H94V27.1z M94,30.5h6.7v1.4H94V30.5z M90,34h14.4
	v1.7H90V34z M93,21.6h1.8v13.2H93V21.6z M99.9,21.6h1.9v13.1h-1.9V21.6z M92.8,15.9l1.8,0.4c-0.8,2.7-2.3,5.3-3.8,6.9
	c-0.4-0.3-1.1-0.8-1.6-1.1C90.8,20.6,92.1,18.3,92.8,15.9z M98.6,36.8l1.4-0.9c1.6,1.1,3.6,2.7,4.6,3.8l-1.5,1
	C102.1,39.7,100.1,38,98.6,36.8z M94.3,35.8l1.7,0.9c-1.3,1.5-3.5,3-5.3,3.9c-0.3-0.4-0.9-0.9-1.3-1.2C91.2,38.5,93.3,37,94.3,35.8z
	 M82.8,21.5h1.8v5.4c0,4.5-0.5,9.6-4,13.9c-0.3-0.4-1-0.9-1.5-1.2c3.3-4,3.7-8.7,3.7-12.6V21.5z M110.7,30h1.1v6.4h-1.1V30z
	 M108.8,19.6h5.3v1.6h-5.3V19.6z M113.2,19.6h1.6v19.1c0,0.9-0.2,1.4-0.8,1.7c-0.6,0.3-1.6,0.3-3.1,0.3c-0.1-0.4-0.3-1.1-0.5-1.6
	c1.1,0,2.1,0,2.4,0c0.3,0,0.4-0.1,0.4-0.4V19.6z M107.9,19.6h1.5v9.8c0,3.5-0.2,8.3-1.9,11.4c-0.3-0.3-1-0.7-1.3-0.8
	c1.6-3,1.7-7.3,1.7-10.6V19.6z M106.3,28c2.5-0.1,6.2-0.4,9.9-0.7v1.6c-3.5,0.3-7.1,0.6-9.7,0.8L106.3,28z M110.1,22.7l1.2-0.4
	c0.5,1.2,0.9,2.8,1,3.8l-1.2,0.4C110.9,25.5,110.5,24,110.1,22.7z M110.9,15.9l2,0.3c-0.5,1.5-1,3.1-1.4,4.2l-1.5-0.3
	C110.3,18.9,110.7,17.1,110.9,15.9z M124.9,26.5h5.8v1.6h-5.8V26.5z M116.5,27.9h7.7v1.4h-7.7V27.9z M125.6,19.8h5.5v1.6h-5.5V19.8z
	 M119.8,17.4h1.5V21h-1.5V17.4z M119.8,24.8h1.5v3.9h-1.5V24.8z M115.3,38.4h15.9v1.6h-15.9V38.4z M116.5,16.7h7.4v1.4h-5.9v10.7
	h-1.5V16.7z M117.4,20.3h6.1v5.1h-6.1v-1.3h4.6v-2.5h-4.6V20.3z M125.7,15.9l1.8,0.3c-0.5,3.2-1.2,6.5-2.4,8.6
	c-0.3-0.2-1.1-0.7-1.5-0.9C124.7,21.9,125.4,18.9,125.7,15.9z M117.2,31.2h12.4v8.1H128v-6.4h-2.2v6.4h-1.4v-6.4h-2.1v6.4h-1.4v-6.4
	h-2.1v6.4h-1.6V31.2z"/>
<path class="st1" d="M166.1,23.6l1.2,0.3c-1,2.4-2.5,4.7-4,6.1c-0.2-0.2-0.7-0.6-1-0.8C163.8,27.9,165.2,25.8,166.1,23.6z
	 M165.9,25.5h8.6v1.1h-9.2L165.9,25.5z M174.2,25.5h1.1c0,0,0,0.4,0,0.6c-0.2,5.2-0.3,7-0.8,7.5c-0.3,0.4-0.6,0.5-1,0.5
	c-0.4,0-1.2,0-2,0c0-0.3-0.1-0.8-0.3-1.1c0.8,0.1,1.5,0.1,1.8,0.1c0.2,0,0.4,0,0.5-0.2c0.4-0.4,0.5-2.2,0.6-7.2V25.5z M165.1,31.8
	h4.8v-2.6h-5.1v-1h6.2v4.7h-5.9V31.8z M164.5,31.8h1.1v3.9c0,0.6,0.3,0.8,2,0.8c0.8,0,4.7,0,5.8,0c1.4,0,1.6-0.3,1.8-2.1
	c0.3,0.2,0.8,0.4,1.1,0.4c-0.2,2.2-0.7,2.7-2.8,2.7c-0.6,0-5.2,0-5.7,0c-2.4,0-3.2-0.3-3.2-1.9V31.8z M187,25.2v1.5h2.6v-1.5H187z
	 M183.4,25.2v1.5h2.6v-1.5H183.4z M179.8,25.2v1.5h2.5v-1.5H179.8z M178.7,24.3h12.1v3.3h-12.1V24.3z M180.5,32.9h1.1v4.9h-1.1V32.9
	z M187.8,30.3h1v6.4h-1V30.3z M182.1,31.2l0.8-0.3c0.6,0.8,1.1,1.9,1.4,2.6l-0.9,0.4C183.2,33.2,182.6,32.1,182.1,31.2z M178,29.7
	l0.6-0.7c0.9,0.6,2,1.4,2.5,2l-0.6,0.8C179.9,31.2,178.9,30.3,178,29.7z M182.1,34.2L183,34c0.5,0.8,1,1.8,1.1,2.5l-0.9,0.4
	C183.1,36.1,182.6,35.1,182.1,34.2z M180.6,27.5l0.9,0.4c-0.6,0.8-1.2,1.7-1.8,2.4l-0.8-0.4C179.5,29.3,180.2,28.2,180.6,27.5z
	 M182.5,28.7l0.9,0.5c-1,1.3-2.4,2.9-3.5,3.9l-0.8-0.5C180.3,31.6,181.7,29.9,182.5,28.7z M177.8,32.4c1.4,0,3.5,0,5.6-0.1l0,0.9
	c-2,0.1-4,0.2-5.5,0.2L177.8,32.4z M178.8,34l1,0.2c-0.3,1.1-0.8,2.3-1.3,3c-0.2-0.2-0.6-0.4-0.9-0.5C178.2,36,178.6,35,178.8,34z
	 M185.7,27.7l1,0.3c-0.6,1.6-1.6,3.2-2.6,4.2c-0.2-0.2-0.6-0.5-0.9-0.7C184.3,30.6,185.2,29.1,185.7,27.7z M188.5,27.8l1.1,0.3
	c-0.4,0.8-0.9,1.7-1.2,2.3l-0.9-0.3C187.8,29.5,188.3,28.5,188.5,27.8z M185.9,29.7h5.6v0.9h-5.6v7.2h-1v-7.6l0.5-0.5H185.9z
	 M185.4,31.9h5.8v0.9h-5.8V31.9z M185.4,34h5.8v0.9h-5.8V34z M185.3,36.2h6.4v0.9h-6.4V36.2z M199.4,27.3h1.1v8.2h-1.1V27.3z
	 M196.1,29.5v1.1h7.8v-1.1H196.1z M196.1,27.6v1.1h7.8v-1.1H196.1z M195,26.8h10.1v4.7H195V26.8z M194.1,32.4h11.3v1h-10.2v4.4h-1.1
	V32.4z M205,32.4h1.1v4.2c0,0.6-0.1,0.8-0.5,1c-0.4,0.2-1,0.2-2,0.2c0-0.3-0.2-0.7-0.3-0.9c0.7,0,1.3,0,1.5,0c0.2,0,0.3,0,0.3-0.2
	V32.4z M196.1,35.2c1.8-0.1,4.5-0.2,7.1-0.3l0,0.9c-2.6,0.2-5.2,0.3-7,0.4L196.1,35.2z M201.8,33.9l0.9-0.3c0.7,0.8,1.4,2,1.6,2.8
	l-0.9,0.3C203.1,35.9,202.4,34.8,201.8,33.9z M196.7,23.7h1.1v2.9h-1.1V23.7z M202.1,23.7h1.1v2.9h-1.1V23.7z M193.4,24.6h13.2v1
	h-13.2V24.6z M212.7,31.4l0.8-0.6c3.7,2.1,4,5.5,2.4,6.5c-0.5,0.3-0.9,0.4-1.5,0.4c-0.3,0-0.8,0-1.3,0c0-0.3-0.1-0.7-0.3-1
	c0.5,0.1,1,0.1,1.4,0.1c0.4,0,0.7,0,1-0.2C216.2,35.9,215.8,33.3,212.7,31.4z M214.3,31.9l0.8,0.4c-1.3,1.1-3.8,2.1-5.7,2.6
	c-0.2-0.2-0.4-0.6-0.6-0.8C210.6,33.8,213,32.9,214.3,31.9z M215.3,33.3l0.8,0.5c-1.6,1.6-4.6,3-6.9,3.7c-0.2-0.2-0.5-0.6-0.7-0.9
	C210.9,36,213.8,34.7,215.3,33.3z M212.3,24.7h4.5v0.9h-4.5V24.7z M215.2,29.6l0.9,0.4c-1.7,1.2-4.5,2.2-6.7,2.7
	c-0.1-0.2-0.4-0.6-0.6-0.8C211,31.5,213.6,30.6,215.2,29.6z M216.5,29.8c0.9,3.1,2.9,5.6,5.9,6.5c-0.2,0.2-0.6,0.6-0.7,0.9
	c-3.1-1.2-5.1-3.7-6.1-7.3L216.5,29.8z M220.9,30.5l0.9,0.7c-1.2,0.8-2.8,1.8-4,2.4l-0.7-0.6C218.3,32.3,220,31.3,220.9,30.5z
	 M211.2,27.7v1.8h8.4v-1.8H211.2z M210.1,26.8h10.6v3.5h-10.6V26.8z M212.8,23.7l1.2,0.2c-1.1,1.5-2.6,3.1-4.7,4.4
	c-0.2-0.3-0.5-0.6-0.8-0.8C210.4,26.4,211.9,24.9,212.8,23.7z M214.7,27.2h1.1v2.7h-1.1V27.2z M216.4,24.7h0.2l0.2,0l0.8,0.5
	c-0.5,0.9-1.3,1.8-2,2.4c-0.2-0.2-0.6-0.4-0.8-0.5c0.6-0.6,1.3-1.5,1.6-2.1V24.7z M227.9,36.7c-0.7,0-1.4-0.1-1.9-0.4
	c-0.6-0.2-1-0.6-1.3-1c-0.3-0.4-0.5-1-0.5-1.5h1.4c0,0.4,0.2,0.7,0.4,0.9c0.2,0.3,0.5,0.5,0.9,0.6c0.4,0.1,0.7,0.2,1.2,0.2
	c0.5,0,0.9-0.1,1.3-0.2c0.4-0.2,0.7-0.4,0.9-0.7c0.2-0.3,0.3-0.6,0.3-1c0-0.4-0.1-0.8-0.3-1.1c-0.2-0.3-0.5-0.6-0.9-0.7
	c-0.4-0.2-0.9-0.3-1.4-0.3h-0.9v-1.2h0.9c0.4,0,0.8-0.1,1.2-0.2c0.3-0.2,0.6-0.4,0.8-0.7c0.2-0.3,0.3-0.6,0.3-1c0-0.4-0.1-0.7-0.2-1
	c-0.2-0.3-0.4-0.5-0.7-0.7c-0.3-0.2-0.7-0.2-1.1-0.2c-0.4,0-0.7,0.1-1.1,0.2c-0.3,0.1-0.6,0.3-0.8,0.6c-0.2,0.3-0.3,0.6-0.3,0.9
	h-1.3c0-0.6,0.2-1.1,0.5-1.5c0.3-0.4,0.8-0.8,1.3-1c0.5-0.2,1.1-0.4,1.8-0.4c0.7,0,1.3,0.1,1.8,0.4c0.5,0.3,0.9,0.6,1.1,1.1
	c0.3,0.5,0.4,0.9,0.4,1.5c0,0.6-0.2,1.2-0.5,1.6c-0.3,0.4-0.8,0.7-1.3,0.9v0.1c0.7,0.1,1.3,0.4,1.6,0.9c0.4,0.5,0.6,1.1,0.6,1.8
	c0,0.6-0.2,1.1-0.5,1.6c-0.3,0.5-0.8,0.9-1.3,1.1C229.2,36.6,228.6,36.7,227.9,36.7z M234.2,36.6l5-9.8v-0.1h-5.7v-1.2h7.1v1.3
	l-5,9.9H234.2z M242.3,25.5h5.2v1.1h-5.2V25.5z M244.3,26.1h1.1v7.4h-1.1V26.1z M241.9,33.8c1.4-0.4,3.6-1.1,5.7-1.9l0.2,1
	c-1.9,0.7-3.9,1.4-5.4,2L241.9,33.8z M247.5,24.4h8.6v1h-8.6V24.4z M249.4,30.2v1.5h5.1v-1.5H249.4z M249.4,32.5V34h5.1v-1.5H249.4z
	 M249.4,27.8v1.5h5.1v-1.5H249.4z M248.3,26.9h7.3v8h-7.3V26.9z M251.2,24.9l1.3,0.2c-0.3,0.9-0.6,1.9-0.8,2.5l-1-0.2
	C250.9,26.7,251.1,25.7,251.2,24.9z M249.9,35.1l1,0.6c-1,0.8-2.6,1.6-3.9,2c-0.2-0.2-0.5-0.6-0.7-0.8
	C247.6,36.6,249.2,35.8,249.9,35.1z M252.5,35.8l0.9-0.6c1,0.5,2.4,1.3,3.1,1.9l-0.9,0.7C254.9,37.2,253.5,36.4,252.5,35.8z
	 M259.5,33.8h9.9v0.9h-9.9V33.8z M259.9,31.3h10.3v1h-10.3V31.3z M257.7,36.4h13.4v1h-13.4V36.4z M263.8,30.1h1.2v7h-1.2V30.1z
	 M260.4,27.5v1.4h7.9v-1.4H260.4z M260.4,25.2v1.4h7.9v-1.4H260.4z M259.3,24.3h10.2v5.4h-10.2V24.3z M260.3,29.8l1.1,0.3
	c-0.7,1.5-1.9,3-3,3.9c-0.2-0.2-0.7-0.6-1-0.7C258.6,32.5,259.7,31.1,260.3,29.8z M277.9,24.7h5.9v1.1h-5.9V24.7z M283.3,24.7h0.1
	l0.2-0.1l0.8,0.1c-0.3,1.6-0.7,3.9-1.1,5.6l-1.1-0.1c0.4-1.7,0.9-4.1,1-5.4V24.7z M283.2,28.5h2.6v1h-2.9L283.2,28.5z M285.4,28.5
	h0.2l0.2,0l0.7,0.3c-0.9,4.7-3.3,7.5-6.2,9c-0.2-0.3-0.5-0.7-0.8-0.9c2.8-1.3,5.1-4,5.9-8.2V28.5z M280.4,26.3
	c0.8,4.9,2.6,9.1,6.5,10.5c-0.3,0.2-0.6,0.6-0.8,0.9c-4-1.7-5.7-6-6.6-11.3L280.4,26.3z M275,23.7l1,0.4c-0.6,1.1-1.3,2.5-1.9,3.3
	l-0.8-0.4C273.9,26.2,274.6,24.7,275,23.7z M276.8,25.5l1,0.4c-1,1.8-2.5,4-3.6,5.3l-0.7-0.4C274.5,29.4,275.9,27.1,276.8,25.5z
	 M272.6,26.9l0.6-0.7c0.9,0.7,1.8,1.7,2.2,2.4l-0.6,0.9C274.4,28.7,273.4,27.7,272.6,26.9z M276.4,29l0.8-0.3c0.6,1,1.2,2.3,1.5,3.1
	l-0.9,0.4C277.6,31.4,277,30,276.4,29z M272.6,30.6c1.3,0,3.3-0.1,5.3-0.2l0,0.9c-1.9,0.1-3.7,0.3-5.2,0.4L272.6,30.6z M276.6,32.6
	l0.8-0.3c0.4,0.8,0.8,2,1,2.7l-0.9,0.3C277.4,34.6,277,33.5,276.6,32.6z M273.4,32.5l1,0.2c-0.2,1.4-0.6,2.9-1.1,3.9
	c-0.2-0.1-0.7-0.3-0.9-0.4C272.9,35.2,273.2,33.8,273.4,32.5z M275.1,31h1v6.8h-1V31z M279.4,25.3h1V28c0,2.9-0.3,6.8-2.6,9.7
	c-0.2-0.2-0.6-0.5-0.9-0.6c2.2-2.8,2.4-6.5,2.4-9.1V25.3z M294.9,24.8c-1.3,1.9-3.7,4.1-6.3,5.7c-0.2-0.3-0.5-0.7-0.7-0.9
	c2.6-1.5,5.2-3.9,6.4-5.9h1.2c1.6,2.3,4.3,4.5,6.7,5.7c-0.3,0.3-0.6,0.7-0.8,1C299,29,296.3,26.7,294.9,24.8z M289.8,32.8h10.4v1
	h-10.4V32.8z M290.5,29.3h9.1v1h-9.1V29.3z M288.5,36.3h13v1h-13V36.3z M294.3,29.8h1.2v7.1h-1.2V29.8z M310.4,30.9h5.7v1h-5.7V30.9
	z M311.7,28.6h4v0.9h-4V28.6z M312.4,31.5h1v6.3h-1V31.5z M315.5,30.9h1v4.2c0,0.5-0.1,0.8-0.5,1c-0.4,0.2-0.9,0.2-1.9,0.2
	c0-0.3-0.2-0.7-0.3-1c0.7,0,1.2,0,1.4,0c0.2,0,0.2,0,0.2-0.2V30.9z M313.7,24.9c-0.6,1.6-1.8,3.5-3.2,4.7c-0.1-0.3-0.4-0.7-0.6-0.9
	c1.3-1.1,2.6-3.2,3.2-4.9h1c0.8,1.8,2.1,3.7,3.4,4.8c-0.2,0.3-0.5,0.7-0.6,1C315.6,28.3,314.4,26.5,313.7,24.9z M305.6,28.6l0.7,0.1
	c-0.2,1.2-0.5,2.2-1.1,2.8c-0.1-0.1-0.3-0.3-0.5-0.5C305.3,30.4,305.5,29.6,305.6,28.6z M307.6,28.6l0.7,0.1
	c-0.2,1.1-0.6,2.1-1.2,2.7c-0.1-0.1-0.3-0.3-0.5-0.5C307.1,30.4,307.4,29.6,307.6,28.6z M305.6,32.8l0.7,0.1
	c-0.1,1.2-0.5,2.2-1.1,2.8c-0.1-0.1-0.4-0.4-0.5-0.5C305.3,34.6,305.5,33.8,305.6,32.8z M307.6,32.8l0.7,0.1
	c-0.2,1.1-0.5,2.1-1.2,2.8c-0.1-0.1-0.3-0.3-0.5-0.4C307.1,34.6,307.4,33.8,307.6,32.8z M303.3,27.1h7.2V28h-7.2V27.1z M307.1,25.1
	h2.9V26h-2.9V25.1z M304.2,31.7h5.3v0.9h-5.3V31.7z M304.2,35.9h5.3v0.9h-5.3V35.9z M306.5,23.7h1v3.9h-1V23.7z M304.4,24.6h0.9v3
	h-0.9V24.6z M303.8,28.6h0.9v9.1h-0.9V28.6z M309,28.6h0.9v8.9H309V28.6z M305.5,30l0.5-0.4c0.3,0.3,0.7,0.8,0.9,1.1l-0.5,0.4
	C306.1,30.8,305.8,30.3,305.5,30z M307.4,30l0.4-0.4c0.4,0.4,0.9,1,1.1,1.3l-0.5,0.5C308.3,31,307.8,30.4,307.4,30z M305.5,34.2
	l0.5-0.4c0.4,0.4,0.7,0.8,0.9,1.1l-0.5,0.5C306.2,35,305.8,34.5,305.5,34.2z M307.4,34.2l0.4-0.4c0.4,0.5,0.9,1,1.2,1.4l-0.5,0.5
	C308.3,35.3,307.8,34.7,307.4,34.2z M324.3,29.3l1.3,0.3c-1,2.3-2.3,5.2-3.4,7l-1.1-0.3C322.3,34.4,323.6,31.4,324.3,29.3z
	 M319.3,35.9c2.8-0.1,7.3-0.3,11.4-0.5l0,1.1c-4,0.2-8.3,0.5-11.2,0.6L319.3,35.9z M327.3,32.6l1.1-0.5c1.4,1.6,3,3.7,3.7,5.1
	l-1.2,0.6C330.2,36.5,328.6,34.2,327.3,32.6z M322.8,24.2l1.3,0.4c-1,2.5-2.6,4.8-4.3,6.3c-0.2-0.2-0.8-0.6-1.1-0.8
	C320.4,28.6,321.9,26.4,322.8,24.2z M328.3,24.1c1,2,2.9,4.4,4.3,5.7c-0.3,0.2-0.7,0.7-1,1c-1.4-1.5-3.3-4.1-4.5-6.2L328.3,24.1z
	 M340.8,24.2h1.1v1.9c0,1.3-0.3,3-2,4c-0.2-0.2-0.6-0.6-0.8-0.8c1.5-0.9,1.7-2.2,1.7-3.3V24.2z M344.6,24.2h1.1V28
	c0,0.3,0,0.4,0.3,0.4c0.1,0,0.6,0,0.8,0c0.3,0,0.3-0.2,0.4-1.7c0.2,0.2,0.7,0.3,1,0.4c-0.1,1.8-0.4,2.3-1.2,2.3c-0.2,0-0.9,0-1.1,0
	c-0.9,0-1.2-0.3-1.2-1.4V24.2z M341.7,31.4c1.1,2.6,3.3,4.6,6.4,5.4c-0.3,0.2-0.6,0.7-0.8,1c-3.2-0.9-5.5-3-6.7-6L341.7,31.4z
	 M346,30.3h0.2l0.2,0l0.7,0.3c-1.1,4-4,6.2-7.3,7.2c-0.1-0.3-0.4-0.8-0.6-1c3.1-0.8,5.9-2.8,6.8-6.2V30.3z M339.9,30.3h6.5v1h-6.5
	V30.3z M341.3,24.2h3.8v1h-3.8V24.2z M334.6,28.3h4.6v0.9h-4.6V28.3z M334.6,24.3h4.5v0.9h-4.5V24.3z M334.6,30.4h4.6v0.9h-4.6V30.4
	z M333.8,26.3h5.8v0.9h-5.8V26.3z M335.1,32.5h4v4.5h-4v-1h3v-2.6h-3V32.5z M334.5,32.5h1v5.2h-1V32.5z"/>
<path class="st2" d="M359.9,0.2H29.5C13.3,0.2,0.1,13.4,0.1,29.6C0.1,45.8,13.3,59,29.5,59h330.4c16.2,0,29.4-13.2,29.4-29.4
	C389.3,13.4,376.1,0.2,359.9,0.2z"/>
<path class="st0" d="M128,6.1H30C17,6.1,6.5,16.6,6.5,29.6v0C6.5,42.6,17,53.1,30,53.1h98c12.9,0,23.4-10.5,23.4-23.4v0
	C151.4,16.6,140.9,6.1,128,6.1z"/>
<path class="st1" d="M50.3,33.5v3h-5.6v1.6c0,3-1.1,3.7-6.2,3.7c-0.2-1-0.7-2.5-1.2-3.4c1.1,0.1,2.6,0.1,3,0.1
	c0.4,0,0.5-0.1,0.5-0.4v-1.5h-6.5c1,0.6,1.9,1.3,2.4,1.9L34.1,41c-0.9-1-2.8-2.5-4.4-3.4l1.1-1.1H25v-3h15.8v-0.8H28.2V22.4h5.3
	v-0.7h-8v-2.9h5.5c-0.3-0.4-0.6-0.9-0.9-1.3l3.2-1.3c0.7,0.7,1.5,1.8,1.8,2.5L35,18.8h5.1c0.5-0.8,1.1-1.8,1.4-2.6l4.3,1.4
	c-0.1,0.2-0.4,0.3-0.8,0.3c-0.2,0.3-0.6,0.6-0.9,0.9h5.4v2.9h-8.3v0.7h5.7v10.4h-2.2c0,0-0.2,0-0.2,0.1v0.7L50.3,33.5L50.3,33.5z
	 M31.7,26.2c1.1-0.3,1.5-0.9,1.7-1.6h-1.7V26.2z M31.7,27.9h1.5c-0.5-0.6-1.1-1.3-1.5-1.7V27.9z M31.7,29.9v0.6h11.7v-0.6H31.7z
	 M41,27.4c-2.4,0-2.9-0.6-2.9-2.7h-1.4c-0.2,1.3-0.9,2.4-2.1,3.3h8.8v-0.6c-0.3,0.1-0.6,0.1-1,0.1H41L41,27.4z M36.8,21.7v0.7h1.3
	v-0.7H36.8z M43.4,24.6h-2c0,0.2,0,0.4,0,0.5c0,0.1,0.1,0.1,0.2,0.1c0.6,0,0.6,0,0.7-0.3c0.3,0.1,0.6,0.3,1.1,0.4L43.4,24.6
	L43.4,24.6z"/>
<path class="st1" d="M75.5,34.5h-6.4c2.2,1.5,5.1,2.8,8.2,3.5c-0.9,0.9-2.2,2.5-2.8,3.6c-3-1-5.8-2.8-8.1-5v5.2h-3.9V37
	c-2.3,2.1-5.1,3.6-8.3,4.6c-0.6-1-1.7-2.6-2.6-3.4c3.3-0.7,6.4-2,8.5-3.7h-6.2v-3.4h8.6v-2l4.7,0.2c0,0.3-0.3,0.5-0.8,0.6v1.2h9.1
	L75.5,34.5L75.5,34.5z M52,20.9c1-0.8,1.7-2,2-3.2l2.4,0.8c-0.4,1.5-1,2.9-2.2,3.9L52,20.9L52,20.9z M52.9,25.6h0.5
	c-0.4-0.7-0.9-1.5-1.4-1.9c4.7-1.2,5-3.2,5.1-7.5l4.1,0.3c0,0.3-0.2,0.5-0.7,0.5c-0.1,1.3-0.2,2.4-0.4,3.5h0c0.5-0.9,1.1-2,1.4-2.9
	l3.4,1.3c0.2-0.5,0.4-1,0.5-1.5l2.5,0.8c-0.3,1.5-0.9,3-2.1,3.9l-2.3-1.5c0.5-0.4,1-1,1.3-1.7h0c-0.1,0.1-0.4,0.2-0.7,0.2
	c-0.5,0.7-1.3,1.8-2,2.5l-2.2-1L60,21.1c1.1,0.6,2.7,1.5,3.5,2.1L61,25.6c-0.5-0.5-1.5-1.1-2.4-1.7c-0.6,0.7-1.3,1.2-2.4,1.8h9.2
	c-0.4-0.8-1-1.6-1.6-2.1c4.5-1.2,4.8-3.4,5-7.3l4.1,0.3c0,0.3-0.2,0.5-0.7,0.5c-0.1,1.4-0.2,2.7-0.6,3.9c1.6,0.9,3.8,2.2,5,3
	L75,25.6h1.4v5h-3.9V29H56.6v1.6h-3.8L52.9,25.6L52.9,25.6z M73.1,25.6c-0.9-0.6-1.9-1.3-2.9-1.9c-0.6,0.7-1.5,1.4-2.6,1.9H73.1
	L73.1,25.6z M77.3,18.8c-0.1,0.2-0.4,0.3-0.8,0.3c-0.5,0.7-1.5,1.8-2.1,2.5l-2.3-1.1c0.6-0.9,1.2-2.2,1.6-3L77.3,18.8L77.3,18.8z"/>
<path class="st1" d="M104.3,37.1H101c1.3,0.9,2.7,2.1,3.6,2.9l-2.9,1.8c-0.9-1-2.8-2.6-4.3-3.8l1.6-1h-3.9l1.7,1
	c-0.1,0.1-0.2,0.2-0.4,0.2c-0.9,1.2-3.1,2.7-4.9,3.5c-0.6-0.6-1.6-1.6-2.4-2.2c-0.6,2.2-2.7,2.2-4.9,2.2c-0.1-1-0.4-2.5-0.9-3.5
	c0.7,0.1,1.3,0.1,1.7,0.1c0.3,0,0.5-0.1,0.8-0.4c0.3-0.5,0.4-2.6,0.5-8.3h-1.5c-0.4,4.6-1.2,8.9-3.5,12c-0.6-0.9-1.8-2.1-2.7-2.7
	c2.6-3.7,2.8-9.2,2.9-15.3h-2.4v-3.6h3.9v-3.9l4.5,0.2c0,0.3-0.2,0.5-0.8,0.6v3.1H90v0.6c0.9-1.3,1.7-3,2.1-4.6l3.9,1
	c-0.1,0.2-0.3,0.3-0.7,0.3c-0.1,0.4-0.3,0.9-0.5,1.3h9.5v3.1H93.2l-0.2,0.4l3.5,0.2c0,0.3-0.2,0.4-0.7,0.5v1.3h2.7v-2l4.4,0.2
	c0,0.3-0.2,0.5-0.8,0.5v1.3h1.9v3H102V34h2.3V37.1L104.3,37.1z M87.8,26.2l1.9,0.1c0,0.3,0,0.7,0,1.1c-0.1,7-0.2,10.5-0.6,12.1
	c1.3-0.6,2.7-1.5,3.7-2.4h-2.9v-3h2.2v-6.7h-1.9v-3h1.9v-1c-0.2,0.3-0.4,0.5-0.7,0.7c-0.3-0.3-0.9-0.8-1.5-1.2v0.9H85l-0.1,2.4H87.8
	L87.8,26.2z M98.4,27.4h-2.7V28h2.7V27.4z M98.4,31v-0.6h-2.7V31H98.4z M95.7,33.4V34h2.7v-0.7H95.7z"/>
<path class="st1" d="M116,29.7l-1,0.1v8.8c0,2.4-0.8,3.2-4,3.2c-0.1-0.8-0.4-2.1-0.9-2.9c0.4,0,0.8,0.1,1.2,0.1c0.8,0,0.9,0,0.9-0.4
	v-8.4l-2.6,0.3c-0.1,3.6-0.4,8.3-1.9,11.3c-0.5-0.5-1.8-1.2-2.4-1.5c1.3-2.6,1.6-6.3,1.6-9.4l-0.3,0.1c-0.1,0.2-0.3,0.4-0.5,0.4
	l-0.7-3.2l1.5-0.1v-8.2h2.2c0.2-1.2,0.3-2.6,0.4-3.6l4,0.7c-0.1,0.2-0.3,0.3-0.7,0.4c-0.2,0.7-0.5,1.7-0.8,2.5h3v7.5l0.9-0.1
	L116,29.7L116,29.7z M111.3,23.2c0.4,0.9,0.7,2.1,0.8,3h0l0-3.5h-2.6v1.1L111.3,23.2z M109.6,27.8l2.6-0.2v-1.1l-2,0.7
	c0-0.8-0.3-1.9-0.6-2.8V27.8z M112.1,31.1c0,0.2-0.2,0.3-0.5,0.3V37H110v-6.1L112.1,31.1z M129.7,38.4h1.5v2.9h-15.9v-2.9h1.5v-7
	h12.9V38.4z M118.8,30.4v0.4h-2.6V17.1h7.7v2.4H122v1.3h1.7v2.7c0.7-1.9,1.1-4.7,1.3-7.3l3.7,0.8c-0.1,0.2-0.3,0.4-0.6,0.4
	c-0.1,0.7-0.2,1.5-0.3,2.2h3.3v2.9h-3.9c-0.3,1.3-0.7,2.5-1.2,3.4c-0.5-0.5-1.5-1-2.3-1.5v2.2H122v1.3h2.2v2.5L118.8,30.4
	L118.8,30.4z M119.6,19.5h-0.8v1.3h0.8V19.5z M121.2,23h-2.4v1.5h2.4V23z M119.6,27.9v-1.3h-0.8v1.3H119.6z M119.7,34.3v4.2h0.7
	v-4.2H119.7z M123.5,34.3h-0.7v4.2h0.7V34.3z M124.6,29.2v-2.9h6.1v2.9H124.6z M126.6,34.3h-0.7v4.2h0.7V34.3z"/>
<g>
	<path class="st1" d="M166.2,35.2c0,0.7,0.3,0.8,1.9,0.8h4.3c1.3,0,1.5-0.2,1.6-1.7c0.5,0.3,1.5,0.7,2.1,0.8c-0.3,2.4-1.1,3-3.7,3
		H168c-3.1,0-4-0.6-4-2.8v-3.7h4.8v-1.4h-4.1v-0.8c-0.4,0.5-0.8,1-1.3,1.4c-0.4-0.5-1.3-1.2-1.8-1.5c1.5-1.3,3-3.6,3.8-5.8l2.7,0.9
		c-0.1,0.1-0.2,0.2-0.5,0.2c-0.1,0.2-0.2,0.5-0.3,0.7h6.8l1.2,0.1c0,0.2,0,0.5,0,0.7c-0.1,4.9-0.3,6.8-0.7,7.4
		c-0.6,0.8-1.3,0.9-3,0.9c0-0.6-0.2-1.5-0.6-2v1.3h-4.8L166.2,35.2L166.2,35.2z M166.1,27.4c-0.2,0.3-0.4,0.6-0.6,0.9h5.4v3.9
		c0.5,0.1,0.9,0.1,1.1,0.1c0.2,0,0.3-0.1,0.5-0.2c0.2-0.3,0.3-1.5,0.4-4.6H166.1L166.1,27.4z"/>
	<path class="st1" d="M192.4,36v1.7h-5.1v0.5h-2v-5.9c-0.2-0.2-0.5-0.4-0.8-0.6c0.3,0.7,0.6,1.5,0.7,2.1l-1.6,0.6
		c0-0.2,0-0.3-0.1-0.5l-0.8,0v0.8l1.4-0.5c0.4,0.8,0.9,1.8,1,2.5l-1.7,0.7c-0.1-0.6-0.4-1.4-0.7-2.1v2.9h-2v-3
		c-0.2,0.9-0.7,2-1.1,2.7c-0.4-0.3-1.1-0.6-1.5-0.8c0.4-0.7,0.8-1.8,1-2.7l1.6,0.5V34c-0.7,0-1.3,0.1-1.8,0.1c0,0.2-0.2,0.2-0.3,0.2
		l-0.5-2h1.5c0.2-0.2,0.5-0.4,0.7-0.6c-0.5-0.5-1.3-1.2-2-1.6l1.1-1.4l0.4,0.3c0.2-0.3,0.5-0.7,0.7-1h-1.6v-3.9h12.7v3.9h-2.1
		l1.7,0.5c-0.1,0.1-0.2,0.2-0.4,0.2c-0.1,0.3-0.3,0.7-0.5,1h1.9v1.7h-2v0.5h1.6v1.5h-1.6v0.5h1.6v1.5h-1.6V36L192.4,36L192.4,36z
		 M181,25.6v0.8h1.4v-0.8H181z M181.8,27.9l0.8,0.4c-0.1,0.1-0.2,0.1-0.4,0.1c-0.3,0.4-0.7,1-1.2,1.5c0.2,0.1,0.3,0.3,0.4,0.4
		c0.5-0.6,1-1.2,1.3-1.7l1.9,1c-0.1,0.1-0.2,0.1-0.5,0.1c-0.4,0.5-1,1.1-1.6,1.7l1.2-0.4c0.8-0.8,1.5-2,1.9-3.1H181.8z M182.9,32.3
		c-0.1-0.2-0.2-0.5-0.3-0.7c-0.2,0.3-0.5,0.5-0.8,0.7L182.9,32.3L182.9,32.3z M184.4,25.6v0.8h1.4v-0.8H184.4z M188.2,28.3
		c0,0.1-0.2,0.2-0.4,0.2c-0.1,0.4-0.3,0.8-0.6,1.2h1c0.3-0.6,0.5-1.2,0.7-1.7h-1.8L188.2,28.3L188.2,28.3z M188.2,31.9v-0.5h-1v0.5
		H188.2z M188.2,33.9v-0.5h-1v0.5H188.2z M187.2,35.5V36h1v-0.5H187.2z M187.9,25.6v0.8h1.5v-0.8H187.9z"/>
	<path class="st1" d="M205.2,24.5h3.1v1.8h-3.1v0.5H203v-0.5h-3.3v0.5h-2.2v-0.5h-3v-1.8h3v-0.9l2.6,0.1c0,0.2-0.1,0.3-0.5,0.3v0.4
		h3.3v-0.9l2.6,0.1c0,0.2-0.1,0.3-0.5,0.3V24.5z M207.6,32.3v3.9c0,1.4-0.4,1.9-2.5,1.9c-0.1-0.4-0.2-0.8-0.3-1.2l-1.4,0.3
		c0-0.2,0-0.4-0.1-0.6c-1.8,0.2-3.6,0.3-4.9,0.4c0,0.2-0.2,0.2-0.3,0.2l-0.7-2.1c0.8,0,1.7,0,2.8,0v-1h-2.9v4.1h-2.1v-5.9h5v-0.4
		h-3.8v-5h9.9v5h-4v0.4H207.6L207.6,32.3z M198.6,28.4v0.4h1.7v-0.4H198.6z M198.6,30.6h1.7v-0.4h-1.7V30.6z M204.3,28.8v-0.4h-1.9
		v0.4H204.3z M204.3,30.6v-0.4h-1.9v0.4H204.3z M202.4,35.1h0.5c-0.1-0.2-0.1-0.4-0.2-0.6l1.4-0.3h-1.7L202.4,35.1L202.4,35.1z
		 M204.4,34.1c0.3,0.7,0.6,1.6,0.8,2.3c0.3,0,0.4,0,0.4-0.2v-2.1H204.4z"/>
	<path class="st1" d="M222.9,30.8l1.9,1.5c-0.1,0.1-0.2,0.1-0.3,0.1c-0.1,0-0.1,0-0.2,0c-0.6,0.4-1.7,0.9-2.6,1.3
		c0.8,1,1.9,1.7,3.2,2.2c-0.5,0.4-1.1,1.3-1.4,1.9c-2.8-1.2-4.4-3.6-5.4-6.8c-0.3,0.2-0.7,0.4-1,0.6c1.7,1.2,2.5,2.7,2.5,4
		c0,1.7-1.3,2.8-3,2.8c-0.4,0-0.8,0-1.2,0c0-0.5-0.2-1.1-0.4-1.7c-1,0.5-2.1,0.8-3.1,1.1c-0.3-0.5-0.8-1.2-1.2-1.6
		c2.2-0.5,4.7-1.4,6.3-2.4l-0.2-0.2c-1.4,0.8-3.1,1.5-4.6,1.8c-0.3-0.4-0.8-1.1-1.2-1.5c1.6-0.3,3.3-0.8,4.6-1.4l-0.2-0.1
		c-1.1,0.4-2.2,0.7-3.3,0.9c-0.2-0.4-0.7-1.1-1-1.5c1.3-0.2,2.7-0.6,3.9-1h-2.4v-2.2l-0.3,0.2c-0.3-0.5-1-1.3-1.5-1.6
		c1.9-1,3.3-2.4,4.1-3.6l2.5,0.5c0,0.1-0.2,0.3-0.4,0.3l-0.2,0.2h2.4l0.3-0.1l1.7,1c-0.1,0.1-0.2,0.2-0.4,0.2
		c-0.2,0.3-0.5,0.7-0.9,1.1h3.5v4L222.9,30.8L222.9,30.8z M214.4,28.4v0.8h2.1v-0.8H214.4z M217.2,26.8c0.2-0.2,0.3-0.4,0.5-0.6
		h-2.5c-0.2,0.2-0.4,0.4-0.6,0.6H217.2L217.2,26.8z M217.4,35.2c-0.6,0.4-1.3,0.8-2,1.1c0.3,0,0.5,0,0.7,0c0.4,0,0.7,0,0.9-0.2
		C217.3,35.9,217.4,35.6,217.4,35.2L217.4,35.2z M221,29.2v-0.8h-2.3v0.8H221z M220.1,30.8c0.2,0.5,0.4,1,0.6,1.4
		c0.8-0.4,1.6-1,2.1-1.4H220.1z"/>
	<path class="st1" d="M231.8,30.4c1.3,0.3,2.3,1.3,2.3,2.9c0,2-1.6,3.5-4.4,3.5c-1.3,0-2.4-0.3-3-0.7l0.6-2c0.4,0.3,1.4,0.6,2.2,0.6
		c1.2,0,1.9-0.7,1.9-1.6c0-1.2-1-1.7-2.2-1.7h-0.8v-1.9h0.7c0.9,0,1.9-0.4,1.9-1.4c0-0.7-0.5-1.2-1.5-1.2c-0.8,0-1.5,0.3-1.9,0.6
		l-0.5-1.9c0.6-0.4,1.9-0.8,3.1-0.8c2.3,0,3.5,1.3,3.5,2.9C233.8,29,233,29.9,231.8,30.4L231.8,30.4z"/>
	<path class="st1" d="M236.8,25.1h7.4v1.7l-4.2,10h-2.8l4.2-9.4v0h-4.7V25.1z"/>
	<path class="st1" d="M251.9,31.6l0.4,1.9c-1.8,0.7-3.8,1.4-5.1,1.9c0,0.1-0.1,0.3-0.3,0.3l-1-2.3c0.6-0.2,1.3-0.3,2-0.6v-5.6h-1.5
		v-2.1h5.3v2.1h-1.5v4.9L251.9,31.6L251.9,31.6z M260.2,35.1h-2c0.9,0.5,2.2,1.3,2.9,1.8l-1.8,1.3c-0.6-0.6-1.9-1.5-2.9-2.1l1.5-1.1
		h-3.4l1.5,1.1c0,0-0.1,0.1-0.3,0.1c-0.8,0.7-2.4,1.5-3.8,1.9c-0.3-0.4-0.9-1.1-1.4-1.5c1.1-0.3,2.5-1,3.3-1.6h-1.3v-8.2h2.3L255,26
		h-3v-1.8h8.8V26h-3.4c-0.1,0.3-0.2,0.5-0.3,0.8h3V35.1z M254.6,28.4v0.7h3.4v-0.7H254.6z M254.6,30.6v0.7h3.4v-0.7H254.6z
		 M254.6,32.8v0.7h3.4v-0.7H254.6z"/>
	<path class="st1" d="M270.8,35.9h5.7v1.9h-13.6v-1.9h5.6v-0.7H265V34c-0.2,0.3-0.4,0.5-0.6,0.7c-0.4-0.4-1.2-0.9-1.7-1.2
		c0.8-0.8,1.6-2.2,2.2-3.5h-0.4v-5.9H275V30h-3.7c0,0.1-0.2,0.2-0.5,0.3V31h4.7v1.8h-4.7v0.7h3.6v1.7h-3.6L270.8,35.9L270.8,35.9z
		 M265.8,32.8c-0.1,0.2-0.3,0.5-0.4,0.7h3.1v-0.7H265.8L265.8,32.8z M268.5,30h-2.1l1,0.3c-0.1,0.1-0.2,0.2-0.4,0.2
		c-0.1,0.1-0.1,0.3-0.2,0.5h1.7L268.5,30L268.5,30z M266.7,25.8v0.5h6v-0.5H266.7z M266.7,27.8v0.5h6v-0.5H266.7z"/>
	<path class="st1" d="M292,28.4l1.3,0.6c0,0.1-0.1,0.2-0.2,0.3c-0.4,2.2-1.2,4.2-2.2,5.7c0.7,0.6,1.5,1.1,2.5,1.4
		c-0.4,0.4-1.1,1.2-1.3,1.8c-1-0.4-1.8-0.9-2.4-1.6c-0.6,0.6-1.2,1.1-2,1.5c-0.3-0.5-1-1.2-1.4-1.6c-0.3,0.6-0.6,1.2-0.9,1.7
		c-0.3-0.3-1.2-1-1.6-1.3c0.3-0.3,0.5-0.8,0.7-1.2l-1,0.4c-0.1-0.6-0.3-1.3-0.6-2.1v4.2h-1.9v-4.7h0c-0.1,1.2-0.4,2.7-0.8,3.6
		c-0.4-0.3-1.1-0.6-1.5-0.8c0.4-0.8,0.6-2.3,0.6-3.6l1.8,0.4v-1c-0.6,0-1.1,0.1-1.6,0.1c0,0.2-0.2,0.2-0.3,0.2l-0.4-2.2h1.1
		c0.2-0.3,0.4-0.5,0.6-0.8c-0.4-0.7-1.1-1.4-1.7-2l1-1.5l0.3,0.2c0.4-0.8,0.8-1.8,1-2.6l2.1,0.9c-0.1,0.1-0.2,0.2-0.5,0.2
		c-0.3,0.8-1,2-1.5,2.8c0.1,0.1,0.2,0.3,0.3,0.4c0.5-0.8,0.9-1.6,1.3-2.3l1.8,0.8v-1.8h5.2l0.5,0l1,0.2c0,0.1,0,0.3-0.1,0.4
		c-0.1,0.9-0.4,2.2-0.6,3.4h1.1L292,28.4z M282.8,30.3c-0.1-0.3-0.3-0.6-0.4-0.9c-0.2,0.3-0.5,0.6-0.7,0.9L282.8,30.3L282.8,30.3z
		 M282.8,33.2l1.4-0.5c0.2,0.5,0.4,1.1,0.6,1.7c0.6-2.1,0.8-4.9,0.8-8h-1c-0.1,0.1-0.2,0.1-0.4,0.1c-0.5,0.8-1.1,1.7-1.7,2.6
		l1.4-0.6c0.6,1,1.2,2.4,1.3,3.3l-1.7,0.7c0-0.2-0.1-0.4-0.1-0.7l-0.5,0L282.8,33.2L282.8,33.2z M288.2,35c-0.4-0.6-0.8-1.3-1-2.1
		c-0.2,1.3-0.5,2.5-0.9,3.6C287,36,287.7,35.5,288.2,35L288.2,35z M287.7,26.5c0,0.4,0,0.8,0,1.2c0.1,0.9,0.3,1.7,0.5,2.4
		c0.2-1.2,0.5-2.4,0.7-3.6H287.7z M288.3,30.6c0.3,1,0.7,1.9,1.2,2.7c0.5-0.8,0.9-1.8,1.2-2.9h-0.7l-0.1,0.4L288.3,30.6L288.3,30.6z
		"/>
	<path class="st1" d="M303.3,34.4v1.5h5.5v2h-13.1v-2h5.3v-1.5h-4v-1.9h4V31h-3.2v-1.3c-0.5,0.3-1.1,0.7-1.7,1
		c-0.3-0.5-0.9-1.4-1.4-1.8c2.6-1.3,5.1-3.6,6.2-5.5l2.9,0.2c-0.1,0.2-0.2,0.3-0.5,0.3c1.5,2,4,3.8,6.3,4.7c-0.6,0.6-1.1,1.3-1.5,2
		c-0.5-0.3-1.1-0.6-1.6-0.9V31h-3.3v1.4h4.1v1.9H303.3z M305.6,29.1c-1.4-1.1-2.7-2.3-3.5-3.4c-0.8,1.1-2,2.3-3.4,3.4H305.6
		L305.6,29.1z"/>
	<path class="st1" d="M319.8,30v-0.7c-0.2,0.3-0.5,0.5-0.7,0.7c-0.1-0.3-0.3-0.7-0.5-1.1c0,0.1-0.1,0.2-0.3,0.2v8.7h-1.6v-0.5H313
		V38h-1.5v-9.2l1.9,0.1c0,0.1-0.1,0.2-0.4,0.3v1.4c0.3-0.5,0.5-1.2,0.5-1.8l1.3,0.1c0,0.1-0.1,0.2-0.3,0.2c0,0.2-0.1,0.5-0.1,0.7
		c0.1,0.1,0.3,0.3,0.4,0.5c0.3-0.5,0.4-1,0.4-1.5l1.3,0.1c0,0.1-0.1,0.2-0.3,0.2c0,0.2-0.1,0.5-0.1,0.7c0.2,0.2,0.4,0.5,0.6,0.6
		v-1.6l1.9,0.1c-0.1-0.1-0.2-0.3-0.3-0.4h-7.2v-1.7h0.8v-2.4l2.1,0.1c0,0.1-0.1,0.2-0.4,0.3v2h0.6v-3.3l2.2,0.1
		c0,0.2-0.1,0.2-0.4,0.3v0.7h2.2v1.6H316v0.6h2.6v0.9c1-1.2,2-2.9,2.4-4.2l2.3,0.1c0,0.1-0.1,0.2-0.3,0.3c0.7,1.3,1.9,3.1,2.9,4
		c-0.4,0.5-0.9,1.4-1.2,2c-0.2-0.2-0.5-0.5-0.7-0.7V30L319.8,30L319.8,30z M313,31.5h0.4c-0.1-0.1-0.3-0.3-0.4-0.5V31.5z
		 M314.8,33.2c0,0.1-0.1,0.2-0.3,0.2c0,0.2-0.1,0.5-0.1,0.7c0.1,0.2,0.3,0.3,0.4,0.5c0.2-0.5,0.4-1,0.4-1.5l1.3,0.1
		c0,0.1-0.1,0.2-0.3,0.2c0,0.2-0.1,0.4-0.1,0.7c0.2,0.2,0.4,0.4,0.6,0.6V33h-3.7v1.9c0.3-0.5,0.5-1.2,0.5-1.8L314.8,33.2L314.8,33.2
		z M313.4,35.8c-0.1-0.1-0.2-0.3-0.4-0.4v0.4H313.4z M315,35.8c-0.1-0.1-0.2-0.2-0.3-0.3l-0.3,0.3c-0.1-0.2-0.3-0.4-0.5-0.6
		c-0.1,0.2-0.3,0.5-0.5,0.7H315z M315,31.5c-0.1-0.1-0.2-0.3-0.3-0.4l-0.3,0.3c-0.1-0.1-0.2-0.3-0.4-0.5c-0.1,0.2-0.3,0.5-0.5,0.6
		L315,31.5L315,31.5z M316.2,31.5c-0.1-0.2-0.3-0.5-0.5-0.7c-0.1,0.2-0.3,0.5-0.6,0.7H316.2L316.2,31.5z M316.3,35.8
		c-0.1-0.2-0.3-0.5-0.6-0.7c-0.1,0.2-0.3,0.5-0.6,0.7H316.3z M316.7,31.5V31l-0.4,0.5H316.7z M316.3,35.8h0.4v-0.5L316.3,35.8z
		 M325.1,30.9v4c0,1.7-0.6,2-2.7,2c0-0.4-0.2-1-0.3-1.5v2.7h-2v-5.4h-1.4v-1.9H325.1z M323.3,28.3c-0.6-0.8-1-1.7-1.4-2.4
		c-0.3,0.7-0.8,1.6-1.3,2.4H323.3z M322.1,32.8V35c0.3,0,0.7,0,0.8,0c0.1,0,0.2,0,0.2-0.2v-2.1H322.1z"/>
	<path class="st1" d="M334.1,24.8c-0.1,0.1-0.2,0.2-0.5,0.2c-0.9,2.1-2.4,4.4-4,5.8c-0.5-0.5-1.4-1.2-2-1.6c1.5-1.2,2.9-3.3,3.6-5.3
		L334.1,24.8z M335.9,30c-0.1,0.2-0.3,0.3-0.6,0.3c-0.6,1.6-1.5,3.4-2.4,4.9c1.5,0,3-0.1,4.6-0.2c-0.5-0.8-1.1-1.7-1.6-2.4l2.2-1
		c1.3,1.7,2.7,3.9,3.4,5.4l-2.3,1.2c-0.1-0.3-0.3-0.7-0.5-1.2c-3.4,0.2-6.9,0.5-9.3,0.6c0,0.2-0.2,0.3-0.3,0.3l-0.9-2.6l2.2,0
		c1-1.8,2-4.1,2.5-6L335.9,30L335.9,30z M337.9,24c0.8,1.7,2.5,3.7,3.9,5c-0.6,0.5-1.5,1.4-1.9,2c-1.5-1.6-3.1-3.9-4.2-6L337.9,24
		L337.9,24z"/>
	<path class="st1" d="M349.7,26.2v1.7h-6.1v-1.7H349.7z M356.2,30.1l1.4,0.5c0,0.1-0.1,0.2-0.2,0.3c-0.4,1.7-1.2,3-2.1,4.2
		c0.9,0.5,1.9,0.9,2.9,1.1c-0.5,0.5-1.1,1.3-1.4,1.9c-1.2-0.4-2.3-0.9-3.2-1.6c-1,0.7-2.1,1.2-3.4,1.6c-0.2-0.5-0.7-1.4-1.1-1.9v1.1
		h-3v0.5h-1.9v-5.3h4.9v3.6c1-0.2,2-0.6,2.8-1.1c-0.6-0.7-1.1-1.4-1.5-2.3l1.9-0.6h-2.4v-2h0.6c-0.4-0.4-1-0.9-1.4-1.2v1h-4.8v-1.6
		h4.8v0.6c1.2-0.9,1.4-2.1,1.4-3v-1.8h5.4v3.3c0,0.5,0,0.5,0.1,0.5h0.2c0.1,0,0.2-0.2,0.2-1.5c0.4,0.3,1.2,0.6,1.8,0.8
		c-0.2,2-0.7,2.5-1.8,2.5h-0.8c-1.4,0-1.8-0.6-1.8-2.3V26h-1.2c0,1.4-0.3,3.1-1.6,4.2h4.9L356.2,30.1L356.2,30.1z M349.1,30.4v1.7
		h-4.8v-1.7H349.1z M349.1,24v1.6h-4.8V24H349.1z M347.2,35.6v-1.3h-1.1v1.3H347.2z M352.3,32.2c0.3,0.6,0.7,1.1,1.2,1.6
		c0.5-0.5,0.8-1,1.1-1.6H352.3L352.3,32.2z"/>
</g>
</svg>
