<svg width="563" height="96" viewBox="0 0 563 96" fill="none" xmlns="http://www.w3.org/2000/svg">
<g clip-path="url(#clip0_2004_320)">
<path d="M22.11 4.3001C21.85 4.7701 21.27 5.0901 20.43 4.9801C17.18 12.2101 12.15 19.8601 6.86 24.7301C5.24 23.1601 1.99 20.5901 0 19.3301C5.03 15.3001 9.85 7.9601 12.36 1.1001L22.1 4.3001H22.11ZM28.19 22.0601C27.93 22.6401 27.25 22.9501 26.25 23.0601C24.26 28.4001 21.17 34.5301 18.13 39.7201C23.11 39.5601 28.45 39.3501 33.74 39.1401C31.96 36.2601 30.07 33.3801 28.29 30.9201L35.73 27.5101C40.23 33.2701 44.95 40.7601 47.41 45.9501L39.45 50.1401C38.98 48.9401 38.35 47.6301 37.62 46.1601C25.89 47.0001 14 47.6801 5.88 48.0501C5.72 48.6301 5.2 48.9401 4.73 48.9401L1.69 40.1401L9.39 39.9801C12.8 33.9001 16.15 25.8901 18.09 19.3401L28.2 22.0601H28.19ZM34.83 1.2601C37.66 7.0201 43.32 13.8301 48.08 18.2801C46.04 19.8501 43.1 22.8901 41.64 24.9801C36.66 19.4801 30.95 11.5701 27.13 4.3401L34.83 1.2501V1.2601Z" fill="#FFFF00"/>
<path d="M75.43 8.80002V14.72H54.42V8.80002H75.43ZM97.69 22.42L102.51 24.25C102.41 24.67 102.14 24.88 101.88 25.19C100.36 30.9 97.9 35.56 94.55 39.39C97.48 41.07 100.89 42.38 104.61 43.27C102.93 44.79 100.73 47.88 99.69 49.82C95.55 48.56 91.88 46.78 88.69 44.48C85.39 46.73 81.57 48.51 77.22 49.82C76.49 47.99 74.81 45.11 73.45 43.43V47.25H63.18V49.08H56.79V30.91H73.45V43.06C76.96 42.22 80.16 40.96 82.93 39.29C80.89 36.99 79.16 34.42 77.64 31.54L84.19 29.44H76.12V22.63H78.27C77.07 21.32 74.92 19.54 73.5 18.65V21.95H57V16.29H73.5V18.18C77.74 15.14 78.16 11.16 78.16 7.76002V1.52002H96.49V12.68C96.49 14.25 96.54 14.41 96.96 14.41H97.54C98.06 14.41 98.27 13.73 98.38 9.43002C99.69 10.53 102.62 11.63 104.51 12.1C103.88 18.86 102.15 20.8 98.33 20.8H95.55C90.78 20.8 89.37 18.86 89.37 12.79V8.23002H85.34C85.29 13.1 84.29 18.92 79.68 22.64H96.39L97.7 22.43L97.69 22.42ZM73.49 23.52V29.18H56.99V23.52H73.49ZM73.44 1.62002V7.28002H57.15V1.62002H73.44ZM66.94 41.27V36.82H63.17V41.27H66.94ZM84.38 29.43C85.43 31.37 86.84 33.2 88.52 34.83C90.04 33.26 91.3 31.43 92.34 29.43H84.38Z" fill="#FFFF00"/>
<path d="M145.52 23.8302H139.65C139.02 29.7502 137.82 34.6702 135.93 38.7102C140.12 42.2702 145.1 42.2702 150.75 42.2702C153.89 42.2702 158.35 42.2202 160.39 42.1702C159.5 43.7402 158.5 46.8302 158.24 48.7202H147.55C141.42 48.7202 136.39 47.7202 132.46 44.3702C130.68 46.5702 128.53 48.4002 125.96 49.9202C125.07 48.3002 123.45 45.9402 122.14 44.6802C124.6 43.4202 126.59 41.5402 128.22 39.0802C126.86 36.5702 125.65 33.5302 124.71 29.7002L130.31 27.9702C130.62 29.3802 131.04 30.6902 131.46 31.8502C132.14 29.6502 132.61 27.2402 132.98 24.6702H131.2L130.62 26.2902L124.7 25.0302L125.28 29.0602L121.88 30.2102V42.1002C121.88 47.6002 120.47 49.9102 112.35 49.9102C112.14 47.9702 111.35 44.8802 110.46 42.8402C111.35 42.8902 112.29 42.9402 113.03 42.9402C114.76 42.9402 114.97 42.9402 114.97 42.0502V32.4602L112.3 33.3002C112.2 33.8802 111.72 34.2402 111.25 34.3502L109.52 26.1302C111.04 25.8202 112.92 25.4002 114.97 24.9302V16.9202H110.31V9.95016H114.97V0.160156L123.35 0.530156C123.3 1.11016 122.93 1.47016 121.88 1.63016V9.95016H124.71V16.9202H121.88V23.3102L124.39 22.6802L124.55 23.8302C126.28 19.3802 128.16 14.0902 129.63 9.69016H125.18V2.99016H133.25L134.61 2.83016L138.38 3.98016C138.28 4.35016 138.12 4.82016 137.96 5.13016C136.81 8.74016 135.08 13.8802 133.25 19.0102H135.35L136.5 18.9102L138.7 19.2802V17.1802H145.51V10.5302C143.78 10.9502 142.05 11.2602 140.38 11.5802C140.07 10.0102 139.07 7.55016 138.18 6.03016C143.84 4.88016 149.81 2.89016 153.48 0.580156L159.29 6.03016C159.03 6.34016 158.5 6.34016 157.88 6.34016C156.62 7.02016 155.16 7.60016 153.58 8.17016L154.05 8.22016C154 8.74016 153.58 9.11016 152.58 9.27016V17.1802H159.23V23.8302H152.58V32.1602H158.5V38.7102H140.06V32.1602H145.51V23.8302H145.52Z" fill="#FFFF00"/>
<path d="M179.1 42.5405C179.1 46.5705 175.8 49.8704 171.77 49.8704C167.74 49.8704 164.44 46.5705 164.44 42.5405C164.44 38.5105 167.74 35.2104 171.77 35.2104C175.8 35.2104 179.1 38.6105 179.1 42.5405ZM176.48 42.5405C176.48 39.9205 174.38 37.8305 171.77 37.8305C169.16 37.8305 167.06 39.9305 167.06 42.5405C167.06 45.1505 169.16 47.2505 171.77 47.2505C174.38 47.2505 176.48 45.0505 176.48 42.5405Z" fill="#FFFF00"/>
<path d="M196.96 49.8201V26.5601H217.76V49.6101H210.16V48.2001H204.14V49.8201H196.96ZM210.16 33.8401H204.14V40.9101H210.16V33.8401ZM233.94 1.83008V23.0001H205.71V1.83008H233.94ZM226.13 15.7601V9.11008H213.03V15.7601H226.13ZM221.47 26.5501H242.79V49.3901H235.14V48.1301H228.75V49.6001H221.47V26.5601V26.5501ZM228.75 40.8501H235.14V33.8301H228.75V40.8501Z" fill="#FFFF00"/>
<path d="M259.35 19.9603C259.35 22.6803 259.35 23.5703 259.3 25.0403H268.99V47.9803H262.65V31.3803H259.04C258.62 37.7703 257.73 44.6303 255.95 49.8203C254.48 49.1403 251.6 48.1403 249.87 47.7203C252.7 40.1203 253.12 28.0803 253.12 20.9503V1.68029L260.77 2.10029C260.72 2.62029 260.3 2.94029 259.36 3.10029V13.5703H262.14V0.160293L269.84 0.580293C269.79 1.10029 269.42 1.42029 268.43 1.58029V13.5703H271.63V19.9603H259.37H259.35ZM300.1 34.5703V40.8603H292.82V49.8703H285.7V40.8603H270.61V34.5703H276.42C275.27 33.3703 273.28 31.6403 272.02 30.8503C275.58 29.5403 277.89 27.8103 279.46 25.9303H273.02V5.81029H279.83C280.62 3.92029 281.4 1.72029 281.82 0.050293L290.67 2.20029C290.46 2.67029 289.99 2.88029 289.15 2.88029C288.68 3.77029 288.05 4.82029 287.42 5.81029H298.42V25.9303H287L286.42 27.0303L294.33 27.4503C294.28 28.0303 293.86 28.3403 292.81 28.5003V34.5803H300.09L300.1 34.5703ZM285.69 28.2303C284.07 30.6903 281.55 32.8903 277.78 34.5703H285.69V28.2303ZM279.67 11.4203V13.2503H282.29V11.4203H279.67ZM279.67 20.3203H282.03C282.13 19.6903 282.19 19.0603 282.24 18.4303H279.67V20.3203ZM291.46 20.3203V18.4303H288.63L288.47 20.3203H291.46ZM291.46 13.2503V11.4203H288.63V13.2503H291.46Z" fill="#FFFF00"/>
<path d="M341.44 23.8302H335.57C334.94 29.7502 333.74 34.6702 331.85 38.7102C336.04 42.2702 341.02 42.2702 346.67 42.2702C349.81 42.2702 354.27 42.2202 356.31 42.1702C355.42 43.7402 354.42 46.8302 354.16 48.7202H343.47C337.34 48.7202 332.31 47.7202 328.38 44.3702C326.6 46.5702 324.45 48.4002 321.88 49.9202C320.99 48.3002 319.37 45.9402 318.06 44.6802C320.52 43.4202 322.51 41.5402 324.14 39.0802C322.78 36.5702 321.57 33.5302 320.63 29.7002L326.24 27.9702C326.55 29.3802 326.97 30.6902 327.39 31.8502C328.07 29.6502 328.54 27.2402 328.91 24.6702H327.13L326.55 26.2902L320.63 25.0302L321.21 29.0602L317.81 30.2102V42.1002C317.81 47.6002 316.4 49.9102 308.28 49.9102C308.07 47.9702 307.28 44.8802 306.39 42.8402C307.28 42.8902 308.22 42.9402 308.96 42.9402C310.69 42.9402 310.9 42.9402 310.9 42.0502V32.4602L308.23 33.3002C308.12 33.8802 307.65 34.2402 307.18 34.3502L305.45 26.1302C306.97 25.8202 308.85 25.4002 310.9 24.9302V16.9202H306.24V9.95016H310.9V0.160156L319.28 0.530156C319.23 1.11016 318.86 1.47016 317.81 1.63016V9.95016H320.64V16.9202H317.81V23.3102L320.32 22.6802L320.48 23.8302C322.21 19.3802 324.09 14.0902 325.56 9.69016H321.11V2.99016H329.18L330.54 2.83016L334.31 3.98016C334.2 4.35016 334.05 4.82016 333.89 5.13016C332.74 8.74016 331.01 13.8802 329.18 19.0102H331.28L332.43 18.9102L334.63 19.2802V17.1802H341.44V10.5302C339.71 10.9502 337.98 11.2602 336.31 11.5802C336 10.0102 335 7.55016 334.11 6.03016C339.77 4.88016 345.74 2.89016 349.41 0.580156L355.22 6.03016C354.96 6.34016 354.43 6.34016 353.81 6.34016C352.55 7.02016 351.09 7.60016 349.51 8.17016L349.98 8.22016C349.93 8.74016 349.51 9.11016 348.51 9.27016V17.1802H355.16V23.8302H348.51V32.1602H354.43V38.7102H335.99V32.1602H341.44V23.8302Z" fill="#FFFF00"/>
<path d="M375.01 42.5405C375.01 46.5705 371.71 49.8704 367.68 49.8704C363.65 49.8704 360.35 46.5705 360.35 42.5405C360.35 38.5105 363.65 35.2104 367.68 35.2104C371.71 35.2104 375.01 38.6105 375.01 42.5405ZM372.39 42.5405C372.39 39.9205 370.29 37.8305 367.68 37.8305C365.07 37.8305 362.97 39.9305 362.97 42.5405C362.97 45.1505 365.07 47.2505 367.68 47.2505C370.29 47.2505 372.39 45.0505 372.39 42.5405Z" fill="#FFFF00"/>
<path d="M392.67 24.4102C391.31 26.3002 389.89 27.9702 388.48 29.5402C387.75 27.6002 385.86 23.5702 384.76 21.7302C389.37 17.0202 394.14 8.4202 396.97 0.200195L405.51 3.1902C405.3 3.6602 404.72 3.9202 403.89 3.8702C402.58 7.0702 401.06 10.2602 399.44 13.4002L401.8 14.0302C401.64 14.5502 401.17 14.9702 400.23 15.0802V49.8702H392.69V24.4102H392.67ZM435.26 11.2602V18.8002H429.76V41.2202C429.76 48.1902 427.66 50.0202 414.99 50.0202C414.68 47.8702 413.47 44.4702 412.37 42.3702C414.57 42.5302 416.98 42.5802 418.66 42.5802C421.65 42.5802 422.06 42.5802 422.06 41.1702V18.8102H402.73V11.2702H422.06V0.680195L431.33 1.1002C431.28 1.6802 430.91 2.1002 429.76 2.2502V11.2602H435.26ZM410.85 37.2402C409.91 33.9402 407.08 28.7502 404.56 24.8802L411.21 21.6802C413.83 25.3502 416.87 30.2202 418.07 33.6202L410.84 37.2302L410.85 37.2402Z" fill="#FFFF00"/>
<path d="M466.11 33.1602H456.73V43.0102C456.73 47.6702 455.79 49.9202 448.03 49.9202C447.82 47.9802 446.98 45.2602 446.2 43.4202C445.68 44.5202 445.15 45.5702 444.58 46.4102C443.22 45.5202 440.81 44.4202 439.24 43.8402C441.02 41.4302 442.12 37.3402 442.64 33.6302L449.66 35.2502C449.45 35.7202 449.03 35.9302 448.46 35.8802C447.99 38.3402 447.26 41.0702 446.21 43.3702C447.31 43.4202 448.62 43.4202 449.04 43.4202C449.51 43.4202 449.67 43.2602 449.67 42.7902V33.1502H439.93V26.9702H466.12V33.1502L466.11 33.1602ZM449.61 12.1002V10.4802H440.34V4.35023H449.61V0.160234L458.25 0.630234C458.2 1.21023 457.78 1.52023 456.73 1.68023V4.35023H465.84V10.4802H456.73V12.1002H464.17V18.1802H442.01V12.1002H449.61ZM480.36 16.4502V21.0102C480.36 26.7702 482.51 37.1402 490.37 43.1702C489.06 44.8502 486.91 47.9902 485.81 49.8802C480.47 45.9502 477.48 37.6702 476.75 33.0702H476.7C475.91 37.7802 472.35 45.7502 466.38 49.8802C465.59 48.2002 463.45 44.9002 462.19 43.4902C463.34 42.6502 464.44 41.7602 465.39 40.8202L459.78 43.1202C459.47 41.1802 458.42 38.0402 457.37 35.6802L462.98 33.5302C464.08 35.6802 465.29 38.5602 465.65 40.5002C471.41 34.3702 472.98 25.9902 472.98 21.0102V17.7102C471.83 21.1702 470.47 24.2602 468.79 26.7202C467.64 25.5702 465.44 23.7902 463.71 22.6302V25.5602H442.7V19.4802H463.71V21.0002C466.59 16.0202 468.27 7.90023 469.05 -0.00976562L477.8 1.67023C477.64 2.19023 477.17 2.51023 476.39 2.51023C476.02 4.87023 475.66 7.22023 475.13 9.58023H485.71L489.74 9.68023C489.74 9.89023 488.95 19.1602 487.17 26.0202L481.2 24.2902C481.51 22.1902 481.83 19.3702 482.09 16.4302H480.36V16.4502Z" fill="#FFFF00"/>
<path d="M530.02 23.8302H524.15C523.52 29.7502 522.32 34.6702 520.43 38.7102C524.62 42.2702 529.6 42.2702 535.25 42.2702C538.39 42.2702 542.85 42.2202 544.89 42.1702C544 43.7402 543 46.8302 542.74 48.7202H532.05C525.92 48.7202 520.89 47.7202 516.96 44.3702C515.18 46.5702 513.03 48.4002 510.46 49.9202C509.57 48.3002 507.95 45.9402 506.64 44.6802C509.1 43.4202 511.09 41.5402 512.72 39.0802C511.36 36.5702 510.15 33.5302 509.21 29.7002L514.81 27.9702C515.12 29.3802 515.54 30.6902 515.96 31.8502C516.64 29.6502 517.11 27.2402 517.48 24.6702H515.7L515.12 26.2902L509.2 25.0302L509.78 29.0602L506.38 30.2102V42.1002C506.38 47.6002 504.97 49.9102 496.85 49.9102C496.64 47.9702 495.85 44.8802 494.96 42.8402C495.85 42.8902 496.79 42.9402 497.53 42.9402C499.26 42.9402 499.47 42.9402 499.47 42.0502V32.4602L496.8 33.3002C496.7 33.8802 496.22 34.2402 495.75 34.3502L494.02 26.1302C495.54 25.8202 497.42 25.4002 499.47 24.9302V16.9202H494.81V9.95016H499.47V0.160156L507.85 0.530156C507.8 1.11016 507.43 1.47016 506.38 1.63016V9.95016H509.21V16.9202H506.38V23.3102L508.89 22.6802L509.05 23.8302C510.78 19.3802 512.66 14.0902 514.13 9.69016H509.68V2.99016H517.75L519.11 2.83016L522.88 3.98016C522.78 4.35016 522.62 4.82016 522.46 5.13016C521.31 8.74016 519.58 13.8802 517.75 19.0102H519.85L521 18.9102L523.2 19.2802V17.1802H530.01V10.5302C528.28 10.9502 526.55 11.2602 524.88 11.5802C524.57 10.0102 523.57 7.55016 522.68 6.03016C528.34 4.88016 534.31 2.89016 537.98 0.580156L543.79 6.03016C543.53 6.34016 543 6.34016 542.38 6.34016C541.12 7.02016 539.66 7.60016 538.08 8.17016L538.55 8.22016C538.5 8.74016 538.08 9.11016 537.08 9.27016V17.1802H543.73V23.8302H537.08V32.1602H543V38.7102H524.56V32.1602H530.01V23.8302H530.02Z" fill="#FFFF00"/>
<path d="M562.55 42.5405C562.55 46.5705 559.25 49.8704 555.22 49.8704C551.19 49.8704 547.89 46.5705 547.89 42.5405C547.89 38.5105 551.19 35.2104 555.22 35.2104C559.25 35.2104 562.55 38.6105 562.55 42.5405ZM559.93 42.5405C559.93 39.9205 557.83 37.8305 555.22 37.8305C552.61 37.8305 550.51 39.9305 550.51 42.5405C550.51 45.1505 552.61 47.2505 555.22 47.2505C557.83 47.2505 559.93 45.0505 559.93 42.5405Z" fill="#FFFF00"/>
<path d="M15.48 92.1099H10.72V85.6199H0.130005V82.2899L9.68001 65.8599H15.48V81.7299H18.5V85.6199H15.48V92.1099ZM4.71 81.7299H10.72V75.1999C10.72 73.6699 10.82 72.0099 10.93 70.4399H10.79C9.99 72.1099 9.37 73.5699 8.57 75.0599L4.72 81.6599V81.7299H4.71Z" fill="white"/>
<path d="M29.92 92.1099V70.4399H29.85L25.33 72.7999L24.22 69.1199L30.61 65.8599H34.92V92.1199H29.92V92.1099Z" fill="white"/>
<path d="M59.37 92.1099H54.61V85.6199H44.02V82.2899L53.57 65.8599H59.37V81.7299H62.39V85.6199H59.37V92.1099ZM48.6 81.7299H54.61V75.1999C54.61 73.6699 54.71 72.0099 54.82 70.4399H54.68C53.88 72.1099 53.26 73.5699 52.46 75.0599L48.61 81.6599V81.7299H48.6Z" fill="white"/>
<path d="M67.07 65.8501H83.43V69.0501L73.5 92.1101H68.22L78.19 70.1601V70.0901H67.08V65.8501H67.07Z" fill="white"/>
<path d="M120.93 79.1499V83.0699H112.32V95.2899H108.15V83.0699H100.23L100.75 86.1999C96.93 87.6899 92.87 89.1899 90.19 90.0899C90.16 90.4399 89.91 90.6799 89.63 90.7499L87.82 86.1299C89.07 85.8199 90.6 85.3999 92.3 84.9099V74.7999H88.58V70.8799H92.3V62.8599L97.23 63.1399C97.2 63.4899 96.95 63.6999 96.33 63.7999V70.8799H99.84V74.7999H96.33V83.6899L99.39 82.7499V79.1399H108.14V67.9899H100.5V64.0999H120.05V67.9899H112.31V79.1399H120.92L120.93 79.1499ZM103.15 78.4899C102.94 76.2999 102 72.8999 100.93 70.3599L104.4 69.3199C105.58 71.8599 106.59 75.1199 106.87 77.3399L103.15 78.4899ZM120.51 70.7099C120.37 70.9499 120.06 71.0599 119.54 71.0599C118.85 73.3899 117.63 76.5499 116.62 78.5999C116.59 78.5699 113.56 77.3499 113.56 77.3499C114.46 75.1299 115.47 71.6499 115.99 69.1499L120.5 70.7099H120.51Z" fill="white"/>
<path d="M137.63 72.5198H134.3L138.09 73.8398C137.99 74.1898 137.6 74.2898 137.15 74.2598C136.42 75.7198 135.55 77.2098 134.61 78.6698L136.03 78.9498C135.96 79.2598 135.68 79.5098 135.09 79.5798V95.2398H130.99V83.5398C129.88 84.8298 128.73 85.9698 127.59 86.9798C126.9 86.1798 125.44 84.7898 124.53 84.0998C127.97 81.4598 131.44 76.7398 133.39 72.2198L133.49 72.2498V69.9898H125.78V65.9998H133.49V62.5598L138.56 62.7998C138.52 63.1498 138.25 63.3598 137.62 63.4898V65.9898H145.02V62.5498L150.09 62.7898C150.06 63.1698 149.81 63.3498 149.19 63.4798V65.9798H156.83V69.9698H149.19V72.5698H145.02V69.9698H137.62V72.5098L137.63 72.5198ZM145.62 89.2198C145.62 90.7798 145.86 90.9898 147.39 90.9898H151.97C153.43 90.9898 153.67 90.1598 153.88 85.8198C154.82 86.5098 156.55 87.2098 157.67 87.4898C157.18 93.1498 156.07 94.8498 152.36 94.8498H146.87C142.63 94.8498 141.49 93.5598 141.49 89.2198V73.0398L146.56 73.3198C146.53 73.6298 146.25 73.8798 145.62 73.9798V80.3698C148.5 78.9798 151.32 77.3098 153.26 75.8198L156.59 79.1498C156.45 79.2898 156.1 79.3898 155.72 79.3198C153.12 80.9498 149.26 82.7198 145.61 84.1498V89.2198H145.62Z" fill="white"/>
<path d="M163.15 63.8701H193.05V95.3001H188.99V94.0501H167.08V95.3001H163.16V63.8701H163.15ZM167.07 90.3001H188.98V67.6201H167.07V90.3001ZM185.51 81.4801L188.36 83.3901C188.22 83.5601 187.94 83.6701 187.49 83.6001C186.73 84.1201 185.51 84.8501 184.43 85.4801C185.72 86.1101 187.14 86.5901 188.56 86.9401C187.83 87.5301 186.89 88.7501 186.41 89.5401C183.84 88.7401 181.34 87.3201 179.33 85.5801V89.5401H175.68V85.9601C173.77 87.0701 171.65 88.0401 169.6 88.7401C169.15 88.0801 168.14 86.8601 167.55 86.2401C170.36 85.4101 173.35 84.0901 175.64 82.4501H170.57V76.6901H185.26V81.6901L185.5 81.4801H185.51ZM187.73 73.2501V75.6101H168.25V73.2501H176.06V71.9301H170.05V69.6401H176.06V68.0401L180.75 68.3201C180.72 68.6001 180.47 68.8101 179.85 68.9101V69.6401H185.96V71.9301H179.85V73.2501H187.73ZM174.05 78.7001V80.4001H181.62V78.7001H174.05ZM180.41 82.4501L180.2 82.6601C180.69 83.1801 181.31 83.6701 181.97 84.1201C182.73 83.6301 183.57 83.0101 184.33 82.4501H180.41Z" fill="white"/>
<path d="M217.01 65.33H229.86V72.62H225.87V68.87H203.89V72.62H200.14V65.33H212.82V62.52L217.92 62.76C217.89 63.14 217.64 63.32 217.02 63.45V65.33H217.01ZM228.57 82.56V91.66C228.57 94.96 227.15 95.27 222.28 95.27C222.14 94.3 221.66 92.98 221.2 92.08C222.38 92.11 223.67 92.11 224.05 92.11C224.47 92.08 224.57 91.97 224.57 91.62V85.99H220.92C222.1 87.48 223.35 89.36 223.91 90.68L221.1 92.1C220.96 91.68 220.72 91.2 220.44 90.68C215.93 91.06 211.45 91.34 208.29 91.55C208.25 91.86 208.05 92.04 207.77 92.07L206.17 88.08C207.94 88.08 210.23 88.05 212.8 88.01V86H205.47V95.31H201.51V82.56H212.8V81.1H205.26V70.2H224.47V81.1H216.66V82.56H228.57ZM209.09 73.01V74.33H212.81V73.01H209.09ZM209.09 78.32H212.81V76.97H209.09V78.32ZM220.48 74.33V73.01H216.66V74.33H220.48ZM220.48 78.32V76.97H216.66V78.32H220.48ZM216.66 87.91L218.74 87.88C218.46 87.53 218.22 87.19 217.98 86.87L219.82 86H216.66V87.91Z" fill="white"/>
<path d="M250.72 82.6599H241.17C240.96 86.9299 240.2 91.9299 238.04 95.3399C237.38 94.6499 235.64 93.3299 234.74 92.8399C237.07 89.0899 237.28 83.6399 237.28 79.5699V70.6799H250.72V82.6599ZM251.62 64.1799V67.9299H235.68V64.1799H251.62ZM246.69 74.3899H241.24V78.9399H246.69V74.3899ZM268.4 74.4199V78.4099H265.07V95.3199H260.94V78.4099H256.84C256.56 83.7899 255.28 90.5699 250.59 95.1799C250.03 94.3099 248.47 92.8899 247.5 92.3699C252.36 87.4699 252.85 80.6699 252.85 75.4899V65.9399L255.32 66.5299C258.72 65.5599 262.2 64.2399 264.38 62.9199L268.24 66.1799C268.03 66.3899 267.68 66.3899 267.27 66.3899C264.6 67.6399 260.67 68.8899 256.92 69.8599V74.4099H268.42L268.4 74.4199Z" fill="white"/>
<path d="M287.74 64.5298H289.34V94.7398H287.74V64.5298Z" fill="white"/>
<path d="M333.47 64.8501H340.9V68.3601H333.47V69.6801H329.41V68.3601H321.11V69.6801H317.05V68.3601H309.86V64.8501H317.05V62.5601L322.02 62.8001C321.99 63.1501 321.74 63.3601 321.12 63.4601V64.8501H329.42V62.5601L334.42 62.8001C334.39 63.1501 334.11 63.3601 333.48 63.4601V64.8501H333.47ZM339.37 82.3901V91.5901C339.37 94.7501 338.15 95.3101 333.64 95.3101C333.5 94.5101 333.19 93.5001 332.84 92.6401L330.89 93.1601C330.82 92.6701 330.72 92.1201 330.54 91.5301C325.96 91.9101 321.34 92.1901 318.25 92.3601C318.18 92.7101 317.94 92.8801 317.66 92.9201L316.37 88.8201C318.21 88.7901 320.61 88.7501 323.25 88.6801V85.8301H315.54V95.3501H311.58V82.4001H323.25V81.2201H314.29V70.1401H336.69V81.2201H327.21V82.4001H339.37V82.3901ZM318.22 72.8401V74.4001H323.26V72.8401H318.22ZM318.22 78.5001H323.26V76.9401H318.22V78.5001ZM332.63 74.4001V72.8401H327.21V74.4001H332.63ZM332.63 78.5001V76.9401H327.21V78.5001H332.63ZM329.43 88.4701C329.15 87.8801 328.87 87.2901 328.6 86.7701L331.66 86.0101C332.77 87.8901 333.81 90.2801 334.16 92.0201C335.27 92.0201 335.31 91.9501 335.31 91.5301V85.8301H327.22V88.5401L329.44 88.4701H329.43Z" fill="white"/>
<path d="M378.57 79.1499V83.0699H369.96V95.2899H365.79V83.0699H357.87L358.39 86.1999C354.57 87.6899 350.51 89.1899 347.83 90.0899C347.8 90.4399 347.55 90.6799 347.27 90.7499L345.46 86.1299C346.71 85.8199 348.24 85.3999 349.94 84.9099V74.7999H346.22V70.8799H349.94V62.8599L354.87 63.1399C354.84 63.4899 354.59 63.6999 353.97 63.7999V70.8799H357.48V74.7999H353.97V83.6899L357.03 82.7499V79.1399H365.78V67.9899H358.14V64.0999H377.69V67.9899H369.95V79.1399H378.56L378.57 79.1499ZM360.79 78.4899C360.58 76.2999 359.64 72.8999 358.57 70.3599L362.04 69.3199C363.22 71.8599 364.23 75.1199 364.51 77.3399L360.79 78.4899ZM378.15 70.7099C378.01 70.9499 377.7 71.0599 377.18 71.0599C376.49 73.3899 375.27 76.5499 374.26 78.5999C374.23 78.5699 371.2 77.3499 371.2 77.3499C372.1 75.1299 373.11 71.6499 373.63 69.1499L378.14 70.7099H378.15Z" fill="white"/>
<path d="M384.78 72.1401C386.69 72.8701 389.19 74.1201 390.41 75.2001L387.98 78.5701C386.83 77.4901 384.44 76.0701 382.49 75.2001L384.78 72.1401ZM383.08 92.7701C384.4 90.0601 386.24 85.6201 387.63 81.5201L391 83.7101C389.82 87.3901 388.36 91.2801 387.18 93.9501C387.39 94.1901 387.49 94.4401 387.49 94.6801C387.49 94.8501 387.42 94.9901 387.35 95.1301L383.08 92.7701ZM386.17 62.8301C388.08 63.6301 390.55 65.0201 391.73 66.0901L389.26 69.4201C388.15 68.3101 385.75 66.7801 383.84 65.8801L386.17 62.8201V62.8301ZM414.37 63.7301V91.1701C414.37 94.7501 412.91 95.5101 408.22 95.5101C408.08 94.4701 407.49 92.6601 406.93 91.6901C407.69 91.7201 408.46 91.7601 409.05 91.7601C410.4 91.7601 410.54 91.7601 410.54 91.1001V84.0501H407.07C406.58 88.1801 405.37 92.4201 402.66 95.3701C402 94.7401 400.44 93.6701 399.53 93.2501C400.33 92.3801 400.95 91.4801 401.47 90.4701H395.25V92.9701H391.71V78.4901H395.04V73.1101H390.66V69.3201H395.04V62.5801L399.66 62.8601C399.63 63.1701 399.38 63.3501 398.79 63.4801V69.3101H402.78V73.1001H398.79V78.4801H402.19V88.9001C403.61 85.3201 403.75 81.2201 403.75 77.7201V63.7201H414.34L414.37 63.7301ZM398.6 86.8901V82.1001H395.27V86.8901H398.6ZM407.42 77.7201C407.42 78.5501 407.42 79.4201 407.39 80.3201H410.55V75.6701H407.42V77.7201ZM410.55 67.4101H407.42V71.9601H410.55V67.4101Z" fill="white"/>
<path d="M431.97 89.9601C431.83 90.1301 431.59 90.2401 431.31 90.2401C431.24 90.2401 431.14 90.2401 431.03 90.2101C428.74 91.8401 425.27 93.6501 422.28 94.7901C421.59 94.0301 420.3 92.7101 419.47 92.0501C422.39 91.1501 425.76 89.5801 427.7 88.0601L431.97 89.9701V89.9601ZM437.84 75.5501H451.66V78.8101H419.92V75.5501H433.57V73.7801H424.26V63.6401H447.25V73.7801H437.49V73.8101L438.77 73.8401C438.74 74.1901 438.46 74.4001 437.83 74.5001V75.5401L437.84 75.5501ZM446.83 87.9801H437.9V91.7301C437.9 94.8901 436.55 95.2401 430.47 95.2401C430.26 94.2301 429.78 92.9501 429.29 92.0501C430.16 92.0801 431.13 92.1201 431.93 92.1201C433.42 92.1201 433.74 92.1201 433.74 91.5601V87.9801H424.88V79.9601H446.83V87.9801ZM428.25 66.2101V67.4901H443.05V66.2101H428.25ZM428.25 69.8901V71.2101H443.05V69.8901H428.25ZM428.88 82.8401V85.1001H442.63V82.8401H428.88ZM448.19 94.8201C446.31 93.4701 442.46 91.4901 439.47 90.2701L442.25 88.0801C445.1 89.1601 449.06 90.9601 451.18 92.3501L448.19 94.8201Z" fill="white"/>
<path d="M473.12 92.1099H456.69V88.9499L459.61 85.8199C464.58 80.6799 467.49 77.3099 467.49 73.7699C467.49 71.4799 466.27 69.5699 463.39 69.5699C461.48 69.5699 459.71 70.5799 458.49 71.4799L457.07 67.7999C458.7 66.5499 461.41 65.4399 464.43 65.4399C470.06 65.4399 472.63 69.0199 472.63 73.2899C472.63 77.9399 469.47 81.7599 465.65 85.6199L463.46 87.7699V87.8399H473.11V92.1099H473.12Z" fill="white"/>
<path d="M478.32 79.7402H487.84V83.2802H478.32V79.7402Z" fill="white"/>
<path d="M503.29 77.9699C506.21 78.6299 508.64 80.9899 508.64 84.5699C508.64 88.9499 505.13 92.4899 499.02 92.4899C496.24 92.4899 493.74 91.7599 492.42 90.8899L493.57 86.9999C494.54 87.6299 496.66 88.4199 498.67 88.4199C501.83 88.4199 503.39 86.4799 503.39 84.3199C503.39 81.3699 500.82 79.9799 498.01 79.9799H496.24V76.3699H497.91C499.96 76.3699 502.6 75.2199 502.6 72.6899C502.6 70.8499 501.38 69.4899 498.95 69.4899C497.14 69.4899 495.37 70.2899 494.37 70.9099L493.29 67.2299C494.64 66.3299 497.32 65.4199 500.13 65.4199C505.17 65.4199 507.8 68.3699 507.8 71.8399C507.8 74.5499 506.17 76.8099 503.29 77.8799V77.9499V77.9699Z" fill="white"/>
<path d="M546.21 83.0799H531.9C531.8 83.7399 531.69 84.3999 531.55 85.0199H539.61L540.48 84.9499L542.84 85.2999C542.81 85.6499 542.77 86.0299 542.67 86.3799C541.94 95.4399 541.32 95.4399 533.92 95.3099C533.85 94.2299 533.43 92.7699 532.84 91.8399C534.3 91.9799 535.72 92.0099 536.35 92.0099C536.87 92.0099 537.22 91.9399 537.5 91.6599C537.88 91.3099 538.16 90.3399 538.4 88.2199H530.55C529.26 91.2099 526.8 93.6699 521.56 95.2999C521.18 94.3299 520.14 92.7999 519.3 92.0399C525.76 90.3399 527.18 87.2799 527.77 83.0799H521.8C521.28 87.2799 520.06 91.7299 517.28 94.9199C516.52 94.1899 514.71 93.0399 513.7 92.5899C517.62 88.2099 518.01 81.8599 518.01 77.1999V69.3899H543.12V77.7599H534.89C534.75 77.9699 534.47 78.1099 534.02 78.1799V79.9199H546.21V83.0799ZM546 64.1499V67.8699H514.85V64.1499H546ZM529.89 77.7599H522.11C522.11 78.4499 522.07 79.1799 522.04 79.9099H529.89V77.7599ZM539.02 72.4499H522.11V74.6399H539.02V72.4499Z" fill="white"/>
</g>
<defs>
<clipPath id="clip0_2004_320">
<rect width="562.55" height="95.51" fill="white"/>
</clipPath>
</defs>
</svg>
