<svg width="1093" height="71" viewBox="0 0 1093 71" fill="none" xmlns="http://www.w3.org/2000/svg">
<g filter="url(#filter0_d_70_2449)">
<path d="M13.0565 31.2099C11.0015 29.3199 6.36652 26.8599 2.81152 25.4949C4.23652 23.3199 5.67652 21.1449 7.04152 18.9699C10.5365 20.1099 15.2315 22.2249 17.5715 24.0099L13.0565 31.2249V31.2099ZM56.8265 40.3149H46.7615C49.7315 43.9149 53.7365 47.2449 57.8615 49.2999C55.9115 50.8449 53.2865 53.9349 51.9665 56.1099C48.3065 53.5899 44.8715 49.8699 42.0665 45.6399V57.3099H33.8765V45.9249C30.6215 50.2149 26.5565 53.8149 21.8015 56.1699C20.6015 54.2799 18.2465 51.3699 16.5965 49.8249C21.6365 47.8299 26.0915 44.3949 29.3015 40.3299H19.9715V39.0099C17.4515 45.0699 14.6465 50.9049 12.1865 55.3749C12.5315 55.8399 12.6965 56.2299 12.6965 56.6349C12.6965 56.9799 12.5765 57.3249 12.3515 57.6099L4.16152 52.2249C6.84652 47.7549 10.6865 40.6149 13.7165 33.6849L19.9565 38.4849V32.9349H33.8615V27.4449L42.6215 27.9099C39.8765 26.9949 39.2465 24.6999 39.2465 20.1849V13.2549L48.4565 13.7649C48.3965 14.3349 47.9465 14.7399 46.8515 14.9049V20.1099C46.8515 21.5949 46.9715 21.7149 47.8265 21.7149H49.5365C50.2865 21.7149 50.5115 21.3099 50.6765 19.2549C52.0565 20.2899 55.1465 21.4299 57.2015 21.8349C56.4065 26.9349 54.4565 28.3599 50.4515 28.3599H46.4465C45.4115 28.3599 44.4965 28.2999 43.7015 28.1949C43.5815 28.7049 43.1315 28.9899 42.0365 29.2299V32.9499H56.7965V40.3299L56.8265 40.3149ZM9.84652 3.69989C13.2215 5.07989 17.7965 7.47988 20.0315 9.47488L14.9465 16.1649C12.9365 14.1099 8.54152 11.4099 5.10652 9.75988L9.86152 3.69989H9.84652ZM38.4065 14.1099C38.3465 14.6199 37.8965 15.0249 36.9815 15.1449C36.1265 21.9549 34.4015 27.2799 22.9115 30.1299C22.2815 28.2999 20.4515 25.4949 18.9665 24.1149C28.1765 22.2849 29.0915 19.0749 29.5565 13.3599L38.4215 14.1099H38.4065ZM27.7715 12.4449V18.7449H20.6165V5.46988H56.0315V18.7449H48.5315V12.4449H27.7565H27.7715Z" fill="white"/>
<path d="M127.164 31.21V38.875H121.839V57.415H113.889V38.875H109.479C108.684 46.03 106.509 53.245 101.529 57.64C99.9235 56.5 96.4885 54.61 94.5535 53.755C99.0235 50.155 100.854 44.425 101.589 38.875H96.2635V34.36H88.9435C90.9985 36.31 95.9185 41.575 97.1335 42.88L92.7835 48.205C91.8685 46.66 90.4435 44.605 88.8985 42.535V57.415H81.2335V45.625C79.6285 48.775 77.8585 51.685 75.9085 53.815C75.2185 51.52 73.5685 48.265 72.3535 46.255C75.1585 43.225 77.9035 38.65 79.7335 34.36H72.9835V27.43H81.2185V25.48H74.4685V18.55H81.2185V16.66H73.4335V9.73005H81.2185V3.04004L90.5485 3.55003C90.4885 4.12003 90.0385 4.52505 88.8835 4.69005V9.73005H96.3835V16.66H88.8835V18.55H95.1235V25.48H88.8835V27.43H96.4435V31.21H102.054V21.595H97.4785V13.93H102.054V3.17503L111.489 3.68503C111.429 4.31503 110.979 4.66003 109.824 4.88503V13.93H113.889V3.05503L123.504 3.56505C123.444 4.19505 122.994 4.54003 121.839 4.76503V13.915H126.594V21.58H121.839V31.195H127.164V31.21ZM109.824 31.21H113.889V21.595H109.824V31.21Z" fill="white"/>
<path d="M167.692 11.1851C168.442 12.8951 169.177 14.8452 169.867 16.7952V3.17515L179.017 3.64014C178.957 4.27014 178.507 4.67515 177.352 4.84015V27.7302C177.352 39.1152 175.057 51.1302 164.872 57.8352C163.792 56.2302 161.212 53.2601 159.547 51.8801C164.977 49.1951 167.557 44.8452 168.757 39.8652C167.332 41.2452 165.952 42.4452 164.872 43.4202C164.932 44.0502 164.647 44.5601 164.182 44.8001L160.582 37.5402L159.547 38.9651C159.037 37.6451 158.287 35.9952 157.432 34.2102V57.5051H149.932V38.8001C148.672 42.2351 147.307 45.2652 145.702 47.6052C145.012 45.3702 143.302 42.1751 142.147 40.2251C145.297 35.8751 147.982 28.6602 149.362 22.3752H143.587V14.7102H149.932V3.14514L159.082 3.65516C159.022 4.22516 158.572 4.57015 157.417 4.79515V14.6952H161.992L161.587 13.6152L167.647 11.2151L167.692 11.1851ZM162.202 35.2752C162.427 35.2752 168.382 31.2101 169.867 30.1751V24.6851L165.397 26.5151C164.992 23.5901 163.732 19.3602 162.427 15.7002V22.3302H157.447V24.2201C158.932 26.1701 162.832 31.7802 163.747 33.0852L162.202 35.2601V35.2752ZM198.082 14.5002C197.797 15.0102 197.107 15.1901 196.312 15.1301C195.112 18.3851 192.817 22.9751 191.167 25.8851L187.447 23.9351V28.5702L188.827 27.3702C191.797 30.5802 195.922 35.0352 197.812 37.9002L192.382 43.0002C191.347 41.1702 189.457 38.6502 187.462 36.1902V46.4351C187.462 49.2401 187.522 49.5852 188.257 49.5852H189.802C190.597 49.5852 190.837 48.1002 190.942 43.1202C192.712 44.4402 195.577 45.8052 197.812 46.3302C197.017 53.9352 195.127 56.9802 190.552 56.9802H186.667C181.237 56.9802 179.692 54.6401 179.692 46.3901V3.19016L189.127 3.70016C189.067 4.33016 188.617 4.67516 187.462 4.90016V18.3401C188.377 15.7601 189.232 12.9551 189.802 10.6751L198.097 14.5151L198.082 14.5002Z" fill="white"/>
<path d="M214.745 5.12488H264.47V57.5349H256.34V55.6449H222.53V57.5349H214.745V5.12488ZM222.53 48.2049H256.34V38.0199C256.055 38.3049 255.485 38.4249 254.855 38.3049C253.82 38.9349 252.275 39.8499 250.79 40.7049C252.5 41.3949 254.345 41.9649 256.175 42.3699C254.795 43.5699 252.92 45.9699 252.005 47.5149C248.45 46.4349 245.135 44.5899 242.27 42.3699V47.1699H235.01V42.6549C232.325 44.0799 229.46 45.3399 226.655 46.3149C225.8 44.9949 223.85 42.5949 222.65 41.3949C226.82 40.1949 231.23 38.3649 234.725 36.0699H227.405V26.6799H251.09V34.2399L256.355 37.8999V12.5499H222.545V48.2049H222.53ZM254.855 20.9649V25.4349H223.955V20.9649H235.625V19.5849H226.64V15.2349H235.625V12.9399L244.775 13.4499C244.715 14.0199 244.265 14.3649 243.11 14.5899V15.2199H252.155V19.5699H243.11V20.9499H254.84L254.855 20.9649ZM243.875 32.2449V30.4749H234.2V32.2449H243.875ZM244.28 36.0849L243.71 36.5949C244.34 37.1649 245.09 37.6899 245.825 38.1399C246.74 37.5099 247.775 36.8199 248.69 36.0849H244.28Z" fill="white"/>
<path d="M310.821 52.0449H283.071V45.7449L288.111 40.3149C295.611 32.4699 300.126 27.3849 300.126 22.1199C300.126 18.8049 298.131 16.0599 293.946 16.0599C291.021 16.0599 288.171 17.5449 286.161 18.9849L283.536 11.6649C286.221 9.71488 290.976 7.94489 295.956 7.94489C305.736 7.94489 310.146 13.9599 310.146 21.2199C310.146 28.4799 305.106 34.7799 299.796 40.0449L296.136 43.5399V43.6599H310.836V52.0749L310.821 52.0449Z" fill="white"/>
<path d="M355.179 8.55994V16.855H340.869L340.074 23.7249C340.764 23.6649 341.394 23.605 342.069 23.605C348.819 23.605 356.664 27.325 356.664 37.285C356.664 45.5199 350.319 52.6749 339.444 52.6749C335.094 52.6749 331.089 51.6399 328.974 50.5599L330.744 42.9549C332.574 43.8099 335.559 44.785 338.754 44.785C342.819 44.785 346.539 42.385 346.539 38.035C346.539 33.175 342.654 30.775 335.724 30.775C333.954 30.775 332.574 30.8349 331.209 31.0599L333.729 8.57495H355.179V8.55994Z" fill="white"/>
<path d="M427.685 37.7349V45.8049H408.695V57.4749H400.115V45.8049H374.6V37.7349H383.465V24.3399C382.49 25.5399 381.47 26.6799 380.435 27.6549C378.89 26.0499 375.74 23.2449 373.745 21.8799C378.665 17.6499 383.18 10.0899 385.535 2.88989L395.495 5.97991C395.27 6.48991 394.64 6.83491 393.785 6.72991C393.5 7.52491 393.155 8.27491 392.81 9.06991H424.28V17.1399H408.71V22.9149H422.96V30.6399H408.71V37.7349H427.7H427.685ZM400.1 17.1399H388.535C387.335 19.1949 386.015 21.1449 384.59 22.9149H400.1V17.1399ZM391.805 37.7349H400.1V30.6399H391.805V37.7349Z" fill="white"/>
<path d="M470.615 5.46985H520.34V57.6549H512.105V55.4199H478.46V57.6549H470.615V5.46985ZM478.46 47.9799H512.105V12.9099H507.755C509.075 13.7049 510.335 14.6199 511.01 15.4899L508.955 17.6049H510.845V23.3199H501.635C501.8 25.2699 501.98 27.0998 502.205 28.8098C502.775 27.3848 503.285 25.8399 503.69 24.2949L510.95 26.0649C510.83 26.5299 510.32 26.8149 509.525 26.8149C508.265 30.8199 506.495 34.5999 504.26 37.8549C504.71 38.9349 505.295 39.6248 505.865 39.8048H505.925C506.375 39.8048 506.78 37.5099 507.005 34.9449C508.265 36.1449 510.665 38.1549 511.985 38.9499C511.295 44.6199 509.015 47.1848 506.09 47.1848C504.605 47.1848 501.62 46.3298 499.685 43.3448C498.02 44.9498 496.19 46.3748 494.255 47.5148C493.46 46.3148 491.675 44.1999 490.475 42.9999C487.265 43.5099 484.295 43.9748 482.12 44.2598C482 44.7698 481.61 45.0549 481.205 45.1749L479.255 38.5899C483.26 38.3049 489.035 37.7949 494.825 37.2099L494.885 39.4449C495.68 38.6949 496.37 37.9599 497.12 37.1499C496.04 33.3099 495.41 28.5098 495.005 23.3048H479.96V17.5899H494.615C494.495 16.2099 494.45 14.8449 494.39 13.4199L502.865 13.7648C502.805 14.3348 502.295 14.8599 501.26 14.9649C501.26 15.8199 501.32 16.7349 501.32 17.5899H505.49C504.515 16.8399 503.435 16.0448 502.46 15.4748L505.085 12.8948H478.475V47.9649L478.46 47.9799ZM493.97 25.1499V35.9649H481.1V25.1499H493.97ZM488.54 31.7949V29.3349H486.245V31.7949H488.54Z" fill="white"/>
<path d="M574.552 25.0899C575.182 27.0399 575.977 28.9299 576.892 30.7599C579.352 29.0499 581.872 27.0399 583.642 25.3299L590.857 31.9149C590.572 32.1399 590.107 32.2599 589.537 32.2599C589.312 32.2599 589.072 32.2599 588.847 32.1999C586.897 33.5799 583.747 35.5149 580.957 37.0599C584.107 40.8399 588.052 43.8699 592.972 45.8199C591.082 47.4849 588.562 50.7999 587.302 53.0799C576.997 48.0999 571.222 38.8899 567.562 26.8149C566.242 27.6699 564.816 28.5249 563.271 29.3349C570.366 34.3749 573.111 40.7799 573.111 46.1649C573.111 53.4249 568.132 57.6699 562.012 57.6699C560.632 57.6699 559.147 57.6099 557.662 57.5499C557.542 55.4349 557.031 52.4499 555.771 50.1099C551.646 52.2849 547.357 54.2349 543.472 55.5999C542.497 53.5449 540.727 50.5599 539.062 48.7299C547.012 46.8399 556.402 42.4899 562.057 38.0799L561.547 37.4499C556.747 40.4199 550.327 43.4649 545.242 45.2349C544.327 43.4049 542.617 40.5999 541.117 38.9949C546.202 37.8549 552.562 35.5599 556.912 33.1599L556.117 32.5899C552.517 34.0149 548.676 35.1699 544.896 36.0849C544.101 34.4799 542.212 31.3899 541.057 29.9049C546.547 28.8699 552.276 27.2799 557.076 25.1049H550.387V18.1299H580.027V25.1049H574.537L574.552 25.0899ZM548.977 15.7599V21.9999H540.847V8.25987H560.871V3.05487L571.177 3.62488C571.117 4.25488 570.667 4.65988 569.467 4.82488V8.25987H590.002V21.9999H581.482V15.7599H548.977ZM564.712 44.6049C562.252 46.3749 559.386 48.1599 556.416 49.7499C557.901 49.8699 559.161 49.9149 560.361 49.9149C561.561 49.9149 562.702 49.7499 563.392 48.8349C564.307 48.1449 564.877 46.5999 564.712 44.6049Z" fill="white"/>
<path d="M622.344 22L626.919 23.26C626.859 23.725 626.694 24.235 626.469 24.58C625.839 32.02 624.639 38.485 622.869 43.81C628.074 47.47 634.944 48.22 642.729 48.28C646.794 48.28 658.059 48.28 662.934 48.055C661.674 49.945 660.309 53.77 659.784 56.185H642.504C633.294 56.185 625.689 55.15 619.614 51.04C618.009 53.785 616.059 56.08 613.839 57.79C612.579 56.185 609.369 53.275 607.599 52.24C610.119 50.47 612.114 48.175 613.719 45.265C611.604 42.34 609.774 38.68 608.289 34.105L614.754 31.87C615.384 33.82 616.134 35.47 616.929 36.97C617.499 34.675 617.964 32.17 618.309 29.41H616.014L615.444 30.73L607.944 28.84C610.179 23.98 612.699 18.19 614.694 13.27H608.169V6.05499H619.149L620.694 5.88998L625.329 7.43498C625.149 7.83998 624.924 8.34999 624.699 8.75499C623.319 12.31 621.264 17.23 619.149 22.195H620.979L622.359 22.03L622.344 22ZM638.139 14.335V13.015H628.749V6.83499H638.139V2.995L647.859 3.50499C647.799 4.13499 647.349 4.53999 646.194 4.70499V6.82H657.234V14.32H662.049V20.62H657.234V28.12H646.194V29.44H658.149V35.335H646.194V36.715H660.729V43.18H646.194V47.305H638.124V43.18H625.194V36.715H638.124V35.335H627.714V29.44H638.124V28.12H628.569V21.94H638.124V20.62H624.384V14.32H638.124L638.139 14.335ZM649.074 13.015H646.209V14.335H649.074V13.015ZM649.074 21.94V20.62H646.209V21.94H649.074Z" fill="white"/>
<path d="M731.242 44.3799H714.427C719.122 46.6149 725.692 48.2649 732.277 48.9549C730.507 50.6649 728.152 53.9349 727.012 56.0499C720.427 54.6699 713.962 51.9849 708.982 48.2049V57.4149H700.912V48.0849C695.872 51.8049 689.347 54.6699 682.777 56.1549C681.637 54.1599 679.342 51.0549 677.677 49.4049C683.917 48.4899 690.262 46.7199 694.837 44.3649H678.697V37.9599H700.897V35.4399C700.207 34.6899 699.352 33.8949 698.602 33.2049C692.422 34.2849 686.422 35.2599 682.117 35.8299C682.057 36.3399 681.667 36.6249 681.202 36.7449L678.802 29.5899C681.142 29.4249 684.067 29.1849 687.277 28.8999V23.8599H680.527V18.2499H701.407V23.8599H694.777V28.2099L701.467 27.5199L701.527 29.0649C703.297 27.4599 703.522 25.6899 703.522 23.7399V18.0249H717.712C717.202 16.7649 716.107 14.9349 715.027 13.3299H712.222C711.082 14.7549 709.822 16.1349 708.562 17.2149C706.852 16.0149 703.762 14.5299 701.692 13.6149L702.037 13.3299H696.037C696.727 14.4099 697.297 15.5049 697.642 16.3599L691.012 18.2499C690.607 16.9299 689.632 14.9949 688.612 13.3299H688.207C686.887 14.9949 685.462 16.5849 684.022 17.8449C682.477 16.5249 679.612 14.6349 677.782 13.6749C681.097 11.0499 684.307 6.51989 686.077 2.51489L694.657 5.31991C694.372 5.82991 693.742 6.00991 693.112 5.94991L692.602 6.9249H704.107V11.4399C706.507 8.91991 708.622 5.60489 709.837 2.51489L718.597 5.09489C718.372 5.60489 717.802 5.8449 717.052 5.7849C716.887 6.1899 716.707 6.5349 716.482 6.9249H731.707V13.3299H723.127C723.877 14.3649 724.507 15.3849 724.897 16.2549L718.267 18.0249H725.077V27.2949C725.077 29.0049 725.077 29.1849 725.542 29.1849C726.292 29.1849 726.337 29.1849 726.517 29.0649C726.922 28.6599 727.027 26.6049 727.087 24.2049C728.227 25.2999 730.642 26.4999 732.352 27.0699C731.947 31.9899 731.662 35.7099 726.112 35.7099H723.187C721.582 35.7099 719.872 35.1999 718.837 34.1049C718.147 33.3549 717.697 32.4999 717.457 31.0149L714.307 33.8199C713.452 32.5599 711.847 30.8499 710.242 29.3499C709.732 31.0599 708.757 32.6049 707.317 34.0449L710.632 34.2099C710.572 34.8399 710.122 35.2449 708.967 35.4099V37.9299H731.227V44.3349L731.242 44.3799ZM717.277 23.3199H711.037C711.037 24.5799 711.037 24.8049 710.917 26.2899L713.542 24.0549C714.742 24.9099 716.122 26.0499 717.262 27.1449V23.3049L717.277 23.3199Z" fill="white"/>
<path d="M787.223 38.9948L793.748 41.7398C793.463 42.2498 792.773 42.4298 791.978 42.3698C790.838 44.3648 788.948 46.8398 787.343 48.8948H799.013V55.9898H750.608V48.8948H760.853C759.878 46.4348 758.228 43.2248 756.563 40.7648L760.793 38.9948H753.638V31.8998H770.003V27.3248H760.163V24.6998C757.583 26.5298 754.898 28.2548 752.093 29.7398C751.013 27.7898 748.718 24.6998 747.008 23.1098C756.788 18.3548 766.013 9.6698 770.123 2.7998L780.998 3.4298C780.833 4.0598 780.248 4.62982 779.333 4.68982C784.823 12.0698 794.378 18.8798 802.853 22.1948C800.798 24.3098 798.908 27.1748 797.363 29.6948C794.618 28.2698 791.813 26.4848 789.068 24.5498V27.3548H778.883V31.9298H795.413V39.0248H787.223V38.9948ZM770.003 38.9948H763.988C765.818 41.6198 767.708 44.7698 768.458 47.0648L764.288 48.8948H770.003V38.9948ZM783.338 20.1098C779.783 17.1398 776.693 13.9298 774.578 11.0048C772.463 13.9748 769.478 17.1248 766.058 20.1098H783.338ZM779.903 47.5148C781.568 45.2198 783.563 41.8448 784.823 38.9948H778.868V48.8948H782.753L779.888 47.5148H779.903Z" fill="white"/>
<path d="M830.031 26.1849H827.796C827.796 28.7049 827.046 34.6599 823.326 37.8549C821.946 36.8199 818.856 35.1699 817.086 34.4199C819.951 32.1249 820.461 28.1199 820.521 26.1849H817.431V19.8399H830.016V17.5449H819.831V4.77993L828.186 5.24493C828.126 5.81493 827.736 6.15993 826.701 6.32493V11.3049H830.016V3.11493L839.166 3.62492C839.106 4.19492 838.656 4.53992 837.501 4.76492V36.1149H830.001V26.1549L830.031 26.1849ZM870.891 46.3299H853.611C857.391 48.9549 863.346 49.9299 872.211 49.9299C870.501 51.6999 868.491 55.1349 867.576 57.5349C855.396 56.6799 848.916 53.9349 844.626 47.2899C841.596 52.3899 835.356 55.7049 821.001 57.5349C820.431 55.4199 818.601 52.2699 817.161 50.4999C826.086 49.7049 831.291 48.3849 834.381 46.3299H818.361V39.5799H838.611C838.896 37.9149 839.061 36.0249 839.181 33.8649L849.306 34.6599C849.186 35.2899 848.616 35.6949 847.641 35.8599L847.131 39.5799H856.521C854.856 39.0099 853.206 38.4849 851.721 38.0949L854.061 34.9449C853.656 33.1749 852.861 31.1649 852.171 29.6799C853.596 29.7399 855.606 29.7399 856.176 29.7399C856.746 29.7399 856.971 29.5749 856.971 28.9899V26.3649H848.676C850.101 27.8499 851.481 29.5149 852.231 30.8799L846.336 34.1949C845.586 32.4849 843.591 29.9049 841.761 28.0749L844.791 26.3649H838.791V20.7549H841.821C841.071 19.3299 839.991 17.7249 839.136 16.6299C841.656 16.4049 844.116 16.1199 846.396 15.6549C845.541 14.9649 844.566 14.2749 843.651 13.7049L847.716 12.0399C848.856 12.6699 850.236 13.5849 851.316 14.4399C851.886 14.3199 852.396 14.1549 852.921 13.9299C851.886 13.1349 850.521 12.2649 849.321 11.6349L851.616 10.4949H849.621C847.446 11.4699 845.046 12.3249 842.301 13.1199C841.446 11.7399 839.556 9.68493 838.176 8.82993C844.806 7.44993 849.501 5.51493 852.141 3.11493L859.296 4.49493C859.176 4.95993 858.726 5.24493 857.976 5.24493L857.226 5.87492H864.786L865.986 5.70992L870.501 7.59991C870.381 7.94491 870.096 8.16991 869.871 8.39491C867.471 12.3999 863.856 15.2049 859.401 17.3199L866.376 17.5449C866.256 18.1149 865.911 18.5799 864.831 18.6849V20.7399H871.806V26.3499H864.831V29.2749C864.831 33.7899 863.346 34.3749 861.111 35.1099C863.286 35.7999 865.341 36.5349 866.781 37.1649L865.071 39.5649H870.906V46.3149L870.891 46.3299ZM856.986 18.2949C854.241 19.3299 851.211 20.1249 847.941 20.7549H856.986V18.2949ZM854.811 10.5099C855.666 10.9749 856.521 11.5449 857.211 12.0549C858.126 11.5899 858.921 11.0799 859.671 10.5099H854.811Z" fill="white"/>
<path d="M889.326 45.9249H939.276V54.445H889.326V45.9249ZM892.536 8.55994H936.306V17.0799H892.536V8.55994ZM896.661 26.815H931.731V35.2899H896.661V26.815Z" fill="white"/>
<path d="M980.272 47.1849C980.272 49.5249 981.022 49.8099 985.942 49.8099H999.442C1003.57 49.8099 1004.2 48.8349 1004.71 42.5499C1006.48 43.7499 1009.85 44.8899 1011.97 45.2949C1010.83 54.6249 1008.47 56.9649 999.832 56.9649H985.522C975.337 56.9649 972.532 54.7899 972.532 47.2899V35.44H970.417C970.417 40.3 970.417 50.89 962.122 57.7C961.042 56.155 957.892 53.005 956.407 52.03C962.752 46.99 962.752 40.36 962.752 35.44H957.937V27.775H984.772V20.6799H996.502V15.1299L1000.67 15.2949V13.0599H967.492V16.4349H982.777V24.0399H962.122V18.4299H959.377V5.37994H1009.27V18.4299H1004.41V20.6649H1010.3V28.0449H1004.41V40.1199C1004.41 45.3249 1003.33 48.0099 993.472 48.0099C993.187 45.8349 992.092 42.685 991.072 40.69C992.842 40.81 994.957 40.8099 995.587 40.8099C996.277 40.8099 996.502 40.5849 996.502 39.9549V28.0599H984.997V31.3749L991.177 28.855C993.127 31.48 994.957 35.0349 995.752 37.4949L989.062 40.5849C988.432 38.1849 986.767 34.57 984.997 31.825V35.4249H980.242V47.155L980.272 47.1849Z" fill="white"/>
<path d="M1058.27 47.4699H1080.41V55.6599H1027.88V47.4699H1049.33V34.5999H1033.43V26.4099H1049.33V15.1899H1030.63V6.99988H1077.49V15.1899H1058.26V26.4099H1075.19V34.5999H1058.26V47.4699H1058.27Z" fill="white"/>
</g>
<defs>
<filter id="filter0_d_70_2449" x="0.636524" y="0.339893" width="1092.18" height="69.9003" filterUnits="userSpaceOnUse" color-interpolation-filters="sRGB">
<feFlood flood-opacity="0" result="BackgroundImageFix"/>
<feColorMatrix in="SourceAlpha" type="matrix" values="0 0 0 0 0 0 0 0 0 0 0 0 0 0 0 0 0 0 127 0" result="hardAlpha"/>
<feOffset dx="5.115" dy="5.115"/>
<feGaussianBlur stdDeviation="3.645"/>
<feColorMatrix type="matrix" values="0 0 0 0 0.101961 0 0 0 0 0.12549 0 0 0 0 0.219608 0 0 0 0.34 0"/>
<feBlend mode="normal" in2="BackgroundImageFix" result="effect1_dropShadow_70_2449"/>
<feBlend mode="normal" in="SourceGraphic" in2="effect1_dropShadow_70_2449" result="shape"/>
</filter>
</defs>
</svg>
