<?xml version="1.0" encoding="utf-8"?>
<!-- Generator: Adobe Illustrator 27.0.0, SVG Export Plug-In . SVG Version: 6.00 Build 0)  -->
<svg version="1.1" id="_圖層_2" xmlns="http://www.w3.org/2000/svg" xmlns:xlink="http://www.w3.org/1999/xlink" x="0px" y="0px"
	 viewBox="0 0 181.4 96.4" style="enable-background:new 0 0 181.4 96.4;" xml:space="preserve">
<style type="text/css">
	.st0{fill:#FFFFFF;}
</style>
<g id="_圖層_1-2">
	<g>
		<g>
			<path class="st0" d="M88.6,37.8l1.3,0.1c0,0.2,0,0.5,0,0.8c-0.2,7.3-0.5,10.1-1.1,10.9c-0.6,0.9-1.2,1.1-3,1.1
				c0-0.5-0.2-1.2-0.4-1.8c-0.3,0.6-0.5,1.3-0.9,1.8c-0.5-0.4-1.4-0.9-2.1-1.1c1.7-2.2,2.6-6.2,2.9-9.4h-0.2c-0.5,3-1.6,6.9-3.1,9
				c-0.5-0.4-1.4-0.8-2.1-1c1.6-1.8,2.6-5.2,3.2-8h-0.2c-0.4,1.2-0.8,2.4-1.3,3.2c-0.4-0.4-1.3-1-1.8-1.3c0.2-0.4,0.5-1,0.7-1.6h-1
				v2.9l1.4-0.2l0.2,2.1c-0.5,0.1-1.1,0.3-1.6,0.4v5h-2.4V46c-0.7,0.1-1.3,0.3-1.8,0.4c0,0.2-0.2,0.3-0.3,0.3l-0.8-2.6
				c0.8-0.1,1.8-0.3,2.9-0.4v-3.3h-0.7c-0.2,0.9-0.3,1.6-0.5,2.3c-0.4-0.3-1.2-0.8-1.7-1c0.4-1.4,0.5-3.8,0.5-5.9l2.4,0.5v-1.5
				L80,35c0,0.2-0.2,0.3-0.5,0.3v2.8h1.2v1.7c0.4-1.5,0.8-3.3,1-5.1l2.7,0.6c-0.1,0.2-0.2,0.2-0.5,0.2c-0.1,0.8-0.2,1.6-0.4,2.3h4.6
				H88.6L88.6,37.8z M77.1,36.3c-0.1,0.1-0.2,0.2-0.4,0.2c0,0.5-0.1,1-0.1,1.6h0.5V36.3L77.1,36.3z M87.3,40.1
				c-0.2,2.5-0.8,5.7-1.6,8.2c0.2,0,0.4,0,0.6,0c0.2,0,0.4-0.1,0.6-0.4c0.3-0.4,0.5-2.4,0.7-7.9C87.5,40.1,87.3,40.1,87.3,40.1z"/>
			<path class="st0" d="M92.3,39.4c1,0.3,2.4,1,3.1,1.6L94,43c-0.6-0.6-2-1.3-3-1.7L92.3,39.4L92.3,39.4z M91.5,49
				c0.8-1.3,2-3.3,3-5.3l1.9,1.5c-0.8,1.8-1.7,3.5-2.5,4.8c0.1,0.1,0.1,0.2,0.1,0.4s0,0.2-0.1,0.3L91.5,49L91.5,49z M93.3,34.8
				c1,0.4,2.4,1,3.1,1.6l-1.4,2c-0.6-0.6-1.9-1.3-3-1.8C92,36.6,93.3,34.8,93.3,34.8z M99.6,44.6c0,1.9-0.3,4.3-2.5,6.1
				c-0.3-0.5-1.2-1.2-1.7-1.6c1.9-1.4,2.1-3.2,2.1-4.6V43l2.6,0.1c0,0.2-0.1,0.3-0.5,0.3C99.6,43.5,99.6,44.6,99.6,44.6z M105,48
				c0,0.4,0,0.5,0.2,0.5c0.2,0,0.2,0,0.3-0.1c0.1-0.1,0.1-0.5,0.2-2c0.4,0.3,1.1,0.7,1.6,0.9c-0.1,1.7-0.1,3.1-1.8,3.1h-0.9
				c-0.4,0-0.9-0.1-1.2-0.5c-0.3-0.3-0.5-0.7-0.5-1.9v-5l2.2,0.1c-0.1-0.2-0.3-0.5-0.5-0.8c-2.8,0.2-5.5,0.4-7.3,0.5
				c0,0.2-0.2,0.2-0.3,0.3l-0.8-2.5c0.5,0,1.2,0,1.8,0c0.2-0.5,0.5-1.1,0.7-1.6h-2.5v-2.3h3.9v-1.9l3,0.2c0,0.2-0.1,0.3-0.5,0.4v1.3
				h4.3v2.2h-2.4c1,1,2,2.3,2.5,3.3l-1.8,1h0.3c0,0.2-0.2,0.3-0.5,0.3L105,48L105,48z M100.1,50v-6.8l2.6,0.1c0,0.2-0.2,0.3-0.5,0.3
				v6.3L100.1,50L100.1,50z M101.8,38.9c-0.1,0.1-0.3,0.2-0.5,0.2c-0.2,0.4-0.5,0.9-0.7,1.4l2.5-0.1c-0.2-0.2-0.4-0.5-0.6-0.7
				l1.7-0.9L101.8,38.9L101.8,38.9z"/>
		</g>
		<g>
			<path class="st0" d="M76.1,61.6v-5.9h3.2v1h-2v1.5h1.8v0.9h-1.9v2.5H76.1z"/>
			<path class="st0" d="M82.9,58.8c0.4,0.2,0.6,0.6,0.8,1.2c0.2,0.7,0.3,1.4,0.4,1.6h-1.2c-0.1-0.2-0.2-0.7-0.4-1.4
				c-0.1-0.8-0.4-1-0.9-1h-0.4v2.4h-1.1v-5.8c0.4-0.1,0.9-0.1,1.5-0.1c0.7,0,2.2,0.1,2.2,1.7C84,58,83.5,58.6,82.9,58.8L82.9,58.8
				L82.9,58.8z M81.8,58.3c0.6,0,1-0.4,1-0.9c0-0.8-0.6-0.9-1-0.9c-0.2,0-0.4,0-0.5,0v1.8H81.8L81.8,58.3z"/>
			<path class="st0" d="M88.2,61.6h-3.3v-5.9h3.2v1h-2v1.4H88V59h-1.9v1.6h2.2C88.2,60.6,88.2,61.6,88.2,61.6z"/>
			<path class="st0" d="M89.1,55.7h1.1v5.9h-1.1V55.7z"/>
			<path class="st0" d="M95.6,61.3c-0.3,0.1-1,0.3-1.7,0.3c-0.9,0-1.6-0.2-2.1-0.7s-0.7-1.3-0.7-2.2c0-2,1.3-3.1,3-3.1
				c0.6,0,1.1,0.1,1.4,0.2l-0.2,0.9c-0.3-0.1-0.6-0.2-1.1-0.2c-1,0-1.8,0.6-1.8,2.1s0.7,2,1.7,2c0.3,0,0.5,0,0.6-0.1v-1.4h-0.8v-0.9
				h1.9L95.6,61.3L95.6,61.3z"/>
			<path class="st0" d="M100.9,61.6h-1.1v-2.5h-2v2.5h-1.1v-5.9h1.1v2.4h2v-2.4h1.1V61.6z"/>
			<path class="st0" d="M105.6,56.7h-1.5v4.9H103v-4.9h-1.5v-1h4L105.6,56.7L105.6,56.7z"/>
		</g>
	</g>
</g>
<g>
	<path class="st0" d="M99.1,88.3c-0.4,0.1-0.8,0.2-1.2,0.4v3.6h-0.9V89l-1.6,0.5l-0.2-0.9c0.5-0.1,1.1-0.3,1.8-0.5V86h-0.8
		c-0.1,0.5-0.3,1-0.4,1.4c-0.2-0.1-0.5-0.3-0.7-0.4c0.3-0.8,0.5-2.1,0.6-3.3l0.8,0.1c0,0.4-0.1,0.9-0.2,1.3h0.6v-2h0.9v2h0.9V86
		h-0.9v1.8l1-0.3L99.1,88.3z M104.4,84.7c0,0,0,0.3,0,0.4c-0.2,4.5-0.4,6.1-0.8,6.6c-0.2,0.3-0.4,0.4-0.7,0.4c-0.3,0.1-0.7,0-1.1,0
		c0-0.3-0.1-0.6-0.3-0.9c0.4,0,0.8,0,1,0c0.2,0,0.3,0,0.4-0.2c0.3-0.3,0.5-1.7,0.7-5.5h-0.3c-0.5,2.6-1.6,5.2-3.2,6.5
		c-0.2-0.2-0.5-0.4-0.8-0.5c1.6-1.1,2.7-3.5,3.2-6h-0.7c-0.4,1.7-1.3,3.5-2.4,4.4c-0.2-0.2-0.5-0.4-0.7-0.5c1-0.8,1.8-2.4,2.3-3.9
		h-0.7c-0.3,0.7-0.7,1.3-1.1,1.8c-0.1-0.1-0.5-0.4-0.7-0.5c0.8-0.9,1.4-2.3,1.7-3.8l0.8,0.2c-0.1,0.5-0.3,1-0.4,1.4H104.4z"/>
	<path class="st0" d="M107.6,87.7c-0.4-0.4-1.2-0.8-1.8-1.1l0.5-0.7c0.6,0.2,1.4,0.7,1.9,1L107.6,87.7z M108.6,89
		c-0.5,1-1.2,2.2-1.8,3.2l-0.8-0.6c0.5-0.8,1.3-2,1.9-3.2L108.6,89z M108,85.1c-0.3-0.4-1.1-0.9-1.7-1.2l0.5-0.7
		c0.6,0.3,1.4,0.8,1.7,1.2L108,85.1z M109.5,87.8h0.8v1c0,1.1-0.2,2.4-1.4,3.4c-0.1-0.2-0.5-0.5-0.6-0.6c1.1-0.8,1.2-1.9,1.2-2.8
		V87.8z M114.2,87.8c-0.1-0.2-0.3-0.4-0.5-0.7c-3.9,0.3-4.4,0.3-4.7,0.4c0-0.2-0.2-0.6-0.3-0.9c0.2,0,0.5-0.3,0.7-0.6
		c0.1-0.2,0.4-0.5,0.7-0.9h-1.5v-0.8h2.1c0.2-0.4,0.5-0.8,0.7-1.2l0.9,0.4c-0.2,0.3-0.4,0.6-0.5,0.9h3v0.8h-3.6
		c-0.4,0.5-0.7,1-1.1,1.4l3-0.2c-0.2-0.3-0.4-0.5-0.6-0.8l0.7-0.4c0.6,0.7,1.3,1.6,1.7,2.1L114.2,87.8z M111.2,87.9h0.8v3.9h-0.8
		V87.9z M114.4,91.4c0.1,0,0.3,0,0.5-0.1c0,0.2,0,0.5,0.1,0.7c-0.1,0-0.3,0.1-0.5,0.1h-0.6c-0.8,0-0.9-0.3-0.9-1.1v-3.1h0.9V91
		c0,0.3,0,0.4,0.2,0.4H114.4z"/>
	<path class="st0" d="M124.9,84.9v4.8h-1v-0.5h-2.6v3.2h-1v-3.2h-2.6v0.6h-0.9v-4.8h3.5v-1.7h1v1.7H124.9z M120.4,88.2v-2.4h-2.6
		v2.4H120.4z M124,88.2v-2.4h-2.6v2.4H124z"/>
	<path class="st0" d="M128.6,86.8c-0.2,1.2-0.4,2.9-0.8,4l-0.9-0.4c0.4-1,0.7-2.5,0.8-3.8L128.6,86.8z M130.3,85.9v4.8
		c0,0.5,0.1,0.5,0.6,0.5h1.7c0.6,0,0.7-0.3,0.7-2c0.2,0.2,0.6,0.3,0.9,0.4c-0.1,1.9-0.4,2.4-1.5,2.4h-1.8c-1.2,0-1.5-0.3-1.5-1.4
		v-4.8H130.3z M130.4,83.4c0.9,0.6,2.1,1.5,2.7,2.1l-0.7,0.7c-0.5-0.6-1.7-1.6-2.7-2.2L130.4,83.4z M134.7,86.3
		c0.6,1.2,1.1,2.7,1.3,3.7l-0.9,0.4c-0.2-1-0.7-2.6-1.2-3.8L134.7,86.3z"/>
	<path class="st0" d="M137.2,87.6c0.2-0.7,0.4-1.8,0.5-2.6l0.7,0.1c-0.1,0.8-0.2,2-0.5,2.7L137.2,87.6z M140.1,86.3
		c-0.1-0.4-0.3-0.9-0.5-1.4v7.3h-0.9v-9.2h0.9v1.6l0.5-0.2c0.2,0.5,0.5,1.1,0.6,1.5L140.1,86.3z M145.9,91.3c0,0.4-0.1,0.7-0.4,0.8
		c-0.3,0.1-0.8,0.1-1.5,0.1c0-0.2-0.1-0.6-0.3-0.8c0.5,0,0.9,0,1.1,0c0.1,0,0.2,0,0.2-0.2v-0.6h-3.3c-0.1,0.6-0.3,1.2-0.7,1.6
		c-0.1-0.2-0.5-0.5-0.7-0.6c0.6-0.7,0.6-1.7,0.6-2.5v-1.8h4.9V91.3z M146.4,86.3V87h-6.1v-0.7h2.5v-0.6h-2v-0.6h2v-0.5h-2.3v-0.7
		h2.3v-0.7h0.9v0.7h2.3v0.7h-2.3v0.5h2v0.6h-2v0.6H146.4z M145,90.1v-0.6h-3.1c0,0.2,0,0.4,0,0.6H145z M141.8,88.2v0.6h3.1v-0.6
		H141.8z"/>
	<path class="st0" d="M151,89.9c-1,0.4-2.1,0.9-3,1.2l-0.3-0.9c0.3-0.1,0.8-0.2,1.2-0.4v-3.3h-1v-0.9h1v-2.3h0.9v2.3h0.9v0.9h-0.9v3
		l1-0.4L151,89.9z M155.7,91.4c0.1,0,0.2,0,0.3,0c0.1,0,0.1-0.1,0.1-0.2c0-0.1,0-0.4,0-0.8c0.2,0.2,0.5,0.3,0.7,0.4
		c0,0.4-0.1,0.8-0.1,0.9c-0.1,0.2-0.2,0.3-0.4,0.3c-0.2,0.1-0.4,0.1-0.6,0.1h-0.7c-0.2,0-0.5-0.1-0.7-0.2c-0.2-0.1-0.2-0.3-0.2-0.9
		v-1.4h-0.8c-0.2,1.4-0.7,2.2-2.5,2.6c-0.1-0.2-0.3-0.6-0.5-0.7c1.6-0.3,2-0.8,2.1-1.9h-0.9v-2.9h4.6v2.9H155v1.4
		c0,0.1,0,0.2,0.1,0.3c0.1,0,0.1,0,0.2,0H155.7z M156.7,86.4h-5.6v-0.8h1.3c-0.1-0.2-0.2-0.6-0.3-0.8l0.8-0.2c0.1,0.3,0.3,0.7,0.3,1
		l-0.2,0h1.4c0.1-0.3,0.3-0.7,0.4-1l0.8,0.2c-0.1,0.3-0.3,0.6-0.4,0.8h1.4V86.4z M156.4,84.6h-5v-0.8h2.1c-0.1-0.2-0.1-0.4-0.2-0.6
		l0.9-0.2c0.1,0.2,0.2,0.5,0.3,0.7h2V84.6z M152.4,88h2.9v-0.5h-2.9V88z M152.4,89.1h2.9v-0.6h-2.9V89.1z"/>
	<path class="st0" d="M161.1,88.3c-0.5,1.2-1.2,2.4-2,3.1c-0.2-0.2-0.6-0.5-0.9-0.6c0.8-0.7,1.4-1.7,1.8-2.8L161.1,88.3z
		 M163.3,87.1v5.1h-1v-5.1h-3.8v-0.9h8.8v0.9H163.3z M166.4,84.7h-7v-0.9h7V84.7z M165.7,88c0.7,0.9,1.5,2.2,1.8,3l-1,0.4
		c-0.2-0.8-1-2.1-1.7-3L165.7,88z"/>
	<path class="st0" d="M169,91.6c0.5-0.4,0.9-1.1,1.2-1.7l0.8,0.3c-0.3,0.6-0.7,1.4-1.2,1.8L169,91.6z M177.7,86.1h-8.5v-0.7h2.2
		c-0.1-0.2-0.2-0.5-0.3-0.7l0.7-0.1h-2.1v-0.7h3.4c-0.1-0.2-0.2-0.4-0.3-0.6l0.9-0.2c0.1,0.2,0.3,0.5,0.4,0.8h3.1v0.7h-2l0.7,0.1
		c-0.1,0.3-0.3,0.5-0.4,0.7h2.3V86.1z M176.6,89.5h-3.3c0.5,0.2,1,0.6,1.3,0.8l-0.6,0.6c-0.3-0.3-1-0.8-1.6-1.1l0.4-0.3h-2.5v-2.9
		h6.3V89.5z M175.6,87.2h-4.5v0.6h4.5V87.2z M175.6,88.3h-4.5v0.6h4.5V88.3z M174.4,91.4c0.4,0,0.5-0.1,0.5-0.9
		c0.2,0.1,0.6,0.2,0.8,0.3c-0.1,1.1-0.4,1.4-1.2,1.4h-1.8c-1.1,0-1.4-0.2-1.4-1V90h0.9v1.2c0,0.2,0.1,0.3,0.6,0.3H174.4z
		 M171.9,84.5c0.2,0.3,0.3,0.6,0.4,0.9h2.2c0.1-0.3,0.3-0.6,0.4-0.9H171.9z M176.5,89.8c0.5,0.5,1,1.2,1.3,1.7l-0.8,0.4
		c-0.2-0.5-0.7-1.2-1.2-1.8L176.5,89.8z"/>
</g>
</svg>
