<svg width="51" height="58" viewBox="0 0 51 58" fill="none" xmlns="http://www.w3.org/2000/svg">
<path d="M31.6898 57.9799C28.7898 58.0199 26.2898 56.8699 23.8198 55.5399C17.5998 52.1899 11.3498 48.8899 5.10983 45.5699C2.63983 44.2599 2.25982 41.6299 4.28982 39.6999C5.83982 38.2299 7.65982 37.8399 9.67982 38.5299C12.6898 39.5599 15.6898 40.6199 18.6898 41.6499C18.9898 41.7499 19.3498 41.6999 19.6798 41.7199C19.6598 41.3799 19.7098 41.0299 19.6098 40.7199C17.3698 33.3299 15.1098 25.9499 12.8798 18.5599C12.1198 16.0699 13.3098 13.7299 15.6698 12.9999C18.0298 12.2599 20.3698 13.5799 21.1498 16.0899C21.6998 17.8499 22.2198 19.6099 22.7598 21.3799C23.0298 22.2699 23.1998 22.3199 23.9198 21.7299C26.0398 20.0099 29.0798 20.5499 30.4698 22.8899C30.9098 23.6399 30.9698 23.6499 31.6398 23.0899C33.8398 21.2899 36.8098 21.8099 38.2598 24.2799C38.5998 24.8499 38.8698 24.8699 39.3698 24.4499C41.9698 22.2599 45.6198 23.4499 46.4598 26.7399C47.5798 31.1199 48.6998 35.4899 49.7898 39.8699C51.5098 46.7699 47.6098 53.6799 40.8198 55.7599C38.4598 56.4799 36.0798 57.1499 33.6898 57.7899C33.0398 57.9599 32.3398 57.9299 31.6598 57.9999L31.6898 57.9799ZM48.7098 43.1499C48.5698 42.1999 48.4998 41.2399 48.2698 40.3199C47.1798 35.9399 46.0598 31.5599 44.9398 27.1899C44.5098 25.5099 43.1598 24.6299 41.6098 25.0099C40.1098 25.3699 39.2998 26.7699 39.6598 28.4199C39.7798 28.9499 39.7298 29.4099 39.1398 29.5699C38.5498 29.7299 38.2598 29.3499 38.0998 28.8399C37.7798 27.7999 37.4798 26.7599 37.1498 25.7299C36.6498 24.1299 35.2398 23.3099 33.7598 23.7399C32.1798 24.2099 31.4598 25.6499 31.9598 27.3399C32.2798 28.4299 32.6198 29.5099 32.9298 30.5999C33.0698 31.0799 32.9098 31.4699 32.4198 31.6199C31.9298 31.7699 31.5898 31.5399 31.4198 31.0599C31.3598 30.8899 31.3098 30.7199 31.2598 30.5599C30.6398 28.5099 30.0198 26.4599 29.3898 24.4099C28.8898 22.7999 27.4398 21.9699 25.9298 22.4399C24.4598 22.8999 23.6998 24.3799 24.1698 25.9599C24.5398 27.2199 24.9398 28.4699 25.3198 29.7199C25.6198 30.6799 25.9198 31.6499 26.1998 32.6199C26.3398 33.1199 26.1998 33.5399 25.6598 33.6899C25.1498 33.8399 24.8498 33.5499 24.6798 33.0999C24.6398 32.9799 24.6098 32.8599 24.5698 32.7399C22.9198 27.3599 21.2798 21.9799 19.6298 16.5999C19.1098 14.8999 17.6798 14.0499 16.1698 14.5299C14.6198 15.0199 13.9098 16.4899 14.4298 18.1699C16.8898 26.2299 19.3598 34.2799 21.8098 42.3399C21.9698 42.8599 22.3798 43.4399 21.8398 43.9699C21.2998 44.4999 20.7398 44.0599 20.2198 43.8799C16.5398 42.6199 12.8798 41.3299 9.20984 40.0699C7.79984 39.5799 6.50983 39.7999 5.41983 40.8499C4.14983 42.0799 4.33983 43.3599 5.89983 44.1899C7.41983 44.9999 8.92983 45.7899 10.4498 46.5999C15.6898 49.3899 20.9098 52.1899 26.1598 54.9599C29.0898 56.5099 32.1598 56.7799 35.3298 55.7899C36.9698 55.2799 38.6098 54.7799 40.2498 54.2799C45.2498 52.7699 48.5598 48.3999 48.7198 43.1599L48.7098 43.1499Z" fill="white"/>
<path d="M10.6207 13.33C10.6307 14.31 9.92068 14.71 9.15068 14.35C7.65068 13.64 6.16069 12.9 4.67069 12.17C3.77069 11.73 2.8607 11.29 1.9607 10.84C1.3207 10.51 1.1007 10.02 1.3507 9.50996C1.6007 8.98996 2.13069 8.82997 2.77069 9.13997C5.17069 10.3 7.57069 11.47 9.95069 12.67C10.2707 12.83 10.4807 13.19 10.6307 13.33H10.6207Z" fill="white"/>
<path d="M24.2898 1.33995C25.2598 1.33995 25.6698 2.03995 25.3098 2.78995C24.3498 4.78995 23.3698 6.76995 22.3998 8.75995C22.1798 9.20995 21.9498 9.65995 21.7198 10.11C21.4498 10.63 21.0298 10.86 20.4698 10.59C19.8898 10.31 19.7698 9.81995 20.0498 9.25995C21.2398 6.81995 22.4298 4.36996 23.6498 1.93996C23.7998 1.64996 24.1498 1.45996 24.2898 1.32996V1.33995Z" fill="white"/>
<path d="M24.9605 15.6C24.7005 15.34 24.2805 15.0999 24.2305 14.7999C24.1705 14.4899 24.4305 14.0899 24.6105 13.7699C24.6805 13.6499 24.9105 13.6099 25.0805 13.5499C27.5405 12.7099 30.0005 11.87 32.4605 11.03C32.5605 11 32.6505 10.95 32.7505 10.94C33.2905 10.86 33.7005 11.0399 33.8705 11.5899C34.0305 12.1099 33.8105 12.53 33.3405 12.7C30.6705 13.64 28.0005 14.54 25.3205 15.45C25.2505 15.47 25.1705 15.47 25.1005 15.48C25.0605 15.52 25.0105 15.5599 24.9705 15.6099L24.9605 15.6Z" fill="white"/>
<path d="M10.2202 20.1899C10.0802 20.3299 9.86025 20.7199 9.55025 20.8299C6.94025 21.7599 4.31024 22.6599 1.67024 23.5399C1.09024 23.7299 0.65024 23.4599 0.51024 22.8899C0.35024 22.2699 0.69025 21.8899 1.27025 21.6899C3.63025 20.8899 6.00025 20.0799 8.36025 19.2699C8.62025 19.1799 8.89025 19.0799 9.16025 19.0399C9.76025 18.9599 10.2102 19.3499 10.2202 20.1899Z" fill="white"/>
<path d="M12.0303 0.539925C12.1703 0.679925 12.5603 0.899933 12.6703 1.21993C13.5903 3.80993 14.4703 6.40994 15.3503 9.01994C15.5403 9.58994 15.3403 10.0399 14.7703 10.2299C14.1903 10.4199 13.7703 10.1499 13.5803 9.59994C12.6703 6.97994 11.7703 4.35993 10.9003 1.71993C10.6903 1.09993 11.1603 0.529925 12.0403 0.539925H12.0303Z" fill="white"/>
</svg>
