<svg width="1697" height="157" viewBox="0 0 1697 157" fill="none" xmlns="http://www.w3.org/2000/svg">
<path d="M57.705 101.685L58.245 122.115C39.645 126.36 20.235 130.455 7.635 133.065C7.2 134.7 5.64 135.84 4.155 136.005L0 111.33C5.28 110.67 11.385 109.695 18.015 108.555L20.025 79.7849H6.465L7.98 58.0499H21.54L23.25 33.5249H8.535L10.065 11.6249H61.545L60.015 33.5249H45.465L43.755 58.0499H57.315L55.8 79.7849H42.225L40.485 104.79L57.705 101.685ZM144.78 118.68H117.165L115.935 136.335C114.825 152.19 109.515 155.79 83.355 155.79C82.74 150.555 81.09 143.7 79.17 138.465C72.375 144.51 64.275 150.405 56.625 154.65C53.31 150.57 46.59 143.865 42.42 140.43C52.56 135.69 63.255 127.68 69.33 120.165L92.1 128.835C91.35 130.14 89.67 130.8 87.57 130.47C85.455 132.765 82.995 135.045 80.385 137.505C84.465 137.67 89.205 137.67 90.675 137.67C92.49 137.505 93.165 137.175 93.27 135.54L94.44 118.71H66.975L69.51 82.4249H147.315L144.78 118.71V118.68ZM158.895 59.3399L157.59 77.9699H58.875L60.18 59.3399H96.96L97.41 52.9649H69.465L72.78 5.56494H154.665L151.35 52.9649H126.345C125.76 54.2699 124.23 55.0949 121.425 55.5749L121.155 59.3399H158.91H158.895ZM90.21 97.2599L89.76 103.8H122.775L123.225 97.2599H90.21ZM91.89 35.6399L91.635 39.4049H129.885L130.155 35.6399H91.905H91.89ZM93.045 19.1249L92.775 22.8899H131.025L131.28 19.1249H93.03H93.045ZM137.58 153.81C133.935 147.435 124.845 137.295 117.315 130.44L135.975 120.63C143.385 126.84 153.015 136.32 157.62 143.025L137.58 153.81Z" fill="white"/>
<path d="M316.89 8.83483L331.71 14.3998C331.47 15.5398 330.9 16.6948 329.85 17.5048C324.45 31.5598 317.895 48.2398 310.155 65.5648C322.245 82.0798 325.545 93.1948 324.855 103.155C322.545 136.335 300.15 136.335 285.96 135.84C286.23 129.63 284.28 120.15 281.13 113.775L278.205 155.79H254.835L264.03 24.0448C259.83 32.7148 255.165 41.0398 250.035 48.8848H258.045L256.62 69.3148H234.885C232.035 72.5848 229.215 75.6898 226.395 78.6298H251.4L246.09 154.635H223.695L224.085 149.07H203.325L202.83 156.105H181.425L184.62 110.34C182.58 111.48 180.54 112.635 178.35 113.61C176.25 108.54 171.195 99.0598 167.76 94.4848C174.165 91.7098 180.45 88.2748 186.435 84.5098L186.84 78.6298H194.85C198.81 75.6898 202.47 72.5848 206.13 69.3148H173.445L174.87 48.8848H201.18L202.05 36.4648H182.115L183.525 16.1998H203.46L204.495 1.31982L231.03 2.78982C230.76 4.42483 229.365 5.56483 226.065 6.05983L225.36 16.1998H239.415L238.605 27.8098C241.59 22.4098 244.275 16.8598 246.63 11.1298L264.525 17.0098L265.035 9.65982H311.94L316.905 8.83483H316.89ZM204.63 130.29H225.39L225.945 122.28H205.185L204.63 130.29ZM227.175 104.625L227.685 97.2748H206.925L206.415 104.625H227.175ZM223.05 48.8848H224.85C227.91 44.9548 230.82 40.7098 233.4 36.4648H223.92L223.05 48.8848ZM286.83 31.8898L281.175 112.965C285.075 113.295 288.51 113.295 290.79 113.295C298.965 113.295 300.855 109.53 301.38 102.015C301.935 94.0048 298.14 85.1848 285.825 69.6448C291.03 55.9198 295.5 43.3348 299.25 31.8898H286.83Z" fill="white"/>
<path d="M449.25 74.7147H430.95C427.695 93.1797 422.865 108.555 416.1 121.14C428.4 132.255 443.925 132.255 461.58 132.255C471.39 132.255 485.295 132.09 491.67 131.925C488.55 136.83 484.77 146.475 483.54 152.355H450.195C431.07 152.355 415.605 149.25 404.07 138.795C398.025 145.665 390.93 151.38 382.59 156.12C380.16 151.05 375.615 143.7 371.805 139.77C379.755 135.84 386.385 129.96 391.98 122.28C388.275 114.435 385.185 104.955 383.07 93.0147L400.935 87.6147C401.61 92.0247 402.63 96.1197 403.68 99.7047C406.29 92.8347 408.285 85.3197 409.98 77.3097H404.415L402.27 82.3797L384.075 78.4497L384.99 91.0347L374.115 94.6347L371.52 131.745C370.32 148.905 365.4 156.105 340.08 156.105C339.855 150.06 338.07 140.415 335.73 134.04C338.505 134.205 341.43 134.37 343.71 134.37C349.11 134.37 349.755 134.37 349.95 131.595L352.035 101.685L343.515 104.295C343.065 106.095 341.505 107.235 340.02 107.565L336.42 81.8997C341.235 80.9247 347.205 79.6047 353.685 78.1347L355.425 53.1297H340.875L342.39 31.3947H356.94L359.07 0.824707L385.14 1.96471C384.855 3.76471 383.625 4.90471 380.325 5.39971L378.51 31.3947H387.33L385.815 53.1297H376.995L375.6 73.0647L383.58 71.0997L383.82 74.6997C390.18 60.8097 397.215 44.2947 402.75 30.5697H388.86L390.315 9.64471H415.485L419.775 9.14971L431.295 12.7497C430.89 13.8897 430.29 15.3597 429.735 16.3497C425.355 27.6297 418.845 43.6497 412.005 59.6697H418.545L422.16 59.3397L428.94 60.4797L429.39 53.9397H450.63L452.085 33.1797C446.595 34.4847 441.135 35.4747 435.84 36.4497C435.195 31.5447 432.63 23.8647 430.185 19.1247C448.08 15.5247 467.16 9.31471 479.1 2.12971L496.05 19.1247C495.165 20.0997 493.53 20.0997 491.565 20.0997C487.5 22.2297 482.79 24.0297 477.765 25.8147L479.22 25.9797C478.935 27.6147 477.555 28.7547 474.42 29.2497L472.695 53.9247H493.455L492 74.6847H471.24L469.425 100.68H487.89L486.465 121.11H428.925L430.35 100.68H447.345L449.16 74.6847L449.25 74.7147Z" fill="white"/>
<path d="M595.5 54.2852H658.92L657.705 71.7752H508.32L509.535 54.2852H571.32L571.635 49.8752H528.81L529.965 33.3602H572.79L573.105 28.7852H520.635L521.85 11.2952H574.32L575.1 0.180176L604.26 1.65018C603.96 3.61518 602.415 4.75517 598.95 5.25017L598.53 11.2952H651.33L650.115 28.7852H597.315L597 33.3602H641.13L639.975 49.8752H595.845L595.53 54.2852H595.5ZM632.85 76.5152L628.77 134.865C627.45 153.825 618.285 156.285 585.6 156.285C584.85 150.57 582.3 142.725 579.885 137.49C584.28 137.82 590.475 137.985 594.885 137.985C597.495 137.985 599.64 137.82 600.45 137.82C604.38 137.82 604.455 136.68 604.725 132.75H551.775L550.155 155.955H526.455L532.005 76.5152H632.85ZM552.825 117.705H605.775L606.12 112.8H553.17L552.825 117.705ZM607.5 93.1802H554.55L554.235 97.7552H607.185L607.5 93.1802Z" fill="white"/>
<path d="M823.455 99.555L821.85 122.595H767.58L765.255 155.94H740.745L743.07 122.595H670.17L671.775 99.555H697.11L699.78 61.305C696.765 64.74 693.6 68.01 690.45 70.785C686.355 66.21 677.925 58.2 672.48 54.27C687.375 42.18 701.805 20.595 709.935 0L737.76 8.82C737.01 10.29 735.135 11.265 732.705 10.95C731.73 13.245 730.605 15.36 729.465 17.655H819.36L817.755 40.695H773.295L772.14 57.21H812.835L811.29 79.275H770.595L769.185 99.54H823.455V99.555ZM748.785 40.71H715.77C711.93 46.59 707.775 52.155 703.335 57.225H747.63L748.785 40.71ZM720.975 99.555H744.675L746.085 79.29H722.385L720.975 99.555Z" fill="white"/>
<path d="M1030.08 45.4499L1028.64 66.0449H1006.25L1006.73 66.2099C1005.81 67.6799 1004.13 68.3399 1001.5 68.3399C998.94 72.2699 995.505 77.0099 991.935 81.2549H1023.64L1022.21 101.85H968.265C967.68 103.155 966.15 103.98 963.345 104.46L962.79 112.47H1013.79L1012.36 132.9H961.365L959.76 155.955H934.92L936.525 132.9H888.63L890.055 112.47H937.95L938.685 101.85H880.995L882.435 81.2549H914.31C912.69 76.3499 910.455 70.9499 908.16 66.3749L909.33 66.0449H879.915L881.355 45.4499H942.645L943.335 35.6399H898.545L899.97 15.2099H944.76L945.675 2.12988L975.465 3.76488C975.18 5.56488 973.62 6.70488 970.155 7.36488L969.6 15.2099H1016.34L1014.91 35.6399H968.175L967.485 45.4499H1030.08ZM932.865 66.0449C935.61 71.1149 937.995 76.8299 939 81.2399H966.945C969.705 76.8299 972.87 71.2649 975.36 66.0449H932.865Z" fill="white"/>
<path d="M1111.66 38.0998C1111.09 39.2398 1109.88 40.2298 1108.55 40.7098C1103.64 52.4848 1096.93 64.0798 1089.16 74.8798C1093.81 78.4798 1100.6 84.3598 1105.07 88.2898L1105.61 80.6098H1192.73L1187.5 155.31H1164.14L1164.5 150.24H1122.98L1122.57 155.955H1100.34L1104.46 96.7798L1093.5 111C1091.43 107.895 1088.58 104.13 1085.58 100.38L1081.7 156.12H1058.66L1062.23 104.955C1057.86 108.885 1053.21 112.305 1048.75 115.26C1047.4 108.885 1042.83 97.1098 1039.88 92.6998C1055.35 84.0298 1070.16 68.5048 1080.33 51.6748H1047.64L1049.11 30.5848H1067.41L1069.48 0.839844L1097.18 2.30984C1096.89 4.10984 1095.5 5.24984 1092.2 5.74484L1090.46 30.5848C1093.89 30.5848 1094.22 30.4198 1097.39 29.7748L1111.68 38.1148L1111.66 38.0998ZM1107.72 5.56484H1202.68L1201.3 25.3498H1106.34L1107.72 5.56484ZM1117.11 30.2398H1188.87L1185.71 75.5248H1113.95L1117.11 30.2398ZM1124.3 130.935H1133.94L1134.39 124.395H1124.75L1124.3 130.935ZM1136.11 99.8848H1126.47L1126.07 105.765H1135.71L1136.11 99.8848ZM1165.04 57.8698L1165.73 47.8948H1136.79L1136.1 57.8698H1165.04ZM1155.69 130.935H1165.82L1166.27 124.395H1156.14L1155.69 130.935ZM1167.59 105.765L1167.99 99.8848H1157.85L1157.45 105.765H1167.57H1167.59Z" fill="white"/>
<path d="M1229.09 76.8301C1224.98 81.9001 1220.86 86.8051 1216.65 91.0501C1214.94 85.1701 1210.1 72.5851 1207.4 66.6901C1221.96 52.3051 1237.85 26.1451 1247.94 0.975079L1273.31 9.96008C1272.21 11.5951 1270.37 12.2551 1268.09 12.0901C1263.47 22.0651 1258.17 32.3551 1252.43 42.1651L1259.16 43.9651C1258.73 45.6001 1257.15 46.9051 1254.2 47.2351L1246.61 155.94H1223.57L1229.09 76.8301ZM1321.1 128.49H1361.31L1359.74 151.05H1253.82L1255.4 128.49H1296.92L1298.85 100.86H1266L1267.56 78.4651H1300.41L1302.11 54.2701H1264.02L1265.6 31.7101H1306.13C1299.12 26.6401 1291.17 21.2551 1284.41 17.3251L1301.28 0.330078C1312.79 6.37508 1329.42 16.3501 1337.4 23.7001L1329.65 31.7101H1365.77L1364.19 54.2701H1326.27L1324.59 78.4651H1358.1L1356.54 100.86H1323.03L1321.1 128.49Z" fill="white"/>
<path d="M1451.16 23.7149C1452.95 28.6199 1454.69 34.1699 1456.25 39.7349L1458.96 0.82494L1485.02 2.12994C1484.73 3.92994 1483.34 5.06994 1480.04 5.56494L1475.48 70.9499C1473.21 103.485 1464.27 137.805 1433.84 156.93C1431.05 152.355 1424.29 143.85 1419.82 139.935C1435.89 132.255 1444.11 119.835 1448.54 105.615C1444.17 109.545 1440.01 112.965 1436.71 115.755C1436.76 117.555 1435.83 119.025 1434.48 119.685L1425.63 98.9249L1422.41 103.005C1421.19 99.24 1419.4 94.4999 1417.3 89.4449L1412.66 155.97H1391.25L1394.98 102.525C1390.71 112.335 1386.18 120.99 1381.12 127.695C1379.61 121.32 1375.35 112.17 1372.47 106.605C1382.32 94.1849 1391.45 73.5899 1396.62 55.6049H1380.11L1381.64 33.7049H1399.77L1402.08 0.689941L1428.14 2.15994C1427.87 3.79494 1426.49 4.76994 1423.17 5.42994L1421.19 33.7049H1434.27L1433.34 30.5999L1451.14 23.7299L1451.16 23.7149ZM1430.67 92.5349C1431.33 92.5349 1449.13 80.9249 1453.59 77.9849L1454.68 62.2949L1441.57 67.5299C1441 59.1899 1438.26 47.0999 1435.23 36.6299L1433.91 55.5899H1419.69L1419.32 60.9899C1423.17 66.5549 1433.18 82.5599 1435.53 86.3249L1430.68 92.5349H1430.67ZM1537.29 33.1949C1536.38 34.6649 1534.38 35.1599 1532.1 34.9949C1528.02 44.3099 1520.56 57.3899 1515.24 65.7299L1505.01 60.1649L1504.08 73.4099L1508.25 69.9749C1516.11 79.1249 1526.99 91.8749 1531.82 100.05L1515.27 114.6C1512.69 109.365 1507.8 102.18 1502.58 95.1449L1500.54 124.41C1499.98 132.42 1500.08 133.395 1502.21 133.395H1506.61C1508.91 133.395 1509.86 129.15 1511.18 114.93C1515.98 118.695 1523.88 122.61 1530.15 124.08C1526.34 145.815 1520.34 154.485 1507.27 154.485H1496.16C1480.64 154.485 1476.69 147.78 1478.32 124.245L1486.95 0.839941L1513.82 2.30994C1513.53 4.10994 1512.15 5.08494 1508.84 5.74494L1506.15 44.1599C1509.28 36.8099 1512.29 28.7999 1514.39 22.2599L1537.32 33.2099L1537.29 33.1949Z" fill="white"/>
<path d="M1554.04 6.38965H1696.08L1685.62 156.12H1662.42L1662.79 150.72H1566.19L1565.82 156.12H1543.59L1554.04 6.38965ZM1567.68 129.48H1664.28L1666.3 100.38C1665.43 101.19 1663.77 101.52 1662 101.19C1658.94 102.99 1654.33 105.6 1649.91 108.06C1654.68 110.025 1659.79 111.66 1664.94 112.8C1660.78 116.235 1654.9 123.105 1651.98 127.515C1642.06 124.41 1632.94 119.175 1625.22 112.8L1624.26 126.525H1603.5L1604.4 113.61C1596.43 117.69 1588 121.29 1579.81 124.065C1577.62 120.3 1572.54 113.445 1569.36 110.01C1581.52 106.575 1594.48 101.34 1604.91 94.8146H1583.98L1585.86 68.0097H1653.52L1652.02 89.5796L1666.33 100.035L1671.39 27.6296H1574.79L1567.68 129.465V129.48ZM1665.46 51.6746L1664.58 64.4246H1576.32L1577.2 51.6746H1610.55L1610.82 47.7446H1585.15L1586.02 35.3246H1611.69L1612.14 28.7846L1638.19 30.2546C1637.91 31.8896 1636.54 32.8646 1633.23 33.5246L1633.11 35.3246H1658.94L1658.07 47.7446H1632.24L1631.97 51.6746H1665.48H1665.46ZM1631.83 83.8797L1632.19 78.8096H1604.58L1604.22 83.8797H1631.85H1631.83ZM1632.21 94.8296L1630.47 96.2997C1632.15 97.9347 1634.17 99.4046 1636.21 100.71C1638.96 98.9096 1642.03 96.9446 1644.79 94.8296H1632.21Z" fill="white"/>
</svg>
