<svg width="531" height="49" viewBox="0 0 531 49" fill="none" xmlns="http://www.w3.org/2000/svg">
<path d="M1.86 1.67004V4.51004C1.86 6.51004 1.72 9.43003 0.67 11.44C0.53 11.31 0.2 11.12 0 11.03C1.01 9.11003 1.09 6.42002 1.09 4.49002V0.920044H11.02V1.66003H1.86V1.67004ZM6.8 8.83002V10.42H11.07V11.12H1.69V10.42H3.31V7.78003L4.32 7.85004C4.31 7.93004 4.25 7.98004 4.09 8.01004V10.42H6.02V6.89005L7.04 6.96002C7.03 7.04002 6.97 7.10003 6.8 7.12003V8.16003H9.82V8.82004H6.8V8.83002ZM4.58 6.92004H3.88V5.07004C3.46 5.78004 2.88 6.46002 2.36 6.86002C2.25 6.69002 2.04 6.46003 1.89 6.34003C2.49 5.97003 3.14 5.24003 3.57 4.50003H2.26V3.87003H3.88V2.95004C3.42 3.02004 2.96 3.08003 2.53 3.12003C2.49 2.99003 2.4 2.76003 2.31 2.62003C3.38 2.50003 4.62 2.30004 5.26 2.01004L5.91 2.50003C5.91 2.50003 5.85 2.54004 5.69 2.54004C5.39 2.65004 5.01 2.76003 4.57 2.84003V3.88004H6.01V4.51004H4.57V4.59003C4.91 4.82003 5.75 5.43003 5.96 5.62003L5.53 6.16003C5.35 5.96003 4.93 5.57004 4.57 5.26004V6.92004H4.58ZM8.83 6.92004H8.12V4.80002C7.64 5.62002 6.92 6.42002 6.26 6.86002C6.15 6.69002 5.94 6.46003 5.79 6.34003C6.45 5.97003 7.18 5.25003 7.65 4.50003H6.41V3.87003H8.11V2.93002C7.63 2.99002 7.14 3.05003 6.68 3.09003C6.64 2.95003 6.55 2.72004 6.48 2.57004C7.61 2.46004 8.97 2.26003 9.66 1.97003C10.08 2.27003 10.2 2.37002 10.31 2.46002C10.26 2.50002 10.25 2.50003 10.09 2.50003C9.75 2.62003 9.31 2.71003 8.82 2.81003V3.87003H10.87V4.50003H9.27C9.73 5.23003 10.46 5.92003 11.2 6.25003C11.03 6.38003 10.82 6.62002 10.71 6.80002C9.98 6.38002 9.28 5.61003 8.81 4.81003V6.91003L8.83 6.92004Z" fill="white"/>
<path d="M17.1299 7.00006C17.0599 6.80006 16.9599 6.55006 16.8499 6.28006L15.7499 6.34006V11.4701H15.0299V6.37006C14.3699 6.39006 13.7699 6.42006 13.2999 6.44006C13.2799 6.54006 13.1999 6.57007 13.1199 6.60007L12.8999 5.70007H13.7299C13.9899 5.38007 14.2699 4.99007 14.5599 4.60007C14.1999 4.04007 13.5799 3.34006 13.0199 2.81006L13.4499 2.29007C13.5799 2.41007 13.6999 2.53006 13.8299 2.66006C14.2399 1.95006 14.6899 1.00007 14.9599 0.320068L15.8199 0.680054C15.7599 0.760054 15.6799 0.79006 15.5599 0.78006C15.2499 1.46006 14.7199 2.44005 14.2599 3.11005C14.5399 3.41005 14.7899 3.70006 14.9699 3.97006C15.4899 3.19006 15.9699 2.36006 16.3099 1.69006L17.1499 2.09006C17.1099 2.15006 17.0199 2.20007 16.8899 2.20007C16.2799 3.22007 15.3199 4.65006 14.4799 5.69006L16.5299 5.65005C16.3099 5.24005 16.0699 4.82005 15.8199 4.46005L16.4199 4.20007C16.9699 4.98007 17.5399 6.01005 17.7399 6.68005L17.1199 6.99005L17.1299 7.00006ZM14.5599 7.46005C14.5399 7.54005 14.4599 7.59006 14.3199 7.59006C14.1599 8.60006 13.8899 9.75005 13.5299 10.4601C13.3699 10.3601 13.1099 10.2401 12.9299 10.1601C13.2799 9.49006 13.5299 8.34006 13.6899 7.25006L14.5699 7.47006L14.5599 7.46005ZM16.9699 9.61005C16.8699 9.01005 16.5699 8.10006 16.2599 7.41006L16.8699 7.22006C17.2099 7.89006 17.5199 8.79007 17.6299 9.38007L16.9699 9.61005ZM21.1699 10.4601H24.1999V11.1901H17.0499V10.4601H20.3499V8.00006H17.8999V7.27005H23.7799V8.00006H21.1699V10.4601ZM19.6199 2.40005C19.5799 2.48005 19.5099 2.53005 19.3699 2.52005C19.1399 2.95005 18.6699 3.77008 18.2699 4.39008C18.8099 5.10008 19.3499 5.97005 19.5999 6.52005L18.9299 6.82007C18.6699 6.19007 18.0999 5.24005 17.4799 4.40005C17.9599 3.66005 18.4899 2.74006 18.7599 2.16006L19.6199 2.40005ZM24.1099 0.960052V1.70007H17.5399V0.960052H24.1099ZM21.0899 6.80005C20.8099 6.18005 20.1999 5.23008 19.5299 4.39008C20.0499 3.66008 20.5999 2.73006 20.8899 2.16006L21.7399 2.40005C21.7199 2.48005 21.6299 2.53005 21.4999 2.52005C21.2599 2.95005 20.7599 3.75007 20.3499 4.38007C20.8999 5.09007 21.4899 5.95006 21.7699 6.50006L21.0999 6.80005H21.0899ZM23.8399 2.41006C23.7999 2.49006 23.7299 2.53005 23.5899 2.52005C23.3499 2.95005 22.8499 3.77007 22.4099 4.38007C22.9999 5.09007 23.6099 5.95006 23.9099 6.50006L23.2499 6.82007C22.9399 6.19007 22.2899 5.23005 21.5899 4.40005C22.1199 3.66005 22.6799 2.74006 22.9699 2.16006L23.8299 2.41006H23.8399Z" fill="white"/>
<path d="M35.0002 9.98004H37.0502V10.78H26.2402V9.98004H28.9902C29.2802 8.84004 29.5902 7.38005 29.8902 5.89005H27.5102V5.10004H30.0402C30.2202 4.14004 30.3902 3.18004 30.5302 2.32004H26.9302V1.52002H36.4102V2.32004H31.4102C31.2702 3.20004 31.0902 4.14004 30.8902 5.10004H34.9902V9.98004H35.0002ZM34.1802 5.89005H30.7502C30.4502 7.40005 30.1402 8.85004 29.8902 9.98004H34.1802V5.89005Z" fill="white"/>
<path d="M50.07 8.42007H45.73C46.85 9.42007 48.67 10.2701 50.34 10.6401C50.17 10.8001 49.93 11.1101 49.82 11.3101C48.08 10.8401 46.15 9.81007 45 8.60007V11.4501H44.2V8.67007C43.05 9.83007 41.19 10.8201 39.5 11.2801C39.39 11.0901 39.16 10.7901 39 10.6301C40.64 10.2601 42.45 9.39006 43.53 8.41006H39.2V7.71005H44.2V6.67007L45.24 6.74005C45.23 6.82005 45.17 6.88006 45 6.91006V7.71005H50.07V8.41006V8.42007ZM41.82 5.64008L41.08 5.39008C41.43 5.01008 41.84 4.50006 42.26 3.97006H39.36V3.29007H42.79C43.09 2.88007 43.39 2.49007 43.64 2.13007L44.58 2.43005C44.56 2.49005 44.47 2.54007 44.29 2.51007C44.12 2.75007 43.92 3.01007 43.71 3.29007H49.96V3.97006H47.53C47.21 4.63006 46.76 5.18008 46.1 5.64008C47.34 5.96008 48.49 6.31008 49.33 6.64008L48.84 7.23007C47.98 6.89007 46.67 6.49005 45.27 6.11005C44.12 6.63005 42.46 6.97008 40.01 7.14008C39.97 6.96008 39.85 6.66005 39.75 6.49005C41.68 6.37005 43.11 6.14007 44.15 5.82007C43.45 5.64007 42.75 5.48007 42.09 5.35007L41.85 5.64008H41.82ZM40.44 1.95007V2.99005H39.68V1.24005H44.2V0.320068L45.24 0.380066C45.23 0.480066 45.16 0.520049 45 0.550049V1.25006H49.62V3.00006H48.84V1.96005H40.43L40.44 1.95007ZM43.17 3.98007C42.94 4.27007 42.71 4.56005 42.49 4.83005C43.33 4.99005 44.23 5.19006 45.13 5.41006C45.84 5.04006 46.29 4.57007 46.61 3.98007H43.18H43.17Z" fill="white"/>
<path d="M57.39 0.600098C57.35 0.680098 57.26 0.730103 57.11 0.730103C56.95 1.2201 56.79 1.74008 56.58 2.24008H62.92V3.02008H56.23C55.83 3.87008 55.37 4.71008 54.79 5.49008L54.92 5.53009C54.9 5.61009 54.82 5.67009 54.68 5.69009V11.4801H53.88V6.61008C53.45 7.08008 52.98 7.5001 52.46 7.8801C52.36 7.6601 52.15 7.33009 52.02 7.15009C52.72 6.65009 53.34 6.0301 53.88 5.3501V5.27008H53.93C54.47 4.59008 54.94 3.82009 55.32 3.03009H52.31V2.25009H55.68C55.94 1.61009 56.16 0.970078 56.34 0.330078L57.38 0.610077L57.39 0.600098ZM59.62 6.84009V10.4301H62.93V11.1801H55.57V10.4301H58.81V6.84009H56.05V6.08008H58.81V3.6701L59.85 3.74008C59.84 3.82008 59.78 3.87009 59.62 3.90009V6.08008H62.45V6.84009H59.62Z" fill="white"/>
<path d="M67.4 7.74005L68.79 7.19006L68.95 7.89008C67.7 8.47008 66.37 9.03008 65.53 9.39008C65.53 9.49008 65.48 9.56006 65.4 9.59006L64.98 8.68005C65.44 8.52005 66.01 8.30006 66.64 8.06006V4.08005H65.19V3.31006H66.64V0.440063L67.65 0.510071C67.64 0.590071 67.57 0.640074 67.41 0.670074V3.31006H68.77V4.08005H67.41V7.75006L67.4 7.74005ZM70.54 9.66006C70.54 10.3201 70.7 10.4801 71.54 10.4801H74.6C75.32 10.4801 75.44 10.1401 75.54 8.70007C75.73 8.84007 76.04 8.98005 76.27 9.02005C76.14 10.6801 75.87 11.2001 74.62 11.2001H71.53C70.17 11.2001 69.79 10.9001 69.79 9.64008V5.60007L68.58 6.12006L68.27 5.40005L69.79 4.75006V1.46005L70.8 1.53006C70.79 1.61006 70.72 1.67007 70.56 1.70007V4.41006L72.3 3.67007V0.320068L73.3 0.380066C73.29 0.460066 73.23 0.520049 73.07 0.550049V3.34006L74.99 2.51007L75.16 2.38007L75.82 2.62006C75.82 2.62006 75.76 2.72006 75.7 2.75006C75.7 5.03006 75.66 6.92007 75.57 7.38007C75.46 8.11007 75.05 8.23007 73.78 8.23007C73.74 8.00007 73.68 7.70007 73.59 7.51007C73.89 7.53007 74.31 7.53006 74.44 7.53006C74.63 7.53006 74.76 7.47005 74.82 7.18005C74.89 6.88005 74.92 5.39007 74.92 3.38007L73.07 4.17007V8.78006H72.3V4.51007L70.56 5.25006V9.64008L70.54 9.66006Z" fill="white"/>
<path d="M80.24 5.55997C79.76 5.15997 78.8 4.67997 78.02 4.40997C78.24 4.05997 78.33 3.91996 78.43 3.76996C79.21 4.01996 80.18 4.46997 80.66 4.83997L80.24 5.55997ZM78.34 10.82C78.93 9.89998 79.77 8.30996 80.38 6.95996L81 7.43997C80.44 8.69997 79.69 10.17 79.14 11.09C79.19 11.15 79.2 11.2 79.2 11.26C79.2 11.31 79.19 11.36 79.16 11.39L78.33 10.83L78.34 10.82ZM79.07 0.469971C79.84 0.819971 80.77 1.37997 81.23 1.80997L80.74 2.46997C80.28 2.02997 79.37 1.41998 78.61 1.03998L79.08 0.459961L79.07 0.469971ZM89.16 7.32996H86.07C86.83 8.52996 88.06 9.71996 89.24 10.27C89.05 10.43 88.8 10.71 88.66 10.93C87.5 10.27 86.27 8.96998 85.51 7.63998V11.43H84.72V7.69998C83.87 9.09998 82.56 10.34 81.28 11.01C81.16 10.82 80.92 10.54 80.75 10.39C82.05 9.80998 83.35 8.62996 84.16 7.32996H81.33V6.58997H84.72V5.16998L85.74 5.22998C85.73 5.30998 85.67 5.36996 85.51 5.39996V6.58997H89.17V7.32996H89.16ZM84.57 1.97998C84.56 2.05998 84.49 2.11998 84.34 2.13998C84.16 3.85998 83.67 5.01997 81.56 5.62997C81.49 5.44997 81.28 5.16998 81.14 5.03998C83.03 4.53998 83.47 3.56996 83.61 1.89996L84.57 1.97998ZM82.38 1.56998V3.18997H81.65V0.859955H88.82V3.16998H88.08V1.55997H82.38V1.56998ZM85.89 1.81998L86.87 1.88998C86.86 1.95998 86.8 2.01996 86.64 2.04996V4.21997C86.64 4.46997 86.69 4.50998 87.02 4.50998H88.11C88.37 4.50998 88.42 4.40997 88.46 3.68997C88.62 3.79997 88.9 3.90998 89.13 3.94998C89.05 4.92998 88.83 5.17996 88.21 5.17996H86.93C86.09 5.17996 85.89 4.97996 85.89 4.20996V1.80997V1.81998Z" fill="white"/>
<path d="M93.9399 6.26007V6.79007C94.3599 7.13007 95.4999 8.16007 95.7999 8.42007L95.3399 9.02005C95.0799 8.68005 94.4299 8.04006 93.9399 7.56006V11.4601H93.1799V7.17007C92.6799 8.38007 91.9899 9.64005 91.3299 10.36C91.2499 10.16 91.0699 9.84006 90.9199 9.66006C91.6399 8.90006 92.4299 7.50005 92.8999 6.27005H91.0199V5.56006H93.1799V4.42007H91.3899V3.70007H93.1799V2.60007H91.1799V1.89008H93.1799V0.330048L94.1799 0.390076C94.1699 0.470076 94.0999 0.530049 93.9399 0.550049V1.89008H95.9199V2.60007H93.9399V3.70007H95.7299V4.42007H93.9399V5.56006H95.9799V6.27005H93.9399V6.26007ZM102.18 6.59006V7.35007H100.69V11.4501H99.9099V7.35007H97.9899C97.8499 8.93007 97.3899 10.4101 96.1199 11.4901C95.9599 11.3701 95.6499 11.1801 95.4499 11.0701C96.6499 10.1001 97.0799 8.74007 97.2099 7.35007H95.7699V6.59006H97.2599C97.2699 6.39006 97.2699 6.19005 97.2699 5.99005V3.51007H95.9899V2.74005H97.2699V0.320068L98.2699 0.390076C98.2599 0.470076 98.1999 0.520049 98.0399 0.550049V2.74005H99.9099V0.320068L100.92 0.380066C100.91 0.460066 100.85 0.520049 100.69 0.550049V2.74005H102.06V3.51007H100.69V6.59006H102.18ZM98.0399 5.99005C98.0399 6.19005 98.0399 6.39006 98.0299 6.59006H99.9099V3.51007H98.0399V5.99005Z" fill="white"/>
<path d="M104.29 11.59C104.48 10.99 104.72 9.80001 104.82 9.04001L106.12 8.87C105.87 9.78 105.36 11.03 105.09 11.5L104.3 11.6L104.29 11.59Z" fill="white"/>
<path d="M114.9 9.5C114.86 9.56 114.77 9.60001 114.64 9.57001C113.87 10.21 112.72 10.9 111.74 11.33C111.6 11.19 111.36 10.95 111.18 10.83C112.16 10.45 113.33 9.79 114.05 9.12L114.91 9.5H114.9ZM118.82 6.76001C119.95 7.30001 121.31 8.13999 122.02 8.76999L121.38 9.25C121.16 9.05 120.86 8.80999 120.52 8.54999C119.34 8.59999 118.13 8.63 116.97 8.66V11.46H116.17V8.69C114.49 8.74 112.96 8.76999 111.82 8.79999C111.81 8.89999 111.74 8.93999 111.65 8.95999L111.31 8.10999C112.01 8.10999 112.88 8.10001 113.86 8.10001C114.15 7.94001 114.46 7.79 114.76 7.62C114.12 7.14 113.18 6.56001 112.37 6.17001L112.91 5.73999C113.17 5.86999 113.46 6.02001 113.75 6.17001C114.24 5.82001 114.79 5.38 115.23 4.97H112.14V0.75H121.1V4.97H116.24L116.44 5.07999C116.39 5.13999 116.32 5.16 116.19 5.16C115.71 5.56 114.99 6.1 114.36 6.5C114.77 6.74 115.15 6.99 115.45 7.22C116.58 6.57 117.7 5.82001 118.48 5.20001L119.3 5.67001C119.25 5.73001 119.14 5.77 119.02 5.75C118.01 6.46 116.55 7.36 115.22 8.06L119.66 7.98999C119.19 7.68999 118.69 7.41 118.23 7.19L118.82 6.76001ZM112.91 1.39999V2.53H116.18V1.39999H112.91ZM112.91 3.16V4.29999H116.18V3.16H112.91ZM120.31 2.51999V1.39001H116.98V2.51999H120.31ZM120.31 4.29999V3.16H116.98V4.29999H120.31ZM121.25 11.35C120.61 10.81 119.3 10.03 118.24 9.51999L118.83 9.10001C119.86 9.57001 121.19 10.31 121.9 10.86L121.25 11.35Z" fill="white"/>
<path d="M126.83 5.39008C127.21 5.76008 128.26 6.91005 128.5 7.21005L128.01 7.82007C127.81 7.46007 127.27 6.73005 126.83 6.18005V11.4701H126.05V5.86005C125.59 7.17005 124.98 8.50007 124.4 9.29007C124.3 9.07007 124.1 8.75007 123.97 8.57007C124.67 7.67007 125.45 6.03007 125.87 4.60007H124.1V3.84006H126.07V1.81006C125.49 1.98006 124.88 2.13005 124.32 2.27005C124.27 2.10005 124.15 1.85005 124.06 1.68005C125.44 1.34005 127.02 0.830059 127.86 0.310059L128.57 0.910065C128.51 0.960065 128.43 0.970073 128.33 0.950073C127.93 1.17007 127.43 1.37006 126.85 1.56006V3.84006H128.4V3.92007H131.25V3.14008H129.06V2.56006H131.25V1.83005H128.64V1.23007H131.25V0.310059L132.28 0.380066C132.27 0.460066 132.2 0.52007 132.04 0.54007V1.24005H134.68V1.84006H132.04V2.57007H134.27V3.15005H132.04V3.93005H135.17V4.55005H128.39V4.60007H126.84V5.39008H126.83ZM134.3 9.60007H130.19L130.92 10.0101C130.92 10.0101 130.8 10.0801 130.69 10.0901C130.2 10.5801 129.19 11.1501 128.32 11.4801C128.21 11.3101 128 11.0701 127.84 10.9201C128.69 10.6101 129.7 10.0701 130.15 9.60007H129.05V5.16006H134.3V9.60007ZM129.8 5.72006V6.48007H133.52V5.72006H129.8ZM129.8 6.99005V7.75006H133.52V6.99005H129.8ZM129.8 8.26007V9.04007H133.52V8.26007H129.8ZM134.48 11.4601C134.02 11.0501 133.22 10.4801 132.49 10.0201L133.05 9.61005C133.83 10.05 134.7 10.6201 135.22 11.0401L134.48 11.4601Z" fill="white"/>
<path d="M145.09 1.3501H147.93V2.06009H145.09V2.74008H144.3V2.06009H140.81V2.74008H140.02V2.06009H137.26V1.3501H140.02V0.330078L141.04 0.390106C141.03 0.470106 140.97 0.530089 140.81 0.560089V1.3501H144.3V0.330078L145.32 0.390106C145.31 0.470106 145.25 0.530089 145.09 0.560089V1.3501ZM147.34 7.24008V10.6201C147.34 11.4301 146.99 11.4601 145.35 11.4601C145.31 11.2601 145.22 10.9901 145.11 10.7901C145.71 10.8001 146.21 10.8001 146.36 10.8001C146.52 10.7901 146.55 10.7501 146.55 10.6101V7.9501H142.94V9.3501L144.56 9.28009C144.37 8.98009 144.16 8.69008 143.95 8.43008L144.55 8.21008C145.11 8.86008 145.69 9.76009 145.88 10.3701L145.23 10.6001C145.16 10.3801 145.05 10.1401 144.92 9.8801C143.05 10.0101 141.08 10.1201 139.85 10.1801C139.83 10.2801 139.77 10.3201 139.68 10.3501L139.38 9.46008C140.12 9.44008 141.09 9.4101 142.16 9.3801V7.9501H138.66V11.4901H137.89V7.24008H142.16V6.59009H138.78V2.94009H146.47V6.59009H142.94V7.24008H147.34ZM139.54 3.53009V4.47009H142.15V3.53009H139.54ZM139.54 5.99008H142.15V5.0401H139.54V5.99008ZM145.67 4.47009V3.53009H142.94V4.47009H145.67ZM145.67 5.99008V5.0401H142.94V5.99008H145.67Z" fill="white"/>
<path d="M152.5 4.09006V7.94006C153.05 7.76006 153.62 7.57008 154.18 7.39008L154.3 8.10007C152.91 8.62007 151.43 9.16006 150.49 9.47006C150.49 9.58006 150.42 9.65007 150.35 9.67007L149.95 8.75006C150.44 8.61006 151.05 8.41007 151.72 8.20007V4.10007H150.15V3.32007H151.72V0.440063L152.74 0.500061C152.73 0.580061 152.67 0.640074 152.5 0.670074V3.32007H154.04V4.10007H152.5V4.09006ZM161.17 6.26007V7.03006H157.87V11.4701H157.08V7.03006H153.66V6.26007H157.08V1.73007H154.09V0.980072H160.84V1.73007H157.87V6.26007H161.17ZM155.37 5.76007C155.27 4.92007 154.9 3.64007 154.48 2.67007L155.16 2.47006C155.62 3.45006 155.99 4.71005 156.1 5.55005L155.37 5.77005V5.76007ZM160.72 2.77005C160.7 2.84005 160.6 2.87006 160.47 2.87006C160.21 3.75006 159.75 5.03006 159.37 5.84006C159.36 5.83006 158.76 5.59006 158.76 5.59006C159.13 4.75006 159.58 3.37007 159.8 2.42007L160.72 2.77005Z" fill="white"/>
<path d="M165.64 5.12006V9.04007C166.58 10.4701 168.29 10.4701 170.45 10.4701C171.75 10.4701 173.27 10.4301 174.2 10.3701C174.1 10.5601 173.96 10.9501 173.94 11.1901C173.11 11.2301 171.79 11.2501 170.61 11.2501C168.14 11.2501 166.5 11.2501 165.29 9.76007C164.7 10.2901 164.07 10.8301 163.55 11.2301C163.56 11.3401 163.53 11.3901 163.44 11.4201L162.97 10.5301C163.55 10.1501 164.25 9.59007 164.87 9.07007V5.88007H163.11V5.11005H165.65L165.64 5.12006ZM163.85 0.620056C164.65 1.14006 165.58 1.93005 166 2.52005L165.36 3.06006C164.96 2.46006 164.05 1.64007 163.25 1.10007L163.85 0.620056ZM174.01 4.39008V5.10007H166.2V4.39008H169.75V2.65005H168C167.76 3.19005 167.47 3.69005 167.18 4.08005C167.01 3.96005 166.7 3.82006 166.51 3.72006C167.11 2.98006 167.63 1.70007 167.94 0.480072L168.9 0.740051C168.88 0.820051 168.79 0.860046 168.65 0.860046C168.55 1.21005 168.43 1.57005 168.3 1.93005H169.75V0.320068L170.79 0.380066C170.78 0.460066 170.71 0.520049 170.55 0.550049V1.93005H173.48V2.65005H170.55V4.39008H174H174.01ZM173 9.70007H172.21V9.29007H168.18V9.73007H167.41V5.99005H173V9.70007ZM168.18 8.57007H172.21V6.66006H168.18V8.57007Z" fill="white"/>
<path d="M180.78 9.27005L180.82 9.95007C179.2 10.2601 177.52 10.5901 176.45 10.7801C176.44 10.8801 176.37 10.9401 176.29 10.9601L176 10.0601C176.56 9.98006 177.26 9.86005 178.03 9.74005V6.13007H176.14V5.41006H178.03V4.07007H176.82V3.82007C176.7 3.96007 176.58 4.10007 176.45 4.23007C176.33 4.05007 176.07 3.81007 175.89 3.70007C176.93 2.67007 177.73 1.33007 178.17 0.320068L179.14 0.480072C179.13 0.560072 179.06 0.620056 178.9 0.620056V0.640076C179.64 1.25008 180.52 2.08005 180.94 2.61005L180.46 3.24005C180.06 2.70005 179.27 1.91007 178.55 1.29007C178.2 1.94007 177.76 2.67006 177.21 3.37006H180.23V4.08005H178.77V5.42007H180.66V6.14008H178.77V9.63007L180.78 9.28006V9.27005ZM176.97 9.21005C176.92 8.59005 176.71 7.65005 176.44 6.93005L177.03 6.77005C177.31 7.49005 177.52 8.42005 177.58 9.02005L176.97 9.20007V9.21005ZM180.66 7.00006C180.62 7.07006 180.54 7.11005 180.42 7.11005C180.25 7.69005 179.95 8.56005 179.71 9.11005C179.7 9.11005 179.18 8.91006 179.17 8.91006C179.41 8.32006 179.7 7.37007 179.84 6.73007L180.66 7.01007V7.00006ZM183.26 9.55005C183.22 9.62005 183.14 9.65005 183.01 9.65005C182.33 10.3301 181.25 11.0401 180.29 11.4901C180.17 11.3301 179.93 11.0601 179.76 10.9101C180.67 10.5401 181.75 9.89007 182.36 9.20007L183.26 9.56006V9.55005ZM187.17 8.40005V9.11005H180.45V8.40005H187.17ZM183.43 2.98007V2.13007H180.66V1.45007H183.43V0.310059L184.44 0.380066C184.43 0.460066 184.37 0.51007 184.21 0.54007V1.45007H187.04V2.13007H184.21V2.98007H186.39V7.66006H181.35V2.98007H183.42H183.43ZM185.62 4.35007V3.55005H182.11V4.35007H185.62ZM185.62 5.72006V4.91006H182.11V5.72006H185.62ZM185.62 7.10007V6.27005H182.11V7.10007H185.62ZM186.56 11.4901C186.09 10.9601 185.16 10.1101 184.38 9.53006L185.06 9.17007C185.86 9.73007 186.79 10.5101 187.25 11.0301L186.55 11.4901H186.56Z" fill="white"/>
<path d="M190.77 2.38004C191 1.77004 191.24 0.930038 191.36 0.320038L192.39 0.570038C192.35 0.650038 192.28 0.690033 192.13 0.690033C192 1.18003 191.76 1.85004 191.53 2.38004H193.54V9.52002H190.25V10.52H189.49V2.39005H190.76L190.77 2.38004ZM192.77 5.52002V3.12003H190.25V5.52002H192.77ZM190.25 8.77002H192.77V6.24002H190.25V8.77002ZM199.33 2.40002L199.75 2.42004C199.74 2.48004 199.74 2.60002 199.74 2.68002C199.57 8.48002 199.42 10.4 198.95 10.98C198.65 11.39 198.33 11.46 197.49 11.46C197.09 11.46 196.6 11.45 196.11 11.41C196.09 11.18 195.99 10.85 195.85 10.64C196.7 10.7 197.47 10.7 197.81 10.7C198 10.7 198.13 10.65 198.25 10.52C198.63 10.1 198.81 8.23005 198.96 3.14005H195.59C195.21 4.20005 194.74 5.16003 194.21 5.87003C194.08 5.73003 193.79 5.46003 193.61 5.34003C194.46 4.20003 195.16 2.23003 195.57 0.280029L196.59 0.52002C196.55 0.63002 196.46 0.660024 196.33 0.650024C196.2 1.23002 196.04 1.81004 195.85 2.38004H199.35L199.33 2.40002ZM195.92 4.94003C196.62 5.88003 197.32 7.11002 197.58 7.93002L196.85 8.28003C196.6 7.47003 195.93 6.19004 195.23 5.26004L195.93 4.95004L195.92 4.94003Z" fill="white"/>
<path d="M206.06 7.00006C205.99 6.80006 205.89 6.55006 205.78 6.28006L204.68 6.34006V11.4701H203.96V6.37006C203.3 6.39006 202.7 6.42006 202.23 6.44006C202.21 6.54006 202.13 6.57007 202.05 6.60007L201.83 5.70007H202.66C202.92 5.38007 203.2 4.99007 203.49 4.60007C203.13 4.04007 202.51 3.34006 201.95 2.81006L202.38 2.29007C202.51 2.41007 202.63 2.53006 202.76 2.66006C203.17 1.95006 203.62 1.00007 203.89 0.320068L204.75 0.680054C204.69 0.760054 204.61 0.79006 204.49 0.78006C204.18 1.46006 203.65 2.44005 203.19 3.11005C203.47 3.41005 203.72 3.70006 203.9 3.97006C204.42 3.19006 204.9 2.36006 205.24 1.69006L206.08 2.09006C206.04 2.15006 205.95 2.20007 205.82 2.20007C205.21 3.22007 204.25 4.65006 203.41 5.69006L205.46 5.65005C205.24 5.24005 205 4.82005 204.75 4.46005L205.35 4.20007C205.9 4.98007 206.47 6.01005 206.67 6.68005L206.05 6.99005L206.06 7.00006ZM203.49 7.46005C203.47 7.54005 203.39 7.59006 203.25 7.59006C203.09 8.60006 202.82 9.75005 202.46 10.4601C202.3 10.3601 202.04 10.2401 201.86 10.1601C202.21 9.49006 202.46 8.34006 202.62 7.25006L203.5 7.47006L203.49 7.46005ZM205.9 9.61005C205.8 9.01005 205.5 8.10006 205.19 7.41006L205.8 7.22006C206.14 7.89006 206.45 8.79007 206.56 9.38007L205.9 9.61005ZM210.1 10.4601H213.13V11.1901H205.98V10.4601H209.28V8.00006H206.83V7.27005H212.71V8.00006H210.1V10.4601ZM208.55 2.40005C208.51 2.48005 208.44 2.53005 208.3 2.52005C208.07 2.95005 207.6 3.77008 207.2 4.39008C207.74 5.10008 208.28 5.97005 208.53 6.52005L207.86 6.82007C207.6 6.19007 207.03 5.24005 206.41 4.40005C206.89 3.66005 207.42 2.74006 207.69 2.16006L208.55 2.40005ZM213.04 0.960052V1.70007H206.47V0.960052H213.04ZM210.02 6.80005C209.74 6.18005 209.13 5.23008 208.46 4.39008C208.98 3.66008 209.53 2.73006 209.82 2.16006L210.67 2.40005C210.65 2.48005 210.56 2.53005 210.43 2.52005C210.19 2.95005 209.69 3.75007 209.28 4.38007C209.83 5.09007 210.42 5.95006 210.69 6.50006L210.02 6.80005ZM212.77 2.41006C212.73 2.49006 212.66 2.53005 212.52 2.52005C212.28 2.95005 211.78 3.77007 211.34 4.38007C211.93 5.09007 212.54 5.95006 212.84 6.50006L212.18 6.82007C211.87 6.19007 211.22 5.23005 210.52 4.40005C211.05 3.66005 211.61 2.74006 211.9 2.16006L212.76 2.41006H212.77Z" fill="white"/>
<path d="M215.95 7.9101C215.89 8.9801 215.78 10.1301 215.33 10.7901L214.86 10.5301C215.27 9.92009 215.4 8.8401 215.45 7.8201L215.95 7.9201V7.9101ZM219.3 6.3501L219.67 6.39011C219.67 6.46011 219.66 6.56009 219.66 6.65009C219.53 9.76009 219.41 10.8101 219.11 11.1601C218.92 11.4101 218.73 11.4701 218.04 11.4701C217.85 11.4701 217.64 11.4701 217.44 11.4601C217.43 11.2701 217.36 10.9801 217.26 10.8101C217.68 10.8501 218.05 10.8501 218.21 10.8501C218.37 10.8501 218.45 10.8401 218.53 10.7201C218.65 10.5801 218.75 10.1301 218.84 9.15009L218.43 9.3201C218.3 8.8801 218 8.22008 217.7 7.71008L218.08 7.5701C218.38 8.0501 218.68 8.67009 218.82 9.09009H218.83C218.88 8.57009 218.91 7.89009 218.95 7.03009H216.19V7.4101H215.51V0.830078H219.55V1.5101H217.99V2.7001H219.31V3.3501H217.99V4.53009H219.32V5.18008H217.99V6.3801H219.29L219.3 6.3501ZM217.34 1.49008H216.2V2.68008H217.34V1.49008ZM217.34 4.50009V3.3201H216.2V4.50009H217.34ZM216.2 5.15009V6.3501H217.34V5.15009H216.2ZM216.38 10.2201C216.39 9.62009 216.33 8.7201 216.21 8.0101L216.65 7.9501C216.78 8.6601 216.85 9.5701 216.84 10.1601L216.37 10.2201H216.38ZM217.36 7.7901C217.61 8.4001 217.84 9.22008 217.9 9.74008L217.46 9.84009C217.4 9.31009 217.2 8.50009 216.96 7.87009L217.37 7.7901H217.36ZM223.38 0.380096C223.37 0.450096 223.3 0.510081 223.21 0.520081C223.91 1.66008 225.17 2.85009 226.3 3.47009C226.14 3.66009 225.96 3.9501 225.86 4.1701C224.71 3.4501 223.46 2.23009 222.77 1.09009C222.16 2.19009 221 3.4501 219.75 4.2301C219.67 4.0401 219.49 3.76008 219.34 3.58008C220.6 2.85008 221.82 1.53008 222.37 0.330078L223.38 0.380096ZM222.22 10.7501C222 10.4701 221.63 10.0701 221.26 9.71008C220.94 10.4501 220.47 11.0701 219.87 11.4701C219.77 11.3401 219.56 11.1201 219.39 11.0101C220.31 10.4001 220.87 9.2501 221.07 7.8201L221.96 7.9501C221.94 8.0301 221.88 8.08009 221.74 8.09009C221.68 8.44009 221.6 8.7601 221.5 9.0701C221.96 9.4701 222.46 9.97008 222.72 10.3001L222.22 10.7301V10.7501ZM220.12 7.4801V4.7001H222.54V7.4801H220.12ZM220.72 5.27008V6.90009H221.92V5.27008H220.72ZM224.53 3.24008V3.89011H221.15V3.24008H224.53ZM225.67 11.4601C225.37 11.0001 224.79 10.3401 224.26 9.77008C223.92 10.4701 223.48 11.0501 222.89 11.4501C222.78 11.3201 222.55 11.0901 222.4 10.9801C223.32 10.3701 223.89 9.23009 224.1 7.81009L225 7.9501C224.99 8.0201 224.92 8.07008 224.77 8.08008C224.71 8.44008 224.61 8.80009 224.51 9.12009C225.13 9.72009 225.85 10.5101 226.21 11.0201L225.67 11.4501V11.4601ZM225.67 4.7001V7.4801H223.18V4.7001H225.67ZM225.05 6.9101V5.28009H223.78V6.9101H225.05Z" fill="white"/>
<path d="M230.58 1.78009C229.84 1.95009 229.06 2.10009 228.33 2.22009C228.29 2.04009 228.19 1.7801 228.08 1.6001C229.76 1.3001 231.68 0.840078 232.7 0.330078L233.44 0.950104C233.44 0.950104 233.37 0.990082 233.2 0.990082C232.71 1.20008 232.07 1.41009 231.36 1.59009V3.94009H233.42V4.69009H231.36V5.4101C231.86 5.8701 233.1 7.12008 233.4 7.46008L232.9 8.12009C232.61 7.71009 231.9 6.90009 231.36 6.28009V11.4501H230.58V5.8801C229.98 7.3301 229.16 8.7801 228.37 9.6301C228.27 9.4001 228.07 9.09009 227.91 8.90009C228.82 7.95009 229.81 6.24008 230.36 4.68008H228.07V3.93008H230.58V1.77008V1.78009ZM233.91 1.65009H238.58V11.0401H237.75V10.2001H234.7V11.1401H233.91V1.65009ZM234.7 9.4201H237.75V2.43008H234.7V9.4201Z" fill="white"/>
<path d="M244.94 9.72006C245.4 9.96006 245.55 10.0601 245.7 10.1501C245.65 10.2001 245.57 10.2201 245.46 10.2301C244.67 10.7301 242.97 11.2501 241.54 11.5001C241.43 11.3401 241.2 11.0801 241.05 10.9201C242.48 10.7001 244.2 10.2101 244.95 9.71005L244.94 9.72006ZM249.77 3.58005H252.01V4.22006H249.72L249.62 5.32007H243.13L243.27 4.22006H241.1V3.58005H243.35L243.48 2.51007H249.85L249.75 3.58005H249.77ZM242.3 1.93005V3.16006H241.56V1.25006H246.13V0.310059L247.17 0.370056C247.16 0.470056 247.09 0.51007 246.93 0.54007V1.25006H251.56V3.16006H250.79V1.93005H242.3ZM250.34 5.85007V9.69006H242.82V5.85007H250.34ZM249.52 6.95007V6.37006H243.6V6.95007H249.52ZM249.52 8.05005V7.45007H243.6V8.05005H249.52ZM249.52 9.17007V8.56006H243.6V9.17007H249.52ZM244.02 4.16006L243.94 4.81006H246.04C246.06 4.61006 246.1 4.39006 246.12 4.16006H244.02ZM246.17 3.63007C246.18 3.42007 246.21 3.22006 246.22 3.03006H244.17L244.1 3.63007H246.17ZM246.75 4.80005H248.93L248.98 4.15005H246.82L246.75 4.80005ZM249.03 3.63007L249.08 3.03006H246.91L246.87 3.63007H249.03ZM251.33 11.4901C250.42 11.1401 248.93 10.6401 247.4 10.2201L247.95 9.75006C249.44 10.1501 251.03 10.6401 252.02 11.0001L251.34 11.4901H251.33Z" fill="white"/>
<path d="M263.63 3.00009C263.81 3.00009 263.83 3.00008 264.01 2.99008L264.48 3.0401C264.48 3.1101 264.47 3.2301 264.46 3.3201C264.28 8.5901 264.1 10.3701 263.62 10.9201C263.28 11.3401 262.9 11.4101 262.12 11.4101C261.71 11.4101 261.2 11.4001 260.71 11.3601C260.7 11.1201 260.59 10.7601 260.42 10.5201C261.27 10.5901 262.04 10.6001 262.34 10.6001C262.59 10.6001 262.74 10.5601 262.87 10.4201C263.27 10.0201 263.46 8.30009 263.61 3.81009H259.3C259.13 6.35009 258.32 9.3101 254.75 11.5101C254.62 11.3101 254.32 11.0101 254.13 10.8801C257.5 8.8501 258.29 6.1401 258.46 3.8201H254.48V3.00009H258.5C258.51 2.78009 258.51 2.5801 258.51 2.3801V0.340088L259.59 0.410095C259.58 0.490095 259.51 0.550078 259.35 0.580078V2.3801C259.35 2.5801 259.35 2.79009 259.34 3.00009H263.63Z" fill="white"/>
<path d="M267.22 11.59C267.41 10.99 267.65 9.80001 267.75 9.04001L269.05 8.87C268.8 9.78 268.29 11.03 268.02 11.5L267.23 11.6L267.22 11.59Z" fill="white"/>
<path d="M277.05 0.590057C277.01 0.670057 276.93 0.710062 276.79 0.720062C276.5 1.43006 276.08 2.36006 275.67 3.12006C276.52 3.10006 277.47 3.06005 278.43 3.02005C278.15 2.56005 277.84 2.10006 277.53 1.69006L278.19 1.41006C278.86 2.24006 279.56 3.35007 279.85 4.10007L279.15 4.42007C279.07 4.20007 278.96 3.95006 278.81 3.69006C277.13 3.81006 275.4 3.89006 274.3 3.94006C274.29 4.04006 274.2 4.08005 274.12 4.11005L273.86 3.16006L274.84 3.14008C275.28 2.32008 275.79 1.16007 276.06 0.320068L277.04 0.580048L277.05 0.590057ZM278.99 4.91006V10.5301C278.99 11.4301 278.51 11.4701 276.99 11.4701C276.94 11.2501 276.82 10.9301 276.7 10.7101C277.06 10.7201 277.38 10.7301 277.62 10.7301C278.14 10.7301 278.2 10.7301 278.2 10.5101V9.19006H275.47V11.4901H274.71V4.89008H278.99V4.91006ZM278.2 5.61005H275.47V6.73007H278.2V5.61005ZM275.47 8.56006H278.2V7.37006H275.47V8.56006ZM283.69 4.90005C284.18 4.90005 284.27 4.69005 284.31 3.46005C284.49 3.60005 284.81 3.72006 285.05 3.78006C284.94 5.24006 284.7 5.64008 283.75 5.64008H281.58C280.46 5.64008 280.17 5.39007 280.17 4.45007V0.340057L281.2 0.400055C281.19 0.480055 281.13 0.540068 280.97 0.570068V2.44006C282.05 2.08006 283.19 1.64007 283.9 1.26007L284.51 1.92007C284.51 1.92007 284.44 1.96005 284.39 1.96005C284.35 1.96005 284.32 1.96007 284.28 1.95007C283.46 2.32007 282.16 2.75007 280.97 3.10007V4.44006C280.97 4.82006 281.07 4.90005 281.64 4.90005H283.68H283.69ZM280.97 10.1501C280.97 10.5601 281.09 10.6301 281.69 10.6301H283.8C284.34 10.6301 284.42 10.3901 284.47 9.00006C284.66 9.13006 284.99 9.25006 285.2 9.31006C285.1 10.9301 284.86 11.3501 283.86 11.3501H281.62C280.49 11.3501 280.18 11.1101 280.18 10.1601V6.00006L281.21 6.06006C281.2 6.14006 281.14 6.20007 280.97 6.23007V7.98007C282.12 7.63007 283.36 7.14005 284.08 6.68005L284.68 7.35007C284.68 7.35007 284.61 7.39008 284.55 7.39008C284.53 7.39008 284.49 7.39007 284.45 7.38007C283.65 7.84007 282.23 8.32006 280.97 8.66006V10.1501Z" fill="white"/>
<path d="M290.07 7.44006V9.89008C290.84 10.2601 291.84 10.3801 293.18 10.3801C293.72 10.3801 297.53 10.38 298.22 10.36C298.09 10.55 297.94 10.9201 297.9 11.1501H293.2C290.49 11.1501 289.04 10.7201 288.17 8.93005C288.03 9.97005 287.8 10.8901 287.44 11.5301C287.3 11.4201 287.03 11.2801 286.85 11.1901C287.46 10.0601 287.62 7.99007 287.67 5.82007L288.62 5.95007C288.6 6.05007 288.52 6.08006 288.39 6.09006C288.37 6.55006 288.35 7.00005 288.32 7.46005C288.56 8.31005 288.9 8.93007 289.35 9.38007V4.99005H287V4.26007H289.33V2.56006H287.34V1.83005H289.33V0.320068L290.33 0.380066C290.32 0.460066 290.25 0.520049 290.09 0.550049V1.83005H292.02V2.56006H290.09V4.26007H292.26V4.81006C293.36 4.19006 293.95 3.07007 294.17 1.51007H292.38V0.800049H297.3L297.73 0.840057C297.73 0.910057 297.72 1.01007 297.71 1.10007C297.6 3.36007 297.48 4.21007 297.21 4.51007C296.97 4.77007 296.77 4.81006 295.96 4.81006C295.73 4.81006 295.47 4.81005 295.19 4.80005C295.17 4.58005 295.09 4.28006 294.97 4.09006C295.5 4.14006 295.99 4.14008 296.17 4.14008C296.35 4.14008 296.47 4.13006 296.54 4.03006C296.71 3.84006 296.82 3.19007 296.91 1.51007H294.95C294.71 3.36007 293.97 4.70007 292.62 5.42007C292.51 5.30007 292.31 5.12005 292.13 4.99005H290.08V6.72006H292.01V7.44006H290.08H290.07ZM297.42 9.83005H296.65V9.24005H293.53V9.84006H292.77V5.51007H297.41V9.83005H297.42ZM293.53 8.55005H296.65V6.21005H293.53V8.55005Z" fill="white"/>
<path d="M303.28 7.44006V9.91006C304.06 10.2701 305.07 10.3801 306.36 10.3801C306.86 10.3801 310.53 10.38 311.19 10.36C311.06 10.55 310.91 10.9201 310.87 11.1501H306.36C303.64 11.1501 302.11 10.7101 301.2 8.84006C301.04 9.76006 300.77 10.6701 300.29 11.4401C300.17 11.2701 299.92 11.0501 299.74 10.9601C300.63 9.50005 300.75 7.43006 300.71 5.81006L301.62 5.86005C301.61 5.96005 301.54 6.02006 301.39 6.03006C301.39 6.46006 301.39 6.93007 301.35 7.42007C301.63 8.34007 302.01 9.00007 302.53 9.45007V4.96005H299.99V4.23007H302.36V2.60007H300.46V1.87006H302.36V0.320068L303.34 0.380066C303.33 0.460066 303.27 0.520049 303.11 0.550049V1.87006H304.97V2.60007H303.11V4.23007H305.22V4.96005H303.26V6.71005H305.06V7.44006H303.26H303.28ZM304.62 8.34006C304.88 8.22006 305.2 8.09005 305.53 7.93005V2.47006H307.76C307.72 1.77006 307.7 1.04007 307.69 0.320068L308.71 0.370056C308.7 0.470056 308.63 0.53007 308.47 0.54007C308.47 1.19007 308.48 1.84006 308.52 2.47006H311.11V3.18005H308.56C308.66 4.48005 308.81 5.68006 309.03 6.62006C309.47 5.82006 309.85 4.91005 310.09 3.93005L310.93 4.29007C310.91 4.36007 310.83 4.40005 310.7 4.40005C310.38 5.52005 309.9 6.59005 309.3 7.52005C309.56 8.29005 309.89 8.74005 310.26 8.74005C310.51 8.74005 310.64 8.19007 310.68 6.92007C310.85 7.08007 311.09 7.24007 311.27 7.32007C311.14 9.00007 310.89 9.52005 310.19 9.52005C309.61 9.52005 309.16 9.04005 308.8 8.24005C308.39 8.77005 307.95 9.24006 307.48 9.62006C307.37 9.50006 307.13 9.28006 306.96 9.16006C307.52 8.72006 308.05 8.15007 308.51 7.48007C308.17 6.35007 307.95 4.84006 307.83 3.19006H306.28V7.59006C306.78 7.35006 307.31 7.09005 307.84 6.83005L307.98 7.45007C306.92 8.00007 305.83 8.59006 305.11 8.94006C305.11 9.04006 305.06 9.11008 304.99 9.14008L304.63 8.34006H304.62ZM309.6 0.440063C310.07 0.880063 310.61 1.50005 310.85 1.90005L310.25 2.26007C310.02 1.84007 309.49 1.20006 309.04 0.750061L309.6 0.440063Z" fill="white"/>
<path d="M315.19 8.61005C315.72 8.48005 316.26 8.35007 316.8 8.20007L316.87 8.91006C315.56 9.28006 314.2 9.65007 313.33 9.88007C313.32 9.98007 313.26 10.0501 313.17 10.0601L312.87 9.16006C313.3 9.06006 313.83 8.94005 314.42 8.80005V5.67007H313.18V4.91006H314.42V2.25006H313.02V1.48007H316.62V2.25006H315.19V4.91006H316.44V5.67007H315.19V8.61005ZM319.09 9.39008C319.05 9.46008 318.96 9.50005 318.84 9.49005C318.3 10.1301 317.43 10.8001 316.63 11.2301C316.51 11.0701 316.26 10.8501 316.09 10.7101C316.85 10.3401 317.71 9.71005 318.2 9.05005L319.09 9.39008ZM323.96 4.88007V5.56006H316.68V4.88007H319.87V4.06006H317.47V0.800049H323.17V4.06006H320.93C320.91 4.14006 320.85 4.18007 320.69 4.20007V4.87006H323.96V4.88007ZM323.07 8.69006H320.68V10.6301C320.68 11.4301 320.37 11.4601 318.7 11.4601C318.66 11.2401 318.57 10.9901 318.46 10.7901C318.82 10.8001 319.13 10.8101 319.36 10.8101C319.88 10.8101 319.9 10.8001 319.9 10.6301V8.69006H317.59V6.24005H323.07V8.69006ZM318.21 1.36005V2.15005H322.4V1.36005H318.21ZM318.21 2.69006V3.49005H322.4V2.69006H318.21ZM318.34 6.83005V8.10007H322.29V6.83005H318.34ZM323.35 11.1601C322.98 10.6701 322.17 9.93007 321.49 9.42007L322.1 9.05005C322.77 9.53005 323.6 10.2501 324 10.7401L323.35 11.1601Z" fill="white"/>
<path d="M329.22 4.08008H329.78C330.54 3.13008 331.18 2.07009 331.69 0.900085L332.6 1.21008C332.56 1.29008 332.46 1.34008 332.31 1.33008C331.87 2.31008 331.33 3.24008 330.7 4.08008H332.26V4.80008H330.13C329.73 5.28008 329.3 5.7201 328.85 6.1301H331.66V11.2901H330.89V10.8101H328.04V11.5101H327.28V7.36008C326.96 7.58008 326.62 7.77008 326.27 7.96008C326.16 7.80008 325.95 7.5001 325.8 7.3501C326.32 7.0901 326.81 6.7901 327.28 6.4501V6.14011H327.71C328.21 5.74011 328.71 5.29009 329.16 4.81009H325.97V4.09009H328.45V2.47009H326.52V1.75009H328.45V0.330078L329.45 0.390106C329.44 0.470106 329.38 0.530089 329.22 0.560089V1.75009H330.78V2.47009H329.22V4.09009V4.08008ZM330.89 8.1301V6.81009H328.04V8.1301H330.89ZM328.04 10.1201H330.89V8.7901H328.04V10.1201ZM332.74 1.02008H336.37C336.5 0.980081 336.51 0.980103 336.54 0.980103C336.6 1.0201 336.66 1.06008 337.07 1.24008C337.06 1.29008 337.01 1.34008 336.96 1.36008C336.52 2.39008 335.89 3.7001 335.26 4.9801C336.52 6.2101 337.05 7.1401 337.05 8.0101C337.05 9.9201 335.79 9.9201 335 9.9201C334.81 9.9201 334.63 9.9201 334.45 9.9101C334.44 9.6801 334.33 9.33008 334.17 9.11008C334.49 9.13008 334.82 9.15009 335.08 9.15009C335.61 9.15009 336.24 9.15009 336.24 8.00009C336.24 7.21009 335.68 6.3601 334.39 5.1301C334.95 3.9201 335.47 2.77009 335.87 1.78009H333.53V11.4601H332.74V1.0101V1.02008Z" fill="white"/>
<path d="M340.72 2.38004C340.95 1.77004 341.19 0.930038 341.31 0.320038L342.34 0.570038C342.3 0.650038 342.23 0.690033 342.08 0.690033C341.95 1.18003 341.71 1.85004 341.48 2.38004H343.49V9.52002H340.2V10.52H339.44V2.39005H340.71L340.72 2.38004ZM342.72 5.52002V3.12003H340.2V5.52002H342.72ZM340.2 8.77002H342.72V6.24002H340.2V8.77002ZM349.28 2.40002L349.7 2.42004C349.69 2.48004 349.69 2.60002 349.69 2.68002C349.52 8.48002 349.37 10.4 348.9 10.98C348.6 11.39 348.28 11.46 347.44 11.46C347.04 11.46 346.55 11.45 346.06 11.41C346.04 11.18 345.94 10.85 345.8 10.64C346.65 10.7 347.42 10.7 347.76 10.7C347.95 10.7 348.08 10.65 348.2 10.52C348.58 10.1 348.76 8.23005 348.91 3.14005H345.54C345.16 4.20005 344.69 5.16003 344.16 5.87003C344.03 5.73003 343.74 5.46003 343.56 5.34003C344.41 4.20003 345.11 2.23003 345.52 0.280029L346.54 0.52002C346.5 0.63002 346.41 0.660024 346.28 0.650024C346.15 1.23002 345.99 1.81004 345.8 2.38004H349.3L349.28 2.40002ZM345.87 4.94003C346.57 5.88003 347.27 7.11002 347.53 7.93002L346.8 8.28003C346.55 7.47003 345.88 6.19004 345.18 5.26004L345.88 4.95004L345.87 4.94003Z" fill="white"/>
<path d="M356.47 8.50003C356.43 8.57003 356.36 8.62004 356.19 8.60004C355.41 9.57004 353.96 10.75 352.68 11.49C352.52 11.32 352.22 11.05 352.03 10.91C353.31 10.21 354.75 9.10004 355.46 8.10004L356.47 8.50003ZM354.14 7.24002V7.68002H353.34V1.17004H361.66V7.62003H360.83V7.24002H354.14ZM360.83 1.95004H354.14V6.46002H360.83V1.95004ZM361.92 11.5C361.21 10.68 359.74 9.44003 358.53 8.56003L359.17 8.13004C360.37 8.97004 361.88 10.18 362.62 11.01L361.92 11.5Z" fill="white"/>
<path d="M375.58 2.70007H369.04C368.81 3.20007 368.56 3.70007 368.28 4.17007H374.07V10.4101C374.07 11.4301 373.59 11.4501 371.44 11.4501C371.4 11.2201 371.28 10.8701 371.16 10.6501C371.58 10.6601 371.98 10.6601 372.3 10.6601C373.16 10.6601 373.26 10.6601 373.26 10.4001V9.03006H368.19V11.4501H367.39V5.51007C366.78 6.33007 366.07 7.06006 365.24 7.66006C365.12 7.48006 364.87 7.18007 364.7 7.01007C366.19 5.97007 367.33 4.38006 368.11 2.69006H364.96V1.91006H368.45C368.67 1.38006 368.83 0.840059 368.98 0.310059L370.02 0.570068C370 0.650068 369.9 0.700073 369.76 0.700073C369.64 1.09007 369.51 1.49005 369.35 1.90005H375.57V2.68005L375.58 2.70007ZM373.28 6.25006V4.91006H368.21V6.25006H373.28ZM368.21 8.33005H373.28V6.96005H368.21V8.33005Z" fill="white"/>
<path d="M379.93 8.61005C380.46 8.48005 381 8.35007 381.54 8.20007L381.61 8.91006C380.3 9.28006 378.94 9.65007 378.07 9.88007C378.06 9.98007 378 10.0501 377.91 10.0601L377.61 9.16006C378.04 9.06006 378.57 8.94005 379.16 8.80005V5.67007H377.92V4.91006H379.16V2.25006H377.76V1.48007H381.36V2.25006H379.93V4.91006H381.18V5.67007H379.93V8.61005ZM383.83 9.39008C383.79 9.46008 383.7 9.50005 383.58 9.49005C383.04 10.1301 382.17 10.8001 381.37 11.2301C381.25 11.0701 381 10.8501 380.83 10.7101C381.59 10.3401 382.45 9.71005 382.94 9.05005L383.83 9.39008ZM388.7 4.88007V5.56006H381.42V4.88007H384.61V4.06006H382.21V0.800049H387.91V4.06006H385.67C385.65 4.14006 385.59 4.18007 385.43 4.20007V4.87006H388.7V4.88007ZM387.81 8.69006H385.42V10.6301C385.42 11.4301 385.11 11.4601 383.44 11.4601C383.4 11.2401 383.31 10.9901 383.2 10.7901C383.56 10.8001 383.87 10.8101 384.1 10.8101C384.62 10.8101 384.64 10.8001 384.64 10.6301V8.69006H382.33V6.24005H387.81V8.69006ZM382.95 1.36005V2.15005H387.14V1.36005H382.95ZM382.95 2.69006V3.49005H387.14V2.69006H382.95ZM383.08 6.83005V8.10007H387.03V6.83005H383.08ZM388.09 11.1601C387.72 10.6701 386.91 9.93007 386.23 9.42007L386.84 9.05005C387.51 9.53005 388.34 10.2501 388.74 10.7401L388.09 11.1601Z" fill="white"/>
<path d="M393.96 4.08008H394.52C395.28 3.13008 395.92 2.07009 396.43 0.900085L397.34 1.21008C397.3 1.29008 397.2 1.34008 397.05 1.33008C396.61 2.31008 396.07 3.24008 395.44 4.08008H397V4.80008H394.87C394.47 5.28008 394.04 5.7201 393.59 6.1301H396.4V11.2901H395.63V10.8101H392.78V11.5101H392.02V7.36008C391.7 7.58008 391.36 7.77008 391.01 7.96008C390.9 7.80008 390.69 7.5001 390.54 7.3501C391.06 7.0901 391.55 6.7901 392.02 6.4501V6.14011H392.45C392.95 5.74011 393.45 5.29009 393.9 4.81009H390.71V4.09009H393.19V2.47009H391.26V1.75009H393.19V0.330078L394.19 0.390106C394.18 0.470106 394.12 0.530089 393.96 0.560089V1.75009H395.52V2.47009H393.96V4.09009V4.08008ZM395.63 8.1301V6.81009H392.78V8.1301H395.63ZM392.78 10.1201H395.63V8.7901H392.78V10.1201ZM397.48 1.02008H401.11C401.24 0.980081 401.25 0.980103 401.28 0.980103C401.34 1.0201 401.4 1.06008 401.81 1.24008C401.8 1.29008 401.75 1.34008 401.7 1.36008C401.26 2.39008 400.63 3.7001 400 4.9801C401.26 6.2101 401.79 7.1401 401.79 8.0101C401.79 9.9201 400.53 9.9201 399.74 9.9201C399.55 9.9201 399.37 9.9201 399.19 9.9101C399.18 9.6801 399.07 9.33008 398.91 9.11008C399.23 9.13008 399.56 9.15009 399.82 9.15009C400.35 9.15009 400.98 9.15009 400.98 8.00009C400.98 7.21009 400.42 6.3601 399.13 5.1301C399.69 3.9201 400.21 2.77009 400.61 1.78009H398.27V11.4601H397.48V1.0101V1.02008Z" fill="white"/>
<path d="M406.78 9.79001C406.78 10.71 406.02 11.47 405.1 11.47C404.18 11.47 403.42 10.71 403.42 9.79001C403.42 8.87001 404.18 8.10999 405.1 8.10999C406.02 8.10999 406.78 8.89001 406.78 9.79001ZM406.35 9.79001C406.35 9.09001 405.8 8.54001 405.1 8.54001C404.4 8.54001 403.86 9.09001 403.86 9.79001C403.86 10.49 404.41 11.03 405.1 11.03C405.82 11.03 406.35 10.45 406.35 9.79001Z" fill="white"/>
<path d="M412.2 7.46008C412.16 7.53008 412.09 7.58008 411.96 7.58008C411.79 8.60008 411.49 9.75008 411.11 10.4601C410.97 10.3501 410.7 10.2301 410.52 10.1501C410.88 9.48009 411.14 8.34008 411.31 7.24008L412.2 7.47009V7.46008ZM414.72 7.06009C414.66 6.84009 414.58 6.60008 414.47 6.33008L413.44 6.39011V11.5001H412.71V6.43008C412.06 6.47008 411.49 6.49009 411.02 6.50009C411 6.60009 410.92 6.6401 410.84 6.6701L410.64 5.77008H411.4C411.68 5.42008 411.98 5.01008 412.29 4.58008C411.89 4.04008 411.25 3.3301 410.67 2.8201L411.08 2.2901C411.2 2.4001 411.33 2.5101 411.45 2.6301C411.87 1.9301 412.33 1.00008 412.59 0.330078L413.44 0.690094C413.4 0.760094 413.32 0.800079 413.19 0.800079C412.88 1.47008 412.36 2.42008 411.92 3.08008C412.22 3.39008 412.5 3.7001 412.7 3.9801C413.22 3.2001 413.71 2.3701 414.06 1.7001L414.9 2.1001C414.86 2.1601 414.77 2.21008 414.64 2.21008C414.02 3.25008 413.03 4.7001 412.17 5.7601L414.22 5.72009C414.03 5.31009 413.81 4.89009 413.58 4.53009L414.18 4.28009C414.7 5.07009 415.2 6.13009 415.38 6.78009L414.74 7.08008L414.72 7.06009ZM414.73 9.78009C414.62 9.13009 414.29 8.14011 413.95 7.39011L414.56 7.19009C414.93 7.94009 415.27 8.92008 415.4 9.55008L414.73 9.78009ZM416.58 9.9201C416.58 10.4201 416.72 10.5401 417.5 10.5401H420.34C421 10.5401 421.11 10.2601 421.18 8.93008C421.37 9.06008 421.67 9.1901 421.89 9.2301C421.77 10.8001 421.52 11.2601 420.37 11.2601H417.48C416.21 11.2601 415.84 11.0001 415.84 9.9201V4.74008C415.64 4.90008 415.41 5.0401 415.18 5.1601C415.08 4.9801 414.87 4.7201 414.72 4.6001C415.93 3.9801 416.75 2.8601 417.12 1.7001H415.19V0.980103H420.36L420.53 0.960083L420.96 1.06009C420.95 1.13009 420.94 1.2201 420.91 1.2901C420.66 4.0401 420.44 4.0401 419.34 4.0401C419.11 4.0401 418.84 4.03008 418.57 4.02008C418.55 3.82008 418.47 3.5401 418.37 3.3501C418.84 3.4001 419.27 3.40009 419.44 3.40009C419.61 3.40009 419.69 3.3901 419.79 3.3201C419.93 3.1601 420.04 2.74009 420.14 1.72009H417.93C417.68 2.57009 417.2 3.46009 416.49 4.19009H421.36V8.14011H420.62V7.6601H416.59V9.9501L416.58 9.9201ZM418.2 4.89011H416.58V6.90009H418.2V4.89011ZM420.61 6.90009V4.89011H418.91V6.90009H420.61Z" fill="white"/>
<path d="M425.53 4.63007V2.89008C425.15 3.33008 424.73 3.74005 424.32 4.08005C424.18 3.92005 423.9 3.70005 423.72 3.58005C424.7 2.84005 425.71 1.59007 426.31 0.320068L427.26 0.660065C427.22 0.730065 427.14 0.780071 427 0.760071C426.83 1.10007 426.63 1.43007 426.41 1.76007H434.21V2.49005H432.93V4.65005H434.68V5.38007H432.93V7.56006H434.5V8.29007H424.02V7.56006H425.54V5.38007H423.84V4.65005H425.54L425.53 4.63007ZM426.03 9.04007C425.72 9.94007 425.15 10.9001 424.48 11.4801L423.74 11.1601C424.39 10.6601 424.96 9.73007 425.28 8.85007L426.04 9.05005L426.03 9.04007ZM426.27 2.47006V4.63007H427.71V2.47006H426.27ZM426.27 5.36005V7.54007H427.71V5.36005H426.27ZM427.64 11.36C427.63 10.8 427.53 9.86008 427.39 9.14008L428.12 9.07007C428.29 9.78007 428.42 10.7001 428.43 11.2401L427.64 11.36ZM429.92 2.47006H428.42V4.63007H429.92V2.47006ZM429.92 5.36005H428.42V7.54007H429.92V5.36005ZM430.63 11.3701C430.52 10.7901 430.2 9.85008 429.87 9.14008L430.63 9.00006C430.97 9.70006 431.3 10.6301 431.42 11.1901L430.63 11.3701ZM432.17 4.63007V2.47006H430.63V4.63007H432.17ZM432.17 7.55005V5.37006H430.63V7.55005H432.17ZM434 11.5001C433.7 10.8501 432.99 9.81007 432.38 9.07007L433.12 8.81006C433.74 9.54006 434.46 10.5501 434.79 11.2101L434 11.5101V11.5001Z" fill="white"/>
<path d="M438.15 4.60001C437.72 5.33001 437.26 6.00001 436.78 6.57001C436.68 6.38001 436.49 5.99 436.36 5.81C437.46 4.56 438.54 2.47999 439.21 0.399994L440.16 0.709991C440.14 0.789991 440.04 0.839987 439.9 0.829987C439.61 1.62999 439.28 2.43999 438.89 3.20999L439.17 3.29001C439.16 3.36001 439.09 3.42001 438.93 3.45001V11.49H438.15V4.60999V4.60001ZM444.27 10.48H447.83V11.15H439.88V10.48H443.48V9.39999H440.64V8.75H443.48V7.76999H440.4V7.10999H443.48V6.25H440.64V3.42999H447.2V6.25H444.27V7.10999H447.41V7.76999H444.27V8.75H447.22V9.39999H444.27V10.48ZM440.17 1.53H442V0.380005L442.98 0.440002C442.97 0.520002 442.91 0.580006 442.75 0.600006V1.54001H445V0.380005L446 0.450012C445.99 0.520012 445.93 0.579985 445.77 0.609985V1.54999H447.72V2.25H445.77V3.10999H445V2.25H442.75V3.13H441.99V2.25H440.16V1.54999L440.17 1.53ZM441.39 5.60001H443.48V4.07999H441.39V5.60001ZM446.42 5.60001V4.07999H444.27V5.60001H446.42Z" fill="white"/>
<path d="M460.55 2.70007H454.01C453.78 3.20007 453.53 3.70007 453.25 4.17007H459.04V10.4101C459.04 11.4301 458.56 11.4501 456.41 11.4501C456.37 11.2201 456.25 10.8701 456.13 10.6501C456.55 10.6601 456.95 10.6601 457.27 10.6601C458.13 10.6601 458.23 10.6601 458.23 10.4001V9.03006H453.16V11.4501H452.36V5.51007C451.75 6.33007 451.04 7.06006 450.21 7.66006C450.09 7.48006 449.84 7.18007 449.67 7.01007C451.16 5.97007 452.3 4.38006 453.08 2.69006H449.93V1.91006H453.42C453.64 1.38006 453.8 0.840059 453.95 0.310059L454.99 0.570068C454.97 0.650068 454.87 0.700073 454.73 0.700073C454.61 1.09007 454.48 1.49005 454.32 1.90005H460.54V2.68005L460.55 2.70007ZM458.25 6.25006V4.91006H453.18V6.25006H458.25ZM453.18 8.33005H458.25V6.96005H453.18V8.33005Z" fill="white"/>
<path d="M464.43 2.38004C464.66 1.77004 464.9 0.930038 465.02 0.320038L466.05 0.570038C466.01 0.650038 465.94 0.690033 465.79 0.690033C465.66 1.18003 465.42 1.85004 465.19 2.38004H467.2V9.52002H463.91V10.52H463.15V2.39005H464.42L464.43 2.38004ZM466.43 5.52002V3.12003H463.91V5.52002H466.43ZM463.91 8.77002H466.43V6.24002H463.91V8.77002ZM472.99 2.40002L473.41 2.42004C473.4 2.48004 473.4 2.60002 473.4 2.68002C473.23 8.48002 473.08 10.4 472.61 10.98C472.31 11.39 471.99 11.46 471.15 11.46C470.75 11.46 470.26 11.45 469.77 11.41C469.75 11.18 469.65 10.85 469.51 10.64C470.36 10.7 471.13 10.7 471.47 10.7C471.66 10.7 471.79 10.65 471.91 10.52C472.29 10.1 472.47 8.23005 472.62 3.14005H469.25C468.87 4.20005 468.4 5.16003 467.87 5.87003C467.74 5.73003 467.45 5.46003 467.27 5.34003C468.12 4.20003 468.82 2.23003 469.22 0.280029L470.24 0.52002C470.2 0.63002 470.11 0.660024 469.98 0.650024C469.85 1.23002 469.69 1.81004 469.5 2.38004H473L472.99 2.40002ZM469.58 4.94003C470.28 5.88003 470.98 7.11002 471.24 7.93002L470.51 8.28003C470.26 7.47003 469.59 6.19004 468.89 5.26004L469.59 4.95004L469.58 4.94003Z" fill="white"/>
<path d="M480.33 10.45H479.38V7.92996H475.46V7.29996L479.3 1.46997H480.33V7.16998H481.55V7.93997H480.33V10.46V10.45ZM476.47 7.15997H479.38V3.96997C479.38 3.47997 479.4 2.99997 479.43 2.52997H479.38C479.1 3.07997 478.89 3.46996 478.66 3.86996L476.47 7.12997V7.14996V7.15997Z" fill="white"/>
<path d="M485.94 10.45V2.39996H485.92L484.44 3.24997L484.2 2.50998L486.06 1.46997H486.91V10.45H485.94Z" fill="white"/>
<path d="M495.54 10.45H494.59V7.92996H490.67V7.29996L494.51 1.46997H495.54V7.16998H496.76V7.93997H495.54V10.46V10.45ZM491.68 7.15997H494.59V3.96997C494.59 3.47997 494.61 2.99997 494.64 2.52997H494.59C494.31 3.07997 494.1 3.46996 493.87 3.86996L491.68 7.12997V7.14996V7.15997Z" fill="white"/>
<path d="M498.79 1.46997H504.06V2.10995L500.31 10.46H499.29L503.04 2.32996V2.30997H498.79V1.47998V1.46997Z" fill="white"/>
<path d="M508.56 4.09006V7.94006C509.11 7.76006 509.68 7.57008 510.24 7.39008L510.36 8.10007C508.97 8.62007 507.49 9.16006 506.55 9.47006C506.55 9.58006 506.48 9.65007 506.41 9.67007L506.01 8.75006C506.5 8.61006 507.11 8.41007 507.78 8.20007V4.10007H506.21V3.32007H507.78V0.440063L508.8 0.500061C508.79 0.580061 508.73 0.640074 508.56 0.670074V3.32007H510.1V4.10007H508.56V4.09006ZM517.23 6.26007V7.03006H513.93V11.4701H513.14V7.03006H509.72V6.26007H513.14V1.73007H510.15V0.980072H516.9V1.73007H513.93V6.26007H517.23ZM511.43 5.76007C511.33 4.92007 510.96 3.64007 510.54 2.67007L511.22 2.47006C511.68 3.45006 512.05 4.71005 512.16 5.55005L511.43 5.77005V5.76007ZM516.78 2.77005C516.76 2.84005 516.66 2.87006 516.53 2.87006C516.27 3.75006 515.81 5.03006 515.43 5.84006C515.42 5.83006 514.82 5.59006 514.82 5.59006C515.19 4.75006 515.64 3.37007 515.86 2.42007L516.78 2.77005Z" fill="white"/>
<path d="M521.42 7.74005L522.81 7.19006L522.97 7.89008C521.72 8.47008 520.39 9.03008 519.55 9.39008C519.55 9.49008 519.5 9.56006 519.42 9.59006L519 8.68005C519.46 8.52005 520.03 8.30006 520.65 8.06006V4.08005H519.2V3.31006H520.65V0.440063L521.66 0.510071C521.65 0.590071 521.58 0.640074 521.42 0.670074V3.31006H522.78V4.08005H521.42V7.75006V7.74005ZM524.56 9.66006C524.56 10.3201 524.72 10.4801 525.56 10.4801H528.62C529.34 10.4801 529.46 10.1401 529.56 8.70007C529.75 8.84007 530.06 8.98005 530.29 9.02005C530.16 10.6801 529.89 11.2001 528.64 11.2001H525.55C524.2 11.2001 523.81 10.9001 523.81 9.64008V5.60007L522.6 6.12006L522.29 5.40005L523.81 4.75006V1.46005L524.82 1.53006C524.81 1.61006 524.74 1.67007 524.58 1.70007V4.41006L526.32 3.67007V0.320068L527.32 0.380066C527.31 0.460066 527.25 0.520049 527.09 0.550049V3.34006L529.01 2.51007L529.18 2.38007L529.84 2.62006C529.84 2.62006 529.78 2.72006 529.72 2.75006C529.72 5.03006 529.68 6.92007 529.59 7.38007C529.48 8.11007 529.07 8.23007 527.8 8.23007C527.76 8.00007 527.7 7.70007 527.61 7.51007C527.91 7.53007 528.33 7.53006 528.46 7.53006C528.65 7.53006 528.78 7.47005 528.84 7.18005C528.91 6.88005 528.94 5.39007 528.94 3.38007L527.09 4.17007V8.78006H526.32V4.51007L524.58 5.25006V9.64008L524.56 9.66006Z" fill="white"/>
<path d="M6.0202 28.42H11.0802V29.22H0.200195V28.42H5.1702V24.57H1.3502V23.78H5.1602V20.25H0.840195V19.46H10.4302V20.25H6.0202V23.78H10.0302V24.57H6.0202V28.42Z" fill="white"/>
<path d="M23.3201 24.0101H20.0501C20.7601 26.4601 22.1801 28.2901 24.5201 29.0201C24.3301 29.2001 24.0801 29.5401 23.9601 29.7601C21.4501 28.8501 19.9901 26.8301 19.2301 24.0001H15.9801C15.8601 25.9201 15.4001 28.1601 13.9301 29.7601C13.8101 29.5901 13.4901 29.3001 13.3101 29.2001C15.0401 27.3201 15.2101 24.6701 15.2101 22.6601V19.3101H23.3301V24.0001L23.3201 24.0101ZM16.0201 20.11V23.2201H22.5101V20.11H16.0201Z" fill="white"/>
<path d="M37.6002 20.5701H28.3102V23.3501C28.3102 25.2201 28.1702 27.9401 27.1102 29.7801C26.9802 29.6401 26.6402 29.4101 26.4502 29.3201C27.4502 27.5801 27.5302 25.1101 27.5302 23.3501V19.8201H32.0502V18.5901L33.1202 18.6601C33.1102 18.7401 33.0502 18.8001 32.8802 18.8301V19.8301H37.6102V20.5701H37.6002ZM35.9902 25.5001L36.5302 25.7601C36.5102 25.8201 36.4602 25.8601 36.4102 25.8801C35.8602 26.8801 35.0102 27.6401 33.9602 28.2201C35.0602 28.6401 36.3302 28.9201 37.7002 29.0501C37.5202 29.2301 37.3302 29.5401 37.2202 29.7601C35.7102 29.5501 34.3102 29.2001 33.1102 28.6401C31.8102 29.2001 30.3002 29.5401 28.7602 29.7301C28.7002 29.5301 28.5402 29.2301 28.4102 29.0501C29.7702 28.9101 31.1202 28.6401 32.3102 28.2101C31.4802 27.7201 30.8102 27.1201 30.3102 26.4001L30.8102 26.2101H28.9002V25.5401H35.8402L35.9802 25.5001H35.9902ZM35.3502 24.6601H30.7602V22.6701H28.8002V22.0001H30.7602V20.9001L31.7702 20.9701C31.7602 21.0501 31.6902 21.1101 31.5302 21.1301V22.0101H34.5602V20.9101L35.5902 20.9801C35.5802 21.0601 35.5102 21.1201 35.3502 21.1401V22.0201H37.5202V22.6901H35.3502V24.6801V24.6601ZM31.0402 26.2101C31.5302 26.8801 32.2502 27.4201 33.1302 27.8701C34.0102 27.4401 34.7502 26.9001 35.2802 26.2101H31.0502H31.0402ZM34.5502 22.6701H31.5202V24.0101H34.5502V22.6701Z" fill="white"/>
<path d="M49.66 20.8601L50.33 21.2601C50.29 21.3201 50.21 21.3601 50.15 21.3801C48.79 23.5901 46.19 26.3301 43.82 27.9601C44.85 28.5801 46.24 28.7301 47.87 28.7301C48.25 28.7301 50.44 28.7301 50.96 28.7201C50.84 28.9101 50.7 29.2801 50.66 29.5101H47.83C45.13 29.5101 43.24 29.0901 42.06 27.2201C41.63 27.9901 41.12 28.7901 40.66 29.3901C40.68 29.4401 40.7 29.4901 40.7 29.5301C40.7 29.5901 40.68 29.6401 40.63 29.7001L39.77 29.1501C40.63 28.1701 41.6 26.5801 42.12 25.3801L42.86 25.7001C42.75 25.9301 42.62 26.1901 42.49 26.4601C42.67 26.8601 42.91 27.1801 43.17 27.4401C45.28 26.0501 47.61 23.6501 48.9 21.6901H40.4V20.9001H44.93V18.6001L45.99 18.6701C45.98 18.7501 45.92 18.8101 45.75 18.8401V20.9001H49.49L49.66 20.8501V20.8601Z" fill="white"/>
<path d="M53.0601 23.3801C54.0001 23.0901 55.4201 22.6101 56.8301 22.1601L56.9601 22.8101C55.7101 23.2701 54.3901 23.7301 53.5701 24.0101C53.5601 24.1101 53.5101 24.1801 53.4301 24.2001L53.0701 23.3801H53.0601ZM60.5401 20.7401C60.5401 21.2601 60.8801 23.1601 64.2201 23.9401C64.0801 24.1101 63.8801 24.4301 63.7801 24.6001C61.2101 23.9701 60.3401 22.5101 60.1501 21.7501C60.0101 22.3401 59.4501 23.36 57.9601 24.08L58.3001 24.1801C58.2601 24.2801 58.1901 24.3101 58.0201 24.2901C57.8301 24.6001 57.6001 24.94 57.3701 25.3H64.1201V26.0101H61.5701C61.2201 26.7701 60.7301 27.3901 60.0801 27.8901C61.5201 28.2701 62.8001 28.6801 63.7701 29.0601L63.2801 29.7301C62.2401 29.2901 60.8301 28.8401 59.2601 28.4201C57.9001 29.1501 56.0601 29.5601 53.6001 29.7501C53.5501 29.5101 53.4101 29.2101 53.2801 29.0201C55.3201 28.9001 56.9101 28.6401 58.1301 28.1301C57.3601 27.9501 56.5601 27.77 55.7401 27.61L55.4501 27.9901L54.7101 27.7101C55.0701 27.2401 55.5101 26.6301 55.9701 25.9801H53.1201V25.2701H56.4501C56.6301 24.9901 56.8101 24.7101 56.9901 24.4401L56.4901 24.58C56.4201 24.4 56.2101 24.1201 56.0601 23.9701C59.4801 23.1701 59.7301 21.2501 59.7301 20.7201V20.4801H58.2801C57.9201 21.1201 57.5101 21.68 57.0701 22.11C56.9401 21.97 56.6701 21.7601 56.4901 21.6501C57.2301 20.9501 57.9201 19.7701 58.3101 18.5701L59.2301 18.8501C59.1901 18.9301 59.1001 18.9701 58.9801 18.9601C58.8701 19.2501 58.7501 19.5401 58.6201 19.8101H63.3701L63.8501 19.8501C63.8401 19.8901 63.8301 19.9701 63.8101 19.9901C63.5301 20.7001 63.1401 21.5601 62.8001 22.1001L62.1201 21.86C62.3201 21.5 62.5501 20.9801 62.7601 20.4801H60.5501V20.7201L60.5401 20.7401ZM53.9701 18.9201C54.8001 19.2201 55.8501 19.7501 56.3701 20.1701L55.9501 20.7901C55.4501 20.3601 54.4101 19.8101 53.5601 19.4701L53.9701 18.9201ZM56.1801 27.0201C57.1601 27.2001 58.1501 27.4201 59.0901 27.6401C59.7601 27.2101 60.2801 26.6701 60.6401 26.0001H56.8901L56.1801 27.0201Z" fill="white"/>
<path d="M66.54 29.85C66.73 29.25 66.97 28.06 67.07 27.3L68.37 27.13C68.12 28.04 67.61 29.29 67.34 29.76L66.55 29.86L66.54 29.85Z" fill="white"/>
<path d="M77.6102 23.1001L78.0302 23.1201C78.0302 23.1901 78.0302 23.3001 78.0202 23.4001C77.9202 27.5601 77.8502 28.9301 77.5302 29.3401C77.2502 29.7401 76.9302 29.7401 76.3502 29.7401C76.1002 29.7401 75.8002 29.7301 75.5002 29.7201C75.4802 29.4901 75.4002 29.1701 75.2702 28.9601C75.8102 29.0101 76.3002 29.0101 76.5302 29.0101C76.6702 29.0101 76.7602 28.9701 76.8402 28.8501C77.0602 28.5701 77.1502 27.3401 77.2402 23.8601H75.6302C75.4902 26.1501 75.1302 28.3301 74.0602 29.7501C73.9302 29.5801 73.6502 29.3401 73.4502 29.2201C74.7502 27.5301 74.9002 24.4101 74.9502 21.3601H73.5702V20.5901H75.7602V18.6101L76.8002 18.6701C76.7902 18.7501 76.7202 18.8101 76.5602 18.8401V20.5901H78.8102V21.3601H75.7202C75.7102 21.9401 75.7002 22.5201 75.6702 23.1001H77.6002H77.6102ZM82.0202 18.6401C82.0002 18.7201 81.9202 18.7801 81.8302 18.8101C82.4402 20.4301 83.5802 22.1601 84.7302 23.0201C84.5702 23.2301 84.4102 23.5501 84.2902 23.8001C83.0802 22.7901 81.9802 21.1001 81.3902 19.5301C80.9002 21.0401 79.8302 22.7801 78.5702 23.8201C78.4902 23.6001 78.2902 23.2801 78.1602 23.1001C79.3802 22.1201 80.5002 20.2601 80.9502 18.5801L82.0202 18.6401ZM83.2402 29.7301C82.3902 28.9001 80.6002 27.7801 79.1102 27.0801L79.5902 26.4701C81.0802 27.1301 82.8902 28.2101 83.7602 29.0201L83.2302 29.7301H83.2402ZM80.6102 23.2901C81.4502 23.7901 82.4402 24.5501 82.9102 25.1101L82.3502 25.6901C81.8902 25.1301 80.9202 24.3301 80.0802 23.8101L80.6102 23.2901Z" fill="white"/>
<path d="M94.85 19.6101H97.69V20.3201H94.85V21.0001H94.06V20.3201H90.57V21.0001H89.78V20.3201H87.02V19.6101H89.78V18.5901L90.8 18.6501C90.79 18.7301 90.73 18.7901 90.57 18.8201V19.6101H94.06V18.5901L95.08 18.6501C95.07 18.7301 95.01 18.7901 94.85 18.8201V19.6101ZM97.1 25.5001V28.8801C97.1 29.7001 96.75 29.7201 95.11 29.7201C95.07 29.5201 94.98 29.2501 94.87 29.0501C95.47 29.0601 95.97 29.0601 96.12 29.0601C96.28 29.0501 96.31 29.0101 96.31 28.8701V26.2101H92.7V27.6101L94.32 27.5401C94.13 27.2401 93.92 26.9501 93.71 26.6901L94.31 26.4701C94.87 27.1201 95.45 28.0201 95.64 28.6301L94.99 28.8601C94.92 28.6501 94.81 28.4001 94.68 28.1401C92.81 28.2701 90.84 28.3801 89.61 28.4401C89.59 28.5401 89.53 28.5801 89.44 28.6101L89.14 27.7201C89.88 27.7001 90.85 27.6701 91.92 27.6401V26.2101H88.42V29.7501H87.65V25.5001H91.92V24.8501H88.54V21.2001H96.23V24.8501H92.7V25.5001H97.1ZM89.3 21.7901V22.7301H91.91V21.7901H89.3ZM89.3 24.2501H91.91V23.3001H89.3V24.2501ZM95.43 22.7301V21.7901H92.7V22.7301H95.43ZM95.43 24.2501V23.3001H92.7V24.2501H95.43Z" fill="white"/>
<path d="M102.5 22.36V26.21C103.05 26.03 103.62 25.84 104.18 25.66L104.3 26.37C102.91 26.89 101.43 27.42 100.49 27.74C100.49 27.85 100.42 27.92 100.35 27.94L99.9502 27.02C100.44 26.88 101.05 26.68 101.72 26.47V22.37H100.15V21.59H101.72V18.71L102.74 18.77C102.73 18.85 102.67 18.91 102.5 18.94V21.59H104.04V22.37H102.5V22.36ZM111.17 24.53V25.3H107.87V29.74H107.08V25.3H103.66V24.53H107.08V20H104.09V19.25H110.84V20H107.87V24.53H111.17ZM105.37 24.03C105.27 23.19 104.9 21.91 104.48 20.94L105.16 20.74C105.62 21.72 105.99 22.98 106.1 23.82L105.37 24.04V24.03ZM110.72 21.04C110.7 21.11 110.6 21.14 110.47 21.14C110.21 22.02 109.75 23.3 109.37 24.11C109.36 24.1 108.76 23.86 108.76 23.86C109.13 23.02 109.58 21.64 109.8 20.69L110.72 21.04Z" fill="white"/>
<path d="M119.58 20.2001H124.31V20.9701H115.04V23.3701C115.04 25.2201 114.88 27.9101 113.85 29.7501C113.71 29.6101 113.35 29.3801 113.15 29.2801C114.13 27.5401 114.23 25.1101 114.23 23.3701V20.2001H118.75V18.5901L119.82 18.6601C119.81 18.7401 119.75 18.8001 119.58 18.8301V20.2001ZM120.22 21.3201C120.21 21.4001 120.15 21.4601 119.98 21.4901V22.7601H124.14V23.4901H119.98V25.3301H123.3V29.7301H122.48V29.2701H117.01V29.7601H116.22V25.3201H119.17V21.2401L120.21 21.3101L120.22 21.3201ZM122.49 28.5401V26.0601H117.02V28.5401H122.49Z" fill="white"/>
<path d="M137.59 24.05V24.85H132.52V28.65C132.52 29.23 132.36 29.46 131.93 29.61C131.5 29.74 130.72 29.75 129.53 29.75C129.47 29.51 129.33 29.15 129.18 28.91C129.82 28.93 130.42 28.95 130.83 28.95C131.59 28.95 131.68 28.95 131.68 28.64V24.85H126.58V24.05H131.68V22.08L132.15 22.1C133.1 21.61 134.13 20.9 134.9 20.24H127.84V19.45H135.8L135.94 19.39L136.66 19.87C136.62 19.93 136.53 19.95 136.46 19.98C135.48 20.92 133.88 22.04 132.51 22.75V24.05H137.58H137.59Z" fill="white"/>
<path d="M141.4 22.48H139.88L139.8 22.12H141.41V18.67L142.03 18.78C142.22 18.8 142.31 18.88 142.31 18.97C142.31 19.06 142.25 19.14 142.15 19.16C142.05 19.18 142.01 19.26 142.01 19.34V22.12H142.5L143.16 21.47L143.78 22.05C143.78 22.05 143.85 22.16 143.85 22.23C143.85 22.3 143.8 22.48 143.61 22.48H142V26.27C142.58 25.99 143.14 25.67 143.68 25.29C143.72 25.27 143.74 25.25 143.76 25.25C143.83 25.25 143.89 25.33 143.89 25.39C143.89 25.43 143.87 25.46 143.84 25.49C143.55 25.74 142.39 26.77 140.58 27.48C140.53 27.5 140.52 27.59 140.52 27.7C140.52 27.83 140.46 27.96 140.34 27.96C140.27 27.96 140.18 27.89 140.11 27.73L139.74 27L140.33 26.89L141.4 26.52V22.48ZM147.35 26.57V24.78L148.02 24.88C148.21 24.9 148.31 24.98 148.31 25.07C148.31 25.16 148.25 25.25 148.13 25.3C148.01 25.35 147.95 25.43 147.95 25.52V26.57H149.22L149.98 25.94L150.75 26.52C150.81 26.56 150.83 26.62 150.83 26.69C150.83 26.71 150.83 26.74 150.82 26.76C150.81 26.87 150.71 26.94 150.57 26.94H147.96V29.57C147.96 29.76 147.58 29.83 147.49 29.83C147.4 29.83 147.36 29.79 147.36 29.72V26.94H143.59L143.49 26.58H147.35V26.57ZM144.32 19.93L144.84 20.29H146.49C146.68 19.77 146.81 19.22 146.85 18.67L147.5 18.77C147.67 18.79 147.74 18.87 147.74 18.96C147.74 19.05 147.67 19.13 147.57 19.13C147.47 19.14 147.4 19.18 147.38 19.23C147.24 19.58 147.02 19.94 146.78 20.3H149.55L149.86 19.98L150.41 20.34C150.41 20.34 150.48 20.41 150.48 20.46C150.48 20.52 150.42 20.63 150.3 20.66C150.2 20.68 150.14 20.73 150.14 20.79V24.83C150.15 24.9 150.09 24.97 150.02 25.01C149.65 25.11 149.55 25.13 149.55 24.83V24.31H146.86L146.56 24.79C145.74 25.87 143.98 26.34 143.93 26.34C143.81 26.34 143.81 26.28 143.81 26.26C143.81 26.22 143.83 26.2 143.87 26.19C144.7 25.85 145.5 25.41 146.06 24.69L146.29 24.31H144.89V24.69C144.89 24.69 144.84 24.8 144.76 24.85C144.35 24.95 144.3 24.96 144.3 24.67V19.94L144.32 19.93ZM146.89 20.84V20.66H144.91V22.08H146.83L146.89 20.84ZM146.64 23.5C146.71 23.24 146.77 22.88 146.81 22.42H144.92V23.94H146.47L146.65 23.5H146.64ZM147.24 23.37L147.05 23.95H149.57V22.43H147.4L147.24 23.38V23.37ZM147.43 22.07H149.56V20.65H147.49V20.83L147.43 22.07Z" fill="white"/>
<path d="M158.99 28.5401H164.03V29.3301H153.19V28.5401H158.17V25.3301H154.51V24.5501H158.17V21.7801H155.23C154.81 22.6401 154.32 23.4201 153.79 24.0001C153.63 23.8601 153.32 23.6301 153.12 23.5101C154.1 22.4701 154.96 20.6401 155.45 18.8101L156.49 19.1001C156.45 19.1801 156.37 19.2301 156.21 19.2301C156.03 19.8201 155.83 20.4201 155.59 20.9901H158.17V18.5901L159.25 18.6501C159.24 18.7301 159.17 18.7901 159 18.8201V20.9901H163.47V21.7801H159V24.5501H163.03V25.3301H159V28.5401H158.99Z" fill="white"/>
<path d="M168.64 27.3301C168.35 28.2201 167.87 29.0201 166.85 29.4601L166.24 28.9901C167.15 28.6201 167.7 27.9001 167.95 27.0701L168.63 27.3201L168.64 27.3301ZM171.36 21.5901C171.26 21.4201 171.14 21.2401 171 21.0501C169.38 21.1601 167.74 21.2501 166.69 21.3101C166.67 21.3901 166.59 21.4501 166.52 21.4701L166.26 20.6501L167.2 20.6101C167.58 20.0201 168.03 19.1801 168.28 18.5801L169.18 18.9001C169.16 18.9701 169.07 19.0001 168.93 19.0001C168.7 19.4501 168.33 20.0701 167.98 20.5801L170.52 20.4701C170.27 20.1701 169.98 19.8801 169.7 19.6401L170.28 19.3201C170.94 19.8601 171.66 20.6501 171.97 21.2001L171.36 21.5701V21.5901ZM171.19 21.8701V25.7201C171.19 26.3801 170.88 26.4601 169.57 26.4601C169.53 26.2701 169.41 26.0301 169.33 25.8601C170.45 25.8801 170.45 25.8701 170.45 25.7201V24.9901H167.74V26.6101H167V21.8701H171.2H171.19ZM170.45 22.4601H167.74V23.1801H170.45V22.4601ZM167.74 24.4501H170.45V23.7301H167.74V24.4501ZM170.25 28.5401C170.25 28.8201 170.36 28.8601 170.99 28.8601H173.24C173.74 28.8601 173.83 28.7401 173.88 27.7901C174.05 27.9101 174.36 28.0001 174.58 28.0501C174.5 29.2601 174.24 29.5401 173.33 29.5401H170.94C169.75 29.5401 169.45 29.3501 169.45 28.5301V27.0401L170.48 27.1001C170.47 27.1801 170.4 27.2401 170.24 27.2701V28.5301L170.25 28.5401ZM172.42 28.0401C172.02 27.6201 171.2 27.0801 170.49 26.7701L170.99 26.3101C171.7 26.6101 172.53 27.1101 172.95 27.5301L172.42 28.0301V28.0401ZM175.98 21.5901C176.42 21.5901 176.51 21.4501 176.56 20.5001C176.73 20.6201 177.03 20.7201 177.24 20.7601C177.16 21.9601 176.92 22.2601 176.05 22.2601H173.88C172.79 22.2601 172.5 22.0501 172.5 21.2201V18.6401L173.48 18.7101C173.47 18.7801 173.41 18.8401 173.25 18.8701V20.0901C174.27 19.8101 175.32 19.4401 175.94 19.0901L176.62 19.6401C176.56 19.6901 176.48 19.7001 176.39 19.6801C175.63 20.0401 174.39 20.4101 173.25 20.7001V21.2201C173.25 21.5201 173.35 21.5901 173.92 21.5901H175.97H175.98ZM176.03 25.7601C176.49 25.7601 176.57 25.6001 176.61 24.6301C176.79 24.7601 177.09 24.8701 177.31 24.9101C177.21 26.1301 176.97 26.4501 176.11 26.4501H173.9C172.8 26.4501 172.51 26.2301 172.51 25.3801V22.5901L173.49 22.6601C173.48 22.7301 173.42 22.7901 173.26 22.8201V24.0801C174.32 23.7901 175.44 23.4201 176.08 23.0501L176.78 23.6101C176.78 23.6101 176.71 23.6601 176.65 23.6601C176.63 23.6601 176.59 23.6601 176.55 23.6501C175.76 24.0201 174.45 24.4101 173.26 24.6901V25.3901C173.26 25.7101 173.36 25.7701 173.94 25.7701H176.03V25.7601ZM176.71 29.4701C176.3 28.8401 175.39 28.0001 174.53 27.4601L175.15 27.0601C176.01 27.5801 176.95 28.3801 177.37 29.0201L176.71 29.4801V29.4701Z" fill="white"/>
<path d="M183.95 19.3101C183.91 19.3901 183.82 19.4301 183.67 19.4301C182.88 21.2401 181.62 23.0601 180.34 24.2301C180.17 24.0601 179.85 23.8001 179.63 23.6801C180.91 22.6101 182.15 20.7901 182.89 18.9501L183.95 19.3101ZM185.22 23.2901C185.18 23.3901 185.08 23.4501 184.92 23.4501C184.36 24.8801 183.47 26.8001 182.67 28.2501C184.36 28.2001 186.36 28.1301 188.29 28.0601C187.71 27.2401 187.04 26.3701 186.44 25.6601L187.2 25.3C188.32 26.57 189.59 28.2601 190.2 29.3501L189.4 29.7901C189.24 29.4901 189.03 29.1401 188.78 28.7601C185.77 28.9401 182.57 29.0701 180.58 29.1601C180.56 29.2601 180.47 29.32 180.39 29.33L180.05 28.3201L181.76 28.2701C182.6 26.7801 183.56 24.5901 184.11 22.9901L185.23 23.2901H185.22ZM187.13 18.9501C187.96 20.5701 189.5 22.5201 190.63 23.5401C190.41 23.7101 190.11 24.0101 189.96 24.2201C188.83 23.0701 187.29 20.9801 186.35 19.2701L187.13 18.9501Z" fill="white"/>
<path d="M193.26 19.13H203.37V29.73H202.58V29.2H194.03V29.73H193.26V19.13ZM194.03 28.46H202.58V19.87H194.03V28.46ZM198.73 25.39C198.99 25.7 199.33 26 199.73 26.28C200.25 25.96 200.87 25.5 201.23 25.19L201.89 25.6C201.89 25.6 201.77 25.67 201.65 25.67C201.28 25.93 200.71 26.29 200.21 26.58C200.83 26.95 201.53 27.24 202.21 27.42C202.05 27.54 201.86 27.79 201.75 27.96C200.55 27.59 199.29 26.83 198.46 25.94V28.1H197.73V26.22C196.89 26.8 195.86 27.29 194.91 27.64C194.81 27.51 194.6 27.26 194.48 27.14C195.61 26.77 196.89 26.14 197.78 25.4H195.64V23.37H200.93V25.4H198.72L198.73 25.39ZM201.92 22.21V22.76H194.66V22.21H197.89V21.41H195.42V20.87H197.89V20.14L198.87 20.21C198.86 20.28 198.8 20.34 198.64 20.37V20.87H201.19V21.41H198.64V22.21H201.91H201.92ZM196.34 23.85V24.88H200.2V23.85H196.34Z" fill="white"/>
<path d="M208.79 21.78C208.71 21.4 208.48 20.81 208.25 20.33H207.7C207.35 20.92 206.94 21.46 206.55 21.87C206.39 21.74 206.12 21.55 205.93 21.45C206.64 20.78 207.33 19.65 207.74 18.54L208.65 18.84C208.63 18.92 208.52 18.96 208.4 18.95C208.3 19.19 208.18 19.44 208.06 19.68H211.38V20.34H209.05C209.25 20.75 209.42 21.2 209.51 21.52L208.79 21.8V21.78ZM215.95 25.82H216.13L216.6 25.88C216.6 25.96 216.58 26.05 216.56 26.13C216.25 29.15 216.01 29.2 214.62 29.2C214.34 29.2 214.02 29.2 213.67 29.18C213.66 28.94 213.57 28.64 213.44 28.42C214.04 28.49 214.62 28.49 214.82 28.49C215.04 28.49 215.16 28.48 215.25 28.38C215.44 28.21 215.57 27.71 215.71 26.52H211.94V29.72H211.15V26.76C209.95 27.96 208.13 28.98 206.51 29.51C206.39 29.32 206.16 29.02 205.99 28.86C207.54 28.43 209.29 27.54 210.42 26.52H207.87L207.74 26.96L206.95 26.84C207.2 26.07 207.5 24.86 207.69 23.91H211.16V22.6H207.05V21.9H215.85V24.6H211.95V25.8H215.96L215.95 25.82ZM211.15 24.62H208.33C208.25 25.02 208.14 25.44 208.04 25.82H211.15V24.62ZM213.42 18.82C213.4 18.9 213.3 18.93 213.18 18.93C213.07 19.18 212.95 19.43 212.82 19.67H217.09V20.33H214.22C214.53 20.74 214.81 21.19 214.95 21.53L214.24 21.82C214.08 21.41 213.72 20.81 213.34 20.33H212.4C212.02 20.91 211.56 21.42 211.09 21.79C210.95 21.66 210.67 21.46 210.48 21.35C211.3 20.73 212.05 19.66 212.47 18.53L213.41 18.82H213.42ZM211.94 22.62V23.93H215.05V22.62H211.94Z" fill="white"/>
<path d="M219.27 23.5901H230.38V24.4801H219.27V23.5901Z" fill="white"/>
<path d="M236.42 24.6201L234.86 25.1401V28.7601C234.86 29.6401 234.49 29.7601 232.95 29.7301C232.91 29.5401 232.81 29.2001 232.7 28.9701C233.04 28.9801 233.32 28.9901 233.55 28.9901C234.04 28.9901 234.1 28.9901 234.1 28.7501V25.3701C233.63 25.5301 233.21 25.6601 232.86 25.7701C232.86 25.8701 232.79 25.9301 232.7 25.9601L232.4 25.0401C232.87 24.9201 233.46 24.7501 234.09 24.5701V21.8501H232.52V21.0901H234.09V18.5801L235.07 18.6401C235.06 18.7401 235 18.7801 234.84 18.8101V21.0901H236.26V21.8501H234.84V24.3601L236.29 23.9301L236.4 24.6301L236.42 24.6201ZM238.36 20.6701V18.5801L239.33 18.6401C239.32 18.7201 239.26 18.7701 239.1 18.8001V23.7201C239.1 26.1401 238.82 28.2501 236.59 29.7401C236.46 29.5801 236.19 29.3201 236.01 29.2001C237.14 28.4601 237.72 27.5701 238.04 26.5501C237.36 26.8001 236.71 27.0301 236.25 27.1901C236.25 27.2901 236.19 27.3501 236.11 27.3801L235.73 26.5601C236.39 26.3801 237.29 26.0901 238.21 25.7901C238.31 25.2401 238.34 24.6501 238.35 24.0401H236.4V23.3001H238.35V21.4201H236.31V20.6801H238.35L238.36 20.6701ZM243.6 26.0401V26.7801H241.21V29.7101H240.44V18.5801L241.45 18.6401C241.44 18.7201 241.37 18.7801 241.21 18.8101V20.6701H243.39V21.4101H241.21V23.2901H243.27V24.0301H241.21V26.0301H243.6V26.0401Z" fill="white"/>
<path d="M245.97 29.85C246.16 29.25 246.4 28.06 246.5 27.3L247.8 27.13C247.55 28.04 247.04 29.29 246.77 29.76L245.98 29.86L245.97 29.85Z" fill="white"/>
<path d="M263.89 22.94H259.2C259.98 25.81 261.53 28.01 264.08 28.96C263.88 29.14 263.61 29.48 263.48 29.71C260.97 28.68 259.45 26.56 258.56 23.67C258.01 26.04 256.7 28.4 253.61 29.73C253.49 29.51 253.24 29.23 253.03 29.05C256.2 27.77 257.38 25.37 257.84 22.95H253.21V22.12H257.97C258.13 20.87 258.11 19.65 258.13 18.61L259.26 18.67C259.25 18.78 259.15 18.84 259 18.87C258.99 19.82 258.98 20.95 258.83 22.12H263.89V22.95V22.94Z" fill="white"/>
<path d="M277.26 25.1401V25.9301H272.19V28.6001C272.19 29.2101 272.01 29.4501 271.58 29.5801C271.14 29.7201 270.36 29.7401 269.06 29.7201C269 29.4901 268.84 29.1401 268.71 28.9201C269.29 28.9401 269.84 28.9401 270.26 28.9401C271.28 28.9401 271.36 28.9401 271.36 28.5901V25.9201H266.31V25.1301H271.36V23.1001H267.11V22.3301H271.36V20.3901C270.04 20.5501 268.65 20.6701 267.37 20.7401C267.35 20.5401 267.25 20.2201 267.15 20.0401C270.05 19.8501 273.54 19.4601 275.32 18.8301L276.02 19.5101C276.02 19.5101 275.95 19.5501 275.88 19.5501C275.86 19.5501 275.82 19.5501 275.77 19.5401C274.91 19.8301 273.73 20.0601 272.44 20.2501C272.42 20.3301 272.36 20.3701 272.2 20.3901V22.3301H276.59V23.1001H272.2V25.1301H277.27L277.26 25.1401Z" fill="white"/>
<path d="M289.09 25.4701H285.38V26.2501H289.51V26.9001H285.38V27.7301H290.31V28.3801H285.38V29.7501H284.56V28.3801H279.74V27.7301H284.56V26.9001H280.53V26.2501H284.56V25.4701H280.94V24.8501H284.56V24.0601H279.51V23.4201H284.56V22.6601H281.03V22.0401H284.56V21.4401L284.48 21.5001C284.32 21.3801 284.04 21.2101 283.84 21.1201C284.18 20.8901 284.51 20.6001 284.82 20.2801H282.7C282.95 20.6501 283.19 21.06 283.31 21.36L282.6 21.6001C282.48 21.2501 282.18 20.7101 281.88 20.2801H281.32C280.95 20.8401 280.54 21.3601 280.13 21.7401C279.97 21.6201 279.7 21.43 279.52 21.33C280.23 20.69 280.95 19.6201 281.39 18.5601L282.3 18.8701C282.26 18.9401 282.18 18.9901 282.05 18.9701C281.95 19.1901 281.83 19.4101 281.71 19.6301H284.89V20.1901C285.32 19.7101 285.71 19.1301 285.96 18.5601L286.86 18.8401C286.84 18.9201 286.76 18.9601 286.62 18.9501C286.51 19.1801 286.38 19.4101 286.24 19.6301H290.47V20.2801H287.51C287.8 20.6101 288.06 20.9901 288.21 21.2701L287.53 21.5701C287.36 21.2101 286.99 20.6901 286.63 20.2801H285.78C285.47 20.6601 285.12 21.0001 284.77 21.2901L285.62 21.3501C285.61 21.4301 285.54 21.4901 285.38 21.5101V22.05H289.09V23.4301H290.53V24.0701H289.09V25.4801V25.4701ZM285.38 22.6601V23.4201H288.26V22.6601H285.38ZM285.38 24.05V24.8401H288.26V24.05H285.38Z" fill="white"/>
<path d="M295.63 24.4401C296.3 24.2701 297 24.1001 297.68 23.9201L297.76 24.6201C297.05 24.8201 296.32 25.0301 295.63 25.2201V28.6701C295.63 29.6801 295.14 29.7101 293.29 29.7101C293.24 29.5001 293.12 29.1501 293.01 28.9301C293.71 28.9401 294.35 28.9401 294.55 28.9401C294.74 28.9301 294.81 28.8701 294.81 28.6601V25.4301L293.09 25.9101C293.09 25.9901 293.02 26.0701 292.93 26.0901L292.62 25.1401C293.21 25.0101 293.98 24.8301 294.8 24.6201V21.8501H292.74V21.0701H294.8V18.5601L295.86 18.6201C295.85 18.7201 295.79 18.7601 295.62 18.7901V21.0701H297.5V21.8501H295.62V24.4201L295.63 24.4401ZM303.92 19.6701V20.4601H301.64V28.6001C301.64 29.2001 301.48 29.45 301.06 29.58C300.64 29.72 299.91 29.7201 298.72 29.7201C298.67 29.4901 298.55 29.1301 298.42 28.9001C298.97 28.9101 299.49 28.9201 299.88 28.9201C300.73 28.9201 300.8 28.92 300.8 28.58V20.4401H297.14V19.6501H303.9L303.92 19.6701Z" fill="white"/>
<path d="M308.56 23.3901V27.3101C309.5 28.7401 311.21 28.7401 313.37 28.7401C314.67 28.7401 316.19 28.7001 317.12 28.6401C317.02 28.8301 316.88 29.2201 316.86 29.4501C316.03 29.4901 314.71 29.5101 313.53 29.5101C311.06 29.5101 309.42 29.5101 308.21 28.0201C307.62 28.5501 306.99 29.0901 306.47 29.5001C306.48 29.6101 306.45 29.6601 306.36 29.6901L305.89 28.8001C306.47 28.4201 307.17 27.8701 307.78 27.3401V24.1501H306.02V23.3801H308.56V23.3901ZM306.77 18.8901C307.57 19.4101 308.5 20.2001 308.92 20.7901L308.28 21.3301C307.88 20.7301 306.97 19.9101 306.17 19.3701L306.77 18.8901ZM316.93 22.6601V23.3701H309.12V22.6601H312.67V20.9201H310.92C310.68 21.4601 310.39 21.9601 310.1 22.3501C309.93 22.2301 309.62 22.0901 309.43 21.9901C310.03 21.2501 310.55 19.9801 310.86 18.7501L311.82 19.0101C311.8 19.0901 311.71 19.1301 311.57 19.1301C311.47 19.4801 311.35 19.8401 311.22 20.2001H312.67V18.5901L313.71 18.6501C313.7 18.7301 313.63 18.7901 313.47 18.8201V20.2001H316.4V20.9201H313.47V22.6601H316.92H316.93ZM315.92 27.9701H315.13V27.5601H311.1V28.0001H310.33V24.2601H315.92V27.9701ZM311.1 26.8401H315.13V24.9301H311.1V26.8401Z" fill="white"/>
<path d="M319.69 19.15H329.8V29.78H329V29.19H320.46V29.78H319.69V19.15ZM320.46 28.44H329V19.89H320.46V28.44ZM321.05 26.59C321.99 26.43 323.38 26.17 324.77 25.92L324.81 26.46C323.56 26.74 322.29 27.01 321.49 27.17C321.48 27.27 321.42 27.31 321.35 27.35L321.06 26.6L321.05 26.59ZM325.67 22.19C325.78 23.29 325.95 24.32 326.16 25.16C326.58 24.46 326.9 23.67 327.12 22.8L327.96 23C327.94 23.08 327.86 23.12 327.72 23.12C327.43 24.18 326.99 25.14 326.42 25.95C326.71 26.67 327.12 27.2 327.52 27.2C327.7 27.2 327.82 26.68 327.9 25.92C328.03 26.05 328.28 26.22 328.43 26.3C328.3 27.4 328.01 27.92 327.55 27.92C327.47 27.92 327.38 27.91 327.29 27.87C326.71 27.76 326.28 27.29 325.94 26.57C325.45 27.16 324.87 27.65 324.22 28.03C324.12 27.9 323.92 27.66 323.78 27.54C324.5 27.13 325.14 26.57 325.66 25.88C325.34 24.88 325.12 23.59 324.98 22.17H321.17V21.55H324.92C324.88 21.11 324.85 20.65 324.82 20.19L325.78 20.24C325.77 20.34 325.68 20.4 325.54 20.42C325.55 20.8 325.58 21.18 325.61 21.55H328.34V22.17H325.65L325.67 22.19ZM321.63 23.01H324.34V25.38H321.63V23.01ZM323.73 24.86V23.54H322.22V24.86H323.73ZM326.67 20.11C327.15 20.31 327.73 20.65 328.01 20.94L327.63 21.38C327.34 21.1 326.77 20.73 326.29 20.5L326.67 20.11Z" fill="white"/>
<path d="M335.38 19.08L335.87 19.3801C335.87 19.3801 335.82 19.4601 335.79 19.4901C335.54 20.4101 335.17 21.6701 334.83 22.6801C335.56 23.7101 335.84 24.5701 335.84 25.3501C335.84 27.0201 335.05 27.0401 334.2 26.9901C334.19 26.8001 334.13 26.5001 334.03 26.3201C334.19 26.3301 334.33 26.33 334.46 26.33C334.83 26.33 335.14 26.33 335.14 25.3C335.13 24.6 334.89 23.7601 334.14 22.7501C334.44 21.8401 334.74 20.7001 334.94 19.8501H333.6V29.7401H332.88V19.11H335.26L335.38 19.0701V19.08ZM337.4 20.7201C337.7 20.8901 338.05 21.1301 338.31 21.3401C338.47 20.9901 338.6 20.6301 338.71 20.2501H337.25C336.88 20.9901 336.4 21.6701 335.88 22.1301C335.76 22.0201 335.53 21.8301 335.36 21.7301C336.15 21.0301 336.82 19.8301 337.21 18.5601L338.05 18.7901C338.03 18.8701 337.94 18.9101 337.81 18.9101C337.74 19.1401 337.64 19.38 337.55 19.61H339.03L339.17 19.5901C339.52 19.7201 339.58 19.7501 339.63 19.7801C339.61 19.8401 339.57 19.8801 339.53 19.9101C339 22.2101 337.71 23.9801 336.21 24.9101C336.11 24.7401 335.91 24.49 335.74 24.36C336.3 24.04 336.86 23.5601 337.33 22.9601C337.07 22.7001 336.68 22.3701 336.35 22.1401L336.72 21.7801C337.03 21.9901 337.39 22.2701 337.64 22.5101C337.8 22.2901 337.93 22.0701 338.06 21.8401C337.8 21.5901 337.41 21.3 337.08 21.11L337.4 20.7101V20.7201ZM337.86 27.11C337.44 27.91 336.76 28.7601 336.11 29.3201C335.99 29.1901 335.74 28.9701 335.58 28.8501C336.19 28.3601 336.84 27.5301 337.24 26.7001C337.88 26.9201 338 26.9501 338.1 27.0001C338.08 27.0701 337.99 27.11 337.86 27.11ZM342.84 26.2001H340.02V28.8901C340.02 29.6501 339.73 29.7401 338.03 29.7401C337.99 29.5401 337.87 29.2401 337.77 29.0401C338.38 29.0501 338.91 29.0501 339.06 29.0401C339.22 29.0301 339.25 29 339.25 28.86V26.2001H336.56V25.5001H342.83V26.2001H342.84ZM337.71 24.3201V23.6501H341.62V24.3201H337.71ZM342.99 19.58L343.51 19.8901C343.5 19.9501 343.43 19.9701 343.38 20.0001C343.04 20.9101 342.46 22.0001 341.84 22.7601C342.36 23.3901 342.98 23.9001 343.7 24.2301C343.53 24.3701 343.3 24.6401 343.2 24.8401C341.23 23.8001 340.05 21.6701 339.46 18.9601L340.11 18.8201C340.39 20.1001 340.83 21.2501 341.45 22.2001C341.86 21.6501 342.24 20.9201 342.49 20.2501H340.79V19.6201H342.86L342.99 19.58ZM342.76 29.2201C342.45 28.6401 341.72 27.7601 341.06 27.1201L341.65 26.7501C342.31 27.3601 343.07 28.21 343.4 28.8L342.76 29.2201Z" fill="white"/>
<path d="M348.88 25.8501C349.37 26.2101 350.68 27.2701 350.99 27.5401L350.52 28.1901C350.22 27.8401 349.45 27.1401 348.88 26.6201V29.7401H348.1V26.4501C347.52 27.4101 346.76 28.3201 346.03 28.9001C345.93 28.7101 345.73 28.4301 345.56 28.2801C346.41 27.6901 347.32 26.5901 347.87 25.5001H345.78V24.7901H348.09V23.4601H345.64V22.7601H351.1V23.4601H348.93L349.1 23.4701C349.09 23.5501 349.03 23.6001 348.87 23.6301V24.7901H351.02V25.5001H348.87V25.8601L348.88 25.8501ZM350.98 19.8901V20.5901H345.91V19.8901H348.1V18.5901L349.11 18.6501C349.1 18.7301 349.04 18.7901 348.88 18.8201V19.8901H350.98ZM347.32 20.7101C347.58 21.2701 347.79 22.0301 347.85 22.5201L347.17 22.6901C347.12 22.2001 346.93 21.4301 346.68 20.8501L347.33 20.7101H347.32ZM350.53 20.9301C350.49 21.0101 350.41 21.0501 350.28 21.0501C350.14 21.5401 349.87 22.2601 349.64 22.7401L349.04 22.5401C349.23 22.0201 349.5 21.2201 349.62 20.6801L350.53 20.9301ZM353.32 26.3101C353.3 26.3901 353.22 26.4401 353.09 26.4501C352.84 27.7401 352.35 29.0301 350.7 29.7601C350.6 29.5801 350.38 29.3001 350.21 29.1701C351.67 28.5701 352.15 27.4401 352.34 26.2001L353.31 26.3101H353.32ZM354.96 28.6001C354.96 28.8601 355 28.9101 355.22 28.9101H355.94C356.19 28.9101 356.24 28.7301 356.26 27.2701C356.43 27.4001 356.74 27.5201 356.96 27.5801C356.89 29.2401 356.7 29.6301 356.04 29.6301H355.13C354.37 29.6301 354.21 29.4001 354.21 28.6001V25.9601H351.56V19.0901H356.26V25.9601H354.96V28.6001ZM352.3 19.8201V21.1601H355.49V19.8201H352.3ZM352.3 21.8401V23.2001H355.49V21.8401H352.3ZM352.3 23.8701V25.2501H355.49V23.8701H352.3Z" fill="white"/>
<path d="M359.33 21.98C360.05 22.26 360.93 22.74 361.36 23.12L360.9 23.78C360.47 23.4 359.6 22.88 358.88 22.57L359.32 21.98H359.33ZM359.14 29.13C359.63 28.19 360.34 26.6 360.85 25.24L361.49 25.67C361.03 26.93 360.41 28.42 359.95 29.32C360 29.39 360.02 29.45 360.02 29.51C360.02 29.55 360.01 29.59 359.98 29.63L359.13 29.13H359.14ZM359.88 18.72C360.58 19.04 361.4 19.57 361.82 19.97L361.33 20.62C360.93 20.21 360.11 19.65 359.41 19.3L359.88 18.72ZM365.49 28.09H362.71V29.1H362V24.18H363.34V21.9H361.51V21.15H363.34V18.61L364.31 18.67C364.3 18.75 364.24 18.8 364.08 18.83V21.16H365.87V21.91H364.08V24.19H365.48V28.1L365.49 28.09ZM364.76 24.9H362.71V27.37H364.76V24.9ZM369.65 19.06V28.79C369.65 29.73 369.18 29.76 367.64 29.76C367.6 29.55 367.48 29.21 367.36 29.02C367.97 29.03 368.5 29.03 368.66 29.03C368.83 29.02 368.9 28.97 368.9 28.79V25.67H366.93C366.79 27.12 366.39 28.64 365.35 29.75C365.23 29.62 364.92 29.39 364.74 29.31C366.14 27.85 366.28 25.74 366.28 24.01V19.07H369.66L369.65 19.06ZM367 24C367 24.3 367 24.61 366.98 24.94H368.9V22.71H367.01V24.01L367 24ZM368.89 19.8H367V21.97H368.89V19.8Z" fill="white"/>
<path d="M382.33 22.15H374.22V22.79C374.22 24.83 374.04 27.77 372.76 29.75C372.62 29.61 372.26 29.4 372.06 29.32C373.3 27.41 373.42 24.74 373.42 22.8V19.26H382.33V22.16V22.15ZM381.53 19.98H374.23V21.42H381.53V19.98ZM383.17 24.35H379.01V25.83H382.13V29.72H381.33V29.3H376.04V29.74H375.26V25.83H378.21V24.35H374.41V23.62H378.21V22.22L379.25 22.28C379.24 22.36 379.18 22.42 379.01 22.45V23.63H383.17V24.36V24.35ZM381.32 28.56V26.54H376.03V28.56H381.32Z" fill="white"/>
<path d="M390.49 25.09H386.88C386.84 26.56 386.64 28.44 385.79 29.74C385.67 29.6 385.35 29.34 385.15 29.25C386.01 27.93 386.1 26.07 386.1 24.67V21.36H390.49V25.09ZM390.86 19.26V20H385.49V19.26H390.86ZM389.71 22.1H386.88V24.35H389.71V22.1ZM396.63 22.74V23.52H395.2V29.74H394.41V23.52H392.18C392.13 25.43 391.8 27.9 390.12 29.7C390.01 29.52 389.72 29.26 389.52 29.15C391.2 27.35 391.39 24.93 391.39 23.06V19.86L392.01 20.03C393.34 19.68 394.79 19.23 395.62 18.76L396.4 19.41C396.4 19.41 396.27 19.48 396.16 19.46C395.19 19.9 393.62 20.37 392.18 20.72V22.76H396.63V22.74Z" fill="white"/>
<path d="M398.89 29.85C399.08 29.25 399.32 28.06 399.42 27.3L400.72 27.13C400.47 28.04 399.96 29.29 399.69 29.76L398.9 29.86L398.89 29.85Z" fill="white"/>
<path d="M409.12 23.7601C409.59 24.1301 410.93 25.3701 411.25 25.6801L410.73 26.3201C410.43 25.9201 409.67 25.1301 409.11 24.5801V29.7401H408.32V24.2101C407.74 25.5701 406.96 26.9501 406.26 27.7701C406.16 27.5501 405.96 27.2201 405.82 27.0101C406.66 26.1101 407.62 24.4201 408.17 22.9401H405.96V22.1601H408.32V20.1201C407.6 20.3101 406.84 20.4701 406.13 20.6101C406.09 20.4401 405.97 20.1701 405.87 20.0001C407.54 19.6801 409.46 19.1501 410.46 18.5801L411.2 19.1801C411.2 19.1801 411.12 19.2301 411.07 19.2301C411.03 19.2301 411.01 19.2301 410.97 19.2201C410.48 19.4601 409.83 19.7001 409.11 19.9001V22.1601H411.2V22.9401H409.11V23.7601H409.12ZM415.06 24.5601C415.95 26.1301 416.81 28.1701 417.07 29.4601L416.25 29.7501C416.18 29.4101 416.07 29.0201 415.94 28.5901C413.91 28.8201 411.81 29.0501 410.5 29.1701C410.49 29.2701 410.42 29.3301 410.33 29.3401L410.01 28.3601L411.16 28.2801C411.9 25.7001 412.72 21.7401 413.15 18.8401L414.3 19.0901C414.28 19.1901 414.16 19.2601 414 19.2801C413.54 21.9401 412.74 25.6201 412.01 28.2001C413.14 28.1201 414.42 28.0001 415.69 27.8901C415.32 26.8601 414.83 25.7401 414.31 24.8101L415.05 24.5701L415.06 24.5601Z" fill="white"/>
<path d="M430.16 26.6601V27.3701H425.1V28.8701C425.1 29.3401 424.96 29.5401 424.56 29.6501C424.16 29.7601 423.48 29.7601 422.38 29.7601C422.33 29.5401 422.21 29.27 422.1 29.08C422.6 29.09 423.08 29.1001 423.44 29.1001C424.2 29.1001 424.26 29.1001 424.26 28.8501V27.3801H419.26V26.6701H424.26V25.8401L424.8 25.8801C425.54 25.6701 426.34 25.3901 427.01 25.1001H420.43V24.4301H428.24L428.4 24.3801L429.07 24.8201C429.03 24.8801 428.94 24.9201 428.87 24.9301C427.91 25.4601 426.46 26.0201 425.12 26.3701V26.6701H430.18L430.16 26.6601ZM430.04 19.6901V20.4001H419.34V19.6901H424.25V18.5701L425.33 18.6301C425.32 18.7101 425.25 18.77 425.08 18.8V19.6901H430.05H430.04ZM428.44 23.6201H421V21.2101H428.44V23.6201ZM421.81 21.8201V22.9901H427.6V21.8201H421.81Z" fill="white"/>
<path d="M432.79 21.98C433.51 22.26 434.39 22.74 434.82 23.12L434.36 23.78C433.93 23.4 433.06 22.88 432.34 22.57L432.78 21.98H432.79ZM432.6 29.13C433.09 28.19 433.8 26.6 434.31 25.24L434.95 25.67C434.49 26.93 433.87 28.42 433.41 29.32C433.46 29.39 433.48 29.45 433.48 29.51C433.48 29.55 433.47 29.59 433.44 29.63L432.59 29.13H432.6ZM433.34 18.72C434.04 19.04 434.86 19.57 435.28 19.97L434.79 20.62C434.39 20.21 433.57 19.65 432.87 19.3L433.34 18.72ZM438.95 28.09H436.17V29.1H435.46V24.18H436.8V21.9H434.97V21.15H436.8V18.61L437.77 18.67C437.76 18.75 437.7 18.8 437.54 18.83V21.16H439.33V21.91H437.54V24.19H438.94V28.1L438.95 28.09ZM438.22 24.9H436.17V27.37H438.22V24.9ZM443.11 19.06V28.79C443.11 29.73 442.64 29.76 441.1 29.76C441.06 29.55 440.94 29.21 440.82 29.02C441.43 29.03 441.96 29.03 442.12 29.03C442.29 29.02 442.36 28.97 442.36 28.79V25.67H440.39C440.25 27.12 439.85 28.64 438.81 29.75C438.69 29.62 438.38 29.39 438.2 29.31C439.6 27.85 439.74 25.74 439.74 24.01V19.07H443.12L443.11 19.06ZM440.46 24C440.46 24.3 440.46 24.61 440.44 24.94H442.36V22.71H440.47V24.01L440.46 24ZM442.35 19.8H440.46V21.97H442.35V19.8Z" fill="white"/>
<path d="M449.86 19.59V27.27H446.71V28.44H446.06V19.59H449.86ZM447.63 20.31H446.71V23.01H447.63V20.31ZM446.71 23.7V26.54H447.63V23.7H446.71ZM449.2 23V20.3H448.23V23H449.2ZM448.23 26.54H449.2V23.7H448.23V26.54ZM456.76 25.59V26.33H453.64V29.72H452.87V26.33H450.08V25.59H452.87V23.73H450.43V22.99H452.87V18.62L453.88 18.69C453.87 18.77 453.8 18.82 453.64 18.85V22.99H456.35V23.73H453.64V25.59H456.76ZM451.12 19.2C451.55 20.11 451.94 21.31 452.06 22.09L451.35 22.31C451.24 21.52 450.87 20.32 450.46 19.41L451.12 19.21V19.2ZM456.4 19.5C456.36 19.57 456.27 19.61 456.15 19.61C455.84 20.42 455.3 21.64 454.85 22.39C454.84 22.39 454.27 22.13 454.27 22.13C454.69 21.34 455.21 20.04 455.47 19.14L456.39 19.5H456.4Z" fill="white"/>
<path d="M464.13 19.3301H464.95C464.95 21.4801 465.23 26.1301 470.07 29.0101C469.89 29.1501 469.57 29.4901 469.42 29.6901C466.3 27.8001 465.01 25.0501 464.48 22.7101C463.62 25.9101 462.06 28.3101 459.54 29.7001C459.38 29.5301 459.07 29.2301 458.87 29.0901C461.52 27.7101 463.07 25.1601 463.82 21.6701L464.31 21.7901C464.21 21.1901 464.17 20.6401 464.15 20.1601H461.09V19.3501H464.12L464.13 19.3301Z" fill="white"/>
<path d="M478.07 28.5401H483.11V29.3301H472.27V28.5401H477.25V25.3301H473.59V24.5501H477.25V21.7801H474.31C473.89 22.6401 473.4 23.4201 472.87 24.0001C472.71 23.8601 472.4 23.6301 472.2 23.5101C473.18 22.4701 474.03 20.6401 474.53 18.8101L475.57 19.1001C475.53 19.1801 475.45 19.2301 475.29 19.2301C475.11 19.8201 474.91 20.4201 474.67 20.9901H477.25V18.5901L478.33 18.6501C478.32 18.7301 478.25 18.7901 478.08 18.8201V20.9901H482.55V21.7801H478.08V24.5501H482.11V25.3301H478.08V28.5401H478.07Z" fill="white"/>
<path d="M485.75 21.9701C486.53 22.2701 487.5 22.8001 487.99 23.2101L487.53 23.8801C487.05 23.4701 486.09 22.9201 485.31 22.5901L485.74 21.9801L485.75 21.9701ZM485.67 29.0301C486.29 28.0801 487.18 26.4501 487.84 25.0701L488.45 25.5701C487.85 26.8501 487.06 28.3601 486.47 29.3101C486.52 29.3701 486.53 29.4301 486.53 29.4801C486.53 29.5301 486.52 29.5801 486.49 29.6101L485.66 29.0201L485.67 29.0301ZM486.4 18.6901C487.17 19.0301 488.11 19.5801 488.58 20.0101L488.11 20.6701C487.65 20.2301 486.72 19.6401 485.94 19.2801L486.4 18.6901ZM496.49 22.9501H492.9V25.0401H495.62V29.6501H494.8V29.1901H490.27V29.7301H489.48V25.0401H492.09V22.9501H488.55V22.1701H492.09V20.0801C491.13 20.2401 490.13 20.3801 489.19 20.4901C489.17 20.2901 489.05 19.9901 488.95 19.8101C491.16 19.5501 493.7 19.1101 495.08 18.6001L495.85 19.2501C495.85 19.2501 495.78 19.3001 495.61 19.3001C494.89 19.5401 493.94 19.7601 492.9 19.9501V22.1801H496.49V22.9601V22.9501ZM494.81 28.4401V25.7801H490.28V28.4401H494.81Z" fill="white"/>
<path d="M498.84 29.85C499.03 29.25 499.27 28.06 499.37 27.3L500.67 27.13C500.42 28.04 499.91 29.29 499.64 29.76L498.85 29.86L498.84 29.85Z" fill="white"/>
<path d="M507.12 26.9601C507.12 27.3201 507.2 27.3801 507.71 27.3801H509.4C509.84 27.3801 509.92 27.1901 509.96 25.8701C510.14 26.0001 510.46 26.1301 510.69 26.1901C510.58 27.7601 510.35 28.1401 509.45 28.1401H507.62C506.61 28.1401 506.32 27.9101 506.32 26.9601V23.0401H509.34V20.3701H505.9V19.6101H510.13V24.1501H509.34V23.7801H507.11V26.9501L507.12 26.9601ZM516.97 21.6201H515.95C515.59 23.6201 515.04 25.2701 514.19 26.5801C514.93 27.6701 515.88 28.5201 517.07 29.0401C516.88 29.2001 516.63 29.5101 516.49 29.7401C515.33 29.1901 514.42 28.3501 513.67 27.2901C512.84 28.3301 511.75 29.1401 510.35 29.7501C510.25 29.5601 510.04 29.2301 509.89 29.0701C511.32 28.4901 512.41 27.6701 513.22 26.5701C512.62 25.5101 512.18 24.2901 511.84 22.9201C511.55 23.5101 511.23 24.0401 510.89 24.4701C510.73 24.3401 510.42 24.1101 510.23 24.0001C511.21 22.7901 511.97 20.6901 512.4 18.5801L513.42 18.8101C513.4 18.9101 513.31 18.9401 513.16 18.9401C513.02 19.5901 512.85 20.2201 512.66 20.8501H516.97V21.6201ZM512.4 21.6201L512.34 21.7601C512.64 23.2701 513.1 24.6401 513.72 25.8101C514.39 24.6601 514.84 23.2701 515.12 21.6101H512.4V21.6201Z" fill="white"/>
<path d="M528.83 25.8101H529L529.46 25.8601L529.42 26.1201C529.29 28.2701 529.13 29.0901 528.84 29.4101C528.6 29.6601 528.34 29.7201 527.68 29.7201C527.38 29.7201 527 29.7101 526.6 29.6801C526.59 29.4601 526.5 29.1601 526.38 28.9601C527 29.0201 527.6 29.0201 527.87 29.0201C528 29.0201 528.1 29.0001 528.17 28.9101C528.36 28.7301 528.48 28.0801 528.6 26.4901H521.92C521.68 26.6801 521.43 26.8601 521.18 27.0301L521.79 27.2201C521.59 28.0801 521.25 29.0301 520.58 29.5801L519.97 29.2001C520.58 28.7201 520.94 27.8701 521.12 27.0701C520.62 27.3901 520.1 27.6801 519.57 27.9101C519.47 27.7401 519.26 27.4401 519.13 27.3001C520.33 26.8301 521.61 26.0101 522.4 25.0201H520.98V21.4201L521.58 21.5601C522.38 21.3401 523.25 21.0701 523.77 20.8201L524.35 21.4101C524.35 21.4101 524.3 21.4301 524.25 21.4301C524.21 21.4301 524.18 21.4301 524.13 21.4201C523.54 21.6501 522.58 21.9201 521.71 22.1301V22.9101H523.9V23.5101H521.71V24.4101H527.5V23.5101H525.29V22.9101H527.5V22.0301H525.15V21.4201H528.24V25.0201H523.49C523.49 25.0201 523.38 25.0801 523.27 25.0801C523.09 25.3301 522.89 25.5701 522.66 25.8101H528.81H528.83ZM525.02 19.7301H529.69V21.8201H528.91V20.4501H520.36V21.8201H519.62V19.7301H524.23V18.5801L525.27 18.6401C525.26 18.7401 525.19 18.7801 525.03 18.8101V19.7301H525.02ZM523.01 29.3501C523.02 28.7901 522.84 27.9001 522.58 27.2201L523.23 27.1401C523.49 27.8201 523.7 28.7001 523.7 29.2601L523.02 29.3601L523.01 29.3501ZM525.13 29.0401C525.02 28.5201 524.69 27.7301 524.3 27.1501L524.9 26.9701C525.3 27.5601 525.66 28.3301 525.76 28.8401L525.12 29.0401H525.13ZM526.56 26.8101C527 27.1901 527.48 27.7701 527.68 28.1701L527.1 28.4801C526.91 28.0701 526.45 27.4801 526.02 27.0801L526.56 26.8201V26.8101Z" fill="white"/>
<path d="M11.0001 41.21H6.31014C7.09014 44.08 8.64014 46.28 11.1901 47.23C10.9901 47.41 10.7201 47.75 10.5901 47.99C8.08014 46.96 6.56014 44.84 5.67014 41.95C5.12014 44.33 3.81014 46.68 0.720137 48.01C0.600137 47.8 0.350137 47.51 0.140137 47.33C3.31014 46.05 4.49014 43.65 4.95014 41.23H0.320137V40.4H5.08014C5.24014 39.15 5.22014 37.93 5.24014 36.89L6.37014 36.95C6.36014 37.06 6.26014 37.12 6.11014 37.15C6.10014 38.1 6.09014 39.22 5.94014 40.4H11.0001V41.23V41.21Z" fill="white"/>
<path d="M13.55 37.39H23.66V47.99H22.87V47.46H14.31V47.99H13.54V37.39H13.55ZM14.32 46.72H22.87V38.13H14.31V46.72H14.32ZM19.02 43.65C19.28 43.96 19.62 44.26 20.02 44.54C20.54 44.22 21.16 43.76 21.52 43.45L22.18 43.86C22.18 43.86 22.06 43.93 21.94 43.93C21.57 44.19 21 44.55 20.5 44.84C21.12 45.21 21.82 45.5 22.5 45.68C22.34 45.8 22.15 46.05 22.04 46.22C20.84 45.85 19.58 45.09 18.75 44.21V46.37H18.02V44.49C17.18 45.07 16.15 45.56 15.2 45.91C15.1 45.78 14.89 45.53 14.77 45.41C15.9 45.04 17.18 44.41 18.07 43.67H15.94V41.64H21.23V43.67H19.02V43.65ZM22.21 40.47V41.02H14.95V40.47H18.18V39.67H15.71V39.13H18.18V38.4L19.16 38.47C19.15 38.54 19.09 38.6 18.93 38.63V39.13H21.48V39.67H18.93V40.47H22.2H22.21ZM16.63 42.11V43.14H20.49V42.11H16.63Z" fill="white"/>
<path d="M28.1999 44.15C28.5999 43.98 28.9999 43.8 29.4099 43.63L29.5699 44.34C28.4299 44.88 27.2299 45.43 26.4799 45.77C26.4699 45.87 26.4199 45.94 26.3499 45.97L25.9199 45.06C26.3499 44.9 26.8799 44.69 27.4699 44.45V40.47H26.1399V39.7H27.4699V36.98L28.4499 37.04C28.4399 37.12 28.3699 37.18 28.2099 37.21V39.7H29.4299V40.47H28.2099V44.15H28.1999ZM34.4199 39.59C34.4899 41.26 34.6399 42.83 34.8499 44.12C35.3499 43.16 35.7499 42.08 36.0399 40.89L36.9799 41.12C36.9599 41.2 36.8699 41.25 36.7199 41.25C36.3399 42.73 35.7999 44.06 35.0799 45.18C35.3799 46.45 35.7599 47.26 36.2199 47.26C36.4799 47.26 36.6199 46.61 36.6599 45.18C36.8299 45.35 37.0799 45.54 37.2599 45.61C37.1199 47.46 36.8799 48.01 36.1199 48.02C35.4099 48.02 34.8799 47.24 34.5099 45.97C33.9099 46.74 33.2099 47.39 32.4199 47.9C32.3099 47.76 32.0599 47.5 31.8899 47.38C32.8299 46.8 33.6199 46.01 34.2799 45.07C33.9599 43.57 33.7599 41.63 33.6799 39.58H30.4999V41.27H32.6899L33.0599 41.28V41.54C33.0099 44.32 32.9599 45.27 32.7499 45.57C32.4999 45.89 32.1999 45.89 31.6599 45.89C31.4599 45.89 31.2399 45.88 31.0199 45.87C30.9999 45.67 30.9399 45.37 30.8299 45.19C31.2599 45.23 31.6699 45.23 31.8299 45.23C31.9899 45.23 32.0699 45.22 32.1399 45.11C32.2599 44.93 32.3099 44.15 32.3399 41.96H30.4899V42.4C30.4899 44.13 30.2699 46.46 28.9499 48.02C28.8299 47.86 28.5199 47.61 28.3399 47.52C29.5999 46.06 29.7299 43.99 29.7299 42.4V38.83H33.6299C33.6199 38.18 33.5899 37.52 33.5899 36.86L34.6099 36.92C34.5999 37.02 34.5299 37.06 34.3599 37.09C34.3599 37.67 34.3599 38.25 34.3799 38.83H37.0399V39.58H34.3999L34.4199 39.59ZM35.4299 36.86C36.0199 37.28 36.7099 37.88 37.0499 38.31L36.4699 38.72C36.1599 38.3 35.4599 37.68 34.8699 37.23L35.4199 36.86H35.4299Z" fill="white"/>
<path d="M49.9901 38.5601V39.3501H44.9601L45.1401 39.36C45.1301 39.44 45.0601 39.5001 44.9001 39.5301V41.08H48.8301V45.4101C48.8301 46.3601 48.4501 46.4301 46.1901 46.4301C46.1501 46.1901 46.0101 45.8501 45.9001 45.6301C46.7601 45.6601 47.5001 45.6601 47.7201 45.6601C47.9401 45.6301 48.0001 45.5901 48.0001 45.4201V41.8801H44.8901V48.05H44.0501V41.8801H41.1401V46.4901H40.3201V41.0901H44.0501V39.36H39.0601V38.5701H44.0501V36.8101L45.1401 36.8701C45.1301 36.9701 45.0601 37.03 44.8901 37.05V38.5701H49.9801L49.9901 38.5601Z" fill="white"/>
<path d="M53.6998 38.2001V41.0401C53.6998 43.0401 53.5598 45.9601 52.5098 47.9701C52.3698 47.8401 52.0398 47.6501 51.8398 47.5601C52.8498 45.6401 52.9298 42.95 52.9298 41.0201V37.4501H62.8598V38.1901H53.6998V38.2001ZM58.6398 45.36V46.9601H62.9098V47.6601H53.5298V46.9601H55.1498V44.3201L56.1598 44.3901C56.1498 44.4701 56.0898 44.52 55.9298 44.55V46.9601H57.8598V43.4301L58.8798 43.5001C58.8698 43.5801 58.8098 43.6401 58.6398 43.6601V44.7001H61.6598V45.36H58.6398ZM56.4198 43.4501H55.7198V41.6001C55.2998 42.3101 54.7198 42.9901 54.1998 43.3901C54.0898 43.2201 53.8798 42.9901 53.7298 42.8701C54.3298 42.5001 54.9798 41.7701 55.4098 41.0401H54.0998V40.4001H55.7198V39.4801C55.2598 39.5501 54.7998 39.6101 54.3698 39.6501C54.3298 39.5201 54.2398 39.2901 54.1498 39.1501C55.2198 39.0301 56.4598 38.8301 57.0998 38.5401L57.7498 39.0301C57.7498 39.0301 57.6898 39.0701 57.5298 39.0701C57.2298 39.1801 56.8498 39.2901 56.4098 39.3701V40.4101H57.8498V41.05H56.4098V41.1301C56.7498 41.3601 57.5898 41.9701 57.7998 42.1601L57.3698 42.7001C57.1898 42.5001 56.7698 42.11 56.4098 41.8V43.4601L56.4198 43.4501ZM60.6698 43.4501H59.9598V41.33C59.4798 42.15 58.7598 42.9501 58.0998 43.3901C57.9898 43.2201 57.7798 42.9901 57.6298 42.8701C58.2898 42.5001 59.0198 41.7801 59.4898 41.0401H58.2498V40.4001H59.9498V39.4601C59.4698 39.5201 58.9798 39.5801 58.5198 39.6201C58.4798 39.4801 58.3898 39.2501 58.3198 39.1001C59.4498 38.9901 60.8098 38.7901 61.4998 38.5001C61.9198 38.8001 62.0398 38.9001 62.1498 38.9901C62.0998 39.0301 62.0898 39.0301 61.9298 39.0301C61.5898 39.1501 61.1498 39.2501 60.6598 39.3401V40.3901H62.7098V41.0301H61.1098C61.5698 41.7601 62.2998 42.4401 63.0398 42.7801C62.8698 42.9101 62.6598 43.15 62.5498 43.33C61.8198 42.91 61.1198 42.1401 60.6598 41.3401V43.4401L60.6698 43.4501Z" fill="white"/>
<path d="M75.1702 42.83H70.8401C70.7701 43.89 70.5201 44.8901 69.7701 45.7701C71.2601 46.6901 73.3001 47.0301 76.0901 47.2001C75.9201 47.3901 75.7502 47.7401 75.7102 48.0101C72.8702 47.8001 70.7401 47.39 69.2001 46.33C68.3801 47.01 67.1702 47.5901 65.3902 48.0201C65.2902 47.8301 65.0802 47.48 64.9102 47.3C66.6402 46.92 67.7902 46.41 68.5402 45.83C67.8602 45.22 67.3002 44.4401 66.8702 43.4301L67.5901 43.1801C68.0001 44.0701 68.5001 44.7501 69.1301 45.2801C69.7701 44.5501 69.9601 43.71 70.0201 42.83H65.9501V38.4801H70.0402V36.9301L71.1102 36.9901C71.1002 37.0901 71.0302 37.1501 70.8702 37.1701V38.4801H75.1802V42.83H75.1702ZM66.7302 42.05H70.0402V39.2601H66.7302V42.05ZM74.3602 39.2601H70.8702V42.05H74.3602V39.2601Z" fill="white"/>
<path d="M83.79 44.2401V46.86C84.43 46.98 85.12 47.0201 85.88 47.0201C86.3 47.0201 88.41 47.0201 88.96 47.0101C88.83 47.2101 88.68 47.59 88.65 47.83H85.84C83.26 47.83 81.39 47.3901 80.28 45.2401C79.85 46.4101 79.24 47.4001 78.4 48.0601C78.27 47.9001 77.98 47.6601 77.79 47.5301C79.11 46.5601 79.8 44.7201 80.08 42.4801L81.11 42.6501C81.09 42.7301 81.01 42.7901 80.87 42.7901C80.8 43.2701 80.7 43.7401 80.59 44.1901C81.09 45.5301 81.91 46.2501 82.96 46.6401V41.36H79.9V40.5901H86.95V41.36H83.78V43.4801H87.46V44.2501H83.78L83.79 44.2401ZM79.16 39.0701V40.8801H78.37V38.3H82.95V36.8201L84.04 36.8901C84.03 36.9701 83.96 37.0301 83.79 37.0601V38.3H88.42V40.8801H87.59V39.0701H79.16Z" fill="white"/>
<path d="M92.4098 41.09C91.9498 41.85 91.4498 42.52 90.9498 43.09C90.8698 42.9 90.6598 42.53 90.5298 42.33C91.6798 41.08 92.8298 39.01 93.5298 36.93L94.4898 37.25C94.4398 37.33 94.3598 37.37 94.2098 37.36C93.8998 38.2 93.5298 39.04 93.1098 39.84L93.4298 39.92C93.4098 39.99 93.3498 40.05 93.1898 40.06V48.01H92.4098V41.07V41.09ZM93.9298 46.64H101.98V47.42H93.9298V46.64ZM94.2298 39.28H97.4598V36.88L98.4998 36.94C98.4898 37.04 98.4298 37.08 98.2598 37.11V39.28H101.67V40.06H94.2298V39.28ZM95.8998 40.88C96.3798 42.51 96.8098 44.6 96.9198 45.82L96.1198 45.99C96.0198 44.78 95.6298 42.63 95.1698 41.01L95.8998 40.88ZM100.94 41.08C100.92 41.16 100.81 41.22 100.66 41.22C100.35 42.67 99.7998 44.77 99.3198 46.05C99.3198 46.05 98.6198 45.83 98.6198 45.82C99.0898 44.52 99.6298 42.34 99.8998 40.79L100.93 41.07L100.94 41.08Z" fill="white"/>
<path d="M106.86 46.32C106.86 47.24 106.1 48 105.18 48C104.26 48 103.5 47.24 103.5 46.32C103.5 45.4 104.26 44.64 105.18 44.64C106.1 44.64 106.86 45.42 106.86 46.32ZM106.43 46.32C106.43 45.62 105.88 45.07 105.18 45.07C104.48 45.07 103.94 45.62 103.94 46.32C103.94 47.02 104.49 47.56 105.18 47.56C105.9 47.56 106.43 46.98 106.43 46.32Z" fill="white"/>
</svg>
