<svg width="1611" height="72" viewBox="0 0 1611 72" fill="none" xmlns="http://www.w3.org/2000/svg">
<g clip-path="url(#clip0_2004_1020)">
<path d="M835.32 6.16471C834.945 6.83971 834.12 7.28971 832.92 7.13971C828.27 17.5047 821.055 28.4697 813.465 35.4597C811.14 33.2097 806.475 29.5197 803.625 27.7197C810.84 21.9297 817.755 11.4147 821.355 1.57471L835.32 6.14971V6.16471ZM844.035 31.6347C843.66 32.4597 842.685 32.9097 841.26 33.0597C838.41 40.7247 833.97 49.5147 829.62 56.9547C836.76 56.7297 844.425 56.4297 852 56.1297C849.45 52.0047 846.735 47.8647 844.185 44.3397L854.85 39.4497C861.315 47.7147 868.065 58.4547 871.605 65.8947L860.19 71.9097C859.515 70.1847 858.615 68.3097 857.565 66.1947C840.735 67.3947 823.68 68.3697 812.04 68.8947C811.815 69.7197 811.065 70.1697 810.39 70.1697L806.04 57.5547L817.08 57.3297C821.97 48.6147 826.77 37.1247 829.545 27.7347L844.05 31.6347H844.035ZM853.575 1.81471C857.625 10.0797 865.74 19.8447 872.58 26.2347C869.655 28.4847 865.44 32.8497 863.34 35.8497C856.2 27.9597 848.01 16.6197 842.535 6.25471L853.575 1.82971V1.81471Z" fill="#FFFF00"/>
<path d="M911.79 12.6153V21.1053H881.67V12.6153H911.79ZM943.71 32.1453L950.625 34.7703C950.475 35.3703 950.1 35.6703 949.725 36.1203C947.55 44.3103 944.01 51.0003 939.21 56.4753C943.41 58.8753 948.3 60.7503 953.64 62.0403C951.24 64.2153 948.075 68.6553 946.575 71.4303C940.635 69.6303 935.385 67.0803 930.795 63.7653C926.055 66.9903 920.58 69.5553 914.34 71.4303C913.29 68.8053 910.89 64.6653 908.925 62.2653V67.7553H894.195V70.3803H885.03V44.3253H908.925V61.7553C913.965 60.5553 918.54 58.7553 922.515 56.3403C919.59 53.0403 917.1 49.3503 914.925 45.2253L924.315 42.2253H912.75V32.4603H915.825C914.1 30.5853 911.01 28.0353 908.985 26.7453V31.4853H885.315V23.3703H908.985V26.0703C915.075 21.7203 915.675 16.0053 915.675 11.1153V2.17529H941.97V18.1803C941.97 20.4303 942.045 20.6553 942.645 20.6553H943.47C944.22 20.6553 944.52 19.6803 944.67 13.5153C946.545 15.0903 950.76 16.6653 953.46 17.3403C952.56 27.0303 950.085 29.8053 944.595 29.8053H940.62C933.78 29.8053 931.755 27.0303 931.755 18.3153V11.7903H925.965C925.89 18.7803 924.465 27.1203 917.85 32.4453H941.82L943.695 32.1453H943.71ZM909 33.7203V41.8353H885.33V33.7203H909ZM908.925 2.32529V10.4403H885.57V2.32529H908.925ZM899.61 59.1903V52.8003H894.195V59.1903H899.61ZM924.63 42.2103C926.13 44.9853 928.155 47.6253 930.57 49.9503C932.745 47.7003 934.545 45.0603 936.06 42.2103H924.645H924.63Z" fill="#FFFF00"/>
<path d="M1012.29 34.1846H1003.88C1002.98 42.6746 1001.25 49.7396 998.55 55.5146C1004.57 60.6296 1011.69 60.6296 1019.81 60.6296C1024.31 60.6296 1030.7 60.5546 1033.62 60.4796C1032.35 62.7296 1030.92 67.1696 1030.55 69.8696H1015.22C1006.43 69.8696 999.21 68.4446 993.585 63.6296C991.035 66.7796 987.945 69.4196 984.27 71.5946C982.995 69.2696 980.67 65.8796 978.78 64.0796C982.305 62.2796 985.17 59.5796 987.495 56.0396C985.545 52.4396 983.82 48.0746 982.47 42.5996L990.51 40.1246C990.96 42.1496 991.56 44.0246 992.16 45.6896C993.135 42.5396 993.81 39.0746 994.335 35.3996H991.785L990.96 37.7246L982.47 35.9246L983.295 41.7146L978.405 43.3646V60.4196C978.405 68.3096 976.38 71.6096 964.74 71.6096C964.44 68.8346 963.315 64.3946 962.04 61.4696C963.315 61.5446 964.665 61.6196 965.715 61.6196C968.19 61.6196 968.49 61.6196 968.49 60.3446V46.6046L964.665 47.8046C964.515 48.6296 963.84 49.1546 963.165 49.3046L960.69 37.5146C962.865 37.0646 965.565 36.4646 968.505 35.7896V24.2996H961.815V14.3096H968.505V0.224609L980.52 0.749609C980.445 1.57461 979.92 2.09961 978.42 2.32461V14.2646H982.47V24.2546H978.42V33.4196L982.02 32.5196L982.245 34.1696C984.72 27.7796 987.42 20.2046 989.535 13.8896H983.145V4.27461H994.71L996.66 4.04961L1002.08 5.69961C1001.93 6.22461 1001.7 6.89961 1001.48 7.34961C999.825 12.5396 997.35 19.8896 994.71 27.2546H997.71L999.36 27.1046L1002.51 27.6296V24.6296H1012.27V15.0896C1009.8 15.6896 1007.33 16.1396 1004.91 16.5896C1004.46 14.3396 1003.04 10.7996 1001.76 8.62461C1009.88 6.97461 1018.44 4.12461 1023.69 0.809609L1032.03 8.62461C1031.66 9.07461 1030.91 9.07461 1030.01 9.07461C1028.21 10.0496 1026.11 10.8746 1023.84 11.6996L1024.52 11.7746C1024.44 12.5246 1023.84 13.0496 1022.42 13.2746V24.6146H1031.95V34.1546H1022.42V46.0946H1030.91V55.4846H1004.46V46.0946H1012.27V34.1546L1012.29 34.1846Z" fill="#FFFF00"/>
<path d="M1060.44 60.9896C1060.44 66.7796 1055.7 71.5046 1049.93 71.5046C1044.15 71.5046 1039.41 66.7646 1039.41 60.9896C1039.41 55.2146 1044.15 50.4746 1049.93 50.4746C1055.7 50.4746 1060.44 55.3646 1060.44 60.9896ZM1056.69 60.9896C1056.69 57.2396 1053.69 54.2246 1049.93 54.2246C1046.16 54.2246 1043.16 57.2246 1043.16 60.9896C1043.16 64.7546 1046.16 67.7546 1049.93 67.7546C1053.69 67.7546 1056.69 64.6046 1056.69 60.9896Z" fill="#FFFF00"/>
<path d="M1086.05 71.445V38.085H1115.86V71.13H1104.98V69.105H1096.34V71.43H1086.05V71.445ZM1104.98 48.54H1096.34V58.68H1104.98V48.54ZM1139.09 2.64V32.97H1098.6V2.625H1139.09V2.64ZM1127.89 22.62V13.08H1109.11V22.62H1127.89ZM1121.2 38.1H1151.77V70.845H1140.81V69.045H1131.64V71.145H1121.2V38.085V38.1ZM1131.64 58.605H1140.81V48.54H1131.64V58.605Z" fill="#FFFF00"/>
<path d="M1175.5 28.6197C1175.5 32.5197 1175.5 33.8097 1175.43 35.9097H1189.32V68.8047H1180.23V44.9847H1175.05C1174.45 54.1497 1173.18 63.9897 1170.61 71.4297C1168.51 70.4547 1164.37 69.0297 1161.9 68.4297C1165.95 57.5397 1166.55 40.2597 1166.55 30.0447V2.39971L1177.52 2.99971C1177.44 3.74971 1176.84 4.19971 1175.49 4.42471V19.4547H1179.46V0.224707L1190.5 0.824707C1190.43 1.57471 1189.91 2.02471 1188.48 2.24971V19.4547H1193.05V28.6197H1175.48H1175.5ZM1233.95 49.5747V58.5897H1223.5V71.5047H1213.29V58.5897H1191.66V49.5747H1200C1198.35 47.8497 1195.5 45.3747 1193.68 44.2347C1198.78 42.3597 1202.1 39.8847 1204.35 37.1697H1195.11V8.33971H1204.88C1206 5.63971 1207.13 2.47471 1207.73 0.074707L1220.41 3.14971C1220.11 3.82471 1219.44 4.12471 1218.24 4.12471C1217.56 5.39971 1216.67 6.89971 1215.77 8.32471H1231.55V37.1847H1215.16L1214.34 38.7597L1225.68 39.3597C1225.6 40.1847 1225 40.6347 1223.5 40.8597V49.5747H1233.95ZM1213.29 40.4847C1210.96 44.0097 1207.35 47.1747 1201.95 49.5747H1213.29V40.4847ZM1204.65 16.3647V18.9897H1208.4V16.3647H1204.65ZM1204.65 29.1297H1208.02C1208.17 28.2297 1208.25 27.3297 1208.32 26.4297H1204.64V29.1297H1204.65ZM1221.55 29.1297V26.4297H1217.5L1217.28 29.1297H1221.55ZM1221.55 18.9897V16.3647H1217.5V18.9897H1221.55Z" fill="#FFFF00"/>
<path d="M1293.21 34.1846H1284.8C1283.9 42.6746 1282.17 49.7396 1279.45 55.5146C1285.47 60.6296 1292.6 60.6296 1300.71 60.6296C1305.23 60.6296 1311.6 60.5546 1314.52 60.4796C1313.25 62.7296 1311.82 67.1696 1311.45 69.8696H1296.12C1287.33 69.8696 1280.11 68.4446 1274.49 63.6296C1271.94 66.7796 1268.85 69.4196 1265.18 71.5946C1263.9 69.2696 1261.57 65.8796 1259.68 64.0796C1263.21 62.2796 1266.07 59.5796 1268.4 56.0396C1266.45 52.4396 1264.72 48.0746 1263.36 42.5996L1271.4 40.1246C1271.85 42.1496 1272.45 44.0246 1273.05 45.6896C1274.03 42.5396 1274.7 39.0746 1275.23 35.3996H1272.68L1271.85 37.7246L1263.36 35.9246L1264.18 41.7146L1259.3 43.3646V60.4196C1259.3 68.3096 1257.27 71.6096 1245.63 71.6096C1245.33 68.8346 1244.2 64.3946 1242.93 61.4696C1244.2 61.5446 1245.56 61.6196 1246.61 61.6196C1249.08 61.6196 1249.38 61.6196 1249.38 60.3446V46.6046L1245.55 47.8046C1245.4 48.6296 1244.73 49.1546 1244.05 49.3046L1241.58 37.5146C1243.75 37.0646 1246.47 36.4646 1249.39 35.7896V24.2996H1242.7V14.3096H1249.39V0.224609L1261.41 0.749609C1261.34 1.57461 1260.81 2.09961 1259.31 2.32461V14.2646H1263.36V24.2546H1259.31V33.4196L1262.91 32.5196L1263.14 34.1696C1265.61 27.7796 1268.33 20.2046 1270.43 13.8896H1264.04V4.27461H1275.6L1277.55 4.04961L1282.96 5.69961C1282.81 6.22461 1282.59 6.89961 1282.36 7.34961C1280.71 12.5396 1278.24 19.8896 1275.6 27.2546H1278.6L1280.25 27.1046L1283.4 27.6296V24.6296H1293.16V15.0896C1290.69 15.6896 1288.22 16.1396 1285.8 16.5896C1285.35 14.3396 1283.92 10.7996 1282.65 8.62461C1290.76 6.97461 1299.33 4.12461 1304.58 0.809609L1312.92 8.62461C1312.55 9.07461 1311.79 9.07461 1310.89 9.07461C1309.09 10.0496 1307 10.8746 1304.73 11.6996L1305.41 11.7746C1305.33 12.5246 1304.73 13.0496 1303.3 13.2746V24.6146H1312.84V34.1546H1303.3V46.0946H1311.8V55.4846H1285.35V46.0946H1293.16V34.1546L1293.21 34.1846Z" fill="#FFFF00"/>
<path d="M1341.35 60.9896C1341.35 66.7796 1336.6 71.5046 1330.83 71.5046C1325.05 71.5046 1320.32 66.7646 1320.32 60.9896C1320.32 55.2146 1325.05 50.4746 1330.83 50.4746C1336.6 50.4746 1341.35 55.3646 1341.35 60.9896ZM1337.6 60.9896C1337.6 57.2396 1334.59 54.2246 1330.83 54.2246C1327.06 54.2246 1324.07 57.2246 1324.07 60.9896C1324.07 64.7546 1327.06 67.7546 1330.83 67.7546C1334.59 67.7546 1337.6 64.6046 1337.6 60.9896Z" fill="#FFFF00"/>
<path d="M1366.66 35.0099C1364.71 37.7099 1362.69 40.1249 1360.65 42.3749C1359.6 39.5999 1356.9 33.8099 1355.31 31.1849C1361.92 24.4199 1368.75 12.1049 1372.82 0.314941L1385.05 4.58994C1384.75 5.26494 1383.93 5.63994 1382.73 5.56494C1380.85 10.1399 1378.68 14.7299 1376.34 19.2299L1379.71 20.1299C1379.49 20.8799 1378.81 21.4799 1377.46 21.6299V71.5199H1366.65V35.0099H1366.66ZM1427.73 16.1549V26.9699H1419.84V59.1149C1419.84 69.1049 1416.84 71.7299 1398.66 71.7299C1398.21 68.6549 1396.48 63.7649 1394.91 60.7649C1398.06 60.9899 1401.52 61.0649 1403.92 61.0649C1408.2 61.0649 1408.8 61.0649 1408.8 59.0399V26.9699H1381.08V16.1549H1408.8V0.974941L1422.09 1.57494C1422.01 2.39994 1421.49 2.99994 1419.84 3.22494V16.1549H1427.73ZM1392.72 53.4149C1391.37 48.6899 1387.3 41.2499 1383.7 35.6849L1393.24 31.1099C1396.99 36.3749 1401.36 43.3499 1403.08 48.2399L1392.72 53.4299V53.4149Z" fill="#FFFF00"/>
<path d="M1471.97 47.55H1458.53V61.665C1458.53 68.355 1457.18 71.58 1446.06 71.58C1445.76 68.805 1444.56 64.89 1443.44 62.265C1442.69 63.84 1441.94 65.34 1441.11 66.54C1439.16 65.265 1435.7 63.69 1433.45 62.865C1436 59.415 1437.57 53.55 1438.34 48.21L1448.4 50.535C1448.1 51.21 1447.5 51.51 1446.68 51.435C1446 54.96 1444.95 58.875 1443.45 62.175C1445.03 62.25 1446.9 62.25 1447.52 62.25C1448.19 62.25 1448.42 62.025 1448.42 61.35V47.535H1434.44V38.67H1472V47.535L1471.97 47.55ZM1448.3 17.355V15.03H1435.01V6.24H1448.3V0.225L1460.69 0.9C1460.61 1.725 1460.01 2.175 1458.51 2.4V6.225H1471.58V15.015H1458.51V17.34H1469.18V26.055H1437.41V17.34H1448.3V17.355ZM1492.4 23.595V30.135C1492.4 38.4 1495.47 53.265 1506.74 61.905C1504.86 64.305 1501.79 68.82 1500.2 71.52C1492.53 65.88 1488.26 54.015 1487.21 47.4H1487.13C1486.01 54.165 1480.89 65.58 1472.33 71.52C1471.2 69.12 1468.13 64.38 1466.31 62.355C1467.96 61.155 1469.54 59.88 1470.89 58.53L1462.85 61.83C1462.4 59.055 1460.9 54.54 1459.4 51.165L1467.44 48.09C1469.01 51.165 1470.74 55.305 1471.26 58.08C1479.53 49.29 1481.78 37.275 1481.78 30.135V25.41C1480.13 30.375 1478.18 34.8 1475.76 38.325C1474.11 36.675 1470.95 34.125 1468.47 32.46V36.66H1438.35V27.945H1468.47V30.12C1472.6 22.98 1475.01 11.34 1476.14 0L1488.68 2.4C1488.45 3.15 1487.78 3.6 1486.65 3.6C1486.13 6.975 1485.6 10.365 1484.85 13.74H1500.03L1505.82 13.89C1505.82 14.19 1504.7 27.48 1502.15 37.32L1493.58 34.845C1494.03 31.845 1494.48 27.78 1494.86 23.58H1492.38L1492.4 23.595Z" fill="#FFFF00"/>
<path d="M1563.62 34.1846H1555.2C1554.3 42.6746 1552.57 49.7396 1549.86 55.5146C1555.87 60.6296 1563 60.6296 1571.12 60.6296C1575.62 60.6296 1582 60.5546 1584.93 60.4796C1583.65 62.7296 1582.23 67.1696 1581.85 69.8696H1566.52C1557.73 69.8696 1550.52 68.4446 1544.9 63.6296C1542.35 66.7796 1539.25 69.4196 1535.58 71.5946C1534.3 69.2696 1531.98 65.8796 1530.09 64.0796C1533.61 62.2796 1536.48 59.5796 1538.8 56.0396C1536.85 52.4396 1535.13 48.0746 1533.78 42.5996L1541.82 40.1246C1542.27 42.1496 1542.87 44.0246 1543.47 45.6896C1544.44 42.5396 1545.12 39.0746 1545.65 35.3996H1543.09L1542.27 37.7246L1533.78 35.9246L1534.61 41.7146L1529.73 43.3646V60.4196C1529.73 68.3096 1527.71 71.6096 1516.05 71.6096C1515.75 68.8346 1514.63 64.3946 1513.35 61.4696C1514.63 61.5446 1515.97 61.6196 1517.02 61.6196C1519.5 61.6196 1519.8 61.6196 1519.8 60.3446V46.6046L1515.98 47.8046C1515.83 48.6296 1515.15 49.1546 1514.48 49.3046L1512 37.5146C1514.18 37.0646 1516.88 36.4646 1519.82 35.7896V24.2996H1513.12V14.3096H1519.82V0.224609L1531.83 0.749609C1531.75 1.57461 1531.23 2.09961 1529.73 2.32461V14.2646H1533.78V24.2546H1529.73V33.4196L1533.33 32.5196L1533.55 34.1696C1536.03 27.7796 1538.74 20.2046 1540.84 13.8896H1534.45V4.27461H1546.02L1547.97 4.04961L1553.38 5.69961C1553.23 6.22461 1553.01 6.89961 1552.78 7.34961C1551.13 12.5396 1548.66 19.8896 1546.02 27.2546H1549.02L1550.67 27.1046L1553.82 27.6296V24.6296H1563.59V15.0896C1561.11 15.6896 1558.62 16.1396 1556.22 16.5896C1555.77 14.3396 1554.35 10.7996 1553.07 8.62461C1561.19 6.97461 1569.75 4.12461 1575 0.809609L1583.34 8.62461C1582.97 9.07461 1582.21 9.07461 1581.31 9.07461C1579.51 10.0496 1577.41 10.8746 1575.15 11.6996L1575.83 11.7746C1575.75 12.5246 1575.15 13.0496 1573.73 13.2746V24.6146H1583.27V34.1546H1573.73V46.0946H1582.22V55.4846H1555.77V46.0946H1563.59V34.1546L1563.62 34.1846Z" fill="#FFFF00"/>
<path d="M1610.25 60.9896C1610.25 66.7796 1605.51 71.5046 1599.73 71.5046C1593.96 71.5046 1589.22 66.7646 1589.22 60.9896C1589.22 55.2146 1593.96 50.4746 1599.73 50.4746C1605.51 50.4746 1610.25 55.3646 1610.25 60.9896ZM1606.5 60.9896C1606.5 57.2396 1603.5 54.2246 1599.73 54.2246C1595.97 54.2246 1592.97 57.2246 1592.97 60.9896C1592.97 64.7546 1595.97 67.7546 1599.73 67.7546C1603.5 67.7546 1606.5 64.6046 1606.5 60.9896Z" fill="#FFFF00"/>
<path d="M13.77 63.8104H5.595L7.935 49.6804H0.75V43.1104H9.15L10.68 34.1704H3.18V27.6004H11.745L14.085 13.8604H22.08L19.815 27.6004H27.33L29.595 13.8604H37.68L35.415 27.6004H42.525V34.1704H34.275L32.745 43.1104H40.185V49.6804H31.62L29.28 63.8104H21.12L23.55 49.6804H16.035L13.77 63.8104ZM17.25 43.1104H24.765L26.22 34.1704H18.705L17.25 43.1104Z" fill="#FFFF00"/>
<path d="M73.125 24.5701V28.9801H85.71V37.5901H73.125V40.6201H84.93V56.7901C84.93 62.7001 83.49 65.2051 75.03 65.2051C74.835 62.9701 74.04 60.0751 73.125 57.8401V69.9901H64.08V49.0951H60.795V64.8601H52.335V40.6051H64.065V37.5751H49.965V28.9651H54.165C52.665 28.1701 51.015 27.3901 49.77 26.8651C51.54 22.5901 52.98 15.3001 53.64 8.92506L63.87 11.4151C63.675 11.9401 63.075 12.3301 62.16 12.2701L61.575 15.9451H64.065V7.56006L75.015 8.14506C74.955 8.86506 74.43 9.25506 73.11 9.52506V15.9601H83.985V24.5701H73.11H73.125ZM59.55 24.5701C59.085 26.1451 58.56 27.6001 58.11 28.9801H64.08V24.5701H59.55ZM76.395 49.0801H73.125V57.2251C74.175 57.2851 75.345 57.2851 75.75 57.2851C76.275 57.2851 76.41 57.1501 76.41 56.5651V49.0801H76.395ZM98.49 16.2901C98.43 16.9501 97.905 17.4001 96.66 17.6101V53.2951H87.81V15.7051L98.49 16.2901ZM101.175 9.00006L112.185 9.46506C112.05 10.1851 111.6 10.7101 110.28 10.9051V59.3401C110.28 67.6801 107.73 70.0501 95.01 70.0501C94.68 67.4251 93.375 63.2101 92.19 60.5251C95.34 60.6601 98.61 60.6601 99.735 60.6601C100.785 60.6601 101.175 60.3301 101.175 59.2801V9.00006Z" fill="#FFFF00"/>
<path d="M154.215 52.0503V59.7453C156.045 59.9403 157.95 60.0153 159.915 60.0153C164.04 60.0153 174.735 60.0153 179.85 59.8203C178.47 62.0553 176.97 66.6603 176.505 69.5403H159.39C147.915 69.5403 139.335 67.6953 133.44 59.0253C131.34 63.6303 128.595 67.5003 124.98 70.3203C123.405 68.6103 119.805 65.4603 117.645 64.0803C124.455 59.3553 127.545 49.9503 128.52 38.9853L139.86 40.6353C139.665 41.2953 139.08 41.7453 138.09 41.8203C137.835 43.9203 137.43 45.9603 137.04 47.9253C138.675 52.3203 141.165 55.1553 144.255 57.0003V36.4353H132.33V27.3603H165.69V36.4353H154.215V43.1403H171.39V52.0803H154.215V52.0503ZM130.485 23.2653V32.0103H121.11V14.2653H144.045V7.42529L156.375 8.08529C156.315 8.88029 155.715 9.33029 154.275 9.52529V14.2503H177.345V31.9953H167.52V23.2503H130.485V23.2653Z" fill="#FFFF00"/>
<path d="M195.135 47.5801V30.6901C193.755 32.1301 192.39 33.5101 191.01 34.6951C189.96 32.8501 187.47 28.9801 185.955 27.2701C191.325 22.9351 197.1 15.1201 200.31 7.62012L209.94 11.1751C209.61 11.7601 208.965 12.0301 208.035 11.8951C206.73 14.5201 205.155 17.1451 203.52 19.7101L206.205 20.5651C206.01 21.2251 205.41 21.7501 204.24 21.8851V47.5801H195.12H195.135ZM212.64 58.4251C212.64 60.3901 213.09 60.6001 215.715 60.6001H222.465C224.565 60.6001 225.015 59.9401 225.285 55.4101C227.115 56.7901 231.12 58.2301 233.67 58.7551C232.62 66.9001 230.07 69.0001 223.38 69.0001H214.47C205.23 69.0001 203.19 66.3751 203.19 58.6201V54.0901C201.36 59.6701 198.66 64.9351 194.07 68.4151L186.21 62.8951C190.335 60.0001 193.35 55.4701 194.865 50.4751L203.19 53.4301V50.2801L212.235 50.7451C211.185 49.9501 210.135 49.2301 209.16 48.5701L215.52 43.1851C216.84 43.9051 218.28 44.8351 219.72 45.8101C219.255 43.7101 218.34 41.2051 217.485 39.3001C216.375 40.8751 215.325 42.3901 214.215 43.6351C212.445 42.2551 209.295 40.2151 207.195 39.1651C210.075 36.1351 212.76 31.2151 214.41 26.8051H214.35C213.3 28.2451 212.25 29.5651 211.14 30.7501C209.625 29.1751 206.61 26.4151 204.72 25.0951C208.65 21.2251 211.995 14.3251 213.705 7.68012L223.605 10.4401C223.41 11.0251 222.75 11.3551 221.835 11.2951C221.505 12.3451 221.115 13.3351 220.725 14.3851H243.15L248.325 14.7151C248.325 16.2301 245.97 23.6551 243.6 28.5751L241.695 28.1851C243.93 31.9951 245.895 36.4051 247.005 39.5551L238.74 43.3651C237.69 39.4951 234.93 33.5101 232.44 29.1001L236.97 27.1951L235.59 26.9251C236.055 25.6801 236.58 24.0301 237.09 22.3201H232.05V38.0851C232.05 43.3351 231.255 46.7551 221.37 46.9501C223.08 48.2701 224.64 49.6501 225.69 50.8951L218.88 56.8801C217.83 55.3651 215.925 53.5951 213.765 51.8851C213.51 52.0201 213.105 52.1551 212.655 52.2151V58.3951L212.64 58.4251ZM222.93 22.3501H217.035C216.315 23.7901 215.46 25.1101 214.605 26.4301L222.93 28.9951V22.3651V22.3501ZM222.405 30.1051C221.22 32.8651 219.585 35.8801 217.815 38.7151C219.525 38.7751 221.355 38.7751 221.94 38.7751C222.72 38.7151 222.93 38.5801 222.93 37.9201V30.1051H222.405ZM240.03 67.8901C238.395 63.8101 233.865 57.9751 229.545 53.8351L237.345 49.5001C241.74 53.3701 246.525 58.8301 248.49 63.1051L240.03 67.9051V67.8901Z" fill="#FFFF00"/>
<path d="M309.405 18.9301L314.385 19.2601C314.385 19.9801 314.31 21.3001 314.25 22.2901C313.53 51.7951 312.81 62.2501 310.32 65.6551C307.305 70.0651 303.63 70.2601 294.255 70.0651C294.12 67.5001 292.95 63.4951 291.3 60.9301C294.78 61.2001 297.915 61.2601 299.565 61.2601C300.75 61.2601 301.395 60.9301 302.115 60.0151C303.75 58.1101 304.545 49.1101 305.07 27.8101H294.315C293.4 30.4351 292.41 32.8651 291.24 35.1751L295.965 33.2101C298.845 37.7401 301.665 43.6651 302.52 47.8651L293.73 51.6751C293.205 48.3301 291.3 43.3951 289.14 39.0601L287.64 41.2351C286.455 39.8551 284.235 37.6201 282.33 35.9851V59.9101H266.265V64.1851H257.55V18.6001H264.165C265.08 15.1801 265.935 10.8451 266.265 7.56006L277.8 9.99006C277.545 10.5751 276.945 10.9051 275.835 10.9801C275.115 13.2751 274.125 16.1101 273.075 18.6001H282.315V32.1301C285.855 26.0251 288.285 16.7551 289.53 7.68006L300.615 10.1701C300.42 10.7551 299.76 11.2201 298.785 11.1601C298.26 13.7851 297.675 16.4101 297.015 18.9751H307.38L309.405 18.9151V18.9301ZM273.42 34.9051V27.0901H266.28V34.9051H273.42ZM266.28 51.4051H273.42V43.1851H266.28V51.4051Z" fill="#FFFF00"/>
<path d="M383.88 49.0803V56.5053H369.78V61.1703C369.78 68.6553 366.96 70.0353 354.24 70.0353C353.91 67.5453 352.725 64.0503 351.615 61.7553C354.3 61.8903 358.17 61.8903 359.16 61.8903C360.21 61.8303 360.54 61.6203 360.54 60.8403V56.5053H345.39C347.49 58.1553 349.395 59.9253 350.565 61.3653L343.545 67.3503C341.715 64.7853 337.515 61.0353 334.11 58.4853L336.465 56.5203H323.685V49.0953H360.525V47.3853C348.99 47.6553 337.98 47.8503 330.105 47.9103C329.91 48.4953 329.445 48.8253 328.86 48.9003L326.565 41.2803C332.4 41.3403 340.335 41.3403 348.99 41.3403V39.6303H332.34V20.0403H348.99V18.6003H324.87V11.5053H348.99V7.63525L360.33 8.22025C360.27 8.94025 359.745 9.40525 358.365 9.66025V11.5053H382.755V18.6003H358.365V20.0403H375.795V39.6153H374.61C377.295 41.2653 379.86 42.9603 381.63 44.3403L375.855 49.0653C375.135 48.4053 374.355 47.7453 373.365 47.0253L370.35 47.0853C370.155 47.1453 369.96 47.2203 369.765 47.2203V49.0653H383.865L383.88 49.0803ZM341.265 25.6203V27.1953H349.005V25.6203H341.265ZM341.265 34.0353H349.005V32.3853H341.265V34.0353ZM366.435 25.6203H358.365V27.1953H366.435V25.6203ZM366.435 34.0353V32.3853H358.365V34.0353H366.435ZM364.005 39.6153H358.365V41.3253H364.455C363.93 40.9953 363.345 40.7403 362.82 40.4703L364.005 39.6153Z" fill="white"/>
<path d="M445.17 46.2602L449.895 46.6502C449.895 47.3702 449.82 48.0902 449.76 48.8852C448.98 69.1202 448.515 70.3802 437.04 70.0502C436.98 69.5252 436.905 68.9402 436.785 68.2802L432.855 69.7952C432.72 69.2702 432.6 68.6852 432.33 68.0852C423.285 68.4752 414.165 68.8052 407.94 69.0002C407.805 69.5252 407.415 69.8552 406.95 69.9152L404.46 63.0752C408.33 63.1352 413.505 63.1352 419.085 63.1352V61.3652H409.65V55.9052C408.87 56.4302 408.015 56.8952 407.16 57.4202C406.38 56.3702 405.06 54.9902 403.755 53.8052C402.645 59.5802 400.935 65.1002 398.31 69.5102C396.54 68.0702 392.415 65.7602 390.045 64.9052C396.015 54.9902 396.465 40.2002 396.465 29.8802V10.5752H449.7V24.3152H405.72V29.8952C405.72 35.8052 405.465 43.1702 404.34 50.4602C407.355 48.6902 409.785 46.7102 411.615 44.6852H407.49V35.6102H448.335V44.6852H421.92C421.725 44.7452 421.53 44.7452 421.335 44.7452C420.945 45.2702 420.555 45.8552 420.09 46.3952H443.355L445.185 46.2602H445.17ZM440.445 16.5002H405.705V18.4052H440.445V16.5002ZM421.635 25.6352V29.2502H408V25.6352H421.635ZM408 34.2452V30.6302H421.635V34.2452H408ZM419.085 51.4652H415.41C414.825 51.9302 414.3 52.4552 413.7 52.9052H419.07V51.4652H419.085ZM414.885 39.1052V41.1452H418.62V39.1052H414.885ZM416.325 57.9602H419.07V56.3102H416.325V57.9602ZM432.255 34.1102H423.54V24.9152L434.16 25.5002C434.1 26.1602 433.575 26.6102 432.255 26.8202V34.1102ZM425.7 39.1052V41.1452H429.57V39.1052H425.7ZM437.04 61.3802H435.855C436.38 62.1002 436.845 62.8952 437.235 63.6752C439.14 63.6752 439.395 63.6752 439.86 62.9552C440.52 62.1002 440.85 59.1452 441.18 51.4502H427.02V52.8902H437.055V61.3652L437.04 61.3802ZM427.005 56.3252V57.9752H429.96V56.3252H427.005ZM427.005 63.0902H429.885L429.225 62.0402L430.995 61.3802H426.99V63.0902H427.005ZM448.44 25.6352V29.2502H434.28V25.6352H448.44ZM434.28 34.2452V30.6302H448.44V34.2452H434.28ZM436.635 39.1052V41.1452H440.565V39.1052H436.635Z" fill="white"/>
<path d="M501.3 26.7454C501.825 32.4004 502.605 37.7854 503.595 42.6454C505.83 38.5654 507.6 34.1704 508.905 29.5054L519.72 32.5954C519.525 33.2554 518.805 33.6454 517.695 33.5854C515.07 41.4004 511.53 48.4954 507.135 54.7504C508.65 58.4254 510.345 60.6003 511.98 60.6603C513.42 60.6603 514.335 57.2404 514.74 49.1554C516.705 51.3304 519.855 53.6254 522.345 54.6154C520.845 67.2304 517.89 70.0504 511.395 70.0504C506.355 70.0504 502.935 66.3753 500.64 62.4303C497.685 65.3853 494.475 68.0104 490.935 70.2454C489.63 68.2054 486.615 64.5303 484.71 62.7603C489.105 60.3303 493.095 56.9704 496.575 52.9654C494.22 45.5404 492.705 36.3454 491.85 26.7454H474.09V32.4004H483.27L485.295 32.3404L490.215 32.5354C490.215 33.2554 490.215 34.3804 490.155 35.2954C489.96 49.6804 489.57 55.8004 487.995 57.9604C486.165 60.3304 484.185 61.4404 475.74 61.2454C475.545 58.4854 474.555 54.8104 473.19 52.4404C475.215 52.6354 477.06 52.7104 478.11 52.7104C478.965 52.7104 479.49 52.5154 480.015 51.8554C480.6 51.0604 480.87 48.1054 481.005 41.0854H474.06C473.73 50.6854 472.02 62.7003 466.2 70.2003C464.685 68.4303 460.755 65.0704 458.73 63.9604C464.37 56.4004 464.76 45.1654 464.76 36.6904V17.6104H491.31C491.115 14.2654 491.055 10.9804 491.055 7.69535L502.86 8.35535C502.8 9.15035 502.14 9.60035 500.7 9.79535C500.64 12.3604 500.64 14.9854 500.76 17.6104H508.95C507.12 15.9604 504.825 14.3254 502.92 13.0054L508.89 7.48535C511.965 9.39035 516.165 12.2854 518.205 14.4454L514.92 17.5954H520.485V26.7304H501.345L501.3 26.7454Z" fill="white"/>
<path d="M568.89 32.8504C569.61 35.0854 570.525 37.2604 571.575 39.3604C574.395 37.3954 577.275 35.0854 579.315 33.1204L587.58 40.6804C587.25 40.9504 586.725 41.0704 586.08 41.0704C585.81 41.0704 585.555 41.0704 585.285 41.0104C583.065 42.5854 579.45 44.8204 576.24 46.5904C579.84 50.9254 584.37 54.4054 590.01 56.6404C587.85 58.5454 584.97 62.3554 583.515 64.9804C571.71 59.2654 565.095 48.6904 560.895 34.8154C559.38 35.8054 557.745 36.7804 555.975 37.7104C564.105 43.5004 567.255 50.8504 567.255 57.0304C567.255 65.3704 561.555 70.2454 554.535 70.2454C552.96 70.2454 551.265 70.1854 549.555 70.1104C549.42 67.6804 548.835 64.2604 547.395 61.5604C542.67 64.0504 537.765 66.2854 533.295 67.8754C532.185 65.5054 530.145 62.1004 528.24 59.9854C537.345 57.8104 548.1 52.8154 554.595 47.7604L554.01 47.0404C548.505 50.4604 541.155 53.9404 535.335 55.9804C534.285 53.8804 532.32 50.6554 530.61 48.8104C536.445 47.4904 543.72 44.8654 548.7 42.1054L547.785 41.4454C543.66 43.0954 539.265 44.4004 534.93 45.4504C534.015 43.6054 531.855 40.0654 530.535 38.3554C536.835 37.1704 543.39 35.3254 548.895 32.8354H541.23V24.8254H575.19V32.8354H568.89V32.8504ZM539.58 22.1404V29.2954H530.265V13.5304H553.2V7.54541L565.005 8.20541C564.945 8.92541 564.42 9.39041 563.04 9.58541V13.5304H586.575V29.2954H576.81V22.1404H539.58ZM557.61 55.2604C554.79 57.3004 551.52 59.3404 548.1 61.1704C549.81 61.3054 551.25 61.3654 552.63 61.3654C554.01 61.3654 555.315 61.1704 556.11 60.1204C557.16 59.3254 557.82 57.5554 557.61 55.2604Z" fill="white"/>
<path d="M622.845 18.5252V25.9502H595.38V18.5252H622.845ZM620.025 46.2602V66.7652H606.585V69.0602H598.395V46.2602H620.025ZM598.65 35.0252V27.9302H620.22V35.0252H598.65ZM598.65 44.1002V37.0052H620.22V44.1002H598.65ZM620.28 9.5402V16.6352H599.04V9.52519H620.28V9.5402ZM611.685 53.7002H606.57V59.2802H611.685V53.7002ZM658.155 29.5202V38.9852H645.045V70.0652H635.34V38.9702H622.425V29.5052H635.34V7.9502L647.07 8.5352C647.01 9.3302 646.41 9.7802 645.03 9.9752V29.4902H658.14L658.155 29.5202Z" fill="white"/>
<path d="M664.485 68.3401V62.2951H724.995V68.3401H664.485ZM699.09 37.0651H725.115V42.7801H664.605V37.0651H689.385V35.4901H669.135V30.6301H689.385V29.0551H671.355V24.2551H689.385V22.7401H664.875V17.7451H689.385V16.2301H671.745V11.4301H689.385V7.56006L701.115 8.14506C701.055 8.94006 700.455 9.39006 699.075 9.58506V11.4301H718.215V17.7451H724.515V22.7401H718.215V29.0551H699.075V30.6301H720.78V35.4901H699.075V37.0651H699.09ZM672.09 44.4301H718.305V60.7201H672.09V44.4301ZM681.405 48.7651V50.4751H690.06V48.7651H681.405ZM681.405 54.6151V56.3851H690.06V54.6151H681.405ZM708.48 50.4751V48.7651H698.85V50.4751H708.48ZM708.48 56.3851V54.6151H698.85V56.3851H708.48ZM699.105 16.2301V17.7451H708.615V16.2301H699.105ZM699.105 22.7401V24.2551H708.615V22.7401H699.105Z" fill="white"/>
</g>
<defs>
<clipPath id="clip0_2004_1020">
<rect width="1609.5" height="71.895" fill="white" transform="translate(0.75)"/>
</clipPath>
</defs>
</svg>
