<svg width="303" height="14" viewBox="0 0 303 14" fill="none" xmlns="http://www.w3.org/2000/svg">
<path d="M4.42493 9.08997C4.91993 9.41997 6.405 10.545 6.75 10.86L5.93994 11.88C5.62494 11.535 4.98 10.92 4.41 10.395V13.935H3.04495V10.515C2.39995 11.475 1.64999 12.345 0.929993 12.9C0.704993 12.585 0.285 12.135 0 11.91C1.02 11.22 2.13001 9.98997 2.82001 8.77497H0.344971V7.57497H3.04495V6.25497H0.164978V5.08497H1.81494C1.72494 4.48497 1.50001 3.70497 1.23001 3.08997L2.20496 2.80497H0.449982V1.63497H3.02994V0.0299683L4.73996 0.134969C4.73996 0.254969 4.63499 0.344968 4.39499 0.374968V1.63497H7.035V2.80497H5.32498L6.53998 3.14997C6.50998 3.25497 6.39001 3.29997 6.19501 3.31497C6.01501 3.82497 5.70001 4.52997 5.44501 5.08497H7.34995V6.25497H4.66498C4.66498 6.25497 4.52999 6.32997 4.39499 6.35997V7.57497H7.125V8.77497H4.39499V9.08997H4.42493ZM4.28998 4.99497C4.54498 4.39497 4.87498 3.47997 5.03998 2.80497H2.35501C2.68501 3.49497 2.93992 4.39497 3.01492 4.97997L2.68497 5.08497H4.57498L4.30499 4.99497H4.28998ZM14.055 5.05497V6.35997H12.465V13.95H11.0999V6.35997H9.20993C9.20993 8.06997 9.165 11.655 6.84 13.98C6.66 13.665 6.14993 13.17 5.83493 13.005C7.67993 11.16 7.875 8.63997 7.875 6.56997V1.42497L8.68497 1.66497C10.155 1.22997 11.67 0.629968 12.57 0.0599682L13.92 1.07997C13.92 1.07997 13.71 1.18497 13.545 1.15497C12.48 1.70997 10.7999 2.27997 9.20993 2.71497V5.05497H14.055Z" fill="white"/>
<path d="M20.114 9.765L21.974 9.255C21.974 9.255 22.004 9.375 22.154 10.455C20.399 11.01 18.5391 11.565 17.3541 11.895C17.3541 12.03 17.2341 12.12 17.1441 12.15L16.6641 10.65C17.2491 10.515 17.9541 10.335 18.7491 10.125V6.495H17.024V5.205H18.7491V2.205H16.889V0.899997H21.9141V2.205H20.114V5.205H21.779V6.495H20.114V9.75V9.765ZM26.849 12.21H30.8091V13.5H21.2841V12.21H25.529V10.26H22.244V9H25.529V7.5H22.3041V0.809998H30.1941V7.515H26.834V9.015H30.3441V10.275H26.834V12.225L26.849 12.21ZM23.579 2.025V3.585H25.544V2.025H23.579ZM23.579 6.285H25.544V4.71H23.579V6.285ZM28.889 3.585V2.025H26.849V3.585H28.889ZM28.889 6.285V4.71H26.849V6.285H28.889Z" fill="white"/>
<path d="M36.2859 8.92498V5.36998C35.6859 6.44998 34.9659 7.43998 34.2159 8.06998C34.0059 7.75498 33.5708 7.31998 33.3008 7.07998C34.3508 6.32998 35.4308 4.85998 36.0608 3.41998H33.6609V2.21998H36.2859V0.0449829L37.9659 0.149983C37.9659 0.269983 37.8608 0.344983 37.6208 0.389983V2.21998H39.8708V3.41998H37.6208V4.15498C38.2058 4.51498 39.7058 5.59498 40.0808 5.89498L39.3308 7.03498C38.9708 6.64498 38.2508 5.99998 37.6208 5.45998V8.92498H36.2859ZM36.6609 10.215C36.2559 11.4 35.6408 12.69 34.6358 13.515L33.4809 12.69C34.3959 12 35.0708 10.83 35.4308 9.74998L36.6609 10.23V10.215ZM38.8508 12.105C38.8508 12.51 38.9858 12.57 39.7208 12.57H42.1358C42.7358 12.57 42.8258 12.405 42.8858 11.19C43.1858 11.415 43.7558 11.61 44.1458 11.7C43.9658 13.425 43.5608 13.845 42.2408 13.845H39.5709C37.8609 13.845 37.4408 13.455 37.4408 12.135V9.89998L39.1959 10.005C39.1659 10.125 39.0758 10.215 38.8358 10.245V12.12L38.8508 12.105ZM41.2058 11.505C40.7258 10.845 39.6908 9.94498 38.7758 9.32998L39.7058 8.59498C40.6058 9.16498 41.6859 10.02 42.1959 10.695L41.2058 11.49V11.505ZM46.5158 0.794983V8.74498H40.5308V0.794983H46.5158ZM45.1658 3.10498V1.93498H41.8209V3.10498H45.1658ZM45.1658 5.35498V4.18498H41.8209V5.35498H45.1658ZM45.1658 7.61998V6.41998H41.8209V7.61998H45.1658ZM46.2908 13.56C45.8108 12.615 44.6108 11.25 43.4858 10.305L44.6108 9.59998C45.7358 10.5 46.9808 11.79 47.5208 12.78L46.2908 13.56Z" fill="white"/>
<path d="M52.3042 7.91997C51.8242 8.44497 51.3592 8.92497 50.8792 9.34497C50.6842 9.04497 50.2491 8.47497 49.9941 8.20497C51.4191 7.06497 53.0391 5.09997 54.0291 3.23997L55.6042 3.89997C55.5442 4.00497 55.4092 4.06497 55.2142 4.03497C54.7942 4.73997 54.3142 5.45997 53.7742 6.16497L54.0742 6.25497C54.0442 6.37497 53.9392 6.47997 53.7142 6.49497V13.935H52.3042V7.93497V7.91997ZM55.0042 0.689968C54.9442 0.794968 54.8242 0.839968 54.6292 0.824968C53.7142 1.91997 52.1692 3.40497 50.7742 4.36497C50.5942 4.04997 50.2191 3.50997 49.9941 3.23997C51.2241 2.42997 52.6792 1.09497 53.4292 0.0299683L55.0042 0.704968V0.689968ZM63.9442 5.23497V6.56997H61.6792V12.24C61.6792 13.755 61.0491 13.935 58.0491 13.905C57.9891 13.5 57.7942 12.915 57.5992 12.51C58.1842 12.51 58.7541 12.54 59.1891 12.54C60.1191 12.54 60.2242 12.54 60.2242 12.225V6.56997H55.4391V5.23497H63.9292H63.9442ZM63.3592 0.929968V2.27997H56.0092V0.929968H63.3592Z" fill="white"/>
<path d="M70.4548 11.34L72.7498 10.98L72.8248 12.15C70.8148 12.54 68.7298 12.915 67.3948 13.125C67.3948 13.26 67.2748 13.335 67.1548 13.365L66.7198 11.865C67.4098 11.775 68.2648 11.655 69.1948 11.52V7.57497H66.9298V6.37497H69.1948V4.97997H67.7398V4.72497L67.4698 5.00997C67.2448 4.70997 66.8098 4.27497 66.5098 4.09497C67.7848 2.84997 68.7448 1.25997 69.2848 0.0299683L70.8748 0.284968C70.8448 0.419968 70.7398 0.494968 70.5448 0.494968V0.539968C71.4148 1.22997 72.4648 2.11497 72.9898 2.74497C72.6298 3.20997 72.4197 3.52497 72.2097 3.86997C71.7297 3.25497 70.7848 2.36997 69.9448 1.66497C69.5398 2.35497 69.0898 3.08997 68.5198 3.80997H72.0748V4.99497H70.4698V6.38997H72.6148V7.58997H70.4698V11.355L70.4548 11.34ZM67.7848 11.13C67.7098 10.38 67.4548 9.28497 67.1698 8.42997L68.1148 8.17497C68.4298 8.99997 68.6998 10.125 68.7748 10.83L67.7848 11.13ZM72.7647 8.50497C72.7047 8.59497 72.5848 8.63997 72.4198 8.63997C72.2248 9.31497 71.8948 10.305 71.6248 10.935L70.7548 10.62C71.0098 9.91497 71.3247 8.81997 71.4597 8.06997L72.7647 8.50497ZM75.5548 1.33497C75.5248 1.43997 75.4048 1.49997 75.2248 1.48497C74.8348 2.62497 74.1898 3.89997 73.4848 4.73997C73.2298 4.52997 72.7498 4.19997 72.4498 4.04997C73.1098 3.29997 73.6948 2.06997 74.0398 0.884969L75.5548 1.33497ZM79.9048 4.79997V12.36C79.9048 13.77 79.2897 13.92 77.1747 13.92C77.1147 13.53 76.9198 12.945 76.7248 12.57C77.1148 12.57 77.5198 12.6 77.8048 12.6C78.4498 12.6 78.5548 12.6 78.5548 12.33V10.995H74.7298V13.92H73.3798V4.78497H75.8848V0.0299683L77.5948 0.119968C77.5948 0.254968 77.4898 0.329968 77.2498 0.374968V4.79997H79.9048ZM78.5548 6.04497H74.7298V7.31997H78.5548V6.04497ZM74.7298 9.80997H78.5548V8.50497H74.7298V9.80997ZM78.8398 0.824968C79.5898 1.75497 80.4448 3.07497 80.7748 3.91497L79.5748 4.57497C79.2598 3.71997 78.4648 2.36997 77.7298 1.39497L78.8398 0.824968Z" fill="white"/>
<path d="M83.9551 0.585022H96.6601V13.92H95.2951V13.35H85.2901V13.92H83.9701V0.585022H83.9551ZM85.2751 12.18H95.2801V1.75502H85.2751V12.18ZM92.7301 8.37002C92.7001 8.49002 92.6401 8.55002 92.4151 8.59502V9.01502H94.5901V9.81002H92.4151V10.725C92.4151 11.58 92.1151 11.76 90.2401 11.73C90.1501 11.46 89.9701 11.1 89.8201 10.875C90.3601 10.89 90.8701 10.89 91.0201 10.89C91.1701 10.89 91.2301 10.845 91.2301 10.695V9.81002H88.2751C88.7251 10.2 89.1901 10.71 89.4301 11.085L88.4851 11.61C88.2451 11.19 87.7351 10.59 87.2551 10.17L87.9451 9.81002H85.9201V9.01502H91.2301V8.35502C89.4001 8.41502 87.6751 8.46002 86.4601 8.47502C86.4301 8.58002 86.3401 8.64002 86.2501 8.65502L85.9501 7.69502C86.9251 7.69502 88.2001 7.69502 89.6101 7.66502V7.05002H86.6701V4.03502H89.6101V3.51002H85.9951V2.71502H89.6101V2.01002L91.0951 2.11502C91.0951 2.22002 91.0051 2.29502 90.7801 2.34002V2.71502H94.4701V3.51002H90.7801V4.03502H93.8251V7.05002H93.0901C93.7351 7.44002 94.3801 7.89002 94.7401 8.25002L93.9301 8.79002C93.7801 8.64002 93.5851 8.46002 93.3601 8.28002C92.8951 8.28002 92.4301 8.31002 91.9651 8.31002L92.7151 8.37002H92.7301ZM87.7801 4.66502V5.22002H89.6251V4.66502H87.7801ZM87.7801 6.40502H89.6251V5.83502H87.7801V6.40502ZM92.7001 4.66502H90.7951V5.22002H92.7001V4.66502ZM90.7951 6.40502H92.7001V5.83502H90.7951V6.40502ZM90.7951 7.05002V7.66502L92.4901 7.63502C92.2501 7.48502 92.0251 7.35002 91.8151 7.23002L92.1301 7.05002H90.7951Z" fill="white"/>
<path d="M110.414 4.11001C110.579 5.05501 110.789 5.98501 111.059 6.84001C111.674 6.25501 112.319 5.58001 112.739 5.02501L113.954 5.97001C113.954 5.97001 113.744 6.07501 113.579 6.04501C113.039 6.60001 112.169 7.35001 111.434 7.92001C112.049 9.40501 112.874 10.62 113.999 11.37C113.684 11.61 113.264 12.12 113.069 12.465C110.999 10.89 109.934 7.95001 109.364 4.41001C108.989 4.78501 108.554 5.16001 108.104 5.50501C109.844 7.00501 110.534 9.19501 110.534 10.905C110.534 11.955 110.264 12.84 109.844 13.26C109.319 13.875 108.809 13.92 107.954 13.92C107.744 13.92 107.534 13.92 107.324 13.89C107.324 13.53 107.219 12.99 106.994 12.615C107.399 12.66 107.759 12.675 108.029 12.675C108.344 12.675 108.584 12.63 108.779 12.33C109.034 12.06 109.169 11.505 109.169 10.785C109.169 10.515 109.169 10.215 109.109 9.93001C107.894 11.175 106.199 12.39 104.729 13.095C104.534 12.765 104.174 12.345 103.874 12.09C105.614 11.415 107.639 10.005 108.779 8.64001C108.674 8.34001 108.539 8.04001 108.374 7.77001C107.519 8.53501 106.379 9.33001 105.494 9.85501C105.359 9.64501 105.164 9.34501 104.954 9.10501C104.624 10.53 103.454 10.485 102.524 10.44C102.524 10.095 102.374 9.58501 102.209 9.27001C102.509 9.27001 102.809 9.27001 103.019 9.27001C103.454 9.27001 103.769 9.07501 103.769 8.13001C103.769 7.38001 103.409 6.43501 102.404 5.34001C102.794 4.30501 103.169 2.95501 103.439 1.92001H101.819V13.935H100.574V0.660015H104.009L104.219 0.615014L105.134 1.09501C105.134 1.09501 105.059 1.26001 104.999 1.29001C104.654 2.44501 104.129 3.99001 103.649 5.19001C104.684 6.36001 105.059 7.35001 105.059 8.26501C105.059 8.43001 105.059 8.59501 105.029 8.74501C105.944 8.29501 107.054 7.57501 107.804 6.90001C107.609 6.64501 107.384 6.40501 107.144 6.18001C106.529 6.58501 105.914 6.94501 105.299 7.21501C105.119 6.97501 104.744 6.49501 104.504 6.28501C105.689 5.77501 106.979 4.99501 107.969 4.09501H104.849V2.88001H106.889C106.679 2.20501 106.259 1.29001 105.824 0.600015L106.949 0.150015C107.474 0.885015 107.939 1.87501 108.119 2.53501L107.369 2.86501H110.744L110.054 2.58001C110.519 1.89001 111.089 0.795015 111.389 0.0150146L112.979 0.585014C112.919 0.690014 112.799 0.735014 112.604 0.735014C112.274 1.38001 111.764 2.23501 111.299 2.88001H113.714V4.09501H110.399L110.414 4.11001Z" fill="white"/>
<path d="M116.641 7.5H120.721V8.73H116.641V7.5Z" fill="white"/>
<path d="M124.229 4.18498C125.129 4.52998 126.269 5.12998 126.824 5.62498L125.999 6.76498C125.459 6.26998 124.349 5.60998 123.449 5.20498L124.244 4.18498H124.229ZM123.734 12.96C124.424 11.775 125.399 9.80998 126.104 8.05498L127.214 8.84998C126.569 10.455 125.759 12.225 125.114 13.38C125.189 13.47 125.219 13.575 125.219 13.65C125.219 13.725 125.219 13.785 125.174 13.83L123.719 12.96H123.734ZM137.369 1.91998H131.849L131.489 3.77998H133.214C133.214 4.87498 133.184 7.10998 133.154 8.08498L133.499 7.70998C134.159 8.03998 134.939 8.53498 135.479 8.96998V6.10498C135.479 6.10498 135.404 6.10498 135.359 6.10498C135.014 6.49498 134.384 7.07998 133.934 7.43998L133.214 6.76498C133.649 6.34498 134.249 5.60998 134.594 5.11498L135.464 5.83498V3.59998L137.084 3.68998C137.084 3.80998 136.979 3.88498 136.754 3.92998V13.905H135.464V13.245H128.924V13.935H127.649V3.59998L129.254 3.68998C129.254 3.80998 129.149 3.88498 128.924 3.92998V9.10498C129.584 8.77498 130.439 8.29498 131.369 7.78498L131.714 8.75998C130.964 9.23998 130.229 9.71998 129.704 10.035C129.704 10.155 129.659 10.26 129.569 10.32L128.909 9.19498V12.045H135.449V9.61498L134.984 10.155C134.579 9.73498 133.814 9.17998 133.109 8.72998C132.989 11.475 132.869 11.625 130.649 11.565C130.619 11.235 130.514 10.785 130.349 10.5C130.814 10.545 131.174 10.545 131.369 10.545C131.549 10.545 131.654 10.5 131.744 10.35C131.924 10.05 131.984 8.74498 132.014 4.93498H131.219L131.114 5.33998C130.574 5.21998 130.244 5.17498 129.899 5.12998C130.124 4.28998 130.394 3.04498 130.574 1.94998H127.244L126.569 2.83498C126.029 2.29498 124.934 1.60498 124.034 1.16998L124.829 0.164978C125.624 0.509978 126.569 1.01998 127.169 1.49998V0.659978H137.339V1.94998L137.369 1.91998ZM129.974 5.38498C130.514 5.84998 131.099 6.49498 131.354 6.95998L130.484 7.63498C130.229 7.15498 129.644 6.47998 129.134 5.98498L129.974 5.38498Z" fill="white"/>
<path d="M153.9 10.245H148.545C149.565 11.7 151.41 12.435 154.17 12.645C153.855 12.96 153.48 13.545 153.3 13.95C150.09 13.545 148.17 12.45 147.045 10.26C146.295 12.045 144.75 13.26 140.79 13.92C140.67 13.545 140.34 12.975 140.1 12.66C143.28 12.225 144.75 11.445 145.47 10.245H140.295V9.01501H145.95C146.04 8.64001 146.115 8.23501 146.16 7.81501H140.34V6.55501H146.31V5.52001H141.855V4.32001H146.31V3.31501H141.03V2.07001H144C143.76 1.56001 143.37 0.975015 142.995 0.525015L144.18 0.0450146C144.72 0.585015 145.2 1.32001 145.41 1.86001L144.945 2.07001H148.875L148.5 1.92001C148.92 1.39501 149.43 0.600015 149.715 0.0150146L151.365 0.615014C151.32 0.720014 151.2 0.750015 151.005 0.750015C150.735 1.14001 150.315 1.63501 149.94 2.07001H153.105V3.31501H147.735V4.32001H152.325V5.52001H147.735V6.55501H153.765V7.81501H147.93C147.885 7.92001 147.765 7.99501 147.585 8.01001C147.525 8.37001 147.465 8.70001 147.39 9.01501H153.855V10.245H153.9Z" fill="white"/>
<path d="M170.28 9.91499V11.055H164.4V12.54C164.4 13.8 163.86 13.935 161.22 13.935C161.145 13.56 160.95 13.08 160.755 12.735C161.595 12.765 162.48 12.765 162.705 12.765C162.96 12.765 163.02 12.69 163.02 12.51V11.055H157.17V9.91499H163.02V9.135L163.845 9.16499C164.325 8.93999 164.79 8.63999 165.225 8.35499H159.81V7.335H166.62L166.83 7.26L167.865 7.935C167.805 8.025 167.685 8.07 167.55 8.085C166.77 8.685 165.585 9.405 164.475 9.945H170.28V9.91499ZM158.61 6.45V8.29499H157.275V5.4H158.445L158.16 0.674995L159.075 0.884995C159.78 0.659995 160.545 0.344995 161.055 0.119995L161.88 1.01999C161.88 1.01999 161.76 1.095 161.685 1.095C161.64 1.095 161.595 1.095 161.55 1.065C161.04 1.245 160.215 1.485 159.525 1.665L159.555 2.17499H161.67V3.07499H159.6L159.645 3.78H161.73V4.695H159.69L159.735 5.4H167.7L167.775 4.695H165.735V3.78H167.85L167.91 3.07499H165.795V2.17499H167.97L168 1.47H165.735V0.554995H169.38C169.305 2.1 169.17 4.035 169.035 5.4H170.19V8.29499H168.795V6.45H158.595H158.61ZM165.465 0.539995C165.435 0.629995 165.33 0.674995 165.165 0.659995C164.985 0.884995 164.76 1.11 164.505 1.32C164.82 1.545 165.09 1.75499 165.285 1.94999L164.58 2.57999C164.385 2.38499 164.1 2.145 163.785 1.905C163.35 2.22 162.885 2.505 162.435 2.715C162.285 2.535 161.94 2.235 161.745 2.085C162.18 1.89 162.6 1.64999 163.02 1.365C162.705 1.17 162.405 0.974995 162.12 0.824995L162.795 0.254995C163.11 0.404995 163.44 0.584995 163.74 0.779995C163.98 0.569995 164.19 0.344995 164.37 0.119995L165.48 0.524995L165.465 0.539995ZM165.615 3.03C165.57 3.135 165.45 3.18 165.3 3.165C165.105 3.405 164.865 3.645 164.595 3.885C164.925 4.125 165.225 4.36499 165.42 4.57499L164.7 5.22C164.49 4.995 164.19 4.73999 163.86 4.48499C163.395 4.81499 162.915 5.13 162.45 5.34C162.285 5.16 161.955 4.86 161.73 4.695C162.18 4.5 162.63 4.23 163.065 3.915C162.765 3.72 162.45 3.54 162.165 3.375L162.855 2.805C163.155 2.955 163.485 3.135 163.785 3.345C164.04 3.105 164.28 2.86499 164.46 2.60999L165.6 3.01499L165.615 3.03Z" fill="white"/>
<path d="M175.906 2.44498V5.68498C175.906 8.06998 175.696 11.625 174.376 13.935C174.151 13.695 173.581 13.275 173.266 13.155C174.481 10.995 174.586 7.90498 174.586 5.69998V1.25998H180.076V0.0449829L181.891 0.149983C181.891 0.284983 181.786 0.359983 181.546 0.404983V1.25998H187.126V2.45998H175.891L175.906 2.44498ZM180.796 12.615C180.796 12.615 180.646 12.705 180.511 12.72C179.656 13.17 178.006 13.695 176.701 13.95C176.506 13.695 176.101 13.29 175.846 13.065C177.151 12.81 178.801 12.3 179.641 11.85L180.796 12.63V12.615ZM187.171 7.34998H182.131V7.99498H185.941V11.775H177.166V7.99498H180.826V7.34998H176.356V6.40498H187.186V7.34998H187.171ZM178.636 2.47498L180.316 2.57998C180.301 2.69998 180.196 2.78998 179.956 2.83498V3.35998H183.076V2.48998L184.816 2.59498C184.816 2.71498 184.696 2.80498 184.471 2.84998V3.37498H187.051V4.25998H184.471V5.86498H178.636V4.25998H176.506V3.37498H178.636V2.50498V2.47498ZM178.456 8.72998V9.50998H180.811V8.72998H178.456ZM178.456 10.23V11.025H180.811V10.23H178.456ZM183.076 4.24498H179.956V5.02498H183.076V4.24498ZM184.591 8.72998H182.146V9.50998H184.591V8.72998ZM184.591 11.025V10.23H182.146V11.025H184.591ZM185.956 13.95C185.146 13.575 183.721 13.065 182.311 12.66L183.256 11.88C184.666 12.27 186.286 12.765 187.231 13.155L185.941 13.965L185.956 13.95Z" fill="white"/>
<path d="M197.715 5.62501H203.76V6.93001H190.275V5.62501H196.275V3.40501H193.335C192.96 4.18501 192.54 4.90501 192.12 5.47501C191.82 5.25001 191.265 4.93501 190.905 4.75501C191.76 3.69001 192.585 1.84501 193.035 0.105015L194.745 0.585014C194.7 0.690014 194.565 0.750015 194.37 0.750015C194.235 1.20001 194.07 1.65001 193.89 2.11501H196.275V0.0150146L198.075 0.120015C198.075 0.240015 197.955 0.330015 197.715 0.375015V2.11501H202.56V3.40501H197.715V5.62501ZM192.405 13.95V8.14501H201.705V13.92H200.235V13.365H193.815V13.95H192.405ZM200.235 9.45001H193.815V12.06H200.235V9.45001Z" fill="white"/>
<path d="M214.891 2.37001C214.891 3.72001 214.576 5.38501 213.016 6.46501C212.821 6.22501 212.326 5.77501 212.026 5.59501V12.345C212.026 13.77 211.426 13.965 209.446 13.935C209.416 13.575 209.236 12.945 209.041 12.585C209.371 12.585 209.671 12.585 209.911 12.585C210.646 12.585 210.721 12.585 210.721 12.3V8.82001H208.831C208.696 10.635 208.396 12.54 207.736 13.95C207.481 13.74 206.926 13.41 206.596 13.29C207.571 11.19 207.646 8.17501 207.646 5.97001V0.555009H212.026V5.50501C213.346 4.60501 213.541 3.36001 213.541 2.32501V0.51001H218.461V4.21501C218.461 4.59001 218.491 4.63501 218.686 4.63501H219.241C219.466 4.63501 219.526 4.42501 219.556 2.98501C219.826 3.19501 220.351 3.42001 220.726 3.49501C220.606 5.35501 220.276 5.83501 219.406 5.83501H218.476C217.456 5.83501 217.141 5.47501 217.141 4.23001V1.83001H214.921V2.38501L214.891 2.37001ZM208.921 5.98501C208.921 6.46501 208.921 6.96001 208.891 7.50001H210.721V5.31001H208.921V5.98501ZM210.721 1.87501H208.921V4.02001H210.721V1.87501ZM218.926 6.54001L219.841 6.93001C219.811 7.03501 219.736 7.08001 219.676 7.14001C219.196 8.76001 218.386 10.095 217.351 11.175C218.341 11.88 219.496 12.42 220.756 12.765C220.426 13.05 220.006 13.605 219.796 13.98C218.491 13.56 217.321 12.93 216.301 12.12C215.266 12.93 214.066 13.545 212.806 13.98C212.641 13.62 212.296 13.05 212.011 12.75C213.166 12.42 214.291 11.895 215.251 11.175C214.441 10.35 213.766 9.37501 213.241 8.31001L214.351 7.90501H212.731V6.60001H218.656L218.911 6.54001H218.926ZM214.561 7.90501C214.981 8.77501 215.566 9.58501 216.286 10.275C216.976 9.58501 217.531 8.79001 217.936 7.90501H214.561Z" fill="white"/>
<path d="M227.055 4.25998C227.025 4.37998 226.92 4.48498 226.695 4.49998V13.95H225.315V6.40498C224.91 7.07998 224.505 7.69498 224.085 8.24998C223.89 7.93498 223.47 7.33498 223.215 7.04998C224.505 5.44498 225.765 2.68498 226.53 0.0449829L228.21 0.554983C228.15 0.659983 228.015 0.734983 227.82 0.719983C227.445 1.85998 226.995 3.02998 226.485 4.13998L227.07 4.28998L227.055 4.25998ZM234.525 0.434983C234.93 2.65498 235.98 4.69498 237.465 5.74498C237.15 6.01498 236.67 6.56998 236.43 6.92998C236.115 6.67498 235.83 6.38998 235.575 6.07498C235.575 6.20998 235.575 6.38998 235.56 6.53998C235.44 11.145 235.305 12.795 234.9 13.335C234.615 13.71 234.315 13.845 233.895 13.905C233.67 13.935 233.34 13.95 232.995 13.95C232.74 13.95 232.455 13.95 232.185 13.935C232.155 13.515 232.005 12.93 231.78 12.54C232.395 12.6 232.935 12.6 233.19 12.6C233.43 12.6 233.55 12.57 233.685 12.405C233.925 12.09 234.06 10.8 234.15 7.33498H231.84C231.6 9.85498 230.865 12.39 228.21 13.95C228.06 13.62 227.67 13.14 227.385 12.885C229.65 11.685 230.25 9.61498 230.46 7.34998H228.585V6.17998C228.345 6.47998 228.09 6.76498 227.85 7.00498C227.67 6.71998 227.265 6.22498 227.025 5.99998C228.105 4.93498 228.99 3.19498 229.395 1.79998L231 2.26498C230.955 2.36998 230.835 2.42998 230.64 2.42998C230.22 3.53998 229.545 4.93498 228.66 6.08998H234.825L235.59 6.11998C234.6 4.94998 233.85 3.38998 233.43 1.73998H230.295V0.494983H234.54L234.525 0.434983Z" fill="white"/>
<path d="M253.561 3.255H245.566C245.356 3.765 245.116 4.245 244.846 4.74H251.701V12.24C251.701 13.815 250.966 13.905 248.326 13.905C248.281 13.5 248.071 12.9 247.876 12.51C248.326 12.51 248.761 12.54 249.136 12.54C250.216 12.54 250.276 12.54 250.276 12.225V10.98H244.711V13.92H243.286V7.14C242.596 7.995 241.831 8.79 240.946 9.45C240.721 9.135 240.241 8.625 239.971 8.34C241.726 7.11 243.046 5.25 243.961 3.255H240.316V1.905H244.516C244.756 1.26 244.951 0.63 245.116 0L246.886 0.45C246.856 0.585 246.721 0.66 246.511 0.645C246.391 1.065 246.241 1.47 246.091 1.905H253.546V3.255H253.561ZM250.291 7.275V5.97H244.726V7.275H250.291ZM244.726 9.78H250.291V8.46H244.726V9.78Z" fill="white"/>
<path d="M261.194 0.61499L262.109 1.12499C262.109 1.12499 262.034 1.27499 261.974 1.31999C261.584 2.48999 261.029 4.04999 260.504 5.24999C261.644 6.43499 262.034 7.40999 262.034 8.33999C262.034 10.68 260.504 10.62 259.319 10.59C259.319 10.23 259.169 9.70499 258.989 9.35999C259.214 9.38999 259.424 9.40499 259.604 9.40499C260.354 9.40499 260.714 9.23999 260.714 8.23499C260.714 7.45499 260.309 6.52499 259.229 5.42999C259.649 4.39499 260.054 3.01499 260.369 1.94999H258.554V13.935H257.234V0.659991H260.969L261.194 0.61499ZM266.669 7.51499C266.864 8.18999 267.104 8.83499 267.389 9.41999C268.004 8.87999 268.634 8.24999 269.054 7.73999L270.314 8.68499C270.314 8.68499 270.104 8.78999 269.939 8.75999C269.444 9.25499 268.649 9.91499 267.959 10.44C268.634 11.43 269.489 12.225 270.569 12.705C270.254 12.975 269.834 13.515 269.639 13.875C267.434 12.735 266.144 10.44 265.454 7.51499H264.059V11.775C264.854 11.625 265.694 11.46 266.519 11.295L266.639 12.525C264.854 12.945 262.994 13.35 261.824 13.605C261.794 13.74 261.704 13.83 261.599 13.845L261.029 12.33C261.509 12.24 262.049 12.15 262.679 12.03V0.689991H269.534V7.52999H266.669V7.51499ZM268.154 1.91999H264.059V3.47999H268.154V1.91999ZM264.059 4.64999V6.29999H268.154V4.64999H264.059Z" fill="white"/>
<path d="M279.135 1.01998C279.06 1.15498 278.895 1.19998 278.73 1.18498C277.77 3.35998 276.27 5.57998 274.71 7.00498C274.41 6.71998 273.84 6.23998 273.465 6.02998C274.98 4.76998 276.465 2.57998 277.305 0.434983L279.135 1.03498V1.01998ZM280.755 5.99998C280.695 6.13498 280.545 6.20998 280.32 6.22498C279.645 7.90498 278.64 10.035 277.695 11.73C279.57 11.67 281.67 11.595 283.755 11.52C283.11 10.575 282.405 9.58498 281.73 8.75998L283.08 8.12998C284.43 9.73498 285.915 11.835 286.665 13.23L285.225 13.995C285.045 13.635 284.82 13.23 284.55 12.78C280.935 13.005 277.2 13.185 274.77 13.29C274.74 13.425 274.635 13.5 274.5 13.515L273.93 11.835C274.56 11.835 275.265 11.805 276.075 11.775C277.08 9.95998 278.22 7.40998 278.835 5.47498L280.74 5.99998H280.755ZM282.96 0.434983C283.905 2.30998 285.705 4.55998 287.085 5.81998C286.71 6.10498 286.185 6.64498 285.9 7.03498C284.505 5.56498 282.69 3.10498 281.565 1.00498L282.96 0.419983V0.434983Z" fill="white"/>
<path d="M302.656 0.960022V12.09C302.656 13.77 302.011 13.965 299.056 13.965C298.996 13.53 298.786 12.84 298.561 12.42C299.176 12.45 299.806 12.465 300.256 12.465C301.081 12.465 301.201 12.465 301.201 12.075V2.31002H290.596V0.960022H302.641H302.656ZM299.611 3.61502V4.86002H290.656V3.61502H299.611ZM292.291 6.22502H298.141V11.34H292.981V12.615H291.616V6.24002H292.291V6.22502ZM296.761 10.08V7.44002H292.981V10.08H296.761Z" fill="white"/>
</svg>
