<svg width="390" height="60" viewBox="0 0 390 60" fill="none" xmlns="http://www.w3.org/2000/svg">
<path d="M360.375 0.304932H29.9851C13.7562 0.304932 0.600098 13.4611 0.600098 29.69C0.600098 45.9189 13.7562 59.0749 29.9851 59.0749H360.375C376.604 59.0749 389.76 45.9189 389.76 29.69C389.76 13.4611 376.604 0.304932 360.375 0.304932Z" fill="white"/>
<path d="M128.43 6.22995H30.4201C17.4718 6.22995 6.9751 16.7266 6.9751 29.675V29.69C6.9751 42.6383 17.4718 53.135 30.4201 53.135H128.43C141.378 53.135 151.875 42.6383 151.875 29.69V29.675C151.875 16.7266 141.378 6.22995 128.43 6.22995Z" fill="#FFE900"/>
<path d="M40.1702 17.1049H46.0952C46.9802 19.1749 48.9452 21.1699 51.3452 22.2199C50.6702 23.1049 49.6502 24.89 49.1552 26.045L48.7202 25.7749V31.085H34.6502V25.8649L34.1852 26.1649C34.0202 25.6549 33.6752 24.77 33.3002 23.96V26.5399H31.3652V32.5399L33.5702 32.0599L34.0052 35.51C31.4252 36.35 28.6952 37.16 26.8952 37.67C26.8652 37.97 26.6552 38.15 26.4152 38.21L24.9302 33.8749C25.6802 33.7399 26.5802 33.5749 27.5702 33.3649V26.5549H25.4102V22.8649H27.5702V16.7299L32.1452 16.9699C32.1152 17.2699 31.9052 17.4499 31.3652 17.5399V22.8799H32.7602L32.5952 22.5799C34.2152 21.6649 35.7452 19.9399 36.5552 18.1099L40.1402 19.37V17.135L40.1702 17.1049ZM35.8052 41.975V31.7149H47.6252V41.87H43.7252V41.1949H39.5252V41.975H35.8052ZM39.6302 25.1149C39.8702 25.6249 40.0952 26.2699 40.2452 26.8399V24.7849H37.6352V25.64L39.6302 25.1V25.1149ZM38.2052 28.1C38.1002 27.53 37.8902 26.6749 37.6352 25.9699V28.3399H40.2452V27.4549L38.1902 28.1H38.2052ZM40.1702 20.015V19.8049C40.0952 19.8349 39.9752 19.8349 39.8702 19.8049C39.4652 20.5549 39.0152 21.3199 38.4752 22.0399H44.7452C44.2352 21.3649 43.7702 20.69 43.3652 20.015H40.1552H40.1702ZM43.7252 34.5349H39.5252V35.21H43.7252V34.5349ZM39.5252 38.3599H43.7252V37.6849H39.5252V38.3599ZM45.5852 25.64V24.7849H42.9452V27.0949C43.1552 26.4199 43.4102 25.6399 43.5152 25.0699L45.5852 25.64ZM42.9452 28.3399H45.5852V26.4499C45.3452 26.9599 45.0152 27.6049 44.7302 28.0699C44.1302 27.8599 43.5752 27.6649 42.9452 27.4549V28.3399Z" fill="#2E318B"/>
<path d="M77.7455 38.3V41.555H59.4305V38.3H61.6355V23.4051H66.3005C66.4055 22.9401 66.4955 22.4301 66.5405 21.9201H60.6455V18.68C60.0455 20.21 59.3255 21.8 58.5455 23.345V41.8851H54.9305V29.06C54.5855 29.525 54.2255 29.945 53.8805 30.32C53.5505 29.345 52.5305 27.17 51.9155 26.195C54.1205 23.825 56.2505 20.135 57.4955 16.415L61.0505 17.57C60.9455 17.915 60.8105 18.245 60.6755 18.59H66.9455C67.0205 17.81 67.0805 17.0601 67.1105 16.3851L71.2355 16.4601C71.1305 17.1651 71.0255 17.885 70.8905 18.59H77.2805V21.9051H70.2155C70.1105 22.4151 70.0055 22.925 69.8705 23.39H75.9005V38.285H77.7605L77.7455 38.3ZM65.0555 26.2101V27.23H72.3005V26.2101H65.0555ZM72.3005 29.8701H65.0555V30.9201H72.3005V29.8701ZM65.0555 33.485V34.5651H72.3005V33.485H65.0555ZM65.0555 38.3H72.3005V37.175H65.0555V38.3Z" fill="#2E318B"/>
<path d="M104.73 37.19H101.445C102.705 38.135 104.19 39.26 105 40.1L102.12 41.8999C101.235 40.9099 99.2853 39.2599 97.8303 38.1499L99.4803 37.175H95.5953L97.2603 38.1499C97.1853 38.2549 97.0203 38.3449 96.8253 38.3599C95.8803 39.5149 93.7503 41.105 91.9503 41.885C91.3803 41.27 90.3603 40.325 89.5803 39.725C88.9953 41.9 86.8803 41.8999 84.6753 41.8999C84.6153 40.8499 84.2703 39.3949 83.7603 38.4499C84.4353 38.5249 85.0203 38.5249 85.4103 38.5249C85.7253 38.5249 85.9503 38.4499 86.1603 38.0899C86.4603 37.5799 86.5653 35.51 86.6403 29.795H85.1853C84.8103 34.355 83.9403 38.6599 81.6903 41.8399C81.0753 40.8949 79.9053 39.7099 78.9453 39.0949C81.5553 35.4349 81.7203 29.8549 81.7953 23.8399H79.3653V20.225H83.2203V16.295L87.7503 16.5349C87.7203 16.8349 87.5103 16.9999 86.9703 17.1049V20.225H90.4203V20.87C91.3653 19.55 92.0853 17.8849 92.4753 16.2349L96.3753 17.225C96.3003 17.435 96.0753 17.5699 95.7003 17.5549C95.5653 17.9899 95.4003 18.4399 95.2353 18.8749H104.715V21.995H93.6453L93.4053 22.37L96.9003 22.565C96.8703 22.835 96.6603 22.9999 96.1503 23.1049V24.3649H98.8503V22.3249L103.215 22.565C103.185 22.835 102.975 23.0299 102.435 23.1049V24.3649H104.37V27.4099H102.435V34.085H104.73V37.1299V37.19ZM88.2903 26.3L90.1953 26.3599C90.1953 26.6599 90.1953 27.0949 90.1653 27.4849C90.0903 34.5199 90.0003 37.9849 89.5953 39.6049C90.9153 39.0349 92.3103 38.09 93.3153 37.175H90.3753V34.1299H92.6103V27.4549H90.7503V24.4099H92.6103V23.42C92.4003 23.69 92.1603 23.93 91.9053 24.14C91.5603 23.795 90.9603 23.3599 90.3903 22.9549V23.87H85.4403L85.3653 26.3H88.2753H88.2903ZM98.8503 27.4549H96.1503V28.0699H98.8503V27.4549ZM98.8503 31.085V30.44H96.1503V31.085H98.8503ZM96.1503 33.4549V34.1299H98.8503V33.4549H96.1503Z" fill="#2E318B"/>
<path d="M116.43 29.8099L115.455 29.9449V38.7499C115.455 41.1949 114.645 41.9299 111.465 41.9299C111.39 41.1199 111.015 39.83 110.61 39.05C111.015 39.08 111.45 39.1099 111.765 39.1099C112.545 39.1099 112.62 39.1099 112.62 38.7049V30.35L110.055 30.6949C109.995 34.3249 109.65 38.96 108.12 41.96C107.61 41.495 106.365 40.745 105.69 40.475C106.98 37.865 107.25 34.2049 107.31 31.0399L106.98 31.1C106.92 31.34 106.68 31.4749 106.47 31.5049L105.795 28.265L107.31 28.1299V19.8799H109.545C109.725 18.7249 109.89 17.315 109.95 16.265L113.97 16.9699C113.895 17.1799 113.64 17.3149 113.235 17.3449C113.025 18.0799 112.725 19.0099 112.425 19.8799H115.44V27.335L116.325 27.26L116.4 29.795L116.43 29.8099ZM111.795 23.3449C112.2 24.2599 112.53 25.4449 112.635 26.3299H112.665L112.635 22.8049H110.07V23.9149L111.795 23.3449ZM110.07 27.905L112.635 27.6649V26.585L110.64 27.26C110.61 26.51 110.37 25.4 110.07 24.425V27.905ZM112.605 31.1599C112.575 31.3549 112.41 31.4899 112.095 31.5049V37.1149H110.445V31.0249L112.605 31.1599ZM130.14 38.5399H131.655V41.4499H115.755V38.5399H117.27V31.5049H130.14V38.5399ZM119.25 30.515V30.89H116.64V17.21H124.29V19.64H122.46V20.8999H124.185V23.6449C124.905 21.7849 125.295 18.9799 125.475 16.3399L129.195 17.0899C129.12 17.2999 128.895 17.4649 128.55 17.4649C128.475 18.1849 128.385 18.92 128.25 19.67H131.535V22.5799H127.68C127.365 23.8699 126.96 25.0549 126.435 25.9999C125.895 25.5349 124.935 24.95 124.17 24.515V26.7499H122.445V28.01H124.62V30.4849H119.235L119.25 30.515ZM120.03 19.6249H119.25V20.885H120.03V19.6249ZM121.62 23.1049H119.25V24.5599H121.62V23.1049ZM120.03 28.0399V26.78H119.25V28.0399H120.03ZM120.135 34.3999V38.5549H120.84V34.3999H120.135ZM123.96 34.3999H123.255V38.5549H123.96V34.3999ZM125.01 29.2549V26.3449H131.1V29.2549H125.01ZM127.08 34.3999H126.375V38.5549H127.08V34.3999Z" fill="#2E318B"/>
<g filter="url(#filter0_d_70_1791)">
<path d="M162.765 24.335H176.07V38.3H173.865V37.6999H164.865V38.3H162.765V24.335ZM164.865 35.7049H173.865V26.315H172.695C173.04 26.525 173.385 26.7799 173.565 27.0049L173.01 27.5749H173.52V29.1049H171.06C171.105 29.6299 171.15 30.1099 171.21 30.5749C171.36 30.1849 171.495 29.7799 171.6 29.3599L173.55 29.8399C173.52 29.9599 173.385 30.0349 173.175 30.0349C172.845 31.0999 172.365 32.1199 171.765 32.9899C171.885 33.2749 172.035 33.47 172.2 33.515C172.32 33.515 172.425 32.9 172.485 32.21C172.815 32.525 173.46 33.0649 173.82 33.2749C173.64 34.7899 173.025 35.4799 172.245 35.4799C171.855 35.4799 171.045 35.255 170.535 34.46C170.085 34.895 169.605 35.27 169.08 35.585C168.87 35.27 168.39 34.7 168.075 34.37C167.22 34.505 166.425 34.6249 165.84 34.6999C165.81 34.8349 165.705 34.91 165.6 34.94L165.075 33.1849C166.14 33.1099 167.7 32.9749 169.245 32.8099V33.4099C169.47 33.2149 169.665 33.005 169.86 32.795C169.575 31.775 169.395 30.4849 169.29 29.0899H165.27V27.5599H169.185C169.155 27.1999 169.14 26.8249 169.125 26.4349L171.39 26.5249C171.375 26.6749 171.24 26.8099 170.955 26.8399C170.955 27.0649 170.955 27.32 170.955 27.545H172.08C171.825 27.35 171.525 27.125 171.27 26.975L171.975 26.2849H164.85V35.675L164.865 35.7049ZM169.02 29.6V32.495H165.57V29.6H169.02ZM167.565 31.37V30.71H166.95V31.37H167.565Z" fill="#2E318B"/>
<path d="M188.114 29.5849C188.279 30.1099 188.489 30.6049 188.744 31.0999C189.404 30.6349 190.079 30.1098 190.559 29.6448L192.494 31.3998C192.419 31.4598 192.299 31.4898 192.134 31.4898C192.074 31.4898 192.014 31.4898 191.954 31.4898C191.429 31.8498 190.589 32.3749 189.839 32.7949C190.679 33.7999 191.744 34.6099 193.049 35.1349C192.539 35.5849 191.864 36.4699 191.534 37.0849C188.774 35.7499 187.229 33.2899 186.254 30.0499C185.909 30.2749 185.519 30.5149 185.099 30.7249C187.004 32.0749 187.739 33.7849 187.739 35.2249C187.739 37.1749 186.404 38.2999 184.769 38.2999C184.394 38.2999 184.004 38.2848 183.599 38.2698C183.569 37.6998 183.434 36.9048 183.089 36.2748C181.979 36.8598 180.839 37.3699 179.789 37.7449C179.534 37.1899 179.054 36.3948 178.604 35.8998C180.734 35.3898 183.239 34.2349 184.754 33.0499L184.619 32.8849C183.329 33.6799 181.619 34.4898 180.254 34.9698C180.014 34.4748 179.549 33.7248 179.144 33.3048C180.509 33.0048 182.204 32.3899 183.374 31.7449L183.164 31.5948C182.204 31.9848 181.169 32.2848 180.164 32.5248C179.954 32.0898 179.444 31.2648 179.144 30.8748C180.614 30.6048 182.144 30.1699 183.434 29.5849H181.649V27.7099H189.584V29.5849H188.114ZM181.274 27.0948V28.7599H179.099V25.0849H184.454V23.6899L187.214 23.8398C187.199 24.0048 187.079 24.1099 186.749 24.1549V25.0699H192.254V28.7449H189.974V27.0798H181.274V27.0948ZM185.489 34.8199C184.829 35.2999 184.064 35.7648 183.269 36.1998C183.674 36.2298 184.004 36.2449 184.319 36.2449C184.649 36.2449 184.949 36.1999 185.129 35.9599C185.369 35.7799 185.534 35.3599 185.489 34.8199Z" fill="#2E318B"/>
<path d="M201.854 25.1599V27.3798H198.029L197.819 29.2099C197.999 29.1949 198.164 29.1798 198.359 29.1798C200.159 29.1798 202.259 30.1698 202.259 32.8398C202.259 35.0448 200.564 36.9648 197.654 36.9648C196.484 36.9648 195.419 36.6948 194.849 36.3948L195.329 34.3549C195.824 34.5799 196.619 34.8499 197.474 34.8499C198.554 34.8499 199.559 34.2049 199.559 33.0499C199.559 31.7449 198.524 31.0999 196.664 31.0999C196.184 31.0999 195.824 31.1149 195.449 31.1749L196.124 25.1599H201.869H201.854Z" fill="#2E318B"/>
<path d="M204.524 31.0101C204.524 27.7401 205.739 24.9951 208.514 24.9951C211.514 24.9951 212.414 28.04 212.414 30.935C212.414 34.73 210.944 36.965 208.469 36.965C205.499 36.965 204.524 33.9351 204.524 31.0101ZM209.729 30.98C209.729 28.49 209.339 27.14 208.499 27.14C207.704 27.14 207.209 28.34 207.209 30.98C207.209 33.62 207.659 34.82 208.499 34.82C209.144 34.82 209.729 34.145 209.729 30.98Z" fill="#2E318B"/>
<path d="M214.334 31.0101C214.334 27.7401 215.549 24.9951 218.339 24.9951C221.339 24.9951 222.239 28.04 222.239 30.935C222.239 34.73 220.769 36.965 218.294 36.965C215.324 36.965 214.349 33.9351 214.349 31.0101H214.334ZM219.539 30.98C219.539 28.49 219.149 27.14 218.309 27.14C217.514 27.14 217.019 28.34 217.019 30.98C217.019 33.62 217.469 34.82 218.309 34.82C218.954 34.82 219.539 34.145 219.539 30.98Z" fill="#2E318B"/>
<path d="M224.145 31.0101C224.145 27.7401 225.36 24.9951 228.15 24.9951C231.15 24.9951 232.05 28.04 232.05 30.935C232.05 34.73 230.58 36.965 228.105 36.965C225.135 36.965 224.16 33.9351 224.16 31.0101H224.145ZM229.35 30.98C229.35 28.49 228.96 27.14 228.12 27.14C227.325 27.14 226.83 28.34 226.83 30.98C226.83 33.62 227.28 34.82 228.12 34.82C228.765 34.82 229.35 34.145 229.35 30.98Z" fill="#2E318B"/>
<path d="M239.115 24.5599C239.055 24.6949 238.905 24.7699 238.65 24.7399C238.32 25.6399 237.915 26.54 237.495 27.425L238.095 27.62C238.05 27.755 237.915 27.89 237.63 27.92V38.2849H235.47V30.92C235.155 31.37 234.825 31.7899 234.495 32.1799C234.315 31.6399 233.805 30.4399 233.52 29.8999C234.735 28.5349 235.965 26.0899 236.7 23.7349L239.1 24.5599H239.115ZM246.765 34.3249C247.485 35.1049 248.31 36.1699 248.64 36.9499L246.885 37.94C246.75 37.565 246.51 37.1299 246.21 36.6649C245.985 37.8949 245.46 38.225 244.335 38.225H242.85C240.765 38.225 240.72 37.4449 240.72 35.7349C240.42 36.5149 239.985 37.325 239.4 37.925L237.825 36.7849C238.44 36.2299 238.965 35.3449 239.235 34.5199L240.72 35.1499V34.5199L242.52 34.6249C242.34 34.4599 242.145 34.2949 241.935 34.1449L242.175 33.9499H239.325V29.39H247.455V33.9499H244.35C244.635 34.1899 244.89 34.46 245.055 34.67L243.645 35.8099C243.48 35.5549 243.18 35.24 242.865 34.94C242.82 34.94 242.775 34.9549 242.715 34.9699V36.1099C242.715 36.5149 242.775 36.545 243.165 36.545H244.095C244.41 36.545 244.5 36.4249 244.545 35.6149C244.815 35.8249 245.385 36.0499 245.865 36.1849C245.625 35.8699 245.37 35.5399 245.13 35.2549L246.765 34.3549V34.3249ZM238.83 24.8449H242.205V23.8099L244.905 23.9449C244.905 24.1249 244.755 24.2149 244.44 24.2749V24.8449H248.01V26.4499H246.99L247.14 26.495C247.08 26.615 246.945 26.675 246.705 26.675L246.405 27.2299H248.43V28.925H238.29V27.2299H240.36C240.27 26.9749 240.15 26.6749 240.045 26.4499H238.845V24.8449H238.83ZM241.44 30.6799V31.1149H245.265V30.6799H241.44ZM241.44 32.225V32.675H245.265V32.225H241.44ZM242.085 26.4499C242.205 26.7049 242.325 26.9899 242.415 27.2299H244.29C244.395 26.9899 244.485 26.7049 244.575 26.4499H242.085Z" fill="#2E318B"/>
<path d="M250.334 28.3549H264.389V29.8999H250.334V28.3549ZM258.419 35.9149V36.2899H264.389V37.8799H250.334V36.2899H256.259V35.9149H251.774V34.5349H256.259V34.2199H252.164V30.245H262.499V34.2199H258.404V34.5349H262.934V35.9149H258.404H258.419ZM262.259 24.155V27.9799H252.449V24.155H262.259ZM254.249 31.3549V31.6999H256.259V31.3549H254.249ZM254.249 33.0949H256.259V32.7499H254.249V33.0949ZM260.009 25.565V25.2349H254.594V25.565H260.009ZM260.009 26.9149V26.585H254.594V26.9149H260.009ZM260.309 31.7149V31.37H258.404V31.7149H260.309ZM260.309 33.1099V32.765H258.404V33.1099H260.309Z" fill="#2E318B"/>
<path d="M276.735 30.71C274.86 30.71 274.335 30.155 274.275 28.46L272.31 29.2699C272.265 29.0599 272.19 28.805 272.1 28.55C270.225 28.715 268.38 28.85 267.12 28.94C267.09 29.09 266.955 29.1799 266.82 29.1949L266.19 26.8249C266.55 26.8249 266.94 26.8099 267.375 26.8099C267.81 25.8199 268.23 24.59 268.485 23.6L271.02 24.26C270.96 24.395 270.795 24.4699 270.54 24.4849C270.315 25.1899 269.97 26.0149 269.625 26.7499L271.275 26.7049C271.08 26.3149 270.855 25.9399 270.645 25.5799L272.565 24.815C273.24 25.79 273.945 27.0649 274.275 28.0549V23.765L276.96 23.8999C276.945 24.0649 276.825 24.1699 276.495 24.2299V25.6999C277.35 25.3249 278.175 24.92 278.805 24.53L280.26 26.1949C280.26 26.1949 280.05 26.2849 279.87 26.2549C278.985 26.7199 277.71 27.155 276.48 27.53V28.085C276.48 28.655 276.555 28.7149 277.065 28.7149H278.325C278.775 28.7149 278.865 28.505 278.925 27.245C279.375 27.575 280.29 27.9349 280.89 28.0549C280.665 30.1099 280.08 30.6949 278.55 30.6949H276.735V30.71ZM273.24 29.495V36.1099C273.24 37.6399 272.73 38.2399 270.33 38.2399C270.24 37.6549 269.91 36.7999 269.64 36.2749C269.88 36.2899 270.195 36.3049 270.42 36.3049C270.975 36.3049 271.035 36.3049 271.035 36.0799V35.6599H269.295V38.225H267.24V29.4799H273.24V29.495ZM271.035 31.295H269.295V31.8199H271.035V31.295ZM269.295 34.0399H271.035V33.44H269.295V34.0399ZM276.48 35.5699C276.48 36.1549 276.57 36.2149 277.095 36.2149H278.4C278.88 36.2149 278.97 35.945 279.045 34.475C279.51 34.805 280.395 35.1499 280.995 35.2849C280.77 37.5049 280.2 38.1499 278.625 38.1499H276.75C274.77 38.1499 274.29 37.52 274.29 35.585V30.9499L276.96 31.085C276.96 31.25 276.825 31.3549 276.495 31.4149V32.765C277.395 32.36 278.25 31.895 278.895 31.46L280.425 33.155C280.32 33.23 280.17 33.2299 280.005 33.2299C279.075 33.7249 277.77 34.22 276.48 34.655V35.5549V35.5699Z" fill="#2E318B"/>
<path d="M290.985 24.155H294.36C294.87 25.34 295.98 26.465 297.345 27.065C296.97 27.575 296.385 28.5799 296.1 29.2399L295.86 29.0899V32.1049H287.865V29.135L287.61 29.3C287.52 29.015 287.325 28.5049 287.1 28.0399V29.51H285.99V32.9299L287.25 32.6599L287.49 34.6249C286.02 35.1049 284.475 35.5549 283.44 35.8549C283.44 36.0199 283.305 36.125 283.17 36.155L282.33 33.6949C282.765 33.6199 283.26 33.5299 283.83 33.4099V29.5399H282.6V27.44H283.83V23.9449L286.44 24.0799C286.44 24.2449 286.305 24.3499 285.99 24.3949V27.425H286.785L286.695 27.26C287.61 26.735 288.48 25.76 288.945 24.725L290.985 25.4449V24.17V24.155ZM288.51 38.2849V32.4499H295.23V38.225H293.01V37.85H290.625V38.3H288.51V38.2849ZM290.685 28.6999C290.82 28.9849 290.94 29.36 291.03 29.675V28.5049H289.545V28.9999L290.685 28.6999ZM289.875 30.3949C289.815 30.0799 289.695 29.5849 289.56 29.1799V30.53H291.045V30.0199L289.875 30.3949ZM291 25.8049V25.6849C291 25.6849 290.895 25.6999 290.835 25.6849C290.61 26.1199 290.34 26.54 290.04 26.96H293.61C293.325 26.585 293.055 26.1949 292.83 25.8049H291.015H291ZM293.025 34.0549H290.64V34.4299H293.025V34.0549ZM290.64 36.2299H293.025V35.8549H290.64V36.2299ZM294.09 28.9999V28.5049H292.59V29.8249C292.71 29.4349 292.845 29 292.905 28.67L294.09 28.9849V28.9999ZM292.59 30.53H294.09V29.4649C293.955 29.7499 293.775 30.1249 293.595 30.3799C293.265 30.2599 292.935 30.1549 292.59 30.0349V30.545V30.53Z" fill="#2E318B"/>
<path d="M303.659 24.425C303.269 25.55 302.759 26.675 302.189 27.77V38.1201H300.509V30.485C300.239 30.83 299.939 31.19 299.669 31.505C299.519 31.055 299.024 30.0651 298.724 29.6001C300.044 28.2051 301.304 26.0451 302.039 23.8701L303.674 24.425H303.659ZM313.139 36.305V37.8351H302.834V36.305H304.154V27.8151H306.809C306.869 27.5001 306.929 27.1401 306.989 26.7801H303.509V25.22H307.199C307.244 24.725 307.289 24.29 307.319 23.855L309.254 23.915C309.194 24.35 309.104 24.77 309.029 25.22H312.794V26.7801H308.699C308.609 27.1701 308.534 27.5001 308.444 27.8151H311.984V36.305H313.154H313.139ZM305.759 29.15V29.99H310.289V29.15H305.759ZM310.289 31.25H305.759V32.09H310.289V31.25ZM305.759 33.32V34.1901H310.289V33.32H305.759ZM305.759 36.305H310.289V35.45H305.759V36.305Z" fill="#2E318B"/>
<path d="M320.009 33.3948V35.4498C320.969 35.7348 321.959 35.7348 324.599 35.7348C326.294 35.7348 328.529 35.7349 329.699 35.6599C329.369 36.1699 328.994 37.1898 328.859 37.8648H322.889C320.204 37.8648 318.389 37.5349 317.144 35.9449C316.994 36.9049 316.784 37.7598 316.499 38.4498C316.094 38.1798 315.269 37.7898 314.774 37.5948C315.404 36.1098 315.539 33.3799 315.569 30.7999L317.894 31.0999C317.864 31.2499 317.744 31.3399 317.519 31.3549L317.474 32.7048C317.609 33.1548 317.774 33.5298 317.984 33.8748V30.1098H315.104V28.1448H317.939V27.0048H315.554V25.0849H317.939V23.6599L320.459 23.7949C320.444 23.9599 320.324 24.0498 320.009 24.0948V25.0699H321.884V26.9898H320.009V28.1298H322.274V30.0948H320.009V31.4599H322.019V33.3798H320.009V33.3948ZM326.444 28.2498V26.1648H322.379V24.1998H328.559V30.6349H326.429V30.1549H324.899V32.5248C324.899 33.0948 324.974 33.1549 325.514 33.1549H326.864C327.359 33.1549 327.449 32.8998 327.509 31.2498C327.959 31.5798 328.874 31.9398 329.444 32.0748C329.219 34.4598 328.664 35.1199 327.074 35.1199H325.199C323.324 35.1199 322.769 34.5348 322.769 32.5548V28.2348H326.444V28.2498Z" fill="#2E318B"/>
<path d="M332.37 27.89C333.18 28.19 334.275 28.7299 334.785 29.1949L333.48 30.9799C333 30.5149 331.965 29.8849 331.14 29.5249L332.37 27.89ZM331.38 36.9799C331.95 35.7649 332.715 33.86 333.315 32.015L335.115 33.17C334.605 34.805 334.05 36.4249 333.555 37.6249C333.66 37.7449 333.705 37.8649 333.705 37.9699C333.705 38.0599 333.69 38.1349 333.645 38.1949L331.38 36.9649V36.9799ZM338.115 30.7849L339.225 30.8749C339.225 31.0249 339.21 31.28 339.195 31.475C339.06 35.375 338.91 36.9649 338.475 37.5049C337.89 38.2699 337.185 38.2699 335.565 38.2699C335.535 37.6699 335.31 36.8599 334.995 36.3199C335.52 36.3799 335.985 36.3799 336.27 36.3799C336.465 36.3799 336.6 36.3349 336.765 36.1849C336.945 35.9299 337.08 34.985 337.185 32.69H336.615L336.57 33.0199L334.68 32.8399C334.92 31.4599 335.16 29.3449 335.265 27.6649H337.32V26.135H335.145V25.5349L334.095 26.96C333.615 26.48 332.55 25.8199 331.725 25.4449L332.97 23.8249C333.675 24.0949 334.575 24.5599 335.16 24.9799V24.1849H339.315V29.87H337.335V29.585H337.005C336.96 30.005 336.93 30.41 336.885 30.815H338.16L338.115 30.7849ZM343.875 32.4799C343.92 32.7499 343.98 33.0199 344.04 33.2749C344.28 33.0649 344.52 32.8249 344.685 32.6449L346.035 34.3549C346.035 34.3549 345.885 34.4149 345.795 34.4149C345.72 34.4149 345.645 34.415 345.57 34.37C345.375 34.52 345.015 34.7449 344.67 34.9849C344.985 35.6299 345.435 36.17 345.99 36.53C345.54 36.905 344.925 37.7149 344.64 38.2549C343.92 37.7149 343.395 36.965 343.02 36.065L343.125 37.2049C341.925 37.4899 340.695 37.7899 339.885 37.9699C339.855 38.1199 339.735 38.2099 339.615 38.2399L338.925 36.1099C339.195 36.0799 339.525 36.035 339.855 35.975V32.4649H339.33V30.6499H339.96V24.065H345.42V25.7899H341.955V26.3H345.015V27.9499H341.955V28.46H345.015V30.1099H341.955V30.6499H345.735V32.4649H343.89L343.875 32.4799ZM341.79 35.6599L342.765 35.495C342.465 34.61 342.24 33.5749 342.105 32.4799H341.79V35.6599Z" fill="#2E318B"/>
</g>
<defs>
<filter id="filter0_d_70_1791" x="162.345" y="23.18" width="186.09" height="17.6699" filterUnits="userSpaceOnUse" color-interpolation-filters="sRGB">
<feFlood flood-opacity="0" result="BackgroundImageFix"/>
<feColorMatrix in="SourceAlpha" type="matrix" values="0 0 0 0 0 0 0 0 0 0 0 0 0 0 0 0 0 0 127 0" result="hardAlpha"/>
<feOffset dx="0.99" dy="0.99"/>
<feGaussianBlur stdDeviation="0.705"/>
<feColorMatrix type="matrix" values="0 0 0 0 0.0941176 0 0 0 0 0.121569 0 0 0 0 0.215686 0 0 0 0.34 0"/>
<feBlend mode="normal" in2="BackgroundImageFix" result="effect1_dropShadow_70_1791"/>
<feBlend mode="normal" in="SourceGraphic" in2="effect1_dropShadow_70_1791" result="shape"/>
</filter>
</defs>
</svg>
