<?xml version="1.0" encoding="utf-8"?>
<!-- Generator: Adobe Illustrator 27.0.0, SVG Export Plug-In . SVG Version: 6.00 Build 0)  -->
<svg version="1.1" id="_圖層_2" xmlns="http://www.w3.org/2000/svg" xmlns:xlink="http://www.w3.org/1999/xlink" x="0px" y="0px"
	 viewBox="0 0 181.4 96.4" style="enable-background:new 0 0 181.4 96.4;" xml:space="preserve">
<style type="text/css">
	.st0{enable-background:new    ;}
	.st1{fill:#FFFFFF;}
</style>
<g class="st0">
	<path class="st1" d="M46.3,88.3v2.9c0,0.3-0.1,0.6-0.3,0.7C45.7,92,45.4,92,44.9,92c0-0.2-0.1-0.5-0.2-0.7c0.3,0,0.6,0,0.7,0
		c0.1,0,0.1,0,0.1-0.1v-2.8l-1.3,0.2c0,1.1-0.1,2.6-0.7,3.5c-0.1-0.1-0.4-0.3-0.6-0.4c0.5-0.8,0.6-2,0.6-3l-0.5,0.1L43,88.1
		c0.2,0,0.4,0,0.6-0.1v-2.7h0.8c0.1-0.3,0.2-0.7,0.2-1l0.8,0.1c-0.1,0.3-0.2,0.6-0.3,0.9h1.2v2.4l0.4-0.1l0,0.6L46.3,88.3z
		 M44.3,87.9c0.4-0.1,0.8-0.1,1.3-0.2v-1.9h-1.3V87.9z M44.9,90.3c-0.1-0.3-0.3-0.9-0.6-1.3l0.5-0.2c0.2,0.4,0.5,0.9,0.6,1.2
		L44.9,90.3z M44.9,86.2c0.2,0.4,0.4,0.9,0.5,1.2l-0.5,0.2c-0.1-0.3-0.3-0.8-0.5-1.2L44.9,86.2z M50.1,91.2c0.1,0,0.1,0,0.1,0
		c0,0,0.1-0.1,0.1-0.2c0-0.2,0-0.5,0-0.9c0.1,0.1,0.4,0.2,0.5,0.3c0,0.4,0,0.9-0.1,1.1c0,0.2-0.1,0.3-0.2,0.4
		c-0.1,0.1-0.3,0.1-0.4,0.1h-0.4c-0.2,0-0.4-0.1-0.5-0.2c-0.1-0.1-0.2-0.3-0.2-0.9v-3.1h-1.2V89c0,1-0.1,2.3-1,3.1
		c-0.1-0.1-0.5-0.4-0.6-0.5c0.8-0.8,0.8-1.8,0.8-2.7v-1.9h2.7v3.8c0,0.2,0,0.3,0,0.3c0,0,0.1,0,0.1,0H50.1z M50.6,86.2h-4v-0.7h1.6
		c-0.1-0.3-0.3-0.7-0.5-1.1l0.7-0.2c0.2,0.4,0.5,0.9,0.6,1.3h1.5V86.2z"/>
	<path class="st1" d="M52.6,87.2h-0.8v-2H55c-0.1-0.3-0.2-0.5-0.3-0.8l0.8-0.2c0.2,0.3,0.4,0.7,0.5,1h3V87h-0.8v-1.1h-1.5v1.2
		c0,0.2,0.1,0.3,0.3,0.3h1.4c0.2,0,0.6,0,0.7-0.1c0,0.2,0,0.5,0.1,0.7c-0.2,0-0.5,0.1-0.8,0.1H57c-0.8,0-1.1-0.3-1.1-1v-1.2h-0.9
		c-0.1,1.5-0.6,2.2-2.8,2.5c-0.1-0.2-0.2-0.5-0.4-0.7c2-0.2,2.3-0.7,2.4-1.9h-1.6V87.2z M55.9,91.1h3.2v0.7h-7.3v-0.7h3.2v-1.6h-2.4
		v-0.7h5.6v0.7h-2.4V91.1z"/>
	<path class="st1" d="M67.7,87.3c-0.3,1.1-0.7,2.1-1.2,2.9c0.2,0.7,0.4,1.1,0.6,1.1c0.1,0,0.2-0.4,0.2-1.3c0.2,0.2,0.4,0.3,0.6,0.4
		C67.8,91.6,67.6,92,67,92c-0.5,0-0.8-0.4-1-1.1c-0.4,0.5-0.8,0.9-1.3,1.2c-0.1-0.1-0.4-0.4-0.5-0.5c0.6-0.4,1.2-0.9,1.6-1.5
		c-0.2-1-0.3-2.3-0.4-3.8h-1.8v1H65c0,0,0,0.2,0,0.3c0,1.9-0.1,2.6-0.2,2.9c-0.1,0.2-0.3,0.2-0.5,0.2c-0.2,0-0.5,0-0.7,0
		c0-0.2-0.1-0.5-0.2-0.7c0.3,0,0.5,0,0.6,0s0.2,0,0.2-0.1c0.1-0.1,0.1-0.6,0.1-2h-0.9v0.3c0,1.2-0.2,2.9-1.1,3.9
		c-0.1-0.2-0.4-0.4-0.6-0.5c0.4-0.5,0.6-1,0.7-1.6c-0.8,0.3-1.6,0.7-2.3,0.9L60,90.2c0.3-0.1,0.6-0.2,0.9-0.3V87h-0.8v-0.7H61v-1.9
		h0.7v1.9h0.7V87h-0.7v2.6l0.7-0.3l0.1,0.7c0.1-0.6,0.2-1.3,0.2-1.8v-2.7h2.5c0-0.4,0-0.8,0-1.3H66c0,0.4,0,0.8,0,1.3H67
		c-0.2-0.3-0.5-0.6-0.8-0.9l0.5-0.3c0.3,0.3,0.7,0.7,0.9,1l-0.4,0.3h0.6v0.7h-1.7c0,1,0.1,2,0.2,2.8c0.3-0.6,0.5-1.2,0.7-1.9
		L67.7,87.3z"/>
	<path class="st1" d="M72.2,86.3h-3.5v-0.6h1.6c-0.1-0.3-0.4-0.8-0.6-1.1l0.6-0.3c0.2,0.4,0.5,0.8,0.6,1.1l-0.6,0.3h1.9V86.3z
		 M69.1,87.4v-0.6h2.8v0.6H69.1z M71.9,88.6h-2.8v-0.6h2.8V88.6z M71.9,91.6h-2.1V92h-0.7v-2.9h2.7V91.6z M69.8,89.7v1.2h1.4v-1.2
		H69.8z M76.3,87.9h-1.7v4.2h-0.8v-4.2h-1.6v-0.8h1.6v-2.7h0.8v2.7h1.7V87.9z"/>
	<path class="st1" d="M77.1,91.3h7.6v0.5h-7.6V91.3z M84.7,88.1v0.5h-7.6v-0.5h3.3v-0.4h-2.7v-0.5h2.7v-0.4H78v-0.5h2.5v-0.4h-3.3
		v-0.5h3.3v-0.4H78v-0.5h2.4v-0.5h0.8v0.5h2.5v0.8h0.9v0.5h-0.9v0.8h-2.5v0.4h2.9v0.5h-2.9v0.4H84.7z M83.8,89v2h-5.7v-2H83.8z
		 M78.9,89.7h1.7v-0.4h-1.7V89.7z M78.9,90.5h1.7v-0.4h-1.7V90.5z M83,89.4h-1.8v0.4H83V89.4z M83,90.2h-1.8v0.4H83V90.2z
		 M81.3,85.6H83v-0.4h-1.7V85.6z M81.3,86.5H83v-0.4h-1.7V86.5z"/>
	<path class="st1" d="M85.4,90.7l0.5-0.6c0.4,0.4,0.8,0.7,1.5,0.7c0.7,0,1.2-0.4,1.2-1c0-0.7-0.4-1.1-1.9-1.1v-0.7
		c1.2,0,1.6-0.5,1.6-1.1c0-0.6-0.4-0.9-1-0.9c-0.5,0-0.9,0.2-1.2,0.6l-0.5-0.6c0.5-0.4,1.1-0.8,1.8-0.8c1.1,0,1.9,0.6,1.9,1.6
		c0,0.7-0.4,1.2-1.1,1.5v0c0.7,0.2,1.3,0.7,1.3,1.6c0,1.1-0.9,1.8-2.1,1.8C86.5,91.5,85.8,91.1,85.4,90.7z"/>
	<path class="st1" d="M90.8,85.1h1.6c1.9,0,3,1.1,3,3.1c0,2-1.1,3.2-3,3.2h-1.7V85.1z M92.4,90.6c1.3,0,2.1-0.8,2.1-2.3
		c0-1.6-0.7-2.3-2.1-2.3h-0.6v4.6H92.4z"/>
	<path class="st1" d="M96.1,92h4.6v0.6h-4.6V92z"/>
	<path class="st1" d="M108.6,84.6v7.5h-0.8v-0.4h-5.6v0.4h-0.7v-7.5H108.6z M107.8,91.1v-5.8h-5.6v5.8H107.8z M107.5,87.3v0.5h-4.9
		v-0.5h2.1c0-0.1,0-0.3,0.1-0.4h-1.5v-1.3h3.7v1.3h-1.5c0,0.1,0,0.3-0.1,0.4H107.5z M102.9,88h4.2v2.7h-4.2V88z M103.5,90.2h2.9
		v-1.8h-2.9V90.2z M103.8,86.5h2.4V86h-2.4V86.5z M104,88.8h1.8v1.1H104V88.8z M104.5,89.5h0.9v-0.4h-0.9V89.5z"/>
	<path class="st1" d="M115.8,88.3v3.7H115v-2.9h-3.4c-0.1,1.1-0.5,2.1-1.3,3c-0.1-0.2-0.4-0.5-0.6-0.6c1.1-1.2,1.2-2.8,1.2-4.2v-2.9
		h0.8v1.9h3v-2h0.8v2.8h-3.8v0.2c0,0.4,0,0.7,0,1.1H115.8z"/>
	<path class="st1" d="M125.2,89.2c-0.3-0.3-0.8-0.7-1.2-1.1c-0.2,0.3-0.4,0.6-0.7,0.9c-0.1-0.1-0.4-0.3-0.6-0.4c0.8,1.1,2,2,3.3,2.5
		c-0.2,0.2-0.5,0.5-0.6,0.7c-1.1-0.5-2.2-1.4-3-2.4v2.7h-0.8v-2.7c-0.8,1-1.9,1.8-2.9,2.3c-0.1-0.2-0.4-0.5-0.6-0.7
		c1.4-0.5,2.7-1.7,3.5-2.9v-2h-3.2v-0.8h3.2v-1.1h0.8v1.1h3.3v0.8h-3.3v2c0.1,0.1,0.2,0.2,0.2,0.4c0.6-0.5,1-1.3,1.2-2.2l0.8,0.1
		c-0.1,0.3-0.2,0.7-0.3,1c0.5,0.4,1.1,0.9,1.5,1.2L125.2,89.2z M120.6,86.4c-0.1,0.3-0.2,0.7-0.3,1c0.3,0.3,0.7,0.6,0.9,0.8
		l-0.5,0.6c-0.2-0.2-0.4-0.5-0.7-0.7c-0.3,0.5-0.6,0.9-1,1.3c-0.1-0.1-0.4-0.4-0.6-0.5c0.8-0.6,1.3-1.5,1.5-2.5L120.6,86.4z"/>
	<path class="st1" d="M128,88.1c-0.3-0.2-0.9-0.6-1.4-0.9l0.5-0.6c0.4,0.2,1.1,0.6,1.4,0.8L128,88.1z M128.6,89.2
		c-0.3,0.9-0.8,1.9-1.2,2.7l-0.7-0.4c0.4-0.7,0.9-1.8,1.2-2.7L128.6,89.2z M128.4,85.8c-0.3-0.2-0.9-0.6-1.4-0.9l0.5-0.6
		c0.4,0.2,1.1,0.6,1.4,0.9L128.4,85.8z M129.9,87c0,1.5-0.2,3.6-1.1,5c-0.1-0.1-0.5-0.3-0.7-0.4c1-1.3,1-3.2,1-4.6v-2.3h5.2v0.7
		h-4.4V87z M131.2,89.9c-0.3,0.6-0.7,1.3-1,1.7c-0.1-0.1-0.5-0.3-0.6-0.4c0.4-0.4,0.7-1,1-1.5L131.2,89.9z M132.5,89.2v2
		c0,0.4-0.1,0.6-0.3,0.7c-0.2,0.1-0.6,0.1-1.2,0.1c0-0.2-0.1-0.5-0.2-0.7c0.4,0,0.7,0,0.8,0c0.1,0,0.1,0,0.1-0.1v-2h-1.4v-3h1.2
		c0.1-0.3,0.2-0.6,0.2-0.8l0.9,0.2c-0.1,0.2-0.2,0.4-0.3,0.6h1.7v3H132.5z M131,87.5h2.3v-0.6H131V87.5z M131,88.7h2.3V88H131V88.7z
		 M133.6,89.6c0.3,0.5,0.7,1.2,0.9,1.6l-0.7,0.3c-0.2-0.4-0.6-1.1-0.9-1.7L133.6,89.6z"/>
	<path class="st1" d="M137.4,88.8c-0.1-0.3-0.3-0.7-0.5-1v4.3h-0.7v-3.5c-0.2,0.7-0.5,1.4-0.8,1.9c-0.1-0.2-0.3-0.6-0.4-0.8
		c0.5-0.7,0.9-2,1.1-3.1h-1v-0.7h1v-1.6h0.7v1.6h0.8v0.7h-0.8v0.2c0.2,0.3,0.9,1.2,1,1.4L137.4,88.8z M139.9,84.3v3.5
		c0,1.6-0.2,3.3-1.9,4.3c-0.1-0.2-0.3-0.4-0.5-0.6c1.1-0.5,1.5-1.4,1.6-2.4c-0.4,0.3-0.8,0.7-1.1,1l-0.4-0.7c0.4-0.2,1-0.7,1.6-1.1
		c0-0.2,0-0.3,0-0.5v-3.5H139.9z M138.5,85.5c0.3,0.5,0.6,1.3,0.7,1.8l-0.6,0.3c-0.1-0.5-0.4-1.2-0.7-1.8L138.5,85.5z M142.1,91.3
		c0.2,0,0.2-0.2,0.2-1c0.2,0.1,0.5,0.3,0.7,0.3c-0.1,1-0.3,1.4-0.8,1.4h-0.8c-0.6,0-0.8-0.2-0.8-1.1v-6.6h0.7v3.9l0.2-0.2
		c0.5,0.5,1.1,1.1,1.4,1.5l-0.5,0.5c-0.2-0.3-0.7-0.9-1.1-1.3v2.2c0,0.3,0,0.4,0.2,0.4H142.1z M142.8,85.7c-0.3,0.6-0.7,1.3-0.9,1.8
		l-0.6-0.3c0.3-0.5,0.6-1.2,0.8-1.8L142.8,85.7z"/>
	<path class="st1" d="M151,84.6v7.4h-0.8v-0.3h-5.6v0.3h-0.7v-7.4H151z M150.3,91v-5.7h-5.6V91H150.3z M147.8,89.9
		c0,0.1,0,0.4,0,0.5c-1.5,0.4-1.7,0.5-1.9,0.6c0-0.1-0.1-0.4-0.2-0.5c0.1-0.1,0.3-0.1,0.3-0.5v-0.5c-0.3,0.1-0.5,0.2-0.8,0.3
		c-0.1-0.1-0.3-0.3-0.4-0.5c0.6-0.1,1.3-0.4,1.8-0.6h-1.1v-1.2h3.9v1.2h-1.9c-0.3,0.2-0.6,0.4-0.9,0.5v0.9L147.8,89.9z M149.9,87.3
		H145v-0.5h2v-0.4h-1.6v-0.5h1.6v-0.4h0.7v0.4h1.7v0.5h-1.7v0.4h2.1V87.3z M146.2,88.4h2.5v-0.5h-2.5V88.4z M149.9,89.2
		c-0.3,0.2-0.6,0.4-0.9,0.5c0.3,0.2,0.7,0.5,0.9,0.7l-0.5,0.3c-0.5-0.4-1.4-1.1-2.2-1.5l0.5-0.3c0.3,0.2,0.6,0.3,0.9,0.5
		c0.3-0.2,0.6-0.4,0.8-0.5L149.9,89.2z"/>
	<path class="st1" d="M156.4,86.2v1.1h2.7v2.9c0,0.4-0.1,0.7-0.4,0.8c-0.3,0.1-0.8,0.1-1.5,0.1c0-0.2-0.2-0.6-0.3-0.8
		c0.5,0,1,0,1.2,0c0.1,0,0.2,0,0.2-0.2v-2.1h-1.9v4h-0.8v-4h-1.8v3.1H153v-3.8h2.6v-1.1h-3.4v-0.8h3.5c-0.1-0.3-0.3-0.7-0.5-1
		l0.8-0.2c0.2,0.4,0.5,0.9,0.6,1.3h3.2v0.8H156.4z"/>
	<path class="st1" d="M167.8,86.6c-0.2,1.4-0.5,2.5-1.1,3.4c0.4,0.6,1,1.1,1.7,1.5c-0.2,0.2-0.4,0.5-0.5,0.7
		c-0.7-0.3-1.2-0.8-1.6-1.4c-0.5,0.6-1.1,1.1-1.8,1.5c-0.1-0.2-0.3-0.5-0.5-0.7c0.8-0.4,1.4-0.8,1.8-1.5c-0.3-0.6-0.6-1.4-0.8-2.1
		c-0.1,0.2-0.3,0.5-0.4,0.7c-0.1-0.1-0.3-0.3-0.5-0.4h-0.9v2l1.3-0.3l0.1,0.7c-1.4,0.3-2.9,0.7-3.9,0.9l-0.1-0.8l0.5-0.1v-3.7h0.7
		v3.6l0.7-0.2v-4.6h-1.7v-0.8h3.9v0.8h-1.4v1.7h1.1v0.3c0.6-0.8,0.9-2,1.1-3.3l0.8,0.1c-0.1,0.5-0.2,1-0.3,1.4h2.5v0.7H167.8z
		 M165.5,86.7c0.2,0.9,0.4,1.7,0.8,2.4c0.3-0.7,0.6-1.6,0.7-2.6h-1.4L165.5,86.7z"/>
	<path class="st1" d="M170.5,85.9V88c0,1.2-0.1,3-0.8,4.1c-0.1-0.1-0.5-0.4-0.7-0.5c0.6-1,0.6-2.5,0.6-3.7v-2.9h3.3
		c-0.1-0.3-0.2-0.5-0.3-0.8l0.8-0.2c0.2,0.3,0.3,0.7,0.5,1h2.9v0.7H170.5z M172.9,86.2c-0.2,0.5-0.4,0.9-0.6,1.4v4.5h-0.7v-3.3
		c-0.2,0.2-0.4,0.4-0.6,0.6c-0.1-0.2-0.2-0.6-0.3-0.7c0.7-0.7,1.2-1.7,1.5-2.6L172.9,86.2z M176.8,88.1h-0.9v3.1
		c0,0.4-0.1,0.7-0.4,0.8c-0.3,0.1-0.7,0.1-1.4,0.1c0-0.2-0.1-0.6-0.2-0.8c0.5,0,0.9,0,1.1,0c0.1,0,0.2,0,0.2-0.2v-3.1h-2.4v-0.7h2.4
		v-1.2h0.8v1.2h0.9V88.1z M173.6,88.5c0.3,0.5,0.7,1.2,0.9,1.6l-0.7,0.3c-0.2-0.4-0.6-1.1-0.9-1.7L173.6,88.5z"/>
</g>
</svg>
