<svg width="441" height="147" viewBox="0 0 441 147" fill="none" xmlns="http://www.w3.org/2000/svg">
<path d="M62.9998 12.67H37.1298C36.6598 14.81 36.0598 17.16 35.3898 19.37H56.2998V63.93H45.8498V60.0401H19.4998V63.93H9.57977V19.37H24.9898C25.3898 17.29 25.7898 14.95 26.0598 12.67H2.00977V3.55005H62.9998V12.67ZM45.8398 35.25V28.35H19.4998V35.25H45.8398ZM19.4998 51.07H45.8398V44.03H19.4998V51.07Z" fill="white"/>
<path d="M98.6497 4.08997C98.3797 4.68997 97.7097 5.02997 96.6397 4.88997C95.1697 8.83997 93.4197 12.8 91.6097 16.62L94.2197 17.49C94.0197 18.09 93.4197 18.7 92.2097 18.83V64.2H82.7597V31.97C81.3497 33.91 79.9497 35.79 78.4697 37.47C77.6697 35.12 75.4497 29.83 74.1797 27.48C79.4697 21.52 84.8997 10.79 88.1197 0.469971L98.6397 4.08997H98.6497ZM132.16 46.85C135.31 50.27 138.93 54.89 140.34 58.31L132.63 62.67C132.03 61.06 130.95 59.12 129.68 57.11C128.67 62.47 126.4 63.95 121.5 63.95H115C105.89 63.95 105.68 60.53 105.68 53.03C104.34 56.45 102.46 60 99.9197 62.61L93.0197 57.65C95.6997 55.24 97.9797 51.35 99.1897 47.73L105.69 50.48V47.73L113.6 48.2C112.8 47.46 111.92 46.73 111.05 46.12L112.12 45.25H99.6497V25.27H135.24V45.24H121.64C122.91 46.31 123.99 47.45 124.72 48.39L118.55 53.35C117.81 52.21 116.54 50.87 115.13 49.53C114.93 49.53 114.73 49.6 114.46 49.66V54.62C114.46 56.36 114.73 56.5 116.4 56.5H120.49C121.9 56.5 122.23 55.96 122.43 52.41C123.64 53.35 126.12 54.29 128.19 54.89C127.12 53.48 126.05 52.08 124.97 50.8L132.14 46.85H132.16ZM97.4397 5.35997H112.18V0.799971L123.98 1.39997C123.91 2.19997 123.31 2.60997 121.97 2.86997V5.34997H137.58V12.39H133.09L133.76 12.59C133.49 13.13 132.89 13.39 131.88 13.39L130.54 15.8H139.39V23.24H95.0297V15.8H104.08C103.68 14.66 103.14 13.39 102.67 12.38H97.4397V5.35997ZM108.83 30.89V32.77H125.58V30.89H108.83ZM108.83 37.66V39.6H125.58V37.66H108.83ZM111.64 12.39C112.18 13.53 112.71 14.74 113.11 15.81H121.29C121.76 14.74 122.16 13.53 122.56 12.39H111.64Z" fill="white"/>
<path d="M213.32 33.78H177.6C173.11 46.45 166.68 56.97 157.5 63.94C155.96 62 152.34 58.44 150.13 56.7C157.5 51.67 163 43.63 166.88 33.78H151.8V24.6H169.96C170.7 21.72 171.43 18.7 171.97 15.62H163.32V22.92H153.8V6.84002H177.26V0.27002L189.32 0.940019C189.25 1.68002 188.72 2.15002 187.31 2.35002V6.84002H211.37V22.92H201.38V15.62H177.52L183.89 16.96C183.69 17.7 183.02 18.1 181.88 18.1C181.41 20.31 180.87 22.46 180.34 24.6H213.31V33.78H213.32ZM199.92 40.48C204.75 45.91 210.98 53.48 213.59 58.71L205.21 64C204.74 63 204.14 61.79 203.4 60.58C192.41 61.45 181.28 62.19 173.71 62.59C173.51 63.26 172.91 63.6 172.3 63.66L168.55 53.07L175.25 52.87C177.73 47.44 180.14 40.4 181.55 34.71L193.01 37.73C192.74 38.4 192 38.74 190.87 38.8C189.46 43.16 187.45 48.18 185.37 52.54C189.39 52.41 193.55 52.27 197.77 52.07C195.96 49.59 194.02 47.18 192.21 45.03L199.92 40.47V40.48Z" fill="white"/>
<path d="M249.17 55.09H258.35C261.7 51.94 262.57 47.85 262.97 43.76L272.08 44.76C271.95 45.3 271.41 45.7 270.47 45.83C269.47 51.79 267.92 59.03 260.42 63.79C260.02 63.05 259.48 62.18 258.88 61.24V61.44H237.84V63.99H230.13V46.57C229.59 47.17 229.12 47.78 228.59 48.31C227.85 46.77 225.91 43.55 224.84 42.08C227.79 38.93 230.6 33.7 232.35 28.34H227.52V14.88H242V28.35H237.58L240.86 29.42C240.59 29.89 240.06 30.22 239.18 30.16L238.31 32.44H242.33C243 30.76 243.54 28.95 243.87 27.48V14.88H258.55V28.35H247.16L252.39 29.76C252.19 30.3 251.65 30.56 250.65 30.56L249.71 32.44H258.82V38.74H249.17V40.48H257.35V45.98H249.17V47.79H257.35V53.29H249.17V55.1V55.09ZM231.54 13.34V10.79H225.71V4.41997H231.54V0.339966L241.46 0.879966C241.39 1.54997 240.86 1.94997 239.65 2.14997V4.42997H245.75V0.339966L255.67 0.879966C255.6 1.54997 255.07 1.94997 253.86 2.14997V4.42997H259.22V10.8H253.86V13.35H245.75V10.8H239.65V13.35H231.54V13.34ZM233.55 20.38V22.86H235.63V20.38H233.55ZM241.32 40.49V38.75H237.84V40.49H241.32ZM241.32 47.79V45.98H237.84V47.79H241.32ZM237.84 53.29V55.1H241.32V53.29H237.84ZM249.9 20.38V22.86H252.18V20.38H249.9ZM280.93 53.42C280.93 55.3 281 55.5 281.47 55.5H282.07C282.74 55.5 283.01 54.63 283.14 48.2C284.61 49.54 288.1 50.81 290.24 51.42C289.57 60.6 287.56 63.08 283 63.08H279.92C274.02 63.08 272.82 60.67 272.82 53.5V42.17H260.89V2.54997H286.69V42.15H280.93V53.41V53.42ZM269.14 10.8V13.61H278.05V10.8H269.14ZM269.14 20.92V23.73H278.05V20.92H269.14ZM269.14 31.04V33.85H278.05V31.04H269.14Z" fill="white"/>
<path d="M364.44 18.83H338.37C337.3 21.78 336.16 24.66 334.82 27.34H339.18V20.24L350.71 20.84C350.64 21.58 350.11 22.05 348.7 22.25V27.34H362.37V46.91C362.37 53.95 360.16 55.96 350.91 55.96C350.64 53.55 349.7 50.13 348.7 47.78V64H339.18V36.05H334.89V55.89H325.84V41.21C324.5 42.75 323.09 44.16 321.55 45.5C320.68 43.96 318.94 41.41 317.39 39.47V64.2H307.94V31.97C306.53 33.91 305.13 35.79 303.65 37.47C302.85 35.12 300.63 29.83 299.36 27.48C304.65 21.52 310.08 10.79 313.3 0.47L323.82 4.09C323.55 4.69 322.88 5.03 321.81 4.89C320.34 8.84 318.59 12.8 316.78 16.62L319.39 17.49C319.19 18.09 318.59 18.7 317.38 18.83V36.12C321.94 31.9 325.56 25.87 328.44 18.83H320.33V9.99H331.39C332.26 6.77 333.07 3.42 333.67 0L344.66 2.41C344.46 3.08 343.79 3.48 342.72 3.48C342.25 5.69 341.71 7.84 341.11 9.98H364.43V18.83H364.44ZM353.05 36.05H348.69V47.51C350.03 47.58 351.64 47.58 352.24 47.58C352.84 47.51 353.04 47.38 353.04 46.78V36.06L353.05 36.05Z" fill="white"/>
<path d="M431.66 27.01L437.09 27.41C437.02 28.15 437.02 29.35 436.89 30.29C436.29 49.86 435.62 57.57 433.67 60.18C431.46 63.2 428.98 64.13 420.13 63.93C420.06 62.25 419.59 60.04 418.92 58.1H403.1V62.26H394.19V38.67H421.26V55.09C423.87 55.09 424.21 55.09 425.01 54.02C426.01 52.75 426.55 47.85 426.95 35.52H391.83C390.69 45.04 388.14 55.16 383.05 62.26C381.44 60.45 377.35 57.17 375.21 56.09C382.51 45.84 383.05 30.49 383.05 19.9V3.21997H431.91V23.66H392.64C392.64 24.73 392.57 25.87 392.51 27.08H429.5L431.64 27.01H431.66ZM422.14 11.33H392.72V15.55H422.14V11.33ZM412.22 50.54V46.25H403.11V50.54H412.22Z" fill="white"/>
<path d="M33.98 125.68C33.91 126.35 33.78 126.95 33.64 127.62H61.25V145.45H52.74V143.91H40.01V145.45H31.83V134.53C30.42 138.48 28.35 142.24 25.33 145.25C24.06 143.57 20.5 140.22 18.76 139.15C25.46 132.38 26.06 122.66 26.06 115.49V104.3C25.66 104.57 25.19 104.77 24.79 104.97C24.19 103.7 23.38 102.02 22.44 100.41V103.22H17.55V111.2L22.31 110.06L23.45 118.3C21.51 118.97 19.5 119.57 17.55 120.24V135.05C17.55 139.47 16.88 142.02 14.47 143.56C12.06 145.1 8.64 145.5 4.02 145.44C3.75 142.89 2.61 138.74 1.41 136.12C3.76 136.19 6.3 136.19 7.24 136.19C8.11 136.19 8.38 135.92 8.38 134.98V123.05L3.62 124.52C3.49 125.26 2.82 125.73 2.28 125.86L0 115.2C2.35 114.73 5.23 114.13 8.38 113.39V103.2H1.01V94.29H8.38V81.76L19.5 82.23C19.43 82.97 18.96 83.5 17.56 83.7V94.29H22.45V95.97C28.88 92.42 35.05 86.52 38.06 81.7L48.92 82.17C48.72 82.64 48.25 83.11 47.51 83.24C51.53 88.07 58.84 93.23 65.14 95.57C63.26 97.85 61.25 101.47 59.85 104.22C57.3 102.95 54.62 101.14 52.01 99.19V102.27H32.98V99.72C30.84 101.39 28.49 103 26.08 104.28H58.91V125.66H33.98V125.68ZM50.13 119.31V117.5H34.72L34.65 119.31H50.13ZM34.72 110.67V112.41H50.13V110.67H34.72ZM47.79 95.59C45.78 93.71 43.97 91.84 42.63 90.03C41.36 91.77 39.68 93.72 37.74 95.59H47.79ZM40.02 134.19V137.34H52.75V134.19H40.02Z" fill="white"/>
<path d="M84.1097 116.5C82.9697 118.11 81.8297 119.58 80.6897 120.99C79.4797 118.78 76.5997 114.36 74.9297 112.28C80.8297 105.58 86.5897 93.31 89.9397 81.72L101 85.14C100.73 85.81 99.9897 86.14 98.9197 86.08C97.1797 91.04 95.1697 96.07 92.9597 100.89L95.7697 101.56C95.6397 102.3 95.0297 102.83 93.7597 102.97V145.46H84.1097V116.51V116.5ZM138.53 103.43H121.78V115.36H136.26V145.12H126.21V143.11H109.46V145.46H99.9397V115.37H111.94V82L123.8 82.6C123.73 83.4 123.2 83.81 121.79 84.07V94.12H138.54V103.44L138.53 103.43ZM126.2 134.12V124.27H109.45V134.12H126.2Z" fill="white"/>
<path d="M212.98 117.51H192.47C198.1 124.08 206.41 130.24 214.85 133.86C212.44 135.87 209.15 139.89 207.48 142.57C200.24 138.68 193.34 132.79 187.64 126.02V145.39H177.25V126.89C171.55 133.46 164.65 139.15 157.41 143.04C155.8 140.49 152.45 136.54 150.17 134.46C158.75 130.71 167.33 124.27 172.89 117.5H152.32V107.85H177.25V100.95H157.48V91.3H177.25V81.72L189.71 82.39C189.64 83.13 189.04 83.6 187.63 83.86V91.3H207.87V100.95H187.63V107.85H212.96V117.5L212.98 117.51Z" fill="white"/>
<path d="M264.39 116.37C270.29 123.81 279.67 130.44 289.72 134.06C287.31 136.14 284.09 140.29 282.48 143.04C274.97 139.55 268.14 134.19 262.44 127.83V145.39H252.12V128.43C246.49 134.66 239.72 139.82 232.22 143.24C230.68 140.76 227.53 136.81 225.32 134.8C236.31 130.64 246.43 122.8 252.13 114.09V99.08H239.93L249.51 101.36C249.24 101.96 248.64 102.36 247.63 102.3C247.16 103.97 246.56 105.72 245.89 107.33C248.17 109.21 250.45 111.15 251.85 112.56L245.42 119.46C244.55 118.39 243.21 117.05 241.73 115.64C239.59 118.92 237.11 121.8 234.29 124.02C232.75 122.34 229.4 119.4 227.39 117.99C232.89 114.1 236.91 106.87 238.72 99.09H228.47V89.57H252.13V81.73L264.53 82.4C264.46 83.14 263.93 83.61 262.45 83.87V89.57H286.98V99.09H271.43L280.88 101.3C280.68 101.9 280.01 102.24 279.14 102.24C278.67 103.91 278.07 105.59 277.4 107.27C281.09 110.02 285.51 113.23 287.92 115.38L281.22 122.08C279.48 120.27 276.39 117.66 273.31 115.18C272.17 116.85 270.9 118.4 269.56 119.74C268.29 118.74 266.28 117.39 264.4 116.32V116.39L264.39 116.37ZM262.45 99.08V113.62L262.72 114.02C266.34 110.4 268.95 104.77 270.23 99.08H262.46H262.45Z" fill="white"/>
<path d="M322.83 124.14V133.12C327.05 134.39 331.34 134.39 342.93 134.39C350.37 134.39 360.15 134.32 365.25 134.06C363.78 136.27 362.17 140.76 361.56 143.71H335.42C323.69 143.71 315.72 142.24 310.29 135.33C309.62 139.55 308.75 143.3 307.48 146.32C305.74 145.11 302.12 143.44 299.91 142.57C302.66 136.07 303.26 124.14 303.39 112.82L313.58 114.16C313.45 114.83 312.91 115.23 311.9 115.3L311.7 121.2C312.3 123.14 313.04 124.82 313.91 126.29V109.8H301.31V101.22H313.71V96.26H303.25V87.88H313.71V81.65L324.77 82.25C324.7 82.99 324.17 83.39 322.83 83.59V87.88H331.01V96.26H322.83V101.22H332.75V109.8H322.83V115.76H331.61V124.14H322.83ZM350.98 101.62V92.51H333.22V83.93H360.29V112.08H350.97V110H344.27V120.39C344.27 122.87 344.6 123.14 346.95 123.14H352.85C354.99 123.14 355.4 122 355.66 114.83C357.6 116.3 361.62 117.85 364.1 118.45C363.09 128.91 360.68 131.79 353.71 131.79H345.53C337.35 131.79 334.87 129.24 334.87 120.53V101.63H350.95L350.98 101.62Z" fill="white"/>
<path d="M381 100.02C384.55 101.36 389.31 103.71 391.59 105.72L385.89 113.56C383.81 111.55 379.26 108.8 375.64 107.19L381 100.02ZM376.64 139.83C379.12 134.54 382.47 126.16 385.08 118.12L392.99 123.15C390.78 130.32 388.3 137.42 386.15 142.65C386.62 143.19 386.82 143.72 386.82 144.19C386.82 144.59 386.75 144.93 386.55 145.2L376.63 139.84L376.64 139.83ZM406.13 112.69L410.96 113.09C410.96 113.76 410.89 114.83 410.83 115.7C410.23 132.79 409.56 139.76 407.68 142.11C405.13 145.46 402.05 145.46 394.95 145.46C394.82 142.85 393.81 139.29 392.47 136.95C394.75 137.22 396.83 137.22 398.03 137.22C398.9 137.22 399.5 137.02 400.17 136.35C400.97 135.21 401.58 131.12 401.98 121.07H399.5L399.3 122.54L391.06 121.74C392.13 115.71 393.14 106.46 393.61 99.09H402.59V92.39H393.07V89.78L388.45 96.01C386.37 93.93 381.68 91.05 378.06 89.38L383.49 82.28C386.57 83.49 390.53 85.5 393.07 87.31V83.82H411.23V108.68H402.58V107.41H401.11C400.91 109.22 400.77 111.03 400.57 112.77H404.26L406.14 112.7L406.13 112.69ZM431.33 120.2C431.53 121.41 431.8 122.55 432.07 123.69C433.14 122.75 434.15 121.75 434.88 120.94L440.78 128.45C440.51 128.65 440.11 128.72 439.71 128.72C439.37 128.72 439.04 128.65 438.7 128.52C437.83 129.19 436.29 130.2 434.75 131.2C436.16 134.01 438.1 136.36 440.51 137.97C438.57 139.65 435.82 143.13 434.61 145.54C431.46 143.19 429.18 139.91 427.51 135.96L427.98 140.92C422.75 142.19 417.32 143.47 413.77 144.27C413.64 144.94 413.1 145.34 412.56 145.48L409.54 136.16C410.75 136.03 412.15 135.82 413.63 135.56V120.21H411.35V112.24H414.1V83.42H438.02V90.99H422.87V93.2H436.27V100.44H422.87V102.65H436.27V109.89H422.87V112.24H439.42V120.21H431.31L431.33 120.2ZM422.22 134.14L426.51 133.4C425.17 129.51 424.23 125.02 423.63 120.2H422.22V134.14Z" fill="white"/>
</svg>
