<svg width="1181" height="77" viewBox="0 0 1181 77" fill="none" xmlns="http://www.w3.org/2000/svg">
<g filter="url(#filter0_d_1_607)">
<path d="M13.9152 33.89C11.6952 31.85 6.68521 29.195 2.84521 27.71C4.39021 25.355 5.93522 23.015 7.42022 20.66C11.2002 21.89 16.2702 24.185 18.8052 26.105L13.9152 33.89ZM61.2252 43.73H50.3352C53.5452 47.63 57.8802 51.215 62.3352 53.435C60.2352 55.1 57.3852 58.445 55.9602 60.8C52.0002 58.085 48.2952 54.065 45.2652 49.49V62.105H36.4152V49.805C32.8902 54.44 28.4952 58.34 23.3652 60.875C22.0602 58.835 19.5252 55.685 17.7402 54.005C23.1852 51.845 28.0002 48.125 31.4652 43.745H21.3852V42.32C18.6702 48.875 15.6402 55.19 12.9702 60.005C13.3452 60.5 13.5252 60.935 13.5252 61.37C13.5252 61.745 13.4052 62.105 13.1502 62.42L4.30022 56.6C7.21022 51.785 11.3502 44.045 14.6352 36.56L21.3702 41.75V35.75H36.4002V29.81L45.8652 30.305C42.8952 29.315 42.2202 26.84 42.2202 21.95V14.465L52.1802 15.02C52.1202 15.635 51.6252 16.07 50.4552 16.25V21.875C50.4552 23.48 50.5752 23.6 51.5052 23.6H53.3652C54.1752 23.6 54.4152 23.165 54.5952 20.945C56.0802 22.055 59.4252 23.3 61.6452 23.735C60.7752 29.24 58.6752 30.785 54.3402 30.785H50.0052C48.8952 30.785 47.9052 30.725 47.0352 30.605C46.9152 31.16 46.4202 31.475 45.2352 31.715V35.735H61.1952V43.715L61.2252 43.73ZM10.4502 4.145C14.0952 5.63 19.0452 8.225 21.4602 10.385L15.9552 17.615C13.7952 15.395 9.02522 12.485 5.32022 10.685L10.4502 4.13V4.145ZM41.3052 15.395C41.2452 15.95 40.7502 16.385 39.7602 16.505C38.8302 23.87 36.9702 29.615 24.5502 32.705C23.8752 30.725 21.8952 27.695 20.2902 26.21C30.2502 24.23 31.2402 20.765 31.7352 14.585L41.3202 15.395H41.3052ZM29.8002 13.595V20.405H22.0752V6.06502H60.3552V20.405H52.2552V13.595H29.8002Z" fill="white"/>
<path d="M137.245 33.89V42.185H131.5V62.225H122.905V42.185H118.15C117.28 49.91 114.94 57.71 109.555 62.465C107.83 61.22 104.11 59.18 102.01 58.265C106.84 54.365 108.82 48.185 109.615 42.185H103.87V37.295H95.95C98.17 39.395 103.495 45.095 104.8 46.505L100.105 52.25C99.115 50.585 97.57 48.35 95.905 46.13V62.21H87.625V49.475C85.9 52.88 83.98 56.03 81.88 58.325C81.13 55.85 79.345 52.325 78.04 50.165C81.07 46.88 84.04 41.945 86.02 37.295H78.715V29.81H87.625V27.71H80.335V20.225H87.625V18.185H79.21V10.7H87.625V3.47L97.705 4.02502C97.645 4.64002 97.15 5.075 95.905 5.27V10.715H104.005V18.2H95.905V20.24H102.64V27.725H95.905V29.825H104.065V33.905H110.125V23.51H105.175V15.215H110.125V3.59L120.325 4.145C120.265 4.82 119.77 5.19501 118.525 5.45001V15.215H122.92V3.47L133.315 4.02502C133.255 4.70002 132.76 5.07501 131.515 5.33001V15.23H136.645V23.525H131.515V33.92H137.26L137.245 33.89ZM118.51 33.89H122.905V23.495H118.51V33.89Z" fill="white"/>
<path d="M181.03 12.245C181.84 14.105 182.635 16.205 183.385 18.305V3.58998L193.285 4.08498C193.225 4.75998 192.73 5.19498 191.485 5.38998V30.125C191.485 42.425 189.01 55.415 178 62.66C176.83 60.935 174.04 57.71 172.255 56.225C178.135 53.315 180.91 48.62 182.215 43.235C180.67 44.72 179.185 46.01 178.015 47.075C178.075 47.75 177.76 48.32 177.28 48.56L173.38 40.7L172.27 42.245C171.715 40.82 170.905 39.035 169.975 37.115V62.285H161.875V42.065C160.51 45.77 159.025 49.055 157.3 51.59C156.55 49.175 154.705 45.71 153.46 43.61C156.865 38.915 159.775 31.115 161.26 24.32H155.02V16.04H161.89V3.54498L171.79 4.09998C171.73 4.71498 171.235 5.08998 169.99 5.34498V16.04H174.94L174.505 14.87L181.06 12.275L181.03 12.245ZM175.09 38.285C175.33 38.285 181.765 33.89 183.37 32.78V26.84L178.54 28.82C178.105 25.67 176.74 21.095 175.33 17.135V24.305H169.945V26.345C171.55 28.445 175.765 34.505 176.755 35.93L175.09 38.285ZM213.865 15.83C213.55 16.385 212.815 16.58 211.945 16.505C210.64 20.03 208.18 24.98 206.38 28.13L202.36 26.03V31.04L203.845 29.735C207.055 33.2 211.51 38.015 213.55 41.12L207.67 46.625C206.56 44.645 204.52 41.93 202.345 39.26V50.33C202.345 53.36 202.405 53.735 203.215 53.735H204.88C205.75 53.735 205.99 52.13 206.11 46.745C208.03 48.17 211.12 49.655 213.535 50.21C212.665 58.43 210.625 61.715 205.675 61.715H201.475C195.595 61.715 193.93 59.18 193.93 50.27V3.57499L204.13 4.12998C204.07 4.80498 203.575 5.17997 202.33 5.43497V19.97C203.32 17.195 204.25 14.15 204.865 11.69L213.835 15.83H213.865Z" fill="white"/>
<path d="M231.88 5.69H285.625V62.345H276.85V60.305H240.295V62.345H231.88V5.69ZM240.295 52.265H276.85V41.255C276.535 41.57 275.92 41.69 275.245 41.57C274.135 42.245 272.455 43.235 270.85 44.165C272.71 44.915 274.69 45.53 276.67 45.965C275.185 47.27 273.145 49.865 272.155 51.53C268.315 50.36 264.73 48.38 261.64 45.965V51.155H253.78V46.265C250.87 47.81 247.78 49.175 244.75 50.225C243.82 48.8 241.72 46.205 240.415 44.915C244.93 43.61 249.685 41.63 253.465 39.155H245.545V29.015H271.15V37.175L276.835 41.135V13.745H240.28V52.28L240.295 52.265ZM275.23 22.82V27.65H241.84V22.82H254.455V21.335H244.75V16.64H254.455V14.165L264.355 14.72C264.295 15.335 263.8 15.71 262.555 15.965V16.64H272.32V21.335H262.555V22.82H275.23ZM263.35 35V33.08H252.895V35H263.35ZM263.785 39.14L263.17 39.695C263.845 40.31 264.655 40.865 265.465 41.36C266.455 40.685 267.565 39.935 268.555 39.14H263.8H263.785Z" fill="white"/>
<path d="M335.725 56.405H305.725V49.595L311.17 43.715C319.27 35.24 324.16 29.735 324.16 24.05C324.16 20.465 322 17.495 317.485 17.495C314.335 17.495 311.245 19.1 309.07 20.645L306.22 12.725C309.13 10.625 314.26 8.70502 319.645 8.70502C330.22 8.70502 334.99 15.2 334.99 23.045C334.99 30.89 329.545 37.7 323.8 43.385L319.84 47.165V47.285H335.74V56.375L335.725 56.405Z" fill="white"/>
<path d="M383.65 9.41V18.38H368.185L367.315 25.805C368.065 25.745 368.74 25.685 369.475 25.685C376.765 25.685 385.24 29.705 385.24 40.46C385.24 49.37 378.37 57.095 366.625 57.095C361.93 57.095 357.595 55.985 355.315 54.8L357.235 46.58C359.215 47.51 362.425 48.56 365.89 48.56C370.285 48.56 374.305 45.965 374.305 41.255C374.305 36.005 370.105 33.395 362.62 33.395C360.7 33.395 359.215 33.455 357.73 33.71L360.445 9.41H383.635H383.65Z" fill="white"/>
<path d="M462.01 40.94V49.655H441.475V62.27H432.205V49.655H404.62V40.94H414.205V26.465C413.155 27.77 412.045 29 410.92 30.05C409.255 28.31 405.85 25.295 403.69 23.81C409.015 19.235 413.89 11.075 416.425 3.27502L427.18 6.62002C426.94 7.17502 426.25 7.55001 425.32 7.43001C425.005 8.30001 424.645 9.09501 424.27 9.96501H458.29V18.68H441.475V24.92H456.88V33.275H441.475V40.94H462.01ZM432.205 18.68H419.71C418.405 20.9 416.995 23.015 415.45 24.92H432.205V18.68ZM423.235 40.94H432.205V33.275H423.235V40.94Z" fill="white"/>
<path d="M508.404 6.065H562.149V62.465H553.239V60.05H516.879V62.465H508.404V6.065ZM516.879 52.01H553.239V14.105H548.544C549.969 14.975 551.334 15.965 552.069 16.895L549.849 19.19H551.889V25.37H541.929C542.109 27.47 542.304 29.45 542.544 31.31C543.159 29.765 543.714 28.1 544.149 26.42L552.009 28.34C551.889 28.835 551.334 29.15 550.464 29.15C549.099 33.485 547.194 37.565 544.779 41.09C545.274 42.26 545.889 43.01 546.504 43.19H546.564C547.059 43.19 547.494 40.715 547.734 37.94C549.099 39.245 551.694 41.405 553.119 42.275C552.384 48.395 549.909 51.185 546.744 51.185C545.139 51.185 541.914 50.255 539.814 47.045C538.014 48.77 536.034 50.315 533.934 51.56C533.064 50.255 531.144 47.975 529.854 46.67C526.389 47.225 523.179 47.72 520.824 48.035C520.704 48.59 520.269 48.905 519.834 49.025L517.734 41.915C522.069 41.6 528.309 41.045 534.549 40.43L534.609 42.845C535.479 42.035 536.214 41.24 537.024 40.37C535.854 36.23 535.164 31.025 534.729 25.4H518.469V19.22H534.294C534.174 17.735 534.114 16.25 534.039 14.705L543.189 15.08C543.129 15.695 542.574 16.25 541.464 16.385C541.464 17.315 541.524 18.305 541.524 19.235H546.039C544.989 18.425 543.819 17.57 542.754 16.94L545.604 14.15H516.849V52.055L516.879 52.01ZM533.634 27.335V39.02H519.714V27.335H533.634ZM527.754 34.505V31.85H525.279V34.505H527.754Z" fill="white"/>
<path d="M620.726 27.275C621.401 29.375 622.271 31.415 623.261 33.395C625.916 31.535 628.646 29.375 630.566 27.515L638.351 34.625C638.036 34.865 637.541 35 636.926 35C636.671 35 636.431 35 636.191 34.94C634.091 36.425 630.686 38.525 627.656 40.19C631.061 44.27 635.321 47.555 640.646 49.655C638.606 51.455 635.891 55.04 634.526 57.515C623.396 52.13 617.141 42.185 613.196 29.135C611.771 30.065 610.226 30.995 608.561 31.85C616.226 37.295 619.196 44.225 619.196 50.03C619.196 57.89 613.811 62.465 607.196 62.465C605.711 62.465 604.106 62.405 602.501 62.345C602.381 60.05 601.826 56.84 600.461 54.305C596.006 56.66 591.371 58.76 587.171 60.245C586.121 58.025 584.201 54.8 582.416 52.82C591.011 50.78 601.151 46.085 607.271 41.315L606.716 40.64C601.526 43.85 594.596 47.135 589.091 49.055C588.101 47.075 586.241 44.045 584.636 42.32C590.141 41.09 597.011 38.615 601.706 36.005L600.836 35.39C596.936 36.935 592.796 38.18 588.716 39.155C587.846 37.43 585.806 34.085 584.576 32.48C590.516 31.37 596.696 29.63 601.886 27.29H594.656V19.745H626.696V27.29H620.756L620.726 27.275ZM593.081 17.195V23.93H584.306V9.08002H605.951V3.45502L617.081 4.07002C617.021 4.74502 616.526 5.18002 615.221 5.37502V9.08002H637.421V23.93H628.211V17.195H593.081ZM610.091 48.365C607.436 50.285 604.346 52.205 601.121 53.93C602.726 54.05 604.091 54.11 605.396 54.11C606.701 54.11 607.931 53.93 608.681 52.94C609.671 52.19 610.286 50.525 610.106 48.365H610.091Z" fill="white"/>
<path d="M672.371 23.945L677.321 25.31C677.261 25.805 677.066 26.36 676.826 26.735C676.151 34.775 674.846 41.765 672.926 47.51C678.551 51.47 685.976 52.28 694.391 52.34C698.786 52.34 710.966 52.34 716.216 52.085C714.851 54.125 713.366 58.265 712.811 60.875H694.136C684.176 60.875 675.956 59.765 669.401 55.31C667.676 58.28 665.561 60.755 663.161 62.615C661.796 60.89 658.331 57.725 656.426 56.615C659.141 54.695 661.316 52.22 663.041 49.07C660.746 45.92 658.781 41.96 657.161 37.01L664.151 34.595C664.826 36.695 665.636 38.495 666.506 40.1C667.121 37.625 667.616 34.91 667.991 31.94H665.516L664.901 33.365L656.801 31.325C659.216 26.075 661.931 19.82 664.091 14.51H657.041V6.70999H668.921L670.586 6.53L675.596 8.195C675.416 8.63 675.161 9.185 674.921 9.62C673.436 13.46 671.216 18.77 668.921 24.155H670.901L672.386 23.975L672.371 23.945ZM689.441 15.665V14.24H679.301V7.565H689.441V3.42499L699.956 3.98C699.896 4.655 699.401 5.09 698.156 5.285V7.57999H710.096V15.68H715.286V22.49H710.096V30.59H698.156V32.015H711.086V38.39H698.156V39.875H713.861V46.865H698.156V51.32H689.441V46.865H675.461V39.875H689.441V38.39H678.191V32.015H689.441V30.59H679.106V23.915H689.441V22.49H674.606V15.68H689.441V15.665ZM701.246 14.24H698.156V15.665H701.246V14.24ZM701.246 23.885V22.46H698.156V23.885H701.246Z" fill="white"/>
<path d="M790.075 48.125H771.895C776.965 50.54 784.075 52.325 791.185 53.075C789.265 54.935 786.73 58.46 785.5 60.74C778.39 59.255 771.4 56.345 766.015 52.265V62.225H757.3V52.145C751.855 56.165 744.805 59.255 737.695 60.86C736.465 58.7 733.99 55.355 732.19 53.555C738.925 52.565 745.795 50.645 750.745 48.11H733.3V41.18H757.3V38.465C756.55 37.655 755.635 36.8 754.825 36.05C748.15 37.22 741.655 38.27 737.02 38.9C736.96 39.455 736.525 39.77 736.03 39.89L733.435 32.165C735.97 31.985 739.12 31.73 742.585 31.43V25.985H735.28V19.925H757.855V25.985H750.685V30.68L757.915 29.93L757.975 31.595C759.895 29.87 760.135 27.95 760.135 25.85V19.67H775.465C774.91 18.305 773.74 16.325 772.555 14.6H769.525C768.295 16.145 766.93 17.63 765.565 18.8C763.705 17.495 760.375 15.89 758.14 14.9L758.515 14.585H752.02C752.77 15.755 753.385 16.94 753.745 17.87L746.575 19.91C746.14 18.485 745.09 16.385 743.98 14.585H743.545C742.12 16.385 740.575 18.11 739.03 19.475C737.365 18.05 734.275 16.01 732.295 14.96C735.88 12.11 739.345 7.23502 741.265 2.90002L750.535 5.93001C750.22 6.48501 749.545 6.66503 748.87 6.60503L748.315 7.65502H760.75V12.545C763.345 9.83001 765.64 6.23002 766.93 2.90002L776.395 5.67501C776.14 6.23001 775.525 6.48501 774.73 6.42501C774.55 6.86001 774.355 7.23501 774.115 7.67001H790.57V14.6H781.3C782.11 15.71 782.785 16.82 783.22 17.75L776.05 19.67H783.415V29.69C783.415 31.55 783.415 31.73 783.91 31.73C784.72 31.73 784.78 31.73 784.96 31.61C785.395 31.175 785.515 28.955 785.575 26.36C786.805 27.53 789.415 28.835 791.26 29.45C790.825 34.775 790.525 38.795 784.525 38.795H781.375C779.65 38.795 777.79 38.24 776.68 37.07C775.93 36.26 775.45 35.345 775.195 33.725L771.79 36.755C770.86 35.39 769.135 33.545 767.395 31.94C766.84 33.8 765.79 35.465 764.245 37.01L767.83 37.19C767.77 37.865 767.275 38.3 766.03 38.495V41.21H790.09V48.14L790.075 48.125ZM774.985 25.37H768.25C768.25 26.735 768.25 26.975 768.13 28.58L770.98 26.165C772.285 27.095 773.77 28.325 775 29.51V25.37H774.985Z" fill="white"/>
<path d="M850.571 42.305L857.621 45.275C857.306 45.83 856.571 46.025 855.701 45.95C854.471 48.11 852.416 50.78 850.691 53H863.306V60.665H810.986V53H822.056C821.006 50.345 819.206 46.88 817.421 44.225L821.996 42.305H814.271V34.64H831.956V29.69H821.321V26.84C818.531 28.82 815.636 30.68 812.606 32.285C811.436 30.185 808.961 26.84 807.101 25.115C817.676 19.985 827.636 10.58 832.091 3.155L843.836 3.82999C843.656 4.50499 843.026 5.135 842.036 5.195C847.976 13.175 858.296 20.525 867.461 24.125C865.241 26.42 863.201 29.51 861.521 32.225C858.551 30.68 855.521 28.76 852.551 26.66V29.69H841.541V34.64H859.406V42.305H850.556H850.571ZM831.956 42.305H825.461C827.441 45.155 829.481 48.545 830.291 51.02L825.776 53H831.956V42.305ZM846.371 21.89C842.531 18.68 839.201 15.215 836.906 12.05C834.611 15.26 831.401 18.665 827.696 21.89H846.371ZM842.666 51.515C844.466 49.04 846.626 45.395 847.991 42.305H841.556V53H845.756L842.666 51.515Z" fill="white"/>
<path d="M896.831 28.46H894.416C894.416 31.175 893.606 37.61 889.586 41.075C888.101 39.965 884.756 38.165 882.851 37.37C885.941 34.895 886.496 30.56 886.556 28.46H883.211V21.59H896.816V19.115H885.806V5.32999L894.836 5.825C894.776 6.44 894.341 6.815 893.231 6.995V12.38H896.816V3.53L906.716 4.08499C906.656 4.69999 906.161 5.07499 904.916 5.32999V39.215H896.816V28.46H896.831ZM940.991 50.225H922.316C926.396 53.075 932.831 54.125 942.416 54.125C940.556 56.045 938.396 59.75 937.406 62.345C924.236 61.415 917.246 58.445 912.611 51.275C909.341 56.78 902.591 60.365 887.066 62.345C886.451 60.05 884.471 56.66 882.926 54.74C892.571 53.87 898.196 52.445 901.541 50.225H884.231V42.92H906.131C906.446 41.12 906.626 39.08 906.746 36.74L917.696 37.61C917.576 38.285 916.946 38.72 915.896 38.915L915.341 42.935H925.481C923.681 42.32 921.896 41.765 920.291 41.33L922.826 37.925C922.391 36.005 921.521 33.845 920.786 32.24C922.331 32.3 924.491 32.3 925.121 32.3C925.751 32.3 925.991 32.12 925.991 31.49V28.64H917.021C918.566 30.245 920.051 32.045 920.861 33.53L914.486 37.115C913.676 35.255 911.516 32.48 909.536 30.5L912.821 28.64H906.326V22.58H909.596C908.786 21.035 907.616 19.31 906.686 18.125C909.401 17.885 912.071 17.57 914.546 17.075C913.616 16.325 912.566 15.59 911.576 14.975L915.971 13.175C917.201 13.85 918.686 14.84 919.871 15.77C920.486 15.65 921.041 15.455 921.596 15.215C920.486 14.345 919.001 13.415 917.696 12.74L920.171 11.495H918.011C915.656 12.545 913.061 13.475 910.091 14.345C909.161 12.86 907.121 10.64 905.636 9.70999C912.806 8.22499 917.876 6.125 920.726 3.53L928.451 5.01498C928.331 5.50998 927.836 5.825 927.026 5.825L926.216 6.49999H934.376L935.681 6.32L940.571 8.36C940.451 8.735 940.136 8.975 939.896 9.23C937.301 13.565 933.401 16.595 928.586 18.875L936.131 19.115C936.011 19.73 935.636 20.225 934.466 20.345V22.565H942.011V28.625H934.466V31.775C934.466 36.665 932.861 37.28 930.446 38.09C932.801 38.84 935.021 39.635 936.566 40.31L934.706 42.905H941.021V50.21L940.991 50.225ZM925.961 19.925C922.991 21.035 919.721 21.905 916.196 22.58H925.961V19.925ZM923.606 11.51C924.536 12.005 925.466 12.62 926.201 13.175C927.191 12.68 928.061 12.125 928.856 11.51H923.606Z" fill="white"/>
<path d="M960.911 49.79H1014.9V59H960.911V49.79ZM964.376 9.41H1011.69V18.62H964.376V9.41ZM968.831 29.135H1006.74V38.285H968.831V29.135Z" fill="white"/>
<path d="M1059.19 51.155C1059.19 53.69 1060 54.005 1065.31 54.005H1079.91C1084.36 54.005 1085.04 52.955 1085.59 46.145C1087.51 47.45 1091.16 48.68 1093.45 49.115C1092.22 59.195 1089.67 61.73 1080.34 61.73H1064.88C1053.87 61.73 1050.84 59.375 1050.84 51.275V38.465H1048.54C1048.54 43.715 1048.54 55.16 1039.57 62.525C1038.4 60.86 1035 57.455 1033.39 56.405C1040.26 50.96 1040.26 43.79 1040.26 38.465H1035.07V30.185H1064.08V22.52H1076.76V16.52L1081.27 16.7V14.285H1045.41V17.93H1061.92V26.15H1039.6V20.09H1036.63V5.98999H1090.56V20.09H1085.31V22.505H1091.68V30.485H1085.31V43.535C1085.31 49.16 1084.14 52.07 1073.49 52.07C1073.17 49.715 1072 46.325 1070.89 44.15C1072.81 44.27 1075.09 44.27 1075.78 44.27C1076.53 44.27 1076.77 44.015 1076.77 43.34V30.47H1064.34V34.055L1071.01 31.34C1073.11 34.19 1075.09 38.015 1075.96 40.67L1068.73 44.015C1068.06 41.42 1066.26 37.52 1064.34 34.55V38.45H1059.21V51.125L1059.19 51.155Z" fill="white"/>
<path d="M1143.49 51.455H1167.43V60.305H1110.65V51.455H1133.84V37.535H1116.65V28.685H1133.84V16.565H1113.62V7.715H1164.28V16.565H1143.5V28.685H1161.8V37.535H1143.5V51.455H1143.49Z" fill="white"/>
</g>
<defs>
<filter id="filter0_d_1_607" x="0.475214" y="0.530024" width="1180.36" height="75.5399" filterUnits="userSpaceOnUse" color-interpolation-filters="sRGB">
<feFlood flood-opacity="0" result="BackgroundImageFix"/>
<feColorMatrix in="SourceAlpha" type="matrix" values="0 0 0 0 0 0 0 0 0 0 0 0 0 0 0 0 0 0 127 0" result="hardAlpha"/>
<feOffset dx="5.52" dy="5.52"/>
<feGaussianBlur stdDeviation="3.945"/>
<feColorMatrix type="matrix" values="0 0 0 0 0.101961 0 0 0 0 0.12549 0 0 0 0 0.219608 0 0 0 0.34 0"/>
<feBlend mode="normal" in2="BackgroundImageFix" result="effect1_dropShadow_1_607"/>
<feBlend mode="normal" in="SourceGraphic" in2="effect1_dropShadow_1_607" result="shape"/>
</filter>
</defs>
</svg>
