<svg width="540" height="170" viewBox="0 0 540 170" fill="none" xmlns="http://www.w3.org/2000/svg">
<g filter="url(#filter0_d_3_1098)">
<path d="M184.63 27.65H173.41C170.51 32.08 166.84 35.97 162.49 39.33C170.05 41.62 178.68 43.15 188.07 43.91C185.63 46.51 182.5 51.55 180.97 54.68C178.83 54.37 176.69 54.07 174.63 53.69V74.46H163.18V72.4H140.66V74.69H129.82V54.07C126.77 54.83 123.64 55.52 120.5 56.05C119.51 53.23 117.22 48.64 115.31 46.2C124.09 44.98 132.72 42.92 140.28 40.02C138.6 38.72 137 37.42 135.39 35.97C133.02 37.34 130.43 38.64 127.6 39.94C126.15 37.34 122.71 33.37 120.35 31.62C123.79 30.48 126.76 29.1 129.44 27.65H119.06V9.33H145.78V2L159.52 2.76C159.44 3.6 158.83 4.13 157.23 4.36V9.33H184.64V27.65H184.63ZM129.88 19.33V27.42C134.23 24.98 137.52 22.23 140.04 19.33H129.88ZM140.65 63.39H163.17V59.5H140.65V63.39ZM161.34 50.49C157.75 49.35 154.32 47.97 151.03 46.44C148.05 47.97 144.92 49.27 141.64 50.49H161.34ZM144.01 29.87L143.7 30.1C145.84 31.86 148.28 33.38 151.03 34.83C153.47 33.3 155.69 31.62 157.67 29.87H144H144.01ZM173.25 24.45V19.33H154.92C154.69 20.17 153.93 20.63 152.71 20.63L151.87 21.7H165.46L167.22 21.24L173.25 24.45Z" fill="white"/>
<path d="M211.05 31.62V56.05C214.94 63.3 222.35 63.3 237.09 63.3C246.25 63.3 257.09 63 264.73 62.31C263.51 64.83 261.83 69.94 261.29 73.08C255.33 73.39 247.16 73.62 239.53 73.62C220.9 73.62 212.88 73.47 206.39 65.14C203.49 67.97 200.51 70.64 197.91 72.78C197.91 73.77 197.6 74.15 196.76 74.54L191.49 62.86C194.32 61.18 197.45 59.04 200.42 56.83V41.87H192.48V31.64H211.03L211.05 31.62ZM200.97 4.06003C205.17 7.42003 210.44 12.38 212.88 15.97L203.72 22.92C201.66 19.33 196.62 14.06 192.5 10.32L200.98 4.06003H200.97ZM231.74 62.17V57.82H212.96V49.96H231.74V48.05H217.46V25.13H231.74V23.37H215.71V15.89H231.74V11.92L244.72 12.61C244.64 13.45 244.03 13.98 242.51 14.21V15.89H259V23.37H242.51V25.13H257.25V48.04H242.51V49.95H262.44V57.81H242.51V62.16H231.74V62.17ZM223.34 11.32V14.37H213.64V3.53003H261.74V14.37H251.58V11.32H223.33H223.34ZM226.85 31.71V33.54H231.74V31.71H226.85ZM226.85 41.48H231.74V39.65H226.85V41.48ZM247.39 31.71H242.5V33.54H247.39V31.71ZM247.39 41.48V39.65H242.5V41.48H247.39Z" fill="white"/>
<path d="M271.21 4.75H337.56V74.69H326.72V72.17H281.59V74.69H271.21V4.75ZM281.59 62.25H326.72V48.66C326.34 49.04 325.57 49.2 324.73 49.04C323.36 49.88 321.29 51.1 319.31 52.25C321.6 53.17 324.04 53.93 326.49 54.46C324.66 56.06 322.14 59.27 320.92 61.33C316.19 59.88 311.76 57.44 307.94 54.46V60.87H298.24V54.84C294.65 56.75 290.83 58.43 287.09 59.73C285.94 57.97 283.35 54.77 281.75 53.16C287.32 51.56 293.2 49.11 297.86 46.06H288.09V33.54H319.7V43.62L326.72 48.51V14.67H281.59V62.24V62.25ZM324.73 25.9V31.86H283.5V25.9H299.08V24.07H287.09V18.27H299.08V15.22L311.3 15.91C311.22 16.67 310.61 17.13 309.09 17.44V18.28H321.15V24.08H309.09V25.91H324.74L324.73 25.9ZM310.07 40.94V38.57H297.17V40.94H310.07ZM310.6 46.06L309.84 46.75C310.68 47.51 311.67 48.2 312.67 48.81C313.89 47.97 315.27 47.05 316.49 46.06H310.61H310.6Z" fill="white"/>
<path d="M416.51 61.94V71.94H359.17V74.61H348.33V4.37H414.38V14.06H359.17V61.94H416.51ZM362.6 59.27V38.04H384.36V59.27H362.6ZM401.16 16.74V35.75H370.16V16.74H401.16ZM371.46 45.3V52.02H374.97V45.3H371.46ZM390.17 28.65V23.76H380.47V28.65H390.17ZM409.03 38.04V59.27H386.81V38.04H409.03ZM399.56 52.01V45.29H395.82V52.01H399.56Z" fill="white"/>
<path d="M62.93 125.83L69.73 128.27C69.5 128.96 69.2 129.19 68.81 129.65C67.13 136.06 64.38 141.64 60.72 146.22C64.38 148.36 68.51 149.96 73.24 151.03C70.95 153.02 68.05 157.06 66.67 159.66C61.71 158.21 57.36 156.07 53.54 153.4C50.26 156 46.59 158.13 42.47 159.81C41.32 157.44 38.96 153.85 36.97 151.72V159.74H26.36V153.55C18.8 154.39 11.55 155.23 6.43 155.69C6.28 156.45 5.67 156.83 5.06 156.91L2.08 146.52C3.91 146.44 6.05 146.37 8.42 146.21V124.37H2V115.67H72.48V124.37H36.97V151.09C40.25 149.95 43.31 148.34 45.98 146.36C43.46 143.31 41.4 139.87 39.64 136.05L45.44 134.45H38.34V126.13H61.17L62.93 125.82V125.83ZM62.32 89.64V113.77H12.16V89.64H62.32ZM26.36 124.38H18.5V126.21H26.36V124.38ZM18.5 133.7V135.76H26.36V133.7H18.5ZM18.5 145.69L26.36 145.16V143.25H18.5V145.69ZM51.18 98.43V96.6H22.77V98.43H51.17H51.18ZM51.18 106.83V104.92H22.77V106.83H51.17H51.18ZM48.97 134.47C49.96 136.38 51.26 138.14 52.71 139.81C54.01 138.13 55.08 136.37 56.07 134.47H48.97Z" fill="#FFFF00"/>
<path d="M143.71 139.88H141.27C144.93 144.84 148.52 151.1 149.9 155.61L140.36 160.11C139.98 158.66 139.37 156.9 138.6 155.07C126.92 155.91 115.24 156.67 107.37 157.06C107.14 157.82 106.45 158.21 105.77 158.28L102.64 146.44C107.22 146.44 113.18 146.29 119.74 146.14V139.88H106.91V116.97H119.74V111.55C115.08 111.78 110.81 111.93 107.29 112.08C107.14 112.84 106.45 113.3 105.76 113.3L103.01 102.76V119.25H92.47V117.04H88.88C88.73 119.1 88.57 121.16 88.35 123.23H95.3L97.51 123.08L103.16 123.69L102.93 126.67C102.09 145.3 101.17 153.09 98.96 155.84C96.06 159.51 92.62 159.81 83.31 159.66C83.16 156.61 81.94 152.41 80.26 149.66C83.24 149.89 86.14 149.97 87.59 149.97C88.74 149.97 89.5 149.82 90.26 148.98C91.41 147.76 92.02 143.18 92.55 132.72H87.43L87.05 135.7L77.51 134.25C78.58 127.15 79.57 116.23 79.95 107.45H92.47V99.89H78.42V89.66H103.01V101.88H109.5C112.25 97.45 114.92 91.72 116.52 87.22L129.35 90.81C129.04 91.5 128.21 91.8 126.98 91.88C125.45 94.93 123.24 98.6 121.02 101.88L133.01 101.73C132.02 100.36 130.95 98.98 129.96 97.76L139.12 93.48C143.47 98.44 148.36 105.09 150.34 110.05L140.41 114.71C140.03 113.49 139.34 112.11 138.58 110.66C134.15 110.89 129.65 111.04 125.37 111.27V111.35L132.55 111.73C132.47 112.57 131.86 113.03 130.34 113.33V116.99H143.7V139.9L143.71 139.88ZM116.45 130.79H119.73V126.13H116.45V130.79ZM133.71 126.13H130.35V130.79H133.71V126.13ZM130.35 145.91L133.71 145.83C133.02 144.84 132.41 143.77 131.73 142.85L138.22 139.87H130.36V145.9L130.35 145.91Z" fill="#FFFF00"/>
<path d="M178.14 135.14V135.83C180.51 137.13 186.92 141.4 188.6 142.63L182.42 150.49C181.35 149.27 179.75 147.67 178.14 146.06V159.73H167.37V147.97C164.93 151.02 162.33 153.7 159.73 155.76C158.05 153.39 154.84 149.8 152.55 147.97C157.36 144.99 162.32 140.11 165.68 135.14H154.76V125.9H167.36V121.47H153.92V112.46H160.56C160.1 110.02 159.26 107.34 158.35 105.13L163.16 103.68H155.45V94.7499H167.36V87.1899L180.34 87.8799C180.26 88.7199 179.65 89.2499 178.13 89.4799V94.7499H189.51V103.68H183.25L189.05 105.13C188.82 105.74 188.13 106.05 186.91 106.12C186.15 108.03 185 110.32 183.86 112.46H191.11V121.47H180.19C179.88 121.93 179.27 122.31 178.13 122.46V125.9H189.89V135.14H178.13H178.14ZM174.4 112.46C175.39 109.86 176.46 106.5 177.15 103.68H167.22C168.52 106.58 169.51 109.94 169.89 112.46H174.39H174.4ZM226.17 112.23V122.46H219.53V159.72H208.76V122.46H203.26C203.03 133.68 201.2 149.79 191.5 159.95C190.13 157.51 186.16 153.69 183.64 152.39C191.96 143.23 192.73 130.48 192.73 120.32V94.1299L197.92 95.5799C204.49 93.2899 211.21 90.1599 215.33 87.2599L225.56 95.1199C225.03 95.6599 224.11 95.6599 223.19 95.6599C218 98.4099 210.52 101.31 203.26 103.45V112.23H226.17Z" fill="#FFFF00"/>
<path d="M295.72 91.01L302.82 93.61C302.74 94.14 302.51 94.68 302.06 95.06C300 101.63 297.48 109.42 294.42 117.51C300.6 125.22 302.51 130.41 302.51 135.07C302.51 150.57 292.05 150.57 285.41 150.34C285.33 147.44 284.11 143.01 282.43 140.03V159.65H271.51V98.11C269.83 102.16 267.92 106.05 265.78 109.72H269.52V119.26H259.36C258.14 120.79 256.92 122.24 255.7 123.61H267.38V159.12H256.92V156.52H247.22V159.8H237.22V138.42C236.3 138.95 235.39 139.49 234.39 139.95C233.24 137.58 230.57 133.15 228.82 131.02C231.72 129.72 234.55 128.12 237.22 126.36V123.61H240.96C242.72 122.24 244.32 120.79 245.92 119.26H230.65V109.72H242.94V103.92H233.62V94.45H242.94V87.5L255.39 88.19C255.31 88.95 254.7 89.49 253.18 89.72V94.45H259.75V99.87C260.97 97.35 262.04 94.75 262.96 92.08L271.51 94.83V91.39H293.42L295.71 91.01H295.72ZM256.93 135.75V132.31H247.23V135.75H256.93ZM247.23 147.74H256.93V144H247.23V147.74ZM253.19 109.71H254.03C255.33 107.88 256.55 105.89 257.62 103.91H253.19V109.71ZM282.43 101.77V139.64C284.26 139.79 285.87 139.79 286.93 139.79C290.75 139.79 291.51 138.03 291.51 134.52C291.51 130.78 289.45 126.65 283.19 119.4C285.18 112.99 286.85 107.11 288.23 101.76H282.43V101.77Z" fill="#FFFF00"/>
<path d="M305.34 140.56C309.54 134.07 311.6 124.76 312.59 114.37L323.51 116.58C322.36 127.42 320.61 138.88 315.8 146.51L305.34 140.55V140.56ZM326.87 109.33L340.77 110.09C340.69 110.93 340.08 111.46 338.48 111.77V144.75C338.48 148.57 338.86 149.03 342.15 149.03H350.55C353.83 149.03 354.44 146.74 354.98 135.44C357.5 137.42 362.23 139.41 365.29 140.17C364.14 154.45 361.24 159.11 351.55 159.11H340.55C329.78 159.11 326.88 155.6 326.88 144.75V109.32L326.87 109.33ZM352.07 110.86C346.27 105.74 335.88 99.64 326.95 96.05L334.2 87.42C343.13 90.63 353.37 96.43 359.47 101.09L352.06 110.86H352.07ZM368.72 143.92C367.27 136.21 362.15 124.53 356.2 116.2L366.43 111.08C372.84 119.33 378.19 130.32 380.02 138.26L368.72 143.91V143.92Z" fill="#FFFF00"/>
<path d="M400.78 132.32L406.81 130.18L408.87 139.8C401.39 143.31 393.45 146.75 388.1 148.96C388.02 149.8 387.49 150.41 386.8 150.64L381.99 138.5C384.36 137.81 387.26 136.9 390.47 135.83V115.67H383.83V105.21H390.47V87.9501L402.99 88.6401C402.91 89.4801 402.3 89.9401 400.78 90.1701V105.21H407.27V115.67H400.78V132.32ZM422.92 143.47C422.92 148.13 423.45 148.66 427.96 148.66H440.79C444.76 148.66 445.52 147.13 446.21 139.8C448.58 141.4 452.85 143.16 455.83 143.77C454.53 154.77 451.32 158.51 441.86 158.51H426.89C415.51 158.51 412.38 155.3 412.38 143.47V125.6L407.26 127.81L403.14 117.96L412.38 114.07V94.9001L425.13 95.59C425.05 96.43 424.44 96.8901 422.92 97.1901V109.56L427.04 107.8V87.1801L439.64 87.8701C439.56 88.7101 438.95 89.1701 437.43 89.4001V103.37L442.85 101.08L445.06 99.6301L453.76 102.76C453.53 103.22 453.07 103.75 452.39 104.13C452.39 118.87 452.24 126.81 452.01 130.01C451.7 137.19 447.12 138.49 439.79 138.49C439.48 135.74 438.64 131.54 437.5 129.33C438.49 129.41 439.79 129.41 440.4 129.41C441.16 129.41 441.55 129.18 441.7 128.04C441.85 127.12 441.85 122.77 441.85 112.84L437.42 114.75V141.55H427.04V119.26L422.92 121.02V143.47Z" fill="#FFFF00"/>
<path d="M500.88 146.37H530.43V157.29H460.34V146.37H488.97V129.19H467.74V118.27H488.97V103.3H464V92.38H526.53V103.3H500.87V118.27H523.47V129.19H500.87V146.37H500.88Z" fill="#FFFF00"/>
</g>
<defs>
<filter id="filter0_d_3_1098" x="0.42" y="0.42" width="538.95" height="168.63" filterUnits="userSpaceOnUse" color-interpolation-filters="sRGB">
<feFlood flood-opacity="0" result="BackgroundImageFix"/>
<feColorMatrix in="SourceAlpha" type="matrix" values="0 0 0 0 0 0 0 0 0 0 0 0 0 0 0 0 0 0 127 0" result="hardAlpha"/>
<feOffset dx="3.68" dy="3.68"/>
<feGaussianBlur stdDeviation="2.63"/>
<feColorMatrix type="matrix" values="0 0 0 0 0.101961 0 0 0 0 0.12549 0 0 0 0 0.219608 0 0 0 0.34 0"/>
<feBlend mode="normal" in2="BackgroundImageFix" result="effect1_dropShadow_3_1098"/>
<feBlend mode="normal" in="SourceGraphic" in2="effect1_dropShadow_3_1098" result="shape"/>
</filter>
</defs>
</svg>
