<svg width="542" height="170" viewBox="0 0 542 170" fill="none" xmlns="http://www.w3.org/2000/svg">
<g filter="url(#filter0_d_3_904)">
<path d="M165.47 24.45C163.18 22.31 160.81 20.25 158.6 18.42L167.23 11.7C174.87 17.58 184.41 26.05 188.61 32.55L179.07 40.26C178.08 38.5 176.63 36.52 174.87 34.46C154.79 35.45 134.02 36.29 120.35 36.75C120.12 37.59 119.36 37.97 118.59 38.05L114.77 25.68L128.06 25.45C132.64 18.58 137.45 9.57001 140.28 2.01001L154.02 7.05001C153.64 7.81001 152.65 8.20001 151.35 8.20001C148.75 13.54 145.01 19.73 141.27 25.15L165.47 24.46V24.45ZM126.07 75.3V41.7H177.15V74.99H165.47V73H137.22V75.29H126.07V75.3ZM165.47 52.32H137.22V62.25H165.47V52.32Z" fill="white"/>
<path d="M197.15 23.68C200.97 25.44 206.08 28.34 208.6 30.63L202.19 39.11C199.98 36.82 194.94 33.46 191.12 31.4L197.15 23.69V23.68ZM198.75 3.83004C202.57 5.74004 207.61 8.87004 210.05 11.31L203.41 19.63C201.27 17.11 196.31 13.6 192.49 11.31L198.75 3.83004ZM193.02 68.96C195.85 62.93 199.66 53.38 202.64 44.22L211.42 49.87C208.98 58.04 206.08 66.13 203.63 72.09C204.16 72.62 204.47 73.24 204.47 73.85C204.47 74.23 204.32 74.61 204.16 75L193.01 68.97L193.02 68.96ZM256.93 30.1L261.21 28.73C262.66 31.78 264.11 35.75 264.72 38.35L259.15 40.26C258.77 38.27 257.93 35.37 256.94 32.78V41.94H250.07V34.23C249.23 36.9 248.08 39.73 246.63 41.64C245.79 40.88 244.34 39.81 243.12 38.97V41.49H228.31V37.06L223.42 38.43C223.19 36.67 222.66 34.08 222.05 31.79V41.95H215.33V34.85C214.41 37.22 213.27 39.58 211.89 41.34C210.74 40.27 208.61 38.74 207.23 37.9C208.83 35.69 210.06 32.1 210.74 28.74L215.32 30.04V27.52L211.04 27.75C210.89 28.36 210.35 28.67 209.82 28.74L207.83 21.33H212.33C212.94 20.57 213.63 19.8 214.32 19.04C212.72 17.36 210.65 15.53 208.75 14.15L212.11 8.81004L212.95 9.34004C214.25 7.13004 215.47 4.53004 216.23 2.54004L223.03 6.36004C222.72 6.82004 222.04 7.05004 221.2 6.97004C220.28 8.57004 218.91 10.79 217.46 12.77L218.45 13.69C219.6 12.09 220.66 10.48 221.5 9.11004L226.23 12.09V10.26H244.48V11.94L246.47 8.81004L247.31 9.34004C248.68 7.13004 249.98 4.53004 250.82 2.54004L257.62 6.36004C257.31 6.82004 256.63 7.05004 255.79 6.97004C254.8 8.57004 253.35 10.79 251.9 12.77L252.97 13.76C254.27 12.08 255.49 10.4 256.41 8.87004L263.05 13.07C262.67 13.6 261.9 13.68 261.14 13.6C259.31 15.81 256.79 18.72 254.19 21.31H257.47C257.24 20.55 256.94 19.78 256.63 19.1L261.75 17.04C263.12 19.94 264.42 23.91 264.8 26.43L259.38 28.72C259.3 28.19 259.23 27.57 259.07 26.96L256.93 27.11V30.09V30.1ZM252.88 59.04L255.02 58.73L261.2 60.41C261.05 61.17 260.82 61.94 260.44 62.55C258.46 74.54 255.78 75.3 244.25 75.3C242.34 75.3 240.13 75.3 237.84 75.22C237.76 72.78 236.62 69.49 235.17 67.28C238.22 67.59 241.51 67.66 243.65 67.66C247.7 67.66 248.31 67.66 249.22 65.67H222.65L222.12 67.58L212.19 66.36C213.56 62.16 215.01 56.2 215.93 51.24H245.86V49.71H213.49V43.53H256.1V57.43H224.72L224.34 59.03H252.9L252.88 59.04ZM243.11 36.06C244.03 33.92 244.71 31.25 245.17 28.73L250.06 30.1V27.5L246.01 27.73C245.86 28.34 245.32 28.65 244.79 28.72L243.03 22.08H228.29V17.27H243.1V21.32H246.69C247.38 20.63 248.06 19.87 248.75 19.03C247.45 17.73 246 16.36 244.47 15.21V15.74H226.22V13.83C224.54 15.97 222.17 18.72 219.65 21.31H222.55L221.86 19.1L226.36 17.5C227.2 19.49 227.81 21.85 228.27 23.91V23.6H243.08V28.41H228.27V27.04L223.84 28.64C223.84 28.11 223.76 27.57 223.69 26.96L222.01 27.11V30.01L226.51 28.87C227.2 31.01 227.88 33.6 228.27 35.59V29.94H243.08V36.05L243.11 36.06ZM242.5 3.84004V8.72004H229.06V3.83004H242.5V3.84004ZM236.62 36.9V34.53H234.48V36.9H236.62Z" fill="white"/>
<path d="M335.96 43.08H310.15C309.62 48.73 308.24 54 305.19 58.73C314.28 62.78 325.96 63.69 341.46 63.85C339.25 66.52 336.88 71.41 336.27 75.3C320.16 74.46 307.25 72.47 297.18 66.9C291.91 70.64 284.66 73.7 274.81 75.68C273.51 73.16 270.46 68.27 268.01 65.75C276.94 64.38 283.36 62.39 287.86 59.87C284.35 56.28 281.37 51.85 278.77 46.43L288.62 43.07H274.65V12.16H298.78V3.21997L312.68 3.90997C312.6 4.82997 311.92 5.35997 310.31 5.66997V12.16H335.97V43.08H335.96ZM285.49 22.77V32.47H298.78V22.77H285.49ZM289.15 43.08C291.14 46.74 293.35 49.8 295.87 52.32C297.47 49.57 298.24 46.44 298.54 43.08H289.15ZM324.5 22.77H310.3V32.47H324.5V22.77Z" fill="white"/>
<path d="M384.36 60.26H416.05V71.48H345.57V60.26H372.37V3.59998L386.8 4.35998C386.72 5.27998 386.04 5.80998 384.36 6.11998V24.68H410.63V35.9H384.36V60.26Z" fill="white"/>
<path d="M62.93 126.51L69.73 128.95C69.5 129.64 69.2 129.87 68.81 130.32C67.13 136.73 64.38 142.31 60.72 146.89C64.38 149.03 68.51 150.63 73.24 151.7C70.95 153.69 68.05 157.73 66.67 160.33C61.71 158.88 57.36 156.74 53.54 154.07C50.26 156.67 46.59 158.8 42.47 160.48C41.32 158.11 38.96 154.52 36.97 152.39V160.41H26.36V154.22C18.8 155.06 11.55 155.9 6.43 156.36C6.28 157.12 5.67 157.5 5.06 157.58L2.08 147.21C3.91 147.13 6.05 147.06 8.42 146.9V125.06H2V116.36H72.48V125.06H36.97V151.78C40.25 150.63 43.31 149.03 45.98 147.05C43.46 144 41.4 140.56 39.64 136.74L45.44 135.14H38.34V126.82H61.17L62.93 126.51ZM62.32 90.3201V114.45H12.16V90.3201H62.32ZM26.36 125.06H18.5V126.89H26.36V125.06ZM18.5 134.38V136.44H26.36V134.38H18.5ZM18.5 146.37L26.36 145.84V143.93H18.5V146.37ZM51.18 99.1101V97.2801H22.77V99.1101H51.17H51.18ZM51.18 107.51V105.6H22.77V107.51H51.17H51.18ZM48.97 135.15C49.96 137.06 51.26 138.81 52.71 140.5C54.01 138.82 55.08 137.06 56.07 135.15H48.97Z" fill="white"/>
<path d="M118.74 149.73H148.67V158.36H78.58V149.73H107.59V147.21H84.23V138.96H107.59V136.67H86.75V111.93H107.59V110.02H79.03V101.47H107.59V99.1C100.41 99.48 93.16 99.71 86.29 99.79C86.06 97.42 84.92 93.6 84 91.47C102.25 91.09 122.79 89.79 135.69 87.58L142.87 95.83C142.56 96.06 142.03 96.21 141.5 96.21C141.19 96.21 140.89 96.13 140.51 96.06C134.25 97.05 126.77 97.82 118.75 98.43V101.48H148.15V110.03H118.75V111.94H140.89V136.68H118.75V138.97H143.72V147.22H118.75V149.74L118.74 149.73ZM97.59 119.04V121.1H107.59V119.04H97.59ZM97.59 129.58H107.59V127.52H97.59V129.58ZM129.51 119.04H118.74V121.1H129.51V119.04ZM129.51 129.58V127.52H118.74V129.58H129.51Z" fill="white"/>
<path d="M154.93 111.09H225.02V118.8H154.93V111.09ZM195.25 148.81V150.64H225.03V158.58H154.94V150.64H184.49V148.81H162.12V141.94H184.49V140.34H164.1V120.49H215.64V140.34H195.25V141.94H217.85V148.81H195.25ZM214.42 90.17V109.26H165.48V90.17H214.42ZM174.49 126.06V127.82H184.49V126.06H174.49ZM174.49 134.76H184.49V133H174.49V134.76ZM203.2 97.19V95.51H176.17V97.19H203.2ZM203.2 103.91V102.23H176.17V103.91H203.2ZM204.73 127.81V126.05H195.26V127.81H204.73ZM204.73 134.76V133H195.26V134.76H204.73Z" fill="white"/>
<path d="M296.33 111.62L302.97 114.45C302.82 114.98 302.36 115.59 301.9 115.98C299.76 127.2 296.1 136.75 291.13 144.46C294.57 147.44 298.61 149.8 303.5 151.56C301.29 153.55 298.23 157.74 296.78 160.57C291.97 158.51 287.92 155.84 284.56 152.63C281.58 155.61 278.38 158.13 274.86 160.11C273.49 157.82 269.97 153.93 267.68 152.17C266.38 155.22 264.85 157.97 263.02 160.42C261.34 158.66 257.29 155.38 254.85 153.93C256.22 152.17 257.45 150.19 258.44 147.9L253.55 149.73C253.02 146.98 251.87 143.09 250.72 139.5V160.42H241.1V136.75H240.87C240.26 142.93 238.88 150.27 236.82 154.92C234.83 153.62 231.32 152.09 229.11 151.18C230.87 146.98 231.86 139.8 232.32 133.47L241.1 135.46V130.42C238.12 130.57 235.37 130.8 233.08 130.88C232.85 131.72 232.16 132.02 231.55 132.1L229.56 121.26H235.06C236.05 119.96 237.04 118.66 238.04 117.29C235.9 113.93 232.54 110.11 229.56 107.21L234.75 99.57L236.05 100.71C238.04 96.59 239.94 91.78 241.17 87.96L251.78 92.24C251.47 92.77 250.63 93.08 249.49 93.08C247.73 97.2 244.68 102.78 242.08 106.9C242.61 107.51 243.15 108.2 243.61 108.81C246.13 104.84 248.34 100.79 250.02 97.2L259.03 101.25V92.09H284.84L287.13 91.94L292.32 92.86C292.24 93.47 292.09 94.23 291.94 94.84C291.25 99.42 290.11 105.61 288.89 111.94H294.54L296.3 111.63L296.33 111.62ZM250.36 121.01C249.75 119.48 249.06 117.96 248.38 116.51C247.16 118.11 245.94 119.64 244.79 121.09L250.36 121.01ZM250.74 135.75L257.76 133.46C258.75 136.06 259.82 139.03 260.74 141.86C263.79 131.32 264.56 117.43 264.63 102.23H259.74C259.28 102.54 258.67 102.69 257.83 102.69C255.54 106.51 252.41 111.09 249.13 115.52L255.93 112.69C258.76 117.88 261.66 124.68 262.5 129.26L254.02 133C253.87 131.93 253.64 130.79 253.26 129.49L250.74 129.72V135.75ZM277.77 144.53C275.78 141.32 274.03 137.81 272.58 133.99C271.51 140.63 269.98 146.66 267.85 151.78C271.52 149.87 274.87 147.43 277.78 144.53H277.77ZM274.87 102.23C274.79 104.14 274.79 106.05 274.72 107.96C275.33 112.24 276.17 116.28 277.24 120.02C278.39 114.29 279.61 107.8 280.6 102.23H274.87ZM278.08 122.92C279.61 127.88 281.59 132.39 284.19 136.36C286.71 132.16 288.77 127.27 290.22 121.78H286.94L286.48 123.92L278.08 122.93V122.92Z" fill="white"/>
<path d="M340.54 118.57H320.84V160.41H310V90.63H340.54V118.58V118.57ZM330.16 98.41H320.84V100.93H330.16V98.41ZM320.84 110.78H330.16V107.95H320.84V110.78ZM361.92 143.92H354.51V159.11H344.81V143.92H339.24C338.17 148.81 335.5 155.76 329.85 159.57C328.4 157.66 325.04 154.61 322.9 153.16C326.64 150.64 328.7 147.05 329.7 143.92H323.36V134.99H330.38V130.64H324.35V122.01H360.85V130.64H354.51V134.99H361.92V143.92ZM339.78 134.99H344.82V130.64H339.78V134.99ZM375.59 90.63V147.97C375.59 157.13 372.92 160.26 358.64 160.11C358.33 157.13 356.88 152.02 355.43 149.19C357.19 149.34 359.17 149.34 360.77 149.34C364.28 149.34 364.66 149.34 364.66 147.81V118.79H344.5V90.62H375.58L375.59 90.63ZM364.67 98.42H355.05V100.94H364.67V98.42ZM355.05 111.02H364.67V107.97H355.05V111.02Z" fill="white"/>
<path d="M444.76 94.98C444.45 95.29 443.92 95.44 443.31 95.44C443 95.44 442.7 95.44 442.39 95.36C440.79 96.73 438.27 98.64 435.98 100.25C436.9 101.24 437.81 102.16 438.88 103.08C441.4 101.02 444.38 98.19 446.21 95.98L454.99 102.62C454.76 102.93 454.15 103.08 453.54 103.08C453.23 103.08 452.93 103.08 452.62 103C451.02 104.37 448.34 106.44 445.9 108.04C449.03 109.8 452.39 111.17 456.06 112.24C453.77 114.23 450.87 118.27 449.42 120.87C447.13 120.03 444.92 119.11 442.85 118.04V121.93C442.85 123.69 442.85 123.91 443.54 123.91C444.61 123.91 444.76 123.91 444.91 123.83C445.6 123.6 445.75 122 445.83 119.86C447.43 121.31 450.95 122.99 453.47 123.83C452.78 128.03 452.25 131.69 445.15 131.69H441.18C433.62 131.69 433.62 125.58 433.62 121.92V118.87H428.35C427.89 123.91 425.98 129.25 420.56 133H440.72L442.32 132.77L448.28 134.68C448.13 135.21 447.9 135.44 447.59 135.83C445.91 141.02 443.39 145.3 440.11 148.81C443.7 150.11 447.82 151.02 452.4 151.56C450.19 153.7 447.44 157.74 446.06 160.42C440.56 159.35 435.75 157.59 431.71 155.15C427.51 157.44 422.7 159.12 417.28 160.34C416.36 157.97 414.3 154.38 412.62 152.4C416.9 151.71 420.71 150.64 424.15 149.19C422.01 146.98 420.26 144.53 418.73 141.78L424.46 140.25H416.67V133H419.88C418.58 131.32 415.83 128.42 414 127.04V132.84H404.3V131.31H398.73L398.12 135.43H406.52L408.73 135.28L414.3 136.04C414.3 136.88 414.15 137.87 413.99 138.79C412.62 159.86 411.09 160.48 393.76 160.17C393.53 157.27 392.31 153.45 390.63 150.93C394.07 151.24 397.58 151.31 399.18 151.31C402.23 151.31 403 150.85 403.76 143.29H396.74L396.36 145.27L387.58 143.9C388.8 138.4 390.18 130 390.94 123.28H404.3V119H395.44C393.3 120.22 391.01 121.37 388.72 122.36C387.35 119.92 384.6 116.18 382.46 114.19C386.35 112.82 390.02 110.91 393.38 108.62C391.47 107.32 389.03 105.95 387.12 104.88L393.23 99.15H388.88V90.6H409.27L411.03 90.22L418.21 93.43C417.98 94.04 417.52 94.35 417.06 94.73C414.69 100.91 411.03 106.26 406.45 110.76H414.01V126.18C418.97 122.97 419.58 119.16 419.58 115.64V110.6H432.48C426.75 105.18 422.4 98.38 419.19 90.29L428.05 87.85C428.89 89.84 429.81 91.74 430.95 93.58C432.86 91.82 434.69 89.92 435.99 88.31L444.77 94.95L444.76 94.98ZM393.45 99.18C395.59 100.1 398.18 101.39 400.25 102.69C401.32 101.55 402.23 100.4 403.08 99.18H393.46H393.45ZM427.5 140.26C428.65 141.79 430.1 143.16 431.7 144.38C433.07 143.16 434.3 141.78 435.29 140.26H427.5Z" fill="white"/>
<path d="M530.42 144.08H509.65C516.06 146.98 524.46 149.2 532.71 150.26C530.34 152.55 527.21 156.83 525.69 159.65C516.68 157.59 507.67 153.69 500.65 148.58V160.34H489.5V149.04C482.7 154 473.92 157.74 464.99 159.81C463.54 157.21 460.48 153.01 458.19 150.88C466.59 149.66 475.06 147.22 481.33 144.08H460.33V135.07H489.5V131.25C483.62 132.47 476.37 133.39 467.28 134.08C466.82 131.48 465.07 127.82 463.62 125.6C472.78 125.14 479.81 124.45 485.23 123.61L482.86 123L482.33 123.61L471.79 120.86C473.39 119.03 475.15 116.89 477.06 114.6H461.1V106.05H483.62L486.75 101.7H473.77V104.91H463.54V92.69H489.73V87.8L503.17 88.49C503.09 89.41 502.41 89.86 500.88 90.17V92.69H527.6V104.91H516.91V101.7H491.41L499.27 103.99C498.96 104.75 498.2 105.06 496.75 104.98L495.99 106.05H529.51V114.6H516.53C516.38 114.68 516.15 114.68 515.92 114.75C514.47 117.27 512.87 119.64 510.8 121.62C516.6 123.3 521.95 124.98 525.92 126.51L519.35 134.15C514.92 132.24 508.35 130.03 501.18 127.89C498.74 128.88 495.99 129.8 492.7 130.56L503.01 131.09C502.93 132.01 502.25 132.46 500.64 132.77V135.06H530.42V144.07V144.08ZM489.57 114.61L488.27 116.21C491.86 116.9 495.75 117.81 499.65 118.73C501.33 117.51 502.55 116.13 503.54 114.61H489.57Z" fill="white"/>
</g>
<defs>
<filter id="filter0_d_3_904" x="0.42" y="0.43001" width="541.23" height="169.08" filterUnits="userSpaceOnUse" color-interpolation-filters="sRGB">
<feFlood flood-opacity="0" result="BackgroundImageFix"/>
<feColorMatrix in="SourceAlpha" type="matrix" values="0 0 0 0 0 0 0 0 0 0 0 0 0 0 0 0 0 0 127 0" result="hardAlpha"/>
<feOffset dx="3.68" dy="3.68"/>
<feGaussianBlur stdDeviation="2.63"/>
<feColorMatrix type="matrix" values="0 0 0 0 0.101961 0 0 0 0 0.12549 0 0 0 0 0.219608 0 0 0 0.34 0"/>
<feBlend mode="normal" in2="BackgroundImageFix" result="effect1_dropShadow_3_904"/>
<feBlend mode="normal" in="SourceGraphic" in2="effect1_dropShadow_3_904" result="shape"/>
</filter>
</defs>
</svg>
