<svg width="483" height="62" viewBox="0 0 483 62" fill="none" xmlns="http://www.w3.org/2000/svg">
<g filter="url(#filter0_d_75_3040)">
<path d="M41.9998 20.2501C40.2498 18.6201 38.4398 17.0401 36.7498 15.6401L43.3398 10.5101C49.1698 15.0001 56.4598 21.4801 59.6698 26.4401L52.3798 32.3301C51.6198 30.9901 50.5098 29.4701 49.1698 27.9001C33.8298 28.6601 17.9598 29.3001 7.51977 29.6501C7.33977 30.2901 6.75977 30.5801 6.17977 30.6401L3.25977 21.1901L13.4098 21.0201C16.9098 15.7701 20.5898 8.89011 22.7398 3.11011L33.2398 6.96014C32.9498 7.54014 32.1898 7.84015 31.1998 7.84015C29.2198 11.9201 26.3598 16.6501 23.4998 20.7901L41.9898 20.2701L41.9998 20.2501ZM11.8998 59.1001V33.4301H50.9298V58.8601H42.0098V57.3401H20.4198V59.0901H11.8998V59.1001ZM41.9998 41.5401H20.4198V49.1201H41.9998V41.5401Z" fill="white"/>
<path d="M66.2096 19.67C69.1296 21.01 73.0296 23.23 74.9596 24.98L70.0596 31.4601C68.3696 29.7101 64.5196 27.1401 61.5996 25.5701L66.2096 19.6801V19.67ZM67.4296 4.50006C70.3496 5.96006 74.1996 8.35003 76.0596 10.22L70.9796 16.5801C69.3496 14.6601 65.5496 11.97 62.6396 10.22L67.4196 4.50006H67.4296ZM63.0496 54.2601C65.2096 49.6501 68.1296 42.36 70.3996 35.36L77.1096 39.6801C75.2396 45.9201 73.0296 52.11 71.1596 56.66C71.5696 57.07 71.7996 57.5401 71.7996 58.0001C71.7996 58.2901 71.6796 58.5801 71.5696 58.8801L63.0496 54.2701V54.2601ZM111.88 24.5701L115.15 23.5201C116.26 25.8501 117.37 28.8901 117.83 30.8701L113.57 32.3301C113.28 30.8101 112.64 28.6 111.88 26.61V33.61H106.63V27.72C105.99 29.76 105.11 31.9201 104.01 33.3801C103.37 32.8001 102.26 31.9801 101.33 31.3401V33.2601H90.0096V29.8801L86.2796 30.9301C86.0996 29.5901 85.6996 27.6 85.2296 25.85V33.61H80.0996V28.1901C79.3996 30.0001 78.5196 31.8101 77.4796 33.1501C76.5996 32.3301 74.9696 31.17 73.9196 30.53C75.1496 28.84 76.0796 26.1 76.5996 23.53L80.0996 24.5201V22.6L76.8296 22.7701C76.7096 23.2401 76.3096 23.47 75.8996 23.53L74.3796 17.8701H77.8196C78.2896 17.2901 78.8096 16.7001 79.3396 16.1201C78.1096 14.8401 76.5396 13.4401 75.0796 12.3901L77.6496 8.31006L78.2896 8.72003C79.2796 7.03003 80.2096 5.05003 80.7996 3.53003L85.9896 6.45007C85.7596 6.80007 85.2296 6.97004 84.5896 6.92004C83.8896 8.15004 82.8396 9.84004 81.7296 11.35L82.4896 12.05C83.3696 10.83 84.1796 9.60005 84.8196 8.55005L88.4396 10.8301V9.43005H102.38V10.7101L103.9 8.32007L104.54 8.73004C105.59 7.04004 106.58 5.06004 107.22 3.54004L112.41 6.46008C112.18 6.81008 111.65 6.98005 111.01 6.93005C110.25 8.16005 109.14 9.85005 108.03 11.36L108.85 12.1201C109.84 10.8401 110.78 9.55008 111.47 8.39008L116.55 11.6C116.26 12.01 115.67 12.0701 115.09 12.0101C113.69 13.7001 111.77 15.9201 109.78 17.9001H112.29C112.11 17.3201 111.88 16.7301 111.65 16.2101L115.56 14.6301C116.61 16.8501 117.6 19.8801 117.89 21.8101L113.75 23.5601C113.69 23.1501 113.63 22.68 113.52 22.22L111.89 22.3401V24.6201L111.88 24.5701ZM108.79 46.6801L110.42 46.4501L115.15 47.73C115.03 48.31 114.86 48.9 114.57 49.36C113.05 58.52 111.01 59.1 102.2 59.1C100.74 59.1 99.0496 59.1 97.2996 59.04C97.2396 57.17 96.3696 54.66 95.2596 52.97C97.5896 53.2 100.1 53.2601 101.74 53.2601C104.83 53.2601 105.3 53.2601 106 51.7401H85.6996L85.2896 53.2001L77.7096 52.2701C78.7596 49.0601 79.8696 44.51 80.5696 40.72H103.44V39.55H78.7096V34.8201H111.26V45.4401H87.2796L86.9896 46.66H108.81L108.79 46.6801ZM101.32 29.1201C102.02 27.4901 102.55 25.4501 102.89 23.5201L106.62 24.5701V22.5901L103.53 22.7601C103.41 23.2301 103 23.4601 102.6 23.5201L101.26 18.4401H89.9996V14.7701H101.32V17.86H104.06C104.58 17.33 105.11 16.75 105.63 16.11C104.64 15.12 103.53 14.0701 102.36 13.1901V13.6H88.4196V12.1401C87.1396 13.7701 85.3296 15.87 83.3996 17.86H85.6196L85.0896 16.17L88.5296 14.9501C89.1696 16.4701 89.6396 18.28 89.9896 19.85V19.6201H101.31V23.29H89.9896V22.2401L86.6096 23.4601C86.6096 23.0501 86.5496 22.6401 86.4896 22.1801L85.2096 22.3V24.5201L88.6496 23.6401C89.1696 25.2701 89.6996 27.2601 89.9896 28.7701V24.4501H101.31V29.1201H101.32ZM100.85 4.50006V8.23004H90.5796V4.50006H100.85ZM96.3596 29.7601V27.9501H94.7296V29.7601H96.3596Z" fill="white"/>
<path d="M167.82 33.2001L173.01 35.0701C172.84 35.6001 172.6 35.7701 172.31 36.1201C171.03 41.0201 168.93 45.28 166.13 48.78C168.93 50.41 172.08 51.6401 175.7 52.4501C173.95 53.9701 171.73 57.06 170.68 59.04C166.89 57.93 163.56 56.3001 160.65 54.2601C158.14 56.2401 155.34 57.88 152.19 59.16C151.31 57.35 149.51 54.61 147.99 52.98V59.1H139.88V54.3701C134.1 55.0101 128.56 55.6501 124.65 56.0001C124.53 56.5801 124.07 56.8801 123.6 56.9301L121.33 49.0001C122.73 48.9401 124.36 48.8801 126.17 48.7701V32.0901H121.27V25.4401H175.11V32.0901H147.98V52.5101C150.49 51.6301 152.82 50.4101 154.86 48.8901C152.94 46.5601 151.36 43.9301 150.02 41.0101L154.45 39.79H149.02V33.4301H166.46L167.8 33.2001H167.82ZM167.35 5.55005V23.98H129.02V5.55005H167.35ZM139.87 32.0901H133.86V33.4901H139.87V32.0901ZM133.86 39.2101V40.79H139.87V39.2101H133.86ZM133.86 48.3701L139.87 47.9601V46.5001H133.86V48.3701ZM158.83 12.2601V10.86H137.13V12.2601H158.83ZM158.83 18.6801V17.22H137.13V18.6801H158.83ZM157.14 39.8C157.9 41.26 158.89 42.6001 160 43.8801C160.99 42.6001 161.81 41.26 162.57 39.8H157.15H157.14Z" fill="white"/>
<path d="M232.689 27.6002H212.559C215.939 38.7402 222.359 47.1402 234.139 50.8802C232.099 52.7502 229.299 56.6002 228.009 59.1102C217.219 54.9702 210.919 47.7902 206.719 37.7602C203.399 46.3902 197.149 53.9202 185.369 59.1102C184.139 56.7202 181.579 53.5702 179.189 51.6402C192.839 46.1602 198.149 37.7002 200.189 27.6102H180.409V18.8002H201.239C201.529 13.9602 201.469 8.88019 201.529 3.69019L212.609 4.3902C212.489 5.0902 211.909 5.56016 210.799 5.73016C210.739 10.0502 210.629 14.4802 210.389 18.8002H232.669V27.6102L232.689 27.6002Z" fill="white"/>
<path d="M290.84 7.24017H303.15V14.5302H290.84V16.1602H298.31V29.2302H256.43V16.1602H263.08V14.5302H250.89V7.24017H263.08V3.68018L273.23 4.21021C273.17 4.85021 272.65 5.26017 271.48 5.49017V7.24017H282.39V3.68018L292.6 4.21021C292.54 4.91021 292.07 5.26017 290.85 5.49017V7.24017H290.84ZM251.29 41.7202V30.9302H302.74V41.7202H294.4V37.2302H277.89C277.6 37.5202 277.13 37.7002 276.55 37.7002L275.5 38.9302H286.7L288.04 38.6402L293.76 41.3202C293.58 41.7302 293.24 41.9002 292.88 42.1402C286.99 52.1702 274.5 57.0202 260.1 59.2302C259.34 57.2502 257.65 54.1002 256.31 52.3502C260.63 51.9402 264.83 51.1802 268.62 50.1302C267.63 49.4902 266.58 48.9002 265.59 48.5002L270.61 44.4702H269.15C266.23 46.5102 262.79 48.4402 258.53 50.1302C257.48 48.3202 255.15 45.5202 253.57 44.3002C259.58 42.4302 264.01 39.9802 266.99 37.2402H259.23V41.7302H251.3L251.29 41.7202ZM267.97 23.9302V21.4202H263.89V23.9302H267.97ZM271.06 44.4602C272.81 45.1602 274.73 46.2102 276.25 47.2602C277.94 46.4402 279.46 45.5102 280.8 44.4602H271.06ZM282.38 16.1702V14.5402H271.47V16.1702H282.38ZM279.17 23.9302V21.4202H274.97V23.9302H279.17ZM290.43 23.9302V21.4202H286.17V23.9302H290.43Z" fill="white"/>
<path d="M317.789 39.4402V30.2802C316.219 32.7902 314.469 35.0003 312.659 36.7003C311.429 34.8903 308.929 32.2102 307.229 30.8102C310.849 28.1302 314.289 23.5202 316.559 18.9102H308.74V11.7902H317.779V3.74023L327.52 4.26025C327.46 4.90025 326.989 5.25023 325.829 5.49023V11.7902H333.409V18.9102H325.829V20.4302C328.099 21.7702 333.469 25.4502 334.869 26.5002L330.439 33.2703C329.269 31.9303 327.579 30.2402 325.829 28.6002V39.4503H317.779L317.789 39.4402ZM322.569 44.3403C320.939 49.0603 318.6 54.0803 314.99 57.4603L307.869 52.5002C311.019 49.8202 313.639 45.6202 315.039 41.3602L322.569 44.3303V44.3403ZM331.839 49.3602C331.839 51.0502 332.249 51.2302 334.639 51.2302H340.589C342.459 51.2302 342.809 50.7002 343.099 47.0302C344.729 48.2502 348.289 49.4803 350.569 49.9503C349.579 56.9503 347.359 58.7003 341.409 58.7003H333.479C325.249 58.7003 323.449 56.3702 323.449 49.4802V42.5402L331.21 42.9503L329.049 41.3203L334.589 36.9402L335.639 37.6403V6.55023H360.079V38.6902H337.149C339.659 40.5602 342.229 42.7703 343.569 44.5803L337.619 49.3602C336.569 47.8402 334.699 45.9202 332.599 44.1102L331.839 44.2802V49.3602ZM343.329 13.1302V15.3502H351.96V13.1302H343.329ZM343.329 21.4702V23.7502H351.96V21.4702H343.329ZM343.329 29.8102V32.1403H351.96V29.8102H343.329ZM356.219 57.9902C354.699 54.2002 350.39 48.7102 346.24 44.8102L353.119 40.6702C357.259 44.3402 361.87 49.4203 363.74 53.4503L356.21 58.0002L356.219 57.9902Z" fill="white"/>
<path d="M421.389 48.8901H414.269C417.009 50.9301 420.219 53.3801 421.969 55.1901L415.729 59.1001C413.799 56.9401 409.599 53.3801 406.449 50.9901L410.009 48.8901H401.609L405.229 50.9901C405.059 51.2201 404.709 51.4001 404.299 51.4601C402.259 53.9701 397.649 57.4101 393.739 59.1001C392.509 57.7601 390.299 55.7201 388.609 54.4301C387.329 59.1501 382.779 59.1501 377.989 59.1501C377.869 56.8801 377.109 53.7301 376.009 51.6801C377.469 51.8601 378.749 51.8601 379.569 51.8601C380.269 51.8601 380.739 51.6801 381.199 50.9301C381.839 49.8201 382.079 45.3301 382.249 32.9601H379.099C378.279 42.8201 376.419 52.1501 371.519 59.0401C370.179 57.0001 367.669 54.4301 365.569 53.0901C371.229 45.1601 371.579 33.0801 371.749 20.0701H366.499V12.2501H374.839V3.7301L384.639 4.25012C384.579 4.89012 384.119 5.2401 382.949 5.4801V12.2501H390.419V13.6501C392.459 10.7901 394.039 7.17012 394.849 3.62012L403.309 5.78009C403.129 6.25009 402.669 6.5401 401.849 6.4801C401.559 7.4101 401.209 8.41015 400.859 9.34015H421.389V16.1101H397.409L396.889 16.9301L404.469 17.3401C404.409 17.9201 403.949 18.2701 402.839 18.5101V21.2501H408.669V16.8201L418.119 17.3501C418.059 17.9301 417.599 18.3401 416.429 18.5201V21.2601H420.629V27.8501H416.429V42.3201H421.389V48.9101V48.8901ZM385.809 25.3201L389.949 25.4401C389.949 26.0801 389.949 27.0201 389.889 27.8901C389.709 43.1201 389.539 50.6401 388.659 54.1401C391.519 52.9201 394.549 50.8701 396.709 48.8901H390.349V42.3001H395.189V27.8301H391.159V21.2401H395.189V19.0801C394.719 19.6601 394.199 20.1901 393.669 20.6601C392.909 19.9001 391.629 18.9701 390.399 18.0901V20.0701H379.669L379.489 25.3201H385.789H385.809ZM408.679 27.8301H402.849V29.1701H408.679V27.8301ZM408.679 35.7101V34.3101H402.849V35.7101H408.679ZM402.849 40.8401V42.3001H408.679V40.8401H402.849Z" fill="white"/>
<path d="M446.76 32.9101L444.66 33.2001V52.2801C444.66 57.5901 442.91 59.1601 436.03 59.1601C435.86 57.4101 435.04 54.6101 434.16 52.9201C435.04 52.9801 435.97 53.0401 436.67 53.0401C438.36 53.0401 438.54 53.0401 438.54 52.1601V34.0801L433 34.8401C432.88 42.7201 432.12 52.7501 428.8 59.2201C427.69 58.2301 425.01 56.6001 423.55 56.0101C426.35 50.3501 426.93 42.4201 427.05 35.5901L426.35 35.7101C426.23 36.2401 425.71 36.5301 425.24 36.5901L423.78 29.5901L427.05 29.3001V11.4501H431.89C432.3 8.94013 432.65 5.91013 432.77 3.63013L441.46 5.15015C441.28 5.62015 440.76 5.91009 439.88 5.97009C439.41 7.55009 438.77 9.59013 438.13 11.4501H444.66V27.6101L446.59 27.4401L446.76 32.9201V32.9101ZM436.73 18.9101C437.61 20.8901 438.3 23.4601 438.54 25.3801H438.6L438.54 17.7401H433V20.1301L436.73 18.9101ZM433 28.7701L438.54 28.2401V25.9101L434.22 27.3701C434.16 25.7401 433.64 23.3501 433 21.2501V28.7801V28.7701ZM438.48 35.8301C438.42 36.2401 438.07 36.5301 437.37 36.5901V48.7201H433.81V35.5401L438.48 35.8301ZM476.46 51.8101H479.73V58.1101H445.31V51.8101H448.58V36.5801H476.46V51.8101ZM452.89 34.4301V35.2501H447.23V5.62012H463.8V10.8701H459.83V13.6101H463.56V19.5601C465.14 15.5301 465.95 9.47012 466.36 3.75012L474.41 5.38013C474.24 5.85013 473.77 6.20013 473.01 6.20013C472.84 7.78013 472.66 9.3501 472.37 10.9801H479.49V17.2801H471.15C470.45 20.0801 469.57 22.6501 468.47 24.6901C467.3 23.7001 465.2 22.4201 463.57 21.4801V26.3201H459.84V29.0601H464.57V34.4301H452.9H452.89ZM454.58 10.8601H452.89V13.6001H454.58V10.8601ZM458.02 18.3901H452.89V21.5401H458.02V18.3901ZM454.58 29.0701V26.3301H452.89V29.0701H454.58ZM454.81 42.8401V51.8201H456.33V42.8401H454.81ZM463.09 42.8401H461.57V51.8201H463.09V42.8401ZM465.37 31.7001V25.4001H478.55V31.7001H465.37ZM469.86 42.8401H468.34V51.8201H469.86V42.8401Z" fill="white"/>
</g>
<defs>
<filter id="filter0_d_75_3040" x="0.519766" y="0.370107" width="481.95" height="61.6001" filterUnits="userSpaceOnUse" color-interpolation-filters="sRGB">
<feFlood flood-opacity="0" result="BackgroundImageFix"/>
<feColorMatrix in="SourceAlpha" type="matrix" values="0 0 0 0 0 0 0 0 0 0 0 0 0 0 0 0 0 0 127 0" result="hardAlpha"/>
<feOffset/>
<feGaussianBlur stdDeviation="1.37"/>
<feColorMatrix type="matrix" values="0 0 0 0 1 0 0 0 0 1 0 0 0 0 1 0 0 0 0.55 0"/>
<feBlend mode="normal" in2="BackgroundImageFix" result="effect1_dropShadow_75_3040"/>
<feBlend mode="normal" in="SourceGraphic" in2="effect1_dropShadow_75_3040" result="shape"/>
</filter>
</defs>
</svg>
