<svg width="1392" height="110" viewBox="0 0 1392 110" fill="none" xmlns="http://www.w3.org/2000/svg">
<path d="M104.22 21.645H60.015C59.22 25.305 58.185 29.325 57.03 33.105H92.76V109.275H74.895V102.63H29.895V109.275H12.945V33.105H39.285C39.975 29.55 40.665 25.545 41.115 21.645H0V6.07498H104.22V21.645ZM74.895 60.24V48.45H29.895V60.24H74.91H74.895ZM29.88 87.27H74.895V75.24H29.895V87.27H29.88Z" fill="white"/>
<path d="M151.41 6.99C150.945 8.025 149.805 8.595 147.975 8.37C145.455 15.12 142.485 21.885 139.38 28.41L143.85 29.895C143.505 30.93 142.47 31.95 140.415 32.19V109.725H124.26V54.63C121.86 57.945 119.445 61.155 116.925 64.02C115.545 60.015 111.765 50.97 109.59 46.95C118.635 36.75 127.92 18.435 133.41 0.794998L151.395 6.975L151.41 6.99ZM208.68 80.055C214.065 85.89 220.245 93.795 222.66 99.645L209.49 107.085C208.455 104.34 206.625 101.01 204.45 97.575C202.725 106.74 198.84 109.26 190.47 109.26H179.355C163.785 109.26 163.44 103.425 163.44 90.585C161.145 96.42 157.95 102.495 153.585 106.965L141.795 98.49C146.37 94.365 150.27 87.72 152.325 81.54L163.44 86.235V81.54L176.955 82.335C175.575 81.075 174.09 79.815 172.605 78.78L174.435 77.295H153.135V43.185H213.945V77.31H190.695C192.87 79.14 194.7 81.09 195.96 82.695L185.43 91.17C184.17 89.22 181.995 86.925 179.595 84.645C179.25 84.645 178.905 84.765 178.455 84.87V93.345C178.455 96.33 178.92 96.555 181.77 96.555H188.76C191.16 96.555 191.73 95.64 192.075 89.565C194.13 91.17 198.375 92.775 201.93 93.81C200.1 91.41 198.27 88.995 196.44 86.82L208.695 80.07L208.68 80.055ZM149.34 9.165H174.54V1.38L194.7 2.415C194.58 3.795 193.56 4.47 191.265 4.935V9.18H217.95V21.195H210.27L211.41 21.54C210.945 22.455 209.925 22.92 208.2 22.92L205.905 27.045H221.025V39.765H145.2V27.045H160.665C159.975 25.095 159.06 22.92 158.265 21.21H149.325V9.165H149.34ZM168.81 52.8V56.01H197.445V52.8H168.81ZM168.81 64.365V67.68H197.445V64.365H168.81ZM173.625 21.18C174.54 23.13 175.455 25.185 176.145 27.015H190.125C190.92 25.185 191.61 23.115 192.3 21.18H173.625Z" fill="white"/>
<path d="M333.615 57.72H272.565C264.885 79.365 253.89 97.35 238.2 109.26C235.56 105.945 229.38 99.87 225.6 96.885C238.2 88.29 247.59 74.55 254.235 57.72H228.465V42.03H259.5C260.76 37.11 262.02 31.95 262.935 26.685H248.16V39.165H231.9V11.685H271.98V0.464996L292.59 1.605C292.47 2.865 291.555 3.66 289.155 4.005V11.685H330.27V39.165H313.2V26.685H272.43L283.305 28.98C282.96 30.24 281.82 30.93 279.87 30.93C279.075 34.71 278.145 38.37 277.23 42.045H333.585V57.735L333.615 57.72ZM310.71 69.18C318.96 78.45 329.61 91.395 334.08 100.335L319.77 109.38C318.975 107.655 317.94 105.6 316.68 103.545C297.9 105.03 278.88 106.29 265.935 106.98C265.59 108.12 264.555 108.69 263.535 108.81L257.115 90.72L268.575 90.375C272.82 81.105 276.93 69.075 279.345 59.34L298.935 64.5C298.47 65.64 297.225 66.21 295.275 66.33C292.875 73.77 289.44 82.365 285.885 89.805C292.755 89.58 299.85 89.34 307.08 89.01C303.99 84.765 300.66 80.655 297.57 76.98L310.74 69.195L310.71 69.18Z" fill="white"/>
<path d="M381.15 94.14H396.84C402.57 88.755 404.055 81.765 404.745 74.79L420.315 76.515C420.09 77.43 419.175 78.12 417.57 78.345C415.845 88.545 413.22 100.905 400.395 109.035C399.705 107.775 398.79 106.29 397.755 104.685V105.03H361.785V109.38H348.615V79.605C347.7 80.64 346.89 81.66 345.975 82.59C344.715 79.95 341.4 74.46 339.555 71.94C344.595 66.555 349.41 57.63 352.38 48.465H344.13V25.44H368.865V48.465H361.305L366.915 50.295C366.45 51.09 365.535 51.675 364.05 51.555L362.565 55.455H369.435C370.575 52.59 371.49 49.5 372.075 46.98V25.455H397.155V48.48H377.685L386.625 50.88C386.28 51.795 385.365 52.26 383.64 52.26L382.035 55.47H397.605V66.24H381.105V69.225H395.085V78.615H381.105V81.705H395.085V91.095H381.105V94.185L381.15 94.14ZM351.03 22.785V18.435H341.07V7.56001H351.03V0.570007L367.98 1.48501C367.86 2.62501 366.945 3.31501 364.89 3.66001V7.56001H375.315V0.570007L392.265 1.48501C392.145 2.62501 391.23 3.31501 389.175 3.66001V7.56001H398.34V18.435H389.175V22.785H375.315V18.435H364.89V22.785H351.03ZM354.465 34.815V39.045H358.02V34.815H354.465ZM367.755 69.18V66.195H361.8V69.18H367.755ZM367.755 81.66V78.57H361.8V81.66H367.755ZM361.8 91.05V94.14H367.755V91.05H361.8ZM382.41 34.815V39.045H386.31V34.815H382.41ZM435.435 91.275C435.435 94.485 435.555 94.83 436.35 94.83H437.385C438.525 94.83 438.99 93.345 439.215 82.35C441.735 84.645 447.69 86.82 451.35 87.84C450.21 103.53 446.775 107.775 438.975 107.775H433.71C423.63 107.775 421.575 103.65 421.575 91.395V72.045H401.19V4.35001H445.29V72.045H435.435V91.29V91.275ZM415.275 18.435V23.25H430.515V18.435H415.275ZM415.275 35.73V40.545H430.515V35.73H415.275ZM415.275 53.025V57.84H430.515V53.025H415.275Z" fill="white"/>
<path d="M564.39 32.19H519.84C518.01 37.23 516.06 42.15 513.765 46.74H521.205V34.605L540.9 35.64C540.78 36.9 539.865 37.695 537.465 38.04V46.74H560.835V80.19C560.835 92.22 557.055 95.655 541.245 95.655C540.78 91.53 539.19 85.695 537.465 81.675V109.395H521.205V61.635H513.87V95.535H498.405V70.455C496.11 73.095 493.71 75.495 491.07 77.79C489.585 75.15 486.6 70.8 483.975 67.485V109.755H467.82V54.63C465.42 57.945 463.005 61.155 460.485 64.02C459.105 60.015 455.325 50.97 453.15 46.95C462.195 36.75 471.48 18.435 476.97 0.795L494.955 6.975C494.49 8.01 493.35 8.58 491.52 8.355C489 15.105 486.03 21.87 482.925 28.395L487.395 29.88C487.05 30.915 486.015 31.935 483.96 32.175V61.725C491.745 54.51 497.94 44.205 502.86 32.175H489V17.07H507.9C509.385 11.58 510.765 5.85 511.8 0L530.58 4.125C530.235 5.265 529.095 5.955 527.265 5.955C526.47 9.735 525.54 13.395 524.52 17.07H564.375V32.19H564.39ZM544.92 61.62H537.48V81.21C539.775 81.33 542.52 81.33 543.555 81.33C544.59 81.21 544.935 80.985 544.935 79.95V61.62H544.92Z" fill="white"/>
<path d="M665.52 46.155L674.79 46.845C674.67 48.105 674.67 50.16 674.445 51.765C673.41 85.215 672.27 98.385 668.94 102.84C665.16 108 660.93 109.59 645.81 109.26C645.69 106.395 644.895 102.615 643.755 99.3H616.725V106.395H601.485V66.075H647.76V94.14C652.23 94.14 652.8 94.14 654.18 92.31C655.905 90.135 656.82 81.78 657.495 60.705H597.48C595.53 76.965 591.18 94.26 582.48 106.41C579.735 103.32 572.745 97.71 569.085 95.88C581.565 78.36 582.48 52.125 582.48 34.035V5.50502H665.97V40.425H598.86C598.86 42.255 598.74 44.205 598.635 46.26H661.86L665.52 46.14V46.155ZM649.26 19.35H598.98V26.565H649.26V19.35ZM632.31 86.355V79.02H616.74V86.355H632.31Z" fill="white"/>
<path d="M746.94 71.355L748.32 85.665C735.495 88.65 722.1 91.5 713.385 93.345C713.16 94.485 712.125 95.295 711.09 95.4L706.965 78.105C710.625 77.64 714.87 76.965 719.445 76.155V55.995H709.935V40.755H719.445V23.595H709.14V8.25002H745.215V23.595H735.015V40.77H744.525V56.01H735.015V73.53L746.925 71.355H746.94ZM808.785 83.265H789.435V95.64C789.435 106.755 785.88 109.275 767.565 109.275C766.875 105.615 765.39 100.8 763.785 97.14C759.315 101.37 753.93 105.495 748.785 108.48C746.265 105.615 741.225 100.92 738.135 98.52C745.005 95.205 752.115 89.58 756 84.315L772.38 90.39C771.915 91.305 770.775 91.77 769.29 91.53C767.91 93.135 766.305 94.74 764.595 96.45C767.46 96.57 770.775 96.57 771.81 96.57C773.07 96.45 773.535 96.225 773.535 95.085V83.295H754.29V57.87H808.8V83.295L808.785 83.265ZM815.775 41.685V54.735H746.595V41.685H772.365V37.215H752.775V4.00502H810.15V37.23H792.63C792.285 38.145 791.25 38.715 789.315 39.06V41.7H815.775V41.685ZM767.67 13.515V16.155H794.475V13.515H767.67ZM767.67 25.08V27.72H794.475V25.08H767.67ZM769.5 68.265V72.84H792.63V68.265H769.5ZM805.47 107.895C802.605 103.425 795.735 96.33 790.125 91.515L802.725 84.645C808.215 88.995 815.445 95.64 818.985 100.335L805.47 107.895Z" fill="white"/>
<path d="M921.705 6.3L932.355 10.2C932.235 10.995 931.89 11.805 931.215 12.375C928.125 22.23 924.345 33.9 919.755 46.05C929.025 57.615 931.89 65.4 931.89 72.39C931.89 95.64 916.2 95.64 906.24 95.295C906.12 90.945 904.29 84.3 901.77 79.83V109.26H885.39V16.95C882.87 23.025 880.005 28.86 876.795 34.365H882.405V48.675H867.165C865.335 50.97 863.505 53.145 861.66 55.2H879.18V108.465H863.49V104.565H848.94V109.485H833.94V77.415C832.56 78.21 831.195 79.02 829.695 79.71C827.97 76.155 823.965 69.51 821.34 66.315C825.69 64.365 829.935 61.965 833.94 59.325V55.2H839.55C842.19 53.145 844.59 50.955 846.99 48.675H824.085V34.365H842.52V25.665H828.54V11.46H842.52V1.035L861.195 2.07C861.075 3.21 860.16 4.02 857.88 4.365V11.46H867.735V19.59C869.565 15.81 871.17 11.91 872.55 7.905L885.375 12.03V6.87H918.24L921.675 6.3H921.705ZM863.52 73.41V68.25H848.97V73.41H863.52ZM848.97 91.395H863.52V85.785H848.97V91.395ZM857.91 34.365H859.17C861.12 31.62 862.95 28.635 864.555 25.665H857.91V34.365ZM901.77 22.455V79.26C904.515 79.485 906.93 79.485 908.52 79.485C914.25 79.485 915.39 76.845 915.39 71.58C915.39 65.97 912.3 59.79 902.91 48.9C905.895 39.285 908.415 30.465 910.47 22.44H901.77V22.455Z" fill="white"/>
<path d="M1046.43 89.34H1032.45C1037.83 93.345 1044.13 98.16 1047.57 101.715L1035.31 109.395C1031.53 105.15 1023.28 98.175 1017.1 93.48L1024.09 89.355H1007.59L1014.69 93.48C1014.34 93.945 1013.65 94.275 1012.86 94.395C1008.85 99.315 999.81 106.08 992.13 109.395C989.73 106.755 985.38 102.75 982.05 100.23C979.53 109.5 970.59 109.5 961.2 109.5C960.975 105.03 959.475 98.85 957.3 94.845C960.165 95.19 962.685 95.19 964.29 95.19C965.67 95.19 966.585 94.845 967.5 93.36C968.76 91.185 969.225 82.365 969.555 58.08H963.375C961.77 77.43 958.11 95.76 948.48 109.275C945.84 105.27 940.92 100.23 936.795 97.59C947.91 82.02 948.585 58.305 948.93 32.76H938.625V17.415H955.005V0.689996L974.25 1.725C974.13 2.985 973.215 3.675 970.935 4.125V17.415H985.59V20.16C989.595 14.55 992.685 7.44 994.29 0.464996L1010.89 4.71C1010.55 5.625 1009.63 6.195 1008.03 6.09C1007.46 7.92 1006.77 9.87 1006.08 11.7H1046.4V24.99H999.33L998.295 26.595L1013.19 27.39C1013.07 28.53 1012.15 29.22 1009.98 29.685V35.07H1021.44V26.37L1039.99 27.405C1039.87 28.545 1038.96 29.355 1036.68 29.7V35.085H1044.93V48.03H1036.68V76.44H1046.41V89.385L1046.43 89.34ZM976.56 43.065L984.69 43.29C984.69 44.55 984.69 46.38 984.57 48.105C984.225 78 983.88 92.775 982.17 99.645C987.78 97.245 993.735 93.225 997.98 89.34H985.5V76.395H995.01V47.985H987.105V35.04H995.01V30.795C994.095 31.935 993.06 32.97 992.04 33.885C990.555 32.4 988.035 30.57 985.62 28.845V32.745H964.545L964.2 43.05H976.575L976.56 43.065ZM1021.45 47.985H1009.99V50.625H1021.45V47.985ZM1021.45 63.45V60.705H1009.99V63.45H1021.45ZM1009.99 73.53V76.395H1021.45V73.53H1009.99Z" fill="white"/>
<path d="M1096.25 57.96L1092.12 58.53V95.985C1092.12 106.41 1088.69 109.5 1075.17 109.5C1074.83 106.065 1073.22 100.56 1071.51 97.245C1073.22 97.365 1075.07 97.47 1076.43 97.47C1079.75 97.47 1080.09 97.47 1080.09 95.745V60.24L1069.22 61.725C1068.99 77.19 1067.51 96.885 1060.97 109.605C1058.79 107.655 1053.53 104.445 1050.66 103.305C1056.17 92.19 1057.31 76.62 1057.53 63.225L1056.15 63.45C1055.93 64.485 1054.89 65.055 1053.98 65.175L1051.11 51.435L1057.53 50.865V15.81H1067.04C1067.84 10.89 1068.53 4.935 1068.77 0.464996L1085.84 3.45C1085.49 4.365 1084.46 4.935 1082.75 5.055C1081.83 8.145 1080.57 12.15 1079.31 15.825H1092.14V47.535L1095.92 47.19L1096.26 57.96H1096.25ZM1076.55 30.465C1078.28 34.365 1079.64 39.405 1080.11 43.185H1080.23L1080.11 28.185H1069.23V32.88L1076.57 30.48L1076.55 30.465ZM1069.22 49.815L1080.09 48.78V44.205L1071.62 47.07C1071.5 43.86 1070.48 39.165 1069.22 35.04V49.815ZM1079.99 63.675C1079.87 64.47 1079.19 65.055 1077.81 65.16V88.98H1070.82V63.09L1079.99 63.66V63.675ZM1154.55 95.055H1160.97V107.43H1093.4V95.055H1099.82V65.16H1154.57V95.055H1154.55ZM1108.28 60.93V62.535H1097.16V4.35H1129.68V14.655H1121.9V20.04H1129.23V31.725C1132.32 23.82 1133.93 11.91 1134.72 0.689996L1150.53 3.9C1150.19 4.815 1149.27 5.505 1147.79 5.505C1147.44 8.595 1147.1 11.685 1146.53 14.895H1160.51V27.27H1144.13C1142.75 32.76 1141.04 37.8 1138.86 41.82C1136.57 39.87 1132.44 37.35 1129.25 35.52V45.03H1121.91V50.415H1131.18V60.945H1108.28V60.93ZM1111.59 14.655H1108.28V20.04H1111.59V14.655ZM1118.34 29.43H1108.26V35.61H1118.34V29.43ZM1111.59 50.385V45H1108.28V50.385H1111.59ZM1112.06 77.415V95.055H1115.03V77.415H1112.06ZM1128.32 77.415H1125.33V95.055H1128.32V77.415ZM1132.79 55.545V43.17H1158.68V55.545H1132.79ZM1141.61 77.415H1138.62V95.055H1141.61V77.415Z" fill="white"/>
<path d="M1196.56 44.895V80.865C1202.98 91.515 1215.46 91.515 1235.16 91.515C1248.67 91.515 1264.83 91.05 1276.39 90.03C1274.56 94.035 1271.92 102.06 1271.13 106.98C1262.53 107.445 1250.97 107.775 1239.97 107.775C1211.56 107.775 1199.65 107.205 1189.23 95.055C1184.53 99.18 1179.72 103.305 1175.59 106.515C1175.59 108 1175.13 108.69 1173.76 109.155L1165.51 90.825C1170.21 88.185 1175.47 84.99 1180.29 81.54V60.24H1168.5V44.895H1196.56ZM1180.41 3.21001C1186.93 7.90501 1195.3 14.895 1199.19 20.28L1185.9 31.275C1182.58 26.01 1174.56 18.33 1168.03 13.185L1180.41 3.22501V3.21001ZM1199.53 35.16H1210.75C1207.09 33.105 1202.05 30.915 1198.5 29.43C1204.11 22.905 1208.58 11.67 1210.87 1.48501L1228.51 5.95501V0.570007L1248.45 1.60501C1248.33 2.86501 1247.31 3.66001 1245.01 4.12501V12.72H1268.73V26.7H1245.01V35.175H1273.77V49.035H1199.55V35.175L1199.53 35.16ZM1266.07 88.995H1249.69V86.355H1224.04V89.34H1208.47V52.575H1266.09V88.995H1266.07ZM1228.51 35.16V26.685H1218.31C1216.83 29.775 1215.1 32.64 1213.27 35.16H1228.51ZM1224.04 72.495H1249.69V65.505H1224.04V72.495ZM1228.51 12.705V6.52501C1228.05 7.21501 1227.13 7.56001 1225.77 7.56001C1225.3 9.28501 1224.73 10.995 1224.16 12.72H1228.51V12.705Z" fill="white"/>
<path d="M1390.23 87.615H1377.06C1382.79 91.965 1388.52 97.125 1391.95 100.905L1377.75 109.725C1373.97 104.805 1365.84 97.125 1359.19 91.74L1367.44 87.615H1346.83L1357.03 91.62C1356.46 92.76 1355.08 93 1353.82 92.76C1347.87 98.715 1338.58 105.24 1329.78 109.485C1327.48 106.62 1323.13 101.7 1320.04 98.835C1307.91 100.89 1296.22 102.84 1288.09 103.995C1287.87 105.135 1286.83 105.825 1285.8 106.05L1281.33 89.1C1286.02 88.635 1291.75 87.96 1298.05 87.27V84.06L1287.85 87.27C1287.28 82.005 1285.45 74.1 1283.61 68.025L1294.26 65.04C1295.74 69.285 1297.12 74.325 1298.04 78.675V63.78H1283.61V49.815H1298.04V43.515H1289.34V39.735C1286.7 36.42 1282.59 32.4 1279.72 30.465C1288.54 21.42 1295.19 9.85501 1298.97 0.570007L1316.83 3.66001C1316.49 4.80001 1315.57 5.49001 1313.85 5.61001L1313.62 5.95501C1318.44 9.16501 1323.82 13.05 1327.93 16.605V9.51001H1350.15V0.570007L1369.39 1.60501C1369.27 2.86501 1368.36 3.55501 1366.08 4.00501V9.49501H1388.86V22.56H1366.08V25.77H1383.49V71.13H1334.13V25.77H1350.16V22.56H1331.16L1323.48 34.47L1322.91 33.78V43.515H1312.71V49.815H1326.45V63.78H1312.71V79.935C1313.97 75.36 1315.45 69.165 1316.02 64.695L1330 68.94C1329.54 69.735 1328.52 70.2 1326.91 70.2C1325.88 74.325 1323.93 80.28 1322.1 84.285L1326.79 83.715V73.86H1390.24V87.6L1390.23 87.615ZM1319.1 29.775C1315.54 26.34 1310.97 22.56 1306.62 19.35C1304.67 22.785 1302.49 26.22 1299.97 29.775H1319.1ZM1312.68 81.66V85.56L1320.58 84.525L1312.68 81.66ZM1328.14 87.615L1328.49 93.915C1331.8 91.965 1334.91 89.79 1337.43 87.615H1328.16H1328.14ZM1367.65 38.025V35.385H1349.1V38.025H1367.65ZM1367.65 49.71V47.07H1349.1V49.71H1367.65ZM1367.65 61.5V58.755H1349.1V61.5H1367.65Z" fill="white"/>
</svg>
