<svg width="530" height="62" viewBox="0 0 530 62" fill="none" xmlns="http://www.w3.org/2000/svg">
<path d="M2.58986 1.81996V5.60996C2.58986 8.27996 2.39986 12.17 1.00986 14.86C0.819863 14.68 0.389863 14.43 0.109863 14.32C1.44986 11.76 1.56986 8.16996 1.56986 5.59996V0.829956H14.8199V1.81996H2.58986ZM9.17986 11.38V13.51H14.8799V14.44H2.36986V13.51H4.52986V9.98996L5.86986 10.09C5.84986 10.2 5.76986 10.27 5.56986 10.3V13.52H8.14986V8.80996L9.50986 8.90996C9.48986 9.01996 9.40986 9.09996 9.18986 9.11996V10.51H13.2199V11.39H9.18986L9.17986 11.38ZM6.21986 8.82996H5.28986V6.36996C4.72986 7.30996 3.95986 8.22996 3.25986 8.74996C3.11986 8.52996 2.82986 8.21996 2.63986 8.05996C3.43986 7.55996 4.29986 6.58996 4.87986 5.60996H3.13986V4.75996H5.29986V3.52996C4.68986 3.62996 4.06986 3.70996 3.48986 3.74996C3.43986 3.56996 3.30986 3.26996 3.19986 3.07996C4.61986 2.91996 6.28986 2.64996 7.13986 2.25996L7.99986 2.91996C7.93986 2.96996 7.91986 2.96996 7.70986 2.96996C7.30986 3.10996 6.79986 3.25996 6.21986 3.36996V4.75996H8.13986V5.60996H6.21986V5.71996C6.66986 6.01996 7.78986 6.83996 8.07986 7.09996L7.49986 7.81996C7.25986 7.54996 6.69986 7.03996 6.21986 6.61996V8.82996ZM11.8899 8.82996H10.9499V5.99996C10.3099 7.08996 9.34986 8.15996 8.46986 8.74996C8.32986 8.52996 8.03986 8.21996 7.84986 8.05996C8.72986 7.55996 9.70986 6.59996 10.3299 5.60996H8.67986V4.75996H10.9499V3.50996C10.3099 3.58996 9.64986 3.66996 9.04986 3.71996C8.99986 3.52996 8.86986 3.21996 8.77986 3.02996C10.2799 2.88996 12.1099 2.60996 13.0199 2.22996C13.5799 2.62996 13.7399 2.75996 13.8799 2.88996C13.8199 2.93996 13.7999 2.93996 13.5899 2.93996C13.1399 3.09996 12.5499 3.22996 11.8899 3.35996V4.76996H14.6299V5.61996H12.4999C13.1099 6.59996 14.0799 7.50996 15.0799 7.95996C14.8599 8.13996 14.5699 8.45996 14.4199 8.69996C13.4399 8.13996 12.5199 7.11996 11.8899 6.03996V8.83996V8.82996Z" fill="white"/>
<path d="M22.4899 8.93004C22.3899 8.66004 22.2699 8.32004 22.1199 7.97004L20.6499 8.05004V14.9H19.6899V8.10004C18.8099 8.13004 18.0099 8.16004 17.3899 8.20004C17.3599 8.33004 17.2599 8.38004 17.1499 8.41004L16.8599 7.21004H17.9599C18.3099 6.78004 18.6799 6.26004 19.0599 5.74004C18.5799 4.99004 17.7499 4.06004 17.0099 3.35004L17.5899 2.66004C17.7699 2.82004 17.9299 2.98004 18.0999 3.16004C18.6399 2.22004 19.2499 0.950039 19.5999 0.0400391L20.7499 0.520039C20.6699 0.630039 20.5599 0.660039 20.3999 0.650039C19.9799 1.56004 19.2799 2.86004 18.6699 3.76004C19.0399 4.16004 19.3699 4.54004 19.6099 4.91004C20.2999 3.87004 20.9399 2.76004 21.3999 1.87004L22.5199 2.40004C22.4699 2.48004 22.3399 2.54004 22.1699 2.54004C21.3499 3.90004 20.0699 5.81004 18.9499 7.20004L21.6899 7.15004C21.3999 6.61004 21.0799 6.05004 20.7499 5.57004L21.5499 5.22004C22.2899 6.26004 23.0399 7.64004 23.3099 8.53004L22.4799 8.95004L22.4899 8.93004ZM19.0599 9.54004C19.0299 9.65004 18.9299 9.72004 18.7399 9.72004C18.5299 11.07 18.1599 12.6 17.6799 13.55C17.4699 13.42 17.1199 13.26 16.8799 13.15C17.3399 12.25 17.6799 10.72 17.8899 9.26004L19.0599 9.55004V9.54004ZM22.2799 12.41C22.1499 11.61 21.7499 10.39 21.3399 9.48004L22.1599 9.22004C22.6099 10.12 23.0199 11.32 23.1699 12.1L22.2899 12.4L22.2799 12.41ZM27.8799 13.55H31.9299V14.53H22.3899V13.55H26.7899V10.27H23.5199V9.29004H31.3599V10.27H27.8699V13.55H27.8799ZM25.8199 2.79004C25.7699 2.90004 25.6799 2.97004 25.4799 2.95004C25.1799 3.53004 24.5499 4.61004 24.0099 5.45004C24.7299 6.40004 25.4499 7.56004 25.7899 8.30004L24.8899 8.70004C24.5399 7.85004 23.7899 6.59004 22.9499 5.47004C23.5899 4.48004 24.2899 3.26004 24.6599 2.48004L25.8099 2.80004L25.8199 2.79004ZM31.8099 0.870039V1.86004H23.0399V0.860039H31.8099V0.870039ZM27.7799 8.67004C27.4099 7.84004 26.5999 6.57004 25.6999 5.45004C26.3899 4.47004 27.1199 3.24004 27.5099 2.47004L28.6499 2.79004C28.6199 2.90004 28.5099 2.97004 28.3299 2.95004C28.0099 3.53004 27.3399 4.60004 26.7899 5.43004C27.5299 6.37004 28.3099 7.53004 28.6799 8.26004L27.7799 8.66004V8.67004ZM31.4499 2.81004C31.3999 2.92004 31.3099 2.97004 31.1099 2.95004C30.7899 3.53004 30.1199 4.61004 29.5399 5.43004C30.3199 6.37004 31.1399 7.53004 31.5399 8.26004L30.6599 8.69004C30.2399 7.84004 29.3799 6.56004 28.4499 5.46004C29.1499 4.47004 29.9099 3.25004 30.2899 2.47004L31.4399 2.81004H31.4499Z" fill="white"/>
<path d="M45.8402 12.92H48.5802V13.99H34.1602V12.92H37.8302C38.2102 11.4 38.6302 9.45 39.0302 7.46H35.8602V6.4H39.2402C39.4802 5.12 39.7002 3.84 39.9002 2.69H35.1002V1.62H47.7502V2.69H41.0802C40.8902 3.86 40.6502 5.12 40.3902 6.4H45.8602V12.91L45.8402 12.92ZM44.7502 7.46H40.1702C39.7702 9.48 39.3502 11.41 39.0202 12.92H44.7502V7.46Z" fill="white"/>
<path d="M65.4599 10.84H59.6699C61.1599 12.17 63.5899 13.3 65.8199 13.8C65.5999 14.01 65.2799 14.42 65.1299 14.7C62.8099 14.08 60.2299 12.7 58.6999 11.08V14.89H57.6299V11.18C56.0899 12.73 53.6099 14.05 51.3599 14.67C51.2199 14.41 50.9099 14.01 50.6899 13.8C52.8799 13.3 55.2999 12.15 56.7399 10.84H50.9599V9.91002H57.6299V8.52002L59.0199 8.62002C58.9999 8.73002 58.9199 8.81002 58.6999 8.84002V9.91002H65.4699V10.84H65.4599ZM54.4499 7.13002L53.4599 6.79002C53.9199 6.28002 54.4699 5.61002 55.0299 4.90002H51.1599V3.99002H55.7399C56.1399 3.45002 56.5399 2.92002 56.8799 2.44002L58.1299 2.84002C58.0999 2.92002 57.9899 2.98002 57.7499 2.95002C57.5299 3.27002 57.2499 3.62002 56.9799 3.99002H65.3199V4.90002H62.0699C61.6399 5.78002 61.0499 6.52002 60.1699 7.13002C61.8199 7.56002 63.3599 8.03002 64.4799 8.46002L63.8199 9.24002C62.6699 8.79002 60.9199 8.25002 59.0499 7.75002C57.5099 8.44002 55.2999 8.90002 52.0199 9.13002C51.9699 8.89002 51.8099 8.49002 51.6699 8.27002C54.2499 8.11002 56.1499 7.81002 57.5399 7.37002C56.6099 7.13002 55.6699 6.92002 54.7899 6.75002L54.4699 7.13002H54.4499ZM52.6099 2.20002V3.59002H51.5999V1.25002H57.6299V0.0200195L59.0199 0.10002C58.9999 0.23002 58.9099 0.29002 58.6999 0.32002V1.25002H64.8599V3.59002H63.8199V2.20002H52.5999H52.6099ZM56.2599 4.91002C55.9599 5.29002 55.6499 5.68002 55.3499 6.05002C56.4699 6.26002 57.6699 6.53002 58.8699 6.82002C59.8099 6.32002 60.4199 5.70002 60.8399 4.91002H56.2599Z" fill="white"/>
<path d="M74.7499 0.400049C74.6999 0.510049 74.5699 0.580049 74.3799 0.580049C74.1699 1.24005 73.9499 1.92005 73.6799 2.60005H82.1499V3.64005H73.2199C72.6899 4.78005 72.0699 5.90005 71.2999 6.94005L71.4799 6.99005C71.4499 7.10005 71.3499 7.18005 71.1599 7.20005V14.93H70.0899V8.43005C69.5099 9.05005 68.8899 9.61005 68.1999 10.13C68.0699 9.84005 67.7799 9.39005 67.6099 9.15005C68.5399 8.48005 69.3699 7.66005 70.0899 6.75005V6.64005L70.1499 6.66005C70.8699 5.73005 71.4899 4.71005 72.0099 3.65005H67.9899V2.61005H72.4899C72.8399 1.76005 73.1299 0.900049 73.3699 0.0500488L74.7599 0.420049L74.7499 0.400049ZM77.7299 8.72005V13.51H82.1499V14.52H72.3199V13.51H76.6399V8.72005H72.9599V7.71005H76.6399V4.49005L78.0299 4.59005C78.0099 4.70005 77.9299 4.77005 77.7299 4.80005V7.71005H81.5099V8.72005H77.7299Z" fill="white"/>
<path d="M87.6099 9.92003L89.4699 9.18003L89.6799 10.11C88.0199 10.88 86.2399 11.63 85.1199 12.11C85.1199 12.24 85.0599 12.33 84.9399 12.38L84.3799 11.16C84.9899 10.95 85.7599 10.65 86.5899 10.33V5.03003H84.6499V4.01003H86.5899V0.180029L87.9299 0.280029C87.9099 0.390029 87.8199 0.460029 87.6099 0.490029V4.01003H89.4199V5.03003H87.6099V9.93003V9.92003ZM91.7999 12.48C91.7999 13.36 92.0099 13.57 93.1299 13.57H97.2099C98.1699 13.57 98.3299 13.12 98.4599 11.2C98.7199 11.39 99.1299 11.57 99.4399 11.63C99.2599 13.84 98.9099 14.54 97.2299 14.54H93.0999C91.2899 14.54 90.7799 14.14 90.7799 12.46V7.07003L89.1599 7.76003L88.7399 6.80003L90.7699 5.93003V1.55003L92.1099 1.65003C92.0899 1.76003 91.9999 1.84003 91.7899 1.87003V5.49003L94.1099 4.50003V0.0300293L95.4399 0.110029C95.4199 0.220029 95.3399 0.300029 95.1399 0.330029V4.06003L97.6999 2.96003L97.9199 2.78003L98.7999 3.10003C98.7799 3.16003 98.7199 3.23003 98.6399 3.28003C98.6399 6.32003 98.5899 8.85003 98.4599 9.46003C98.3199 10.44 97.7699 10.6 96.0699 10.6C96.0199 10.3 95.9399 9.90003 95.8099 9.64003C96.2099 9.67003 96.7699 9.67003 96.9499 9.67003C97.2099 9.67003 97.3799 9.59003 97.4599 9.21003C97.5599 8.81003 97.5899 6.83003 97.5899 4.14003L95.1199 5.20003V11.35H94.0999V5.63003L91.7799 6.62003V12.48H91.7999Z" fill="white"/>
<path d="M104.26 7.00998C103.62 6.47998 102.34 5.83998 101.3 5.46998C101.59 5.00998 101.72 4.80998 101.84 4.61998C102.88 4.95998 104.18 5.54998 104.82 6.03998L104.26 6.99998V7.00998ZM101.73 14.04C102.51 12.81 103.63 10.69 104.45 8.88998L105.28 9.52998C104.53 11.21 103.54 13.18 102.8 14.4C102.86 14.48 102.88 14.54 102.88 14.62C102.88 14.68 102.86 14.75 102.83 14.8L101.73 14.05V14.04ZM102.71 0.22998C103.73 0.68998 104.98 1.44998 105.59 2.01998L104.93 2.89998C104.32 2.30998 103.11 1.48998 102.08 0.99998L102.7 0.22998H102.71ZM116.17 9.38998H112.04C113.05 10.99 114.7 12.58 116.27 13.31C116.01 13.52 115.68 13.9 115.5 14.19C113.95 13.31 112.31 11.58 111.29 9.79998V14.86H110.23V9.87998C109.09 11.75 107.35 13.4 105.64 14.3C105.48 14.04 105.16 13.68 104.94 13.47C106.67 12.7 108.41 11.12 109.49 9.38998H105.71V8.39998H110.24V6.50998L111.6 6.58998C111.58 6.69998 111.5 6.77998 111.3 6.80998V8.38998H116.18V9.37998L116.17 9.38998ZM110.04 2.24998C110.02 2.35998 109.93 2.43998 109.74 2.45998C109.5 4.74998 108.84 6.29998 106.03 7.11998C105.93 6.87998 105.66 6.50998 105.47 6.33998C108 5.66998 108.58 4.36998 108.77 2.14998L110.05 2.25998L110.04 2.24998ZM107.11 1.70998V3.85998H106.13V0.74998H115.7V3.83998H114.71V1.69998H107.11V1.70998ZM111.8 2.04998L113.11 2.14998C113.09 2.24998 113.01 2.32998 112.81 2.35998V5.25998C112.81 5.59998 112.87 5.63998 113.32 5.63998H114.78C115.13 5.63998 115.2 5.50998 115.24 4.54998C115.45 4.68998 115.83 4.83998 116.14 4.89998C116.03 6.20998 115.74 6.54998 114.91 6.54998H113.2C112.08 6.54998 111.81 6.27998 111.81 5.24998V2.02998L111.8 2.04998Z" fill="white"/>
<path d="M122.06 7.96003V8.66003C122.62 9.11003 124.14 10.49 124.54 10.84L123.93 11.64C123.58 11.19 122.71 10.33 122.06 9.69003V14.89H121.05V9.16003C120.38 10.78 119.47 12.46 118.59 13.42C118.48 13.15 118.24 12.73 118.05 12.49C119.01 11.48 120.07 9.61003 120.69 7.96003H118.18V7.01003H121.06V5.49003H118.68V4.53003H121.06V3.06003H118.39V2.12003H121.06V0.0300293L122.39 0.110029C122.37 0.220029 122.28 0.300029 122.07 0.320029V2.11003H124.71V3.05003H122.07V4.52003H124.46V5.48003H122.07V7.00003H124.79V7.95003H122.07L122.06 7.96003ZM133.06 8.41003V9.42003H131.08V14.89H130.04V9.42003H127.48C127.29 11.53 126.68 13.5 124.98 14.94C124.77 14.78 124.36 14.52 124.08 14.38C125.68 13.08 126.26 11.27 126.43 9.42003H124.51V8.41003H126.49C126.51 8.14003 126.51 7.88003 126.51 7.61003V4.30003H124.8V3.28003H126.51V0.0300293L127.84 0.130029C127.82 0.240029 127.74 0.310029 127.54 0.340029V3.26003H130.04V0.0300293L131.38 0.110029C131.36 0.220029 131.28 0.300029 131.08 0.330029V3.26003H132.9V4.28003H131.08V8.39003H133.06V8.41003ZM127.54 7.61003C127.54 7.88003 127.54 8.14003 127.52 8.41003H130.03V4.29003H127.53V7.60003L127.54 7.61003Z" fill="white"/>
<path d="M135.37 15.0601C135.63 14.2601 135.95 12.6801 136.07 11.6501L137.8 11.4301C137.46 12.6501 136.79 14.3101 136.42 14.9401L135.36 15.0701L135.37 15.0601Z" fill="white"/>
<path d="M149.06 12.28C149.01 12.36 148.88 12.41 148.71 12.38C147.69 13.23 146.15 14.16 144.84 14.73C144.65 14.54 144.33 14.22 144.09 14.06C145.4 13.55 146.95 12.67 147.92 11.77L149.07 12.28H149.06ZM154.29 8.62997C155.79 9.34997 157.62 10.47 158.56 11.32L157.71 11.96C157.42 11.69 157.02 11.37 156.56 11.03C154.99 11.09 153.37 11.14 151.82 11.17V14.9H150.75V11.2C148.51 11.26 146.46 11.31 144.94 11.34C144.92 11.47 144.83 11.53 144.72 11.55L144.27 10.41C145.2 10.41 146.37 10.39 147.68 10.39C148.06 10.18 148.48 9.96997 148.88 9.74997C148.03 9.10997 146.77 8.33997 145.69 7.80997L146.41 7.22997C146.76 7.40997 147.15 7.59997 147.53 7.80997C148.19 7.34997 148.92 6.74997 149.5 6.20997H145.37V0.589966H157.33V6.22997H150.85L151.12 6.36997C151.06 6.44997 150.96 6.47997 150.78 6.47997C150.14 7.00997 149.18 7.72997 148.33 8.26997C148.87 8.58997 149.39 8.92997 149.79 9.22997C151.29 8.36997 152.8 7.35997 153.84 6.53997L154.93 7.15997C154.87 7.23997 154.72 7.28997 154.56 7.26997C153.22 8.20997 151.26 9.40997 149.49 10.36L155.41 10.26C154.79 9.85997 154.11 9.48997 153.51 9.18997L154.29 8.60997V8.62997ZM146.4 1.47997V2.97997H150.77V1.46997H146.4V1.47997ZM146.4 3.82997V5.34997H150.77V3.82997H146.4ZM156.28 2.97997V1.46997H151.83V2.96997H156.28V2.97997ZM156.28 5.34997V3.82997H151.83V5.34997H156.28ZM157.53 14.76C156.68 14.04 154.92 13 153.51 12.31L154.29 11.75C155.67 12.37 157.44 13.37 158.39 14.1L157.53 14.76Z" fill="white"/>
<path d="M164.49 6.79002C165 7.29002 166.39 8.82002 166.72 9.22002L166.06 10.04C165.79 9.56002 165.07 8.58002 164.49 7.85002V14.91H163.45V7.41002C162.84 9.16002 162.03 10.93 161.24 11.99C161.11 11.7 160.84 11.27 160.66 11.03C161.59 9.83002 162.63 7.64002 163.19 5.73002H160.82V4.72002H163.44V2.02002C162.67 2.24002 161.86 2.45002 161.1 2.63002C161.04 2.41002 160.88 2.07002 160.75 1.84002C162.59 1.39002 164.7 0.70002 165.82 0.0200195L166.76 0.82002C166.68 0.88002 166.57 0.90002 166.44 0.87002C165.91 1.16002 165.24 1.43002 164.47 1.69002V4.73002H166.53V4.84002H170.34V3.80002H167.41V3.03002H170.34V2.05002H166.85V1.25002H170.34V0.0200195L171.72 0.12002C171.7 0.23002 171.61 0.31002 171.4 0.33002V1.26002H174.92V2.06002H171.4V3.04002H174.38V3.81002H171.4V4.85002H175.58V5.68002H166.54V5.74002H164.48V6.80002L164.49 6.79002ZM174.46 12.41H168.97L169.95 12.96C169.9 13.02 169.79 13.06 169.65 13.07C168.99 13.73 167.65 14.48 166.48 14.93C166.34 14.71 166.05 14.39 165.84 14.18C166.98 13.76 168.32 13.04 168.93 12.42H167.46V6.48002H174.47V12.4L174.46 12.41ZM168.46 7.24002V8.25002H173.42V7.24002H168.46ZM168.46 8.94002V9.95002H173.42V8.94002H168.46ZM168.46 10.64V11.68H173.42V10.64H168.46ZM174.7 14.91C174.09 14.37 173.02 13.6 172.04 12.99L172.79 12.45C173.83 13.04 175 13.79 175.69 14.36L174.7 14.92V14.91Z" fill="white"/>
<path d="M188.37 1.39003H192.16V2.33003H188.37V3.24003H187.31V2.33003H182.65V3.24003H181.59V2.33003H177.91V1.39003H181.59V0.0300293L182.95 0.110029C182.93 0.220029 182.85 0.300029 182.65 0.330029V1.39003H187.31V0.0300293L188.67 0.110029C188.65 0.220029 188.57 0.300029 188.37 0.330029V1.39003ZM191.38 9.25003V13.76C191.38 14.85 190.92 14.88 188.72 14.88C188.67 14.61 188.54 14.26 188.4 13.98C189.2 14 189.87 14 190.06 14C190.27 13.98 190.32 13.94 190.32 13.74V10.19H185.5V12.06L187.66 11.96C187.4 11.56 187.13 11.17 186.84 10.82L187.64 10.53C188.39 11.39 189.16 12.6 189.42 13.41L188.56 13.71C188.46 13.42 188.32 13.1 188.14 12.75C185.64 12.93 183.02 13.07 181.37 13.15C181.34 13.28 181.26 13.34 181.15 13.37L180.75 12.19C181.74 12.16 183.04 12.13 184.46 12.08V10.17H179.79V14.89H178.77V9.22003H184.47V8.35003H179.96V3.52003H190.22V8.39003H185.51V9.26003H191.38V9.25003ZM180.98 4.30003V5.55003H184.47V4.30003H180.98ZM180.98 7.58003H184.47V6.32003H180.98V7.58003ZM189.16 5.55003V4.30003H185.51V5.55003H189.16ZM189.16 7.58003V6.32003H185.51V7.58003H189.16Z" fill="white"/>
<path d="M197.77 5.06005V10.2001C198.51 9.96005 199.26 9.70005 200.01 9.46005L200.17 10.4101C198.31 11.1001 196.34 11.8201 195.08 12.2301C195.08 12.3701 194.98 12.4701 194.89 12.5001L194.36 11.2701C195.02 11.0801 195.83 10.8201 196.73 10.5301V5.06005H194.63V4.02005H196.73V0.180054L198.09 0.260054C198.07 0.370054 197.99 0.450054 197.77 0.480054V4.02005H199.82V5.06005H197.77ZM209.34 7.96005V8.98005H204.94V14.9001H203.88V8.98005H199.32V7.96005H203.88V1.90005H199.89V0.900054H208.9V1.90005H204.93V7.96005H209.33H209.34ZM201.59 7.29005C201.46 6.17005 200.97 4.46005 200.41 3.16005L201.32 2.89005C201.93 4.20005 202.42 5.88005 202.57 7.00005L201.59 7.29005ZM208.73 3.30005C208.7 3.40005 208.57 3.43005 208.39 3.43005C208.04 4.60005 207.43 6.31005 206.92 7.40005C206.9 7.38005 206.1 7.06005 206.1 7.06005C206.6 5.94005 207.19 4.10005 207.49 2.83005L208.72 3.29005L208.73 3.30005Z" fill="white"/>
<path d="M214.81 6.43003V11.66C216.06 13.57 218.35 13.57 221.23 13.57C222.96 13.57 224.99 13.52 226.24 13.44C226.11 13.7 225.92 14.21 225.89 14.53C224.79 14.58 223.02 14.61 221.44 14.61C218.14 14.61 215.95 14.61 214.33 12.63C213.55 13.33 212.7 14.05 212.01 14.6C212.03 14.74 211.98 14.81 211.87 14.86L211.25 13.68C212.02 13.17 212.96 12.43 213.78 11.73V7.46003H211.43V6.43003H214.82H214.81ZM212.43 0.430029C213.5 1.12003 214.73 2.17003 215.3 2.96003L214.45 3.68003C213.92 2.88003 212.71 1.79003 211.63 1.07003L212.43 0.430029ZM225.99 5.46003V6.41003H215.57V5.46003H220.31V3.14003H217.97C217.65 3.86003 217.27 4.53003 216.88 5.04003C216.66 4.88003 216.24 4.69003 215.98 4.56003C216.78 3.57003 217.47 1.87003 217.88 0.240029L219.16 0.590029C219.13 0.700029 219.02 0.750029 218.82 0.750029C218.69 1.21003 218.53 1.69003 218.36 2.17003H220.3V0.0300293L221.69 0.110029C221.67 0.220029 221.58 0.300029 221.37 0.330029V2.17003H225.28V3.13003H221.37V5.45003H225.98L225.99 5.46003ZM224.65 12.55H223.59V12H218.21V12.59H217.19V7.60003H224.65V12.55ZM218.22 11.05H223.6V8.51003H218.22V11.05Z" fill="white"/>
<path d="M234.53 11.97L234.58 12.88C232.42 13.3 230.18 13.73 228.75 13.98C228.73 14.11 228.64 14.19 228.54 14.22L228.16 13.02C228.91 12.91 229.84 12.75 230.87 12.59V7.78001H228.34V6.82001H230.87V5.03001H229.25V4.69001C229.09 4.88001 228.93 5.06001 228.75 5.23001C228.59 4.99001 228.24 4.67001 228 4.52001C229.39 3.14001 230.45 1.35001 231.04 0.0100098L232.34 0.22001C232.32 0.33001 232.23 0.41001 232.02 0.41001L232 0.44001C233.01 1.26001 234.18 2.36001 234.74 3.06001L234.1 3.91001C233.57 3.19001 232.52 2.13001 231.56 1.30001C231.1 2.16001 230.5 3.14001 229.77 4.07001H233.8V5.01001H231.85V6.80001H234.38V7.76001H231.85V12.42L234.54 11.96L234.53 11.97ZM229.44 11.89C229.38 11.06 229.09 9.81001 228.74 8.85001L229.52 8.64001C229.89 9.60001 230.18 10.85 230.26 11.65L229.44 11.89ZM234.37 8.94001C234.32 9.04001 234.21 9.08001 234.05 9.08001C233.83 9.85001 233.43 11.02 233.11 11.75C233.09 11.75 232.41 11.48 232.39 11.48C232.71 10.7 233.09 9.43001 233.29 8.57001L234.38 8.94001H234.37ZM237.84 12.35C237.79 12.45 237.68 12.48 237.5 12.48C236.59 13.39 235.15 14.34 233.87 14.93C233.71 14.72 233.39 14.35 233.17 14.16C234.39 13.66 235.83 12.8 236.64 11.87L237.84 12.35ZM243.06 10.81V11.75H234.1V10.81H243.06ZM238.07 3.57001V2.43001H234.37V1.52001H238.07V0.0200098L239.41 0.12001C239.39 0.23001 239.31 0.30001 239.11 0.33001V1.54001H242.89V2.45001H239.11V3.59001H242.02V9.83001H235.3V3.59001H238.07V3.57001ZM241 5.40001V4.33001H236.31V5.40001H241ZM241 7.22001V6.13001H236.31V7.22001H241ZM241 9.06001V7.96001H236.31V9.06001H241ZM242.25 14.92C241.63 14.22 240.38 13.08 239.34 12.31L240.25 11.83C241.32 12.58 242.55 13.62 243.18 14.31L242.25 14.92Z" fill="white"/>
<path d="M247.38 2.77C247.68 1.95 248 0.83 248.16 0.02L249.54 0.36C249.49 0.47 249.4 0.52 249.19 0.52C249.01 1.18 248.69 2.07 248.39 2.78H251.08V12.29H246.69V13.62H245.68V2.77H247.38ZM250.05 6.96V3.76H246.69V6.96H250.05ZM246.69 11.3H250.05V7.92H246.69V11.3ZM258.81 2.8L259.37 2.83C259.35 2.91 259.35 3.07 259.35 3.18C259.13 10.93 258.92 13.49 258.29 14.26C257.89 14.8 257.46 14.9 256.34 14.9C255.81 14.9 255.16 14.88 254.5 14.84C254.47 14.54 254.34 14.09 254.15 13.81C255.29 13.89 256.31 13.89 256.76 13.89C257.02 13.89 257.19 13.83 257.35 13.65C257.86 13.09 258.1 10.59 258.29 3.81H253.79C253.28 5.22 252.65 6.5 251.95 7.46C251.77 7.27 251.39 6.92 251.15 6.75C252.29 5.23 253.21 2.6 253.76 0L255.12 0.32C255.07 0.46 254.94 0.51 254.77 0.5C254.59 1.27 254.39 2.05 254.13 2.8H258.8H258.81ZM254.26 6.19C255.19 7.44 256.13 9.09 256.47 10.18L255.49 10.64C255.15 9.55 254.26 7.85 253.33 6.61L254.26 6.19Z" fill="white"/>
<path d="M267.29 8.93004C267.19 8.66004 267.07 8.32004 266.92 7.97004L265.45 8.05004V14.9H264.49V8.10004C263.61 8.13004 262.81 8.16004 262.19 8.20004C262.16 8.33004 262.06 8.38004 261.95 8.41004L261.66 7.21004H262.76C263.11 6.78004 263.48 6.26004 263.86 5.74004C263.38 4.99004 262.55 4.06004 261.81 3.35004L262.39 2.66004C262.57 2.82004 262.73 2.98004 262.9 3.16004C263.44 2.22004 264.05 0.950039 264.4 0.0400391L265.55 0.520039C265.47 0.630039 265.36 0.660039 265.2 0.650039C264.78 1.56004 264.08 2.86004 263.47 3.76004C263.84 4.16004 264.17 4.54004 264.41 4.91004C265.1 3.87004 265.74 2.76004 266.2 1.87004L267.32 2.40004C267.27 2.48004 267.14 2.54004 266.97 2.54004C266.15 3.90004 264.87 5.81004 263.75 7.20004L266.49 7.15004C266.2 6.61004 265.88 6.05004 265.55 5.57004L266.35 5.22004C267.09 6.26004 267.84 7.64004 268.11 8.53004L267.28 8.95004L267.29 8.93004ZM263.86 9.54004C263.83 9.65004 263.73 9.72004 263.54 9.72004C263.33 11.07 262.96 12.6 262.48 13.55C262.27 13.42 261.92 13.26 261.68 13.15C262.14 12.25 262.48 10.72 262.69 9.26004L263.86 9.55004V9.54004ZM267.08 12.41C266.95 11.61 266.55 10.39 266.14 9.48004L266.96 9.22004C267.41 10.12 267.82 11.32 267.97 12.1L267.09 12.4L267.08 12.41ZM272.68 13.55H276.73V14.53H267.19V13.55H271.59V10.27H268.32V9.29004H276.16V10.27H272.67V13.55H272.68ZM270.62 2.79004C270.57 2.90004 270.48 2.97004 270.28 2.95004C269.98 3.53004 269.35 4.61004 268.81 5.45004C269.53 6.40004 270.25 7.56004 270.59 8.30004L269.69 8.70004C269.34 7.85004 268.59 6.59004 267.75 5.47004C268.39 4.48004 269.09 3.26004 269.46 2.48004L270.61 2.80004L270.62 2.79004ZM276.61 0.870039V1.86004H267.84V0.860039H276.61V0.870039ZM272.58 8.67004C272.21 7.84004 271.4 6.57004 270.5 5.45004C271.19 4.47004 271.92 3.24004 272.31 2.47004L273.45 2.79004C273.42 2.90004 273.31 2.97004 273.13 2.95004C272.81 3.53004 272.14 4.60004 271.59 5.43004C272.33 6.37004 273.11 7.53004 273.48 8.26004L272.58 8.66004V8.67004ZM276.25 2.81004C276.2 2.92004 276.11 2.97004 275.91 2.95004C275.59 3.53004 274.92 4.61004 274.34 5.43004C275.12 6.37004 275.94 7.53004 276.34 8.26004L275.46 8.69004C275.04 7.84004 274.18 6.56004 273.25 5.46004C273.95 4.47004 274.71 3.25004 275.09 2.47004L276.24 2.81004H276.25Z" fill="white"/>
<path d="M280 10.15C279.92 11.57 279.78 13.11 279.17 13.99L278.55 13.64C279.09 12.82 279.27 11.38 279.33 10.02L280 10.15ZM284.47 8.07004L284.97 8.12004C284.97 8.22004 284.95 8.34004 284.95 8.47004C284.77 12.62 284.61 14.02 284.21 14.49C283.95 14.83 283.7 14.91 282.79 14.91C282.53 14.91 282.26 14.91 281.99 14.89C281.97 14.63 281.88 14.25 281.75 14.03C282.31 14.08 282.81 14.08 283.01 14.08C283.21 14.08 283.33 14.06 283.44 13.9C283.6 13.71 283.73 13.12 283.86 11.8L283.32 12.02C283.14 11.43 282.74 10.55 282.34 9.87004L282.85 9.68004C283.25 10.32 283.65 11.15 283.84 11.71H283.86C283.92 11.02 283.97 10.11 284.02 8.96004H280.34V9.47004H279.43V0.690039H284.82V1.60004H282.74V3.19004H284.5V4.05004H282.74V5.62004H284.52V6.49004H282.74V8.09004H284.26L284.47 8.07004ZM281.86 1.60004H280.34V3.19004H281.86V1.60004ZM281.86 5.62004V4.05004H280.34V5.62004H281.86ZM280.34 6.49004V8.09004H281.86V6.49004H280.34ZM280.58 13.26C280.6 12.46 280.52 11.26 280.36 10.31L280.95 10.23C281.13 11.17 281.22 12.39 281.21 13.18L280.59 13.26H280.58ZM281.89 10.01C282.23 10.83 282.53 11.91 282.61 12.62L282.02 12.75C281.94 12.05 281.67 10.96 281.35 10.13L281.89 10.02V10.01ZM289.93 0.110039C289.91 0.210039 289.82 0.290039 289.71 0.300039C290.64 1.82004 292.32 3.40004 293.84 4.24004C293.63 4.50004 293.39 4.88004 293.25 5.17004C291.71 4.21004 290.05 2.58004 289.12 1.06004C288.3 2.53004 286.75 4.21004 285.09 5.25004C284.98 4.99004 284.74 4.63004 284.55 4.38004C286.23 3.40004 287.86 1.64004 288.6 0.0400391L289.94 0.100039L289.93 0.110039ZM288.38 13.96C288.09 13.59 287.6 13.05 287.1 12.57C286.67 13.56 286.04 14.38 285.24 14.92C285.11 14.74 284.82 14.46 284.6 14.31C285.83 13.49 286.57 11.96 286.84 10.05L288.02 10.23C287.99 10.34 287.91 10.41 287.73 10.42C287.65 10.88 287.54 11.32 287.41 11.73C288.02 12.26 288.69 12.93 289.04 13.38L288.37 13.96H288.38ZM285.58 9.59004V5.88004H288.81V9.59004H285.58ZM286.38 6.64004V8.82004H287.98V6.64004H286.38ZM291.47 3.93004V4.79004H286.96V3.93004H291.47ZM292.99 14.89C292.59 14.28 291.82 13.4 291.1 12.63C290.65 13.56 290.06 14.34 289.28 14.87C289.14 14.69 288.83 14.39 288.62 14.25C289.85 13.43 290.6 11.91 290.89 10.02L292.09 10.21C292.07 10.31 291.98 10.37 291.79 10.39C291.71 10.87 291.58 11.35 291.44 11.78C292.27 12.58 293.23 13.64 293.71 14.31L292.99 14.89ZM292.99 5.86004V9.57004H289.66V5.86004H292.99ZM292.16 8.81004V6.63004H290.46V8.81004H292.16Z" fill="white"/>
<path d="M299.03 1.97003C298.04 2.19003 297 2.40003 296.02 2.56003C295.97 2.32003 295.83 1.97003 295.68 1.73003C297.92 1.33003 300.48 0.720029 301.84 0.0300293L302.83 0.860029C302.77 0.910029 302.73 0.910029 302.51 0.910029C301.85 1.20003 301.01 1.47003 300.06 1.71003V4.85003H302.81V5.86003H300.06V6.82003C300.73 7.43003 302.38 9.11003 302.78 9.56003L302.11 10.44C301.73 9.90003 300.78 8.81003 300.06 7.99003V14.89H299.02V7.46003C298.22 9.40003 297.13 11.33 296.07 12.47C295.94 12.17 295.67 11.75 295.46 11.49C296.68 10.23 297.99 7.94003 298.73 5.86003H295.67V4.85003H299.02V1.97003H299.03ZM303.48 1.79003H309.71V14.33H308.61V13.21H304.54V14.46H303.48V1.79003ZM304.54 12.16H308.61V2.83003H304.54V12.16Z" fill="white"/>
<path d="M317.71 12.56C318.32 12.88 318.53 13.01 318.72 13.14C318.66 13.2 318.54 13.24 318.4 13.25C317.34 13.92 315.07 14.61 313.17 14.95C313.03 14.74 312.72 14.39 312.51 14.18C314.41 13.89 316.72 13.23 317.71 12.56ZM324.16 4.36002H327.15V5.21002H324.09L323.96 6.68002H315.3L315.49 5.21002H312.59V4.36002H315.6L315.78 2.94002H324.28L324.15 4.36002H324.16ZM314.19 2.15002V3.80002H313.2V1.26002H319.3V0.0200195L320.69 0.10002C320.67 0.23002 320.58 0.29002 320.37 0.32002V1.26002H326.55V3.81002H325.53V2.16002H314.2L314.19 2.15002ZM324.91 7.38002V12.5H314.87V7.39002H324.91V7.38002ZM323.82 8.85002V8.08002H315.91V8.85002H323.82ZM323.82 10.32V9.52002H315.91V10.32H323.82ZM323.82 11.81V10.99H315.91V11.81H323.82ZM316.47 5.12002L316.36 5.98002H319.16C319.19 5.71002 319.24 5.42002 319.27 5.12002H316.47ZM319.34 4.42002C319.36 4.15002 319.39 3.88002 319.4 3.62002H316.66L316.56 4.42002H319.33H319.34ZM320.11 5.99002H323.02L323.08 5.13002H320.2L320.1 5.99002H320.11ZM323.15 4.42002L323.21 3.62002H320.31L320.26 4.42002H323.14H323.15ZM326.22 14.9C325 14.44 323.02 13.76 320.97 13.2L321.71 12.58C323.69 13.11 325.82 13.76 327.14 14.25L326.23 14.91L326.22 14.9Z" fill="white"/>
<path d="M342.17 3.60005C342.41 3.60005 342.44 3.60005 342.68 3.58005L343.3 3.64005C343.3 3.74005 343.28 3.90005 343.27 4.01005C343.03 11.04 342.79 13.42 342.15 14.16C341.7 14.72 341.19 14.82 340.15 14.82C339.61 14.82 338.92 14.8 338.26 14.76C338.24 14.44 338.1 13.96 337.88 13.64C339.02 13.74 340.04 13.75 340.44 13.75C340.78 13.75 340.97 13.7 341.14 13.51C341.67 12.98 341.92 10.68 342.13 4.69005H336.38C336.16 8.08005 335.07 12.04 330.31 14.97C330.13 14.7 329.73 14.3 329.48 14.12C333.98 11.41 335.03 7.80005 335.26 4.69005H329.95V3.60005H335.31C335.33 3.31005 335.33 3.04005 335.33 2.77005V0.0500488L336.77 0.150049C336.75 0.260049 336.66 0.340049 336.45 0.370049V2.77005C336.45 3.04005 336.45 3.31005 336.43 3.60005H342.16H342.17Z" fill="white"/>
<path d="M346.47 15.0601C346.73 14.2601 347.05 12.6801 347.17 11.6501L348.9 11.4301C348.56 12.6501 347.89 14.3101 347.52 14.9401L346.46 15.0701L346.47 15.0601Z" fill="white"/>
<path d="M359.1 0.380029C359.05 0.490029 358.94 0.540029 358.75 0.560029C358.37 1.50003 357.81 2.75003 357.26 3.76003C358.4 3.73003 359.66 3.68003 360.94 3.63003C360.57 3.02003 360.16 2.40003 359.74 1.85003L360.62 1.48003C361.52 2.58003 362.44 4.07003 362.83 5.07003L361.9 5.50003C361.79 5.21003 361.64 4.88003 361.45 4.52003C359.21 4.68003 356.9 4.79003 355.43 4.86003C355.41 4.99003 355.3 5.05003 355.19 5.08003L354.84 3.82003L356.15 3.79003C356.74 2.70003 357.41 1.15003 357.78 0.0300293L359.09 0.380029H359.1ZM361.69 6.14003V13.65C361.69 14.85 361.05 14.9 359.02 14.9C358.96 14.61 358.8 14.18 358.64 13.89C359.12 13.91 359.55 13.92 359.87 13.92C360.56 13.92 360.64 13.92 360.64 13.63V11.87H356.99V14.94H355.98V6.15003H361.69V6.14003ZM360.63 7.07003H356.98V8.56003H360.63V7.07003ZM356.98 11.01H360.63V9.43003H356.98V11.01ZM367.94 6.13003C368.6 6.13003 368.71 5.86003 368.77 4.21003C369.01 4.40003 369.44 4.56003 369.76 4.64003C369.62 6.59003 369.3 7.12003 368.03 7.12003H365.13C363.64 7.12003 363.24 6.78003 363.24 5.53003V0.0500293L364.62 0.130029C364.6 0.240029 364.52 0.320029 364.32 0.350029V2.85003C365.76 2.37003 367.28 1.78003 368.23 1.28003L369.05 2.16003C369.05 2.16003 368.95 2.21003 368.89 2.21003C368.84 2.21003 368.79 2.21003 368.75 2.19003C367.66 2.69003 365.92 3.26003 364.33 3.73003V5.52003C364.33 6.03003 364.46 6.13003 365.23 6.13003H367.95H367.94ZM364.31 13.14C364.31 13.68 364.47 13.78 365.27 13.78H368.09C368.81 13.78 368.92 13.46 368.99 11.6C369.25 11.78 369.68 11.94 369.97 12.02C369.84 14.18 369.52 14.74 368.18 14.74H365.19C363.69 14.74 363.27 14.42 363.27 13.15V7.60003L364.65 7.68003C364.63 7.79003 364.55 7.87003 364.33 7.90003V10.24C365.87 9.78003 367.52 9.12003 368.48 8.51003L369.28 9.41003C369.28 9.41003 369.18 9.46003 369.1 9.46003C369.07 9.46003 369.02 9.46003 368.97 9.44003C367.9 10.05 366.01 10.69 364.33 11.15V13.13L364.31 13.14Z" fill="white"/>
<path d="M375.99 9.52002V12.79C377.01 13.29 378.36 13.45 380.14 13.45C380.86 13.45 385.95 13.45 386.86 13.42C386.68 13.68 386.49 14.17 386.43 14.48H380.16C376.54 14.48 374.61 13.9 373.45 11.52C373.26 12.91 372.95 14.13 372.47 14.99C372.28 14.85 371.93 14.65 371.69 14.54C372.51 13.04 372.71 10.27 372.78 7.37002L374.04 7.55002C374.01 7.68002 373.91 7.73002 373.74 7.74002C373.71 8.35002 373.69 8.96002 373.64 9.56002C373.96 10.7 374.41 11.53 375.02 12.12V6.26002H371.88V5.28002H374.98V3.01002H372.32V2.03002H374.98V0.0200195L376.31 0.10002C376.29 0.21002 376.2 0.29002 375.99 0.32002V2.03002H378.57V3.01002H375.99V5.28002H378.89V6.02002C380.36 5.19002 381.15 3.70002 381.43 1.62002H379.05V0.67002H385.39L385.61 0.65002L386.19 0.71002C386.19 0.81002 386.17 0.930019 386.16 1.06002C386.02 4.07002 385.86 5.21002 385.49 5.60002C385.17 5.95002 384.9 6.00002 383.83 6.00002C383.53 6.00002 383.17 6.00002 382.81 5.98002C382.78 5.69002 382.68 5.29002 382.52 5.04002C383.22 5.10002 383.88 5.10002 384.12 5.10002C384.36 5.10002 384.52 5.08002 384.62 4.96002C384.84 4.70002 384.99 3.84002 385.12 1.60002H382.51C382.19 4.06002 381.2 5.86002 379.4 6.82002C379.26 6.66002 378.98 6.42002 378.74 6.24002H376V8.54002H378.58V9.50002H376L375.99 9.52002ZM385.8 12.71H384.78V11.92H380.62V12.72H379.61V6.95002H385.8V12.71ZM380.61 11H384.77V7.88002H380.61V11Z" fill="white"/>
<path d="M393.13 9.52002V12.82C394.17 13.3 395.51 13.44 397.24 13.44C397.91 13.44 402.81 13.44 403.69 13.41C403.51 13.67 403.32 14.16 403.26 14.47H397.24C393.61 14.47 391.57 13.88 390.36 11.38C390.15 12.61 389.78 13.83 389.14 14.85C388.98 14.63 388.64 14.32 388.4 14.21C389.58 12.26 389.74 9.51002 389.7 7.34002L390.92 7.40002C390.9 7.53002 390.81 7.61002 390.62 7.62002C390.62 8.20002 390.62 8.82002 390.57 9.48002C390.94 10.71 391.45 11.59 392.14 12.19V6.21002H388.75V5.23002H391.92V3.06002H389.39V2.08002H391.92V0.0200195L393.23 0.10002C393.21 0.21002 393.13 0.29002 392.93 0.32002V2.08002H395.41V3.06002H392.93V5.24002H395.75V6.22002H393.14V8.56002H395.54V9.54002H393.14L393.13 9.52002ZM394.92 10.72C395.27 10.56 395.69 10.38 396.14 10.18V2.90002H399.12C399.07 1.97002 399.04 1.00002 399.02 0.0300195L400.38 0.0900195C400.36 0.22002 400.27 0.30002 400.06 0.31002C400.06 1.17002 400.08 2.04002 400.12 2.89002H403.58V3.84002H400.17C400.3 5.57002 400.51 7.17002 400.79 8.43002C401.38 7.36002 401.88 6.14002 402.2 4.84002L403.32 5.32002C403.29 5.42002 403.19 5.46002 403.02 5.46002C402.59 6.95002 401.95 8.39002 401.15 9.62002C401.5 10.65 401.93 11.25 402.43 11.25C402.77 11.25 402.94 10.51 402.99 8.82002C403.21 9.03002 403.53 9.25002 403.77 9.35002C403.59 11.59 403.26 12.28 402.33 12.28C401.56 12.28 400.95 11.64 400.47 10.57C399.93 11.27 399.33 11.9 398.71 12.41C398.57 12.25 398.25 11.96 398.02 11.8C398.77 11.21 399.48 10.46 400.08 9.56002C399.63 8.06002 399.33 6.04002 399.17 3.83002H397.11V9.70002C397.78 9.38002 398.49 9.03002 399.19 8.69002L399.38 9.52002C397.97 10.26 396.51 11.04 395.55 11.51C395.55 11.64 395.49 11.73 395.39 11.78L394.91 10.71L394.92 10.72ZM401.57 0.18002C402.19 0.77002 402.91 1.59002 403.24 2.13002L402.44 2.61002C402.14 2.05002 401.43 1.20002 400.82 0.59002L401.57 0.17002V0.18002Z" fill="white"/>
<path d="M408.54 11.09C409.24 10.91 409.96 10.74 410.69 10.55L410.79 11.49C409.04 11.99 407.22 12.48 406.07 12.79C406.05 12.92 405.97 13.01 405.86 13.03L405.46 11.83C406.04 11.7 406.74 11.54 407.52 11.35V7.17004H405.87V6.16004H407.52V2.61004H405.65V1.58004H410.45V2.60004H408.55V6.15004H410.21V7.16004H408.55V11.08L408.54 11.09ZM413.74 12.13C413.69 12.23 413.56 12.27 413.4 12.26C412.68 13.11 411.51 14.01 410.45 14.58C410.29 14.37 409.95 14.07 409.73 13.89C410.74 13.39 411.89 12.56 412.55 11.68L413.73 12.13H413.74ZM420.24 6.11004V7.02004H410.52V6.11004H414.78V5.02004H411.58V0.670044H419.18V5.03004H416.19C416.16 5.14004 416.08 5.19004 415.87 5.22004V6.12004H420.24V6.11004ZM419.06 11.2H415.87V13.79C415.87 14.86 415.45 14.89 413.23 14.89C413.18 14.6 413.05 14.27 412.91 13.99C413.39 14.01 413.81 14.02 414.11 14.02C414.8 14.02 414.83 14 414.83 13.78V11.19H411.74V7.93004H419.06V11.19V11.2ZM412.58 1.42004V2.48004H418.17V1.42004H412.58ZM412.58 3.20004V4.27004H418.17V3.20004H412.58ZM412.76 8.72004V10.42H418.03V8.72004H412.76ZM419.45 14.5C418.95 13.84 417.88 12.85 416.97 12.18L417.79 11.68C418.69 12.32 419.79 13.28 420.32 13.94L419.46 14.5H419.45Z" fill="white"/>
<path d="M426.78 5.04003H427.53C428.54 3.78003 429.4 2.35003 430.07 0.800029L431.29 1.22003C431.24 1.33003 431.1 1.40003 430.91 1.38003C430.32 2.69003 429.6 3.92003 428.76 5.05003H430.84V6.01003H427.99C427.46 6.65003 426.89 7.24003 426.28 7.79003H430.03V14.67H429.01V14.03H425.2V14.96H424.19V9.42003C423.76 9.71003 423.31 9.96003 422.85 10.22C422.71 10.01 422.42 9.61003 422.23 9.40003C422.92 9.05003 423.57 8.65003 424.2 8.20003V7.78003H424.78C425.45 7.25003 426.11 6.64003 426.72 6.00003H422.46V5.04003H425.77V2.88003H423.19V1.92003H425.77V0.0300293L427.1 0.110029C427.08 0.220029 427 0.300029 426.8 0.330029V1.92003H428.88V2.88003H426.8V5.04003H426.78ZM429.01 10.45V8.69003H425.2V10.45H429.01ZM425.2 13.11H429.01V11.33H425.2V13.11ZM431.47 0.960029H436.32C436.5 0.910029 436.51 0.910029 436.54 0.910029C436.62 0.960029 436.7 1.02003 437.24 1.26003C437.22 1.32003 437.16 1.39003 437.1 1.42003C436.51 2.80003 435.68 4.54003 434.83 6.25003C436.51 7.90003 437.22 9.13003 437.22 10.3C437.22 12.84 435.54 12.84 434.48 12.84C434.22 12.84 433.98 12.84 433.74 12.82C433.72 12.52 433.58 12.05 433.37 11.75C433.8 11.78 434.23 11.8 434.59 11.8C435.29 11.8 436.14 11.8 436.14 10.26C436.14 9.20003 435.39 8.07003 433.68 6.43003C434.43 4.81003 435.12 3.28003 435.65 1.96003H432.53V14.9H431.47V0.960029Z" fill="white"/>
<path d="M441.63 2.77C441.93 1.95 442.25 0.83 442.41 0.02L443.79 0.36C443.74 0.47 443.65 0.52 443.44 0.52C443.26 1.18 442.94 2.07 442.64 2.78H445.33V12.29H440.94V13.62H439.93V2.77H441.63ZM444.3 6.96V3.76H440.94V6.96H444.3ZM440.94 11.3H444.3V7.92H440.94V11.3ZM453.06 2.8L453.62 2.83C453.6 2.91 453.6 3.07 453.6 3.18C453.38 10.93 453.17 13.49 452.54 14.26C452.14 14.8 451.71 14.9 450.59 14.9C450.06 14.9 449.41 14.88 448.75 14.84C448.72 14.54 448.59 14.09 448.4 13.81C449.54 13.89 450.56 13.89 451.01 13.89C451.27 13.89 451.44 13.83 451.6 13.65C452.11 13.09 452.35 10.59 452.54 3.81H448.04C447.53 5.22 446.9 6.5 446.2 7.46C446.02 7.27 445.64 6.92 445.4 6.75C446.54 5.23 447.47 2.6 448.01 0L449.37 0.32C449.32 0.46 449.19 0.51 449.02 0.5C448.84 1.27 448.64 2.05 448.38 2.8H453.05H453.06ZM448.51 6.19C449.44 7.44 450.38 9.09 450.72 10.18L449.74 10.64C449.4 9.55 448.51 7.85 447.58 6.61L448.51 6.19Z" fill="white"/>
<path d="M462.16 10.93C462.11 11.03 462.02 11.09 461.79 11.06C460.75 12.36 458.81 13.93 457.1 14.92C456.89 14.7 456.49 14.33 456.24 14.15C457.95 13.22 459.87 11.73 460.82 10.4L462.16 10.93ZM459.06 9.25002V9.84002H457.99V1.15002H469.1V9.76003H468V9.25002H459.07H459.06ZM467.99 2.19002H459.06V8.21002H467.99V2.19002ZM469.45 14.93C468.51 13.84 466.54 12.18 464.92 11.01L465.77 10.43C467.37 11.55 469.39 13.17 470.38 14.27L469.45 14.93Z" fill="white"/>
<path d="M487.18 3.20003H478.46C478.16 3.87003 477.82 4.53003 477.45 5.17003H485.18V13.49C485.18 14.85 484.54 14.88 481.67 14.88C481.62 14.58 481.46 14.11 481.3 13.81C481.86 13.83 482.39 13.83 482.82 13.83C483.97 13.83 484.1 13.83 484.1 13.48V11.66H477.33V14.89H476.26V6.96003C475.44 8.05003 474.5 9.02003 473.39 9.83003C473.23 9.59003 472.89 9.19003 472.67 8.96003C474.65 7.57003 476.18 5.45003 477.22 3.20003H473.01V2.16003H477.67C477.96 1.46003 478.18 0.740029 478.37 0.0300293L479.76 0.380029C479.73 0.490029 479.6 0.560029 479.41 0.560029C479.25 1.09003 479.07 1.62003 478.87 2.16003H487.18V3.20003ZM484.11 7.94003V6.15003H477.34V7.94003H484.11ZM477.34 10.71H484.11V8.88003H477.34V10.71Z" fill="white"/>
<path d="M492.49 11.09C493.19 10.91 493.91 10.74 494.63 10.55L494.73 11.49C492.98 11.99 491.16 12.48 490.01 12.79C489.99 12.92 489.91 13.01 489.8 13.03L489.4 11.83C489.98 11.7 490.68 11.54 491.46 11.35V7.17004H489.81V6.16004H491.46V2.61004H489.59V1.58004H494.39V2.60004H492.49V6.15004H494.15V7.16004H492.49V11.08V11.09ZM497.69 12.13C497.64 12.23 497.51 12.27 497.35 12.26C496.63 13.11 495.46 14.01 494.4 14.58C494.24 14.37 493.9 14.07 493.68 13.89C494.69 13.39 495.84 12.56 496.5 11.68L497.68 12.13H497.69ZM504.19 6.11004V7.02004H494.47V6.11004H498.73V5.02004H495.53V0.670044H503.13V5.03004H500.14C500.11 5.14004 500.03 5.19004 499.82 5.22004V6.12004H504.19V6.11004ZM503.01 11.2H499.83V13.79C499.83 14.86 499.41 14.89 497.19 14.89C497.14 14.6 497.01 14.27 496.87 13.99C497.35 14.01 497.77 14.02 498.07 14.02C498.76 14.02 498.79 14 498.79 13.78V11.19H495.7V7.93004H503.01V11.19V11.2ZM496.53 1.42004V2.48004H502.12V1.42004H496.53ZM496.53 3.20004V4.27004H502.12V3.20004H496.53ZM496.71 8.72004V10.42H501.98V8.72004H496.71ZM503.4 14.5C502.9 13.84 501.83 12.85 500.92 12.18L501.74 11.68C502.64 12.32 503.74 13.28 504.27 13.94L503.41 14.5H503.4Z" fill="white"/>
<path d="M510.72 5.04003H511.47C512.48 3.78003 513.34 2.35003 514.01 0.800029L515.23 1.22003C515.18 1.33003 515.04 1.40003 514.85 1.38003C514.26 2.69003 513.54 3.92003 512.7 5.05003H514.78V6.01003H511.93C511.4 6.65003 510.83 7.24003 510.22 7.79003H513.97V14.67H512.95V14.03H509.14V14.96H508.13V9.42003C507.7 9.71003 507.25 9.96003 506.79 10.22C506.65 10.01 506.36 9.61003 506.17 9.40003C506.86 9.05003 507.51 8.65003 508.14 8.20003V7.78003H508.72C509.39 7.25003 510.05 6.64003 510.66 6.00003H506.4V5.04003H509.71V2.88003H507.13V1.92003H509.71V0.0300293L511.04 0.110029C511.02 0.220029 510.94 0.300029 510.74 0.330029V1.92003H512.82V2.88003H510.74V5.04003H510.72ZM512.95 10.45V8.69003H509.14V10.45H512.95ZM509.14 13.11H512.95V11.33H509.14V13.11ZM515.41 0.960029H520.26C520.44 0.910029 520.45 0.910029 520.48 0.910029C520.56 0.960029 520.64 1.02003 521.18 1.26003C521.16 1.32003 521.1 1.39003 521.04 1.42003C520.45 2.80003 519.62 4.54003 518.77 6.25003C520.45 7.90003 521.16 9.13003 521.16 10.3C521.16 12.84 519.48 12.84 518.42 12.84C518.16 12.84 517.92 12.84 517.68 12.82C517.66 12.52 517.52 12.05 517.31 11.75C517.74 11.78 518.17 11.8 518.53 11.8C519.23 11.8 520.08 11.8 520.08 10.26C520.08 9.20003 519.33 8.07003 517.62 6.43003C518.37 4.81003 519.06 3.28003 519.59 1.96003H516.47V14.9H515.41V0.960029Z" fill="white"/>
<path d="M527.35 12.66C527.35 13.89 526.34 14.9 525.11 14.9C523.88 14.9 522.87 13.89 522.87 12.66C522.87 11.43 523.88 10.42 525.11 10.42C526.34 10.42 527.35 11.46 527.35 12.66ZM526.77 12.66C526.77 11.73 526.03 11 525.11 11C524.19 11 523.46 11.74 523.46 12.66C523.46 13.58 524.2 14.31 525.11 14.31C526.07 14.31 526.77 13.54 526.77 12.66Z" fill="white"/>
<path d="M2.24 32.8301C2.19 32.9301 2.1 32.9901 1.92 32.9901C1.7 34.3501 1.3 35.8901 0.78 36.8301C0.59 36.6901 0.24 36.5301 0 36.4101C0.48 35.5101 0.83 33.9901 1.06 32.5201L2.24 32.8201V32.8301ZM5.6 32.3001C5.52 32.0101 5.41 31.6901 5.26 31.3201L3.88 31.4001V38.2201H2.9V31.4501C2.04 31.5001 1.27 31.5301 0.64 31.5501C0.61 31.6801 0.51 31.7401 0.4 31.7701L0.13 30.5701L1.14 30.5501C1.51 30.1001 1.91 29.5601 2.32 28.9801C1.79 28.2601 0.93 27.3101 0.16 26.6301L0.7 25.9301C0.86 26.0701 1.04 26.2201 1.2 26.3801C1.76 25.4501 2.37 24.2001 2.72 23.3101L3.86 23.7901C3.81 23.8901 3.7 23.9301 3.52 23.9301C3.1 24.8301 2.42 26.0901 1.82 26.9701C2.22 27.3901 2.59 27.8001 2.86 28.1701C3.55 27.1301 4.2 26.0201 4.67 25.1301L5.79 25.6601C5.74 25.7401 5.61 25.8001 5.44 25.8001C4.61 27.1901 3.3 29.1301 2.14 30.5401L4.88 30.4901C4.62 29.9501 4.34 29.3901 4.03 28.9101L4.83 28.5701C5.52 29.6301 6.19 31.0301 6.43 31.9001L5.58 32.3001H5.6ZM5.62 35.9301C5.48 35.0701 5.03 33.7401 4.58 32.7501L5.4 32.4801C5.9 33.4901 6.34 34.7901 6.52 35.6301L5.62 35.9301ZM8.08 36.1201C8.08 36.7901 8.27 36.9501 9.31 36.9501H13.1C13.98 36.9501 14.12 36.5801 14.22 34.8101C14.48 34.9901 14.88 35.1601 15.16 35.2101C15 37.3101 14.66 37.9201 13.13 37.9201H9.27C7.57 37.9201 7.08 37.5701 7.08 36.1301V29.2201C6.81 29.4301 6.5 29.6201 6.2 29.7801C6.07 29.5401 5.78 29.1901 5.59 29.0301C7.21 28.2001 8.3 26.7101 8.79 25.1601H6.21V24.2001H13.11L13.33 24.1701L13.91 24.3001C13.89 24.4001 13.88 24.5101 13.85 24.6001C13.51 28.2701 13.23 28.2701 11.75 28.2701C11.45 28.2701 11.08 28.2501 10.73 28.2401C10.7 27.9701 10.6 27.6001 10.46 27.3401C11.08 27.4001 11.66 27.4001 11.88 27.4001C12.1 27.4001 12.22 27.3801 12.34 27.2901C12.53 27.0801 12.68 26.5201 12.8 25.1601H9.85C9.51 26.3001 8.87 27.4801 7.93 28.4601H14.43V33.7301H13.44V33.0901H8.06V36.1501L8.08 36.1201ZM10.24 29.4101H8.08V32.1001H10.24V29.4101ZM13.46 32.1001V29.4101H11.19V32.1001H13.46Z" fill="white"/>
<path d="M19.65 29.05V26.73C19.14 27.32 18.58 27.87 18.03 28.31C17.84 28.1 17.47 27.8 17.23 27.64C18.54 26.65 19.89 24.98 20.69 23.29L21.95 23.74C21.9 23.84 21.79 23.9 21.6 23.87C21.38 24.32 21.1 24.77 20.82 25.2H31.22V26.18H29.51V29.06H31.85V30.04H29.51V32.95H31.61V33.93H17.62V32.95H19.65V30.04H17.38V29.06H19.65V29.05ZM20.32 34.94C19.9 36.14 19.15 37.42 18.26 38.19L17.27 37.76C18.13 37.09 18.9 35.85 19.32 34.67L20.33 34.94H20.32ZM20.64 26.17V29.05H22.56V26.17H20.64ZM20.64 30.03V32.94H22.56V30.03H20.64ZM22.46 38.03C22.44 37.28 22.32 36.03 22.12 35.07L23.1 34.97C23.32 35.91 23.5 37.15 23.52 37.87L22.46 38.03ZM25.5 26.17H23.5V29.05H25.5V26.17ZM25.5 30.03H23.5V32.94H25.5V30.03ZM26.44 38.05C26.3 37.28 25.86 36.02 25.43 35.07L26.44 34.88C26.89 35.81 27.34 37.06 27.5 37.81L26.44 38.05ZM28.49 29.05V26.17H26.44V29.05H28.49ZM28.49 32.94V30.03H26.44V32.94H28.49ZM30.94 38.21C30.54 37.35 29.6 35.95 28.78 34.96L29.77 34.61C30.6 35.59 31.56 36.93 31.99 37.81L30.93 38.21H30.94Z" fill="white"/>
<path d="M36.11 29.01C35.53 29.99 34.93 30.88 34.29 31.63C34.16 31.37 33.91 30.86 33.73 30.62C35.2 28.95 36.64 26.17 37.54 23.4L38.8 23.82C38.77 23.93 38.64 24 38.45 23.98C38.07 25.05 37.62 26.13 37.11 27.15L37.48 27.26C37.46 27.36 37.37 27.44 37.16 27.47V38.19H36.12V29L36.11 29.01ZM44.27 36.85H49.02V37.75H38.41V36.85H43.21V35.41H39.42V34.55H43.21V33.24H39.1V32.36H43.21V31.21H39.42V27.45H48.18V31.21H44.27V32.36H48.46V33.24H44.27V34.55H48.21V35.41H44.27V36.85ZM38.8 24.91H41.25V23.37L42.56 23.45C42.54 23.56 42.46 23.64 42.26 23.66V24.91H45.27V23.36L46.6 23.46C46.58 23.56 46.5 23.64 46.3 23.67V24.92H48.91V25.85H46.3V27H45.28V25.85H42.27V27.02H41.26V25.85H38.81V24.92L38.8 24.91ZM40.43 30.34H43.22V28.31H40.43V30.34ZM47.14 30.34V28.31H44.27V30.34H47.14Z" fill="white"/>
<path d="M65.6199 26.4799H56.8999C56.5999 27.1499 56.2599 27.8099 55.8899 28.4499H63.6199V36.7699C63.6199 38.1299 62.9799 38.1599 60.1099 38.1599C60.0599 37.8599 59.8999 37.3899 59.7399 37.0899C60.2999 37.1099 60.8299 37.1099 61.2599 37.1099C62.4099 37.1099 62.5399 37.1099 62.5399 36.7599V34.9299H55.7699V38.1599H54.6999V30.2399C53.8799 31.3299 52.9399 32.2999 51.8299 33.1099C51.6699 32.8699 51.3299 32.4699 51.1099 32.2499C53.0899 30.8599 54.6199 28.7399 55.6599 26.4899H51.4499V25.4499H56.1099C56.3999 24.7499 56.6199 24.0299 56.8099 23.3199L58.1999 23.6699C58.1699 23.7799 58.0399 23.8499 57.8499 23.8499C57.6899 24.3799 57.5099 24.9099 57.3099 25.4499H65.6199V26.4899V26.4799ZM62.5499 31.2199V29.4299H55.7799V31.2199H62.5499ZM55.7799 33.9899H62.5499V32.1599H55.7799V33.9899Z" fill="white"/>
<path d="M70.4202 26.05C70.7202 25.23 71.0402 24.11 71.2002 23.3L72.5802 23.64C72.5302 23.75 72.4402 23.8 72.2302 23.8C72.0502 24.46 71.7302 25.35 71.4302 26.06H74.1202V35.5801H69.7302V36.91H68.7202V26.06H70.4202V26.05ZM73.0902 30.24V27.0401H69.7302V30.24H73.0902ZM69.7302 34.5801H73.0902V31.2001H69.7302V34.5801ZM81.8502 26.08L82.4102 26.1101C82.3902 26.1901 82.3902 26.35 82.3902 26.46C82.1702 34.21 81.9602 36.7701 81.3302 37.5401C80.9302 38.0901 80.5002 38.18 79.3802 38.18C78.8502 38.18 78.2002 38.16 77.5402 38.12C77.5102 37.82 77.3802 37.37 77.1902 37.1C78.3302 37.18 79.3502 37.18 79.8002 37.18C80.0602 37.18 80.2302 37.12 80.3902 36.94C80.9002 36.38 81.1402 33.8801 81.3302 27.1H76.8302C76.3202 28.51 75.6902 29.79 74.9902 30.75C74.8102 30.56 74.4302 30.21 74.1902 30.05C75.3302 28.53 76.2502 25.9 76.8002 23.3L78.1602 23.6201C78.1102 23.7601 77.9802 23.81 77.8102 23.8C77.6302 24.57 77.4302 25.35 77.1702 26.1H81.8402L81.8502 26.08ZM77.3002 29.47C78.2302 30.72 79.1702 32.37 79.5102 33.46L78.5302 33.92C78.1902 32.83 77.3002 31.13 76.3702 29.89L77.3002 29.47Z" fill="white"/>
<path d="M91.26 36.82H90V33.46H84.77V32.61L89.89 24.83H91.27V32.43H92.9V33.45H91.27V36.81L91.26 36.82ZM86.11 32.44H90V28.18C90 27.52 90.03 26.88 90.06 26.26H90C89.63 27 89.34 27.51 89.04 28.05L86.11 32.4V32.43V32.44Z" fill="white"/>
<path d="M98.3801 36.82V26.08H98.3501L96.3801 27.22L96.0601 26.23L98.5401 24.84H99.6801V36.83H98.3801V36.82Z" fill="white"/>
<path d="M110.81 36.82H109.55V33.46H104.32V32.61L109.44 24.83H110.82V32.43H112.45V33.45H110.82V36.81L110.81 36.82ZM105.66 32.44H109.55V28.18C109.55 27.52 109.58 26.88 109.61 26.26H109.55C109.18 27 108.89 27.51 108.59 28.05L105.66 32.4V32.43V32.44Z" fill="white"/>
<path d="M114.78 24.83H121.81V25.68L116.8 36.82H115.44L120.45 25.97V25.94H114.78V24.84V24.83Z" fill="white"/>
<path d="M127.43 28.3299V33.4699C128.17 33.2299 128.92 32.9699 129.67 32.7299L129.83 33.6699C127.97 34.3599 126 35.0799 124.74 35.4899C124.74 35.6299 124.64 35.7299 124.55 35.7599L124.02 34.5299C124.68 34.3399 125.49 34.0799 126.39 33.7899V28.3199H124.29V27.2799H126.39V23.4399L127.75 23.5199C127.73 23.6299 127.65 23.7099 127.43 23.7399V27.2799H129.48V28.3199H127.43V28.3299ZM139 31.2299V32.2499H134.6V38.1699H133.54V32.2499H128.98V31.2299H133.54V25.1799H129.55V24.1699H138.56V25.1799H134.59V31.2299H138.99H139ZM131.25 30.5599C131.12 29.4399 130.63 27.7299 130.07 26.4299L130.98 26.1599C131.59 27.4699 132.08 29.1499 132.23 30.2699L131.25 30.5599ZM138.39 26.5699C138.36 26.6699 138.23 26.6999 138.05 26.6999C137.7 27.8699 137.09 29.5799 136.58 30.6699C136.56 30.6499 135.76 30.3299 135.76 30.3299C136.26 29.2099 136.85 27.3699 137.15 26.0999L138.38 26.5599L138.39 26.5699Z" fill="white"/>
<path d="M144.22 33.2001L146.08 32.4601L146.29 33.3901C144.63 34.1601 142.85 34.9101 141.73 35.3901C141.73 35.5201 141.67 35.6101 141.55 35.6601L140.99 34.4401C141.6 34.2301 142.37 33.9301 143.2 33.6101V28.3001H141.26V27.2801H143.2V23.4501L144.54 23.5501C144.52 23.6601 144.43 23.7301 144.22 23.7601V27.2801H146.03V28.3001H144.22V33.2001ZM148.41 35.7601C148.41 36.6401 148.62 36.8501 149.74 36.8501H153.82C154.78 36.8501 154.94 36.4001 155.07 34.4801C155.33 34.6701 155.74 34.8501 156.05 34.9101C155.87 37.1201 155.52 37.8201 153.84 37.8201H149.71C147.9 37.8201 147.39 37.4201 147.39 35.7401V30.3501L145.77 31.0401L145.35 30.0801L147.38 29.2201V24.8301L148.72 24.9301C148.7 25.0401 148.61 25.1201 148.4 25.1501V28.7701L150.72 27.7801V23.3101L152.05 23.3901C152.03 23.5001 151.95 23.5801 151.75 23.6101V27.3401L154.31 26.2401L154.53 26.0601L155.41 26.3801C155.39 26.4401 155.33 26.5101 155.25 26.5601C155.25 29.6001 155.2 32.1301 155.07 32.7401C154.93 33.7201 154.38 33.8801 152.68 33.8801C152.63 33.5801 152.55 33.1801 152.42 32.9201C152.82 32.9501 153.38 32.9501 153.56 32.9501C153.82 32.9501 153.99 32.8701 154.07 32.4901C154.17 32.0901 154.2 30.1101 154.2 27.4201L151.73 28.4801V34.6301H150.71V28.9301L148.39 29.9201V35.7801L148.41 35.7601Z" fill="white"/>
<path d="M165.98 36.43H172.73V37.5H158.21V36.43H164.84V31.29H159.75V30.23H164.84V25.52H159.06V24.46H171.87V25.52H165.98V30.23H171.33V31.29H165.98V36.43Z" fill="white"/>
<path d="M188.35 30.54H183.98C184.92 33.8 186.83 36.25 189.95 37.23C189.69 37.47 189.36 37.92 189.2 38.22C185.85 37 183.9 34.31 182.89 30.54H178.55C178.39 33.1 177.78 36.09 175.81 38.22C175.65 38 175.22 37.61 174.98 37.47C177.29 34.96 177.51 31.42 177.51 28.75V24.28H188.35V30.54ZM178.6 25.34V29.49H187.26V25.34H178.6Z" fill="white"/>
<path d="M206.71 25.9501H194.3V29.66C194.3 32.16 194.11 35.7901 192.7 38.2401C192.52 38.0501 192.08 37.7401 191.82 37.6301C193.15 35.3101 193.26 32.01 193.26 29.66V24.9501H199.29V23.3L200.71 23.4C200.69 23.51 200.61 23.5901 200.39 23.6201V24.9501H206.7V25.9401L206.71 25.9501ZM204.57 32.53L205.29 32.8801C205.26 32.9601 205.19 33.0101 205.13 33.0401C204.39 34.3701 203.26 35.39 201.86 36.16C203.33 36.72 205.03 37.09 206.85 37.2701C206.61 37.51 206.35 37.93 206.21 38.21C204.19 37.94 202.32 37.4601 200.72 36.7201C198.99 37.4701 196.97 37.92 194.91 38.18C194.83 37.91 194.62 37.51 194.45 37.2701C196.26 37.0801 198.07 36.7201 199.65 36.1501C198.55 35.4901 197.65 34.69 196.98 33.73L197.65 33.4701H195.11V32.57H204.38L204.57 32.5201V32.53ZM203.72 31.41H197.59V28.75H194.98V27.85H197.59V26.38L198.93 26.48C198.91 26.59 198.82 26.6701 198.61 26.6901V27.8601H202.66V26.39L204.04 26.49C204.02 26.6 203.93 26.6801 203.72 26.7001V27.8701H206.62V28.7701H203.72V31.43V31.41ZM197.97 33.48C198.63 34.38 199.59 35.1 200.76 35.69C201.93 35.11 202.92 34.39 203.63 33.48H197.98H197.97ZM202.66 28.76H198.61V30.55H202.66V28.76Z" fill="white"/>
<path d="M222.08 26.33L222.98 26.8601C222.93 26.9401 222.82 26.9901 222.74 27.0201C220.93 29.97 217.46 33.6301 214.29 35.8101C215.67 36.6401 217.52 36.8301 219.7 36.8301C220.21 36.8301 223.13 36.8301 223.83 36.8101C223.67 37.0701 223.48 37.56 223.43 37.87H219.65C216.05 37.87 213.52 37.3101 211.95 34.8101C211.37 35.8301 210.7 36.91 210.08 37.71C210.11 37.77 210.13 37.8401 210.13 37.9001C210.13 37.9801 210.1 38.04 210.03 38.12L208.88 37.3801C210.03 36.0701 211.33 33.96 212.02 32.35L213.01 32.78C212.87 33.08 212.69 33.4401 212.51 33.7901C212.75 34.3201 213.07 34.75 213.42 35.1C216.24 33.24 219.34 30.04 221.07 27.43H209.72V26.3701H215.77V23.3L217.18 23.4C217.16 23.51 217.08 23.5901 216.86 23.6201V26.3701H221.85L222.07 26.31L222.08 26.33Z" fill="white"/>
<path d="M225.9 29.6901C227.15 29.3101 229.05 28.67 230.93 28.06L231.11 28.92C229.45 29.53 227.68 30.1501 226.58 30.5201C226.56 30.6501 226.5 30.7401 226.39 30.7801L225.91 29.6901H225.9ZM235.89 26.17C235.89 26.86 236.34 29.4001 240.8 30.4401C240.61 30.66 240.35 31.1 240.21 31.32C236.78 30.47 235.62 28.53 235.36 27.51C235.17 28.29 234.43 29.6501 232.43 30.6201L232.88 30.75C232.83 30.88 232.74 30.93 232.51 30.89C232.25 31.31 231.95 31.75 231.65 32.23H240.66V33.17H237.25C236.79 34.18 236.13 35.01 235.27 35.68C237.19 36.1901 238.9 36.74 240.2 37.25L239.54 38.1501C238.15 37.5601 236.27 36.9601 234.18 36.4001C232.37 37.3801 229.91 37.92 226.62 38.18C226.56 37.8601 226.36 37.4601 226.19 37.2001C228.91 37.0401 231.04 36.6901 232.66 36.0201C231.64 35.7801 230.56 35.5401 229.47 35.3301L229.09 35.84L228.1 35.4701C228.58 34.8501 229.17 34.03 229.78 33.17H225.97V32.23H230.42C230.66 31.86 230.9 31.48 231.14 31.13L230.47 31.32C230.37 31.08 230.1 30.71 229.89 30.5C234.45 29.43 234.79 26.87 234.79 26.16V25.84H232.85C232.37 26.69 231.83 27.4401 231.23 28.0201C231.05 27.83 230.7 27.56 230.46 27.41C231.45 26.48 232.36 24.9 232.89 23.3L234.12 23.67C234.07 23.78 233.94 23.83 233.78 23.81C233.64 24.19 233.48 24.5801 233.3 24.9501H239.43L239.64 24.93L240.28 24.99C240.28 24.99 240.25 25.15 240.23 25.18C239.86 26.12 239.33 27.28 238.89 28L237.98 27.68C238.25 27.2 238.56 26.51 238.83 25.84H235.88V26.16L235.89 26.17ZM227.12 23.74C228.22 24.14 229.63 24.84 230.32 25.4L229.76 26.23C229.09 25.65 227.71 24.92 226.58 24.47L227.12 23.73V23.74ZM230.07 34.5401C231.38 34.7801 232.69 35.07 233.96 35.37C234.86 34.79 235.54 34.0701 236.02 33.18H231.01L230.07 34.5401Z" fill="white"/>
<path d="M243.18 38.34C243.44 37.54 243.76 35.96 243.88 34.93L245.61 34.71C245.27 35.93 244.6 37.59 244.23 38.21L243.17 38.34H243.18Z" fill="white"/>
<path d="M257.25 29.33L257.81 29.36C257.81 29.46 257.81 29.6 257.79 29.73C257.66 35.28 257.57 37.11 257.13 37.65C256.76 38.18 256.33 38.18 255.56 38.18C255.22 38.18 254.82 38.16 254.42 38.15C254.39 37.85 254.29 37.41 254.12 37.14C254.84 37.2 255.5 37.2 255.8 37.2C255.99 37.2 256.1 37.15 256.22 36.99C256.51 36.62 256.64 34.97 256.75 30.33H254.6C254.41 33.39 253.93 36.3 252.5 38.19C252.32 37.97 251.96 37.65 251.68 37.49C253.41 35.23 253.62 31.07 253.68 27.01H251.84V25.99H254.77V23.35L256.16 23.43C256.14 23.54 256.05 23.62 255.84 23.65V25.99H258.85V27.01H254.72C254.7 27.78 254.69 28.56 254.66 29.33H257.24H257.25ZM263.14 23.37C263.11 23.48 263.01 23.56 262.88 23.59C263.7 25.75 265.22 28.06 266.75 29.21C266.54 29.5 266.32 29.91 266.16 30.25C264.54 28.91 263.07 26.65 262.29 24.55C261.63 26.57 260.21 28.89 258.53 30.28C258.42 29.99 258.16 29.56 257.99 29.32C259.62 28.01 261.11 25.53 261.72 23.28L263.14 23.36V23.37ZM264.77 38.18C263.63 37.08 261.25 35.57 259.26 34.64L259.9 33.82C261.88 34.7 264.3 36.14 265.47 37.23L264.77 38.18ZM261.26 29.58C262.38 30.25 263.71 31.26 264.33 32.01L263.58 32.78C262.97 32.03 261.68 30.97 260.55 30.27L261.25 29.58H261.26Z" fill="white"/>
<path d="M279.54 24.6701H283.33V25.6101H279.54V26.5201H278.48V25.6101H273.82V26.5201H272.76V25.6101H269.08V24.6701H272.76V23.3101L274.12 23.3901C274.1 23.5001 274.02 23.5801 273.82 23.6101V24.6701H278.48V23.3101L279.84 23.3901C279.82 23.5001 279.74 23.5801 279.54 23.6101V24.6701ZM282.55 32.5301V37.0401C282.55 38.1301 282.09 38.1601 279.89 38.1601C279.84 37.8901 279.71 37.5401 279.57 37.2601C280.37 37.2801 281.04 37.2801 281.24 37.2801C281.45 37.2601 281.5 37.2201 281.5 37.0201V33.4701H276.68V35.3401L278.84 35.2401C278.58 34.8401 278.31 34.4601 278.02 34.1001L278.82 33.8101C279.57 34.6701 280.34 35.8701 280.6 36.6901L279.74 36.9901C279.64 36.7001 279.5 36.3801 279.32 36.0301C276.82 36.2101 274.2 36.3501 272.55 36.4301C272.52 36.5601 272.44 36.6201 272.33 36.6501L271.93 35.4701C272.92 35.4401 274.22 35.4101 275.64 35.3601V33.4501H270.97V38.1701H269.95V32.5001H275.65V31.6301H271.14V26.7601H281.4V31.6301H276.69V32.5001H282.56L282.55 32.5301ZM272.15 27.5801V28.8301H275.64V27.5801H272.15ZM272.15 30.8601H275.64V29.6001H272.15V30.8601ZM280.33 28.8301V27.5801H276.68V28.8301H280.33ZM280.33 30.8601V29.6001H276.68V30.8601H280.33Z" fill="white"/>
<path d="M289.04 28.3299V33.4699C289.78 33.2299 290.53 32.9699 291.28 32.7299L291.44 33.6699C289.58 34.3599 287.61 35.0799 286.35 35.4899C286.35 35.6299 286.25 35.7299 286.16 35.7599L285.63 34.5299C286.29 34.3399 287.1 34.0799 288 33.7899V28.3199H285.9V27.2799H288V23.4399L289.36 23.5199C289.34 23.6299 289.26 23.7099 289.04 23.7399V27.2799H291.09V28.3199H289.04V28.3299ZM300.61 31.2299V32.2499H296.21V38.1699H295.15V32.2499H290.59V31.2299H295.15V25.1799H291.16V24.1699H300.17V25.1799H296.2V31.2299H300.6H300.61ZM292.86 30.5599C292.73 29.4399 292.24 27.7299 291.68 26.4299L292.59 26.1599C293.2 27.4699 293.69 29.1499 293.84 30.2699L292.86 30.5599ZM300 26.5699C299.97 26.6699 299.84 26.6999 299.66 26.6999C299.31 27.8699 298.7 29.5799 298.19 30.6699C298.17 30.6499 297.37 30.3299 297.37 30.3299C297.87 29.2099 298.46 27.3699 298.76 26.0999L299.99 26.5599L300 26.5699Z" fill="white"/>
<path d="M311.13 25.4501H317.44V26.4701H305.07V29.6701C305.07 32.1301 304.86 35.7401 303.49 38.1901C303.3 38.0001 302.82 37.6901 302.56 37.5701C303.87 35.2501 304 32.0001 304 29.6801V25.4501H310.03V23.3101L311.45 23.4101C311.43 23.5201 311.35 23.6001 311.13 23.6301V25.4601V25.4501ZM311.98 26.9401C311.96 27.0501 311.88 27.1301 311.66 27.1601V28.8601H317.21V29.8401H311.66V32.2901H316.09V38.1701H315V37.5601H307.7V38.2201H306.64V32.3001H310.58V26.8601L311.97 26.9601L311.98 26.9401ZM315.01 36.5701V33.2601H307.71V36.5701H315.01Z" fill="white"/>
<path d="M334.44 30.59V31.66H327.67V36.73C327.67 37.5 327.46 37.82 326.89 38.01C326.31 38.19 325.27 38.2 323.69 38.2C323.61 37.88 323.42 37.4 323.23 37.08C324.08 37.11 324.88 37.13 325.44 37.13C326.45 37.13 326.58 37.13 326.58 36.71V31.65H319.78V30.58H326.58V27.96L327.2 27.99C328.46 27.33 329.84 26.39 330.87 25.51H321.44V24.45H332.07L332.26 24.37L333.22 25.01C333.17 25.09 333.04 25.12 332.95 25.15C331.64 26.4 329.51 27.9 327.68 28.85V30.58H334.45L334.44 30.59Z" fill="white"/>
<path d="M338.82 28.49H336.79L336.68 28.01H338.82V23.4L339.65 23.54C339.91 23.57 340.02 23.67 340.02 23.8C340.02 23.93 339.94 24.02 339.81 24.06C339.68 24.09 339.62 24.19 339.62 24.3V28.01H340.28L341.16 27.14L341.99 27.91C342.05 27.97 342.09 28.05 342.09 28.15C342.09 28.25 342.03 28.49 341.77 28.49H339.62V33.55C340.39 33.18 341.14 32.75 341.86 32.24C341.91 32.21 341.94 32.19 341.97 32.19C342.07 32.19 342.15 32.3 342.15 32.38C342.15 32.43 342.12 32.48 342.09 32.51C341.71 32.85 340.15 34.22 337.74 35.17C337.68 35.2 337.66 35.31 337.66 35.46C337.66 35.64 337.58 35.81 337.42 35.81C337.32 35.81 337.21 35.71 337.12 35.51L336.62 34.53L337.4 34.39L338.82 33.89V28.5V28.49ZM346.76 33.95V31.57L347.66 31.7C347.92 31.73 348.04 31.83 348.04 31.96C348.04 32.09 347.96 32.2 347.8 32.26C347.64 32.32 347.56 32.44 347.56 32.55V33.96H349.26L350.27 33.11L351.29 33.88C351.37 33.93 351.4 34.01 351.4 34.1C351.4 34.13 351.4 34.16 351.38 34.2C351.36 34.34 351.24 34.44 351.04 34.44H347.55V37.95C347.55 38.21 347.04 38.3 346.93 38.3C346.82 38.3 346.75 38.25 346.75 38.16V34.45H341.72L341.59 33.97H346.74L346.76 33.95ZM342.71 25.08L343.4 25.56H345.61C345.87 24.87 346.04 24.14 346.09 23.4L346.95 23.53C347.17 23.56 347.27 23.66 347.27 23.79C347.27 23.92 347.17 24.01 347.05 24.01C346.92 24.03 346.83 24.07 346.79 24.14C346.6 24.6 346.31 25.08 345.99 25.56H349.69L350.11 25.13L350.85 25.61C350.91 25.64 350.95 25.71 350.95 25.77C350.95 25.85 350.87 25.99 350.71 26.04C350.58 26.07 350.5 26.14 350.5 26.22V31.61C350.52 31.71 350.44 31.8 350.34 31.85C349.84 31.98 349.72 32.01 349.72 31.61V30.92H346.13L345.73 31.56C344.64 33 342.29 33.63 342.22 33.63C342.06 33.63 342.06 33.55 342.06 33.52C342.06 33.47 342.09 33.44 342.14 33.42C343.24 32.97 344.32 32.38 345.07 31.42L345.37 30.91H343.5V31.42C343.5 31.48 343.44 31.56 343.32 31.63C342.78 31.76 342.71 31.77 342.71 31.39V25.08ZM346.14 26.3V26.06H343.5V27.95H346.06L346.14 26.3ZM345.8 29.85C345.9 29.5 345.98 29.02 346.02 28.41H343.49V30.44H345.55L345.79 29.85H345.8ZM346.6 29.67L346.34 30.44H349.7V28.41H346.8L346.59 29.67H346.6ZM346.86 27.94H349.71V26.05H346.94V26.29L346.86 27.94Z" fill="white"/>
<path d="M361.57 36.59H368.29V37.6501H353.82V36.59H360.46V32.3H355.58V31.26H360.46V27.56H356.54C355.98 28.71 355.32 29.7501 354.62 30.5201C354.41 30.33 354 30.0201 353.72 29.8601C355.03 28.4701 356.17 26.03 356.83 23.59L358.22 23.97C358.17 24.08 358.06 24.15 357.85 24.15C357.61 24.93 357.34 25.73 357.02 26.5H360.46V23.3L361.9 23.38C361.88 23.49 361.79 23.57 361.56 23.6V26.5H367.53V27.56H361.56V31.26H366.94V32.3H361.56V36.59H361.57Z" fill="white"/>
<path d="M373.75 34.9801C373.37 36.1601 372.73 37.2401 371.36 37.8301L370.54 37.2101C371.76 36.7101 372.49 35.7501 372.83 34.6501L373.74 34.9901L373.75 34.9801ZM377.38 27.3101C377.25 27.0901 377.09 26.8501 376.9 26.5901C374.74 26.7301 372.55 26.8601 371.15 26.9401C371.12 27.0501 371.02 27.1301 370.93 27.1501L370.58 26.0601L371.83 26.0101C372.34 25.2301 372.93 24.1001 373.27 23.3101L374.47 23.7401C374.44 23.8401 374.33 23.8701 374.13 23.8701C373.83 24.4801 373.33 25.2901 372.87 25.9801L376.26 25.8401C375.92 25.4401 375.54 25.0601 375.17 24.7401L375.94 24.3101C376.82 25.0301 377.78 26.0901 378.2 26.8201L377.38 27.3201V27.3101ZM377.16 27.6801V32.8201C377.16 33.7001 376.74 33.8101 375 33.8101C374.95 33.5501 374.79 33.2301 374.68 33.0101C376.17 33.0401 376.17 33.0301 376.17 32.8201V31.8401H372.55V34.0001H371.56V27.6801H377.16ZM376.17 28.4601H372.55V29.4201H376.17V28.4601ZM372.55 31.1201H376.17V30.1601H372.55V31.1201ZM375.9 36.5801C375.9 36.9501 376.04 37.0101 376.89 37.0101H379.9C380.57 37.0101 380.68 36.8501 380.75 35.5901C380.97 35.7501 381.39 35.8801 381.68 35.9401C381.57 37.5601 381.23 37.9301 380.02 37.9301H376.83C375.25 37.9301 374.85 37.6701 374.85 36.5801V34.6001L376.23 34.6801C376.21 34.7901 376.12 34.8701 375.91 34.9001V36.5801H375.9ZM378.8 35.9101C378.27 35.3501 377.17 34.6301 376.22 34.2101L376.89 33.6001C377.83 34.0001 378.94 34.6701 379.5 35.2301L378.8 35.9001V35.9101ZM383.55 27.3001C384.14 27.3001 384.25 27.1101 384.32 25.8401C384.54 26.0001 384.94 26.1301 385.23 26.1901C385.12 27.7901 384.8 28.1901 383.65 28.1901H380.75C379.29 28.1901 378.91 27.9201 378.91 26.8001V23.3601L380.22 23.4601C380.2 23.5601 380.12 23.6401 379.92 23.6701V25.3001C381.28 24.9301 382.69 24.4401 383.51 23.9701L384.42 24.7101C384.34 24.7701 384.23 24.7901 384.12 24.7601C383.11 25.2401 381.45 25.7401 379.93 26.1201V26.8101C379.93 27.2101 380.06 27.3101 380.83 27.3101H383.57L383.55 27.3001ZM383.61 32.8701C384.22 32.8701 384.33 32.6601 384.38 31.3701C384.62 31.5501 385.02 31.6901 385.31 31.7401C385.18 33.3701 384.86 33.7901 383.71 33.7901H380.76C379.29 33.7901 378.9 33.5001 378.9 32.3701V28.6401L380.21 28.7401C380.19 28.8401 380.11 28.9201 379.91 28.9501V30.6301C381.32 30.2501 382.82 29.7501 383.67 29.2501L384.6 30.0001C384.6 30.0001 384.5 30.0601 384.42 30.0601C384.39 30.0601 384.34 30.0601 384.29 30.0401C383.23 30.5401 381.49 31.0501 379.9 31.4301V32.3601C379.9 32.7901 380.03 32.8701 380.81 32.8701H383.6H383.61ZM384.52 37.8201C383.98 36.9701 382.76 35.8501 381.61 35.1301L382.44 34.6001C383.59 35.2901 384.84 36.3601 385.4 37.2101L384.52 37.8201Z" fill="white"/>
<path d="M393.46 24.27C393.41 24.38 393.28 24.43 393.09 24.43C392.03 26.85 390.35 29.28 388.64 30.83C388.42 30.61 387.98 30.25 387.7 30.09C389.41 28.67 391.06 26.23 392.05 23.78L393.46 24.26V24.27ZM395.16 29.58C395.11 29.71 394.97 29.79 394.76 29.79C394.01 31.7 392.82 34.26 391.75 36.19C394.01 36.13 396.68 36.03 399.26 35.93C398.49 34.84 397.6 33.67 396.79 32.73L397.8 32.25C399.29 33.95 400.99 36.2 401.8 37.66L400.73 38.25C400.52 37.85 400.23 37.38 399.9 36.87C395.88 37.11 391.61 37.29 388.95 37.4C388.92 37.53 388.81 37.61 388.69 37.62L388.24 36.28L390.53 36.22C391.65 34.24 392.93 31.31 393.67 29.18L395.16 29.58ZM397.7 23.78C398.8 25.94 400.87 28.55 402.37 29.91C402.08 30.13 401.68 30.53 401.47 30.82C399.97 29.28 397.9 26.5 396.65 24.21L397.69 23.78H397.7Z" fill="white"/>
<path d="M405.17 24.03H418.66V38.18H417.6V37.47H406.19V38.18H405.17V24.03ZM406.19 36.48H417.6V25.02H406.19V36.48ZM412.46 32.38C412.81 32.8 413.26 33.2 413.79 33.56C414.48 33.13 415.31 32.52 415.79 32.1L416.67 32.64C416.62 32.7 416.51 32.74 416.35 32.74C415.85 33.09 415.1 33.57 414.43 33.96C415.26 34.46 416.19 34.84 417.1 35.08C416.89 35.24 416.64 35.58 416.49 35.8C414.89 35.3 413.21 34.3 412.1 33.11V35.99H411.12V33.48C410 34.25 408.62 34.9 407.36 35.37C407.23 35.19 406.94 34.86 406.78 34.7C408.28 34.2 410 33.37 411.18 32.38H408.33V29.67H415.39V32.38H412.44H412.46ZM416.72 28.14V28.88H407.04V28.14H411.35V27.07H408.05V26.35H411.35V25.37L412.66 25.47C412.64 25.57 412.56 25.65 412.36 25.68V26.35H415.77V27.07H412.36V28.14H416.73H416.72ZM409.28 30.33V31.71H414.43V30.33H409.28Z" fill="white"/>
<path d="M425.19 27.56C425.08 27.05 424.77 26.26 424.47 25.62H423.73C423.27 26.4 422.72 27.12 422.19 27.67C421.98 27.49 421.61 27.24 421.36 27.11C422.3 26.21 423.23 24.71 423.78 23.22L425 23.62C424.97 23.73 424.82 23.78 424.66 23.76C424.53 24.08 424.37 24.42 424.21 24.74H428.64V25.62H425.53C425.8 26.16 426.03 26.77 426.14 27.19L425.18 27.56H425.19ZM434.75 32.95L434.99 32.93L435.61 33.03C435.61 33.14 435.58 33.25 435.56 33.37C435.14 37.4 434.82 37.47 432.97 37.47C432.6 37.47 432.17 37.47 431.71 37.44C431.69 37.12 431.58 36.72 431.41 36.43C432.21 36.53 432.98 36.53 433.25 36.53C433.54 36.53 433.7 36.51 433.83 36.39C434.09 36.17 434.26 35.49 434.44 33.91H429.41V38.18H428.35V34.23C426.75 35.83 424.32 37.19 422.16 37.89C422 37.63 421.7 37.23 421.47 37.03C423.53 36.45 425.87 35.27 427.38 33.91H423.97L423.79 34.5L422.73 34.34C423.07 33.32 423.47 31.7 423.72 30.43H428.35V28.69H422.86V27.76H434.61V31.36H429.41V32.96H434.76L434.75 32.95ZM428.35 31.35H424.59C424.48 31.88 424.33 32.44 424.21 32.95H428.36V31.35H428.35ZM431.37 23.6C431.34 23.71 431.21 23.74 431.05 23.74C430.91 24.08 430.75 24.41 430.57 24.73H436.27V25.61H432.44C432.86 26.15 433.22 26.76 433.42 27.21L432.48 27.59C432.27 27.05 431.79 26.25 431.28 25.61H430.03C429.52 26.38 428.91 27.07 428.29 27.56C428.1 27.38 427.73 27.11 427.47 26.97C428.56 26.14 429.57 24.71 430.13 23.21L431.38 23.59L431.37 23.6ZM429.4 28.67V30.41H433.55V28.67H429.4Z" fill="white"/>
<path d="M438.45 29.98H453.27V31.16H438.45V29.98Z" fill="white"/>
<path d="M460.63 31.3601L458.55 32.05V36.8801C458.55 38.0501 458.05 38.21 456 38.18C455.95 37.92 455.81 37.47 455.66 37.17C456.11 37.19 456.49 37.2001 456.8 37.2001C457.46 37.2001 457.54 37.2001 457.54 36.8801V32.37C456.92 32.58 456.36 32.7501 455.89 32.9001C455.89 33.0301 455.79 33.11 455.68 33.16L455.28 31.93C455.9 31.7701 456.69 31.55 457.54 31.31V27.68H455.44V26.67H457.54V23.33L458.85 23.41C458.83 23.54 458.75 23.6 458.55 23.63V26.67H460.44V27.68H458.55V31.0201L460.49 30.4401L460.63 31.3701V31.3601ZM463.22 26.09V23.3L464.52 23.38C464.5 23.49 464.42 23.56 464.22 23.59V30.15C464.22 33.38 463.85 36.2 460.87 38.19C460.69 37.98 460.34 37.6301 460.1 37.4701C461.6 36.4801 462.39 35.29 462.81 33.93C461.9 34.2701 461.03 34.57 460.43 34.78C460.43 34.91 460.35 34.9901 460.24 35.0401L459.73 33.9501C460.61 33.7101 461.81 33.33 463.04 32.93C463.17 32.1901 463.22 31.41 463.23 30.59H460.62V29.6H463.23V27.09H460.51V26.1H463.23L463.22 26.09ZM470.21 33.26V34.25H467.03V38.16H466.01V23.31L467.35 23.39C467.33 23.5 467.24 23.5801 467.03 23.6101V26.09H469.94V27.08H467.03V29.59H469.78V30.58H467.03V33.25H470.21V33.26Z" fill="white"/>
<path d="M472.66 38.34C472.92 37.54 473.24 35.96 473.36 34.93L475.09 34.71C474.75 35.93 474.08 37.59 473.71 38.21L472.65 38.34H472.66Z" fill="white"/>
<path d="M495.87 29.12H489.61C490.65 32.95 492.72 35.89 496.12 37.16C495.85 37.4 495.5 37.85 495.32 38.17C491.97 36.79 489.94 33.96 488.76 30.1C488.02 33.27 486.28 36.41 482.15 38.18C481.99 37.89 481.65 37.51 481.38 37.27C485.61 35.56 487.19 32.36 487.8 29.12H481.62V28.02H487.97C488.18 26.36 488.16 24.72 488.18 23.33L489.68 23.41C489.66 23.55 489.54 23.63 489.33 23.68C489.31 24.94 489.3 26.45 489.11 28.02H495.86V29.12H495.87Z" fill="white"/>
<path d="M513 32.05V33.11H506.23V36.68C506.23 37.5 505.99 37.82 505.41 37.99C504.82 38.18 503.78 38.2 502.05 38.18C501.97 37.88 501.76 37.41 501.59 37.11C502.36 37.14 503.09 37.14 503.66 37.14C505.02 37.14 505.13 37.14 505.13 36.68V33.11H498.39V32.05H505.13V29.34H499.46V28.32H505.13V25.73C503.37 25.94 501.51 26.1 499.8 26.19C499.77 25.92 499.64 25.5 499.51 25.26C503.38 25 508.04 24.49 510.41 23.64L511.34 24.55C511.34 24.55 511.24 24.6 511.15 24.6C511.12 24.6 511.07 24.6 511.01 24.58C509.86 24.96 508.29 25.27 506.56 25.52C506.53 25.63 506.45 25.68 506.24 25.71V28.3H512.1V29.32H506.24V32.03H513.01L513 32.05Z" fill="white"/>
<path d="M528.08 32.5H523.13V33.54H528.64V34.41H523.13V35.51H529.71V36.38H523.13V38.2H522.04V36.38H515.61V35.51H522.04V34.41H516.66V33.54H522.04V32.5H517.21V31.67H522.04V30.61H515.3V29.76H522.04V28.75H517.33V27.92H522.04V27.12L521.93 27.2C521.72 27.04 521.34 26.82 521.08 26.69C521.53 26.39 521.98 26 522.39 25.57H519.56C519.9 26.07 520.22 26.61 520.38 27.01L519.44 27.33C519.28 26.87 518.88 26.15 518.48 25.57H517.73C517.23 26.32 516.69 27.01 516.14 27.52C515.93 27.36 515.56 27.1 515.32 26.98C516.26 26.13 517.22 24.69 517.82 23.28L519.04 23.7C518.99 23.8 518.88 23.86 518.7 23.83C518.57 24.12 518.41 24.42 518.25 24.71H522.49V25.46C523.07 24.82 523.58 24.05 523.91 23.28L525.11 23.65C525.08 23.76 524.98 23.81 524.79 23.79C524.65 24.09 524.47 24.4 524.28 24.7H529.93V25.56H525.98C526.36 26.01 526.72 26.5 526.91 26.89L526 27.29C525.78 26.81 525.28 26.12 524.8 25.56H523.66C523.24 26.07 522.78 26.52 522.32 26.9L523.46 26.98C523.44 27.09 523.35 27.17 523.14 27.19V27.91H528.09V29.75H530.01V30.6H528.09V32.49L528.08 32.5ZM523.13 28.75V29.76H526.97V28.75H523.13ZM523.13 30.61V31.67H526.97V30.61H523.13Z" fill="white"/>
<path d="M4.13012 54.3899C5.03012 54.1699 5.95012 53.9399 6.87012 53.6999L6.98012 54.6299C6.04012 54.8999 5.06012 55.1699 4.13012 55.4299V60.0399C4.13012 61.3799 3.47012 61.4299 1.01012 61.4299C0.950117 61.1399 0.790117 60.6799 0.640117 60.3899C1.57012 60.4099 2.43012 60.4099 2.69012 60.4099C2.95012 60.3899 3.04012 60.3099 3.04012 60.0399V55.7299L0.750117 56.3699C0.750117 56.4799 0.650117 56.5799 0.540117 56.6099L0.120117 55.3499C0.900117 55.1699 1.93012 54.9299 3.03012 54.6599V50.9599H0.290117V49.9199H3.04012V46.5699L4.45012 46.6499C4.43012 46.7799 4.35012 46.8399 4.13012 46.8699V49.9099H6.64012V50.9499H4.13012V54.3699V54.3899ZM15.1901 48.0199V49.0799H12.1501V59.9499C12.1501 60.7499 11.9401 61.0899 11.3801 61.2599C10.8201 61.4499 9.84012 61.4499 8.26012 61.4499C8.20012 61.1499 8.04012 60.6699 7.86012 60.3599C8.60012 60.3799 9.28012 60.3899 9.81012 60.3899C10.9501 60.3899 11.0401 60.3899 11.0401 59.9399V49.0699H6.16012V48.0099H15.1901V48.0199Z" fill="white"/>
<path d="M20.35 52.99V58.22C21.6 60.12 23.89 60.12 26.77 60.12C28.5 60.12 30.53 60.07 31.78 59.99C31.65 60.25 31.46 60.76 31.43 61.08C30.33 61.13 28.56 61.16 26.98 61.16C23.68 61.16 21.49 61.16 19.87 59.17C19.09 59.87 18.24 60.59 17.55 61.14C17.57 61.28 17.52 61.35 17.41 61.4L16.79 60.21C17.56 59.7 18.5 58.96 19.32 58.26V54H16.97V52.98H20.36L20.35 52.99ZM17.97 46.99C19.04 47.68 20.27 48.73 20.84 49.52L19.99 50.24C19.46 49.44 18.25 48.35 17.17 47.63L17.97 46.99ZM31.53 52.02V52.97H21.11V52.02H25.85V49.7H23.51C23.19 50.42 22.81 51.09 22.42 51.6C22.2 51.44 21.78 51.25 21.52 51.12C22.32 50.13 23.01 48.43 23.42 46.8L24.7 47.15C24.67 47.26 24.56 47.31 24.36 47.31C24.23 47.77 24.07 48.25 23.9 48.73H25.84V46.59L27.23 46.67C27.21 46.78 27.12 46.86 26.91 46.89V48.73H30.82V49.69H26.91V52.01H31.52L31.53 52.02ZM30.19 59.11H29.13V58.57H23.75V59.16H22.73V54.17H30.19V59.12V59.11ZM23.76 57.6H29.14V55.06H23.76V57.6Z" fill="white"/>
<path d="M34.1802 47.34H47.6702V61.52H46.6002V60.74H35.2002V61.52H34.1802V47.34ZM35.2002 59.75H46.6002V48.34H35.2002V59.75ZM35.9802 57.29C37.2302 57.08 39.0902 56.73 40.9402 56.39L40.9902 57.11C39.3202 57.48 37.6302 57.85 36.5602 58.06C36.5402 58.19 36.4602 58.25 36.3702 58.3L35.9902 57.29H35.9802ZM42.1402 51.42C42.2802 52.89 42.5102 54.27 42.8002 55.39C43.3602 54.46 43.7902 53.41 44.0802 52.24L45.2002 52.51C45.1702 52.62 45.0702 52.67 44.8802 52.67C44.5002 54.08 43.9002 55.36 43.1502 56.45C43.5302 57.41 44.0802 58.11 44.6202 58.11C44.8602 58.11 45.0202 57.42 45.1302 56.4C45.3102 56.58 45.6402 56.8 45.8302 56.91C45.6502 58.38 45.2702 59.07 44.6602 59.07C44.5502 59.07 44.4402 59.05 44.3102 59.01C43.5402 58.87 42.9702 58.24 42.5002 57.28C41.8402 58.07 41.0802 58.72 40.2102 59.23C40.0802 59.05 39.8102 58.73 39.6202 58.57C40.5802 58.03 41.4302 57.27 42.1302 56.36C41.7002 55.03 41.4102 53.3 41.2202 51.41H36.1302V50.58H41.1402C41.0902 49.99 41.0402 49.38 41.0102 48.77L42.2902 48.83C42.2702 48.96 42.1602 49.04 41.9702 49.07C41.9902 49.58 42.0202 50.08 42.0702 50.57H45.7202V51.4H42.1302L42.1402 51.42ZM36.7502 52.51H40.3702V55.68H36.7502V52.51ZM39.5502 54.97V53.21H37.5302V54.97H39.5502ZM43.4702 48.63C44.1102 48.9 44.8802 49.35 45.2602 49.73L44.7502 50.32C44.3702 49.95 43.6002 49.46 42.9602 49.15L43.4702 48.62V48.63Z" fill="white"/>
<path d="M54.0798 47.2401L54.7398 47.6401C54.7398 47.6401 54.6798 47.7501 54.6298 47.7801C54.2898 49.0101 53.7998 50.6901 53.3498 52.0401C54.3298 53.4201 54.6898 54.5701 54.6898 55.6101C54.6898 57.8301 53.6298 57.8701 52.4998 57.8001C52.4798 57.5401 52.3998 57.1401 52.2798 56.9001C52.4898 56.9201 52.6798 56.9201 52.8598 56.9201C53.3598 56.9201 53.7698 56.9201 53.7698 55.5401C53.7498 54.6101 53.4298 53.4901 52.4398 52.1301C52.8398 50.9101 53.2398 49.3901 53.5098 48.2601H51.7198V61.4701H50.7598V47.2901H53.9298L54.0898 47.2401H54.0798ZM56.7698 49.4301C57.1698 49.6501 57.6298 49.9701 57.9898 50.2601C58.1998 49.8001 58.3698 49.3101 58.5198 48.8001H56.5698C56.0698 49.7901 55.4298 50.6901 54.7498 51.3101C54.5898 51.1701 54.2898 50.9101 54.0598 50.7801C55.1198 49.8501 56.0098 48.2501 56.5198 46.5601L57.6398 46.8601C57.6098 46.9701 57.4998 47.0201 57.3198 47.0201C57.2198 47.3201 57.0998 47.6401 56.9698 47.9501H58.9398L59.1298 47.9201C59.5898 48.1001 59.6698 48.1301 59.7398 48.1801C59.7098 48.2601 59.6598 48.3101 59.6098 48.3601C58.9098 51.4301 57.1798 53.7901 55.1798 55.0301C55.0498 54.8101 54.7798 54.4701 54.5598 54.2901C55.3098 53.8601 56.0498 53.2201 56.6898 52.4201C56.3398 52.0701 55.8298 51.6401 55.3798 51.3301L55.8798 50.8501C56.2998 51.1201 56.7798 51.5101 57.1098 51.8301C57.3198 51.5401 57.4898 51.2401 57.6698 50.9301C57.3198 50.5901 56.8098 50.2101 56.3598 49.9501L56.7898 49.4201L56.7698 49.4301ZM57.3798 57.9601C56.8198 59.0301 55.9098 60.1701 55.0398 60.9101C54.8798 60.7301 54.5398 60.4501 54.3398 60.2901C55.1598 59.6301 56.0198 58.5301 56.5498 57.4201C57.3998 57.7101 57.5598 57.7601 57.6998 57.8201C57.6698 57.9201 57.5598 57.9601 57.3798 57.9601ZM64.0198 56.7401H60.2598V60.3301C60.2598 61.3401 59.8798 61.4701 57.5998 61.4701C57.5498 61.2001 57.3898 60.8001 57.2498 60.5401C58.0698 60.5601 58.7698 60.5601 58.9798 60.5401C59.1898 60.5201 59.2398 60.4901 59.2398 60.3001V56.7501H55.6498V55.8201H64.0198V56.7501V56.7401ZM57.1698 54.2301V53.3301H62.3898V54.2301H57.1698ZM64.2098 47.9101L64.8998 48.3301C64.8798 48.4101 64.7898 48.4401 64.7198 48.4701C64.2698 49.6901 63.4898 51.1401 62.6698 52.1501C63.3598 53.0001 64.1898 53.6701 65.1498 54.1201C64.9298 54.3101 64.6198 54.6601 64.4798 54.9401C61.8598 53.5501 60.2698 50.7101 59.4898 47.1001L60.3498 46.9101C60.7198 48.6201 61.3098 50.1601 62.1398 51.4201C62.6798 50.6801 63.1998 49.7101 63.5298 48.8101H61.2598V47.9601H64.0298L64.2098 47.9101ZM63.9098 60.7801C63.4898 60.0101 62.5198 58.8301 61.6398 57.9801L62.4198 57.4801C63.2998 58.3001 64.3098 59.4301 64.7598 60.2201L63.9098 60.7801Z" fill="white"/>
<path d="M71.0601 56.27C71.7201 56.75 73.4601 58.16 73.8801 58.53L73.2601 59.39C72.8601 58.93 71.8401 57.98 71.0701 57.29V61.45H70.0301V57.07C69.2601 58.35 68.2401 59.57 67.2601 60.34C67.1301 60.08 66.8601 59.72 66.6401 59.51C67.7801 58.73 68.9901 57.25 69.7301 55.8H66.9401V54.86H70.0301V53.08H66.7601V52.15H74.0401V53.08H71.1401V53.1H71.3601C71.3401 53.21 71.2601 53.28 71.0601 53.31V54.86H73.9301V55.8H71.0601V56.28V56.27ZM73.8601 48.31V49.24H67.0901V48.31H70.0201V46.58L71.3601 46.66C71.3401 46.77 71.2601 46.85 71.0601 46.88V48.3H73.8601V48.31ZM68.9801 49.4C69.3301 50.15 69.6001 51.16 69.6801 51.82L68.7701 52.04C68.7101 51.38 68.4501 50.36 68.1101 49.59L68.9701 49.4H68.9801ZM73.2701 49.69C73.2201 49.8 73.1101 49.85 72.9301 49.85C72.7401 50.51 72.3901 51.47 72.0801 52.11L71.2801 51.84C71.5401 51.15 71.8901 50.08 72.0501 49.36L73.2701 49.7V49.69ZM77.0001 56.88C76.9701 56.99 76.8701 57.06 76.7001 57.07C76.3601 58.8 75.7101 60.51 73.5101 61.49C73.3801 61.25 73.0801 60.88 72.8501 60.7C74.8001 59.9 75.4401 58.4 75.7001 56.73L77.0001 56.87V56.88ZM79.1901 59.94C79.1901 60.29 79.2401 60.36 79.5401 60.36H80.5001C80.8401 60.36 80.9001 60.12 80.9301 58.17C81.1501 58.35 81.5701 58.51 81.8601 58.59C81.7601 60.8 81.5101 61.33 80.6301 61.33H79.4101C78.4001 61.33 78.1801 61.03 78.1801 59.95V56.43H74.6401V47.26H80.9101V56.43H79.1801V59.95L79.1901 59.94ZM75.6401 48.22V50.01H79.9001V48.22H75.6401ZM75.6401 50.91V52.72H79.9001V50.91H75.6401ZM75.6401 53.62V55.46H79.9001V53.62H75.6401Z" fill="white"/>
<path d="M83.9699 51.11C84.9299 51.48 86.0999 52.12 86.6799 52.63L86.0699 53.51C85.4899 53 84.3399 52.31 83.3799 51.89L83.9699 51.1V51.11ZM83.7099 60.65C84.3699 59.4 85.3099 57.27 85.9999 55.46L86.8499 56.04C86.2399 57.72 85.4099 59.71 84.7999 60.91C84.8599 61.01 84.8999 61.09 84.8999 61.17C84.8999 61.22 84.8799 61.28 84.8499 61.33L83.7099 60.66V60.65ZM84.6999 46.76C85.6299 47.19 86.7299 47.9 87.2899 48.42L86.6299 49.29C86.0999 48.75 84.9999 47.99 84.0699 47.53L84.6899 46.76H84.6999ZM92.1899 59.26H88.4799V60.6H87.5399V54.04H89.3299V51H86.8799V49.99H89.3299V46.6L90.6299 46.68C90.6099 46.79 90.5299 46.86 90.3299 46.89V50H92.7099V51.01H90.3299V54.05H92.1999V59.27L92.1899 59.26ZM91.2099 55H88.4699V58.3H91.2099V55ZM97.7399 47.2V60.18C97.7399 61.43 97.1199 61.48 95.0499 61.48C94.9999 61.21 94.8399 60.74 94.6799 60.49C95.4999 60.51 96.1999 60.51 96.4099 60.51C96.6299 60.49 96.7299 60.43 96.7299 60.19V56.03H94.1099C93.9199 57.97 93.3899 60 91.9999 61.47C91.8399 61.29 91.4199 60.99 91.1799 60.88C93.0499 58.93 93.2299 56.11 93.2299 53.81V47.22H97.7399V47.2ZM94.1999 53.79C94.1999 54.19 94.1999 54.61 94.1699 55.04H96.7299V52.06H94.1999V53.79ZM96.7299 48.19H94.1999V51.09H96.7299V48.19Z" fill="white"/>
<path d="M113.64 51.34H102.82V52.19C102.82 54.91 102.58 58.83 100.87 61.47C100.68 61.28 100.2 61.01 99.9399 60.89C101.59 58.35 101.75 54.78 101.75 52.18V47.46H113.64V51.33V51.34ZM112.57 48.44H102.82V50.36H112.57V48.44ZM114.76 54.27H109.21V56.24H113.37V61.43H112.3V60.87H105.24V61.46H104.2V56.24H108.14V54.27H103.07V53.29H108.14V51.42L109.53 51.5C109.51 51.61 109.43 51.69 109.21 51.72V53.29H114.76V54.27ZM112.3 59.89V57.2H105.24V59.89H112.3Z" fill="white"/>
<path d="M123.49 55.26H118.67C118.62 57.23 118.35 59.72 117.21 61.47C117.05 61.28 116.62 60.94 116.36 60.81C117.51 59.05 117.62 56.57 117.62 54.7V50.28H123.48V55.26H123.49ZM123.99 47.48V48.47H116.82V47.48H123.99ZM122.45 51.27H118.67V54.28H122.45V51.27ZM131.69 52.12V53.16H129.79V61.47H128.73V53.16H125.75C125.69 55.71 125.24 59 123 61.4C122.86 61.16 122.47 60.81 122.2 60.66C124.44 58.26 124.7 55.03 124.7 52.53V48.26L125.53 48.48C127.31 48.02 129.24 47.41 130.35 46.78L131.39 47.64C131.33 47.7 131.21 47.74 131.07 47.7C129.77 48.29 127.68 48.92 125.76 49.38V52.1H131.7L131.69 52.12Z" fill="white"/>
<path d="M133.66 61.61C133.92 60.81 134.24 59.23 134.36 58.2L136.09 57.98C135.75 59.2 135.08 60.86 134.71 61.49L133.65 61.62L133.66 61.61Z" fill="white"/>
<path d="M146.29 53.4799C146.91 53.9799 148.71 55.6199 149.14 56.0399L148.45 56.8899C148.05 56.3599 147.04 55.2999 146.29 54.5699V61.4499H145.23V54.0699C144.46 55.8799 143.42 57.7199 142.48 58.8199C142.35 58.5299 142.08 58.0799 141.89 57.8099C143.01 56.6099 144.29 54.3499 145.03 52.3799H142.09V51.3399H145.24V48.6199C144.28 48.8799 143.27 49.0799 142.31 49.2799C142.26 49.0599 142.1 48.6899 141.96 48.4599C144.19 48.0299 146.75 47.3199 148.09 46.5699L149.08 47.3699C149.08 47.3699 148.97 47.4299 148.9 47.4299C148.85 47.4299 148.82 47.4299 148.77 47.4099C148.11 47.7299 147.25 48.0499 146.29 48.3199V51.3299H149.08V52.3699H146.29V53.4599V53.4799ZM154.21 54.5499C155.39 56.6499 156.55 59.3699 156.9 61.0999L155.81 61.4799C155.71 61.0299 155.57 60.4999 155.39 59.9299C152.68 60.2299 149.88 60.5399 148.12 60.6999C148.1 60.8299 148.01 60.9099 147.9 60.9199L147.47 59.6099L149.01 59.4999C150 56.0599 151.09 50.7799 151.67 46.8999L153.21 47.2399C153.18 47.3699 153.02 47.4599 152.81 47.4999C152.2 51.0499 151.13 55.9699 150.15 59.4099C151.65 59.2999 153.37 59.1399 155.06 58.9899C154.56 57.6099 153.91 56.1199 153.22 54.8799L154.21 54.5599V54.5499Z" fill="white"/>
<path d="M173.33 57.3599V58.3099H166.58V60.3099C166.58 60.9299 166.39 61.2099 165.86 61.3499C165.33 61.4899 164.42 61.4899 162.95 61.4899C162.89 61.1999 162.73 60.8299 162.58 60.5799C163.25 60.5999 163.89 60.6099 164.37 60.6099C165.38 60.6099 165.46 60.6099 165.46 60.2699V58.2999H158.79V57.3499H165.46V56.2499L166.18 56.2999C167.17 56.0099 168.23 55.6399 169.12 55.2599H160.33V54.3599H170.75L170.96 54.2999L171.86 54.8899C171.81 54.9699 171.68 55.0199 171.59 55.0299C170.31 55.7299 168.37 56.4899 166.58 56.9499V57.3499H173.33V57.3599ZM173.17 48.0599V48.9999H158.89V48.0599H165.44V46.5699L166.88 46.6499C166.86 46.7599 166.77 46.8399 166.54 46.8699V48.0499H173.17V48.0599ZM171.04 53.3099H161.12V50.0899H171.04V53.3099ZM162.19 50.9099V52.4799H169.92V50.9099H162.19Z" fill="white"/>
<path d="M175.81 51.11C176.77 51.48 177.94 52.12 178.52 52.63L177.91 53.51C177.33 53 176.18 52.31 175.22 51.89L175.81 51.1V51.11ZM175.55 60.65C176.21 59.4 177.15 57.27 177.84 55.46L178.69 56.04C178.08 57.72 177.25 59.71 176.64 60.91C176.7 61.01 176.74 61.09 176.74 61.17C176.74 61.22 176.72 61.28 176.69 61.33L175.55 60.66V60.65ZM176.54 46.76C177.47 47.19 178.57 47.9 179.13 48.42L178.47 49.29C177.94 48.75 176.84 47.99 175.91 47.53L176.53 46.76H176.54ZM184.03 59.26H180.32V60.6H179.38V54.04H181.17V51H178.72V49.99H181.17V46.6L182.47 46.68C182.45 46.79 182.37 46.86 182.17 46.89V50H184.55V51.01H182.17V54.05H184.04V59.27L184.03 59.26ZM183.05 55H180.31V58.3H183.05V55ZM189.58 47.2V60.18C189.58 61.43 188.96 61.48 186.89 61.48C186.84 61.21 186.68 60.74 186.52 60.49C187.34 60.51 188.04 60.51 188.25 60.51C188.47 60.49 188.57 60.43 188.57 60.19V56.03H185.95C185.76 57.97 185.23 60 183.84 61.47C183.68 61.29 183.26 60.99 183.02 60.88C184.89 58.93 185.07 56.11 185.07 53.81V47.22H189.58V47.2ZM186.04 53.79C186.04 54.19 186.04 54.61 186.01 55.04H188.57V52.06H186.04V53.79ZM188.57 48.19H186.04V51.09H188.57V48.19Z" fill="white"/>
<path d="M197.55 47.91V58.15H193.34V59.72H192.48V47.91H197.55ZM194.57 48.87H193.34V52.47H194.57V48.87ZM193.34 53.4V57.19H194.57V53.4H193.34ZM196.67 52.47V48.87H195.37V52.47H196.67ZM195.37 57.19H196.67V53.4H195.37V57.19ZM206.75 55.93V56.92H202.59V61.45H201.57V56.92H197.84V55.93H201.57V53.45H198.32V52.46H201.57V46.63L202.91 46.73C202.89 46.84 202.8 46.91 202.59 46.94V52.46H206.21V53.45H202.59V55.93H206.75ZM199.23 47.4C199.81 48.62 200.32 50.22 200.48 51.26L199.54 51.55C199.4 50.49 198.9 48.89 198.36 47.68L199.24 47.41L199.23 47.4ZM206.27 47.8C206.22 47.9 206.09 47.94 205.93 47.94C205.51 49.03 204.79 50.65 204.2 51.65C204.18 51.65 203.43 51.3 203.43 51.3C203.99 50.24 204.68 48.51 205.03 47.31L206.26 47.79L206.27 47.8Z" fill="white"/>
<path d="M215.57 47.5801H216.66C216.66 50.4501 217.03 56.6601 223.5 60.5001C223.26 60.6901 222.83 61.1401 222.64 61.4101C218.48 58.8801 216.75 55.2101 216.05 52.0901C214.9 56.3601 212.82 59.5601 209.46 61.4201C209.25 61.2001 208.84 60.8001 208.56 60.6001C212.1 58.7601 214.16 55.3501 215.17 50.6901L215.83 50.8501C215.7 50.0501 215.64 49.3101 215.62 48.6701H211.54V47.5801H215.59V47.5601L215.57 47.5801Z" fill="white"/>
<path d="M233.14 59.87H239.86V60.93H225.39V59.87H232.03V55.58H227.15V54.54H232.03V50.84H228.11C227.55 51.99 226.89 53.03 226.19 53.8C225.98 53.61 225.57 53.3 225.29 53.14C226.6 51.75 227.74 49.31 228.4 46.87L229.79 47.25C229.74 47.36 229.63 47.43 229.42 47.43C229.18 48.22 228.91 49.01 228.59 49.78H232.03V46.58L233.47 46.66C233.45 46.77 233.36 46.85 233.13 46.88V49.78H239.1V50.84H233.13V54.54H238.51V55.58H233.13V59.87H233.14Z" fill="white"/>
<path d="M242.35 51.1C243.39 51.5 244.69 52.2 245.34 52.75L244.73 53.65C244.09 53.11 242.81 52.37 241.77 51.92L242.35 51.1ZM242.24 60.53C243.07 59.27 244.26 57.09 245.14 55.25L245.96 55.92C245.16 57.63 244.1 59.65 243.32 60.91C243.38 60.99 243.4 61.07 243.4 61.13C243.4 61.19 243.38 61.26 243.35 61.31L242.25 60.53H242.24ZM243.22 46.73C244.24 47.18 245.51 47.91 246.13 48.49L245.51 49.37C244.9 48.78 243.65 47.99 242.61 47.51L243.22 46.73ZM256.68 52.41H251.89V55.2H255.52V61.35H254.43V60.74H248.38V61.46H247.32V55.2H250.81V52.41H246.09V51.37H250.81V48.58C249.53 48.79 248.2 48.98 246.94 49.12C246.91 48.85 246.75 48.45 246.62 48.21C249.57 47.86 252.96 47.28 254.8 46.59L255.82 47.46C255.76 47.52 255.72 47.52 255.5 47.52C254.54 47.84 253.27 48.13 251.88 48.38V51.36H256.67V52.4L256.68 52.41ZM254.44 59.74V56.19H248.39V59.74H254.44Z" fill="white"/>
<path d="M258.78 61.61C259.04 60.81 259.36 59.23 259.48 58.2L261.21 57.98C260.87 59.2 260.2 60.86 259.83 61.49L258.77 61.62L258.78 61.61Z" fill="white"/>
<path d="M268.82 57.76C268.82 58.24 268.93 58.32 269.6 58.32H271.86C272.45 58.32 272.55 58.06 272.61 56.3C272.85 56.48 273.28 56.65 273.59 56.73C273.45 58.83 273.14 59.34 271.94 59.34H269.49C268.15 59.34 267.76 59.04 267.76 57.77V52.54H271.79V48.97H267.2V47.96H272.85V54.03H271.79V53.53H268.81V57.75L268.82 57.76ZM281.96 50.64H280.6C280.12 53.31 279.38 55.51 278.25 57.27C279.24 58.73 280.51 59.86 282.09 60.55C281.83 60.76 281.5 61.17 281.32 61.48C279.77 60.74 278.55 59.62 277.56 58.22C276.46 59.61 275 60.68 273.13 61.5C273 61.24 272.71 60.81 272.52 60.59C274.42 59.82 275.88 58.72 276.97 57.26C276.17 55.85 275.58 54.22 275.13 52.39C274.75 53.17 274.31 53.88 273.87 54.46C273.66 54.28 273.25 53.98 272.99 53.84C274.3 52.22 275.31 49.42 275.89 46.61L277.25 46.91C277.22 47.04 277.11 47.09 276.9 47.09C276.71 47.95 276.48 48.8 276.23 49.63H281.98V50.65L281.96 50.64ZM275.86 50.64L275.78 50.83C276.18 52.85 276.79 54.67 277.62 56.24C278.52 54.7 279.11 52.85 279.49 50.64H275.86Z" fill="white"/>
<path d="M296.76 56.2201L296.98 56.2001L297.59 56.2801L297.54 56.6301C297.36 59.5001 297.16 60.6001 296.77 61.0201C296.45 61.3601 296.1 61.4401 295.22 61.4401C294.82 61.4401 294.31 61.4201 293.78 61.3901C293.76 61.1001 293.65 60.7001 293.49 60.4301C294.32 60.5101 295.12 60.5101 295.47 60.5101C295.65 60.5101 295.77 60.4801 295.87 60.3701C296.13 60.1301 296.29 59.2701 296.45 57.1401H287.53C287.21 57.4001 286.87 57.6401 286.54 57.8601L287.36 58.1201C287.09 59.2701 286.64 60.5401 285.74 61.2701L284.92 60.7601C285.74 60.1201 286.22 58.9801 286.46 57.9101C285.79 58.3401 285.1 58.7301 284.4 59.0301C284.27 58.8101 283.98 58.4101 283.81 58.2101C285.41 57.5901 287.12 56.4801 288.18 55.1701H286.29V50.3701L287.09 50.5601C288.16 50.2701 289.32 49.9001 290.02 49.5701L290.79 50.3601C290.79 50.3601 290.73 50.3901 290.66 50.3901C290.61 50.3901 290.56 50.3901 290.5 50.3701C289.72 50.6701 288.43 51.0401 287.27 51.3101V52.3501H290.2V53.1501H287.27V54.3501H295V53.1501H292.05V52.3501H295V51.1801H291.86V50.3601H295.99V55.1601H289.65C289.65 55.1601 289.51 55.2401 289.36 55.2401C289.12 55.5801 288.85 55.9001 288.54 56.2201H296.75H296.76ZM291.67 48.1001H297.9V50.8901H296.86V49.0601H285.45V50.8901H284.46V48.1001H290.61V46.5601L292 46.6401C291.98 46.7701 291.89 46.8301 291.68 46.8601V48.0901L291.67 48.1001ZM288.98 60.9401C289 60.1901 288.76 59.0001 288.4 58.0901L289.26 57.9801C289.61 58.8901 289.88 60.0601 289.88 60.8101L288.97 60.9401H288.98ZM291.81 60.5201C291.67 59.8301 291.22 58.7801 290.71 57.9901L291.51 57.7501C292.04 58.5401 292.52 59.5601 292.66 60.2501L291.81 60.5201ZM293.71 57.5401C294.3 58.0501 294.94 58.8201 295.2 59.3501L294.43 59.7701C294.17 59.2301 293.57 58.4401 292.99 57.9001L293.71 57.5501V57.5401Z" fill="white"/>
<path d="M314.95 52.39H308.69C309.73 56.22 311.8 59.16 315.2 60.43C314.93 60.67 314.58 61.12 314.4 61.44C311.05 60.06 309.02 57.23 307.84 53.37C307.1 56.54 305.36 59.68 301.23 61.45C301.07 61.16 300.73 60.78 300.46 60.54C304.69 58.83 306.27 55.63 306.88 52.39H300.7V51.28H307.05C307.26 49.62 307.24 47.98 307.26 46.59L308.76 46.67C308.74 46.81 308.62 46.89 308.41 46.94C308.39 48.2 308.38 49.71 308.19 51.28H314.94V52.39H314.95Z" fill="white"/>
<path d="M317.7 47.3H331.19V61.4501H330.13V60.75H318.72V61.4501H317.7V47.3ZM318.72 59.75H330.13V48.2901H318.72V59.75ZM324.99 55.6501C325.34 56.0701 325.79 56.4701 326.32 56.8301C327.01 56.4001 327.84 55.79 328.32 55.37L329.2 55.91C329.15 55.97 329.04 56.01 328.88 56.01C328.38 56.36 327.63 56.84 326.96 57.23C327.79 57.73 328.72 58.11 329.63 58.35C329.42 58.51 329.17 58.85 329.02 59.07C327.42 58.57 325.74 57.5701 324.63 56.3801V59.26H323.65V56.75C322.53 57.5201 321.15 58.17 319.89 58.64C319.76 58.46 319.47 58.1301 319.31 57.9701C320.81 57.4701 322.53 56.6401 323.71 55.6501H320.86V52.94H327.92V55.6501H324.97H324.99ZM329.25 51.41V52.1501H319.57V51.41H323.88V50.34H320.58V49.62H323.88V48.64L325.19 48.7401C325.17 48.8401 325.09 48.9201 324.89 48.9501V49.62H328.3V50.34H324.89V51.41H329.26H329.25ZM321.81 53.6V54.98H326.96V53.6H321.81Z" fill="white"/>
<path d="M336.59 56.32C337.12 56.1 337.66 55.86 338.21 55.63L338.42 56.58C336.9 57.3 335.3 58.04 334.29 58.48C334.27 58.61 334.21 58.7 334.11 58.75L333.53 57.53C334.11 57.32 334.81 57.03 335.59 56.71V51.4H333.81V50.37H335.59V46.74L336.9 46.82C336.88 46.93 336.79 47.01 336.58 47.04V50.37H338.21V51.4H336.58V56.31L336.59 56.32ZM344.9 50.24C345 52.46 345.19 54.56 345.48 56.29C346.15 55.01 346.68 53.57 347.07 51.99L348.32 52.29C348.29 52.4 348.18 52.47 347.97 52.47C347.46 54.44 346.74 56.22 345.78 57.72C346.18 59.42 346.69 60.49 347.3 60.49C347.65 60.49 347.83 59.63 347.89 57.72C348.11 57.94 348.45 58.2 348.69 58.3C348.5 60.76 348.18 61.5 347.17 61.52C346.23 61.52 345.52 60.48 345.03 58.78C344.23 59.8 343.3 60.67 342.24 61.36C342.1 61.17 341.76 60.83 341.54 60.67C342.79 59.9 343.84 58.84 344.73 57.58C344.3 55.58 344.04 52.99 343.93 50.25H339.69V52.51H342.39L342.61 52.49L343.11 52.52V52.87C343.05 56.58 342.98 57.85 342.69 58.25C342.35 58.68 341.95 58.68 341.23 58.68C340.96 58.68 340.67 58.66 340.38 58.65C340.35 58.38 340.27 57.98 340.12 57.74C340.7 57.79 341.24 57.79 341.45 57.79C341.66 57.79 341.77 57.77 341.87 57.63C342.03 57.39 342.09 56.35 342.14 53.42H339.68V54.01C339.68 56.32 339.39 59.44 337.63 61.52C337.47 61.31 337.05 60.98 336.81 60.85C338.49 58.9 338.67 56.14 338.67 54.01V49.24H343.87C343.85 48.38 343.82 47.5 343.82 46.62L345.18 46.7C345.16 46.83 345.07 46.89 344.84 46.92C344.84 47.69 344.84 48.47 344.87 49.24H348.42V50.25H344.9V50.24ZM346.24 46.59C347.02 47.15 347.95 47.95 348.4 48.53L347.63 49.07C347.21 48.51 346.29 47.68 345.5 47.09L346.24 46.59Z" fill="white"/>
<path d="M365.01 48.86V49.92H358.3V49.94H358.54C358.52 50.05 358.43 50.13 358.22 50.16V52.23H363.47V58.01C363.47 59.27 362.96 59.37 359.95 59.37C359.9 59.05 359.71 58.6 359.57 58.3C360.72 58.33 361.7 58.33 362 58.33C362.29 58.3 362.37 58.23 362.37 58.01V53.29H358.22V61.52H357.1V53.29H353.21V59.44H352.12V52.24H357.1V49.93H350.44V48.87H357.1V46.52L358.56 46.6C358.54 46.73 358.45 46.81 358.22 46.84V48.87H365.01V48.86Z" fill="white"/>
<path d="M369.31 48.38V52.17C369.31 54.84 369.12 58.73 367.73 61.42C367.54 61.24 367.11 60.99 366.83 60.88C368.17 58.32 368.29 54.73 368.29 52.16V47.39H381.54V48.38H369.31ZM375.9 57.94V60.07H381.6V61H369.08V60.07H371.24V56.55L372.58 56.65C372.56 56.76 372.48 56.83 372.28 56.86V60.08H374.86V55.37L376.22 55.47C376.2 55.58 376.12 55.66 375.9 55.68V57.07H379.93V57.95H375.9V57.94ZM372.94 55.39H372.01V52.93C371.45 53.88 370.68 54.79 369.98 55.31C369.84 55.09 369.55 54.78 369.36 54.62C370.16 54.12 371.02 53.15 371.6 52.17H369.86V51.32H372.02V50.09C371.41 50.19 370.79 50.27 370.21 50.31C370.16 50.13 370.03 49.83 369.92 49.64C371.34 49.48 373.01 49.21 373.86 48.82L374.72 49.48C374.66 49.53 374.64 49.53 374.43 49.53C374.03 49.67 373.52 49.82 372.94 49.93V51.32H374.86V52.17H372.94V52.28C373.39 52.58 374.51 53.4 374.8 53.66L374.22 54.38C373.98 54.11 373.42 53.6 372.94 53.18V55.39ZM378.61 55.39H377.67V52.56C377.03 53.65 376.07 54.72 375.19 55.31C375.05 55.09 374.76 54.78 374.57 54.62C375.45 54.12 376.43 53.16 377.05 52.17H375.4V51.32H377.67V50.07C377.03 50.15 376.37 50.23 375.77 50.28C375.72 50.09 375.59 49.78 375.5 49.59C377 49.45 378.83 49.17 379.74 48.79C380.3 49.19 380.46 49.32 380.6 49.45C380.54 49.5 380.52 49.5 380.31 49.5C379.86 49.66 379.27 49.79 378.61 49.92V51.33H381.35V52.18H379.22C379.83 53.16 380.8 54.07 381.8 54.52C381.58 54.7 381.29 55.02 381.14 55.26C380.16 54.7 379.24 53.68 378.61 52.6V55.4V55.39Z" fill="white"/>
<path d="M397.32 54.55H391.54C391.44 55.96 391.11 57.3 390.12 58.47C392.1 59.7 394.83 60.15 398.56 60.37C398.34 60.63 398.11 61.09 398.05 61.46C394.26 61.17 391.42 60.63 389.36 59.22C388.27 60.13 386.65 60.9 384.27 61.48C384.14 61.22 383.85 60.76 383.63 60.52C385.94 60.01 387.47 59.34 388.48 58.55C387.57 57.73 386.83 56.69 386.26 55.35L387.22 55.01C387.76 56.19 388.44 57.11 389.27 57.81C390.12 56.83 390.37 55.71 390.45 54.54H385.02V48.73H390.48V46.67L391.9 46.75C391.88 46.88 391.79 46.96 391.58 46.99V48.73H397.33V54.54L397.32 54.55ZM386.05 53.51H390.47V49.78H386.05V53.51ZM396.23 49.78H391.57V53.51H396.23V49.78Z" fill="white"/>
<path d="M408.16 56.44V59.93C409.01 60.09 409.94 60.14 410.95 60.14C411.51 60.14 414.33 60.14 415.06 60.12C414.88 60.39 414.69 60.89 414.64 61.21H410.89C407.45 61.21 404.95 60.62 403.46 57.75C402.88 59.32 402.07 60.63 400.95 61.51C400.77 61.3 400.39 60.9801 400.13 60.8101C401.89 59.5101 402.82 57.06 403.19 54.07L404.57 54.2901C404.54 54.4001 404.44 54.48 404.25 54.48C404.15 55.12 404.03 55.74 403.88 56.35C404.55 58.14 405.64 59.1 407.05 59.62V52.5801H402.97V51.5601H412.38V52.5801H408.15V55.41H413.06V56.43H408.15L408.16 56.44ZM401.98 49.5401V51.96H400.92V48.5201H407.03V46.55L408.49 46.6501C408.47 46.7601 408.38 46.84 408.15 46.87V48.5201H414.33V51.96H413.23V49.5401H401.98Z" fill="white"/>
<path d="M419.01 52.23C418.4 53.24 417.73 54.13 417.06 54.9C416.95 54.64 416.68 54.15 416.5 53.89C418.04 52.23 419.57 49.46 420.5 46.69L421.78 47.12C421.72 47.23 421.6 47.28 421.41 47.26C420.99 48.38 420.5 49.5 419.94 50.57L420.37 50.68C420.34 50.78 420.26 50.86 420.05 50.87V61.48H419.01V52.21V52.23ZM421.04 59.64H431.78V60.68H421.04V59.64ZM421.44 49.81H425.75V46.61L427.14 46.69C427.12 46.82 427.04 46.88 426.82 46.91V49.81H431.37V50.85H421.45V49.81H421.44ZM423.67 51.94C424.31 54.12 424.89 56.9 425.03 58.54L423.96 58.76C423.83 57.14 423.3 54.28 422.7 52.12L423.68 51.94H423.67ZM430.39 52.21C430.36 52.32 430.21 52.4 430.02 52.4C429.6 54.34 428.87 57.14 428.23 58.85C428.23 58.85 427.3 58.56 427.3 58.55C427.92 56.82 428.64 53.91 429.01 51.84L430.39 52.21Z" fill="white"/>
<path d="M437.63 59.21C437.63 60.44 436.62 61.45 435.39 61.45C434.16 61.45 433.15 60.44 433.15 59.21C433.15 57.98 434.16 56.97 435.39 56.97C436.62 56.97 437.63 58.01 437.63 59.21ZM437.05 59.21C437.05 58.28 436.31 57.55 435.39 57.55C434.47 57.55 433.74 58.29 433.74 59.21C433.74 60.13 434.48 60.86 435.39 60.86C436.35 60.86 437.05 60.09 437.05 59.21Z" fill="white"/>
</svg>
