<svg width="494" height="66" viewBox="0 0 494 66" fill="none" xmlns="http://www.w3.org/2000/svg">
<path d="M61.7188 42.1996H88.9987V45.8096H61.7188V42.1996ZM88.1288 24.0796V27.5995H62.6987V24.0796H73.3787V18.8296L77.9788 19.0696C77.9488 19.3696 77.7087 19.5496 77.1387 19.6696V24.0896H88.1187L88.1288 24.0796ZM69.8288 28.6796C71.1088 32.4096 72.0087 37.0996 72.2487 40.2896C72.1587 40.2896 72.0987 40.2896 68.5187 41.2096C68.4287 38.0796 67.5388 33.2396 66.3988 29.5696L69.8288 28.6696V28.6796ZM85.3488 29.6296C85.2288 29.8996 84.8687 30.1096 84.3887 30.1396C83.5787 33.8396 81.9988 38.7096 80.6888 41.7496L77.3487 40.7696C78.5987 37.5196 79.8588 32.4096 80.4788 28.5296L85.3387 29.6296H85.3488Z" fill="white"/>
<path d="M98.2882 40.3195C99.4782 40.0795 100.708 39.8095 101.958 39.5395C101.358 38.5795 100.708 37.6595 100.048 36.8195L102.858 35.3595C104.798 37.7195 106.918 40.9095 107.758 43.1195L104.718 44.7895C104.478 44.0695 104.088 43.2695 103.648 42.3995C100.338 43.3495 97.0182 44.2495 94.7882 44.8495C94.7282 45.1495 94.5182 45.3595 94.3082 45.4195L92.9082 41.3595C93.5082 41.2695 94.1582 41.1195 94.9082 40.9995V20.3195H106.128V35.0895H98.3082V40.3095L98.2882 40.3195ZM102.798 23.6395H98.2882V26.0895H102.798V23.6395ZM98.2882 31.7895H102.798V29.2795H98.2882V31.7895ZM119.928 20.2695V38.4795C119.928 41.9395 118.558 42.7195 114.078 42.7195C113.958 41.6495 113.388 39.8495 112.858 38.8395C113.578 38.8995 114.288 38.8995 114.858 38.8995C116.078 38.8995 116.198 38.8995 116.198 38.3895V23.8795H111.928V46.9795H108.258V20.2695H119.928Z" fill="white"/>
<path d="M151.51 25.0694V41.0094H138.11V25.0694H142.35L142.71 23.0394H137.01V21.8194H136.95C135.91 23.5194 134.32 25.6094 132.74 27.2194C133.46 27.7294 134.08 28.2094 134.56 28.6494L133.78 29.6894H136.17L137.93 29.8094C137.33 32.4994 136.62 35.1494 135.63 37.7194C133.18 36.7994 133.12 36.7594 133.06 36.7594C133.39 35.7194 133.78 34.2794 134.13 32.8494H132.37V43.1794C132.37 45.9594 131.56 47.0294 126.34 46.9394C126.19 45.9594 125.74 44.4894 125.27 43.5394C126.55 43.5694 127.96 43.5694 128.37 43.5694C128.79 43.5394 128.91 43.4494 128.91 43.1194V32.8494H124.43V29.6894H130.73C129.21 28.5594 127.27 27.3894 125.6 26.5894L127.39 24.2294C128.26 24.6194 129.21 25.1294 130.17 25.6294C130.83 24.9094 131.51 24.0494 132.11 23.1794H125.07V20.0794H134.53L135.07 19.8994L137.01 21.0594V20.0194H152.56V23.0294H146.47C146.29 23.6594 146.08 24.3394 145.84 25.0594H151.51V25.0694ZM144.11 42.9194C143.99 43.0394 143.81 43.0994 143.57 43.1294C142.23 44.4694 139.45 46.1694 137.09 47.0694C136.52 46.4094 135.48 45.3394 134.73 44.7394C137.03 43.8994 139.68 42.2894 141 41.0094L144.1 42.9194H144.11ZM148.08 29.6094V27.6994H141.36V29.6094H148.08ZM148.08 33.9694V32.0594H141.36V33.9694H148.08ZM148.08 38.3894V36.4494H141.36V38.3894H148.08ZM150.32 47.0494C149.28 45.9494 147.04 44.1794 145.34 42.9894L148 41.1694C149.67 42.2694 151.94 43.9194 153.13 45.0494L150.32 47.0494Z" fill="white"/>
<path d="M181.658 24.2096L183.568 24.3296C183.568 24.6296 183.538 25.1096 183.508 25.4896C183.148 38.9796 182.788 43.6696 181.628 45.1896C180.668 46.5296 179.598 46.9496 176.498 46.9496C175.688 46.9496 174.858 46.9196 174.018 46.8896C173.958 45.9296 173.508 44.4696 172.888 43.5196C174.768 43.6696 176.468 43.6696 177.248 43.6696C177.848 43.6696 178.178 43.5795 178.528 43.1595C179.398 42.2595 179.718 37.9096 180.018 27.6096H172.528C171.808 29.1896 171.008 30.6196 170.168 31.7896C169.538 31.2496 168.348 30.4196 167.448 29.9396C168.488 31.5496 169.448 33.3096 169.868 34.6296C168.858 35.1696 167.988 35.6396 167.118 36.1196C166.998 35.6696 166.788 35.1296 166.548 34.5696L164.308 34.7195V46.9896H161.028V37.4695C160.938 37.6495 160.698 37.7096 160.428 37.6796C160.068 40.1596 159.388 43.0196 158.488 44.8396C157.828 44.3896 156.608 43.8296 155.828 43.5296C156.668 41.8896 157.198 39.0496 157.498 36.4896L161.018 37.3596V34.9396C159.558 35.0296 158.268 35.0896 157.198 35.1496C157.108 35.4196 156.868 35.5396 156.628 35.5696L155.938 31.9896H158.118C158.628 31.3596 159.158 30.7096 159.698 29.9896C158.768 28.7696 157.308 27.2996 156.058 26.2296L157.698 23.7796L158.358 24.3196C159.398 22.6196 160.448 20.5296 161.048 18.8596L164.628 20.3196C164.508 20.5596 164.208 20.6796 163.818 20.6496C162.978 22.3196 161.578 24.5296 160.418 26.1696C160.868 26.6196 161.258 27.0396 161.578 27.4196C162.798 25.6596 163.908 23.8696 164.738 22.3196L168.228 23.9296C168.078 24.1396 167.778 24.2296 167.358 24.2296C165.868 26.5596 163.598 29.5396 161.478 31.9296L165.208 31.8696C164.758 31.1196 164.308 30.3796 163.868 29.6896C164.818 29.1796 165.628 28.7895 166.408 28.4095C166.708 28.8295 166.978 29.2496 167.278 29.6896C169.158 27.1796 170.708 22.9096 171.578 18.8296L175.818 19.8996C175.728 20.1696 175.458 20.3196 175.008 20.2896C174.678 21.5996 174.288 22.9496 173.818 24.2596H180.858L181.638 24.2296L181.658 24.2096ZM166.558 43.4596C166.228 41.8496 165.368 39.3096 164.558 37.3996L167.368 36.4796C168.208 38.3596 169.128 40.7496 169.518 42.3596L166.568 43.4596H166.558ZM173.128 31.1296C174.678 33.2196 176.408 35.9995 177.038 37.9095L173.908 39.5196C173.368 37.6696 171.758 34.7395 170.238 32.5995L173.138 31.1396L173.128 31.1296Z" fill="white"/>
<path d="M187.908 47.0693C188.658 44.7993 189.338 41.7893 189.698 39.4293L194.528 39.0693C193.628 41.7293 192.348 44.7993 191.098 46.7693L187.908 47.0693Z" fill="white"/>
<path d="M211.819 32.4395V40.0195C213.729 43.0895 217.399 43.0895 222.559 43.0895C225.989 43.0895 230.109 42.9995 232.889 42.7595C232.499 43.5995 231.929 45.2695 231.759 46.3095C229.549 46.4295 226.419 46.4895 223.489 46.4895C216.979 46.4895 213.129 46.4895 210.299 43.0295C208.989 44.1895 207.639 45.3595 206.509 46.2495C206.509 46.6095 206.419 46.7595 206.089 46.8795L204.299 43.0295C205.549 42.2495 207.019 41.2695 208.329 40.2495V35.7395H204.929V32.4295H211.819V32.4395ZM207.279 24.9495C209.039 25.8195 211.279 27.2495 212.349 28.3795L209.839 30.9195C208.879 29.7895 206.709 28.2295 204.939 27.2495L207.269 24.9495H207.279ZM208.529 18.9795C210.229 19.9095 212.379 21.4295 213.399 22.5595L210.829 25.0095C209.899 23.8795 207.849 22.2295 206.139 21.1895L208.529 18.9795ZM232.289 23.2795V25.8495H213.099V23.2795H232.289ZM229.839 42.0795H226.319V41.4495H218.829V42.0795H215.489V34.1395H229.849V42.0795H229.839ZM229.359 26.9795V29.3995H215.959V26.9795H229.359ZM215.959 32.9795V30.5595H229.359V32.9795H215.959ZM229.059 19.6995V22.1195H216.289V19.6995H229.059ZM218.819 38.9795H226.309V36.6195H218.819V38.9795Z" fill="white"/>
<path d="M236.18 38.6798C238.42 37.7198 241.94 36.0198 245.25 34.3798L246.24 37.6298C243.43 39.2098 240.45 40.8798 238.45 41.8998C238.45 42.2298 238.27 42.4698 238.03 42.5598L236.18 38.6798ZM238.51 21.1598C240.6 21.9398 243.49 23.2498 244.96 24.2598L242.93 27.4498C241.59 26.3798 238.75 24.8798 236.6 24.0198L238.51 21.1498V21.1598ZM256.24 27.6998C256.12 27.9098 255.85 28.0598 255.43 28.1198V30.5398C255.46 33.8198 257.19 40.4498 264.62 43.6998C263.93 44.5698 262.89 46.0598 262.32 46.9798C256.92 44.4698 254.08 39.1298 253.55 36.4098C252.83 39.0998 249.76 44.3198 243.67 46.9798C243.25 46.1398 242.12 44.6198 241.49 43.9698C249.64 40.6898 251.64 33.9698 251.64 30.5698V27.6998H249.61C248.68 29.9398 247.58 31.9398 246.39 33.4898C245.67 32.9198 244.18 32.1198 243.26 31.6998C245.68 28.8598 247.56 23.7898 248.51 18.8398L252.78 19.8298C252.69 20.0998 252.42 20.2498 251.97 20.2198C251.67 21.5298 251.31 22.8498 250.93 24.1298H260.96L261.5 23.9198L264.34 25.5898C264.22 25.7698 263.95 25.9498 263.68 25.9798C263.14 28.6998 261.98 31.9498 260.87 34.2798C260.12 33.8898 258.69 33.1798 257.83 32.8198C258.37 31.5398 258.99 29.5998 259.47 27.7198H256.25L256.24 27.6998Z" fill="white"/>
<path d="M283.699 32.4996L285.969 30.2596C289.099 32.1696 293.669 35.1196 295.879 37.1196L293.009 40.1296C291.069 38.1596 286.919 35.1796 283.699 33.0896V46.9695H279.969V32.3996C277.249 35.4996 273.939 38.3396 270.149 40.4296C269.639 39.5296 268.479 38.0996 267.789 37.3296C273.459 34.4596 278.209 29.3896 280.979 24.4396H268.859V20.8296H294.999V24.4396H285.449C284.819 25.6296 284.109 26.8296 283.329 28.0196L284.519 28.2896C284.459 28.5596 284.219 28.7996 283.679 28.8596V32.4996H283.699Z" fill="white"/>
<path d="M327.399 38.1694H321.519C320.739 39.5694 319.849 40.7694 318.769 41.7494C321.659 42.5594 324.289 43.3594 326.289 44.0794L324.139 46.9994C321.839 46.0794 318.799 45.0594 315.389 44.0794C312.049 45.7494 307.629 46.5594 301.719 46.9994C301.449 45.9894 300.879 44.6994 300.349 43.9294C304.289 43.7794 307.569 43.4194 310.229 42.7094C309.269 42.4694 308.289 42.2594 307.329 42.0194L306.999 42.4694L303.539 41.3994C304.259 40.4994 305.059 39.3694 305.899 38.1794H299.689V35.2794H307.839L309.209 33.1294H302.229V24.6794H308.559V22.9794H299.899V19.8794H327.179V22.9794H318.289V24.6794H324.859V33.1294H313.429L313.879 33.2494C313.759 33.5194 313.519 33.6394 312.979 33.6094L311.939 35.2794H327.399V38.1794V38.1694ZM305.609 27.5094V30.3194H308.569V27.5094H305.609ZM310.029 38.1694L309.159 39.4494C311.039 39.8394 312.949 40.2894 314.829 40.7294C315.839 40.0394 316.709 39.1794 317.429 38.1594H310.029V38.1694ZM311.939 22.9794V24.6794H314.889V22.9794H311.939ZM311.939 30.3194H314.889V27.5094H311.939V30.3194ZM321.309 27.5094H318.299V30.3194H321.309V27.5094Z" fill="white"/>
<path d="M359.289 36.7695V40.0795H355.589V43.0895C355.589 46.6695 353.739 46.9995 348.399 46.9995C348.219 46.0395 347.649 44.5195 347.149 43.6295C348.129 43.6895 349.239 43.6895 350.069 43.6895C351.799 43.6895 352.009 43.6895 352.009 43.0295V40.0695H338.429V46.9894H334.879V40.0695H331.119V36.7595H334.879V25.7194H343.299V23.7194H332.349V20.4395H358.079V23.7194H346.889V25.7194H355.609V36.7595H359.309L359.289 36.7695ZM343.289 28.9495H338.419V31.2795H343.289V28.9495ZM338.419 34.3195V36.7695H343.289V34.3195H338.419ZM351.999 28.9495H346.869V31.2795H351.999V28.9495ZM346.869 36.7695H351.999V34.3195H346.869V36.7695Z" fill="white"/>
<path d="M387.408 28.9496H390.928V32.0496H374.598V34.6496H370.628V41.2496L374.928 40.6496L375.108 43.6096C371.138 44.3596 366.988 45.0696 364.338 45.4896C364.308 45.7596 364.068 45.9396 363.798 45.9996L362.818 42.2696C364.128 42.1196 365.718 41.9396 367.478 41.6996V34.6595H363.328V31.6196H367.478V29.4095H364.878V29.1096L364.788 29.1996C364.248 28.4196 363.148 27.2896 362.398 26.8096C364.818 24.3896 366.638 21.2596 367.678 18.8096L371.618 19.4996C371.528 19.7696 371.318 19.9196 370.898 19.9496L370.868 20.0396C372.478 21.2296 374.418 22.7296 375.528 23.8896V22.3996H378.038V18.8196L382.038 19.0596C382.008 19.3296 381.798 19.5095 381.288 19.5995V22.4095H384.128V18.8296L388.188 19.0696C388.158 19.3396 387.948 19.5196 387.408 19.6096V22.4196H390.278V25.4296H387.408V28.9796V28.9496ZM364.728 41.2796C364.578 39.8496 364.098 37.6996 363.568 36.0596L365.898 35.3996C366.498 37.0396 366.998 39.1596 367.178 40.5296L364.728 41.2796ZM373.268 26.4196C372.248 25.3196 370.728 23.9996 369.328 22.8996C368.668 24.0596 367.928 25.2296 367.058 26.4196H373.268ZM374.608 31.6096V28.9496H378.038V25.3996H375.528V24.7096L373.918 27.1595C373.828 27.0395 373.708 26.8896 373.588 26.7696V29.3996H370.628V31.6096H374.598H374.608ZM375.208 36.2396C375.088 36.4496 374.848 36.5696 374.458 36.5696C374.128 37.7896 373.538 39.6096 372.998 40.8096L370.878 40.0296C371.328 38.7196 371.858 36.6896 372.098 35.2796L375.198 36.2396H375.208ZM376.608 46.9896V33.7996H389.288V46.8696H385.888V45.7896H379.828V46.9796H376.608V46.9896ZM385.888 36.6595H379.828V38.3896H385.888V36.6595ZM379.828 42.8396H385.888V41.0196H379.828V42.8396ZM384.128 25.4095H381.288V28.9596H384.128V25.4095Z" fill="white"/>
<path d="M401.439 30.4996V40.1396C403.229 43.1796 406.509 43.1796 412.009 43.1796C415.559 43.1796 419.829 43.0895 422.699 42.8495C422.279 43.6895 421.749 45.3296 421.569 46.3396C419.299 46.4596 416.019 46.5196 412.999 46.5196C406.109 46.5196 402.669 46.5196 399.959 43.0896C398.769 44.2496 397.509 45.3896 396.439 46.2796C396.469 46.6396 396.349 46.7595 396.049 46.9095L394.289 43.1496C395.449 42.3696 396.799 41.4196 398.019 40.3996V33.7996H394.649V30.4896H401.459L401.439 30.4996ZM397.499 19.5796C399.199 20.9196 401.289 22.9196 402.249 24.3596L399.299 26.5995C398.459 25.1695 396.459 23.0796 394.759 21.6196L397.509 19.5896L397.499 19.5796ZM406.599 31.6396V42.0596H403.499V28.9296H405.829V19.7096H418.629V28.9296H420.929V38.9896C420.929 41.6796 419.969 42.1196 416.039 42.1196C415.919 41.3396 415.619 40.2996 415.259 39.5196H410.749V40.4496H408.179V32.8996H416.059V39.3495H417.279C417.579 39.3495 417.669 39.2596 417.669 38.9596V31.6496H406.599V31.6396ZM408.929 22.3596V28.9296H410.659V24.2195H415.409V22.3696H408.929V22.3596ZM413.469 37.2496V35.1595H410.749V37.2496H413.469ZM415.409 28.9196V26.4396H413.199V28.9196H415.409Z" fill="white"/>
<path d="M428.85 41.6895C428.85 40.1095 430.13 38.7995 431.72 38.7995C433.31 38.7995 434.56 40.1095 434.56 41.6895C434.56 43.2695 433.31 44.5895 431.72 44.5895C430.13 44.5895 428.85 43.2495 428.85 41.6895ZM430.04 36.6195L429.29 21.2495H434.24L433.52 36.6195H430.03H430.04Z" fill="white"/>
<path d="M460.989 0.839844H33.2892C15.5664 0.839844 1.19922 15.207 1.19922 32.9298C1.19922 50.6526 15.5664 65.0198 33.2892 65.0198H460.989C478.712 65.0198 493.079 50.6526 493.079 32.9298C493.079 15.207 478.712 0.839844 460.989 0.839844Z" stroke="white" stroke-width="1.1" stroke-miterlimit="10"/>
</svg>
