<?xml version="1.0" encoding="utf-8"?>
<!-- Generator: Adobe Illustrator 27.0.0, SVG Export Plug-In . SVG Version: 6.00 Build 0)  -->
<svg version="1.1" id="_圖層_2" xmlns="http://www.w3.org/2000/svg" xmlns:xlink="http://www.w3.org/1999/xlink" x="0px" y="0px"
	 viewBox="0 0 65.2 26.9" style="enable-background:new 0 0 65.2 26.9;" xml:space="preserve">
<style type="text/css">
	.st0{fill:#FFFFFF;}
</style>
<g id="_圖層_1-2">
	<g>
		<g>
			<path class="st0" d="M22.2,13.7h2.3c0.8-0.8,1.1-1.8,1.2-2.8l2.3,0.2c0,0.1-0.2,0.2-0.4,0.3c-0.2,1.5-0.6,3.3-2.5,4.5
				c-0.1-0.2-0.2-0.4-0.4-0.6v0.1h-5.3v0.6h-1.9v-4.4c-0.1,0.1-0.2,0.3-0.4,0.4c-0.2-0.4-0.7-1.2-0.9-1.6C16.9,9.6,17.6,8.3,18,7
				h-1.2V3.6h3.6V7h-1.1l0.8,0.3c-0.1,0.1-0.2,0.2-0.4,0.2L19.5,8h1c0.2-0.4,0.3-0.9,0.4-1.2V3.6h3.7V7h-2.9L23,7.4
				c0,0.1-0.2,0.2-0.4,0.2L22.3,8h2.3v1.6h-2.4V10h2v1.4h-2v0.4h2v1.4h-2V13.7L22.2,13.7z M17.8,3.2V2.6h-1.5V1h1.5V0l2.5,0.1
				c0,0.2-0.1,0.3-0.4,0.3V1h1.5V0l2.5,0.1c0,0.2-0.1,0.3-0.4,0.3V1h1.3v1.6h-1.3v0.6h-2V2.6h-1.5v0.6C19.8,3.2,17.8,3.2,17.8,3.2z
				 M18.3,5v0.6h0.5V5C18.8,5,18.3,5,18.3,5z M20.2,10V9.6h-0.9V10H20.2z M20.2,11.9v-0.4h-0.9v0.4H20.2z M19.4,13.2v0.4h0.9v-0.4
				H19.4z M22.4,5v0.6h0.6V5H22.4z M30.1,13.3c0,0.5,0,0.5,0.1,0.5h0.1c0.2,0,0.2-0.2,0.3-1.8c0.4,0.3,1.2,0.6,1.8,0.8
				c-0.2,2.3-0.7,2.9-1.8,2.9h-0.8c-1.5,0-1.8-0.6-1.8-2.4v-2.8h-3V0.6h6.4v9.9h-1.4L30.1,13.3L30.1,13.3z M27.2,2.6v0.7h2.2V2.6
				H27.2z M27.2,5.1v0.7h2.2V5.1H27.2z M27.2,7.7v0.7h2.2V7.7H27.2z"/>
			<path class="st0" d="M40.4,8.7c0,0.2-0.2,0.3-0.5,0.4c-0.4,2.9-1,5.4-5.5,6.9c-0.2-0.6-0.9-1.6-1.5-2.1c3.9-1.1,4.2-2.9,4.4-5.4
				L40.4,8.7L40.4,8.7z M44.4,12.8c0,0.6,0.1,0.7,0.5,0.7h1.2c0.5,0,0.6-0.4,0.7-2.6c0.5,0.4,1.6,0.8,2.2,1c-0.2,3-0.8,3.9-2.7,3.9
				h-1.8c-2.1,0-2.6-0.8-2.6-3V8.3h-8.5V6h6.3V0l3,0.2c0,0.2-0.2,0.3-0.5,0.4V6h6.5v2.3h-4c-0.1,0-0.2,0.1-0.3,0.1L44.4,12.8
				L44.4,12.8z M36.7,0.6c0.7,1.3,1.5,2.9,1.8,4l-2.4,1c-0.2-1.1-0.9-2.8-1.6-4.1L36.7,0.6L36.7,0.6z M43.4,4.7
				c0.7-1.1,1.5-2.8,1.9-4.1l2.8,1.1c-0.1,0.1-0.3,0.2-0.6,0.2c-0.5,1.2-1.4,2.7-2,3.7L43.4,4.7L43.4,4.7z"/>
		</g>
		<g>
			<path class="st0" d="M12.6,22c-0.2-0.1-0.6-0.2-1-0.2c-0.6,0-0.9,0.3-0.9,0.6c0,0.4,0.3,0.6,1,0.9c0.9,0.4,1.4,1,1.4,1.7
				c0,1-0.8,1.8-2.1,1.8c-0.6,0-1.2-0.2-1.4-0.3l0.2-1c0.3,0.2,0.8,0.3,1.3,0.3c0.6,0,1-0.3,1-0.7s-0.3-0.7-0.9-1
				c-0.9-0.4-1.4-0.9-1.4-1.7c0-1,0.8-1.7,2-1.7c0.6,0,1,0.1,1.3,0.3L12.6,22L12.6,22z"/>
			<path class="st0" d="M14,20.9h1.1v5.9H14V20.9z"/>
			<path class="st0" d="M20.5,26.5c-0.3,0.1-1,0.3-1.7,0.3c-0.9,0-1.6-0.2-2.1-0.7c-0.5-0.5-0.8-1.3-0.8-2.2c0-2,1.3-3.1,3-3.1
				c0.6,0,1.1,0.1,1.4,0.2L20.1,22c-0.3-0.1-0.6-0.2-1.1-0.2c-1,0-1.9,0.6-1.9,2.1s0.7,2,1.7,2c0.3,0,0.5,0,0.6-0.1v-1.4h-0.9v-0.9
				h1.9L20.5,26.5L20.5,26.5z"/>
			<path class="st0" d="M25.8,26.8h-1.1v-2.5h-2v2.5h-1.1v-5.9h1.1v2.4h2v-2.4h1.1C25.8,20.9,25.8,26.8,25.8,26.8z"/>
			<path class="st0" d="M30.5,21.9H29v4.9h-1.1v-4.9h-1.5v-1h4C30.5,20.9,30.5,21.9,30.5,21.9z"/>
			<path class="st0" d="M34,22c-0.2-0.1-0.6-0.2-1-0.2c-0.6,0-0.9,0.3-0.9,0.6c0,0.4,0.3,0.6,1,0.9c0.9,0.4,1.4,1,1.4,1.7
				c0,1-0.8,1.8-2.1,1.8c-0.6,0-1.2-0.2-1.5-0.3l0.2-1c0.3,0.2,0.8,0.3,1.3,0.3c0.6,0,1-0.3,1-0.7s-0.3-0.7-0.9-1
				c-0.9-0.4-1.4-0.9-1.4-1.7c0-1,0.8-1.7,2-1.7c0.6,0,1,0.1,1.3,0.3L34,22L34,22z"/>
			<path class="st0" d="M38.7,26.8h-3.3v-5.9h3.2v1h-2v1.4h1.9v0.9h-1.9v1.6h2.2C38.7,25.8,38.7,26.8,38.7,26.8z"/>
			<path class="st0" d="M42.8,26.8h-3.3v-5.9h3.2v1h-2v1.4h1.9v0.9h-1.9v1.6h2.2C42.8,25.8,42.8,26.8,42.8,26.8z"/>
			<path class="st0" d="M43.7,20.9h1.1v5.9h-1.1V20.9z"/>
			<path class="st0" d="M50.3,26.8h-1.1l-1.3-2.4c-0.3-0.6-0.7-1.3-0.9-2h0c0,0.7,0.1,1.5,0.1,2.6v1.8h-1v-5.9h1.2l1.2,2.4
				c0.3,0.6,0.6,1.3,0.9,1.9h0c-0.1-0.8-0.1-1.6-0.1-2.5v-1.8h1L50.3,26.8L50.3,26.8z"/>
			<path class="st0" d="M55.7,26.5c-0.3,0.1-1,0.3-1.7,0.3c-0.9,0-1.6-0.2-2.1-0.7c-0.5-0.5-0.8-1.3-0.8-2.2c0-2,1.3-3.1,3-3.1
				c0.6,0,1.1,0.1,1.4,0.2L55.3,22c-0.3-0.1-0.6-0.2-1.1-0.2c-1,0-1.8,0.6-1.8,2.1s0.7,2,1.7,2c0.3,0,0.5,0,0.6-0.1v-1.4h-0.8v-0.9
				h1.9L55.7,26.5L55.7,26.5z"/>
		</g>
	</g>
</g>
</svg>
