<svg width="440" height="107" viewBox="0 0 440 107" fill="none" xmlns="http://www.w3.org/2000/svg">
<g filter="url(#filter0_d_3_1403)">
<path d="M74.4797 23.77C72.9197 22.34 69.3897 20.47 66.6997 19.42C67.7897 17.77 68.8697 16.12 69.9197 14.46C72.5697 15.33 76.1397 16.94 77.9197 18.29L74.4897 23.77H74.4797ZM107.74 30.68H100.09C102.35 33.42 105.39 35.94 108.52 37.51C107.04 38.68 105.04 41.03 104.04 42.68C101.26 40.77 98.6497 37.94 96.5197 34.72V43.59H90.2997V34.94C87.8197 38.2 84.7397 40.94 81.1297 42.72C80.2197 41.29 78.4297 39.07 77.1697 37.89C80.9997 36.37 84.3897 33.76 86.8197 30.67H79.7297V29.67C77.8197 34.28 75.6897 38.71 73.8197 42.1C74.0797 42.45 74.2097 42.75 74.2097 43.06C74.2097 43.32 74.1197 43.58 73.9497 43.8L67.7297 39.71C69.7697 36.32 72.6897 30.88 74.9897 25.62L79.7297 29.27V25.05H90.2897V20.88L96.9397 21.23C94.8497 20.53 94.3797 18.8 94.3797 15.36V10.1L101.38 10.49C101.34 10.92 100.99 11.23 100.16 11.36V15.32C100.16 16.45 100.25 16.54 100.9 16.54H102.2C102.77 16.54 102.94 16.24 103.07 14.67C104.11 15.45 106.46 16.32 108.03 16.63C107.42 20.5 105.94 21.59 102.9 21.59H99.8597C99.0797 21.59 98.3797 21.55 97.7697 21.46C97.6797 21.85 97.3397 22.07 96.5097 22.24V25.07H107.73V30.68H107.74ZM72.0497 2.85999C74.6097 3.89999 78.0897 5.72998 79.7897 7.24998L75.9197 12.34C74.3997 10.77 71.0497 8.72999 68.4397 7.46999L72.0497 2.85999ZM93.7397 10.77C93.6997 11.16 93.3497 11.47 92.6497 11.55C91.9997 16.72 90.6897 20.77 81.9597 22.94C81.4797 21.55 80.0897 19.42 78.9597 18.37C85.9597 16.98 86.6497 14.54 86.9997 10.2L93.7397 10.77ZM85.6497 9.50998V14.29H80.2197V4.19998H107.13V14.29H101.44V9.50998H85.6597H85.6497Z" fill="white"/>
<path d="M156.81 23.77V29.6H152.77V43.68H146.73V29.6H143.38C142.77 35.03 141.12 40.51 137.34 43.86C136.12 42.99 133.51 41.56 132.04 40.9C135.43 38.16 136.82 33.81 137.39 29.6H133.35V26.17H127.79C129.35 27.65 133.09 31.65 134.01 32.65L130.71 36.69C130.01 35.52 128.93 33.95 127.75 32.39V43.69H121.92V34.73C120.7 37.12 119.36 39.34 117.88 40.95C117.36 39.21 116.1 36.73 115.19 35.21C117.32 32.91 119.41 29.43 120.8 26.17H115.67V20.91H121.93V19.43H116.8V14.17H121.93V12.74H116.02V7.48001H121.93V2.39001L129.02 2.78001C128.98 3.21001 128.63 3.52001 127.76 3.65001V7.48001H133.45V12.74H127.76V14.17H132.5V19.43H127.76V20.91H133.5V23.78H137.76V16.48H134.28V10.65H137.76V2.48001L144.93 2.87001C144.89 3.35001 144.54 3.61001 143.67 3.78001V10.65H146.76V2.39001L154.06 2.78001C154.02 3.26001 153.67 3.52002 152.8 3.69002V10.65H156.41V16.48H152.8V23.78H156.84L156.81 23.77ZM143.64 23.77H146.73V16.47H143.64V23.77Z" fill="white"/>
<path d="M183.24 8.56006C183.81 9.86006 184.37 11.3401 184.89 12.8201V2.47006L191.85 2.82007C191.81 3.30007 191.46 3.60006 190.59 3.73006V21.1201C190.59 29.7701 188.85 38.9001 181.11 43.9901C180.28 42.7701 178.33 40.5101 177.07 39.4701C181.2 37.4301 183.16 34.1201 184.07 30.3401C182.98 31.3801 181.94 32.3001 181.11 33.0401C181.15 33.5201 180.94 33.91 180.59 34.08L177.85 28.5601L177.07 29.6501C176.68 28.6501 176.11 27.3901 175.46 26.0401V43.7301H169.77V29.5101C168.81 32.1201 167.77 34.4201 166.55 36.2101C166.03 34.5101 164.72 32.0801 163.86 30.6001C166.25 27.3001 168.29 21.8201 169.34 17.0401H164.95V11.2101H169.78V2.43005L176.74 2.82007C176.7 3.25007 176.35 3.52006 175.48 3.69006V11.2101H178.96L178.66 10.3801L183.27 8.55006L183.24 8.56006ZM179.07 26.8601C179.24 26.8601 183.77 23.7701 184.9 22.9901V18.8201L181.51 20.2101C181.21 17.9901 180.25 14.7801 179.25 11.9901V17.0301H175.47V18.4601C176.6 19.9401 179.56 24.2001 180.25 25.2001L179.08 26.8501L179.07 26.8601ZM206.33 11.0801C206.11 11.4701 205.59 11.6001 204.98 11.5601C204.07 14.0401 202.33 17.5201 201.07 19.7301L198.24 18.2501V21.7701L199.28 20.8601C201.54 23.2901 204.67 26.6901 206.11 28.8601L201.98 32.7301C201.2 31.3401 199.76 29.4301 198.24 27.5601V35.3401C198.24 37.4701 198.28 37.7301 198.85 37.7301H200.02C200.63 37.7301 200.8 36.6001 200.89 32.8201C202.24 33.8201 204.41 34.8601 206.11 35.2501C205.5 41.0301 204.07 43.3401 200.59 43.3401H197.63C193.5 43.3401 192.33 41.56 192.33 35.3V2.48006L199.5 2.87006C199.46 3.35006 199.11 3.61006 198.24 3.78006V14.0001C198.94 12.0401 199.59 9.91006 200.02 8.17006L206.32 11.0801H206.33Z" fill="white"/>
<path d="M214.62 3.94995H252.4V43.7699H246.23V42.34H220.54V43.7699H214.63V3.94995H214.62ZM220.53 36.6799H246.22V28.94C246 29.16 245.57 29.24 245.09 29.16C244.31 29.64 243.13 30.3299 242 30.9899C243.3 31.5099 244.7 31.95 246.09 32.25C245.05 33.16 243.61 34.99 242.92 36.16C240.22 35.33 237.7 33.94 235.53 32.25V35.8999H230.01V32.47C227.97 33.56 225.79 34.51 223.66 35.25C223.01 34.25 221.53 32.42 220.62 31.51C223.79 30.6 227.14 29.21 229.79 27.47H224.23V20.34H242.23V26.08L246.23 28.86V9.59996H220.54V36.6799H220.53ZM245.09 15.99V19.38H221.62V15.99H230.49V14.95H223.67V11.6499H230.49V9.90996L237.45 10.3C237.41 10.74 237.06 11 236.19 11.17V11.6499H243.06V14.95H236.19V15.99H245.1H245.09ZM236.74 24.55V23.2H229.39V24.55H236.74ZM237.04 27.46L236.61 27.85C237.09 28.28 237.65 28.6799 238.22 29.0199C238.92 28.5399 239.7 28.02 240.39 27.45H237.04V27.46Z" fill="white"/>
<path d="M283.26 39.5901H262.18V34.8101L266.01 30.6801C271.7 24.7301 275.14 20.8601 275.14 16.8601C275.14 14.3401 273.62 12.2501 270.44 12.2501C268.22 12.2501 266.05 13.3801 264.53 14.4701L262.53 8.91008C264.57 7.43008 268.18 6.08008 271.96 6.08008C279.39 6.08008 282.74 10.6501 282.74 16.1701C282.74 21.6901 278.91 26.4701 274.87 30.4701L272.09 33.1201V33.2101H283.26V39.6001V39.5901Z" fill="white"/>
<path d="M312.6 6.56006V12.8601H301.73L301.12 18.0801C301.64 18.0401 302.12 17.9901 302.64 17.9901C307.77 17.9901 313.73 20.8201 313.73 28.3801C313.73 34.6401 308.9 40.0701 300.65 40.0701C297.35 40.0701 294.3 39.2901 292.69 38.4601L294.04 32.6801C295.43 33.3301 297.69 34.0701 300.13 34.0701C303.22 34.0701 306.04 32.2401 306.04 28.9401C306.04 25.2401 303.08 23.4201 297.82 23.4201C296.47 23.4201 295.43 23.4601 294.39 23.6401L296.3 6.56006H312.6Z" fill="white"/>
<path d="M363.33 28.73V34.86H348.9V43.73H342.38V34.86H322.99V28.73H329.73V18.56C328.99 19.47 328.21 20.34 327.43 21.08C326.26 19.86 323.87 17.73 322.34 16.69C326.08 13.47 329.51 7.73001 331.3 2.26001L338.86 4.61002C338.69 5.00002 338.21 5.26001 337.56 5.18001C337.34 5.79001 337.08 6.35002 336.82 6.96002H360.73V13.09H348.91V17.48H359.73V23.35H348.91V28.74H363.34L363.33 28.73ZM342.38 13.08H333.6C332.69 14.65 331.69 16.12 330.6 17.47H342.38V13.08ZM336.08 28.73H342.38V23.34H336.08V28.73Z" fill="white"/>
<path d="M1.66992 56.88H39.4499V96.53H33.1899V94.83H7.62992V96.53H1.66992V56.88ZM7.62992 89.18H33.1899V62.53H29.8899C30.8899 63.14 31.8499 63.83 32.3699 64.49L30.8099 66.1H32.2399V70.45H25.2399C25.3699 71.93 25.4999 73.32 25.6699 74.62C26.1099 73.53 26.4999 72.36 26.7999 71.19L32.3199 72.54C32.2299 72.89 31.8399 73.11 31.2299 73.11C30.2699 76.15 28.9299 79.02 27.2299 81.5C27.5799 82.33 28.0099 82.85 28.4499 82.98H28.4899C28.8399 82.98 29.1399 81.24 29.3199 79.28C30.2799 80.19 32.0999 81.71 33.0999 82.32C32.5799 86.62 30.8399 88.58 28.6199 88.58C27.4899 88.58 25.2299 87.93 23.7499 85.67C22.4899 86.89 21.0999 87.97 19.6199 88.84C19.0099 87.93 17.6599 86.32 16.7499 85.41C14.3199 85.8 12.0499 86.15 10.3999 86.37C10.3099 86.76 10.0099 86.98 9.69992 87.07L8.21992 82.07C11.2599 81.85 15.6499 81.46 20.0399 81.03L20.0799 82.73C20.6899 82.16 21.2099 81.6 21.7799 80.99C20.9499 78.08 20.4799 74.43 20.1699 70.47H8.73992V66.12H19.8699C19.7799 65.08 19.7399 64.03 19.6999 62.95L26.1299 63.21C26.0899 63.64 25.6899 64.04 24.9099 64.12C24.9099 64.77 24.9499 65.47 24.9499 66.12H28.1199C27.3799 65.55 26.5599 64.95 25.8199 64.51L27.8199 62.55H7.60992V89.2L7.62992 89.18ZM19.4099 71.84V80.06H9.62992V71.84H19.4099ZM15.2799 76.88V75.01H13.5399V76.88H15.2799Z" fill="white"/>
<path d="M76.2598 71.7901C76.7398 73.2701 77.3498 74.7001 78.0398 76.0901C79.9098 74.7901 81.8198 73.2601 83.1698 71.9601L88.6498 76.9601C88.4298 77.1301 88.0798 77.2201 87.6498 77.2201C87.4798 77.2201 87.2998 77.2201 87.1298 77.1801C85.6498 78.2201 83.2598 79.7001 81.1298 80.8801C83.5198 83.7501 86.5198 86.0501 90.2598 87.5301C88.8298 88.7901 86.9098 91.31 85.9598 93.05C78.1298 89.27 73.7398 82.2701 70.9598 73.1001C69.9598 73.7501 68.8698 74.4001 67.6998 75.0101C73.0898 78.8401 75.1798 83.7001 75.1798 87.7901C75.1798 93.3101 71.3998 96.5301 66.7498 96.5301C65.7098 96.5301 64.5798 96.4901 63.4498 96.4401C63.3598 94.8301 62.9698 92.5701 62.0198 90.7901C58.8898 92.4401 55.6298 93.9201 52.6698 94.9601C51.9298 93.3901 50.5798 91.1301 49.3198 89.7401C55.3598 88.3101 62.4898 85.0001 66.7998 81.6501L66.4098 81.1701C62.7598 83.4301 57.8898 85.73 54.0198 87.08C53.3198 85.69 52.0198 83.5601 50.8898 82.3401C54.7598 81.4701 59.5798 79.7301 62.8898 77.9101L62.2798 77.4801C59.5398 78.5701 56.6298 79.4401 53.7598 80.1301C53.1498 78.9101 51.7198 76.5701 50.8498 75.4301C55.0198 74.6501 59.3698 73.4301 63.0198 71.7801H57.9298V66.4801H80.4498V71.7801H76.2798L76.2598 71.7901ZM56.8298 64.7001V69.4401H50.6598V59.0101H65.8798V55.05L73.7098 55.4801C73.6698 55.9601 73.3198 56.2601 72.4098 56.3901V59.0001H88.0198V69.4301H81.5398V64.6901H56.8498L56.8298 64.7001ZM68.7798 86.61C66.9098 87.96 64.7398 89.3101 62.4798 90.5201C63.6098 90.6101 64.5698 90.6501 65.4798 90.6501C66.3898 90.6501 67.2598 90.5201 67.7798 89.8201C68.4798 89.3001 68.9098 88.1201 68.7798 86.6001V86.61Z" fill="white"/>
<path d="M108.21 69.45L111.69 70.41C111.65 70.76 111.52 71.15 111.34 71.41C110.86 77.06 109.95 81.97 108.6 86.02C112.56 88.8 117.77 89.37 123.69 89.41C126.78 89.41 135.34 89.41 139.04 89.24C138.08 90.67 137.04 93.59 136.65 95.41H123.52C116.52 95.41 110.74 94.63 106.13 91.5C104.91 93.59 103.43 95.33 101.74 96.63C100.78 95.41 98.35 93.2 97 92.41C98.91 91.06 100.43 89.32 101.65 87.11C100.04 84.89 98.65 82.11 97.52 78.63L102.43 76.93C102.91 78.41 103.47 79.67 104.08 80.8C104.51 79.06 104.86 77.15 105.12 75.06H103.38L102.95 76.06L97.26 74.63C98.96 70.93 100.87 66.54 102.39 62.8H97.43V57.32H105.78L106.95 57.19L110.47 58.36C110.34 58.66 110.17 59.06 109.99 59.36C108.95 62.06 107.38 65.79 105.77 69.58H107.16L108.2 69.45H108.21ZM120.21 63.62V62.62H113.08V57.93H120.21V55.02L127.6 55.41C127.56 55.89 127.21 56.19 126.34 56.32V57.93H134.73V63.62H138.38V68.4H134.73V74.09H126.34V75.09H135.43V79.57H126.34V80.61H137.38V85.52H126.34V88.65H120.21V85.52H110.39V80.61H120.21V79.57H112.3V75.09H120.21V74.09H112.95V69.4H120.21V68.4H109.78V63.62H120.21ZM128.51 62.62H126.34V63.62H128.51V62.62ZM128.51 69.4V68.4H126.34V69.4H128.51Z" fill="white"/>
<path d="M186.59 86.44H173.81C177.37 88.14 182.37 89.4 187.37 89.92C186.02 91.22 184.24 93.7 183.37 95.31C178.37 94.27 173.46 92.22 169.68 89.35V96.35H163.55V89.26C159.72 92.09 154.77 94.26 149.77 95.39C148.9 93.87 147.16 91.52 145.9 90.26C150.64 89.56 155.46 88.22 158.94 86.43H146.68V81.56H163.55V79.65C163.03 79.09 162.38 78.48 161.81 77.95C157.12 78.78 152.55 79.52 149.29 79.95C149.25 80.34 148.94 80.56 148.59 80.65L146.76 75.22C148.54 75.09 150.76 74.92 153.19 74.7V70.87H148.06V66.61H163.93V70.87H158.89V74.17L163.98 73.65L164.02 74.82C165.37 73.6 165.54 72.26 165.54 70.78V66.43H176.32C175.93 65.47 175.1 64.08 174.28 62.86H172.15C171.28 63.95 170.32 64.99 169.37 65.82C168.07 64.91 165.72 63.78 164.15 63.08L164.41 62.86H159.85C160.37 63.69 160.81 64.51 161.07 65.16L156.03 66.59C155.73 65.59 154.99 64.11 154.2 62.85H153.9C152.9 64.11 151.81 65.33 150.73 66.28C149.56 65.28 147.38 63.85 145.99 63.11C148.51 61.11 150.95 57.68 152.29 54.63L158.81 56.76C158.59 57.15 158.11 57.28 157.64 57.24L157.25 57.98H165.99V61.41C167.82 59.5 169.42 56.98 170.34 54.63L176.99 56.59C176.82 56.98 176.38 57.16 175.82 57.11C175.69 57.41 175.56 57.68 175.39 57.98H186.95V62.85H180.43C180.99 63.63 181.47 64.42 181.78 65.07L176.74 66.42H181.91V73.46C181.91 74.76 181.91 74.89 182.26 74.89C182.82 74.89 182.87 74.89 183 74.8C183.3 74.5 183.39 72.93 183.44 71.1C184.31 71.93 186.14 72.84 187.44 73.27C187.14 77.01 186.92 79.83 182.7 79.83H180.48C179.26 79.83 177.96 79.44 177.18 78.61C176.66 78.04 176.31 77.39 176.14 76.26L173.75 78.39C173.1 77.43 171.88 76.13 170.66 75C170.27 76.3 169.53 77.48 168.44 78.56L170.96 78.69C170.92 79.17 170.57 79.47 169.7 79.6V81.51H186.61V86.38L186.59 86.44ZM175.98 70.44H171.24C171.24 71.4 171.24 71.57 171.15 72.7L173.15 71C174.06 71.65 175.11 72.52 175.98 73.35V70.44Z" fill="white"/>
<path d="M224.75 82.36L229.71 84.45C229.49 84.84 228.97 84.97 228.36 84.93C227.49 86.45 226.06 88.32 224.84 89.89H233.71V95.28H196.93V89.89H204.71C203.97 88.02 202.71 85.59 201.45 83.72L204.67 82.37H199.24V76.98H211.67V73.5H204.19V71.5C202.23 72.89 200.19 74.19 198.06 75.33C197.23 73.85 195.5 71.5 194.19 70.29C201.62 66.68 208.62 60.07 211.75 54.86L220.01 55.34C219.88 55.82 219.45 56.25 218.75 56.3C222.92 61.91 230.18 67.08 236.62 69.6C235.06 71.21 233.62 73.38 232.45 75.29C230.36 74.2 228.23 72.86 226.15 71.38V73.51H218.41V76.99H230.97V82.38H224.75V82.36ZM211.66 82.36H207.1C208.49 84.36 209.93 86.75 210.49 88.49L207.32 89.88H211.67V82.36H211.66ZM221.79 68.01C219.09 65.75 216.75 63.32 215.14 61.1C213.53 63.36 211.27 65.75 208.66 68.01H221.79ZM219.18 88.83C220.44 87.09 221.96 84.53 222.92 82.35H218.4V89.87H221.36L219.19 88.83H219.18Z" fill="white"/>
<path d="M252.92 72.62H251.22C251.22 74.53 250.66 79.05 247.83 81.49C246.79 80.71 244.44 79.45 243.09 78.88C245.26 77.14 245.65 74.1 245.7 72.62H243.35V67.79H252.91V66.05H245.17V56.36L251.52 56.71C251.48 57.14 251.17 57.41 250.39 57.54V61.32H252.91V55.1L259.87 55.49C259.83 55.92 259.48 56.19 258.61 56.36V80.18H252.92V72.62ZM283.96 87.92H270.83C273.7 89.92 278.22 90.66 284.96 90.66C283.66 92.01 282.13 94.62 281.44 96.44C272.18 95.79 267.27 93.7 264.01 88.66C261.71 92.53 256.97 95.05 246.06 96.44C245.62 94.83 244.23 92.44 243.15 91.09C249.93 90.48 253.89 89.48 256.23 87.92H244.06V82.79H259.45C259.67 81.53 259.8 80.09 259.89 78.44L267.58 79.05C267.49 79.53 267.06 79.83 266.32 79.96L265.93 82.79H273.06C271.8 82.35 270.54 81.96 269.41 81.66L271.19 79.27C270.89 77.92 270.28 76.4 269.76 75.27C270.85 75.31 272.37 75.31 272.8 75.31C273.23 75.31 273.41 75.18 273.41 74.74V72.74H267.11C268.2 73.87 269.24 75.13 269.81 76.17L265.33 78.69C264.76 77.39 263.24 75.43 261.85 74.04L264.15 72.74H259.59V68.48H261.89C261.33 67.39 260.5 66.18 259.85 65.35C261.76 65.18 263.63 64.96 265.37 64.61C264.72 64.09 263.98 63.57 263.28 63.13L266.37 61.87C267.24 62.35 268.28 63.04 269.11 63.7C269.55 63.61 269.94 63.48 270.33 63.31C269.55 62.7 268.5 62.05 267.59 61.57L269.33 60.7H267.81C266.16 61.44 264.33 62.09 262.25 62.7C261.6 61.66 260.16 60.09 259.12 59.44C264.16 58.4 267.73 56.92 269.73 55.09L275.16 56.13C275.07 56.48 274.72 56.69 274.16 56.69L273.59 57.17H279.33L280.24 57.04L283.67 58.47C283.58 58.73 283.37 58.91 283.19 59.08C281.36 62.12 278.63 64.25 275.23 65.86L280.53 66.03C280.44 66.46 280.18 66.81 279.36 66.9V68.47H284.66V72.73H279.36V74.95C279.36 78.38 278.23 78.82 276.53 79.38C278.18 79.9 279.75 80.47 280.83 80.95L279.53 82.78H283.96V87.91V87.92ZM273.4 66.62C271.31 67.4 269.01 68.01 266.53 68.49H273.4V66.62ZM271.75 60.71C272.4 61.06 273.05 61.49 273.58 61.88C274.28 61.53 274.88 61.14 275.45 60.71H271.75Z" fill="white"/>
<path d="M293.6 87.62H331.55V94.1H293.6V87.62ZM296.03 59.23H329.29V65.71H296.03V59.23ZM299.16 73.1H325.81V79.53H299.16V73.1Z" fill="white"/>
<path d="M358.32 88.5701C358.32 90.3501 358.89 90.5701 362.62 90.5701H372.88C376.01 90.5701 376.49 89.83 376.88 85.05C378.23 85.96 380.79 86.8301 382.4 87.1401C381.53 94.2301 379.75 96.0101 373.18 96.0101H362.31C354.57 96.0101 352.44 94.3601 352.44 88.6601V79.6601H350.83C350.83 83.3601 350.83 91.4001 344.53 96.5701C343.7 95.4001 341.31 93.0101 340.18 92.2701C345.01 88.4401 345.01 83.4001 345.01 79.6601H341.36V73.83H361.75V68.4401H370.66V64.2201L373.83 64.3501V62.6501H348.62V65.2101H360.23V70.9901H344.54V66.7301H342.45V56.8201H380.36V66.7301H376.67V68.4301H381.15V74.0401H376.67V83.2101C376.67 87.1701 375.84 89.2101 368.37 89.2101C368.15 87.5601 367.33 85.1701 366.54 83.6501C367.89 83.7401 369.5 83.7401 369.97 83.7401C370.49 83.7401 370.67 83.5701 370.67 83.0901V74.05H361.93V76.5701L366.62 74.6601C368.1 76.6601 369.49 79.3601 370.1 81.2201L365.01 83.5701C364.53 81.7401 363.27 79.0101 361.92 76.9201V79.6601H358.31V88.5701H358.32Z" fill="white"/>
<path d="M413.23 88.7901H430.05V95.0101H390.14V88.7901H406.44V79.0101H394.35V72.7901H406.44V64.2701H392.22V58.05H427.82V64.2701H413.21V72.7901H426.08V79.0101H413.21V88.7901H413.23Z" fill="white"/>
</g>
<defs>
<filter id="filter0_d_3_1403" x="0.00992203" y="0.60001" width="439.46" height="105.45" filterUnits="userSpaceOnUse" color-interpolation-filters="sRGB">
<feFlood flood-opacity="0" result="BackgroundImageFix"/>
<feColorMatrix in="SourceAlpha" type="matrix" values="0 0 0 0 0 0 0 0 0 0 0 0 0 0 0 0 0 0 127 0" result="hardAlpha"/>
<feOffset dx="3.88" dy="3.88"/>
<feGaussianBlur stdDeviation="2.77"/>
<feColorMatrix type="matrix" values="0 0 0 0 0.101961 0 0 0 0 0.12549 0 0 0 0 0.219608 0 0 0 0.34 0"/>
<feBlend mode="normal" in2="BackgroundImageFix" result="effect1_dropShadow_3_1403"/>
<feBlend mode="normal" in="SourceGraphic" in2="effect1_dropShadow_3_1403" result="shape"/>
</filter>
</defs>
</svg>
