<svg width="1277" height="110" viewBox="0 0 1277 110" fill="none" xmlns="http://www.w3.org/2000/svg">
<path d="M103.995 38.49H87.165C82.815 45.135 77.31 50.97 70.785 56.01C82.125 59.445 95.07 61.74 109.155 62.88C105.495 66.78 100.8 74.34 98.505 79.035C95.295 78.57 92.085 78.12 88.995 77.55V108.705H71.82V105.615H38.025V109.05H21.765V78.12C17.19 79.26 12.495 80.295 7.785 81.09C6.3 76.86 2.865 69.975 0 66.315C13.17 64.485 26.115 61.395 37.455 57.045C34.935 55.095 32.535 53.145 30.12 50.97C26.565 53.025 22.68 54.975 18.435 56.925C16.26 53.025 11.1 47.07 7.56 44.445C12.72 42.735 17.175 40.665 21.195 38.49H5.61V10.995H45.705V0L66.315 1.14C66.195 2.4 65.28 3.195 62.88 3.54V10.995H103.995V38.49ZM21.87 25.995V38.13C28.395 34.47 33.33 30.345 37.11 25.995H21.87ZM38.025 92.085H71.805V86.25H38.025V92.085ZM69.06 72.735C63.675 71.01 58.53 68.955 53.595 66.66C49.125 68.955 44.43 70.905 39.51 72.735H69.06ZM43.065 41.805L42.6 42.15C45.81 44.79 49.47 47.07 53.595 49.245C57.255 46.95 60.585 44.43 63.555 41.805H43.05H43.065ZM86.925 33.675V25.995H59.43C59.085 27.255 57.945 27.945 56.115 27.945L54.855 29.55H75.24L77.88 28.86L86.925 33.675Z" fill="white"/>
<path d="M143.61 44.445V81.09C149.445 91.965 160.56 91.965 182.67 91.965C196.41 91.965 212.67 91.5 224.13 90.48C222.3 94.26 219.78 101.94 218.97 106.635C210.03 107.1 197.775 107.43 186.33 107.43C158.385 107.43 146.355 107.205 136.62 94.71C132.27 98.955 127.8 102.96 123.9 106.17C123.9 107.655 123.435 108.225 122.175 108.81L114.27 91.29C118.515 88.77 123.21 85.56 127.665 82.245V59.79H115.755V44.445H143.58H143.61ZM128.49 3.09C134.79 8.13 142.695 15.57 146.355 20.955L132.615 31.38C129.525 25.995 121.965 18.09 115.785 12.48L128.505 3.09H128.49ZM174.645 90.255V83.73H146.475V71.94H174.645V69.075H153.225V34.71H174.645V32.07H150.6V20.85H174.645V14.895L194.115 15.93C193.995 17.19 193.08 17.985 190.8 18.33V20.85H215.535V32.07H190.8V34.71H212.91V69.075H190.8V71.94H220.695V83.73H190.8V90.255H174.645ZM162.045 13.98V18.555H147.495V2.295H219.645V18.555H204.405V13.98H162.03H162.045ZM167.31 44.565V47.31H174.645V44.565H167.31ZM167.31 59.22H174.645V56.475H167.31V59.22ZM198.12 44.565H190.785V47.31H198.12V44.565ZM198.12 59.22V56.475H190.785V59.22H198.12Z" fill="white"/>
<path d="M233.865 4.125H333.39V109.035H317.13V105.255H249.435V109.035H233.865V4.125ZM249.435 90.375H317.13V69.99C316.56 70.56 315.405 70.785 314.145 70.56C312.09 71.82 308.985 73.65 306.015 75.375C309.45 76.755 313.11 77.895 316.785 78.69C314.04 81.09 310.26 85.905 308.43 88.995C301.335 86.82 294.69 83.16 288.96 78.69V88.305H274.41V79.26C269.025 82.125 263.295 84.645 257.685 86.595C255.975 83.955 252.075 79.155 249.675 76.74C258.03 74.34 266.85 70.665 273.84 66.09H259.185V47.31H306.6V62.43L317.13 69.765V19.005H249.435V90.36V90.375ZM314.145 35.85V44.79H252.3V35.85H275.67V33.105H257.685V24.405H275.67V19.83L294 20.865C293.88 22.005 292.965 22.695 290.685 23.16V24.42H308.775V33.12H290.685V35.865H314.16L314.145 35.85ZM292.155 58.41V54.855H272.805V58.41H292.155ZM292.95 66.09L291.81 67.125C293.07 68.265 294.555 69.3 296.055 70.215C297.885 68.955 299.955 67.575 301.785 66.09H292.965H292.95Z" fill="white"/>
<path d="M451.815 89.91V104.91H365.805V108.915H349.545V3.55499H448.62V18.09H365.82V89.91H451.83H451.815ZM370.95 85.905V54.06H403.59V85.905H370.95ZM428.79 22.11V50.625H382.29V22.11H428.79ZM384.24 64.95V75.03H389.505V64.95H384.24ZM412.305 39.975V32.64H397.755V39.975H412.305ZM440.595 54.06V85.905H407.265V54.06H440.595ZM426.39 75.015V64.935H420.78V75.015H426.39Z" fill="white"/>
<path d="M575.265 58.065L585.465 61.725C585.12 62.76 584.67 63.105 584.085 63.78C581.565 73.395 577.44 81.765 571.95 88.635C577.44 91.845 583.635 94.245 590.73 95.85C587.295 98.835 582.945 104.895 580.875 108.795C573.435 106.62 566.895 103.41 561.18 99.405C556.26 103.305 550.755 106.5 544.575 109.02C542.85 105.465 539.31 100.08 536.325 96.885V108.915H520.41V99.63C509.07 100.89 498.195 102.15 490.515 102.84C490.29 103.98 489.375 104.55 488.46 104.67L483.99 89.1C486.735 88.98 489.945 88.875 493.5 88.635V55.875H483.885V42.825H589.605V55.875H536.34V95.955C541.26 94.23 545.85 91.83 549.855 88.86C546.075 84.285 542.985 79.125 540.345 73.395L549.045 70.995H538.395V58.515H572.64L575.28 58.05L575.265 58.065ZM574.35 3.77998V39.975H499.095V3.77998H574.35ZM520.41 55.89H508.62V58.635H520.41V55.89ZM508.62 69.87V72.96H520.41V69.87H508.62ZM508.62 87.855L520.41 87.06V84.195H508.62V87.855ZM557.64 16.965V14.22H515.04V16.965H557.64ZM557.64 29.565V26.7H515.04V29.565H557.64ZM554.325 71.025C555.81 73.89 557.76 76.53 559.935 79.035C561.885 76.515 563.49 73.875 564.975 71.025H554.325Z" fill="#FFFF00"/>
<path d="M696.435 79.14H692.775C698.265 86.58 703.65 95.97 705.72 102.735L691.41 109.5C690.84 107.325 689.925 104.685 688.77 101.94C671.25 103.2 653.73 104.34 641.925 104.91C641.58 106.05 640.545 106.635 639.525 106.74L634.83 88.98C641.7 88.98 650.64 88.755 660.48 88.515V79.125H641.235V44.775H660.48V36.645C653.49 36.99 647.085 37.215 641.805 37.44C641.58 38.58 640.545 39.27 639.51 39.27L635.385 23.46V48.195H619.575V44.88H614.19C613.965 47.97 613.725 51.06 613.395 54.15H623.82L627.135 53.925L635.61 54.84L635.265 59.31C634.005 87.255 632.625 98.94 629.31 103.065C624.96 108.57 619.8 109.02 605.835 108.795C605.61 104.22 603.78 97.92 601.26 93.795C605.73 94.14 610.08 94.26 612.255 94.26C613.98 94.26 615.12 94.035 616.26 92.775C617.985 90.945 618.9 84.075 619.695 68.385H612.015L611.445 72.855L597.135 70.68C598.74 60.03 600.225 43.65 600.795 30.48H619.575V19.14H598.5V3.77998H635.385V22.11H645.12C649.245 15.465 653.25 6.88498 655.65 0.11998L674.895 5.50498C674.43 6.53998 673.17 6.98998 671.34 7.10998C669.045 11.685 665.73 17.19 662.4 22.11L680.385 21.885C678.9 19.83 677.295 17.76 675.81 15.93L689.55 9.50998C696.075 16.95 703.41 26.925 706.38 34.365L691.485 41.355C690.915 39.525 689.88 37.455 688.74 35.28C682.095 35.625 675.345 35.85 668.925 36.195V36.315L679.695 36.885C679.575 38.145 678.66 38.835 676.38 39.285V44.79H696.42V79.155L696.435 79.14ZM655.545 65.505H660.465V58.515H655.545V65.505ZM681.435 58.515H676.395V65.505H681.435V58.515ZM676.395 88.185L681.435 88.065C680.4 86.58 679.485 84.975 678.465 83.595L688.2 79.125H676.41V88.17L676.395 88.185Z" fill="#FFFF00"/>
<path d="M748.08 72.045V73.08C751.635 75.03 761.25 81.435 763.77 83.28L754.5 95.07C752.895 93.24 750.495 90.825 748.08 88.425V108.93H731.925V91.29C728.265 95.865 724.365 99.885 720.465 102.975C717.945 99.42 713.13 94.035 709.695 91.29C716.91 86.82 724.35 79.5 729.39 72.045H713.01V58.185H731.91V51.54H711.75V38.025H721.71C721.02 34.365 719.76 30.345 718.395 27.03L725.61 24.855H714.045V11.46H731.91V0.11998L751.38 1.15498C751.26 2.41498 750.345 3.20998 748.065 3.55498V11.46H765.135V24.855H755.745L764.445 27.03C764.1 27.945 763.065 28.41 761.235 28.515C760.095 31.38 758.37 34.815 756.66 38.025H767.535V51.54H751.155C750.69 52.23 749.775 52.8 748.065 53.025V58.185H765.705V72.045H748.065H748.08ZM742.47 38.025C743.955 34.125 745.56 29.085 746.595 24.855H731.7C733.65 29.205 735.135 34.245 735.705 38.025H742.455H742.47ZM820.125 37.68V53.025H810.165V108.915H794.01V53.025H785.76C785.415 69.855 782.67 94.02 768.12 109.26C766.065 105.6 760.11 99.87 756.33 97.92C768.81 84.18 769.965 65.055 769.965 49.815V10.53L777.75 12.705C787.605 9.26998 797.685 4.57498 803.865 0.22498L819.21 12.015C818.415 12.81 817.035 12.81 815.655 12.81C807.87 16.935 796.65 21.285 785.76 24.495V37.665H820.125V37.68Z" fill="#FFFF00"/>
<path d="M924.45 5.83501L935.1 9.73501C934.98 10.53 934.635 11.34 933.96 11.91C930.87 21.765 927.09 33.435 922.5 45.585C931.77 57.15 934.635 64.935 934.635 71.925C934.635 95.175 918.945 95.175 908.985 94.83C908.865 90.48 907.035 83.835 904.515 79.365V108.795H888.135V16.5C885.615 22.575 882.75 28.41 879.54 33.915H885.15V48.225H869.91C868.08 50.52 866.25 52.695 864.42 54.75H881.94V108.015H866.25V104.115H851.7V109.035H836.7V76.965C835.32 77.76 833.955 78.57 832.455 79.26C830.73 75.705 826.725 69.06 824.1 65.865C828.45 63.915 832.695 61.515 836.7 58.875V54.75H842.31C844.95 52.695 847.35 50.505 849.75 48.225H826.845V33.915H845.28V25.215H831.3V10.995H845.28V0.570007L863.955 1.60501C863.835 2.74501 862.92 3.55501 860.64 3.90001V10.995H870.495V19.125C872.325 15.345 873.93 11.445 875.31 7.44001L888.135 11.565V6.40501H921L924.435 5.83501H924.45ZM866.265 72.945V67.785H851.715V72.945H866.265ZM851.715 90.93H866.265V85.32H851.715V90.93ZM860.655 33.9H861.915C863.865 31.155 865.695 28.17 867.3 25.2H860.655V33.9ZM904.515 21.99V78.795C907.26 79.02 909.675 79.02 911.265 79.02C916.995 79.02 918.135 76.38 918.135 71.115C918.135 65.505 915.045 59.325 905.655 48.435C908.64 38.82 911.16 30 913.215 21.975H904.515V21.99Z" fill="#FFFF00"/>
<path d="M938.88 80.175C945.18 70.44 948.27 56.46 949.755 40.89L966.135 44.205C964.41 60.465 961.785 77.655 954.57 89.1L938.88 80.16V80.175ZM971.175 33.33L992.025 34.47C991.905 35.73 990.99 36.525 988.59 36.99V86.475C988.59 92.205 989.16 92.895 994.095 92.895H1006.69C1011.61 92.895 1012.53 89.46 1013.34 72.51C1017.12 75.495 1024.21 78.465 1028.8 79.605C1027.08 101.025 1022.73 108.015 1008.19 108.015H991.695C975.54 108.015 971.19 102.75 971.19 86.49V33.33H971.175ZM1008.97 35.625C1000.27 27.945 984.69 18.795 971.295 13.41L982.17 0.464996C995.565 5.28 1010.92 13.98 1020.07 20.97L1008.96 35.625H1008.97ZM1033.95 85.215C1031.77 73.65 1024.09 56.13 1015.17 43.635L1030.51 35.955C1040.13 48.33 1048.15 64.815 1050.9 76.725L1033.95 85.2V85.215Z" fill="#FFFF00"/>
<path d="M1082.04 67.8L1091.08 64.59L1094.17 79.02C1082.95 84.285 1071.04 89.445 1063.02 92.76C1062.9 94.02 1062.1 94.935 1061.07 95.28L1053.85 77.07C1057.41 76.035 1061.76 74.67 1066.57 73.065V42.84H1056.61V27.15H1066.57V1.25998L1085.35 2.29498C1085.23 3.55498 1084.32 4.24498 1082.04 4.58998V27.15H1091.77V42.84H1082.04V67.815V67.8ZM1115.25 84.525C1115.25 91.515 1116.04 92.31 1122.81 92.31H1142.05C1148.01 92.31 1149.15 90.015 1150.18 79.02C1153.74 81.42 1160.14 84.06 1164.61 84.975C1162.66 101.475 1157.85 107.085 1143.66 107.085H1121.2C1104.13 107.085 1099.44 102.27 1099.44 84.525V57.72L1091.76 61.035L1085.58 46.26L1099.44 40.425V11.685L1118.57 12.72C1118.45 13.98 1117.53 14.67 1115.25 15.12V33.675L1121.43 31.035V0.11998L1140.33 1.15498C1140.21 2.41498 1139.29 3.10498 1137.01 3.44998V24.405L1145.14 20.97L1148.46 18.795L1161.51 23.49C1161.17 24.18 1160.47 24.975 1159.45 25.545C1159.45 47.655 1159.23 59.565 1158.89 64.365C1158.42 75.135 1151.55 77.085 1140.55 77.085C1140.09 72.96 1138.83 66.66 1137.12 63.345C1138.6 63.465 1140.55 63.465 1141.47 63.465C1142.61 63.465 1143.18 63.12 1143.42 61.41C1143.65 60.03 1143.64 53.505 1143.64 38.625L1137 41.49V81.69H1121.43V48.24L1115.25 50.88V84.555V84.525Z" fill="#FFFF00"/>
<path d="M1232.19 88.875H1276.51V105.255H1171.38V88.875H1214.32V63.105H1182.48V46.725H1214.32V24.27H1176.87V7.90498H1270.66V24.285H1232.17V46.74H1266.07V63.12H1232.17V88.89L1232.19 88.875Z" fill="#FFFF00"/>
</svg>
