<svg width="390" height="60" viewBox="0 0 390 60" fill="none" xmlns="http://www.w3.org/2000/svg">
<path d="M359.839 0.359863H29.4494C13.2206 0.359863 0.0644531 13.516 0.0644531 29.7449C0.0644531 45.9738 13.2206 59.1299 29.4494 59.1299H359.839C376.068 59.1299 389.224 45.9738 389.224 29.7449C389.224 13.516 376.068 0.359863 359.839 0.359863Z" fill="white"/>
<path d="M127.894 6.29993H29.8845C16.9361 6.29993 6.43945 16.7966 6.43945 29.7449V29.7599C6.43945 42.7083 16.9361 53.2049 29.8845 53.2049H127.894C140.843 53.2049 151.339 42.7083 151.339 29.7599V29.7449C151.339 16.7966 140.843 6.29993 127.894 6.29993Z" fill="#FFE900"/>
<path d="M39.6502 37.4249H49.8802V41.2499H25.3702V37.4249H35.5552V32.8649H28.5802V29.0999H35.5552V25.0049H30.3502C29.6002 26.5949 28.7302 28.0799 27.8152 29.2349C27.0352 28.5149 25.4452 27.3749 24.4702 26.7899C26.4052 24.4949 28.1002 20.3549 29.0002 16.5299L33.7702 17.8199C33.6652 18.0599 33.3952 18.2249 32.9602 18.1949C32.6602 19.1849 32.3452 20.1899 31.9552 21.1799H35.5402V16.3649L40.4752 16.6349C40.4452 16.9349 40.2052 17.1149 39.6352 17.2349V21.1949H48.5302V25.0199H39.6352V29.1149H47.3602V32.8799H39.6352V37.4399L39.6502 37.4249Z" fill="#2E318B"/>
<path d="M53.6903 23.7299C55.3403 24.2999 57.5903 25.3499 58.7303 26.2349L56.4653 29.4898C55.4753 28.5748 53.2853 27.3898 51.5903 26.6848L53.6903 23.7149V23.7299ZM52.3703 39.1649C53.7203 37.1249 55.6553 33.8099 57.1853 30.5999L60.1703 33.0449C58.8503 35.8949 57.3953 38.6699 56.1353 40.7999C56.3003 40.9949 56.3454 41.1749 56.3454 41.3699C56.3454 41.5649 56.2853 41.7149 56.1803 41.8499L52.3553 39.1498L52.3703 39.1649ZM77.2554 28.0649H70.1903V30.7799H75.5753V41.8199H71.6153V40.8448H64.9853V41.9249H61.2204V30.7649H66.2303V28.0499H59.5253V24.2999H66.2303V21.6899C64.5053 21.9299 62.7353 22.1249 61.0253 22.2599C60.8903 21.4499 60.4554 20.1899 60.0504 19.2899L57.9953 22.1999C57.0203 21.2549 54.8753 20.0399 53.1953 19.3199L55.2953 16.4399C56.8853 17.0099 58.9853 18.0299 60.1103 18.8849C64.8503 18.4499 69.8603 17.5349 73.0103 16.3049L76.3253 19.4849C76.1303 19.6499 75.9203 19.6498 75.4553 19.6498C73.9253 20.1898 72.1103 20.6399 70.1453 21.0449V24.2999H77.2104V28.0499L77.2554 28.0649ZM71.6304 37.3349V34.3199H65.0003V37.3349H71.6304Z" fill="#2E318B"/>
<path d="M104.195 37.2599H100.91C102.17 38.2049 103.655 39.3299 104.465 40.1699L101.585 41.9698C100.7 40.9798 98.7502 39.3298 97.2952 38.2198L98.9452 37.2449H95.0602L96.7251 38.2198C96.6501 38.3248 96.4851 38.4149 96.2901 38.4299C95.3451 39.5849 93.2151 41.1748 91.4151 41.9548C90.8451 41.3398 89.8252 40.3949 89.0452 39.7949C88.4602 41.9699 86.3452 41.9698 84.1402 41.9698C84.0802 40.9198 83.7351 39.4649 83.2251 38.5199C83.9001 38.5949 84.4852 38.5948 84.8752 38.5948C85.1902 38.5948 85.4152 38.5199 85.6252 38.1599C85.9252 37.6499 86.0302 35.5798 86.1052 29.8648H84.6502C84.2752 34.4248 83.4051 38.7299 81.1551 41.9099C80.5401 40.9649 79.3702 39.7799 78.4102 39.1649C81.0202 35.5049 81.1851 29.9249 81.2601 23.9099H78.8302V20.2949H82.6852V16.3648L87.2151 16.6049C87.1851 16.9049 86.9752 17.0699 86.4352 17.1749V20.2949H89.8851V20.9399C90.8301 19.6199 91.5501 17.9549 91.9401 16.3049L95.8401 17.2949C95.7651 17.5049 95.5401 17.6399 95.1651 17.6249C95.0301 18.0599 94.8651 18.5099 94.7001 18.9449H104.18V22.0649H93.1101L92.8701 22.4399L96.3652 22.6349C96.3352 22.9049 96.1252 23.0699 95.6152 23.1749V24.4348H98.3151V22.3949L102.68 22.6349C102.65 22.9049 102.44 23.0999 101.9 23.1749V24.4348H103.835V27.4799H101.9V34.1549H104.195V37.1999V37.2599ZM87.7552 26.3699L89.6602 26.4299C89.6602 26.7299 89.6602 27.1649 89.6302 27.5549C89.5552 34.5899 89.4652 38.0549 89.0602 39.6749C90.3802 39.1049 91.7751 38.1599 92.7801 37.2449H89.8401V34.1999H92.0751V27.5248H90.2151V24.4799H92.0751V23.4898C91.8651 23.7598 91.6251 23.9999 91.3701 24.2099C91.0251 23.8649 90.4252 23.4298 89.8552 23.0248V23.9399H84.9051L84.8302 26.3699H87.7402H87.7552ZM98.3151 27.5248H95.6152V28.1399H98.3151V27.5248ZM98.3151 31.1549V30.5099H95.6152V31.1549H98.3151ZM95.6152 33.5248V34.1999H98.3151V33.5248H95.6152Z" fill="#2E318B"/>
<path d="M115.895 29.8799L114.92 30.0149V38.8199C114.92 41.2649 114.11 41.9999 110.93 41.9999C110.855 41.1899 110.48 39.8999 110.075 39.1199C110.48 39.1499 110.915 39.1799 111.23 39.1799C112.01 39.1799 112.085 39.1798 112.085 38.7748V30.4199L109.52 30.7649C109.46 34.3949 109.115 39.0299 107.585 42.0299C107.075 41.5649 105.83 40.8149 105.155 40.5449C106.445 37.9349 106.715 34.2749 106.775 31.1099L106.445 31.1699C106.385 31.4099 106.145 31.5449 105.935 31.5749L105.26 28.3349L106.775 28.1999V19.9499H109.01C109.19 18.7949 109.355 17.3849 109.415 16.3349L113.435 17.0399C113.36 17.2499 113.105 17.3849 112.7 17.4149C112.49 18.1349 112.19 19.0799 111.89 19.9499H114.905V27.4049L115.79 27.3298L115.865 29.8648L115.895 29.8799ZM111.26 23.4149C111.665 24.3299 111.995 25.5148 112.1 26.3998H112.13L112.1 22.8749H109.535V23.9849L111.26 23.4149ZM109.535 27.9749L112.1 27.7349V26.6549L110.105 27.3298C110.075 26.5798 109.835 25.4699 109.535 24.4949V27.9749ZM112.07 31.2299C112.04 31.4249 111.875 31.5599 111.56 31.5749V37.1848H109.91V31.0948L112.07 31.2299ZM129.605 38.6099H131.12V41.5199H115.22V38.6099H116.735V31.5749H129.605V38.6099ZM118.715 30.5849V30.9599H116.105V17.2799H123.755V19.7099H121.925V20.9698H123.65V23.7149C124.37 21.8549 124.76 19.0499 124.94 16.4099L128.66 17.1599C128.585 17.3699 128.36 17.5349 128.015 17.5349C127.94 18.2549 127.85 18.9898 127.715 19.7398H131V22.6498H127.145C126.83 23.9398 126.425 25.1249 125.9 26.0699C125.36 25.6049 124.4 25.0199 123.635 24.5849V26.8199H121.91V28.0798H124.085V30.5549H118.7L118.715 30.5849ZM119.495 19.6949H118.715V20.9548H119.495V19.6949ZM121.085 23.1749H118.715V24.6299H121.085V23.1749ZM119.495 28.1099V26.8499H118.715V28.1099H119.495ZM119.6 34.4698V38.6249H120.305V34.4698H119.6ZM123.425 34.4698H122.72V38.6249H123.425V34.4698ZM124.475 29.3249V26.4149H130.565V29.3249H124.475ZM126.545 34.4698H125.84V38.6249H126.545V34.4698Z" fill="#2E318B"/>
<g filter="url(#filter0_d_70_1883)">
<path d="M166.083 35.3998C166.083 36.0598 166.338 36.1498 167.943 36.1498H172.233C173.508 36.1498 173.703 35.9249 173.868 34.4399C174.393 34.7549 175.368 35.0998 175.998 35.2048C175.653 37.6198 174.948 38.2198 172.338 38.2198H167.883C164.778 38.2198 163.893 37.6199 163.893 35.4449V31.7849H168.708V30.3748H164.613V29.5798C164.193 30.1048 163.788 30.5549 163.353 30.9749C162.918 30.5249 162.063 29.8049 161.523 29.4599C163.053 28.1849 164.523 25.8748 165.303 23.6848L167.958 24.5398C167.898 24.6748 167.733 24.7648 167.478 24.7348C167.388 24.9598 167.283 25.1999 167.178 25.4249H173.988L175.233 25.4848C175.233 25.6648 175.233 25.9499 175.203 26.1749C175.083 31.0649 174.933 32.9248 174.483 33.5398C173.913 34.3798 173.208 34.4399 171.453 34.4399C171.423 33.8399 171.213 32.9848 170.898 32.3998V33.7198H166.098V35.3849L166.083 35.3998ZM166.023 27.5248C165.843 27.8248 165.648 28.1249 165.453 28.4099H170.868V32.3248C171.333 32.3848 171.723 32.3849 171.978 32.3849C172.188 32.3849 172.323 32.3248 172.473 32.1448C172.683 31.8298 172.803 30.6298 172.893 27.5248H166.038H166.023Z" fill="#2E318B"/>
<path d="M192.273 36.1199V37.8599H187.128V38.3699H185.118V32.5049C184.923 32.3249 184.623 32.0699 184.338 31.8599C184.653 32.5949 184.908 33.3749 184.998 33.9449L183.363 34.5598C183.363 34.4098 183.318 34.2449 183.273 34.0499L182.478 34.0948V34.8899L183.873 34.3949C184.293 35.1599 184.743 36.1949 184.908 36.8549L183.213 37.5149C183.108 36.9599 182.793 36.1348 182.478 35.3998V38.2949H180.468V35.3098C180.228 36.2248 179.808 37.3049 179.328 38.0099C178.953 37.7399 178.263 37.3949 177.798 37.1999C178.248 36.5249 178.608 35.4448 178.803 34.4698L180.453 34.9348V34.1848C179.778 34.2148 179.148 34.2449 178.638 34.2599C178.593 34.4099 178.473 34.4699 178.353 34.4849L177.843 32.4599H179.388C179.613 32.2799 179.853 32.0548 180.078 31.8298C179.538 31.2898 178.758 30.6599 178.113 30.2099L179.238 28.8599L179.643 29.1148C179.883 28.7848 180.138 28.4098 180.333 28.0798H178.773V24.2099H191.478V28.0798H189.393L191.088 28.5749C191.028 28.6949 190.893 28.7549 190.653 28.7549C190.503 29.0549 190.323 29.4298 190.113 29.7748H192.033V31.5149H190.008V32.0099H191.583V33.5549H190.008V34.0499H191.583V35.5948H190.008V36.1049H192.243L192.273 36.1199ZM180.918 25.7849V26.5349H182.328V25.7849H180.918ZM181.743 28.0948L182.583 28.5149C182.523 28.6199 182.358 28.6648 182.133 28.6498C181.848 29.0848 181.398 29.6249 180.963 30.1049C181.113 30.2399 181.263 30.3599 181.398 30.4949C181.908 29.9249 182.358 29.3398 182.733 28.8298L184.638 29.8349C184.563 29.9399 184.398 29.9849 184.173 29.9849C183.723 30.4949 183.183 31.0798 182.598 31.6498L183.843 31.2149C184.638 30.4499 185.343 29.2648 185.793 28.0948H181.743ZM182.808 32.4749C182.718 32.2349 182.628 31.9798 182.523 31.7398C182.283 31.9948 182.013 32.2498 181.758 32.4898H182.823L182.808 32.4749ZM184.353 25.7699V26.5199H185.793V25.7699H184.353ZM188.088 28.4099C188.043 28.5299 187.908 28.6049 187.683 28.5899C187.533 28.9949 187.353 29.3849 187.128 29.7899H188.148C188.403 29.2349 188.658 28.6048 188.823 28.0948H186.993L188.073 28.4099H188.088ZM188.118 32.0248V31.5299H187.143V32.0248H188.118ZM188.118 34.0649V33.5699H187.143V34.0649H188.118ZM187.143 35.6099V36.1199H188.118V35.6099H187.143ZM187.818 25.7849V26.5349H189.273V25.7849H187.818Z" fill="#2E318B"/>
<path d="M205.114 24.6599H208.219V26.4898H205.114V26.9548H202.939V26.4898H199.684V26.9548H197.509V26.4898H194.509V24.6599H197.509V23.7748L200.134 23.9099C200.134 24.0749 199.999 24.1799 199.684 24.2249V24.6599H202.939V23.7748L205.579 23.9099C205.564 24.0749 205.444 24.1799 205.114 24.2249V24.6599ZM207.574 32.4898V36.4199C207.574 37.8599 207.154 38.3399 205.069 38.3399C205.009 37.9649 204.889 37.5299 204.739 37.1249L203.359 37.4399C203.359 37.2599 203.329 37.0649 203.284 36.8249C201.469 36.9749 199.654 37.1249 198.409 37.1999C198.364 37.3499 198.244 37.4249 198.124 37.4399L197.464 35.3098C198.214 35.3098 199.174 35.3099 200.254 35.2649V34.2899H197.374V38.3549H195.259V32.4898H200.254V32.1148H196.489V27.1199H206.404V32.1148H202.369V32.4898H207.589H207.574ZM198.559 28.5449V28.9799H200.239V28.5449H198.559ZM198.559 30.7198H200.239V30.2849H198.559V30.7198ZM204.214 28.9799V28.5449H202.354V28.9799H204.214ZM204.214 30.7198V30.2849H202.354V30.7198H204.214ZM202.354 35.2349H202.864C202.804 35.0249 202.729 34.7999 202.654 34.6199L204.079 34.3049H202.369V35.2349H202.354ZM204.289 34.3049C204.619 35.0249 204.904 35.8799 205.039 36.5849C205.369 36.5849 205.414 36.5849 205.414 36.4049V34.3049H204.289Z" fill="#2E318B"/>
<path d="M222.814 30.93L224.719 32.4149C224.659 32.4899 224.539 32.52 224.389 32.52C224.329 32.52 224.269 32.5199 224.209 32.5049C223.564 32.8799 222.499 33.4199 221.629 33.8099C222.439 34.7699 223.504 35.52 224.824 36C224.344 36.435 223.699 37.29 223.399 37.875C220.549 36.63 219.005 34.305 218.045 31.11C217.73 31.305 217.369 31.4999 217.009 31.6649C218.749 32.8649 219.469 34.38 219.469 35.64C219.469 37.365 218.194 38.4149 216.424 38.4149C216.034 38.4149 215.614 38.4 215.179 38.385C215.149 37.89 215.014 37.2449 214.744 36.7199C213.739 37.1849 212.674 37.5599 211.684 37.8449C211.414 37.3799 210.844 36.6449 210.439 36.2549C212.659 35.7899 215.134 34.875 216.694 33.855L216.514 33.6299C215.149 34.4249 213.439 35.1 211.879 35.445C211.624 35.01 211.099 34.35 210.724 33.975C212.299 33.72 214.039 33.225 215.299 32.61L215.074 32.475C213.994 32.85 212.839 33.165 211.744 33.39C211.534 33.015 211.039 32.265 210.739 31.92C212.029 31.71 213.409 31.365 214.624 30.96H212.269V28.71L211.954 28.905C211.639 28.395 210.949 27.6449 210.469 27.3299C212.419 26.3249 213.799 24.96 214.579 23.715L217.114 24.21C217.069 24.36 216.934 24.465 216.679 24.465L216.499 24.7049H218.929L219.244 24.6L220.969 25.62C220.894 25.74 220.744 25.7999 220.564 25.8299C220.339 26.1449 220.039 26.5499 219.709 26.9549H223.174V30.945H222.829L222.814 30.93ZM214.324 28.515V29.355H216.439V28.515H214.324ZM217.144 26.94C217.309 26.745 217.459 26.5199 217.609 26.3099H215.134C214.939 26.5199 214.714 26.73 214.489 26.94H217.159H217.144ZM217.324 35.3099C216.694 35.7299 216.004 36.09 215.299 36.45C215.554 36.45 215.809 36.45 216.019 36.45C216.394 36.45 216.709 36.42 216.934 36.225C217.189 36.06 217.339 35.7299 217.309 35.3099H217.324ZM220.954 29.355V28.515H218.629V29.355H220.954ZM219.979 30.93C220.144 31.425 220.354 31.89 220.594 32.34C221.374 31.905 222.169 31.38 222.739 30.93H219.979Z" fill="#2E318B"/>
<path d="M231.738 30.6147C233.013 30.9147 234.033 31.9648 234.033 33.4948C234.033 35.4598 232.413 37.0348 229.653 37.0348C228.378 37.0348 227.268 36.7348 226.668 36.3598L227.238 34.3198C227.688 34.5898 228.603 34.9198 229.428 34.9198C230.628 34.9198 231.303 34.2298 231.303 33.3598C231.303 32.1898 230.268 31.6798 229.143 31.6798H228.378V29.7898H229.068C229.923 29.7898 230.988 29.3698 230.988 28.3948C230.988 27.6898 230.478 27.1798 229.518 27.1798C228.768 27.1798 228.018 27.4798 227.568 27.7498L227.043 25.8148C227.658 25.4248 228.903 25.0498 230.163 25.0498C232.458 25.0498 233.688 26.3698 233.688 27.9298C233.688 29.1298 232.968 30.0898 231.738 30.5848V30.6147Z" fill="#2E318B"/>
<path d="M236.719 25.2148H244.129V26.8948L239.929 36.8549H237.169L241.369 27.4799V27.4498H236.719V25.2148Z" fill="#2E318B"/>
<path d="M251.883 31.7549L252.258 33.6899C250.443 34.3949 248.508 35.0849 247.203 35.5499C247.203 35.6999 247.083 35.8198 246.948 35.8648L245.958 33.5399C246.528 33.3899 247.218 33.2098 247.968 32.9698V27.3899H246.423V25.3349H251.733V27.3899H250.218V32.2799L251.898 31.7549H251.883ZM260.163 35.2048H258.138C259.068 35.7298 260.313 36.4949 260.988 37.0199L259.233 38.3249C258.618 37.7549 257.283 36.8699 256.323 36.2699L257.808 35.2048H254.433L255.948 36.2699C255.948 36.2699 255.798 36.3599 255.678 36.3749C254.853 37.0349 253.233 37.8599 251.883 38.2949C251.583 37.8599 250.983 37.1999 250.533 36.7799C251.658 36.4499 252.993 35.7748 253.848 35.2048H252.528V26.9849H254.838L254.973 26.1749H251.973V24.3298H260.733V26.1749H257.373C257.298 26.4299 257.208 26.7149 257.118 26.9849H260.163V35.2048ZM254.583 28.5749V29.2649H257.988V28.5749H254.583ZM254.583 30.7349V31.4249H257.988V30.7349H254.583ZM254.583 32.9099V33.5999H257.988V32.9099H254.583Z" fill="#2E318B"/>
<path d="M270.768 36.0148H276.498V37.9198H262.848V36.0148H268.458V35.3548H264.948V34.1698C264.753 34.4248 264.558 34.6648 264.348 34.8748C263.943 34.4848 263.148 33.9298 262.668 33.6298C263.508 32.8198 264.318 31.4698 264.828 30.1798H264.423V24.2397H274.878V30.1798H271.218C271.173 30.2998 271.038 30.3898 270.753 30.4348V31.1548H275.493V32.9698H270.753V33.6298H274.383V35.3248H270.753V35.9848L270.768 36.0148ZM265.758 32.9998C265.623 33.2248 265.488 33.4498 265.323 33.6598H268.443V32.9998H265.743H265.758ZM268.458 30.1948H266.358L267.378 30.5098C267.318 30.6298 267.168 30.7048 266.943 30.6898C266.883 30.8398 266.808 31.0048 266.733 31.1698H268.443V30.1948H268.458ZM266.628 25.9198V26.4448H272.583V25.9198H266.628ZM266.628 27.9897V28.5298H272.583V27.9897H266.628Z" fill="#2E318B"/>
<path d="M291.904 28.5299L293.239 29.0999C293.209 29.2049 293.119 29.3248 293.029 29.3998C292.594 31.6498 291.859 33.5698 290.869 35.1148C291.559 35.7148 292.369 36.1799 293.344 36.5399C292.894 36.9449 292.279 37.7849 291.994 38.3399C291.034 37.9199 290.224 37.3949 289.549 36.7499C288.949 37.3499 288.304 37.8449 287.599 38.2499C287.329 37.7849 286.624 37.0049 286.159 36.6599C285.904 37.2749 285.589 37.8298 285.229 38.3098C284.899 37.9648 284.074 37.3049 283.594 37.0049C283.864 36.6599 284.119 36.2549 284.314 35.7899L283.339 36.1649C283.234 35.6099 283.009 34.8299 282.769 34.1099V38.3098H280.834V33.5699H280.789C280.669 34.8149 280.384 36.2849 279.979 37.2149C279.574 36.9599 278.869 36.6449 278.434 36.4649C278.794 35.6249 278.989 34.1849 279.079 32.9099L280.834 33.3149V32.3098C280.234 32.3398 279.679 32.3848 279.229 32.3998C279.184 32.5648 279.049 32.6249 278.929 32.6399L278.524 30.4649H279.634C279.829 30.2099 280.024 29.9399 280.234 29.6699C279.799 28.9949 279.139 28.2299 278.539 27.6449L279.574 26.1148L279.829 26.3399C280.219 25.5149 280.609 24.5549 280.849 23.7899L282.979 24.6449C282.919 24.7499 282.754 24.8098 282.514 24.8098C282.169 25.6348 281.554 26.7599 281.029 27.5849C281.134 27.7049 281.239 27.8399 281.329 27.9599C281.839 27.1649 282.274 26.3549 282.619 25.6349L284.419 26.4449V24.5999H289.594L290.059 24.5699L291.094 24.7499C291.079 24.8699 291.049 25.0199 291.019 25.1549C290.884 26.0699 290.644 27.3149 290.404 28.5899H291.544L291.889 28.5299H291.904ZM282.679 30.4199C282.559 30.1199 282.424 29.8049 282.289 29.5199C282.049 29.8349 281.794 30.1498 281.569 30.4348H282.694L282.679 30.4199ZM282.754 33.3599L284.164 32.8949C284.359 33.4199 284.584 34.0199 284.764 34.5749C285.379 32.4599 285.529 29.6699 285.544 26.6249H284.569C284.479 26.6849 284.359 26.7149 284.194 26.7149C283.729 27.4799 283.114 28.3949 282.454 29.2799L283.819 28.7099C284.389 29.7449 284.974 31.1098 285.139 32.0248L283.444 32.7748C283.414 32.5648 283.369 32.3249 283.294 32.0699L282.784 32.1148V33.3298L282.754 33.3599ZM288.169 35.1148C287.764 34.4698 287.419 33.7649 287.134 32.9999C286.924 34.3349 286.609 35.5349 286.189 36.5699C286.924 36.1799 287.599 35.6998 288.184 35.1148H288.169ZM287.584 26.6249C287.569 26.9999 287.569 27.3899 287.554 27.7799C287.674 28.6349 287.839 29.4449 288.064 30.1949C288.289 29.0399 288.544 27.7499 288.739 26.6249H287.584ZM288.229 30.7799C288.529 31.7699 288.934 32.6849 289.459 33.4799C289.969 32.6399 290.374 31.6649 290.674 30.5549H290.014L289.924 30.9898L288.244 30.7949L288.229 30.7799Z" fill="#2E318B"/>
<path d="M303.214 34.5299V35.9999H308.704V37.9799H295.594V35.9999H300.859V34.5299H296.824V32.6099H300.859V31.1999H297.649V29.8949C297.109 30.2399 296.569 30.5849 295.999 30.8849C295.714 30.3599 295.099 29.5348 294.619 29.1148C297.259 27.8248 299.734 25.4849 300.829 23.6549L303.754 23.8049C303.694 23.9849 303.544 24.1198 303.289 24.1498C304.774 26.1448 307.339 27.9749 309.619 28.8599C309.049 29.4299 308.569 30.1949 308.149 30.8699C307.609 30.5999 307.084 30.2549 306.544 29.9249V31.1999H303.214V32.6099H307.324V34.5299H303.214ZM305.569 29.2499C304.129 28.1999 302.824 26.9699 302.029 25.8599C301.234 26.9849 300.004 28.1699 298.579 29.2499H305.554H305.569Z" fill="#2E318B"/>
<path d="M319.759 30.195V29.535C319.534 29.79 319.293 30.06 319.053 30.27C318.918 29.955 318.739 29.5649 318.529 29.2049C318.484 29.2949 318.393 29.355 318.198 29.385V38.0399H316.624V37.5599H312.964V38.175H311.433V29.01L313.339 29.1149C313.324 29.2499 313.219 29.34 312.964 29.37V30.7199C313.309 30.2249 313.444 29.55 313.474 28.95L314.733 29.085C314.733 29.19 314.629 29.25 314.464 29.265C314.449 29.475 314.403 29.73 314.358 29.985C314.508 30.135 314.644 30.285 314.794 30.45C315.049 29.985 315.169 29.46 315.214 28.95L316.474 29.085C316.459 29.19 316.368 29.25 316.218 29.28C316.188 29.49 316.144 29.745 316.084 30C316.279 30.195 316.504 30.45 316.669 30.645V29.01L318.544 29.1149C318.454 28.9799 318.378 28.845 318.288 28.71H311.104V27.045H311.854V24.6299L313.924 24.75C313.909 24.885 313.804 24.975 313.534 25.02V27.045H314.134V23.7899L316.384 23.91C316.369 24.06 316.264 24.15 315.964 24.195V24.8999H318.154V26.46H315.964V27.045H318.558V27.9149C319.563 26.7449 320.524 24.99 320.944 23.76L323.209 23.85C323.179 23.985 323.088 24.06 322.953 24.105C323.613 25.41 324.828 27.2549 325.878 28.0949C325.488 28.6349 325.024 29.445 324.709 30.12C324.484 29.91 324.243 29.655 324.018 29.385V30.18H319.803L319.759 30.195ZM312.964 31.6649H313.384C313.279 31.5149 313.129 31.3349 312.964 31.1849V31.6649ZM314.733 33.36C314.718 33.465 314.629 33.5249 314.464 33.5399C314.464 33.7499 314.403 34.005 314.358 34.26C314.508 34.41 314.658 34.5749 314.808 34.7399C315.048 34.2749 315.169 33.735 315.214 33.225L316.488 33.36C316.458 33.465 316.368 33.525 316.218 33.555C316.188 33.765 316.144 34.005 316.084 34.245C316.279 34.44 316.489 34.68 316.654 34.86V33.1649H312.994V35.0399C313.339 34.5299 313.488 33.8399 313.518 33.2399L314.779 33.375L314.733 33.36ZM313.339 36C313.234 35.865 313.099 35.715 312.964 35.565V36H313.339ZM314.944 36C314.884 35.895 314.779 35.775 314.689 35.67L314.433 35.94C314.328 35.775 314.163 35.55 313.968 35.325C313.848 35.565 313.684 35.805 313.459 36H314.944ZM314.944 31.6649C314.854 31.5449 314.734 31.395 314.599 31.245L314.328 31.545C314.238 31.41 314.104 31.23 313.939 31.02C313.819 31.245 313.669 31.4699 313.459 31.6499H314.944V31.6649ZM316.099 31.6649C315.979 31.4699 315.799 31.2149 315.589 30.9899C315.439 31.2299 315.258 31.4699 315.003 31.6649H316.084H316.099ZM316.174 36C316.039 35.805 315.844 35.55 315.619 35.295C315.484 35.535 315.289 35.79 315.049 36H316.174ZM316.608 31.6649V31.17L316.189 31.6649H316.608ZM316.233 36H316.608V35.52L316.233 36ZM325.009 31.035V35.055C325.009 36.72 324.379 37.065 322.354 37.065C322.324 36.63 322.188 36.0749 322.023 35.5949V38.295H320.058V32.925H318.648V31.035H325.009ZM323.253 28.425C322.698 27.6 322.234 26.715 321.889 25.995C321.589 26.715 321.124 27.585 320.569 28.425H323.253ZM322.023 32.91V35.16C322.353 35.175 322.714 35.175 322.834 35.175C322.984 35.175 323.029 35.145 323.029 34.995V32.91H322.023Z" fill="#2E318B"/>
<path d="M334.054 24.9898C333.979 25.1248 333.814 25.2148 333.559 25.1848C332.614 27.2998 331.144 29.5349 329.599 30.9599C329.119 30.4949 328.174 29.7449 327.589 29.3849C329.059 28.1999 330.469 26.0548 331.204 24.0598L334.054 24.9898ZM335.824 30.1798C335.749 30.3448 335.554 30.4348 335.254 30.4648C334.669 32.0248 333.769 33.8248 332.884 35.3398C334.339 35.2948 335.899 35.2349 337.444 35.1749C336.919 34.3349 336.379 33.4948 335.854 32.7748L338.029 31.7849C339.349 33.4649 340.729 35.6549 341.449 37.1699L339.124 38.3998C338.989 38.0548 338.809 37.6649 338.584 37.2299C335.149 37.4699 331.684 37.6799 329.299 37.7849C329.254 37.9499 329.104 38.0398 328.969 38.0398L328.084 35.4749L330.334 35.4298C331.324 33.6598 332.314 31.3048 332.869 29.3998L335.824 30.1949V30.1798ZM337.774 24.1049C338.599 25.7849 340.249 27.7799 341.644 29.0849C341.044 29.5499 340.189 30.4349 339.754 31.0499C338.299 29.4449 336.634 27.1348 335.509 25.0198L337.759 24.1199L337.774 24.1049Z" fill="#2E318B"/>
<path d="M349.639 26.3098V28.0349H343.504V26.3098H349.639ZM356.149 30.2849L357.559 30.8249C357.529 30.9449 357.454 31.0048 357.379 31.0948C356.929 32.7598 356.209 34.1249 355.234 35.2499C356.089 35.7449 357.094 36.1199 358.174 36.3899C357.679 36.8399 357.049 37.7398 356.734 38.3098C355.519 37.9348 354.454 37.4249 353.524 36.7499C352.564 37.4099 351.439 37.9348 350.164 38.3098C349.954 37.7698 349.459 36.9298 349.069 36.4348V37.5598H346.069V38.0999H344.194V32.7899H349.069V36.3448C350.089 36.1048 351.034 35.7299 351.844 35.2499C351.244 34.5749 350.734 33.8249 350.299 32.9849L352.219 32.3699H349.864V30.3749H350.494C350.149 29.9849 349.519 29.4748 349.099 29.2048V30.1649H344.284V28.5149H349.099V29.0699C350.344 28.1849 350.464 27.0148 350.464 26.0248V24.2099H355.819V27.4649C355.819 27.9299 355.834 27.9749 355.954 27.9749H356.119C356.269 27.9749 356.329 27.7799 356.359 26.5199C356.749 26.8349 357.604 27.1649 358.159 27.2999C357.979 29.2799 357.469 29.8349 356.344 29.8349H355.534C354.139 29.8349 353.734 29.2649 353.734 27.4949V26.1599H352.549C352.534 27.5849 352.249 29.2799 350.899 30.3749H355.789L356.179 30.3149L356.149 30.2849ZM349.069 30.5999V32.2499H344.254V30.5999H349.069ZM349.069 24.1949V25.8448H344.314V24.1949H349.069ZM347.164 35.7899V34.4849H346.054V35.7899H347.164ZM352.264 32.3249C352.564 32.8949 352.984 33.4198 353.479 33.8998C353.929 33.4348 354.289 32.9099 354.604 32.3249H352.279H352.264Z" fill="#2E318B"/>
</g>
<defs>
<filter id="filter0_d_70_1883" x="161.103" y="23.2349" width="199.47" height="17.58" filterUnits="userSpaceOnUse" color-interpolation-filters="sRGB">
<feFlood flood-opacity="0" result="BackgroundImageFix"/>
<feColorMatrix in="SourceAlpha" type="matrix" values="0 0 0 0 0 0 0 0 0 0 0 0 0 0 0 0 0 0 127 0" result="hardAlpha"/>
<feOffset dx="0.99" dy="0.99"/>
<feGaussianBlur stdDeviation="0.705"/>
<feColorMatrix type="matrix" values="0 0 0 0 0.0941176 0 0 0 0 0.121569 0 0 0 0 0.215686 0 0 0 0.34 0"/>
<feBlend mode="normal" in2="BackgroundImageFix" result="effect1_dropShadow_70_1883"/>
<feBlend mode="normal" in="SourceGraphic" in2="effect1_dropShadow_70_1883" result="shape"/>
</filter>
</defs>
</svg>
