<svg width="815" height="197" viewBox="0 0 815 197" fill="none" xmlns="http://www.w3.org/2000/svg">
<path d="M0.644531 170.42C5.50453 168.8 13.0645 165.83 20.4895 162.8C20.5495 161.72 20.5495 160.58 20.5495 159.5V132.845L30.5395 133.385C30.4795 134.06 29.9995 134.465 28.7245 134.66V159.56C28.7245 174.47 26.1595 188.57 6.86953 196.265C5.92453 194.24 3.49453 190.805 1.87453 189.32C12.8095 185.135 17.4595 178.73 19.3495 171.44C14.2195 173.87 9.29953 176.225 5.65453 177.845C5.65453 178.52 5.24953 179.06 4.70953 179.255L0.659531 170.42H0.644531ZM10.5595 138.035C14.3995 143.03 18.6595 149.84 20.2795 154.43L12.6595 158.615C11.3095 154.025 7.25953 146.945 3.61453 141.68L10.5595 138.035ZM44.3695 183.245C44.3695 187.085 44.7145 187.625 47.3395 187.625H55.0345C57.3895 187.625 57.8695 185.87 58.1995 179.33C60.1495 180.755 63.3895 182.165 65.7595 182.705C64.7545 191.945 62.5195 195.455 55.8445 195.455H46.0645C38.3095 195.455 36.0745 192.89 36.0745 183.245V132.845L46.1995 133.385C46.1245 134.06 45.6595 134.525 44.3845 134.735V161.315L45.7945 159.695C52.1395 163.205 60.7795 168.605 64.8895 172.58C59.4895 179.06 59.4295 179.12 59.2945 179.255C56.1295 176.015 50.0545 171.5 44.3845 167.915V183.23L44.3695 183.245ZM63.9295 141.815C63.5995 142.28 62.7895 142.55 61.7695 142.415C59.2795 147.005 54.7495 153.35 51.3145 157.265L45.0445 153.425C48.3445 149.045 52.5295 142.085 54.8245 136.685L63.9295 141.815Z" fill="white"/>
<path d="M101.849 164.675C101.714 165.35 101.099 165.815 100.034 165.95C98.4142 178.025 96.0592 189.29 79.3192 195.71C78.4492 193.625 76.1542 190.58 74.3242 188.96C89.0392 183.905 90.3892 174.785 91.3342 163.73L101.864 164.675H101.849ZM118.994 184.85C118.994 187.415 119.399 187.82 121.559 187.82H127.769C130.064 187.82 130.469 186.065 130.799 176.21C132.479 177.62 135.989 179.045 138.089 179.585C137.339 191.735 135.329 195.17 128.504 195.17H120.269C112.784 195.17 110.759 192.68 110.759 184.85V163.19H75.8692V155.3H136.664V163.19H118.979V184.85H118.994ZM130.394 136.265V144.095H82.0192V136.265H130.394Z" fill="white"/>
<path d="M177.285 165.695L173.985 166.1V188.495C173.985 194.9 171.09 195.785 163.125 195.785C162.93 193.97 161.985 191.06 161.175 189.44C167.385 189.635 167.385 189.5 167.385 188.435V166.91C164.085 167.315 160.845 167.66 157.935 167.99C157.8 176.96 156.855 188.495 152.265 195.785C151.125 194.645 148.35 192.89 146.805 192.215C150.78 185.675 151.455 176.495 151.59 168.74L150.18 168.875C150.045 169.415 149.58 169.76 149.04 169.88L146.82 162.59L151.605 162.26V141.335H157.545C158.355 138.44 159.225 134.72 159.57 132.02L168.945 134.24C168.735 134.705 168.135 135.05 167.19 135.05C166.515 136.94 165.57 139.235 164.625 141.32H174V160.28L177.165 160.01L177.3 165.68L177.285 165.695ZM157.92 161.72L167.37 160.91V147.62H157.92V161.72ZM161.565 159.77C161.235 157.34 159.945 153.77 158.46 151.07L163.185 149.18C164.865 151.745 166.29 155.315 166.695 157.685L161.565 159.77ZM166.08 169.28C166.02 169.76 165.615 170.09 164.67 170.225V184.535H160.02V168.875L166.095 169.28H166.08ZM203.13 185.48C203.13 187.91 203.13 188.18 204.015 188.18C205.365 188.18 205.5 188.18 205.695 187.91C206.43 187.58 206.43 183.32 206.43 181.16C207.84 182.3 210.135 183.515 212.025 184.13C211.68 191.48 210.885 194.93 205.215 194.93H201.705C195.435 194.93 195.435 189.875 195.435 185.555V161.945H188.22V170.315C188.22 178.415 187.14 189.215 180.6 195.89C179.25 194.615 175.95 192.245 174.195 191.375C180.135 185.435 180.675 176.93 180.675 170.12V154.94H203.145V185.51L203.13 185.48ZM210.885 142.835V149.915H175.53V142.835H188.685V132.245L198.33 132.785C198.27 133.46 197.79 133.865 196.575 134.075V142.85H210.885V142.835Z" fill="white"/>
<path d="M248.745 148.49C248.61 149.09 247.995 149.57 246.99 149.705C245.1 158.81 242.13 165.83 225.33 169.685C224.655 167.66 222.63 164.495 221.01 162.875C235.65 160.175 237.81 155.315 238.83 147.56L248.745 148.505V148.49ZM255.9 176.765V186.62H281.745V193.97H222.165V186.62H247.53V176.765H229.575V169.55H275.115V176.765H255.885H255.9ZM231.135 146.735V154.7H223.17V139.385H247.53V132.095L257.715 132.695C257.655 133.37 257.175 133.775 255.9 133.97V139.37H280.665V154.685H272.295V146.72H231.135V146.735ZM255.765 147.35L265.545 147.815C265.485 148.49 265.005 148.895 263.73 149.165V158C263.73 159.815 264.195 160.085 266.625 160.085H273.645C275.46 160.085 275.865 159.47 276.135 156.305C277.68 157.445 280.92 158.6 283.155 159.005C282.21 165.275 280.05 166.895 274.515 166.895H265.47C257.505 166.895 255.75 164.81 255.75 158.06V147.335L255.765 147.35Z" fill="white"/>
<path d="M342.885 150.11C343.23 156.515 343.77 162.8 344.43 168.335C346.05 164.42 347.325 160.235 348.27 155.72L356.775 157.67C356.64 158.21 356.025 158.615 355.02 158.615C353.07 166.64 350.235 173.93 346.38 180.14C347.595 185.135 348.945 188.3 350.355 188.3C351.435 188.3 352.11 184.925 352.305 177.845C353.79 179.66 356.01 181.625 357.84 182.495C356.625 193.16 354.54 195.86 349.335 195.86C345.825 195.86 343.125 192.62 341.1 187.43C338.34 190.535 335.235 193.295 331.785 195.53C330.705 194.105 328.215 191.615 326.655 190.475C331.38 187.64 335.43 183.8 338.67 179C336.99 170.9 335.97 160.64 335.505 150.125H321.465V157.88H329.025L330.51 157.82L334.155 157.955V160.175C333.96 174.545 333.615 180.275 332.265 182.105C331.05 183.92 329.64 184.865 322.68 184.67C322.605 182.645 321.93 179.885 321.06 178.13C322.68 178.34 324.09 178.34 324.84 178.34C325.59 178.34 326.055 178.13 326.46 177.53C327 176.66 327.27 173.42 327.405 164.435H321.465C321.33 174.425 319.845 187.85 312.36 196.085C311.205 194.6 308.115 192.035 306.42 191.165C309.99 187.19 311.88 182.255 312.9 177.26C307.095 180.02 301.02 182.72 296.97 184.475C296.91 185.15 296.505 185.615 295.965 185.825L292.395 176.915C294.48 176.24 297.12 175.37 299.955 174.35V155.18H293.88V147.56H299.955V132.845L309 133.325C308.94 133.925 308.46 134.33 307.245 134.54V147.56H312.84V155.18H307.245V171.65L312.375 169.76L313.38 174.41C313.98 170.435 314.055 166.52 314.055 163.01V142.775H335.235C335.1 139.205 335.04 135.695 335.04 132.245L344.49 132.785C344.43 133.46 343.815 133.79 342.6 134C342.525 136.835 342.525 139.805 342.6 142.775H349.89C348.54 140.48 346.185 137.645 344.025 135.425L349.62 132.185C352.185 134.615 355.155 137.915 356.43 140.345L352.32 142.775H356.1V150.125H342.87L342.885 150.11Z" fill="white"/>
<path d="M386.234 143.87H388.379V190.625H386.234V143.87Z" fill="white"/>
<path d="M416.85 163.73C416.85 147.92 422.685 136.79 434.37 136.79C446.055 136.79 451.35 148.88 451.35 163.325C451.35 180.515 444.96 190.34 434.025 190.34C421.935 190.34 416.835 178.25 416.835 163.745L416.85 163.73ZM434.175 182.285C438.855 182.285 441.18 175.685 441.18 163.52C441.18 151.355 439.05 144.83 434.235 144.83C429.84 144.83 427.02 151.16 427.02 163.52C427.02 175.88 429.57 182.285 434.1 182.285H434.175Z" fill="white"/>
<path d="M477.9 161.6C483.675 162.905 488.49 167.585 488.49 174.665C488.49 183.32 481.545 190.34 469.455 190.34C463.95 190.34 459.015 188.9 456.39 187.175L458.655 179.48C460.575 180.725 464.775 182.3 468.765 182.3C475.02 182.3 478.11 178.445 478.11 174.185C478.11 168.335 473.025 165.59 467.46 165.59H463.95V158.435H467.25C471.3 158.435 476.535 156.17 476.535 151.145C476.535 147.5 474.135 144.815 469.32 144.815C465.75 144.815 462.24 146.39 460.245 147.635L458.115 140.345C460.8 138.56 466.095 136.775 471.66 136.775C481.62 136.775 486.855 142.61 486.855 149.495C486.855 154.85 483.63 159.32 477.915 161.45V161.585L477.9 161.6Z" fill="white"/>
<path d="M495.419 165.11H514.259V172.115H495.419V165.11Z" fill="white"/>
<path d="M537.975 161.6C543.75 162.905 548.565 167.585 548.565 174.665C548.565 183.32 541.62 190.34 529.53 190.34C524.025 190.34 519.09 188.9 516.465 187.175L518.73 179.48C520.65 180.725 524.85 182.3 528.84 182.3C535.095 182.3 538.185 178.445 538.185 174.185C538.185 168.335 533.1 165.59 527.535 165.59H524.025V158.435H527.325C531.375 158.435 536.61 156.17 536.61 151.145C536.61 147.5 534.21 144.815 529.395 144.815C525.825 144.815 522.315 146.39 520.32 147.635L518.19 140.345C520.875 138.56 526.17 136.775 531.735 136.775C541.695 136.775 546.93 142.61 546.93 149.495C546.93 154.85 543.705 159.32 537.99 161.45V161.585L537.975 161.6Z" fill="white"/>
<path d="M555.57 163.73C555.57 147.92 561.405 136.79 573.09 136.79C584.775 136.79 590.07 148.88 590.07 163.325C590.07 180.515 583.68 190.34 572.745 190.34C560.655 190.34 555.555 178.25 555.555 163.745L555.57 163.73ZM572.895 182.285C577.575 182.285 579.9 175.685 579.9 163.52C579.9 151.355 577.77 144.83 572.955 144.83C568.56 144.83 565.74 151.16 565.74 163.52C565.74 175.88 568.29 182.285 572.82 182.285H572.895Z" fill="white"/>
<path d="M609.54 189.575V146.69H609.405L600.465 151.37L598.26 144.08L610.905 137.615H619.425V189.575H609.525H609.54Z" fill="white"/>
<path d="M634.14 165.11H652.98V172.115H634.14V165.11Z" fill="white"/>
<path d="M672.359 189.575V146.69H672.224L663.284 151.37L661.079 144.08L673.724 137.615H682.244V189.575H672.344H672.359Z" fill="white"/>
<path d="M706.049 162.29C701.234 159.605 698.699 155.285 698.699 150.875C698.699 142.28 705.779 136.79 714.779 136.79C725.084 136.79 729.974 143.315 729.974 149.855C729.974 154.055 727.634 158.66 722.339 161.54V161.675C727.424 164.015 731.624 168.485 731.624 174.935C731.624 184.22 724.334 190.325 714.029 190.325C702.959 190.325 697.049 183.515 697.049 176.09C697.049 169.7 700.829 165.095 706.049 162.485V162.275V162.29ZM721.439 175.76C721.439 170.675 718.004 167.45 713.459 165.935C709.544 167.375 707.204 171.02 707.204 175.145C707.204 179.54 709.889 183.395 714.284 183.395C718.679 183.395 721.439 179.825 721.439 175.76ZM708.239 150.395C708.239 154.385 711.119 157.13 715.184 158.645C718.064 157.475 720.479 154.25 720.479 150.74C720.479 147.23 718.754 143.585 714.434 143.585C710.114 143.585 708.254 147.095 708.254 150.395H708.239Z" fill="white"/>
<path d="M745.365 162.29C740.55 159.605 738.015 155.285 738.015 150.875C738.015 142.28 745.095 136.79 754.095 136.79C764.4 136.79 769.29 143.315 769.29 149.855C769.29 154.055 766.95 158.66 761.655 161.54V161.675C766.74 164.015 770.94 168.485 770.94 174.935C770.94 184.22 763.65 190.325 753.345 190.325C742.275 190.325 736.365 183.515 736.365 176.09C736.365 169.7 740.145 165.095 745.365 162.485V162.275V162.29ZM760.755 175.76C760.755 170.675 757.32 167.45 752.775 165.935C748.86 167.375 746.52 171.02 746.52 175.145C746.52 179.54 749.205 183.395 753.6 183.395C757.995 183.395 760.755 179.825 760.755 175.76ZM747.555 150.395C747.555 154.385 750.435 157.13 754.5 158.645C757.38 157.475 759.795 154.25 759.795 150.74C759.795 147.23 758.07 143.585 753.75 143.585C749.43 143.585 747.57 147.095 747.57 150.395H747.555Z" fill="white"/>
<path d="M784.694 162.29C779.879 159.605 777.344 155.285 777.344 150.875C777.344 142.28 784.424 136.79 793.424 136.79C803.729 136.79 808.619 143.315 808.619 149.855C808.619 154.055 806.279 158.66 800.984 161.54V161.675C806.069 164.015 810.269 168.485 810.269 174.935C810.269 184.22 802.979 190.325 792.674 190.325C781.604 190.325 775.694 183.515 775.694 176.09C775.694 169.7 779.474 165.095 784.694 162.485V162.275V162.29ZM800.084 175.76C800.084 170.675 796.649 167.45 792.104 165.935C788.189 167.375 785.849 171.02 785.849 175.145C785.849 179.54 788.534 183.395 792.929 183.395C797.324 183.395 800.084 179.825 800.084 175.76ZM786.884 150.395C786.884 154.385 789.764 157.13 793.829 158.645C796.709 157.475 799.124 154.25 799.124 150.74C799.124 147.23 797.399 143.585 793.079 143.585C788.759 143.585 786.899 147.095 786.899 150.395H786.884Z" fill="white"/>
<path d="M71.9544 67.655H59.2344C67.8294 70.67 77.2044 74.195 82.9644 76.775L69.2094 82.88C64.1394 80.045 54.6744 75.83 45.4794 72.65L53.3844 67.67H29.8344L39.5544 72.485C39.2094 72.92 38.6094 73.175 37.8294 73.175C37.5744 73.175 37.2294 73.175 36.9744 73.085C29.9244 76.7 19.2594 80.645 10.1544 83.06C8.08441 80.66 4.13941 76.52 1.64941 74.465C9.55441 72.92 18.3294 70.34 24.2544 67.67H13.2444V29.675H71.9544V67.67V67.655ZM76.8594 4.47498V27.17H7.55941V4.47498H76.8594ZM27.2544 18.065V13.595H19.0944V18.065H27.2544ZM25.2744 37.325V40.07H59.3244V37.325H25.2744ZM25.2744 47.21V50.045H59.3244V47.21H25.2744ZM25.2744 57.185V60.02H59.3244V57.185H25.2744ZM45.8244 18.065V13.595H37.5744V18.065H45.8244ZM64.7394 18.065V13.595H56.1444V18.065H64.7394Z" fill="white"/>
<path d="M167.115 53.465H133.335C133.08 54.665 132.9 55.865 132.645 57.08H149.415L152.085 56.825L159.135 57.86C159.045 58.805 158.88 59.93 158.625 60.95C157.08 82.265 155.1 83.21 136.965 82.865C136.8 79.685 135.51 75.38 133.785 72.635C136.965 72.89 139.98 72.98 141.435 72.98C144.45 72.98 145.125 71.855 145.815 66.44H129.66C126.48 73.145 120.465 78.74 108 82.685C107.055 80.195 104.73 76.58 102.495 74.09C101.04 77.015 99.2248 79.76 97.0798 82.175C94.8448 80.105 89.4298 76.5799 86.3398 75.2899C96.1348 64.7149 96.9148 49.07 96.9148 37.715V18.2899H159.42V40.0399H140.76C140.415 40.6399 139.725 40.985 138.435 41.24V44.075H167.145V53.45L167.115 53.465ZM166.68 4.71497V15.8H89.2348V4.71497H166.695H166.68ZM108.315 53.465C107.46 59.825 105.915 66.4399 103.335 72.2899C116.745 68.3299 119.76 61.97 120.96 53.465H108.33H108.315ZM126.03 44.09V40.055H109.26C109.26 41.345 109.17 42.725 109.095 44.09H126.03ZM147.09 27.32H109.26V30.935H147.09V27.32Z" fill="white"/>
<path d="M176.475 4.64001H251.175V83.045H238.8V79.7H188.25V83.045H176.475V4.64001ZM227.115 68.51H238.8V15.815H188.25V68.51H226.77C224.19 66.53 219.555 63.695 215.415 61.64L219.45 59.315H206.895L212.91 61.55C212.475 62.33 211.62 62.33 210.765 62.33C207.24 64.475 201.315 66.965 195.975 68.525C194.43 66.725 191.415 63.8 189.525 62.42C193.05 61.64 196.83 60.53 199.755 59.33H193.56V32.51H233.37V59.33H226.83C230.61 61.13 234.66 63.2 237.15 64.745L227.085 68.525L227.115 68.51ZM197.025 30.77V18.215H230.04V30.77H197.025ZM203.895 39.71H222.555V37.91H203.895V39.71ZM222.555 44.87H203.895V46.76H222.555V44.87ZM222.555 51.92H203.895V53.9H222.555V51.92ZM207 23.555V25.445H219.465V23.555H207Z" fill="white"/>
<path d="M320.204 6.36499H338.339V17.105H320.204V19.505H331.214V38.765H269.489V19.505H279.284V17.105H261.314V6.36499H279.284V1.11499L294.239 1.89497C294.149 2.83997 293.384 3.43999 291.659 3.78499V6.36499H307.739V1.11499L322.784 1.89497C322.694 2.92997 322.004 3.43999 320.204 3.78499V6.36499ZM261.914 57.17V41.27H337.739V57.17H325.439V50.555H301.109C300.674 50.99 299.984 51.245 299.129 51.245L297.584 53.045H314.084L316.064 52.61L324.494 56.57C324.239 57.17 323.714 57.425 323.204 57.77C314.519 72.56 296.129 79.7 274.889 82.955C273.764 80.03 271.274 75.395 269.294 72.815C275.654 72.215 281.849 71.09 287.429 69.545C285.974 68.6 284.414 67.745 282.959 67.145L290.354 61.22H288.209C283.904 64.235 278.834 67.07 272.564 69.56C271.019 66.89 267.584 62.765 265.259 60.965C274.109 58.22 280.649 54.605 285.029 50.555H273.599V57.17H261.914ZM286.499 30.95V27.26H280.484V30.95H286.499ZM291.059 61.205C293.639 62.24 296.474 63.785 298.709 65.33C301.199 64.13 303.434 62.75 305.414 61.205H291.059ZM307.739 19.505V17.105H291.659V19.505H307.739ZM303.014 30.935V27.245H296.819V30.935H303.014ZM319.604 30.935V27.245H313.334V30.935H319.604Z" fill="white"/>
<path d="M344.354 82.79C346.934 75.14 349.079 66.455 350.204 59.06L366.359 58.025C363.434 66.275 359.654 75.05 355.274 81.845L344.354 82.79Z" fill="white"/>
<path d="M416.745 54.245L417.78 64.985C408.15 67.22 398.1 69.365 391.56 70.745C391.395 71.6 390.615 72.2 389.835 72.29L386.745 59.315C389.49 58.97 392.67 58.46 396.12 57.86V42.725H388.98V31.295H396.12V18.395H388.38V6.875H415.455V18.395H407.805V31.295H414.945V42.725H407.805V55.88L416.745 54.245ZM463.17 63.185H448.635V72.47C448.635 80.81 445.965 82.7 432.21 82.7C431.7 79.955 430.575 76.34 429.375 73.58C426.03 76.76 421.98 79.85 418.11 82.085C416.22 79.94 412.44 76.415 410.115 74.6C415.275 72.11 420.6 67.895 423.525 63.935L435.825 68.495C435.48 69.185 434.625 69.53 433.5 69.35C432.465 70.55 431.265 71.75 429.975 73.04C432.12 73.13 434.61 73.13 435.39 73.13C436.335 73.04 436.68 72.875 436.68 72.005V63.155H422.235V44.075H463.155V63.155L463.17 63.185ZM468.42 31.985V41.78H416.49V31.985H435.84V28.625H421.14V3.69501H464.205V28.625H451.05C450.795 29.315 450.015 29.75 448.56 30.005V31.985H468.42ZM432.315 10.835V12.815H452.43V10.835H432.315ZM432.315 19.52V21.5H452.43V19.52H432.315ZM433.695 51.935V55.37H451.065V51.935H433.695ZM460.695 81.68C458.55 78.335 453.39 72.995 449.175 69.38L458.625 64.22C462.75 67.49 468.165 72.47 470.835 75.995L460.695 81.665V81.68Z" fill="white"/>
<path d="M547.92 5.42L555.915 8.34502C555.825 8.94502 555.57 9.54501 555.06 9.98001C552.735 17.375 549.9 26.135 546.465 35.255C553.425 43.94 555.585 49.79 555.585 55.025C555.585 72.47 543.81 72.47 536.325 72.215C536.235 68.945 534.87 63.965 532.965 60.605V82.7H520.665V13.415C518.775 17.975 516.63 22.355 514.215 26.48H518.43V37.22H507C505.62 38.945 504.255 40.58 502.875 42.125H516.03V82.1H504.255V79.175H493.335V82.865H482.07V58.79C481.035 59.39 480 59.99 478.89 60.515C477.6 57.845 474.585 52.865 472.62 50.465C475.89 49.01 479.07 47.195 482.07 45.215V42.125H486.285C488.265 40.58 490.065 38.945 491.88 37.22H474.69V26.48H488.535V19.94H478.05V9.27501H488.535V1.46002L502.545 2.24001C502.455 3.09501 501.765 3.695 500.055 3.965V9.28998H507.45V15.395C508.83 12.56 510.03 9.63498 511.065 6.61998L520.695 9.71002V5.84H545.37L547.95 5.40498L547.92 5.42ZM504.255 55.79V51.92H493.335V55.79H504.255ZM493.335 69.29H504.255V65.075H493.335V69.29ZM500.04 26.48H500.985C502.44 24.41 503.82 22.175 505.02 19.94H500.04V26.48ZM532.965 17.54V60.185C535.035 60.35 536.835 60.35 538.035 60.35C542.34 60.35 543.195 58.37 543.195 54.41C543.195 50.195 540.87 45.56 533.82 37.385C536.055 30.17 537.945 23.54 539.49 17.525H532.95L532.965 17.54Z" fill="white"/>
<path d="M618.239 40.055H608.609C607.574 49.775 605.594 57.845 602.504 64.475C609.389 70.325 617.549 70.325 626.834 70.325C631.994 70.325 639.299 70.235 642.659 70.145C641.204 72.725 639.569 77.795 639.134 80.885H621.599C611.534 80.885 603.284 79.25 596.834 73.745C593.909 77.36 590.384 80.36 586.169 82.865C584.714 80.195 582.044 76.325 579.899 74.27C583.934 72.2 587.204 69.11 589.874 65.075C587.639 60.95 585.659 55.955 584.114 49.685L593.309 46.85C593.819 49.175 594.509 51.32 595.199 53.21C596.324 49.595 597.089 45.65 597.689 41.435H594.764L593.819 44.105L584.099 42.035L585.044 48.65L579.449 50.54V70.055C579.449 79.085 577.124 82.865 563.804 82.865C563.459 79.685 562.169 74.615 560.714 71.255C562.169 71.345 563.729 71.435 564.929 71.435C567.764 71.435 568.109 71.435 568.109 69.98V54.245L563.729 55.625C563.564 56.57 562.784 57.17 562.004 57.35L559.169 43.85C561.659 43.34 564.764 42.65 568.109 41.87V28.715H560.459V17.285H568.109V1.20499L581.864 1.80498C581.774 2.74998 581.174 3.35 579.464 3.605V17.27H584.099V28.7H579.464V39.185L583.589 38.15L583.844 40.04C586.679 32.735 589.769 24.05 592.184 16.835H584.879V5.82497H598.124L600.359 5.56999L606.554 7.46001C606.389 8.06001 606.119 8.83998 605.864 9.34998C603.974 15.275 601.139 23.705 598.124 32.135H601.559L603.449 31.97L607.064 32.57V29.135H618.239V18.215C615.404 18.905 612.569 19.415 609.809 19.94C609.299 17.36 607.664 13.325 606.194 10.82C615.479 8.92999 625.274 5.66 631.304 1.88L640.844 10.82C640.409 11.33 639.554 11.33 638.519 11.33C636.449 12.455 634.049 13.4 631.469 14.345L632.249 14.435C632.159 15.29 631.469 15.89 629.849 16.16V29.135H640.769V40.055H629.849V53.72H639.569V64.46H609.314V53.72H618.254V40.055H618.239Z" fill="white"/>
<path d="M692.685 29.315H726.045V38.51H647.475V29.315H679.965V26.99H657.435V18.305H679.965V15.89H652.365V6.69499H679.965V0.845001L695.355 1.62498C695.265 2.65998 694.5 3.26 692.685 3.515V6.69499H720.45V15.89H692.685V18.305H715.89V26.99H692.685V29.315ZM713.145 41V71.69C713.145 81.665 708.42 82.955 691.23 82.955C690.63 79.94 688.995 75.815 687.54 73.07C689.865 73.235 693.135 73.325 695.445 73.325C696.825 73.325 697.935 73.235 698.37 73.235C700.44 73.235 700.44 72.635 700.44 70.565H672.585V82.775H660.12V41H713.16H713.145ZM700.425 49.775H672.57V52.19H700.425V49.775ZM672.57 62.675H700.425V60.095H672.57V62.675Z" fill="white"/>
<path d="M812.504 53.12V65.24H783.959V82.775H771.059V65.24H732.719V53.12H746.039V33.005C744.584 34.805 743.024 36.53 741.479 37.985C739.154 35.585 734.429 31.37 731.414 29.3C738.809 22.94 745.604 11.585 749.129 0.755005L764.084 5.40497C763.739 6.18497 762.794 6.695 761.504 6.515C761.069 7.715 760.559 8.83996 760.049 10.04H807.329V22.16H783.944V30.845H805.349V42.455H783.944V53.12H812.489H812.504ZM771.074 22.175H753.704C751.904 25.265 749.924 28.19 747.779 30.86H771.074V22.175ZM758.609 53.12H771.074V42.455H758.609V53.12Z" fill="white"/>
<path d="M0 105.575H814.875" stroke="white" stroke-width="4.365" stroke-miterlimit="10"/>
</svg>
