<svg width="1060" height="55" viewBox="0 0 1060 55" fill="none" xmlns="http://www.w3.org/2000/svg">
<path d="M51.5652 34.51V40.825H29.1252V53.17H22.2552V40.825H0.490234V34.51H22.2552V29.47H6.02523V3.94003H45.7452V29.47H30.5652C30.4602 29.905 30.0102 30.13 29.1252 30.295V34.51H51.5652ZM12.5652 9.74503V13.96H38.8752V9.74503H12.5652ZM12.5652 19.375V23.59H38.8752V19.375H12.5652Z" fill="white"/>
<path d="M69.8506 40.78C68.6356 45.205 66.8056 49.975 63.7006 53.08L58.3906 49.75C61.2106 47.095 63.2056 42.88 64.2556 38.845L69.8506 40.78ZM110.066 30.595H72.8956V33.085H103.856L105.236 32.92L108.776 33.475C108.776 33.97 108.671 34.585 108.551 35.2C107.831 45.385 107.051 49.6 105.611 51.265C104.336 52.6 103.001 53.26 98.4106 53.26C97.4656 53.26 96.4156 53.26 95.3656 53.2C95.3056 51.595 94.6456 49.33 93.8206 47.89C95.8756 48.115 97.6906 48.115 98.5306 48.115C99.3706 48.115 99.8056 48.01 100.301 47.56C101.021 46.735 101.681 44.065 102.131 37.81H66.2956V5.125H79.1956C79.7506 3.58 80.2456 1.97501 80.5306 0.640015L88.9456 1.97504C88.7806 2.42504 88.3906 2.63501 87.5656 2.69501L86.2906 5.125H102.236V23.575H72.8806V26.005H110.051V30.595H110.066ZM73.1806 51.415C73.3456 48.7 72.9106 44.38 72.1306 41.05L77.5606 40.225C78.5056 43.495 79.0006 47.815 79.0006 50.53L73.1806 51.415ZM95.7256 9.70003H72.9106V12.19H95.7256V9.70003ZM72.9106 18.955H95.7256V16.3H72.9106V18.955ZM83.6056 50.365C83.3806 47.875 82.3306 43.945 81.1756 40.945L86.2156 39.73C87.4906 42.67 88.7056 46.48 89.0356 48.865L83.6056 50.365ZM93.1906 47.38C92.6356 45.385 91.1956 42.28 89.8156 39.955L94.5256 38.29C95.9656 40.51 97.5106 43.555 98.1856 45.49L93.2056 47.365L93.1906 47.38Z" fill="white"/>
<path d="M167.289 12.52V42.1H142.419V12.52H150.279L150.939 8.75502H140.364V6.49001H140.259C138.324 9.64001 135.384 13.525 132.444 16.51C133.779 17.455 134.934 18.34 135.819 19.165L134.379 21.1H138.804L142.074 21.325C140.964 26.305 139.644 31.24 137.814 36.01C133.269 34.3 133.164 34.24 133.044 34.24C133.659 32.305 134.379 29.635 135.039 26.98H131.769V46.15C131.769 51.295 130.269 53.29 120.579 53.125C120.309 51.295 119.469 48.58 118.584 46.81C120.969 46.87 123.564 46.87 124.344 46.87C125.124 46.81 125.334 46.645 125.334 46.045V26.995H117.024V21.13H128.709C125.889 19.03 122.289 16.87 119.184 15.37L122.514 10.99C124.119 11.71 125.889 12.655 127.659 13.6C128.874 12.265 130.149 10.66 131.259 9.05499H118.194V3.295H135.759L136.764 2.965L140.364 5.125V3.19003H169.224V8.785H157.929C157.599 9.955 157.209 11.215 156.759 12.55H167.289V12.52ZM153.549 45.64C153.324 45.865 152.994 45.97 152.544 46.03C150.054 48.52 144.894 51.685 140.529 53.335C139.479 52.12 137.544 50.125 136.149 49.015C140.409 47.47 145.344 44.47 147.774 42.085L153.534 45.625L153.549 45.64ZM160.914 20.935V17.395H148.449V20.935H160.914ZM160.914 29.02V25.48H148.449V29.02H160.914ZM160.914 37.21V33.61H148.449V37.21H160.914ZM165.069 53.275C163.134 51.22 158.979 47.965 155.814 45.745L160.749 42.37C163.854 44.425 168.069 47.47 170.274 49.57L165.069 53.275Z" fill="white"/>
<path d="M223.241 10.9151L226.781 11.14C226.781 11.695 226.721 12.58 226.676 13.3C226.016 38.335 225.341 47.035 223.181 49.855C221.411 52.345 219.416 53.125 213.656 53.125C212.156 53.125 210.611 53.0651 209.066 53.0201C208.961 51.2501 208.121 48.535 206.966 46.765C210.461 47.035 213.611 47.035 215.051 47.035C216.161 47.035 216.776 46.87 217.436 46.09C219.041 44.425 219.656 36.34 220.211 17.23H206.306C204.971 20.17 203.486 22.8251 201.926 24.9851C200.756 23.9951 198.551 22.435 196.886 21.55C198.821 24.535 200.591 27.805 201.371 30.25C199.481 31.255 197.876 32.14 196.271 33.025C196.046 32.2 195.656 31.1951 195.221 30.1451L191.066 30.4151V53.185H184.976V35.515C184.811 35.845 184.361 35.9501 183.866 35.9051C183.206 40.5101 181.931 45.82 180.266 49.195C179.051 48.37 176.771 47.32 175.331 46.765C176.876 43.72 177.881 38.4551 178.436 33.7001L184.976 35.305V30.82C182.261 30.985 179.876 31.0901 177.881 31.2101C177.716 31.7051 177.266 31.93 176.831 31.99L175.556 25.345H179.606C180.551 24.175 181.541 22.96 182.546 21.64C180.836 19.375 178.121 16.6601 175.796 14.6651L178.841 10.1201L180.056 11.1101C181.991 7.96006 183.926 4.07505 185.036 0.970047L191.681 3.68504C191.456 4.13504 190.901 4.34505 190.181 4.30005C188.636 7.40505 186.026 11.5 183.866 14.545C184.691 15.37 185.411 16.1501 186.026 16.8701C188.291 13.6001 190.346 10.2851 191.891 7.40506L198.371 10.39C198.101 10.78 197.546 10.945 196.766 10.945C193.991 15.265 189.791 20.8 185.861 25.24L192.791 25.135C191.966 23.755 191.126 22.3601 190.301 21.0851C192.071 20.1401 193.571 19.4201 195.011 18.7001C195.566 19.4801 196.061 20.2451 196.616 21.0851C200.111 16.4351 202.991 8.51505 204.596 0.925049L212.456 2.92003C212.291 3.41503 211.796 3.70005 210.956 3.64005C210.341 6.07005 209.621 8.57505 208.736 11.0051H221.801L223.241 10.945V10.9151ZM195.221 46.6451C194.606 43.6601 193.001 38.9501 191.516 35.3951L196.721 33.685C198.266 37.18 199.991 41.605 200.711 44.59L195.221 46.6451ZM207.401 23.7701C210.281 27.6401 213.491 32.8 214.661 36.34L208.841 39.3251C207.851 35.8901 204.851 30.46 202.031 26.47L207.401 23.7551V23.7701Z" fill="white"/>
<path d="M267.895 24.76L268.675 30.415C266.905 31.03 265.075 31.585 263.305 32.185V45.925C263.305 51.97 261.085 53.245 252.61 53.245C252.445 51.475 251.605 48.64 250.78 46.87C251.89 46.87 253 46.93 253.93 46.93C256.87 46.93 256.975 46.93 256.975 45.88V34.135L252.265 35.575C252.205 36.13 251.71 36.52 251.32 36.625L249.61 29.26C251.665 28.81 254.2 28.255 256.975 27.55V17.86H250.33V11.71H256.975V0.970032L264.73 1.36005C264.67 1.91505 264.28 2.24502 263.29 2.41002V11.71H267.88V13.48C273.415 10.33 278.74 5.17003 281.335 0.970032L288.985 1.30003C288.82 1.63003 288.49 2.02002 287.935 2.12502C291.37 6.34002 297.625 10.99 302.995 13.255C301.72 14.8 300.28 17.245 299.335 19.12C297.07 17.905 294.685 16.3 292.405 14.53V16.915H276.505V14.92C274.285 16.75 271.855 18.415 269.365 19.69C268.975 18.91 268.42 17.86 267.865 16.87V17.86H263.275V26.005L267.865 24.79L267.895 24.76ZM297.805 36.28H276.535L276.205 38.5H299.695V53.185H293.875V51.64H281.305V53.245H275.71V40.72C274.66 45.145 272.77 49.465 269.56 52.795C268.735 51.625 266.29 49.36 265.075 48.58C270.565 42.82 271.105 34.63 271.105 28.585V19.2251H297.805V36.28ZM277.03 29.53C277.03 30.25 276.97 31.03 276.97 31.795H291.82V29.53H277.03ZM291.82 23.71H277.03V25.87H291.82V23.71ZM289.66 12.19C287.665 10.36 285.835 8.48504 284.515 6.70004C283.3 8.41004 281.575 10.3 279.64 12.19H289.66ZM293.875 43.105H281.305V47.035H293.875V43.105Z" fill="white"/>
<path d="M331.661 31.9151C331.496 32.4101 331.046 32.7401 330.161 32.8601C328.496 41.1101 326.231 48.64 313.271 53.185C312.491 51.475 310.721 48.76 309.221 47.365C320.801 44.05 322.571 38.11 323.456 30.97L331.646 31.9151H331.661ZM345.116 43.93C345.116 45.76 345.386 46.0301 347.111 46.0301H351.986C353.651 46.0301 353.981 44.9801 354.206 38.3801C355.541 39.4901 358.466 40.6 360.236 41.035C359.576 49.9 357.806 52.285 352.586 52.285H346.106C339.851 52.285 338.411 50.2301 338.411 43.9151V30.4H310.046V23.92H331.481V14.83H321.791C320.576 17.65 319.136 20.365 317.531 22.48C316.031 21.475 313.271 20.1551 311.666 19.5401C315.326 14.9351 317.981 7.40503 319.136 1.70503L326.951 3.41505C326.786 3.91005 326.336 4.19504 325.511 4.19504C325.181 5.47004 324.731 6.97003 324.236 8.45503H331.496V0.925049L339.806 1.31506C339.746 1.93006 339.311 2.26005 338.261 2.42505V8.45503H355.316V14.83H338.261V23.92H359.756V30.4H345.131V43.9151L345.116 43.93Z" fill="white"/>
<path d="M417.476 12.52V42.1H392.606V12.52H400.466L401.126 8.75502H390.551V6.49001H390.446C388.511 9.64001 385.571 13.525 382.631 16.51C383.966 17.455 385.121 18.34 386.006 19.165L384.566 21.1H388.991L392.261 21.325C391.151 26.305 389.831 31.24 388.001 36.01C383.456 34.3 383.351 34.24 383.231 34.24C383.846 32.305 384.566 29.635 385.226 26.98H381.956V46.15C381.956 51.295 380.456 53.29 370.766 53.125C370.496 51.295 369.656 48.58 368.771 46.81C371.156 46.87 373.751 46.87 374.531 46.87C375.311 46.81 375.521 46.645 375.521 46.045V26.995H367.211V21.13H378.896C376.076 19.03 372.476 16.87 369.371 15.37L372.701 10.99C374.306 11.71 376.076 12.655 377.846 13.6C379.061 12.265 380.336 10.66 381.446 9.05499H368.381V3.295H385.946L386.951 2.965L390.551 5.125V3.19003H419.411V8.785H408.116C407.786 9.955 407.396 11.215 406.946 12.55H417.476V12.52ZM403.736 45.64C403.511 45.865 403.181 45.97 402.731 46.03C400.241 48.52 395.081 51.685 390.716 53.335C389.666 52.12 387.731 50.125 386.336 49.015C390.596 47.47 395.531 44.47 397.961 42.085L403.721 45.625L403.736 45.64ZM411.101 20.935V17.395H398.636V20.935H411.101ZM411.101 29.02V25.48H398.636V29.02H411.101ZM411.101 37.21V33.61H398.636V37.21H411.101ZM415.256 53.275C413.321 51.22 409.166 47.965 406.001 45.745L410.936 42.37C414.041 44.425 418.256 47.47 420.461 49.57L415.256 53.275Z" fill="white"/>
<path d="M437.922 41.38L442.797 39.325C444.687 42.145 446.727 45.91 447.612 48.355C446.007 49.135 444.462 49.9 442.467 50.845C441.687 48.295 439.692 44.365 437.877 41.485C437.712 41.755 437.262 41.98 436.707 41.935C435.327 45.865 432.942 50.35 430.332 53.185C429.162 52.24 427.062 50.8 425.682 50.08C428.112 47.59 430.227 43.435 431.337 39.445L437.982 41.335L437.922 41.3951V41.38ZM445.677 2.99504V39.055H428.667V2.99504H445.677ZM439.797 13.405V8.26001H434.307V13.405H439.797ZM439.797 23.59V18.385H434.307V23.59H439.797ZM439.797 33.73V28.465H434.307V33.73H439.797ZM478.407 39.325V44.2H475.137V47.185C475.137 52.615 472.587 53.23 464.607 53.23C464.382 51.625 463.617 49.36 462.897 47.86C465.057 47.965 467.502 47.965 468.162 47.965C468.882 47.965 469.107 47.74 469.107 47.08V44.2H455.697V53.23H449.877V44.2H446.382V39.325H449.877V26.035H459.462V23.7701H446.937V19.12H453.642V17.0201H449.652V12.535H453.642V10.48H447.942V5.77005H453.642V0.955017L460.782 1.34503C460.722 1.84003 460.392 2.17005 459.447 2.35005V5.78502H465.147V0.970032L472.452 1.40504C472.392 1.90004 472.002 2.18505 471.072 2.35005V5.78502H477.387V10.495H471.072V12.55H475.782V17.035H471.072V19.135H478.332V23.785H465.207V26.05H475.122V39.34H478.392L478.407 39.325ZM459.462 30.745H455.697V32.845H459.462V30.745ZM455.697 37.2251V39.325H459.462V37.2251H455.697ZM459.462 10.465V12.5201H465.162V10.465H459.462ZM459.462 17.005V19.105H465.162V17.005H459.462ZM469.092 30.745H465.222V32.845H469.092V30.745ZM465.222 39.325H469.092V37.2251H465.222V39.325Z" fill="white"/>
<path d="M508.51 39.715L509.065 45.025C501.535 47.02 493.495 49.015 488.29 50.29C488.23 50.785 487.855 51.115 487.405 51.235L484.75 44.485C488.455 43.87 493.555 42.82 499.045 41.71L497.545 41.215C498.37 38.17 499.315 33.4 499.645 29.965L506.785 31.96C506.62 32.35 506.125 32.62 505.345 32.62C504.85 35.05 504.01 38.215 503.185 40.825L508.495 39.715H508.51ZM508.18 3.49001V9.58H485.695V3.49001H508.18ZM506.965 13.51V29.185H487.24V13.51H506.965ZM493.225 30.46C494.395 33.565 495.22 37.6 495.385 40.27L489.73 41.77C489.67 39.115 488.95 34.96 487.9 31.795L493.21 30.46H493.225ZM501.04 23.98V18.715H492.85V23.98H501.04ZM521.815 45.805C521.65 46.03 521.32 46.135 520.87 46.195C518.485 48.58 513.445 51.625 509.185 53.23C508.195 52.06 506.245 50.125 504.805 48.97C509.02 47.53 513.775 44.65 516.16 42.325L521.815 45.82V45.805ZM535.435 12.745V42.325H511V12.745H517.975C518.245 11.47 518.53 10.09 518.695 8.75502H509.56V3.16H537.145V8.75502H525.685C525.355 9.97002 524.965 11.365 524.515 12.745H535.42H535.435ZM529.06 21.16V17.62H517.09V21.16H529.06ZM529.06 29.245V25.645H517.09V29.245H529.06ZM529.06 37.435V33.775H517.09V37.435H529.06ZM532.93 53.215C531.04 51.22 526.945 48.01 523.84 45.895L528.88 42.745C531.865 44.68 536.08 47.68 538.24 49.675L532.93 53.215Z" fill="white"/>
<path d="M595.48 5.15504V10.585H585.505C586.39 11.86 587.17 13.135 587.605 14.125L581.95 16.45C581.29 14.905 579.895 12.58 578.455 10.585H576.19C575.245 11.92 574.255 13.1951 573.205 14.3501L574.585 14.41C574.525 14.965 574.09 15.295 573.085 15.46V17.3951H589.645V22.765H573.085V25.87H595.135V31.465H584.665C584.44 31.69 584.05 31.855 583.45 31.96V34.57H592.15V40.105H583.45V46.36C583.45 51.85 581.395 53.17 571.435 53.17C571.105 51.28 570.055 48.685 569.17 46.96C570.715 47.02 572.32 47.065 573.55 47.065C576.535 47.065 576.535 47.005 576.535 46.18V40.09H560.2C563.02 41.92 566.125 44.305 567.685 46.3L562.975 50.56C561.265 48.295 557.44 45.07 554.17 43.03L557.5 40.09H547.75V34.555H576.55V31.45H544.315V25.855H566.2V22.75H550.135V17.38H566.2V13.885L568.525 13.99C567.7 13.435 566.86 12.94 566.2 12.55C566.92 11.935 567.58 11.275 568.255 10.555H560.83C561.49 11.83 562.105 13.105 562.435 14.095L556.735 16.42C556.345 14.875 555.295 12.55 554.185 10.555H553.63C552.085 13.105 550.3 15.43 548.59 17.26C547.315 16.21 544.99 14.65 543.385 13.825C546.76 10.72 549.925 5.35004 551.695 0.415039L558.895 2.68001C558.625 3.17501 558.07 3.34001 557.455 3.29501L556.63 5.12502H568.93V9.83504C571.195 7.12004 573.145 3.74504 574.36 0.415039C577.18 1.24004 579.46 1.91501 581.665 2.63501C581.5 3.13001 580.945 3.29502 580.285 3.25002L579.46 5.12502H595.525L595.48 5.15504Z" fill="white"/>
<path d="M651.88 35.005H633.43C633.325 35.785 633.16 36.5051 633.04 37.2701H652.93V53.05H646.9V51.445H637.09V53.11H631.33V43.855C630.385 46.57 629.11 49.165 627.4 51.385C626.74 50.44 625.015 48.835 623.74 47.89C623.47 52.6 620.53 53.035 614.875 53.035C614.71 51.595 613.93 49.1651 613.21 47.7251C615.085 47.7851 616.975 47.785 617.53 47.785C618.19 47.725 618.355 47.56 618.355 46.9V29.56L610.93 30.385C610.765 37.87 609.94 47.23 606.34 53.26C605.335 52.375 603.01 50.77 601.75 50.215C604.9 44.845 605.515 37.42 605.62 31L604.45 31.105C604.345 31.6 603.895 31.885 603.46 31.93L601.855 25.885L605.62 25.615V8.44005H610.555C611.215 6.05505 611.89 3.01004 612.22 0.790039L619.75 2.56003C619.525 2.95003 619.09 3.22003 618.31 3.22003C617.755 4.76503 616.975 6.71503 616.21 8.42503H623.74V12.745C628.675 9.86504 633.595 4.88505 635.98 0.940048L643.285 1.21004C643.225 1.60004 642.835 1.87002 642.34 1.99002C645.385 5.69502 650.755 9.85001 655.36 12.01C654.19 13.51 652.705 15.94 651.82 17.71C649.99 16.705 648.115 15.325 646.285 13.885V15.985H632.32V13.825C630.325 15.595 628.165 17.2001 625.9 18.4751C625.345 17.3651 624.565 15.82 623.74 14.545V23.965L626.395 23.74L626.5 28.51L623.725 28.84V45.955C627.715 39.64 628.21 31.39 628.21 25.465V17.875H651.865V34.93L651.88 35.005ZM610.945 25.195L618.37 24.535V13.63H610.945V25.21V25.195ZM613.66 23.53C613.39 21.595 612.385 18.655 611.23 16.435L615.055 14.935C616.27 17.095 617.38 19.975 617.77 21.91L613.675 23.515L613.66 23.53ZM617.365 31.39C617.305 31.78 617.035 32.05 616.255 32.17V43.915H612.55V31.06L617.365 31.39ZM633.985 28.345C633.985 29.065 633.925 29.845 633.88 30.61H646.12V28.345H633.985ZM646.12 22.3H634.045V24.4H646.12V22.3ZM643.51 11.5C641.8 9.83502 640.195 8.12505 639.025 6.52005C637.975 8.06505 636.535 9.79002 634.81 11.5H643.51ZM646.885 42.13H637.075V46.51H646.885V42.13Z" fill="white"/>
<path d="M687.596 4.49503H690.311V54.025H687.596V4.49503Z" fill="white"/>
<path d="M720.492 25.9151C720.492 12.3551 725.502 2.80005 735.522 2.80005C745.542 2.80005 750.087 13.18 750.087 25.555C750.087 40.3 744.597 48.73 735.222 48.73C724.842 48.73 720.477 38.3501 720.477 25.9151H720.492ZM735.357 41.83C739.362 41.83 741.372 36.1751 741.372 25.7351C741.372 15.2951 739.542 9.70006 735.417 9.70006C731.637 9.70006 729.222 15.1301 729.222 25.7351C729.222 36.3401 731.397 41.83 735.297 41.83H735.357Z" fill="white"/>
<path d="M772.856 24.0851C777.806 25.2101 781.931 29.2151 781.931 35.2901C781.931 42.7151 775.976 48.73 765.596 48.73C760.886 48.73 756.641 47.485 754.391 46.015L756.341 39.4151C757.991 40.4801 761.591 41.83 765.011 41.83C770.381 41.83 773.036 38.5301 773.036 34.8701C773.036 29.8601 768.671 27.5051 763.901 27.5051H760.901V21.3701H763.736C767.216 21.3701 771.701 19.42 771.701 15.115C771.701 11.995 769.631 9.68504 765.506 9.68504C762.446 9.68504 759.431 11.0351 757.721 12.1001L755.891 5.84505C758.186 4.31505 762.731 2.78503 767.501 2.78503C776.051 2.78503 780.536 7.79506 780.536 13.6901C780.536 18.2951 777.761 22.1201 772.871 23.9501V24.07L772.856 24.0851Z" fill="white"/>
<path d="M787.885 27.1H804.04V33.115H787.885V27.1Z" fill="white"/>
<path d="M824.379 24.0851C829.329 25.2101 833.454 29.2151 833.454 35.2901C833.454 42.7151 827.499 48.73 817.119 48.73C812.409 48.73 808.164 47.485 805.914 46.015L807.864 39.4151C809.514 40.4801 813.114 41.83 816.534 41.83C821.904 41.83 824.559 38.5301 824.559 34.8701C824.559 29.8601 820.194 27.5051 815.424 27.5051H812.424V21.3701H815.259C818.739 21.3701 823.224 19.42 823.224 15.115C823.224 11.995 821.154 9.68504 817.029 9.68504C813.969 9.68504 810.954 11.0351 809.244 12.1001L807.414 5.84505C809.709 4.31505 814.254 2.78503 819.024 2.78503C827.574 2.78503 832.059 7.79506 832.059 13.6901C832.059 18.2951 829.284 22.1201 824.394 23.9501V24.07L824.379 24.0851Z" fill="white"/>
<path d="M839.472 25.9151C839.472 12.3551 844.482 2.80005 854.502 2.80005C864.522 2.80005 869.067 13.18 869.067 25.555C869.067 40.3 863.577 48.73 854.202 48.73C843.822 48.73 839.457 38.3501 839.457 25.9151H839.472ZM854.337 41.83C858.342 41.83 860.352 36.1751 860.352 25.7351C860.352 15.2951 858.522 9.70006 854.397 9.70006C850.617 9.70006 848.202 15.1301 848.202 25.7351C848.202 36.3401 850.377 41.83 854.277 41.83H854.337Z" fill="white"/>
<path d="M885.747 48.085V11.29H885.627L877.962 15.295L876.072 9.04004L886.917 3.49002H894.222V48.07H885.732L885.747 48.085Z" fill="white"/>
<path d="M906.852 27.1H923.007V33.115H906.852V27.1Z" fill="white"/>
<path d="M937.271 48.085V11.29H937.151L929.486 15.295L927.596 9.04004L938.441 3.49002H945.746V48.07H937.256L937.271 48.085Z" fill="white"/>
<path d="M964.976 24.67C960.851 22.375 958.661 18.655 958.661 14.875C958.661 7.51003 964.736 2.78503 972.461 2.78503C981.311 2.78503 985.496 8.38004 985.496 13.99C985.496 17.59 983.486 21.535 978.956 24.01V24.1301C983.321 26.1401 986.921 29.965 986.921 35.515C986.921 43.48 980.666 48.715 971.831 48.715C962.336 48.715 957.266 42.8801 957.266 36.5051C957.266 31.0151 960.506 27.0701 964.991 24.8351V24.6551L964.976 24.67ZM978.176 36.22C978.176 31.855 975.221 29.0801 971.336 27.7901C967.976 29.0351 965.966 32.155 965.966 35.695C965.966 39.475 968.261 42.775 972.041 42.775C975.821 42.775 978.176 39.7151 978.176 36.2351V36.22ZM966.851 14.47C966.851 17.89 969.326 20.245 972.806 21.55C975.281 20.545 977.351 17.7701 977.351 14.7701C977.351 11.7701 975.881 8.63503 972.161 8.63503C968.441 8.63503 966.851 11.635 966.851 14.47Z" fill="white"/>
<path d="M1001.07 24.67C996.94 22.375 994.75 18.655 994.75 14.875C994.75 7.51003 1000.83 2.78503 1008.55 2.78503C1017.4 2.78503 1021.59 8.38004 1021.59 13.99C1021.59 17.59 1019.58 21.535 1015.05 24.01V24.1301C1019.41 26.1401 1023.01 29.965 1023.01 35.515C1023.01 43.48 1016.76 48.715 1007.92 48.715C998.426 48.715 993.355 42.8801 993.355 36.5051C993.355 31.0151 996.595 27.0701 1001.08 24.8351V24.6551L1001.07 24.67ZM1014.27 36.22C1014.27 31.855 1011.33 29.0801 1007.43 27.7901C1004.07 29.0351 1002.06 32.155 1002.06 35.695C1002.06 39.475 1004.35 42.775 1008.13 42.775C1011.91 42.775 1014.27 39.7151 1014.27 36.2351V36.22ZM1002.94 14.47C1002.94 17.89 1005.42 20.245 1008.9 21.55C1011.37 20.545 1013.44 17.7701 1013.44 14.7701C1013.44 11.7701 1011.97 8.63503 1008.25 8.63503C1004.53 8.63503 1002.94 11.635 1002.94 14.47Z" fill="white"/>
<path d="M1037.14 24.67C1033.02 22.375 1030.83 18.655 1030.83 14.875C1030.83 7.51003 1036.9 2.78503 1044.63 2.78503C1053.48 2.78503 1057.66 8.38004 1057.66 13.99C1057.66 17.59 1055.65 21.535 1051.12 24.01V24.1301C1055.49 26.1401 1059.09 29.965 1059.09 35.515C1059.09 43.48 1052.83 48.715 1044 48.715C1034.5 48.715 1029.43 42.8801 1029.43 36.5051C1029.43 31.0151 1032.67 27.0701 1037.16 24.8351V24.6551L1037.14 24.67ZM1050.34 36.22C1050.34 31.855 1047.39 29.0801 1043.5 27.7901C1040.14 29.0351 1038.13 32.155 1038.13 35.695C1038.13 39.475 1040.43 42.775 1044.21 42.775C1047.99 42.775 1050.34 39.7151 1050.34 36.2351V36.22ZM1039.02 14.47C1039.02 17.89 1041.49 20.245 1044.97 21.55C1047.45 20.545 1049.52 17.7701 1049.52 14.7701C1049.52 11.7701 1048.05 8.63503 1044.33 8.63503C1040.61 8.63503 1039.02 11.635 1039.02 14.47Z" fill="white"/>
</svg>
