<svg width="165" height="43" viewBox="0 0 165 43" fill="none" xmlns="http://www.w3.org/2000/svg">
<path d="M109.023 13.1892V12.2892L110.358 12.4092C110.598 12.4242 110.733 12.4992 110.733 12.6192C110.733 12.6942 110.643 12.8292 110.493 12.9942V13.1892H113.868V15.3642H115.323V16.6392H113.868V18.8142H110.493V19.8192H114.048V21.0942H110.493V22.1142H114.438V23.4492H110.493V25.2492C111.363 25.2792 112.338 25.2942 113.418 25.2942C113.913 25.2942 114.543 25.2792 115.323 25.2342L114.618 26.8392C111.753 26.8392 109.563 26.7342 108.033 26.5842C106.773 26.4492 105.753 26.2392 104.943 25.9692C104.343 25.7592 103.803 25.4892 103.338 25.2042C102.798 25.9392 102.153 26.5542 101.358 27.0492L100.278 25.8942C101.028 25.5042 101.658 24.9642 102.153 24.2742C101.628 23.7492 101.088 22.9542 100.518 21.8742L101.673 21.4392C102.108 22.1142 102.528 22.6242 102.873 23.0292C103.263 22.1292 103.533 20.8692 103.638 19.2792H102.303L101.778 20.3592L100.503 19.9242L102.993 14.7042H100.563V13.3692H103.308L103.698 13.2342C103.833 13.2342 103.938 13.2792 104.073 13.3692L104.868 13.8642C104.958 13.9242 105.033 14.0142 105.033 14.0742C105.033 14.2242 104.898 14.3742 104.643 14.5092L102.948 17.9442H105.033C104.928 20.5542 104.628 22.4892 104.103 23.7342C104.073 23.8392 104.028 23.9142 103.983 23.9742C104.703 24.4392 105.498 24.7392 106.398 24.9042C106.968 25.0542 107.838 25.1442 108.978 25.2192V23.4942H105.033V22.1592H108.978V21.1392H105.528V19.8642H108.978V18.8592H105.903V17.5842H108.978V16.6842H104.568V15.4092H108.978V14.5092H105.903V13.2342H108.978L109.023 13.1892ZM110.493 15.3642H112.473V14.4642H110.493V15.3642ZM110.493 17.5392H112.473V16.6392H110.493V17.5392Z" fill="white"/>
<path d="M122.733 14.7192V15.9942H116.853V14.7192H122.733ZM122.403 21.6042V26.7642H121.068V25.9992H118.593V26.8992H117.258V21.6192H122.418L122.403 21.6042ZM122.088 17.0742V18.2892H117.423V17.0742H122.088ZM122.088 19.2342V20.4492H117.423V19.2342H122.088ZM122.028 12.5442V13.7442H117.498V12.5442H122.028ZM121.068 24.7842V22.8042H118.593V24.7842H121.068ZM128.853 12.6192V16.1292C128.853 16.6092 128.913 16.8342 129.063 16.8342H129.888C129.963 16.8342 130.053 16.7892 130.113 16.6692C130.188 16.5342 130.263 16.0542 130.353 15.1692L131.688 15.6042C131.463 16.7142 131.193 17.4192 130.923 17.6742C130.623 17.9742 130.203 18.0942 129.648 18.0942H128.913C127.923 18.0942 127.428 17.5392 127.428 16.4292V13.8192H125.463C125.403 14.9892 125.253 15.8592 125.013 16.4142C124.728 17.0892 124.218 17.7642 123.513 18.4692L122.433 17.5692C123.078 17.0142 123.513 16.4592 123.738 15.9342C123.963 15.5142 124.098 14.4042 124.098 12.6042H128.808L128.853 12.6192ZM128.988 19.1142C129.153 18.9792 129.258 18.9192 129.303 18.9192C129.393 18.9192 129.513 18.9792 129.618 19.0842L130.368 19.7892C130.473 19.8792 130.518 19.9842 130.518 20.0892C130.518 20.1942 130.368 20.3142 130.083 20.4642C129.468 22.2492 128.778 23.5542 128.028 24.3642C128.913 24.8142 130.113 25.1892 131.613 25.5042L130.713 26.8992C129.153 26.4792 127.893 25.9692 126.903 25.3542C126.018 25.9692 124.893 26.4792 123.558 26.8992L122.613 25.6242C123.573 25.4142 124.353 25.1742 124.953 24.8892C125.253 24.7542 125.508 24.6192 125.748 24.4392C124.998 23.7192 124.233 22.7442 123.438 21.4692L124.443 20.8392C125.193 22.0392 125.988 22.9392 126.813 23.5842C126.933 23.4492 127.038 23.3292 127.143 23.1942C127.638 22.5792 128.088 21.6492 128.508 20.3892H123.678V19.1142H128.988Z" fill="white"/>
<path d="M134.974 15.6642V12.0942L136.219 12.1992C136.444 12.1992 136.564 12.2592 136.564 12.3642C136.564 12.4392 136.489 12.5742 136.324 12.7542V15.6792H137.599V16.9542H136.324V17.5092C136.804 18.4842 137.344 19.3092 137.974 19.9542L137.029 20.9592C136.774 20.5692 136.534 20.1642 136.324 19.7142V26.9592H134.989V20.5242C134.689 21.4392 134.389 22.2792 134.029 23.0592L132.754 22.2492C133.279 21.4692 133.729 20.6292 134.119 19.7292C134.344 19.1892 134.644 18.3942 134.989 17.3142V16.9392H133.189V15.6642H134.989H134.974ZM146.194 12.6792C146.329 12.7392 146.389 12.8142 146.389 12.8592C146.389 12.9492 146.284 13.0542 146.134 13.1142L144.844 15.2742C145.099 15.4842 145.354 15.6792 145.579 15.8742L146.464 14.3292L147.394 14.9142C147.499 14.9742 147.544 15.0642 147.544 15.1542C147.544 15.2442 147.454 15.3192 147.289 15.3492L145.654 17.9442C145.969 17.8992 146.269 17.8242 146.569 17.7642C146.494 17.5392 146.404 17.3142 146.344 17.0592L147.349 16.8192C147.709 17.7342 147.964 18.5892 148.114 19.3692L146.974 19.6092C146.944 19.3092 146.869 19.0242 146.809 18.7092C146.209 18.8892 145.384 19.0992 144.364 19.3692C144.259 19.5042 144.184 19.5642 144.109 19.5642C144.034 19.5642 143.974 19.5042 143.974 19.3692L143.734 18.2142C143.929 18.1992 144.109 18.1842 144.304 18.1542L145.054 16.8492C144.499 16.3692 143.899 15.9192 143.269 15.4842C143.344 17.3442 143.524 18.9942 143.824 20.4042H145.174C145.039 20.2692 144.934 20.1642 144.799 20.0292L145.564 19.3992C145.924 19.6842 146.269 20.0142 146.599 20.4192H147.919V21.6342H144.079C144.259 22.3092 144.469 22.8942 144.694 23.4042C145.039 22.9842 145.369 22.4892 145.669 21.9492L146.734 22.5342C146.824 22.5942 146.884 22.6842 146.884 22.7742C146.884 22.8642 146.779 22.9092 146.569 22.9092C146.089 23.5992 145.669 24.1692 145.309 24.5892C145.369 24.7242 145.459 24.8142 145.519 24.9192C145.819 25.3242 146.074 25.5192 146.299 25.5192C146.464 25.5192 146.719 24.9642 147.064 23.8542L148.069 24.6942C147.394 26.2992 146.824 27.1092 146.359 27.1092C145.894 27.1092 145.324 26.6742 144.634 25.8192C144.559 25.6992 144.484 25.6092 144.424 25.5042C144.214 25.6842 144.004 25.8492 143.809 26.0142C143.314 26.3592 142.684 26.7042 141.904 27.0642L141.019 25.9692C141.874 25.6692 142.549 25.3692 143.089 24.9792C143.329 24.7992 143.554 24.6042 143.779 24.4092C143.374 23.6142 143.029 22.6992 142.774 21.6492H140.449C140.404 22.0542 140.359 22.4142 140.299 22.7442C141.019 23.2692 141.724 23.8692 142.414 24.5742L141.319 25.2792C140.899 24.7842 140.449 24.3342 139.999 23.9292V23.9592C139.774 24.6192 139.504 25.2042 139.219 25.6692C138.979 26.0442 138.679 26.4192 138.334 26.8092L137.104 26.0442C137.449 25.7142 137.704 25.4442 137.914 25.1742C138.274 24.6792 138.559 24.1242 138.814 23.4792C138.979 22.9842 139.114 22.3692 139.204 21.6492H137.884V20.4342H142.489C142.129 18.4392 141.964 15.6642 141.964 12.0942L143.134 12.3042C143.284 12.3342 143.359 12.3792 143.359 12.4692C143.359 12.5892 143.299 12.7092 143.164 12.8442C143.164 13.6242 143.179 14.3592 143.209 15.0792L143.689 14.5092C143.779 14.5692 143.869 14.6442 143.944 14.6892L145.264 12.2742L146.164 12.7392L146.194 12.6792ZM140.824 12.6792C140.959 12.7392 141.034 12.8142 141.034 12.8592C141.034 12.9492 140.929 13.0542 140.779 13.1142L139.369 15.2442C139.594 15.4092 139.789 15.5742 139.969 15.7242L140.899 14.3292L141.829 14.9142C141.919 14.9742 141.979 15.0642 141.979 15.1542C141.979 15.2442 141.904 15.3192 141.739 15.3492L139.684 18.1092C140.044 18.0792 140.389 18.0342 140.749 17.9742C140.689 17.7492 140.629 17.4942 140.584 17.2542L141.544 16.9992C141.799 17.9442 142.009 18.8142 142.114 19.6092L141.034 19.8642C141.004 19.5642 140.974 19.2792 140.914 18.9492C140.254 19.0842 139.354 19.2492 138.229 19.4292C138.124 19.5642 138.049 19.6092 137.974 19.6092C137.899 19.6092 137.839 19.5642 137.839 19.4292L137.599 18.2742C137.839 18.2742 138.094 18.2592 138.334 18.2292L139.369 16.6392C138.799 16.1892 138.184 15.7392 137.524 15.2892L138.229 14.4642C138.334 14.5242 138.409 14.5992 138.499 14.6592L139.939 12.2292L140.824 12.6942V12.6792Z" fill="white"/>
<path d="M151.473 15.2292V12.0492L152.718 12.1392C152.943 12.1542 153.078 12.1992 153.078 12.3042C153.078 12.4092 152.988 12.5292 152.823 12.6942V15.2442H154.428V16.5192H152.838C153.363 18.0342 154.023 19.2792 154.803 20.2242L153.858 21.2292C153.483 20.5842 153.138 19.8942 152.838 19.1442V27.0942H151.503V19.4142C151.443 19.6392 151.383 19.8342 151.353 20.0142C151.098 21.0942 150.813 22.0692 150.483 22.9692L149.148 22.0692C149.613 21.2892 150.003 20.4192 150.348 19.4892C150.573 18.8292 150.873 17.8542 151.233 16.5192H149.463V15.2442H151.503L151.473 15.2292ZM156.948 13.3842V12.0492L158.193 12.1392C158.418 12.1542 158.553 12.1992 158.553 12.3042C158.553 12.4092 158.463 12.5292 158.298 12.6942V13.3992H160.398V12.0642L161.643 12.1542C161.868 12.1692 162.003 12.2142 162.003 12.3192C162.003 12.4242 161.898 12.5442 161.748 12.7092V13.4142H163.788V14.5542H161.748V15.4542H163.353V16.5342H161.748V17.4342H164.298V18.5742H160.173V19.3392H163.353V23.4792H164.493V24.6192H163.353V25.7142C163.353 26.3292 162.978 26.7492 162.228 26.9442C161.643 27.0942 161.043 27.1692 160.488 27.1692L159.978 25.8342H161.418C161.808 25.7892 162.018 25.6242 162.018 25.3242V24.6192H156.978V26.9892H155.643V24.6192H154.053V23.4792H155.643V19.3392H158.838V18.5742H154.428V17.4342H156.978V16.5342H155.448V15.4542H156.978V14.5542H154.878V13.4142H156.978L156.948 13.3842ZM158.808 21.4692V20.4492H156.948V21.4692H158.808ZM158.808 23.4492V22.5492H156.948V23.4492H158.808ZM160.398 14.5242H158.298V15.4242H160.398V14.5242ZM160.398 16.5042H158.298V17.4042H160.398V16.5042ZM160.158 21.4842H162.003V20.4642H160.158V21.4842ZM160.158 23.4642H162.003V22.5642H160.158V23.4642Z" fill="white"/>
<path d="M100.982 32.2991C101.072 32.2391 101.132 32.1491 101.177 32.0441C101.222 31.9391 101.253 31.8041 101.253 31.6541C101.253 31.5041 101.267 31.3391 101.267 31.1591V29.8841C101.267 29.6891 101.267 29.4791 101.267 29.2841C101.267 29.0891 101.252 28.8941 101.237 28.6841C101.282 28.6841 101.327 28.6841 101.357 28.6991C101.402 28.6991 101.432 28.6991 101.477 28.6991C101.522 28.6991 101.567 28.6991 101.597 28.6991C101.642 28.6991 101.672 28.6991 101.717 28.6841C101.717 28.8791 101.702 29.0891 101.687 29.2841C101.687 29.4791 101.687 29.6741 101.687 29.8841C101.687 30.0191 101.687 30.1691 101.687 30.3191C101.687 30.4691 101.687 30.6191 101.687 30.7541C101.687 30.9041 101.687 31.0391 101.687 31.1591C101.687 31.2941 101.687 31.4141 101.687 31.5191C101.687 31.6541 101.657 31.7891 101.612 31.8941C101.567 32.0141 101.492 32.1041 101.402 32.1941C101.312 32.2841 101.207 32.3591 101.072 32.4041C100.952 32.4491 100.802 32.4791 100.652 32.4791L100.607 32.3441C100.757 32.3441 100.862 32.3141 100.952 32.2541L100.982 32.2991Z" fill="white"/>
<path d="M102.723 28.7142C102.723 28.7142 102.828 28.6392 102.903 28.6392C102.978 28.6392 103.038 28.6692 103.083 28.7142C103.143 28.7592 103.158 28.8192 103.158 28.8792C103.158 28.9392 103.128 28.9992 103.083 29.0442C103.038 29.0892 102.978 29.1192 102.903 29.1192C102.828 29.1192 102.768 29.1042 102.723 29.0442C102.678 28.9992 102.648 28.9392 102.648 28.8792C102.648 28.8192 102.678 28.7592 102.723 28.7142ZM102.723 30.1092C102.723 29.9592 102.708 29.8092 102.693 29.6892C102.783 29.6892 102.858 29.7042 102.918 29.7042C102.978 29.7042 103.053 29.7042 103.143 29.6892C103.128 29.8242 103.113 29.9592 103.113 30.1092C103.113 30.2592 103.113 30.4092 103.113 30.5442V31.0242C103.113 31.1592 103.113 31.3092 103.113 31.4592C103.113 31.6092 103.128 31.7442 103.143 31.8642C103.068 31.8642 102.993 31.8642 102.918 31.8642C102.843 31.8642 102.768 31.8642 102.693 31.8642C102.708 31.7442 102.723 31.6092 102.723 31.4592C102.723 31.3092 102.723 31.1592 102.723 31.0242V30.5442C102.723 30.4092 102.723 30.2592 102.723 30.1092Z" fill="white"/>
<path d="M105.497 30.0492C105.392 29.9292 105.257 29.8692 105.092 29.8692C104.852 29.8692 104.687 29.9292 104.567 30.0642C104.462 30.1992 104.402 30.3792 104.402 30.6192V31.0092C104.402 31.1442 104.402 31.2941 104.402 31.4441C104.402 31.5941 104.417 31.7291 104.432 31.8491C104.357 31.8491 104.282 31.8491 104.207 31.8491C104.132 31.8491 104.057 31.8491 103.982 31.8491C103.997 31.7291 104.012 31.5941 104.012 31.4441C104.012 31.2941 104.012 31.1442 104.012 31.0092V30.5292C104.012 30.3942 104.012 30.2441 104.012 30.0941C104.012 29.9441 103.997 29.7942 103.982 29.6742C104.072 29.6742 104.147 29.6892 104.207 29.6892C104.237 29.6892 104.267 29.6892 104.297 29.6892C104.327 29.6892 104.372 29.6892 104.417 29.6742C104.417 29.7942 104.417 29.9142 104.417 30.0492C104.507 29.9142 104.627 29.8091 104.762 29.7341C104.897 29.6591 105.047 29.6292 105.227 29.6292C105.317 29.6292 105.422 29.6292 105.512 29.6592C105.602 29.6892 105.692 29.7342 105.767 29.7942C105.842 29.8542 105.917 29.9292 105.962 30.0342C106.007 30.1392 106.038 30.2742 106.038 30.4242C106.038 30.5592 106.038 30.6941 106.038 30.8291C106.038 30.9641 106.038 31.1142 106.038 31.2792V31.5791C106.038 31.5791 106.038 31.6691 106.038 31.7291C106.038 31.7741 106.038 31.8192 106.038 31.8642C105.963 31.8642 105.887 31.8642 105.812 31.8642C105.737 31.8642 105.677 31.8642 105.602 31.8642C105.602 31.6992 105.602 31.5342 105.617 31.3692C105.617 31.2042 105.617 31.0241 105.617 30.8441V30.5592C105.617 30.3342 105.572 30.1542 105.467 30.0342L105.497 30.0492Z" fill="white"/>
<path d="M106.757 30.0492C106.802 29.9592 106.877 29.8692 106.967 29.8092C107.057 29.7492 107.162 29.7042 107.282 29.6742C107.402 29.6442 107.522 29.6292 107.657 29.6292C107.717 29.6292 107.777 29.6292 107.837 29.6292C107.897 29.6292 107.972 29.6292 108.062 29.6292C108.137 29.6292 108.212 29.6292 108.272 29.6292C108.332 29.6292 108.377 29.6292 108.422 29.6292C108.617 29.6292 108.752 29.6292 108.842 29.6142C108.842 29.6142 108.842 29.6442 108.842 29.6592C108.842 29.6742 108.842 29.6892 108.842 29.7042C108.842 29.7192 108.842 29.7342 108.842 29.7492C108.842 29.7642 108.842 29.7792 108.842 29.7942C108.752 29.7942 108.647 29.7942 108.557 29.7792C108.467 29.7792 108.377 29.7642 108.287 29.7642C108.392 29.8242 108.482 29.8992 108.542 30.0192C108.602 30.1242 108.632 30.2442 108.632 30.3642C108.632 30.5892 108.542 30.7692 108.377 30.9042C108.197 31.0392 107.972 31.0992 107.687 31.0992C107.642 31.0992 107.597 31.0992 107.552 31.0992C107.507 31.0992 107.462 31.0992 107.417 31.0992C107.357 31.0992 107.297 31.1142 107.252 31.1592C107.192 31.2042 107.177 31.2492 107.177 31.3092C107.177 31.3842 107.207 31.4442 107.237 31.4892C107.282 31.5192 107.357 31.5492 107.477 31.5492C107.567 31.5492 107.672 31.5492 107.762 31.5492C107.852 31.5492 107.942 31.5492 108.047 31.5492C108.212 31.5492 108.332 31.5642 108.452 31.5942C108.557 31.6242 108.647 31.6692 108.722 31.7142C108.797 31.7742 108.842 31.8342 108.872 31.8942C108.902 31.9542 108.917 32.0292 108.917 32.1192C108.917 32.2242 108.902 32.3442 108.857 32.4492C108.812 32.5542 108.737 32.6592 108.632 32.7492C108.542 32.8392 108.407 32.9142 108.257 32.9742C108.107 33.0342 107.927 33.0642 107.717 33.0642C107.387 33.0642 107.132 33.0042 106.937 32.8842C106.742 32.7642 106.652 32.5992 106.652 32.4042C106.652 32.3292 106.667 32.2542 106.697 32.1792C106.727 32.1042 106.772 32.0442 106.817 31.9992C106.862 31.9392 106.922 31.9092 106.997 31.8792C107.057 31.8492 107.132 31.8192 107.192 31.8042C107.087 31.7742 107.012 31.7292 106.952 31.6542C106.892 31.5942 106.877 31.5042 106.877 31.4292C106.877 31.3692 106.877 31.3242 106.907 31.2792C106.922 31.2342 106.952 31.2042 106.982 31.1592C107.012 31.1292 107.057 31.0992 107.102 31.0692C107.147 31.0542 107.192 31.0392 107.237 31.0242C107.087 30.9492 106.952 30.8742 106.877 30.7542C106.787 30.6492 106.742 30.4992 106.742 30.3342C106.742 30.1992 106.772 30.0942 106.817 30.0042L106.757 30.0492ZM108.302 31.9692C108.182 31.8942 107.987 31.8642 107.717 31.8642C107.462 31.8642 107.267 31.8942 107.132 31.9842C106.997 32.0592 106.922 32.1942 106.922 32.3892C106.922 32.4942 106.952 32.5842 106.982 32.6592C107.027 32.7342 107.072 32.7942 107.147 32.8392C107.207 32.8842 107.297 32.9142 107.387 32.9442C107.477 32.9592 107.582 32.9742 107.687 32.9742C107.792 32.9742 107.882 32.9742 107.987 32.9292C108.092 32.8992 108.167 32.8692 108.257 32.8242C108.332 32.7792 108.392 32.7192 108.437 32.6442C108.482 32.5692 108.512 32.4792 108.512 32.3742C108.512 32.1942 108.452 32.0592 108.332 31.9842L108.302 31.9692ZM108.062 29.9142C107.957 29.8092 107.822 29.7642 107.657 29.7642C107.477 29.7642 107.327 29.8242 107.237 29.9292C107.132 30.0342 107.087 30.1842 107.087 30.3792C107.087 30.5742 107.132 30.7242 107.222 30.8442C107.312 30.9492 107.462 31.0092 107.657 31.0092C107.762 31.0092 107.837 30.9942 107.912 30.9492C107.987 30.9192 108.032 30.8592 108.092 30.8142C108.137 30.7542 108.167 30.6792 108.197 30.6042C108.227 30.5292 108.227 30.4392 108.227 30.3492C108.227 30.1542 108.182 30.0042 108.077 29.8992L108.062 29.9142Z" fill="white"/>
<path d="M110.447 30.6642V30.9492H109.188V30.6642H110.447Z" fill="white"/>
<path d="M111.153 29.2992C111.153 29.1042 111.153 28.9092 111.123 28.6992C111.258 28.6992 111.378 28.6992 111.513 28.7142C111.633 28.7142 111.768 28.7142 111.888 28.7142C112.008 28.7142 112.143 28.7142 112.263 28.7142C112.398 28.7142 112.518 28.7142 112.653 28.7142C112.953 28.7142 113.208 28.7442 113.418 28.8192C113.628 28.8942 113.808 28.9842 113.943 29.1192C114.078 29.2542 114.183 29.4042 114.243 29.5992C114.303 29.7942 114.333 30.0042 114.333 30.2442C114.333 30.5592 114.273 30.8142 114.153 31.0242C114.033 31.2342 113.883 31.3992 113.703 31.5342C113.523 31.6692 113.328 31.7592 113.103 31.8042C112.878 31.8642 112.668 31.8792 112.473 31.8792C112.353 31.8792 112.248 31.8792 112.128 31.8792C112.023 31.8792 111.903 31.8792 111.783 31.8792H111.438C111.318 31.8792 111.213 31.8792 111.093 31.8792C111.093 31.6842 111.108 31.4892 111.123 31.2942C111.123 31.0992 111.138 30.8892 111.138 30.6942V29.8992C111.138 29.7042 111.138 29.4942 111.123 29.2992H111.153ZM111.618 31.6692C111.618 31.6692 111.783 31.6992 111.903 31.6992C112.023 31.6992 112.143 31.6992 112.278 31.6992C112.458 31.6992 112.653 31.6842 112.833 31.6392C113.013 31.5942 113.193 31.5192 113.328 31.4142C113.478 31.3092 113.598 31.1442 113.688 30.9642C113.778 30.7692 113.838 30.5292 113.838 30.2142C113.838 29.9442 113.793 29.7192 113.733 29.5542C113.658 29.3892 113.553 29.2392 113.433 29.1492C113.313 29.0442 113.163 28.9842 112.983 28.9392C112.803 28.9092 112.623 28.8792 112.398 28.8792C112.248 28.8792 112.098 28.8792 111.978 28.8792C111.843 28.8792 111.723 28.8942 111.618 28.9092C111.618 29.0592 111.603 29.2092 111.588 29.3742C111.588 29.5392 111.588 29.7042 111.588 29.8692V30.6642C111.588 30.9942 111.588 31.3242 111.618 31.6392V31.6692Z" fill="white"/>
<path d="M115.007 30.7692C115.007 30.6492 115.007 30.5442 115.007 30.4242C115.007 30.3042 115.007 30.1992 115.007 30.0792C115.007 29.9592 115.007 29.8242 115.007 29.6892C115.097 29.6892 115.157 29.7042 115.217 29.7042C115.277 29.7042 115.337 29.7042 115.427 29.6892C115.412 29.8692 115.397 30.0792 115.397 30.3042C115.397 30.5292 115.397 30.7542 115.397 30.9792C115.397 31.1442 115.397 31.2642 115.442 31.3392C115.472 31.4292 115.517 31.4892 115.547 31.5342C115.592 31.5792 115.652 31.6242 115.727 31.6542C115.802 31.6842 115.892 31.6992 115.982 31.6992C116.132 31.6992 116.237 31.6692 116.342 31.6092C116.432 31.5492 116.507 31.4742 116.552 31.3992C116.582 31.3392 116.597 31.2942 116.612 31.2642C116.612 31.2342 116.642 31.1742 116.642 31.1142C116.642 31.0542 116.642 30.9642 116.642 30.8592V29.8542C116.642 29.8542 116.642 29.7342 116.642 29.6742C116.672 29.6742 116.717 29.6742 116.747 29.6892C116.777 29.6892 116.807 29.6892 116.852 29.6892C116.882 29.6892 116.927 29.6892 116.957 29.6892C116.987 29.6892 117.017 29.6892 117.062 29.6742C117.047 29.9142 117.032 30.1392 117.032 30.3642C117.032 30.5892 117.032 30.8292 117.032 31.0692C117.032 31.2042 117.032 31.3392 117.032 31.4742C117.032 31.6092 117.032 31.7292 117.032 31.8642C116.972 31.8642 116.897 31.8642 116.837 31.8642C116.777 31.8642 116.702 31.8642 116.642 31.8642C116.642 31.8342 116.642 31.8042 116.642 31.7742C116.642 31.7442 116.642 31.7142 116.642 31.6692V31.4742C116.552 31.6242 116.447 31.7292 116.312 31.8042C116.177 31.8792 116.027 31.9092 115.862 31.9092C115.592 31.9092 115.397 31.8492 115.247 31.7142C115.097 31.5942 115.022 31.3992 115.022 31.1592C115.022 30.9942 115.022 30.8592 115.022 30.7392L115.007 30.7692Z" fill="white"/>
<path d="M121.832 31.7742C121.832 31.7742 121.682 31.8342 121.592 31.8492C121.502 31.8792 121.397 31.8942 121.277 31.9092C121.157 31.9242 121.037 31.9392 120.917 31.9392C120.647 31.9392 120.407 31.9092 120.182 31.8342C119.957 31.7592 119.762 31.6542 119.597 31.5192C119.432 31.3842 119.312 31.2042 119.207 30.9942C119.117 30.7842 119.072 30.5592 119.072 30.2892C119.072 30.0192 119.117 29.7942 119.207 29.5842C119.297 29.3742 119.432 29.2092 119.597 29.0592C119.762 28.9242 119.972 28.8042 120.197 28.7292C120.437 28.6542 120.692 28.6242 120.977 28.6242C121.202 28.6242 121.397 28.6392 121.592 28.6842C121.772 28.7292 121.937 28.7742 122.087 28.8342C122.057 28.8792 122.042 28.9392 122.012 29.0142C122.012 29.0892 121.982 29.1492 121.982 29.1942H121.952C121.952 29.1942 121.877 29.1192 121.817 29.0742C121.757 29.0292 121.682 28.9842 121.607 28.9392C121.532 28.8942 121.442 28.8642 121.337 28.8342C121.232 28.8042 121.127 28.7892 121.007 28.7892C120.797 28.7892 120.617 28.8192 120.452 28.8792C120.272 28.9392 120.137 29.0292 120.002 29.1492C119.867 29.2692 119.777 29.4192 119.702 29.6142C119.627 29.7942 119.597 30.0192 119.597 30.2742C119.597 30.5292 119.627 30.7542 119.702 30.9342C119.777 31.1142 119.867 31.2792 120.002 31.3992C120.122 31.5192 120.272 31.6092 120.452 31.6692C120.617 31.7292 120.812 31.7592 121.007 31.7592C121.127 31.7592 121.247 31.7592 121.352 31.7142C121.457 31.6842 121.547 31.6542 121.637 31.6092C121.727 31.5792 121.802 31.5342 121.877 31.4892C121.952 31.4442 121.997 31.3992 122.057 31.3692H122.072L122.027 31.6542C121.997 31.6842 121.952 31.7142 121.877 31.7442L121.832 31.7742Z" fill="white"/>
<path d="M122.523 30.2592C122.598 30.1092 122.688 29.9892 122.808 29.8992C122.928 29.8092 123.063 29.7492 123.213 29.7042C123.363 29.6592 123.513 29.6442 123.648 29.6442C123.783 29.6442 123.948 29.6592 124.083 29.7042C124.233 29.7492 124.368 29.8092 124.488 29.8992C124.608 29.9892 124.698 30.1092 124.773 30.2592C124.848 30.4092 124.878 30.5892 124.878 30.7992C124.878 31.0092 124.833 31.1892 124.773 31.3242C124.698 31.4742 124.608 31.5942 124.488 31.6842C124.368 31.7742 124.233 31.8342 124.083 31.8792C123.933 31.9092 123.798 31.9392 123.648 31.9392C123.498 31.9392 123.363 31.9242 123.213 31.8792C123.063 31.8492 122.928 31.7742 122.808 31.6842C122.688 31.5942 122.598 31.4742 122.523 31.3242C122.448 31.1742 122.418 30.9942 122.418 30.7992C122.418 30.6042 122.448 30.4092 122.523 30.2592ZM122.898 31.1592C122.928 31.2792 122.973 31.3842 123.033 31.4892C123.093 31.5792 123.168 31.6542 123.273 31.7142C123.378 31.7742 123.498 31.8042 123.648 31.8042C123.798 31.8042 123.918 31.7742 124.023 31.7142C124.128 31.6542 124.203 31.5792 124.263 31.4892C124.323 31.3992 124.368 31.2792 124.398 31.1592C124.428 31.0392 124.443 30.9192 124.443 30.7842C124.443 30.6492 124.443 30.5292 124.398 30.4092C124.368 30.2892 124.323 30.1842 124.263 30.0942C124.203 30.0042 124.128 29.9292 124.023 29.8692C123.918 29.8092 123.798 29.7792 123.648 29.7792C123.498 29.7792 123.378 29.8092 123.273 29.8692C123.168 29.9292 123.093 30.0042 123.033 30.0942C122.973 30.1842 122.928 30.2892 122.898 30.4092C122.868 30.5292 122.853 30.6492 122.853 30.7842C122.853 30.9192 122.853 31.0392 122.898 31.1592Z" fill="white"/>
<path d="M126.962 30.0492C126.857 29.9292 126.722 29.8692 126.557 29.8692C126.317 29.8692 126.152 29.9292 126.032 30.0642C125.927 30.1992 125.867 30.3792 125.867 30.6192V31.0092C125.867 31.1442 125.867 31.2941 125.867 31.4441C125.867 31.5941 125.867 31.7291 125.897 31.8491C125.822 31.8491 125.747 31.8491 125.672 31.8491C125.597 31.8491 125.522 31.8491 125.447 31.8491C125.447 31.7291 125.477 31.5941 125.477 31.4441C125.477 31.2941 125.477 31.1442 125.477 31.0092V30.5292C125.477 30.3942 125.477 30.2441 125.477 30.0941C125.477 29.9441 125.462 29.7942 125.447 29.6742C125.537 29.6742 125.612 29.6892 125.672 29.6892C125.702 29.6892 125.732 29.6892 125.762 29.6892C125.792 29.6892 125.837 29.6892 125.882 29.6742C125.882 29.7942 125.867 29.9142 125.867 30.0492C125.957 29.9142 126.077 29.8091 126.212 29.7341C126.347 29.6591 126.497 29.6292 126.692 29.6292C126.782 29.6292 126.872 29.6292 126.977 29.6592C127.067 29.6892 127.157 29.7342 127.232 29.7942C127.307 29.8542 127.382 29.9292 127.427 30.0342C127.472 30.1392 127.502 30.2742 127.502 30.4242C127.502 30.5592 127.502 30.6941 127.502 30.8291C127.502 30.9641 127.502 31.1142 127.502 31.2792V31.5791C127.502 31.5791 127.502 31.6691 127.502 31.7291C127.502 31.7741 127.502 31.8192 127.502 31.8642C127.427 31.8642 127.367 31.8642 127.292 31.8642C127.217 31.8642 127.142 31.8642 127.082 31.8642C127.082 31.6992 127.082 31.5342 127.097 31.3692C127.097 31.2042 127.097 31.0241 127.097 30.8441V30.5592C127.097 30.3342 127.052 30.1542 126.947 30.0342L126.962 30.0492Z" fill="white"/>
<path d="M128.328 31.5492C128.328 31.5492 128.403 31.6242 128.463 31.6542C128.508 31.6842 128.568 31.7142 128.628 31.7442C128.688 31.7592 128.763 31.7742 128.823 31.7742C128.883 31.7742 128.958 31.7742 129.003 31.7442C129.063 31.7292 129.123 31.6992 129.168 31.6692C129.213 31.6392 129.258 31.5942 129.273 31.5342C129.303 31.4892 129.318 31.4141 129.318 31.3541C129.318 31.2641 129.288 31.1892 129.228 31.1292C129.168 31.0842 129.093 31.0392 129.003 31.0092C128.913 30.9792 128.823 30.9492 128.718 30.9192C128.613 30.8892 128.523 30.8592 128.433 30.8142C128.343 30.7692 128.268 30.7092 128.208 30.6342C128.148 30.5592 128.118 30.4541 128.118 30.3341C128.118 30.2291 128.133 30.1392 128.178 30.0492C128.208 29.9592 128.268 29.8841 128.343 29.8241C128.418 29.7641 128.508 29.7192 128.598 29.6742C128.703 29.6442 128.823 29.6292 128.958 29.6292C129.078 29.6292 129.183 29.6442 129.273 29.6742C129.363 29.7042 129.438 29.7342 129.528 29.7642C129.498 29.8092 129.468 29.8692 129.453 29.9292C129.423 30.0042 129.408 30.0491 129.408 30.0941H129.348C129.348 30.0941 129.273 29.9592 129.198 29.8992C129.123 29.8392 129.018 29.8092 128.913 29.8092C128.868 29.8092 128.808 29.8091 128.763 29.8241C128.718 29.8391 128.673 29.8692 128.628 29.8992C128.583 29.9292 128.553 29.9742 128.523 30.0192C128.493 30.0642 128.478 30.1241 128.478 30.1991C128.478 30.3041 128.508 30.3792 128.568 30.4242C128.628 30.4842 128.703 30.5292 128.793 30.5592C128.883 30.5892 128.973 30.6192 129.078 30.6492C129.183 30.6642 129.288 30.7092 129.363 30.7392C129.453 30.7842 129.528 30.8442 129.588 30.9192C129.648 30.9942 129.678 31.0991 129.678 31.2191C129.678 31.3091 129.663 31.3992 129.618 31.4892C129.573 31.5792 129.513 31.6541 129.438 31.7141C129.363 31.7891 129.258 31.8342 129.153 31.8792C129.048 31.9242 128.913 31.9392 128.778 31.9392C128.613 31.9392 128.493 31.9392 128.388 31.8942C128.283 31.8642 128.193 31.8342 128.118 31.8042C128.133 31.7592 128.163 31.7142 128.178 31.6392C128.208 31.5642 128.208 31.5041 128.208 31.4591H128.268C128.268 31.4591 128.313 31.5192 128.343 31.5642L128.328 31.5492Z" fill="white"/>
<path d="M130.712 29.0592C130.712 29.1792 130.697 29.2992 130.697 29.4042C130.697 29.5242 130.697 29.6292 130.682 29.7492C130.712 29.7492 130.787 29.7492 130.892 29.7492C130.997 29.7492 131.102 29.7492 131.222 29.7492C131.222 29.7492 131.222 29.7792 131.222 29.7942V29.8842C131.222 29.8842 131.222 29.9142 131.222 29.9292C131.177 29.9292 131.132 29.9292 131.087 29.9292C131.042 29.9292 130.982 29.9292 130.937 29.9292H130.682C130.682 29.9292 130.682 29.9892 130.682 30.0792C130.682 30.1692 130.682 30.2742 130.682 30.3792C130.682 30.4992 130.682 30.6192 130.682 30.7542C130.682 30.8892 130.682 30.9942 130.682 31.0992C130.682 31.1892 130.682 31.2792 130.682 31.3542C130.682 31.4442 130.697 31.5042 130.727 31.5792C130.757 31.6392 130.802 31.6992 130.847 31.7442C130.907 31.7892 130.982 31.8042 131.072 31.8042C131.102 31.8042 131.132 31.8042 131.177 31.8042C131.222 31.8042 131.267 31.8042 131.297 31.7742V31.8792C131.297 31.8792 131.177 31.8942 131.102 31.9092C131.027 31.9092 130.967 31.9242 130.892 31.9242C130.682 31.9242 130.517 31.8792 130.427 31.7742C130.322 31.6842 130.277 31.5342 130.277 31.3542C130.277 31.2642 130.277 31.1742 130.277 31.0842C130.277 30.9942 130.277 30.8892 130.277 30.7692C130.277 30.6492 130.277 30.5292 130.277 30.3792C130.277 30.2442 130.277 30.0792 130.277 29.9142H130.112C130.112 29.9142 130.052 29.9142 130.022 29.9142C129.992 29.9142 129.962 29.9142 129.932 29.9142C129.932 29.8992 129.932 29.8842 129.932 29.8542C129.932 29.8392 129.932 29.8242 129.932 29.7942C129.932 29.7792 129.932 29.7642 129.932 29.7492C129.932 29.7342 129.932 29.7192 129.932 29.7042C130.082 29.7042 130.187 29.7042 130.262 29.7042C130.262 29.6442 130.262 29.5692 130.262 29.4792C130.262 29.3892 130.262 29.2992 130.262 29.1942L130.682 29.0292H130.697L130.712 29.0592Z" fill="white"/>
<path d="M132.723 30.0042C132.723 30.0042 132.618 29.9741 132.573 29.9741C132.498 29.9741 132.423 29.9892 132.348 30.0192C132.288 30.0492 132.228 30.0942 132.183 30.1542C132.138 30.2142 132.108 30.2741 132.078 30.3491C132.063 30.4241 132.048 30.5141 132.048 30.6041V31.1142C132.048 31.3242 132.048 31.4741 132.048 31.5941C132.048 31.6991 132.048 31.7892 132.063 31.8642C131.988 31.8642 131.928 31.8642 131.853 31.8642C131.778 31.8642 131.703 31.8642 131.643 31.8642C131.643 31.7592 131.658 31.6241 131.658 31.4441C131.658 31.2641 131.658 31.0392 131.658 30.7842V30.6342C131.658 30.5142 131.658 30.3791 131.658 30.2141C131.658 30.0641 131.658 29.8842 131.643 29.6742C131.688 29.6742 131.718 29.6742 131.748 29.6892C131.778 29.6892 131.823 29.6892 131.853 29.6892C131.883 29.6892 131.913 29.6892 131.943 29.6892C131.973 29.6892 132.018 29.6892 132.048 29.6742C132.033 29.7792 132.018 29.8691 132.018 29.9441C132.018 30.0041 132.018 30.0642 132.018 30.1242C132.213 29.7942 132.438 29.6292 132.693 29.6292C132.723 29.6292 132.753 29.6292 132.768 29.6292C132.798 29.6292 132.813 29.6292 132.858 29.6592C132.843 29.6892 132.828 29.7491 132.828 29.8241C132.828 29.8991 132.828 29.9742 132.828 30.0342H132.798C132.798 30.0342 132.753 30.0342 132.693 30.0042H132.723Z" fill="white"/>
<path d="M133.368 30.7691C133.368 30.6491 133.368 30.5441 133.368 30.4241C133.368 30.3041 133.368 30.1991 133.368 30.0791C133.368 29.9591 133.368 29.8241 133.368 29.6891C133.458 29.6891 133.518 29.7041 133.578 29.7041C133.638 29.7041 133.698 29.7041 133.788 29.6891C133.788 29.8691 133.758 30.0791 133.758 30.3041C133.758 30.5291 133.758 30.7541 133.758 30.9791C133.758 31.1441 133.758 31.2641 133.803 31.3391C133.833 31.4291 133.863 31.4891 133.908 31.5341C133.953 31.5791 134.013 31.6241 134.088 31.6541C134.163 31.6841 134.238 31.6991 134.343 31.6991C134.493 31.6991 134.598 31.6691 134.703 31.6091C134.793 31.5491 134.868 31.4741 134.913 31.3991C134.943 31.3391 134.958 31.2941 134.973 31.2641C134.973 31.2341 135.003 31.1741 135.003 31.1141C135.003 31.0541 135.003 30.9641 135.003 30.8591C135.003 30.7541 135.003 30.6191 135.003 30.4241V30.0341C135.003 30.0341 135.003 29.8991 135.003 29.8391C135.003 29.7791 135.003 29.7191 135.003 29.6591C135.033 29.6591 135.078 29.6591 135.108 29.6741C135.138 29.6741 135.183 29.6741 135.213 29.6741C135.243 29.6741 135.288 29.6741 135.318 29.6741C135.348 29.6741 135.378 29.6741 135.423 29.6591C135.408 29.8991 135.393 30.1241 135.393 30.3491C135.393 30.5741 135.393 30.8141 135.393 31.0541C135.393 31.1891 135.393 31.3241 135.393 31.4591C135.393 31.5941 135.393 31.7141 135.408 31.8491C135.333 31.8491 135.273 31.8491 135.213 31.8491C135.153 31.8491 135.078 31.8491 135.018 31.8491C135.018 31.8191 135.018 31.7891 135.018 31.7591C135.018 31.7291 135.018 31.6991 135.018 31.6541V31.4591C134.928 31.6091 134.808 31.7141 134.673 31.7891C134.538 31.8641 134.388 31.8941 134.223 31.8941C133.953 31.8941 133.758 31.8341 133.608 31.6991C133.458 31.5791 133.383 31.3841 133.383 31.1441C133.383 30.9791 133.383 30.8441 133.383 30.7241L133.368 30.7691Z" fill="white"/>
<path d="M136.113 30.2742C136.188 30.1242 136.278 30.0192 136.398 29.9142C136.518 29.8242 136.653 29.7491 136.818 29.7041C136.983 29.6591 137.133 29.6292 137.298 29.6292C137.478 29.6292 137.643 29.6442 137.793 29.6892C137.943 29.7342 138.048 29.7791 138.108 29.8241C138.093 29.8691 138.063 29.9141 138.048 29.9741C138.033 30.0191 138.018 30.0792 138.003 30.1392H137.958C137.958 30.1392 137.898 30.0492 137.853 30.0192C137.808 29.9742 137.763 29.9442 137.703 29.8992C137.643 29.8692 137.583 29.8392 137.523 29.8092C137.463 29.7792 137.388 29.7792 137.298 29.7792C137.148 29.7792 137.013 29.8091 136.908 29.8541C136.803 29.8991 136.713 29.9742 136.638 30.0642C136.563 30.1542 136.518 30.2592 136.488 30.3792C136.458 30.4992 136.443 30.6342 136.443 30.7692C136.443 31.0842 136.518 31.3242 136.668 31.4892C136.818 31.6542 137.028 31.7291 137.328 31.7291C137.388 31.7291 137.463 31.7291 137.538 31.6991C137.613 31.6841 137.688 31.6542 137.748 31.6242C137.808 31.5942 137.883 31.5642 137.943 31.5192C138.003 31.4742 138.048 31.4292 138.093 31.3842H138.123C138.108 31.4742 138.093 31.5492 138.093 31.6242C137.988 31.6992 137.868 31.7591 137.718 31.8191C137.568 31.8791 137.418 31.8942 137.253 31.8942C137.103 31.8942 136.968 31.8791 136.818 31.8341C136.668 31.8041 136.533 31.7292 136.428 31.6392C136.308 31.5492 136.203 31.4292 136.143 31.2792C136.068 31.1292 136.038 30.9642 136.038 30.7542C136.038 30.5442 136.068 30.3791 136.158 30.2291L136.113 30.2742Z" fill="white"/>
<path d="M139.172 29.0592C139.172 29.1792 139.157 29.2992 139.142 29.4042C139.142 29.5242 139.142 29.6292 139.127 29.7492C139.157 29.7492 139.232 29.7492 139.337 29.7492C139.442 29.7492 139.547 29.7492 139.667 29.7492C139.667 29.7492 139.667 29.7792 139.667 29.7942V29.8842C139.667 29.8842 139.667 29.9142 139.667 29.9292C139.622 29.9292 139.577 29.9292 139.532 29.9292C139.487 29.9292 139.427 29.9292 139.382 29.9292H139.127C139.127 29.9292 139.127 29.9892 139.127 30.0792C139.127 30.1692 139.127 30.2742 139.112 30.3792C139.112 30.4992 139.112 30.6192 139.112 30.7542C139.112 30.8892 139.112 30.9942 139.112 31.0992C139.112 31.1892 139.112 31.2792 139.112 31.3542C139.112 31.4442 139.127 31.5042 139.157 31.5792C139.187 31.6392 139.217 31.6992 139.277 31.7442C139.337 31.7892 139.412 31.8042 139.517 31.8042C139.547 31.8042 139.577 31.8042 139.622 31.8042C139.667 31.8042 139.712 31.8042 139.742 31.7742V31.8792C139.742 31.8792 139.622 31.8942 139.547 31.9092C139.472 31.9092 139.412 31.9242 139.352 31.9242C139.142 31.9242 138.977 31.8792 138.872 31.7742C138.767 31.6842 138.722 31.5342 138.722 31.3542C138.722 31.2642 138.722 31.1742 138.722 31.0842C138.722 30.9942 138.722 30.8892 138.722 30.7692C138.722 30.6492 138.722 30.5292 138.722 30.3792C138.722 30.2442 138.722 30.0792 138.722 29.9142H138.557C138.557 29.9142 138.497 29.9142 138.467 29.9142C138.437 29.9142 138.407 29.9142 138.362 29.9142C138.362 29.8992 138.362 29.8842 138.362 29.8542C138.362 29.8392 138.362 29.8242 138.362 29.7942C138.362 29.7792 138.362 29.7642 138.362 29.7492C138.362 29.7342 138.362 29.7192 138.362 29.7042C138.512 29.7042 138.632 29.7042 138.692 29.7042C138.692 29.6442 138.692 29.5692 138.692 29.4792C138.692 29.3892 138.692 29.2992 138.692 29.1942L139.112 29.0292H139.142L139.172 29.0592Z" fill="white"/>
<path d="M140.266 28.7142C140.266 28.7142 140.371 28.6392 140.446 28.6392C140.521 28.6392 140.581 28.6692 140.626 28.7142C140.671 28.7592 140.701 28.8192 140.701 28.8792C140.701 28.9392 140.671 28.9992 140.626 29.0442C140.566 29.0892 140.521 29.1192 140.446 29.1192C140.371 29.1192 140.311 29.1042 140.266 29.0442C140.221 28.9992 140.191 28.9392 140.191 28.8792C140.191 28.8192 140.221 28.7592 140.266 28.7142ZM140.266 30.1092C140.266 29.9592 140.251 29.8092 140.236 29.6892C140.326 29.6892 140.401 29.7042 140.461 29.7042C140.521 29.7042 140.596 29.7042 140.686 29.6892C140.671 29.8242 140.656 29.9592 140.656 30.1092C140.656 30.2592 140.656 30.4092 140.656 30.5442V31.0242C140.656 31.1592 140.656 31.3092 140.656 31.4592C140.656 31.6092 140.671 31.7442 140.686 31.8642C140.611 31.8642 140.536 31.8642 140.461 31.8642C140.386 31.8642 140.311 31.8642 140.236 31.8642C140.251 31.7442 140.266 31.6092 140.266 31.4592C140.266 31.3092 140.266 31.1592 140.266 31.0242V30.5442C140.266 30.4092 140.266 30.2592 140.266 30.1092Z" fill="white"/>
<path d="M141.438 30.2592C141.513 30.1092 141.603 29.9892 141.723 29.8992C141.843 29.8092 141.978 29.7492 142.128 29.7042C142.278 29.6592 142.428 29.6442 142.563 29.6442C142.698 29.6442 142.863 29.6592 142.998 29.7042C143.148 29.7492 143.268 29.8092 143.388 29.8992C143.508 29.9892 143.598 30.1092 143.673 30.2592C143.748 30.4092 143.778 30.5892 143.778 30.7992C143.778 31.0092 143.748 31.1892 143.673 31.3242C143.598 31.4742 143.508 31.5942 143.388 31.6842C143.268 31.7742 143.133 31.8342 142.998 31.8792C142.848 31.9092 142.713 31.9392 142.563 31.9392C142.413 31.9392 142.263 31.9242 142.128 31.8792C141.978 31.8492 141.843 31.7742 141.723 31.6842C141.603 31.5942 141.513 31.4742 141.438 31.3242C141.363 31.1742 141.333 30.9942 141.333 30.7992C141.333 30.6042 141.363 30.4092 141.438 30.2592ZM141.813 31.1592C141.843 31.2792 141.888 31.3842 141.948 31.4892C142.008 31.5792 142.083 31.6542 142.188 31.7142C142.293 31.7742 142.413 31.8042 142.563 31.8042C142.713 31.8042 142.833 31.7742 142.938 31.7142C143.043 31.6542 143.118 31.5792 143.178 31.4892C143.238 31.3992 143.283 31.2792 143.313 31.1592C143.343 31.0392 143.358 30.9192 143.358 30.7842C143.358 30.6492 143.358 30.5292 143.313 30.4092C143.283 30.2892 143.238 30.1842 143.178 30.0942C143.118 30.0042 143.043 29.9292 142.938 29.8692C142.833 29.8092 142.713 29.7792 142.563 29.7792C142.413 29.7792 142.293 29.8092 142.188 29.8692C142.083 29.9292 142.008 30.0042 141.948 30.0942C141.888 30.1842 141.843 30.2892 141.813 30.4092C141.798 30.5292 141.783 30.6492 141.783 30.7842C141.783 30.9192 141.783 31.0392 141.813 31.1592Z" fill="white"/>
<path d="M145.863 30.0492C145.773 29.9292 145.623 29.8692 145.458 29.8692C145.218 29.8692 145.053 29.9292 144.933 30.0642C144.828 30.1992 144.768 30.3792 144.768 30.6192V31.0092C144.768 31.1442 144.768 31.2941 144.768 31.4441C144.768 31.5941 144.783 31.7291 144.798 31.8491C144.723 31.8491 144.648 31.8491 144.573 31.8491C144.498 31.8491 144.423 31.8491 144.348 31.8491C144.363 31.7291 144.378 31.5941 144.378 31.4441C144.378 31.2941 144.378 31.1442 144.378 31.0092V30.5292C144.378 30.3942 144.378 30.2441 144.378 30.0941C144.378 29.9441 144.363 29.7942 144.348 29.6742C144.438 29.6742 144.528 29.6892 144.573 29.6892C144.603 29.6892 144.633 29.6892 144.663 29.6892C144.693 29.6892 144.738 29.6892 144.783 29.6742C144.783 29.7942 144.768 29.9142 144.768 30.0492C144.858 29.9142 144.978 29.8091 145.113 29.7341C145.248 29.6591 145.398 29.6292 145.593 29.6292C145.683 29.6292 145.788 29.6292 145.878 29.6592C145.968 29.6892 146.058 29.7342 146.148 29.7942C146.223 29.8542 146.283 29.9292 146.343 30.0342C146.388 30.1392 146.418 30.2742 146.418 30.4242C146.418 30.5592 146.418 30.6941 146.418 30.8291C146.418 30.9641 146.418 31.1142 146.418 31.2792V31.5791C146.418 31.5791 146.418 31.6691 146.418 31.7291C146.418 31.7741 146.418 31.8192 146.418 31.8642C146.358 31.8642 146.283 31.8642 146.208 31.8642C146.133 31.8642 146.058 31.8642 145.998 31.8642C145.998 31.6992 146.013 31.5342 146.028 31.3692C146.028 31.2042 146.028 31.0241 146.028 30.8441V30.5592C146.028 30.3342 145.983 30.1542 145.878 30.0342L145.863 30.0492Z" fill="white"/>
<path d="M151.188 31.7742C151.188 31.7742 151.053 31.8342 150.948 31.8492C150.858 31.8792 150.753 31.8942 150.633 31.9092C150.513 31.9242 150.393 31.9392 150.273 31.9392C150.003 31.9392 149.748 31.9092 149.523 31.8342C149.298 31.7592 149.103 31.6542 148.938 31.5192C148.773 31.3842 148.638 31.2042 148.548 30.9942C148.458 30.7842 148.413 30.5592 148.413 30.2892C148.413 30.0192 148.458 29.7942 148.548 29.5842C148.638 29.3742 148.773 29.2092 148.938 29.0592C149.103 28.9242 149.313 28.8042 149.538 28.7292C149.778 28.6542 150.033 28.6242 150.303 28.6242C150.528 28.6242 150.723 28.6392 150.918 28.6842C151.098 28.7292 151.263 28.7742 151.413 28.8342C151.383 28.8792 151.368 28.9392 151.353 29.0142C151.338 29.0892 151.323 29.1492 151.308 29.1942H151.278C151.278 29.1942 151.203 29.1192 151.143 29.0742C151.083 29.0292 151.008 28.9842 150.933 28.9392C150.858 28.8942 150.753 28.8642 150.663 28.8342C150.558 28.8042 150.453 28.7892 150.333 28.7892C150.138 28.7892 149.943 28.8192 149.778 28.8792C149.613 28.9392 149.463 29.0292 149.328 29.1492C149.208 29.2692 149.103 29.4192 149.028 29.6142C148.968 29.7942 148.923 30.0192 148.923 30.2742C148.923 30.5292 148.968 30.7542 149.028 30.9342C149.103 31.1142 149.193 31.2792 149.328 31.3992C149.463 31.5192 149.598 31.6092 149.778 31.6692C149.943 31.7292 150.138 31.7592 150.333 31.7592C150.453 31.7592 150.573 31.7592 150.678 31.7142C150.783 31.6842 150.873 31.6542 150.963 31.6092C151.053 31.5792 151.128 31.5342 151.203 31.4892C151.278 31.4442 151.338 31.3992 151.383 31.3692H151.398L151.353 31.6542C151.323 31.6842 151.278 31.7142 151.203 31.7442L151.188 31.7742Z" fill="white"/>
<path d="M151.893 30.2592C151.968 30.1092 152.058 29.9892 152.178 29.8992C152.298 29.8092 152.433 29.7492 152.568 29.7042C152.718 29.6592 152.868 29.6442 153.003 29.6442C153.138 29.6442 153.303 29.6592 153.453 29.7042C153.603 29.7492 153.738 29.8092 153.843 29.8992C153.963 29.9892 154.053 30.1092 154.128 30.2592C154.203 30.4092 154.233 30.5892 154.233 30.7992C154.233 31.0092 154.203 31.1892 154.128 31.3242C154.053 31.4742 153.963 31.5942 153.843 31.6842C153.723 31.7742 153.588 31.8342 153.453 31.8792C153.303 31.9092 153.153 31.9392 153.003 31.9392C152.853 31.9392 152.718 31.9242 152.568 31.8792C152.418 31.8492 152.283 31.7742 152.178 31.6842C152.058 31.5942 151.968 31.4742 151.893 31.3242C151.818 31.1742 151.788 30.9942 151.788 30.7992C151.788 30.6042 151.818 30.4092 151.893 30.2592ZM152.268 31.1592C152.298 31.2792 152.343 31.3842 152.403 31.4892C152.463 31.5792 152.538 31.6542 152.643 31.7142C152.748 31.7742 152.868 31.8042 153.018 31.8042C153.168 31.8042 153.288 31.7742 153.393 31.7142C153.498 31.6542 153.573 31.5792 153.633 31.4892C153.693 31.3992 153.738 31.2792 153.768 31.1592C153.798 31.0392 153.798 30.9192 153.798 30.7842C153.798 30.6492 153.798 30.5292 153.768 30.4092C153.738 30.2892 153.693 30.1842 153.633 30.0942C153.573 30.0042 153.498 29.9292 153.393 29.8692C153.288 29.8092 153.168 29.7792 153.018 29.7792C152.868 29.7792 152.748 29.8092 152.643 29.8692C152.538 29.9292 152.463 30.0042 152.403 30.0942C152.343 30.1842 152.298 30.2892 152.268 30.4092C152.238 30.5292 152.223 30.6492 152.223 30.7842C152.223 30.9192 152.223 31.0392 152.268 31.1592Z" fill="white"/>
<path d="M154.923 31.4742C154.923 31.4742 155.043 31.3992 155.118 31.3992C155.193 31.3992 155.268 31.4292 155.328 31.4742C155.388 31.5342 155.418 31.5942 155.418 31.6542C155.418 31.7142 155.388 31.7892 155.328 31.8342C155.268 31.8792 155.208 31.9092 155.118 31.9092C155.043 31.9092 154.983 31.8792 154.923 31.8342C154.863 31.7892 154.833 31.7292 154.833 31.6542C154.833 31.5792 154.863 31.5192 154.923 31.4742Z" fill="white"/>
<path d="M156.452 31.3992C156.452 31.3992 156.542 31.3392 156.602 31.3392C156.647 31.3392 156.677 31.3392 156.722 31.3692C156.767 31.3992 156.782 31.4292 156.782 31.4892C156.782 31.5192 156.782 31.5642 156.752 31.5942C156.737 31.6242 156.722 31.6542 156.707 31.6842L156.077 32.6442L155.987 32.6142L156.377 31.5042C156.377 31.5042 156.407 31.4292 156.452 31.3842V31.3992Z" fill="white"/>
<path d="M157.743 29.2992C157.743 29.1042 157.728 28.9092 157.713 28.6992C157.758 28.6992 157.803 28.6992 157.848 28.7142C157.893 28.7142 157.923 28.7142 157.968 28.7142C158.013 28.7142 158.043 28.7142 158.088 28.7142C158.133 28.7142 158.178 28.7142 158.223 28.6992C158.223 28.8942 158.208 29.1042 158.193 29.2992C158.193 29.4942 158.193 29.6892 158.193 29.8992C158.193 30.2892 158.193 30.6192 158.193 30.9042C158.193 31.1892 158.193 31.4442 158.193 31.6692C158.433 31.6692 158.658 31.6692 158.883 31.6692C159.108 31.6692 159.348 31.6392 159.588 31.6092C159.573 31.6692 159.558 31.7142 159.558 31.7442C159.558 31.7742 159.558 31.8192 159.588 31.8642C159.438 31.8642 159.273 31.8642 159.123 31.8642H158.178C158.028 31.8642 157.878 31.8642 157.713 31.8642C157.713 31.6692 157.728 31.4742 157.743 31.2792C157.743 31.0842 157.743 30.8742 157.743 30.6792V29.8842C157.743 29.6892 157.743 29.4792 157.743 29.2842V29.2992Z" fill="white"/>
<path d="M160.637 29.0592C160.637 29.1792 160.637 29.2992 160.622 29.4042C160.622 29.5242 160.622 29.6292 160.607 29.7492C160.637 29.7492 160.712 29.7492 160.817 29.7492C160.922 29.7492 161.027 29.7492 161.147 29.7492C161.147 29.7492 161.147 29.7792 161.147 29.7942V29.8842C161.147 29.8842 161.147 29.9142 161.147 29.9292C161.102 29.9292 161.057 29.9292 161.012 29.9292C160.967 29.9292 160.907 29.9292 160.862 29.9292H160.607C160.607 29.9292 160.607 29.9892 160.607 30.0792C160.607 30.1692 160.607 30.2742 160.607 30.3792C160.607 30.4992 160.607 30.6192 160.607 30.7542C160.607 30.8892 160.607 30.9942 160.607 31.0992C160.607 31.1892 160.607 31.2792 160.607 31.3542C160.607 31.4442 160.622 31.5042 160.652 31.5792C160.682 31.6392 160.712 31.6992 160.772 31.7442C160.832 31.7892 160.907 31.8042 161.012 31.8042C161.042 31.8042 161.072 31.8042 161.117 31.8042C161.162 31.8042 161.207 31.8042 161.237 31.7742V31.8792C161.237 31.8792 161.117 31.8942 161.057 31.9092C160.982 31.9092 160.922 31.9242 160.847 31.9242C160.637 31.9242 160.472 31.8792 160.382 31.7742C160.277 31.6842 160.232 31.5342 160.232 31.3542C160.232 31.2642 160.232 31.1742 160.232 31.0842C160.232 30.9942 160.232 30.8892 160.247 30.7692C160.247 30.6492 160.247 30.5292 160.247 30.3792C160.247 30.2442 160.247 30.0792 160.247 29.9142H160.082C160.082 29.9142 160.022 29.9142 159.992 29.9142C159.962 29.9142 159.932 29.9142 159.902 29.9142C159.902 29.8992 159.902 29.8842 159.902 29.8542C159.902 29.8392 159.902 29.8242 159.902 29.7942C159.902 29.7792 159.902 29.7642 159.902 29.7492C159.902 29.7342 159.902 29.7192 159.902 29.7042C160.052 29.7042 160.172 29.7042 160.232 29.7042C160.232 29.6442 160.232 29.5692 160.232 29.4792C160.232 29.3892 160.232 29.2992 160.217 29.1942L160.637 29.0292H160.667L160.637 29.0592Z" fill="white"/>
<path d="M163.308 31.4442C163.308 31.4442 163.248 31.5492 163.203 31.6092C163.158 31.6692 163.098 31.7142 163.023 31.7742C162.963 31.8192 162.873 31.8642 162.783 31.8942C162.693 31.9242 162.573 31.9392 162.453 31.9392C162.333 31.9392 162.198 31.9242 162.078 31.8792C161.958 31.8342 161.853 31.7742 161.748 31.6842C161.643 31.5942 161.568 31.4742 161.508 31.3242C161.448 31.1892 161.418 31.0092 161.418 30.8142C161.418 30.6192 161.448 30.4542 161.523 30.3042C161.583 30.1692 161.673 30.0342 161.778 29.9442C161.883 29.8392 162.003 29.7792 162.123 29.7342C162.258 29.6892 162.393 29.6592 162.513 29.6592C162.888 29.6592 163.143 29.8092 163.293 30.1242V29.3142C163.293 29.1942 163.293 29.0742 163.293 28.9692C163.293 28.8642 163.293 28.7592 163.293 28.6692C163.293 28.5792 163.293 28.4892 163.293 28.4142C163.338 28.4142 163.368 28.4142 163.413 28.4292C163.443 28.4292 163.488 28.4292 163.518 28.4292C163.563 28.4292 163.593 28.4292 163.623 28.4292C163.653 28.4292 163.698 28.4292 163.743 28.4142C163.743 28.5192 163.728 28.6542 163.713 28.8492C163.713 29.0292 163.713 29.2392 163.698 29.4642C163.698 29.6892 163.698 29.9142 163.698 30.1542C163.698 30.3942 163.698 30.6042 163.698 30.7992C163.698 31.0092 163.698 31.2042 163.698 31.3692C163.698 31.5342 163.698 31.7142 163.698 31.8942C163.638 31.8942 163.563 31.8942 163.503 31.8942C163.443 31.8942 163.383 31.8942 163.308 31.8942V31.4592V31.4442ZM161.928 31.2942C161.973 31.4142 162.018 31.5192 162.093 31.5792C162.153 31.6542 162.228 31.6992 162.318 31.7292C162.408 31.7592 162.483 31.7742 162.573 31.7742C162.708 31.7742 162.813 31.7442 162.918 31.6842C163.008 31.6242 163.098 31.5492 163.158 31.4442C163.218 31.3542 163.263 31.2342 163.293 31.1142C163.323 30.9942 163.338 30.8742 163.338 30.7392C163.338 30.4392 163.278 30.2142 163.158 30.0642C163.038 29.9142 162.843 29.8242 162.603 29.8242C162.483 29.8242 162.378 29.8542 162.288 29.8992C162.198 29.9442 162.123 30.0192 162.063 30.1092C162.003 30.1992 161.958 30.3042 161.928 30.4242C161.898 30.5442 161.883 30.6792 161.883 30.8142C161.883 30.9942 161.898 31.1592 161.943 31.2792L161.928 31.2942Z" fill="white"/>
<path d="M66.1837 25.2642L64.5938 25.2192L64.7137 25.9542L65.1638 26.0592C67.3388 26.7042 68.1937 27.8142 69.8287 29.6892L70.6537 30.7692L70.8637 31.1142C71.3437 31.4142 71.5987 31.2642 71.7487 31.0842C72.1237 30.6792 72.0638 29.6892 71.6288 28.0842C71.4488 27.3942 70.1737 25.5942 66.1837 25.2792V25.2642Z" fill="white"/>
<path d="M67.7434 17.7792L66.6784 19.0992H59.9734L56.8084 17.7942V24.7842H57.0634C57.3634 24.7842 57.5584 24.7842 57.7234 24.7842C57.0784 26.7042 55.2934 29.0892 53.6134 30.4092L53.4334 30.5442L53.8984 31.3242L54.0934 31.2492C56.3584 30.3792 58.8784 28.5642 60.3484 26.4792C60.4534 26.4792 60.5584 26.4792 60.6334 26.4792C61.0384 26.4792 61.2934 26.3442 61.4884 26.0442L61.6234 25.8192L59.1184 24.4392C59.7184 24.1842 59.9284 23.9142 59.9884 23.6442H61.9834V29.5992C61.9834 29.6892 61.9834 29.7192 61.9834 29.7342C61.9834 29.7342 61.9384 29.7342 61.9084 29.7342H59.0434V30.5592L59.2684 30.5892C60.9334 30.7542 61.1584 31.1892 61.1584 32.7942V33.0642H61.4284C64.4284 32.8242 64.7885 31.5792 64.7885 29.6292V23.6142H66.7834V24.5592H67.0385C68.1035 24.5592 68.8234 24.3642 69.2284 24.1992C69.4684 24.1092 70.0234 23.8542 70.0234 23.5842V20.6592C70.4584 20.5242 70.7584 20.3142 70.9084 20.1492L71.0884 19.9392L67.7434 17.7792ZM70.8784 17.6742C71.5234 17.6742 72.0784 17.6292 72.3784 17.0892L72.4984 16.8942L69.3934 14.7042C69.7984 14.5092 69.9934 14.2992 69.9934 14.1492V9.07921C70.4434 8.94421 70.4884 8.92921 70.6984 8.67421L70.8784 7.95421L69.3784 6.84421L68.0884 7.36921H59.9884L56.7934 6.06421V15.3192H57.0484C59.5384 15.3192 59.8084 14.2992 59.8084 14.1042V13.9542H61.9834V16.6392H55.5334C55.5334 16.6392 55.8484 16.3092 55.8784 16.2642L55.9834 16.0842L53.4934 13.8492L52.2484 15.0342V10.8042H54.5734C55.2784 10.8042 55.7734 10.7142 56.0734 10.2342L56.1934 10.0392L53.1334 7.71421L50.1934 9.76921H46.2634L46.5184 10.8042H49.5484V15.7992H46.8934L47.2084 16.8342H49.5484V23.1942C48.2434 23.3892 46.0834 23.7642 45.6034 23.8242L45.2734 23.8542L47.2084 27.7242L47.4034 27.6942C47.7484 27.6342 48.0784 27.3492 48.2434 26.9592C51.7834 25.1742 55.8334 23.4792 57.0784 22.6992L57.2284 22.6092L57.0934 21.9042L52.2334 22.6842V16.8342H54.3934C54.5134 16.8342 54.6184 16.8342 54.7234 16.8342L54.8734 17.6592H70.8634L70.8784 17.6742ZM66.9784 11.0442V12.9342H59.8234V11.0442H66.9784ZM59.8234 10.7742V8.41921H65.7484M67.8484 16.6542H64.7885V15.9642C65.2235 15.8892 65.5084 15.7542 65.5984 15.4842L65.6734 15.2442L62.6734 13.9842H66.9934V15.1692H67.2484C68.3134 15.1692 68.8684 14.9742 69.3784 14.7342L67.8634 16.6692L67.8484 16.6542ZM60.0634 22.5792V20.0892H66.8134V22.5792H60.0634Z" fill="white"/>
<path d="M74.583 23.1642V36.1392H75.258C76.473 36.1392 77.298 35.5392 77.298 35.0592V33.8292H82.368V35.2392H82.608C83.628 35.2392 84.303 35.0442 84.693 34.8792C84.918 34.7892 85.188 34.5342 85.188 34.2492V25.7142C85.623 25.5792 85.968 25.3692 86.148 25.0992L86.298 24.8892L83.358 22.3842L82.233 23.9742H75.813L74.583 23.1792V23.1642ZM82.368 32.7342H77.298V29.4342H82.368V32.7342ZM77.058 25.0542H82.368V29.0892" fill="white"/>
<path d="M80.2984 20.0742V15.9492H84.6784L84.0634 15.0642L82.9084 13.6092L80.8684 14.9592H80.2984V12.2742C80.9434 12.1692 81.3484 11.9742 81.4234 11.4342L81.4534 11.1792L77.4934 10.8042V14.9592H73.4884L73.7885 15.9642H77.4934V19.9992H71.5234L71.7784 20.9742H86.7784C87.1384 20.9742 87.3934 20.9442 87.6334 20.8692V36.0342H88.3384C89.7484 36.0342 90.4834 35.3292 90.4834 34.9392V14.1042H94.0385V14.1492C93.5435 16.2342 92.8084 19.3992 92.3434 21.0192L92.2984 21.1692L92.4034 21.2742C94.1584 22.9392 95.0584 24.8742 95.0584 27.0042C95.0584 27.8592 94.8784 28.3992 94.5184 28.6242C94.3834 28.6992 94.2784 28.7142 94.0234 28.7142H91.5934V29.5392L91.7885 29.5692C92.8535 29.7642 93.4084 29.9292 93.4084 31.6392V31.9092L93.6784 31.8792C95.2834 31.7292 96.4384 31.2492 97.1884 30.4092C97.8634 29.6442 98.1934 28.5792 98.1934 27.1842C98.1934 24.8442 96.6484 22.7892 93.4534 20.9142C94.6234 19.2792 96.2584 16.6542 97.1734 15.0342C97.7284 15.0342 98.1484 14.9292 98.3884 14.5992L98.5084 14.4342L95.6284 11.4342L92.4034 13.1142H90.8884L87.6484 11.8392V20.2392L86.6734 18.6792L84.5884 20.0592H80.2984V20.0742Z" fill="white"/>
<path d="M88.3375 13.7892C87.7075 13.7292 90.2876 14.1942 91.0826 13.0842L86.8375 10.8042C86.8375 10.8042 84.3776 16.3692 78.9176 21.5292C74.5676 25.6242 69.7525 27.3942 68.8525 27.8292C68.8525 27.8292 74.3276 26.8692 79.4726 23.6592C84.4076 20.5842 88.3225 13.7892 88.3225 13.7892H88.3375Z" fill="white"/>
<path d="M12.1079 39.9642L13.0229 38.3292C12.6929 38.3292 12.3629 38.2992 12.0479 38.2842L11.0879 39.9942C11.4329 39.9942 11.7629 39.9942 12.1079 39.9642Z" fill="white"/>
<path d="M10.0235 40.4742L9.06348 42.1992C9.19848 42.1992 9.33351 42.1992 9.46851 42.1992L10.4284 40.4742C10.2934 40.4742 10.1585 40.4742 10.0235 40.4742Z" fill="white"/>
<path d="M10.6973 39.9942L11.6573 38.2692C11.5373 38.2692 11.4023 38.2692 11.2823 38.2692C11.2823 38.2692 11.2674 38.2692 11.2524 38.2692L10.2773 40.0092C10.4123 40.0092 10.5474 40.0092 10.6824 40.0092L10.6973 39.9942Z" fill="white"/>
<path d="M17.4776 39.1692L18.3176 37.6692C17.3726 37.8942 16.4426 38.0592 15.5126 38.1642L14.6426 39.7242C15.5876 39.5892 16.5326 39.3942 17.4626 39.1692H17.4776Z" fill="white"/>
<path d="M14.2231 39.7692L15.0931 38.2092C14.5231 38.2692 13.9681 38.2992 13.4131 38.2992L12.498 39.9342C13.068 39.9042 13.6531 39.8442 14.2231 39.7692Z" fill="white"/>
<path d="M30.3931 3.97917C31.6531 4.11417 32.8981 4.42917 34.0981 4.86417C35.2981 5.28417 36.4381 5.89917 37.4281 6.69417C38.4181 7.48917 39.2581 8.47917 39.8731 9.60417C40.4881 10.7142 40.8931 11.9592 41.0731 13.2192C41.4481 15.7542 40.9981 18.3492 40.1281 20.7342C39.6931 21.9342 39.1531 23.0892 38.5381 24.1992C37.9231 25.3092 37.2331 26.3892 36.4381 27.3942C34.8631 29.4042 33.0181 31.1892 31.0231 32.7642C29.0281 34.3542 26.8681 35.7342 24.6031 36.8892C22.3831 38.0142 20.0581 38.9292 17.6431 39.5442L16.5781 41.4492C25.3981 39.3192 34.3981 32.9142 38.8981 24.8292C44.7031 14.4192 40.8931 5.16417 30.3931 3.96417V3.97917Z" fill="white"/>
<path d="M14.3729 40.2192L13.3379 42.0642C14.2679 41.9592 15.198 41.7792 16.128 41.5692L17.1779 39.6792C16.2479 39.9042 15.3029 40.0842 14.3579 40.2192H14.3729Z" fill="white"/>
<path d="M10.8184 40.4742L9.8584 42.1992C10.1884 42.1992 10.5184 42.2292 10.8484 42.2142L11.8384 40.4442C11.4934 40.4442 11.1634 40.4742 10.8184 40.4742Z" fill="white"/>
<path d="M33.6478 4.78917C40.7728 7.09917 42.9478 14.5392 38.3278 22.8042C34.3678 29.8992 26.5228 35.5842 18.7528 37.5642L17.9277 39.0492C20.1777 38.4492 22.3528 37.6092 24.4378 36.5742C26.6878 35.4492 28.8478 34.0842 30.8428 32.5242C32.8378 30.9642 34.6828 29.2242 36.2578 27.2442C37.0528 26.2542 37.7427 25.1892 38.3577 24.0942C38.9727 22.9992 39.5277 21.8442 39.9627 20.6592C40.8477 18.2892 41.2978 15.7392 40.9528 13.2192C40.7728 11.9742 40.3978 10.7442 39.7978 9.63417C39.1978 8.52417 38.3728 7.53417 37.3828 6.73917C36.4078 5.92917 35.2828 5.31417 34.0828 4.87917C32.8828 4.44417 31.6527 4.11417 30.3927 3.96417C31.5927 4.11417 32.6578 4.39917 33.6478 4.77417V4.78917Z" fill="white"/>
<path d="M12.2433 40.4292L11.2383 42.2292C11.7933 42.2142 12.3633 42.1692 12.9333 42.1092L13.9533 40.2792C13.3833 40.3542 12.8133 40.3992 12.2433 40.4442V40.4292Z" fill="white"/>
<path d="M27.2438 2.04419L28.2939 0.169189C27.3639 0.274189 26.4339 0.454189 25.5039 0.664189L24.4238 2.59919C25.3538 2.37419 26.2988 2.19419 27.2438 2.05919V2.04419Z" fill="white"/>
<path d="M29.374 1.83421L30.394 0.00421143C29.839 0.0192114 29.269 0.0642114 28.699 0.124211L27.6641 1.98421C28.2341 1.90921 28.804 1.86421 29.374 1.81921V1.83421Z" fill="white"/>
<path d="M7.54808 37.3992C6.34808 36.9792 5.20812 36.3642 4.21812 35.5692C3.22812 34.7742 2.38812 33.7842 1.77312 32.6592C1.15812 31.5492 0.753042 30.3042 0.573042 29.0442C0.198042 26.5092 0.64805 23.9142 1.51805 21.5292C1.95305 20.3292 2.49305 19.1742 3.10805 18.0642C3.72305 16.9542 4.41308 15.8742 5.20808 14.8692C6.78308 12.8592 8.62806 11.0742 10.6231 9.49918C12.6181 7.90918 14.7781 6.52918 17.0431 5.37418C19.2481 4.24918 21.5731 3.34918 23.9581 2.71918L25.0381 0.78418C16.2181 2.91418 7.21812 9.31918 2.71812 17.4042C-2.68188 27.0792 0.228046 35.7492 9.10805 37.8942C8.58305 37.7592 8.05808 37.5942 7.54808 37.4142V37.3992Z" fill="white"/>
<path d="M30.7973 1.7742L31.7874 0.0192C31.4574 0.0192 31.1273 -0.0108 30.7823 0.0042L29.7773 1.8042C30.1223 1.8042 30.4523 1.7742 30.7973 1.7742Z" fill="white"/>
<path d="M31.5935 1.78919L32.5685 0.0491943C32.4335 0.0491943 32.2985 0.0491943 32.1635 0.0491943L31.1885 1.80419C31.3235 1.80419 31.4585 1.80419 31.5935 1.80419V1.78919Z" fill="white"/>
<path d="M29.5085 2.29917L28.6084 3.90416C28.9384 3.90416 29.2684 3.93417 29.5834 3.94917L30.5134 2.26917C30.1684 2.26917 29.8384 2.26917 29.4934 2.29917H29.5085Z" fill="white"/>
<path d="M30.9186 2.26917L29.9736 3.96417C30.0936 3.96417 30.2136 3.96417 30.3486 3.97917C30.3486 3.97917 30.3637 3.97917 30.3787 3.97917L31.3386 2.26917C31.2036 2.26917 31.0687 2.26917 30.9337 2.26917H30.9186Z" fill="white"/>
<path d="M17.2234 5.68919C14.9584 6.81419 12.8133 8.17919 10.8183 9.72419C8.82333 11.2842 6.97835 13.0242 5.40335 15.0042C4.62335 15.9942 3.93332 17.0592 3.30332 18.1542C2.68832 19.2492 2.13331 20.4042 1.69831 21.5892C0.813307 23.9442 0.348347 26.5092 0.708347 29.0292C0.888347 30.2742 1.26339 31.5042 1.87839 32.6142C2.47839 33.7242 3.30335 34.7142 4.27835 35.5092C5.25335 36.3192 6.37837 36.9342 7.57837 37.3542C8.29837 37.6242 9.04834 37.8342 9.79834 38.0142C10.2783 38.1042 10.7434 38.1942 11.2534 38.2542C10.0534 38.1042 8.97333 37.8192 7.99833 37.4442C0.873325 35.1342 -1.30167 27.6942 3.31833 19.4292C7.27833 12.3342 15.1233 6.66419 22.8933 4.66919L23.7034 3.22919C21.4684 3.82919 19.2934 4.66919 17.2384 5.68919H17.2234Z" fill="white"/>
<path d="M27.394 2.49416L26.5391 4.02416C27.1091 3.96416 27.6641 3.93416 28.2191 3.93416L29.119 2.32916C28.549 2.37416 27.964 2.41916 27.394 2.49416Z" fill="white"/>
<path d="M24.1385 3.10917L23.3135 4.57917C24.2435 4.35417 25.1885 4.18917 26.1035 4.08417L26.9585 2.55417C26.0135 2.68917 25.0684 2.88417 24.1234 3.12417L24.1385 3.10917Z" fill="white"/>
<path d="M18.8442 20.2542C18.8442 20.2542 18.7991 20.1492 18.7691 20.1192C17.2691 17.9742 13.1742 18.9942 9.6642 22.3992C6.1392 25.7892 4.50413 30.2892 6.03413 32.4342C6.34913 32.8992 6.78412 33.2142 7.33912 33.3792L15.8142 23.6142L18.8591 20.2542H18.8442Z" fill="white"/>
<path d="M23.8385 20.4642C24.1985 20.2542 24.5435 20.0742 24.9035 19.9242C25.8485 19.3692 26.7935 18.6642 27.7085 17.7642C31.1735 14.4042 32.8085 9.97916 31.3385 7.87916C29.8535 5.77916 25.8335 6.79916 22.3535 10.1742C18.8735 13.5492 17.2536 17.9592 18.7386 20.0742C18.7836 20.1192 18.8285 20.1792 18.8735 20.2392L24.8735 13.6242L23.8535 20.4642H23.8385Z" fill="white"/>
<path d="M24.9024 19.9242C24.5424 20.1192 24.1824 20.3142 23.8374 20.4642L23.3425 23.7642L21.6475 33.3492C23.1625 32.8542 24.8274 31.8192 26.4024 30.3792C30.0324 26.9892 31.8174 22.4892 30.3474 20.3142C29.3724 18.8892 27.2574 18.8292 24.8874 19.9092L24.9024 19.9242Z" fill="white"/>
<path d="M18.3779 25.7142C19.0829 24.6042 20.0129 23.4942 21.0779 22.5042C21.9779 21.6792 22.8929 21.0042 23.7929 20.4792C21.7079 21.4092 19.8478 21.3792 18.8578 20.2242V20.2542C19.6528 21.5442 19.3979 23.5842 18.3779 25.7292V25.7142Z" fill="white"/>
<path d="M11.568 30.0492H11.208L9.93305 32.4342L9.79801 32.6742C9.73801 32.7792 9.69305 32.8542 9.64805 32.9142C9.58805 32.9892 9.51304 33.0492 9.45304 33.0942C9.39304 33.1242 9.33307 33.1542 9.28807 33.1542C9.25807 33.1542 9.25802 33.1542 9.24302 33.1542C9.24302 33.1542 9.24302 33.1242 9.24302 33.0642C9.24302 32.9892 9.27303 32.8392 9.43803 32.5542L9.498 32.4492L9.09306 32.5542C8.89806 32.9592 8.79305 33.2292 8.80805 33.3942C8.80805 33.5292 8.85298 33.6942 9.10798 33.6942H9.123C9.273 33.6942 9.45307 33.6042 9.66307 33.4092C9.84307 33.2292 10.038 32.9442 10.293 32.4942L11.583 30.0642L11.568 30.0492Z" fill="white"/>
<path d="M12.1081 30.0492L10.2031 33.6342H10.5631L12.4681 30.0492H12.1081Z" fill="white"/>
<path d="M14.1926 30.0492L12.8876 32.5242L13.3076 30.0492H12.9776L11.0576 33.6342H11.4326L12.7376 31.1592L12.3026 33.6342H12.6626L14.5526 30.0492H14.1926Z" fill="white"/>
<path d="M14.7176 32.2692H15.2576L14.9575 32.8392C14.8525 32.9142 14.7476 32.9742 14.6126 33.0492C14.4926 33.1242 14.3875 33.1542 14.2825 33.1542C14.2075 33.1542 14.1475 33.1392 14.1025 33.0942C14.0575 33.0492 14.0275 32.9742 14.0275 32.8692C14.0275 32.6442 14.1175 32.3592 14.3725 31.8342C14.5375 31.5342 14.6876 31.3092 14.8826 31.0992C15.0626 30.8742 15.1976 30.7242 15.3476 30.6342C15.4976 30.5442 15.6176 30.4992 15.7526 30.4992C15.8276 30.4992 15.9026 30.5142 15.9176 30.5592C15.9176 30.5592 15.9775 30.6792 15.9775 30.7392C15.9625 30.8742 15.9175 31.0242 15.8575 31.1742L15.8125 31.2942L16.2176 31.1292C16.3226 30.8442 16.3826 30.6792 16.3826 30.4992C16.3826 30.3642 16.3676 30.2592 16.2926 30.1392C16.2176 30.0192 16.0675 30.0042 15.9475 30.0042C15.7525 30.0042 15.5275 30.0792 15.3325 30.2292C15.1225 30.3642 14.9125 30.5592 14.6725 30.8292C14.4175 31.1592 14.1925 31.4892 13.9975 31.8492C13.8025 32.2242 13.6675 32.5392 13.6075 32.8092C13.5475 33.0942 13.5475 33.3042 13.6075 33.4692C13.6825 33.6192 13.8176 33.7092 14.0426 33.7092C14.1626 33.7092 14.3126 33.6642 14.5376 33.5592L14.6126 33.5142C14.7626 33.4242 14.9425 33.3192 15.1225 33.1692L15.8575 31.7892H14.9575L14.6725 32.2992L14.7176 32.2692Z" fill="white"/>
<path d="M19.1126 31.0542C19.2026 30.7842 19.2326 30.6042 19.2326 30.4842C19.2326 30.3042 19.1576 30.2142 19.0976 30.1542C19.0376 30.0792 18.9176 30.0492 18.7226 30.0492H18.0476L16.1426 33.6342H16.9076C17.1026 33.6342 17.2976 33.5742 17.4776 33.4542C17.6726 33.3342 17.8676 33.1542 18.1076 32.8692C18.3476 32.5392 18.5576 32.1792 18.7376 31.8342C18.9026 31.5642 19.0376 31.2942 19.0976 31.0542H19.1126ZM17.8676 32.6442C17.7476 32.7942 17.6126 32.9142 17.4776 33.0192C17.3876 33.0942 17.2676 33.1242 17.0876 33.1242H16.7726L18.1526 30.5892H18.4976C18.6176 30.5892 18.6926 30.6192 18.7376 30.6342C18.7826 30.6942 18.7827 30.8142 18.7527 30.9792C18.7077 31.1742 18.5876 31.4592 18.4076 31.7892C18.2426 32.1342 18.0626 32.4042 17.8676 32.6442Z" fill="white"/>
<path d="M21.7088 30.0642H21.3338L20.2539 32.1042C19.9689 32.6142 19.7739 32.8542 19.6839 32.9592C19.5339 33.0942 19.3988 33.1542 19.2638 33.1542C19.2638 33.1542 19.2339 33.1542 19.2189 33.1542C19.1139 33.1542 19.0838 33.1092 19.0688 33.0792C19.0388 33.0192 19.0238 32.9442 19.0688 32.7942C19.0988 32.6742 19.2038 32.4642 19.3538 32.1492L20.4788 30.0492H20.1038L19.0239 32.0892C18.7089 32.6442 18.5438 33.0642 18.5738 33.2892C18.5738 33.5292 18.7389 33.6642 19.0089 33.6642C19.1439 33.6642 19.2639 33.6342 19.3839 33.5742C19.5339 33.5142 19.6838 33.3942 19.8038 33.2592C19.8038 33.2592 19.8188 33.2442 19.8338 33.2292C20.2088 32.8392 20.5388 32.1942 20.5688 32.1342L21.6788 30.0342L21.7088 30.0642Z" fill="white"/>
</svg>
