<svg width="805" height="58" viewBox="0 0 805 58" fill="none" xmlns="http://www.w3.org/2000/svg">
<g filter="url(#filter0_d_1_310)">
<path d="M51.0851 17.74H47.4701C46.4351 24.955 44.7401 31.09 42.0551 36.145C44.5301 39.445 47.6801 42.13 51.6401 43.93C49.9451 45.43 47.6651 48.37 46.5851 50.38C42.8651 48.37 39.8351 45.79 37.4051 42.7C34.2551 46 30.2951 48.625 25.2851 50.59C24.6101 48.835 22.7651 45.685 21.5651 44.2C26.6651 42.445 30.4901 39.76 33.3701 36.16C32.1251 33.64 31.1051 30.85 30.2201 27.91C29.7101 28.735 29.1401 29.515 28.5251 30.235C27.5951 29.095 25.7351 27.25 24.1901 25.9H19.6601V35.44L25.5401 34.3L26.2151 41.41C18.4751 43.27 10.1801 45.07 4.87009 46.21C4.76509 46.78 4.25509 47.08 3.79009 47.185L1.46509 38.68L4.51009 38.215V16.555L12.4001 16.975C12.3551 17.545 11.9351 17.845 11.0051 18.01V37.09L12.6551 36.775V11.05H2.8601V4.19501H26.5751V11.05H19.6601V19.15H24.7151V22.66C27.8651 17.395 29.8751 9.46 30.9101 1.465L39.7751 3.22002C39.6251 3.73002 39.1001 4.045 38.2751 4.09C37.9151 6.355 37.4501 8.635 36.9401 10.84H51.0701V17.755L51.0851 17.74ZM34.9901 17.74L34.8401 18.205C35.5151 21.715 36.4451 25.06 37.6751 28.105C38.7551 25.06 39.4751 21.61 40.0001 17.74H35.0051H34.9901Z" fill="white"/>
<path d="M73.765 13.465L81.085 15.58C80.875 16.045 80.365 16.3 79.585 16.3C78.61 18.88 77.26 21.76 75.61 24.655L78.4 25.525C78.295 25.99 77.83 26.395 76.9 26.5V50.485H69.835V32.95C69.115 33.775 68.335 34.555 67.57 35.275C67 34.495 66.175 33.415 65.245 32.38C64.63 38.935 63.235 45.79 60.505 50.74C59.17 49.45 55.87 47.29 54.115 46.57C58.195 39.145 58.495 28.105 58.495 20.47V6.55003H76.96V1.495L86.35 2.00504C86.305 2.57504 85.885 2.935 84.805 3.145V6.55003H103.105V13.465H73.765ZM65.83 13.465V20.53C65.83 22.435 65.785 24.61 65.68 26.875C68.83 22.96 71.305 17.755 72.595 13.465H65.845H65.83ZM83.26 40.435C82.585 37.81 80.68 33.73 78.88 30.745L84.865 28.315C86.83 31.15 88.735 34.96 89.56 37.6L83.275 40.435H83.26ZM103.375 19.96V26.815H98.635V42.7C98.635 48.73 96.985 50.635 86.26 50.635C86.005 48.565 85.015 45.475 84.04 43.465C86.47 43.57 89.35 43.57 90.235 43.57C91.06 43.57 91.375 43.315 91.375 42.595V26.815H79.255V19.96H91.375V14.185L100.135 14.545C100.09 15.115 99.73 15.475 98.635 15.685V19.96H103.375Z" fill="white"/>
<path d="M112.075 26.875C111.205 28.165 110.32 29.35 109.45 30.43C108.88 28.525 107.29 24.235 106.405 22.39C110.125 17.8 113.83 9.55001 116.05 1.61501L124.09 4.30002C123.88 4.76502 123.37 5.01999 122.545 4.97499C121.465 8.06499 120.28 11.17 118.93 14.2L120.685 14.77C120.535 15.235 120.07 15.64 119.185 15.805V50.665H112.075V26.89V26.875ZM156.265 17.02H154.465C153.745 24.7 152.5 31.465 150.19 37.075C151.885 40.165 154.06 42.85 156.895 44.71C155.605 46 153.49 48.835 152.56 50.59C150.13 48.685 148.18 46.36 146.575 43.675C144.565 46.405 142.195 48.73 139.195 50.59C138.325 49.15 136.105 46.465 134.71 45.28L135.49 44.815H127.96V48.625H121.57V24.91H126.205V17.17H120.685V10.465H126.205V2.17L134.455 2.63499C134.41 3.14499 133.99 3.505 133.015 3.67V10.48H138.115V16.825C139.66 12.385 140.74 6.92499 141.37 1.55499L149.155 3.16C149.005 3.67 148.54 3.93999 147.76 3.93999C147.4 6.20499 146.935 8.53 146.425 10.795H156.28V17.035L156.265 17.02ZM131.26 38.47V31.195H127.96V38.47H131.26ZM136.825 24.91C136.21 24.235 135.535 23.62 135.025 23.155C136.165 21.55 137.14 19.495 137.965 17.17H133.015V24.91H136.825ZM137.755 43.165C139.975 41.305 141.73 38.935 143.125 36.205C142.045 33.055 141.22 29.755 140.605 26.455C140.29 26.965 139.93 27.49 139.57 28C139.165 27.43 138.49 26.665 137.77 25.885V43.165H137.755ZM144.715 17.065C145.075 20.11 145.585 23.26 146.32 26.395C146.89 23.5 147.295 20.365 147.55 17.005H144.76L144.715 17.05V17.065Z" fill="white"/>
<path d="M171.325 15.22L179.995 15.685C179.95 16.255 179.53 16.555 178.495 16.765V50.545H171.325V38.74H169.57C169.465 42.55 168.64 47.2 164.83 50.545C163.645 49.15 161.065 47.14 159.37 46.21C162.205 43.99 163.09 41.155 163.285 38.74H160.705V32.245H171.325V29.98H169V30.85H162.445V16.21L170.44 16.63C170.395 17.2 170.035 17.5 169 17.665V23.755H171.325V15.25V15.22ZM172.15 14.29V11.92H161.215V5.065H172.15V1.51001L181.12 1.97501C181.075 2.54501 180.61 2.90502 179.575 3.11502V5.08002H189.07V1.52502L198.1 1.99002C198.055 2.60502 197.635 2.92004 196.555 3.13004V5.09503H207.7V11.95H196.555V14.32H189.085V11.95H179.59V14.32H172.165L172.15 14.29ZM208.09 31.405H197.575V42.085H207.265V48.94H180.55V42.085H190.135V31.405H179.77V24.55H190.135V15.22L199.105 15.685C199.06 16.255 198.595 16.615 197.56 16.825V24.565H208.075V31.42L208.09 31.405Z" fill="white"/>
<path d="M248.47 37.33H241.405V11.185L237.535 16.6C236.71 15.775 235.675 14.905 234.49 13.975V16.495H222.835V14.635C221.755 15.715 220.57 16.75 219.28 17.785H238.975V34.9H222.625C222.58 35.365 222.475 35.83 222.37 36.295H239.845V50.32H233.35V49.09H226.435V50.425H220.195V43.93C219.37 45.94 218.335 47.845 217.045 49.495C216.07 48.25 213.385 45.775 212.095 45.01C216.58 39.025 217.045 30.625 217.045 24.745V19.435C216.64 19.75 216.22 20.005 215.755 20.305C215.035 18.61 213.13 15.76 211.84 14.53C218.035 10.87 222.25 5.92001 224.635 1.48001L232.675 3.02501C232.525 3.53501 232.06 3.89499 231.28 3.89499L231.235 3.93999C235 6.00999 238.915 8.785 241.39 10.795V7.81001L249.955 8.27501C249.91 8.84501 249.49 9.14501 248.455 9.35501V37.3L248.47 37.33ZM223.195 29.86H232.315V28.465H223.285L223.18 29.86H223.195ZM232.315 22.9H223.39V24.19H232.315V22.9ZM231.235 11.605C230.05 10.78 228.865 9.99999 227.68 9.23499C227.065 10.06 226.435 10.84 225.715 11.605H231.235ZM233.35 41.56H226.435V43.825H233.35V41.56ZM252.535 2.57498L261.355 2.93501C261.25 3.50501 260.89 3.90998 259.81 4.07498V41.77C259.81 48.16 258.205 50.44 246.82 50.44C246.565 48.325 245.485 44.92 244.45 42.76C247.285 42.91 250.27 42.91 251.305 42.91C252.175 42.91 252.55 42.595 252.55 41.725V2.59L252.535 2.57498Z" fill="white"/>
<path d="M282.19 23.725V25.84C284.77 27.7 289.615 31.66 290.86 32.755L286.63 39.25C285.49 37.75 283.84 35.845 282.19 34.045V50.5H274.87V34.315C272.905 38.185 270.64 41.785 268.27 44.365C267.55 42.145 265.75 38.95 264.505 36.94C267.91 33.64 271.21 28.48 273.37 23.74H265.735V16.825H274.87V11.83C272.35 12.445 269.815 12.97 267.34 13.375C266.98 11.725 265.9 9.145 265.075 7.645C272.095 6.25 279.565 3.98501 284.26 1.51001L290.395 7.13501C290.08 7.45001 289.675 7.45 288.85 7.45C286.945 8.32 284.68 9.14504 282.205 9.88004V16.84H290.605V23.755H282.205L282.19 23.725ZM301.48 8.30501C301.435 8.87501 301.015 9.23501 299.98 9.38501V37.33H292.705V7.84001L301.465 8.30501H301.48ZM304.63 2.575L313.6 2.98003C313.555 3.55003 313.195 3.955 312.055 4.12V41.665C312.055 48.625 310.045 50.53 298.03 50.53C297.715 48.37 296.53 44.86 295.45 42.745C298.705 42.895 302.11 42.895 303.235 42.895C304.21 42.895 304.63 42.58 304.63 41.605V2.575Z" fill="white"/>
<path d="M360.205 24.085L365.41 26.605C365.26 26.965 364.9 27.175 364.54 27.43C358.45 42.13 344.275 48.055 325.975 50.485C325.36 48.475 323.965 45.385 322.72 43.675C329.575 43.06 335.815 41.815 341.185 39.805C339.79 38.665 338.245 37.54 336.91 36.61L342.43 32.635C344.125 33.67 346.24 35.065 347.95 36.445C350.47 34.795 352.645 32.83 354.295 30.52H343.675C339.655 33.25 334.855 35.725 329.08 37.84C328.15 36.085 326.035 33.295 324.535 32.02C332.275 29.755 338.05 26.65 342.115 23.26V23.215C336.19 26.26 329.32 28.315 322.165 29.71C321.49 27.85 320.05 24.97 318.76 23.365C324.49 22.54 330.055 21.1 335.005 19.135C333.76 18.31 332.485 17.53 331.345 16.915L336.4 12.835C338.05 13.615 340.06 14.695 341.71 15.775C343.975 14.44 345.985 12.88 347.695 11.185H336.91C333.355 13.615 329.125 15.82 324.115 17.83C323.08 16.075 320.77 13.495 319.165 12.31C328.24 9.52001 334.435 5.45499 337.93 1.26999L346.855 3.13002C346.705 3.64002 346.135 4 345.31 4L344.275 5.08H353.035L354.22 4.82498L359.425 7.55499C359.215 7.91499 358.915 8.12502 358.495 8.33502C356.02 12.82 352.405 16.585 348.025 19.63L354.985 21.13C354.775 21.7 354.205 22.06 353.335 22.06C352.66 22.84 351.94 23.605 351.175 24.325H358.96L360.19 24.07L360.205 24.085Z" fill="white"/>
<path d="M384.175 50.44V27.55H404.65V50.245H397.18V48.85H391.255V50.455H384.19L384.175 50.44ZM397.165 34.705H391.24V41.665H397.165V34.705ZM420.58 3.20502V24.04H392.785V3.20502H420.58ZM412.9 16.915V10.36H400.015V16.915H412.9ZM408.31 27.535H429.295V50.02H421.765V48.775H415.48V50.215H408.31V27.52V27.535ZM415.48 41.62H421.765V34.705H415.48V41.62Z" fill="white"/>
<path d="M443.53 21.04C443.53 23.725 443.53 24.595 443.485 26.035H453.025V48.625H446.785V32.275H443.23C442.81 38.56 441.94 45.325 440.185 50.425C438.745 49.75 435.91 48.775 434.2 48.355C436.99 40.885 437.395 29.02 437.395 22V3.02501L444.925 3.42999C444.88 3.93999 444.46 4.25498 443.53 4.40498V14.725H446.26V1.52501L453.835 1.92999C453.79 2.43999 453.43 2.75498 452.44 2.90498V14.71H455.59V20.995H443.53V21.04ZM483.655 35.425V41.62H476.485V50.485H469.465V41.62H454.615V35.425H460.345C459.205 34.24 457.255 32.53 456.01 31.765C459.52 30.475 461.785 28.78 463.33 26.92H456.985V7.11998H463.69C464.47 5.25998 465.235 3.09998 465.655 1.44998L474.37 3.56499C474.16 4.02999 473.695 4.24001 472.87 4.24001C472.405 5.11001 471.79 6.14499 471.175 7.13499H482.005V26.935H470.77L470.2 28.015L477.985 28.435C477.94 29.005 477.52 29.305 476.485 29.47V35.455H483.655V35.425ZM469.48 29.185C467.875 31.615 465.4 33.775 461.695 35.425H469.48V29.185ZM463.555 12.625V14.425H466.135V12.625H463.555ZM463.555 21.385H465.88C465.985 20.77 466.03 20.155 466.09 19.525H463.57V21.385H463.555ZM475.15 21.385V19.525H472.36L472.21 21.385H475.15ZM475.15 14.425V12.625H472.36V14.425H475.15Z" fill="white"/>
<path d="M500.2 18.52L504.325 19.66C504.28 20.065 504.115 20.53 503.905 20.845C503.335 27.55 502.255 33.37 500.65 38.17C505.345 41.47 511.525 42.145 518.545 42.19C522.205 42.19 532.36 42.19 536.755 41.98C535.615 43.675 534.385 47.14 533.92 49.3H518.35C510.055 49.3 503.185 48.37 497.725 44.665C496.285 47.14 494.53 49.195 492.52 50.755C491.38 49.315 488.5 46.675 486.895 45.76C489.16 44.155 490.975 42.1 492.415 39.475C490.51 36.85 488.86 33.55 487.51 29.425L493.33 27.415C493.9 29.17 494.575 30.67 495.295 32.005C495.805 29.935 496.225 27.67 496.525 25.195H494.47L493.96 26.38L487.21 24.685C489.22 20.305 491.485 15.1 493.3 10.66H487.42V4.16496H497.32L498.715 4.015L502.885 5.40999C502.735 5.76999 502.525 6.235 502.315 6.595C501.07 9.79 499.225 14.23 497.32 18.715H498.97L500.215 18.565L500.2 18.52ZM514.435 11.605V10.42H505.975V4.855H514.435V1.40497L523.195 1.86996C523.15 2.43996 522.73 2.79997 521.695 2.94997V4.855H531.64V11.605H535.975V17.275H531.64V24.025H521.695V25.21H532.465V30.52H521.695V31.765H534.79V37.585H521.695V41.305H514.42V37.585H502.765V31.765H514.42V30.52H505.03V25.21H514.42V24.025H505.81V18.46H514.42V17.275H502.045V11.605H514.42H514.435ZM524.29 10.42H521.71V11.605H524.29V10.42ZM524.29 18.46V17.275H521.71V18.46H524.29Z" fill="white"/>
<path d="M560.53 10.06V15.88H539.845V10.06H560.53ZM582.445 23.47L587.185 25.27C587.08 25.675 586.825 25.885 586.57 26.2C585.07 31.825 582.655 36.415 579.355 40.18C582.25 41.83 585.595 43.12 589.255 43.99C587.605 45.49 585.445 48.535 584.41 50.44C580.33 49.195 576.73 47.455 573.58 45.175C570.325 47.395 566.56 49.15 562.285 50.44C561.565 48.64 559.915 45.805 558.565 44.155V47.92H548.455V49.72H542.17V31.825H558.565V43.795C562.015 42.97 565.165 41.725 567.895 40.075C565.885 37.81 564.175 35.275 562.69 32.44L569.14 30.37H561.205V23.665H563.32C562.135 22.375 560.02 20.62 558.625 19.75V23.005H542.38V17.44H558.625V19.3C562.795 16.315 563.215 12.385 563.215 9.03996V2.90497H581.26V13.885C581.26 15.43 581.305 15.58 581.725 15.58H582.295C582.805 15.58 583.015 14.905 583.12 10.675C584.41 11.755 587.29 12.835 589.15 13.3C588.535 19.945 586.825 21.865 583.06 21.865H580.33C575.635 21.865 574.24 19.96 574.24 13.975V9.48999H570.265C570.22 14.29 569.23 20.005 564.7 23.665H581.155L582.445 23.455V23.47ZM558.625 24.55V30.115H542.38V24.55H558.625ZM558.58 2.99496V8.56H542.545V2.99496H558.58ZM552.19 42.025V37.645H548.47V42.025H552.19ZM569.365 30.37C570.4 32.275 571.795 34.09 573.445 35.68C574.945 34.135 576.175 32.335 577.21 30.37H569.365Z" fill="white"/>
<path d="M608.68 34.135V40.885C612.13 42.025 615.745 42.025 624.775 42.025C630.505 42.025 638.08 41.98 641.995 41.77C640.855 43.465 639.625 46.93 639.16 49.195H618.94C609.715 49.195 603.475 48.055 599.35 42.445C598.885 45.7 598.27 48.685 597.49 51.01C596.155 50.185 593.515 49.105 591.865 48.535C593.515 43.375 594.085 34.045 594.235 25.435L601.765 26.575C601.66 27.085 601.255 27.355 600.52 27.4L600.37 31.165C600.835 32.86 601.45 34.315 602.125 35.5V23.125H592.84V16.525H601.87V12.715H594.19V6.26501H601.87V1.465L610.18 1.92999C610.135 2.43999 609.715 2.8 608.74 2.965V6.26501H615.13V12.715H608.74V16.525H615.85V18.385C619.045 16.48 620.905 13.375 621.73 9.46002H616.885V3.26501H634.42L635.965 3.16L639.94 3.51999L639.79 5.48499C639.475 13.99 638.965 17.815 637.78 19.36C636.13 21.325 634.015 21.685 628.24 21.58C628.135 19.93 627.565 17.665 626.8 16.015C625.405 18.91 623.455 21.22 620.92 22.93H638.665V40.615H631.555V39.07H624.85V40.825H618.04V22.93H620.515C619.435 21.895 617.425 20.41 615.88 19.375V23.14H608.71V27.73H614.995V34.18H608.71L608.68 34.135ZM631.525 28.975H624.82V32.95H631.525V28.975ZM628.84 9.42999C628.48 11.59 627.865 13.555 627.085 15.355C628.015 15.4 628.84 15.46 629.515 15.46C631.84 15.46 632.14 15.46 632.5 9.42999H628.84Z" fill="white"/>
<path d="M688.255 4.58501C688 4.99001 687.43 5.19997 686.605 5.15497C685.57 6.38497 684.175 7.84 682.795 9.13H693.205V15.88H645.865V9.13H656.695C655.555 7.525 654.01 5.72499 652.615 4.32999L659.575 1.39C661.735 3.295 664.27 6.08497 665.455 8.19997L663.235 9.13H676.39L674.065 8.15497C675.925 6.24997 678.145 3.45999 679.435 1.23999L688.255 4.58501ZM669.025 18.82V43.72C669.025 48.985 667.06 50.635 659.23 50.635C658.87 48.775 657.835 46 656.905 44.35C657.775 44.395 658.81 44.455 659.635 44.455C661.6 44.455 661.795 44.455 661.795 43.63V40.375H656.02V50.425H648.955V18.82H669.01H669.025ZM661.81 25.06H656.035V27.22H661.81V25.06ZM656.035 34.96H661.81V32.635H656.035V34.96ZM680.74 19.855C680.695 20.425 680.275 20.725 679.24 20.935V40.525H672.13V19.39L680.74 19.855ZM689.92 42.85C689.92 47.8 688.885 50.74 678.265 50.59C677.905 48.58 676.72 45.43 675.64 43.525C677.14 43.63 678.73 43.675 679.915 43.675C682.285 43.675 682.54 43.675 682.54 42.745V18.04L691.465 18.4C691.36 18.97 691 19.375 689.92 19.54V42.85Z" fill="white"/>
<path d="M716.5 12.745L722.59 14.395C722.38 14.86 721.915 15.07 721.15 15.07C720.58 16.72 719.755 18.79 718.93 20.53H724.6V27.28H697.885V20.53H703.15C703 18.73 702.43 16.045 701.71 14.08L707.695 12.835C708.565 14.845 709.3 17.575 709.495 19.435L704.8 20.515H713.305L712.63 20.305C713.455 18.19 714.43 15.1 714.895 12.73H698.86V6.27998H707.83V1.48001L716.59 1.94501C716.545 2.51501 716.125 2.87501 715.09 3.02501V6.27998H723.955V12.73H716.485L716.5 12.745ZM700.57 50.59V30.07H722.59V50.38H715.315V48.22H707.47V50.59H700.555H700.57ZM715.315 36.505H707.47V41.77H715.315V36.505ZM742.135 4.11998L746.83 5.81499C746.785 6.21999 746.62 6.53498 746.32 6.78998C744.925 11.275 743.17 16.645 741.055 22.21C745.285 27.475 746.62 31.03 746.62 34.225C746.62 44.44 739.66 44.545 736.765 44.545C736.255 44.545 735.685 44.545 735.16 44.5C735.115 42.7 734.335 39.865 733.255 37.9V50.485H725.935V4.39001H740.635L742.135 4.13499V4.11998ZM733.27 11.395V37.435C734.515 37.54 735.535 37.54 736.255 37.54C738.775 37.54 739.345 36.4 739.345 33.88C739.345 31.36 737.905 28.465 733.615 23.47C735.01 19.09 736.135 15.07 737.125 11.41H733.255L733.27 11.395Z" fill="white"/>
<path d="M786.73 20.215C788.485 18.82 790.075 17.38 791.47 15.835L798.175 20.11C797.92 20.365 797.5 20.53 797.035 20.53C796.825 20.53 796.63 20.485 796.36 20.425C795.07 21.76 793.63 23.05 792.13 24.235H798.115V30.055H783.625C782.695 30.565 781.765 31.09 780.79 31.6H793.84V50.575H786.16V49.285H769.24V50.575H761.92V39.025C758.98 39.895 755.995 40.675 752.995 41.35C752.38 39.745 750.835 36.805 749.74 35.26C753.82 34.48 757.945 33.46 761.905 32.275V31.6H764.065C765.505 31.135 767.005 30.625 768.445 30.055H751.63V24.235H769.42V22.48H757.195V16.915H769.42V15.22H754.105V3.05499H795.52V15.22H777.94C777.73 15.475 777.325 15.625 776.695 15.73V16.915H786.7V20.215H786.73ZM765.58 10.21V7.99001H761.245V10.21H765.58ZM786.16 36.565H769.51L769.255 36.67V38.065H786.175V36.565H786.16ZM769.24 44.14H786.16V42.535H769.24V44.14ZM772.39 7.99001V10.21H776.77V7.99001H772.39ZM776.725 22.48V24.235H780.85C781.825 23.665 782.755 23.095 783.64 22.48H776.725ZM783.58 7.99001V10.21H788.065V7.99001H783.58Z" fill="white"/>
</g>
<defs>
<filter id="filter0_d_1_310" x="0.415088" y="0.18999" width="803.79" height="56.85" filterUnits="userSpaceOnUse" color-interpolation-filters="sRGB">
<feFlood flood-opacity="0" result="BackgroundImageFix"/>
<feColorMatrix in="SourceAlpha" type="matrix" values="0 0 0 0 0 0 0 0 0 0 0 0 0 0 0 0 0 0 127 0" result="hardAlpha"/>
<feOffset dx="2.49" dy="2.49"/>
<feGaussianBlur stdDeviation="1.77"/>
<feColorMatrix type="matrix" values="0 0 0 0 0.101961 0 0 0 0 0.12549 0 0 0 0 0.219608 0 0 0 0.34 0"/>
<feBlend mode="normal" in2="BackgroundImageFix" result="effect1_dropShadow_1_310"/>
<feBlend mode="normal" in="SourceGraphic" in2="effect1_dropShadow_1_310" result="shape"/>
</filter>
</defs>
</svg>
