<svg width="544" height="131" viewBox="0 0 544 131" fill="none" xmlns="http://www.w3.org/2000/svg">
<path d="M0.429688 113.26C3.66969 112.18 8.70969 110.2 13.6597 108.18C13.6997 107.46 13.6997 106.7 13.6997 105.98V88.21L20.3597 88.5699C20.3197 89.0199 19.9997 89.2899 19.1497 89.4199V106.02C19.1497 115.96 17.4397 125.36 4.57969 130.49C3.94969 129.14 2.32969 126.85 1.24969 125.86C8.53969 123.07 11.6397 118.8 12.8997 113.94C9.47969 115.56 6.19969 117.13 3.76969 118.21C3.76969 118.66 3.49969 119.02 3.13969 119.15L0.439687 113.26H0.429688ZM7.03969 91.6699C9.59969 94.9999 12.4397 99.5399 13.5197 102.6L8.43969 105.39C7.53969 102.33 4.83969 97.6099 2.40969 94.0999L7.03969 91.6699ZM29.5797 121.81C29.5797 124.37 29.8097 124.73 31.5597 124.73H36.6897C38.2597 124.73 38.5797 123.56 38.7997 119.2C40.0997 120.15 42.2597 121.09 43.8397 121.45C43.1697 127.61 41.6797 129.95 37.2297 129.95H30.7097C25.5397 129.95 24.0497 128.24 24.0497 121.81V88.21L30.7997 88.5699C30.7597 89.0199 30.4397 89.3299 29.5897 89.4699V107.19L30.5297 106.11C34.7597 108.45 40.5197 112.05 43.2597 114.7C39.6597 119.02 39.6197 119.06 39.5297 119.15C37.4197 116.99 33.3697 113.98 29.5897 111.59V121.8L29.5797 121.81ZM42.6297 94.1899C42.4097 94.4999 41.8697 94.68 41.1897 94.59C39.5297 97.65 36.5097 101.88 34.2197 104.49L30.0397 101.93C32.2397 99.0099 35.0297 94.37 36.5597 90.77L42.6297 94.1899Z" fill="white"/>
<path d="M67.8998 109.43C67.8098 109.88 67.3998 110.19 66.6898 110.28C65.6098 118.33 64.0398 125.84 52.8798 130.12C52.2898 128.73 50.7698 126.7 49.5498 125.62C59.3598 122.25 60.2598 116.17 60.8898 108.8L67.9098 109.43H67.8998ZM79.3298 122.88C79.3298 124.59 79.5998 124.86 81.0398 124.86H85.1798C86.7098 124.86 86.9798 123.69 87.1998 117.12C88.3198 118.06 90.6598 119.01 92.0598 119.37C91.5598 127.47 90.2198 129.76 85.6698 129.76H80.1798C75.1898 129.76 73.8398 128.1 73.8398 122.88V108.44H50.5798V103.18H91.1098V108.44H79.3198V122.88H79.3298ZM86.9298 90.49V95.71H54.6798V90.49H86.9298Z" fill="white"/>
<path d="M118.19 110.11L115.99 110.38V125.31C115.99 129.58 114.06 130.17 108.75 130.17C108.62 128.96 107.99 127.02 107.45 125.94C111.59 126.07 111.59 125.98 111.59 125.27V110.92C109.39 111.19 107.23 111.42 105.29 111.64C105.2 117.62 104.57 125.31 101.51 130.17C100.75 129.41 98.9001 128.24 97.8701 127.79C100.52 123.43 100.97 117.31 101.06 112.14L100.12 112.23C100.03 112.59 99.7201 112.82 99.3601 112.9L97.8801 108.04L101.07 107.82V93.8699H105.03C105.57 91.9399 106.15 89.4599 106.38 87.6599L112.63 89.14C112.49 89.45 112.09 89.6799 111.46 89.6799C111.01 90.9399 110.38 92.4699 109.75 93.8599H116V106.5L118.11 106.32L118.2 110.1L118.19 110.11ZM105.28 107.46L111.58 106.92V98.0599H105.28V107.46ZM107.71 106.16C107.49 104.54 106.63 102.16 105.64 100.36L108.79 99.0999C109.91 100.81 110.86 103.19 111.13 104.77L107.71 106.16ZM110.72 112.5C110.67 112.82 110.41 113.04 109.78 113.13V122.67H106.68V112.23L110.73 112.5H110.72ZM135.42 123.3C135.42 124.92 135.42 125.1 136 125.1C136.9 125.1 136.99 125.1 137.12 124.92C137.61 124.7 137.61 121.86 137.61 120.42C138.55 121.18 140.08 121.99 141.34 122.4C141.11 127.3 140.58 129.6 136.8 129.6H134.46C130.28 129.6 130.28 126.23 130.28 123.35V107.61H125.47V113.19C125.47 118.59 124.75 125.79 120.39 130.24C119.49 129.39 117.29 127.81 116.12 127.23C120.08 123.27 120.44 117.6 120.44 113.06V102.94H135.42V123.32V123.3ZM140.59 94.8699V99.59H117.02V94.8699H125.79V87.8099L132.22 88.1699C132.18 88.6199 131.86 88.89 131.05 89.03V94.8799H140.59V94.8699Z" fill="white"/>
<path d="M165.83 98.64C165.74 99.04 165.33 99.36 164.66 99.45C163.4 105.52 161.42 110.2 150.22 112.77C149.77 111.42 148.42 109.31 147.34 108.23C157.1 106.43 158.54 103.19 159.22 98.02L165.83 98.65V98.64ZM170.6 117.49V124.06H187.83V128.96H148.11V124.06H165.02V117.49H153.05V112.68H183.41V117.49H170.59H170.6ZM154.09 97.4699V102.78H148.78V92.5699H165.02V87.71L171.81 88.1099C171.77 88.5599 171.45 88.83 170.6 88.96V92.5599H187.11V102.77H181.53V97.46H154.09V97.4699ZM170.51 97.8799L177.03 98.1899C176.99 98.6399 176.67 98.91 175.82 99.09V104.98C175.82 106.19 176.13 106.37 177.75 106.37H182.43C183.64 106.37 183.91 105.96 184.09 103.85C185.12 104.61 187.28 105.38 188.77 105.65C188.14 109.83 186.7 110.91 183.01 110.91H176.98C171.67 110.91 170.5 109.52 170.5 105.02V97.8699L170.51 97.8799Z" fill="white"/>
<path d="M228.59 99.72C228.82 103.99 229.18 108.18 229.62 111.87C230.7 109.26 231.55 106.47 232.18 103.46L237.85 104.76C237.76 105.12 237.35 105.39 236.68 105.39C235.38 110.74 233.49 115.6 230.92 119.74C231.73 123.07 232.63 125.18 233.57 125.18C234.29 125.18 234.74 122.93 234.87 118.21C235.86 119.42 237.34 120.73 238.56 121.31C237.75 128.42 236.36 130.22 232.89 130.22C230.55 130.22 228.75 128.06 227.4 124.6C225.56 126.67 223.49 128.51 221.19 130C220.47 129.05 218.81 127.39 217.77 126.63C220.92 124.74 223.62 122.18 225.78 118.98C224.66 113.58 223.98 106.74 223.67 99.73H214.31V104.9H219.35L220.34 104.86L222.77 104.95V106.43C222.64 116.01 222.41 119.83 221.51 121.05C220.7 122.26 219.76 122.89 215.12 122.76C215.07 121.41 214.62 119.57 214.04 118.4C215.12 118.54 216.06 118.54 216.56 118.54C217.06 118.54 217.37 118.4 217.64 118C218 117.42 218.18 115.26 218.27 109.27H214.31C214.22 115.93 213.23 124.88 208.24 130.37C207.47 129.38 205.41 127.67 204.28 127.09C206.66 124.44 207.92 121.15 208.6 117.82C204.73 119.66 200.68 121.46 197.98 122.63C197.93 123.08 197.67 123.39 197.31 123.53L194.93 117.59C196.32 117.14 198.08 116.56 199.97 115.88V103.1H195.92V98.02H199.97V88.21L206 88.53C205.96 88.93 205.64 89.2 204.83 89.34V98.02H208.56V103.1H204.83V114.08L208.25 112.82L208.92 115.92C209.32 113.27 209.37 110.66 209.37 108.32V94.83H223.49C223.4 92.45 223.36 90.11 223.36 87.81L229.66 88.17C229.62 88.62 229.21 88.84 228.4 88.98C228.35 90.87 228.35 92.85 228.4 94.83H233.26C232.36 93.3 230.79 91.41 229.35 89.93L233.08 87.77C234.79 89.39 236.77 91.59 237.62 93.21L234.88 94.83H237.4V99.73H228.58L228.59 99.72Z" fill="white"/>
<path d="M257.489 95.5601H258.919V126.73H257.489V95.5601Z" fill="white"/>
<path d="M277.899 108.8C277.899 98.2598 281.789 90.8398 289.579 90.8398C297.369 90.8398 300.899 98.8998 300.899 108.53C300.899 119.99 296.639 126.54 289.349 126.54C281.289 126.54 277.899 118.48 277.899 108.81V108.8ZM289.449 121.17C292.569 121.17 294.119 116.77 294.119 108.66C294.119 100.55 292.699 96.1998 289.489 96.1998C286.559 96.1998 284.679 100.42 284.679 108.66C284.679 116.9 286.379 121.17 289.399 121.17H289.449Z" fill="white"/>
<path d="M318.6 107.38C322.45 108.25 325.66 111.37 325.66 116.09C325.66 121.86 321.03 126.54 312.97 126.54C309.3 126.54 306.01 125.58 304.26 124.43L305.77 119.3C307.05 120.13 309.85 121.18 312.51 121.18C316.68 121.18 318.74 118.61 318.74 115.77C318.74 111.87 315.35 110.04 311.64 110.04H309.3V105.27H311.5C314.2 105.27 317.69 103.76 317.69 100.41C317.69 97.98 316.09 96.1901 312.88 96.1901C310.5 96.1901 308.16 97.2401 306.83 98.0701L305.41 93.2101C307.2 92.0201 310.73 90.8301 314.44 90.8301C321.08 90.8301 324.57 94.7201 324.57 99.3101C324.57 102.88 322.42 105.86 318.61 107.28V107.37L318.6 107.38Z" fill="white"/>
<path d="M330.279 109.72H342.839V114.39H330.279V109.72Z" fill="white"/>
<path d="M358.65 107.38C362.5 108.25 365.71 111.37 365.71 116.09C365.71 121.86 361.08 126.54 353.02 126.54C349.35 126.54 346.06 125.58 344.31 124.43L345.82 119.3C347.1 120.13 349.9 121.18 352.56 121.18C356.73 121.18 358.79 118.61 358.79 115.77C358.79 111.87 355.4 110.04 351.69 110.04H349.35V105.27H351.55C354.25 105.27 357.74 103.76 357.74 100.41C357.74 97.98 356.14 96.1901 352.93 96.1901C350.55 96.1901 348.21 97.2401 346.88 98.0701L345.46 93.2101C347.25 92.0201 350.78 90.8301 354.49 90.8301C361.13 90.8301 364.62 94.7201 364.62 99.3101C364.62 102.88 362.47 105.86 358.66 107.28V107.37L358.65 107.38Z" fill="white"/>
<path d="M370.38 108.8C370.38 98.2598 374.27 90.8398 382.06 90.8398C389.85 90.8398 393.38 98.8998 393.38 108.53C393.38 119.99 389.12 126.54 381.83 126.54C373.77 126.54 370.37 118.48 370.37 108.81L370.38 108.8ZM381.93 121.17C385.05 121.17 386.6 116.77 386.6 108.66C386.6 100.55 385.18 96.1998 381.97 96.1998C379.04 96.1998 377.16 100.42 377.16 108.66C377.16 116.9 378.86 121.17 381.88 121.17H381.93Z" fill="white"/>
<path d="M406.36 126.03V97.4399H406.27L400.31 100.56L398.84 95.6999L407.27 91.3899H412.95V126.03H406.35H406.36Z" fill="white"/>
<path d="M422.76 109.72H435.32V114.39H422.76V109.72Z" fill="white"/>
<path d="M448.24 126.03V97.4399H448.15L442.19 100.56L440.72 95.6999L449.15 91.3899H454.83V126.03H448.23H448.24Z" fill="white"/>
<path d="M470.699 107.84C467.489 106.05 465.799 103.17 465.799 100.23C465.799 94.4998 470.519 90.8398 476.519 90.8398C483.389 90.8398 486.649 95.1898 486.649 99.5498C486.649 102.35 485.089 105.42 481.559 107.34V107.43C484.949 108.99 487.749 111.97 487.749 116.27C487.749 122.46 482.889 126.53 476.019 126.53C468.639 126.53 464.699 121.99 464.699 117.04C464.699 112.78 467.219 109.71 470.699 107.97V107.83V107.84ZM480.959 116.82C480.959 113.43 478.669 111.28 475.639 110.27C473.029 111.23 471.469 113.66 471.469 116.41C471.469 119.34 473.259 121.91 476.189 121.91C479.119 121.91 480.959 119.53 480.959 116.82ZM472.159 99.9098C472.159 102.57 474.079 104.4 476.789 105.41C478.709 104.63 480.319 102.48 480.319 100.14C480.319 97.7998 479.169 95.3698 476.289 95.3698C473.409 95.3698 472.169 97.7098 472.169 99.9098H472.159Z" fill="white"/>
<path d="M496.91 107.84C493.7 106.05 492.01 103.17 492.01 100.23C492.01 94.4998 496.73 90.8398 502.73 90.8398C509.6 90.8398 512.86 95.1898 512.86 99.5498C512.86 102.35 511.3 105.42 507.77 107.34V107.43C511.16 108.99 513.96 111.97 513.96 116.27C513.96 122.46 509.1 126.53 502.23 126.53C494.85 126.53 490.91 121.99 490.91 117.04C490.91 112.78 493.43 109.71 496.91 107.97V107.83V107.84ZM507.17 116.82C507.17 113.43 504.88 111.28 501.85 110.27C499.24 111.23 497.68 113.66 497.68 116.41C497.68 119.34 499.47 121.91 502.4 121.91C505.33 121.91 507.17 119.53 507.17 116.82ZM498.37 99.9098C498.37 102.57 500.29 104.4 503 105.41C504.92 104.63 506.53 102.48 506.53 100.14C506.53 97.7998 505.38 95.3698 502.5 95.3698C499.62 95.3698 498.38 97.7098 498.38 99.9098H498.37Z" fill="white"/>
<path d="M523.13 107.84C519.92 106.05 518.23 103.17 518.23 100.23C518.23 94.4998 522.95 90.8398 528.95 90.8398C535.82 90.8398 539.08 95.1898 539.08 99.5498C539.08 102.35 537.52 105.42 533.99 107.34V107.43C537.38 108.99 540.18 111.97 540.18 116.27C540.18 122.46 535.32 126.53 528.45 126.53C521.07 126.53 517.13 121.99 517.13 117.04C517.13 112.78 519.65 109.71 523.13 107.97V107.83V107.84ZM533.39 116.82C533.39 113.43 531.1 111.28 528.07 110.27C525.46 111.23 523.9 113.66 523.9 116.41C523.9 119.34 525.69 121.91 528.62 121.91C531.55 121.91 533.39 119.53 533.39 116.82ZM524.59 99.9098C524.59 102.57 526.51 104.4 529.22 105.41C531.14 104.63 532.75 102.48 532.75 100.14C532.75 97.7998 531.6 95.3698 528.72 95.3698C525.84 95.3698 524.6 97.7098 524.6 99.9098H524.59Z" fill="white"/>
<path d="M47.9696 44.7499H39.4896C45.2196 46.7599 51.4696 49.1099 55.3096 50.8299L46.1396 54.8999C42.7596 53.0099 36.4496 50.1999 30.3196 48.0799L35.5896 44.7599H19.8896L26.3696 47.9698C26.1396 48.2598 25.7396 48.4299 25.2196 48.4299C25.0496 48.4299 24.8196 48.4299 24.6496 48.3699C19.9496 50.7799 12.8396 53.4099 6.76961 55.0199C5.38961 53.4199 2.75961 50.6599 1.09961 49.2899C6.36961 48.2599 12.2196 46.5399 16.1696 44.7599H8.82961V19.4299H47.9696V44.7599V44.7499ZM51.2396 2.62988V17.7599H5.03961V2.62988H51.2396ZM18.1696 11.6899V8.7099H12.7296V11.6899H18.1696ZM16.8496 24.5299V26.3599H39.5496V24.5299H16.8496ZM16.8496 31.1199V33.0099H39.5496V31.1199H16.8496ZM16.8496 37.7699V39.6599H39.5496V37.7699H16.8496ZM30.5496 11.6899V8.7099H25.0496V11.6899H30.5496ZM43.1596 11.6899V8.7099H37.4296V11.6899H43.1596Z" fill="white"/>
<path d="M111.41 35.2898H88.8896C88.7196 36.0898 88.5996 36.8898 88.4296 37.6998H99.6096L101.39 37.5298L106.09 38.2198C106.03 38.8498 105.92 39.5998 105.75 40.2798C104.72 54.4898 103.4 55.1198 91.3096 54.8898C91.1996 52.7698 90.3396 49.8998 89.1896 48.0698C91.3096 48.2398 93.3196 48.2998 94.2896 48.2998C96.2996 48.2998 96.7496 47.5498 97.2096 43.9398H86.4396C84.3196 48.4098 80.3096 52.1398 71.9996 54.7698C71.3696 53.1098 69.8196 50.6998 68.3296 49.0398C67.3596 50.9898 66.1496 52.8198 64.7196 54.4298C63.2296 53.0498 59.6196 50.6998 57.5596 49.8398C64.0896 42.7898 64.6096 32.3598 64.6096 24.7898V11.8398H106.28V26.3398H93.8396C93.6096 26.7398 93.1496 26.9698 92.2896 27.1398V29.0298H111.43V35.2798L111.41 35.2898ZM111.12 2.78979V10.1798H59.4896V2.78979H111.13H111.12ZM72.1996 35.2898C71.6296 39.5298 70.5996 43.9398 68.8796 47.8398C77.8196 45.1998 79.8296 40.9598 80.6296 35.2898H72.2096H72.1996ZM84.0096 29.0398V26.3498H72.8296C72.8296 27.2098 72.7696 28.1298 72.7196 29.0398H84.0096ZM98.0496 17.8598H72.8296V20.2698H98.0496V17.8598Z" fill="white"/>
<path d="M117.649 2.73975H167.449V55.0098H159.199V52.7798H125.499V55.0098H117.649V2.73975ZM151.409 45.3198H159.199V10.1898H125.499V45.3198H151.179C149.459 43.9998 146.369 42.1097 143.609 40.7397L146.299 39.1898H137.929L141.939 40.6797C141.649 41.1997 141.079 41.1998 140.509 41.1998C138.159 42.6298 134.209 44.2898 130.649 45.3298C129.619 44.1298 127.609 42.1798 126.349 41.2598C128.699 40.7398 131.219 39.9998 133.169 39.1998H129.039V21.3198H155.579V39.1998H151.219C153.739 40.3998 156.439 41.7798 158.099 42.8098L151.389 45.3298L151.409 45.3198ZM131.349 20.1597V11.7897H153.359V20.1597H131.349ZM135.929 26.1198H148.369V24.9197H135.929V26.1198ZM148.369 29.5598H135.929V30.8198H148.369V29.5598ZM148.369 34.2598H135.929V35.5798H148.369V34.2598ZM137.999 15.3497V16.6097H146.309V15.3497H137.999Z" fill="white"/>
<path d="M213.47 3.88989H225.56V11.0499H213.47V12.6499H220.81V25.4899H179.66V12.6499H186.19V11.0499H174.21V3.88989H186.19V0.389893L196.16 0.909851C196.1 1.53985 195.59 1.93986 194.44 2.16986V3.88989H205.16V0.389893L215.19 0.909851C215.13 1.59985 214.67 1.93986 213.47 2.16986V3.88989ZM174.61 37.7599V27.1599H225.16V37.7599H216.96V33.3499H200.74C200.45 33.6399 199.99 33.8099 199.42 33.8099L198.39 35.0099H209.39L210.71 34.7198L216.33 37.3599C216.16 37.7599 215.81 37.9299 215.47 38.1599C209.68 48.0199 197.42 52.7799 183.26 54.9499C182.51 52.9999 180.85 49.9099 179.53 48.1899C183.77 47.7899 187.9 47.0399 191.62 46.0099C190.65 45.3799 189.61 44.8099 188.64 44.4099L193.57 40.4599H192.14C189.27 42.4699 185.89 44.3599 181.71 46.0199C180.68 44.2399 178.39 41.4899 176.84 40.2899C182.74 38.4599 187.1 36.0499 190.02 33.3499H182.4V37.7599H174.61ZM191 20.2799V17.8199H186.99V20.2799H191ZM194.04 40.4499C195.76 41.1399 197.65 42.1699 199.14 43.1999C200.8 42.3999 202.29 41.4799 203.61 40.4499H194.04ZM205.16 12.6499V11.0499H194.44V12.6499H205.16ZM202.01 20.2699V17.8099H197.88V20.2699H202.01ZM213.07 20.2699V17.8099H208.89V20.2699H213.07Z" fill="white"/>
<path d="M229.569 54.8398C231.289 49.7398 232.719 43.9498 233.469 39.0198L244.239 38.3298C242.289 43.8298 239.769 49.6798 236.849 54.2098L229.569 54.8398Z" fill="white"/>
<path d="M277.83 35.8099L278.52 42.9698C272.1 44.4598 265.4 45.8899 261.04 46.8099C260.93 47.3799 260.41 47.7799 259.89 47.8399L257.83 39.1899C259.66 38.9599 261.78 38.6198 264.08 38.2198V28.1299H259.32V20.5099H264.08V11.9099H258.92V4.22986H276.97V11.9099H271.87V20.5099H276.63V28.1299H271.87V36.8999L277.83 35.8099ZM308.78 41.7699H299.09V47.9599C299.09 53.5199 297.31 54.7799 288.14 54.7799C287.8 52.9499 287.05 50.5399 286.25 48.6999C284.02 50.8199 281.32 52.8799 278.74 54.3699C277.48 52.9399 274.96 50.5899 273.41 49.3799C276.85 47.7199 280.4 44.9099 282.35 42.2699L290.55 45.3099C290.32 45.7699 289.75 45.9999 289 45.8799C288.31 46.6799 287.51 47.4799 286.65 48.3399C288.08 48.3999 289.74 48.3999 290.26 48.3999C290.89 48.3399 291.12 48.2299 291.12 47.6499V41.7499H281.49V29.0299H308.77V41.7499L308.78 41.7699ZM312.28 20.9698V27.4999H277.66V20.9698H290.56V18.7299H280.76V2.10986H309.47V18.7299H300.7C300.53 19.1899 300.01 19.4799 299.04 19.6499V20.9698H312.28ZM288.21 6.86987V8.18988H301.62V6.86987H288.21ZM288.21 12.6599V13.9799H301.62V12.6599H288.21ZM289.13 34.2699V36.5599H300.71V34.2699H289.13ZM307.13 54.0999C305.7 51.8699 302.26 48.3099 299.45 45.8999L305.75 42.4599C308.5 44.6399 312.11 47.9599 313.89 50.3099L307.13 54.0899V54.0999Z" fill="white"/>
<path d="M365.28 3.25989L370.61 5.2099C370.55 5.6099 370.38 6.00987 370.04 6.29987C368.49 11.2299 366.6 17.0699 364.31 23.1499C368.95 28.9399 370.39 32.8399 370.39 36.3299C370.39 47.9599 362.54 47.9599 357.55 47.7899C357.49 45.6099 356.58 42.2899 355.31 40.0499V54.7799H347.11V8.5899C345.85 11.6299 344.42 14.5499 342.81 17.2999H345.62V24.4599H338C337.08 25.6099 336.17 26.6999 335.25 27.7299H344.02V54.3799H336.17V52.4299H328.89V54.8899H321.38V38.8399C320.69 39.2399 320 39.6399 319.26 39.9899C318.4 38.2099 316.39 34.8899 315.08 33.2899C317.26 32.3199 319.38 31.1099 321.38 29.7899V27.7299H324.19C325.51 26.6999 326.71 25.6099 327.92 24.4599H316.46V17.2999H325.69V12.9399H318.7V5.8299H325.69V0.619873L335.03 1.13989C334.97 1.70989 334.51 2.10986 333.37 2.28986V5.8399H338.3V9.90985C339.22 8.01985 340.02 6.06988 340.71 4.05988L347.13 6.11987V3.53986H363.58L365.3 3.24988L365.28 3.25989ZM336.17 36.8399V34.2599H328.89V36.8399H336.17ZM328.89 45.8399H336.17V43.0299H328.89V45.8399ZM333.36 17.2999H333.99C334.96 15.9199 335.88 14.4299 336.68 12.9399H333.36V17.2999ZM355.31 11.3399V39.7699C356.69 39.8799 357.89 39.8799 358.69 39.8799C361.56 39.8799 362.13 38.5599 362.13 35.9199C362.13 33.1099 360.58 30.0199 355.88 24.5699C357.37 19.7599 358.63 15.3399 359.66 11.3299H355.3L355.31 11.3399Z" fill="white"/>
<path d="M412.159 26.3499H405.739C405.049 32.8299 403.729 38.2099 401.669 42.6299C406.259 46.5299 411.699 46.53 417.889 46.53C421.329 46.53 426.199 46.4699 428.439 46.4099C427.469 48.1299 426.379 51.5099 426.089 53.5699H414.399C407.689 53.5699 402.189 52.4799 397.889 48.8099C395.939 51.2199 393.589 53.22 390.779 54.89C389.809 53.11 388.029 50.5299 386.599 49.1599C389.289 47.7799 391.469 45.72 393.249 43.03C391.759 40.28 390.439 36.95 389.409 32.77L395.539 30.8799C395.879 32.4299 396.339 33.8599 396.799 35.1199C397.549 32.7099 398.059 30.08 398.459 27.27H396.509L395.879 29.0499L389.399 27.6699L390.029 32.08L386.299 33.34V46.3499C386.299 52.3699 384.749 54.89 375.869 54.89C375.639 52.77 374.779 49.39 373.809 47.15C374.779 47.21 375.819 47.27 376.619 47.27C378.509 47.27 378.739 47.2699 378.739 46.2999V35.8099L375.819 36.7299C375.709 37.3599 375.189 37.7599 374.669 37.8799L372.779 28.8799C374.439 28.5399 376.509 28.0799 378.739 27.5599V18.7899H373.639V11.1699H378.739V0.449951L387.909 0.849915C387.849 1.47991 387.449 1.87993 386.309 2.04993V11.1599H389.399V18.78H386.309V25.77L389.059 25.08L389.229 26.34C391.119 21.47 393.179 15.6799 394.789 10.8699H389.919V3.52997H398.749L400.239 3.35992L404.369 4.61993C404.259 5.01993 404.079 5.53994 403.909 5.87994C402.649 9.82994 400.759 15.4499 398.749 21.0699H401.039L402.299 20.96L404.709 21.3599V19.0699H412.159V11.7899C410.269 12.2499 408.379 12.5899 406.539 12.9399C406.199 11.2199 405.109 8.52992 404.129 6.85992C410.319 5.59992 416.849 3.41996 420.869 0.899963L427.229 6.85992C426.939 7.19992 426.369 7.19995 425.679 7.19995C424.299 7.94995 422.699 8.57996 420.979 9.20996L421.499 9.26996C421.439 9.83996 420.979 10.2399 419.899 10.4199V19.0699H427.179V26.3499H419.899V35.46H426.379V42.6199H406.209V35.46H412.169V26.3499H412.159Z" fill="white"/>
<path d="M461.789 19.1899H484.029V25.3199H431.649V19.1899H453.309V17.64H438.289V11.8499H453.309V10.2399H434.909V4.10992H453.309V0.209961L463.569 0.729919C463.509 1.41992 462.999 1.81993 461.789 1.98993V4.10992H480.299V10.2399H461.789V11.8499H477.259V17.64H461.789V19.1899ZM475.429 26.9799V47.4399C475.429 54.0899 472.279 54.95 460.819 54.95C460.419 52.94 459.329 50.1899 458.359 48.3599C459.909 48.4699 462.089 48.53 463.629 48.53C464.549 48.53 465.289 48.4699 465.579 48.4699C466.959 48.4699 466.959 48.0699 466.959 46.6899H448.389V54.83H440.079V26.9799H475.439H475.429ZM466.949 32.83H448.379V34.4399H466.949V32.83ZM448.379 41.4299H466.949V39.71H448.379V41.4299Z" fill="white"/>
<path d="M541.669 35.0599V43.1399H522.639V54.8299H514.039V43.1399H488.479V35.0599H497.359V21.6499C496.389 22.8499 495.349 23.9998 494.319 24.9698C492.769 23.3698 489.619 20.5599 487.609 19.1799C492.539 14.9399 497.069 7.3699 499.419 0.149902L509.389 3.24988C509.159 3.76988 508.529 4.10987 507.669 3.98987C507.379 4.78987 507.039 5.5399 506.699 6.3399H538.219V14.4199H522.629V20.2099H536.899V27.9499H522.629V35.0599H541.659H541.669ZM514.049 14.4299H502.469C501.269 16.4899 499.949 18.4398 498.519 20.2198H514.049V14.4299ZM505.739 35.0599H514.049V27.9499H505.739V35.0599Z" fill="white"/>
<path d="M0 70.03H543.25" stroke="white" stroke-width="2.91" stroke-miterlimit="10"/>
</svg>
