<?xml version="1.0" encoding="utf-8"?>
<!-- Generator: Adobe Illustrator 27.0.0, SVG Export Plug-In . SVG Version: 6.00 Build 0)  -->
<svg version="1.1" id="_圖層_2" xmlns="http://www.w3.org/2000/svg" xmlns:xlink="http://www.w3.org/1999/xlink" x="0px" y="0px"
	 viewBox="0 0 65.2 26.9" style="enable-background:new 0 0 65.2 26.9;" xml:space="preserve">
<style type="text/css">
	.st0{fill:#FFFFFF;}
</style>
<g id="_圖層_1-2">
	<g>
		<g>
			<path class="st0" d="M30.5,3.1l1.3,0.1c0,0.2,0,0.5,0,0.8c-0.2,7.3-0.5,10.1-1.1,10.9c-0.6,0.9-1.2,1.1-3,1.1
				c0-0.5-0.2-1.2-0.4-1.8c-0.3,0.6-0.5,1.3-0.9,1.8c-0.5-0.4-1.4-0.9-2.1-1.1c1.7-2.2,2.6-6.2,2.9-9.4h-0.2c-0.5,3-1.6,6.9-3.1,9
				c-0.5-0.4-1.4-0.8-2.1-1c1.6-1.8,2.6-5.2,3.2-8h-0.2c-0.4,1.2-0.8,2.4-1.3,3.2c-0.4-0.4-1.3-1-1.8-1.3c0.2-0.4,0.5-1,0.7-1.6h-1
				v2.9l1.4-0.2l0.2,2.1c-0.5,0.1-1.1,0.3-1.6,0.4V16H19v-4.7c-0.7,0.1-1.3,0.3-1.8,0.4c0,0.2-0.2,0.3-0.3,0.3l-0.8-2.6
				C16.9,9.3,17.9,9.1,19,9V5.7h-0.7C18.1,6.6,18,7.3,17.8,8c-0.4-0.3-1.2-0.8-1.7-1c0.4-1.4,0.5-3.8,0.5-5.9L19,1.6V0.1l2.9,0.2
				c0,0.2-0.2,0.3-0.5,0.3v2.8h1.2v1.7c0.4-1.5,0.8-3.3,1-5.1l2.7,0.6c-0.1,0.2-0.2,0.2-0.5,0.2c-0.1,0.8-0.2,1.6-0.4,2.3H30
				L30.5,3.1L30.5,3.1z M19,1.6c-0.1,0.1-0.2,0.2-0.4,0.2c0,0.5-0.1,1-0.1,1.6H19L19,1.6L19,1.6z M29.2,5.4
				c-0.2,2.5-0.8,5.7-1.6,8.2c0.2,0,0.4,0,0.6,0c0.2,0,0.4-0.1,0.6-0.4c0.3-0.4,0.5-2.4,0.7-7.9C29.4,5.4,29.2,5.4,29.2,5.4z"/>
			<path class="st0" d="M34.2,4.7c1,0.3,2.4,1,3.1,1.6l-1.4,2c-0.6-0.6-2-1.3-3-1.7L34.2,4.7L34.2,4.7z M33.4,14.3
				c0.8-1.3,2-3.3,3-5.3l1.9,1.5c-0.8,1.8-1.7,3.5-2.5,4.8c0.1,0.1,0.1,0.2,0.1,0.4s0,0.2-0.1,0.3L33.4,14.3L33.4,14.3z M35.2,0.1
				c1,0.4,2.4,1,3.1,1.6l-1.4,2c-0.6-0.6-1.9-1.3-3-1.8C33.9,1.9,35.2,0.1,35.2,0.1z M41.5,9.9c0,1.9-0.3,4.3-2.5,6.1
				c-0.3-0.5-1.2-1.2-1.7-1.6c1.9-1.4,2.1-3.2,2.1-4.6V8.3L42,8.4c0,0.2-0.1,0.3-0.5,0.3C41.5,8.8,41.5,9.9,41.5,9.9z M46.9,13.3
				c0,0.4,0,0.5,0.2,0.5c0.2,0,0.2,0,0.3-0.1c0.1-0.1,0.1-0.5,0.2-2c0.4,0.3,1.1,0.7,1.6,0.9c-0.1,1.7-0.1,3.1-1.8,3.1h-0.9
				c-0.4,0-0.9-0.1-1.2-0.5c-0.3-0.3-0.5-0.7-0.5-1.9v-5l2.2,0.1c-0.1-0.2-0.3-0.5-0.5-0.8C43.7,7.8,41,8,39.2,8.1
				c0,0.2-0.2,0.2-0.3,0.3l-0.8-2.5c0.5,0,1.2,0,1.8,0c0.2-0.5,0.5-1.1,0.7-1.6h-2.5V2H42V0.1l3,0.2c0,0.2-0.1,0.3-0.5,0.4V2h4.3
				v2.2h-2.4c1,1,2,2.3,2.5,3.3l-1.8,1l0.3,0c0,0.2-0.2,0.3-0.5,0.3L46.9,13.3L46.9,13.3z M42,15.3V8.5l2.6,0.1
				c0,0.2-0.2,0.3-0.5,0.3v6.3L42,15.3L42,15.3z M43.7,4.2c-0.1,0.1-0.3,0.2-0.5,0.2c-0.2,0.4-0.5,0.9-0.7,1.4L45,5.7
				c-0.2-0.2-0.4-0.5-0.6-0.7l1.7-0.9L43.7,4.2L43.7,4.2z"/>
		</g>
		<g>
			<path class="st0" d="M18,26.9V21h3.2v1h-2v1.5H21v0.9h-1.9v2.5H18z"/>
			<path class="st0" d="M24.8,24.1c0.4,0.2,0.6,0.6,0.8,1.2c0.2,0.7,0.3,1.4,0.4,1.6h-1.2c-0.1-0.2-0.2-0.7-0.4-1.4
				c-0.1-0.8-0.4-1-0.9-1h-0.4v2.4h-1.1v-5.8c0.4-0.1,0.9-0.1,1.5-0.1c0.7,0,2.2,0.1,2.2,1.7C25.9,23.3,25.4,23.9,24.8,24.1
				L24.8,24.1L24.8,24.1z M23.7,23.6c0.6,0,1-0.4,1-0.9c0-0.8-0.6-0.9-1-0.9c-0.2,0-0.4,0-0.5,0v1.8L23.7,23.6L23.7,23.6z"/>
			<path class="st0" d="M30.1,26.9h-3.3V21H30v1h-2v1.4h1.9v0.9h-1.9v1.6h2.2C30.1,25.9,30.1,26.9,30.1,26.9z"/>
			<path class="st0" d="M31,21h1.1v5.9H31V21z"/>
			<path class="st0" d="M37.5,26.6c-0.3,0.1-1,0.3-1.7,0.3c-0.9,0-1.6-0.2-2.1-0.7C33.2,25.7,33,24.9,33,24c0-2,1.3-3.1,3-3.1
				c0.6,0,1.1,0.1,1.4,0.2l-0.2,0.9c-0.3-0.1-0.6-0.2-1.1-0.2c-1,0-1.8,0.6-1.8,2.1s0.7,2,1.7,2c0.3,0,0.5,0,0.6-0.1v-1.4h-0.8v-0.9
				h1.9L37.5,26.6L37.5,26.6z"/>
			<path class="st0" d="M42.8,26.9h-1.1v-2.5h-2v2.5h-1.1V21h1.1v2.4h2V21h1.1V26.9z"/>
			<path class="st0" d="M47.5,22h-1.5v4.9h-1.1V22h-1.5v-1h4V22z"/>
		</g>
	</g>
</g>
</svg>
