<svg width="78" height="347" viewBox="0 0 78 347" fill="none" xmlns="http://www.w3.org/2000/svg">
<path d="M55.15 27.9254H64.84V31.5554H41.62V27.9254H51.265V23.6054H44.65V20.0354H51.265V16.1504H46.345C45.625 17.6504 44.815 19.0604 43.945 20.1554C43.21 19.4654 41.695 18.4004 40.78 17.8304C42.61 15.6554 44.23 11.7254 45.07 8.11045L49.585 9.34045C49.48 9.56545 49.225 9.73045 48.82 9.70045C48.535 10.6454 48.235 11.5904 47.875 12.5354H51.265V7.96045L55.93 8.21545C55.9 8.50045 55.675 8.68045 55.135 8.77045V12.5204H63.55V16.1504H55.135V20.0354H62.455V23.6054H55.135V27.9254H55.15Z" fill="white"/>
<path d="M42.955 48.641C44.515 49.181 46.66 50.171 47.725 51.011L45.58 54.101C44.635 53.231 42.565 52.106 40.96 51.446L42.955 48.641ZM41.71 63.266C42.985 61.331 44.83 58.181 46.27 55.151L49.105 57.476C47.86 60.176 46.48 62.816 45.28 64.826C45.43 65.006 45.49 65.186 45.49 65.366C45.49 65.546 45.445 65.696 45.34 65.831L41.71 63.281V63.266ZM65.29 52.751H58.6V55.331H63.7V65.801H59.95V64.886H53.665V65.906H50.095V55.346H54.835V52.766H48.475V49.226H54.835V46.751C53.2 46.976 51.52 47.156 49.915 47.291C49.78 46.526 49.375 45.326 49 44.486L47.065 47.246C46.15 46.346 44.11 45.206 42.52 44.516L44.515 41.786C46.015 42.326 48.01 43.286 49.075 44.111C53.56 43.706 58.315 42.836 61.3 41.666L64.435 44.681C64.255 44.831 64.06 44.831 63.625 44.831C62.17 45.341 60.46 45.776 58.6 46.151V49.241H65.29V52.781V52.751ZM59.95 61.526V58.661H53.665V61.526H59.95Z" fill="white"/>
<path d="M43.015 82.3155C44.365 82.8255 46.18 83.7255 47.05 84.4905L44.875 87.4755C44.08 86.7105 42.355 85.6605 40.975 85.0455L43.015 82.3155ZM41.35 97.4805C42.295 95.4705 43.57 92.2755 44.56 89.2155L47.575 91.1355C46.735 93.8655 45.79 96.5655 44.98 98.5605C45.16 98.7705 45.235 98.9655 45.235 99.1455C45.235 99.2955 45.205 99.4305 45.13 99.5355L41.35 97.4955V97.4805ZM61.795 84.4905H57.865V85.5105H64.63V96.6555C64.63 99.0555 63.76 99.5955 60.265 99.5955C60.16 98.8005 59.83 97.6755 59.5 96.9405C60.085 96.9705 60.82 96.9705 61.06 96.9705C61.39 96.9705 61.39 96.8655 61.39 95.9205C61.075 96.1755 60.805 96.4755 60.655 96.7155C60.325 96.2505 60.04 95.6655 59.815 95.0055C59.53 95.6505 59.125 96.2805 58.54 96.7905C58.39 96.5355 58.165 96.2055 57.88 95.8905V99.4905H54.67V95.9505C54.385 96.2055 54.115 96.4905 53.95 96.7155C53.62 96.2805 53.365 95.7255 53.155 95.1105C52.87 95.8305 52.435 96.5355 51.835 97.1055C51.715 96.8805 51.475 96.5655 51.22 96.2955V99.6405H48.1V85.5255H54.655V84.5055H51.01V80.2905H47.725V78.2955L45.865 80.8005C45.07 80.0055 43.285 78.9105 41.905 78.2805L43.975 75.5805C45.205 76.0605 46.765 76.8555 47.725 77.5755V77.1105H51.01V75.3555L55.225 75.5805C55.195 75.8655 55 76.0455 54.49 76.1205V77.1105H58.195V75.3555L62.59 75.5805C62.56 75.8655 62.335 76.0455 61.825 76.1205V77.1105H65.32V80.3055H61.825V84.5205L61.795 84.4905ZM51.535 89.1105H54.145C54.175 90.8955 54.295 92.5005 54.655 93.7005V88.5705H51.205V94.7655C51.685 93.8505 51.895 92.7255 51.94 91.7055L52.525 91.7805L52.495 91.2705H51.52V89.0955L51.535 89.1105ZM54.475 80.2755V81.4305H58.18V80.2755H54.475ZM61.39 88.5705H57.865V94.6155C58.405 93.7755 58.6 92.6955 58.66 91.7055L59.245 91.7805L59.215 91.2705H58.24V89.0955H60.85C60.88 90.9255 61 92.5605 61.39 93.7605V88.5555V88.5705Z" fill="white"/>
<path d="M59.545 118.225C57.655 115.9 55.87 113.245 54.52 110.665L58.195 109.21C59.77 112.345 62.935 115.975 65.755 118.24C64.765 119.035 63.31 120.565 62.59 121.615C62.215 121.255 61.855 120.88 61.465 120.46C61.24 127.675 60.955 130.585 60.115 131.635C58.99 133.09 57.64 133.27 53.785 133.195C53.74 132.1 53.23 130.495 52.555 129.445C53.83 129.55 55.03 129.58 55.675 129.58C56.11 129.58 56.395 129.505 56.695 129.19C57.16 128.68 57.385 126.565 57.565 121.84H53.275C52.555 126.355 51.235 130.795 44.335 133.48C43.87 132.43 42.805 130.87 41.905 130.03C47.5 128.2 48.82 125.2 49.3 121.84H45.475V120.055C44.86 120.67 44.23 121.225 43.555 121.735C42.895 120.94 41.485 119.56 40.615 118.87C43.63 116.83 46.48 113.02 47.995 109.255L52.51 110.785C52.39 111.04 52.075 111.175 51.67 111.115C50.5 113.62 48.91 116.11 47.125 118.24H58.54L59.53 118.21L59.545 118.225Z" fill="white"/>
<path d="M58.75 150.056C59.515 147.791 60.16 145.211 60.49 143.006L65.29 142.706C64.45 145.181 63.295 147.761 62.02 149.771L58.75 150.056Z" fill="white"/>
<path d="M47.095 178.705L49.105 177.985L49.795 181.195C47.29 182.365 44.635 183.52 42.85 184.255C42.82 184.54 42.64 184.735 42.415 184.81L40.81 180.745C41.605 180.52 42.565 180.205 43.645 179.845V173.11H41.425V169.615H43.645V163.84L47.83 164.065C47.8 164.35 47.605 164.5 47.095 164.575V169.6H49.27V173.095H47.095V178.66V178.705ZM54.49 182.425C54.49 183.985 54.67 184.165 56.17 184.165H60.46C61.78 184.165 62.05 183.655 62.275 181.21C63.07 181.75 64.495 182.335 65.485 182.53C65.05 186.205 63.985 187.45 60.82 187.45H55.825C52.015 187.45 50.98 186.385 50.98 182.425V176.455L49.27 177.19L47.89 173.905L50.98 172.6V166.195L55.24 166.42C55.21 166.705 55.015 166.855 54.505 166.96V171.1L55.885 170.515V163.63L60.1 163.855C60.07 164.14 59.875 164.29 59.365 164.365V169.03L61.18 168.265L61.915 167.785L64.825 168.835C64.75 168.985 64.6 169.165 64.36 169.3C64.36 174.22 64.315 176.875 64.24 177.955C64.135 180.355 62.605 180.79 60.16 180.79C60.055 179.875 59.785 178.465 59.395 177.73C59.725 177.76 60.16 177.76 60.37 177.76C60.625 177.76 60.745 177.685 60.805 177.295C60.85 176.995 60.85 175.54 60.85 172.21L59.365 172.855V181.81H55.9V174.355L54.52 174.94V182.44L54.49 182.425Z" fill="white"/>
<path d="M61.84 208.466L64.165 209.306C64.12 209.531 63.985 209.606 63.865 209.771C63.22 212.426 62.155 214.616 60.67 216.401C62.08 217.211 63.73 217.811 65.65 218.186C64.84 218.981 63.73 220.511 63.22 221.531C61.135 220.976 59.365 220.151 57.865 219.056C56.41 220.121 54.7 220.976 52.78 221.606C52.375 220.631 51.475 219.101 50.77 218.336C52.435 217.901 53.905 217.271 55.18 216.416C54.265 215.246 53.5 213.896 52.84 212.351L54.595 211.886H52.15V208.541H52.87C52.39 207.986 51.67 207.311 51.13 206.876V206.981H46.465V208.511H51.37V211.931H46.465V213.896L51.97 213.281L52.09 216.401C50.17 216.731 48.205 217.046 46.45 217.316V221.501H42.925V217.856L42.49 217.931C42.445 218.186 42.205 218.336 42.01 218.396L40.81 214.466C41.455 214.421 42.16 214.331 42.925 214.256V199.121L44.815 199.706C46.6 199.046 48.385 198.146 49.54 197.306L52.75 200.006C52.63 200.156 52.345 200.156 52.015 200.156C50.56 200.951 48.49 201.761 46.45 202.376V203.546H51.115V206.351C53.185 205.076 53.38 203.396 53.38 201.806V198.131H62.11V203.996C62.11 204.731 62.11 204.806 62.32 204.806C62.65 204.806 62.68 204.806 62.755 204.731C62.935 204.596 62.965 204.221 63.01 202.331C63.625 202.871 64.84 203.486 65.74 203.786C65.56 205.961 65.44 207.746 62.8 207.746H61.345C60.655 207.746 59.845 207.491 59.38 207.011C58.9 206.501 58.66 205.856 58.66 204.101V201.341H56.77C56.77 203.261 56.77 206.441 54.07 208.511H61.21L61.825 208.406L61.84 208.466ZM56.245 211.916C56.68 212.726 57.19 213.476 57.805 214.136C58.39 213.476 58.87 212.726 59.29 211.916H56.26H56.245Z" fill="white"/>
<path d="M43.015 237.955C44.365 238.465 46.18 239.365 47.05 240.13L44.875 243.115C44.08 242.35 42.355 241.3 40.975 240.685L43.015 237.955ZM41.35 253.12C42.295 251.11 43.57 247.915 44.56 244.855L47.575 246.775C46.735 249.505 45.79 252.205 44.98 254.2C45.16 254.41 45.235 254.605 45.235 254.785C45.235 254.935 45.205 255.07 45.13 255.175L41.35 253.135V253.12ZM61.795 240.13H57.865V241.15H64.63V252.295C64.63 254.695 63.76 255.235 60.265 255.235C60.16 254.44 59.83 253.315 59.5 252.58C60.085 252.61 60.82 252.61 61.06 252.61C61.39 252.61 61.39 252.505 61.39 251.56C61.075 251.815 60.805 252.115 60.655 252.355C60.325 251.89 60.04 251.305 59.815 250.645C59.53 251.29 59.125 251.92 58.54 252.43C58.39 252.175 58.165 251.845 57.88 251.53V255.13H54.67V251.59C54.385 251.845 54.115 252.13 53.95 252.355C53.62 251.92 53.365 251.365 53.155 250.75C52.87 251.47 52.435 252.175 51.835 252.745C51.715 252.52 51.475 252.205 51.22 251.935V255.28H48.1V241.165H54.655V240.145H51.01V235.93H47.725V233.935L45.865 236.44C45.07 235.645 43.285 234.55 41.905 233.92L43.975 231.22C45.205 231.7 46.765 232.495 47.725 233.215V232.75H51.01V230.995L55.225 231.22C55.195 231.505 55 231.685 54.49 231.76V232.75H58.195V230.995L62.59 231.22C62.56 231.505 62.335 231.685 61.825 231.76V232.75H65.32V235.945H61.825V240.16L61.795 240.13ZM51.535 244.75H54.145C54.175 246.535 54.295 248.14 54.655 249.34V244.21H51.205V250.405C51.685 249.49 51.895 248.365 51.94 247.345L52.525 247.42L52.495 246.91H51.52V244.735L51.535 244.75ZM54.475 235.915V237.07H58.18V235.915H54.475ZM61.39 244.21H57.865V250.255C58.405 249.415 58.6 248.335 58.66 247.345L59.245 247.42L59.215 246.91H58.24V244.735H60.85C60.88 246.565 61 248.2 61.39 249.4V244.195V244.21Z" fill="white"/>
<path d="M55.33 281.455V284.92C56.575 285.13 57.7 285.175 60.46 285.175C62.05 285.175 64.21 285.145 65.38 285.13C64.87 285.97 64.315 287.68 64.135 288.73H58.795C53.8 288.73 49.78 287.83 47.005 284.14C46.195 286 45.07 287.71 43.585 288.94C42.97 288.205 41.65 286.945 40.9 286.39C43.6 284.275 44.725 280.105 45.13 276.67L49.6 277.39C49.555 277.645 49.3 277.825 48.88 277.855C48.76 278.59 48.58 279.355 48.37 280.15C49.105 281.785 50.185 282.91 51.49 283.675V275.77H44.245V265.69H62.65V275.77H55.33V278.065H63.52V281.485H55.33V281.455ZM47.95 269.2V272.215H58.69V269.2H47.95Z" fill="white"/>
<path d="M11.245 46.8408C10.585 47.7558 9.89497 48.5808 9.20497 49.3458C8.84497 48.4008 7.92997 46.4358 7.38997 45.5358C9.63997 43.2408 11.965 39.0558 13.33 35.0508L17.485 36.5058C17.38 36.7308 17.095 36.8658 16.69 36.8358C16.045 38.3958 15.31 39.9558 14.515 41.4858L15.67 41.7858C15.595 42.0408 15.37 42.2508 14.905 42.2958V59.2458H11.23V46.8408H11.245ZM31.99 40.4358V44.1108H29.305V55.0308C29.305 58.4208 28.285 59.3208 22.105 59.3208C21.955 58.2708 21.37 56.6208 20.83 55.6008C21.895 55.6758 23.08 55.7058 23.89 55.7058C25.345 55.7058 25.555 55.7058 25.555 55.0158V44.1258H16.135V40.4508H25.555V35.2908L30.07 35.5008C30.04 35.7858 29.875 35.9808 29.305 36.0558V40.4508H31.99V40.4358ZM20.095 53.0958C19.63 51.4908 18.265 48.9558 17.035 47.0658L20.275 45.5058C21.55 47.2908 23.035 49.6608 23.62 51.3258L20.095 53.0808V53.0958Z" fill="white"/>
<path d="M20.485 84.7755H15.925V89.5755C15.925 91.8405 15.46 92.9505 11.695 92.9505C11.59 92.0055 11.185 90.6855 10.795 89.7855C10.54 90.3255 10.285 90.8355 9.99997 91.2405C9.33997 90.8055 8.16997 90.2655 7.38997 89.9955C8.25997 88.8255 8.79997 86.8305 9.05497 85.0155L12.475 85.8105C12.37 86.0355 12.175 86.1405 11.89 86.1105C11.665 87.3105 11.305 88.6305 10.795 89.7555C11.335 89.7855 11.965 89.7855 12.175 89.7855C12.4 89.7855 12.475 89.7105 12.475 89.4855V84.7905H7.73497V81.7755H20.485V84.7905V84.7755ZM12.445 74.5155V73.7205H7.92997V70.7355H12.445V68.6955L16.66 68.9205C16.63 69.2055 16.435 69.3555 15.925 69.4305V70.7355H20.365V73.7205H15.925V74.5155H19.555V77.4705H8.73997V74.5155H12.445ZM27.43 76.6305V78.8505C27.43 81.6555 28.48 86.7105 32.305 89.6505C31.675 90.4605 30.625 92.0055 30.085 92.9205C27.49 91.0005 26.02 86.9805 25.675 84.7305H25.645C25.255 87.0255 23.53 90.9105 20.62 92.9205C20.245 92.1105 19.195 90.4905 18.58 89.8005C19.135 89.3955 19.675 88.9605 20.14 88.4955L17.41 89.6205C17.26 88.6755 16.75 87.1455 16.24 85.9905L18.97 84.9405C19.51 85.9905 20.095 87.3855 20.275 88.3305C23.08 85.3455 23.845 81.2655 23.845 78.8355V77.2305C23.29 78.9105 22.615 80.4255 21.805 81.6255C21.25 81.0705 20.17 80.2005 19.33 79.6305V81.0555H9.06997V78.1005H19.3V78.8355C20.71 76.4055 21.52 72.4605 21.91 68.6055L26.17 69.4155C26.095 69.6705 25.87 69.8205 25.48 69.8205C25.3 70.9755 25.12 72.1155 24.865 73.2705H30.025L31.99 73.3155C31.99 73.4205 31.6 77.9355 30.745 81.2805L27.835 80.4405C27.985 79.4205 28.135 78.0405 28.27 76.6155H27.43V76.6305Z" fill="white"/>
<path d="M9.71497 109.315C11.065 109.825 12.88 110.725 13.75 111.49L11.575 114.475C10.78 113.71 9.05497 112.66 7.67497 112.045L9.71497 109.315ZM8.04997 124.48C8.99497 122.47 10.27 119.275 11.26 116.215L14.275 118.135C13.435 120.865 12.49 123.565 11.68 125.56C11.86 125.77 11.935 125.965 11.935 126.145C11.935 126.295 11.905 126.43 11.83 126.535L8.04997 124.495V124.48ZM28.495 111.49H24.565V112.51H31.33V123.655C31.33 126.055 30.46 126.595 26.965 126.595C26.86 125.8 26.53 124.675 26.2 123.94C26.785 123.97 27.52 123.97 27.76 123.97C28.09 123.97 28.09 123.865 28.09 122.92C27.775 123.175 27.505 123.475 27.355 123.715C27.025 123.25 26.74 122.665 26.515 122.005C26.23 122.65 25.825 123.28 25.24 123.79C25.09 123.535 24.865 123.205 24.58 122.89V126.49H21.37V122.95C21.085 123.205 20.815 123.49 20.65 123.715C20.32 123.28 20.065 122.725 19.855 122.11C19.57 122.83 19.135 123.535 18.535 124.105C18.415 123.88 18.175 123.565 17.92 123.295V126.64H14.8V112.525H21.355V111.505H17.71V107.29H14.425V105.295L12.565 107.8C11.77 107.005 9.98497 105.91 8.60497 105.28L10.675 102.58C11.905 103.06 13.465 103.855 14.425 104.575V104.11H17.71V102.355L21.925 102.58C21.895 102.865 21.7 103.045 21.19 103.12V104.11H24.895V102.355L29.29 102.58C29.26 102.865 29.035 103.045 28.525 103.12V104.11H32.02V107.305H28.525V111.52L28.495 111.49ZM18.235 116.11H20.845C20.875 117.895 20.995 119.5 21.355 120.7V115.57H17.905V121.765C18.385 120.85 18.595 119.725 18.64 118.705L19.225 118.78L19.195 118.27H18.22V116.095L18.235 116.11ZM21.175 107.275V108.43H24.88V107.275H21.175ZM28.09 115.57H24.565V121.615C25.105 120.775 25.3 119.695 25.36 118.705L25.945 118.78L25.915 118.27H24.94V116.095H27.55C27.58 117.925 27.7 119.56 28.09 120.76V115.555V115.57Z" fill="white"/>
<path d="M14.365 155.185C13.63 157 12.52 158.68 10.66 159.775L7.80997 157.765C9.38497 156.925 10.645 155.5 11.275 153.985L14.365 155.185ZM31.57 142.27V145.03H8.13997V142.27H13.99C13.855 141.76 13.675 141.22 13.51 140.77L14.155 140.59H10.09V137.83H17.995V135.97L22.495 136.195C22.465 136.495 22.24 136.66 21.73 136.75V137.815H29.62V140.575H26.935C26.815 140.68 26.605 140.725 26.35 140.725C26.125 141.19 25.84 141.715 25.54 142.255H31.585L31.57 142.27ZM21.715 157.33C22.435 157.33 22.615 157.045 22.705 155.5C23.365 155.98 24.715 156.4 25.645 156.565C25.21 156.205 24.73 155.845 24.295 155.545L27.1 153.685C28.78 154.75 30.88 156.445 31.87 157.72L28.855 159.79C28.225 158.875 26.995 157.675 25.72 156.625C25.39 159.325 24.475 160.075 22.09 160.075H18.745C15.4 160.075 14.59 159.235 14.59 156.625V154.66L17.29 154.81C16.99 154.66 16.705 154.525 16.42 154.405L17.215 153.61H12.055V145.6H27.7V153.61H21.55C22.09 153.91 22.6 154.195 22.96 154.48L20.665 156.835C20.155 156.4 19.315 155.89 18.4 155.38C18.34 155.41 18.265 155.425 18.19 155.425V156.595C18.19 157.255 18.37 157.33 19.255 157.33H21.7H21.715ZM15.565 147.88V148.525H24.04V147.88H15.565ZM15.565 150.655V151.3H24.04V150.655H15.565ZM22 142.255C22.21 141.745 22.39 141.13 22.54 140.575H17.05C17.275 141.13 17.485 141.745 17.59 142.255H22Z" fill="white"/>
<path d="M25.465 177.056C26.23 174.791 26.875 172.211 27.205 170.006L32.005 169.706C31.165 172.181 30.01 174.761 28.735 176.771L25.465 177.056Z" fill="white"/>
<path d="M15.685 194.861V197.741H7.75V194.861H15.685ZM31.99 196.106V199.526H30.925V211.136C30.925 213.911 30.235 214.961 25.75 214.961C25.645 214.046 25.21 212.531 24.775 211.571C25.765 211.616 26.785 211.616 27.145 211.616C27.475 211.586 27.61 211.496 27.61 211.136V207.281L25.165 207.836C25.195 206.771 25.045 205.316 24.79 203.876C24.43 204.491 24.025 205.121 23.59 205.736V211.511C23.59 214.091 22.645 214.886 18.97 214.886C18.85 214.046 18.385 212.666 17.95 211.871C18.865 211.916 19.87 211.916 20.2 211.916C20.53 211.916 20.635 211.796 20.635 211.451V209.276C19.36 210.581 17.95 211.721 16.495 212.651C16.21 212.171 15.655 211.346 15.145 210.686V213.491H11.425V214.466H8.665V205.616H15.145V209.696C16.345 208.961 17.485 208.016 18.565 206.936C17.92 207.086 17.32 207.221 16.825 207.326C16.795 207.551 16.615 207.716 16.42 207.791L15.22 204.626C15.58 204.581 15.985 204.491 16.42 204.446V192.956H18.34C18.55 192.146 18.745 191.246 18.85 190.556L22.735 191.366C22.63 191.576 22.42 191.696 22.045 191.696C21.91 192.086 21.76 192.506 21.58 192.941H23.59V202.256L24.535 202.616C24.43 202.136 24.34 201.671 24.205 201.236L26.755 200.621C27.115 201.791 27.4 203.126 27.595 204.401H27.625V199.496H23.98V196.076H27.625V190.736L31.66 190.916C31.63 191.201 31.45 191.381 30.94 191.456V196.076H32.005L31.99 196.106ZM15.07 198.506V201.266H8.74V198.506H15.07ZM8.74 204.791V202.031H15.07V204.791H8.74ZM15.04 191.366V194.126H8.845V191.366H15.04ZM12.28 210.656V208.481H11.38V210.656H12.28ZM20.605 195.596H19.225V196.496H20.605V195.596ZM20.605 199.121H19.225V200.036H20.605V199.121ZM19.225 202.661V203.936L20.605 203.651V202.661H19.225Z" fill="white"/>
<path d="M15.685 228.535V231.415H7.75V228.535H15.685ZM31.99 229.78V233.2H30.925V244.81C30.925 247.585 30.235 248.635 25.75 248.635C25.645 247.72 25.21 246.205 24.775 245.245C25.765 245.29 26.785 245.29 27.145 245.29C27.475 245.26 27.61 245.17 27.61 244.81V240.955L25.165 241.51C25.195 240.445 25.045 238.99 24.79 237.55C24.43 238.165 24.025 238.795 23.59 239.41V245.17C23.59 247.75 22.645 248.545 18.97 248.545C18.85 247.705 18.385 246.325 17.95 245.53C18.865 245.575 19.87 245.575 20.2 245.575C20.53 245.575 20.635 245.455 20.635 245.11V242.935C19.36 244.24 17.95 245.38 16.495 246.31C16.21 245.83 15.655 245.005 15.145 244.345V247.15H11.425V248.125H8.665V239.275H15.145V243.355C16.345 242.62 17.485 241.675 18.565 240.595C17.92 240.745 17.32 240.88 16.825 240.985C16.795 241.21 16.615 241.375 16.42 241.45L15.22 238.285C15.58 238.24 15.985 238.15 16.42 238.105V226.615H18.34C18.55 225.805 18.745 224.905 18.85 224.215L22.735 225.025C22.63 225.235 22.42 225.355 22.045 225.355C21.91 225.745 21.76 226.165 21.58 226.6H23.59V235.915L24.535 236.275C24.43 235.795 24.34 235.33 24.205 234.895L26.755 234.28C27.115 235.45 27.4 236.785 27.595 238.06H27.625V233.155H23.98V229.735H27.625V224.395L31.66 224.575C31.63 224.86 31.45 225.04 30.94 225.115V229.735H32.005L31.99 229.78ZM15.07 232.18V234.94H8.74V232.18H15.07ZM8.74 238.465V235.705H15.07V238.465H8.74ZM15.04 225.04V227.8H8.845V225.04H15.04ZM12.28 244.33V242.155H11.38V244.33H12.28ZM20.605 229.27H19.225V230.17H20.605V229.27ZM20.605 232.795H19.225V233.71H20.605V232.795ZM19.225 236.335V237.61L20.605 237.325V236.335H19.225Z" fill="white"/>
<path d="M16.3 273.745L16.6 276.94C13.735 277.6 10.75 278.245 8.81497 278.65C8.76997 278.905 8.52997 279.085 8.30497 279.115L7.38997 275.26C8.19997 275.155 9.14497 275.005 10.18 274.825V270.34H8.06497V266.95H10.18V263.125H7.88497V259.705H15.925V263.125H13.66V266.95H15.775V270.34H13.66V274.24L16.315 273.76L16.3 273.745ZM30.085 276.4H25.765V279.16C25.765 281.635 24.97 282.19 20.89 282.19C20.74 281.38 20.41 280.3 20.05 279.49C19.06 280.435 17.86 281.35 16.705 282.01C16.135 281.365 15.025 280.33 14.335 279.79C15.865 279.055 17.455 277.795 18.31 276.625L21.955 277.975C21.85 278.185 21.595 278.275 21.265 278.23C20.965 278.59 20.605 278.95 20.215 279.325C20.86 279.355 21.595 279.355 21.82 279.355C22.105 279.325 22.195 279.28 22.195 279.025V276.4H17.905V270.73H30.055V276.4H30.085ZM31.645 267.13V270.04H16.225V267.13H21.97V266.14H17.605V258.745H30.385V266.14H26.485C26.41 266.35 26.185 266.47 25.75 266.545V267.13H31.645ZM20.92 260.845V261.43H26.89V260.845H20.92ZM20.92 263.425V264.01H26.89V263.425H20.92ZM21.325 273.04V274.06H26.485V273.04H21.325ZM29.335 281.875C28.69 280.885 27.16 279.295 25.915 278.23L28.72 276.7C29.95 277.675 31.555 279.145 32.35 280.195L29.335 281.875Z" fill="white"/>
<path d="M29.725 292.93L32.095 293.8C32.065 293.98 31.99 294.16 31.84 294.28C31.15 296.47 30.31 299.08 29.29 301.78C31.36 304.36 31.99 306.1 31.99 307.645C31.99 312.82 28.495 312.82 26.275 312.745C26.245 311.77 25.84 310.3 25.285 309.295V315.85H21.64V295.285C21.085 296.635 20.44 297.94 19.72 299.17H20.965V302.365H17.575C17.17 302.875 16.765 303.355 16.345 303.82H20.245V315.685H16.75V314.815H13.51V315.91H10.165V308.77C9.84999 308.95 9.54999 309.13 9.21999 309.28C8.84499 308.485 7.94499 307.015 7.35999 306.295C8.33499 305.86 9.27999 305.32 10.165 304.735V303.82H11.41C11.995 303.355 12.535 302.875 13.075 302.365H7.97499V299.17H12.085V297.235H8.96499V294.07H12.085V291.745L16.24 291.97C16.21 292.225 16.015 292.405 15.505 292.48V294.055H17.695V295.87C18.1 295.03 18.46 294.16 18.76 293.26L21.625 294.175V293.02H28.945L29.71 292.9L29.725 292.93ZM16.765 307.885V306.73H13.525V307.885H16.765ZM13.525 311.89H16.765V310.645H13.525V311.89ZM15.52 299.185H15.805C16.24 298.57 16.645 297.91 17.005 297.25H15.52V299.185ZM25.3 296.53V309.19C25.915 309.235 26.455 309.235 26.8 309.235C28.075 309.235 28.33 308.65 28.33 307.48C28.33 306.235 27.64 304.855 25.555 302.425C26.215 300.28 26.785 298.315 27.235 296.53H25.3Z" fill="white"/>
<path d="M31.99 329.41C31.99 331.375 30.385 332.98 28.42 332.98C26.455 332.98 24.85 331.375 24.85 329.41C24.85 327.445 26.455 325.84 28.42 325.84C30.385 325.84 31.99 327.505 31.99 329.41ZM30.715 329.41C30.715 328.135 29.695 327.115 28.42 327.115C27.145 327.115 26.125 328.135 26.125 329.41C26.125 330.685 27.145 331.705 28.42 331.705C29.695 331.705 30.715 330.64 30.715 329.41Z" fill="white"/>
</svg>
