<svg width="352" height="127" viewBox="0 0 352 127" fill="none" xmlns="http://www.w3.org/2000/svg">
<g opacity="0.15">
<path d="M103.09 0.919922C104.64 0.629922 106.64 0.459961 108.79 0.459961C112.46 0.459961 114.95 1.22994 116.79 2.74994C118.88 4.46994 120.11 7.18992 120.11 11.1699C120.11 15.8999 118.48 18.6499 116.79 20.1699C114.78 21.9799 111.72 22.8599 107.88 22.8599C105.85 22.8599 104.21 22.7199 103.09 22.5699V0.909912V0.919922ZM107.3 19.4C107.73 19.49 108.36 19.4899 108.93 19.4899C112.97 19.5199 115.66 17.0299 115.66 11.2399C115.66 6.24993 113.22 3.78992 109.3 3.78992C108.41 3.78992 107.75 3.87996 107.29 3.95996V19.4099L107.3 19.4Z" fill="white"/>
<path d="M146.79 12.2599C148.34 12.8599 149.2 14.35 149.71 16.59C150.34 19.2 150.91 21.8299 151.34 22.6699H146.98C146.67 22.0399 146.12 20.12 145.6 17.45C145.03 14.61 144.14 13.7199 142.13 13.7199H140.7V22.6599H136.49V0.909912C137.95 0.649912 140.01 0.449951 142.16 0.449951C144.94 0.449951 150.56 0.789951 150.56 6.69995C150.56 9.38995 148.84 11.3699 146.78 12.1699V12.2599H146.79ZM142.46 10.5699C144.87 10.5699 146.33 9.16995 146.33 7.06995C146.33 4.22995 144.21 3.68994 142.66 3.68994C141.71 3.68994 141.06 3.74992 140.71 3.85992V10.5699H142.46Z" fill="white"/>
<path d="M179.6 22.6699H167.28V0.629883H179.14V4.17987H171.52V9.50989H178.71V12.9799H171.52V19.1099H179.6V22.6599V22.6699Z" fill="white"/>
<path d="M212.19 22.6699H207.75L206.17 16.8499H200.27L198.75 22.6699H194.45L200.7 0.629883H206.03L212.19 22.6699ZM205.57 13.6399L204.25 8.62988C203.91 7.24988 203.53 5.47988 203.25 4.12988H203.16C202.87 5.50988 202.5 7.30985 202.19 8.59985L200.87 13.6399H205.57Z" fill="white"/>
<path d="M249.56 22.6699H245.52L245.12 14.0999C245.01 11.1799 244.86 8.19986 244.89 5.41986H244.8C244.17 8.05986 243.37 10.9799 242.62 13.4399L239.93 22.3499H236.72L234.28 13.5799C233.56 11.0899 232.88 8.10985 232.36 5.40985H232.27C232.21 8.18985 232.07 11.4599 231.93 14.1799L231.5 22.6599H227.63L229.12 0.619873H234.36L236.74 8.8999C237.46 11.5599 238.09 14.1399 238.57 16.6699H238.66C239.18 14.2099 239.83 11.5399 240.58 8.8999L243.07 0.619873H248.29L249.55 22.6599L249.56 22.6699Z" fill="white"/>
<path d="M66.66 57.05V35.01H78.47V38.56H70.9V44.38H77.95V47.85H70.9V57.05H66.66Z" fill="white"/>
<path d="M107.35 57.05H95.23V35.01H99.47V53.46H107.35V57.04V57.05Z" fill="white"/>
<path d="M139.5 57.05H135.06L133.48 51.23H127.58L126.06 57.05H121.76L128.01 35.01H133.34L139.5 57.05ZM132.88 48.02L131.56 43.01C131.22 41.63 130.84 39.86 130.56 38.51H130.47C130.18 39.89 129.81 41.69 129.5 42.98L128.18 48.02H132.88Z" fill="white"/>
<path d="M171.48 56.1901C170.19 56.6801 167.7 57.2801 165.2 57.2801C161.85 57.2801 159.3 56.4201 157.43 54.5901C155.54 52.7301 154.45 49.72 154.45 46.22C154.45 38.77 159.41 34.79 165.74 34.79C167.98 34.79 169.84 35.1901 170.9 35.7101L170.01 39.2101C169.01 38.7501 167.75 38.41 165.8 38.41C161.87 38.41 158.89 40.8201 158.89 46.1501C158.89 51.4801 161.61 53.8301 165.25 53.8301C166.28 53.8301 167.06 53.6901 167.43 53.5101V48.1201H164.25V44.7701H171.47V56.2001L171.48 56.1901Z" fill="white"/>
<path d="M199.19 39.1699C198.42 38.7699 197.07 38.2199 195.26 38.2199C193.03 38.2199 192.02 39.4199 192.02 40.6599C192.02 42.2399 193.11 42.9499 195.8 44.1799C199.32 45.7599 200.9 47.7899 200.9 50.6799C200.9 54.5199 198.01 57.33 192.88 57.33C190.7 57.33 188.5 56.7299 187.46 56.0999L188.29 52.5499C189.44 53.2399 191.27 53.78 193.05 53.78C195.4 53.78 196.63 52.66 196.63 51.03C196.63 49.4 195.57 48.51 193.13 47.45C189.81 46.02 187.74 43.95 187.74 41.09C187.74 37.48 190.58 34.7 195.33 34.7C197.42 34.7 199.03 35.19 200.06 35.7L199.17 39.1699H199.19Z" fill="white"/>
<path d="M233.32 57.05H229.08V47.56H221.57V57.05H217.33V35.01H221.57V43.81H229.08V35.01H233.32V57.05Z" fill="white"/>
<path d="M250.8 35.02H255.04V57.06H250.8V35.02Z" fill="white"/>
<path d="M272.52 35.2998C273.9 35.0398 275.79 34.8398 278.22 34.8398C281 34.8398 283.09 35.3798 284.5 36.5898C285.82 37.7098 286.62 39.4798 286.62 41.5198C286.62 47.5698 281.58 48.9098 278.28 48.9098C277.68 48.9098 277.16 48.8798 276.73 48.7998V57.0498H272.52V35.2998ZM276.73 45.4698C277.13 45.5598 277.59 45.5798 278.22 45.5798C280.86 45.5798 282.4 44.0898 282.4 41.7098C282.4 39.3298 280.91 38.1298 278.56 38.1298C277.7 38.1298 277.1 38.2198 276.73 38.2998V45.4598V45.4698Z" fill="white"/>
<path d="M92.98 83.9099C92.98 89.9899 90.06 91.7599 85.96 91.7599C84.96 91.7599 83.72 91.59 82.98 91.33L83.44 87.8599C83.98 88.0299 84.73 88.1799 85.56 88.1799C87.48 88.1799 88.74 87.3199 88.74 83.8799V69.4099H92.98V83.9099Z" fill="white"/>
<path d="M110.23 69.4099H114.47V91.45H110.23V69.4099Z" fill="white"/>
<path d="M148 91.4399H143.76L139.03 82.3299C137.86 80.0699 136.57 77.3399 135.65 74.9399H135.54C135.71 77.6599 135.8 80.7599 135.8 84.6799V91.4399H131.96V69.3999H136.55L141.19 78.3399C142.36 80.5499 143.6 83.2399 144.49 85.5299H144.55C144.29 82.7199 144.18 79.5999 144.18 76.0199V69.3999H148.02V91.4399H148Z" fill="white"/>
<path d="M181.44 90.58C180.15 91.07 177.66 91.6699 175.16 91.6699C171.81 91.6699 169.26 90.8099 167.39 88.9799C165.5 87.1199 164.41 84.1099 164.41 80.6099C164.41 73.1599 169.37 69.1799 175.7 69.1799C177.94 69.1799 179.8 69.5799 180.86 70.0999L179.97 73.5999C178.97 73.1399 177.71 72.7999 175.76 72.7999C171.83 72.7999 168.85 75.2099 168.85 80.5399C168.85 85.8699 171.57 88.2199 175.21 88.2199C176.24 88.2199 177.02 88.0799 177.39 87.9099V82.52H174.21V79.1699H181.43V90.5999L181.44 90.58Z" fill="white"/>
<path d="M217.77 69.69C219.32 69.4 221.32 69.23 223.47 69.23C227.14 69.23 229.63 70 231.47 71.52C233.56 73.24 234.79 75.96 234.79 79.94C234.79 84.67 233.16 87.42 231.47 88.94C229.46 90.75 226.4 91.63 222.56 91.63C220.53 91.63 218.89 91.49 217.77 91.34V69.68V69.69ZM221.98 88.17C222.41 88.26 223.04 88.26 223.61 88.26C227.65 88.29 230.34 85.8 230.34 80.01C230.34 75.02 227.9 72.56 223.98 72.56C223.09 72.56 222.43 72.65 221.97 72.73V88.18L221.98 88.17Z" fill="white"/>
<path d="M266.95 82.2999C266.95 88.7499 263.88 91.7599 258.9 91.7599C253.92 91.7599 251.13 88.8099 251.13 82.3299V69.3799H255.37V82.6999C255.37 86.5699 256.83 88.2599 259.01 88.2599C261.3 88.2599 262.71 86.6299 262.71 82.6999V69.3799H266.95V82.2999Z" fill="white"/>
<path d="M18.56 125.83H14.12L12.54 120.01H6.64001L5.12001 125.83H0.820007L7.07001 103.79H12.4L18.56 125.83ZM11.94 116.8L10.62 111.79C10.28 110.41 9.90001 108.64 9.62001 107.29H9.53001C9.24001 108.67 8.87001 110.47 8.56001 111.76L7.24001 116.8H11.94Z" fill="white"/>
<path d="M49.76 103.79L43.05 125.83H38.21L31.82 103.79H36.46L38.95 113.53C39.61 116.14 40.27 118.77 40.73 121.44H40.82C41.31 118.8 41.97 116.11 42.65 113.53L45.2 103.79H49.76Z" fill="white"/>
<path d="M65.21 103.79H69.45V125.83H65.21V103.79Z" fill="white"/>
<path d="M103.06 125.83H98.62L97.04 120.01H91.14L89.62 125.83H85.32L91.57 103.79H96.9L103.06 125.83ZM96.44 116.8L95.12 111.79C94.78 110.41 94.4 108.64 94.12 107.29H94.03C93.74 108.67 93.37 110.47 93.06 111.76L91.74 116.8H96.44Z" fill="white"/>
<path d="M131.58 107.46H126.14V125.83H121.9V107.46H116.48V103.79H131.58V107.46Z" fill="white"/>
<path d="M147.25 103.79H151.49V125.83H147.25V103.79Z" fill="white"/>
<path d="M186.37 114.54C186.37 122.22 182.47 126.15 177 126.15C171.18 126.15 167.89 121.28 167.89 114.89C167.89 108.5 171.53 103.46 177.29 103.46C183.39 103.46 186.37 108.68 186.37 114.55V114.54ZM172.33 114.8C172.33 119.13 174.02 122.68 177.14 122.68C180.26 122.68 181.93 119.16 181.93 114.71C181.93 110.67 180.41 106.92 177.17 106.92C173.93 106.92 172.33 110.76 172.33 114.8Z" fill="white"/>
<path d="M218.84 125.83H214.6L209.87 116.72C208.7 114.46 207.41 111.73 206.49 109.33H206.38C206.55 112.05 206.64 115.15 206.64 119.07V125.83H202.8V103.79H207.38L212.02 112.73C213.19 114.94 214.43 117.63 215.32 119.92H215.38C215.12 117.11 215.01 113.99 215.01 110.41V103.79H218.85V125.83H218.84Z" fill="white"/>
<path d="M269.79 125.29C268.96 125.69 267.18 126.12 264.92 126.12C258.3 126.12 254.63 121.62 254.63 115.09C254.63 107.38 259.59 103.48 265.43 103.48C267.81 103.48 269.36 103.97 269.99 104.31L269.16 107.75C268.3 107.38 267.15 107.03 265.64 107.03C262 107.03 259.08 109.52 259.08 114.85C259.08 119.84 261.63 122.5 265.61 122.5C266.93 122.5 268.33 122.24 269.19 121.87L269.79 125.28V125.29Z" fill="white"/>
<path d="M286.06 103.79H290.3V125.83H286.06V103.79Z" fill="white"/>
<path d="M321.11 107.46H315.67V125.83H311.43V107.46H306.01V103.79H321.11V107.46Z" fill="white"/>
<path d="M351.8 103.79L345.27 116.71V125.82H341.03V116.85L334.78 103.78H339.51L341.69 109.2C342.32 110.78 342.84 112.15 343.35 113.67H343.41C343.84 112.21 344.38 110.78 345.02 109.17L347.14 103.78H351.81L351.8 103.79Z" fill="white"/>
</g>
</svg>
