<svg width="594" height="71" viewBox="0 0 594 71" fill="none" xmlns="http://www.w3.org/2000/svg">
<path d="M3.42026 2.42498V6.27998C3.42026 8.99498 3.22528 12.955 1.80028 15.7C1.60528 15.52 1.17025 15.265 0.885254 15.145C2.25025 12.535 2.37024 8.88998 2.37024 6.26498V1.40498H15.8702V2.40998H3.42026V2.42498ZM10.1403 12.16V14.335H15.9453V15.28H3.19527V14.335H5.40027V10.75L6.76527 10.855C6.75027 10.975 6.66024 11.035 6.45024 11.065V14.335H9.07524V9.54998L10.4553 9.65498C10.4403 9.77498 10.3653 9.84998 10.1253 9.86498V11.275H14.2352V12.175H10.1253L10.1403 12.16ZM7.12526 9.56498H6.18025V7.05998C5.61025 8.01998 4.83024 8.94998 4.11024 9.48998C3.96024 9.26498 3.67527 8.94998 3.48027 8.78498C4.29027 8.27498 5.17525 7.28498 5.76025 6.29498H3.99026V5.42498H6.19527V4.16498C5.58027 4.25498 4.93525 4.34498 4.35025 4.38998C4.30525 4.20998 4.17028 3.89498 4.05028 3.69998C5.50528 3.53498 7.20025 3.26498 8.05525 2.87498L8.94025 3.54998C8.94025 3.54998 8.86527 3.59498 8.64027 3.59498C8.23527 3.74498 7.71026 3.89498 7.12526 3.99998V5.42498H9.07524V6.29498H7.12526V6.41498C7.57526 6.72998 8.71527 7.55498 9.01527 7.80998L8.43025 8.54498C8.19025 8.25998 7.62026 7.74998 7.12526 7.32998V9.57998V9.56498ZM12.9003 9.56498H11.9402V6.68498C11.2802 7.79498 10.3053 8.88998 9.42026 9.48998C9.27026 9.26498 8.98524 8.94998 8.79024 8.78498C9.69024 8.27498 10.6803 7.29998 11.3103 6.29498H9.63028V5.42498H11.9402V4.14998C11.2802 4.22498 10.6203 4.31499 10.0053 4.35999C9.96028 4.16499 9.82528 3.84998 9.72028 3.65498C11.2503 3.50498 13.1102 3.23498 14.0402 2.84498C14.6102 3.24998 14.7753 3.38498 14.9253 3.51998C14.8653 3.56498 14.8503 3.56498 14.6253 3.56498C14.1753 3.72998 13.5603 3.86499 12.9003 3.98499V5.42498H15.6902V6.29498H13.5153C14.1303 7.28498 15.1353 8.21498 16.1403 8.67998C15.9153 8.85998 15.6153 9.18998 15.4653 9.42998C14.4753 8.85998 13.5303 7.80998 12.8853 6.72998V9.57998L12.9003 9.56498Z" fill="white"/>
<path d="M24.7798 9.65503C24.6898 9.38503 24.5548 9.04003 24.4048 8.68003L22.9048 8.75503V15.73H21.9298V8.80003C21.0298 8.83003 20.2198 8.86003 19.5898 8.89003C19.5598 9.02503 19.4548 9.07003 19.3498 9.10003L19.0498 7.88503H20.1748C20.5348 7.45003 20.9098 6.92503 21.2998 6.38503C20.8048 5.62003 19.9648 4.67503 19.2148 3.95503L19.7998 3.25003C19.9798 3.41503 20.1448 3.58003 20.3248 3.76003C20.8798 2.80003 21.4948 1.51003 21.8548 0.580032L23.0248 1.07503C22.9498 1.19503 22.8298 1.22503 22.6648 1.21003C22.2448 2.14003 21.5248 3.46003 20.9098 4.37503C21.2848 4.78003 21.6298 5.17003 21.8698 5.54503C22.5748 4.48003 23.2198 3.35503 23.6998 2.45503L24.8398 2.99503C24.7948 3.07003 24.6598 3.14503 24.4798 3.14503C23.6548 4.52503 22.3498 6.47503 21.2098 7.88503L23.9998 7.84003C23.6998 7.28503 23.3848 6.71503 23.0398 6.22003L23.8498 5.86003C24.5998 6.92503 25.3648 8.32003 25.6498 9.23503L24.7948 9.65503H24.7798ZM21.2998 10.27C21.2698 10.39 21.1648 10.45 20.9698 10.45C20.7598 11.815 20.3848 13.39 19.8898 14.35C19.6798 14.215 19.3198 14.05 19.0798 13.945C19.5598 13.03 19.8898 11.47 20.1148 9.98503L21.2998 10.285V10.27ZM24.5698 13.18C24.4348 12.37 24.0298 11.125 23.6098 10.195L24.4348 9.94003C24.8848 10.855 25.3198 12.07 25.4548 12.88L24.5548 13.195L24.5698 13.18ZM30.2698 14.335H34.3948V15.325H24.6898V14.335H29.1748V10.99H25.8448V10H33.8248V10.99H30.2698V14.335ZM28.1698 3.38503C28.1248 3.50503 28.0198 3.56503 27.8248 3.55003C27.5098 4.13503 26.8798 5.24503 26.3248 6.10003C27.0598 7.06003 27.7948 8.24503 28.1398 8.99503L27.2248 9.40003C26.8648 8.53003 26.0998 7.25503 25.2598 6.11503C25.9048 5.11003 26.6248 3.86503 26.9998 3.07003L28.1698 3.40003V3.38503ZM34.2598 1.43503V2.44003H25.3348V1.43503H34.2598ZM30.1498 9.37003C29.7748 8.53003 28.9498 7.24003 28.0348 6.10003C28.7398 5.11003 29.4898 3.85003 29.8798 3.07003L31.0348 3.40003C31.0048 3.52003 30.8848 3.58003 30.7048 3.56503C30.3748 4.15003 29.6998 5.24503 29.1448 6.08503C29.8948 7.04503 30.6898 8.21503 31.0648 8.96503L30.1498 9.37003ZM33.8848 3.40003C33.8398 3.52003 33.7348 3.56503 33.5398 3.55003C33.2098 4.13503 32.5348 5.24503 31.9498 6.07003C32.7448 7.03003 33.5848 8.20003 33.9898 8.95003L33.0898 9.38503C32.6698 8.51503 31.7848 7.22503 30.8398 6.10003C31.5598 5.09503 32.3248 3.85003 32.7148 3.05503L33.8848 3.40003Z" fill="white"/>
<path d="M49.6504 13.705H52.4403V14.8H37.7554V13.705H41.4904C41.8804 12.16 42.3004 10.165 42.7054 8.15498H39.4804V7.07498H42.9153C43.1553 5.76998 43.3953 4.46498 43.5903 3.29498H38.7003V2.19998H51.5704V3.29498H44.7754C44.5804 4.47998 44.3404 5.76998 44.0704 7.07498H49.6504V13.705ZM48.5403 8.15498H43.8754C43.4704 10.21 43.0504 12.175 42.7054 13.705H48.5403V8.15498Z" fill="white"/>
<path d="M70.7244 11.59H64.8294C66.3444 12.94 68.8194 14.095 71.0844 14.605C70.8594 14.815 70.5294 15.235 70.3794 15.52C68.0244 14.89 65.3994 13.48 63.8244 11.83V15.715H62.7294V11.935C61.1694 13.51 58.6344 14.845 56.3394 15.49C56.1894 15.235 55.8894 14.815 55.6494 14.605C57.8844 14.095 60.3444 12.925 61.8144 11.59H55.9344V10.645H62.7294V9.235L64.1544 9.325C64.1394 9.445 64.0494 9.52 63.8244 9.55V10.645H70.7244V11.59ZM59.5194 7.81L58.5144 7.465C58.9944 6.94 59.5494 6.265 60.1194 5.545H56.1744V4.615H60.8394C61.2444 4.06 61.6494 3.52 61.9944 3.04L63.2694 3.445C63.2394 3.52 63.1194 3.595 62.8794 3.565C62.6544 3.895 62.3694 4.255 62.0994 4.63H70.5894V5.56H67.2744C66.8394 6.46 66.2244 7.21 65.3394 7.825C67.0194 8.26 68.5794 8.74 69.7194 9.175L69.0444 9.97C67.8744 9.52 66.0894 8.965 64.1844 8.455C62.6244 9.16 60.3744 9.625 57.0294 9.85C56.9844 9.61 56.8194 9.205 56.6694 8.965C59.2944 8.8 61.2294 8.485 62.6544 8.05C61.7094 7.81 60.7494 7.6 59.8494 7.42L59.5194 7.81ZM57.6444 2.785V4.195H56.6244V1.81H62.7744V0.550003L64.1994 0.625002C64.1844 0.760002 64.0794 0.820004 63.8694 0.850004V1.795H70.1394V4.18H69.0744V2.77H57.6444V2.785ZM61.3644 5.545C61.0494 5.935 60.7494 6.325 60.4344 6.7C61.5744 6.91 62.8044 7.195 64.0194 7.48C64.9794 6.97 65.5944 6.34 66.0294 5.545H61.3644Z" fill="white"/>
<path d="M81.2701 0.969986C81.2251 1.08999 81.0901 1.14998 80.8951 1.14998C80.6851 1.82498 80.4602 2.51499 80.1752 3.20499H88.8002V4.26999H79.7102C79.1702 5.42499 78.5401 6.56498 77.7601 7.62998L77.9401 7.67499C77.9101 7.79499 77.8051 7.86999 77.6101 7.88499V15.76H76.5152V9.14499C75.9302 9.77499 75.2852 10.345 74.5952 10.87C74.4602 10.57 74.1751 10.12 73.9951 9.87998C74.9401 9.18998 75.7952 8.36499 76.5152 7.43499V7.31499H76.5751C77.3101 6.38499 77.9401 5.34999 78.4651 4.26999H74.3701V3.20499H78.9451C79.3051 2.33499 79.6052 1.46499 79.8452 0.594986L81.2701 0.969986ZM84.3002 9.44499V14.32H88.8002V15.34H78.7951V14.32H83.1901V9.44499H79.4401V8.42499H83.1901V5.15499L84.6151 5.24499C84.6001 5.36499 84.5102 5.42499 84.3002 5.45499V8.42499H88.1402V9.44499H84.3002Z" fill="white"/>
<path d="M95.4748 10.66L97.3648 9.90995L97.5748 10.855C95.8798 11.635 94.0648 12.4 92.9248 12.895C92.9248 13.03 92.8648 13.12 92.7448 13.165L92.1748 11.92C92.7898 11.71 93.5698 11.395 94.4248 11.08V5.66496H92.4598V4.61496H94.4248V0.714958L95.7898 0.819958C95.7748 0.939958 95.6698 0.999957 95.4598 1.02996V4.61496H97.3048V5.66496H95.4598V10.645L95.4748 10.66ZM99.7498 13.27C99.7498 14.17 99.9598 14.38 101.1 14.38H105.255C106.23 14.38 106.395 13.93 106.53 11.965C106.785 12.16 107.22 12.34 107.52 12.4C107.34 14.65 106.98 15.37 105.27 15.37H101.07C99.2248 15.37 98.6998 14.965 98.6998 13.255V7.76495L97.0498 8.46996L96.6298 7.49496L98.6998 6.60996V2.13995L100.065 2.22996C100.05 2.34996 99.9448 2.42496 99.7348 2.45496V6.14496L102.105 5.13995V0.594955L103.455 0.669954C103.44 0.789954 103.35 0.864957 103.14 0.894957V4.68995L105.75 3.56495L105.975 3.38496L106.875 3.71496C106.875 3.71496 106.8 3.84996 106.71 3.89496C106.71 6.98496 106.665 9.56495 106.53 10.18C106.38 11.17 105.825 11.335 104.1 11.335C104.055 11.02 103.965 10.615 103.845 10.36C104.25 10.39 104.82 10.39 105 10.39C105.255 10.39 105.435 10.315 105.525 9.90995C105.63 9.50495 105.66 7.47996 105.66 4.74996L103.155 5.82996V12.085H102.105V6.27996L99.7348 7.28495V13.255L99.7498 13.27Z" fill="white"/>
<path d="M113.52 7.70498C112.875 7.16498 111.57 6.51998 110.505 6.14498C110.805 5.67998 110.925 5.46997 111.06 5.27497C112.125 5.61997 113.445 6.21998 114.09 6.72998L113.52 7.70498ZM110.94 14.86C111.735 13.6 112.875 11.455 113.715 9.60998L114.555 10.255C113.79 11.965 112.785 13.975 112.035 15.205C112.095 15.28 112.11 15.355 112.11 15.43C112.11 15.49 112.095 15.565 112.065 15.61L110.94 14.845V14.86ZM111.93 0.789978C112.98 1.25498 114.24 2.03498 114.87 2.61998L114.195 3.51998C113.58 2.91998 112.335 2.07998 111.3 1.58498L111.93 0.804976V0.789978ZM125.64 10.105H121.44C122.46 11.74 124.14 13.345 125.745 14.095C125.49 14.305 125.145 14.695 124.965 14.995C123.39 14.095 121.725 12.34 120.675 10.525V15.67H119.595V10.6C118.44 12.505 116.655 14.185 114.915 15.1C114.75 14.845 114.42 14.47 114.195 14.26C115.95 13.48 117.735 11.86 118.815 10.105H114.975V9.09998H119.58V7.17998L120.96 7.25497C120.945 7.37497 120.855 7.44998 120.645 7.47998V9.09998H125.61V10.105H125.64ZM119.4 2.82998C119.4 2.94998 119.28 3.02498 119.085 3.03998C118.845 5.36498 118.17 6.95498 115.305 7.77998C115.215 7.53998 114.93 7.16498 114.735 6.98498C117.315 6.29498 117.9 4.97498 118.095 2.70998L119.4 2.82998ZM116.415 2.27497V4.47998H115.425V1.31498H125.175V4.46498H124.17V2.27497H116.43H116.415ZM121.185 2.61998L122.52 2.72498C122.52 2.81498 122.43 2.90498 122.205 2.93498V5.88997C122.205 6.23497 122.265 6.27998 122.73 6.27998H124.215C124.575 6.27998 124.635 6.14498 124.68 5.16998C124.89 5.31998 125.28 5.46998 125.595 5.52998C125.475 6.86498 125.19 7.20998 124.335 7.20998H122.595C121.455 7.20998 121.17 6.93997 121.17 5.88997V2.63498L121.185 2.61998Z" fill="white"/>
<path d="M132.75 8.66499V9.38499C133.32 9.83499 134.865 11.245 135.27 11.605L134.655 12.415C134.295 11.965 133.41 11.08 132.75 10.42V15.715H131.73V9.87998C131.04 11.53 130.11 13.24 129.225 14.215C129.105 13.945 128.865 13.51 128.67 13.27C129.645 12.25 130.725 10.33 131.355 8.66499H128.79V7.70499H131.73V6.15998H129.3V5.18499H131.73V3.68499H129.015V2.72499H131.73V0.609989L133.08 0.684988C133.065 0.804988 132.96 0.879987 132.75 0.894987V2.72499H135.435V3.68499H132.75V5.18499H135.18V6.15998H132.75V7.70499H135.525V8.66499H132.75ZM143.94 9.11499V10.135H141.915V15.715H140.85V10.135H138.24C138.045 12.28 137.43 14.29 135.705 15.76C135.495 15.595 135.075 15.34 134.79 15.19C136.425 13.87 137.01 12.025 137.19 10.135H135.24V9.11499H137.265C137.28 8.84499 137.28 8.57499 137.28 8.30499V4.92999H135.54V3.87998H137.28V0.594986L138.63 0.684988C138.615 0.804988 138.525 0.864987 138.315 0.894987V3.87998H140.85V0.594986L142.215 0.669985C142.2 0.789985 142.11 0.864987 141.9 0.894987V3.87998H143.76V4.92999H141.9V9.11499H143.925H143.94ZM138.315 8.30499C138.315 8.58999 138.315 8.84499 138.3 9.11499H140.865V4.92999H138.33V8.30499H138.315Z" fill="white"/>
<path d="M147.405 15.895C147.66 15.085 147.99 13.465 148.125 12.43L149.88 12.205C149.535 13.45 148.86 15.145 148.485 15.775L147.405 15.91V15.895Z" fill="white"/>
<path d="M162.42 13.06C162.375 13.135 162.24 13.195 162.06 13.165C161.01 14.035 159.45 14.98 158.115 15.565C157.92 15.37 157.59 15.04 157.35 14.875C158.685 14.35 160.275 13.45 161.25 12.55L162.42 13.075V13.06ZM167.745 9.33998C169.275 10.075 171.135 11.215 172.095 12.085L171.225 12.73C170.925 12.46 170.52 12.13 170.055 11.785C168.465 11.845 166.815 11.905 165.225 11.935V15.73H164.13V11.965C161.85 12.025 159.765 12.085 158.22 12.115C158.205 12.25 158.1 12.31 157.995 12.325L157.545 11.17C158.49 11.17 159.675 11.155 161.01 11.155C161.4 10.945 161.82 10.735 162.225 10.51C161.355 9.86498 160.08 9.06998 158.985 8.54498L159.72 7.95998C160.08 8.13998 160.47 8.33498 160.86 8.54498C161.535 8.07998 162.285 7.46498 162.87 6.90998H158.67V1.17998H170.85V6.90998H164.25L164.535 7.05998C164.475 7.13498 164.37 7.17998 164.19 7.17998C163.545 7.71998 162.555 8.45498 161.7 9.00998C162.255 9.33998 162.78 9.68498 163.185 9.98498C164.715 9.09998 166.245 8.07998 167.31 7.23998L168.42 7.86998C168.36 7.94498 168.21 8.00498 168.045 7.98998C166.68 8.94998 164.685 10.18 162.885 11.14L168.915 11.05C168.285 10.645 167.595 10.27 166.98 9.95498L167.775 9.36998L167.745 9.33998ZM159.705 2.04998V3.57998H164.16V2.04998H159.705ZM159.705 4.44998V5.99498H164.16V4.44998H159.705ZM169.755 3.57998V2.04998H165.225V3.57998H169.755ZM169.755 5.99498V4.44998H165.225V5.99498H169.755ZM171.03 15.58C170.16 14.845 168.375 13.795 166.935 13.09L167.73 12.52C169.125 13.15 170.94 14.17 171.9 14.92L171.015 15.595L171.03 15.58Z" fill="white"/>
<path d="M179.235 7.465C179.76 7.975 181.17 9.535 181.5 9.94L180.825 10.765C180.555 10.27 179.82 9.28 179.235 8.53V15.715H178.17V8.095C177.555 9.865 176.715 11.68 175.92 12.76C175.785 12.46 175.515 12.025 175.335 11.785C176.28 10.57 177.345 8.335 177.915 6.385H175.5V5.365H178.17V2.605C177.39 2.83 176.55 3.04 175.785 3.22C175.725 2.995 175.56 2.65 175.425 2.425C177.3 1.975 179.445 1.27 180.585 0.565001L181.545 1.375C181.47 1.435 181.35 1.45 181.215 1.42C180.675 1.72 180 1.99 179.205 2.245V5.335H181.305V5.455H185.19V4.39H182.205V3.61H185.19V2.62H181.635V1.81H185.19V0.550003L186.585 0.639999C186.57 0.759999 186.465 0.835004 186.255 0.850004V1.795H189.84V2.605H186.255V3.595H189.285V4.375H186.255V5.44H190.515V6.28H181.305V6.34H179.205V7.42L179.235 7.465ZM189.39 13.18H183.795L184.785 13.735C184.785 13.735 184.62 13.825 184.47 13.855C183.795 14.53 182.43 15.295 181.245 15.745C181.095 15.52 180.81 15.19 180.6 14.98C181.755 14.56 183.12 13.825 183.75 13.18H182.25V7.15H189.39V13.18ZM183.285 7.915V8.935H188.34V7.915H183.285ZM183.285 9.64V10.66H188.34V9.64H183.285ZM183.285 11.365V12.43H188.34V11.365H183.285ZM189.645 15.715C189.03 15.16 187.935 14.38 186.945 13.765L187.71 13.21C188.775 13.81 189.96 14.575 190.665 15.145L189.66 15.715H189.645Z" fill="white"/>
<path d="M204.645 1.97499H208.515V2.93499H204.645V3.86499H203.565V2.93499H198.825V3.86499H197.745V2.93499H193.995V1.97499H197.745V0.594986L199.125 0.669985C199.11 0.789985 199.035 0.864987 198.81 0.894987V1.97499H203.55V0.594986L204.93 0.669985C204.915 0.789985 204.825 0.864987 204.615 0.894987V1.97499H204.645ZM207.705 9.96999V14.56C207.705 15.67 207.24 15.7 205.005 15.7C204.96 15.43 204.825 15.07 204.675 14.785C205.485 14.8 206.175 14.8 206.37 14.8C206.58 14.785 206.625 14.74 206.625 14.545V10.93H201.72V12.835L203.925 12.745C203.67 12.34 203.385 11.95 203.1 11.59L203.91 11.29C204.675 12.175 205.455 13.39 205.725 14.23L204.84 14.545C204.75 14.245 204.6 13.93 204.42 13.57C201.885 13.75 199.2 13.9 197.52 13.975C197.49 14.11 197.4 14.17 197.295 14.2L196.89 13C197.895 12.97 199.215 12.94 200.67 12.88V10.945H195.915V15.76H194.865V9.98499H200.67V9.09999H196.08V4.14998H206.52V9.09999H201.735V9.98499H207.72L207.705 9.96999ZM197.115 4.92999V6.20499H200.67V4.92999H197.115ZM197.115 8.27498H200.67V6.98499H197.115V8.27498ZM205.44 6.20499V4.92999H201.72V6.20499H205.44ZM205.44 8.27498V6.98499H201.72V8.27498H205.44Z" fill="white"/>
<path d="M215.31 5.70998V10.945C216.06 10.705 216.825 10.435 217.59 10.195L217.755 11.155C215.865 11.86 213.855 12.595 212.565 13.015C212.565 13.165 212.46 13.255 212.37 13.285L211.83 12.025C212.505 11.83 213.33 11.575 214.245 11.275V5.69498H212.115V4.62998H214.245V0.714981L215.625 0.78998C215.61 0.90998 215.52 0.984977 215.295 1.01498V4.61498H217.38V5.67998H215.295L215.31 5.70998ZM227.085 8.66498V9.71498H222.6V15.745H221.52V9.71498H216.87V8.66498H221.52V2.49998H217.455V1.47998H226.635V2.49998H222.6V8.66498H227.085ZM219.195 7.97498C219.06 6.83498 218.565 5.09498 217.995 3.77498L218.925 3.50498C219.54 4.83998 220.05 6.54998 220.2 7.68998L219.21 7.98998L219.195 7.97498ZM226.47 3.90998C226.44 4.01498 226.305 4.04498 226.125 4.04498C225.765 5.22998 225.15 6.98498 224.625 8.07998C224.61 8.06498 223.8 7.73498 223.8 7.73498C224.31 6.59498 224.91 4.71998 225.225 3.42998L226.485 3.89498L226.47 3.90998Z" fill="white"/>
<path d="M233.76 7.10498V12.43C235.035 14.365 237.36 14.365 240.3 14.365C242.055 14.365 244.125 14.32 245.4 14.23C245.265 14.485 245.07 15.01 245.04 15.34C243.915 15.385 242.115 15.415 240.51 15.415C237.15 15.415 234.915 15.415 233.28 13.39C232.485 14.11 231.615 14.845 230.91 15.4C230.925 15.55 230.88 15.61 230.76 15.655L230.13 14.455C230.91 13.93 231.87 13.18 232.71 12.46V8.12498H230.31V7.07498H233.76V7.10498ZM231.33 0.999985C232.425 1.70498 233.67 2.76999 234.24 3.57999L233.37 4.31498C232.83 3.50498 231.6 2.39498 230.505 1.65998L231.315 1.01498L231.33 0.999985ZM245.13 6.11498V7.07498H234.525V6.11498H239.355V3.74499H236.97C236.64 4.47999 236.25 5.15498 235.86 5.67998C235.635 5.51498 235.215 5.31999 234.945 5.18499C235.755 4.17999 236.46 2.43999 236.88 0.789986L238.185 1.14998C238.155 1.26998 238.035 1.31498 237.84 1.31498C237.705 1.79498 237.54 2.27499 237.36 2.76999H239.34V0.579987L240.75 0.654985C240.75 0.774985 240.63 0.849982 240.42 0.879982V2.75498H244.395V3.72998H240.42V6.09999H245.115L245.13 6.11498ZM243.765 13.33H242.685V12.775H237.21V13.375H236.16V8.28999H243.75V13.33H243.765ZM237.21 11.8H242.685V9.20499H237.21V11.8Z" fill="white"/>
<path d="M254.94 12.745L254.985 13.675C252.78 14.095 250.5 14.545 249.045 14.8C249.03 14.935 248.925 15.01 248.835 15.04L248.445 13.825C249.21 13.705 250.155 13.555 251.205 13.39V8.48499H248.625V7.50998H251.205V5.67998H249.555V5.33498C249.39 5.52998 249.225 5.70998 249.045 5.88998C248.88 5.64998 248.52 5.31998 248.28 5.16998C249.705 3.77498 250.77 1.94499 251.37 0.579987L252.69 0.789986C252.675 0.909986 252.57 0.984987 252.36 0.984987V1.01498C253.365 1.83998 254.565 2.96499 255.135 3.68499L254.49 4.55498C253.95 3.81998 252.87 2.73998 251.895 1.89998C251.415 2.78498 250.815 3.77498 250.065 4.71998H254.175V5.67998H252.18V7.50998H254.76V8.48499H252.18V13.225L254.925 12.76L254.94 12.745ZM249.75 12.67C249.69 11.83 249.39 10.555 249.03 9.57999L249.825 9.36999C250.2 10.345 250.5 11.62 250.575 12.43L249.75 12.67ZM254.775 9.66998C254.73 9.77498 254.61 9.81999 254.445 9.81999C254.22 10.6 253.815 11.785 253.485 12.535C253.47 12.535 252.765 12.265 252.75 12.265C253.08 11.47 253.47 10.18 253.665 9.29498L254.775 9.66998ZM258.315 13.135C258.27 13.225 258.15 13.27 257.97 13.27C257.04 14.2 255.57 15.16 254.265 15.76C254.1 15.55 253.77 15.175 253.545 14.98C254.79 14.47 256.245 13.6 257.085 12.655L258.3 13.15L258.315 13.135ZM263.625 11.575V12.535H254.505V11.575H263.625ZM258.54 4.20998V3.05498H254.775V2.12498H258.54V0.579987L259.905 0.669983C259.89 0.789983 259.8 0.849982 259.59 0.879982V2.12498H263.43V3.05498H259.59V4.20998H262.56V10.57H255.72V4.20998H258.54ZM261.525 6.06999V4.97499H256.755V6.06999H261.525ZM261.525 7.92998V6.81999H256.755V7.92998H261.525ZM261.525 9.80498V8.67998H256.755V9.80498H261.525ZM262.8 15.775C262.17 15.055 260.895 13.9 259.83 13.12L260.76 12.625C261.855 13.39 263.1 14.455 263.745 15.145L262.8 15.76V15.775Z" fill="white"/>
<path d="M269.13 3.38502C269.445 2.56002 269.76 1.42002 269.925 0.580021L271.335 0.92502C271.29 1.04502 271.185 1.09002 270.975 1.09002C270.795 1.76502 270.465 2.66502 270.165 3.38502H272.91V13.075H268.44V14.425H267.42V3.37002H269.145L269.13 3.38502ZM271.845 7.66002V4.40502H268.425V7.66002H271.845ZM268.425 12.07H271.845V8.63502H268.425V12.07ZM280.755 3.41502L281.325 3.44502C281.31 3.52002 281.31 3.68502 281.31 3.80502C281.085 11.695 280.875 14.305 280.23 15.085C279.825 15.64 279.375 15.73 278.235 15.73C277.695 15.73 277.035 15.715 276.36 15.67C276.33 15.355 276.195 14.905 276 14.62C277.155 14.695 278.205 14.695 278.655 14.695C278.91 14.695 279.09 14.635 279.255 14.455C279.78 13.885 280.02 11.335 280.215 4.43502H275.64C275.115 5.87502 274.485 7.18002 273.765 8.15502C273.585 7.96002 273.195 7.60002 272.955 7.43502C274.11 5.89002 275.055 3.22002 275.61 0.565018L276.99 0.89502C276.945 1.04502 276.81 1.09002 276.63 1.07502C276.45 1.85502 276.24 2.65002 275.985 3.41502H280.74H280.755ZM276.12 6.86502C277.065 8.14002 278.025 9.82002 278.37 10.93L277.38 11.395C277.035 10.285 276.12 8.56002 275.175 7.28502L276.12 6.86502Z" fill="white"/>
<path d="M290.49 9.65499C290.4 9.38499 290.265 9.03998 290.115 8.67998L288.615 8.75498V15.73H287.64V8.79999C286.74 8.82999 285.93 8.85998 285.3 8.88998C285.27 9.02498 285.165 9.06999 285.06 9.09999L284.76 7.88498H285.885C286.245 7.44998 286.62 6.92498 287.01 6.38498C286.515 5.61998 285.675 4.67499 284.925 3.95499L285.51 3.24998C285.69 3.41498 285.855 3.57998 286.035 3.75998C286.59 2.79998 287.205 1.50999 287.565 0.579987L288.735 1.07498C288.66 1.19498 288.54 1.22498 288.375 1.20998C287.955 2.13998 287.235 3.45998 286.62 4.37498C286.995 4.77998 287.34 5.16998 287.58 5.54498C288.285 4.47998 288.93 3.35499 289.41 2.45499L290.55 2.99499C290.505 3.06999 290.37 3.14499 290.19 3.14499C289.365 4.52499 288.06 6.47498 286.92 7.88498L289.71 7.83999C289.41 7.28499 289.095 6.71498 288.75 6.21998L289.56 5.85999C290.31 6.92499 291.075 8.31999 291.36 9.23499L290.505 9.65499H290.49ZM287.01 10.27C286.98 10.39 286.875 10.45 286.68 10.45C286.47 11.815 286.095 13.39 285.6 14.35C285.39 14.215 285.03 14.05 284.79 13.945C285.27 13.03 285.6 11.47 285.825 9.98499L287.01 10.285V10.27ZM290.28 13.18C290.145 12.37 289.74 11.125 289.32 10.195L290.145 9.93998C290.595 10.855 291.03 12.07 291.165 12.88L290.265 13.195L290.28 13.18ZM295.98 14.335H300.105V15.325H290.4V14.335H294.885V10.99H291.555V9.99998H299.535V10.99H295.98V14.335ZM293.88 3.38498C293.835 3.50498 293.73 3.56499 293.535 3.54999C293.22 4.13499 292.59 5.24499 292.035 6.09999C292.77 7.05999 293.505 8.24499 293.85 8.99499L292.935 9.39998C292.575 8.52998 291.81 7.25498 290.97 6.11498C291.615 5.10998 292.335 3.86499 292.71 3.06999L293.88 3.39998V3.38498ZM299.97 1.43499V2.43998H291.045V1.43499H299.97ZM295.86 9.36999C295.485 8.52999 294.66 7.23999 293.745 6.09999C294.45 5.10999 295.2 3.84999 295.59 3.06999L296.745 3.39998C296.715 3.51998 296.595 3.57998 296.415 3.56498C296.085 4.14998 295.41 5.24498 294.855 6.08498C295.605 7.04498 296.4 8.21499 296.775 8.96499L295.86 9.36999ZM299.595 3.39998C299.55 3.51998 299.445 3.56499 299.25 3.54999C298.92 4.13499 298.245 5.24499 297.66 6.06999C298.455 7.02999 299.295 8.19998 299.7 8.94998L298.8 9.38498C298.38 8.51498 297.495 7.22499 296.55 6.09999C297.27 5.09499 298.035 3.84998 298.425 3.05498L299.595 3.39998Z" fill="white"/>
<path d="M304.53 10.9C304.455 12.355 304.305 13.915 303.675 14.815L303.045 14.455C303.6 13.63 303.78 12.16 303.84 10.765L304.53 10.9ZM309.075 8.78498L309.585 8.82999C309.585 8.93499 309.57 9.05498 309.57 9.18998C309.39 13.405 309.225 14.845 308.82 15.31C308.565 15.655 308.295 15.73 307.365 15.73C307.11 15.73 306.825 15.73 306.555 15.715C306.54 15.46 306.435 15.07 306.315 14.83C306.885 14.875 307.395 14.875 307.605 14.875C307.815 14.875 307.935 14.86 308.04 14.695C308.205 14.5 308.34 13.9 308.46 12.565L307.905 12.79C307.725 12.19 307.32 11.29 306.915 10.6L307.44 10.405C307.845 11.05 308.25 11.905 308.445 12.475C308.505 11.77 308.565 10.84 308.61 9.66998H304.86V10.195H303.93V1.25498H309.42V2.18499H307.305V3.80498H309.105V4.68998H307.305V6.27999H309.12V7.16499H307.305V8.79999H309.06L309.075 8.78498ZM306.42 2.18499H304.875V3.80498H306.42V2.18499ZM306.42 6.27999V4.68998H304.875V6.27999H306.42ZM304.875 7.16499V8.79999H306.42V7.16499H304.875ZM305.115 14.065C305.13 13.255 305.055 12.025 304.89 11.065L305.49 10.99C305.67 11.95 305.76 13.195 305.745 13.99L305.115 14.065ZM306.45 10.75C306.795 11.575 307.095 12.685 307.185 13.405L306.585 13.54C306.51 12.82 306.225 11.71 305.895 10.87L306.45 10.75ZM314.625 0.684986C314.61 0.789986 314.505 0.864982 314.4 0.879982C315.345 2.42498 317.055 4.04498 318.6 4.88498C318.39 5.13998 318.15 5.52999 318 5.82999C316.44 4.85499 314.745 3.18999 313.8 1.64499C312.975 3.14499 311.385 4.85498 309.69 5.91998C309.57 5.66498 309.33 5.28998 309.135 5.03498C310.845 4.04498 312.51 2.24498 313.26 0.624985L314.625 0.684986ZM313.05 14.785C312.75 14.41 312.255 13.855 311.745 13.375C311.31 14.38 310.665 15.22 309.855 15.775C309.72 15.595 309.435 15.295 309.195 15.16C310.455 14.335 311.205 12.76 311.475 10.825L312.675 11.005C312.645 11.125 312.555 11.185 312.375 11.2C312.3 11.665 312.18 12.115 312.045 12.535C312.66 13.075 313.35 13.75 313.71 14.215L313.02 14.8L313.05 14.785ZM310.2 10.33V6.54999H313.485V10.33H310.2ZM311.01 7.32999V9.54999H312.645V7.32999H311.01ZM316.2 4.56999V5.45499H311.61V4.56999H316.2ZM317.745 15.73C317.34 15.115 316.56 14.215 315.825 13.435C315.375 14.38 314.76 15.175 313.965 15.715C313.815 15.535 313.515 15.22 313.29 15.085C314.55 14.26 315.315 12.7 315.6 10.78L316.83 10.975C316.815 11.08 316.71 11.14 316.515 11.155C316.44 11.65 316.305 12.13 316.155 12.58C316.995 13.39 317.985 14.47 318.465 15.16L317.73 15.745L317.745 15.73ZM317.745 6.53498V10.315H314.355V6.53498H317.745ZM316.905 9.53498V7.31498H315.18V9.53498H316.905Z" fill="white"/>
<path d="M325.005 2.55999C324 2.78499 322.935 2.99498 321.945 3.15998C321.9 2.91998 321.75 2.55999 321.6 2.31999C323.88 1.91499 326.49 1.29999 327.87 0.594986L328.875 1.43499C328.875 1.43499 328.77 1.47999 328.545 1.47999C327.87 1.77999 327.015 2.04999 326.055 2.28999V5.48499H328.86V6.50498H326.055V7.47999C326.745 8.09499 328.425 9.80499 328.83 10.27L328.14 11.17C327.75 10.615 326.79 9.50499 326.055 8.67999V15.7H324.99V8.13998C324.18 10.105 323.07 12.085 321.99 13.24C321.855 12.925 321.585 12.505 321.375 12.25C322.62 10.96 323.955 8.63499 324.705 6.51999H321.585V5.49999H324.99V2.55999H325.005ZM329.535 2.37998H335.88V15.145H334.755V14.005H330.615V15.28H329.535V2.39499V2.37998ZM330.615 12.94H334.755V3.44499H330.615V12.94Z" fill="white"/>
<path d="M345.12 13.36C345.735 13.69 345.945 13.81 346.14 13.945C346.08 14.005 345.96 14.035 345.81 14.065C344.73 14.755 342.42 15.445 340.485 15.79C340.335 15.58 340.035 15.22 339.81 15.01C341.745 14.71 344.1 14.05 345.105 13.36H345.12ZM351.69 5.01999H354.735V5.88998H351.615L351.48 7.38998H342.66L342.855 5.88998H339.9V5.01999H342.96L343.14 3.56498H351.795L351.66 5.01999H351.69ZM341.535 2.76999V4.44998H340.53V1.85498H346.74V0.579987L348.165 0.654985C348.165 0.789985 348.045 0.849982 347.835 0.879982V1.83999H354.12V4.43499H353.07V2.75498H341.535V2.76999ZM352.455 8.09498V13.315H342.24V8.09498H352.455ZM351.345 9.59498V8.81498H343.29V9.59498H351.345ZM351.345 11.095V10.285H343.29V11.095H351.345ZM351.345 12.61V11.785H343.29V12.61H351.345ZM343.86 5.79999L343.74 6.68499H346.59C346.62 6.41499 346.665 6.11499 346.71 5.79999H343.86ZM346.785 5.07999C346.8 4.80999 346.83 4.52499 346.845 4.26999H344.055L343.965 5.07999H346.785ZM347.565 6.66998H350.535L350.595 5.78498H347.655L347.55 6.66998H347.565ZM350.655 5.07999L350.715 4.26999H347.76L347.715 5.07999H350.655ZM353.79 15.76C352.545 15.28 350.535 14.605 348.45 14.035L349.2 13.405C351.225 13.945 353.385 14.605 354.72 15.1L353.79 15.775V15.76Z" fill="white"/>
<path d="M371.115 4.22499C371.355 4.22499 371.385 4.22498 371.64 4.20998L372.27 4.26998C372.27 4.35998 372.255 4.52498 372.24 4.64498C372 11.8 371.745 14.23 371.1 14.98C370.65 15.55 370.125 15.655 369.06 15.655C368.505 15.655 367.8 15.64 367.14 15.595C367.125 15.265 366.975 14.785 366.75 14.455C367.905 14.545 368.955 14.575 369.36 14.575C369.705 14.575 369.9 14.53 370.08 14.335C370.62 13.795 370.875 11.455 371.085 5.34999H365.235C365.01 8.79999 363.9 12.835 359.055 15.805C358.875 15.535 358.47 15.115 358.2 14.935C362.775 12.175 363.855 8.49998 364.08 5.33498H358.665V4.22499H364.125C364.14 3.92499 364.14 3.65498 364.14 3.38498V0.609985L365.61 0.714985C365.595 0.834985 365.49 0.909981 365.28 0.939981V3.38498C365.28 3.65498 365.28 3.93999 365.28 4.22499H371.115Z" fill="white"/>
<path d="M376.605 15.895C376.86 15.085 377.19 13.465 377.325 12.43L379.08 12.205C378.735 13.45 378.06 15.145 377.685 15.775L376.605 15.91V15.895Z" fill="white"/>
<path d="M390.555 0.954987C390.51 1.07499 390.39 1.11998 390.195 1.13498C389.805 2.09498 389.235 3.36998 388.68 4.38998C389.835 4.35998 391.125 4.31498 392.43 4.25498C392.055 3.63998 391.635 2.99498 391.215 2.43998L392.115 2.06498C393.03 3.18998 393.975 4.70498 394.365 5.70998L393.42 6.14499C393.3 5.84499 393.165 5.51499 392.97 5.15499C390.69 5.31999 388.335 5.43998 386.85 5.49998C386.835 5.63498 386.715 5.69499 386.61 5.72499L386.25 4.43499L387.585 4.40499C388.185 3.29499 388.875 1.71999 389.25 0.579987L390.585 0.939983L390.555 0.954987ZM393.195 6.81999V14.47C393.195 15.685 392.55 15.745 390.48 15.745C390.42 15.445 390.255 15.01 390.09 14.725C390.585 14.74 391.02 14.755 391.35 14.755C392.055 14.755 392.13 14.755 392.13 14.455V12.655H388.41V15.79H387.39V6.81999H393.21H393.195ZM392.115 7.76498H388.395V9.27999H392.115V7.76498ZM388.395 11.77H392.115V10.15H388.395V11.77ZM399.555 6.80498C400.23 6.80498 400.335 6.53498 400.395 4.85498C400.635 5.04998 401.085 5.21499 401.4 5.28999C401.25 7.28499 400.92 7.80999 399.645 7.80999H396.69C395.175 7.80999 394.77 7.46498 394.77 6.18998V0.594984L396.165 0.669983C396.15 0.789983 396.06 0.864985 395.85 0.894985V3.42998C397.32 2.93498 398.865 2.33499 399.825 1.83999L400.65 2.73998C400.65 2.73998 400.56 2.78498 400.485 2.78498C400.44 2.78498 400.38 2.78499 400.335 2.76999C399.225 3.27999 397.455 3.86499 395.835 4.32999V6.15998C395.835 6.68498 395.97 6.77498 396.75 6.77498H399.525L399.555 6.80498ZM395.85 13.945C395.85 14.5 396.015 14.59 396.825 14.59H399.69C400.425 14.59 400.545 14.26 400.605 12.37C400.86 12.55 401.31 12.715 401.595 12.79C401.46 14.995 401.145 15.565 399.765 15.565H396.72C395.19 15.565 394.77 15.235 394.77 13.945V8.28999L396.165 8.36498C396.15 8.48498 396.06 8.55999 395.835 8.58999V10.975C397.395 10.51 399.075 9.83498 400.05 9.21998L400.86 10.135C400.86 10.135 400.755 10.18 400.68 10.18C400.65 10.18 400.605 10.18 400.545 10.165C399.45 10.78 397.53 11.44 395.82 11.905V13.93L395.85 13.945Z" fill="white"/>
<path d="M408.84 10.255V13.585C409.89 14.095 411.255 14.26 413.055 14.26C413.79 14.26 418.965 14.26 419.895 14.23C419.715 14.485 419.52 14.995 419.46 15.31H413.07C409.38 15.31 407.415 14.725 406.245 12.295C406.05 13.72 405.735 14.95 405.255 15.835C405.06 15.685 404.7 15.49 404.46 15.385C405.285 13.855 405.51 11.035 405.57 8.07997L406.86 8.25997C406.83 8.39497 406.725 8.43997 406.545 8.45497C406.515 9.06997 406.5 9.69997 406.455 10.315C406.785 11.47 407.235 12.325 407.85 12.925V6.95497H404.655V5.96497H407.82V3.65497H405.12V2.66497H407.82V0.60997L409.17 0.684969C409.155 0.804969 409.05 0.879966 408.84 0.909966V2.64997H411.465V3.63997H408.84V5.94997H411.795V6.69997C413.295 5.85997 414.09 4.32997 414.39 2.21497H411.96V1.25496H418.635L419.22 1.29997C419.22 1.38997 419.205 1.52497 419.19 1.65997C419.04 4.71997 418.875 5.87497 418.5 6.29497C418.17 6.65497 417.9 6.69997 416.805 6.69997C416.49 6.69997 416.13 6.69997 415.755 6.68497C415.725 6.38497 415.62 5.97997 415.455 5.72497C416.175 5.78497 416.835 5.78497 417.09 5.78497C417.345 5.78497 417.495 5.76997 417.6 5.63497C417.825 5.37997 417.975 4.49497 418.11 2.21497H415.455C415.125 4.71997 414.12 6.54997 412.29 7.52497C412.14 7.35997 411.87 7.11997 411.615 6.93997H408.825V9.27997H411.45V10.255H408.825H408.84ZM418.83 13.495H417.78V12.7H413.55V13.51H412.53V7.62996H418.83V13.495ZM413.55 11.755H417.78V8.57497H413.55V11.755Z" fill="white"/>
<path d="M427.395 10.255V13.615C428.46 14.11 429.825 14.245 431.58 14.245C432.27 14.245 437.25 14.245 438.15 14.215C437.97 14.47 437.775 14.98 437.715 15.295H431.595C427.89 15.295 425.82 14.695 424.59 12.145C424.38 13.405 424.005 14.635 423.345 15.685C423.18 15.46 422.835 15.145 422.595 15.04C423.795 13.045 423.96 10.255 423.915 8.04999L425.16 8.10999C425.145 8.24499 425.04 8.31999 424.845 8.33499C424.845 8.91999 424.845 9.54999 424.8 10.225C425.175 11.485 425.7 12.37 426.39 12.985V6.89499H422.94V5.90499H426.165V3.68499H423.585V2.69499H426.165V0.594986L427.5 0.669985C427.485 0.789985 427.41 0.864987 427.185 0.894987V2.67999H429.705V3.66998H427.185V5.88998H430.05V6.87998H427.395V9.26498H429.84V10.255H427.395ZM429.225 11.47C429.585 11.305 430.005 11.125 430.47 10.915V3.50498H433.5C433.455 2.55998 433.425 1.56999 433.41 0.594986L434.79 0.654987C434.775 0.789987 434.67 0.864984 434.46 0.879984C434.46 1.76498 434.475 2.63498 434.52 3.50498H438.045V4.46499H434.58C434.715 6.21999 434.925 7.85499 435.21 9.14499C435.81 8.04999 436.32 6.81999 436.65 5.49999L437.79 5.99499C437.76 6.08499 437.655 6.14499 437.475 6.14499C437.04 7.65999 436.38 9.12999 435.57 10.375C435.93 11.425 436.365 12.04 436.875 12.04C437.22 12.04 437.4 11.29 437.445 9.56499C437.67 9.77499 438 9.99999 438.24 10.105C438.06 12.385 437.715 13.09 436.77 13.09C435.99 13.09 435.375 12.445 434.88 11.35C434.325 12.07 433.725 12.7 433.08 13.225C432.93 13.06 432.615 12.775 432.375 12.61C433.14 12.01 433.86 11.245 434.475 10.33C434.025 8.79999 433.71 6.74499 433.545 4.49499H431.445V10.48C432.135 10.15 432.84 9.78999 433.56 9.45999L433.755 10.315C432.315 11.065 430.83 11.86 429.855 12.34C429.855 12.475 429.795 12.565 429.69 12.625L429.195 11.53L429.225 11.47ZM435.99 0.729986C436.62 1.32999 437.355 2.16999 437.685 2.72499L436.875 3.21999C436.56 2.64999 435.855 1.77999 435.225 1.16499L435.99 0.744989V0.729986Z" fill="white"/>
<path d="M444.195 11.86C444.915 11.68 445.65 11.5 446.385 11.305L446.475 12.265C444.705 12.775 442.845 13.27 441.66 13.585C441.66 13.72 441.57 13.81 441.45 13.825L441.045 12.61C441.63 12.475 442.35 12.31 443.145 12.115V7.85496H441.465V6.83496H443.145V3.21996H441.24V2.16996H446.13V3.21996H444.195V6.83496H445.89V7.85496H444.195V11.845V11.86ZM449.49 12.925C449.445 13.03 449.31 13.075 449.145 13.06C448.41 13.93 447.225 14.83 446.145 15.43C445.98 15.22 445.635 14.905 445.41 14.725C446.43 14.215 447.615 13.375 448.275 12.475L449.475 12.925H449.49ZM456.105 6.80496V7.73496H446.22V6.80496H450.555V5.69496H447.3V1.25496H455.04V5.69496H451.995C451.965 5.81496 451.875 5.85996 451.665 5.88996V6.80496H456.12H456.105ZM454.905 11.995H451.665V14.635C451.665 15.73 451.245 15.76 448.98 15.76C448.935 15.46 448.8 15.13 448.65 14.845C449.145 14.86 449.565 14.875 449.865 14.875C450.57 14.875 450.6 14.86 450.6 14.635V11.995H447.45V8.66496H454.89V11.995H454.905ZM448.305 2.03496V3.11496H453.99V2.03496H448.305ZM448.305 3.84996V4.94496H453.99V3.84996H448.305ZM448.485 9.47496V11.2H453.84V9.47496H448.485ZM455.295 15.355C454.785 14.68 453.705 13.675 452.775 12.985L453.6 12.475C454.515 13.12 455.64 14.11 456.18 14.77L455.295 15.34V15.355Z" fill="white"/>
<path d="M463.845 5.69497H464.61C465.645 4.40497 466.515 2.94997 467.205 1.37497L468.45 1.79497C468.405 1.91497 468.255 1.97497 468.06 1.95997C467.46 3.29497 466.725 4.55497 465.87 5.69497H467.985V6.66997H465.09C464.55 7.31497 463.965 7.92997 463.35 8.48497H467.16V15.49H466.11V14.845H462.225V15.79H461.205V10.15C460.77 10.45 460.305 10.705 459.84 10.96C459.69 10.75 459.405 10.345 459.21 10.135C459.915 9.77497 460.575 9.36997 461.22 8.91997V8.49997H461.805C462.495 7.95997 463.155 7.34497 463.77 6.68497H459.435V5.70997H462.81V3.50496H460.185V2.52997H462.81V0.60997L464.16 0.684969C464.145 0.804969 464.055 0.879966 463.845 0.909966V2.52997H465.96V3.50496H463.845V5.70997V5.69497ZM466.11 11.2V9.39997H462.225V11.2H466.11ZM462.225 13.9H466.11V12.085H462.225V13.9ZM468.615 1.52497H473.55C473.73 1.47997 473.745 1.47997 473.775 1.47997C473.85 1.52497 473.94 1.59997 474.495 1.83997C474.48 1.89997 474.42 1.97496 474.345 2.00496C473.745 3.39996 472.89 5.18497 472.035 6.92497C473.745 8.60497 474.465 9.86497 474.465 11.05C474.465 13.645 472.755 13.645 471.675 13.645C471.42 13.645 471.165 13.645 470.925 13.63C470.91 13.315 470.76 12.85 470.55 12.535C470.985 12.565 471.435 12.58 471.795 12.58C472.515 12.58 473.37 12.58 473.37 11.02C473.37 9.93997 472.605 8.78497 470.865 7.11997C471.63 5.46997 472.335 3.90997 472.875 2.57497H469.695V15.73H468.615V1.53997V1.52497Z" fill="white"/>
<path d="M480.075 3.38502C480.39 2.56002 480.705 1.42002 480.87 0.580021L482.28 0.92502C482.235 1.04502 482.13 1.09002 481.92 1.09002C481.74 1.76502 481.41 2.66502 481.11 3.38502H483.855V13.075H479.385V14.425H478.365V3.37002H480.09L480.075 3.38502ZM482.79 7.66002V4.40502H479.37V7.66002H482.79ZM479.37 12.07H482.79V8.63502H479.37V12.07ZM491.7 3.41502L492.27 3.44502C492.255 3.52002 492.255 3.68502 492.255 3.80502C492.03 11.695 491.82 14.305 491.175 15.085C490.77 15.64 490.32 15.73 489.18 15.73C488.64 15.73 487.98 15.715 487.305 15.67C487.275 15.355 487.14 14.905 486.945 14.62C488.1 14.695 489.15 14.695 489.6 14.695C489.855 14.695 490.035 14.635 490.2 14.455C490.725 13.885 490.965 11.335 491.16 4.43502H486.585C486.06 5.87502 485.43 7.18002 484.71 8.15502C484.53 7.96002 484.14 7.60002 483.9 7.43502C485.055 5.89002 486 3.22002 486.555 0.565018L487.935 0.89502C487.89 1.04502 487.755 1.09002 487.575 1.07502C487.395 1.85502 487.185 2.65002 486.93 3.41502H491.685H491.7ZM487.065 6.86502C488.01 8.14002 488.97 9.82002 489.315 10.93L488.325 11.395C487.98 10.285 487.065 8.56002 486.12 7.28502L487.065 6.86502Z" fill="white"/>
<path d="M502.08 11.695C502.035 11.8 501.93 11.86 501.705 11.83C500.64 13.15 498.675 14.74 496.935 15.76C496.725 15.535 496.32 15.16 496.05 14.98C497.79 14.035 499.755 12.52 500.715 11.17L502.08 11.71V11.695ZM498.915 9.98497V10.585H497.82V1.73497H509.13V10.51H508.005V9.98497H498.915ZM508.005 2.79997H498.915V8.91997H508.005V2.79997ZM509.49 15.775C508.53 14.665 506.52 12.97 504.885 11.785L505.755 11.2C507.39 12.34 509.445 13.99 510.45 15.115L509.505 15.79L509.49 15.775Z" fill="white"/>
<path d="M528.645 3.81999H519.765C519.45 4.50999 519.12 5.16999 518.745 5.82999H526.62V14.305C526.62 15.685 525.96 15.73 523.05 15.73C523.005 15.415 522.84 14.95 522.675 14.635C523.245 14.65 523.785 14.65 524.22 14.65C525.39 14.65 525.525 14.65 525.525 14.29V12.43H518.625V15.715H517.53V7.64499C516.705 8.75499 515.73 9.74498 514.62 10.555C514.455 10.315 514.11 9.90998 513.885 9.66998C515.91 8.25998 517.455 6.09998 518.505 3.80498H514.215V2.73998H518.955C519.255 2.01998 519.48 1.28499 519.675 0.579987L521.1 0.939983C521.07 1.05998 520.935 1.11999 520.74 1.11999C520.575 1.65999 520.395 2.19998 520.185 2.75498H528.645V3.81999ZM525.51 8.64998V6.81999H518.61V8.64998H525.51ZM518.61 11.47H525.51V9.60999H518.61V11.47Z" fill="white"/>
<path d="M535.155 11.86C535.875 11.68 536.61 11.5 537.345 11.305L537.45 12.265C535.68 12.775 533.82 13.27 532.635 13.585C532.62 13.72 532.53 13.81 532.425 13.825L532.02 12.61C532.605 12.475 533.325 12.31 534.12 12.115V7.85496H532.44V6.83496H534.12V3.21996H532.215V2.16996H537.105V3.21996H535.17V6.83496H536.865V7.85496H535.17V11.845L535.155 11.86ZM540.45 12.925C540.405 13.03 540.27 13.075 540.105 13.06C539.37 13.93 538.185 14.83 537.105 15.43C536.94 15.22 536.595 14.905 536.37 14.725C537.39 14.215 538.575 13.375 539.235 12.475L540.435 12.925H540.45ZM547.065 6.80496V7.73496H537.18V6.80496H541.515V5.69496H538.26V1.25496H546V5.69496H542.954C542.924 5.81496 542.835 5.85996 542.625 5.88996V6.80496H547.079H547.065ZM545.865 11.995H542.625V14.635C542.625 15.73 542.205 15.76 539.94 15.76C539.895 15.46 539.76 15.13 539.61 14.845C540.105 14.86 540.525 14.875 540.84 14.875C541.545 14.875 541.575 14.86 541.575 14.635V11.995H538.425V8.66496H545.865V11.995ZM539.265 2.03496V3.11496H544.95V2.03496H539.265ZM539.265 3.84996V4.94496H544.95V3.84996H539.265ZM539.445 9.47496V11.2H544.815V9.47496H539.445ZM546.255 15.355C545.745 14.68 544.65 13.675 543.735 12.985L544.56 12.475C545.475 13.12 546.6 14.11 547.14 14.77L546.255 15.34V15.355Z" fill="white"/>
<path d="M554.82 5.69498H555.585C556.605 4.40498 557.49 2.94998 558.18 1.37498L559.425 1.79498C559.38 1.91498 559.23 1.97498 559.035 1.95998C558.435 3.29498 557.7 4.55498 556.845 5.69498H558.96V6.66998H556.065C555.525 7.31498 554.94 7.92999 554.325 8.48499H558.135V15.49H557.085V14.845H553.2V15.79H552.18V10.15C551.745 10.45 551.28 10.705 550.815 10.96C550.665 10.75 550.38 10.345 550.185 10.135C550.89 9.77498 551.55 9.36998 552.195 8.91998V8.49998H552.78C553.47 7.95998 554.13 7.34498 554.745 6.68498H550.41V5.70998H553.785V3.50498H551.16V2.52998H553.785V0.609985L555.135 0.684984C555.12 0.804984 555.03 0.879981 554.82 0.909981V2.52998H556.935V3.50498H554.82V5.70998V5.69498ZM557.085 11.2V9.39998H553.2V11.2H557.085ZM553.2 13.9H557.085V12.085H553.2V13.9ZM559.59 1.52498H564.525C564.705 1.47998 564.72 1.47998 564.75 1.47998C564.825 1.52498 564.915 1.59998 565.47 1.83998C565.455 1.89998 565.395 1.97498 565.32 2.00498C564.72 3.39998 563.865 5.18498 563.01 6.92498C564.72 8.60498 565.44 9.86498 565.44 11.05C565.44 13.645 563.73 13.645 562.65 13.645C562.395 13.645 562.14 13.645 561.9 13.63C561.885 13.315 561.735 12.85 561.525 12.535C561.96 12.565 562.41 12.58 562.77 12.58C563.49 12.58 564.345 12.58 564.345 11.02C564.345 9.93998 563.58 8.78499 561.84 7.11999C562.605 5.46999 563.31 3.90998 563.85 2.57498H560.67V15.73H559.59V1.53998V1.52498Z" fill="white"/>
<path d="M572.85 13.45C572.85 14.71 571.83 15.73 570.57 15.73C569.31 15.73 568.29 14.71 568.29 13.45C568.29 12.19 569.31 11.17 570.57 11.17C571.83 11.17 572.85 12.235 572.85 13.45ZM572.265 13.45C572.265 12.505 571.515 11.755 570.57 11.755C569.625 11.755 568.89 12.505 568.89 13.45C568.89 14.395 569.64 15.13 570.57 15.13C571.545 15.13 572.265 14.35 572.265 13.45Z" fill="white"/>
<path d="M580.8 10.285C580.755 10.375 580.65 10.45 580.47 10.45C580.245 11.83 579.84 13.405 579.315 14.365C579.12 14.215 578.76 14.05 578.52 13.945C579.015 13.03 579.36 11.485 579.6 9.98502L580.8 10.3V10.285ZM584.22 9.74502C584.145 9.44502 584.025 9.13002 583.875 8.75502L582.48 8.83002V15.775H581.49V8.87502C580.605 8.92002 579.825 8.95002 579.195 8.98002C579.165 9.11502 579.059 9.17502 578.954 9.20502L578.685 7.99002H579.704C580.079 7.52502 580.485 6.97002 580.905 6.37002C580.365 5.63502 579.48 4.67502 578.7 3.97002L579.255 3.25002C579.42 3.40002 579.6 3.55002 579.765 3.70002C580.335 2.75502 580.95 1.48002 581.31 0.565018L582.465 1.06002C582.42 1.16502 582.3 1.21002 582.12 1.21002C581.7 2.12502 580.995 3.41502 580.395 4.30002C580.8 4.72002 581.175 5.14002 581.46 5.51502C582.165 4.45002 582.825 3.32502 583.305 2.42502L584.445 2.96502C584.4 3.04002 584.265 3.11502 584.085 3.11502C583.23 4.54002 581.895 6.50502 580.725 7.94502L583.515 7.90002C583.26 7.34502 582.96 6.77502 582.645 6.28002L583.454 5.93502C584.159 7.01502 584.835 8.44002 585.09 9.32502L584.22 9.73002V9.74502ZM584.235 13.45C584.085 12.565 583.635 11.215 583.17 10.21L583.995 9.94002C584.505 10.96 584.955 12.28 585.135 13.15L584.22 13.465L584.235 13.45ZM586.74 13.645C586.74 14.335 586.935 14.485 588 14.485H591.87C592.77 14.485 592.92 14.11 593.01 12.295C593.265 12.475 593.685 12.655 593.97 12.7C593.805 14.83 593.46 15.46 591.9 15.46H587.97C586.245 15.46 585.735 15.1 585.735 13.63V6.59502C585.465 6.80502 585.15 7.00002 584.835 7.16502C584.7 6.92502 584.415 6.56502 584.22 6.40002C585.87 5.56002 586.98 4.03002 587.475 2.45502H584.85V1.48002H591.87L592.095 1.45002L592.68 1.58502C592.68 1.69002 592.65 1.79502 592.62 1.90002C592.275 5.63502 591.99 5.63502 590.49 5.63502C590.175 5.63502 589.8 5.62002 589.44 5.60502C589.41 5.33502 589.305 4.96002 589.17 4.69002C589.8 4.75002 590.385 4.75002 590.625 4.75002C590.865 4.75002 590.97 4.73502 591.09 4.63002C591.285 4.42002 591.435 3.85002 591.57 2.47002H588.57C588.225 3.62502 587.58 4.84002 586.62 5.83002H593.235V11.185H592.23V10.54H586.755V13.645H586.74ZM588.945 6.82002H586.74V9.56502H588.945V6.82002ZM592.215 9.56502V6.82002H589.905V9.56502H592.215Z" fill="white"/>
<path d="M3.50978 33.835V31.465C2.98478 32.065 2.41477 32.62 1.85977 33.085C1.66477 32.875 1.2898 32.56 1.0498 32.395C2.3848 31.39 3.74977 29.695 4.57477 27.955L5.86479 28.405C5.81979 28.495 5.69981 28.57 5.50481 28.54C5.27981 28.99 4.99481 29.455 4.70981 29.89H15.2998V30.88H13.5598V33.82H15.9448V34.81H13.5598V37.78H15.6898V38.77H1.43977V37.78H3.50978V34.81H1.19977V33.82H3.50978V33.835ZM4.19977 39.835C3.77977 41.05 3.01478 42.355 2.09978 43.15L1.0948 42.715C1.9798 42.025 2.75978 40.78 3.17978 39.565L4.19977 39.835ZM4.52977 30.91V33.85H6.4798V30.91H4.52977ZM4.52977 34.84V37.81H6.4798V34.84H4.52977ZM6.3898 42.985C6.3748 42.22 6.23978 40.945 6.04478 39.97L7.03479 39.865C7.25979 40.825 7.43979 42.085 7.45479 42.82L6.37479 42.985H6.3898ZM9.4798 30.91H7.43977V33.85H9.4798V30.91ZM9.4798 34.84H7.43977V37.81H9.4798V34.84ZM10.4398 43C10.2898 42.22 9.85478 40.93 9.41978 39.97L10.4398 39.775C10.8898 40.72 11.3548 41.995 11.5198 42.76L10.4398 43ZM12.5248 33.835V30.895H10.4398V33.835H12.5248ZM12.5248 37.795V34.825H10.4398V37.795H12.5248ZM15.0148 43.15C14.6098 42.265 13.6498 40.855 12.8098 39.835L13.8148 39.475C14.6698 40.465 15.6448 41.845 16.0798 42.73L14.9998 43.135L15.0148 43.15Z" fill="white"/>
<path d="M21.3451 33.79C20.7601 34.78 20.145 35.695 19.485 36.46C19.35 36.205 19.095 35.68 18.915 35.44C20.415 33.745 21.8851 30.91 22.7851 28.09L24.075 28.51C24.045 28.63 23.9101 28.69 23.7151 28.675C23.3251 29.77 22.8751 30.865 22.3501 31.9L22.7251 32.02C22.7251 32.11 22.6051 32.2 22.3951 32.23V43.15H21.3301V33.79H21.3451ZM29.655 41.77H34.5001V42.685H23.7V41.77H28.5901V40.3H24.735V39.415H28.5901V38.08H24.405V37.18H28.5901V36.01H24.735V32.185H33.6451V36.01H29.6701V37.18H33.9451V38.08H29.6701V39.415H33.6751V40.3H29.6701V41.77H29.655ZM24.075 29.62H26.565V28.06L27.9001 28.135C27.8851 28.255 27.8101 28.33 27.5851 28.345V29.62H30.6451V28.045L31.995 28.135C31.98 28.24 31.8901 28.315 31.6801 28.345V29.62H34.3351V30.565H31.6801V31.735H30.6301V30.565H27.5701V31.75H26.5501V30.565H24.0601V29.62H24.075ZM25.7401 35.14H28.575V33.07H25.7401V35.14ZM32.565 35.14V33.07H29.655V35.14H32.565Z" fill="white"/>
<path d="M52.4553 31.21H43.5753C43.2603 31.9 42.9303 32.56 42.5553 33.22H50.4303V41.695C50.4303 43.075 49.7853 43.12 46.8603 43.12C46.8153 42.805 46.6503 42.34 46.4853 42.025C47.0553 42.04 47.5953 42.04 48.0303 42.04C49.2003 42.04 49.3353 42.04 49.3353 41.68V39.82H42.4353V43.105H41.3403V35.035C40.5153 36.145 39.5403 37.135 38.4303 37.945C38.2653 37.705 37.9203 37.3 37.6953 37.06C39.7203 35.635 41.2653 33.49 42.3303 31.195H38.0403V30.13H42.7803C43.0803 29.41 43.3053 28.675 43.5003 27.97L44.9103 28.33C44.8803 28.45 44.7453 28.51 44.5503 28.51C44.3853 29.05 44.2053 29.59 43.9953 30.145H52.4553V31.21ZM49.3203 36.04V34.21H42.4203V36.04H49.3203ZM42.4203 38.86H49.3203V37H42.4203V38.86Z" fill="white"/>
<path d="M58.395 30.775C58.71 29.95 59.025 28.81 59.19 27.97L60.6 28.315C60.555 28.435 60.4501 28.48 60.2401 28.48C60.0601 29.155 59.73 30.055 59.43 30.775H62.1751V40.465H57.705V41.815H56.6851V30.76H58.41L58.395 30.775ZM61.11 35.05V31.795H57.69V35.05H61.11ZM57.69 39.46H61.11V36.025H57.69V39.46ZM70.02 30.805L70.59 30.835C70.575 30.91 70.575 31.075 70.575 31.195C70.35 39.085 70.14 41.695 69.495 42.475C69.09 43.03 68.64 43.12 67.5 43.12C66.96 43.12 66.3 43.105 65.625 43.06C65.595 42.745 65.4601 42.295 65.2651 42.01C66.4201 42.085 67.47 42.085 67.92 42.085C68.175 42.085 68.355 42.025 68.52 41.845C69.045 41.275 69.2851 38.725 69.4801 31.825H64.905C64.38 33.265 63.75 34.57 63.03 35.545C62.85 35.35 62.4601 34.99 62.2201 34.825C63.3751 33.28 64.32 30.61 64.875 27.955L66.2551 28.285C66.2101 28.435 66.075 28.48 65.895 28.465C65.715 29.245 65.505 30.04 65.25 30.805H70.0051H70.02ZM65.385 34.255C66.33 35.53 67.29 37.21 67.635 38.32L66.645 38.8C66.3 37.69 65.385 35.965 64.44 34.69L65.385 34.27V34.255Z" fill="white"/>
<path d="M80.6697 41.74H79.3797V38.32H74.0547V37.45L79.2747 29.53H80.6697V37.27H82.3347V38.32H80.6697V41.74ZM75.4197 37.27H79.3797V32.935C79.3797 32.26 79.4097 31.615 79.4397 30.985H79.3797C79.0047 31.735 78.7047 32.26 78.4047 32.815L75.4197 37.255V37.285V37.27Z" fill="white"/>
<path d="M88.9799 41.74V30.805H88.9499L86.9399 31.96L86.6099 30.955L89.1299 29.53H90.2849V41.74H88.9649H88.9799Z" fill="white"/>
<path d="M102.69 41.74H101.4V38.32H96.0752V37.45L101.295 29.53H102.69V37.27H104.355V38.32H102.69V41.74ZM97.4402 37.27H101.4V32.935C101.4 32.26 101.43 31.615 101.46 30.985H101.4C101.025 31.735 100.725 32.26 100.425 32.815L97.4402 37.255V37.285V37.27Z" fill="white"/>
<path d="M107.79 29.53H114.945V30.4L109.845 41.74H108.465L113.565 30.685V30.655H107.79V29.53Z" fill="white"/>
<path d="M121.739 33.1V38.335C122.489 38.095 123.254 37.825 124.019 37.585L124.184 38.545C122.294 39.25 120.284 39.985 119.009 40.405C119.009 40.555 118.904 40.645 118.814 40.69L118.274 39.43C118.949 39.235 119.774 38.98 120.689 38.68V33.1H118.559V32.035H120.689V28.12L122.069 28.195C122.054 28.315 121.964 28.39 121.739 28.42V32.02H123.824V33.085H121.739V33.1ZM133.529 36.055V37.105H129.044V43.135H127.964V37.105H123.314V36.055H127.964V29.89H123.899V28.87H133.079V29.89H129.029V36.055H133.514H133.529ZM125.639 35.365C125.504 34.225 125.009 32.485 124.439 31.165L125.369 30.88C125.984 32.215 126.494 33.925 126.644 35.065L125.654 35.365H125.639ZM132.914 31.3C132.884 31.39 132.749 31.435 132.569 31.435C132.209 32.62 131.594 34.375 131.069 35.47C131.054 35.455 130.244 35.125 130.244 35.125C130.754 33.985 131.354 32.11 131.669 30.82L132.929 31.285L132.914 31.3Z" fill="white"/>
<path d="M139.89 38.065L141.78 37.315L141.99 38.26C140.295 39.04 138.48 39.805 137.34 40.3C137.34 40.435 137.28 40.525 137.16 40.57L136.59 39.325C137.205 39.115 137.985 38.8 138.84 38.485V33.07H136.875V32.02H138.84V28.12L140.205 28.225C140.19 28.345 140.085 28.405 139.875 28.435V32.02H141.72V33.07H139.875V38.05L139.89 38.065ZM144.165 40.675C144.165 41.575 144.375 41.785 145.515 41.785H149.67C150.645 41.785 150.81 41.335 150.945 39.37C151.2 39.565 151.635 39.745 151.935 39.805C151.755 42.055 151.395 42.775 149.685 42.775H145.485C143.64 42.775 143.115 42.37 143.115 40.66V35.17L141.465 35.875L141.045 34.9L143.115 34.015V29.545L144.48 29.635C144.465 29.755 144.36 29.83 144.15 29.86V33.55L146.52 32.545V28L147.87 28.075C147.855 28.195 147.765 28.27 147.555 28.3V32.095L150.165 30.97L150.39 30.79L151.29 31.12C151.29 31.12 151.215 31.255 151.125 31.3C151.125 34.39 151.08 36.97 150.945 37.585C150.795 38.575 150.24 38.74 148.515 38.74C148.47 38.425 148.38 38.02 148.26 37.765C148.665 37.795 149.235 37.795 149.415 37.795C149.67 37.795 149.85 37.72 149.94 37.33C150.045 36.925 150.075 34.9 150.075 32.17L147.57 33.25V39.505H146.52V33.7L144.15 34.705V40.675H144.165Z" fill="white"/>
<path d="M163.11 41.35H169.98V42.445H155.205V41.35H161.955V36.115H156.78V35.035H161.955V30.25H156.075V29.17H169.11V30.25H163.11V35.035H168.555V36.115H163.11V41.35Z" fill="white"/>
<path d="M186.945 35.35H182.49C183.45 38.68 185.385 41.17 188.565 42.16C188.31 42.4 187.965 42.865 187.8 43.165C184.395 41.92 182.4 39.19 181.38 35.35H176.97C176.805 37.96 176.19 41.005 174.18 43.165C174.015 42.94 173.58 42.55 173.325 42.4C175.665 39.835 175.905 36.235 175.905 33.52V28.975H186.945V35.35ZM177.015 30.055V34.27H185.835V30.055H177.015Z" fill="white"/>
<path d="M206.7 30.67H194.07V34.45C194.07 36.985 193.875 40.69 192.435 43.18C192.255 42.985 191.805 42.67 191.535 42.565C192.885 40.195 193.005 36.85 193.005 34.45V29.665H199.155V27.985L200.61 28.09C200.595 28.21 200.505 28.285 200.28 28.315V29.665H206.7V30.67ZM204.51 37.375L205.245 37.735C205.215 37.81 205.155 37.87 205.08 37.9C204.33 39.25 203.175 40.3 201.75 41.08C203.25 41.65 204.975 42.025 206.835 42.205C206.595 42.445 206.325 42.88 206.19 43.165C204.135 42.88 202.23 42.4 200.595 41.65C198.84 42.415 196.785 42.865 194.685 43.135C194.61 42.865 194.385 42.445 194.205 42.205C196.05 42.01 197.895 41.65 199.5 41.065C198.375 40.39 197.46 39.58 196.785 38.605L197.475 38.35H194.88V37.435H204.315L204.51 37.39V37.375ZM203.64 36.235H197.4V33.535H194.745V32.62H197.4V31.12L198.765 31.225C198.75 31.345 198.645 31.42 198.435 31.435V32.62H202.56V31.12L203.955 31.225C203.94 31.345 203.835 31.42 203.625 31.435V32.62H206.58V33.535H203.625V36.235H203.64ZM197.79 38.335C198.465 39.25 199.44 39.985 200.625 40.585C201.81 40 202.83 39.265 203.55 38.335H197.79ZM202.56 33.52H198.435V35.35H202.56V33.52Z" fill="white"/>
<path d="M223.425 31.075L224.34 31.615C224.295 31.69 224.175 31.75 224.1 31.78C222.255 34.78 218.73 38.515 215.49 40.72C216.885 41.56 218.79 41.77 220.995 41.77C221.52 41.77 224.49 41.77 225.195 41.755C225.03 42.01 224.835 42.52 224.79 42.835H220.95C217.29 42.835 214.71 42.265 213.105 39.715C212.52 40.765 211.83 41.845 211.2 42.67C211.23 42.73 211.245 42.805 211.245 42.865C211.245 42.94 211.215 43.015 211.14 43.09L209.97 42.34C211.14 41.005 212.46 38.845 213.165 37.225L214.17 37.66C214.02 37.975 213.84 38.335 213.66 38.68C213.9 39.22 214.23 39.655 214.59 40.015C217.455 38.125 220.62 34.87 222.375 32.215H210.825V31.135H216.99V28L218.43 28.105C218.415 28.225 218.325 28.3 218.1 28.33V31.135H223.185L223.41 31.075H223.425Z" fill="white"/>
<path d="M228.375 34.495C229.65 34.105 231.585 33.445 233.49 32.83L233.67 33.715C231.975 34.33 230.175 34.975 229.065 35.35C229.05 35.485 228.99 35.575 228.87 35.605L228.375 34.495ZM238.545 30.91C238.545 31.615 238.995 34.195 243.54 35.26C243.345 35.485 243.09 35.935 242.94 36.16C239.445 35.29 238.26 33.325 238.005 32.275C237.81 33.07 237.06 34.465 235.02 35.44L235.47 35.575C235.425 35.71 235.32 35.755 235.095 35.725C234.84 36.145 234.525 36.61 234.21 37.09H243.39V38.05H239.925C239.445 39.07 238.785 39.925 237.9 40.615C239.85 41.14 241.605 41.695 242.925 42.205L242.25 43.12C240.825 42.52 238.92 41.92 236.79 41.35C234.945 42.34 232.44 42.895 229.095 43.165C229.035 42.835 228.84 42.43 228.66 42.175C231.435 42.01 233.595 41.65 235.245 40.975C234.195 40.735 233.115 40.48 232.005 40.27L231.615 40.795L230.61 40.42C231.105 39.79 231.705 38.95 232.32 38.08H228.435V37.12H232.965C233.205 36.745 233.46 36.355 233.7 35.995L233.01 36.19C232.92 35.95 232.635 35.575 232.425 35.365C237.075 34.27 237.405 31.66 237.405 30.955V30.625H235.44C234.945 31.495 234.39 32.26 233.79 32.845C233.61 32.65 233.25 32.365 233.01 32.23C234.015 31.285 234.945 29.665 235.485 28.045L236.745 28.42C236.7 28.54 236.565 28.585 236.4 28.57C236.25 28.96 236.085 29.35 235.905 29.725H242.355L243 29.77C242.985 29.815 242.97 29.935 242.955 29.965C242.58 30.925 242.04 32.095 241.59 32.83L240.66 32.5C240.93 32.005 241.245 31.315 241.53 30.625H238.53V30.955L238.545 30.91ZM229.62 28.435C230.745 28.84 232.185 29.56 232.875 30.13L232.305 30.97C231.615 30.385 230.22 29.635 229.065 29.17L229.62 28.42V28.435ZM232.62 39.43C233.955 39.67 235.29 39.97 236.58 40.27C237.495 39.685 238.2 38.95 238.68 38.035H233.58L232.62 39.415V39.43Z" fill="white"/>
<path d="M247.035 43.285C247.29 42.475 247.62 40.855 247.755 39.82L249.51 39.595C249.165 40.84 248.49 42.535 248.115 43.165L247.035 43.3V43.285Z" fill="white"/>
<path d="M262.41 34.12L262.98 34.15C262.98 34.255 262.98 34.39 262.965 34.525C262.83 40.18 262.74 42.04 262.29 42.595C261.915 43.135 261.48 43.135 260.7 43.135C260.355 43.135 259.95 43.12 259.545 43.105C259.515 42.79 259.41 42.355 259.23 42.085C259.965 42.145 260.625 42.145 260.94 42.145C261.135 42.145 261.255 42.1 261.36 41.935C261.66 41.56 261.78 39.88 261.9 35.155H259.71C259.515 38.275 259.02 41.23 257.58 43.15C257.4 42.925 257.025 42.595 256.755 42.43C258.51 40.135 258.72 35.89 258.795 31.75H256.92V30.7H259.905V28.015L261.33 28.09C261.315 28.21 261.21 28.285 261 28.315V30.7H264.06V31.75H259.86C259.845 32.53 259.83 33.325 259.8 34.12H262.425H262.41ZM268.41 28.06C268.38 28.18 268.275 28.255 268.155 28.285C268.98 30.49 270.54 32.83 272.1 34C271.89 34.3 271.665 34.72 271.5 35.065C269.85 33.7 268.35 31.405 267.555 29.26C266.88 31.315 265.44 33.67 263.73 35.095C263.61 34.795 263.355 34.36 263.175 34.12C264.84 32.785 266.355 30.265 266.97 27.97L268.425 28.045L268.41 28.06ZM270.075 43.135C268.92 42.01 266.49 40.48 264.465 39.535L265.11 38.71C267.135 39.61 269.595 41.08 270.78 42.175L270.06 43.135H270.075ZM266.505 34.39C267.645 35.08 268.995 36.1 269.64 36.865L268.875 37.645C268.26 36.88 266.94 35.8 265.8 35.08L266.52 34.375L266.505 34.39Z" fill="white"/>
<path d="M286.17 29.38H290.04V30.34H286.17V31.27H285.09V30.34H280.35V31.27H279.27V30.34H275.52V29.38H279.27V28L280.65 28.075C280.635 28.195 280.545 28.27 280.335 28.3V29.38H285.075V28L286.454 28.075C286.439 28.195 286.35 28.27 286.14 28.3V29.38H286.17ZM289.23 37.375V41.965C289.23 43.075 288.75 43.105 286.53 43.105C286.485 42.835 286.35 42.475 286.2 42.19C287.01 42.205 287.7 42.205 287.895 42.205C288.105 42.19 288.15 42.145 288.15 41.95V38.335H283.245V40.24L285.45 40.135C285.195 39.73 284.91 39.34 284.625 38.98L285.435 38.68C286.2 39.565 286.98 40.78 287.25 41.62L286.365 41.935C286.26 41.635 286.125 41.32 285.945 40.96C283.41 41.14 280.725 41.29 279.045 41.365C279.015 41.5 278.925 41.56 278.82 41.59L278.415 40.39C279.42 40.36 280.74 40.33 282.195 40.27V38.335H277.44V43.135H276.39V37.36H282.195V36.475H277.605V31.525H288.045V36.475H283.26V37.36H289.245L289.23 37.375ZM278.64 32.335V33.61H282.195V32.335H278.64ZM278.64 35.68H282.195V34.39H278.64V35.68ZM286.965 33.61V32.335H283.245V33.61H286.965ZM286.965 35.68V34.39H283.245V35.68H286.965Z" fill="white"/>
<path d="M296.91 33.1V38.335C297.66 38.095 298.425 37.825 299.19 37.585L299.355 38.545C297.465 39.25 295.455 39.985 294.165 40.405C294.165 40.555 294.06 40.645 293.97 40.69L293.43 39.43C294.105 39.235 294.93 38.98 295.845 38.68V33.1H293.715V32.035H295.845V28.12L297.225 28.195C297.21 28.315 297.12 28.39 296.895 28.42V32.02H298.98V33.085H296.895L296.91 33.1ZM308.685 36.055V37.105H304.2V43.135H303.12V37.105H298.47V36.055H303.12V29.89H299.055V28.87H308.235V29.89H304.2V36.055H308.685ZM300.795 35.365C300.66 34.225 300.165 32.485 299.595 31.165L300.525 30.88C301.14 32.215 301.65 33.925 301.8 35.065L300.81 35.365H300.795ZM308.07 31.3C308.04 31.39 307.905 31.435 307.725 31.435C307.365 32.62 306.75 34.375 306.225 35.47C306.21 35.455 305.4 35.125 305.4 35.125C305.91 33.985 306.51 32.11 306.825 30.82L308.085 31.285L308.07 31.3Z" fill="white"/>
<path d="M320.46 30.175H326.88V31.225H314.28V34.48C314.28 36.985 314.07 40.66 312.66 43.15C312.465 42.955 311.97 42.64 311.715 42.52C313.05 40.15 313.185 36.85 313.185 34.48V30.175H319.335V27.985L320.79 28.09C320.775 28.21 320.685 28.285 320.46 28.315V30.175ZM321.33 31.69C321.315 31.81 321.225 31.885 321 31.915V33.64H326.655V34.63H321V37.12H325.515V43.105H324.405V42.49H316.965V43.165H315.885V37.135H319.89V31.6L321.315 31.705L321.33 31.69ZM324.405 41.5V38.125H316.965V41.5H324.405Z" fill="white"/>
<path d="M345.255 35.41V36.505H338.355V41.665C338.355 42.445 338.145 42.775 337.56 42.97C336.975 43.15 335.91 43.165 334.305 43.165C334.23 42.835 334.035 42.355 333.825 42.025C334.695 42.055 335.505 42.07 336.075 42.07C337.095 42.07 337.23 42.07 337.23 41.65V36.505H330.3V35.41H337.23V32.74L337.86 32.77C339.15 32.095 340.545 31.135 341.595 30.25H331.995V29.17H342.81L343.005 29.095L343.98 29.74C343.935 29.815 343.8 29.86 343.71 29.89C342.375 31.165 340.215 32.695 338.355 33.655V35.41H345.255Z" fill="white"/>
<path d="M350.774 33.265H348.704L348.584 32.77H350.774V28.075L351.614 28.225C351.869 28.255 351.989 28.36 351.989 28.48C351.989 28.6 351.914 28.705 351.779 28.735C351.644 28.765 351.584 28.87 351.584 28.975V32.755H352.259L353.159 31.87L353.999 32.65C353.999 32.65 354.104 32.8 354.104 32.89C354.104 32.98 354.044 33.235 353.774 33.235H351.584V38.38C352.364 38.005 353.129 37.57 353.864 37.045C353.909 37.015 353.939 37 353.984 37C354.074 37 354.164 37.12 354.164 37.195C354.164 37.24 354.134 37.285 354.104 37.33C353.714 37.675 352.139 39.07 349.664 40.03C349.604 40.06 349.589 40.18 349.589 40.33C349.589 40.51 349.514 40.69 349.349 40.69C349.244 40.69 349.139 40.6 349.034 40.375L348.524 39.385L349.319 39.235L350.774 38.725V33.235V33.265ZM358.859 38.815V36.385L359.774 36.52C360.029 36.55 360.164 36.655 360.164 36.775C360.164 36.895 360.089 37.015 359.924 37.09C359.759 37.165 359.684 37.27 359.684 37.39V38.83H361.409L362.429 37.96L363.479 38.74C363.554 38.785 363.599 38.875 363.599 38.965C363.599 38.995 363.599 39.025 363.584 39.07C363.569 39.22 363.434 39.31 363.239 39.31H359.684V42.88C359.684 43.135 359.159 43.24 359.054 43.24C358.949 43.24 358.874 43.195 358.874 43.09V39.31H353.759L353.624 38.815H358.874H358.859ZM354.734 29.785L355.439 30.28H357.689C357.944 29.575 358.124 28.825 358.184 28.075L359.069 28.21C359.294 28.24 359.399 28.345 359.399 28.465C359.399 28.585 359.294 28.69 359.174 28.69C359.039 28.705 358.949 28.75 358.919 28.825C358.724 29.29 358.424 29.785 358.109 30.28H361.874L362.294 29.845L363.044 30.34C363.044 30.34 363.149 30.445 363.149 30.505C363.149 30.58 363.074 30.73 362.909 30.79C362.774 30.82 362.699 30.88 362.699 30.97V36.46C362.714 36.55 362.639 36.655 362.534 36.7C362.024 36.835 361.904 36.865 361.904 36.46V35.755H358.259L357.854 36.4C356.744 37.87 354.359 38.5 354.284 38.5C354.119 38.5 354.119 38.425 354.119 38.38C354.119 38.335 354.149 38.305 354.194 38.275C355.319 37.825 356.414 37.21 357.179 36.235L357.494 35.71H355.589V36.235C355.589 36.235 355.529 36.385 355.409 36.445C354.854 36.58 354.794 36.595 354.794 36.205V29.785H354.734ZM358.229 31.03V30.79H355.544V32.71H358.154L358.229 31.03ZM357.884 34.645C357.989 34.285 358.064 33.805 358.109 33.175H355.529V35.245H357.629L357.869 34.645H357.884ZM358.694 34.465L358.439 35.245H361.859V33.175H358.904L358.694 34.465ZM358.949 32.71H361.844V30.79H359.024V31.03L358.949 32.71Z" fill="white"/>
<path d="M375.015 41.515H381.855V42.595H367.125V41.515H373.89V37.15H368.925V36.085H373.89V32.32H369.9C369.33 33.49 368.655 34.555 367.95 35.335C367.74 35.14 367.32 34.825 367.035 34.66C368.37 33.25 369.525 30.76 370.2 28.27L371.625 28.66C371.58 28.78 371.46 28.84 371.25 28.84C371.01 29.635 370.725 30.46 370.41 31.24H373.905V27.985L375.375 28.06C375.36 28.18 375.255 28.255 375.03 28.285V31.24H381.105V32.32H375.03V36.085H380.505V37.15H375.03V41.515H375.015Z" fill="white"/>
<path d="M388.47 39.865C388.08 41.065 387.42 42.16 386.04 42.76L385.215 42.13C386.46 41.62 387.21 40.645 387.54 39.52L388.47 39.865ZM392.175 32.065C392.04 31.84 391.875 31.6 391.68 31.33C389.475 31.48 387.24 31.615 385.83 31.69C385.8 31.81 385.695 31.885 385.605 31.9L385.245 30.79L386.52 30.745C387.045 29.95 387.645 28.81 387.99 27.985L389.22 28.42C389.19 28.51 389.07 28.555 388.875 28.555C388.56 29.17 388.065 30.01 387.585 30.7L391.035 30.55C390.69 30.145 390.3 29.755 389.925 29.425L390.705 28.99C391.605 29.725 392.58 30.805 393 31.555L392.175 32.065ZM391.95 32.44V37.675C391.95 38.575 391.53 38.68 389.745 38.68C389.7 38.425 389.535 38.095 389.415 37.87C390.93 37.9 390.93 37.885 390.93 37.675V36.685H387.24V38.89H386.235V32.455H391.935L391.95 32.44ZM390.945 33.235H387.255V34.21H390.945V33.235ZM387.255 35.935H390.945V34.96H387.255V35.935ZM390.66 41.485C390.66 41.86 390.81 41.92 391.665 41.92H394.725C395.415 41.92 395.52 41.755 395.595 40.465C395.82 40.63 396.255 40.765 396.54 40.825C396.42 42.475 396.09 42.85 394.845 42.85H391.605C389.985 42.85 389.58 42.595 389.58 41.485V39.46L390.975 39.535C390.96 39.655 390.855 39.73 390.645 39.76V41.47L390.66 41.485ZM393.615 40.795C393.075 40.225 391.95 39.49 390.99 39.07L391.68 38.455C392.64 38.86 393.765 39.55 394.335 40.12L393.615 40.81V40.795ZM398.46 32.02C399.06 32.02 399.18 31.825 399.24 30.535C399.465 30.7 399.87 30.835 400.17 30.895C400.05 32.53 399.735 32.935 398.55 32.935H395.595C394.11 32.935 393.72 32.665 393.72 31.51V28L395.055 28.09C395.04 28.195 394.95 28.27 394.74 28.3V29.965C396.12 29.59 397.56 29.08 398.385 28.615L399.315 29.365C399.24 29.425 399.12 29.44 399 29.41C397.98 29.905 396.285 30.4 394.725 30.79V31.495C394.725 31.9 394.86 32.005 395.64 32.005H398.43L398.46 32.02ZM398.52 37.69C399.135 37.69 399.255 37.48 399.3 36.16C399.54 36.34 399.945 36.49 400.245 36.535C400.11 38.2 399.795 38.62 398.61 38.62H395.61C394.11 38.62 393.72 38.32 393.72 37.165V33.37L395.055 33.46C395.04 33.565 394.95 33.64 394.74 33.67V35.38C396.18 34.99 397.71 34.48 398.565 33.985L399.51 34.75C399.51 34.75 399.405 34.81 399.33 34.81C399.3 34.81 399.255 34.81 399.195 34.795C398.115 35.305 396.345 35.815 394.725 36.22V37.165C394.725 37.6 394.86 37.69 395.655 37.69H398.49H398.52ZM399.45 42.73C398.895 41.86 397.65 40.72 396.48 39.985L397.335 39.445C398.505 40.15 399.78 41.245 400.35 42.1L399.45 42.715V42.73Z" fill="white"/>
<path d="M409.605 28.96C409.56 29.08 409.425 29.125 409.23 29.125C408.15 31.585 406.44 34.06 404.7 35.65C404.475 35.425 404.025 35.065 403.74 34.9C405.48 33.445 407.16 30.97 408.18 28.48L409.62 28.975L409.605 28.96ZM411.33 34.375C411.285 34.51 411.135 34.585 410.925 34.585C410.16 36.52 408.96 39.13 407.865 41.11C410.16 41.05 412.89 40.945 415.515 40.855C414.735 39.745 413.82 38.56 413.01 37.6L414.03 37.105C415.545 38.83 417.27 41.125 418.11 42.61L417.015 43.21C416.805 42.805 416.505 42.325 416.16 41.815C412.065 42.055 407.715 42.235 405.015 42.355C404.985 42.49 404.865 42.565 404.76 42.58L404.31 41.215L406.635 41.155C407.775 39.13 409.08 36.145 409.83 33.985L411.345 34.39L411.33 34.375ZM413.925 28.48C415.05 30.685 417.15 33.34 418.68 34.72C418.38 34.945 417.975 35.35 417.765 35.65C416.235 34.09 414.135 31.255 412.86 28.915L413.925 28.48Z" fill="white"/>
<path d="M422.595 28.72H436.335V43.12H435.255V42.4H423.63V43.12H422.58V28.72H422.595ZM423.645 41.395H435.27V29.725H423.645V41.395ZM430.035 37.225C430.395 37.645 430.845 38.05 431.385 38.425C432.09 37.99 432.93 37.36 433.425 36.94L434.325 37.495C434.325 37.495 434.16 37.6 433.995 37.6C433.485 37.96 432.72 38.44 432.045 38.845C432.9 39.355 433.845 39.745 434.76 39.985C434.55 40.15 434.295 40.495 434.145 40.72C432.51 40.21 430.8 39.19 429.675 37.975V40.915H428.685V38.35C427.545 39.13 426.15 39.805 424.86 40.27C424.725 40.09 424.44 39.745 424.275 39.58C425.805 39.07 427.545 38.23 428.76 37.21H425.865V34.45H433.05V37.21H430.05L430.035 37.225ZM434.37 32.905V33.655H424.515V32.905H428.895V31.81H425.535V31.075H428.895V30.085L430.23 30.19C430.215 30.28 430.125 30.37 429.915 30.4V31.09H433.38V31.825H429.915V32.92H434.37V32.905ZM426.795 35.14V36.535H432.045V35.14H426.795Z" fill="white"/>
<path d="M444.03 32.32C443.91 31.795 443.61 31 443.295 30.355H442.545C442.08 31.15 441.525 31.885 440.985 32.44C440.775 32.26 440.4 32.005 440.145 31.87C441.105 30.955 442.05 29.425 442.605 27.91L443.85 28.315C443.82 28.435 443.67 28.48 443.505 28.465C443.37 28.795 443.205 29.14 443.055 29.455H447.57V30.355H444.405C444.675 30.91 444.915 31.525 445.02 31.945L444.045 32.32H444.03ZM453.765 37.81H454.005L454.635 37.885C454.635 38.005 454.605 38.11 454.59 38.23C454.17 42.34 453.84 42.4 451.95 42.4C451.575 42.4 451.14 42.4 450.66 42.37C450.66 42.04 450.525 41.635 450.345 41.35C451.155 41.44 451.95 41.44 452.22 41.44C452.52 41.44 452.67 41.425 452.805 41.29C453.06 41.065 453.24 40.375 453.42 38.77H448.305V43.12H447.225V39.1C445.59 40.735 443.115 42.115 440.925 42.835C440.76 42.58 440.445 42.16 440.22 41.95C442.32 41.365 444.705 40.165 446.235 38.77H442.77L442.59 39.37L441.51 39.205C441.855 38.155 442.26 36.52 442.515 35.23H447.225V33.46H441.63V32.515H453.585V36.175H448.29V37.81H453.735H453.765ZM447.24 36.175H443.415C443.295 36.715 443.16 37.285 443.025 37.81H447.24V36.175ZM450.315 28.285C450.285 28.405 450.15 28.435 449.985 28.435C449.835 28.78 449.67 29.125 449.49 29.44H455.295V30.34H451.395C451.815 30.895 452.19 31.51 452.385 31.975L451.425 32.365C451.215 31.81 450.72 31 450.21 30.34H448.935C448.41 31.12 447.795 31.825 447.165 32.335C446.97 32.155 446.595 31.885 446.34 31.735C447.45 30.88 448.47 29.44 449.04 27.91L450.315 28.3V28.285ZM448.305 33.445V35.215H452.52V33.445H448.305Z" fill="white"/>
<path d="M458.61 34.78H473.7V35.98H458.61V34.78Z" fill="white"/>
<path d="M482.25 36.19L480.135 36.895V41.815C480.135 43 479.625 43.165 477.54 43.135C477.495 42.88 477.345 42.415 477.195 42.115C477.645 42.13 478.05 42.145 478.35 42.145C479.025 42.145 479.1 42.145 479.1 41.815V37.225C478.47 37.435 477.9 37.615 477.42 37.765C477.42 37.9 477.33 37.975 477.21 38.02L476.805 36.76C477.435 36.595 478.245 36.37 479.1 36.13V32.425H476.97V31.405H479.1V28L480.435 28.075C480.42 28.21 480.345 28.27 480.12 28.3V31.39H482.04V32.41H480.12V35.815L482.085 35.23L482.235 36.175L482.25 36.19ZM484.89 30.835V28L486.21 28.075C486.21 28.195 486.12 28.255 485.895 28.285V34.96C485.895 38.245 485.52 41.125 482.49 43.135C482.31 42.925 481.95 42.565 481.71 42.4C483.24 41.395 484.035 40.18 484.47 38.8C483.54 39.145 482.655 39.445 482.04 39.67C482.04 39.805 481.965 39.88 481.845 39.925L481.32 38.815C482.22 38.575 483.435 38.185 484.695 37.765C484.83 37.015 484.875 36.22 484.89 35.38H482.235V34.375H484.89V31.81H482.115V30.805H484.89V30.835ZM492.015 38.14V39.145H488.775V43.12H487.725V28L489.09 28.075C489.075 28.195 488.97 28.27 488.76 28.3V30.82H491.73V31.825H488.76V34.39H491.565V35.395H488.76V38.11H492L492.015 38.14Z" fill="white"/>
<path d="M495.57 43.285C495.825 42.475 496.155 40.855 496.29 39.82L498.045 39.595C497.7 40.84 497.025 42.535 496.65 43.165L495.57 43.3V43.285Z" fill="white"/>
<path d="M520.245 33.91H513.87C514.935 37.81 517.035 40.81 520.5 42.085C520.23 42.325 519.87 42.79 519.69 43.105C516.285 41.71 514.215 38.815 513 34.885C512.25 38.11 510.48 41.305 506.265 43.12C506.1 42.82 505.755 42.43 505.485 42.19C509.79 40.45 511.395 37.18 512.025 33.895H505.74V32.77H512.205C512.415 31.075 512.4 29.41 512.415 28L513.945 28.075C513.93 28.225 513.795 28.3 513.585 28.345C513.57 29.635 513.555 31.165 513.36 32.755H520.23V33.88L520.245 33.91Z" fill="white"/>
<path d="M538.755 36.88V37.96H531.855V41.59C531.855 42.415 531.615 42.745 531.03 42.925C530.43 43.12 529.365 43.135 527.61 43.12C527.535 42.805 527.31 42.34 527.13 42.025C527.91 42.055 528.66 42.055 529.23 42.055C530.61 42.055 530.73 42.055 530.73 41.59V37.96H523.875V36.88H530.73V34.12H524.955V33.07H530.73V30.43C528.945 30.64 527.04 30.805 525.3 30.895C525.27 30.625 525.135 30.19 525 29.95C528.945 29.695 533.685 29.17 536.1 28.3L537.045 29.23C537.045 29.23 536.94 29.275 536.85 29.275C536.82 29.275 536.775 29.275 536.7 29.26C535.53 29.65 533.925 29.965 532.17 30.22C532.14 30.34 532.05 30.385 531.84 30.415V33.055H537.81V34.105H531.84V36.865H538.74L538.755 36.88Z" fill="white"/>
<path d="M555.165 37.345H550.125V38.41H555.735V39.295H550.125V40.42H556.815V41.305H550.125V43.165H549.015V41.305H542.46V40.42H549.015V39.295H543.54V38.41H549.015V37.345H544.095V36.49H549.015V35.41H542.16V34.54H549.015V33.52H544.23V32.68H549.015V31.87L548.895 31.945C548.685 31.78 548.295 31.555 548.025 31.42C548.475 31.105 548.94 30.715 549.36 30.28H546.48C546.825 30.79 547.155 31.345 547.305 31.75L546.345 32.08C546.18 31.615 545.775 30.88 545.37 30.28H544.605C544.095 31.045 543.54 31.75 542.985 32.275C542.775 32.11 542.4 31.855 542.16 31.72C543.12 30.85 544.095 29.395 544.71 27.955L545.955 28.375C545.91 28.48 545.79 28.54 545.61 28.51C545.475 28.81 545.31 29.11 545.16 29.41H549.48V30.175C550.065 29.53 550.59 28.735 550.935 27.955L552.165 28.33C552.135 28.45 552.03 28.495 551.835 28.48C551.685 28.795 551.505 29.095 551.31 29.41H557.07V30.295H553.05C553.44 30.745 553.8 31.255 553.995 31.645L553.065 32.05C552.84 31.555 552.33 30.865 551.835 30.295H550.68C550.26 30.82 549.78 31.27 549.315 31.66L550.47 31.735C550.455 31.855 550.35 31.93 550.14 31.945V32.68H555.18V34.555H557.13V35.425H555.18V37.345H555.165ZM550.125 33.535V34.555H554.04V33.535H550.125ZM550.125 35.425V36.505H554.04V35.425H550.125Z" fill="white"/>
<path d="M564.39 35.935C565.305 35.71 566.25 35.485 567.18 35.23L567.3 36.175C566.34 36.445 565.35 36.73 564.405 36.985V41.68C564.405 43.045 563.73 43.105 561.225 43.105C561.165 42.805 561 42.34 560.85 42.04C561.795 42.055 562.68 42.055 562.935 42.055C563.19 42.04 563.295 41.95 563.295 41.68V37.3L560.97 37.945C560.97 38.065 560.865 38.155 560.76 38.185L560.34 36.895C561.135 36.715 562.185 36.475 563.31 36.19V32.425H560.505V31.36H563.31V27.955L564.75 28.03C564.735 28.165 564.645 28.225 564.42 28.255V31.345H566.985V32.41H564.42V35.905L564.39 35.935ZM575.655 29.455V30.535H572.565V41.605C572.565 42.415 572.355 42.76 571.785 42.94C571.215 43.135 570.225 43.135 568.605 43.135C568.545 42.82 568.38 42.34 568.2 42.025C568.95 42.04 569.655 42.055 570.195 42.055C571.35 42.055 571.455 42.055 571.455 41.605V30.535H566.49V29.455H575.685H575.655Z" fill="white"/>
<path d="M582.3 34.51V39.835C583.575 41.77 585.9 41.77 588.84 41.77C590.595 41.77 592.665 41.725 593.94 41.635C593.805 41.89 593.61 42.415 593.58 42.745C592.455 42.79 590.67 42.82 589.05 42.82C585.69 42.82 583.455 42.82 581.82 40.795C581.025 41.515 580.155 42.25 579.465 42.805C579.465 42.955 579.435 43.015 579.315 43.06L578.685 41.86C579.465 41.335 580.425 40.585 581.265 39.865V35.53H578.865V34.48H582.315L582.3 34.51ZM579.87 28.405C580.965 29.11 582.21 30.175 582.78 30.985L581.91 31.72C581.37 30.91 580.14 29.8 579.045 29.065L579.855 28.42L579.87 28.405ZM593.67 33.52V34.48H583.065V33.52H587.895V31.15H585.51C585.18 31.885 584.79 32.575 584.4 33.085C584.175 32.92 583.74 32.725 583.485 32.59C584.295 31.585 585 29.845 585.42 28.195L586.725 28.555C586.695 28.675 586.575 28.72 586.38 28.72C586.245 29.185 586.08 29.68 585.9 30.175H587.865V27.985L589.29 28.06C589.275 28.18 589.17 28.255 588.96 28.285V30.16H592.935V31.135H588.96V33.505H593.655L593.67 33.52ZM592.305 40.735H591.225V40.18H585.75V40.78H584.7V35.695H592.29V40.735H592.305ZM585.75 39.205H591.225V36.61H585.75V39.205Z" fill="white"/>
<path d="M1.6947 56.155H15.4347V70.6H14.3397V69.805H2.72971V70.6H1.67969V56.155H1.6947ZM2.74467 68.785H14.3547V57.16H2.74467V68.785ZM3.53967 66.28C4.81467 66.07 6.70471 65.71 8.59471 65.365L8.63971 66.1C6.94471 66.475 5.21969 66.85 4.12469 67.06C4.12469 67.195 4.03469 67.255 3.92969 67.3L3.53967 66.28ZM9.80971 60.295C9.95971 61.795 10.1847 63.19 10.4847 64.33C11.0547 63.385 11.4897 62.305 11.7897 61.12L12.9297 61.39C12.8997 61.51 12.7947 61.555 12.5997 61.555C12.2097 62.995 11.6097 64.3 10.8447 65.395C11.2347 66.37 11.7897 67.09 12.3447 67.09C12.5847 67.09 12.7497 66.385 12.8697 65.35C13.0497 65.53 13.3947 65.755 13.5897 65.875C13.4097 67.375 13.0197 68.08 12.4047 68.08C12.2847 68.08 12.1797 68.065 12.0447 68.02C11.2647 67.87 10.6797 67.24 10.1997 66.265C9.52468 67.06 8.74469 67.735 7.87469 68.26C7.73969 68.08 7.4697 67.75 7.2747 67.585C8.2497 67.03 9.11969 66.265 9.83969 65.335C9.40469 63.985 9.1047 62.23 8.9097 60.295H3.71971V59.455H8.8197C8.7747 58.855 8.71471 58.24 8.68471 57.61L9.9897 57.67C9.9747 57.805 9.8547 57.88 9.6597 57.91C9.6747 58.435 9.70469 58.93 9.74969 59.44H13.4697V60.28H9.82468L9.80971 60.295ZM4.3197 61.405H8.00969V64.63H4.3197V61.405ZM7.16969 63.91V62.11H5.1147V63.91H7.16969ZM11.1597 57.46C11.8197 57.73 12.5997 58.195 12.9897 58.585L12.4647 59.185C12.0747 58.81 11.2947 58.3 10.6347 58L11.1597 57.46Z" fill="white"/>
<path d="M22.95 56.05L23.625 56.455C23.625 56.455 23.5651 56.575 23.5051 56.605C23.1601 57.865 22.65 59.575 22.2 60.94C23.19 62.335 23.565 63.52 23.565 64.57C23.565 66.835 22.485 66.865 21.33 66.805C21.315 66.55 21.2251 66.13 21.1051 65.89C21.3151 65.905 21.51 65.905 21.69 65.905C22.2 65.905 22.62 65.905 22.62 64.51C22.605 63.565 22.275 62.425 21.27 61.045C21.675 59.8 22.0801 58.255 22.3651 57.1H20.535V70.54H19.5601V56.095H22.785L22.95 56.05ZM25.6951 58.285C26.1001 58.51 26.58 58.84 26.94 59.14C27.15 58.66 27.3301 58.18 27.4801 57.655H25.485C24.975 58.66 24.33 59.575 23.625 60.22C23.46 60.07 23.145 59.815 22.92 59.68C24 58.735 24.9151 57.1 25.4251 55.375L26.565 55.69C26.535 55.81 26.415 55.855 26.235 55.855C26.145 56.17 26.01 56.485 25.875 56.8H27.885L28.08 56.77C28.56 56.95 28.6351 56.98 28.6951 57.025C28.6651 57.1 28.6201 57.16 28.5601 57.205C27.8401 60.34 26.085 62.725 24.045 64C23.91 63.775 23.64 63.43 23.415 63.25C24.18 62.815 24.93 62.155 25.575 61.345C25.215 60.985 24.6901 60.55 24.2401 60.235L24.75 59.74C25.17 60.01 25.665 60.415 26.01 60.73C26.22 60.43 26.4 60.13 26.58 59.815C26.22 59.47 25.695 59.08 25.245 58.825L25.68 58.285H25.6951ZM26.3101 66.97C25.7401 68.065 24.8101 69.22 23.9251 69.97C23.7601 69.79 23.415 69.49 23.205 69.34C24.03 68.665 24.915 67.54 25.455 66.43C26.325 66.73 26.475 66.775 26.625 66.835C26.595 66.925 26.475 66.985 26.295 66.985L26.3101 66.97ZM33.075 65.725H29.25V69.37C29.25 70.39 28.8601 70.525 26.5501 70.525C26.5051 70.255 26.34 69.835 26.19 69.58C27.015 69.595 27.7351 69.595 27.9451 69.58C28.1551 69.565 28.2 69.535 28.2 69.34V65.725H24.555V64.78H33.075V65.725ZM26.1 63.16V62.245H31.41V63.16H26.1ZM33.27 56.725L33.975 57.145C33.96 57.22 33.855 57.265 33.795 57.295C33.345 58.54 32.5351 60.01 31.7101 61.045C32.4151 61.915 33.2551 62.59 34.2301 63.055C34.0051 63.25 33.69 63.61 33.54 63.88C30.87 62.47 29.25 59.575 28.455 55.9L29.34 55.705C29.715 57.445 30.315 59.02 31.17 60.295C31.725 59.545 32.2501 58.555 32.5951 57.64H30.285V56.77H33.1051L33.285 56.725H33.27ZM32.955 69.82C32.535 69.04 31.53 67.825 30.645 66.97L31.44 66.46C32.34 67.285 33.36 68.455 33.825 69.25L32.955 69.82Z" fill="white"/>
<path d="M41.2352 65.245C41.9102 65.74 43.6802 67.165 44.1002 67.54L43.4702 68.425C43.0652 67.96 42.0152 66.985 41.2352 66.295V70.525H40.1702V66.055C39.3902 67.36 38.3402 68.59 37.3502 69.385C37.2152 69.13 36.9452 68.755 36.7202 68.545C37.8752 67.75 39.1202 66.25 39.8702 64.765H37.0352V63.805H40.1852V61.99H36.8552V61.045H44.2652V61.99H41.3102L41.5352 62.005C41.5202 62.125 41.4302 62.185 41.2202 62.215V63.79H44.1302V64.75H41.2202V65.245H41.2352ZM44.0852 57.145V58.09H37.1852V57.145H40.1702V55.39L41.5352 55.465C41.5202 55.585 41.4302 55.66 41.2202 55.69V57.145H44.0702H44.0852ZM39.1202 58.255C39.4802 59.02 39.7502 60.055 39.8402 60.715L38.9102 60.94C38.8502 60.265 38.5802 59.23 38.2352 58.45L39.1202 58.255ZM43.4852 58.555C43.4402 58.675 43.3202 58.72 43.1402 58.72C42.9452 59.395 42.5852 60.37 42.2702 61.015L41.4602 60.745C41.7152 60.04 42.0752 58.945 42.2402 58.225L43.4852 58.57V58.555ZM47.2802 65.875C47.2502 65.995 47.1452 66.055 46.9652 66.07C46.6202 67.825 45.9602 69.58 43.7252 70.57C43.5902 70.33 43.2902 69.955 43.0502 69.775C45.0452 68.965 45.6902 67.435 45.9452 65.74L47.2652 65.89L47.2802 65.875ZM49.5152 68.98C49.5152 69.34 49.5602 69.4 49.8752 69.4H50.8502C51.1952 69.4 51.2552 69.16 51.2852 67.165C51.5102 67.345 51.9302 67.51 52.2302 67.585C52.1252 69.835 51.8702 70.375 50.9702 70.375H49.7252C48.7052 70.375 48.4652 70.06 48.4652 68.98V65.395H44.8652V56.05H51.2552V65.395H49.5002V68.98H49.5152ZM45.9002 57.055V58.885H50.2352V57.055H45.9002ZM45.9002 59.8V61.645H50.2352V59.8H45.9002ZM45.9002 62.56V64.435H50.2352V62.56H45.9002Z" fill="white"/>
<path d="M55.3646 59.995C56.3396 60.37 57.5396 61.015 58.1246 61.54L57.5096 62.44C56.9246 61.915 55.7546 61.225 54.7646 60.79L55.3646 59.995ZM55.1096 69.715C55.7846 68.44 56.7446 66.28 57.4346 64.435L58.3046 65.02C57.6896 66.73 56.8347 68.755 56.2197 69.97C56.2797 70.06 56.3246 70.15 56.3246 70.225C56.3246 70.27 56.3096 70.345 56.2796 70.39L55.1246 69.7L55.1096 69.715ZM56.1146 55.57C57.0596 56.005 58.1847 56.725 58.7547 57.265L58.0796 58.15C57.5396 57.595 56.4147 56.83 55.4697 56.365L56.0996 55.585L56.1146 55.57ZM63.7346 68.29H59.9546V69.655H58.9946V62.98H60.8246V59.89H58.3347V58.87H60.8246V55.42L62.1446 55.495C62.1296 55.615 62.0396 55.675 61.8296 55.705V58.87H64.2596V59.89H61.8296V62.98H63.7346V68.29ZM62.7446 63.955H59.9546V67.315H62.7446V63.955ZM69.3896 56.02V69.235C69.3896 70.51 68.7596 70.555 66.6596 70.555C66.6146 70.27 66.4496 69.805 66.2846 69.55C67.1096 69.565 67.8296 69.565 68.0396 69.565C68.2646 69.55 68.3696 69.49 68.3696 69.235V65.005H65.6996C65.5046 66.97 64.9646 69.04 63.5546 70.54C63.3896 70.36 62.9696 70.045 62.7296 69.94C64.6346 67.945 64.8146 65.08 64.8146 62.74V56.02H69.4046H69.3896ZM65.7896 62.74C65.7896 63.145 65.7896 63.565 65.7596 64.015H68.3696V60.985H65.7896V62.74ZM68.3696 57.04H65.7896V59.995H68.3696V57.04Z" fill="white"/>
<path d="M86.5647 60.22H75.5547V61.09C75.5547 63.865 75.3148 67.855 73.5598 70.54C73.3648 70.345 72.8697 70.075 72.6147 69.955C74.2947 67.36 74.4598 63.73 74.4598 61.09V56.275H86.5647V60.22ZM85.4698 57.265H75.5397V59.215H85.4698V57.265ZM87.7047 63.19H82.0498V65.2H86.2947V70.48H85.1997V69.91H78.0148V70.51H76.9497V65.2H80.9547V63.19H75.7947V62.2H80.9547V60.295L82.3798 60.37C82.3648 60.49 82.2748 60.565 82.0498 60.595V62.185H87.7047V63.175V63.19ZM85.1997 68.905V66.16H78.0148V68.905H85.1997Z" fill="white"/>
<path d="M97.6052 64.21H92.7002C92.6552 66.22 92.3702 68.755 91.2152 70.525C91.0502 70.33 90.6152 69.985 90.3452 69.85C91.5152 68.065 91.6352 65.53 91.6352 63.625V59.125H97.6052V64.195V64.21ZM98.1152 56.29V57.295H90.8102V56.29H98.1152ZM96.5552 60.145H92.7152V63.205H96.5552V60.145ZM105.96 61.015V62.08H104.025V70.54H102.945V62.08H99.9152C99.8552 64.675 99.3902 68.035 97.1102 70.48C96.9602 70.24 96.5702 69.88 96.3002 69.73C98.5802 67.285 98.8352 64 98.8352 61.45V57.1L99.6902 57.325C101.505 56.845 103.47 56.23 104.595 55.6L105.66 56.485C105.66 56.485 105.48 56.575 105.33 56.545C104.01 57.145 101.88 57.79 99.9152 58.255V61.03H105.96V61.015Z" fill="white"/>
<path d="M108.945 70.69C109.2 69.88 109.53 68.26 109.665 67.225L111.42 67C111.075 68.245 110.4 69.94 110.025 70.57L108.945 70.705V70.69Z" fill="white"/>
<path d="M122.79 62.41C123.42 62.92 125.25 64.6 125.685 65.02L124.98 65.89C124.575 65.35 123.54 64.27 122.775 63.52V70.525H121.695V63.01C120.915 64.855 119.85 66.73 118.89 67.855C118.755 67.555 118.485 67.105 118.29 66.835C119.43 65.62 120.735 63.31 121.485 61.315H118.485V60.25H121.695V57.475C120.72 57.73 119.685 57.94 118.71 58.15C118.665 57.925 118.5 57.55 118.35 57.325C120.615 56.89 123.225 56.17 124.59 55.405L125.595 56.215C125.595 56.215 125.475 56.275 125.415 56.275C125.37 56.275 125.34 56.275 125.28 56.26C124.605 56.59 123.735 56.905 122.76 57.19V60.25H125.595V61.315H122.76V62.425L122.79 62.41ZM130.86 63.505C132.06 65.635 133.245 68.41 133.59 70.165L132.48 70.555C132.39 70.105 132.24 69.565 132.06 68.98C129.3 69.295 126.45 69.595 124.665 69.76C124.65 69.895 124.545 69.97 124.44 69.985L124.005 68.65L125.565 68.53C126.57 65.02 127.68 59.65 128.265 55.705L129.825 56.05C129.795 56.185 129.63 56.275 129.42 56.305C128.805 59.92 127.71 64.93 126.72 68.425C128.25 68.305 129.99 68.155 131.715 68.005C131.205 66.61 130.545 65.095 129.84 63.82L130.845 63.49L130.86 63.505Z" fill="white"/>
<path d="M151.32 66.355V67.315H144.45V69.355C144.45 69.985 144.255 70.27 143.715 70.42C143.175 70.57 142.245 70.57 140.745 70.57C140.685 70.27 140.52 69.895 140.37 69.64C141.06 69.655 141.705 69.67 142.2 69.67C143.22 69.67 143.31 69.67 143.31 69.325V67.315H136.515V66.355H143.31V65.23L144.045 65.275C145.05 64.975 146.13 64.6 147.045 64.21H138.105V63.295H148.71L148.92 63.235L149.835 63.835C149.79 63.91 149.655 63.97 149.55 63.985C148.245 64.705 146.28 65.47 144.45 65.935V66.34H151.32V66.355ZM151.155 56.89V57.85H136.62V56.89H143.28V55.375L144.75 55.45C144.735 55.57 144.63 55.645 144.405 55.675V56.875H151.155V56.89ZM148.98 62.23H138.87V58.96H148.98V62.23ZM139.965 59.785V61.375H147.84V59.785H139.965Z" fill="white"/>
<path d="M154.83 59.995C155.805 60.37 157.005 61.015 157.59 61.54L156.975 62.44C156.39 61.915 155.22 61.225 154.23 60.79L154.83 59.995ZM154.575 69.715C155.25 68.44 156.21 66.28 156.9 64.435L157.77 65.02C157.155 66.73 156.3 68.755 155.685 69.97C155.745 70.06 155.79 70.15 155.79 70.225C155.79 70.27 155.775 70.345 155.745 70.39L154.59 69.7L154.575 69.715ZM155.58 55.57C156.525 56.005 157.65 56.725 158.22 57.265L157.546 58.15C157.006 57.595 155.88 56.83 154.935 56.365L155.565 55.585L155.58 55.57ZM163.2 68.29H159.421V69.655H158.46V62.98H160.29V59.89H157.8V58.87H160.29V55.42L161.61 55.495C161.595 55.615 161.506 55.675 161.296 55.705V58.87H163.725V59.89H161.296V62.98H163.2V68.29ZM162.21 63.955H159.421V67.315H162.21V63.955ZM168.855 56.02V69.235C168.855 70.51 168.225 70.555 166.125 70.555C166.08 70.27 165.915 69.805 165.75 69.55C166.575 69.565 167.295 69.565 167.505 69.565C167.73 69.55 167.835 69.49 167.835 69.235V65.005H165.165C164.97 66.97 164.43 69.04 163.02 70.54C162.855 70.36 162.435 70.045 162.195 69.94C164.1 67.945 164.28 65.08 164.28 62.74V56.02H168.87H168.855ZM165.255 62.74C165.255 63.145 165.255 63.565 165.225 64.015H167.835V60.985H165.255V62.74ZM167.835 57.04H165.255V59.995H167.835V57.04Z" fill="white"/>
<path d="M177.975 56.74V67.165H173.685V68.755H172.8V56.725H177.96L177.975 56.74ZM174.945 57.715H173.685V61.375H174.945V57.715ZM173.685 62.32V66.19H174.945V62.32H173.685ZM177.075 61.375V57.715H175.755V61.375H177.075ZM175.755 66.19H177.075V62.32H175.755V66.19ZM187.335 64.9V65.905H183.105V70.51H182.055V65.905H178.26V64.9H182.055V62.38H178.74V61.375H182.055V55.45L183.42 55.54C183.405 55.66 183.3 55.72 183.09 55.75V61.375H186.78V62.38H183.09V64.9H187.32H187.335ZM179.67 56.215C180.255 57.46 180.78 59.08 180.945 60.145L179.985 60.445C179.835 59.365 179.34 57.745 178.785 56.5L179.685 56.23L179.67 56.215ZM186.84 56.62C186.795 56.71 186.66 56.77 186.495 56.77C186.075 57.88 185.34 59.53 184.74 60.55C184.725 60.55 183.96 60.19 183.96 60.19C184.53 59.11 185.235 57.355 185.595 56.125L186.855 56.62H186.84Z" fill="white"/>
<path d="M197.31 56.395H198.42C198.42 59.305 198.795 65.635 205.38 69.55C205.14 69.745 204.69 70.195 204.495 70.48C200.25 67.9 198.495 64.18 197.775 61C196.605 65.35 194.475 68.605 191.055 70.495C190.845 70.27 190.425 69.865 190.14 69.67C193.74 67.795 195.84 64.33 196.875 59.575L197.55 59.74C197.415 58.93 197.355 58.18 197.34 57.52H193.185V56.41H197.31V56.395Z" fill="white"/>
<path d="M216.195 68.905H223.035V69.985H208.305V68.905H215.07V64.54H210.105V63.475H215.07V59.71H211.08C210.51 60.88 209.835 61.945 209.13 62.725C208.92 62.53 208.5 62.215 208.215 62.05C209.55 60.64 210.705 58.15 211.38 55.66L212.805 56.05C212.76 56.17 212.64 56.23 212.43 56.23C212.19 57.025 211.905 57.85 211.575 58.63H215.085V55.375L216.555 55.45C216.54 55.57 216.435 55.645 216.21 55.675V58.63H222.285V59.71H216.21V63.475H221.685V64.54H216.21V68.905H216.195Z" fill="white"/>
<path d="M226.56 59.98C227.625 60.385 228.945 61.105 229.605 61.66L228.99 62.575C228.345 62.02 227.04 61.27 225.975 60.82L226.56 59.995V59.98ZM226.44 69.58C227.28 68.29 228.495 66.07 229.395 64.195L230.22 64.885C229.41 66.625 228.33 68.68 227.535 69.97C227.595 70.045 227.61 70.135 227.61 70.195C227.61 70.255 227.595 70.33 227.565 70.375L226.44 69.58ZM227.43 55.525C228.48 55.975 229.755 56.725 230.4 57.325L229.77 58.225C229.155 57.625 227.88 56.83 226.815 56.335L227.43 55.54V55.525ZM241.14 61.315H236.265V64.15H239.97V70.405H238.86V69.79H232.695V70.525H231.615V64.15H235.17V61.315H230.355V60.25H235.17V57.415C233.865 57.625 232.515 57.82 231.225 57.97C231.195 57.7 231.03 57.28 230.895 57.04C233.895 56.68 237.345 56.095 239.22 55.39L240.27 56.275C240.27 56.275 240.18 56.335 239.94 56.335C238.965 56.665 237.675 56.95 236.25 57.22V60.25H241.125V61.315H241.14ZM238.86 68.785V65.17H232.695V68.785H238.86Z" fill="white"/>
<path d="M244.29 70.69C244.545 69.88 244.875 68.26 245.01 67.225L246.765 67C246.42 68.245 245.745 69.94 245.37 70.57L244.29 70.705V70.69Z" fill="white"/>
<path d="M255.495 66.76C255.495 67.255 255.615 67.33 256.29 67.33H258.585C259.185 67.33 259.29 67.075 259.35 65.275C259.59 65.455 260.04 65.635 260.34 65.71C260.19 67.84 259.89 68.365 258.66 68.365H256.17C254.805 68.365 254.415 68.05 254.415 66.775V61.45H258.525V57.82H253.845V56.8H259.59V62.98H258.51V62.47H255.48V66.775L255.495 66.76ZM268.875 59.515H267.495C267 62.23 266.25 64.465 265.095 66.265C266.1 67.75 267.39 68.905 269.01 69.61C268.755 69.82 268.41 70.24 268.23 70.555C266.655 69.805 265.41 68.665 264.405 67.225C263.28 68.635 261.795 69.73 259.89 70.57C259.755 70.315 259.47 69.865 259.275 69.64C261.21 68.86 262.695 67.735 263.805 66.25C262.995 64.81 262.38 63.16 261.93 61.3C261.54 62.095 261.105 62.815 260.64 63.4C260.43 63.22 260.01 62.905 259.74 62.77C261.075 61.12 262.11 58.27 262.695 55.405L264.075 55.72C264.045 55.855 263.925 55.9 263.715 55.9C263.52 56.785 263.295 57.64 263.025 58.495H268.875V59.545V59.515ZM262.665 59.515L262.59 59.71C262.995 61.765 263.61 63.625 264.465 65.215C265.38 63.655 265.98 61.765 266.37 59.515H262.665Z" fill="white"/>
<path d="M284.94 65.185H285.165L285.78 65.245L285.735 65.605C285.555 68.515 285.345 69.64 284.955 70.075C284.625 70.42 284.265 70.495 283.38 70.495C282.975 70.495 282.45 70.48 281.91 70.45C281.895 70.15 281.775 69.745 281.61 69.475C282.45 69.55 283.275 69.55 283.635 69.55C283.815 69.55 283.95 69.52 284.04 69.4C284.295 69.16 284.46 68.275 284.625 66.115H275.55C275.22 66.37 274.875 66.625 274.545 66.85L275.37 67.105C275.1 68.275 274.635 69.565 273.72 70.315L272.895 69.79C273.72 69.145 274.215 67.975 274.455 66.895C273.765 67.33 273.075 67.72 272.355 68.035C272.22 67.81 271.935 67.405 271.755 67.21C273.39 66.58 275.13 65.455 276.21 64.12H274.29V59.23L275.1 59.425C276.195 59.125 277.365 58.75 278.085 58.42L278.865 59.215C278.865 59.215 278.805 59.245 278.73 59.245C278.685 59.245 278.64 59.245 278.565 59.23C277.77 59.545 276.465 59.92 275.265 60.19V61.255H278.25V62.065H275.265V63.28H283.14V62.065H280.14V61.255H283.14V60.07H279.945V59.245H284.145V64.135H277.695C277.695 64.135 277.545 64.21 277.395 64.21C277.155 64.555 276.87 64.885 276.57 65.2H284.925L284.94 65.185ZM279.765 56.92H286.11V59.755H285.045V57.895H273.42V59.755H272.415V56.92H278.67V55.36L280.095 55.435C280.08 55.57 279.975 55.63 279.765 55.66V56.92ZM277.02 69.985C277.035 69.22 276.795 68.02 276.435 67.09L277.32 66.97C277.68 67.9 277.95 69.085 277.95 69.85L277.02 69.985ZM279.9 69.565C279.75 68.86 279.3 67.795 278.775 66.985L279.585 66.745C280.125 67.54 280.605 68.59 280.755 69.295L279.885 69.565H279.9ZM281.835 66.535C282.435 67.06 283.095 67.84 283.35 68.38L282.57 68.8C282.315 68.245 281.685 67.45 281.1 66.895L281.835 66.535Z" fill="white"/>
<path d="M304.455 61.3H298.08C299.145 65.2 301.245 68.2 304.71 69.475C304.425 69.715 304.08 70.18 303.9 70.495C300.495 69.1 298.425 66.205 297.225 62.275C296.475 65.5 294.705 68.695 290.49 70.51C290.325 70.21 289.98 69.82 289.71 69.58C294.015 67.84 295.62 64.57 296.25 61.285H289.965V60.16H296.43C296.64 58.465 296.625 56.8 296.64 55.39L298.17 55.465C298.155 55.615 298.02 55.69 297.81 55.735C297.795 57.025 297.78 58.555 297.585 60.145H304.47V61.27L304.455 61.3Z" fill="white"/>
<path d="M308.25 56.11H321.99V70.51H320.91V69.79H309.285V70.51H308.235V56.11H308.25ZM309.3 68.785H320.925V57.115H309.3V68.785ZM315.69 64.615C316.05 65.035 316.5 65.44 317.04 65.815C317.745 65.38 318.585 64.75 319.08 64.33L319.98 64.885C319.98 64.885 319.815 64.99 319.65 64.99C319.14 65.35 318.375 65.83 317.7 66.235C318.54 66.745 319.485 67.135 320.415 67.375C320.205 67.54 319.95 67.885 319.8 68.11C318.165 67.6 316.455 66.58 315.33 65.365V68.305H314.34V65.74C313.2 66.52 311.805 67.195 310.515 67.66C310.38 67.48 310.095 67.135 309.93 66.97C311.46 66.46 313.2 65.62 314.415 64.6H311.52V61.84H318.705V64.6H315.705L315.69 64.615ZM320.025 60.295V61.045H310.17V60.295H314.55V59.2H311.19V58.465H314.55V57.475L315.885 57.58C315.87 57.67 315.78 57.76 315.57 57.79V58.48H319.035V59.215H315.57V60.31H320.025V60.295ZM312.45 62.53V63.925H317.7V62.53H312.45Z" fill="white"/>
<path d="M328.47 65.29C329.01 65.065 329.565 64.825 330.12 64.585L330.33 65.545C328.785 66.28 327.15 67.03 326.13 67.48C326.13 67.615 326.055 67.705 325.95 67.75L325.365 66.505C325.95 66.295 326.67 65.995 327.465 65.68V60.265H325.65V59.215H327.465V55.51L328.8 55.585C328.785 55.705 328.68 55.78 328.47 55.81V59.2H330.135V60.25H328.47V65.26V65.29ZM336.93 59.095C337.035 61.36 337.23 63.49 337.515 65.26C338.205 63.955 338.73 62.485 339.135 60.88L340.41 61.195C340.38 61.315 340.26 61.375 340.05 61.375C339.525 63.385 338.79 65.185 337.815 66.715C338.22 68.44 338.745 69.535 339.36 69.535C339.72 69.535 339.9 68.65 339.96 66.715C340.185 66.94 340.53 67.21 340.77 67.3C340.575 69.805 340.245 70.555 339.225 70.57C338.265 70.57 337.545 69.505 337.035 67.78C336.225 68.83 335.28 69.7 334.2 70.405C334.05 70.21 333.705 69.865 333.48 69.7C334.755 68.92 335.82 67.84 336.72 66.55C336.285 64.51 336.015 61.87 335.91 59.08H331.59V61.375H334.575L335.085 61.39V61.75C335.025 65.53 334.95 66.82 334.665 67.225C334.32 67.66 333.915 67.66 333.18 67.66C332.895 67.66 332.61 67.645 332.31 67.63C332.28 67.36 332.19 66.94 332.055 66.7C332.64 66.745 333.195 66.745 333.405 66.745C333.615 66.745 333.735 66.73 333.825 66.58C333.99 66.34 334.05 65.275 334.11 62.29H331.605V62.89C331.605 65.23 331.305 68.41 329.52 70.54C329.355 70.33 328.935 69.985 328.695 69.85C330.405 67.855 330.585 65.065 330.585 62.89V58.03H335.88C335.865 57.145 335.835 56.26 335.835 55.36L337.215 55.435C337.2 55.57 337.095 55.63 336.87 55.66C336.87 56.44 336.87 57.235 336.9 58.03H340.515V59.05H336.93V59.095ZM338.295 55.375C339.09 55.945 340.035 56.755 340.5 57.34L339.72 57.895C339.3 57.325 338.355 56.47 337.545 55.87L338.295 55.36V55.375Z" fill="white"/>
<path d="M358.41 57.7V58.78H351.585L351.825 58.795C351.825 58.915 351.705 58.99 351.495 59.02V61.12H356.835V67C356.835 68.29 356.31 68.38 353.25 68.38C353.205 68.05 353.01 67.6 352.86 67.285C354.03 67.315 355.035 67.315 355.335 67.315C355.635 67.285 355.71 67.225 355.71 66.985V62.17H351.495V70.54H350.355V62.17H346.395V68.425H345.285V61.09H350.355V58.75H343.575V57.67H350.355V55.27L351.84 55.345C351.825 55.48 351.72 55.555 351.495 55.585V57.655H358.41V57.7Z" fill="white"/>
<path d="M363.78 57.205V61.06C363.78 63.775 363.585 67.735 362.16 70.48C361.965 70.3 361.53 70.045 361.245 69.925C362.61 67.315 362.73 63.67 362.73 61.045V56.185H376.23V57.19H363.78V57.205ZM370.5 66.94V69.1H376.305V70.045H363.555V69.1H365.76V65.515L367.125 65.605C367.11 65.725 367.02 65.785 366.81 65.815V69.085H369.435V64.3L370.815 64.39C370.815 64.51 370.725 64.585 370.485 64.6V66.025H374.595V66.925H370.485L370.5 66.94ZM367.485 64.345H366.54V61.84C365.97 62.8 365.19 63.73 364.47 64.27C364.32 64.045 364.035 63.73 363.84 63.565C364.65 63.055 365.535 62.065 366.12 61.075H364.35V60.205H366.555V58.945C365.94 59.035 365.295 59.125 364.71 59.17C364.665 58.99 364.53 58.675 364.41 58.48C365.865 58.315 367.56 58.045 368.415 57.655L369.3 58.33C369.3 58.33 369.225 58.375 369 58.375C368.595 58.525 368.07 58.675 367.485 58.78V60.205H369.435V61.075H367.485V61.195C367.935 61.51 369.075 62.335 369.375 62.59L368.79 63.325C368.55 63.055 367.98 62.53 367.485 62.11V64.36V64.345ZM373.26 64.345H372.3V61.465C371.655 62.575 370.665 63.67 369.78 64.27C369.63 64.045 369.345 63.73 369.15 63.565C370.05 63.055 371.04 62.08 371.67 61.075H369.99V60.205H372.3V58.93C371.655 59.005 370.98 59.095 370.365 59.14C370.32 58.945 370.185 58.63 370.095 58.435C371.625 58.285 373.485 58.015 374.415 57.625C374.985 58.03 375.15 58.165 375.3 58.3C375.24 58.345 375.225 58.345 375 58.345C374.55 58.51 373.935 58.645 373.275 58.765V60.205H376.065V61.075H373.905C374.52 62.065 375.525 62.995 376.53 63.46C376.305 63.64 376.005 63.97 375.855 64.21C374.865 63.64 373.92 62.59 373.275 61.51V64.36L373.26 64.345Z" fill="white"/>
<path d="M393.285 63.505H387.405C387.3 64.945 386.97 66.31 385.95 67.495C387.975 68.755 390.735 69.205 394.53 69.43C394.305 69.685 394.08 70.165 394.005 70.54C390.15 70.24 387.255 69.7 385.155 68.26C384.045 69.19 382.395 69.97 379.965 70.555C379.83 70.3 379.545 69.82 379.32 69.58C381.66 69.055 383.235 68.38 384.255 67.57C383.325 66.745 382.575 65.68 381.99 64.315L382.965 63.97C383.52 65.17 384.21 66.1 385.05 66.82C385.92 65.83 386.175 64.69 386.25 63.49H380.73V57.58H386.28V55.48L387.735 55.555C387.735 55.69 387.615 55.765 387.405 55.795V57.565H393.255V63.475L393.285 63.505ZM381.81 62.44H386.31V58.645H381.81V62.44ZM392.175 58.645H387.435V62.44H392.175V58.645Z" fill="white"/>
<path d="M405.33 65.425V68.98C406.2 69.145 407.145 69.19 408.165 69.19C408.735 69.19 411.6 69.19 412.35 69.175C412.17 69.445 411.975 69.955 411.93 70.285H408.12C404.61 70.285 402.075 69.685 400.56 66.76C399.975 68.35 399.135 69.7 397.995 70.585C397.815 70.375 397.425 70.045 397.17 69.865C398.955 68.545 399.9 66.055 400.275 63.01L401.67 63.235C401.64 63.355 401.535 63.43 401.34 63.43C401.25 64.075 401.115 64.72 400.965 65.335C401.655 67.165 402.75 68.14 404.19 68.665V61.495H400.035V60.445H409.62V61.495H405.315V64.375H410.31V65.425H405.315H405.33ZM399.045 58.405V60.865H397.965V57.355H404.19V55.345L405.675 55.435C405.66 55.555 405.555 55.63 405.33 55.66V57.34H411.615V60.85H410.49V58.39H399.03L399.045 58.405Z" fill="white"/>
<path d="M417.36 61.135C416.745 62.155 416.055 63.07 415.365 63.85C415.245 63.595 414.975 63.085 414.795 62.83C416.355 61.135 417.93 58.315 418.875 55.495L420.18 55.93C420.12 56.05 420 56.095 419.805 56.08C419.385 57.22 418.875 58.36 418.305 59.455L418.74 59.575C418.71 59.68 418.62 59.755 418.41 59.77V70.57H417.345V61.135H417.36ZM419.43 68.68H430.365V69.745H419.43V68.68ZM419.835 58.675H424.215V55.42L425.64 55.495C425.625 55.63 425.55 55.69 425.31 55.72V58.675H429.945V59.74H419.835V58.675ZM422.1 60.85C422.745 63.07 423.345 65.905 423.48 67.57L422.385 67.795C422.25 66.145 421.71 63.235 421.095 61.03L422.085 60.85H422.1ZM428.94 61.12C428.91 61.24 428.76 61.315 428.565 61.315C428.145 63.28 427.395 66.145 426.735 67.885C426.735 67.885 425.79 67.585 425.79 67.57C426.42 65.815 427.155 62.845 427.53 60.745L428.925 61.12H428.94Z" fill="white"/>
<path d="M437.325 68.245C437.325 69.505 436.305 70.525 435.045 70.525C433.785 70.525 432.765 69.505 432.765 68.245C432.765 66.985 433.785 65.965 435.045 65.965C436.305 65.965 437.325 67.03 437.325 68.245ZM436.74 68.245C436.74 67.3 435.99 66.55 435.045 66.55C434.1 66.55 433.365 67.3 433.365 68.245C433.365 69.19 434.115 69.925 435.045 69.925C436.02 69.925 436.74 69.145 436.74 68.245Z" fill="white"/>
</svg>
