<svg width="1185" height="127" viewBox="0 0 1185 127" fill="none" xmlns="http://www.w3.org/2000/svg">
<g filter="url(#filter0_d_1_596)">
<path d="M43.3251 74.27L44.7051 88.58C31.8801 91.565 18.4701 94.415 9.7701 96.26C9.5451 97.4 8.5101 98.21 7.4751 98.315L3.3501 81.02C7.0101 80.57 11.2551 79.88 15.8301 79.07V58.91H6.3201V43.685H15.8301V26.51H5.5251V11.165H41.6001V26.51H31.4001V43.685H40.9101V58.91H31.4001V76.43L43.3101 74.255L43.3251 74.27ZM105.17 86.18H85.8201V98.555C85.8201 109.67 82.2651 112.19 63.9501 112.19C63.2601 108.53 61.7751 103.715 60.1701 100.055C55.7001 104.285 50.3151 108.41 45.1701 111.395C42.6501 108.53 37.6101 103.835 34.5201 101.435C41.3901 98.12 48.5001 92.495 52.3851 87.23L68.7651 93.305C68.3001 94.22 67.1601 94.685 65.6751 94.445C64.2951 96.05 62.6901 97.655 60.9801 99.365C63.8451 99.485 67.1601 99.485 68.1951 99.485C69.4551 99.365 69.9201 99.14 69.9201 98V86.21H50.6751V60.785H105.2V86.21L105.17 86.18ZM112.16 44.6V57.65H42.9801V44.6H68.7501V40.13H49.1601V6.92001H106.535V40.13H89.0151C88.6701 41.045 87.6351 41.615 85.7001 41.96V44.6H112.16ZM64.0551 16.43V19.07H90.8601V16.43H64.0551ZM64.0551 27.995V30.635H90.8601V27.995H64.0551ZM65.8851 71.18V75.755H89.0151V71.18H65.8851ZM101.855 110.81C98.9901 106.34 92.1201 99.245 86.5101 94.43L99.1101 87.56C104.615 91.91 111.83 98.555 115.37 103.25L101.855 110.81Z" fill="#F8EA21"/>
<path d="M218.105 9.21502L228.755 13.115C228.635 13.91 228.29 14.72 227.615 15.29C224.525 25.145 220.745 36.815 216.155 48.965C225.425 60.53 228.29 68.315 228.29 75.305C228.29 98.555 212.6 98.555 202.64 98.21C202.52 93.86 200.69 87.215 198.17 82.745V112.175H181.79V19.865C179.27 25.94 176.405 31.775 173.195 37.28H178.805V51.59H163.565C161.735 53.885 159.905 56.06 158.075 58.115H175.595V111.365H159.905V107.465H145.355V112.385H130.355V80.315C128.975 81.11 127.61 81.92 126.11 82.61C124.385 79.055 120.38 72.41 117.755 69.215C122.105 67.265 126.35 64.865 130.355 62.225V58.1H135.965C138.605 56.045 141.005 53.855 143.405 51.575H120.5V37.265H138.935V28.565H124.955V14.36H138.935V3.93503L157.61 4.97003C157.49 6.11003 156.575 6.92003 154.295 7.26503V14.36H164.15V22.49C165.98 18.71 167.585 14.81 168.965 10.805L181.79 14.93V9.77003H214.655L218.09 9.20003L218.105 9.21502ZM159.92 76.325V71.165H145.37V76.325H159.92ZM145.37 94.31H159.92V88.7H145.37V94.31ZM154.31 37.28H155.57C157.52 34.535 159.35 31.55 160.955 28.58H154.31V37.28ZM198.17 25.37V82.175C200.915 82.4 203.33 82.4 204.92 82.4C210.65 82.4 211.79 79.76 211.79 74.495C211.79 68.885 208.7 62.69 199.31 51.815C202.295 42.2 204.8 33.38 206.87 25.355H198.17V25.37Z" fill="#F8EA21"/>
<path d="M262.76 41.285L271.925 43.805C271.805 44.72 271.46 45.755 271.01 46.445C269.75 61.34 267.35 74.27 263.795 84.935C274.22 92.27 287.96 93.755 303.545 93.875C311.675 93.875 334.235 93.875 343.97 93.41C341.45 97.19 338.705 104.87 337.67 109.67H303.08C284.645 109.67 269.405 107.6 257.27 99.365C254.06 104.87 250.175 109.445 245.705 112.88C243.185 109.67 236.765 103.835 233.225 101.765C238.265 98.21 242.27 93.635 245.48 87.8C241.235 81.965 237.575 74.63 234.605 65.465L247.55 60.995C248.81 64.895 250.295 68.21 251.9 71.195C253.04 66.62 253.955 61.58 254.645 56.075H250.07L248.93 58.715L233.93 54.935C238.4 45.2 243.44 33.635 247.445 23.78H234.395V9.35003H256.385L259.475 9.00502L268.745 12.095C268.4 12.89 267.95 13.925 267.485 14.735C264.74 21.83 260.615 31.685 256.37 41.645H260.03L262.775 41.3L262.76 41.285ZM294.365 25.94V23.3H275.585V10.925H294.365V3.24503L313.835 4.28002C313.715 5.54002 312.8 6.33503 310.52 6.68003V10.925H332.63V25.925H342.245V38.525H332.63V53.525H310.52V56.165H334.46V67.955H310.52V70.7H339.605V83.645H310.52V91.895H294.365V83.645H268.475V70.7H294.365V67.955H273.515V56.165H294.365V53.525H275.24V41.15H294.365V38.51H266.87V25.91H294.365V25.94ZM316.235 23.3H310.505V25.94H316.235V23.3ZM316.235 41.165V38.525H310.505V41.165H316.235Z" fill="#F8EA21"/>
<path d="M394.46 22.49V35.435H348.53V22.49H394.46ZM443.135 52.265L453.665 56.27C453.44 57.185 452.87 57.65 452.285 58.34C448.97 70.82 443.585 81.02 436.25 89.375C442.67 93.035 450.11 95.9 458.24 97.85C454.58 101.165 449.765 107.93 447.47 112.16C438.425 109.415 430.4 105.515 423.425 100.475C416.21 105.395 407.855 109.295 398.345 112.16C396.74 108.155 393.08 101.855 390.095 98.18V106.535H367.64V110.54H353.66V70.79H390.08V97.355C397.76 95.525 404.735 92.78 410.81 89.105C406.34 84.065 402.56 78.455 399.245 72.155L413.555 67.58H395.915V52.685H400.61C397.97 49.82 393.275 45.935 390.185 43.985V51.2H354.11V38.825H390.185V42.95C399.455 36.305 400.385 27.605 400.385 20.165V6.53H440.465V30.92C440.465 34.355 440.585 34.7 441.5 34.7H442.76C443.9 34.7 444.365 33.215 444.59 23.825C447.455 26.225 453.86 28.64 457.985 29.66C456.605 44.435 452.825 48.68 444.47 48.68H438.395C427.97 48.68 424.88 44.435 424.88 31.16V21.2H416.06C415.94 31.85 413.765 44.57 403.685 52.7H440.225L443.09 52.25L443.135 52.265ZM390.215 54.665V67.04H354.14V54.665H390.215ZM390.095 6.78501V19.16H354.47V6.78501H390.095ZM375.89 93.485V83.75H367.64V93.485H375.89ZM414.035 67.595C416.33 71.84 419.42 75.845 423.08 79.4C426.395 75.965 429.155 71.96 431.435 67.595H414.02H414.035Z" fill="#F8EA21"/>
<path d="M593.975 33.95H550.79C550.22 35.555 549.65 37.265 548.96 38.99H581.03V112.295H563.615V107.6H520.43V112.295H503.825V38.99H530.39C530.735 37.265 530.96 35.675 531.185 33.95H489.26V18.605H512.975C510.8 15.515 508.055 12.185 505.64 9.56001L521.105 2.57001C525.455 6.57501 530.15 12.08 532.67 16.085L527.855 18.605H550.415C553.73 14.03 557.285 7.95501 559.235 3.14001L580.76 9.09502C580.19 10.13 579.05 10.58 577.1 10.58C575.39 13.1 573.2 15.965 570.92 18.59H593.945V33.935L593.975 33.95ZM563.63 57.89V53.315H520.445V57.89H563.63ZM520.445 70.37V75.41H563.63V70.37H520.445ZM520.445 93.275H563.63V87.89H520.445V93.275Z" fill="#F8EA21"/>
<path d="M681.469 83.075H665.779V25.01L657.184 37.04C655.354 35.21 653.059 33.26 650.434 31.205V36.815H624.544V32.69C622.144 35.09 619.504 37.385 616.639 39.68H660.394V77.705H624.094C623.974 78.74 623.749 79.76 623.524 80.795H662.344V111.95H647.914V109.205H632.569V112.19H618.709V97.76C616.879 102.23 614.584 106.46 611.719 110.135C609.544 107.39 603.589 101.885 600.724 100.175C610.684 86.885 611.719 68.225 611.719 55.16V43.37C610.804 44.06 609.889 44.63 608.854 45.32C607.249 41.54 603.019 35.24 600.154 32.495C613.894 24.365 623.284 13.37 628.564 3.51501L646.429 6.95002C646.084 8.09002 645.049 8.90001 643.339 8.90001L643.219 9.02001C651.574 13.595 660.289 19.79 665.779 24.26V17.615L684.784 18.65C684.664 19.91 683.749 20.6 681.469 21.05V83.12V83.075ZM625.354 66.47H645.634V63.38H625.594L625.369 66.47H625.354ZM645.634 51.005H625.819V53.87H645.634V51.005ZM643.234 25.925C640.594 24.095 637.969 22.37 635.329 20.66C633.949 22.49 632.584 24.215 630.979 25.925H643.234ZM647.929 92.465H632.584V97.505H647.929V92.465ZM690.529 5.88501L710.119 6.68002C709.894 7.94002 709.084 8.85502 706.684 9.20002V92.93C706.684 107.135 703.129 112.175 677.824 112.175C677.254 107.48 674.839 99.92 672.559 95.105C678.859 95.45 685.504 95.45 687.799 95.45C689.749 95.45 690.544 94.76 690.544 92.81V5.88501H690.529Z" fill="#F8EA21"/>
<path d="M749.03 48.95L760.595 54.44C760.25 55.355 759.56 56.165 758.645 56.615C753.485 78.155 742.835 96.02 729.095 105.515C726.35 101.96 719.585 95.555 715.58 93.035C725.435 87.08 733.325 77.225 738.14 65.21H718.67V49.52H746.165L749.03 48.95ZM779.495 34.865C781.55 41.96 784.07 48.725 787.175 55.025C794.27 49.19 801.95 41.735 806.99 35.21L824.06 48.95C823.49 49.52 822.335 49.865 821.075 49.865C820.61 49.865 820.16 49.865 819.695 49.745C813.62 55.475 803.66 63.26 795.53 68.42C803.21 78.38 812.945 86.285 825.53 91.22C821.63 94.655 816.245 101.645 813.62 106.445C798.5 99.23 787.625 88.355 779.495 74.375V94.535C779.495 109.43 772.97 112.4 750.17 112.4C749.48 107.705 747.08 100.595 744.785 96.365C750.05 96.71 757.505 96.71 759.44 96.71C761.495 96.59 762.185 96.02 762.185 94.31V44.84H735.035V28.925H775.115C765.5 24.68 752.9 20.33 743.165 17.81L751.19 2.69C763.91 5.33 783.485 11.39 793.22 16.43L784.52 33.605C783.035 32.81 781.43 31.88 779.48 30.965V34.865H779.495Z" fill="#F8EA21"/>
<path d="M900.56 19.4L912.59 25.58C912.125 26.615 911.33 27.53 910.295 27.98C907.655 37.715 904.22 46.88 900.095 55.355C907.535 73.445 921.395 89.255 940.415 97.28C936.41 100.835 930.8 107.93 928.04 112.625C910.97 104.03 898.715 90.41 889.55 73.115C877.07 90.98 860.69 104.615 842.255 112.745C840.08 108.395 834.47 100.49 830.69 97.28C857.495 86.855 878.675 66.35 889.22 37.04H867.92C861.275 49.295 853.145 60.17 843.98 68.195C840.89 64.76 834.365 59.03 830.24 56.165C844.55 45.29 856.355 24.665 862.19 3.48502L882.8 9.32001C882.335 10.355 880.97 11.15 879.14 10.925C878.105 14.015 876.965 17.105 875.705 20.195H897.575L900.56 19.4Z" fill="#F8EA21"/>
<path d="M1052.87 73.235H1032.37C1038.79 82.16 1047.61 90.53 1056.53 95.795C1052.75 98.885 1047.37 104.96 1044.74 109.085C1037.53 103.595 1030.54 95.69 1024.7 86.87V112.295H1007.98V87.56C1001.8 96.155 994.46 103.475 986.555 108.74C984.035 104.735 978.875 98.78 975.215 95.57V112.295H959.06V56.855C956.42 60.41 953.795 63.845 951.05 66.815C949.565 62.69 945.56 53.87 943.37 49.745C952.88 39.665 962.72 21.335 968.57 3.69501L986.78 9.99501C986.09 11.135 984.83 11.6 983.225 11.48C980.48 18.47 977.27 25.685 973.715 32.555L978.53 33.815C978.305 34.955 977.27 35.87 975.215 36.11V95.33C984.605 90.41 993.77 82.16 1000.3 73.22H979.685V58.22H1007.98V49.52H986.78V8.28502H1047.71V49.52H1024.69V58.22H1052.86V73.22L1052.87 73.235ZM1002.47 22.835V34.97H1031.11V22.835H1002.47Z" fill="#F8EA21"/>
<path d="M1166.95 27.65H1158.7C1155.83 33.38 1152.05 38.525 1147.58 42.995C1154.35 45.86 1162.01 48.155 1170.71 49.415C1167.73 52.505 1163.62 58.685 1161.67 62.705C1151.81 60.53 1143.11 56.975 1135.78 52.52C1128.56 57.095 1120.21 60.65 1111.04 63.29C1109.66 60.89 1106.92 56.99 1104.4 54.005V93.065H1090.09V20.57C1088.6 24.35 1087.1 28.01 1085.51 31.685L1089.41 32.945C1089.07 33.98 1088.03 34.895 1086.1 35.24V112.67H1070.29V59.87C1068.34 62.735 1066.39 65.375 1064.45 67.775C1063.19 63.53 1059.64 54.035 1057.7 49.91C1065.95 39.71 1074.2 21.395 1079.12 3.75502L1096.99 9.71002C1096.52 10.745 1095.38 11.315 1093.55 11.195L1090.81 18.875L1107.53 19.79C1107.41 20.93 1106.62 21.74 1104.44 22.085V29.99C1111.09 23 1116.7 13.265 1119.79 3.42502L1136.62 8.24003C1136.27 9.27503 1135.13 9.84503 1133.53 9.72503C1132.96 11.33 1132.27 13.04 1131.47 14.645H1166.98V27.695L1166.95 27.65ZM1104.41 50.675C1111.4 48.95 1117.81 46.55 1123.54 43.46C1121.24 41.405 1119.19 39.215 1117.36 37.04C1115.41 39.335 1113.35 41.39 1111.28 43.22C1109.56 41.615 1107.05 39.44 1104.41 37.49V50.66V50.675ZM1170.61 86.06C1170.14 86.975 1169.12 87.545 1167.29 87.545C1155.61 100.145 1136.03 107.48 1113.01 111.83C1111.28 107.825 1107.85 102.32 1104.65 98.885C1124.92 96.245 1144.28 90.53 1153.9 80.21L1170.62 86.045L1170.61 86.06ZM1149.53 62.015C1149.19 62.81 1148.27 63.275 1146.89 63.275C1140.37 68.885 1129.15 74.15 1118.48 77.48C1116.53 74.495 1112.99 70.61 1109.89 68.09C1119.16 65.915 1130.05 61.565 1135.54 56.87L1149.52 62.03L1149.53 62.015ZM1160.75 71.975C1160.41 72.77 1159.49 73.235 1158.01 73.355C1149.31 81.83 1134.07 88.595 1118.03 92.6C1116.31 89.39 1113.11 85.04 1110.25 82.295C1124.45 79.655 1139.45 74.285 1146.89 66.95L1160.75 71.99V71.975ZM1125.59 27.65C1127.99 30.395 1130.98 33.155 1134.53 35.66C1137.17 33.26 1139.45 30.62 1141.4 27.65H1125.59Z" fill="#F8EA21"/>
</g>
<defs>
<filter id="filter0_d_1_596" x="0.980097" y="0.200007" width="1183.14" height="126.09" filterUnits="userSpaceOnUse" color-interpolation-filters="sRGB">
<feFlood flood-opacity="0" result="BackgroundImageFix"/>
<feColorMatrix in="SourceAlpha" type="matrix" values="0 0 0 0 0 0 0 0 0 0 0 0 0 0 0 0 0 0 127 0" result="hardAlpha"/>
<feOffset dx="5.52" dy="5.52"/>
<feGaussianBlur stdDeviation="3.945"/>
<feColorMatrix type="matrix" values="0 0 0 0 0.101961 0 0 0 0 0.12549 0 0 0 0 0.219608 0 0 0 0.34 0"/>
<feBlend mode="normal" in2="BackgroundImageFix" result="effect1_dropShadow_1_596"/>
<feBlend mode="normal" in="SourceGraphic" in2="effect1_dropShadow_1_596" result="shape"/>
</filter>
</defs>
</svg>
