<svg width="611" height="285" viewBox="0 0 611 285" fill="none" xmlns="http://www.w3.org/2000/svg">
<path d="M44.76 115.965V123.63H73.41V133.92H5.1V123.63H32.55V115.965H11.49V105.99H32.55V98.655H15.795V91.875C13.005 93.705 10.125 95.46 7.185 97.065C5.67 94.35 2.475 90.045 0 87.81C13.725 81.105 26.655 68.895 32.4 59.325L47.64 60.12C47.325 61.08 46.53 61.8 45.24 61.95C52.98 72.33 66.3 81.9 78.195 86.52C75.24 89.475 72.69 93.465 70.53 96.975C67.74 95.535 64.95 93.78 62.16 92.025V98.655H44.76V105.99H66.135V115.965H44.76ZM57.045 88.44C49.545 82.935 42.765 76.545 38.61 70.8C34.455 76.62 28.08 82.845 20.655 88.44H57.045Z" fill="white"/>
<path d="M164.775 83.175H126.555C126.315 86.055 126.075 88.995 125.685 92.025H147.15L149.7 91.785L156.555 92.91C156.48 93.78 156.315 95.22 156.075 96.255C153.675 133.275 151.29 135.435 132.615 135.435C130.62 135.435 128.385 135.435 126.15 135.36C125.985 132.015 124.23 127.14 121.995 123.945C127.425 124.425 133.005 124.425 135.48 124.425C137.235 124.425 138.345 124.26 139.47 123.39C141.39 121.8 142.74 115.41 143.7 102.96H123.75C120.795 115.65 114.33 127.935 98.2952 136.395C96.6152 133.2 93.1952 129.06 90.0752 126.585C111.3 116.61 113.055 99.54 113.85 83.175H91.8302V72.09H121.755V59.4L136.275 60.195C136.2 61.08 135.48 61.635 133.8 61.95V72.09H164.76V83.175H164.775Z" fill="white"/>
<path d="M189.51 97.065C187.68 99.54 185.835 101.94 183.93 104.01C182.895 101.13 180.105 94.995 178.59 92.115C185.22 85.095 192.075 72.33 196.14 60.045L208.83 64.44C208.35 65.235 207.48 65.55 206.355 65.475C204.435 70.335 202.2 75.375 199.725 80.16L203.07 81.03C202.905 81.825 202.185 82.47 200.76 82.62V135.675H189.51V97.05V97.065ZM204.51 121.56H255.9V132.495H204.51V121.56ZM205.95 73.605H223.59V60.195L237.72 60.915C237.645 61.875 237 62.355 235.32 62.67V73.605H254.475V84.54H205.965V73.605H205.95ZM221.025 87.09C223.665 96.9 225.81 109.425 226.29 117.33L214.635 119.73C214.47 111.99 212.715 99.06 210.405 89.01L221.01 87.09H221.025ZM251.895 89.97C251.655 90.765 250.695 91.245 249.345 91.32C247.755 100.89 244.635 112.62 241.845 120.36L231.465 117.405C234.105 109.185 236.655 96.585 237.765 86.685L251.895 89.955V89.97Z" fill="white"/>
<path d="M301.14 73.125V82.14H269.145V73.125H301.14ZM335.055 93.87L342.39 96.66C342.225 97.305 341.835 97.62 341.43 98.1C339.12 106.8 335.37 113.895 330.255 119.73C334.725 122.28 339.915 124.275 345.57 125.64C343.02 127.95 339.66 132.66 338.07 135.615C331.77 133.695 326.175 130.995 321.315 127.47C316.29 130.905 310.47 133.62 303.84 135.615C302.715 132.825 300.165 128.43 298.095 125.88V131.7H282.45V134.49H272.715V106.8H298.095V125.31C303.435 124.035 308.31 122.115 312.54 119.565C309.42 116.055 306.795 112.14 304.485 107.76L314.46 104.565H302.175V94.2H305.445C303.615 92.205 300.345 89.49 298.185 88.14V93.165H273.06V84.555H298.185V87.435C304.65 82.8 305.28 76.74 305.28 71.55V62.055H333.21V79.05C333.21 81.45 333.285 81.69 333.93 81.69H334.815C335.61 81.69 335.925 80.655 336.09 74.115C338.085 75.795 342.555 77.46 345.42 78.18C344.46 88.47 341.835 91.425 336 91.425H331.77C324.51 91.425 322.35 88.47 322.35 79.215V72.27H316.2C316.125 79.695 314.61 88.545 307.59 94.215H333.045L335.04 93.9L335.055 93.87ZM298.185 95.55V104.175H273.06V95.55H298.185ZM298.11 62.205V70.815H273.3V62.205H298.11ZM288.21 122.61V115.83H282.465V122.61H288.21ZM314.775 104.58C316.365 107.535 318.525 110.325 321.075 112.8C323.385 110.4 325.305 107.61 326.895 104.58H314.775Z" fill="white"/>
<path d="M391.95 73.125V82.14H358.515V73.125H391.95ZM388.515 106.8V131.7H372.165V134.49H362.19V106.8H388.515ZM362.505 93.15V84.54H388.755V93.15H362.505ZM362.505 104.16V95.535H388.755V104.16H362.505ZM388.83 62.19V70.8H362.985V62.19H388.83ZM378.375 115.815H372.15V122.595H378.375V115.815ZM434.94 86.46V97.95H418.98V135.69H407.175V97.95H391.455V86.46H407.175V60.285L421.455 61.005C421.38 61.965 420.66 62.52 418.98 62.76V86.46H434.94Z" fill="white"/>
<path d="M522.57 117.885H498.72C504.3 122.28 512.685 124.425 524.655 125.07C522.18 127.62 519.15 132.57 517.71 135.84C501.51 134.01 492.255 129.135 485.88 119.325C481.725 126.825 473.43 132.33 453.48 135.6C452.595 132.495 449.895 127.695 447.735 125.145C460.575 123.555 467.835 121.23 471.99 117.885H449.325V107.835H477.405C477.645 106.725 477.81 105.525 477.96 104.325H449.235V94.035H479.64V91.485H457.785V81.825H479.64V79.425H453.39V69.21H466.56C465.6 67.29 464.4 65.295 463.215 63.705L473.19 59.88C475.5 62.43 477.66 66.03 478.53 68.58L477.015 69.225H492.57L492.165 69.06C493.995 66.345 495.99 62.595 497.115 59.73L510.6 63.96C510.285 64.68 509.49 64.92 508.2 64.92C507.33 66.195 506.13 67.71 504.855 69.225H518.415V79.44H491.61V81.84H514.185V91.5H491.61V94.05H522.48V104.34H492.24C492 104.985 491.205 105.45 490.005 105.615L489.6 107.85H522.555V117.9L522.57 117.885Z" fill="white"/>
<path d="M606.75 62.28C606.345 70.89 605.715 81.03 604.995 88.695H610.74V106.17H599.325V96.915H550.65V106.17H539.715V88.695H545.7L544.26 63.48L549.84 64.515C553.59 63.24 557.895 61.485 560.685 60.12L566.745 67.305C566.505 67.545 566.025 67.62 565.545 67.62C565.23 67.62 564.9 67.62 564.585 67.455C562.275 68.25 558.6 69.45 555.33 70.335L555.405 71.13H565.215V78.075H555.72L555.885 79.905H565.305V83.175C566.745 82.455 568.185 81.66 569.535 80.775C568.095 79.905 566.745 79.185 565.47 78.465L570.66 74.16C572.01 74.805 573.54 75.6 574.965 76.47C575.925 75.51 576.72 74.64 577.44 73.68L585.81 76.635V71.13H595.305L595.38 69.3H585.48V63.24C585.165 63.72 584.61 63.885 583.725 63.795C582.93 64.755 581.97 65.715 580.935 66.675C582.21 67.635 583.41 68.505 584.28 69.315L578.85 74.025C577.98 73.155 576.69 72.105 575.265 71.07C573.27 72.345 571.2 73.545 569.205 74.505C568.005 73.155 565.455 70.92 563.865 69.795C565.695 69.075 567.54 68.115 569.295 67.08C567.945 66.285 566.67 65.49 565.47 64.845L570.57 60.615C571.92 61.26 573.36 62.055 574.875 62.85C575.745 61.98 576.555 61.095 577.275 60.21L585.495 63.09V62.295H606.72L606.75 62.28ZM589.2 98.58L597.42 103.845C597.015 104.49 596.145 104.805 595.185 104.88C592.155 107.115 588.33 109.905 584.415 112.545H610.02V121.56H580.815V125.31C580.815 133.695 577.785 135.765 561.9 135.765C561.345 132.735 559.74 128.67 558.315 126.03C561.66 126.195 566.535 126.195 567.735 126.195C569.01 126.12 569.415 125.88 569.415 124.92V121.575H540.375V112.56H569.415V109.365L574.605 109.53C575.73 108.81 576.765 108.015 577.8 107.13H554.505V99.15H587.535L589.215 98.595L589.2 98.58ZM556.41 88.68H593.91L594.15 86.85H585.69V79.905H594.78L594.855 78.075H585.84V76.8C585.435 77.28 584.805 77.445 584.085 77.355C583.29 78.315 582.33 79.35 581.295 80.31C582.735 81.345 584.01 82.38 585.045 83.265L579.465 88.05C578.505 87.09 577.155 86.055 575.64 84.855C573.48 86.37 571.245 87.645 569.1 88.68C568.23 87.72 566.7 86.37 565.35 85.245V86.835H556.26L556.425 88.665L556.41 88.68Z" fill="white"/>
<path d="M92.3243 151.545C92.0093 152.34 91.2893 152.745 89.9243 152.82C89.2043 154.74 88.3343 156.81 87.4493 158.88H112.739V224.55H100.379V220.725H67.2593V224.55H55.5293V158.88H74.4443C75.4043 155.535 76.1993 151.86 76.6043 148.74L92.3243 151.53V151.545ZM100.379 170.22H67.2593V176.13H100.379V170.22ZM100.379 186.81H67.2593V193.035H100.379V186.81ZM67.2593 210.03H100.379V203.73H67.2593V210.03Z" fill="white"/>
<path d="M169.726 175.485V172.695C163.261 187.62 152.656 198.39 139.411 204.045C138.136 201.255 134.701 196.23 132.466 194.145C137.341 192.315 141.721 189.915 145.636 186.96C143.716 185.28 141.406 183.45 139.411 182.175L146.266 175.875C148.186 176.985 150.661 178.665 152.656 180.18C153.136 179.535 153.616 178.905 154.171 178.26C152.176 176.745 149.626 175.23 147.541 174.105L152.881 167.25C154.711 168.045 156.871 169.245 158.791 170.445C159.586 168.765 160.231 167.1 160.861 165.255H151.531C148.336 170.28 144.511 175.065 140.206 178.665C138.286 176.43 134.461 172.92 132.226 171.165C139.246 165.735 144.916 156.09 147.466 148.35L160.306 151.935C159.991 152.655 159.181 153.135 157.996 153.045L157.036 155.28H165.886L167.806 154.875L175.141 158.31C174.976 158.955 174.496 159.51 173.941 159.9C173.536 161.49 173.146 163.005 172.666 164.52H179.281C179.596 159.9 179.596 154.71 179.686 148.875L193.651 149.76C193.486 150.63 192.781 151.275 191.251 151.515C191.176 156.15 191.011 160.455 190.771 164.52H197.866C196.666 161.805 194.356 158.055 192.286 155.34L200.821 150.795C203.296 153.675 206.161 157.74 207.361 160.53L200.176 164.52H205.996V175.455H191.956C194.986 183.915 200.101 190.62 208.546 193.965C205.996 196.275 202.486 200.985 200.881 204.18C193.786 200.595 188.986 195 185.641 187.905C182.056 194.925 175.981 200.43 165.616 204.42C164.341 201.39 161.146 196.92 158.596 194.685C170.566 190.455 175.591 184.47 177.826 175.455H169.681L169.726 175.485ZM153.286 207.48C151.606 213.705 148.336 220.32 144.661 224.715L133.411 220.245C136.756 216.9 140.191 210.585 141.946 204.765L153.271 207.48H153.286ZM157.996 223.755C157.996 219.765 157.441 213.06 156.556 207.96L167.326 206.685C168.361 211.635 169.321 218.1 169.396 222.09L157.981 223.77L157.996 223.755ZM175.951 223.83C175.546 219.84 173.881 213.3 172.201 208.275L183.136 206.445C185.056 211.23 186.961 217.53 187.606 221.61L175.951 223.845V223.83ZM196.861 224.625C195.271 220.23 191.191 213.135 187.846 207.87L199.021 204.435C202.456 209.385 206.836 216.165 208.831 220.71L196.861 224.625Z" fill="white"/>
<path d="M294.751 208.35H286.216C290.446 211.305 296.026 215.445 298.981 218.325L289.891 224.79C287.266 221.835 281.431 217.05 277.126 213.78L285.106 208.35H267.466L275.851 213.69C275.536 214.005 275.056 214.17 274.411 214.245C270.901 217.83 263.401 222.465 257.251 224.775C255.421 222.705 252.061 219.345 249.586 217.35C255.166 215.355 261.391 211.53 265.141 208.335H258.436V168.195L253.246 176.01C252.766 175.29 252.286 174.495 251.656 173.7V179.61H231.151V175.455C229.711 176.97 228.196 178.56 226.606 180C225.571 177.36 222.691 172.5 220.786 170.58C227.971 164.19 232.681 155.82 235.306 148.725L247.666 150.885C247.426 151.68 246.796 152.16 245.506 152.235V152.31C250.126 156.375 255.871 161.565 258.916 165.48H269.296C269.536 164.13 269.776 162.69 269.941 161.325H255.661V151.665H297.316V161.325H282.076C281.671 162.6 281.281 164.04 280.801 165.48H294.766V208.32L294.751 208.35ZM255.421 183.615V205.005C255.421 212.025 253.981 215.295 243.211 215.295C242.971 212.34 241.936 208.275 240.736 205.56C242.326 205.635 244.081 205.635 244.726 205.635C245.371 205.635 245.521 205.395 245.521 204.765V193.59H240.646V224.55H230.506V193.59H225.076V183.615H255.391H255.421ZM248.641 170.055C246.331 167.34 243.541 164.475 240.826 162C239.386 164.64 237.631 167.34 235.636 170.055H248.641ZM283.666 177.39V173.805H268.981V177.39H283.666ZM283.666 188.64V185.055H268.981V188.64H283.666ZM283.666 199.965V196.38H268.981V199.965H283.666Z" fill="white"/>
<path d="M335.699 195.27L337.619 205.41C330.119 208.605 322.214 211.875 316.874 213.87C316.799 214.665 316.154 215.31 315.524 215.55L310.649 202.785C313.124 202.14 316.079 201.345 319.349 200.385V177.885H312.644V166.95H319.349V148.92L332.189 149.64C332.114 150.435 331.469 150.99 329.954 151.23V166.95H336.014V177.885H329.954V197.115L335.699 195.285V195.27ZM373.364 185.37C374.564 181.695 375.524 177.795 376.319 173.805L388.439 176.52C388.199 177.315 387.404 177.795 386.129 177.795C383.819 187.845 380.384 197.1 375.839 205.005C376.874 210.435 378.149 213.855 379.424 213.945C380.384 213.945 381.254 210.75 381.419 204.375C383.249 207.09 386.204 210.12 388.514 211.395C386.759 221.925 384.209 224.64 378.059 224.64C373.829 224.64 370.724 221.445 368.324 215.55C365.369 218.985 362.024 222.015 358.274 224.565C356.684 222.645 352.934 219.135 350.534 217.47C352.769 216.12 354.839 214.68 356.759 212.925V212.85C350.294 215.25 343.994 217.56 339.359 219.075C339.284 219.87 338.714 220.425 338.084 220.755L332.579 209.025C339.284 207.435 349.979 204.405 359.954 201.525L361.154 208.305C362.504 206.715 363.779 205.035 364.979 203.28C363.149 193.62 362.189 181.65 361.784 169.53H336.884V159.075H361.454C361.454 155.64 361.379 152.22 361.379 148.935L374.624 149.73C374.549 150.6 373.829 151.08 372.224 151.32C372.149 153.795 372.149 156.42 372.149 159.06H378.614C376.934 157.305 374.699 155.385 372.794 153.96L379.019 148.14C381.899 150.06 385.484 152.925 387.239 154.92L383.009 159.075H387.239V169.53H372.404C372.569 174.96 372.884 180.3 373.274 185.415H373.349L373.364 185.37ZM338.099 174.36H359.249V199.815H338.099V174.36ZM349.994 191.355V182.895H346.799V191.355H349.994Z" fill="white"/>
<path d="M458.895 203.325V212.655C460.245 212.82 461.61 212.82 463.05 212.82C465.765 212.82 473.985 212.82 477.495 212.655C476.145 215.055 474.78 219.99 474.39 222.945H462.585C453.57 222.945 446.22 221.265 440.955 213.045C439.365 217.59 437.28 221.58 434.565 224.61C432.81 222.855 428.895 219.99 426.51 218.625C428.43 216.63 429.945 214.08 431.13 211.05L424.59 213.36C424.11 210.48 423 206.58 421.875 202.905V224.61H411.975V199.875H411.735C411.18 206.265 409.815 213.915 407.82 218.79C405.825 217.44 402.15 215.835 399.84 214.965C401.595 210.57 402.48 203.07 402.87 196.455L411.96 198.525V193.26L403.83 193.74C403.665 194.535 402.945 194.94 402.315 195.015L400.245 183.69H405.75C406.785 182.34 407.82 180.975 408.855 179.535C406.695 176.025 403.185 171.87 400.23 168.69C402.15 166.05 403.98 163.425 405.81 160.785L407.085 162.06C409.155 157.755 411.15 152.88 412.35 148.89L423.36 153.285C422.88 154.005 421.92 154.245 420.96 154.155C419.13 158.46 415.935 164.205 413.22 168.6C413.775 169.245 414.255 169.95 414.735 170.595C417.285 166.44 419.595 162.225 421.365 158.55L430.785 162.855V157.995H446.58V148.905L460.935 149.7C460.86 150.57 460.215 151.14 458.535 151.38V158.01H474.885V173.415H463.71V168.075H441.375V173.415H430.77V164.16C430.365 164.235 429.975 164.325 429.495 164.325C427.095 168.315 423.915 172.95 420.48 177.495L426.78 174.855C429.81 180.36 432.765 187.455 433.635 192.165L425.01 195.99C424.845 194.88 424.53 193.68 424.215 192.315L421.815 192.48V198.54L428.835 196.305C430.11 199.575 431.46 203.565 432.42 207C433.935 201.57 434.73 195.195 435.135 188.565L447.105 190.245C446.94 190.965 446.31 191.445 445.11 191.52C444.87 194.79 444.48 198.06 443.91 201.18C444.945 203.895 446.145 205.965 447.585 207.645V185.22H434.265V175.005H471.69V185.22H458.85V193.275H471.06V203.325H458.85H458.895ZM421.23 183.45C420.585 181.935 419.955 180.495 419.31 179.145C418.11 180.66 417 182.1 415.8 183.54L421.23 183.465V183.45Z" fill="white"/>
<path d="M565.979 173.97H559.994C558.404 184.905 555.839 194.31 551.939 202.29C555.854 207.555 560.789 211.71 567.104 214.575C564.464 216.885 560.879 221.52 559.199 224.715C553.454 221.61 548.819 217.62 544.994 212.745C540.764 217.695 535.424 221.685 528.869 224.79C527.744 222.15 524.879 217.29 523.049 214.98C529.679 212.19 534.779 208.035 538.694 202.605C536.699 198.375 534.944 193.755 533.594 188.805C532.799 189.915 532.004 191.04 531.119 192.075C529.529 190.395 526.499 187.68 524.024 185.775C523.619 208.515 523.229 217.365 521.234 220.245C518.834 223.83 515.969 224.865 506.954 224.64C506.789 221.535 505.679 217.065 504.074 214.185C506.234 214.425 507.989 214.425 509.264 214.425C510.224 214.425 510.854 214.185 511.499 213.15C512.459 211.635 512.849 205.575 513.089 188.895H508.469C507.344 202.38 504.719 215.31 497.624 224.88C495.869 222 492.359 218.49 489.404 216.66C497.459 205.725 497.939 189.06 498.104 171.255H491.009V160.56H502.664V148.905L516.539 149.625C516.464 150.495 515.819 151.065 514.139 151.38V160.56H526.184V171.255H509.354L509.114 178.44H515.744L518.219 178.365L524.204 178.605C524.129 179.475 524.129 180.915 524.129 182.115C529.559 174.21 532.979 161.535 534.659 148.77L548.384 151.485C548.144 152.28 547.349 152.835 546.074 152.835C545.519 156.345 544.724 159.855 543.914 163.29H566.009V173.985L565.979 173.97ZM540.689 173.97L540.614 174.135C541.739 179.64 543.164 184.905 545.084 189.69C546.674 184.98 547.799 179.715 548.594 173.97H540.689Z" fill="white"/>
<path opacity="0.5" d="M610.005 0H1.00488V9H610.005V0Z" fill="white"/>
<path opacity="0.5" d="M610.005 276H1.00488V285H610.005V276Z" fill="white"/>
</svg>
