<svg width="592" height="51" viewBox="0 0 592 51" fill="none" xmlns="http://www.w3.org/2000/svg">
<path d="M4.17537 15.11C6.93537 16.145 10.6404 17.975 12.4104 19.535L7.98534 25.64C6.36534 24.08 2.82537 21.935 0.00537109 20.69L4.17537 15.11ZM0.785355 46.07C2.72035 41.96 5.31536 35.435 7.35536 29.18L13.5054 33.095C11.7804 38.675 9.86036 44.195 8.19536 48.26C8.55536 48.68 8.72037 49.1 8.72037 49.46C8.72037 49.775 8.66035 50.03 8.51035 50.24L0.800369 46.07H0.785355ZM6.09537 1.29504C8.91537 2.39004 12.6054 4.32504 14.4354 5.93004L9.95033 11.975C8.33033 10.355 4.68537 8.12004 1.88037 6.81504L6.09537 1.29504ZM48.3654 2.54004V43.205C48.3654 48.575 46.7453 50.81 38.9303 50.81C38.6753 48.935 37.6253 45.65 36.6353 43.88C38.2553 43.985 40.0254 43.985 40.5954 43.985C41.2254 43.985 41.4354 43.73 41.4354 43.04V33.86H37.8354C37.0554 40.01 35.2253 46.205 31.3253 50.54C30.1253 49.4 27.3053 47.465 25.7003 46.73C26.6903 45.635 27.5754 44.435 28.2504 43.13H20.4354V46.52H14.0303V24.68H18.6653V17.435H12.7253V10.625H18.6653V0.980042L26.8554 1.44504C26.7954 1.97004 26.4354 2.28504 25.4004 2.48004V10.625H30.5604V17.45H25.4004V24.695H30.0954V38.87C31.7154 33.815 31.9254 28.19 31.9254 23.345V2.54004H48.3953H48.3654ZM23.5553 36.68V31.16H20.4354V36.68H23.5553ZM38.4653 23.345C38.4653 24.59 38.4653 25.85 38.4053 27.2H41.4354V21.47H38.4653V23.345ZM41.4354 9.21504H38.4653V14.795H41.4354V9.21504Z" fill="white"/>
<path d="M57.3356 15.155C60.2606 16.25 64.0556 18.185 65.9906 19.85L61.5056 25.955C59.8406 24.29 56.0905 22.04 53.1655 20.75L57.3356 15.17V15.155ZM54.1555 45.755C56.2855 41.645 59.2706 35.12 61.5506 28.865L67.6406 33.035C65.6606 38.66 63.4706 44.135 61.5506 48.2C61.9106 48.62 62.0755 49.04 62.0755 49.445C62.0755 49.76 61.9706 50.015 61.8656 50.285L54.1555 45.755ZM68.5405 6.03503L64.0555 12.035C62.3305 10.31 58.5805 8.01503 55.6105 6.62003L59.8255 1.10003C62.7505 2.30003 66.6056 4.22003 68.5256 5.94503V5.21003H81.3505V0.875031L90.2605 1.34003C90.2155 1.91003 89.7955 2.28503 88.7455 2.43503V5.19503H102.036V14.84H95.0455V10.625H75.1856V14.84H68.5105V6.03503H68.5405ZM99.9205 42.47H95.9606C98.7806 43.715 101.541 45.02 103.356 46.01L97.6255 50.435C95.1805 48.92 90.8456 46.52 87.0506 44.81L89.4505 42.47H82.0555L85.3405 44.87C85.1305 45.08 84.7705 45.185 84.3955 45.185C81.5755 47.165 75.9505 49.355 71.3155 50.45C70.3855 48.995 68.6006 46.745 67.3106 45.35C70.1306 44.72 73.3105 43.625 75.9055 42.485H72.4706V31.235C71.5256 31.445 70.5356 31.655 69.6056 31.805C68.8706 30.29 67.1006 27.425 65.9606 26.075C68.1506 25.76 70.3406 25.4 72.4706 24.98V23.885C71.9456 24.095 71.4356 24.305 70.9106 24.455C70.0256 23.105 68.2556 21.02 66.8906 19.82C69.9206 18.935 73.1456 17.165 75.0806 15.545L76.5956 16.49V12.215H93.7406V16.235C93.9506 16.085 94.1006 15.92 94.3106 15.71L101.451 19.04C101.136 19.4 100.566 19.61 99.7856 19.505C98.1206 21.02 96.1855 22.43 93.9955 23.675H99.9356V42.485L99.9205 42.47ZM80.9006 19.115C80.6906 19.43 80.3305 19.58 79.7005 19.535C78.0805 20.885 75.5305 22.505 72.8755 23.66H77.9305C79.1755 23.345 80.3755 22.985 81.5305 22.565V17.36H78.0356L80.9006 19.13V19.115ZM79.4456 33.605H92.6306V32.465H79.4456V33.605ZM92.6306 37.31H79.4456V38.51H92.6306V37.31ZM92.6306 27.62H85.3855C84.2905 28.04 83.1955 28.4 82.0555 28.76H92.6306V27.62ZM88.4606 17.36V19.76C89.9156 19.025 91.2205 18.245 92.3755 17.36H88.4606Z" fill="white"/>
<path d="M118.82 31.685L122.93 30.23L124.34 36.8C119.225 39.2 113.81 41.54 110.165 43.055C110.105 43.625 109.745 44.045 109.28 44.195L105.995 35.915C107.615 35.45 109.595 34.82 111.785 34.085V20.315H107.255V13.175H111.785V1.40003L120.335 1.86503C120.275 2.43503 119.87 2.75003 118.82 2.91503V13.175H123.245V20.315H118.82V31.67V31.685ZM133.94 39.29C133.94 42.47 134.3 42.83 137.375 42.83H146.135C148.85 42.83 149.36 41.795 149.84 36.785C151.46 37.88 154.37 39.08 156.41 39.5C155.525 47 153.335 49.565 146.87 49.565H136.655C128.885 49.565 126.755 47.375 126.755 39.305V27.11L123.26 28.625L120.44 21.905L126.74 19.25V6.14003L135.44 6.60503C135.38 7.17503 134.975 7.49003 133.925 7.70003V16.145L136.745 14.945V0.875031L145.34 1.34003C145.295 1.91003 144.875 2.22503 143.825 2.37503V11.915L147.53 10.355L149.045 9.36503L154.985 11.495C154.835 11.81 154.52 12.17 154.055 12.44C154.055 22.505 153.95 27.92 153.8 30.11C153.59 35.015 150.47 35.9 145.46 35.9C145.25 34.025 144.68 31.16 143.9 29.645C144.575 29.69 145.46 29.69 145.88 29.69C146.405 29.69 146.66 29.54 146.765 28.745C146.87 28.115 146.87 25.145 146.87 18.38L143.855 19.685V37.985H136.76V22.775L133.94 23.975V39.29Z" fill="white"/>
<path d="M188.195 41.27H208.37V48.725H160.52V41.27H180.065V29.54H165.575V22.085H180.065V11.87H163.025V4.43002H205.715V11.885H188.21V22.1H203.645V29.555H188.21V41.285L188.195 41.27Z" fill="white"/>
<path d="M273.665 32.405V39.755H256.355V50.39H248.54V39.755H225.29V32.405H233.375V20.21C232.49 21.305 231.545 22.34 230.615 23.24C229.205 21.785 226.34 19.22 224.51 17.975C228.995 14.12 233.105 7.23504 235.25 0.665039L244.31 3.48504C244.1 3.95004 243.53 4.26504 242.75 4.16004C242.495 4.89504 242.18 5.57004 241.865 6.29004H270.53V13.64H256.355V18.905H269.33V25.94H256.355V32.405H273.665ZM248.54 13.64H238.01C236.915 15.515 235.715 17.285 234.41 18.905H248.54V13.64ZM240.98 32.405H248.54V25.94H240.98V32.405Z" fill="white"/>
<path d="M289.295 12.29V20.06C289.295 28.76 288.47 42.155 283.565 50.39C282.26 49.145 279.08 47 277.37 46.22C281.75 38.825 282.065 27.77 282.065 20.06V5.57003H300.41V0.875031L309.89 1.40003C309.83 1.97003 309.425 2.34503 308.33 2.54003V5.57003H326.825V12.29H312.545V12.335L320.57 12.695C320.51 13.265 320.105 13.64 319.055 13.835V15.56H326.51V21.35H319.055V28.85H296.855V21.35H290.39V15.56H296.855V12.275H289.295V12.29ZM319.58 30.38L324.53 32.57C324.365 32.99 324.11 33.14 323.795 33.35C321.92 37.055 319.265 40.025 316.025 42.425C319.415 43.205 323.27 43.775 327.44 44.09C325.88 45.65 323.945 48.68 323.015 50.6C317.18 49.925 312.125 48.665 307.79 46.745C302.885 48.62 297.32 49.82 291.215 50.6C290.645 48.725 289.235 45.905 288.095 44.3C292.475 43.94 296.645 43.31 300.395 42.32C298.625 40.91 297.005 39.35 295.595 37.52L298.715 36.425H290.585V30.59H318.305L319.55 30.38H319.58ZM311.555 15.575V12.29H297.845V12.335L305.555 12.695C305.51 13.265 305.03 13.64 303.995 13.835V15.56H311.555V15.575ZM303.275 36.425C304.58 37.625 306.14 38.66 307.97 39.605C309.8 38.66 311.36 37.625 312.77 36.425H303.29H303.275ZM311.555 23.39V21.365H303.995V23.39H311.555Z" fill="white"/>
<path d="M379.205 29.39H364.565C364.355 29.6 363.995 29.75 363.47 29.645C363.32 29.96 363.11 30.275 362.9 30.575H374.885L376.13 30.53L379.205 30.68C379.205 31.145 379.16 31.715 379.16 32.3C378.95 43.19 378.695 47.105 377.75 48.515C376.865 49.865 375.56 50.6 371.24 50.45C371.18 50.03 371.135 49.505 371.03 48.995L369.05 49.67C368.99 49.25 368.885 48.785 368.795 48.26C364.1 48.725 359.51 49.1 356.39 49.355C356.33 49.775 356.03 50.03 355.61 50.09L353.99 45.245L361.49 44.93V43.205H355.97V38.825C355.445 39.245 354.875 39.71 354.35 40.07C354.095 39.71 353.72 39.125 353.315 38.555C352.22 42.98 350.495 47.105 347.69 50.33C346.55 49.295 343.835 47.465 342.32 46.79C343.73 45.17 344.825 43.4 345.71 41.48H338.675V45.965H332.525V3.27503H346.7V38.93C348.575 33.305 348.785 27.05 348.785 21.785V1.97003H378.59V12.29H355.04V21.77C355.04 25.31 354.89 29.375 354.305 33.5C355.55 32.3 356.705 30.89 357.695 29.39H356.135V21.41H379.22V29.39H379.205ZM340.43 9.63503H338.66V13.91H340.43V9.63503ZM338.66 20.06V24.485H340.43V20.06H338.66ZM338.66 35.075H340.43V30.65H338.66V35.075ZM371.915 6.47003H355.025V7.82003H371.915V6.47003ZM356.645 20.33V17.405H363.725V20.33H356.645ZM356.855 13.445H363.68V16.37H356.855V13.445ZM361.49 34.55H360.08C359.765 34.97 359.405 35.33 359.09 35.75H361.49V34.55ZM360.08 40.28H361.49V38.66H360.08V40.28ZM360.965 24.695V26.105H362.585V24.695H360.965ZM364.82 12.71L371.705 13.13C371.645 13.595 371.285 13.865 370.4 14.015V20.735H364.82V12.71ZM371.39 43.205C371.75 44.09 372.125 45.035 372.44 45.92C372.545 45.815 372.695 45.71 372.8 45.5C373.16 44.765 373.325 42.11 373.475 34.55H366.23V35.75H371.96V43.205H371.39ZM367.745 38.675H366.23V40.295H367.745V38.675ZM366.23 44.72L367.64 44.615C367.535 44.3 367.385 44.045 367.28 43.73L369.005 43.205H366.245V44.72H366.23ZM366.65 24.71V26.12H368.315V24.71H366.65ZM371.645 16.37V13.445H378.74V16.37H371.645ZM378.935 17.405V20.33H371.645V17.405H378.935ZM372.425 24.695V26.105H374.15V24.695H372.425Z" fill="white"/>
<path d="M389.315 4.22H426.68V50.39H418.595V47.315H396.965V50.39H389.3V4.22H389.315ZM418.61 11.615H396.98V16.145H418.61V11.615ZM418.61 23.285H396.98V28.085H418.61V23.285ZM396.98 39.905H418.61V35.21H396.98V39.905Z" fill="white"/>
<path d="M442.941 25.22C441.531 27.155 440.016 28.925 438.516 30.485C437.736 28.55 435.756 24.485 434.601 22.61C439.401 17.915 444.351 9.27504 447.216 0.980042L455.976 4.01004C455.721 4.53504 455.136 4.79004 454.311 4.68504C453.006 7.86504 451.491 11.045 449.826 14.165L452.166 14.795C452.061 15.32 451.596 15.74 450.606 15.89V50.39H442.941V25.22ZM484.896 21.785L470.931 23.09C472.236 33.875 474.681 42.47 477.081 42.53C478.071 42.53 478.701 39.77 478.956 33.725C480.576 35.555 483.126 37.535 485.211 38.36C484.011 48.26 481.671 50.405 476.556 50.405H476.346C468.741 50.36 464.826 38.465 463.101 23.87L452.946 24.815L452.211 17.525L462.366 16.58C462.006 11.525 461.841 6.32004 461.841 1.31004L471.696 1.83504C471.651 2.51004 471.126 2.87004 469.926 3.03504C469.821 7.20504 469.926 11.585 470.241 15.86L484.161 14.615L484.896 21.8V21.785ZM477.711 1.14504C480.321 3.75504 483.546 7.44504 484.896 10.115L478.701 13.97C477.561 11.42 474.531 7.46004 471.921 4.64004L477.711 1.14504Z" fill="white"/>
<path d="M519.92 27.665C520.7 29.75 521.69 31.685 522.845 33.395C525.455 31.67 528.155 29.585 530.03 27.815L536.915 33.29C536.705 33.545 536.285 33.65 535.775 33.65C535.565 33.65 535.355 33.65 535.1 33.605C533.12 34.955 529.985 36.785 527.18 38.24C530.15 40.685 533.795 42.515 538.43 43.655C536.765 45.215 534.575 48.395 533.525 50.435C526.595 48.305 521.75 44.75 518.21 39.86L518.57 46.01C511.07 47.36 503.135 48.665 497.99 49.505C497.84 50.03 497.42 50.345 497 50.45L494.18 42.635L499.235 42.065V37.37C497.255 38.21 495.215 38.885 493.19 39.455C492.095 37.685 489.905 34.82 488.345 33.26C493.655 32.06 499.19 30.035 503.66 27.68H489.02V21.32H509.24V19.34H494.705V13.235H509.24V11.3H492.14V4.94003H509.24V0.875031L518.465 1.34003C518.42 1.97003 518 2.28503 516.905 2.48003V4.92503H534.62V11.285H516.905V13.22H532.745V19.325H516.905V21.305H537.395V27.665H519.935H519.92ZM508.4 33.86C508.295 34.385 507.83 34.85 506.84 35V41.09C510.485 40.625 514.34 40.1 518.045 39.575C516.065 36.755 514.505 33.425 513.14 29.615C511.265 31.07 509.225 32.375 507.035 33.635L508.385 33.845L508.4 33.86Z" fill="white"/>
<path d="M591.47 16.46H577.445V20.78H590.165V27.665H577.445V32.36H590.84V39.395H577.445V50.39H569.63V16.46H568.01C566.03 20.375 563.84 24.02 561.545 26.825C560.345 25.415 557.9 23.015 556.235 21.665V50.375H548.735V25.055C547.385 26.93 545.975 28.595 544.565 30.155C543.83 28.22 541.955 24.215 540.86 22.385C545.45 17.69 550.19 9.14003 552.995 0.965027L561.485 3.93503C561.275 4.40003 560.705 4.67003 559.865 4.61003C558.56 7.79003 557.045 10.97 555.44 14.09L557.78 14.72C557.63 15.245 557.15 15.665 556.22 15.755V20.96C559.97 16.325 563.51 8.55503 565.49 1.26503L574.4 3.92003C574.19 4.38503 573.62 4.70003 572.84 4.59503C572.315 6.11003 571.745 7.67003 571.175 9.23003H591.455V16.415L591.47 16.46Z" fill="white"/>
</svg>
