<svg width="529" height="159" viewBox="0 0 529 159" fill="none" xmlns="http://www.w3.org/2000/svg">
<path d="M182.63 25.65H171.41C168.51 30.08 164.84 33.97 160.49 37.33C168.05 39.62 176.68 41.15 186.07 41.91C183.63 44.51 180.5 49.55 178.97 52.68C176.83 52.37 174.69 52.07 172.63 51.69V72.46H161.18V70.4H138.66V72.69H127.82V52.07C124.77 52.83 121.64 53.52 118.5 54.05C117.51 51.23 115.22 46.64 113.31 44.2C122.09 42.98 130.72 40.92 138.28 38.02C136.6 36.72 135 35.42 133.39 33.97C131.02 35.34 128.43 36.64 125.6 37.94C124.15 35.34 120.71 31.37 118.35 29.62C121.79 28.48 124.76 27.1 127.44 25.65H117.06V7.33H143.78V0L157.52 0.76C157.44 1.6 156.83 2.13 155.23 2.36V7.33H182.64V25.65H182.63ZM127.88 17.33V25.42C132.23 22.98 135.52 20.23 138.04 17.33H127.88ZM138.65 61.39H161.17V57.5H138.65V61.39ZM159.34 48.49C155.75 47.35 152.32 45.97 149.03 44.44C146.05 45.97 142.92 47.27 139.64 48.49H159.34ZM142.01 27.87L141.7 28.1C143.84 29.86 146.28 31.38 149.03 32.83C151.47 31.3 153.69 29.62 155.67 27.87H142H142.01ZM171.25 22.45V17.33H152.92C152.69 18.17 151.93 18.63 150.71 18.63L149.87 19.7H163.46L165.22 19.24L171.25 22.45Z" fill="white"/>
<path d="M209.05 29.62V54.05C212.94 61.3 220.35 61.3 235.09 61.3C244.25 61.3 255.09 61 262.73 60.31C261.51 62.83 259.83 67.94 259.29 71.08C253.33 71.39 245.16 71.62 237.53 71.62C218.9 71.62 210.88 71.47 204.39 63.14C201.49 65.97 198.51 68.64 195.91 70.78C195.91 71.77 195.6 72.15 194.76 72.54L189.49 60.86C192.32 59.18 195.45 57.04 198.42 54.83V39.87H190.48V29.64H209.03L209.05 29.62ZM198.97 2.06003C203.17 5.42003 208.44 10.38 210.88 13.97L201.72 20.92C199.66 17.33 194.62 12.06 190.5 8.32003L198.98 2.06003H198.97ZM229.74 60.17V55.82H210.96V47.96H229.74V46.05H215.46V23.13H229.74V21.37H213.71V13.89H229.74V9.92003L242.72 10.61C242.64 11.45 242.03 11.98 240.51 12.21V13.89H257V21.37H240.51V23.13H255.25V46.04H240.51V47.95H260.44V55.81H240.51V60.16H229.74V60.17ZM221.34 9.32003V12.37H211.64V1.53003H259.74V12.37H249.58V9.32003H221.33H221.34ZM224.85 29.71V31.54H229.74V29.71H224.85ZM224.85 39.48H229.74V37.65H224.85V39.48ZM245.39 29.71H240.5V31.54H245.39V29.71ZM245.39 39.48V37.65H240.5V39.48H245.39Z" fill="white"/>
<path d="M269.21 2.75H335.56V72.69H324.72V70.17H279.59V72.69H269.21V2.75ZM279.59 60.25H324.72V46.66C324.34 47.04 323.57 47.2 322.73 47.04C321.36 47.88 319.29 49.1 317.31 50.25C319.6 51.17 322.04 51.93 324.49 52.46C322.66 54.06 320.14 57.27 318.92 59.33C314.19 57.88 309.76 55.44 305.94 52.46V58.87H296.24V52.84C292.65 54.75 288.83 56.43 285.09 57.73C283.94 55.97 281.35 52.77 279.75 51.16C285.32 49.56 291.2 47.11 295.86 44.06H286.09V31.54H317.7V41.62L324.72 46.51V12.67H279.59V60.24V60.25ZM322.73 23.9V29.86H281.5V23.9H297.08V22.07H285.09V16.27H297.08V13.22L309.3 13.91C309.22 14.67 308.61 15.13 307.09 15.44V16.28H319.15V22.08H307.09V23.91H322.74L322.73 23.9ZM308.07 38.94V36.57H295.17V38.94H308.07ZM308.6 44.06L307.84 44.75C308.68 45.51 309.67 46.2 310.67 46.81C311.89 45.97 313.27 45.05 314.49 44.06H308.61H308.6Z" fill="white"/>
<path d="M414.51 59.94V69.94H357.17V72.61H346.33V2.37H412.38V12.06H357.17V59.94H414.51ZM360.6 57.27V36.04H382.36V57.27H360.6ZM399.16 14.74V33.75H368.16V14.74H399.16ZM369.46 43.3V50.02H372.97V43.3H369.46ZM388.17 26.65V21.76H378.47V26.65H388.17ZM407.03 36.04V57.27H384.81V36.04H407.03ZM397.56 50.01V43.29H393.82V50.01H397.56Z" fill="white"/>
<path d="M60.93 123.83L67.73 126.27C67.5 126.96 67.2 127.19 66.81 127.65C65.13 134.06 62.38 139.64 58.72 144.22C62.38 146.36 66.51 147.96 71.24 149.03C68.95 151.02 66.05 155.06 64.67 157.66C59.71 156.21 55.36 154.07 51.54 151.4C48.26 154 44.59 156.13 40.47 157.81C39.32 155.44 36.96 151.85 34.97 149.72V157.74H24.36V151.55C16.8 152.39 9.55 153.23 4.43 153.69C4.28 154.45 3.67 154.83 3.06 154.91L0.08 144.52C1.91 144.44 4.05 144.37 6.42 144.21V122.37H0V113.67H70.48V122.37H34.97V149.09C38.25 147.95 41.31 146.34 43.98 144.36C41.46 141.31 39.4 137.87 37.64 134.05L43.44 132.45H36.34V124.13H59.17L60.93 123.82V123.83ZM60.32 87.64V111.77H10.16V87.64H60.32ZM24.36 122.38H16.5V124.21H24.36V122.38ZM16.5 131.7V133.76H24.36V131.7H16.5ZM16.5 143.69L24.36 143.16V141.25H16.5V143.69ZM49.18 96.43V94.6H20.77V96.43H49.17H49.18ZM49.18 104.83V102.92H20.77V104.83H49.17H49.18ZM46.97 132.47C47.96 134.38 49.26 136.14 50.71 137.81C52.01 136.13 53.08 134.37 54.07 132.47H46.97Z" fill="#FFFF00"/>
<path d="M141.71 137.88H139.27C142.93 142.84 146.52 149.1 147.9 153.61L138.36 158.11C137.98 156.66 137.37 154.9 136.6 153.07C124.92 153.91 113.24 154.67 105.37 155.06C105.14 155.82 104.45 156.21 103.77 156.28L100.64 144.44C105.22 144.44 111.18 144.29 117.74 144.14V137.88H104.91V114.97H117.74V109.55C113.08 109.78 108.81 109.93 105.29 110.08C105.14 110.84 104.45 111.3 103.76 111.3L101.01 100.76V117.25H90.47V115.04H86.88C86.73 117.1 86.57 119.16 86.35 121.23H93.3L95.51 121.08L101.16 121.69L100.93 124.67C100.09 143.3 99.17 151.09 96.96 153.84C94.06 157.51 90.62 157.81 81.31 157.66C81.16 154.61 79.94 150.41 78.26 147.66C81.24 147.89 84.14 147.97 85.59 147.97C86.74 147.97 87.5 147.82 88.26 146.98C89.41 145.76 90.02 141.18 90.55 130.72H85.43L85.05 133.7L75.51 132.25C76.58 125.15 77.57 114.23 77.95 105.45H90.47V97.89H76.42V87.66H101.01V99.88H107.5C110.25 95.45 112.92 89.72 114.52 85.22L127.35 88.81C127.04 89.5 126.21 89.8 124.98 89.88C123.45 92.93 121.24 96.6 119.02 99.88L131.01 99.73C130.02 98.36 128.95 96.98 127.96 95.76L137.12 91.48C141.47 96.44 146.36 103.09 148.34 108.05L138.41 112.71C138.03 111.49 137.34 110.11 136.58 108.66C132.15 108.89 127.65 109.04 123.37 109.27V109.35L130.55 109.73C130.47 110.57 129.86 111.03 128.34 111.33V114.99H141.7V137.9L141.71 137.88ZM114.45 128.79H117.73V124.13H114.45V128.79ZM131.71 124.13H128.35V128.79H131.71V124.13ZM128.35 143.91L131.71 143.83C131.02 142.84 130.41 141.77 129.73 140.85L136.22 137.87H128.36V143.9L128.35 143.91Z" fill="#FFFF00"/>
<path d="M176.14 133.14V133.83C178.51 135.13 184.92 139.4 186.6 140.63L180.42 148.49C179.35 147.27 177.75 145.67 176.14 144.06V157.73H165.37V145.97C162.93 149.02 160.33 151.7 157.73 153.76C156.05 151.39 152.84 147.8 150.55 145.97C155.36 142.99 160.32 138.11 163.68 133.14H152.76V123.9H165.36V119.47H151.92V110.46H158.56C158.1 108.02 157.26 105.34 156.35 103.13L161.16 101.68H153.45V92.7499H165.36V85.1899L178.34 85.8799C178.26 86.7199 177.65 87.2499 176.13 87.4799V92.7499H187.51V101.68H181.25L187.05 103.13C186.82 103.74 186.13 104.05 184.91 104.12C184.15 106.03 183 108.32 181.86 110.46H189.11V119.47H178.19C177.88 119.93 177.27 120.31 176.13 120.46V123.9H187.89V133.14H176.13H176.14ZM172.4 110.46C173.39 107.86 174.46 104.5 175.15 101.68H165.22C166.52 104.58 167.51 107.94 167.89 110.46H172.39H172.4ZM224.17 110.23V120.46H217.53V157.72H206.76V120.46H201.26C201.03 131.68 199.2 147.79 189.5 157.95C188.13 155.51 184.16 151.69 181.64 150.39C189.96 141.23 190.73 128.48 190.73 118.32V92.1299L195.92 93.5799C202.49 91.2899 209.21 88.1599 213.33 85.2599L223.56 93.1199C223.03 93.6599 222.11 93.6599 221.19 93.6599C216 96.4099 208.52 99.3099 201.26 101.45V110.23H224.17Z" fill="#FFFF00"/>
<path d="M293.72 89.01L300.82 91.61C300.74 92.14 300.51 92.68 300.06 93.06C298 99.63 295.48 107.42 292.42 115.51C298.6 123.22 300.51 128.41 300.51 133.07C300.51 148.57 290.05 148.57 283.41 148.34C283.33 145.44 282.11 141.01 280.43 138.03V157.65H269.51V96.11C267.83 100.16 265.92 104.05 263.78 107.72H267.52V117.26H257.36C256.14 118.79 254.92 120.24 253.7 121.61H265.38V157.12H254.92V154.52H245.22V157.8H235.22V136.42C234.3 136.95 233.39 137.49 232.39 137.95C231.24 135.58 228.57 131.15 226.82 129.02C229.72 127.72 232.55 126.12 235.22 124.36V121.61H238.96C240.72 120.24 242.32 118.79 243.92 117.26H228.65V107.72H240.94V101.92H231.62V92.45H240.94V85.5L253.39 86.19C253.31 86.95 252.7 87.49 251.18 87.72V92.45H257.75V97.87C258.97 95.35 260.04 92.75 260.96 90.08L269.51 92.83V89.39H291.42L293.71 89.01H293.72ZM254.93 133.75V130.31H245.23V133.75H254.93ZM245.23 145.74H254.93V142H245.23V145.74ZM251.19 107.71H252.03C253.33 105.88 254.55 103.89 255.62 101.91H251.19V107.71ZM280.43 99.77V137.64C282.26 137.79 283.87 137.79 284.93 137.79C288.75 137.79 289.51 136.03 289.51 132.52C289.51 128.78 287.45 124.65 281.19 117.4C283.18 110.99 284.85 105.11 286.23 99.76H280.43V99.77Z" fill="#FFFF00"/>
<path d="M303.34 138.56C307.54 132.07 309.6 122.76 310.59 112.37L321.51 114.58C320.36 125.42 318.61 136.88 313.8 144.51L303.34 138.55V138.56ZM324.87 107.33L338.77 108.09C338.69 108.93 338.08 109.46 336.48 109.77V142.75C336.48 146.57 336.86 147.03 340.15 147.03H348.55C351.83 147.03 352.44 144.74 352.98 133.44C355.5 135.42 360.23 137.41 363.29 138.17C362.14 152.45 359.24 157.11 349.55 157.11H338.55C327.78 157.11 324.88 153.6 324.88 142.75V107.32L324.87 107.33ZM350.07 108.86C344.27 103.74 333.88 97.64 324.95 94.05L332.2 85.42C341.13 88.63 351.37 94.43 357.47 99.09L350.06 108.86H350.07ZM366.72 141.92C365.27 134.21 360.15 122.53 354.2 114.2L364.43 109.08C370.84 117.33 376.19 128.32 378.02 136.26L366.72 141.91V141.92Z" fill="#FFFF00"/>
<path d="M398.78 130.32L404.81 128.18L406.87 137.8C399.39 141.31 391.45 144.75 386.1 146.96C386.02 147.8 385.49 148.41 384.8 148.64L379.99 136.5C382.36 135.81 385.26 134.9 388.47 133.83V113.67H381.83V103.21H388.47V85.9501L400.99 86.6401C400.91 87.4801 400.3 87.9401 398.78 88.1701V103.21H405.27V113.67H398.78V130.32ZM420.92 141.47C420.92 146.13 421.45 146.66 425.96 146.66H438.79C442.76 146.66 443.52 145.13 444.21 137.8C446.58 139.4 450.85 141.16 453.83 141.77C452.53 152.77 449.32 156.51 439.86 156.51H424.89C413.51 156.51 410.38 153.3 410.38 141.47V123.6L405.26 125.81L401.14 115.96L410.38 112.07V92.9001L423.13 93.59C423.05 94.43 422.44 94.8901 420.92 95.1901V107.56L425.04 105.8V85.1801L437.64 85.8701C437.56 86.7101 436.95 87.1701 435.43 87.4001V101.37L440.85 99.0801L443.06 97.6301L451.76 100.76C451.53 101.22 451.07 101.75 450.39 102.13C450.39 116.87 450.24 124.81 450.01 128.01C449.7 135.19 445.12 136.49 437.79 136.49C437.48 133.74 436.64 129.54 435.5 127.33C436.49 127.41 437.79 127.41 438.4 127.41C439.16 127.41 439.55 127.18 439.7 126.04C439.85 125.12 439.85 120.77 439.85 110.84L435.42 112.75V139.55H425.04V117.26L420.92 119.02V141.47Z" fill="#FFFF00"/>
<path d="M498.88 144.37H528.43V155.29H458.34V144.37H486.97V127.19H465.74V116.27H486.97V101.3H462V90.38H524.53V101.3H498.87V116.27H521.47V127.19H498.87V144.37H498.88Z" fill="#FFFF00"/>
</svg>
