<?xml version="1.0" encoding="utf-8"?>
<!-- Generator: Adobe Illustrator 27.0.0, SVG Export Plug-In . SVG Version: 6.00 Build 0)  -->
<svg version="1.1" id="圖層_1" xmlns="http://www.w3.org/2000/svg" xmlns:xlink="http://www.w3.org/1999/xlink" x="0px" y="0px"
	 viewBox="0 0 390 60" style="enable-background:new 0 0 390 60;" xml:space="preserve">
<style type="text/css">
	.st0{fill:#FFFFFF;}
	.st1{fill:#FFE900;}
	.st2{fill:#2E318B;}
</style>
<path class="st0" d="M360.4,0.3H30C13.8,0.3,0.6,13.5,0.6,29.7S13.8,59.1,30,59.1h330.4c16.2,0,29.4-13.2,29.4-29.4
	S376.6,0.3,360.4,0.3z"/>
<path class="st1" d="M128.4,6.2h-98C17.5,6.2,7,16.7,7,29.7v0c0,12.9,10.5,23.4,23.4,23.4h98c12.9,0,23.4-10.5,23.4-23.4v0
	C151.9,16.7,141.4,6.2,128.4,6.2z"/>
<path class="st2" d="M40.2,17.1h5.9c0.9,2.1,2.9,4.1,5.2,5.1c-0.7,0.9-1.7,2.7-2.2,3.8l-0.4-0.3v5.3H34.7v-5.2l-0.5,0.3
	c-0.2-0.5-0.5-1.4-0.9-2.2v2.6h-1.9v6l2.2-0.5l0.4,3.5c-2.6,0.8-5.3,1.7-7.1,2.2c0,0.3-0.2,0.5-0.5,0.5l-1.5-4.3
	c0.8-0.1,1.6-0.3,2.6-0.5v-6.8h-2.2v-3.7h2.2v-6.1l4.6,0.2c0,0.3-0.2,0.5-0.8,0.6v5.3h1.4l-0.2-0.3c1.6-0.9,3.2-2.6,4-4.5l3.6,1.3
	L40.2,17.1L40.2,17.1z M35.8,42V31.7h11.8v10.2h-3.9v-0.7h-4.2V42H35.8z M39.6,25.1c0.2,0.5,0.5,1.2,0.6,1.7v-2.1h-2.6v0.9
	L39.6,25.1L39.6,25.1z M38.2,28.1c-0.1-0.6-0.3-1.4-0.6-2.1v2.4h2.6v-0.9L38.2,28.1L38.2,28.1z M40.2,20v-0.2c-0.1,0-0.2,0-0.3,0
	c-0.4,0.8-0.9,1.5-1.4,2.2h6.3c-0.5-0.7-1-1.3-1.4-2H40.2L40.2,20z M43.7,34.5h-4.2v0.7h4.2V34.5z M39.5,38.4h4.2v-0.7h-4.2V38.4z
	 M45.6,25.6v-0.9h-2.6v2.3c0.2-0.7,0.5-1.5,0.6-2L45.6,25.6z M42.9,28.3h2.6v-1.9c-0.2,0.5-0.6,1.2-0.9,1.6
	c-0.6-0.2-1.2-0.4-1.8-0.6V28.3z"/>
<path class="st2" d="M77.7,38.3v3.3H59.4v-3.3h2.2V23.4h4.7c0.1-0.5,0.2-1,0.2-1.5h-5.9v-3.2c-0.6,1.5-1.3,3.1-2.1,4.7v18.5h-3.6
	V29.1c-0.3,0.5-0.7,0.9-1,1.3c-0.3-1-1.4-3.1-2-4.1c2.2-2.4,4.3-6.1,5.6-9.8l3.6,1.2c-0.1,0.3-0.2,0.7-0.4,1h6.3
	c0.1-0.8,0.1-1.5,0.2-2.2l4.1,0.1c-0.1,0.7-0.2,1.4-0.3,2.1h6.4v3.3h-7.1c-0.1,0.5-0.2,1-0.3,1.5h6v14.9L77.7,38.3L77.7,38.3z
	 M65.1,26.2v1h7.2v-1H65.1z M72.3,29.9h-7.2v1h7.2V29.9z M65.1,33.5v1.1h7.2v-1.1H65.1z M65.1,38.3h7.2v-1.1h-7.2V38.3z"/>
<path class="st2" d="M104.7,37.2h-3.3c1.3,0.9,2.7,2.1,3.6,2.9l-2.9,1.8c-0.9-1-2.8-2.6-4.3-3.8l1.7-1h-3.9l1.7,1
	c-0.1,0.1-0.2,0.2-0.4,0.2c-0.9,1.2-3.1,2.7-4.9,3.5c-0.6-0.6-1.6-1.6-2.4-2.2c-0.6,2.2-2.7,2.2-4.9,2.2c-0.1-1-0.4-2.5-0.9-3.4
	c0.7,0.1,1.3,0.1,1.7,0.1c0.3,0,0.5-0.1,0.8-0.4c0.3-0.5,0.4-2.6,0.5-8.3h-1.5c-0.4,4.6-1.2,8.9-3.5,12c-0.6-0.9-1.8-2.1-2.7-2.7
	c2.6-3.7,2.8-9.2,2.9-15.3h-2.4v-3.6h3.9v-3.9l4.5,0.2c0,0.3-0.2,0.5-0.8,0.6v3.1h3.5v0.6c0.9-1.3,1.7-3,2.1-4.6l3.9,1
	c-0.1,0.2-0.3,0.3-0.7,0.3c-0.1,0.4-0.3,0.9-0.5,1.3h9.5V22H93.6l-0.2,0.4l3.5,0.2c0,0.3-0.2,0.4-0.8,0.5v1.3h2.7v-2l4.4,0.2
	c0,0.3-0.2,0.5-0.8,0.5v1.3h1.9v3h-1.9v6.7h2.3V37.2L104.7,37.2z M88.3,26.3l1.9,0.1c0,0.3,0,0.7,0,1.1c-0.1,7-0.2,10.5-0.6,12.1
	c1.3-0.6,2.7-1.5,3.7-2.4h-2.9v-3h2.2v-6.7h-1.9v-3h1.9v-1c-0.2,0.3-0.4,0.5-0.7,0.7c-0.3-0.3-0.9-0.8-1.5-1.2v0.9h-4.9l-0.1,2.4
	H88.3L88.3,26.3z M98.9,27.5h-2.7v0.6h2.7V27.5z M98.9,31.1v-0.6h-2.7v0.6H98.9z M96.2,33.5v0.7h2.7v-0.7H96.2z"/>
<path class="st2" d="M116.4,29.8l-1,0.1v8.8c0,2.4-0.8,3.2-4,3.2c-0.1-0.8-0.4-2.1-0.9-2.9c0.4,0,0.8,0.1,1.2,0.1
	c0.8,0,0.9,0,0.9-0.4v-8.4l-2.6,0.3c-0.1,3.6-0.4,8.3-1.9,11.3c-0.5-0.5-1.8-1.2-2.4-1.5c1.3-2.6,1.6-6.3,1.6-9.4l-0.3,0.1
	c-0.1,0.2-0.3,0.4-0.5,0.4l-0.7-3.2l1.5-0.1v-8.2h2.2c0.2-1.2,0.3-2.6,0.4-3.6l4,0.7c-0.1,0.2-0.3,0.3-0.7,0.4
	c-0.2,0.7-0.5,1.7-0.8,2.5h3v7.5l0.9-0.1L116.4,29.8L116.4,29.8z M111.8,23.3c0.4,0.9,0.7,2.1,0.8,3h0l0-3.5h-2.6v1.1L111.8,23.3z
	 M110.1,27.9l2.6-0.2v-1.1l-2,0.7c0-0.8-0.3-1.9-0.6-2.8V27.9z M112.6,31.2c0,0.2-0.2,0.3-0.5,0.3v5.6h-1.7V31L112.6,31.2z
	 M130.1,38.5h1.5v2.9h-15.9v-2.9h1.5v-7h12.9V38.5z M119.2,30.5v0.4h-2.6V17.2h7.7v2.4h-1.8v1.3h1.7v2.7c0.7-1.9,1.1-4.7,1.3-7.3
	l3.7,0.8c-0.1,0.2-0.3,0.4-0.6,0.4c-0.1,0.7-0.2,1.5-0.3,2.2h3.3v2.9h-3.9c-0.3,1.3-0.7,2.5-1.2,3.4c-0.5-0.5-1.5-1-2.3-1.5v2.2
	h-1.7V28h2.2v2.5L119.2,30.5L119.2,30.5z M120,19.6h-0.8v1.3h0.8V19.6z M121.6,23.1h-2.4v1.5h2.4V23.1z M120,28v-1.3h-0.8V28H120z
	 M120.1,34.4v4.2h0.7v-4.2H120.1z M124,34.4h-0.7v4.2h0.7V34.4z M125,29.3v-2.9h6.1v2.9H125z M127.1,34.4h-0.7v4.2h0.7V34.4z"/>
<g>
	<path class="st2" d="M162.8,24.3h13.3v14h-2.2v-0.6h-9v0.6h-2.1V24.3z M164.9,35.7h9v-9.4h-1.2c0.3,0.2,0.7,0.5,0.9,0.7l-0.6,0.6
		h0.5v1.5h-2.5c0,0.5,0.1,1,0.2,1.5c0.1-0.4,0.3-0.8,0.4-1.2l1.9,0.5c0,0.1-0.2,0.2-0.4,0.2c-0.3,1.1-0.8,2.1-1.4,3
		c0.1,0.3,0.3,0.5,0.4,0.5c0.1,0,0.2-0.6,0.3-1.3c0.3,0.3,1,0.9,1.3,1.1c-0.2,1.5-0.8,2.2-1.6,2.2c-0.4,0-1.2-0.2-1.7-1
		c-0.4,0.4-0.9,0.8-1.5,1.1c-0.2-0.3-0.7-0.9-1-1.2c-0.9,0.1-1.6,0.3-2.2,0.3c0,0.1-0.1,0.2-0.2,0.2l-0.5-1.8
		c1.1-0.1,2.6-0.2,4.2-0.4v0.6c0.2-0.2,0.4-0.4,0.6-0.6c-0.3-1-0.5-2.3-0.6-3.7h-4v-1.5h3.9c0-0.4,0-0.7-0.1-1.1l2.3,0.1
		c0,0.1-0.1,0.3-0.4,0.3c0,0.2,0,0.5,0,0.7h1.1c-0.3-0.2-0.6-0.4-0.8-0.6l0.7-0.7h-7.1L164.9,35.7L164.9,35.7z M169,29.6v2.9h-3.4
		v-2.9H169z M167.6,31.4v-0.7h-0.6v0.7H167.6z"/>
	<path class="st2" d="M188.1,29.6c0.2,0.5,0.4,1,0.6,1.5c0.7-0.5,1.3-1,1.8-1.5l1.9,1.8c-0.1,0.1-0.2,0.1-0.4,0.1
		c-0.1,0-0.1,0-0.2,0c-0.5,0.4-1.4,0.9-2.1,1.3c0.8,1,1.9,1.8,3.2,2.3c-0.5,0.5-1.2,1.3-1.5,2c-2.8-1.3-4.3-3.8-5.3-7
		c-0.3,0.2-0.7,0.5-1.2,0.7c1.9,1.4,2.6,3.1,2.6,4.5c0,2-1.3,3.1-3,3.1c-0.4,0-0.8,0-1.2,0c0-0.6-0.2-1.4-0.5-2
		c-1.1,0.6-2.2,1.1-3.3,1.5c-0.3-0.6-0.7-1.4-1.2-1.8c2.1-0.5,4.6-1.7,6.1-2.8l-0.1-0.2c-1.3,0.8-3,1.6-4.4,2.1
		c-0.2-0.5-0.7-1.2-1.1-1.7c1.4-0.3,3.1-0.9,4.2-1.6l-0.2-0.2c-1,0.4-2,0.7-3,0.9c-0.2-0.4-0.7-1.3-1-1.6c1.5-0.3,3-0.7,4.3-1.3
		h-1.8v-1.9h7.9v1.9H188.1z M181.3,27.1v1.7h-2.2v-3.7h5.4v-1.4l2.8,0.1c0,0.2-0.1,0.3-0.5,0.3v0.9h5.5v3.7H190v-1.7L181.3,27.1
		L181.3,27.1z M185.5,34.8c-0.7,0.5-1.4,0.9-2.2,1.4c0.4,0,0.7,0,1.1,0c0.3,0,0.6,0,0.8-0.3C185.4,35.8,185.5,35.4,185.5,34.8z"/>
	<path class="st2" d="M201.9,25.2v2.2H198l-0.2,1.8c0.2,0,0.3,0,0.5,0c1.8,0,3.9,1,3.9,3.7c0,2.2-1.7,4.1-4.6,4.1
		c-1.2,0-2.2-0.3-2.8-0.6l0.5-2c0.5,0.2,1.3,0.5,2.1,0.5c1.1,0,2.1-0.6,2.1-1.8c0-1.3-1-2-2.9-2c-0.5,0-0.8,0-1.2,0.1l0.7-6H201.9
		L201.9,25.2z"/>
	<path class="st2" d="M204.5,31c0-3.3,1.2-6,4-6c3,0,3.9,3,3.9,5.9c0,3.8-1.5,6-3.9,6C205.5,37,204.5,33.9,204.5,31z M209.7,31
		c0-2.5-0.4-3.8-1.2-3.8c-0.8,0-1.3,1.2-1.3,3.8s0.4,3.8,1.3,3.8C209.1,34.8,209.7,34.1,209.7,31z"/>
	<path class="st2" d="M214.3,31c0-3.3,1.2-6,4-6c3,0,3.9,3,3.9,5.9c0,3.8-1.5,6-3.9,6C215.3,37,214.3,33.9,214.3,31L214.3,31z
		 M219.5,31c0-2.5-0.4-3.8-1.2-3.8c-0.8,0-1.3,1.2-1.3,3.8s0.4,3.8,1.3,3.8C219,34.8,219.5,34.1,219.5,31z"/>
	<path class="st2" d="M224.1,31c0-3.3,1.2-6,4-6c3,0,3.9,3,3.9,5.9c0,3.8-1.5,6-3.9,6C225.1,37,224.2,33.9,224.1,31L224.1,31z
		 M229.4,31c0-2.5-0.4-3.8-1.2-3.8c-0.8,0-1.3,1.2-1.3,3.8s0.4,3.8,1.3,3.8C228.8,34.8,229.4,34.1,229.4,31z"/>
	<path class="st2" d="M239.1,24.6c-0.1,0.1-0.2,0.2-0.5,0.2c-0.3,0.9-0.7,1.8-1.2,2.7l0.6,0.2c0,0.1-0.2,0.3-0.5,0.3v10.4h-2.2v-7.4
		c-0.3,0.5-0.6,0.9-1,1.3c-0.2-0.5-0.7-1.7-1-2.3c1.2-1.4,2.4-3.8,3.2-6.2L239.1,24.6L239.1,24.6z M246.8,34.3
		c0.7,0.8,1.5,1.8,1.9,2.6l-1.8,1c-0.1-0.4-0.4-0.8-0.7-1.3c-0.2,1.2-0.8,1.6-1.9,1.6h-1.5c-2.1,0-2.1-0.8-2.1-2.5
		c-0.3,0.8-0.7,1.6-1.3,2.2l-1.6-1.1c0.6-0.6,1.1-1.4,1.4-2.3l1.5,0.6v-0.6l1.8,0.1c-0.2-0.2-0.4-0.3-0.6-0.5l0.2-0.2h-2.9v-4.6h8.1
		v4.6h-3.1c0.3,0.2,0.5,0.5,0.7,0.7l-1.4,1.1c-0.2-0.3-0.5-0.6-0.8-0.9c0,0-0.1,0-0.2,0v1.1c0,0.4,0.1,0.4,0.4,0.4h0.9
		c0.3,0,0.4-0.1,0.4-0.9c0.3,0.2,0.8,0.4,1.3,0.6c-0.2-0.3-0.5-0.6-0.7-0.9L246.8,34.3L246.8,34.3z M238.8,24.8h3.4v-1l2.7,0.1
		c0,0.2-0.1,0.3-0.5,0.3v0.6h3.6v1.6h-1l0.1,0c-0.1,0.1-0.2,0.2-0.4,0.2l-0.3,0.6h2v1.7h-10.1v-1.7h2.1c-0.1-0.3-0.2-0.6-0.3-0.8
		h-1.2L238.8,24.8L238.8,24.8z M241.4,30.7v0.4h3.8v-0.4H241.4z M241.4,32.2v0.5h3.8v-0.5H241.4z M242.1,26.4
		c0.1,0.3,0.2,0.5,0.3,0.8h1.9c0.1-0.2,0.2-0.5,0.3-0.8H242.1z"/>
	<path class="st2" d="M250.3,28.4h14.1v1.5h-14.1V28.4z M258.4,35.9v0.4h6v1.6h-14.1v-1.6h5.9v-0.4h-4.5v-1.4h4.5v-0.3h-4.1v-4h10.3
		v4h-4.1v0.3h4.5v1.4H258.4L258.4,35.9z M262.3,24.2V28h-9.8v-3.8H262.3z M254.2,31.4v0.3h2v-0.3H254.2z M254.2,33.1h2v-0.3h-2V33.1
		z M260,25.6v-0.3h-5.4v0.3H260z M260,26.9v-0.3h-5.4v0.3H260z M260.3,31.7v-0.3h-1.9v0.3H260.3z M260.3,33.1v-0.3h-1.9v0.3H260.3z"
		/>
	<path class="st2" d="M276.7,30.7c-1.9,0-2.4-0.6-2.5-2.2l-2,0.8c0-0.2-0.1-0.5-0.2-0.7c-1.9,0.2-3.7,0.3-5,0.4
		c0,0.1-0.2,0.2-0.3,0.3l-0.6-2.4c0.4,0,0.8,0,1.2,0c0.4-1,0.9-2.2,1.1-3.2l2.5,0.7c-0.1,0.1-0.2,0.2-0.5,0.2
		c-0.2,0.7-0.6,1.5-0.9,2.3l1.6,0c-0.2-0.4-0.4-0.8-0.6-1.1l1.9-0.8c0.7,1,1.4,2.2,1.7,3.2v-4.3l2.7,0.1c0,0.2-0.1,0.3-0.5,0.3v1.5
		c0.9-0.4,1.7-0.8,2.3-1.2l1.5,1.7c0,0-0.2,0.1-0.4,0.1c-0.9,0.5-2.2,0.9-3.4,1.3v0.6c0,0.6,0.1,0.6,0.6,0.6h1.3
		c0.4,0,0.5-0.2,0.6-1.5c0.5,0.3,1.4,0.7,2,0.8c-0.2,2.1-0.8,2.6-2.3,2.6L276.7,30.7L276.7,30.7z M273.2,29.5v6.6
		c0,1.5-0.5,2.1-2.9,2.1c-0.1-0.6-0.4-1.4-0.7-2c0.2,0,0.6,0,0.8,0c0.6,0,0.6,0,0.6-0.2v-0.4h-1.7v2.6h-2.1v-8.7L273.2,29.5
		L273.2,29.5z M271,31.3h-1.7v0.5h1.7V31.3z M269.3,34h1.7v-0.6h-1.7V34z M276.5,35.6c0,0.6,0.1,0.6,0.6,0.6h1.3
		c0.5,0,0.6-0.3,0.6-1.7c0.5,0.3,1.3,0.7,1.9,0.8c-0.2,2.2-0.8,2.9-2.4,2.9h-1.9c-2,0-2.5-0.6-2.5-2.6v-4.6l2.7,0.1
		c0,0.2-0.1,0.3-0.5,0.3v1.4c0.9-0.4,1.8-0.9,2.4-1.3l1.5,1.7c-0.1,0.1-0.3,0.1-0.4,0.1c-0.9,0.5-2.2,1-3.5,1.4V35.6L276.5,35.6z"/>
	<path class="st2" d="M291,24.2h3.4c0.5,1.2,1.6,2.3,3,2.9c-0.4,0.5-1,1.5-1.2,2.2l-0.2-0.2v3h-8v-3l-0.3,0.2
		c-0.1-0.3-0.3-0.8-0.5-1.3v1.5H286v3.4l1.3-0.3l0.2,2c-1.5,0.5-3,0.9-4,1.2c0,0.2-0.1,0.3-0.3,0.3l-0.8-2.5
		c0.4-0.1,0.9-0.2,1.5-0.3v-3.9h-1.2v-2.1h1.2v-3.5l2.6,0.1c0,0.2-0.1,0.3-0.5,0.3v3h0.8l-0.1-0.2c0.9-0.5,1.8-1.5,2.2-2.5l2,0.7
		V24.2L291,24.2z M288.5,38.3v-5.8h6.7v5.8H293v-0.4h-2.4v0.5L288.5,38.3L288.5,38.3z M290.7,28.7c0.1,0.3,0.3,0.7,0.3,1v-1.2h-1.5
		V29L290.7,28.7z M289.9,30.4c-0.1-0.3-0.2-0.8-0.3-1.2v1.4h1.5V30L289.9,30.4z M291,25.8v-0.1c0,0-0.1,0-0.2,0
		c-0.2,0.4-0.5,0.9-0.8,1.3h3.6c-0.3-0.4-0.6-0.8-0.8-1.2H291L291,25.8z M293,34.1h-2.4v0.4h2.4V34.1z M290.6,36.2h2.4v-0.4h-2.4
		V36.2z M294.1,29v-0.5h-1.5v1.3c0.1-0.4,0.3-0.8,0.3-1.2L294.1,29L294.1,29z M292.6,30.5h1.5v-1.1c-0.1,0.3-0.3,0.7-0.5,0.9
		c-0.3-0.1-0.7-0.2-1-0.3V30.5L292.6,30.5z"/>
	<path class="st2" d="M303.7,24.4c-0.4,1.1-0.9,2.2-1.5,3.3v10.4h-1.7v-7.6c-0.3,0.3-0.6,0.7-0.8,1c-0.1-0.4-0.6-1.4-0.9-1.9
		c1.3-1.4,2.6-3.6,3.3-5.7L303.7,24.4L303.7,24.4z M313.1,36.3v1.5h-10.3v-1.5h1.3v-8.5h2.7c0.1-0.3,0.1-0.7,0.2-1h-3.5v-1.6h3.7
		c0-0.5,0.1-0.9,0.1-1.4l1.9,0.1c-0.1,0.4-0.1,0.9-0.2,1.3h3.8v1.6h-4.1c-0.1,0.4-0.2,0.7-0.3,1h3.5v8.5H313.1L313.1,36.3z
		 M305.8,29.2V30h4.5v-0.8H305.8z M310.3,31.3h-4.5v0.8h4.5V31.3z M305.8,33.3v0.9h4.5v-0.9H305.8z M305.8,36.3h4.5v-0.9h-4.5V36.3z
		"/>
	<path class="st2" d="M320,33.4v2.1c1,0.3,2,0.3,4.6,0.3c1.7,0,3.9,0,5.1-0.1c-0.3,0.5-0.7,1.5-0.8,2.2h-6c-2.7,0-4.5-0.3-5.7-1.9
		c-0.2,1-0.4,1.8-0.6,2.5c-0.4-0.3-1.2-0.7-1.7-0.9c0.6-1.5,0.8-4.2,0.8-6.8l2.3,0.3c0,0.2-0.2,0.2-0.4,0.3l0,1.3
		c0.1,0.5,0.3,0.8,0.5,1.2v-3.8h-2.9v-2h2.8V27h-2.4v-1.9h2.4v-1.4l2.5,0.1c0,0.2-0.1,0.3-0.5,0.3v1h1.9V27H320v1.1h2.3v2H320v1.4h2
		v1.9L320,33.4L320,33.4z M326.4,28.2v-2.1h-4.1v-2h6.2v6.4h-2.1v-0.5h-1.5v2.4c0,0.6,0.1,0.6,0.6,0.6h1.4c0.5,0,0.6-0.3,0.6-1.9
		c0.5,0.3,1.4,0.7,1.9,0.8c-0.2,2.4-0.8,3-2.4,3h-1.9c-1.9,0-2.4-0.6-2.4-2.6v-4.3L326.4,28.2L326.4,28.2z"/>
	<path class="st2" d="M332.4,27.9c0.8,0.3,1.9,0.8,2.4,1.3l-1.3,1.8c-0.5-0.5-1.5-1.1-2.3-1.5L332.4,27.9z M331.4,37
		c0.6-1.2,1.3-3.1,1.9-5l1.8,1.2c-0.5,1.6-1.1,3.3-1.6,4.5c0.1,0.1,0.1,0.2,0.1,0.3c0,0.1,0,0.2-0.1,0.2L331.4,37L331.4,37z
		 M338.1,30.8l1.1,0.1c0,0.1,0,0.4,0,0.6c-0.1,3.9-0.3,5.5-0.7,6c-0.6,0.8-1.3,0.8-2.9,0.8c0-0.6-0.3-1.4-0.6-2
		c0.5,0.1,1,0.1,1.3,0.1c0.2,0,0.3,0,0.5-0.2c0.2-0.3,0.3-1.2,0.4-3.5h-0.6l0,0.3l-1.9-0.2c0.2-1.4,0.5-3.5,0.6-5.2h2.1v-1.5h-2.2
		v-0.6l-1,1.4c-0.5-0.5-1.5-1.1-2.4-1.5l1.2-1.6c0.7,0.3,1.6,0.7,2.2,1.2v-0.8h4.2v5.7h-2v-0.3H337c0,0.4-0.1,0.8-0.1,1.2
		L338.1,30.8L338.1,30.8z M343.9,32.5c0,0.3,0.1,0.5,0.2,0.8c0.2-0.2,0.5-0.4,0.6-0.6l1.4,1.7c0,0-0.1,0.1-0.2,0.1
		c-0.1,0-0.2,0-0.2,0c-0.2,0.2-0.6,0.4-0.9,0.6c0.3,0.6,0.8,1.2,1.3,1.5c-0.4,0.4-1.1,1.2-1.3,1.7c-0.7-0.5-1.2-1.3-1.6-2.2l0.1,1.1
		c-1.2,0.3-2.4,0.6-3.2,0.8c0,0.2-0.2,0.2-0.3,0.3l-0.7-2.1c0.3,0,0.6-0.1,0.9-0.1v-3.5h-0.5v-1.8h0.6v-6.6h5.5v1.7H342v0.5h3.1v1.6
		H342v0.5h3.1v1.6H342v0.5h3.8v1.8L343.9,32.5L343.9,32.5z M341.8,35.7l1-0.2c-0.3-0.9-0.5-1.9-0.7-3h-0.3V35.7z"/>
</g>
</svg>
