<svg width="468" height="170" viewBox="0 0 468 170" fill="none" xmlns="http://www.w3.org/2000/svg">
<g filter="url(#filter0_d_3_1262)">
<path d="M73.8503 16.43H44.3803C43.8503 18.87 43.1604 21.55 42.3904 24.07H66.2104V74.85H54.3004V70.42H24.2904V74.85H12.9904V24.07H30.5504C31.0104 21.7 31.4703 19.03 31.7703 16.43H4.36035V6.05005H73.8503V16.43ZM54.3004 42.16V34.2901H24.2904V42.16H54.3004ZM24.2904 60.18H54.3004V52.16H24.2904V60.18Z" fill="white"/>
<path d="M105.3 6.66003C104.99 7.35003 104.23 7.73003 103.01 7.58003C101.33 12.09 99.3499 16.59 97.2799 20.94L100.26 21.93C100.03 22.62 99.3399 23.3 97.9699 23.46V75.15H87.1999V38.42C85.5999 40.63 83.9899 42.77 82.3099 44.68C81.3899 42.01 78.8699 35.98 77.4199 33.3C83.4499 26.5 89.6399 14.29 93.2999 2.53003L105.29 6.65003L105.3 6.66003ZM143.48 55.37C147.07 59.26 151.19 64.53 152.8 68.43L144.02 73.39C143.33 71.56 142.11 69.34 140.66 67.05C139.51 73.16 136.92 74.84 131.34 74.84H123.93C113.55 74.84 113.32 70.95 113.32 62.39C111.79 66.28 109.65 70.33 106.75 73.31L98.8899 67.66C101.94 64.91 104.54 60.48 105.91 56.36L113.32 59.49V56.36L122.33 56.9C121.41 56.06 120.42 55.22 119.43 54.53L120.65 53.54H106.45V30.79H146.99V53.54H131.49C132.94 54.76 134.16 56.06 135 57.13L127.98 62.78C127.14 61.48 125.69 59.95 124.09 58.43C123.86 58.43 123.63 58.51 123.33 58.58V64.23C123.33 66.21 123.64 66.37 125.54 66.37H130.2C131.8 66.37 132.18 65.76 132.41 61.71C133.78 62.78 136.61 63.85 138.98 64.53C137.76 62.93 136.54 61.32 135.32 59.87L143.49 55.37H143.48ZM103.93 8.11003H120.73V2.92003L134.17 3.61003C134.09 4.53003 133.41 4.99003 131.88 5.29003V8.12003H149.67V16.13H144.55L145.31 16.36C145 16.97 144.32 17.28 143.17 17.28L141.64 20.03H151.72V28.51H101.17V20.03H111.48C111.02 18.73 110.41 17.28 109.88 16.14H103.92V8.11003H103.93ZM116.91 37.2V39.34H136V37.2H116.91ZM116.91 44.91V47.12H136V44.91H116.91ZM120.12 16.12C120.73 17.42 121.34 18.79 121.8 20.01H131.12C131.65 18.79 132.11 17.41 132.57 16.12H120.12Z" fill="white"/>
<path d="M226.78 40.4801H186.08C180.96 54.9101 173.63 66.9001 163.17 74.8401C161.41 72.6301 157.29 68.5801 154.77 66.5901C163.17 60.8601 169.43 51.7001 173.86 40.4801H156.68V30.0201H177.37C178.21 26.7401 179.05 23.3001 179.66 19.7901H169.81V28.1101H158.97V9.79006H185.69V2.31006L199.43 3.07006C199.35 3.91006 198.74 4.44006 197.14 4.67006V9.79006H224.55V28.1101H213.17V19.7901H185.99L193.24 21.3201C193.01 22.1601 192.25 22.6201 190.95 22.6201C190.42 25.1401 189.81 27.5801 189.19 30.0301H226.76V40.4901L226.78 40.4801ZM211.51 48.1201C217.01 54.3001 224.11 62.9301 227.09 68.8901L217.55 74.9201C217.02 73.7701 216.33 72.4001 215.49 71.0301C202.97 72.0201 190.29 72.8601 181.66 73.3201C181.43 74.0801 180.74 74.4601 180.06 74.5401L175.78 62.4801L183.42 62.2501C186.25 56.0701 188.99 48.0501 190.6 41.5601L203.66 45.0001C203.35 45.7601 202.51 46.1501 201.22 46.2201C199.62 51.1801 197.33 56.9101 194.96 61.8701C199.54 61.7201 204.27 61.5601 209.09 61.3301C207.03 58.5101 204.81 55.7601 202.75 53.3101L211.53 48.1201H211.51Z" fill="white"/>
<path d="M258.46 64.76H268.92C272.74 61.17 273.73 56.51 274.19 51.86L284.57 53.01C284.42 53.62 283.81 54.08 282.74 54.23C281.59 61.03 279.84 69.27 271.29 74.69C270.83 73.85 270.22 72.86 269.53 71.79V72.02H245.55V74.92H236.77V55.07C236.16 55.76 235.62 56.44 235.01 57.06C234.17 55.3 231.96 51.64 230.73 49.96C234.09 46.37 237.3 40.42 239.28 34.31H233.78V18.96H250.27V34.31H245.23L248.97 35.53C248.66 36.06 248.05 36.45 247.06 36.37L246.07 38.97H250.65C251.41 37.06 252.02 35 252.41 33.32V18.96H269.13V34.31H256.15L262.11 35.91C261.88 36.52 261.27 36.83 260.12 36.83L259.05 38.97H269.43V46.15H258.43V48.14H267.74V54.4H258.43V56.46H267.74V62.72H258.43V64.78L258.46 64.76ZM238.38 17.19V14.29H231.74V7.04H238.38V2.38L249.68 2.99C249.6 3.75 248.99 4.21 247.62 4.44V7.04H254.57V2.38L265.87 2.99C265.79 3.75 265.18 4.21 263.81 4.44V7.04H269.92V14.29H263.81V17.19H254.57V14.29H247.62V17.19H238.38ZM240.67 25.21V28.03H243.04V25.21H240.67ZM249.53 48.12V46.13H245.56V48.12H249.53ZM249.53 56.44V54.38H245.56V56.44H249.53ZM245.56 62.7V64.76H249.53V62.7H245.56ZM259.3 25.21V28.03H261.9V25.21H259.3ZM294.65 62.85C294.65 64.99 294.73 65.22 295.26 65.22H295.95C296.71 65.22 297.02 64.23 297.17 56.9C298.85 58.43 302.82 59.88 305.26 60.56C304.5 71.02 302.21 73.85 297.01 73.85H293.5C286.78 73.85 285.41 71.1 285.41 62.93V50.03H271.82V4.9H301.22V50.03H294.65V62.86V62.85ZM281.21 14.29V17.5H291.37V14.29H281.21ZM281.21 25.82V29.03H291.37V25.82H281.21ZM281.21 37.35V40.56H291.37V37.35H281.21Z" fill="white"/>
<path d="M380.63 23.46H350.93C349.71 26.82 348.41 30.1 346.88 33.16H351.84V25.07L364.97 25.76C364.89 26.6 364.28 27.13 362.68 27.36V33.16H378.26V55.46C378.26 63.48 375.74 65.77 365.2 65.77C364.89 63.02 363.83 59.13 362.68 56.45V74.93H351.84V43.09H346.95V65.69H336.64V48.97C335.11 50.73 333.51 52.33 331.75 53.86C330.76 52.1 328.77 49.2 327.02 46.99V75.16H316.25V38.42C314.65 40.63 313.04 42.77 311.36 44.68C310.44 42.01 307.92 35.98 306.47 33.3C312.5 26.5 318.69 14.29 322.35 2.53L334.34 6.65C334.03 7.34 333.27 7.72 332.05 7.57C330.37 12.08 328.38 16.58 326.32 20.93L329.3 21.92C329.07 22.61 328.38 23.29 327.01 23.45V43.15C332.2 38.34 336.33 31.47 339.61 23.45H330.37V13.38H342.97C343.96 9.72 344.88 5.9 345.57 2L358.09 4.75C357.86 5.51 357.1 5.97 355.88 5.97C355.35 8.49 354.73 10.93 354.05 13.38H380.62V23.46H380.63ZM367.65 43.08H362.69V56.14C364.22 56.22 366.05 56.22 366.74 56.22C367.43 56.14 367.66 55.99 367.66 55.3V43.08H367.65Z" fill="white"/>
<path d="M448.04 32.77L454.22 33.23C454.14 34.07 454.14 35.44 453.99 36.51C453.3 58.8 452.54 67.59 450.33 70.56C447.81 74 444.99 75.06 434.91 74.84C434.83 72.93 434.3 70.41 433.54 68.2H415.52V72.93H405.36V46.05H436.21V64.76C439.19 64.76 439.57 64.76 440.49 63.54C441.64 62.09 442.25 56.51 442.7 42.47H402.69C401.39 53.31 398.49 64.84 392.69 72.94C390.86 70.88 386.2 67.14 383.76 65.92C392.08 54.24 392.69 36.75 392.69 24.69V5.67004H448.35V28.95H403.61C403.61 30.17 403.53 31.47 403.46 32.84H445.61L448.05 32.76L448.04 32.77ZM437.2 14.9H403.68V19.71H437.2V14.9ZM425.9 59.57V54.68H415.52V59.57H425.9Z" fill="white"/>
<path d="M28.2701 134.68L29.1901 144.22C20.6401 146.21 11.7001 148.11 5.90012 149.34C5.75012 150.1 5.06012 150.64 4.37012 150.71L1.62012 139.18C4.06012 138.88 6.89012 138.42 9.94012 137.88V124.44H3.60012V114.28H9.94012V102.83H3.07012V92.6H27.1201V102.83H20.3201V114.28H26.6601V124.44H20.3201V136.12L28.2601 134.67L28.2701 134.68ZM69.5001 142.62H56.6001V150.87C56.6001 158.28 54.2301 159.96 42.0201 159.96C41.5601 157.52 40.5701 154.31 39.5001 151.87C36.5201 154.7 32.9301 157.44 29.5001 159.43C27.8201 157.52 24.4601 154.39 22.4001 152.79C26.9801 150.58 31.7201 146.83 34.3101 143.32L45.2301 147.37C44.9201 147.98 44.1601 148.29 43.1701 148.13C42.2501 149.2 41.1801 150.27 40.0401 151.41C41.9501 151.49 44.1601 151.49 44.8501 151.49C45.6901 151.41 46.0001 151.26 46.0001 150.5V142.63H33.1701V125.68H69.5201V142.63L69.5001 142.62ZM74.1601 114.9V123.6H28.0401V114.9H45.2201V111.92H32.1601V89.78H70.4101V111.92H58.7301C58.5001 112.53 57.8101 112.91 56.5201 113.14V114.9H74.1601ZM42.0901 96.12V97.88H59.9601V96.12H42.0901ZM42.0901 103.83V105.59H59.9601V103.83H42.0901ZM43.3101 132.62V135.67H58.7301V132.62H43.3101ZM67.2901 159.04C65.3801 156.06 60.8001 151.33 57.0601 148.12L65.4601 143.54C69.1301 146.44 73.9401 150.87 76.3001 154L67.2901 159.04Z" fill="white"/>
<path d="M144.78 91.31L151.88 93.91C151.8 94.44 151.57 94.98 151.12 95.36C149.06 101.93 146.54 109.72 143.48 117.81C149.66 125.52 151.57 130.71 151.57 135.37C151.57 150.87 141.11 150.87 134.47 150.64C134.39 147.74 133.17 143.31 131.49 140.33V159.95H120.57V98.41C118.89 102.46 116.98 106.35 114.84 110.02H118.58V119.57H108.42C107.2 121.1 105.98 122.55 104.75 123.92H116.43V159.43H105.97V156.83H96.2701V160.11H86.2701V138.73C85.3501 139.26 84.4401 139.8 83.4401 140.26C82.2901 137.89 79.6201 133.46 77.8701 131.33C80.7701 130.03 83.6001 128.43 86.2701 126.67V123.92H90.0101C91.7701 122.55 93.3701 121.1 94.9701 119.57H79.7001V110.02H91.9901V104.22H82.6701V94.75H91.9901V87.8L104.44 88.49C104.36 89.25 103.75 89.79 102.23 90.02V94.75H108.8V100.17C110.02 97.65 111.09 95.05 112.01 92.38L120.56 95.13V91.69H142.47L144.76 91.31H144.78ZM105.99 136.05V132.61H96.2901V136.05H105.99ZM96.2901 148.04H105.99V144.3H96.2901V148.04ZM102.25 110.01H103.09C104.39 108.18 105.61 106.19 106.68 104.21H102.25V110.01ZM131.49 102.07V139.94C133.32 140.09 134.93 140.09 135.99 140.09C139.81 140.09 140.57 138.33 140.57 134.82C140.57 131.08 138.51 126.95 132.25 119.7C134.24 113.29 135.91 107.41 137.29 102.06H131.49V102.07Z" fill="white"/>
<path d="M227.93 146.67H218.61C222.2 149.34 226.4 152.55 228.69 154.92L220.52 160.04C218 157.21 212.5 152.56 208.38 149.43L213.04 146.68H202.04L206.77 149.43C206.54 149.74 206.08 149.96 205.55 150.04C202.88 153.32 196.85 157.83 191.73 160.04C190.13 158.28 187.23 155.61 185.01 153.93C183.33 160.12 177.37 160.12 171.11 160.12C170.96 157.14 169.96 153.02 168.51 150.35C170.42 150.58 172.1 150.58 173.17 150.58C174.09 150.58 174.7 150.35 175.31 149.36C176.15 147.91 176.46 142.03 176.68 125.84H172.56C171.49 138.74 169.05 150.96 162.63 159.97C160.87 157.3 157.59 153.94 154.84 152.18C162.25 141.8 162.7 125.99 162.93 108.96H156.06V98.7301H166.98V87.5801L179.81 88.2701C179.73 89.1101 179.12 89.5701 177.6 89.8701V98.7301H187.37V100.56C190.04 96.8201 192.1 92.0801 193.17 87.4301L204.24 90.2601C204.01 90.8701 203.4 91.2501 202.33 91.1801C201.95 92.4001 201.49 93.7001 201.03 94.9201H227.91V103.78H196.53L195.84 104.85L205.77 105.38C205.69 106.14 205.08 106.6 203.63 106.91V110.5H211.27V104.7L223.64 105.39C223.56 106.15 222.95 106.69 221.43 106.92V110.51H226.93V119.14H221.43V138.08H227.92V146.71L227.93 146.67ZM181.35 115.82L186.77 115.97C186.77 116.81 186.77 118.03 186.69 119.18C186.46 139.11 186.23 148.96 185.09 153.54C188.83 151.94 192.8 149.26 195.63 146.67H187.31V138.04H193.65V119.1H188.38V110.47H193.65V107.64C193.04 108.4 192.35 109.09 191.66 109.7C190.67 108.71 188.99 107.49 187.38 106.34V108.94H173.33L173.1 115.81H181.35V115.82ZM211.28 119.1H203.64V120.86H211.28V119.1ZM211.28 129.41V127.58H203.64V129.41H211.28ZM203.64 136.13V138.04H211.28V136.13H203.64Z" fill="white"/>
<path d="M261.14 125.75L258.39 126.13V151.1C258.39 158.05 256.1 160.11 247.09 160.11C246.86 157.82 245.79 154.15 244.65 151.94C245.8 152.02 247.02 152.09 247.93 152.09C250.14 152.09 250.37 152.09 250.37 150.94V127.27L243.12 128.26C242.97 138.57 241.98 151.7 237.62 160.18C236.17 158.88 232.66 156.74 230.75 155.98C234.42 148.57 235.18 138.19 235.33 129.26L234.41 129.41C234.26 130.1 233.57 130.48 232.96 130.56L231.05 121.4L235.33 121.02V97.65H241.67C242.2 94.37 242.66 90.4 242.82 87.42L254.2 89.41C253.97 90.02 253.28 90.4 252.14 90.48C251.53 92.54 250.69 95.21 249.85 97.66H258.4V118.81L260.92 118.58L261.15 125.76L261.14 125.75ZM248.01 107.42C249.16 110.02 250.07 113.38 250.38 115.9H250.46L250.38 105.9H243.13V109.03L248.02 107.43L248.01 107.42ZM243.12 120.32L250.37 119.63V116.58L244.72 118.49C244.64 116.35 243.96 113.22 243.12 110.47V120.32ZM250.3 129.56C250.22 130.1 249.77 130.48 248.85 130.55V146.43H244.19V129.17L250.3 129.55V129.56ZM300.01 150.48H304.29V158.73H259.24V150.48H263.52V130.55H300.02V150.48H300.01ZM269.16 127.73V128.8H261.75V90.01H283.43V96.88H278.24V100.47H283.13V108.26C285.19 102.99 286.26 95.05 286.8 87.57L297.34 89.71C297.11 90.32 296.5 90.78 295.51 90.78C295.28 92.84 295.05 94.9 294.67 97.04H303.99V105.29H293.07C292.15 108.96 291.01 112.31 289.56 114.99C288.03 113.69 285.28 112.01 283.15 110.79V117.13H278.26V120.72H284.44V127.74H269.17L269.16 127.73ZM271.37 96.88H269.16V100.47H271.37V96.88ZM275.87 106.73H269.15V110.85H275.87V106.73ZM271.37 120.7V117.11H269.16V120.7H271.37ZM271.68 138.72V150.48H273.66V138.72H271.68ZM282.52 138.72H280.53V150.48H282.52V138.72ZM285.5 124.14V115.89H302.76V124.14H285.5ZM291.38 138.72H289.39V150.48H291.38V138.72Z" fill="white"/>
<path d="M328.02 117.05V141.02C332.3 148.12 340.62 148.12 353.75 148.12C362.76 148.12 373.53 147.82 381.24 147.13C380.02 149.8 378.26 155.15 377.73 158.43C372 158.73 364.29 158.96 356.96 158.96C338.02 158.96 330.08 158.58 323.13 150.49C320 153.24 316.79 155.99 314.04 158.12C314.04 159.11 313.73 159.57 312.82 159.88L307.32 147.66C310.45 145.9 313.96 143.77 317.17 141.48V127.28H309.31V117.05H328.02ZM317.25 89.26C321.6 92.39 327.18 97.05 329.77 100.64L320.91 107.97C318.7 104.46 313.35 99.34 309 95.91L317.25 89.27V89.26ZM330 110.56H337.48C335.04 109.18 331.68 107.73 329.31 106.74C333.05 102.39 336.03 94.91 337.56 88.11L349.32 91.09V87.5L362.61 88.19C362.53 89.03 361.85 89.56 360.32 89.87V95.6H376.13V104.92H360.32V110.57H379.48V119.81H330V110.57V110.56ZM374.36 146.45H363.44V144.69H346.34V146.67H335.96V122.16H374.37V146.44L374.36 146.45ZM349.32 110.56V104.91H342.52C341.53 106.97 340.38 108.88 339.16 110.56H349.32ZM346.34 135.45H363.44V130.79H346.34V135.45ZM349.32 95.59V91.47C349.01 91.93 348.4 92.16 347.49 92.16C347.18 93.31 346.8 94.45 346.42 95.6H349.32V95.59Z" fill="white"/>
<path d="M457.13 145.53H448.35C452.17 148.43 455.99 151.87 458.28 154.39L448.81 160.27C446.29 156.99 440.87 151.87 436.44 148.28L441.94 145.53H428.2L435 148.2C434.62 148.96 433.7 149.12 432.86 148.96C428.89 152.93 422.7 157.28 416.83 160.11C415.3 158.2 412.4 154.92 410.34 153.01C402.25 154.39 394.46 155.68 389.04 156.45C388.89 157.21 388.2 157.67 387.51 157.83L384.53 146.53C387.66 146.23 391.48 145.77 395.68 145.31V143.17L388.88 145.31C388.5 141.8 387.28 136.53 386.05 132.48L393.15 130.49C394.14 133.32 395.06 136.67 395.67 139.58V129.65H386.05V120.34H395.67V116.14H389.87V113.62C388.11 111.41 385.37 108.73 383.46 107.43C389.34 101.4 393.77 93.69 396.29 87.5L408.2 89.56C407.97 90.32 407.36 90.78 406.21 90.86L406.06 91.09C409.27 93.23 412.86 95.82 415.6 98.19V93.46H430.41V87.5L443.24 88.19C443.16 89.03 442.55 89.49 441.03 89.79V93.46H456.22V102.16H441.03V104.3H452.64V134.54H419.73V104.3H430.42V102.16H417.75L412.63 110.1L412.25 109.64V116.13H405.45V120.33H414.61V129.64H405.45V140.41C406.29 137.36 407.28 133.23 407.66 130.25L416.98 133.08C416.67 133.61 415.99 133.92 414.92 133.92C414.23 136.67 412.93 140.64 411.71 143.31L414.84 142.93V136.36H457.14V145.52L457.13 145.53ZM409.71 106.97C407.34 104.68 404.29 102.16 401.39 100.02C400.09 102.31 398.64 104.6 396.96 106.97H409.71ZM405.43 141.56V144.16L410.7 143.47L405.43 141.56ZM415.74 145.53L415.97 149.73C418.18 148.43 420.25 146.98 421.93 145.53H415.75H415.74ZM442.08 112.47V110.71H429.71V112.47H442.08ZM442.08 120.26V118.5H429.71V120.26H442.08ZM442.08 128.12V126.29H429.71V128.12H442.08Z" fill="white"/>
</g>
<defs>
<filter id="filter0_d_3_1262" x="0.040117" y="0.42" width="467.18" height="168.79" filterUnits="userSpaceOnUse" color-interpolation-filters="sRGB">
<feFlood flood-opacity="0" result="BackgroundImageFix"/>
<feColorMatrix in="SourceAlpha" type="matrix" values="0 0 0 0 0 0 0 0 0 0 0 0 0 0 0 0 0 0 127 0" result="hardAlpha"/>
<feOffset dx="3.68" dy="3.68"/>
<feGaussianBlur stdDeviation="2.63"/>
<feColorMatrix type="matrix" values="0 0 0 0 0.101961 0 0 0 0 0.12549 0 0 0 0 0.219608 0 0 0 0.34 0"/>
<feBlend mode="normal" in2="BackgroundImageFix" result="effect1_dropShadow_3_1262"/>
<feBlend mode="normal" in="SourceGraphic" in2="effect1_dropShadow_3_1262" result="shape"/>
</filter>
</defs>
</svg>
