<svg width="579" height="255" viewBox="0 0 579 255" fill="none" xmlns="http://www.w3.org/2000/svg">
<path d="M20.1605 52.5499C19.9405 52.9399 19.4705 53.1999 18.7805 53.1099C16.1105 59.0499 11.9705 65.3399 7.62047 69.3499C6.28047 68.0599 3.61047 65.9499 1.98047 64.9099C6.12047 61.5899 10.0805 55.5599 12.1505 49.9199L20.1605 52.5499ZM25.1605 67.1499C24.9405 67.6199 24.3805 67.8799 23.5705 67.9699C21.9305 72.3599 19.3905 77.3999 16.8905 81.6699C20.9805 81.5399 25.3805 81.3699 29.7305 81.1999C28.2705 78.8299 26.7105 76.4599 25.2505 74.4399L31.3705 71.6399C35.0705 76.3799 38.9505 82.5399 40.9805 86.7999L34.4305 90.2499C34.0405 89.2599 33.5305 88.1799 32.9205 86.9799C23.2705 87.6699 13.4905 88.2299 6.82047 88.5299C6.69047 88.9999 6.26047 89.2599 5.87047 89.2599L3.37047 82.0199L9.70047 81.8899C12.5005 76.8899 15.2605 70.2999 16.8505 64.9199L25.1605 67.1599V67.1499ZM30.6305 50.0499C32.9605 54.7899 37.6105 60.3899 41.5305 64.0499C39.8505 65.3399 37.4405 67.8399 36.2305 69.5599C32.1405 65.0399 27.4405 58.5299 24.3005 52.5899L30.6305 50.0499Z" fill="#FFFF00"/>
<path d="M64.0102 56.2502V61.1202H46.7402V56.2502H64.0102ZM82.3202 67.4503L86.2802 68.9602C86.1902 69.3002 85.9802 69.4802 85.7602 69.7402C84.5102 74.4402 82.4902 78.2702 79.7302 81.4102C82.1402 82.7902 84.9402 83.8703 88.0002 84.6003C86.6202 85.8503 84.8102 88.3903 83.9502 89.9803C80.5502 88.9503 77.5302 87.4802 74.9002 85.5902C72.1902 87.4402 69.0402 88.9103 65.4702 89.9803C64.8702 88.4703 63.4902 86.1003 62.3702 84.7303V87.8702H53.9302V89.3802H48.6702V74.4302H62.3702V84.4203C65.2602 83.7303 67.8802 82.7003 70.1702 81.3203C68.4902 79.4203 67.0702 77.3102 65.8202 74.9402L71.2002 73.2202H64.5702V67.6202H66.3402C65.3502 66.5402 63.5802 65.0803 62.4202 64.3503V67.0602H48.8502V62.4102H62.4202V63.9602C65.9102 61.4602 66.2502 58.1903 66.2502 55.3903V50.2603H81.3302V59.4402C81.3302 60.7302 81.3702 60.8602 81.7202 60.8602H82.1902C82.6202 60.8602 82.7902 60.3002 82.8802 56.7702C83.9602 57.6702 86.3702 58.5802 87.9202 58.9702C87.4002 64.5302 85.9802 66.1202 82.8402 66.1202H80.5602C76.6402 66.1202 75.4802 64.5302 75.4802 59.5302V55.7802H72.1602C72.1202 59.7902 71.3002 64.5702 67.5102 67.6302H81.2502L82.3302 67.4602L82.3202 67.4503ZM62.4202 68.3503V73.0002H48.8502V68.3503H62.4202ZM62.3802 50.3503V55.0002H48.9802V50.3503H62.3802ZM57.0402 82.9602V79.3002H53.9402V82.9602H57.0402ZM71.3802 73.2303C72.2402 74.8203 73.4002 76.3303 74.7802 77.6703C76.0302 76.3803 77.0602 74.8703 77.9202 73.2303H71.3702H71.3802Z" fill="#FFFF00"/>
<path d="M121.641 68.6101H116.821C116.301 73.4801 115.311 77.5301 113.761 80.8401C117.211 83.7701 121.301 83.7701 125.951 83.7701C128.531 83.7701 132.201 83.7301 133.881 83.6801C133.151 84.9701 132.331 87.5102 132.111 89.0602H123.321C118.281 89.0602 114.141 88.2402 110.911 85.4802C109.451 87.2902 107.681 88.8001 105.571 90.0501C104.841 88.7201 103.501 86.7801 102.431 85.7401C104.451 84.7101 106.091 83.1602 107.431 81.1302C106.311 79.0602 105.321 76.5602 104.541 73.4202L109.151 72.0002C109.411 73.1602 109.751 74.2402 110.101 75.1902C110.661 73.3802 111.051 71.4002 111.351 69.2902H109.891L109.421 70.6201L104.551 69.5901L105.021 72.9102L102.221 73.8601V83.6402C102.221 88.1602 101.061 90.0602 94.3808 90.0602C94.2108 88.4702 93.5608 85.9302 92.8308 84.2502C93.5608 84.2902 94.3408 84.3401 94.9408 84.3401C96.3608 84.3401 96.5308 84.3401 96.5308 83.6101V75.7302L94.3308 76.4202C94.2408 76.8902 93.8608 77.2002 93.4708 77.2802L92.0508 70.5201C93.3008 70.2601 94.8508 69.9202 96.5308 69.5302V62.9402H92.7008V57.2101H96.5308V49.1602L103.421 49.4601C103.381 49.9301 103.081 50.2401 102.211 50.3701V57.2202H104.541V62.9502H102.211V68.2002L104.281 67.6801L104.411 68.6302C105.831 64.9702 107.381 60.6202 108.591 57.0002H104.931V51.4901H111.561L112.681 51.3601L115.781 52.3102C115.691 52.6102 115.561 53.0002 115.441 53.2602C114.491 56.2302 113.071 60.4502 111.561 64.6702H113.281L114.231 64.5801L116.041 64.8802V63.1602H121.641V57.6902C120.221 58.0302 118.801 58.2901 117.421 58.5501C117.161 57.2601 116.341 55.2302 115.611 53.9802C120.261 53.0302 125.171 51.3902 128.191 49.5002L132.971 53.9802C132.751 54.2402 132.321 54.2401 131.811 54.2401C130.781 54.8001 129.571 55.2702 128.281 55.7502L128.671 55.7902C128.631 56.2202 128.281 56.5201 127.461 56.6501V63.1501H132.931V68.6201H127.461V75.4702H132.331V80.8502H117.171V75.4702H121.651V68.6201L121.641 68.6101Z" fill="#FFFF00"/>
<path d="M149.261 83.99C149.261 87.31 146.551 90.02 143.231 90.02C139.911 90.02 137.201 87.31 137.201 83.99C137.201 80.67 139.911 77.96 143.231 77.96C146.551 77.96 149.261 80.76 149.261 83.99ZM147.111 83.99C147.111 81.84 145.391 80.11 143.231 80.11C141.071 80.11 139.351 81.83 139.351 83.99C139.351 86.15 141.071 87.87 143.231 87.87C145.391 87.87 147.111 86.06 147.111 83.99Z" fill="#FFFF00"/>
<path d="M183.29 68.3499C187.48 69.2999 190.97 72.6898 190.97 77.8298C190.97 84.1198 185.93 89.1999 177.15 89.1999C173.16 89.1999 169.57 88.1499 167.67 86.9099L169.32 81.3199C170.72 82.2199 173.76 83.3598 176.65 83.3598C181.19 83.3598 183.43 80.5698 183.43 77.4698C183.43 73.2298 179.74 71.2398 175.7 71.2398H173.16V66.0498H175.55C178.49 66.0498 182.28 64.3999 182.28 60.7599C182.28 58.1199 180.53 56.1699 177.04 56.1699C174.45 56.1699 171.9 57.3198 170.46 58.2198L168.91 52.9298C170.86 51.6298 174.7 50.3398 178.74 50.3398C185.97 50.3398 189.76 54.5799 189.76 59.5699C189.76 63.4599 187.42 66.6998 183.28 68.2498V68.3499H183.29Z" fill="white"/>
<path d="M203.98 50.9399H227.47V55.5299L213.2 88.6499H205.62L219.94 57.1299V57.0299H203.98V50.9399Z" fill="white"/>
<path d="M254.069 72.0598L254.889 76.5398C249.719 78.5198 244.209 80.4997 240.549 81.7997C240.549 82.1897 240.249 82.4898 239.899 82.6198L237.529 77.1898C239.209 76.7198 241.279 76.1098 243.519 75.4198V58.7097H238.649V53.9297H253.549V58.7097H248.729V73.7898L254.069 72.0698V72.0598ZM277.119 81.3597H260.709L264.849 84.1598C264.679 84.3298 264.419 84.4197 264.029 84.4597C261.749 86.3597 257.219 88.6398 253.389 89.8398C252.699 88.8498 251.279 87.2598 250.249 86.3098C253.739 85.2298 258.049 83.1197 260.239 81.3597H255.889V58.3597H262.609C262.829 57.3697 263.039 56.3398 263.209 55.3398H254.119V50.9897H278.759V55.3398H268.809C268.549 56.2498 268.209 57.3197 267.859 58.3597H277.119V81.3597ZM260.709 62.1497V64.9098H272.079V62.1497H260.709ZM260.709 68.4398V71.1998H272.079V68.4398H260.709ZM260.709 74.7298V77.5298H272.079V74.7298H260.709ZM275.399 89.9398C273.629 88.3498 269.839 85.8497 266.999 84.2097L270.829 81.4498C273.589 82.9098 277.459 85.2398 279.489 86.8798L275.399 89.9398Z" fill="white"/>
<path d="M310.031 84.2898H326.831V88.7698H288.191V84.2898H304.641V81.4498H294.221V77.6998C293.491 78.6898 292.761 79.5498 291.981 80.3298C291.081 79.4698 289.221 78.1298 288.061 77.4398C290.641 75.0298 293.141 70.9398 294.651 67.0198H292.931V50.8198H322.011V67.0198H311.201C311.111 67.4098 310.771 67.6698 310.041 67.7998V70.5098H324.081V74.7698H310.041V77.4398H320.851V81.4498H310.041V84.2898H310.031ZM296.251 74.7698C295.691 75.7198 295.041 76.5798 294.441 77.4398H304.651V74.7698H296.251ZM304.651 67.0198H297.461L300.651 68.0098C300.431 68.3998 300.001 68.5298 299.531 68.4798C299.271 69.1298 298.931 69.8098 298.631 70.4998H304.661V67.0098L304.651 67.0198ZM298.021 54.7898V57.0698H316.671V54.7898H298.021ZM298.021 60.7298V63.0598H316.671V60.7298H298.021Z" fill="white"/>
<path d="M373.74 63.0098L376.88 64.3398C376.79 64.6398 376.54 64.8998 376.32 65.0698C375.03 71.3998 372.74 76.7897 369.73 81.0497C371.84 83.0697 374.34 84.6698 377.4 85.7498C376.37 86.6498 374.9 88.6397 374.21 89.9297C371.19 88.6797 368.7 86.9598 366.59 84.8498C364.65 86.8298 362.45 88.4698 360.13 89.7598C359.44 88.6398 357.76 86.7398 356.68 85.9698C359.22 84.7198 361.5 83.0398 363.53 80.9698C361.94 78.5098 360.64 75.7197 359.65 72.6097C358.7 79.7597 356.94 85.7498 353.71 89.8798C352.93 89.0198 351.04 87.5098 349.88 86.8198C350.87 85.6098 351.73 84.1898 352.42 82.5598L349.79 83.5098C349.4 81.4398 348.41 78.2998 347.46 75.8898L351.34 74.6398C352.07 76.3598 352.76 78.4298 353.28 80.1998C355.3 74.0398 355.82 65.7298 355.91 56.5098H352.51L352.6 56.5497C352.43 56.8497 352 57.0197 351.39 57.0197C349.41 60.2897 346.39 64.6398 343.59 68.0898L348.07 68.0497C347.55 66.9297 347.04 65.8497 346.48 64.8597L350.18 63.3098C351.86 66.1498 353.58 69.8598 354.14 72.3098L350.13 74.0797C350 73.4797 349.83 72.7398 349.57 72.0098L347.33 72.1398V89.8898H342.81V76.0598C342.59 76.2798 342.34 76.3598 341.95 76.3198C341.52 79.8498 340.66 83.9897 339.45 86.6097C338.55 86.0097 336.86 85.2297 335.83 84.7997C336.91 82.4297 337.6 78.3397 337.94 74.6797L342.81 75.7997V72.4398C340.96 72.5298 339.23 72.6098 337.86 72.6998C337.73 73.1298 337.39 73.2998 337.08 73.3498L336.05 68.1797H339.02C339.75 67.2797 340.48 66.3298 341.17 65.2898C339.92 63.3898 337.9 61.1497 336.13 59.4297L338.59 55.8997L339.54 56.7598C340.79 54.3498 342.04 51.5098 342.77 49.2598L347.81 51.3297C347.68 51.5897 347.25 51.7598 346.65 51.7598C345.62 54.0898 343.89 57.2698 342.39 59.5998C342.91 60.1598 343.42 60.7598 343.81 61.3198C345.32 58.9098 346.7 56.4498 347.73 54.3398L352.38 56.4498V51.7498H367.37L368.4 51.6198L370.94 52.1398C370.9 52.4398 370.81 52.8298 370.72 53.1298C370.29 55.7098 369.56 59.4198 368.82 63.1198H372.91L373.73 62.9897L373.74 63.0098ZM362.93 68.6497C363.79 64.8997 364.7 60.2498 365.34 56.4998H360.64C360.64 57.4098 360.64 58.3498 360.6 59.2598C361.63 66.2798 363.44 72.4398 366.54 77.2198C368.35 74.5498 369.77 71.3998 370.8 67.7898H367.83L367.53 69.2097L362.92 68.6497H362.93Z" fill="white"/>
<path d="M418.409 69.48H408.239V74.48H420.389V79H408.239V84.21H424.309V88.82H387.309V84.21H402.819V79H390.799V74.48H402.819V69.48H392.999V66.03C391.449 67.11 389.809 68.14 388.179 69.05C387.489 67.84 386.069 65.95 384.949 64.92C392.399 61.13 399.549 54.37 402.739 48.98L409.629 49.37C409.499 49.84 409.109 50.15 408.509 50.23C412.689 55.87 420.049 61.47 426.559 64.27C425.229 65.56 424.059 67.37 423.109 68.92C421.559 68.06 419.969 67.07 418.409 66.03V69.48ZM416.859 64.91C412.289 61.59 408.029 57.67 405.489 54.14C403.079 57.63 399.109 61.51 394.549 64.91H416.859Z" fill="white"/>
<path d="M458.77 66.8V64.6C457.99 65.55 457.18 66.45 456.36 67.23C455.97 66.37 455.41 65.29 454.85 64.34C454.68 64.47 454.46 64.56 454.12 64.64V88.85H450.37V87.39H439.34V89.33H435.68V63.66L440.29 63.92C440.25 64.26 439.99 64.52 439.34 64.61V69.31C440.59 67.8 441.06 65.56 441.24 63.58L444.38 63.97C444.34 64.23 444.08 64.4 443.65 64.44C443.56 65.13 443.43 65.86 443.26 66.64C443.82 67.2 444.38 67.85 444.85 68.41C445.75 66.99 446.14 65.22 446.31 63.59L449.45 63.98C449.41 64.24 449.15 64.41 448.72 64.5C448.63 65.19 448.5 65.92 448.25 66.7C449.03 67.48 449.8 68.38 450.36 69.07V63.69L454.54 63.91C454.32 63.61 454.07 63.26 453.85 63.01L454.28 62.62H434.42V58.7H436.92V51.72L441.87 52.02C441.83 52.36 441.57 52.62 440.88 52.75V58.69H443.21V49.3L448.59 49.6C448.55 49.99 448.29 50.25 447.56 50.33V52.7H454.06V56.4H447.56V58.68H455.27V61.57C458.29 58.17 461 53.08 462.29 49.29L467.72 49.5C467.63 49.84 467.42 50.06 467.03 50.19C468.97 54.24 472.5 59.62 475.6 62.25C474.7 63.5 473.58 65.35 472.84 66.9C472.02 66.12 471.25 65.26 470.47 64.27V66.81H458.75L458.77 66.8ZM449.03 71.5C448.6 70.85 447.95 69.95 447.26 69.13C446.79 69.95 446.18 70.77 445.37 71.41C445.11 71.07 444.68 70.55 444.21 70.16L443.52 70.85C443.22 70.42 442.83 69.82 442.36 69.26C441.93 70.08 441.41 70.85 440.68 71.54C440.38 71.11 439.86 70.51 439.34 70.08V71.59H450.37V70L449.03 71.51V71.5ZM444.38 75.85C444.34 76.15 444.08 76.32 443.65 76.37C443.56 77.06 443.48 77.79 443.26 78.57C443.86 79.17 444.42 79.82 444.9 80.38C445.76 78.96 446.15 77.15 446.32 75.51L449.55 75.85C449.46 76.15 449.21 76.32 448.77 76.41C448.68 77.06 448.55 77.83 448.34 78.56C449.07 79.34 449.8 80.15 450.36 80.89V75.16H439.33V81.28C440.58 79.77 441.05 77.49 441.23 75.51L444.37 75.85H444.38ZM439.34 83.69H450.37V82.1L449.16 83.48C448.73 82.88 448.08 81.97 447.35 81.11C446.88 82.01 446.23 82.83 445.37 83.52C445.15 83.18 444.77 82.74 444.34 82.36L443.74 83.01C443.4 82.54 442.92 81.85 442.36 81.2C441.93 82.06 441.37 82.92 440.59 83.61C440.29 83.22 439.81 82.66 439.34 82.23V83.69ZM473.24 69.73V81.23C473.24 85.49 471.39 86.05 466.05 86.05C465.92 84.72 465.4 82.86 464.8 81.61C465.49 81.61 466.18 81.65 466.78 81.65C468.46 81.65 468.63 81.65 468.63 81.09V74.11H464.62V89.83H460.05V74.11H455.48V69.72H473.23L473.24 69.73ZM469.28 62.67C467.38 60 465.75 56.98 464.63 54.49C463.64 56.99 462.09 59.96 460.24 62.67H469.29H469.28Z" fill="white"/>
<path d="M501.63 52.4197C501.46 52.7597 501.03 53.0197 500.38 52.9397C497.67 59.0597 493.4 65.4297 488.97 69.5197C487.89 68.4397 485.7 66.7197 484.32 65.8597C488.63 62.3697 492.72 56.1697 495 50.2197L501.63 52.4197ZM506.5 66.9397C506.33 67.3697 505.81 67.5897 505.08 67.6697C503.31 72.2797 500.56 77.9197 497.93 82.4897C502.71 82.3597 507.92 82.1897 513.09 81.9697C511.45 79.3797 509.64 76.7997 507.96 74.5997L513 72.2697C516.79 76.9697 520.88 83.0797 522.99 87.2597L517.61 90.0997C517.18 89.0697 516.58 87.8997 515.89 86.6497C505.85 87.3397 495.52 87.8597 488.67 88.1997C488.58 88.6297 488.2 88.8497 487.81 88.8897L485.74 82.8197L492.03 82.6497C494.87 77.5197 497.89 70.5497 499.57 65.0697L506.51 66.9197L506.5 66.9397ZM512.4 50.3097C514.94 55.3897 519.9 61.4697 523.86 65.1297C522.48 66.2097 520.5 68.2297 519.51 69.6497C515.42 65.2597 510.42 58.4097 507.23 52.4197L512.4 50.3097Z" fill="white"/>
<path d="M549.661 56.4198V60.5098H532.641V56.4198H549.661ZM568.401 67.7498L571.671 69.0398C571.581 69.3398 571.411 69.4698 571.201 69.6898C569.861 74.5598 567.671 78.4798 564.701 81.6198C567.281 83.2998 570.341 84.5498 573.661 85.3698C572.541 86.4498 571.031 88.5098 570.301 89.8498C566.681 88.7698 563.491 87.1797 560.741 85.1097C557.851 87.1797 554.491 88.7298 550.751 89.8498C550.231 88.5998 549.071 86.5298 548.081 85.3698V87.6097H538.991V89.2898H534.601V74.4297H548.081V85.2798C551.311 84.4598 554.331 83.2597 556.871 81.5797C554.891 79.3797 553.211 76.8398 551.871 73.9998L556.311 72.5797H550.241V67.9297H551.751C551.021 67.0697 549.211 65.4798 548.131 64.7898V66.4297H534.731V62.5098H548.131V64.5797C551.881 61.9997 552.351 58.5898 552.351 55.6598V50.4897H566.911V60.2298C566.911 61.4398 567.001 61.5598 567.471 61.5598H568.591C569.151 61.5598 569.321 60.9997 569.411 57.2097C570.311 57.9897 572.301 58.7198 573.591 59.0598C573.161 64.4398 572.001 65.9498 569.111 65.9498H566.571C563.081 65.9498 562.091 64.6198 562.091 60.3098V55.0998H557.221C557.221 58.0698 557.221 64.2698 551.841 67.9398H567.521L568.421 67.7697L568.401 67.7498ZM548.111 68.4398V72.3198H534.711V68.4398H548.111ZM548.021 50.6097V54.5298H534.881V50.6097H548.021ZM543.581 83.5197V78.5197H538.971V83.5197H543.581ZM556.421 72.5797C557.451 74.7297 558.921 76.7198 560.681 78.4798C562.361 76.7598 563.741 74.8197 564.771 72.5797H556.411H556.421Z" fill="white"/>
<path d="M179.741 128.93L183.361 130.65C183.231 130.95 182.971 131.21 182.711 131.34C180.641 139.57 176.291 146.2 170.991 149.78C170.131 148.66 168.061 146.68 166.811 145.9C170.901 143.44 174.351 139.18 176.331 134.01H167.891V129.14H178.831L179.731 128.92L179.741 128.93ZM190.121 123.55C190.941 126.48 192.021 129.28 193.391 131.86C196.361 129.45 199.681 126.35 201.791 123.72L207.131 127.94C206.961 128.15 206.571 128.28 206.181 128.28C206.011 128.28 205.881 128.28 205.711 128.24C203.211 130.61 199.161 133.8 195.931 135.95C198.951 140.09 202.871 143.36 207.861 145.3C206.651 146.33 204.971 148.49 204.161 150C197.831 147.11 193.351 142.38 190.121 136.26V146.68C190.121 151.68 187.841 152.41 179.741 152.41C179.521 150.95 178.791 148.75 178.061 147.41C180.301 147.54 183.011 147.54 183.751 147.54C184.531 147.5 184.781 147.28 184.781 146.59V126.22H173.881V121.27H190.121V123.55ZM179.741 111.53C184.741 112.61 192.021 114.93 195.681 116.87L193.011 122.17C189.561 120.19 182.461 117.52 177.291 116.23L179.751 111.53H179.741Z" fill="white"/>
<path d="M226.651 136.64C226.521 136.04 226.351 135.35 226.091 134.57L224.151 134.7V152.4H219.711V138.57C219.491 138.79 219.241 138.83 218.891 138.79C218.501 142.32 217.731 146.5 216.561 149.04C215.701 148.48 214.101 147.75 213.031 147.32C214.061 144.95 214.671 140.86 214.971 137.2L219.711 138.28V135.01C217.901 135.14 216.261 135.22 214.931 135.27C214.841 135.66 214.501 135.87 214.151 135.92L213.161 130.75H216.131C216.821 129.85 217.511 128.9 218.201 127.91C216.991 125.97 215.011 123.65 213.291 121.88C214.281 120.59 215.061 119.47 215.831 118.35L216.781 119.25C217.941 116.84 219.111 114.04 219.801 111.8L224.841 113.7C224.671 114.04 224.281 114.17 223.681 114.17C222.691 116.58 221.011 119.81 219.501 122.18C220.021 122.74 220.451 123.3 220.881 123.86C222.341 121.45 223.681 119.03 224.671 116.92L229.491 119.07C229.321 119.37 228.891 119.54 228.331 119.54C226.991 121.82 225.141 124.58 223.251 127.21L226.481 125.88C228.161 128.72 229.881 132.51 230.401 134.97L226.651 136.65V136.64ZM224.541 130.61C224.071 129.53 223.551 128.46 223.031 127.51C222.211 128.59 221.441 129.66 220.621 130.65L224.541 130.61ZM228.031 137.11C229.111 139.74 230.181 143.18 230.701 145.42L226.781 146.8C226.391 144.52 225.321 140.94 224.321 138.27L228.021 137.11H228.031ZM251.511 146.41H247.631C250.221 147.57 252.891 148.82 254.571 149.81L250.181 152.44C248.411 151.28 245.181 149.47 242.301 148.13L244.451 146.41H237.511L240.141 148.13C240.011 148.26 239.751 148.35 239.361 148.39C237.341 149.77 233.241 151.49 230.061 152.4C229.281 151.54 227.821 150.2 226.791 149.43C229.371 148.74 232.391 147.58 234.591 146.41H231.141V133.01H251.511V146.41ZM238.501 118.54V117.16H228.771V114.02H238.501V111.74L244.701 112.08C244.661 112.51 244.311 112.77 243.541 112.9V114.02H254.051V117.16H243.541V118.54H251.941V121.51H230.831V118.54H238.501ZM229.631 131.63V122.8H253.021V131.63H229.631ZM233.591 129.13H248.841V128.18C248.541 128.27 248.151 128.27 247.761 128.27H245.431C242.331 128.27 241.941 127.62 241.941 125.3H240.171C239.781 126.85 238.751 128.27 235.171 129.05C234.871 128.4 234.181 127.54 233.581 127.11V129.13H233.591ZM233.591 127.06C235.531 126.72 236.431 126.15 236.861 125.29H233.591V127.06ZM235.611 135.5V136.84H246.851V135.5H235.611ZM235.611 138.95V140.37H246.851V138.95H235.611ZM235.611 142.44V143.9H246.851V142.44H235.611ZM247.201 126.42C247.591 126.42 247.761 126.42 247.851 126.25C248.111 126.38 248.451 126.46 248.841 126.55V125.3H245.521C245.521 126.38 245.521 126.42 245.991 126.42H247.201Z" fill="white"/>
<path d="M276.361 113.29V146.76C276.361 151.58 274.551 152.4 268.521 152.4C268.391 151.06 267.792 148.7 267.142 147.4C267.922 147.44 268.732 147.44 269.382 147.44C271.362 147.44 271.581 147.44 271.581 146.67V138.01H267.012C266.622 143.14 265.762 148.48 263.952 152.44C263.052 151.71 260.931 150.5 259.771 150.07C262.481 144.13 262.661 135.38 262.661 129.05V113.28H276.361V113.29ZM267.311 127.89C267.311 130.6 267.311 131.72 267.271 133.14H271.581V127.89H267.322H267.311ZM271.572 118.07H267.311V123.11H271.572V118.07ZM296.861 129.61L299.961 130.73C299.871 131.07 299.661 131.25 299.491 131.42C298.541 136.24 296.912 140.42 294.672 143.96C296.612 145.9 298.851 147.49 301.301 148.57C300.271 149.48 298.802 151.28 298.072 152.49C295.792 151.28 293.681 149.65 291.871 147.71C290.151 149.61 288.212 151.24 286.102 152.53C285.672 151.75 284.941 150.68 284.161 149.82V152.4H279.251V113.68H298.632V122.98C298.632 127.5 296.351 128.02 289.501 128.02C289.331 126.64 288.681 124.66 288.081 123.41C289.201 123.45 290.451 123.5 291.401 123.5C293.511 123.5 293.681 123.46 293.681 122.85V118.46H284.161V129.79H296.051L296.871 129.62L296.861 129.61ZM284.151 134.48V148.09C285.831 146.97 287.382 145.55 288.762 143.87C287.082 141.41 285.661 138.62 284.581 135.64L288.591 134.48C289.321 136.42 290.271 138.27 291.431 139.99C292.381 138.27 293.151 136.41 293.801 134.48H284.151Z" fill="white"/>
<path d="M346.48 120.57H343.81C342.69 123.24 341.18 125.57 339.33 127.63C341.7 129.09 344.41 130.21 347.38 130.9C346.3 131.93 344.88 133.92 344.15 135.25C340.96 134.26 338.12 132.84 335.66 130.94C334.67 131.67 333.64 132.36 332.56 132.96L337.77 133.43C337.68 133.82 337.34 134.08 336.65 134.21L336.26 137.01H341.34L342.42 136.92L345.44 137.44C345.4 137.83 345.35 138.39 345.22 138.78C343.93 152.26 343.02 152.39 334.67 152.22C334.54 150.76 334.07 148.73 333.25 147.44C334.84 147.61 336.27 147.66 336.95 147.66C337.55 147.66 337.94 147.57 338.37 147.19C338.89 146.63 339.36 144.95 339.79 141.29H335.27C333.85 145.77 331.09 149.78 324.89 152.45C324.33 151.24 323.04 149.52 321.92 148.57C326.36 146.85 328.68 144.31 329.98 141.29H325.24V137.03H331.18C331.4 135.87 331.52 134.7 331.65 133.45C330.1 134.27 328.51 134.96 326.78 135.52C326.39 134.92 325.75 134.01 325.1 133.19C324.58 135.34 323.94 137.45 323.25 139.13L319.8 137.54C320.27 135.95 320.79 133.75 321.18 131.51H318.85V146.89C318.85 151.37 317.17 152.27 310.84 152.27C310.67 150.89 309.98 148.74 309.33 147.36C310.97 147.45 312.73 147.45 313.25 147.45C313.77 147.41 313.94 147.28 313.94 146.8V137.58C312.48 140.72 310.67 143.57 308.6 145.42C308.17 143.96 307.01 141.8 306.23 140.42C308.64 138.31 310.88 134.95 312.39 131.5H306.88V126.98H316.83C314.46 125.52 311.14 123.88 308.52 122.8L311.79 119.48C312.78 119.87 313.9 120.3 315.06 120.82C316.05 120 317.08 119.05 317.95 118.11H307.61V113.76H321.82L322.64 113.54L326.39 115.69C326.22 115.95 325.87 116.16 325.53 116.25C324.02 118.32 321.65 120.82 319.11 122.8C320.32 123.4 321.35 124.05 322.17 124.61L319.93 126.98H323.63L326.26 127.07C326.26 127.54 326.13 128.15 325.57 131.12C328.03 130.26 330.27 129.14 332.2 127.76C331.17 126.64 330.22 125.39 329.36 124.06C328.67 124.92 327.94 125.7 327.16 126.39C326.17 125.49 324.23 124.15 323.02 123.46C326.25 120.83 329.22 116.27 330.77 111.74L336.59 113.51C336.46 113.85 336.03 114.07 335.47 113.98C335.17 114.71 334.87 115.4 334.48 116.13H346.46V120.57H346.48ZM332.27 120.57C333.17 122.08 334.29 123.5 335.63 124.75C336.71 123.5 337.65 122.12 338.43 120.57H332.27Z" fill="white"/>
<path d="M357.041 139.18C360.061 141.64 364.281 145.94 366.341 148.36L361.901 152.41C359.961 149.87 355.611 145.13 353.031 142.72L357.041 139.19V139.18Z" fill="white"/>
<path d="M392.19 113.46L395.55 115.23C395.46 115.44 395.33 115.7 395.16 115.88C394.17 119.41 392.66 124.06 391.37 127.51C394.3 130.83 395.29 133.45 395.29 136.13C395.29 143.11 390.98 143.11 387.41 143.11C387.37 141.78 386.89 139.79 386.29 138.63C387.11 138.72 387.84 138.72 388.4 138.72C390.34 138.72 390.47 136.87 390.47 135.62C390.47 133.6 389.44 131.01 386.81 128.08C387.76 125.28 388.75 121.32 389.48 118.26H385.65V152.46H380.83V113.65H391.38L392.2 113.48L392.19 113.46ZM419.59 123.45H405.76C405.67 125.17 405.59 126.9 405.46 128.66H413.13L414.29 128.62L417.13 128.83C417.13 129.26 417.09 129.91 417.04 130.42C416.65 143.52 416.18 148.51 414.84 150.19C413.85 151.53 412.77 152.3 408.16 152.3C407.43 152.3 406.61 152.3 405.79 152.26C405.7 150.75 405.1 148.55 404.24 147.18C406.22 147.35 408.03 147.35 409.02 147.35C409.62 147.35 409.97 147.18 410.36 146.75C411.09 145.89 411.52 142.31 411.78 133.35H404.97C403.94 140.63 401.57 147.61 395.36 152.39C394.58 151.14 393.12 149.59 391.78 148.69C399.66 142.96 400.35 133.18 400.7 123.45H394.5V118.62H403.93V111.77L410.18 112.11C410.14 112.54 409.79 112.8 409.02 112.93V118.62H419.57V123.45H419.59Z" fill="white"/>
<path d="M439.911 122.25L443.491 123.8C443.401 124.1 443.191 124.45 442.931 124.62C440.951 135.47 436.341 144.22 430.181 148.79C429.281 147.54 427.161 145.47 425.871 144.7C430.951 141.3 434.741 135.31 436.681 127.69H427.291V122.48H438.961L439.911 122.27V122.25ZM449.561 119.45C450.381 122.51 451.371 125.44 452.621 128.15C455.721 125.35 459.171 121.65 461.361 118.54L466.741 122.55C466.441 122.89 465.881 122.94 465.321 122.89C462.741 125.86 458.301 129.78 454.851 132.5C457.911 137.67 462.041 141.89 467.391 144.43C466.101 145.51 464.291 147.7 463.381 149.25C457.091 145.72 452.701 139.95 449.551 132.84V145.68C449.551 151.02 447.611 152.44 438.391 152.44C438.171 150.8 437.181 148.18 436.371 146.67C438.091 146.76 439.731 146.76 441.021 146.76C443.861 146.76 444.041 146.76 444.041 145.68V111.78L450.721 112.08C450.681 112.55 450.381 112.86 449.561 112.94V119.44V119.45Z" fill="white"/>
<path d="M484.211 151.16V119.47H484.111L477.511 122.92L475.891 117.54L485.231 112.77H491.531V151.16H484.221H484.211Z" fill="white"/>
<path d="M501.43 132.07C501.43 120.39 505.75 112.16 514.38 112.16C523.01 112.16 526.92 121.1 526.92 131.76C526.92 144.46 522.2 151.72 514.12 151.72C505.18 151.72 501.42 142.78 501.42 132.07H501.43ZM514.23 145.78C517.68 145.78 519.41 140.9 519.41 131.92C519.41 122.94 517.84 118.11 514.28 118.11C511.03 118.11 508.95 122.78 508.95 131.92C508.95 141.06 510.83 145.78 514.18 145.78H514.23Z" fill="white"/>
<path d="M576.231 138.23V143.27H561.371V152.4H556.031V143.27H536.431V138.23H543.321V126.86H556.031V121.61H546.551C544.651 124.75 542.461 127.64 540.171 129.79C539.221 128.8 537.281 127.08 536.031 126.26C539.821 122.99 543.351 117.21 545.291 111.61L551.541 113.55C551.371 113.89 550.941 114.11 550.331 114.07C549.991 114.93 549.601 115.75 549.211 116.61H573.811V121.61H561.361V126.86H572.861V131.68H561.361V138.23H576.221H576.231ZM548.491 138.23H556.031V131.68H548.491V138.23Z" fill="white"/>
<path d="M2.83984 152.49V133.37H19.9398V152.32H13.6898V151.16H8.73984V152.49H2.83984ZM13.6998 139.35H8.74984V145.17H13.6998V139.35ZM33.2598 113.03V130.43H10.0398V113.03H33.2598ZM26.8398 124.49V119.02H16.0698V124.49H26.8398ZM23.0098 133.36H40.5398V152.14H34.2498V151.11H28.9898V152.32H22.9998V133.37L23.0098 133.36ZM28.9998 145.12H34.2598V139.35H28.9998V145.12Z" fill="#FFFF00"/>
<path d="M54.1494 127.94C54.1494 130.18 54.1494 130.91 54.1094 132.12H62.0794V150.99H56.8694V137.34H53.8994C53.5594 142.59 52.8194 148.24 51.3594 152.5C50.1494 151.94 47.7794 151.12 46.3594 150.78C48.6894 144.53 49.0294 134.63 49.0294 128.77V112.92L55.3194 113.26C55.2794 113.69 54.9294 113.95 54.1594 114.08V122.7H56.4394V111.67L62.7694 112.01C62.7294 112.44 62.4294 112.7 61.6094 112.83V122.69H64.2394V127.94H54.1594H54.1494ZM87.6594 139.96V145.13H81.6694V152.54H75.8094V145.13H63.3994V139.96H68.1794C67.2294 138.97 65.5994 137.55 64.5594 136.9C67.4894 135.82 69.3794 134.4 70.6794 132.85H65.3794V116.31H70.9794C71.6294 114.76 72.2694 112.95 72.6194 111.57L79.8994 113.34C79.7294 113.73 79.3394 113.9 78.6494 113.9C78.2594 114.63 77.7494 115.49 77.2294 116.31H86.2794V132.85H76.8894L76.4194 133.76L82.9194 134.1C82.8794 134.57 82.5294 134.83 81.6694 134.96V139.96H87.6594ZM75.8094 134.75C74.4694 136.77 72.4094 138.58 69.3094 139.96H75.8094V134.75ZM70.8594 120.92V122.43H73.0094V120.92H70.8594ZM70.8594 128.24H72.7994C72.8894 127.72 72.9294 127.21 72.9694 126.69H70.8594V128.24ZM80.5494 128.24V126.69H78.2194L78.0894 128.24H80.5494ZM80.5494 122.42V120.91H78.2194V122.42H80.5494Z" fill="#FFFF00"/>
<path d="M121.651 131.13H116.831C116.311 136 115.321 140.05 113.771 143.36C117.221 146.29 121.311 146.29 125.961 146.29C128.541 146.29 132.211 146.25 133.891 146.2C133.161 147.49 132.341 150.03 132.121 151.58H123.331C118.291 151.58 114.151 150.76 110.921 148C109.461 149.81 107.691 151.32 105.581 152.57C104.851 151.24 103.511 149.3 102.441 148.26C104.461 147.23 106.101 145.68 107.441 143.65C106.321 141.58 105.331 139.08 104.551 135.94L109.161 134.52C109.421 135.68 109.761 136.76 110.111 137.71C110.671 135.9 111.061 133.92 111.361 131.81H109.901L109.431 133.14L104.561 132.11L105.031 135.43L102.231 136.38V146.16C102.231 150.68 101.071 152.58 94.3905 152.58C94.2205 150.99 93.5705 148.45 92.8405 146.77C93.5705 146.81 94.3505 146.86 94.9505 146.86C96.3705 146.86 96.5406 146.86 96.5406 146.13V138.25L94.3405 138.94C94.2505 139.41 93.8706 139.72 93.4806 139.8L92.0605 133.04C93.3105 132.78 94.8606 132.44 96.5406 132.05V125.46H92.7105V119.73H96.5406V111.68L103.431 111.98C103.391 112.45 103.091 112.76 102.221 112.89V119.74H104.551V125.47H102.221V130.72L104.291 130.2L104.421 131.15C105.841 127.49 107.391 123.14 108.601 119.52H104.941V114.01H111.571L112.691 113.88L115.791 114.83C115.701 115.13 115.571 115.52 115.451 115.78C114.501 118.75 113.081 122.97 111.571 127.2H113.291L114.241 127.11L116.051 127.41V125.69H121.651V120.22C120.231 120.56 118.811 120.82 117.431 121.08C117.171 119.79 116.351 117.76 115.621 116.51C120.271 115.56 125.181 113.92 128.201 112.03L132.981 116.51C132.761 116.77 132.331 116.77 131.821 116.77C130.791 117.33 129.581 117.8 128.291 118.28L128.681 118.32C128.641 118.75 128.291 119.05 127.471 119.18V125.68H132.941V131.15H127.471V138H132.341V143.38H117.181V138H121.661V131.15L121.651 131.13Z" fill="#FFFF00"/>
<path d="M149.259 146.5C149.259 149.82 146.549 152.53 143.229 152.53C139.909 152.53 137.199 149.82 137.199 146.5C137.199 143.18 139.909 140.47 143.229 140.47C146.549 140.47 149.259 143.27 149.259 146.5ZM147.109 146.5C147.109 144.35 145.389 142.62 143.229 142.62C141.069 142.62 139.349 144.34 139.349 146.5C139.349 148.66 141.069 150.38 143.229 150.38C145.389 150.38 147.109 148.57 147.109 146.5Z" fill="#FFFF00"/>
<path d="M185.29 201.45C185.12 201.79 184.64 201.97 184.04 201.88C181.11 205.07 175.98 209.2 171.5 211.79C170.38 210.67 168.4 208.95 167.15 208.09C171.63 205.81 176.63 202.02 179.04 198.91L185.29 201.45ZM177.28 196.28V197.7H172.07V173.75H202.78V197.48H197.35V196.27H177.28V196.28ZM197.35 178.7H177.28V191.32H197.35V178.7ZM201.44 211.87C199.03 209.07 193.77 204.68 189.72 201.66L194.07 198.86C198.03 201.66 203.46 205.75 206.17 208.68L201.43 211.87H201.44Z" fill="white"/>
<path d="M247.671 196.29L250.251 196.55C250.251 196.94 250.211 197.37 250.161 197.8C249.561 211.88 249.131 211.88 241.981 211.71C241.941 211.37 241.891 210.93 241.811 210.5L240.001 211.28C239.871 210.94 239.701 210.55 239.481 210.12C233.231 210.38 226.861 210.64 222.641 210.77C222.551 211.11 222.301 211.29 221.991 211.33L220.571 207.45C223.201 207.45 226.731 207.45 230.521 207.41V205.95H223.761V202.2C223.111 202.63 222.381 203.1 221.651 203.53C221.131 202.84 220.231 201.94 219.411 201.25C218.681 205 217.511 208.57 215.791 211.46C214.841 210.68 212.601 209.44 211.311 208.96C215.321 202.33 215.661 192.68 215.661 185.83V173.17H249.951V181.57H220.701V185.83C220.701 189.88 220.481 195.01 219.621 199.96C222.201 198.5 224.231 196.77 225.651 195.09H222.161V189.27H249.301V195.09H231.381C231.251 195.13 231.081 195.18 230.861 195.18L229.961 196.39H246.671L247.661 196.3L247.671 196.29ZM244.911 176.47H220.701V178.28H244.911V176.47ZM222.471 188.1V185.95H231.601V188.1H222.471ZM231.601 182.63V184.78H222.511V182.63H231.601ZM230.521 199.26H227.331C226.901 199.65 226.471 200.08 225.991 200.47H230.511V199.26H230.521ZM226.211 191.33V192.97H229.791V191.33H226.211ZM227.461 203.91H230.521V202.49H227.461V203.91ZM238.011 188.27H233.271V182.07L239.131 182.41C239.091 182.8 238.791 183.06 238.011 183.19V188.27ZM233.701 191.33V192.97H237.361V191.33H233.701ZM241.971 205.93H240.681C241.281 206.66 241.891 207.44 242.361 208.21H243.521C243.911 208.21 244.171 208.08 244.381 207.74C244.901 207.14 245.201 204.94 245.461 199.25H234.861V200.46H241.971V205.93ZM234.861 202.48V203.9H238.091V202.48H234.861ZM234.861 207.35H237.661C237.441 207.05 237.191 206.75 236.971 206.49L238.351 205.93H234.861V207.35ZM239.731 182.62H249.161V184.77H239.731V182.62ZM239.731 188.09V185.94H249.251V188.09H239.731ZM241.281 191.32V192.96H245.031V191.32H241.281Z" fill="white"/>
<path d="M272.441 187.15L275.111 187.24C275.071 187.67 275.071 188.32 275.071 188.83C274.811 202.96 274.601 208.08 273.431 209.68C272.181 211.53 270.891 211.83 265.891 211.7C265.801 210.32 265.291 208.3 264.551 207C266.011 207.13 267.261 207.13 268.041 207.13C268.471 207.13 268.821 207 269.121 206.48C269.681 205.62 269.941 201.96 270.111 191.83H266.581C266.021 199.41 264.641 206.65 260.811 211.82C259.991 210.57 258.401 209.02 257.061 208.2C261.541 202.21 261.841 192.56 261.971 182.48H257.791V177.7H264.601V171.15L270.891 171.49C270.851 171.88 270.551 172.18 269.731 172.31V177.69H276.751V182.47H267.021C266.981 184.02 266.931 185.57 266.851 187.12H272.451L272.441 187.15ZM289.671 171.17C289.631 171.56 289.281 171.82 288.891 171.95C290.741 177.12 294.401 183.15 298.411 185.61C297.511 187.07 296.511 189.19 295.871 190.91C291.521 187.72 288.071 181.82 286.311 176.95C284.721 181.69 281.181 187.76 276.831 190.95C276.361 189.49 275.371 187.33 274.501 186.04C278.721 183.07 282.301 176.22 283.671 170.92L289.661 171.18L289.671 171.17ZM292.001 211.75C289.071 208.86 282.701 204.99 277.611 202.62L280.711 198.61C285.711 200.76 292.301 204.34 295.441 207.23L291.991 211.75H292.001ZM284.721 187.54C287.431 189.31 290.791 191.93 292.391 193.92L288.731 197.58C287.311 195.56 284.031 192.71 281.321 190.82L284.721 187.55V187.54Z" fill="white"/>
<path d="M318.57 172.94C318.44 173.33 318.01 173.54 317.36 173.5C316.24 176.77 314.9 180.09 313.44 183.24L315.08 183.63C314.99 184.06 314.65 184.36 313.92 184.45V211.76H308.79V191.69C307.84 193.15 306.85 194.53 305.86 195.74C305.17 194.58 303.66 192.29 302.76 191.17C306.59 186.69 310.38 178.72 312.62 171.1L318.56 172.95L318.57 172.94ZM343.81 178.97C343.81 179.18 343.25 184.22 341.91 189.52L338.72 188.96C341.18 193.53 343.29 199.43 344.06 203.43L339.11 205.24C338.51 201.23 336.4 195.07 334.07 190.51L338.55 188.92L337.52 188.75C337.74 187.41 337.95 185.56 338.21 183.67H332.91V205.98C332.91 209.94 332.05 211.8 324.55 211.8C324.29 210.29 323.52 207.97 322.78 206.59C324.59 206.63 326.44 206.63 327.04 206.63C327.6 206.63 327.77 206.46 327.77 205.9V183.67H323.16C321.78 186.68 320.23 189.4 318.51 191.55C317.61 190.6 315.75 189.05 314.59 188.28C317.78 184.49 320.4 177.77 321.83 171.22L327.86 172.81C327.73 173.15 327.34 173.41 326.7 173.37C326.23 175.22 325.67 177.07 325.02 178.88H341L343.8 178.97H343.81ZM326.58 190.82C326.49 191.16 326.06 191.38 325.5 191.38C324.21 196.42 322.01 201.98 319.47 205.47C318.48 204.69 316.58 203.53 315.42 202.93C317.83 199.83 319.81 194.4 320.89 189.36L326.58 190.82Z" fill="white"/>
<path d="M385.21 178.54L387.92 178.71C387.92 179.1 387.88 179.83 387.83 180.35C387.31 200.17 386.84 207.06 385.16 209.25C383.78 211.19 382.27 211.75 378.05 211.75C377.02 211.75 375.85 211.71 374.73 211.71C374.64 210.29 374 208.13 373.14 206.76C375.64 206.93 377.92 206.98 379 206.98C379.78 206.98 380.25 206.76 380.72 206.2C381.88 204.87 382.44 198.66 382.83 183.37H374.13C373.35 185.57 372.49 187.59 371.46 189.44L375.29 187.8C377.36 190.9 379.47 194.95 380.11 197.79L375.37 199.86C374.81 197.27 373.04 193.27 371.11 190.08C370.59 190.94 370.08 191.72 369.56 192.45C368.87 191.63 367.54 190.34 366.46 189.48V204.94H355.48V208H350.74V178.36H355.18C355.83 176.12 356.47 173.23 356.77 171.08L363.1 172.41C362.93 172.8 362.58 172.97 361.94 173.01C361.47 174.6 360.73 176.63 360 178.35H366.46V187.91C369.09 183.86 370.98 177.4 371.97 171.11L378.09 172.49C377.96 172.83 377.57 173.14 376.97 173.09C376.58 174.9 376.15 176.75 375.68 178.56H384.08L385.2 178.52L385.21 178.54ZM361.6 189.22V182.97H355.48V189.22H361.6ZM355.48 200.33H361.6V193.74H355.48V200.33Z" fill="white"/>
<path d="M410.539 185.65L413.169 186.38C413.039 186.72 412.699 186.85 412.089 186.85C411.789 187.58 411.359 188.49 410.879 189.35H415.659V193.01H394.939V189.35H399.509C399.339 188.32 398.989 187.07 398.609 186.08L401.109 185.65V185.61L396.539 185.65V182.16H403.429V179.19L408.939 179.49C408.899 179.88 408.599 180.14 407.859 180.27V182.17H414.319V185.66H410.529L410.539 185.65ZM401.359 178.24V181.21H396.709V174.06H412.129V171.09L418.459 171.39C418.419 171.86 418.119 172.08 417.339 172.25V174.06H432.979V181.21H428.109V178.24H401.359ZM413.509 194.35V207.75C413.509 211.2 412.169 211.8 406.229 211.8C406.059 210.72 405.499 209.26 404.979 208.22C405.759 208.26 406.619 208.31 407.259 208.31C408.679 208.31 408.849 208.31 408.849 207.71V206.37H402.169V211.75H397.649V194.35H413.499H413.509ZM408.859 197.71H402.179V199.22H408.859V197.71ZM402.179 203.53H408.859V202.02H402.179V203.53ZM406.619 189.27C407.049 188.24 407.569 186.81 407.869 185.65H402.739C403.259 186.81 403.729 188.36 403.859 189.31L403.639 189.35H406.869L406.609 189.26L406.619 189.27ZM432.549 203.27V205.6C433.409 205.94 434.399 206.25 435.219 206.42C434.749 210.3 433.409 211.42 429.839 211.42H423.209C418.469 211.42 417.089 210.26 417.089 205.95V191.13H427.819V189.58H417.089V179.41L422.859 179.75C422.819 180.14 422.519 180.4 421.779 180.53V181.99H434.319V185.26H421.779V186.51H432.589V194.18H421.779V195.43H431.769V198.01H421.779V199.35H431.599V201.93H421.779V203.27H432.549ZM421.779 205.85C421.779 207.36 422.079 207.57 423.849 207.57H429.359C430.479 207.57 430.819 207.23 431.039 205.85H421.779Z" fill="white"/>
<path d="M475.321 187.71C472.821 183.45 470.881 177.85 469.551 172.33L474.121 171.08C475.461 176.9 478.211 183.14 481.401 186.63C480.151 187.62 478.341 189.43 477.441 190.81C477.051 203.43 476.661 208.13 475.461 209.72C474.171 211.49 472.831 211.92 467.231 211.79C467.141 210.33 466.631 208.26 465.851 206.97C467.441 207.14 468.951 207.14 469.681 207.14C470.331 207.14 470.671 207.01 471.101 206.54C471.751 205.64 472.181 201.97 472.441 192.5H467.921C467.141 199.31 465.851 206.93 458.921 211.8C458.231 210.55 456.811 208.87 455.651 208.01C461.211 204.43 462.411 198.45 462.931 192.5H459.441V190.65L459.271 190.87C458.671 190.22 457.591 189.23 456.641 188.46V190.7H451.341V191.69C452.931 193.24 456.421 197.07 457.241 198.07L454.141 202.21C453.541 201.05 452.461 199.37 451.341 197.73V211.73H446.521V198.76C445.231 201.9 443.761 204.83 442.171 206.9C441.701 205.31 440.531 203.02 439.711 201.6C441.911 198.97 444.061 194.58 445.441 190.7H440.401V185.87H446.521V171.1L452.421 171.44C452.381 171.83 452.081 172.09 451.341 172.22V182.26C452.201 179.68 453.021 176.23 453.451 173.64L458.451 174.98C458.361 175.32 457.981 175.5 457.371 175.5C456.641 178.26 455.351 182.18 454.231 184.63C453.371 184.33 452.291 183.98 451.341 183.64V185.88H456.641V186.27C459.271 182.57 461.121 176.88 462.071 171.11L467.971 172.36C467.881 172.79 467.501 173.01 466.851 173.01C465.771 178.35 464.011 183.65 461.551 187.74H473.701L474.821 187.7L475.341 187.74L475.321 187.71ZM443.961 173.93C445.121 176.95 445.941 180.91 446.071 183.54L442.191 184.49C442.151 181.91 441.371 177.9 440.341 174.84L443.961 173.94V173.93Z" fill="white"/>
<path d="M503.54 178.28V182.37H485.75V178.28H503.54ZM501.69 196.29V209.47H492.21V211.15H487.73V196.29H501.69ZM487.86 188.28V184.36H501.82V188.28H487.86ZM487.86 194.18V190.3H501.82V194.18H487.86ZM501.86 172.47V176.39H488.12V172.47H501.86ZM497.16 200.38H492.21V205.38H497.16V200.38ZM526.8 185.65V190.78H517.71V211.76H512.46V190.78H503.37V185.65H512.46V171.31L518.92 171.65C518.88 172.08 518.53 172.34 517.71 172.47V185.65H526.8Z" fill="white"/>
<path d="M532.01 210.59V207.19H571.55V210.59H532.01ZM554.11 190.69H571.6V193.88H532.06V190.69H548.86V189.18H535.16V186.42H548.86V184.91H536.5V182.2H548.86V180.69H532.19V177.85H548.86V176.43H536.76V173.67H548.86V171.09L555.32 171.39C555.28 171.86 554.93 172.12 554.11 172.25V173.67H566.95V177.85H571.3V180.69H566.95V184.91H554.11V186.42H568.63V189.18H554.11V190.69ZM536.97 195.3H566.99V205.81H536.97V195.3ZM542.05 197.8V199.31H549.2V197.8H542.05ZM542.05 201.72V203.31H549.2V201.72H542.05ZM561.69 199.31V197.8H553.98V199.31H561.69ZM561.69 203.32V201.73H553.98V203.32H561.69ZM554.11 176.44V177.86H561.73V176.44H554.11ZM554.11 180.7V182.21H561.73V180.7H554.11Z" fill="white"/>
<path d="M6.9807 190.94C5.8607 192.49 4.7007 193.87 3.5307 195.16C2.9307 193.57 1.3807 190.25 0.470703 188.74C4.2607 184.86 8.1807 177.8 10.5107 171.04L17.5307 173.5C17.3607 173.89 16.8807 174.1 16.1907 174.06C15.1107 176.69 13.8607 179.32 12.5307 181.9L14.4707 182.42C14.3407 182.85 13.9507 183.2 13.1807 183.28V211.88H6.9807V190.95V190.94ZM42.0007 180.13V186.33H37.4807V204.77C37.4807 210.5 35.7607 212.01 25.3307 212.01C25.0707 210.24 24.0807 207.44 23.1807 205.72C24.9907 205.85 26.9707 205.89 28.3507 205.89C30.8107 205.89 31.1507 205.89 31.1507 204.73V186.34H15.2507V180.14H31.1507V171.44L38.7707 171.78C38.7307 172.25 38.4307 172.6 37.4807 172.73V180.14H42.0007V180.13ZM21.9307 201.5C21.1507 198.79 18.8307 194.52 16.7607 191.33L22.2307 188.7C24.3807 191.71 26.8807 195.72 27.8707 198.52L21.9307 201.49V201.5Z" fill="#FFFF00"/>
<path d="M67.3715 198.14H59.6615V206.24C59.6615 210.07 58.8915 211.93 52.5115 211.93C52.3415 210.34 51.6515 208.1 51.0015 206.59C50.5715 207.49 50.1415 208.36 49.6615 209.05C48.5415 208.32 46.5615 207.41 45.2715 206.94C46.7315 204.96 47.6415 201.6 48.0715 198.54L53.8415 199.88C53.6715 200.27 53.3215 200.44 52.8515 200.4C52.4615 202.42 51.8615 204.66 51.0015 206.56C51.9015 206.6 52.9815 206.6 53.3315 206.6C53.7215 206.6 53.8515 206.47 53.8515 206.08V198.15H45.8415V193.07H67.3815V198.15L67.3715 198.14ZM53.8015 180.82V179.48H46.1815V174.44H53.8015V170.99L60.9115 171.38C60.8715 171.85 60.5215 172.11 59.6615 172.24V174.44H67.1615V179.48H59.6615V180.82H65.7815V185.82H47.5615V180.82H53.8115H53.8015ZM79.0915 184.4V188.15C79.0915 192.89 80.8615 201.42 87.3215 206.37C86.2415 207.75 84.4815 210.33 83.5715 211.88C79.1815 208.65 76.7215 201.84 76.1215 198.05H76.0815C75.4315 201.93 72.5015 208.47 67.5915 211.88C66.9415 210.5 65.1815 207.79 64.1415 206.63C65.0915 205.94 65.9915 205.21 66.7715 204.43L62.1615 206.33C61.9015 204.74 61.0415 202.15 60.1815 200.21L64.7915 198.44C65.6915 200.21 66.6915 202.58 66.9915 204.17C71.7315 199.13 73.0215 192.24 73.0215 188.15V185.44C72.0715 188.28 70.9515 190.82 69.5715 192.85C68.6215 191.9 66.8115 190.44 65.3915 189.49V191.9H48.1215V186.9H65.3915V188.15C67.7615 184.06 69.1415 177.38 69.7815 170.88L76.9715 172.26C76.8415 172.69 76.4515 172.95 75.8115 172.95C75.5115 174.89 75.2115 176.83 74.7815 178.76H83.4815L86.8015 178.85C86.8015 179.02 86.1515 186.65 84.6915 192.29L79.7815 190.87C80.0415 189.15 80.3015 186.82 80.5115 184.41H79.0915V184.4Z" fill="#FFFF00"/>
<path d="M119.92 190.47H115.1C114.58 195.34 113.59 199.39 112.04 202.7C115.49 205.63 119.58 205.63 124.23 205.63C126.81 205.63 130.48 205.59 132.16 205.54C131.43 206.83 130.61 209.37 130.39 210.92H121.6C116.56 210.92 112.42 210.1 109.19 207.34C107.73 209.15 105.96 210.66 103.85 211.91C103.12 210.58 101.78 208.64 100.71 207.6C102.73 206.57 104.37 205.01 105.71 202.99C104.59 200.92 103.6 198.42 102.82 195.28L107.43 193.86C107.69 195.02 108.03 196.1 108.38 197.05C108.94 195.24 109.33 193.26 109.63 191.15H108.17L107.7 192.49L102.83 191.46L103.3 194.78L100.5 195.73V205.51C100.5 210.03 99.3401 211.93 92.6601 211.93C92.4901 210.34 91.8401 207.8 91.1101 206.12C91.8401 206.16 92.6201 206.21 93.2201 206.21C94.6401 206.21 94.8101 206.21 94.8101 205.48V197.6L92.6101 198.29C92.5201 198.76 92.1401 199.07 91.7501 199.15L90.3301 192.39C91.5801 192.13 93.1301 191.79 94.8101 191.4V184.81H90.9801V179.08H94.8101V171.03L101.7 171.33C101.66 171.8 101.36 172.11 100.49 172.24V179.09H102.82V184.82H100.49V190.07L102.56 189.55L102.69 190.5C104.11 186.84 105.66 182.49 106.87 178.87H103.21V173.36H109.84L110.96 173.23L114.06 174.18C113.97 174.48 113.84 174.87 113.72 175.13C112.77 178.1 111.35 182.32 109.84 186.55H111.56L112.51 186.46L114.32 186.76V185.04H119.92V179.57C118.5 179.91 117.08 180.17 115.7 180.43C115.44 179.14 114.62 177.11 113.89 175.86C118.54 174.91 123.45 173.28 126.47 171.38L131.25 175.86C131.03 176.12 130.6 176.12 130.09 176.12C129.06 176.68 127.85 177.15 126.56 177.63L126.95 177.67C126.91 178.1 126.56 178.4 125.74 178.53V185.03H131.21V190.5H125.74V197.35H130.61V202.73H115.45V197.35H119.93V190.5L119.92 190.47Z" fill="#FFFF00"/>
<path d="M146.671 205.85C146.671 209.17 143.961 211.88 140.641 211.88C137.321 211.88 134.611 209.17 134.611 205.85C134.611 202.53 137.321 199.82 140.641 199.82C143.961 199.82 146.671 202.62 146.671 205.85ZM144.521 205.85C144.521 203.7 142.801 201.97 140.641 201.97C138.481 201.97 136.761 203.69 136.761 205.85C136.761 208.01 138.481 209.73 140.641 209.73C142.801 209.73 144.521 207.92 144.521 205.85Z" fill="#FFFF00"/>
<path d="M578.95 0.189941H0V11.4099H578.95V0.189941Z" fill="#FFFF00"/>
<path d="M578.95 243.05H0V254.27H578.95V243.05Z" fill="#FFFF00"/>
</svg>
