<svg width="203" height="10" viewBox="0 0 203 10" fill="none" xmlns="http://www.w3.org/2000/svg">
<path d="M3.01056 6.07002C3.34056 6.29002 4.33056 7.04002 4.57056 7.25002L4.03055 7.93002C3.82055 7.70002 3.38056 7.28002 3.01056 6.94002V9.30002H2.10056V7.02002C1.67056 7.67002 1.17055 8.24002 0.690552 8.62002C0.540552 8.41002 0.260547 8.10002 0.0605469 7.95002C0.750547 7.49002 1.48056 6.67002 1.95056 5.85002H0.290558V5.05002H2.10056V4.17002H0.170563V3.39002H1.27057C1.21057 2.99002 1.06055 2.47002 0.880554 2.06002L1.54056 1.87002H0.370544V1.09002H2.10056V0.0200195L3.24057 0.0900197C3.24057 0.17002 3.17056 0.23002 3.01056 0.25002V1.09002H4.78055V1.87002H3.64056L4.45056 2.10002C4.43056 2.17002 4.35055 2.20002 4.22055 2.21002C4.10055 2.55002 3.89057 3.02002 3.71057 3.39002H4.98056V4.17002H3.18054C3.18054 4.17002 3.09055 4.22002 3.00055 4.24002V5.06002H4.83057V5.86002H3.00055V6.07002H3.01056ZM2.92056 3.33002C3.09056 2.93002 3.31056 2.32002 3.42056 1.87002H1.62054C1.84054 2.33002 2.01055 2.93002 2.06055 3.32002L1.84055 3.39002H3.10056L2.92056 3.33002ZM9.45056 3.37002V4.24002H8.39056V9.32002H7.48056V4.24002H6.22055C6.22055 5.38002 6.19055 7.78002 4.63055 9.34002C4.51055 9.13002 4.17056 8.80002 3.95056 8.68002C5.18056 7.45002 5.31055 5.76002 5.31055 4.38002V0.94002L5.86057 1.10002C6.84057 0.810019 7.86057 0.40002 8.46057 0.0300195L9.36057 0.71002C9.36057 0.71002 9.22057 0.780019 9.11057 0.760019C8.39057 1.13002 7.27057 1.51002 6.21057 1.80002V3.36002H9.45056V3.37002Z" fill="white"/>
<path d="M13.5102 6.53004L14.7502 6.19004C14.7502 6.19004 14.7702 6.27004 14.8702 6.99004C13.7002 7.36004 12.4602 7.74004 11.6602 7.95004C11.6602 8.04004 11.5802 8.10004 11.5202 8.12004L11.2002 7.12004C11.5902 7.03004 12.0602 6.91004 12.5902 6.77004V4.35004H11.4402V3.49004H12.5902V1.48004H11.3502V0.610039H14.7102V1.48004H13.5102V3.49004H14.6202V4.35004H13.5102V6.53004ZM18.0102 8.17004H20.6602V9.03004H14.2902V8.17004H17.1302V6.87004H14.9302V6.03004H17.1302V5.03004H14.9702V0.540039H20.2402V5.02004H17.9902V6.02004H20.3302V6.86004H17.9902V8.16004L18.0102 8.17004ZM15.8202 1.36004V2.40004H17.1302V1.36004H15.8202ZM15.8202 4.21004H17.1302V3.16004H15.8202V4.21004ZM19.3702 2.40004V1.36004H18.0102V2.40004H19.3702ZM19.3702 4.21004V3.16004H18.0102V4.21004H19.3702Z" fill="white"/>
<path d="M24.3203 5.96004V3.59004C23.9203 4.32004 23.4403 4.97004 22.9403 5.40004C22.8003 5.19004 22.5103 4.89004 22.3203 4.73004C23.0303 4.22004 23.7403 3.25004 24.1703 2.29004H22.5603V1.49004H24.3203V0.0400391L25.4403 0.110039C25.4403 0.190039 25.3703 0.240039 25.2103 0.270039V1.49004H26.7203V2.29004H25.2103V2.78004C25.6003 3.02004 26.6003 3.74004 26.8603 3.94004L26.3503 4.70004C26.1103 4.44004 25.6203 4.00004 25.2103 3.65004V5.96004H24.3203ZM24.5703 6.82004C24.3003 7.61004 23.8803 8.48004 23.2203 9.03004L22.4503 8.47004C23.0703 8.01004 23.5103 7.23004 23.7503 6.50004L24.5703 6.82004ZM26.0303 8.08004C26.0303 8.35004 26.1203 8.39004 26.6203 8.39004H28.2303C28.6303 8.39004 28.7003 8.28004 28.7403 7.47004C28.9403 7.62004 29.3303 7.75004 29.5803 7.81004C29.4603 8.96004 29.1903 9.24004 28.3103 9.24004H26.5203C25.3803 9.24004 25.1003 8.98004 25.1003 8.10004V6.61004L26.2703 6.68004C26.2503 6.76004 26.1903 6.82004 26.0303 6.84004V8.09004V8.08004ZM27.6103 7.68004C27.2903 7.24004 26.6003 6.64004 25.9803 6.23004L26.6103 5.74004C27.2203 6.12004 27.9303 6.69004 28.2803 7.14004L27.6103 7.68004ZM31.1603 0.520039V5.83004H27.1603V0.530039H31.1603V0.520039ZM30.2603 2.07004V1.28004H28.0203V2.07004H30.2603ZM30.2603 3.57004V2.78004H28.0203V3.57004H30.2603ZM30.2603 5.08004V4.28004H28.0203V5.08004H30.2603ZM31.0103 9.05004C30.6903 8.41004 29.8903 7.50004 29.1303 6.87004L29.8803 6.40004C30.6303 7.01004 31.4703 7.86004 31.8303 8.53004L31.0103 9.05004Z" fill="white"/>
<path d="M35.0402 5.30001C34.7202 5.65001 34.4002 5.97001 34.0902 6.25001C33.9602 6.05001 33.6702 5.66001 33.4902 5.49001C34.4402 4.73001 35.5302 3.41001 36.1902 2.17001L37.2402 2.61001C37.2002 2.68001 37.1102 2.72001 36.9802 2.70001C36.7002 3.17001 36.3702 3.65001 36.0202 4.12001L36.2202 4.18001C36.2002 4.26001 36.1302 4.33001 35.9802 4.34001V9.32001H35.0402V5.31001V5.30001ZM36.8502 0.46001C36.8102 0.53001 36.7302 0.560009 36.6002 0.550009C35.9902 1.28001 34.9502 2.28001 34.0302 2.91001C33.9102 2.70001 33.6602 2.33001 33.5002 2.16001C34.3202 1.61001 35.3002 0.73001 35.7902 0.0100098L36.8402 0.46001H36.8502ZM42.8302 3.50001V4.39001H41.3202V8.18001C41.3202 9.19001 40.9002 9.31001 38.9002 9.29001C38.8602 9.02001 38.7302 8.62001 38.6002 8.36001C38.9902 8.36001 39.3702 8.38001 39.6602 8.38001C40.2902 8.38001 40.3602 8.38001 40.3602 8.17001V4.38001H37.1602V3.49001H42.8302V3.50001ZM42.4402 0.62001V1.52001H37.5202V0.62001H42.4402Z" fill="white"/>
<path d="M47.1803 7.58001L48.7103 7.34001L48.7603 8.13001C47.4203 8.39001 46.0203 8.64001 45.1203 8.79001C45.1103 8.88001 45.0403 8.93001 44.9603 8.95001L44.6703 7.95001C45.1303 7.89001 45.7003 7.81001 46.3303 7.72001V5.08001H44.8103V4.28001H46.3303V3.35001H45.3603V3.18001L45.1803 3.37001C45.0303 3.17001 44.7403 2.88001 44.5303 2.75001C45.3803 1.92001 46.0203 0.85001 46.3903 0.0300097L47.4503 0.20001C47.4303 0.29001 47.3603 0.34001 47.2303 0.34001V0.37001C47.8203 0.83001 48.5103 1.42001 48.8703 1.84001C48.6303 2.15001 48.4903 2.37001 48.3403 2.59001C48.0203 2.18001 47.3903 1.59001 46.8203 1.12001C46.5503 1.58001 46.2403 2.07001 45.8703 2.55001H48.2403V3.34001H47.1703V4.27001H48.6003V5.07001H47.1703V7.58001H47.1803ZM45.3903 7.44001C45.3403 6.94001 45.1703 6.21001 44.9803 5.63001L45.6203 5.46001C45.8303 6.02001 46.0103 6.76001 46.0603 7.24001L45.3903 7.44001ZM48.7203 5.68001C48.6803 5.74001 48.6003 5.77001 48.4903 5.77001C48.3603 6.22001 48.1403 6.88001 47.9503 7.31001C47.9403 7.31001 47.3603 7.10001 47.3603 7.10001C47.5303 6.63001 47.7403 5.90001 47.8403 5.39001L48.7103 5.68001H48.7203ZM50.5903 0.88001C50.5703 0.95001 50.4903 0.99001 50.3703 0.98001C50.1103 1.74001 49.6703 2.60001 49.2103 3.16001C49.0403 3.02001 48.7203 2.80001 48.5103 2.70001C48.9503 2.20001 49.3403 1.38001 49.5703 0.58001L50.5803 0.88001H50.5903ZM53.5003 3.19001V8.25001C53.5003 9.19001 53.0903 9.29001 51.6703 9.29001C51.6303 9.03001 51.5003 8.63001 51.3703 8.39001C51.6303 8.39001 51.9003 8.41001 52.1003 8.41001C52.5303 8.41001 52.6003 8.41001 52.6003 8.23001V7.34001H50.0403V9.30001H49.1403V3.20001H50.8203V0.0100098L51.9603 0.0700099C51.9603 0.16001 51.8903 0.21001 51.7303 0.24001V3.20001H53.5103L53.5003 3.19001ZM52.6003 4.02001H50.0403V4.87001H52.6003V4.02001ZM50.0403 6.53001H52.6003V5.66001H50.0403V6.53001ZM52.7903 0.52001C53.3003 1.15001 53.8603 2.02001 54.0803 2.59001L53.2803 3.03001C53.0703 2.45001 52.5303 1.56001 52.0503 0.90001L52.8003 0.52001H52.7903Z" fill="white"/>
<path d="M56.2207 0.390015H64.7107V9.31001H63.8007V8.93001H57.1007V9.31001H56.2207V0.390015ZM57.1007 8.15001H63.8007V1.17001H57.1007V8.14001V8.15001ZM62.0907 5.61001C62.0707 5.69001 62.0307 5.73001 61.8807 5.76001V6.04001H63.3307V6.58002H61.8807V7.20002C61.8807 7.78002 61.6807 7.90001 60.4307 7.88001C60.3707 7.70001 60.2507 7.46001 60.1507 7.30001C60.5107 7.30001 60.8607 7.30001 60.9507 7.30001C61.0407 7.30001 61.0907 7.27001 61.0907 7.17001V6.57001H59.1107C59.4107 6.83001 59.7307 7.18001 59.8807 7.42001L59.2407 7.77001C59.0807 7.49001 58.7307 7.09001 58.4207 6.81001L58.8907 6.57001H57.5407V6.03001H61.0907V5.59001C59.8707 5.63001 58.7207 5.66001 57.9007 5.67001C57.8807 5.74001 57.8207 5.78001 57.7607 5.79001L57.5607 5.14001C58.2207 5.14001 59.0707 5.14002 60.0007 5.12002V4.71001H58.0307V2.69001H60.0007V2.34001H57.5907V1.80001H60.0007V1.33001L60.9907 1.40001C60.9907 1.47001 60.9307 1.52001 60.7807 1.55001V1.80001H63.2407V2.34001H60.7807V2.69001H62.8207V4.71001H62.3307C62.7607 4.97001 63.1907 5.28001 63.4307 5.51001L62.8807 5.87002C62.7807 5.77002 62.6507 5.65001 62.5007 5.53001C62.1907 5.53001 61.8707 5.55001 61.5707 5.55001L62.0707 5.59001L62.0907 5.61001ZM58.7807 3.14001V3.51001H60.0107V3.14001H58.7807ZM58.7807 4.30001H60.0107V3.92001H58.7807V4.30001ZM62.0707 3.14001H60.8007V3.51001H62.0707V3.14001ZM60.8007 4.30001H62.0707V3.92001H60.8007V4.30001ZM60.8007 4.73001V5.14001L61.9307 5.12002C61.7707 5.02002 61.6207 4.93001 61.4807 4.85001L61.6907 4.73001H60.8007Z" fill="white"/>
<path d="M73.9106 2.74002C74.0206 3.38002 74.1606 3.99002 74.3406 4.57002C74.7506 4.18002 75.1806 3.73002 75.4606 3.36002L76.2706 4.00002C76.2706 4.00002 76.1306 4.07002 76.0206 4.05002C75.6606 4.42002 75.0806 4.92002 74.5906 5.30002C75.0006 6.29002 75.5506 7.11002 76.3106 7.60002C76.1006 7.76002 75.8206 8.10002 75.6806 8.33002C74.3006 7.28002 73.5806 5.31002 73.2006 2.95002C72.9506 3.20002 72.6606 3.45002 72.3606 3.69002C73.5206 4.69002 73.9906 6.15002 73.9906 7.31002C73.9906 8.02002 73.8106 8.60002 73.5206 8.89002C73.1706 9.30002 72.8206 9.33002 72.2606 9.33002C72.1206 9.33002 71.9806 9.33002 71.8406 9.31002C71.8406 9.07002 71.7706 8.70002 71.6206 8.46002C71.8906 8.49002 72.1406 8.50002 72.3206 8.50002C72.5306 8.50002 72.6906 8.47002 72.8306 8.27002C73.0006 8.09002 73.0906 7.71002 73.0906 7.24002C73.0906 7.06002 73.0906 6.86002 73.0506 6.66002C72.2406 7.49002 71.1006 8.31002 70.1206 8.78002C69.9906 8.56002 69.7506 8.28002 69.5406 8.10002C70.7006 7.65002 72.0606 6.71002 72.8206 5.80002C72.7506 5.60002 72.6606 5.40002 72.5506 5.21002C71.9706 5.72002 71.2206 6.25002 70.6206 6.60002C70.5306 6.46002 70.4006 6.26002 70.2606 6.10002C70.0406 7.05002 69.2606 7.02002 68.6306 6.99002C68.6306 6.76002 68.5306 6.41002 68.4206 6.20002C68.6206 6.21002 68.8206 6.21002 68.9606 6.21002C69.2506 6.21002 69.4706 6.08002 69.4706 5.44002C69.4706 4.93002 69.2306 4.31002 68.5606 3.57002C68.8206 2.87002 69.0806 1.97002 69.2606 1.28002H68.1806V9.32002H67.3506V0.44002H69.6406L69.7806 0.410019L70.3906 0.73002C70.3906 0.73002 70.3406 0.84002 70.3006 0.86002C70.0706 1.63002 69.7106 2.67002 69.4006 3.47002C70.1006 4.26002 70.3406 4.91002 70.3406 5.53002C70.3406 5.64002 70.3306 5.75002 70.3206 5.85002C70.9406 5.55002 71.6706 5.07002 72.1806 4.62002C72.0506 4.45002 71.9006 4.29002 71.7406 4.14002C71.3306 4.41002 70.9206 4.65002 70.5106 4.84002C70.3906 4.68002 70.1406 4.36002 69.9706 4.21002C70.7606 3.87002 71.6306 3.35002 72.2806 2.75002H70.1906V1.93002H71.5506C71.4106 1.48002 71.1306 0.870019 70.8306 0.410019L71.5806 0.11002C71.9306 0.60002 72.2506 1.26002 72.3606 1.71002L71.8606 1.93002H74.1106L73.6506 1.74002C73.9606 1.28002 74.3506 0.55002 74.5406 0.0200195L75.6006 0.40002C75.5606 0.47002 75.4806 0.50002 75.3506 0.50002C75.1306 0.93002 74.7806 1.50002 74.4806 1.93002H76.1006V2.75002H73.8906L73.9106 2.74002Z" fill="white"/>
<path d="M78.0801 5.01001H80.8101V5.83001H78.0801V5.01001Z" fill="white"/>
<path d="M83.1609 2.78999C83.7709 3.01999 84.5208 3.42999 84.9008 3.74999L84.3409 4.50998C83.9809 4.17998 83.2409 3.73999 82.6309 3.46999L83.1609 2.77998V2.78999ZM82.8309 8.65999C83.2909 7.86999 83.9409 6.54998 84.4209 5.37998L85.1709 5.91998C84.7409 6.98998 84.2009 8.16999 83.7709 8.94999C83.8209 9.00999 83.8409 9.07998 83.8409 9.12998C83.8409 9.17998 83.8309 9.21998 83.8109 9.24998L82.8409 8.65999H82.8309ZM91.9509 1.27998H88.2609L88.0209 2.51999H89.1709C89.1709 3.24999 89.1509 4.73999 89.1309 5.39999L89.3609 5.14999C89.8009 5.36999 90.3208 5.70999 90.6808 5.98999V4.06999C90.6808 4.06999 90.6309 4.06999 90.6009 4.06999C90.3709 4.32999 89.9408 4.72998 89.6508 4.95998L89.1709 4.50998C89.4609 4.22998 89.8709 3.73999 90.0909 3.40999L90.6808 3.88999V2.39999L91.7609 2.45999C91.7609 2.53999 91.6909 2.58999 91.5409 2.61999V9.28998H90.6808V8.84999H86.3109V9.30999H85.4609V2.39999L86.5309 2.45999C86.5209 2.53999 86.4609 2.58999 86.3109 2.61999V6.07999C86.7509 5.85999 87.3209 5.52999 87.9509 5.19999L88.1808 5.85999C87.6808 6.17999 87.1909 6.50998 86.8409 6.70998C86.8509 6.78998 86.8109 6.85999 86.7509 6.89999L86.3109 6.14999V8.05999H90.6808V6.42999L90.3708 6.78998C90.1008 6.50998 89.5908 6.12998 89.1208 5.83998C89.0408 7.67998 88.9609 7.77999 87.4709 7.73999C87.4509 7.51999 87.3809 7.20999 87.2709 7.01999C87.5809 7.04999 87.8309 7.04998 87.9609 7.04998C88.0809 7.04998 88.1509 7.01998 88.2109 6.91998C88.3309 6.71998 88.3709 5.84999 88.3909 3.28999H87.8609L87.7909 3.55999C87.4309 3.47999 87.2009 3.44999 86.9809 3.41999C87.1309 2.84999 87.3108 2.02999 87.4308 1.28999H85.2009L84.7509 1.88999C84.3909 1.52999 83.6609 1.05998 83.0509 0.779985L83.5809 0.109985C84.1109 0.339985 84.7408 0.689985 85.1508 0.999985V0.429985H91.9509V1.28999V1.27998ZM87.0009 3.58999C87.3609 3.89999 87.7509 4.33999 87.9209 4.63999L87.3309 5.08998C87.1609 4.76998 86.7608 4.31999 86.4308 3.98998L87.0009 3.58999Z" fill="white"/>
<path d="M103.001 6.84H99.4107C100.101 7.81 101.331 8.3 103.171 8.45C102.961 8.66 102.711 9.06 102.591 9.32C100.441 9.05 99.1607 8.32 98.4107 6.86C97.9107 8.05 96.8807 8.87 94.2307 9.3C94.1507 9.05 93.9307 8.66 93.7607 8.46C95.8907 8.17 96.8707 7.64 97.3607 6.84H93.9007V6.02H97.6807C97.7407 5.77 97.7907 5.5 97.8207 5.22H93.9307V4.38H97.9207V3.68H94.9407V2.88H97.9207V2.2H94.3907V1.37H96.3807C96.2207 1.03 95.9607 0.63 95.7007 0.34L96.4908 0.02C96.8508 0.38 97.1807 0.87 97.3107 1.23L97.0007 1.37H99.6307L99.3807 1.27C99.6607 0.92 100.011 0.39 100.191 0L101.291 0.4C101.261 0.47 101.181 0.49 101.051 0.49C100.871 0.75 100.591 1.09 100.331 1.37H102.451V2.2H98.8607V2.88H101.931V3.68H98.8607V4.38H102.891V5.22H98.9908C98.9608 5.29 98.8807 5.34 98.7607 5.35C98.7207 5.59 98.6807 5.81 98.6307 6.02H102.951V6.84H103.001Z" fill="white"/>
<path d="M113.96 6.62996V7.38996H110.03V8.37996C110.03 9.21996 109.67 9.30996 107.9 9.30996C107.85 9.05996 107.72 8.72996 107.59 8.50996C108.16 8.52996 108.74 8.52996 108.89 8.52996C109.06 8.52996 109.1 8.47996 109.1 8.35996V7.38996H105.19V6.62996H109.1V6.09996L109.66 6.11996C109.98 5.96996 110.3 5.76996 110.58 5.56996H106.95V4.88996H111.5L111.64 4.83996L112.34 5.28996C112.3 5.34996 112.22 5.37996 112.13 5.38996C111.6 5.78996 110.82 6.26996 110.07 6.62996H113.95H113.96ZM106.15 4.31996V5.54996H105.26V3.60996H106.04L105.85 0.449956L106.47 0.589956C106.94 0.439956 107.45 0.229956 107.79 0.0799561L108.35 0.689956C108.35 0.689956 108.27 0.739956 108.22 0.739956C108.19 0.739956 108.16 0.739956 108.13 0.719956C107.79 0.839956 107.24 0.999956 106.78 1.11996L106.8 1.45996H108.21V2.06996H106.83L106.86 2.53996H108.25V3.15996H106.89L106.92 3.62996H112.24L112.29 3.15996H110.93V2.53996H112.34L112.38 2.06996H110.97V1.45996H112.42L112.44 0.989956H110.93V0.369956H113.36C113.31 1.39996 113.22 2.69996 113.13 3.60996H113.9V5.54996H112.97V4.31996H106.15ZM110.73 0.369956C110.71 0.429956 110.64 0.459956 110.53 0.449956C110.41 0.599956 110.26 0.749956 110.09 0.889956C110.3 1.03996 110.48 1.17996 110.61 1.30996L110.14 1.72996C110.01 1.59996 109.82 1.43996 109.6 1.27996C109.31 1.48996 108.99 1.67996 108.7 1.82996C108.6 1.70996 108.37 1.50996 108.23 1.40996C108.52 1.27996 108.81 1.11996 109.08 0.929956C108.87 0.799956 108.67 0.669956 108.47 0.569956L108.92 0.189956C109.13 0.289956 109.35 0.409956 109.56 0.539956C109.72 0.399956 109.86 0.249956 109.98 0.099956L110.73 0.369956ZM110.83 2.03996C110.8 2.10996 110.72 2.13996 110.62 2.12996C110.49 2.28996 110.33 2.44996 110.15 2.60996C110.37 2.76996 110.57 2.92996 110.71 3.06996L110.23 3.49996C110.09 3.34996 109.89 3.17996 109.66 3.00996C109.35 3.22996 109.02 3.43996 108.72 3.58996C108.61 3.46996 108.39 3.26996 108.24 3.15996C108.54 3.02996 108.85 2.84996 109.13 2.63996C108.93 2.50996 108.72 2.38996 108.52 2.27996L108.98 1.89996C109.18 1.99996 109.4 2.11996 109.61 2.25996C109.78 2.09996 109.94 1.93996 110.06 1.76996L110.83 2.03996Z" fill="white"/>
<path d="M117.721 1.63001V3.80001C117.721 5.40001 117.581 7.77001 116.701 9.31001C116.551 9.15001 116.161 8.87001 115.961 8.78001C116.771 7.34001 116.841 5.27001 116.841 3.79001V0.82001H120.521V0.0100098L121.731 0.0800097C121.731 0.17001 121.661 0.22001 121.501 0.25001V0.83001H125.241V1.63001H117.731H117.721ZM120.991 8.43001C120.991 8.43001 120.891 8.49001 120.801 8.50001C120.221 8.80001 119.121 9.16001 118.261 9.32001C118.131 9.15001 117.861 8.88001 117.681 8.72001C118.551 8.55001 119.661 8.20001 120.211 7.91001L120.981 8.43001H120.991ZM125.251 4.91001H121.881V5.34001H124.421V7.87001H118.551V5.34001H120.991V4.91001H118.001V4.27001H125.241V4.91001H125.251ZM119.541 1.65001L120.661 1.72001C120.661 1.80001 120.581 1.86001 120.421 1.89001V2.24001H122.511V1.65001L123.671 1.72001C123.661 1.80001 123.591 1.86001 123.441 1.89001V2.24001H125.171V2.84001H123.441V3.91001H119.541V2.84001H118.121V2.24001H119.541V1.65001ZM119.421 5.83001V6.36001H121.001V5.83001H119.421ZM119.421 6.83001V7.37001H121.001V6.83001H119.421ZM122.511 2.83001H120.421V3.36001H122.511V2.83001ZM123.521 5.83001H121.881V6.36001H123.521V5.83001ZM123.521 7.37001V6.83001H121.881V7.37001H123.521ZM124.431 9.33001C123.881 9.08001 122.931 8.73001 122.001 8.47001L122.641 7.94001C123.581 8.20001 124.671 8.54001 125.301 8.79001L124.441 9.33001H124.431Z" fill="white"/>
<path d="M132.31 3.76001H136.35V4.63001H127.33V3.76001H131.34V2.28001H129.37C129.12 2.81001 128.84 3.28001 128.56 3.66001C128.36 3.51001 127.98 3.30001 127.75 3.18001C128.33 2.47001 128.87 1.23001 129.17 0.0700099L130.31 0.39001C130.28 0.46001 130.19 0.50001 130.06 0.50001C129.97 0.80001 129.86 1.11001 129.74 1.41001H131.34V0.0100098L132.54 0.0800097C132.53 0.16001 132.46 0.22001 132.3 0.25001V1.41001H135.54V2.27001H132.3V3.75001L132.31 3.76001ZM128.76 9.32001V5.44001H134.98V9.30001H134V8.93001H129.71V9.32001H128.77H128.76ZM133.99 6.31001H129.7V8.06001H133.99V6.31001Z" fill="white"/>
<path d="M143.801 1.57996C143.801 2.47996 143.591 3.59996 142.551 4.31996C142.421 4.15996 142.081 3.85996 141.881 3.72996V8.23996C141.881 9.18996 141.481 9.31996 140.151 9.29996C140.131 9.05996 140.011 8.62996 139.881 8.39996C140.101 8.40996 140.301 8.40996 140.471 8.40996C140.961 8.40996 141.011 8.40996 141.011 8.21996V5.89996H139.751C139.661 7.10996 139.461 8.37996 139.021 9.32996C138.851 9.18996 138.471 8.96996 138.261 8.88996C138.921 7.48996 138.971 5.46996 138.971 3.98996V0.359956H141.901V3.66996C142.781 3.05996 142.911 2.23996 142.911 1.53996V0.329956H146.201V2.79996C146.201 3.04996 146.221 3.07996 146.351 3.07996H146.721C146.871 3.07996 146.911 2.93996 146.931 1.97996C147.111 2.11996 147.471 2.26996 147.721 2.31996C147.641 3.55996 147.421 3.88996 146.841 3.88996H146.211C145.521 3.88996 145.321 3.64996 145.321 2.81996V1.20996H143.831V1.57996H143.801ZM139.811 3.98996C139.811 4.30996 139.811 4.64996 139.791 4.99996H141.011V3.53996H139.811V3.98996ZM141.011 1.23996H139.811V2.66996H141.011V1.23996ZM146.491 4.35996L147.111 4.61996C147.091 4.68996 147.041 4.71996 147.001 4.75996C146.681 5.83996 146.141 6.73996 145.441 7.45996C146.111 7.92996 146.871 8.28996 147.711 8.51996C147.491 8.70996 147.211 9.08996 147.061 9.32996C146.191 9.04996 145.401 8.61996 144.731 8.08996C144.031 8.63996 143.241 9.03996 142.401 9.32996C142.291 9.08996 142.061 8.69996 141.871 8.49996C142.641 8.27996 143.391 7.91996 144.041 7.44996C143.491 6.88996 143.051 6.24996 142.701 5.52996L143.441 5.25996H142.361V4.38996H146.321L146.491 4.34996V4.35996ZM143.571 5.26996C143.851 5.85996 144.251 6.38996 144.721 6.85996C145.181 6.39996 145.551 5.86996 145.821 5.26996H143.571Z" fill="white"/>
<path d="M151.94 2.84001C151.92 2.92001 151.85 2.99001 151.7 3.00001V9.32001H150.78V4.27001C150.51 4.72001 150.24 5.13001 149.96 5.50001C149.83 5.29001 149.55 4.88001 149.37 4.70001C150.23 3.63001 151.08 1.78001 151.59 0.0100098L152.71 0.35001C152.67 0.42001 152.58 0.47001 152.45 0.46001C152.2 1.22001 151.89 2.01001 151.56 2.75001L151.95 2.85001L151.94 2.84001ZM156.94 0.29001C157.21 1.77001 157.91 3.14001 158.91 3.84001C158.7 4.02001 158.37 4.40001 158.21 4.63001C158 4.46001 157.81 4.27001 157.63 4.05001C157.63 4.14001 157.63 4.26001 157.63 4.36001C157.55 7.44001 157.46 8.54001 157.19 8.90001C157 9.15001 156.8 9.24001 156.51 9.28001C156.36 9.30001 156.14 9.31001 155.9 9.31001C155.73 9.31001 155.54 9.31001 155.35 9.31001C155.33 9.03001 155.23 8.63001 155.08 8.38001C155.49 8.42001 155.85 8.42001 156.02 8.42001C156.18 8.42001 156.26 8.40001 156.35 8.29001C156.51 8.08001 156.6 7.22001 156.66 4.90001H155.11C154.95 6.59001 154.45 8.28001 152.69 9.32001C152.59 9.10001 152.33 8.77001 152.13 8.61001C153.65 7.81001 154.05 6.42001 154.19 4.90001H152.94V4.11001C152.78 4.31001 152.61 4.50001 152.44 4.67001C152.32 4.48001 152.05 4.15001 151.88 3.99001C152.61 3.28001 153.19 2.11001 153.47 1.18001L154.54 1.49001C154.51 1.56001 154.43 1.60001 154.3 1.60001C154.02 2.34001 153.57 3.28001 152.98 4.04001H157.1L157.62 4.06001C156.95 3.28001 156.46 2.23001 156.18 1.13001H154.08V0.300009H156.92L156.94 0.29001Z" fill="white"/>
<path d="M169.67 2.18001H164.33C164.19 2.52001 164.03 2.85001 163.85 3.17001H168.43V8.19001C168.43 9.24001 167.94 9.30001 166.18 9.30001C166.15 9.03001 166.01 8.62001 165.88 8.37001C166.18 8.37001 166.48 8.39001 166.72 8.39001C167.45 8.39001 167.49 8.39001 167.49 8.18001V7.35001H163.76V9.32001H162.81V4.79001C162.35 5.37001 161.84 5.89001 161.24 6.33001C161.09 6.12001 160.77 5.77001 160.58 5.58001C161.75 4.76001 162.64 3.51001 163.25 2.18001H160.82V1.28001H163.63C163.79 0.85001 163.92 0.43001 164.03 0.0100098L165.21 0.31001C165.19 0.40001 165.1 0.45001 164.96 0.44001C164.88 0.72001 164.78 1.00001 164.68 1.28001H169.67V2.18001ZM167.48 4.87001V4.00001H163.75V4.87001H167.48ZM163.75 6.55001H167.48V5.67001H163.75V6.55001Z" fill="white"/>
<path d="M174.78 0.410034L175.4 0.750034C175.4 0.750034 175.35 0.850034 175.31 0.880034C175.05 1.67003 174.67 2.71003 174.33 3.51003C175.1 4.30003 175.35 4.95003 175.35 5.58003C175.35 7.15003 174.33 7.11003 173.53 7.08003C173.53 6.84003 173.43 6.48003 173.31 6.26003C173.46 6.28003 173.6 6.29003 173.72 6.29003C174.23 6.29003 174.47 6.18003 174.47 5.50003C174.47 4.98003 174.2 4.36003 173.48 3.62003C173.76 2.92003 174.04 2.00003 174.24 1.29003H173.03V9.32003H172.15V0.440034H174.64L174.79 0.410034H174.78ZM178.45 5.03003C178.58 5.48003 178.74 5.91003 178.93 6.30003C179.34 5.94003 179.76 5.51003 180.04 5.18003L180.88 5.82003C180.88 5.82003 180.74 5.89003 180.63 5.87003C180.3 6.20003 179.77 6.65003 179.31 6.99003C179.76 7.66003 180.33 8.18003 181.06 8.50003C180.85 8.68003 180.57 9.05003 180.43 9.29003C178.95 8.52003 178.1 7.00003 177.63 5.04003H176.7V7.89003C177.24 7.79003 177.79 7.68003 178.35 7.57003L178.43 8.39003C177.24 8.67003 176 8.95004 175.21 9.12004C175.19 9.21004 175.13 9.27004 175.06 9.28004L174.68 8.27003C175 8.21003 175.37 8.15003 175.78 8.07003V0.460034H180.36V5.03003H178.44H178.45ZM179.44 1.28003H176.7V2.32003H179.44V1.28003ZM176.7 3.11003V4.21003H179.44V3.11003H176.7Z" fill="white"/>
<path d="M186.78 0.680019C186.73 0.770019 186.62 0.80002 186.51 0.79002C185.86 2.24002 184.86 3.73002 183.82 4.68002C183.62 4.49002 183.23 4.17002 182.99 4.02002C184 3.18002 185 1.72002 185.56 0.27002L186.78 0.67002V0.680019ZM187.86 4.01002C187.82 4.10002 187.72 4.15002 187.57 4.16002C187.12 5.28002 186.45 6.71002 185.81 7.85002C187.06 7.81002 188.47 7.76002 189.86 7.71002C189.43 7.07002 188.96 6.42002 188.51 5.86002L189.41 5.44002C190.31 6.51002 191.31 7.91002 191.8 8.85002L190.84 9.37002C190.72 9.13002 190.57 8.85002 190.39 8.56002C187.98 8.71002 185.47 8.83002 183.85 8.90002C183.83 8.99002 183.76 9.04002 183.67 9.05002L183.29 7.93002C183.71 7.93002 184.18 7.91002 184.72 7.89002C185.4 6.68002 186.15 4.97002 186.57 3.68002L187.84 4.03002L187.86 4.01002ZM189.33 0.29002C189.97 1.54002 191.17 3.05002 192.09 3.90002C191.84 4.09002 191.48 4.46002 191.3 4.71002C190.37 3.73002 189.15 2.08002 188.4 0.680019L189.33 0.29002Z" fill="white"/>
<path d="M202.511 0.640015V8.08002C202.511 9.20002 202.081 9.33002 200.111 9.33002C200.071 9.04002 199.931 8.58001 199.781 8.30001C200.191 8.32001 200.611 8.33002 200.911 8.33002C201.471 8.33002 201.551 8.33001 201.551 8.07001V1.54001H194.461V0.640015H202.521H202.511ZM200.471 2.42001V3.25001H194.481V2.42001H200.471ZM195.571 4.17001H199.481V7.59001H196.031V8.44001H195.121V4.18001H195.571V4.17001ZM198.561 6.75001V4.98001H196.041V6.75001H198.561Z" fill="white"/>
</svg>
