<svg width="1085" height="78" viewBox="0 0 1085 78" fill="none" xmlns="http://www.w3.org/2000/svg">
<path d="M72.601 15.075H41.806C41.251 17.625 40.531 20.415 39.736 23.055H64.636V76.125H52.186V71.505H20.821V76.125H9.01598V23.055H27.361C27.841 20.58 28.321 17.79 28.636 15.075H0.000976562V4.22998H72.601V15.075ZM52.171 41.97V33.75H20.821V41.97H52.171ZM20.821 60.795H52.171V52.425H20.821V60.795Z" fill="white"/>
<path d="M115.066 4.86001C114.751 5.58001 113.956 5.98501 112.666 5.82001C110.911 10.53 108.841 15.24 106.681 19.785L109.786 20.82C109.546 21.54 108.826 22.26 107.386 22.41V76.44H96.1355V38.055C94.4555 40.365 92.7905 42.6 91.0355 44.595C90.0755 41.805 87.4505 35.505 85.9355 32.7C92.2355 25.605 98.7005 12.825 102.526 0.540009L115.051 4.84501L115.066 4.86001ZM154.966 55.77C158.716 59.835 163.021 65.34 164.701 69.42L155.521 74.61C154.801 72.69 153.526 70.38 152.011 67.98C150.811 74.37 148.096 76.125 142.276 76.125H134.536C123.691 76.125 123.451 72.06 123.451 63.12C121.861 67.185 119.626 71.415 116.596 74.535L108.376 68.625C111.571 65.745 114.286 61.125 115.711 56.82L123.451 60.09V56.82L132.871 57.375C131.911 56.505 130.876 55.62 129.841 54.9L131.116 53.865H116.281V30.09H158.656V53.865H142.456C143.971 55.14 145.246 56.505 146.131 57.615L138.796 63.525C137.911 62.175 136.396 60.57 134.731 58.98C134.491 58.98 134.251 59.055 133.936 59.145V65.055C133.936 67.125 134.251 67.29 136.246 67.29H141.121C142.801 67.29 143.191 66.645 143.431 62.415C144.871 63.54 147.826 64.65 150.286 65.37C149.011 63.69 147.736 62.025 146.461 60.495L154.996 55.785L154.966 55.77ZM113.626 6.37501H131.176V0.960008L145.216 1.68001C145.141 2.64001 144.421 3.12001 142.816 3.43501V6.39001H161.401V14.775H156.061L156.856 15.015C156.541 15.66 155.821 15.975 154.621 15.975L153.031 18.84H163.561V27.705H110.746V18.84H121.516C121.036 17.49 120.406 15.975 119.836 14.775H113.611V6.37501H113.626ZM127.186 36.78V39.015H147.136V36.78H127.186ZM127.186 44.835V47.145H147.136V44.835H127.186ZM130.531 14.76C131.176 16.11 131.806 17.55 132.286 18.825H142.021C142.576 17.55 143.056 16.11 143.536 14.76H130.531Z" fill="white"/>
<path d="M251.595 40.215H209.07C203.73 55.29 196.065 67.815 185.13 76.125C183.3 73.815 178.98 69.585 176.355 67.5C185.13 61.515 191.67 51.945 196.305 40.215H178.35V29.28H199.965C200.85 25.845 201.72 22.26 202.365 18.585H192.075V27.285H180.75V8.145H208.68V0.315002L223.035 1.11C222.96 1.995 222.315 2.55 220.635 2.79V8.13H249.285V27.285H237.39V18.585H208.98L216.555 20.175C216.315 21.06 215.52 21.525 214.155 21.525C213.6 24.165 212.955 26.715 212.325 29.265H251.58V40.2L251.595 40.215ZM235.635 48.195C241.38 54.66 248.805 63.675 251.91 69.9L241.935 76.2C241.38 75 240.66 73.56 239.775 72.135C226.695 73.17 213.45 74.055 204.435 74.535C204.195 75.33 203.475 75.735 202.755 75.81L198.285 63.21L206.265 62.97C209.22 56.505 212.085 48.135 213.765 41.355L227.415 44.94C227.1 45.735 226.215 46.14 224.865 46.215C223.185 51.405 220.8 57.39 218.325 62.565C223.11 62.4 228.06 62.25 233.085 62.01C230.925 59.055 228.615 56.19 226.47 53.64L235.65 48.21L235.635 48.195Z" fill="white"/>
<path d="M294.285 65.58H305.22C309.21 61.83 310.245 56.97 310.725 52.095L321.57 53.295C321.405 53.94 320.775 54.42 319.65 54.57C318.45 61.665 316.62 70.29 307.68 75.96C307.2 75.09 306.57 74.04 305.85 72.93V73.17H280.8V76.2H271.62V55.455C270.975 56.175 270.42 56.895 269.79 57.525C268.905 55.695 266.595 51.855 265.32 50.1C268.83 46.35 272.175 40.125 274.26 33.75H268.515V17.715H285.75V33.75H280.485L284.4 35.025C284.085 35.58 283.44 35.985 282.405 35.895L281.37 38.61H286.155C286.95 36.615 287.595 34.455 287.985 32.7V17.715H305.46V33.75H291.9L298.125 35.43C297.885 36.075 297.24 36.39 296.055 36.39L294.945 38.625H305.79V46.125H294.3V48.195H304.035V54.735H294.3V56.895H304.035V63.435H294.3V65.595L294.285 65.58ZM273.3 15.87V12.84H266.355V5.265H273.3V0.404999L285.105 1.05C285.03 1.845 284.385 2.325 282.945 2.565V5.28H290.205V0.404999L302.01 1.05C301.935 1.845 301.29 2.325 299.85 2.565V5.28H306.24V12.855H299.85V15.885H290.19V12.855H282.93V15.885H273.27L273.3 15.87ZM275.7 24.255V27.21H278.175V24.255H275.7ZM284.955 48.195V46.125H280.8V48.195H284.955ZM284.955 56.895V54.735H280.8V56.895H284.955ZM280.8 63.435V65.595H284.955V63.435H280.8ZM295.155 24.255V27.21H297.87V24.255H295.155ZM332.1 63.585C332.1 65.82 332.175 66.06 332.745 66.06H333.465C334.26 66.06 334.575 65.025 334.74 57.36C336.495 58.95 340.65 60.465 343.2 61.185C342.405 72.12 340.005 75.075 334.59 75.075H330.915C323.895 75.075 322.455 72.195 322.455 63.66V50.175H308.25V3.03H338.97V50.19H332.115V63.6L332.1 63.585ZM318.06 12.84V16.185H328.665V12.84H318.06ZM318.06 24.885V28.23H328.665V24.885H318.06ZM318.06 36.93V40.275H328.665V36.93H318.06Z" fill="white"/>
<path d="M431.521 22.425H400.486C399.211 25.935 397.846 29.37 396.256 32.55H401.446V24.09L415.171 24.81C415.096 25.68 414.451 26.25 412.771 26.49V32.55H429.046V55.845C429.046 64.215 426.406 66.615 415.396 66.615C415.081 63.735 413.956 59.67 412.756 56.88V76.185H401.431V42.93H396.331V66.555H385.561V49.08C383.971 50.91 382.291 52.59 380.461 54.18C379.426 52.35 377.356 49.32 375.511 46.995V76.44H364.261V38.055C362.581 40.365 360.916 42.6 359.161 44.595C358.201 41.805 355.576 35.505 354.061 32.7C360.361 25.605 366.826 12.825 370.651 0.54L383.176 4.845C382.861 5.565 382.066 5.97 380.776 5.805C379.021 10.515 376.951 15.225 374.791 19.77L377.896 20.805C377.656 21.525 376.936 22.245 375.496 22.395V42.975C380.926 37.95 385.231 30.765 388.666 22.395H379.006V11.895H392.176C393.211 8.07 394.171 4.08 394.891 0L407.971 2.88C407.731 3.675 406.936 4.155 405.661 4.155C405.106 6.795 404.461 9.345 403.741 11.895H431.506V22.425H431.521ZM417.961 42.93H412.771V56.58C414.361 56.655 416.281 56.655 417.001 56.655C417.721 56.58 417.961 56.415 417.961 55.695V42.93Z" fill="white"/>
<path d="M511.561 32.16L518.026 32.64C517.951 33.525 517.951 34.95 517.786 36.075C517.066 59.37 516.271 68.55 513.961 71.655C511.321 75.24 508.381 76.365 497.836 76.125C497.761 74.13 497.191 71.505 496.396 69.18H477.571V74.13H466.966V46.035H499.201V65.58C502.306 65.58 502.711 65.58 503.671 64.305C504.871 62.79 505.501 56.97 505.981 42.285H464.176C462.826 53.61 459.781 65.67 453.721 74.115C451.801 71.955 446.941 68.055 444.391 66.78C453.091 54.57 453.721 36.3 453.721 23.7V3.82498H511.891V28.17H465.136C465.136 29.445 465.061 30.81 464.971 32.235H509.011L511.561 32.16ZM500.236 13.485H465.211V18.51H500.236V13.485ZM488.431 60.165V55.065H477.586V60.165H488.431Z" fill="white"/>
<path d="M600.54 52.74C600.465 53.535 600.3 54.255 600.135 55.05H633V76.275H622.86V74.445H607.695V76.275H597.96V63.27C596.28 67.98 593.805 72.45 590.22 76.035C588.705 74.04 584.475 70.05 582.405 68.775C590.385 60.72 591.105 49.14 591.105 40.605V27.285C590.625 27.6 590.07 27.84 589.59 28.08C588.87 26.565 587.91 24.57 586.8 22.65V25.995H580.98V35.49L586.65 34.14L588 43.95C585.69 44.745 583.29 45.465 580.98 46.26V63.885C580.98 69.15 580.185 72.18 577.305 74.025C574.44 75.855 570.36 76.335 564.855 76.26C564.54 73.23 563.175 68.28 561.75 65.175C564.54 65.25 567.57 65.25 568.695 65.25C569.73 65.25 570.045 64.935 570.045 63.81V49.605L564.375 51.36C564.21 52.245 563.415 52.8 562.785 52.95L560.07 40.26C562.86 39.705 566.295 38.985 570.045 38.1V25.98H561.27V15.36H570.045V0.479999L583.29 1.035C583.215 1.905 582.645 2.55 580.98 2.79V15.405H586.8V17.4C594.465 13.17 601.8 6.15 605.385 0.404999L618.315 0.959999C618.075 1.515 617.52 2.07 616.635 2.235C621.42 7.98 630.12 14.13 637.62 16.92C635.385 19.635 633 23.94 631.32 27.21C628.29 25.695 625.095 23.535 621.99 21.225V24.9H599.325V21.87C596.775 23.865 593.985 25.785 591.105 27.3H630.195V52.755H600.51L600.54 52.74ZM619.77 45.165V43.005H601.425L601.35 45.165H619.785H619.77ZM601.425 34.875V36.945H619.77V34.875H601.425ZM616.98 16.92C614.58 14.685 612.435 12.45 610.83 10.305C609.315 12.375 607.32 14.7 605.01 16.92H616.98ZM607.725 62.88V66.63H622.89V62.88H607.725Z" fill="white"/>
<path d="M660.226 41.805C658.876 43.725 657.511 45.48 656.161 47.145C654.721 44.505 651.301 39.24 649.306 36.765C656.326 28.785 663.196 14.19 667.186 0.375L680.356 4.44C680.041 5.235 679.156 5.64 677.881 5.565C675.811 11.475 673.411 17.46 670.786 23.19L674.131 23.985C673.966 24.855 673.246 25.5 671.731 25.665V76.275H660.241V41.805H660.226ZM725.011 26.25H705.061V40.455H722.296V75.885H710.326V73.485H690.376V76.275H679.051V40.455H693.331V0.72L707.446 1.44C707.371 2.4 706.726 2.88 705.046 3.195V15.165H724.996V26.25H725.011ZM710.326 62.79V51.06H690.376V62.79H710.326Z" fill="white"/>
<path d="M813.661 43.005H789.241C795.946 50.82 805.831 58.17 815.896 62.475C813.016 64.875 809.116 69.66 807.121 72.84C798.511 68.22 790.291 61.185 783.511 53.13V76.185H771.151V54.165C764.371 61.98 756.151 68.76 747.526 73.395C745.606 70.365 741.616 65.655 738.916 63.18C749.131 58.71 759.346 51.06 765.961 42.99H741.466V31.5H771.151V23.28H747.616V11.805H771.151V0.404999L785.986 1.2C785.911 2.07 785.191 2.64 783.511 2.955V11.805H807.601V23.295H783.511V31.515H813.676V43.005H813.661Z" fill="white"/>
<path d="M874.876 41.655C881.896 50.505 893.071 58.41 905.041 62.715C902.161 65.19 898.336 70.14 896.416 73.41C887.476 69.255 879.346 62.88 872.566 55.305V76.215H860.281V56.025C853.576 63.45 845.521 69.585 836.581 73.665C834.751 70.71 831.001 66 828.361 63.615C841.441 58.665 853.501 49.335 860.281 38.955V21.06H845.761L857.176 23.775C856.861 24.495 856.141 24.975 854.941 24.885C854.386 26.88 853.666 28.95 852.871 30.87C855.586 33.105 858.301 35.415 859.966 37.095L852.301 45.315C851.266 44.04 849.661 42.45 847.906 40.77C845.356 44.685 842.401 48.105 839.056 50.745C837.226 48.75 833.236 45.24 830.836 43.56C837.376 38.94 842.161 30.315 844.321 21.06H832.111V9.735H860.281V0.404999L875.041 1.2C874.966 2.07 874.321 2.64 872.566 2.955V9.735H901.771V21.06H883.261L894.511 23.685C894.271 24.405 893.476 24.81 892.441 24.81C891.886 26.805 891.166 28.8 890.371 30.795C894.766 34.065 900.031 37.89 902.896 40.455L894.916 48.435C892.846 46.275 889.171 43.17 885.496 40.215C884.146 42.21 882.631 44.04 881.026 45.645C879.511 44.445 877.111 42.855 874.876 41.58V41.655ZM872.566 21.075V38.385L872.881 38.865C877.186 34.56 880.306 27.855 881.821 21.075H872.566Z" fill="white"/>
<path d="M944.461 50.91V61.605C949.486 63.12 954.601 63.12 968.401 63.12C977.251 63.12 988.906 63.045 994.966 62.715C993.211 65.355 991.291 70.695 990.571 74.205H959.446C945.481 74.205 935.986 72.45 929.521 64.23C928.726 69.255 927.691 73.725 926.176 77.31C924.106 75.87 919.786 73.875 917.161 72.84C920.431 65.1 921.151 50.895 921.316 37.41L933.451 39C933.286 39.795 932.656 40.275 931.456 40.35L931.216 47.37C931.936 49.68 932.806 51.675 933.856 53.43V33.81H918.856V23.595H933.616V17.685H921.166V7.74H933.616V0.315002L946.786 1.035C946.711 1.905 946.066 2.385 944.476 2.625V7.725H954.211V17.7H944.476V23.61H956.281V33.825H944.476V40.92H954.931V50.895H944.476L944.461 50.91ZM977.971 24.105V13.26H956.821V3.03H989.056V36.54H977.971V34.065H969.991V46.44C969.991 49.395 970.396 49.71 973.186 49.71H980.206C982.756 49.71 983.236 48.36 983.551 39.81C985.861 41.565 990.646 43.395 993.601 44.115C992.401 56.565 989.536 59.985 981.241 59.985H971.506C961.771 59.985 958.816 56.955 958.816 46.575V24.075H977.971V24.105Z" fill="white"/>
<path d="M1013.72 22.185C1017.95 23.775 1023.62 26.58 1026.32 28.965L1019.54 38.295C1017.06 35.895 1011.63 32.625 1007.33 30.72L1013.72 22.185ZM1008.53 69.585C1011.48 63.285 1015.47 53.31 1018.58 43.74L1028 49.725C1025.36 58.26 1022.42 66.72 1019.85 72.945C1020.41 73.59 1020.65 74.22 1020.65 74.775C1020.65 75.255 1020.57 75.645 1020.33 75.975L1008.53 69.6V69.585ZM1043.63 37.275L1049.37 37.755C1049.37 38.55 1049.3 39.825 1049.21 40.86C1048.49 61.2 1047.69 69.51 1045.46 72.3C1042.43 76.29 1038.75 76.29 1030.29 76.29C1030.13 73.185 1028.94 68.955 1027.34 66.15C1030.05 66.465 1032.53 66.465 1033.95 66.465C1034.99 66.465 1035.71 66.225 1036.5 65.43C1037.46 64.08 1038.18 59.205 1038.66 47.235H1035.71L1035.47 48.99L1025.66 48.03C1026.93 40.845 1028.13 29.835 1028.69 21.06H1039.38V13.08H1028.06V9.95996L1022.55 17.385C1020.08 14.91 1014.5 11.475 1010.18 9.47996L1016.64 1.01996C1020.32 2.45996 1025.03 4.84496 1028.06 7.00496V2.87996H1049.67V32.475H1039.38V30.96H1037.63C1037.39 33.12 1037.22 35.265 1036.98 37.335H1041.38L1043.61 37.26L1043.63 37.275ZM1073.63 46.215C1073.87 47.655 1074.18 49.005 1074.51 50.37C1075.79 49.245 1076.99 48.06 1077.86 47.1L1084.88 56.04C1084.56 56.28 1084.08 56.355 1083.6 56.355C1083.2 56.355 1082.81 56.28 1082.4 56.115C1081.37 56.91 1079.54 58.11 1077.69 59.31C1079.37 62.655 1081.68 65.46 1084.55 67.365C1082.24 69.36 1078.97 73.515 1077.53 76.38C1073.78 73.59 1071.06 69.675 1069.07 64.965L1069.62 70.875C1063.4 72.39 1056.93 73.905 1052.7 74.865C1052.54 75.66 1051.91 76.14 1051.26 76.305L1047.68 65.22C1049.12 65.055 1050.78 64.815 1052.54 64.5V46.23H1049.82V36.735H1053.09V2.39996H1081.58V11.415H1063.55V14.04H1079.51V22.665H1063.55V25.29H1079.51V33.915H1063.55V36.705H1083.26V46.2H1073.6L1073.63 46.215ZM1062.78 62.805L1067.88 61.935C1066.29 57.3 1065.17 51.96 1064.45 46.215H1062.77V62.805H1062.78Z" fill="white"/>
</svg>
