<svg width="190" height="78" viewBox="0 0 190 78" fill="none" xmlns="http://www.w3.org/2000/svg">
<path d="M22.1299 65.13C20.8399 62.84 17.6999 61.09 17.6999 61.09C17.6999 61.09 18.1699 63.74 18.3499 65.38C18.4099 65.92 18.5999 66.48 18.8699 67.03C18.4299 66.65 17.9599 66.3 17.4699 66C16.7399 65.16 16.0399 64.3 15.3699 63.4C15.8699 62.18 16.7899 59.58 16.3099 57.59C15.6999 55.04 13.1599 52.47 13.1599 52.47C13.1599 52.47 12.8799 55.13 12.5999 56.75C12.5099 57.28 12.5299 57.87 12.6399 58.48C12.3099 57.98 11.9399 57.5 11.5399 57.06C11.0699 56.07 10.6399 55.06 10.2599 54.04C11.0799 53.03 12.6999 50.79 12.7999 48.75C12.9199 46.14 11.1799 42.96 11.1799 42.96C11.1799 42.96 10.1699 45.42 9.44991 46.88C9.20991 47.36 9.0699 47.93 9.0099 48.54C8.8499 48.05 8.66991 47.56 8.44991 47.09C8.24991 45.9 8.09991 44.73 7.98991 43.59C9.06991 42.85 11.2099 41.19 11.8599 39.29C12.6999 36.83 11.9099 33.3 11.9099 33.3C11.9099 33.3 10.2599 35.36 9.1499 36.55C8.7899 36.94 8.4999 37.45 8.2599 38.01C8.2399 37.31 8.16991 36.6 8.01991 35.93C7.98991 35.81 7.9599 35.69 7.9299 35.57C8.0099 34.74 8.10991 33.93 8.23991 33.13C9.20991 32.85 12.0699 31.9 13.2899 30.17C14.7099 28.17 14.9199 24.74 14.9199 24.74C14.9199 24.74 12.8599 26.16 11.5299 26.94C11.0899 27.2 10.6899 27.58 10.3299 28.02C10.4999 27.38 10.6199 26.72 10.6599 26.06C10.6799 25.72 10.6799 25.36 10.6399 25C10.8399 24.55 11.0599 24.1 11.2799 23.66C11.3199 23.63 11.3599 23.59 11.4099 23.55C12.1399 23.57 15.2099 23.56 16.8599 22.27C18.6499 20.87 19.7099 17.9 19.7099 17.9C19.7099 17.9 17.4999 18.61 16.1099 18.95C15.6499 19.06 15.1999 19.29 14.7599 19.59C15.0699 19.07 15.3499 18.51 15.5599 17.95C15.6899 17.6 15.7899 17.22 15.8499 16.82C16.2799 16.31 16.7399 15.8 17.2099 15.3C17.9899 15.54 20.3999 16.19 22.0099 15.56C23.8599 14.84 25.4899 12.61 25.4899 12.61C25.4899 12.61 23.4399 12.65 22.1799 12.58C21.7699 12.56 21.3199 12.64 20.8799 12.78C21.2699 12.42 21.6399 12.03 21.9599 11.6C23.8099 9.13004 23.5899 3.92004 23.5899 3.92004C23.5899 3.92004 19.2599 6.81003 18.3199 10.19C17.9099 11.64 17.2499 13.88 16.9499 14.87C16.6099 15.22 16.2699 15.58 15.9399 15.94C16.1499 12.75 14.8899 8.97003 14.8899 8.97003C14.8899 8.97003 11.0999 13.55 11.1399 17.57C11.1599 19.18 11.1399 21.61 11.1399 22.9C10.9199 23.32 10.7099 23.74 10.5099 24.17C9.8599 20.7 7.2899 16.94 7.2899 16.94C7.2899 16.94 4.7599 22.87 6.0099 27.04C6.5399 28.82 7.31991 31.57 7.66991 32.82C7.57991 33.29 7.48991 33.77 7.41991 34.25C5.80991 30.84 1.9799 27.69 1.9799 27.69C1.9799 27.69 1.16991 34.46 3.63991 38.31C4.74991 40.04 6.43991 42.78 7.09991 43.85C7.13991 44.32 7.18991 44.78 7.24991 45.25C4.78991 42.37 0.149902 40.38 0.149902 40.38C0.149902 40.38 1.2599 47.14 4.6799 50.15C6.1899 51.48 8.51991 53.6 9.46991 54.46C9.62991 54.9 9.7999 55.33 9.9799 55.76C6.8299 53.72 1.91991 53.14 1.91991 53.14C1.91991 53.14 4.84992 59.35 8.95992 61.27C10.6399 62.06 13.1699 63.29 14.4499 63.92C14.7299 64.32 15.0199 64.71 15.3099 65.1C11.7699 64.16 7.15991 64.95 7.15991 64.95C7.15991 64.95 11.6799 70.1 16.1299 70.78C17.7799 71.03 20.1899 71.44 21.6699 71.69C23.8799 73.5 26.2699 75.04 28.7899 76.28C29.6899 76.25 30.5799 76.23 31.4799 76.22C28.4099 74.93 25.4899 73.18 22.8199 71.09C22.9699 69.81 23.1399 66.96 22.1099 65.14L22.1299 65.13Z" fill="white"/>
<path d="M167.73 65.13C169.02 62.84 172.16 61.09 172.16 61.09C172.16 61.09 171.69 63.74 171.51 65.38C171.45 65.92 171.26 66.48 170.99 67.03C171.43 66.65 171.9 66.3 172.39 66C173.12 65.16 173.82 64.3 174.49 63.4C173.99 62.18 173.07 59.58 173.55 57.59C174.16 55.04 176.7 52.47 176.7 52.47C176.7 52.47 176.98 55.13 177.26 56.75C177.35 57.28 177.33 57.87 177.22 58.48C177.55 57.98 177.92 57.5 178.32 57.06C178.79 56.07 179.22 55.06 179.6 54.04C178.78 53.03 177.16 50.79 177.06 48.75C176.94 46.14 178.68 42.96 178.68 42.96C178.68 42.96 179.69 45.42 180.41 46.88C180.65 47.36 180.79 47.93 180.85 48.54C181.01 48.05 181.19 47.56 181.41 47.09C181.61 45.9 181.76 44.73 181.87 43.59C180.79 42.85 178.65 41.19 178 39.29C177.16 36.83 177.95 33.3 177.95 33.3C177.95 33.3 179.6 35.36 180.71 36.55C181.07 36.94 181.36 37.45 181.6 38.01C181.62 37.31 181.69 36.6 181.84 35.93C181.87 35.81 181.9 35.69 181.93 35.57C181.85 34.74 181.75 33.93 181.62 33.13C180.65 32.85 177.79 31.9 176.57 30.17C175.15 28.17 174.94 24.74 174.94 24.74C174.94 24.74 177 26.16 178.33 26.94C178.77 27.2 179.17 27.58 179.53 28.02C179.36 27.38 179.24 26.72 179.2 26.06C179.18 25.72 179.18 25.36 179.22 25C179.02 24.55 178.8 24.1 178.58 23.66C178.54 23.63 178.5 23.59 178.45 23.55C177.72 23.57 174.65 23.56 173 22.27C171.21 20.87 170.15 17.9 170.15 17.9C170.15 17.9 172.36 18.61 173.75 18.95C174.21 19.06 174.66 19.29 175.1 19.59C174.79 19.07 174.51 18.51 174.3 17.95C174.17 17.6 174.08 17.22 174.01 16.82C173.58 16.31 173.12 15.8 172.65 15.3C171.87 15.54 169.46 16.19 167.85 15.56C166 14.84 164.37 12.61 164.37 12.61C164.37 12.61 166.42 12.65 167.68 12.58C168.09 12.56 168.54 12.64 168.98 12.78C168.59 12.42 168.22 12.03 167.9 11.6C166.05 9.13004 166.27 3.92004 166.27 3.92004C166.27 3.92004 170.6 6.81003 171.54 10.19C171.95 11.64 172.61 13.88 172.91 14.87C173.25 15.22 173.59 15.58 173.92 15.94C173.71 12.75 174.97 8.97003 174.97 8.97003C174.97 8.97003 178.76 13.55 178.72 17.57C178.7 19.18 178.72 21.61 178.72 22.9C178.94 23.32 179.15 23.74 179.35 24.17C180 20.7 182.57 16.94 182.57 16.94C182.57 16.94 185.1 22.87 183.85 27.04C183.32 28.82 182.54 31.57 182.19 32.82C182.28 33.29 182.37 33.77 182.44 34.25C184.05 30.84 187.88 27.69 187.88 27.69C187.88 27.69 188.69 34.46 186.22 38.31C185.11 40.04 183.42 42.78 182.76 43.85C182.72 44.32 182.67 44.78 182.61 45.25C185.07 42.37 189.71 40.38 189.71 40.38C189.71 40.38 188.6 47.14 185.18 50.15C183.67 51.48 181.34 53.6 180.39 54.46C180.23 54.9 180.06 55.33 179.88 55.76C183.03 53.72 187.94 53.14 187.94 53.14C187.94 53.14 185.01 59.35 180.9 61.27C179.22 62.06 176.69 63.29 175.41 63.92C175.13 64.32 174.84 64.71 174.55 65.1C178.09 64.16 182.7 64.95 182.7 64.95C182.7 64.95 178.18 70.1 173.73 70.78C172.08 71.03 169.67 71.44 168.19 71.69C165.98 73.5 163.59 75.04 161.07 76.28C160.17 76.25 159.28 76.23 158.38 76.22C161.45 74.93 164.37 73.18 167.04 71.09C166.89 69.81 166.72 66.96 167.75 65.14L167.73 65.13Z" fill="white"/>
<path d="M70.1398 15.4101V16.8901C68.1198 24.0001 63.9398 29.0201 57.5898 31.9501L57.2598 31.4701C59.6998 29.7501 61.6897 27.5901 63.2397 25.0101C64.7897 22.4001 65.9098 19.5601 66.5998 16.4801H58.4398L58.1097 15.4101H70.1398ZM85.9398 9.36005L88.7798 12.0901C86.0698 14.6001 83.0298 16.7301 79.6598 18.4701C82.3198 22.8201 86.4798 26.0901 92.1298 28.2501L92.0197 28.6601C91.2797 28.8101 90.6498 29.1601 90.1398 29.7301C89.6198 30.3001 89.2498 31.0101 89.0298 31.8701C86.8898 30.5401 85.0698 29.1 83.5698 27.55C82.0698 25.98 80.6998 23.9601 79.4698 21.5001C78.2598 19.0101 77.3198 16.1001 76.6298 12.7501V30.3501C76.6298 31.7501 76.2998 32.8001 75.6298 33.4901C74.9898 34.1801 73.6098 34.6201 71.4998 34.8201C71.3298 33.5701 70.9998 32.7201 70.4998 32.2701C69.7898 31.6801 68.5798 31.2601 66.8798 31.0201V30.4701C69.8098 30.6901 71.5798 30.8 72.1898 30.8C72.7998 30.8 73.0797 30.5201 73.0797 29.9501V10.0901H63.8898L63.5598 9.02005H76.6198V10.6801C77.2298 13.4101 78.1097 15.7701 79.2397 17.7701C80.5197 16.4901 81.7898 15.0601 83.0398 13.4901C84.2898 11.8901 85.2498 10.51 85.9198 9.36005H85.9398ZM68.1097 1.20007L68.2598 0.680054C73.4498 0.730054 76.9497 1.71007 78.7397 3.63007C79.6497 4.61007 79.8798 5.54005 79.4398 6.40005C79.0998 7.14005 78.4698 7.42006 77.5598 7.25006C77.4098 7.20006 77.2598 7.15007 77.1198 7.10007C76.3598 6.14007 75.1797 5.11006 73.5797 4.00006C71.9797 2.89006 70.1598 1.96007 68.1198 1.20007H68.1097Z" fill="white"/>
<path d="M129.45 9.87003H132.88V16.99C132.86 17.11 132.57 17.28 132.03 17.51C131.49 17.71 130.98 17.83 130.52 17.88L132.59 19.43C132.32 19.75 131.91 19.96 131.37 20.06V29.21C131.35 29.36 130.99 29.55 130.3 29.8C129.61 30.05 129.01 30.17 128.49 30.17H127.9V28.95H118.01V29.65C118.01 29.75 117.87 29.88 117.6 30.06C117.33 30.23 116.96 30.39 116.49 30.54C116.05 30.66 115.6 30.72 115.16 30.72H114.68V17.84C114.31 17.94 113.94 18.01 113.57 18.06C113.67 19 113.4 19.65 112.76 20.02C112.14 20.39 111.49 20.25 110.8 19.61C110.73 18.9 110.55 18.08 110.28 17.17L108.25 17.76V33.92C108.25 34.02 108.14 34.13 107.92 34.25C107.72 34.4 107.42 34.53 107 34.66C106.58 34.78 106.14 34.84 105.67 34.84H105.12V23.1C104.92 23.3 104.59 23.42 104.12 23.47C103.11 27.14 101.77 29.97 100.1 31.96L99.5098 31.66C100.44 28.95 101.06 25.66 101.36 21.77L105.12 22.51V18.63C103.13 19.15 102.03 19.43 101.84 19.48C101.64 19.9 101.32 20.16 100.88 20.25L99.5898 16.74C100.43 16.74 101.57 16.7 103.02 16.63C105.16 12.74 107.02 8.84002 108.59 4.93002L111.54 6.59003C109.57 9.99003 107.14 13.32 104.23 16.59C105.24 16.54 107.15 16.44 109.95 16.3C109.61 15.41 109.13 14.44 108.51 13.38L108.92 13.23C110.81 14.09 112.15 15.14 112.94 16.37V9.84003H129.44L129.45 9.87003ZM104.72 0.530029L107.93 2.12003C106.36 4.83003 104.9 6.86002 103.57 8.21002C104.75 9.15002 105.19 10.12 104.9 11.13C104.7 11.87 104.25 12.25 103.53 12.27C103.11 12.29 102.68 12.15 102.24 11.83C102.04 10.21 101.14 8.55004 99.5497 6.85004L99.9198 6.59003C101.03 6.88003 101.95 7.23003 102.69 7.62003C103.43 5.43003 104.1 3.07003 104.72 0.530029ZM108.93 21.68L109.37 21.53C111.83 23.01 113.17 24.64 113.39 26.44C113.54 27.55 113.25 28.32 112.54 28.77C111.88 29.16 111.21 29.02 110.55 28.33C110.55 26.44 110.01 24.22 108.93 21.69V21.68ZM111.29 34.89L110.96 34.37C112.53 33.8 114.12 33.03 115.72 32.04C117.34 31.08 118.6 30.16 119.48 29.27L121.66 31.67C119.05 33.27 115.59 34.34 111.29 34.88V34.89ZM112.62 4.70004L112.32 3.63004H121.21V0.750031L124.61 1.16003V3.63004H134.09V4.70004H124.61V6.95004H132.88V8.02002H114.46L114.17 6.95004H121.22V4.70004H112.62ZM129.19 16.88L129.74 17.29V16.44H116.01V17.1C116.01 17.2 115.85 17.33 115.53 17.51L118.19 18.58H127.56L129.18 16.88H129.19ZM123.84 10.94H121.99C121.82 11.9 121.33 12.69 120.51 13.3C119.7 13.92 118.3 14.42 116.3 14.81L116 14.48V15.37H129.73V14.04C129.19 14.11 128.39 14.15 127.33 14.15H125.89C125.03 14.15 124.46 14.03 124.19 13.78C123.94 13.51 123.82 13.02 123.82 12.3V10.93L123.84 10.94ZM119.41 10.94H116.01V14.19C117.22 13.8 118.05 13.34 118.52 12.82C119.01 12.3 119.31 11.68 119.41 10.94ZM118.01 21.64H127.9V19.65H118.01V21.64ZM118.01 22.71V24.7H127.9V22.71H118.01ZM118.01 27.88H127.9V25.78H118.01V27.88ZM123.99 30.46L124.17 29.91C129.31 30.21 132.39 31.08 133.4 32.53C133.89 33.24 133.78 33.86 133.07 34.38C132.36 34.95 131.57 35.03 130.71 34.64C130.49 34.54 130.29 34.41 130.12 34.23C128.72 32.65 126.68 31.4 123.99 30.47V30.46ZM129.75 10.94H126.13V11.94C126.13 12.11 126.15 12.24 126.2 12.31C126.27 12.36 126.42 12.38 126.64 12.38H128.52C128.77 12.38 128.91 12.37 128.96 12.34C129.11 12.34 129.3 12.32 129.55 12.27L129.73 10.94H129.75Z" fill="white"/>
<path d="M64.4999 49.9V50.57C63.5899 53.78 61.6999 56.04 58.8399 57.36L58.6899 57.14C59.7899 56.36 60.69 55.39 61.39 54.23C62.09 53.05 62.5899 51.77 62.9099 50.38H59.2299L59.0799 49.9H64.5099H64.4999ZM71.6299 47.17L72.9099 48.4C71.6899 49.53 70.3199 50.49 68.7999 51.28C69.9999 53.24 71.8699 54.72 74.4299 55.69L74.3799 55.87C74.0499 55.94 73.7599 56.1 73.5299 56.35C73.2999 56.61 73.1299 56.93 73.0299 57.32C72.0599 56.72 71.2399 56.07 70.5699 55.37C69.8899 54.66 69.2799 53.75 68.7199 52.64C68.1799 51.52 67.7499 50.2 67.4399 48.69V56.63C67.4399 57.26 67.2899 57.73 66.9899 58.04C66.6999 58.35 66.0799 58.55 65.1299 58.64C65.0499 58.07 64.8999 57.69 64.6799 57.49C64.3599 57.22 63.8099 57.03 63.0499 56.92V56.67C64.3699 56.77 65.17 56.82 65.45 56.82C65.73 56.82 65.8499 56.69 65.8499 56.44V47.48H61.7L61.5499 47H67.4399V47.75C67.7199 48.98 68.1099 50.05 68.6199 50.95C69.1999 50.37 69.7699 49.73 70.3299 49.02C70.8999 48.3 71.3299 47.68 71.6299 47.15V47.17ZM63.5899 43.49L63.6599 43.26C65.9999 43.28 67.58 43.73 68.39 44.59C68.8 45.03 68.9099 45.45 68.7099 45.84C68.5499 46.17 68.2699 46.3 67.8599 46.22C67.7899 46.2 67.7299 46.18 67.6599 46.15C67.3199 45.72 66.7799 45.25 66.0599 44.75C65.3399 44.25 64.5199 43.83 63.5999 43.48L63.5899 43.49Z" fill="white"/>
<path d="M91.2598 47.4001H92.8098V50.61C92.7998 50.67 92.6697 50.7401 92.4297 50.8401C92.1897 50.9301 91.9598 50.9801 91.7498 51.0101L92.6797 51.7101C92.5597 51.8501 92.3698 51.9501 92.1298 51.9901V56.1201C92.1198 56.1901 91.9597 56.2801 91.6497 56.3901C91.3397 56.5001 91.0697 56.5601 90.8297 56.5601H90.5598V56.0101H86.0998V56.33C86.0998 56.33 86.0398 56.4401 85.9198 56.5101C85.7998 56.5901 85.6298 56.6601 85.4198 56.7301C85.2198 56.7901 85.0198 56.8101 84.8198 56.8101H84.5998V51.0001C84.4298 51.0401 84.2698 51.0801 84.0998 51.1001C84.1398 51.5201 84.0198 51.8201 83.7298 51.9801C83.4498 52.1501 83.1598 52.09 82.8498 51.8C82.8198 51.48 82.7398 51.1101 82.6198 50.7001L81.6998 50.9701V58.2601C81.6998 58.2601 81.6497 58.3501 81.5497 58.4101C81.4597 58.4801 81.3198 58.5401 81.1298 58.5901C80.9398 58.6501 80.7398 58.6701 80.5298 58.6701H80.2798V53.3801C80.1898 53.4701 80.0397 53.52 79.8297 53.55C79.3697 55.2 78.7698 56.4801 78.0098 57.3801L77.7397 57.2501C78.1597 56.0301 78.4398 54.5401 78.5698 52.7901L80.2697 53.1201V51.3701C79.3697 51.6001 78.8798 51.7301 78.7898 51.7501C78.6998 51.9401 78.5597 52.0601 78.3597 52.1001L77.7798 50.5201C78.1598 50.5201 78.6697 50.5001 79.3297 50.4701C80.2997 48.7201 81.1298 46.9601 81.8398 45.1901L83.1698 45.9401C82.2798 47.4701 81.1798 48.9801 79.8698 50.4501C80.3198 50.4301 81.1898 50.3801 82.4498 50.3201C82.2898 49.9201 82.0797 49.4801 81.7997 49.0001L81.9798 48.9301C82.8298 49.3201 83.4397 49.7901 83.7997 50.3501V47.4001H91.2397H91.2598ZM80.0998 43.1901L81.5497 43.9101C80.8397 45.1301 80.1798 46.0501 79.5898 46.6601C80.1198 47.0801 80.3198 47.5201 80.1898 47.9801C80.0998 48.3101 79.8998 48.4801 79.5698 48.5001C79.3798 48.5101 79.1897 48.45 78.9897 48.3C78.8997 47.57 78.4997 46.82 77.7697 46.05L77.9398 45.9301C78.4398 46.0601 78.8598 46.2201 79.1898 46.4001C79.5198 45.4101 79.8297 44.3501 80.1097 43.2001L80.0998 43.1901ZM81.9998 52.7301L82.1998 52.6601C83.3098 53.3301 83.9198 54.0601 84.0098 54.8701C84.0798 55.3701 83.9498 55.7201 83.6298 55.9201C83.3298 56.1001 83.0298 56.0301 82.7298 55.7201C82.7298 54.8701 82.4898 53.8701 81.9998 52.7201V52.7301ZM83.0698 58.6901L82.9198 58.4601C83.6298 58.2001 84.3498 57.8501 85.0698 57.4101C85.7998 56.9801 86.3697 56.5601 86.7697 56.1601L87.7498 57.2401C86.5698 57.9601 85.0098 58.4401 83.0698 58.6901ZM83.6698 45.0701L83.5398 44.5901H87.5497V43.2901L89.0797 43.4701V44.5901H93.3597V45.0701H89.0797V46.0901H92.8098V46.5701H84.4998L84.3698 46.0901H87.5497V45.0701H83.6698ZM91.1497 50.5701L91.3997 50.7501V50.3701H85.2097V50.6701C85.2097 50.6701 85.1397 50.7801 84.9897 50.8501L86.1898 51.33H90.4198L91.1497 50.5601V50.5701ZM88.7397 47.8901H87.9098C87.8298 48.3201 87.6097 48.6801 87.2397 48.9601C86.8697 49.2401 86.2398 49.4601 85.3398 49.6401L85.2097 49.4901V49.8901H91.3997V49.2901C91.1597 49.3201 90.7998 49.3401 90.3198 49.3401H89.6698C89.2798 49.3401 89.0297 49.2801 88.8997 49.1701C88.7897 49.0501 88.7298 48.8301 88.7298 48.5001V47.8801L88.7397 47.8901ZM86.7397 47.8901H85.2097V49.3501C85.7497 49.1701 86.1298 48.9701 86.3398 48.7301C86.5598 48.5001 86.6997 48.2101 86.7397 47.8801V47.8901ZM86.1097 52.7201H90.5698V51.8201H86.1097V52.7201ZM86.1097 53.2001V54.1001H90.5698V53.2001H86.1097ZM86.1097 55.5301H90.5698V54.58H86.1097V55.5301ZM88.8098 56.6901L88.8898 56.4401C91.2098 56.5701 92.5997 56.9701 93.0497 57.6201C93.2697 57.9401 93.2197 58.2201 92.8997 58.4501C92.5797 58.7001 92.2197 58.7401 91.8297 58.5701C91.7297 58.5301 91.6398 58.4601 91.5598 58.3901C90.9298 57.6801 90.0097 57.1101 88.7997 56.6901H88.8098ZM91.4098 47.8801H89.7798V48.33C89.7798 48.41 89.7898 48.4601 89.8098 48.5001C89.8398 48.5201 89.9098 48.5301 90.0098 48.5301H90.8597C90.9697 48.5301 91.0398 48.5301 91.0598 48.5101C91.1298 48.5101 91.2197 48.5001 91.3297 48.4801L91.4098 47.8801Z" fill="white"/>
<path d="M101.12 44.2301H102.77V56.6901C102.77 57.3101 102.64 57.7701 102.39 58.0601C102.15 58.3601 101.62 58.5401 100.81 58.6101C100.75 58.0701 100.65 57.7101 100.49 57.5401C100.28 57.2701 99.8798 57.1001 99.3098 57.0101V56.7601C100.2 56.8301 100.74 56.8601 100.93 56.8601C101.16 56.8601 101.28 56.7501 101.28 56.5301V52.4501H99.2498C99.0298 55.1301 98.2697 57.2101 96.9897 58.6901L96.7397 58.5601C97.0997 57.6901 97.3598 56.6701 97.5398 55.4801C97.7298 54.2801 97.8297 53.2701 97.8597 52.4501C97.8897 51.6201 97.9098 50.5001 97.9098 49.1001V44.2401H101.14L101.12 44.2301ZM99.2898 51.9601H101.27V48.5101H99.3498V49.0901C99.3498 50.3301 99.3298 51.2901 99.2798 51.9501L99.2898 51.9601ZM101.27 44.7001H99.3498V48.0301H101.27V44.7001ZM111.53 49.7301V50.4301C111.13 52.2501 110.47 53.8201 109.55 55.1301C110.38 55.9001 111.4 56.5301 112.61 57.0401L112.56 57.2201C111.87 57.3101 111.38 57.7501 111.08 58.5401C110.06 57.8501 109.25 57.0901 108.65 56.2401C107.84 57.0801 106.91 57.7901 105.85 58.3501L105.7 58.1301C106.62 57.4101 107.42 56.4901 108.1 55.3701C107.33 54.0301 106.81 52.3101 106.54 50.2101H105.62V58.1901C105.62 58.2501 105.57 58.3101 105.47 58.3701C105.38 58.4501 105.23 58.5201 105.02 58.5901C104.82 58.6601 104.6 58.6901 104.37 58.6901H104.12V44.2401H111.33V44.9201C111.31 45.9701 111.24 46.7601 111.13 47.2701C111.03 47.7701 110.85 48.1201 110.58 48.3201C110.2 48.5901 109.64 48.7201 108.88 48.7201C108.88 48.2901 108.78 47.9801 108.58 47.8001C108.38 47.6101 107.92 47.4601 107.2 47.3301V47.0801C107.34 47.0901 107.56 47.1101 107.85 47.1301C108.15 47.1401 108.41 47.1601 108.63 47.1801C108.86 47.1901 109.02 47.2001 109.1 47.2001C109.31 47.2001 109.46 47.1601 109.53 47.0801C109.69 46.9401 109.78 46.1401 109.81 44.7001H105.61V49.7301H111.52H111.53ZM109.9 50.2101H106.85C107.2 51.7901 107.82 53.1201 108.7 54.2101C109.24 53.0201 109.64 51.6901 109.9 50.2101Z" fill="white"/>
<path d="M131.31 45.95H129.69C129.21 47.07 128.51 48.06 127.58 48.91C128.63 49.42 129.96 49.79 131.56 50.03L131.53 50.23C131.1 50.43 130.84 50.92 130.75 51.71C129.01 51.23 127.63 50.56 126.6 49.7C126.11 50.04 125.57 50.36 124.97 50.65L126.54 50.85C126.48 51.59 126.42 52.19 126.34 52.63H130.19V53.33C130.02 56.03 129.6 57.64 128.91 58.18C128.44 58.51 127.83 58.68 127.06 58.68C127.06 58.2 126.96 57.87 126.76 57.68C126.53 57.47 126.04 57.29 125.29 57.15V56.9C126.41 56.99 127.1 57.03 127.35 57.03C127.6 57.03 127.81 56.98 127.92 56.88C128.28 56.56 128.53 55.3 128.69 53.12H126.24C126.1 53.71 125.9 54.25 125.66 54.75C125.43 55.25 125.1 55.75 124.69 56.25C124.28 56.75 123.74 57.21 123.07 57.62C122.41 58.03 121.64 58.39 120.76 58.69L120.61 58.44C122.83 57.37 124.19 55.6 124.69 53.13H121.74L121.59 52.65H124.77C124.87 52.07 124.93 51.42 124.95 50.69C123.98 51.14 122.88 51.53 121.64 51.84L121.52 51.61C123.3 50.94 124.74 50.08 125.87 49.01C125.31 48.4 124.8 47.62 124.34 46.66C123.8 47.21 123.19 47.69 122.52 48.08L123.05 49.21C122.78 49.63 122.43 50.03 122 50.39C121.57 50.75 121.16 51.04 120.77 51.27L120.59 51.15C120.95 50.46 121.23 49.78 121.46 49.12H120.31V56.65C120.31 57.28 120.17 57.77 119.89 58.1C119.61 58.43 119.05 58.63 118.19 58.7C118.17 58.19 118.05 57.82 117.84 57.58C117.57 57.31 117.09 57.13 116.39 57.03V56.8C117.52 56.88 118.2 56.92 118.44 56.92C118.57 56.92 118.66 56.9 118.71 56.85C118.77 56.79 118.79 56.71 118.79 56.6V52.19C117.99 53.52 117.01 54.67 115.84 55.64L115.62 55.42C116.91 53.81 117.87 51.71 118.5 49.13H115.97L115.82 48.66H119.83C119.67 48.64 119.54 48.59 119.41 48.53C119.09 47.68 118.41 46.83 117.36 45.98L117.51 45.85C118.42 45.97 119.14 46.2 119.67 46.53C120.09 45.94 120.46 45.35 120.79 44.77H116.23L116.08 44.3H122.56V45.07C121.82 45.69 120.98 46.26 120.05 46.78C120.27 46.97 120.43 47.17 120.53 47.4C120.64 47.62 120.68 47.82 120.65 48C120.63 48.18 120.56 48.33 120.43 48.47C120.32 48.59 120.17 48.66 120 48.67H121.42L122.24 47.82L122.32 47.9C123.32 46.75 124.09 45.2 124.63 43.25L126.01 44C125.84 44.52 125.6 45.02 125.29 45.5H131.3V45.98L131.31 45.95ZM127.88 45.95H124.93C124.86 46.04 124.75 46.17 124.6 46.35C125.12 47.13 125.76 47.78 126.51 48.3C127.13 47.56 127.59 46.77 127.88 45.95Z" fill="white"/>
<path d="M64.4999 68.4601V69.1301C63.5899 72.3401 61.6999 74.6001 58.8399 75.9201L58.6899 75.7001C59.7899 74.9201 60.69 73.9501 61.39 72.7901C62.09 71.6101 62.5899 70.3301 62.9099 68.9401H59.2299L59.0799 68.4601H64.5099H64.4999ZM71.6299 65.7301L72.9099 66.9601C71.6899 68.0901 70.3199 69.0501 68.7999 69.8401C69.9999 71.8001 71.8699 73.2801 74.4299 74.2501L74.3799 74.4301C74.0499 74.5001 73.7599 74.6601 73.5299 74.9101C73.2999 75.1701 73.1299 75.4901 73.0299 75.8801C72.0599 75.2801 71.2399 74.6301 70.5699 73.9301C69.8899 73.2201 69.2799 72.3101 68.7199 71.2001C68.1799 70.0801 67.7499 68.7601 67.4399 67.2501V75.1901C67.4399 75.8201 67.2899 76.2901 66.9899 76.6001C66.6999 76.9101 66.0799 77.1101 65.1299 77.2001C65.0499 76.6301 64.8999 76.25 64.6799 76.05C64.3599 75.78 63.8099 75.5901 63.0499 75.4801V75.2301C64.3699 75.3301 65.17 75.3801 65.45 75.3801C65.73 75.3801 65.8499 75.2501 65.8499 75.0001V66.0401H61.7L61.5499 65.5601H67.4399V66.3101C67.7199 67.5401 68.1099 68.6101 68.6199 69.5101C69.1999 68.9301 69.7699 68.29 70.3299 67.58C70.8999 66.86 71.3299 66.2401 71.6299 65.7101V65.7301ZM63.5899 62.05L63.6599 61.8201C65.9999 61.8401 67.58 62.2901 68.39 63.1501C68.8 63.5901 68.9099 64.0101 68.7099 64.4001C68.5499 64.7301 68.2699 64.8601 67.8599 64.7801C67.7899 64.7601 67.7299 64.7401 67.6599 64.7101C67.3199 64.2801 66.7799 63.8101 66.0599 63.3101C65.3399 62.8101 64.5199 62.3901 63.5999 62.0401L63.5899 62.05Z" fill="white"/>
<path d="M88.4099 64.6601V65.4901C88.2399 66.1901 88.0299 66.9401 87.7799 67.7501C88.3099 71.3701 90.2399 73.9401 93.5599 75.4801L93.5399 75.6801C92.7199 75.8101 92.2299 76.3301 92.0699 77.2301C89.5299 75.6001 88.0099 72.6601 87.5199 68.4201C86.6999 70.5501 85.5199 72.3601 83.9899 73.8501C82.4599 75.3401 80.3899 76.4701 77.7999 77.2601L77.6499 77.0301C82.4999 74.8501 85.4999 70.8901 86.6399 65.1401H83.2099C81.9999 67.7801 80.3199 69.7901 78.1799 71.1501L77.9999 71.0001C78.9999 69.9101 79.8899 68.5601 80.6799 66.9401C81.4699 65.3101 82.0399 63.5701 82.3899 61.7101L84.1199 62.3901C83.9199 63.2701 83.6799 64.0201 83.3999 64.6501H88.3999L88.4099 64.6601Z" fill="white"/>
<path d="M100.29 66.21V76.73C100.28 76.81 100.13 76.91 99.84 77.03C99.56 77.15 99.29 77.21 99.02 77.21H98.74V68.29C98.07 69.13 97.41 69.84 96.76 70.41L96.54 70.26C97.24 69.21 97.9 67.92 98.52 66.4C99.15 64.87 99.64 63.32 99.99 61.75L101.62 62.47C101.19 63.94 100.74 65.18 100.29 66.22V66.21ZM112.25 70.44H107.59C108.11 71.33 108.82 72.14 109.72 72.87C110.62 73.6 111.55 74.16 112.5 74.55L112.47 74.73C111.84 74.85 111.41 75.31 111.19 76.1C109.52 74.9 108.26 73.15 107.41 70.85V76.76C107.41 76.76 107.36 76.86 107.26 76.93C107.16 77.01 107 77.08 106.79 77.15C106.58 77.22 106.35 77.25 106.11 77.25H105.84V72.35C104.67 73.93 103.04 75.24 100.93 76.28L100.76 76.06C101.69 75.36 102.52 74.52 103.26 73.53C104 72.54 104.59 71.51 105.02 70.43H101.02L100.89 69.95H105.84V67.62H104.16V68.2C104.16 68.29 104.01 68.39 103.71 68.52C103.41 68.64 103.11 68.7 102.81 68.7H102.59V62.86H110.72V67.95C110.71 68.02 110.55 68.11 110.24 68.22C109.93 68.32 109.65 68.37 109.41 68.37H109.14V67.62H107.41V69.95H112.26V70.43L112.25 70.44ZM104.16 63.35V67.15H109.14V63.35H104.16Z" fill="white"/>
<path d="M118.42 61.7601L119.92 62.4401C119.53 63.9501 119.18 65.2501 118.85 66.3401V76.8001C118.84 76.8701 118.7 76.9601 118.43 77.0701C118.17 77.1801 117.92 77.2401 117.66 77.2401H117.39V68.4301C116.86 69.2601 116.34 69.9401 115.83 70.4601L115.6 70.3301C116.18 69.2301 116.72 67.9201 117.23 66.3801C117.74 64.8501 118.13 63.3101 118.41 61.7701L118.42 61.7601ZM121.4 64.4701V74.8101C121.4 74.9001 121.27 75.0001 121.02 75.1301C120.78 75.2401 120.53 75.3001 120.27 75.3001H120V64.2801L121.4 64.4801V64.4701ZM121.1 77.2201L121.03 76.9501C122.86 76.4701 124.45 75.8501 125.81 75.0901C127.16 74.3201 128.35 73.2801 129.37 71.9601L130.57 73.0601C129.28 74.3601 127.88 75.3101 126.36 75.9201C124.85 76.5401 123.1 76.9701 121.1 77.2201ZM131.21 64.4201H129.21C128.75 65.3901 128.07 66.2701 127.16 67.0801C128.28 67.6101 129.68 67.9801 131.37 68.1801L131.35 68.3601C130.77 68.5701 130.43 69.0301 130.33 69.7401C128.6 69.3401 127.22 68.6901 126.2 67.7901C124.99 68.6101 123.49 69.2501 121.7 69.7201L121.6 69.5001C123.18 68.8701 124.48 68.0601 125.5 67.0901C125.02 66.5501 124.57 65.8601 124.15 65.0201C123.43 65.9101 122.63 66.6201 121.77 67.1501L121.55 66.9801C122.72 65.6001 123.59 63.8501 124.18 61.7201L125.58 62.4701C125.38 63.0701 125.16 63.5501 124.93 63.9201H131.19V64.4001L131.21 64.4201ZM126.31 68.7301L127.96 69.8001C127.83 69.9301 127.62 69.9701 127.34 69.9001C125.92 70.8201 124.22 71.5301 122.24 72.0301L122.07 71.7501C123.71 70.9801 125.12 69.9801 126.3 68.7401L126.31 68.7301ZM122.21 74.5201L122.08 74.2401C124.46 73.2601 126.4 71.9401 127.92 70.2801L129.6 71.3601C129.48 71.5201 129.26 71.5501 128.93 71.4801C127.06 72.8801 124.82 73.8901 122.2 74.5301L122.21 74.5201ZM127.36 64.4101H124.63C124.59 64.4901 124.51 64.5901 124.4 64.7301C124.83 65.4001 125.4 65.9701 126.1 66.4601C126.64 65.8401 127.07 65.1601 127.37 64.4101H127.36Z" fill="white"/>
</svg>
