<svg width="836" height="348" viewBox="0 0 836 348" fill="none" xmlns="http://www.w3.org/2000/svg">
<path d="M65.7343 217.935C62.2393 225 57.0043 229.935 50.0293 232.77V246.9C66.6043 245.49 78.0943 235.83 84.4993 217.95H65.7343V217.935Z" fill="white"/>
<path d="M381.049 93.105C380.149 97.605 379.024 102.33 377.674 105.465H398.554V227.64C398.989 241.59 392.254 248.34 378.349 247.89H365.554V231.015H370.939C375.424 231.465 377.449 228.99 376.999 223.59V212.115H362.854C362.404 204.465 361.504 197.49 360.154 191.19V193.215C361.939 221.13 352.519 240.24 331.864 250.59V232.365C336.799 225.165 339.049 213.015 338.599 195.915V178.365H331.864V160.815H338.599V105.465H353.419C353.854 104.115 354.529 102.09 355.444 99.39C355.879 97.14 356.344 94.455 356.794 93.105H381.049ZM372.289 129.105C374.074 134.505 375.424 141.705 376.324 150.705C376.759 152.055 376.999 153.18 376.999 154.08H362.854C362.854 153.18 362.629 152.055 362.179 150.705C362.179 147.555 361.504 142.155 360.154 134.505V160.83H376.999V123.03H360.154V129.105H372.274H372.289ZM372.964 185.805C375.199 193.455 376.549 200.205 376.999 206.055V178.38H360.154V185.805H372.949H372.964ZM471.994 222.93C471.994 225.63 473.104 226.98 475.369 226.98C477.154 226.98 478.069 225.63 478.069 222.93V216.855H491.539V226.98C491.974 238.68 486.154 244.305 474.019 243.855H465.259C452.224 244.305 445.939 237.78 446.389 224.28V159.48H434.929V171.63C434.929 193.68 432.679 210.105 428.194 220.905C423.694 230.805 414.484 240.255 400.579 249.255V229.68C406.414 220.23 409.099 201.33 408.664 172.98V140.58H471.994V222.93ZM401.929 106.155H426.859V93.12H457.174V106.155H484.129V125.73H401.944V106.155H401.929Z" fill="white"/>
<path d="M507.033 176.175V160.65C525.573 155.7 538.518 146.925 545.853 134.325H576.918C564.408 159.975 541.113 173.925 507.033 176.175ZM651.978 106.65V137.7H625.443V125.55H534.198V137.7H507.663V106.65H563.313V93.105H596.958V106.65H651.963H651.978ZM651.978 226.8V245.025H507.678V226.8H564.618V194.4H525.798V174.15H633.213V194.4H594.393V226.8H651.978ZM651.978 176.175C617.898 173.925 594.603 159.975 582.093 134.325H613.158C620.493 146.925 633.423 155.7 651.978 160.65V176.175Z" fill="white"/>
<path d="M715.686 222.255C704.901 228.105 692.421 232.38 674.901 235.08V212.805C678.036 212.805 679.746 212.355 683.346 211.455V140.58H674.586V121.68H683.346V93.105H708.276V121.68H715.371V140.58H708.276V205.38C710.976 204.945 713.436 204.03 715.686 202.68V222.255ZM743.301 133.83V151.38H770.916V210.78C771.351 224.73 765.531 231.705 753.396 231.705H741.936V213.48H744.636C748.671 213.93 750.471 211.905 750.021 207.405V169.605H743.286V192.555C743.721 219.555 733.401 238.455 712.296 249.255V231.705C717.231 224.505 719.481 213.255 719.031 197.955V114.93H771.576V93.105H796.506V114.93H803.241V96.03H823.446V114.93H830.181V133.83H796.491C796.491 151.83 797.166 167.58 798.516 181.08C802.551 170.28 805.251 157.905 806.601 143.955H830.181C824.346 175.455 815.361 199.08 803.241 214.83C805.941 225.195 809.526 230.13 814.026 229.68C816.726 229.68 818.061 226.53 818.061 220.23H834.231C834.666 239.13 827.931 248.355 814.026 247.905C802.341 247.905 793.356 242.505 787.071 231.705C781.221 237.105 774.276 242.73 766.191 248.58V229.005C771.576 223.605 776.301 218.43 780.336 213.48C779.886 212.13 779.436 209.88 778.986 206.73C778.536 205.38 778.311 204.255 778.311 203.355C774.711 179.955 772.686 156.78 772.251 133.83H743.286H743.301Z" fill="white"/>
<path d="M171.019 123.375V106.635H189.634V93.1196H214.024V106.635H230.704V115.68C232.099 112.125 235.204 105.765 235.744 102.3H253.804V98.2946H314.119V109.695C314.119 116.505 313.594 123.33 312.469 130.05C310.144 143.85 307.264 153.81 303.859 159.96C311.554 170.655 315.409 181.995 315.409 193.965C315.409 215.775 304.279 226.695 282.049 226.695V207.45C288.889 207.03 292.309 201.675 292.309 191.415C292.729 180.72 288.874 170.46 280.759 160.62C285.034 149.505 287.599 135.6 288.454 118.905H278.824V248.025H253.804V118.665C249.214 126.36 245.884 130.44 241.609 136.845H250.594V156.255H227.764C223.909 160.53 222.289 162.3 217.159 165.72H246.109V227.475C246.109 238.455 237.199 247.365 226.219 247.365H176.164V187.545C173.329 190.455 171.949 191.34 165.904 194.61V174.72C178.309 168.735 189.214 163.98 198.634 156.27H166.549V136.86H189.649V123.39H171.034L171.019 123.375ZM199.249 183.045V194.595H223.639V183.045H199.249ZM223.639 217.695V211.275H199.249V222.825H218.494C222.349 222.825 224.044 221.115 223.624 217.695H223.639ZM215.944 136.845L216.589 136.2C220.864 131.07 223.864 126.795 225.574 123.36H214.024V136.83H215.944V136.845Z" fill="white"/>
<path d="M1.025 117.57H13.04V154.23H0.5V172.485H13.04V225.165C12.905 225.195 12.725 225.225 12.62 225.24C7.805 226.41 0.89 226.455 0.89 226.455V246.57C29.555 243.255 46.655 234.99 46.655 234.99V217.305C46.07 217.92 41.36 219.165 35.6 220.5V172.485H46.655V154.23H35.6V117.57H50.045V98.6851H1.025V117.57Z" fill="white"/>
<path d="M111.561 151.44V147.435H130.326C139.926 148.335 144.426 140.355 143.856 123.54V97.0796H57.4559V147.435H90.6209V151.44H50.0459V170.835H151.266V151.44H111.561ZM75.3509 112.245H125.961V117.555H75.3359V112.245H75.3509ZM75.3509 132.825V128.175H125.526C125.241 131.73 123.636 133.275 120.726 132.825H75.3509Z" fill="white"/>
<path d="M140.359 188.1V174.06H60.9336V214.47H93.2286V221.565C93.5136 227.505 91.9236 230.25 88.4286 229.785H83.1936V246.915H96.2886C106.759 247.365 111.844 239.835 111.559 224.31V214.47H127.699C137.899 214.125 140.929 204.09 140.359 188.1ZM118.099 200.31H79.2636V188.415H122.029V189.78C121.819 195.105 123.154 200.535 118.099 200.31Z" fill="white"/>
<path d="M134.241 217.935H115.476C121.866 235.815 133.371 245.475 149.946 246.885V232.755C142.971 229.935 137.736 224.985 134.241 217.92V217.935Z" fill="white"/>
<path d="M175.714 2.82027C175.504 3.28527 174.949 3.54027 174.124 3.54027C172.279 7.33527 169.459 11.9403 166.804 15.8403C172.894 15.7353 179.554 15.5253 186.109 15.3303C184.264 13.5303 182.314 11.8503 180.469 10.3653L185.224 6.63027C190.444 10.6203 196.849 16.4703 199.669 20.7603L194.389 25.0653C193.669 23.7753 192.589 22.3503 191.314 20.8653C177.544 21.5253 163.099 22.0503 153.874 22.3503C153.724 22.8603 153.259 23.1153 152.794 23.1753L150.649 16.2153L159.514 16.0653C162.634 11.4003 166.069 5.10027 168.064 0.0302734L175.699 2.85027L175.714 2.82027ZM158.299 48.7053V26.4303H192.004V48.4953H185.554V46.9653H164.464V48.7053H158.314H158.299ZM185.539 32.3103H164.449V40.9653H185.539V32.3103Z" fill="white"/>
<path d="M219.664 14.5503C222.274 15.8403 225.649 17.8353 227.299 19.4103L223.774 24.1203C222.244 22.5303 218.914 20.2353 216.304 18.8553L219.679 14.5503H219.664ZM220.789 1.08029C223.354 2.46029 226.684 4.62029 228.259 6.30029L224.569 10.9053C223.084 9.16529 219.859 6.81029 217.249 5.22029L220.789 1.06529V1.08029ZM217.459 45.0303C219.349 40.9803 221.974 34.4853 223.969 28.4403L228.829 31.5603C227.134 36.9903 225.034 42.7203 223.399 46.6653C223.714 47.0253 223.864 47.3853 223.864 47.7903C223.864 48.0003 223.804 48.2103 223.714 48.4053L217.459 45.0303ZM259.864 18.7053L262.894 17.7303C263.809 19.8303 264.739 22.5453 265.144 24.2853L261.859 25.3653C261.604 23.6253 260.734 20.8503 259.864 18.8103V26.5953H255.919V19.4253H255.814C255.244 21.6903 254.329 24.4503 253.099 26.1453C252.529 25.6803 251.509 24.9153 250.744 24.4053V26.1003H240.859V18.3753H250.744V23.5953C251.569 22.0653 252.184 19.8603 252.589 17.7603L255.919 18.7353V16.6353L252.844 16.7853C252.739 17.1903 252.379 17.4003 252.079 17.4453L250.849 13.0953L253.504 13.0503C254.014 12.4803 254.524 11.8803 255.094 11.2053C254.119 10.1853 252.949 9.06029 251.764 8.13029V8.70029H239.419V7.36529H239.059C237.934 9.00029 236.194 11.1603 234.499 13.0503L237.064 13.0053L236.449 11.3703L239.104 10.4553C239.929 12.1353 240.544 14.4453 240.799 16.0353H240.844V14.1903H250.684V17.0553H240.844V16.3953L238.024 17.4753C238.024 17.1153 237.979 16.7103 237.874 16.3053L236.284 16.4103V26.6553H232.444V19.9053C231.874 22.0503 230.899 24.5553 229.684 26.1453C229.069 25.5303 227.794 24.6603 227.014 24.1953C228.034 22.6653 228.814 20.1453 229.324 17.7903L232.444 18.7053V16.6653L229.429 16.8153C229.324 17.2203 229.024 17.4303 228.664 17.4753L227.434 13.1253H230.299C230.809 12.5103 231.319 11.8503 231.889 11.1753C230.764 9.99029 229.384 8.71529 228.049 7.74029L229.999 4.72529L230.614 5.13029C231.484 3.54029 232.354 1.69529 232.924 0.315293L236.974 2.46029C236.719 2.82029 236.254 2.92529 235.789 2.86529C235.174 4.03529 234.154 5.68529 233.179 7.12529L234.199 7.99529C235.024 6.82529 235.729 5.68529 236.344 4.66529L239.419 6.51029V5.53529H251.764V6.76529L253.144 4.71029L253.759 5.11529C254.734 3.52529 255.649 1.68029 256.219 0.300293L260.269 2.44529C260.014 2.80529 259.549 2.91029 259.099 2.85029C258.439 4.02029 257.359 5.67029 256.339 7.11029C256.744 7.47029 257.104 7.77029 257.464 8.13029C258.379 6.85529 259.264 5.56529 259.924 4.50029L263.869 6.85529C263.659 7.17029 263.254 7.26029 262.639 7.21529C261.409 8.91029 259.564 11.1153 257.779 13.0503L260.704 13.0053L259.939 11.3703L262.864 10.1403C263.884 12.0303 264.859 14.5503 265.219 16.1853L262.099 17.5653C262.054 17.1603 261.949 16.6953 261.799 16.2303L259.909 16.3803V18.7353L259.864 18.7053ZM258.064 38.1603L259.249 38.0103L262.729 38.9853C262.624 39.4503 262.474 39.8553 262.264 40.2153C260.839 48.1053 259.144 48.7203 252.694 48.7203C251.209 48.7203 249.409 48.6753 247.579 48.6153C247.519 47.2353 246.859 45.3903 246.049 44.1003C248.194 44.3553 250.459 44.4153 251.944 44.4153C254.809 44.4153 255.274 44.4153 256.084 42.0153H236.314L235.909 43.3503L230.434 42.6303C231.349 39.9753 232.324 36.1203 232.939 33.0003H253.939V31.3653H231.049V27.7803H259.624V36.5403H237.754L237.349 38.1753H258.094L258.064 38.1603ZM237.679 24.1203C237.469 22.6353 236.959 20.3403 236.449 18.4953L239.374 17.8353C239.944 19.5753 240.499 21.8253 240.709 23.3103L237.694 24.1353L237.679 24.1203ZM240.859 12.8553V9.99029H250.699V12.8553H240.859ZM250.339 1.29029V4.15529H241.324V1.29029H250.339ZM247.009 23.3103V21.0603H244.444V23.3103H247.009Z" fill="white"/>
<path d="M329.989 24.6906H305.659V48.7056H299.764V43.9356C294.334 44.6556 289.114 45.2106 285.484 45.6156C285.379 46.0806 285.019 46.3356 284.659 46.3956L282.919 40.5606L287.374 40.2456V24.6756H282.919V19.8156H329.989V24.6756V24.6906ZM323.179 2.20557V17.8806H289.729V2.20557H323.179ZM299.779 26.7456V24.6906H292.969V26.7456H299.779ZM299.779 33.1506V31.0056H292.969V33.1506H299.779ZM292.969 39.8556L299.779 39.3456V37.3956H292.969V39.8556ZM317.044 8.16057V6.21057H295.639V8.16057H317.044ZM317.044 13.8906V11.8956H295.639V13.8906H317.044ZM324.214 26.4456L328.009 27.8856C327.859 28.2906 327.649 28.3956 327.439 28.7106C326.164 33.1656 324.109 36.9606 321.394 40.1256C324.004 41.7606 327.034 43.0506 330.454 43.8606C329.164 44.9856 327.589 47.2356 326.824 48.6756C323.239 47.5956 320.059 46.0656 317.344 44.0106C314.884 45.9606 312.124 47.5506 309.094 48.7806C308.374 47.3406 306.889 45.1506 305.764 44.0106C308.434 43.1406 310.939 41.8056 313.144 40.1106C311.194 37.8006 309.559 35.1906 308.284 32.2806L311.554 31.3506H306.739V26.6406H323.179L324.199 26.4456H324.214ZM313.414 31.3656C314.329 33.2106 315.559 34.9506 316.999 36.4806C318.334 34.9506 319.459 33.1956 320.329 31.3656H313.414Z" fill="white"/>
<path d="M394.968 20.5956H376.578C379.593 31.2006 385.533 39.2406 396.093 42.7656C394.608 44.1006 392.613 46.8606 391.638 48.6606C381.798 44.8206 375.963 37.7556 372.228 27.8706C369.408 36.2706 363.873 43.8006 352.713 48.7056C351.798 46.9656 349.938 44.7156 348.198 43.3206C360.693 38.2506 365.508 29.9556 367.308 20.5806H349.173V14.2206H368.178C368.538 9.66062 368.478 5.01062 368.538 0.390625L376.683 0.900625C376.578 1.45563 376.113 1.81563 375.243 1.98063C375.198 5.92563 375.138 10.0656 374.778 14.2206H394.953V20.5806L394.968 20.5956Z" fill="white"/>
<path d="M474.636 3.84027H486.051V9.16527H474.636V11.2653H481.596V22.4853H445.086V11.2653H451.386V9.16527H440.121V3.84027H451.386V0.405273L458.811 0.765273C458.766 1.27527 458.346 1.59027 457.476 1.78527V3.84027H468.486V0.405273L475.956 0.765273C475.911 1.33527 475.551 1.59027 474.621 1.78527V3.84027H474.636ZM440.631 33.5403V24.3303H485.496V33.5403H479.451V28.9803H463.311C463.101 29.2353 462.741 29.3403 462.231 29.3403C461.766 29.8953 461.211 30.5103 460.701 31.0803H472.371L473.391 30.8703L477.546 32.8653C477.396 33.1803 477.141 33.3303 476.886 33.4803C471.606 42.4503 460.086 46.8453 447.636 48.7953C447.066 47.3103 445.836 45.0003 444.876 43.7253C449.286 43.2603 453.636 42.3903 457.476 41.1153C456.036 40.2003 454.401 39.2703 452.916 38.7153L456.711 35.6403C458.811 36.4053 461.211 37.6953 462.906 38.9253C465.006 37.8453 466.851 36.6153 468.276 35.2353H455.826C453.216 37.0803 450.036 38.8203 446.196 40.3053C445.431 39.0153 443.691 36.9753 442.566 36.1053C448.356 34.2603 452.661 31.6953 455.376 28.9953H446.421V33.5553H440.631V33.5403ZM455.436 18.5403V15.1653H450.516V18.5403H455.436ZM468.486 11.2653V9.16527H457.476V11.2653H468.486ZM465.621 18.5403V15.1653H460.551V18.5403H465.621ZM475.866 18.5403V15.1653H470.751V18.5403H475.866Z" fill="white"/>
<path d="M513.921 31.3953V21.2553C512.181 24.2703 510.186 26.8803 508.086 28.7253C507.216 27.3903 505.371 25.5003 504.141 24.4653C507.576 21.9603 510.906 17.4453 512.946 12.9453H505.416V7.72533H513.921V0.465332L521.091 0.885332C521.046 1.39533 520.686 1.65033 519.756 1.80033V7.74033H526.971V12.9603H519.756V14.8503C521.811 16.0803 526.716 19.5603 527.946 20.5353L524.721 25.4553C523.551 24.1803 521.601 22.3353 519.756 20.6403V31.3953H513.921ZM516.681 35.8053C515.241 39.9003 513.141 44.3553 509.871 47.2203L504.756 43.6353C507.681 41.2803 509.976 37.4403 511.206 33.6453L516.681 35.7903V35.8053ZM524.511 41.2353C524.511 42.6753 524.916 42.8703 527.226 42.8703H533.991C535.836 42.8703 536.136 42.3603 536.391 38.6103C537.621 39.5403 540.186 40.4553 541.821 40.7553C541.101 46.8453 539.466 48.2853 534.546 48.2853H526.461C519.906 48.2853 518.421 46.6503 518.421 41.3253V34.4103L525.636 34.8153C524.811 34.1553 523.941 33.4803 523.131 32.9253L527.181 29.7453C530.151 31.6353 533.736 34.5153 535.431 36.7053L531.081 40.1853C530.001 38.6403 527.961 36.7053 525.861 34.9653C525.711 35.3703 525.291 35.6253 524.526 35.7903V41.2203L524.511 41.2353ZM550.086 2.97033V30.7803H529.086V2.97033H550.086ZM544.191 10.8153V7.84533H534.666V10.8153H544.191ZM544.191 18.3903V15.3603H534.666V18.3903H544.191ZM544.191 25.9653V22.8903H534.666V25.9653H544.191ZM548.031 47.5353C546.546 44.2503 542.601 39.4953 538.806 36.1653L543.771 33.1503C547.551 36.3303 551.706 40.7853 553.446 44.2203L548.016 47.5503L548.031 47.5353Z" fill="white"/>
<path d="M618.454 39.4954H611.029C613.744 41.3854 617.074 43.9954 618.859 45.7954L614.344 48.7204C612.544 46.7704 608.764 43.6054 605.839 41.5054L609.124 39.5104H600.319L603.754 41.4604C603.604 41.6704 603.289 41.8204 602.884 41.8654C600.994 44.1154 596.839 47.1454 593.359 48.7354C592.429 47.7154 590.644 46.0804 589.414 45.1504C592.429 43.8754 595.759 41.5654 597.814 39.5254H591.049V34.6504H595.759V20.8354H591.859V15.9754H595.759V12.6904C595.099 13.6204 594.379 14.4304 593.614 15.1504C593.044 14.6404 592.174 13.9804 591.304 13.3054V13.9204H581.209L581.059 19.4554H587.254L590.269 19.5604C590.269 20.0704 590.269 20.7304 590.209 21.4054C589.954 38.3554 589.744 44.4454 588.424 46.2904C587.089 48.2854 585.454 48.8554 579.874 48.7054C579.769 47.0104 579.214 44.7154 578.389 43.2304C579.934 43.4254 581.314 43.4254 582.019 43.4254C582.679 43.4254 583.099 43.2754 583.504 42.6004C584.164 41.5804 584.419 37.1704 584.629 25.0354H580.729C580.069 34.0504 578.419 42.6004 574.129 48.6454C573.154 47.2054 571.309 45.3604 569.779 44.4004C574.849 37.3354 575.254 25.8604 575.419 13.9204H570.499V8.23535H578.284V0.465352L585.499 0.885352C585.439 1.35035 585.094 1.65035 584.164 1.80035V8.25035H591.289V9.93035C593.284 7.32035 594.769 3.84035 595.639 0.360352L601.894 1.95035C601.789 2.35535 601.384 2.56535 600.709 2.50535C600.394 3.52535 600.049 4.60535 599.629 5.62535H618.424V10.6354H597.124L596.404 11.8204L602.599 12.1804C602.554 12.6454 602.194 12.9004 601.324 13.0954V15.9604H607.984V11.7604L614.944 12.1654C614.899 12.6304 614.539 12.9304 613.609 13.0804V15.9454H617.554V20.8054H613.609V34.5904H618.424V39.4654L618.454 39.4954ZM608.014 20.8504H601.354V22.8454H608.014V20.8504ZM601.354 26.6854V28.6804H608.014V26.6854H601.354ZM601.354 32.5804V34.6204H608.014V32.5804H601.354Z" fill="white"/>
<path d="M655.07 25.7554L652.925 26.0104V43.4704C652.925 47.9254 651.035 48.6903 645.395 48.6903C645.245 47.4003 644.63 45.3604 643.955 44.0854C644.93 44.1304 645.845 44.1904 646.565 44.1904C648.2 44.1904 648.41 44.1904 648.41 43.3654V26.6254L642.725 27.2854C642.68 34.1554 642.065 43.0053 639.035 48.7953C638.21 48.0303 636.215 46.8454 635.15 46.3954C637.76 41.1754 638.27 33.9004 638.33 27.8104L637.415 27.9154C637.31 28.3804 636.905 28.5754 636.5 28.6354L635.375 23.3554L638.345 23.1604V7.27535H642.545C643.01 5.07035 643.415 2.35535 643.565 0.360352L650.015 1.53035C649.865 1.89035 649.445 2.14535 648.74 2.19035C648.335 3.63035 647.72 5.52035 647.105 7.26035H652.94V21.8704L654.995 21.6754L655.1 25.7704L655.07 25.7554ZM642.725 11.9254V22.7854C644.525 22.6354 646.46 22.4704 648.41 22.2754V11.9404H642.725V11.9254ZM644.465 21.0904C644.42 19.2904 643.7 16.4854 642.935 14.4304L646.01 13.4104C646.925 15.4654 647.645 18.1654 647.81 19.9654L644.48 21.0904H644.465ZM647.69 28.3054C647.63 28.6654 647.375 28.9204 646.775 28.9654V39.9304H644V28.0504L647.69 28.3054ZM680.975 43.0504H684.05V47.6554H653.69V43.0504H656.87V29.4754H680.99V43.0504H680.975ZM659.78 26.9254V28.0504H655.58V2.10035H670.07V6.04535H665.915V9.06035H669.605V15.0004C671.3 11.5204 672.215 5.83535 672.725 0.405352L678.71 1.69535C678.605 2.05535 678.2 2.31035 677.585 2.31035C677.375 3.84035 677.18 5.43035 676.865 6.96035H683.885V11.5654H675.89C675.23 14.1304 674.405 16.5304 673.385 18.3304C672.515 17.5504 670.82 16.5904 669.59 15.9154V19.8154H665.9V22.9354H670.655V26.9254H659.75H659.78ZM661.985 6.03035H659.78V9.04535H661.985V6.03035ZM665.525 12.6904H659.795V16.2304H665.525V12.6904ZM661.985 22.9354V19.8154H659.78V22.9354H661.985ZM661.475 34.0954V43.0504H663.725V34.0954H661.475ZM669.92 34.0954H667.67V43.0504H669.92V34.0954ZM671.555 24.3154V19.6504H682.97V24.3154H671.555ZM676.115 34.0954H673.865V43.0504H676.115V34.0954Z" fill="white"/>
<path d="M24.6796 342.286H17.0746V331.906H0.139648V326.581L15.4096 300.331H24.6796V325.696H29.5096V331.906H24.6796V342.286ZM7.47465 325.696H17.0746V315.256C17.0746 312.811 17.2396 310.156 17.4046 307.651H17.1796C15.9046 310.321 14.8996 312.646 13.6246 315.031L7.45965 325.576V325.681L7.47465 325.696Z" fill="white"/>
<path d="M45.5451 342.286V307.651H45.4401L38.2251 311.431L36.4551 305.551L46.6701 300.331H53.5551V342.286H45.5601H45.5451Z" fill="white"/>
<path d="M90.3955 342.286H82.7905V331.906H65.8555V326.581L81.1255 300.331H90.3955V325.696H95.2255V331.906H90.3955V342.286ZM73.1905 325.696H82.7905V315.256C82.7905 312.811 82.9555 310.156 83.1205 307.651H82.8955C81.6205 310.321 80.6155 312.646 79.3405 315.031L73.1755 325.576V325.681L73.1905 325.696Z" fill="white"/>
<path d="M100.505 300.331H126.65V305.431L110.78 342.286H102.35L118.28 307.201V307.096H100.52V300.331H100.505Z" fill="white"/>
<path d="M184.371 321.585V327.855H170.601V347.4H163.941V327.855H151.281L152.106 332.85C146.001 335.235 139.506 337.62 135.231 339.06C135.171 339.615 134.781 340.005 134.346 340.11L131.466 332.73C133.461 332.235 135.906 331.56 138.621 330.795V314.64H132.681V308.37H138.621V295.545L146.496 295.995C146.436 296.55 146.046 296.88 145.056 297.045V308.37H150.666V314.64H145.056V328.845L149.946 327.345V321.57H163.941V303.75H151.731V297.54H182.976V303.75H170.601V321.57H184.371V321.585ZM155.946 320.535C155.616 317.04 154.116 311.595 152.391 307.545L157.941 305.88C159.831 309.93 161.436 315.15 161.886 318.705L155.946 320.535ZM183.696 308.1C183.471 308.49 182.976 308.655 182.136 308.655C181.026 312.375 179.076 317.43 177.471 320.7C177.411 320.64 172.581 318.705 172.581 318.705C174.021 315.15 175.641 309.6 176.466 305.61L183.681 308.115L183.696 308.1Z" fill="white"/>
<path d="M208.849 310.981H203.524L209.569 313.096C209.404 313.651 208.789 313.816 208.069 313.756C206.899 316.081 205.519 318.481 204.019 320.806L206.299 321.256C206.194 321.751 205.744 322.141 204.799 322.261V347.296H198.244V328.591C196.474 330.646 194.629 332.476 192.799 334.081C191.689 332.806 189.364 330.586 187.909 329.476C193.399 325.261 198.949 317.716 202.069 310.501L202.234 310.561V306.961H189.919V300.571H202.234V295.081L210.334 295.471C210.274 296.026 209.839 296.356 208.834 296.581V300.571H220.654V295.081L228.754 295.471C228.694 296.086 228.304 296.356 227.314 296.581V300.571H239.524V306.961H227.314V311.131H220.654V306.961H208.834V311.011L208.849 310.981ZM221.614 337.681C221.614 340.186 222.004 340.516 224.449 340.516H231.769C234.094 340.516 234.484 339.181 234.829 332.251C236.329 333.361 239.104 334.471 240.874 334.921C240.094 343.966 238.324 346.681 232.384 346.681H223.609C216.829 346.681 214.999 344.626 214.999 337.696V311.836L223.099 312.286C223.039 312.781 222.604 313.171 221.599 313.336V323.551C226.204 321.331 230.704 318.661 233.809 316.276L239.134 321.601C238.909 321.826 238.354 321.991 237.754 321.871C233.584 324.481 227.434 327.316 221.599 329.581V337.681H221.614Z" fill="white"/>
<path d="M247.429 297.166H295.219V347.401H288.724V345.406H253.699V347.401H247.429V297.166ZM253.699 339.406H288.724V303.166H253.699V339.406ZM283.174 325.306L287.719 328.366C287.494 328.636 287.059 328.801 286.339 328.696C285.124 329.521 283.174 330.691 281.449 331.696C283.504 332.701 285.784 333.466 288.049 334.021C286.879 334.966 285.379 336.901 284.614 338.191C280.504 336.916 276.514 334.636 273.289 331.861V338.191H267.454V332.476C264.394 334.246 261.019 335.806 257.734 336.916C257.014 335.866 255.409 333.916 254.464 332.926C258.964 331.591 263.734 329.491 267.394 326.881H259.294V317.671H282.769V325.666L283.159 325.336L283.174 325.306ZM286.729 312.151V315.931H255.589V312.151H268.084V310.036H258.484V306.376H268.084V303.826L275.584 304.276C275.524 304.726 275.134 305.056 274.144 305.221V306.391H283.909V310.051H274.144V312.166H286.744L286.729 312.151ZM264.859 320.866V323.581H276.964V320.866H264.859ZM275.014 326.866L274.684 327.196C275.464 328.021 276.454 328.801 277.519 329.521C278.734 328.741 280.069 327.751 281.299 326.851H275.029L275.014 326.866Z" fill="white"/>
<path d="M331.311 299.49H351.846V311.145H345.471V305.145H310.341V311.145H304.341V299.49H324.606V294.99L332.766 295.38C332.706 295.995 332.331 296.265 331.326 296.49V299.49H331.311ZM349.791 327.015V341.565C349.791 346.83 347.511 347.34 339.741 347.34C339.516 345.78 338.736 343.68 338.016 342.24C339.906 342.3 341.961 342.3 342.561 342.3C343.221 342.24 343.401 342.075 343.401 341.52V332.52H337.566C339.456 334.905 341.451 337.905 342.336 340.02L337.836 342.3C337.611 341.64 337.221 340.86 336.786 340.02C329.571 340.635 322.416 341.07 317.361 341.415C317.301 341.91 316.971 342.195 316.536 342.24L313.986 335.865C316.821 335.865 320.481 335.805 324.591 335.76V332.535H312.876V347.415H306.546V327.045H324.591V324.72H312.546V307.29H343.236V324.72H330.741V327.045H349.776L349.791 327.015ZM318.651 311.745V313.86H324.591V311.745H318.651ZM318.651 320.235H324.591V318.075H318.651V320.235ZM336.861 313.845V311.73H330.756V313.845H336.861ZM336.861 320.235V318.075H330.756V320.235H336.861ZM330.756 335.55L334.086 335.49C333.636 334.935 333.261 334.38 332.871 333.885L335.811 332.505H330.756V335.565V335.55Z" fill="white"/>
<path d="M382.983 327.195H367.713C367.383 334.02 366.153 342.015 362.718 347.46C361.668 346.35 358.893 344.235 357.438 343.47C361.158 337.47 361.488 328.755 361.488 322.275V308.07H382.968V327.225L382.983 327.195ZM384.423 297.66V303.66H358.953V297.66H384.423ZM376.548 313.98H367.833V321.255H376.548V313.98ZM411.243 314.04V320.415H405.918V347.445H399.318V320.415H392.763C392.313 329.025 390.273 339.84 382.773 347.22C381.888 345.84 379.383 343.56 377.838 342.72C385.608 334.89 386.388 324.015 386.388 315.75V300.48L390.333 301.425C395.778 299.865 401.328 297.765 404.823 295.65L410.988 300.87C410.658 301.2 410.103 301.2 409.428 301.2C405.153 303.195 398.883 305.19 392.883 306.75V314.025H411.258L411.243 314.04Z" fill="white"/>
<path d="M439.939 298.215H442.489V346.515H439.939V298.215Z" fill="white"/>
<path d="M510.832 298.725H522.712V304.335H510.832V306.45H504.337V304.335H491.077V306.45H484.582V304.335H473.092V298.725H484.582V295.065L492.517 295.455C492.457 296.01 492.067 296.34 491.077 296.505V298.725H504.337V295.065L512.332 295.455C512.272 296.01 511.837 296.34 510.832 296.505V298.725ZM520.267 326.76V341.475C520.267 346.53 518.317 347.415 511.102 347.415C510.877 346.14 510.382 344.535 509.827 343.14L506.722 343.98C506.617 343.2 506.437 342.315 506.167 341.37C498.847 341.985 491.467 342.42 486.517 342.705C486.412 343.26 486.022 343.545 485.572 343.59L483.517 337.035C486.457 336.975 490.282 336.93 494.512 336.81V332.265H482.197V347.475H475.867V326.775H494.512V324.885H480.187V307.185H515.992V324.885H500.842V326.775H520.267V326.76ZM486.472 311.505V313.995H494.527V311.505H486.472ZM486.472 320.55H494.527V318.06H486.472V320.55ZM509.512 313.995V311.505H500.857V313.995H509.512ZM509.512 320.55V318.06H500.857V320.55H509.512ZM504.412 336.48C503.962 335.535 503.527 334.59 503.077 333.765L507.967 332.55C509.737 335.55 511.402 339.375 511.957 342.15C513.727 342.15 513.787 342.045 513.787 341.37V332.265H500.857V336.6L504.412 336.495V336.48Z" fill="white"/>
<path d="M580.714 321.585V327.855H566.944V347.4H560.284V327.855H547.624L548.449 332.85C542.344 335.235 535.849 337.62 531.574 339.06C531.514 339.615 531.124 340.005 530.689 340.11L527.809 332.73C529.804 332.235 532.249 331.56 534.964 330.795V314.64H529.024V308.37H534.964V295.545L542.839 295.995C542.779 296.55 542.389 296.88 541.399 297.045V308.37H547.009V314.64H541.399V328.845L546.289 327.345V321.57H560.269V303.75H548.059V297.54H579.304V303.75H566.929V321.57H580.699L580.714 321.585ZM552.289 320.535C551.959 317.04 550.459 311.595 548.734 307.545L554.284 305.88C556.174 309.93 557.779 315.15 558.229 318.705L552.289 320.535ZM580.039 308.1C579.814 308.49 579.319 308.655 578.479 308.655C577.369 312.375 575.419 317.43 573.814 320.7C573.754 320.64 568.924 318.705 568.924 318.705C570.364 315.15 571.984 309.6 572.809 305.61L580.024 308.115L580.039 308.1Z" fill="white"/>
<path d="M588.425 310.381C591.485 311.551 595.475 313.546 597.41 315.271L593.525 320.656C591.695 318.931 587.87 316.651 584.75 315.271L588.41 310.381H588.425ZM585.71 343.351C587.825 339.016 590.765 331.921 592.985 325.366L598.37 328.861C596.48 334.741 594.155 340.966 592.265 345.241C592.595 345.631 592.76 346.021 592.76 346.411C592.76 346.681 592.655 346.906 592.535 347.131L585.71 343.351ZM590.645 295.501C593.705 296.776 597.635 298.996 599.525 300.721L595.58 306.046C593.81 304.276 589.97 301.831 586.925 300.376L590.645 295.486V295.501ZM635.72 296.941V340.786C635.72 346.501 633.395 347.716 625.895 347.716C625.67 346.051 624.725 343.171 623.84 341.611C625.055 341.671 626.285 341.716 627.23 341.716C629.39 341.716 629.615 341.716 629.615 340.666V329.401H624.065C623.285 336.001 621.35 342.781 617.015 347.491C615.965 346.486 613.46 344.776 612.02 344.101C613.295 342.721 614.3 341.266 615.125 339.661H605.195V343.651H599.525V320.506H604.85V311.896H597.86V305.851H604.85V295.081L612.23 295.531C612.17 296.026 611.78 296.311 610.835 296.536V305.866H617.225V311.911H610.835V320.521H616.28V337.171C618.56 331.456 618.77 324.901 618.77 319.306V296.941H635.705H635.72ZM610.52 333.961V326.296H605.195V333.961H610.52ZM624.62 319.306C624.62 320.641 624.62 322.021 624.56 323.476H629.615V316.036H624.62V319.306ZM629.615 302.821H624.62V310.096H629.615V302.821Z" fill="white"/>
<path d="M661.64 338.85C661.415 339.12 661.025 339.3 660.59 339.3C660.485 339.3 660.32 339.3 660.14 339.24C656.48 341.85 650.93 344.73 646.16 346.56C645.05 345.345 642.995 343.23 641.66 342.18C646.325 340.74 651.71 338.235 654.815 335.805L661.64 338.865V338.85ZM671.015 315.81H693.11V321.03H642.38V315.81H664.19V312.975H649.31V296.775H686.06V312.975H670.46V313.035L672.515 313.095C672.455 313.65 672.02 313.98 671.015 314.145V315.81ZM685.385 335.685H671.12V341.685C671.12 346.74 668.96 347.295 659.24 347.295C658.91 345.69 658.13 343.635 657.35 342.195C658.745 342.255 660.29 342.3 661.565 342.3C663.95 342.3 664.445 342.3 664.445 341.415V335.7H650.285V322.875H685.37V335.7L685.385 335.685ZM655.685 300.885V302.94H679.325V300.885H655.685ZM655.685 306.765V308.88H679.325V306.765H655.685ZM656.69 327.465V331.08H678.665V327.465H656.69ZM687.545 346.62C684.545 344.46 678.38 341.295 673.61 339.345L678.05 335.85C682.595 337.575 688.925 340.455 692.315 342.675L687.545 346.62Z" fill="white"/>
<path d="M725.193 342.285H698.943V337.23L703.608 332.235C711.543 324.015 716.208 318.63 716.208 312.975C716.208 309.315 714.273 306.255 709.653 306.255C706.593 306.255 703.773 307.86 701.823 309.315L699.543 303.435C702.153 301.44 706.488 299.655 711.303 299.655C720.288 299.655 724.398 305.37 724.398 312.195C724.398 319.635 719.343 325.74 713.238 331.905L709.743 335.34V335.445H725.178V342.27L725.193 342.285Z" fill="white"/>
<path d="M731.314 322.53H746.524V328.185H731.314V322.53Z" fill="white"/>
<path d="M768.995 319.696C773.66 320.746 777.545 324.526 777.545 330.241C777.545 337.231 771.935 342.901 762.17 342.901C757.73 342.901 753.74 341.731 751.625 340.351L753.455 334.141C755.015 335.146 758.39 336.421 761.615 336.421C766.67 336.421 769.16 333.316 769.16 329.866C769.16 325.156 765.05 322.936 760.55 322.936H757.715V317.161H760.385C763.655 317.161 767.885 315.331 767.885 311.281C767.885 308.341 765.95 306.181 762.065 306.181C759.185 306.181 756.35 307.456 754.745 308.461L753.02 302.581C755.18 301.141 759.455 299.701 763.955 299.701C772.01 299.701 776.225 304.426 776.225 309.976C776.225 314.311 773.615 317.911 769.01 319.636V319.741L768.995 319.696Z" fill="white"/>
<path d="M835.386 327.856H812.526C812.361 328.906 812.196 329.971 811.971 330.961H824.856L826.236 330.856L830.016 331.411C829.956 331.966 829.911 332.581 829.746 333.136C828.576 347.626 827.586 347.626 815.766 347.401C815.661 345.676 814.986 343.351 814.041 341.851C816.366 342.076 818.646 342.121 819.651 342.121C820.476 342.121 821.031 342.016 821.481 341.566C822.096 341.011 822.531 339.451 822.921 336.076H810.381C808.326 340.846 804.381 344.791 796.011 347.401C795.396 345.841 793.731 343.411 792.411 342.181C802.731 339.466 805.011 334.576 805.956 327.856H796.416C795.576 334.576 793.641 341.671 789.201 346.786C787.986 345.616 785.091 343.786 783.486 343.066C789.756 336.076 790.371 325.921 790.371 318.481V305.986H830.496V319.366H817.341C817.116 319.696 816.681 319.921 815.961 320.026V322.801H835.446V327.856H835.386ZM835.056 297.601V303.541H785.271V297.601H835.056ZM809.301 319.351H796.866C796.866 320.461 796.806 321.631 796.761 322.786H809.301V319.351ZM823.896 310.861H796.866V314.356H823.896V310.861Z" fill="white"/>
</svg>
