<svg width="685" height="61" viewBox="0 0 685 61" fill="none" xmlns="http://www.w3.org/2000/svg">
<g filter="url(#filter0_d_1_264)">
<path d="M15.3051 18.09V21.735C16.8051 23.715 20.8701 29.715 21.8301 31.155C21.4551 31.74 21.0201 32.34 19.7901 33.885C18.9801 32.175 16.9551 28.695 15.2901 25.965V52.47H11.9751V26.07C10.1001 32.34 7.58008 38.43 4.95508 42.135C4.52008 41.175 3.66508 39.84 3.08008 39.03C6.45508 34.485 9.87508 25.695 11.5401 18.105H4.14507V14.73H11.9601V2.79L16.3551 3.105C16.2951 3.42 15.9801 3.69 15.2901 3.795V14.715H21.6051V18.09H15.2901H15.3051ZM19.8501 36.18C22.4151 34.515 26.3751 31.68 30.2301 28.785C30.2901 27.555 30.2901 26.325 30.2901 25.14V2.82L34.6851 3.09C34.6251 3.465 34.3701 3.735 33.6651 3.84V25.14C33.6651 34.83 32.6001 46.395 21.1851 52.65C20.7501 51.96 19.6851 50.67 18.9351 49.98C26.9601 46.125 29.3151 39.225 30.0201 32.415C27.1851 34.875 24.3951 37.185 22.4151 38.73C22.4751 39.165 22.2501 39.54 21.9801 39.75L19.8351 36.165L19.8501 36.18ZM24.2451 11.025C26.2851 14.505 28.4751 19.05 29.3301 22.05L26.4351 23.385C25.5801 20.34 23.4951 15.675 21.5601 12.195L24.2301 11.01L24.2451 11.025ZM42.6651 46.245C42.6651 48.225 42.9351 48.6 44.3301 48.6H49.1451C50.3751 48.6 50.5851 47.1 50.7051 41.805C51.5601 42.45 52.8501 43.035 53.8101 43.305C53.4951 49.68 52.6251 51.87 49.3701 51.87H43.8501C40.2651 51.87 39.2451 50.745 39.2451 46.2V2.835L43.7451 3.105C43.6851 3.48 43.3701 3.75 42.6801 3.855V28.965L44.2851 27.525C47.6001 30.36 51.7251 34.275 53.7051 36.78L51.4551 39.075C49.5801 36.66 45.8901 32.865 42.6801 30.03V46.245H42.6651ZM53.3151 12.465C53.1051 12.78 52.7301 12.9 52.1901 12.9C50.6901 16.005 48.2301 20.445 46.2501 23.34C46.1901 23.34 43.6851 22.005 43.6251 21.945C45.6051 18.945 48.0651 14.07 49.4001 10.59L53.3151 12.465Z" fill="white"/>
<path d="M72.2 5.23499H117.335V52.56H113.795V50.205H75.6199V52.56H72.2V5.23499ZM75.6199 46.89H113.795V8.56499H75.6199V46.89ZM96.605 33.18C97.79 34.575 99.2749 35.91 101.045 37.14C103.34 35.7 106.13 33.66 107.735 32.265L110.675 34.08C110.51 34.29 110.135 34.395 109.61 34.395C107.945 35.58 105.44 37.185 103.19 38.46C105.98 40.125 109.085 41.4 112.13 42.21C111.44 42.75 110.585 43.875 110.09 44.625C104.735 42.96 99.1099 39.6 95.4199 35.625V45.255H92.15V36.855C88.4 39.42 83.7949 41.625 79.5649 43.17C79.1299 42.585 78.1699 41.46 77.6449 40.92C82.6849 39.255 88.3999 36.48 92.3599 33.15H82.835V24.105H106.445V33.15H96.5899L96.605 33.18ZM110.84 18.99V21.45H78.4549V18.99H92.855V15.405H81.8299V12.99H92.855V9.71999L97.2499 10.035C97.1899 10.35 96.935 10.62 96.23 10.725V12.975H107.63V15.39H96.23V18.975H110.84V18.99ZM85.9399 26.325V30.93H103.175V26.325H85.9399Z" fill="white"/>
<path d="M148.79 17.07C148.415 15.36 147.395 12.735 146.375 10.59H143.915C142.355 13.215 140.54 15.615 138.77 17.445C138.08 16.86 136.835 16.005 135.98 15.57C139.145 12.57 142.25 7.545 144.065 2.565L148.13 3.9C148.025 4.275 147.545 4.44 147.005 4.38C146.57 5.445 146.045 6.57 145.505 7.65H160.34V10.59H149.96C150.875 12.405 151.625 14.445 152 15.84L148.79 17.07ZM180.755 35.115L181.565 35.055L183.65 35.37C183.65 35.745 183.545 36.12 183.485 36.495C182.09 49.98 181.025 50.205 174.815 50.205C173.585 50.205 172.145 50.205 170.585 50.1C170.525 49.035 170.15 47.685 169.565 46.725C172.235 47.04 174.815 47.04 175.715 47.04C176.675 47.04 177.215 46.98 177.65 46.56C178.505 45.81 179.09 43.56 179.69 38.265H162.875V52.56H159.335V39.33C153.98 44.685 145.85 49.23 138.62 51.585C138.08 50.73 137.06 49.395 136.31 48.69C143.21 46.77 151.025 42.795 156.065 38.25H144.665L144.08 40.23L140.54 39.69C141.665 36.27 143 30.855 143.855 26.625H159.32V20.79H140.96V17.685H180.26V29.73H162.86V35.085H180.74L180.755 35.115ZM159.335 29.76H146.75C146.375 31.53 145.895 33.405 145.46 35.115H159.32V29.76H159.335ZM169.46 3.855C169.355 4.23 168.92 4.335 168.395 4.335C167.915 5.46 167.375 6.585 166.79 7.65H185.855V10.59H173.06C174.455 12.405 175.685 14.445 176.33 15.945L173.165 17.235C172.475 15.42 170.87 12.735 169.145 10.59H164.975C163.265 13.155 161.225 15.465 159.14 17.115C158.495 16.53 157.265 15.615 156.41 15.135C160.055 12.345 163.43 7.59 165.29 2.55L169.46 3.84V3.855ZM162.875 20.82V26.655H176.735V20.82H162.875Z" fill="white"/>
<path d="M203.93 44.85H250.985V48.495H203.93V44.85ZM207.035 8.07001H247.985V11.715H207.035V8.07001ZM210.515 25.89H243.815V29.535H210.515V25.89Z" fill="white"/>
<path d="M318.26 10.44V13.98H295.835V14.04H296.645C296.585 14.415 296.27 14.685 295.58 14.79V21.69H313.145V41.01C313.145 45.24 311.435 45.555 301.37 45.555C301.205 44.49 300.56 42.99 300.08 41.97C303.935 42.075 307.205 42.075 308.21 42.075C309.17 41.97 309.44 41.76 309.44 41.01V25.215H295.58V52.725H291.83V25.215H278.825V45.78H275.18V21.69H291.83V13.98H269.555V10.44H291.83V2.56499L296.705 2.83499C296.645 3.26999 296.33 3.52499 295.58 3.64499V10.44H318.275H318.26Z" fill="white"/>
<path d="M361.88 12.57H381.905V37.785H378.215V34.62H361.88V52.44H358.13V34.62H342.02V38.04H338.435V12.555H358.13V2.75999L362.945 3.075C362.885 3.45 362.57 3.72 361.88 3.825V12.555V12.57ZM342.02 31.035H358.13V16.095H342.02V31.035ZM361.88 31.035H378.215V16.095H361.88V31.035Z" fill="white"/>
<path d="M400.79 42.24C404.54 37.47 406.355 29.385 407.105 22.38L410.585 23.13C409.73 30.3 407.96 39.03 404.06 44.22L400.79 42.24ZM416.105 17.94L420.815 18.255C420.755 18.63 420.5 18.9 419.795 18.945V45.45C419.795 47.97 420.38 48.45 423.485 48.45H434.03C437.345 48.45 437.885 46.47 438.26 36.885C439.175 37.575 440.615 38.22 441.68 38.55C441.14 48.78 439.97 51.825 434.135 51.825H423.215C417.65 51.825 416.09 50.43 416.09 45.405V17.94H416.105ZM435.32 15.21C431.09 12.165 423.11 8.145 416.525 5.835L418.775 3.045C425.3 5.295 433.28 9.195 437.57 12.045L435.32 15.21ZM448.865 42.615C447.575 36.885 443.51 28.425 438.86 22.215L442.07 20.655C446.945 26.865 451.07 35.16 452.45 40.95L448.865 42.615Z" fill="white"/>
<path d="M516.2 25.965C516.26 27.03 516.26 28.26 516.2 28.695L512.99 28.965V48.66C512.99 52.35 510.95 52.515 504.845 52.515C504.74 51.66 504.26 50.325 503.825 49.515C505.055 49.515 506.18 49.575 507.035 49.575C509.705 49.575 509.87 49.575 509.87 48.615V29.235C506.45 29.55 503.075 29.82 500.18 30.045C500.18 36.84 499.64 46.425 495.68 52.695C495.14 52.11 493.865 51.3 493.115 50.985C496.76 45.15 497.135 36.855 497.135 30.27L495.155 30.435C495.095 30.87 494.78 31.08 494.345 31.125L493.22 27.435L497.135 27.225V10.305H501.68C502.49 8.05499 503.39 4.94999 503.87 2.80499L508.265 3.98999C508.16 4.36499 507.785 4.52998 507.14 4.52998C506.6 6.19498 505.745 8.44499 504.89 10.305H512.975V26.205L516.185 25.995L516.2 25.965ZM500.195 13.275V26.985C503.195 26.82 506.51 26.61 509.885 26.4V13.29H500.195V13.275ZM504.425 15.69C505.97 17.985 507.365 21.105 507.8 23.19C506.3 23.835 505.76 24.045 505.235 24.255C504.8 22.17 503.525 19.005 502.07 16.65L504.425 15.69ZM506.885 31.53C506.825 31.845 506.57 32.115 505.925 32.175V44.385H503.465V31.32L506.885 31.53ZM536.27 46.14C536.27 48.435 536.33 48.765 537.5 48.765C540.125 48.765 540.5 48.765 540.71 47.1C540.815 46.29 540.875 44.43 540.92 41.955C541.61 42.6 542.69 43.08 543.59 43.395C543.425 50.565 542.675 51.795 539.195 51.795H536.675C532.76 51.795 532.76 49.545 532.76 45.75V24.33H523.07V33.21C523.07 39.255 522.155 47.235 516.86 52.53C516.275 51.885 514.82 50.82 514.025 50.445C519.05 45.465 519.65 38.61 519.65 33.105V21.12H536.24V46.125L536.27 46.14ZM543.17 11.775V15.045H514.91V11.775H526.895V2.99999L531.44 3.31499C531.38 3.62999 531.125 3.89999 530.375 4.00499V11.775H543.17Z" fill="white"/>
<path d="M580.055 14.34C579.95 14.715 579.575 14.985 578.93 15.03C577.49 22.8 574.535 28.515 562.445 31.47C562.07 30.555 561.155 29.175 560.465 28.47C571.49 26.055 574.325 21.24 575.345 13.86L580.055 14.34ZM586.37 36.345V47.535H608.585V50.91H560.78V47.535H582.68V36.345H566.57V33.03H603.14V36.345H586.385H586.37ZM565.595 12.63V19.965H562.01V9.315H582.68V2.79L587.45 3.105C587.39 3.48 587.075 3.75 586.385 3.855V9.315H607.265V19.965H603.575V12.63H565.625H565.595ZM588.89 13.44L593.495 13.71C593.435 14.085 593.18 14.355 592.43 14.46V24.255C592.43 25.545 592.805 25.815 595.16 25.815H603.245C604.955 25.815 605.285 25.335 605.435 22.17C606.185 22.71 607.625 23.19 608.645 23.4C608.21 27.84 607.145 28.965 603.665 28.965H594.83C590.06 28.965 588.89 28.005 588.89 24.3V13.425V13.44Z" fill="white"/>
<path d="M636.035 35.385C637.805 34.635 639.62 33.825 641.435 33.09L642.125 36.255C637.04 38.67 631.685 41.13 628.31 42.63C628.25 43.065 628.04 43.38 627.725 43.545L625.805 39.48C627.725 38.79 630.08 37.815 632.705 36.75V18.975H626.765V15.555H632.705V3.40501L637.1 3.67501C637.04 4.05001 636.725 4.32001 636.035 4.42501V15.555H641.495V18.975H636.035V35.415V35.385ZM663.815 15.045C664.13 22.485 664.775 29.505 665.75 35.28C668 30.99 669.77 26.175 671.045 20.88L675.215 21.9C675.11 22.275 674.735 22.485 674.03 22.485C672.32 29.07 669.905 35.01 666.695 40.05C668.03 45.72 669.74 49.305 671.78 49.305C672.965 49.305 673.55 46.41 673.76 40.05C674.51 40.8 675.635 41.655 676.43 41.97C675.785 50.22 674.72 52.68 671.345 52.725C668.18 52.725 665.825 49.245 664.175 43.575C661.505 46.995 658.4 49.89 654.86 52.2C654.38 51.555 653.255 50.43 652.505 49.905C656.675 47.34 660.215 43.8 663.155 39.57C661.715 32.88 660.86 24.21 660.485 15.045H646.295V22.59H655.34L656.09 22.53L657.755 22.635V23.82C657.545 36.24 657.32 40.47 656.36 41.805C655.235 43.245 653.9 43.245 651.485 43.245C650.57 43.245 649.61 43.185 648.65 43.14C648.545 42.225 648.275 40.89 647.795 40.095C649.73 40.26 651.545 40.26 652.235 40.26C652.925 40.26 653.3 40.2 653.63 39.72C654.17 38.91 654.38 35.445 654.545 25.635H646.295V27.615C646.295 35.325 645.335 45.765 639.44 52.725C638.9 52.035 637.505 50.91 636.71 50.475C642.335 43.95 642.92 34.74 642.92 27.615V11.655H660.32C660.26 8.76001 660.155 5.82001 660.155 2.88001L664.7 3.15001C664.64 3.58501 664.325 3.79501 663.575 3.90001C663.575 6.46501 663.575 9.09001 663.68 11.655H675.56V15.03H663.785L663.815 15.045ZM668.315 2.83501C670.94 4.71001 674.045 7.38001 675.545 9.31501L672.98 11.13C671.585 9.25501 668.48 6.48001 665.855 4.48501L668.315 2.82001V2.83501Z" fill="white"/>
</g>
<defs>
<filter id="filter0_d_1_264" x="0.910078" y="0.379995" width="683.35" height="60.175" filterUnits="userSpaceOnUse" color-interpolation-filters="sRGB">
<feFlood flood-opacity="0" result="BackgroundImageFix"/>
<feColorMatrix in="SourceAlpha" type="matrix" values="0 0 0 0 0 0 0 0 0 0 0 0 0 0 0 0 0 0 127 0" result="hardAlpha"/>
<feOffset dx="2.83" dy="2.83"/>
<feGaussianBlur stdDeviation="2.5"/>
<feComposite in2="hardAlpha" operator="out"/>
<feColorMatrix type="matrix" values="0 0 0 0 0.0313726 0 0 0 0 0.14902 0 0 0 0 0.388235 0 0 0 0.75 0"/>
<feBlend mode="normal" in2="BackgroundImageFix" result="effect1_dropShadow_1_264"/>
<feBlend mode="normal" in="SourceGraphic" in2="effect1_dropShadow_1_264" result="shape"/>
</filter>
</defs>
</svg>
