<svg width="463" height="40" viewBox="0 0 463 40" fill="none" xmlns="http://www.w3.org/2000/svg">
<path d="M21.18 13.78H37.6V17.5H0V13.78H16.13V12.04H4.67V8.52004H16.13V6.74004H2.4V3.02004H16.13V0.0400391L22.29 0.370039C22.25 0.780039 21.92 1.07004 21.17 1.16004V3.02004H35.03V6.74004H21.17V8.52004H32.84V12.04H21.17V13.78H21.18ZM31.31 19.2V34.59C31.31 38.98 29.12 39.26 21.46 39.26C21.21 38.06 20.55 36.41 19.97 35.29C21 35.33 22.16 35.37 23.16 35.37C26.26 35.37 26.26 35.33 26.26 34.54V32.97H11.17V39.18H6.21V19.19H31.31V19.2ZM26.26 22.76H11.17V24.58H26.27V22.76H26.26ZM11.16 29.75H26.26V27.85H11.17V29.75H11.16Z" fill="white"/>
<path d="M113.19 25.56V30.4H98.92V39.17H93.79V30.4H74.97V25.56H81.59V14.64H93.79V9.59H84.69C82.87 12.61 80.76 15.38 78.57 17.45C77.66 16.5 75.8 14.84 74.6 14.06C78.24 10.92 81.63 5.37 83.49 0L89.49 1.86C89.32 2.19 88.91 2.4 88.33 2.36C88 3.19 87.63 3.97 87.25 4.8H110.87V9.6H98.92V14.65H109.96V19.28H98.92V25.57H113.19V25.56ZM86.55 25.56H93.79V19.27H86.55V25.56Z" fill="white"/>
<path d="M175.9 11.58C176.27 15.8 176.93 19.89 177.72 23.37C179.42 20.47 180.78 17.29 181.77 13.9L187.48 15.51C187.4 15.88 186.98 16.13 186.32 16.09C184.67 21.05 182.39 25.52 179.58 29.41C180.78 32.43 182.19 34.29 183.63 34.29C184.66 34.29 185.24 32.1 185.49 26.84C186.52 27.96 188.18 29.16 189.5 29.65C188.67 37.34 187.06 39.21 183.21 39.21C180.31 39.17 177.96 37.06 176.1 33.58C173.99 35.77 171.63 37.72 169.03 39.29C168.33 38.26 166.75 36.35 165.76 35.4C168.86 33.7 171.68 31.39 174.07 28.57C172.5 23.81 171.51 17.81 170.97 11.57H158.48V15.75H166.51L169.07 15.83V17.32C168.9 26.67 168.66 30.39 167.71 31.67C166.51 33.2 165.27 33.57 160.06 33.45C159.94 32 159.44 30.06 158.69 28.86C160.22 28.98 161.63 29.03 162.29 29.03C162.83 29.03 163.2 28.91 163.53 28.53C163.98 27.95 164.15 25.8 164.27 20.3H158.48C158.31 26.34 157.36 34.24 153.56 39.25C152.77 38.3 150.75 36.6 149.67 35.98C153.27 31.14 153.56 24.02 153.56 18.65V6.82996H170.64C170.52 4.63996 170.43 2.39996 170.43 0.209961L176.68 0.539961C176.64 0.999961 176.27 1.23996 175.48 1.36996C175.44 3.18996 175.48 5.00996 175.56 6.82996H182.51C181.06 5.58996 179.08 4.13996 177.38 3.10996L180.48 0.209961C182.63 1.44996 185.49 3.30996 186.89 4.71996L184.74 6.82996H188.34V11.59H175.89L175.9 11.58Z" fill="white"/>
<path d="M250.12 15.47C250.74 17.33 251.49 19.07 252.35 20.72C254.46 19.31 256.73 17.62 258.27 16.17L262.61 20.1C262.44 20.27 262.11 20.35 261.78 20.35C261.66 20.35 261.49 20.35 261.32 20.31C259.71 21.51 257.06 23.16 254.78 24.45C257.26 27.64 260.45 30.12 264.46 31.61C263.34 32.6 261.85 34.55 261.11 35.91C253.33 32.48 248.74 25.53 246.01 16.55C244.89 17.34 243.69 18.04 242.41 18.74C247.75 22.5 249.9 27.34 249.9 31.32C249.9 36.08 246.88 39.26 242.12 39.26C241.13 39.26 239.97 39.22 238.81 39.18C238.73 37.86 238.35 35.91 237.49 34.46C238.9 34.63 240.14 34.67 241.13 34.67C242.12 34.67 242.99 34.55 243.61 33.88C244.4 33.34 244.85 32.23 244.85 30.78C244.85 30.28 244.81 29.75 244.68 29.21C240.13 32.68 233.84 35.95 228.46 37.77C227.88 36.57 226.85 34.75 225.85 33.67C231.77 32.18 238.8 28.75 242.89 25.31C242.64 24.94 242.35 24.57 242.02 24.19C238.5 26.51 233.58 28.86 229.69 30.27C229.15 29.15 228.12 27.46 227.21 26.51C231.1 25.56 236.1 23.57 239.33 21.59C238.96 21.3 238.54 21.01 238.13 20.72C235.36 21.88 232.38 22.83 229.53 23.53C229.03 22.58 227.92 20.72 227.21 19.81C231.64 18.9 236.31 17.41 240.07 15.47H233.41V11.25H255.58V15.47H250.08H250.12ZM231.92 8.72999V13.57H227.08V4.22H241.97V0.119995L248.22 0.449995C248.18 0.859995 247.89 1.11 247.1 1.24V4.22H262.32V13.57H257.23V8.72999H231.91H231.92Z" fill="white"/>
<path d="M299.89 27.14C302.25 24.08 303.7 19.32 304.36 14.69L309.12 15.89C308.33 20.77 307.05 26.07 304.57 29.29L299.9 27.14H299.89ZM316.93 32.06C316.93 34.05 317.26 34.38 319.25 34.38H325.17C327.11 34.38 327.44 33.22 327.73 27.26C328.89 28.13 331 28.96 332.36 29.29C331.78 36.74 330.37 39.05 325.53 39.05H318.62C313.45 39.05 311.96 37.52 311.92 32.35C309.27 34.17 306.42 35.78 303.4 37.19C302.74 36.03 301.21 34.21 300.17 33.22C304.43 31.4 308.36 29 311.92 26.31V11.58L318.04 11.91C318 12.37 317.71 12.61 316.92 12.74V22.05C323.12 16.18 327.88 9.30999 330.94 2.57L336.69 5.01C336.44 5.42 335.99 5.59 335.28 5.51C331.27 13.62 325.15 21.93 316.91 28.63V32.06H316.93ZM314.58 0.119995C318.63 1.44 323.39 3.76 326.16 5.66L322.85 10.09C320.2 8.02 315.4 5.5 311.35 4.13L314.58 0.119995ZM335.47 29.74C334.44 26.06 331.66 20.43 328.98 16.34L333.53 14.11C336.43 18.16 339.16 23.54 340.4 27.18L335.48 29.74H335.47Z" fill="white"/>
<path d="M413.74 16.7901H391.24C390.95 17.3701 390.62 17.9501 390.29 18.5301H409.86V39.2601H404.85V37.7701H389.75V39.2601H384.99V25.5301C383.13 27.4301 380.98 29.1301 378.54 30.5401C377.88 29.3801 376.39 27.5601 375.44 26.5701C379.78 24.2101 383.09 20.7801 385.57 16.8101H376.72V12.9201H387.68C387.93 12.3001 388.22 11.7201 388.47 11.1001H379.66V7.34006H389.79L390.29 5.56006C386.86 5.68006 383.38 5.73006 380.11 5.68006C380.07 4.60006 379.61 2.95006 379.2 1.96006C389.38 1.96006 401.41 1.46006 408.45 0.310059L411.47 3.99006C411.35 4.07006 411.14 4.11006 410.93 4.11006C410.76 4.11006 410.6 4.07006 410.39 4.03006C406.63 4.61006 401.79 5.06006 396.57 5.31006C396.4 5.56006 396.07 5.72006 395.54 5.72006C395.37 6.26006 395.25 6.80006 395.08 7.33006H411.46V11.0901H393.8C393.59 11.7101 393.34 12.2901 393.1 12.9101H413.74V16.8001V16.7901ZM404.85 24.0701V22.2901H389.75V24.0701H404.85ZM404.85 28.9901V27.1701H389.75V28.9901H404.85ZM389.75 34.0001H404.85V32.1001H389.75V34.0001Z" fill="white"/>
<path d="M454.9 31.85C454.9 29.66 456.68 27.84 458.87 27.84C461.06 27.84 462.8 29.66 462.8 31.85C462.8 34.04 461.06 35.86 458.87 35.86C456.68 35.86 454.9 34 454.9 31.85ZM456.55 24.82L455.52 3.52002H462.39L461.4 24.82H456.56H456.55Z" fill="white"/>
</svg>
