<svg width="798" height="50" viewBox="0 0 798 50" fill="none" xmlns="http://www.w3.org/2000/svg">
<path d="M50.0851 16.74H46.4701C45.4351 23.955 43.7401 30.09 41.0551 35.145C43.5301 38.445 46.6801 41.13 50.6401 42.93C48.9451 44.43 46.6651 47.37 45.5851 49.38C41.8651 47.37 38.8351 44.79 36.4051 41.7C33.2551 45 29.2951 47.625 24.2851 49.59C23.6101 47.835 21.7651 44.685 20.5651 43.2C25.6651 41.445 29.4901 38.76 32.3701 35.16C31.1251 32.64 30.1051 29.85 29.2201 26.91C28.7101 27.735 28.1401 28.515 27.5251 29.235C26.5951 28.095 24.7351 26.25 23.1901 24.9H18.6601V34.44L24.5401 33.3L25.2151 40.41C17.4751 42.27 9.18009 44.07 3.87009 45.21C3.76509 45.78 3.25509 46.08 2.79009 46.185L0.465088 37.68L3.51009 37.215V15.555L11.4001 15.975C11.3551 16.545 10.9351 16.845 10.0051 17.01V36.09L11.6551 35.775V10.05H1.8601V3.19501H25.5751V10.05H18.6601V18.15H23.7151V21.66C26.8651 16.395 28.8751 8.46 29.9101 0.464996L38.7751 2.22002C38.6251 2.73002 38.1001 3.045 37.2751 3.09C36.9151 5.355 36.4501 7.635 35.9401 9.84H50.0701V16.755L50.0851 16.74ZM33.9901 16.74L33.8401 17.205C34.5151 20.715 35.4451 24.06 36.6751 27.105C37.7551 24.06 38.4751 20.61 39.0001 16.74H34.0051H33.9901Z" fill="white"/>
<path d="M72.765 12.465L80.085 14.58C79.875 15.045 79.365 15.3 78.585 15.3C77.61 17.88 76.26 20.76 74.61 23.655L77.4 24.525C77.295 24.99 76.83 25.395 75.9 25.5V49.485H68.835V31.95C68.115 32.775 67.335 33.555 66.57 34.275C66 33.495 65.175 32.415 64.245 31.38C63.63 37.935 62.235 44.79 59.505 49.74C58.17 48.45 54.87 46.29 53.115 45.57C57.195 38.145 57.495 27.105 57.495 19.47V5.55003H75.96V0.494995L85.35 1.00504C85.305 1.57504 84.885 1.935 83.805 2.145V5.55003H102.105V12.465H72.765ZM64.83 12.465V19.53C64.83 21.435 64.785 23.61 64.68 25.875C67.83 21.96 70.305 16.755 71.595 12.465H64.845H64.83ZM82.26 39.435C81.585 36.81 79.68 32.73 77.88 29.745L83.865 27.315C85.83 30.15 87.735 33.96 88.56 36.6L82.275 39.435H82.26ZM102.375 18.96V25.815H97.635V41.7C97.635 47.73 95.985 49.635 85.26 49.635C85.005 47.565 84.015 44.475 83.04 42.465C85.47 42.57 88.35 42.57 89.235 42.57C90.06 42.57 90.375 42.315 90.375 41.595V25.815H78.255V18.96H90.375V13.185L99.135 13.545C99.09 14.115 98.73 14.475 97.635 14.685V18.96H102.375Z" fill="white"/>
<path d="M111.075 25.875C110.205 27.165 109.32 28.35 108.45 29.43C107.88 27.525 106.29 23.235 105.405 21.39C109.125 16.8 112.83 8.55001 115.05 0.615005L123.09 3.30002C122.88 3.76502 122.37 4.01999 121.545 3.97499C120.465 7.06499 119.28 10.17 117.93 13.2L119.685 13.77C119.535 14.235 119.07 14.64 118.185 14.805V49.665H111.075V25.89V25.875ZM155.265 16.02H153.465C152.745 23.7 151.5 30.465 149.19 36.075C150.885 39.165 153.06 41.85 155.895 43.71C154.605 45 152.49 47.835 151.56 49.59C149.13 47.685 147.18 45.36 145.575 42.675C143.565 45.405 141.195 47.73 138.195 49.59C137.325 48.15 135.105 45.465 133.71 44.28L134.49 43.815H126.96V47.625H120.57V23.91H125.205V16.17H119.685V9.465H125.205V1.17L133.455 1.63499C133.41 2.14499 132.99 2.505 132.015 2.67V9.48001H137.115V15.825C138.66 11.385 139.74 5.92499 140.37 0.554993L148.155 2.16C148.005 2.67 147.54 2.93999 146.76 2.93999C146.4 5.20499 145.935 7.53 145.425 9.795H155.28V16.035L155.265 16.02ZM130.26 37.47V30.195H126.96V37.47H130.26ZM135.825 23.91C135.21 23.235 134.535 22.62 134.025 22.155C135.165 20.55 136.14 18.495 136.965 16.17H132.015V23.91H135.825ZM136.755 42.165C138.975 40.305 140.73 37.935 142.125 35.205C141.045 32.055 140.22 28.755 139.605 25.455C139.29 25.965 138.93 26.49 138.57 27C138.165 26.43 137.49 25.665 136.77 24.885V42.165H136.755ZM143.715 16.065C144.075 19.11 144.585 22.26 145.32 25.395C145.89 22.5 146.295 19.365 146.55 16.005H143.76L143.715 16.05V16.065Z" fill="white"/>
<path d="M170.325 14.22L178.995 14.685C178.95 15.255 178.53 15.555 177.495 15.765V49.545H170.325V37.74H168.57C168.465 41.55 167.64 46.2 163.83 49.545C162.645 48.15 160.065 46.14 158.37 45.21C161.205 42.99 162.09 40.155 162.285 37.74H159.705V31.245H170.325V28.98H168V29.85H161.445V15.21L169.44 15.63C169.395 16.2 169.035 16.5 168 16.665V22.755H170.325V14.25V14.22ZM171.15 13.29V10.92H160.215V4.065H171.15V0.51001L180.12 0.975006C180.075 1.54501 179.61 1.90502 178.575 2.11502V4.08002H188.07V0.525024L197.1 0.990021C197.055 1.60502 196.635 1.92004 195.555 2.13004V4.09503H206.7V10.95H195.555V13.32H188.085V10.95H178.59V13.32H171.165L171.15 13.29ZM207.09 30.405H196.575V41.085H206.265V47.94H179.55V41.085H189.135V30.405H178.77V23.55H189.135V14.22L198.105 14.685C198.06 15.255 197.595 15.615 196.56 15.825V23.565H207.075V30.42L207.09 30.405Z" fill="white"/>
<path d="M247.47 36.33H240.405V10.185L236.535 15.6C235.71 14.775 234.675 13.905 233.49 12.975V15.495H221.835V13.635C220.755 14.715 219.57 15.75 218.28 16.785H237.975V33.9H221.625C221.58 34.365 221.475 34.83 221.37 35.295H238.845V49.32H232.35V48.09H225.435V49.425H219.195V42.93C218.37 44.94 217.335 46.845 216.045 48.495C215.07 47.25 212.385 44.775 211.095 44.01C215.58 38.025 216.045 29.625 216.045 23.745V18.435C215.64 18.75 215.22 19.005 214.755 19.305C214.035 17.61 212.13 14.76 210.84 13.53C217.035 9.86998 221.25 4.92001 223.635 0.480011L231.675 2.02501C231.525 2.53501 231.06 2.89499 230.28 2.89499L230.235 2.93999C234 5.00999 237.915 7.785 240.39 9.795V6.81001L248.955 7.27501C248.91 7.84501 248.49 8.14501 247.455 8.35501V36.3L247.47 36.33ZM222.195 28.86H231.315V27.465H222.285L222.18 28.86H222.195ZM231.315 21.9H222.39V23.19H231.315V21.9ZM230.235 10.605C229.05 9.78001 227.865 8.99999 226.68 8.23499C226.065 9.05999 225.435 9.84001 224.715 10.605H230.235ZM232.35 40.56H225.435V42.825H232.35V40.56ZM251.535 1.57498L260.355 1.93501C260.25 2.50501 259.89 2.90998 258.81 3.07498V40.77C258.81 47.16 257.205 49.44 245.82 49.44C245.565 47.325 244.485 43.92 243.45 41.76C246.285 41.91 249.27 41.91 250.305 41.91C251.175 41.91 251.55 41.595 251.55 40.725V1.59L251.535 1.57498Z" fill="white"/>
<path d="M281.19 22.725V24.84C283.77 26.7 288.615 30.66 289.86 31.755L285.63 38.25C284.49 36.75 282.84 34.845 281.19 33.045V49.5H273.87V33.315C271.905 37.185 269.64 40.785 267.27 43.365C266.55 41.145 264.75 37.95 263.505 35.94C266.91 32.64 270.21 27.48 272.37 22.74H264.735V15.825H273.87V10.83C271.35 11.445 268.815 11.97 266.34 12.375C265.98 10.725 264.9 8.145 264.075 6.645C271.095 5.25 278.565 2.98501 283.26 0.51001L289.395 6.13501C289.08 6.45001 288.675 6.45 287.85 6.45C285.945 7.32 283.68 8.14504 281.205 8.88004V15.84H289.605V22.755H281.205L281.19 22.725ZM300.48 7.30501C300.435 7.87501 300.015 8.23501 298.98 8.38501V36.33H291.705V6.84001L300.465 7.30501H300.48ZM303.63 1.575L312.6 1.98003C312.555 2.55003 312.195 2.955 311.055 3.12V40.665C311.055 47.625 309.045 49.53 297.03 49.53C296.715 47.37 295.53 43.86 294.45 41.745C297.705 41.895 301.11 41.895 302.235 41.895C303.21 41.895 303.63 41.58 303.63 40.605V1.575Z" fill="white"/>
<path d="M359.205 23.085L364.41 25.605C364.26 25.965 363.9 26.175 363.54 26.43C357.45 41.13 343.275 47.055 324.975 49.485C324.36 47.475 322.965 44.385 321.72 42.675C328.575 42.06 334.815 40.815 340.185 38.805C338.79 37.665 337.245 36.54 335.91 35.61L341.43 31.635C343.125 32.67 345.24 34.065 346.95 35.445C349.47 33.795 351.645 31.83 353.295 29.52H342.675C338.655 32.25 333.855 34.725 328.08 36.84C327.15 35.085 325.035 32.295 323.535 31.02C331.275 28.755 337.05 25.65 341.115 22.26V22.215C335.19 25.26 328.32 27.315 321.165 28.71C320.49 26.85 319.05 23.97 317.76 22.365C323.49 21.54 329.055 20.1 334.005 18.135C332.76 17.31 331.485 16.53 330.345 15.915L335.4 11.835C337.05 12.615 339.06 13.695 340.71 14.775C342.975 13.44 344.985 11.88 346.695 10.185H335.91C332.355 12.615 328.125 14.82 323.115 16.83C322.08 15.075 319.77 12.495 318.165 11.31C327.24 8.52001 333.435 4.45499 336.93 0.269989L345.855 2.13002C345.705 2.64002 345.135 3 344.31 3L343.275 4.08H352.035L353.22 3.82498L358.425 6.55499C358.215 6.91499 357.915 7.12502 357.495 7.33502C355.02 11.82 351.405 15.585 347.025 18.63L353.985 20.13C353.775 20.7 353.205 21.06 352.335 21.06C351.66 21.84 350.94 22.605 350.175 23.325H357.96L359.19 23.07L359.205 23.085Z" fill="white"/>
<path d="M383.175 49.44V26.55H403.65V49.245H396.18V47.85H390.255V49.455H383.19L383.175 49.44ZM396.165 33.705H390.24V40.665H396.165V33.705ZM419.58 2.20502V23.04H391.785V2.20502H419.58ZM411.9 15.915V9.36H399.015V15.915H411.9ZM407.31 26.535H428.295V49.02H420.765V47.775H414.48V49.215H407.31V26.52V26.535ZM414.48 40.62H420.765V33.705H414.48V40.62Z" fill="white"/>
<path d="M442.53 20.04C442.53 22.725 442.53 23.595 442.485 25.035H452.025V47.625H445.785V31.275H442.23C441.81 37.56 440.94 44.325 439.185 49.425C437.745 48.75 434.91 47.775 433.2 47.355C435.99 39.885 436.395 28.02 436.395 21V2.02501L443.925 2.42999C443.88 2.93999 443.46 3.25498 442.53 3.40498V13.725H445.26V0.525009L452.835 0.929993C452.79 1.43999 452.43 1.75498 451.44 1.90498V13.71H454.59V19.995H442.53V20.04ZM482.655 34.425V40.62H475.485V49.485H468.465V40.62H453.615V34.425H459.345C458.205 33.24 456.255 31.53 455.01 30.765C458.52 29.475 460.785 27.78 462.33 25.92H455.985V6.11998H462.69C463.47 4.25998 464.235 2.09998 464.655 0.449982L473.37 2.56499C473.16 3.02999 472.695 3.24001 471.87 3.24001C471.405 4.11001 470.79 5.14499 470.175 6.13499H481.005V25.935H469.77L469.2 27.015L476.985 27.435C476.94 28.005 476.52 28.305 475.485 28.47V34.455H482.655V34.425ZM468.48 28.185C466.875 30.615 464.4 32.775 460.695 34.425H468.48V28.185ZM462.555 11.625V13.425H465.135V11.625H462.555ZM462.555 20.385H464.88C464.985 19.77 465.03 19.155 465.09 18.525H462.57V20.385H462.555ZM474.15 20.385V18.525H471.36L471.21 20.385H474.15ZM474.15 13.425V11.625H471.36V13.425H474.15Z" fill="white"/>
<path d="M499.2 17.52L503.325 18.66C503.28 19.065 503.115 19.53 502.905 19.845C502.335 26.55 501.255 32.37 499.65 37.17C504.345 40.47 510.525 41.145 517.545 41.19C521.205 41.19 531.36 41.19 535.755 40.98C534.615 42.675 533.385 46.14 532.92 48.3H517.35C509.055 48.3 502.185 47.37 496.725 43.665C495.285 46.14 493.53 48.195 491.52 49.755C490.38 48.315 487.5 45.675 485.895 44.76C488.16 43.155 489.975 41.1 491.415 38.475C489.51 35.85 487.86 32.55 486.51 28.425L492.33 26.415C492.9 28.17 493.575 29.67 494.295 31.005C494.805 28.935 495.225 26.67 495.525 24.195H493.47L492.96 25.38L486.21 23.685C488.22 19.305 490.485 14.1 492.3 9.65999H486.42V3.16496H496.32L497.715 3.015L501.885 4.40999C501.735 4.76999 501.525 5.235 501.315 5.595C500.07 8.79 498.225 13.23 496.32 17.715H497.97L499.215 17.565L499.2 17.52ZM513.435 10.605V9.41998H504.975V3.855H513.435V0.404968L522.195 0.869965C522.15 1.43996 521.73 1.79997 520.695 1.94997V3.855H530.64V10.605H534.975V16.275H530.64V23.025H520.695V24.21H531.465V29.52H520.695V30.765H533.79V36.585H520.695V40.305H513.42V36.585H501.765V30.765H513.42V29.52H504.03V24.21H513.42V23.025H504.81V17.46H513.42V16.275H501.045V10.605H513.42H513.435ZM523.29 9.41998H520.71V10.605H523.29V9.41998ZM523.29 17.46V16.275H520.71V17.46H523.29Z" fill="white"/>
<path d="M559.53 9.06V14.88H538.845V9.06H559.53ZM581.445 22.47L586.185 24.27C586.08 24.675 585.825 24.885 585.57 25.2C584.07 30.825 581.655 35.415 578.355 39.18C581.25 40.83 584.595 42.12 588.255 42.99C586.605 44.49 584.445 47.535 583.41 49.44C579.33 48.195 575.73 46.455 572.58 44.175C569.325 46.395 565.56 48.15 561.285 49.44C560.565 47.64 558.915 44.805 557.565 43.155V46.92H547.455V48.72H541.17V30.825H557.565V42.795C561.015 41.97 564.165 40.725 566.895 39.075C564.885 36.81 563.175 34.275 561.69 31.44L568.14 29.37H560.205V22.665H562.32C561.135 21.375 559.02 19.62 557.625 18.75V22.005H541.38V16.44H557.625V18.3C561.795 15.315 562.215 11.385 562.215 8.03996V1.90497H580.26V12.885C580.26 14.43 580.305 14.58 580.725 14.58H581.295C581.805 14.58 582.015 13.905 582.12 9.675C583.41 10.755 586.29 11.835 588.15 12.3C587.535 18.945 585.825 20.865 582.06 20.865H579.33C574.635 20.865 573.24 18.96 573.24 12.975V8.48999H569.265C569.22 13.29 568.23 19.005 563.7 22.665H580.155L581.445 22.455V22.47ZM557.625 23.55V29.115H541.38V23.55H557.625ZM557.58 1.99496V7.56H541.545V1.99496H557.58ZM551.19 41.025V36.645H547.47V41.025H551.19ZM568.365 29.37C569.4 31.275 570.795 33.09 572.445 34.68C573.945 33.135 575.175 31.335 576.21 29.37H568.365Z" fill="white"/>
<path d="M607.68 33.135V39.885C611.13 41.025 614.745 41.025 623.775 41.025C629.505 41.025 637.08 40.98 640.995 40.77C639.855 42.465 638.625 45.93 638.16 48.195H617.94C608.715 48.195 602.475 47.055 598.35 41.445C597.885 44.7 597.27 47.685 596.49 50.01C595.155 49.185 592.515 48.105 590.865 47.535C592.515 42.375 593.085 33.045 593.235 24.435L600.765 25.575C600.66 26.085 600.255 26.355 599.52 26.4L599.37 30.165C599.835 31.86 600.45 33.315 601.125 34.5V22.125H591.84V15.525H600.87V11.715H593.19V5.26501H600.87V0.464996L609.18 0.929993C609.135 1.43999 608.715 1.8 607.74 1.965V5.26501H614.13V11.715H607.74V15.525H614.85V17.385C618.045 15.48 619.905 12.375 620.73 8.46002H615.885V2.26501H633.42L634.965 2.16L638.94 2.51999L638.79 4.48499C638.475 12.99 637.965 16.815 636.78 18.36C635.13 20.325 633.015 20.685 627.24 20.58C627.135 18.93 626.565 16.665 625.8 15.015C624.405 17.91 622.455 20.22 619.92 21.93H637.665V39.615H630.555V38.07H623.85V39.825H617.04V21.93H619.515C618.435 20.895 616.425 19.41 614.88 18.375V22.14H607.71V26.73H613.995V33.18H607.71L607.68 33.135ZM630.525 27.975H623.82V31.95H630.525V27.975ZM627.84 8.42999C627.48 10.59 626.865 12.555 626.085 14.355C627.015 14.4 627.84 14.46 628.515 14.46C630.84 14.46 631.14 14.46 631.5 8.42999H627.84Z" fill="white"/>
<path d="M687.255 3.58501C687 3.99001 686.43 4.19997 685.605 4.15497C684.57 5.38497 683.175 6.84 681.795 8.13H692.205V14.88H644.865V8.13H655.695C654.555 6.525 653.01 4.72499 651.615 3.32999L658.575 0.389999C660.735 2.295 663.27 5.08497 664.455 7.19997L662.235 8.13H675.39L673.065 7.15497C674.925 5.24997 677.145 2.45999 678.435 0.23999L687.255 3.58501ZM668.025 17.82V42.72C668.025 47.985 666.06 49.635 658.23 49.635C657.87 47.775 656.835 45 655.905 43.35C656.775 43.395 657.81 43.455 658.635 43.455C660.6 43.455 660.795 43.455 660.795 42.63V39.375H655.02V49.425H647.955V17.82H668.01H668.025ZM660.81 24.06H655.035V26.22H660.81V24.06ZM655.035 33.96H660.81V31.635H655.035V33.96ZM679.74 18.855C679.695 19.425 679.275 19.725 678.24 19.935V39.525H671.13V18.39L679.74 18.855ZM688.92 41.85C688.92 46.8 687.885 49.74 677.265 49.59C676.905 47.58 675.72 44.43 674.64 42.525C676.14 42.63 677.73 42.675 678.915 42.675C681.285 42.675 681.54 42.675 681.54 41.745V17.04L690.465 17.4C690.36 17.97 690 18.375 688.92 18.54V41.85Z" fill="white"/>
<path d="M715.5 11.745L721.59 13.395C721.38 13.86 720.915 14.07 720.15 14.07C719.58 15.72 718.755 17.79 717.93 19.53H723.6V26.28H696.885V19.53H702.15C702 17.73 701.43 15.045 700.71 13.08L706.695 11.835C707.565 13.845 708.3 16.575 708.495 18.435L703.8 19.515H712.305L711.63 19.305C712.455 17.19 713.43 14.1 713.895 11.73H697.86V5.27998H706.83V0.480011L715.59 0.945007C715.545 1.51501 715.125 1.87501 714.09 2.02501V5.27998H722.955V11.73H715.485L715.5 11.745ZM699.57 49.59V29.07H721.59V49.38H714.315V47.22H706.47V49.59H699.555H699.57ZM714.315 35.505H706.47V40.77H714.315V35.505ZM741.135 3.11998L745.83 4.81499C745.785 5.21999 745.62 5.53498 745.32 5.78998C743.925 10.275 742.17 15.645 740.055 21.21C744.285 26.475 745.62 30.03 745.62 33.225C745.62 43.44 738.66 43.545 735.765 43.545C735.255 43.545 734.685 43.545 734.16 43.5C734.115 41.7 733.335 38.865 732.255 36.9V49.485H724.935V3.39001H739.635L741.135 3.13499V3.11998ZM732.27 10.395V36.435C733.515 36.54 734.535 36.54 735.255 36.54C737.775 36.54 738.345 35.4 738.345 32.88C738.345 30.36 736.905 27.465 732.615 22.47C734.01 18.09 735.135 14.07 736.125 10.41H732.255L732.27 10.395Z" fill="white"/>
<path d="M785.73 19.215C787.485 17.82 789.075 16.38 790.47 14.835L797.175 19.11C796.92 19.365 796.5 19.53 796.035 19.53C795.825 19.53 795.63 19.485 795.36 19.425C794.07 20.76 792.63 22.05 791.13 23.235H797.115V29.055H782.625C781.695 29.565 780.765 30.09 779.79 30.6H792.84V49.575H785.16V48.285H768.24V49.575H760.92V38.025C757.98 38.895 754.995 39.675 751.995 40.35C751.38 38.745 749.835 35.805 748.74 34.26C752.82 33.48 756.945 32.46 760.905 31.275V30.6H763.065C764.505 30.135 766.005 29.625 767.445 29.055H750.63V23.235H768.42V21.48H756.195V15.915H768.42V14.22H753.105V2.05499H794.52V14.22H776.94C776.73 14.475 776.325 14.625 775.695 14.73V15.915H785.7V19.215H785.73ZM764.58 9.21002V6.99001H760.245V9.21002H764.58ZM785.16 35.565H768.51L768.255 35.67V37.065H785.175V35.565H785.16ZM768.24 43.14H785.16V41.535H768.24V43.14ZM771.39 6.99001V9.21002H775.77V6.99001H771.39ZM775.725 21.48V23.235H779.85C780.825 22.665 781.755 22.095 782.64 21.48H775.725ZM782.58 6.99001V9.21002H787.065V6.99001H782.58Z" fill="white"/>
</svg>
