<svg width="323" height="131" viewBox="0 0 323 131" fill="none" xmlns="http://www.w3.org/2000/svg">
<path d="M38.0068 109.8C35.8168 105.915 30.4918 102.945 30.4918 102.945C30.4918 102.945 31.2868 107.43 31.5868 110.235C31.6918 111.15 32.0068 112.11 32.4568 113.04C31.7068 112.41 30.9118 111.81 30.0868 111.285C28.8418 109.86 27.6568 108.39 26.5318 106.875C27.3868 104.805 28.9318 100.38 28.1218 97.0197C27.0868 92.6847 22.7818 88.3197 22.7818 88.3197C22.7818 88.3197 22.3018 92.8347 21.8218 95.5947C21.6568 96.4947 21.7018 97.4997 21.8818 98.5197C21.3118 97.6647 20.6968 96.8547 20.0218 96.1047C19.2268 94.4247 18.4918 92.7147 17.8468 90.9747C19.2418 89.2647 22.0018 85.4547 22.1518 81.9897C22.3468 77.5647 19.4068 72.1647 19.4068 72.1647C19.4068 72.1647 17.6968 76.3347 16.4668 78.8247C16.0618 79.6497 15.8218 80.6097 15.7168 81.6447C15.4468 80.8047 15.1318 79.9797 14.7568 79.1847C14.4268 77.1597 14.1718 75.1797 13.9768 73.2447C15.8218 71.9847 19.4518 69.1797 20.5468 65.9547C21.9718 61.7847 20.6368 55.7847 20.6368 55.7847C20.6368 55.7847 17.8318 59.2797 15.9568 61.3047C15.3418 61.9647 14.8468 62.8197 14.4568 63.7797C14.4268 62.5947 14.3068 61.3947 14.0518 60.2397C14.0068 60.0297 13.9618 59.8347 13.9018 59.6247C14.0368 58.2297 14.2168 56.8497 14.4268 55.4847C16.0768 55.0047 20.9218 53.3997 23.0068 50.4597C25.4218 47.0547 25.7668 41.2497 25.7668 41.2497C25.7668 41.2497 22.2718 43.6647 20.0068 44.9847C19.2718 45.4197 18.5818 46.0647 17.9668 46.8297C18.2518 45.7347 18.4618 44.6247 18.5368 43.4997C18.5818 42.9147 18.5668 42.3147 18.5068 41.6997C18.8518 40.9347 19.2118 40.1697 19.6018 39.4197C19.6618 39.3597 19.7368 39.2997 19.8268 39.2247C21.0568 39.2547 26.2918 39.2397 29.0818 37.0497C32.1118 34.6797 33.9268 29.6247 33.9268 29.6247C33.9268 29.6247 30.1768 30.8247 27.8068 31.4097C27.0268 31.6047 26.2618 31.9947 25.5118 32.5047C26.0518 31.6197 26.5168 30.6747 26.8768 29.7147C27.1018 29.1147 27.2518 28.4697 27.3718 27.7947C28.1068 26.9247 28.8868 26.0697 29.6818 25.2147C31.0168 25.6197 35.0968 26.7147 37.8268 25.6497C40.9768 24.4197 43.7368 20.6397 43.7368 20.6397C43.7368 20.6397 40.2718 20.6997 38.1268 20.5947C37.4218 20.5647 36.6718 20.6847 35.9218 20.9247C36.5968 20.3097 37.2118 19.6497 37.7518 18.9297C40.9018 14.7297 40.5268 5.89471 40.5268 5.89471C40.5268 5.89471 33.1768 10.7997 31.5868 16.5297C30.8968 19.0047 29.7718 22.7997 29.2618 24.4797C28.6768 25.0797 28.1068 25.6797 27.5518 26.3097C27.9118 20.8947 25.7668 14.4747 25.7668 14.4747C25.7668 14.4747 19.3318 22.2447 19.4068 29.0847C19.4368 31.8147 19.4068 35.9397 19.4068 38.1297C19.0318 38.8347 18.6718 39.5547 18.3268 40.2897C17.2318 34.3947 12.8518 28.0197 12.8518 28.0197C12.8518 28.0197 8.56182 38.0847 10.6768 45.1647C11.5768 48.1797 12.8968 52.8597 13.4968 54.9897C13.3318 55.7997 13.1968 56.5947 13.0618 57.4197C10.3318 51.6447 3.82181 46.2747 3.82181 46.2747C3.82181 46.2747 2.44182 57.7647 6.64182 64.3047C8.51682 67.2447 11.3968 71.8947 12.5068 73.7097C12.5818 74.5047 12.6568 75.2997 12.7618 76.0797C8.5768 71.2047 0.716797 67.8147 0.716797 67.8147C0.716797 67.8147 2.5918 79.2897 8.4118 84.4047C10.9768 86.6697 14.9368 90.2547 16.5568 91.7247C16.8268 92.4747 17.1268 93.2097 17.4118 93.9447C12.0718 90.4947 3.73181 89.4897 3.73181 89.4897C3.73181 89.4897 8.7118 100.02 15.6718 103.29C18.5218 104.625 22.8118 106.725 24.9868 107.79C25.4668 108.465 25.9468 109.125 26.4568 109.785C20.4418 108.18 12.6268 109.53 12.6268 109.53C12.6268 109.53 20.3068 118.26 27.8518 119.415C30.6418 119.835 34.7518 120.54 37.2568 120.96C41.0068 124.035 45.0718 126.645 49.3468 128.76C50.8768 128.7 52.3918 128.67 53.9218 128.655C48.7018 126.465 43.7518 123.495 39.2218 119.94C39.4618 117.765 39.7618 112.92 38.0218 109.845L38.0068 109.8Z" fill="white"/>
<path d="M285.176 109.8C287.366 105.915 292.691 102.945 292.691 102.945C292.691 102.945 291.896 107.43 291.596 110.235C291.491 111.15 291.176 112.11 290.726 113.04C291.476 112.41 292.271 111.81 293.096 111.285C294.341 109.86 295.526 108.39 296.651 106.875C295.796 104.805 294.251 100.38 295.061 97.0195C296.096 92.6845 300.401 88.3195 300.401 88.3195C300.401 88.3195 300.881 92.8345 301.361 95.5945C301.526 96.4945 301.481 97.4995 301.301 98.5195C301.871 97.6645 302.486 96.8545 303.161 96.1045C303.956 94.4245 304.691 92.7145 305.336 90.9745C303.941 89.2645 301.181 85.4545 301.031 81.9895C300.836 77.5645 303.776 72.1645 303.776 72.1645C303.776 72.1645 305.486 76.3345 306.716 78.8245C307.121 79.6495 307.361 80.6095 307.466 81.6445C307.736 80.8045 308.051 79.9795 308.426 79.1845C308.756 77.1595 309.011 75.1795 309.206 73.2445C307.361 71.9845 303.731 69.1795 302.636 65.9545C301.211 61.7845 302.546 55.7845 302.546 55.7845C302.546 55.7845 305.351 59.2795 307.226 61.3045C307.841 61.9645 308.336 62.8195 308.726 63.7795C308.756 62.5945 308.876 61.3945 309.131 60.2395C309.176 60.0295 309.221 59.8345 309.281 59.6245C309.146 58.2295 308.966 56.8495 308.756 55.4845C307.106 55.0045 302.261 53.3995 300.176 50.4595C297.761 47.0545 297.416 41.2495 297.416 41.2495C297.416 41.2495 300.911 43.6645 303.176 44.9845C303.911 45.4195 304.601 46.0645 305.216 46.8295C304.931 45.7345 304.721 44.6245 304.646 43.4995C304.601 42.9145 304.616 42.3145 304.676 41.6995C304.331 40.9345 303.971 40.1695 303.581 39.4195C303.521 39.3595 303.446 39.2995 303.356 39.2245C302.126 39.2545 296.891 39.2395 294.101 37.0495C291.071 34.6795 289.256 29.6245 289.256 29.6245C289.256 29.6245 293.006 30.8245 295.376 31.4095C296.156 31.6045 296.921 31.9945 297.671 32.5045C297.131 31.6195 296.666 30.6745 296.306 29.7145C296.081 29.1145 295.931 28.4695 295.811 27.7945C295.076 26.9245 294.296 26.0695 293.501 25.2145C292.166 25.6195 288.086 26.7145 285.356 25.6495C282.206 24.4195 279.446 20.6395 279.446 20.6395C279.446 20.6395 282.911 20.6995 285.056 20.5945C285.761 20.5645 286.511 20.6845 287.261 20.9245C286.586 20.3095 285.971 19.6495 285.431 18.9295C282.281 14.7295 282.656 5.89452 282.656 5.89452C282.656 5.89452 290.006 10.7995 291.596 16.5295C292.286 19.0045 293.411 22.7995 293.921 24.4795C294.506 25.0795 295.076 25.6795 295.631 26.3095C295.271 20.8945 297.416 14.4745 297.416 14.4745C297.416 14.4745 303.851 22.2445 303.776 29.0845C303.746 31.8145 303.776 35.9395 303.776 38.1295C304.151 38.8345 304.511 39.5545 304.856 40.2895C305.951 34.3945 310.331 28.0195 310.331 28.0195C310.331 28.0195 314.621 38.0845 312.506 45.1645C311.606 48.1795 310.286 52.8595 309.686 54.9895C309.851 55.7995 309.986 56.5945 310.121 57.4195C312.851 51.6445 319.361 46.2745 319.361 46.2745C319.361 46.2745 320.741 57.7645 316.541 64.3045C314.666 67.2445 311.786 71.8945 310.676 73.7095C310.601 74.5045 310.526 75.2995 310.421 76.0795C314.606 71.2045 322.466 67.8145 322.466 67.8145C322.466 67.8145 320.591 79.2895 314.771 84.4045C312.206 86.6695 308.246 90.2545 306.626 91.7245C306.356 92.4745 306.056 93.2095 305.771 93.9445C311.111 90.4945 319.451 89.4895 319.451 89.4895C319.451 89.4895 314.471 100.02 307.511 103.29C304.661 104.625 300.371 106.725 298.196 107.79C297.716 108.465 297.236 109.125 296.726 109.785C302.741 108.18 310.556 109.53 310.556 109.53C310.556 109.53 302.876 118.26 295.331 119.415C292.541 119.835 288.431 120.54 285.926 120.96C282.176 124.035 278.111 126.645 273.836 128.76C272.306 128.7 270.791 128.67 269.261 128.655C274.481 126.465 279.431 123.495 283.961 119.94C283.721 117.765 283.421 112.92 285.161 109.845L285.176 109.8Z" fill="white"/>
<path d="M119.504 25.3797V27.8847C116.084 39.9597 108.974 48.4797 98.2038 53.4447L97.6338 52.6347C101.774 49.7097 105.149 46.0497 107.789 41.6697C110.414 37.2447 112.319 32.4147 113.489 27.1947H99.6438L99.0738 25.3797H119.504ZM146.324 15.1047L151.154 19.7397C146.564 23.9997 141.404 27.6147 135.674 30.5847C140.189 37.9797 147.239 43.5147 156.854 47.1897L156.674 47.8797C155.429 48.1347 154.364 48.7347 153.479 49.6947C152.594 50.6547 151.979 51.8697 151.604 53.3247C147.974 51.0747 144.884 48.6297 142.334 45.9897C139.784 43.3197 137.474 39.8847 135.374 35.7147C133.319 31.4997 131.714 26.5497 130.544 20.8647V50.7447C130.544 53.1297 129.974 54.8997 128.849 56.0697C127.769 57.2397 125.429 57.9897 121.829 58.3197C121.529 56.1897 120.974 54.7497 120.134 53.9997C118.919 52.9947 116.879 52.2897 113.999 51.8697V50.9247C118.964 51.2997 121.979 51.4947 123.029 51.4947C124.079 51.4947 124.529 51.0147 124.529 50.0547V16.3497H108.929L108.359 14.5347H130.544V17.3547C131.594 21.9897 133.064 25.9947 134.999 29.3847C137.174 27.2097 139.319 24.7947 141.449 22.1097C143.579 19.3947 145.214 17.0547 146.339 15.0897L146.324 15.1047ZM116.069 1.25974L116.324 0.38974C125.144 0.47974 131.069 2.14474 134.114 5.39974C135.659 7.06474 136.049 8.63974 135.299 10.0947C134.714 11.3547 133.649 11.8347 132.104 11.5347C131.849 11.4447 131.609 11.3697 131.354 11.2797C130.064 9.64474 128.054 7.88974 125.339 6.01474C122.624 4.13974 119.534 2.54974 116.069 1.25974Z" fill="white"/>
<path d="M220.198 15.9748H226.018V28.0647C225.973 28.2747 225.493 28.5598 224.578 28.9348C223.663 29.2648 222.808 29.4747 222.013 29.5647L225.523 32.1897C225.058 32.7297 224.368 33.0898 223.453 33.2548V48.7947C223.408 49.0497 222.808 49.3797 221.638 49.7997C220.468 50.2197 219.448 50.4297 218.563 50.4297H217.558V48.3598H200.773V49.5447C200.773 49.7097 200.548 49.9348 200.083 50.2348C199.618 50.5198 199.003 50.8047 198.208 51.0447C197.458 51.2547 196.708 51.3598 195.958 51.3598H195.148V29.4898C194.518 29.6548 193.903 29.7898 193.273 29.8648C193.438 31.4548 192.973 32.5648 191.893 33.1798C190.843 33.8098 189.748 33.5698 188.578 32.4898C188.458 31.2748 188.158 29.8948 187.708 28.3498L184.258 29.3548V56.8047C184.258 56.9697 184.063 57.1647 183.688 57.3747C183.358 57.6297 182.833 57.8547 182.128 58.0647C181.423 58.2747 180.673 58.3797 179.878 58.3797H178.933V38.4598C178.603 38.7898 178.033 38.9998 177.238 39.0898C175.528 45.3148 173.248 50.1147 170.413 53.5047L169.408 53.0097C170.998 48.4197 172.033 42.8248 172.543 36.2248L178.933 37.4848V30.8998C175.543 31.7698 173.683 32.2648 173.353 32.3398C173.023 33.0448 172.483 33.4948 171.718 33.6598L169.528 27.7048C170.953 27.7048 172.888 27.6448 175.348 27.5098C178.978 20.9098 182.128 14.2948 184.813 7.64975L189.823 10.4698C186.478 16.2298 182.353 21.8997 177.418 27.4497C179.128 27.3597 182.368 27.1948 187.123 26.9548C186.538 25.4548 185.728 23.8048 184.678 22.0048L185.368 21.7498C188.578 23.2198 190.858 24.9897 192.193 27.0747V15.9898H220.198V15.9748ZM178.213 0.119751L183.658 2.81975C180.988 7.40975 178.513 10.8598 176.263 13.1548C178.273 14.7448 179.023 16.3948 178.513 18.1048C178.183 19.3648 177.403 20.0098 176.203 20.0398C175.498 20.0848 174.763 19.8298 174.013 19.2898C173.683 16.5298 172.153 13.7098 169.438 10.8298L170.068 10.3948C171.943 10.8898 173.518 11.4748 174.763 12.1498C176.023 8.42975 177.163 4.42475 178.213 0.119751ZM185.353 36.0148L186.103 35.7598C190.273 38.2648 192.553 41.0398 192.928 44.0998C193.183 45.9748 192.703 47.2947 191.488 48.0447C190.363 48.7197 189.238 48.4648 188.113 47.2948C188.113 44.0848 187.198 40.3198 185.353 36.0148ZM189.358 58.4397L188.788 57.5697C191.458 56.6097 194.158 55.2897 196.873 53.6247C199.633 51.9897 201.763 50.4297 203.263 48.9297L206.953 52.9948C202.528 55.7098 196.663 57.5247 189.343 58.4397H189.358ZM191.608 7.18475L191.113 5.36975H206.218V0.494751L211.978 1.18475V5.38475H228.073V7.19975H211.978V11.0248H226.018V12.8398H194.758L194.263 11.0248H206.233V7.19975H191.638L191.608 7.18475ZM219.733 27.8548L220.678 28.5448V27.1048H197.368V28.2298C197.368 28.3948 197.098 28.6198 196.558 28.9198L201.073 30.7348H216.988L219.748 27.8548H219.733ZM210.643 17.7748H207.508C207.208 19.4098 206.383 20.7448 205.003 21.7798C203.623 22.8298 201.238 23.6848 197.863 24.3448L197.368 23.7748V25.2748H220.678V23.0248C219.763 23.1448 218.398 23.2198 216.613 23.2198H214.168C212.698 23.2198 211.738 23.0098 211.288 22.5898C210.868 22.1248 210.658 21.2998 210.658 20.0848V17.7598L210.643 17.7748ZM203.128 17.7748H197.368V23.2948C199.408 22.6198 200.833 21.8548 201.628 20.9698C202.468 20.0998 202.963 19.0348 203.128 17.7748ZM200.743 35.9397H217.528V32.5498H200.743V35.9397ZM200.743 37.7548V41.1448H217.528V37.7548H200.743ZM200.743 46.5298H217.528V42.9598H200.743V46.5298ZM210.898 50.9097L211.213 49.9648C219.943 50.4598 225.163 51.9447 226.873 54.4197C227.713 55.6347 227.518 56.6697 226.303 57.5547C225.088 58.5147 223.753 58.6647 222.298 57.9897C221.923 57.8247 221.593 57.5847 221.293 57.2997C218.908 54.6297 215.443 52.4997 210.898 50.9097ZM220.678 17.7598H214.543V19.4548C214.543 19.7548 214.588 19.9498 214.663 20.0848C214.783 20.1748 215.038 20.2048 215.413 20.2048H218.608C219.028 20.2048 219.268 20.1898 219.358 20.1448C219.613 20.1448 219.943 20.0998 220.363 20.0248L220.678 17.7748V17.7598Z" fill="white"/>
<path d="M109.931 83.9248V85.0498C108.386 90.4948 105.176 94.3348 100.316 96.5848L100.061 96.2098C101.921 94.8898 103.451 93.2398 104.636 91.2598C105.821 89.2648 106.676 87.0898 107.201 84.7348H100.961L100.706 83.9098H109.916L109.931 83.9248ZM122.036 79.2898L124.211 81.3748C122.141 83.2948 119.816 84.9298 117.221 86.2648C119.261 89.5948 122.441 92.0998 126.776 93.7498L126.686 94.0648C126.116 94.1848 125.636 94.4548 125.246 94.8898C124.856 95.3248 124.571 95.8648 124.391 96.5248C122.756 95.5048 121.361 94.4098 120.206 93.2248C119.051 92.0248 118.016 90.4798 117.071 88.5898C116.141 86.6848 115.421 84.4498 114.896 81.8848V95.3698C114.896 96.4498 114.641 97.2448 114.131 97.7698C113.636 98.2948 112.586 98.6398 110.966 98.7898C110.831 97.8298 110.576 97.1848 110.201 96.8398C109.646 96.3898 108.731 96.0598 107.426 95.8798V95.4598C109.661 95.6248 111.026 95.7148 111.491 95.7148C111.956 95.7148 112.166 95.5048 112.166 95.0698V79.8598H105.131L104.876 79.0348H114.881V80.3098C115.346 82.3948 116.021 84.2098 116.891 85.7398C117.866 84.7648 118.841 83.6698 119.801 82.4548C120.761 81.2248 121.496 80.1748 122.006 79.2898H122.036ZM108.386 73.0348L108.506 72.6448C112.481 72.6898 115.151 73.4398 116.531 74.9098C117.221 75.6598 117.401 76.3648 117.071 77.0248C116.801 77.5948 116.321 77.8048 115.631 77.6698C115.511 77.6398 115.406 77.5948 115.286 77.5498C114.701 76.8148 113.801 76.0198 112.571 75.1798C111.341 74.3398 109.946 73.6198 108.386 73.0348Z" fill="white"/>
<path d="M155.366 79.6798H157.991V85.1398C157.976 85.2298 157.751 85.3648 157.346 85.5298C156.926 85.6798 156.551 85.7698 156.191 85.8148L157.781 86.9998C157.571 87.2398 157.256 87.4048 156.851 87.4798V94.4848C156.836 94.6048 156.551 94.7548 156.026 94.9348C155.501 95.1298 155.036 95.2198 154.646 95.2198H154.196V94.2898H146.621V94.8298C146.621 94.9048 146.516 95.0098 146.306 95.1448C146.096 95.2798 145.811 95.3998 145.451 95.5198C145.106 95.6098 144.776 95.6548 144.431 95.6548H144.056V85.7848C143.771 85.8598 143.486 85.9198 143.201 85.9498C143.276 86.6698 143.066 87.1648 142.571 87.4498C142.106 87.7348 141.596 87.6298 141.071 87.1348C141.011 86.5948 140.891 85.9648 140.681 85.2748L139.121 85.7248V98.0998C139.121 98.0998 139.031 98.2648 138.866 98.3548C138.716 98.4748 138.476 98.5648 138.161 98.6698C137.846 98.7598 137.501 98.8048 137.141 98.8048H136.721V89.8198C136.571 89.9698 136.316 90.0598 135.956 90.1048C135.176 92.9098 134.156 95.0848 132.881 96.5998L132.431 96.3748C133.151 94.3048 133.616 91.7848 133.841 88.7998L136.721 89.3698V86.3998C135.191 86.7898 134.351 87.0148 134.201 87.0448C134.051 87.3598 133.811 87.5698 133.466 87.6448L132.476 84.9598C133.121 84.9598 133.991 84.9298 135.101 84.8698C136.736 81.8998 138.161 78.8998 139.376 75.9148L141.641 77.1898C140.141 79.7848 138.266 82.3498 136.046 84.8548C136.811 84.8248 138.281 84.7348 140.426 84.6298C140.156 83.9548 139.796 83.2048 139.316 82.3948L139.631 82.2748C141.086 82.9348 142.106 83.7298 142.706 84.6748V79.6648H155.336L155.366 79.6798ZM136.421 72.5248L138.881 73.7398C137.681 75.8098 136.571 77.3698 135.551 78.4048C136.451 79.1248 136.796 79.8598 136.571 80.6398C136.421 81.2098 136.076 81.4948 135.521 81.5098C135.206 81.5248 134.876 81.4198 134.531 81.1648C134.381 79.9198 133.691 78.6448 132.461 77.3548L132.746 77.1598C133.601 77.3848 134.306 77.6548 134.861 77.9548C135.431 76.2748 135.941 74.4748 136.421 72.5248ZM139.646 88.7248L139.991 88.6048C141.881 89.7298 142.901 90.9898 143.066 92.3698C143.186 93.2248 142.961 93.8098 142.421 94.1548C141.911 94.4548 141.401 94.3498 140.891 93.8098C140.891 92.3548 140.471 90.6598 139.646 88.7248ZM141.461 98.8498L141.206 98.4598C142.406 98.0248 143.621 97.4248 144.851 96.6748C146.096 95.9398 147.056 95.2348 147.731 94.5598L149.396 96.3898C147.401 97.6198 144.746 98.4298 141.446 98.8498H141.461ZM142.481 75.7198L142.256 74.8948H149.066V72.6898L151.661 73.0048V74.8948H158.921V75.7198H151.661V77.4448H157.991V78.2698H143.891L143.666 77.4448H149.066V75.7198H142.481ZM155.171 85.0498L155.591 85.3648V84.7198H145.076V85.2298C145.076 85.3048 144.956 85.4098 144.716 85.5448L146.756 86.3698H153.941L155.186 85.0648L155.171 85.0498ZM151.076 80.5048H149.666C149.531 81.2398 149.156 81.8398 148.541 82.3198C147.911 82.7848 146.846 83.1748 145.316 83.4748L145.091 83.2198V83.8948H155.606V82.8748C155.186 82.9348 154.586 82.9648 153.776 82.9648H152.666C152.006 82.9648 151.571 82.8748 151.361 82.6798C151.181 82.4698 151.076 82.0948 151.076 81.5548V80.5048ZM147.686 80.5048H145.091V82.9948C146.021 82.6948 146.651 82.3498 147.011 81.9448C147.386 81.5548 147.611 81.0748 147.686 80.5048ZM146.606 88.7098H154.181V87.1798H146.606V88.7098ZM146.606 89.5348V91.0648H154.181V89.5348H146.606ZM146.606 93.4948H154.181V91.8898H146.606V93.4948ZM151.181 95.4748L151.316 95.0548C155.261 95.2798 157.616 95.9548 158.381 97.0648C158.756 97.6048 158.681 98.0848 158.126 98.4748C157.571 98.9098 156.971 98.9698 156.311 98.6698C156.146 98.5948 155.996 98.4898 155.861 98.3548C154.781 97.1548 153.221 96.1948 151.166 95.4748H151.181ZM155.591 80.5198H152.816V81.2848C152.816 81.4198 152.831 81.5098 152.876 81.5698C152.936 81.6148 153.041 81.6298 153.221 81.6298H154.661C154.856 81.6298 154.961 81.6298 155.006 81.5998C155.126 81.5998 155.276 81.5848 155.456 81.5398L155.591 80.5198Z" fill="white"/>
<path d="M172.091 74.3098H174.896V95.4598C174.896 96.5098 174.686 97.2898 174.251 97.7848C173.831 98.2948 172.946 98.6098 171.566 98.7148C171.476 97.7848 171.296 97.1848 171.026 96.8998C170.666 96.4498 170.006 96.1498 169.016 95.9998V95.5798C170.516 95.6998 171.431 95.7448 171.761 95.7448C172.151 95.7448 172.361 95.5498 172.361 95.1748V88.2448H168.911C168.536 92.7898 167.246 96.3148 165.071 98.8498L164.651 98.6248C165.251 97.1548 165.701 95.4148 166.001 93.3898C166.316 91.3498 166.496 89.6398 166.541 88.2448C166.601 86.8348 166.631 84.9448 166.631 82.5598V74.3098H172.121H172.091ZM168.986 87.4198H172.346V81.5698H169.091V82.5598C169.091 84.6748 169.046 86.2948 168.971 87.4198H168.986ZM172.346 75.0898H169.091V80.7448H172.346V75.0898ZM189.761 83.6248V84.8098C189.086 87.8998 187.961 90.5548 186.401 92.7748C187.811 94.0798 189.551 95.1598 191.606 96.0298L191.516 96.3448C190.346 96.4948 189.506 97.2448 188.996 98.5798C187.256 97.4098 185.891 96.1048 184.871 94.6798C183.491 96.1048 181.916 97.3048 180.116 98.2648L179.861 97.9048C181.421 96.6748 182.786 95.1148 183.926 93.2098C182.621 90.9298 181.736 88.0048 181.271 84.4498H179.711V97.9948C179.711 98.0848 179.621 98.1898 179.456 98.3098C179.306 98.4448 179.051 98.5648 178.691 98.6848C178.346 98.8048 177.986 98.8498 177.596 98.8498H177.176V74.3098H189.416V75.4648C189.371 77.2498 189.266 78.5848 189.071 79.4548C188.906 80.3098 188.591 80.8948 188.141 81.2398C187.496 81.6898 186.536 81.9148 185.261 81.9148C185.261 81.1798 185.096 80.6548 184.751 80.3548C184.406 80.0398 183.626 79.7698 182.411 79.5598V79.1398C182.651 79.1548 183.026 79.1848 183.521 79.2298C184.031 79.2448 184.466 79.2748 184.856 79.3198C185.246 79.3348 185.516 79.3498 185.651 79.3498C186.011 79.3498 186.251 79.2898 186.386 79.1548C186.656 78.9148 186.806 77.5648 186.866 75.1198H179.741V83.6548H189.776L189.761 83.6248ZM186.986 84.4498H181.811C182.411 87.1198 183.461 89.3848 184.946 91.2298C185.876 89.2198 186.551 86.9548 186.986 84.4498Z" fill="white"/>
<path d="M223.345 77.2197H220.6C219.79 79.1247 218.59 80.8047 217.015 82.2447C218.8 83.1147 221.065 83.7447 223.765 84.1347L223.705 84.4797C222.97 84.8247 222.52 85.6647 222.37 86.9997C219.415 86.1897 217.06 85.0497 215.335 83.5797C214.51 84.1647 213.58 84.7047 212.56 85.1847L215.215 85.5297C215.125 86.7897 215.005 87.7947 214.87 88.5597H221.395V89.7447C221.11 94.3197 220.39 97.0647 219.22 97.9647C218.425 98.5347 217.375 98.8197 216.085 98.8197C216.085 98.0097 215.92 97.4397 215.575 97.1247C215.185 96.7647 214.345 96.4647 213.085 96.2247V95.8047C214.99 95.9547 216.16 96.0297 216.595 96.0297C217.03 96.0297 217.36 95.9397 217.555 95.7747C218.155 95.2347 218.59 93.1047 218.86 89.3847H214.705C214.465 90.3897 214.135 91.3047 213.715 92.1597C213.325 93.0147 212.77 93.8547 212.08 94.7097C211.39 95.5647 210.475 96.3297 209.335 97.0197C208.225 97.7097 206.905 98.3247 205.405 98.8347L205.15 98.4147C208.915 96.5997 211.225 93.5997 212.08 89.3997H207.085L206.83 88.5747H212.23C212.395 87.5997 212.5 86.4897 212.545 85.2447C210.91 86.0247 209.035 86.6697 206.92 87.1947L206.725 86.8047C209.74 85.6797 212.2 84.2097 214.105 82.3947C213.16 81.3597 212.29 80.0247 211.51 78.4047C210.58 79.3497 209.56 80.1447 208.435 80.8047L209.335 82.7247C208.885 83.4447 208.285 84.1047 207.55 84.7347C206.815 85.3347 206.11 85.8297 205.465 86.2347L205.15 86.0397C205.75 84.8697 206.245 83.7147 206.62 82.5897H204.67V95.3697C204.67 96.4497 204.43 97.2597 203.965 97.8297C203.5 98.3997 202.525 98.7297 201.085 98.8497C201.04 97.9797 200.845 97.3497 200.485 96.9597C200.035 96.5097 199.21 96.1947 198.025 96.0297V95.6397C199.945 95.7747 201.1 95.8347 201.505 95.8347C201.73 95.8347 201.88 95.8047 201.955 95.7147C202.045 95.6247 202.09 95.4747 202.09 95.2947V87.8097C200.74 90.0747 199.06 92.0247 197.095 93.6597L196.72 93.2847C198.91 90.5547 200.53 86.9847 201.61 82.6047H197.32L197.065 81.8097H203.875C203.605 81.7797 203.38 81.6897 203.17 81.5847C202.615 80.1297 201.46 78.6897 199.69 77.2647L199.945 77.0397C201.49 77.2497 202.72 77.6397 203.62 78.1947C204.34 77.1897 204.97 76.1997 205.51 75.1947H197.77L197.515 74.3997H208.51V75.7047C207.25 76.7547 205.825 77.7297 204.235 78.6147C204.61 78.9297 204.88 79.2897 205.06 79.6647C205.255 80.0397 205.315 80.3847 205.255 80.6847C205.21 80.9847 205.09 81.2547 204.88 81.4797C204.685 81.6897 204.445 81.7947 204.145 81.8247H206.545L207.925 80.3847L208.06 80.5197C209.755 78.5547 211.06 75.9297 211.99 72.6297L214.33 73.9047C214.045 74.7897 213.64 75.6447 213.115 76.4547H223.315V77.2797L223.345 77.2197ZM217.525 77.2197H212.515C212.395 77.3697 212.215 77.5947 211.945 77.8947C212.83 79.2147 213.91 80.3097 215.2 81.1947C216.25 79.9347 217.03 78.5997 217.525 77.2047V77.2197Z" fill="white"/>
<path d="M109.931 115.44V116.565C108.386 122.01 105.176 125.85 100.316 128.1L100.061 127.725C101.921 126.405 103.451 124.755 104.636 122.775C105.821 120.78 106.676 118.605 107.201 116.25H100.961L100.706 115.425H109.916L109.931 115.44ZM122.036 110.805L124.211 112.89C122.141 114.81 119.816 116.445 117.221 117.78C119.261 121.11 122.441 123.615 126.776 125.265L126.686 125.58C126.116 125.7 125.636 125.97 125.246 126.405C124.856 126.84 124.571 127.38 124.391 128.04C122.756 127.02 121.361 125.925 120.206 124.74C119.051 123.54 118.016 121.995 117.071 120.105C116.141 118.2 115.421 115.965 114.896 113.4V126.885C114.896 127.965 114.641 128.76 114.131 129.285C113.636 129.81 112.586 130.155 110.966 130.305C110.831 129.345 110.576 128.7 110.201 128.355C109.646 127.905 108.731 127.575 107.426 127.395V126.975C109.661 127.14 111.026 127.23 111.491 127.23C111.956 127.23 112.166 127.02 112.166 126.585V111.375H105.131L104.876 110.55H114.881V111.825C115.346 113.91 116.021 115.725 116.891 117.255C117.866 116.28 118.841 115.185 119.801 113.97C120.761 112.74 121.496 111.69 122.006 110.805H122.036ZM108.386 104.55L108.506 104.16C112.481 104.205 115.151 104.955 116.531 106.425C117.221 107.175 117.401 107.88 117.071 108.54C116.801 109.11 116.321 109.32 115.631 109.185C115.511 109.155 115.406 109.11 115.286 109.065C114.701 108.33 113.801 107.535 112.571 106.695C111.341 105.855 109.946 105.135 108.386 104.55Z" fill="white"/>
<path d="M150.522 108.989V110.399C150.237 111.584 149.877 112.874 149.442 114.239C150.342 120.389 153.612 124.754 159.252 127.349L159.222 127.694C157.827 127.919 157.002 128.789 156.732 130.319C152.412 127.544 149.847 122.564 149.022 115.364C147.627 118.979 145.632 122.054 143.022 124.574C140.412 127.094 136.917 129.029 132.507 130.364L132.252 129.974C140.487 126.284 145.572 119.549 147.522 109.784H141.702C139.647 114.269 136.797 117.674 133.167 119.984L132.852 119.729C134.547 117.884 136.062 115.589 137.397 112.829C138.732 110.054 139.707 107.099 140.307 103.949L143.247 105.104C142.902 106.589 142.497 107.879 142.032 108.944H150.507L150.522 108.989Z" fill="white"/>
<path d="M170.68 111.63V129.495C170.665 129.63 170.41 129.795 169.915 130.005C169.45 130.215 168.985 130.32 168.535 130.32H168.055V115.17C166.93 116.61 165.805 117.795 164.695 118.755L164.32 118.5C165.505 116.715 166.63 114.525 167.68 111.945C168.76 109.35 169.585 106.71 170.17 104.055L172.945 105.27C172.21 107.76 171.46 109.875 170.68 111.63ZM190.975 118.815H183.055C183.94 120.33 185.14 121.695 186.67 122.94C188.2 124.185 189.775 125.13 191.395 125.79L191.335 126.105C190.255 126.315 189.535 127.08 189.16 128.43C186.34 126.39 184.195 123.42 182.74 119.52V129.555C182.74 129.555 182.65 129.72 182.485 129.84C182.32 129.975 182.05 130.095 181.69 130.215C181.33 130.335 180.94 130.38 180.535 130.38H180.085V122.07C178.105 124.74 175.33 126.975 171.745 128.745L171.46 128.37C173.05 127.185 174.46 125.745 175.705 124.08C176.965 122.4 177.97 120.645 178.705 118.815H171.925L171.7 117.99H180.1V114.03H177.25V115.02C177.25 115.17 176.995 115.35 176.485 115.56C175.975 115.77 175.465 115.875 174.955 115.875H174.58V105.96H188.38V114.615C188.365 114.735 188.08 114.885 187.555 115.065C187.03 115.23 186.55 115.32 186.145 115.32H185.695V114.045H182.755V118.005H190.975V118.83V118.815ZM177.235 106.77V113.22H185.68V106.77H177.235Z" fill="white"/>
<path d="M201.46 104.07L204.01 105.225C203.35 107.79 202.75 109.995 202.195 111.84V129.585C202.18 129.705 201.94 129.855 201.49 130.035C201.055 130.215 200.62 130.32 200.185 130.32H199.735V115.365C198.835 116.775 197.95 117.93 197.08 118.815L196.69 118.59C197.665 116.73 198.595 114.495 199.465 111.885C200.335 109.29 200.995 106.68 201.475 104.055L201.46 104.07ZM206.515 108.675V126.225C206.515 126.375 206.305 126.555 205.87 126.765C205.45 126.96 205.03 127.05 204.595 127.05H204.145V108.33L206.515 108.675ZM206.005 130.335L205.885 129.885C208.99 129.075 211.705 128.025 214 126.72C216.295 125.415 218.32 123.645 220.045 121.41L222.085 123.27C219.895 125.475 217.51 127.095 214.93 128.13C212.365 129.18 209.395 129.915 206.005 130.335ZM223.165 108.6H219.775C219.01 110.235 217.84 111.75 216.295 113.13C218.2 114.03 220.585 114.66 223.45 114.99L223.42 115.305C222.445 115.665 221.86 116.445 221.695 117.645C218.755 116.97 216.415 115.86 214.69 114.33C212.635 115.725 210.085 116.82 207.055 117.615L206.89 117.24C209.56 116.16 211.765 114.795 213.505 113.145C212.695 112.215 211.93 111.06 211.21 109.635C209.98 111.15 208.645 112.35 207.175 113.25L206.8 112.965C208.78 110.625 210.265 107.655 211.27 104.04L213.64 105.315C213.295 106.335 212.935 107.16 212.53 107.775H223.165V108.6ZM214.855 115.92L217.66 117.735C217.435 117.96 217.09 118.02 216.61 117.9C214.195 119.46 211.315 120.675 207.955 121.515L207.67 121.035C210.46 119.73 212.86 118.035 214.855 115.92ZM207.895 125.76L207.67 125.28C211.705 123.615 215.005 121.38 217.585 118.56L220.435 120.39C220.225 120.66 219.85 120.72 219.31 120.585C216.145 122.955 212.335 124.68 207.895 125.76ZM216.625 108.6H211.99C211.915 108.735 211.78 108.915 211.6 109.14C212.335 110.265 213.295 111.255 214.48 112.08C215.41 111.03 216.115 109.86 216.625 108.6Z" fill="white"/>
</svg>
