<svg width="1444" height="62" viewBox="0 0 1444 62" fill="none" xmlns="http://www.w3.org/2000/svg">
<path d="M30.51 3.43C30.26 3.99 29.57 4.3 28.58 4.3C26.33 8.92 22.9 14.53 19.66 19.27C27.08 19.15 35.2 18.9 43.18 18.65C40.93 16.47 38.56 14.41 36.32 12.6L42.12 8.05C48.48 12.92 56.28 20.03 59.71 25.27L53.28 30.51C52.41 28.95 51.1 27.2 49.54 25.39C32.76 26.2 15.16 26.83 3.93 27.2C3.74 27.82 3.18 28.14 2.62 28.2L0 19.72L10.79 19.53C14.6 13.85 18.78 6.18 21.21 0L30.51 3.43ZM9.3 59.34V32.2H50.35V59.09H42.49V57.22H16.78V59.34H9.29H9.3ZM42.49 39.37H16.78V49.91H42.49V39.37Z" fill="white"/>
<path d="M70.2496 17.72C73.4296 19.28 77.5497 21.71 79.5497 23.65L75.2496 29.39C73.3796 27.46 69.3196 24.65 66.1396 22.96L70.2597 17.72H70.2496ZM71.6197 1.31C74.7397 2.99 78.7997 5.62 80.7297 7.67L76.2396 13.29C74.4296 11.17 70.4996 8.3 67.3196 6.36L71.6197 1.31ZM67.5696 54.84C69.8796 49.91 73.0596 41.99 75.4896 34.62L81.4196 38.43C79.3596 45.04 76.7996 52.03 74.8096 56.84C75.1796 57.28 75.3697 57.71 75.3697 58.21C75.3697 58.46 75.3096 58.71 75.1796 58.96L67.5696 54.84ZM119.23 22.77L122.91 21.58C124.03 24.14 125.16 27.45 125.66 29.57L121.67 30.88C121.36 28.76 120.3 25.39 119.24 22.89V32.37H114.44V23.64H114.32C113.63 26.39 112.51 29.75 111.01 31.81C110.32 31.25 109.08 30.31 108.14 29.69V31.75H96.0996V22.33H108.14V28.69C109.14 26.82 109.89 24.14 110.39 21.58L114.45 22.77V20.21L110.71 20.4C110.59 20.9 110.15 21.15 109.77 21.21L108.27 15.91L111.51 15.85C112.13 15.16 112.76 14.42 113.45 13.6C112.26 12.35 110.83 10.98 109.39 9.86V10.55H94.3496V8.93H93.9097C92.5397 10.93 90.4196 13.55 88.3596 15.86L91.4797 15.8L90.7297 13.8L93.9797 12.68C94.9797 14.74 95.7296 17.55 96.0396 19.48H96.0996V17.23H108.08V20.72H96.0996V19.91L92.6696 21.22C92.6696 20.78 92.6097 20.28 92.4797 19.78L90.5497 19.9V32.38H85.8697V24.14C85.1797 26.76 83.9996 29.82 82.4996 31.75C81.7496 31 80.1896 29.94 79.2496 29.38C80.4996 27.51 81.4296 24.45 82.0596 21.58L85.8697 22.7V20.2L82.1897 20.39C82.0697 20.89 81.6896 21.14 81.2496 21.2L79.7496 15.9H83.2396C83.8596 15.15 84.4896 14.34 85.1696 13.53C83.7996 12.09 82.1096 10.54 80.4896 9.35L82.8596 5.67L83.6096 6.17C84.6696 4.24 85.7296 1.99 86.4196 0.309998L91.3496 2.93C91.0396 3.37 90.4797 3.49 89.9097 3.43C89.1597 4.87 87.9097 6.86 86.7297 8.61L87.9797 9.67C88.9797 8.23 89.8496 6.86 90.5996 5.61L94.3396 7.86V6.67H109.38V8.17L111.07 5.67L111.82 6.17C113.01 4.24 114.13 1.99 114.82 0.309998L119.75 2.93C119.44 3.37 118.88 3.49 118.32 3.43C117.51 4.87 116.2 6.86 114.95 8.61C115.45 9.05 115.89 9.42 116.32 9.86C117.44 8.3 118.5 6.74 119.32 5.43L124.12 8.3C123.87 8.67 123.37 8.8 122.62 8.74C121.12 10.8 118.88 13.48 116.69 15.85L120.25 15.79L119.31 13.79L122.87 12.29C124.12 14.6 125.3 17.66 125.74 19.65L121.93 21.33C121.87 20.83 121.74 20.27 121.56 19.71L119.25 19.9V22.77H119.23ZM117.05 46.48L118.48 46.29L122.72 47.48C122.6 48.04 122.41 48.54 122.16 48.98C120.41 58.59 118.35 59.34 110.49 59.34C108.68 59.34 106.5 59.28 104.25 59.22C104.19 57.54 103.38 55.29 102.38 53.73C105 54.04 107.75 54.1 109.56 54.1C113.05 54.1 113.62 54.1 114.61 51.17H90.5296L90.0296 52.79L83.3496 51.92C84.4696 48.68 85.6597 44 86.4097 40.19H111.99V38.19H84.0996V33.82H118.92V44.49H92.2796L91.7796 46.49H117.05V46.48ZM92.2197 29.38C91.9697 27.57 91.3497 24.76 90.7197 22.52L94.2796 21.71C94.9696 23.83 95.6497 26.58 95.8997 28.39L92.2197 29.39V29.38ZM96.0896 15.65V12.16H108.07V15.65H96.0896ZM107.62 1.56V5.05H96.6396V1.56H107.62ZM103.56 28.39V25.64H100.44V28.39H103.56Z" fill="white"/>
<path d="M190.85 30.07H161.21V59.33H154.04V53.53C147.43 54.4 141.06 55.09 136.63 55.59C136.51 56.15 136.07 56.46 135.63 56.53L133.51 49.42L138.94 49.05V30.07H133.51V24.14H190.85V30.07ZM182.55 2.67999V21.78H141.81V2.67999H182.55ZM154.04 32.57V30.07H145.74V32.57H154.04ZM154.04 40.37V37.75H145.74V40.37H154.04ZM145.74 48.54L154.04 47.92V45.55H145.74V48.55V48.54ZM175.06 9.91999V7.54999H148.98V9.91999H175.06ZM175.06 16.91V14.48H148.98V16.91H175.06ZM183.8 32.2L188.42 33.95C188.23 34.45 187.98 34.57 187.73 34.95C186.17 40.38 183.67 45 180.37 48.86C183.55 50.86 187.23 52.42 191.41 53.41C189.85 54.78 187.92 57.53 186.98 59.27C182.61 57.96 178.74 56.09 175.44 53.59C172.44 55.96 169.07 57.9 165.39 59.39C164.52 57.64 162.71 54.96 161.33 53.59C164.57 52.53 167.63 50.91 170.31 48.85C167.94 46.04 165.94 42.86 164.38 39.3L168.37 38.18H162.5V32.44H182.53L183.78 32.19L183.8 32.2ZM170.64 38.19C171.76 40.44 173.26 42.56 175.01 44.43C176.63 42.56 178.01 40.44 179.07 38.19H170.65H170.64Z" fill="white"/>
<path d="M256.23 25.08H233.83C237.51 38 244.75 47.79 257.6 52.1C255.79 53.72 253.36 57.09 252.17 59.28C240.19 54.6 233.08 45.99 228.52 33.95C225.09 44.18 218.35 53.35 204.75 59.34C203.63 57.22 201.38 54.47 199.26 52.79C214.48 46.61 220.35 36.51 222.53 25.09H200.44V17.35H223.59C224.03 11.8 223.96 6.12 224.03 0.5L233.95 1.12C233.83 1.81 233.26 2.24 232.2 2.43C232.14 7.23 232.08 12.29 231.64 17.34H256.22V25.08H256.23Z" fill="white"/>
<path d="M308.51 4.68H322.42V11.17H308.51V13.73H316.99V27.39H272.5V13.73H280.17V11.17H266.44V4.68H280.17V0.5L289.22 0.94C289.16 1.56 288.66 1.94 287.6 2.19V4.69H301.01V0.5L310.12 0.94C310.06 1.63 309.62 1.94 308.5 2.19V4.69L308.51 4.68ZM267.08 40.87V29.64H321.74V40.87H314.38V35.32H294.73C294.48 35.63 294.04 35.76 293.42 35.76C292.86 36.45 292.17 37.2 291.55 37.88H305.77L307.02 37.63L312.07 40.06C311.88 40.43 311.57 40.62 311.26 40.81C304.83 51.73 290.79 57.09 275.63 59.47C274.94 57.66 273.45 54.85 272.26 53.29C277.63 52.73 282.93 51.67 287.61 50.11C285.86 48.99 283.87 47.86 282.06 47.18L286.68 43.44C289.24 44.38 292.17 45.94 294.23 47.43C296.79 46.12 299.03 44.62 300.78 42.94H285.62C282.44 45.19 278.57 47.31 273.89 49.12C272.95 47.56 270.83 45.06 269.46 44C276.51 41.75 281.75 38.63 285.06 35.33H274.14V40.88H267.09L267.08 40.87ZM285.11 22.59V18.47H279.12V22.59H285.11ZM301.02 13.73V11.17H287.61V13.73H301.02ZM297.53 22.59V18.47H291.35V22.59H297.53ZM310.01 22.59V18.47H303.77V22.59H310.01Z" fill="white"/>
<path d="M342.56 38.25V25.9C340.44 29.58 338.01 32.76 335.45 35.01C334.39 33.39 332.14 31.08 330.65 29.83C334.83 26.77 338.89 21.28 341.38 15.79H332.21V9.43H342.57V0.559998L351.31 1.06C351.25 1.68 350.81 2 349.69 2.18V9.42H358.49V15.78H349.69V18.09C352.19 19.59 358.18 23.83 359.67 25.02L355.74 31.01C354.31 29.45 351.93 27.2 349.69 25.15V38.25H342.58H342.56ZM345.93 43.62C344.18 48.61 341.63 54.04 337.63 57.53L331.39 53.16C334.95 50.29 337.75 45.61 339.25 40.99L345.93 43.61V43.62ZM355.48 50.23C355.48 51.98 355.98 52.23 358.79 52.23H367.03C369.28 52.23 369.65 51.61 369.96 47.05C371.46 48.17 374.58 49.3 376.57 49.67C375.7 57.09 373.7 58.84 367.71 58.84H357.85C349.86 58.84 348.05 56.84 348.05 50.35V41.93L356.85 42.43C355.85 41.62 354.79 40.81 353.79 40.12L358.72 36.25C362.34 38.56 366.71 42.05 368.76 44.74L363.46 48.98C362.15 47.11 359.65 44.74 357.1 42.62C356.91 43.12 356.41 43.43 355.48 43.62V50.23ZM386.61 3.62V37.5H361.03V3.62H386.61ZM379.44 13.17V9.55H367.83V13.17H379.44ZM379.44 22.4V18.72H367.83V22.4H379.44ZM379.44 31.63V27.89H367.83V31.63H379.44ZM384.12 57.9C382.31 53.91 377.51 48.1 372.89 44.05L378.94 40.37C383.56 44.24 388.61 49.67 390.73 53.85L384.12 57.91V57.9Z" fill="white"/>
<path d="M456.11 48.1H447.06C450.37 50.41 454.42 53.59 456.61 55.77L451.12 59.33C448.94 56.96 444.32 53.09 440.76 50.53L444.75 48.1H434.02L438.2 50.47C438.01 50.72 437.64 50.91 437.14 50.97C434.83 53.72 429.78 57.4 425.54 59.33C424.42 58.08 422.23 56.09 420.74 54.96C424.42 53.4 428.48 50.59 430.97 48.1H422.73V42.17H428.47V25.39H423.73V19.46H428.47V15.47C427.66 16.59 426.79 17.59 425.85 18.46C425.16 17.84 424.1 17.02 423.04 16.21V16.96H410.75L410.56 23.7H418.11L421.79 23.82C421.79 24.44 421.79 25.26 421.73 26.07C421.42 46.72 421.17 54.15 419.55 56.39C417.93 58.82 415.93 59.51 409.13 59.32C409.01 57.26 408.32 54.45 407.32 52.64C409.19 52.89 410.88 52.89 411.75 52.89C412.56 52.89 413.06 52.7 413.56 51.89C414.37 50.64 414.68 45.28 414.93 30.49H410.19C409.38 41.47 407.38 51.89 402.14 59.25C400.95 57.5 398.71 55.26 396.84 54.07C403.02 45.46 403.52 31.48 403.7 16.95H397.71V10.02H407.19V0.559993L415.99 1.05999C415.93 1.61999 415.49 1.99999 414.37 2.17999V10.04H423.04V12.1C425.47 8.91999 427.28 4.67999 428.34 0.429993L435.95 2.35999C435.83 2.85999 435.33 3.10999 434.52 3.04999C434.14 4.29999 433.71 5.60999 433.21 6.85999H456.11V12.97H430.15L429.28 14.41L436.83 14.85C436.77 15.41 436.33 15.72 435.27 15.97V19.46H443.38V14.34L451.87 14.84C451.81 15.4 451.37 15.78 450.25 15.96V19.45H455.05V25.38H450.25V42.16H456.12V48.09L456.11 48.1ZM443.38 25.39H435.27V27.82H443.38V25.39ZM435.27 32.5V34.93H443.38V32.5H435.27ZM435.27 39.68V42.18H443.38V39.68H435.27Z" fill="white"/>
<path d="M486.93 31.38L484.31 31.69V52.97C484.31 58.4 482 59.33 475.14 59.33C474.95 57.77 474.2 55.27 473.39 53.71C474.58 53.77 475.7 53.83 476.57 53.83C478.57 53.83 478.82 53.83 478.82 52.83V32.43L471.89 33.24C471.83 41.6 471.08 52.39 467.4 59.45C466.4 58.51 463.97 57.08 462.66 56.52C465.84 50.16 466.47 41.3 466.53 33.87L465.41 33.99C465.29 34.55 464.79 34.8 464.29 34.86L462.92 28.43L466.54 28.18V8.86H471.66C472.22 6.18 472.72 2.87 472.91 0.440002L480.77 1.88C480.58 2.32 480.08 2.63 479.21 2.69C478.71 4.44 477.96 6.75 477.21 8.87H484.32V26.64L486.82 26.39L486.94 31.38H486.93ZM471.89 14.53V27.76C474.07 27.57 476.44 27.39 478.82 27.14V14.54H471.89V14.53ZM474.01 25.7C473.95 23.52 473.07 20.08 472.14 17.59L475.88 16.34C477 18.84 477.88 22.14 478.06 24.33L474 25.7H474.01ZM477.94 34.5C477.88 34.94 477.57 35.25 476.82 35.31V48.66H473.45V34.18L477.94 34.49V34.5ZM518.5 52.47H522.24V58.09H485.24V52.47H489.11V35.94H518.5V52.47ZM492.67 32.82V34.19H487.55V2.56H505.21V7.36H500.16V11.04H504.65V18.28C506.71 14.04 507.83 7.11 508.46 0.500002L515.76 2.06C515.64 2.5 515.14 2.81 514.39 2.81C514.14 4.68 513.89 6.62 513.52 8.49H522.07V14.11H512.34C511.53 17.23 510.53 20.16 509.28 22.35C508.22 21.41 506.16 20.23 504.66 19.42V24.16H500.17V27.97H505.97V32.84H492.68L492.67 32.82ZM495.35 7.36H492.67V11.04H495.35V7.36ZM499.65 15.47H492.66V19.78H499.65V15.47ZM495.35 27.95V24.14H492.67V27.95H495.35ZM494.73 41.55V52.47H497.48V41.55H494.73ZM505.02 41.55H502.27V52.47H505.02V41.55ZM507.02 29.63V23.95H520.93V29.63H507.02ZM512.57 41.55H509.82V52.47H512.57V41.55Z" fill="white"/>
<path d="M542.68 1.22998H548.35V61.7H542.68V1.22998Z" fill="white"/>
<path d="M568.34 35.88C572.83 34.38 579.82 31.64 586.68 28.83C586.74 27.83 586.74 26.77 586.74 25.77V1.12L595.97 1.62C595.91 2.24 595.47 2.62 594.28 2.81V25.83C594.28 39.62 591.91 52.66 574.07 59.77C573.2 57.9 570.95 54.72 569.45 53.34C579.56 49.47 583.86 43.54 585.61 36.81C580.87 39.06 576.31 41.24 572.94 42.74C572.94 43.36 572.56 43.86 572.07 44.05L568.33 35.88H568.34ZM577.51 5.93C581.07 10.55 585 16.85 586.49 21.09L579.44 24.96C578.19 20.72 574.45 14.17 571.08 9.3L577.51 5.93ZM608.77 47.73C608.77 51.29 609.08 51.79 611.52 51.79H618.63C620.81 51.79 621.25 50.17 621.56 44.12C623.37 45.43 626.36 46.74 628.55 47.24C627.61 55.79 625.56 59.03 619.38 59.03H610.33C603.15 59.03 601.1 56.66 601.1 47.74V1.12L610.46 1.62C610.4 2.24 609.96 2.68 608.78 2.86999V27.45L610.09 25.95C615.96 29.19 623.94 34.19 627.75 37.87C622.76 43.86 622.7 43.92 622.57 44.05C619.64 41.06 614.02 36.88 608.78 33.57V47.73H608.77ZM626.86 9.42C626.55 9.86 625.8 10.11 624.86 9.97999C622.55 14.22 618.37 20.09 615.19 23.71L609.39 20.15C612.45 16.09 616.32 9.66999 618.44 4.68L626.86 9.42Z" fill="white"/>
<path d="M660.67 30.57C660.55 31.19 659.98 31.63 658.99 31.76C657.49 42.93 655.31 53.35 639.84 59.28C639.03 57.35 636.91 54.54 635.22 53.04C648.82 48.36 650.07 39.94 650.94 29.71L660.67 30.58V30.57ZM676.52 49.23C676.52 51.6 676.89 51.98 678.89 51.98H684.63C686.75 51.98 687.13 50.36 687.44 41.25C689 42.56 692.24 43.87 694.18 44.37C693.49 55.6 691.62 58.78 685.32 58.78H677.71C670.78 58.78 668.91 56.47 668.91 49.23V29.2H636.65V21.9H692.87V29.2H676.52V49.23ZM687.06 4.31V11.55H642.32V4.31H687.06Z" fill="white"/>
<path d="M729.17 31.51L726.11 31.88V52.59C726.11 58.52 723.43 59.33 716.07 59.33C715.88 57.65 715.01 54.96 714.26 53.46C720 53.65 720 53.52 720 52.52V32.62C716.94 32.99 713.95 33.31 711.26 33.62C711.14 41.92 710.26 52.59 706.02 59.33C704.96 58.27 702.4 56.65 700.97 56.02C704.65 49.97 705.28 41.48 705.4 34.31L704.09 34.43C703.97 34.93 703.53 35.24 703.03 35.37L700.97 28.63L705.4 28.32V8.97999H710.89C711.64 6.29999 712.45 2.87 712.76 0.369995L721.43 2.43C721.24 2.87 720.68 3.18 719.81 3.18C719.19 4.93 718.31 7.04999 717.44 8.97999H726.11V26.52L729.04 26.27L729.16 31.51H729.17ZM711.26 27.83L720 27.08V14.79H711.26V27.83ZM714.63 26.02C714.32 23.77 713.13 20.47 711.76 17.97L716.13 16.22C717.69 18.59 719 21.9 719.37 24.08L714.63 26.01V26.02ZM718.81 34.82C718.75 35.26 718.37 35.57 717.5 35.69V48.92H713.19V34.44L718.81 34.81V34.82ZM753.06 49.79C753.06 52.04 753.06 52.29 753.87 52.29C755.12 52.29 755.24 52.29 755.43 52.04C756.12 51.73 756.12 47.8 756.12 45.8C757.43 46.86 759.55 47.98 761.3 48.55C760.99 55.35 760.24 58.53 755 58.53H751.76C745.96 58.53 745.96 53.85 745.96 49.86V28.01H739.28V35.75C739.28 43.24 738.28 53.22 732.23 59.4C730.98 58.21 727.93 56.03 726.3 55.22C731.79 49.73 732.29 41.87 732.29 35.57V21.53H753.07V49.79H753.06ZM760.23 10.36V16.91H727.54V10.36H739.71V0.559995L748.63 1.06C748.57 1.68 748.13 2.06 747.01 2.25V10.36H760.24H760.23Z" fill="white"/>
<path d="M793.99 15.6C793.87 16.16 793.3 16.6 792.37 16.72C790.62 25.14 787.88 31.63 772.34 35.19C771.72 33.32 769.84 30.39 768.35 28.89C781.89 26.39 783.89 21.9 784.82 14.73L793.99 15.6ZM800.6 41.74V50.85H824.5V57.65H769.41V50.85H792.87V41.74H776.27V35.06H818.39V41.74H800.61H800.6ZM777.7 13.97V21.33H770.34V7.18H792.86V0.440002L802.28 1C802.22 1.62 801.78 2 800.6 2.19V7.18H823.5V21.34H815.76V13.98H777.7V13.97ZM800.47 14.53L809.52 14.97C809.46 15.59 809.02 15.97 807.84 16.22V24.39C807.84 26.07 808.28 26.32 810.52 26.32H817.01C818.69 26.32 819.07 25.76 819.32 22.83C820.76 23.89 823.75 24.95 825.81 25.33C824.94 31.13 822.94 32.63 817.82 32.63H809.46C802.1 32.63 800.47 30.7 800.47 24.46V14.54V14.53Z" fill="white"/>
<path d="M879.77 17.1C880.08 23.03 880.58 28.83 881.21 33.95C882.71 30.33 883.89 26.46 884.77 22.28L892.63 24.09C892.51 24.59 891.94 24.96 891.01 24.96C889.2 32.38 886.58 39.12 883.02 44.86C884.14 49.48 885.39 52.41 886.7 52.41C887.7 52.41 888.32 49.29 888.51 42.74C889.88 44.42 891.94 46.23 893.63 47.05C892.51 56.91 890.57 59.4 885.77 59.4C882.53 59.4 880.03 56.4 878.16 51.6C875.6 54.47 872.73 57.03 869.55 59.09C868.55 57.78 866.24 55.47 864.81 54.41C869.18 51.79 872.92 48.23 875.92 43.8C874.36 36.31 873.42 26.83 872.99 17.1H860.01V24.28H867L868.37 24.22L871.74 24.34V26.4C871.55 39.69 871.24 44.99 869.99 46.68C868.87 48.36 867.56 49.24 861.13 49.05C861.07 47.18 860.44 44.62 859.63 43C861.13 43.19 862.44 43.19 863.12 43.19C863.8 43.19 864.24 43 864.62 42.44C865.12 41.63 865.37 38.63 865.49 30.34H860C859.88 39.57 858.5 51.99 851.58 59.6C850.52 58.23 847.65 55.86 846.09 55.05C849.4 51.37 851.14 46.81 852.08 42.2C846.71 44.76 841.1 47.25 837.36 48.88C837.3 49.5 836.92 49.94 836.42 50.13L833.11 41.89C835.04 41.27 837.48 40.45 840.1 39.52V21.78H834.48V14.73H840.1V1.11999L848.46 1.55999C848.4 2.11999 847.96 2.49999 846.84 2.67999V14.72H852.02V21.77H846.84V36.99L851.58 35.24L852.52 39.55C853.08 35.87 853.14 32.25 853.14 29.01V10.29H872.73C872.61 6.97999 872.54 3.73999 872.54 0.55999L881.28 1.05999C881.22 1.67999 880.66 1.99999 879.53 2.17999C879.47 4.79999 879.47 7.54999 879.53 10.29H886.27C885.02 8.16999 882.84 5.54999 880.84 3.48999L886.02 0.48999C888.39 2.73999 891.14 5.78999 892.32 8.03999L888.51 10.29H892V17.09H879.77V17.1Z" fill="white"/>
<path d="M925.5 10.86V16.79H899.73V10.86H925.5ZM922.82 36.94V56.03H909.091V58.46H902.6V36.93H922.82V36.94ZM902.79 25.34V19.66H923.01V25.34H902.79ZM902.79 33.89V28.27H923.01V33.89H902.79ZM923.07 2.44V8.12H903.17V2.43H923.07V2.44ZM916.271 42.87H909.1V50.11H916.271V42.87ZM959.201 21.53V28.95H946.031V59.34H938.42V28.95H925.25V21.53H938.42V0.75L947.781 1.25C947.721 1.87 947.221 2.25 946.031 2.44V21.53H959.201Z" fill="white"/>
<path d="M966.74 57.65V52.72H1024.02V57.65H966.74ZM998.75 28.82H1024.08V33.44H966.8V28.82H991.13V26.64H971.29V22.65H991.13V20.47H973.22V16.54H991.13V14.36H966.98V10.24H991.13V8.18H973.6V4.19H991.13V0.440002L1000.49 0.880002C1000.43 1.57 999.93 1.94 998.74 2.13V4.19H1017.33V10.24H1023.63V14.36H1017.33V20.47H998.74V22.65H1019.77V26.64H998.74V28.82H998.75ZM973.92 35.5H1017.41V50.72H973.92V35.5ZM981.28 39.12V41.3H991.64V39.12H981.28ZM981.28 44.8V47.11H991.64V44.8H981.28ZM1009.73 41.31V39.13H998.56V41.31H1009.73ZM1009.73 47.11V44.8H998.56V47.11H1009.73ZM998.75 8.18V10.24H1009.79V8.18H998.75ZM998.75 14.36V16.54H1009.79V14.36H998.75Z" fill="white"/>
<path d="M1046.95 1.22998H1052.62V61.7H1046.95V1.22998Z" fill="white"/>
<path d="M1077.53 30.14C1077.53 15.79 1082.83 5.67999 1093.44 5.67999C1104.05 5.67999 1108.85 16.66 1108.85 29.76C1108.85 45.36 1103.05 54.28 1093.13 54.28C1082.15 54.28 1077.53 43.3 1077.53 30.13V30.14ZM1093.25 46.99C1097.49 46.99 1099.61 41 1099.61 29.96C1099.61 18.92 1097.68 12.99 1093.31 12.99C1089.32 12.99 1086.76 18.73 1086.76 29.96C1086.76 41.19 1089.07 46.99 1093.19 46.99H1093.25Z" fill="white"/>
<path d="M1134.18 28.2C1139.42 29.39 1143.79 33.63 1143.79 40.05C1143.79 47.91 1137.49 54.28 1126.51 54.28C1121.52 54.28 1117.03 52.97 1114.66 51.41L1116.72 44.42C1118.47 45.54 1122.27 46.98 1125.89 46.98C1131.57 46.98 1134.38 43.49 1134.38 39.62C1134.38 34.32 1129.76 31.82 1124.71 31.82H1121.53V25.33H1124.52C1128.2 25.33 1132.94 23.27 1132.94 18.72C1132.94 15.41 1130.76 12.98 1126.39 12.98C1123.14 12.98 1119.96 14.42 1118.15 15.54L1116.22 8.93C1118.65 7.31 1123.46 5.69 1128.51 5.69C1137.56 5.69 1142.3 10.99 1142.3 17.23C1142.3 22.1 1139.37 26.15 1134.19 28.09V28.21L1134.18 28.2Z" fill="white"/>
<path d="M1153.83 27.38H1170.93V33.74H1153.83V27.38Z" fill="white"/>
<path d="M1196.19 28.2C1201.43 29.39 1205.8 33.63 1205.8 40.05C1205.8 47.91 1199.5 54.28 1188.52 54.28C1183.53 54.28 1179.04 52.97 1176.67 51.41L1178.73 44.42C1180.48 45.54 1184.28 46.98 1187.9 46.98C1193.58 46.98 1196.39 43.49 1196.39 39.62C1196.39 34.32 1191.77 31.82 1186.72 31.82H1183.54V25.33H1186.53C1190.21 25.33 1194.95 23.27 1194.95 18.72C1194.95 15.41 1192.77 12.98 1188.4 12.98C1185.15 12.98 1181.97 14.42 1180.16 15.54L1178.23 8.93C1180.66 7.31 1185.47 5.69 1190.52 5.69C1199.57 5.69 1204.31 10.99 1204.31 17.23C1204.31 22.1 1201.38 26.15 1196.2 28.09V28.21L1196.19 28.2Z" fill="white"/>
<path d="M1212.16 30.14C1212.16 15.79 1217.46 5.67999 1228.07 5.67999C1238.68 5.67999 1243.48 16.66 1243.48 29.76C1243.48 45.36 1237.68 54.28 1227.76 54.28C1216.78 54.28 1212.16 43.3 1212.16 30.13V30.14ZM1227.88 46.99C1232.12 46.99 1234.24 41 1234.24 29.96C1234.24 18.92 1232.31 12.99 1227.94 12.99C1223.95 12.99 1221.39 18.73 1221.39 29.96C1221.39 41.19 1223.7 46.99 1227.82 46.99H1227.88Z" fill="white"/>
<path d="M1258.64 53.6V14.66H1258.52L1250.41 18.9L1248.41 12.29L1259.89 6.41998H1267.63V53.6H1258.65H1258.64Z" fill="white"/>
<path d="M1284.71 27.38H1301.81V33.74H1284.71V27.38Z" fill="white"/>
<path d="M1320.65 53.6V14.66H1320.53L1312.42 18.9L1310.42 12.29L1321.9 6.41998H1329.64V53.6H1320.66H1320.65Z" fill="white"/>
<path d="M1346.23 28.83C1341.86 26.4 1339.55 22.47 1339.55 18.47C1339.55 10.67 1345.98 5.67999 1354.15 5.67999C1363.51 5.67999 1367.94 11.61 1367.94 17.53C1367.94 21.34 1365.82 25.52 1361.01 28.14V28.26C1365.63 30.38 1369.43 34.44 1369.43 40.3C1369.43 48.72 1362.82 54.28 1353.46 54.28C1343.41 54.28 1338.05 48.1 1338.05 41.36C1338.05 35.56 1341.48 31.38 1346.22 29.01V28.82L1346.23 28.83ZM1360.21 41.06C1360.21 36.44 1357.09 33.51 1352.97 32.14C1349.41 33.45 1347.29 36.76 1347.29 40.5C1347.29 44.49 1349.72 47.99 1353.72 47.99C1357.72 47.99 1360.21 44.75 1360.21 41.06ZM1348.23 18.04C1348.23 21.66 1350.85 24.15 1354.53 25.53C1357.15 24.47 1359.33 21.54 1359.33 18.36C1359.33 15.18 1357.77 11.87 1353.84 11.87C1349.91 11.87 1348.22 15.05 1348.22 18.05L1348.23 18.04Z" fill="white"/>
<path d="M1383.16 28.83C1378.79 26.4 1376.48 22.47 1376.48 18.47C1376.48 10.67 1382.91 5.67999 1391.08 5.67999C1400.44 5.67999 1404.87 11.61 1404.87 17.53C1404.87 21.34 1402.75 25.52 1397.94 28.14V28.26C1402.56 30.38 1406.36 34.44 1406.36 40.3C1406.36 48.72 1399.75 54.28 1390.39 54.28C1380.35 54.28 1374.98 48.1 1374.98 41.36C1374.98 35.56 1378.41 31.38 1383.15 29.01V28.82L1383.16 28.83ZM1397.14 41.06C1397.14 36.44 1394.02 33.51 1389.9 32.14C1386.34 33.45 1384.22 36.76 1384.22 40.5C1384.22 44.49 1386.65 47.99 1390.65 47.99C1394.65 47.99 1397.14 44.75 1397.14 41.06ZM1385.16 18.04C1385.16 21.66 1387.78 24.15 1391.46 25.53C1394.08 24.47 1396.26 21.54 1396.26 18.36C1396.26 15.18 1394.7 11.87 1390.77 11.87C1386.84 11.87 1385.15 15.05 1385.15 18.05L1385.16 18.04Z" fill="white"/>
<path d="M1420.09 28.83C1415.72 26.4 1413.41 22.47 1413.41 18.47C1413.41 10.67 1419.84 5.67999 1428.01 5.67999C1437.37 5.67999 1441.8 11.61 1441.8 17.53C1441.8 21.34 1439.68 25.52 1434.87 28.14V28.26C1439.49 30.38 1443.29 34.44 1443.29 40.3C1443.29 48.72 1436.68 54.28 1427.32 54.28C1417.28 54.28 1411.91 48.1 1411.91 41.36C1411.91 35.56 1415.34 31.38 1420.08 29.01V28.82L1420.09 28.83ZM1434.07 41.06C1434.07 36.44 1430.95 33.51 1426.83 32.14C1423.27 33.45 1421.15 36.76 1421.15 40.5C1421.15 44.49 1423.58 47.99 1427.58 47.99C1431.58 47.99 1434.07 44.75 1434.07 41.06ZM1422.09 18.04C1422.09 21.66 1424.71 24.15 1428.39 25.53C1431.01 24.47 1433.19 21.54 1433.19 18.36C1433.19 15.18 1431.63 11.87 1427.7 11.87C1423.77 11.87 1422.08 15.05 1422.08 18.05L1422.09 18.04Z" fill="white"/>
</svg>
