<?xml version="1.0" encoding="utf-8"?>
<!-- Generator: Adobe Illustrator 27.0.0, SVG Export Plug-In . SVG Version: 6.00 Build 0)  -->
<svg version="1.1" id="_圖層_2" xmlns="http://www.w3.org/2000/svg" xmlns:xlink="http://www.w3.org/1999/xlink" x="0px" y="0px"
	 viewBox="0 0 181.4 96.4" style="enable-background:new 0 0 181.4 96.4;" xml:space="preserve">
<style type="text/css">
	.st0{fill:#FFFFFF;}
</style>
<g id="_圖層_1-2">
	<g>
		<g>
			<path class="st0" d="M75.4,40.4c-0.3-0.5-0.8-1.4-1.2-1.8c2.7-0.9,5.5-2.4,6.9-3.9l3,0.1c0,0.2-0.2,0.3-0.5,0.3
				c1.6,1.5,4.5,2.6,6.9,3.2c-0.5,0.6-1.1,1.4-1.4,2c-0.2-0.1-0.5-0.2-0.8-0.3v4.3H76.4V40L75.4,40.4z M79.4,38.6
				c-0.6,0.3-1.3,0.7-1.9,1h9.6c-0.6-0.3-1.2-0.6-1.8-0.9v0.5h-6L79.4,38.6L79.4,38.6z M77.5,50.6v-5.9h9.6v5.8h-2.5v-0.3h-4.7v0.4
				H77.5L77.5,50.6z M78.4,42.9h0.7c-0.1-0.5-0.2-1.1-0.4-1.6l1.1-0.3h-1.5L78.4,42.9L78.4,42.9z M81.3,42.9V41h-0.8
				c0.2,0.5,0.4,1.2,0.4,1.6l-1,0.3H81.3z M84.6,46.3h-4.7v0.4h4.7V46.3z M79.9,48.7h4.7v-0.4h-4.7V48.7z M83.6,37.7
				c-0.5-0.3-1-0.7-1.4-1.1c-0.4,0.4-0.8,0.7-1.3,1.1H83.6z M83.5,42.6c0.2-0.5,0.4-1.1,0.5-1.6h-0.8v1.9h1.1L83.5,42.6L83.5,42.6z
				 M86.1,41.4V41h-1.3L86.1,41.4z M86.1,41.6c-0.1,0-0.2,0-0.3,0c-0.2,0.4-0.5,0.9-0.7,1.3h1V41.6L86.1,41.6z"/>
			<path class="st0" d="M105,45.9l1.5,1.1c-0.1,0.1-0.2,0.1-0.3,0.1s-0.1,0-0.2,0c-0.4,0.2-0.9,0.5-1.5,0.8c0.7,0.3,1.5,0.6,2.4,0.7
				c-0.5,0.5-1.1,1.4-1.4,2c-1.9-0.5-3.2-1.3-4.3-2.4l0.1,1.2c-2,0.4-4,0.7-5.3,0.9c0,0.2-0.2,0.3-0.3,0.3l-0.9-2.4l1.6-0.2v-2.1
				h-1.6v-0.8l0,0c-0.3,2-0.8,4.1-1.8,5.6c-0.5-0.4-1.6-1-2.2-1.3c1.7-2.6,1.8-6.4,1.8-9.1v-5h13.2v4.8h-1.7
				c-0.1,0.1-0.2,0.1-0.4,0.2V41h2.1v2h-2.1v0.9h3v2C106.8,45.9,105,45.9,105,45.9z M95.2,40.2c0,0.8,0,2.1-0.2,3.7h2.3V43h-1.9v-2
				h1.9v-0.8H95.2L95.2,40.2z M103.5,37.4h-8.2v0.7h8.2V37.4z M98.8,47.8l2-0.2c-0.3-0.5-0.6-1-0.9-1.6h-1.1V47.8L98.8,47.8z
				 M101.6,41v-0.8H100c-0.1,0.1-0.2,0.1-0.4,0.2v0.7L101.6,41L101.6,41z M101.6,43.9V43h-2v0.9H101.6z M102.2,45.9
				c0.2,0.3,0.4,0.6,0.7,0.8c0.4-0.2,0.8-0.5,1.2-0.8H102.2z"/>
		</g>
		<g>
			<path class="st0" d="M74,61.5h-3.3v-5.9h3.2v1h-2V58h1.9v0.9h-1.9v1.6h2.2C74,60.6,74,61.5,74,61.5z"/>
			<path class="st0" d="M78.9,61.5h-1.3l-0.5-1.1c-0.2-0.4-0.3-0.7-0.5-1.1l0,0c-0.1,0.4-0.3,0.7-0.4,1.1l-0.5,1.1h-1.2l1.5-3
				l-1.5-2.9h1.3l0.5,1.2c0.1,0.3,0.3,0.6,0.4,1l0,0c0.1-0.4,0.2-0.6,0.4-1l0.5-1.1h1.2l-1.5,2.9C77.3,58.5,78.9,61.5,78.9,61.5z"/>
			<path class="st0" d="M83.9,61.5h-1.1V59h-2v2.5h-1.1v-5.9h1.1V58h2v-2.4h1.1V61.5z"/>
			<path class="st0" d="M85,55.6h1.1v5.9H85V55.6z"/>
			<path class="st0" d="M90,58.3c0.7,0.2,1.1,0.7,1.1,1.4c0,0.5-0.2,0.9-0.5,1.2c-0.4,0.4-1.1,0.5-2.1,0.5c-0.6,0-1,0-1.3-0.1v-5.6
				c0.3-0.1,0.9-0.1,1.5-0.1c0.7,0,1.2,0.1,1.6,0.4c0.3,0.2,0.6,0.6,0.6,1.1C91,57.6,90.6,58.1,90,58.3L90,58.3L90,58.3z M88.8,58
				c0.6,0,1-0.3,1-0.8c0-0.6-0.4-0.8-0.9-0.8c-0.2,0-0.4,0-0.5,0V58C88.4,58,88.8,58,88.8,58z M88.4,60.7c0.1,0,0.2,0,0.5,0
				c0.6,0,1.1-0.3,1.1-0.9c0-0.6-0.6-0.9-1.2-0.9h-0.4V60.7z"/>
			<path class="st0" d="M92.1,55.6h1.1v5.9h-1.1V55.6z"/>
			<path class="st0" d="M97.9,56.6h-1.5v4.9h-1.1v-4.9h-1.5v-1h4L97.9,56.6L97.9,56.6z"/>
			<path class="st0" d="M98.6,55.6h1.1v5.9h-1.1V55.6z"/>
			<path class="st0" d="M105.5,58.5c0,2-1,3.1-2.5,3.1c-1.6,0-2.4-1.3-2.4-3s1-3.1,2.5-3.1C104.7,55.5,105.5,56.9,105.5,58.5
				L105.5,58.5z M101.8,58.6c0,1.2,0.5,2.1,1.3,2.1c0.8,0,1.3-0.9,1.3-2.1c0-1.1-0.4-2.1-1.3-2.1C102.2,56.5,101.8,57.5,101.8,58.6
				L101.8,58.6z"/>
			<path class="st0" d="M110.7,61.5h-1.1l-1.3-2.4c-0.3-0.6-0.7-1.3-0.9-2l0,0c0,0.7,0.1,1.5,0.1,2.6v1.8h-1v-5.9h1.2l1.2,2.4
				c0.3,0.6,0.6,1.3,0.9,1.9l0,0c-0.1-0.8-0.1-1.6-0.1-2.5v-1.8h1V61.5L110.7,61.5z"/>
		</g>
	</g>
</g>
<g>
	<path class="st0" d="M104.4,90.6v0.9h-8.9v-0.9h3.9v-5.5H96v-1h7.9v1h-3.5v5.5H104.4z"/>
	<path class="st0" d="M114.8,84.9h-5.8c0.2,0.3,0.5,0.8,0.6,1.1l-0.7,0.3h2.4c0.2-0.4,0.5-0.9,0.7-1.3l0.9,0.2
		c-0.2,0.4-0.5,0.8-0.7,1.1h2.2v5.1c0,0.5-0.1,0.6-0.4,0.8c-0.3,0.1-0.8,0.1-1.7,0.1c0-0.2-0.2-0.5-0.3-0.7c0.6,0,1.1,0,1.3,0
		c0.2,0,0.2,0,0.2-0.2V87h-1.8v0.5c0,0.2,0,0.3,0.2,0.3h0.7c0.2,0,0.4,0,0.6,0c0,0.2,0,0.4,0.1,0.6c-0.1,0-0.4,0-0.6,0h-0.9
		c-0.7,0-0.8-0.3-0.8-1V87h-0.9c-0.2,1-0.6,1.5-2,1.8c-0.1-0.2-0.2-0.5-0.4-0.6v4.1h-0.9v-6h2.1c-0.1-0.3-0.4-0.8-0.5-1.1l0.7-0.2
		H106v-0.8h4c-0.1-0.3-0.2-0.6-0.3-0.9l0.9-0.2c0.1,0.3,0.3,0.8,0.4,1.1h3.7V84.9z M107.4,88.2c1.1-0.2,1.4-0.5,1.6-1.2h-1.6V88.2z
		 M109.3,91v0.4h-0.8v-2.8h3.7V91H109.3z M109.3,89.4v1h2.2v-1H109.3z"/>
	<path class="st0" d="M118.2,86v0.5c0,1.7-0.1,4.2-1.2,5.8c-0.2-0.2-0.6-0.4-0.8-0.5c1-1.5,1.1-3.7,1.1-5.3v-2.9h7.5V86H118.2z
		 M118.2,84.4v0.8h5.6v-0.8H118.2z M124.9,89.8c-0.4,0.3-1,0.7-1.5,0.9c0.6,0.4,1.2,0.7,2,0.8c-0.2,0.2-0.4,0.5-0.6,0.8
		c-1.8-0.4-2.9-1.4-3.6-2.9h-1.2v1.8l1.9-0.4c0,0.2-0.1,0.6-0.1,0.8c-2.4,0.5-2.7,0.6-2.9,0.8v0c-0.1-0.2-0.2-0.6-0.4-0.8
		c0.2-0.1,0.5-0.4,0.5-0.8v-1.4h-1v-0.8h1.6v-0.9h-1.4v-0.8h1.4V86h0.8v0.9h1.8V86h0.9v0.9h1.6v0.8h-1.6v0.9h2v0.8h-1.1L124.9,89.8z
		 M120.7,88.6h1.8v-0.9h-1.8V88.6z M122.2,89.4c0.2,0.3,0.4,0.6,0.7,0.9c0.5-0.3,1-0.6,1.3-0.9H122.2z"/>
	<path class="st0" d="M134.7,91.5c0.4,0,0.4-0.1,0.5-0.8c0.2,0.1,0.5,0.2,0.8,0.3c-0.1,1-0.3,1.3-1.1,1.3h-1.6c-1,0-1.3-0.2-1.3-1
		v-0.6h-1.3c-0.3,1-1.1,1.4-3.4,1.6c-0.1-0.2-0.3-0.5-0.4-0.7c1.9-0.1,2.6-0.4,2.9-0.9h-1.3v-3.3h6.2v3.3h-1.7v0.6
		c0,0.2,0.1,0.3,0.5,0.3H134.7z M131.4,87h-4.1v-3.6h4V84h-1.6v0.4h1.3V86h-1.3v0.5h1.6V87z M128.1,84v0.4h0.9V84H128.1z M130.2,85
		h-2.2v0.5h2.2V85z M128.1,86.5h0.9V86h-0.9V86.5z M129.2,88.3h4.4v-0.4h-4.4V88.3z M129.2,89.2h4.4v-0.4h-4.4V89.2z M129.2,90.1
		h4.4v-0.4h-4.4V90.1z M132.6,84.3c-0.2,0.4-0.5,0.7-0.9,1c-0.1-0.2-0.4-0.4-0.6-0.5c0.6-0.5,1-1.1,1.2-1.6l0.8,0.1
		c0,0.1-0.1,0.3-0.2,0.4h2.9v0.6H132.6z M131.8,85.5h3.9v1.6h-3.9V85.5z M135.3,84.6v0.5h-3v-0.5H135.3z M132.4,86.6h0.5V86h-0.5
		V86.6z M133.4,86.6h0.5V86h-0.5V86.6z M134.5,86.6h0.5V86h-0.5V86.6z"/>
	<path class="st0" d="M137.2,87.6c0.2-0.7,0.4-1.8,0.5-2.6l0.7,0.1c-0.1,0.8-0.2,2-0.5,2.7L137.2,87.6z M140.1,86.3
		c-0.1-0.4-0.3-0.9-0.5-1.4v7.3h-0.9v-9.2h0.9v1.6l0.5-0.2c0.2,0.5,0.5,1.1,0.6,1.5L140.1,86.3z M145.9,91.3c0,0.4-0.1,0.7-0.4,0.8
		c-0.3,0.1-0.8,0.1-1.5,0.1c0-0.2-0.1-0.6-0.3-0.8c0.5,0,0.9,0,1.1,0c0.1,0,0.2,0,0.2-0.2v-0.6h-3.3c-0.1,0.6-0.3,1.2-0.7,1.6
		c-0.1-0.2-0.5-0.5-0.7-0.6c0.6-0.7,0.6-1.7,0.6-2.5v-1.8h4.9V91.3z M146.4,86.3V87h-6.1v-0.7h2.5v-0.6h-2v-0.6h2v-0.5h-2.3v-0.7
		h2.3v-0.7h0.9v0.7h2.3v0.7h-2.3v0.5h2v0.6h-2v0.6H146.4z M145,90.1v-0.6h-3.1c0,0.2,0,0.4,0,0.6H145z M141.8,88.2v0.6h3.1v-0.6
		H141.8z"/>
	<path class="st0" d="M151,89.9c-1,0.4-2.1,0.9-3,1.2l-0.3-0.9c0.3-0.1,0.8-0.2,1.2-0.4v-3.3h-1v-0.9h1v-2.3h0.9v2.3h0.9v0.9h-0.9v3
		l1-0.4L151,89.9z M155.7,91.4c0.1,0,0.2,0,0.3,0c0.1,0,0.1-0.1,0.1-0.2c0-0.1,0-0.4,0-0.8c0.2,0.2,0.5,0.3,0.7,0.4
		c0,0.4-0.1,0.8-0.1,0.9c-0.1,0.2-0.2,0.3-0.4,0.3c-0.2,0.1-0.4,0.1-0.6,0.1h-0.7c-0.2,0-0.5-0.1-0.7-0.2c-0.2-0.1-0.2-0.3-0.2-0.9
		v-1.4h-0.8c-0.2,1.4-0.7,2.2-2.5,2.6c-0.1-0.2-0.3-0.6-0.5-0.7c1.6-0.3,2-0.8,2.1-1.9h-0.9v-2.9h4.6v2.9H155v1.4
		c0,0.1,0,0.2,0.1,0.3c0.1,0,0.1,0,0.2,0H155.7z M156.7,86.4h-5.6v-0.8h1.3c-0.1-0.2-0.2-0.6-0.3-0.8l0.8-0.2c0.1,0.3,0.3,0.7,0.3,1
		l-0.2,0h1.4c0.1-0.3,0.3-0.7,0.4-1l0.8,0.2c-0.1,0.3-0.3,0.6-0.4,0.8h1.4V86.4z M156.4,84.6h-5v-0.8h2.1c-0.1-0.2-0.1-0.4-0.2-0.6
		l0.9-0.2c0.1,0.2,0.2,0.5,0.3,0.7h2V84.6z M152.4,88h2.9v-0.5h-2.9V88z M152.4,89.1h2.9v-0.6h-2.9V89.1z"/>
	<path class="st0" d="M161.1,88.3c-0.5,1.2-1.2,2.4-2,3.1c-0.2-0.2-0.6-0.5-0.9-0.6c0.8-0.7,1.4-1.7,1.8-2.8L161.1,88.3z
		 M163.3,87.1v5.1h-1v-5.1h-3.8v-0.9h8.8v0.9H163.3z M166.4,84.7h-7v-0.9h7V84.7z M165.7,88c0.7,0.9,1.5,2.2,1.8,3l-1,0.4
		c-0.2-0.8-1-2.1-1.7-3L165.7,88z"/>
	<path class="st0" d="M169,91.6c0.5-0.4,0.9-1.1,1.2-1.7l0.8,0.3c-0.3,0.6-0.7,1.4-1.2,1.8L169,91.6z M177.7,86.1h-8.5v-0.7h2.2
		c-0.1-0.2-0.2-0.5-0.3-0.7l0.7-0.1h-2.1v-0.7h3.4c-0.1-0.2-0.2-0.4-0.3-0.6l0.9-0.2c0.1,0.2,0.3,0.5,0.4,0.8h3.1v0.7h-2l0.7,0.1
		c-0.1,0.3-0.3,0.5-0.4,0.7h2.3V86.1z M176.6,89.5h-3.3c0.5,0.2,1,0.6,1.3,0.8l-0.6,0.6c-0.3-0.3-1-0.8-1.6-1.1l0.4-0.3h-2.5v-2.9
		h6.3V89.5z M175.6,87.2h-4.5v0.6h4.5V87.2z M175.6,88.3h-4.5v0.6h4.5V88.3z M174.4,91.4c0.4,0,0.5-0.1,0.5-0.9
		c0.2,0.1,0.6,0.2,0.8,0.3c-0.1,1.1-0.4,1.4-1.2,1.4h-1.8c-1.1,0-1.4-0.2-1.4-1V90h0.9v1.2c0,0.2,0.1,0.3,0.6,0.3H174.4z
		 M171.9,84.5c0.2,0.3,0.3,0.6,0.4,0.9h2.2c0.1-0.3,0.3-0.6,0.4-0.9H171.9z M176.5,89.8c0.5,0.5,1,1.2,1.3,1.7l-0.8,0.4
		c-0.2-0.5-0.7-1.2-1.2-1.8L176.5,89.8z"/>
</g>
</svg>
