<svg width="541" height="164" viewBox="0 0 541 164" fill="none" xmlns="http://www.w3.org/2000/svg">
<g filter="url(#filter0_d_1_478)">
<path d="M91.5204 149.09H60.5304V115.025H3.38037V92.9L53.4204 2.84H91.5204V89.435H107.105V115.025H91.5204V149.09ZM32.6304 89.435H60.5304V59.6C60.5304 51.32 61.2954 41.51 61.6854 32.855H61.1154C57.0804 41.51 53.4204 50.18 48.8004 59.03L32.6304 89.045V89.435Z" fill="#FFFF00"/>
<path d="M145.985 149.09V32.855H145.595L120.38 45.755L112.88 21.32L150.41 2.84H179.09V149.09H145.985Z" fill="#FFFF00"/>
<path d="M284.345 149.09H253.355V115.025H196.205V92.9L246.245 2.84H284.345V89.435H299.93V115.025H284.345V149.09ZM225.455 89.435H253.355V59.6C253.355 51.32 254.12 41.51 254.51 32.855H253.94C249.905 41.51 246.245 50.18 241.625 59.03L225.455 89.045V89.435Z" fill="#FFFF00"/>
<path d="M309.755 2.84H402.89V24.005L350.165 149.09H315.53L368.255 31.31V30.92H309.755V2.82498V2.84Z" fill="#FFFF00"/>
<path d="M526.145 91.5799V108.14H497.63V149.585H480.11V108.14H453.53L455.465 119.135C442.415 124.205 428.645 129.29 419.465 132.425C419.345 133.76 418.37 134.72 417.29 134.96L410.045 115.625C414.035 114.665 418.985 113.45 424.43 111.875V79.85H412.955V63.29H424.43V35.99L444.965 37.07C444.845 38.405 443.885 39.245 441.455 39.605V63.29H452.09V79.85H441.455V107.03L451.61 104.135V91.565H480.125V56.045H455.24V39.74H523.265V56.045H497.645V91.565H526.16L526.145 91.5799ZM462.59 90.7399C461.99 83.4949 458.96 72.125 455.345 63.8L469.97 59.33C473.96 67.67 477.215 78.425 478.19 85.79L462.605 90.7399H462.59ZM526.025 65C525.545 65.96 524.33 66.455 522.395 66.455C520.1 74.075 515.99 84.2149 512.615 90.7399L499.805 85.67C502.7 78.305 505.85 67.055 507.41 58.73L526.01 65.015L526.025 65Z" fill="white"/>
</g>
<defs>
<filter id="filter0_d_1_478" x="0.890372" y="0.334982" width="539.4" height="163.38" filterUnits="userSpaceOnUse" color-interpolation-filters="sRGB">
<feFlood flood-opacity="0" result="BackgroundImageFix"/>
<feColorMatrix in="SourceAlpha" type="matrix" values="0 0 0 0 0 0 0 0 0 0 0 0 0 0 0 0 0 0 127 0" result="hardAlpha"/>
<feOffset dx="5.82" dy="5.82"/>
<feGaussianBlur stdDeviation="4.155"/>
<feColorMatrix type="matrix" values="0 0 0 0 0.101961 0 0 0 0 0.12549 0 0 0 0 0.219608 0 0 0 0.34 0"/>
<feBlend mode="normal" in2="BackgroundImageFix" result="effect1_dropShadow_1_478"/>
<feBlend mode="normal" in="SourceGraphic" in2="effect1_dropShadow_1_478" result="shape"/>
</filter>
</defs>
</svg>
