<svg width="531" height="159" viewBox="0 0 531 159" fill="none" xmlns="http://www.w3.org/2000/svg">
<path d="M163.47 22.45C161.18 20.31 158.81 18.25 156.6 16.42L165.23 9.70001C172.87 15.58 182.41 24.05 186.61 30.55L177.07 38.26C176.08 36.5 174.63 34.52 172.87 32.46C152.79 33.45 132.02 34.29 118.35 34.75C118.12 35.59 117.36 35.97 116.59 36.05L112.77 23.68L126.06 23.45C130.64 16.58 135.45 7.57001 138.28 0.0100098L152.02 5.05001C151.64 5.81001 150.65 6.20001 149.35 6.20001C146.75 11.54 143.01 17.73 139.27 23.15L163.47 22.46V22.45ZM124.07 73.3V39.7H175.15V72.99H163.47V71H135.22V73.29H124.07V73.3ZM163.47 50.32H135.22V60.25H163.47V50.32Z" fill="white"/>
<path d="M195.15 21.68C198.97 23.44 204.08 26.34 206.6 28.63L200.19 37.11C197.98 34.82 192.94 31.46 189.12 29.4L195.15 21.69V21.68ZM196.75 1.83004C200.57 3.74004 205.61 6.87004 208.05 9.31004L201.41 17.63C199.27 15.11 194.31 11.6 190.49 9.31004L196.75 1.83004ZM191.02 66.96C193.85 60.93 197.66 51.38 200.64 42.22L209.42 47.87C206.98 56.04 204.08 64.13 201.63 70.09C202.16 70.62 202.47 71.24 202.47 71.85C202.47 72.23 202.32 72.61 202.16 73L191.01 66.97L191.02 66.96ZM254.93 28.1L259.21 26.73C260.66 29.78 262.11 33.75 262.72 36.35L257.15 38.26C256.77 36.27 255.93 33.37 254.94 30.78V39.94H248.07V32.23C247.23 34.9 246.08 37.73 244.63 39.64C243.79 38.88 242.34 37.81 241.12 36.97V39.49H226.31V35.06L221.42 36.43C221.19 34.67 220.66 32.08 220.05 29.79V39.95H213.33V32.85C212.41 35.22 211.27 37.58 209.89 39.34C208.74 38.27 206.61 36.74 205.23 35.9C206.83 33.69 208.06 30.1 208.74 26.74L213.32 28.04V25.52L209.04 25.75C208.89 26.36 208.35 26.67 207.82 26.74L205.83 19.33H210.33C210.94 18.57 211.63 17.8 212.32 17.04C210.72 15.36 208.65 13.53 206.75 12.15L210.11 6.81004L210.95 7.34004C212.25 5.13004 213.47 2.53004 214.23 0.540039L221.03 4.36004C220.72 4.82004 220.04 5.05004 219.2 4.97004C218.28 6.57004 216.91 8.79004 215.46 10.77L216.45 11.69C217.6 10.09 218.66 8.48004 219.5 7.11004L224.23 10.09V8.26004H242.48V9.94004L244.47 6.81004L245.31 7.34004C246.68 5.13004 247.98 2.53004 248.82 0.540039L255.62 4.36004C255.31 4.82004 254.63 5.05004 253.79 4.97004C252.8 6.57004 251.35 8.79004 249.9 10.77L250.97 11.76C252.27 10.08 253.49 8.40004 254.41 6.87004L261.05 11.07C260.67 11.6 259.9 11.68 259.14 11.6C257.31 13.81 254.79 16.72 252.19 19.31H255.47C255.24 18.55 254.94 17.78 254.63 17.1L259.75 15.04C261.12 17.94 262.42 21.91 262.8 24.43L257.38 26.72C257.3 26.19 257.23 25.57 257.07 24.96L254.93 25.11V28.09V28.1ZM250.88 57.04L253.02 56.73L259.2 58.41C259.05 59.17 258.82 59.94 258.44 60.55C256.46 72.54 253.78 73.3 242.25 73.3C240.34 73.3 238.13 73.3 235.84 73.22C235.76 70.78 234.62 67.49 233.17 65.28C236.22 65.59 239.51 65.66 241.65 65.66C245.7 65.66 246.31 65.66 247.22 63.67H220.65L220.12 65.58L210.19 64.36C211.56 60.16 213.01 54.2 213.93 49.24H243.86V47.71H211.49V41.53H254.1V55.43H222.72L222.34 57.03H250.9L250.88 57.04ZM241.11 34.06C242.03 31.92 242.71 29.25 243.17 26.73L248.06 28.1V25.5L244.01 25.73C243.86 26.34 243.32 26.65 242.79 26.72L241.03 20.08H226.29V15.27H241.1V19.32H244.69C245.38 18.63 246.06 17.87 246.75 17.03C245.45 15.73 244 14.36 242.47 13.21V13.74H224.22V11.83C222.54 13.97 220.17 16.72 217.65 19.31H220.55L219.86 17.1L224.36 15.5C225.2 17.49 225.81 19.85 226.27 21.91V21.6H241.08V26.41H226.27V25.04L221.84 26.64C221.84 26.11 221.76 25.57 221.69 24.96L220.01 25.11V28.01L224.51 26.87C225.2 29.01 225.88 31.6 226.27 33.59V27.94H241.08V34.05L241.11 34.06ZM240.5 1.84004V6.72004H227.06V1.83004H240.5V1.84004ZM234.62 34.9V32.53H232.48V34.9H234.62Z" fill="white"/>
<path d="M333.96 41.08H308.15C307.62 46.73 306.24 52 303.19 56.73C312.28 60.78 323.96 61.69 339.46 61.85C337.25 64.52 334.88 69.41 334.27 73.3C318.16 72.46 305.25 70.47 295.18 64.9C289.91 68.64 282.66 71.7 272.81 73.68C271.51 71.16 268.46 66.27 266.01 63.75C274.94 62.38 281.36 60.39 285.86 57.87C282.35 54.28 279.37 49.85 276.77 44.43L286.62 41.07H272.65V10.16H296.78V1.21997L310.68 1.90997C310.6 2.82997 309.92 3.35997 308.31 3.66997V10.16H333.97V41.08H333.96ZM283.49 20.77V30.47H296.78V20.77H283.49ZM287.15 41.08C289.14 44.74 291.35 47.8 293.87 50.32C295.47 47.57 296.24 44.44 296.54 41.08H287.15ZM322.5 20.77H308.3V30.47H322.5V20.77Z" fill="white"/>
<path d="M382.36 58.26H414.05V69.48H343.57V58.26H370.37V1.59998L384.8 2.35998C384.72 3.27998 384.04 3.80998 382.36 4.11998V22.68H408.63V33.9H382.36V58.26Z" fill="white"/>
<path d="M60.93 124.51L67.73 126.95C67.5 127.64 67.2 127.87 66.81 128.32C65.13 134.73 62.38 140.31 58.72 144.89C62.38 147.03 66.51 148.63 71.24 149.7C68.95 151.69 66.05 155.73 64.67 158.33C59.71 156.88 55.36 154.74 51.54 152.07C48.26 154.67 44.59 156.8 40.47 158.48C39.32 156.11 36.96 152.52 34.97 150.39V158.41H24.36V152.22C16.8 153.06 9.55 153.9 4.43 154.36C4.28 155.12 3.67 155.5 3.06 155.58L0.08 145.21C1.91 145.13 4.05 145.06 6.42 144.9V123.06H0V114.36H70.48V123.06H34.97V149.78C38.25 148.63 41.31 147.03 43.98 145.05C41.46 142 39.4 138.56 37.64 134.74L43.44 133.14H36.34V124.82H59.17L60.93 124.51ZM60.32 88.3201V112.45H10.16V88.3201H60.32ZM24.36 123.06H16.5V124.89H24.36V123.06ZM16.5 132.38V134.44H24.36V132.38H16.5ZM16.5 144.37L24.36 143.84V141.93H16.5V144.37ZM49.18 97.1101V95.2801H20.77V97.1101H49.17H49.18ZM49.18 105.51V103.6H20.77V105.51H49.17H49.18ZM46.97 133.15C47.96 135.06 49.26 136.81 50.71 138.5C52.01 136.82 53.08 135.06 54.07 133.15H46.97Z" fill="white"/>
<path d="M116.74 147.73H146.67V156.36H76.58V147.73H105.59V145.21H82.23V136.96H105.59V134.67H84.75V109.93H105.59V108.02H77.03V99.47H105.59V97.1C98.41 97.48 91.16 97.71 84.29 97.79C84.06 95.42 82.92 91.6 82 89.47C100.25 89.09 120.79 87.79 133.69 85.58L140.87 93.83C140.56 94.06 140.03 94.21 139.5 94.21C139.19 94.21 138.89 94.13 138.51 94.06C132.25 95.05 124.77 95.82 116.75 96.43V99.48H146.15V108.03H116.75V109.94H138.89V134.68H116.75V136.97H141.72V145.22H116.75V147.74L116.74 147.73ZM95.59 117.04V119.1H105.59V117.04H95.59ZM95.59 127.58H105.59V125.52H95.59V127.58ZM127.51 117.04H116.74V119.1H127.51V117.04ZM127.51 127.58V125.52H116.74V127.58H127.51Z" fill="white"/>
<path d="M152.93 109.09H223.02V116.8H152.93V109.09ZM193.25 146.81V148.64H223.03V156.58H152.94V148.64H182.49V146.81H160.12V139.94H182.49V138.34H162.1V118.49H213.64V138.34H193.25V139.94H215.85V146.81H193.25ZM212.42 88.17V107.26H163.48V88.17H212.42ZM172.49 124.06V125.82H182.49V124.06H172.49ZM172.49 132.76H182.49V131H172.49V132.76ZM201.2 95.19V93.51H174.17V95.19H201.2ZM201.2 101.91V100.23H174.17V101.91H201.2ZM202.73 125.81V124.05H193.26V125.81H202.73ZM202.73 132.76V131H193.26V132.76H202.73Z" fill="white"/>
<path d="M294.33 109.62L300.97 112.45C300.82 112.98 300.36 113.59 299.9 113.98C297.76 125.2 294.1 134.75 289.13 142.46C292.57 145.44 296.61 147.8 301.5 149.56C299.29 151.55 296.23 155.74 294.78 158.57C289.97 156.51 285.92 153.84 282.56 150.63C279.58 153.61 276.38 156.13 272.86 158.11C271.49 155.82 267.97 151.93 265.68 150.17C264.38 153.22 262.85 155.97 261.02 158.42C259.34 156.66 255.29 153.38 252.85 151.93C254.22 150.17 255.45 148.19 256.44 145.9L251.55 147.73C251.02 144.98 249.87 141.09 248.72 137.5V158.42H239.1V134.75H238.87C238.26 140.93 236.88 148.27 234.82 152.92C232.83 151.62 229.32 150.09 227.11 149.18C228.87 144.98 229.86 137.8 230.32 131.47L239.1 133.46V128.42C236.12 128.57 233.37 128.8 231.08 128.88C230.85 129.72 230.16 130.02 229.55 130.1L227.56 119.26H233.06C234.05 117.96 235.04 116.66 236.04 115.29C233.9 111.93 230.54 108.11 227.56 105.21L232.75 97.57L234.05 98.71C236.04 94.59 237.94 89.78 239.17 85.96L249.78 90.24C249.47 90.77 248.63 91.08 247.49 91.08C245.73 95.2 242.68 100.78 240.08 104.9C240.61 105.51 241.15 106.2 241.61 106.81C244.13 102.84 246.34 98.79 248.02 95.2L257.03 99.25V90.09H282.84L285.13 89.94L290.32 90.86C290.24 91.47 290.09 92.23 289.94 92.84C289.25 97.42 288.11 103.61 286.89 109.94H292.54L294.3 109.63L294.33 109.62ZM248.36 119.01C247.75 117.48 247.06 115.96 246.38 114.51C245.16 116.11 243.94 117.64 242.79 119.09L248.36 119.01ZM248.74 133.75L255.76 131.46C256.75 134.06 257.82 137.03 258.74 139.86C261.79 129.32 262.56 115.43 262.63 100.23H257.74C257.28 100.54 256.67 100.69 255.83 100.69C253.54 104.51 250.41 109.09 247.13 113.52L253.93 110.69C256.76 115.88 259.66 122.68 260.5 127.26L252.02 131C251.87 129.93 251.64 128.79 251.26 127.49L248.74 127.72V133.75ZM275.77 142.53C273.78 139.32 272.03 135.81 270.58 131.99C269.51 138.63 267.98 144.66 265.85 149.78C269.52 147.87 272.87 145.43 275.78 142.53H275.77ZM272.87 100.23C272.79 102.14 272.79 104.05 272.72 105.96C273.33 110.24 274.17 114.28 275.24 118.02C276.39 112.29 277.61 105.8 278.6 100.23H272.87ZM276.08 120.92C277.61 125.88 279.59 130.39 282.19 134.36C284.71 130.16 286.77 125.27 288.22 119.78H284.94L284.48 121.92L276.08 120.93V120.92Z" fill="white"/>
<path d="M338.54 116.57H318.84V158.41H308V88.63H338.54V116.58V116.57ZM328.16 96.41H318.84V98.93H328.16V96.41ZM318.84 108.78H328.16V105.95H318.84V108.78ZM359.92 141.92H352.51V157.11H342.81V141.92H337.24C336.17 146.81 333.5 153.76 327.85 157.57C326.4 155.66 323.04 152.61 320.9 151.16C324.64 148.64 326.7 145.05 327.7 141.92H321.36V132.99H328.38V128.64H322.35V120.01H358.85V128.64H352.51V132.99H359.92V141.92ZM337.78 132.99H342.82V128.64H337.78V132.99ZM373.59 88.63V145.97C373.59 155.13 370.92 158.26 356.64 158.11C356.33 155.13 354.88 150.02 353.43 147.19C355.19 147.34 357.17 147.34 358.77 147.34C362.28 147.34 362.66 147.34 362.66 145.81V116.79H342.5V88.62H373.58L373.59 88.63ZM362.67 96.42H353.05V98.94H362.67V96.42ZM353.05 109.02H362.67V105.97H353.05V109.02Z" fill="white"/>
<path d="M442.76 92.98C442.45 93.29 441.92 93.44 441.31 93.44C441 93.44 440.7 93.44 440.39 93.36C438.79 94.73 436.27 96.64 433.98 98.25C434.9 99.24 435.81 100.16 436.88 101.08C439.4 99.02 442.38 96.19 444.21 93.98L452.99 100.62C452.76 100.93 452.15 101.08 451.54 101.08C451.23 101.08 450.93 101.08 450.62 101C449.02 102.37 446.34 104.44 443.9 106.04C447.03 107.8 450.39 109.17 454.06 110.24C451.77 112.23 448.87 116.27 447.42 118.87C445.13 118.03 442.92 117.11 440.85 116.04V119.93C440.85 121.69 440.85 121.91 441.54 121.91C442.61 121.91 442.76 121.91 442.91 121.83C443.6 121.6 443.75 120 443.83 117.86C445.43 119.31 448.95 120.99 451.47 121.83C450.78 126.03 450.25 129.69 443.15 129.69H439.18C431.62 129.69 431.62 123.58 431.62 119.92V116.87H426.35C425.89 121.91 423.98 127.25 418.56 131H438.72L440.32 130.77L446.28 132.68C446.13 133.21 445.9 133.44 445.59 133.83C443.91 139.02 441.39 143.3 438.11 146.81C441.7 148.11 445.82 149.02 450.4 149.56C448.19 151.7 445.44 155.74 444.06 158.42C438.56 157.35 433.75 155.59 429.71 153.15C425.51 155.44 420.7 157.12 415.28 158.34C414.36 155.97 412.3 152.38 410.62 150.4C414.9 149.71 418.71 148.64 422.15 147.19C420.01 144.98 418.26 142.53 416.73 139.78L422.46 138.25H414.67V131H417.88C416.58 129.32 413.83 126.42 412 125.04V130.84H402.3V129.31H396.73L396.12 133.43H404.52L406.73 133.28L412.3 134.04C412.3 134.88 412.15 135.87 411.99 136.79C410.62 157.86 409.09 158.48 391.76 158.17C391.53 155.27 390.31 151.45 388.63 148.93C392.07 149.24 395.58 149.31 397.18 149.31C400.23 149.31 401 148.85 401.76 141.29H394.74L394.36 143.27L385.58 141.9C386.8 136.4 388.18 128 388.94 121.28H402.3V117H393.44C391.3 118.22 389.01 119.37 386.72 120.36C385.35 117.92 382.6 114.18 380.46 112.19C384.35 110.82 388.02 108.91 391.38 106.62C389.47 105.32 387.03 103.95 385.12 102.88L391.23 97.15H386.88V88.6H407.27L409.03 88.22L416.21 91.43C415.98 92.04 415.52 92.35 415.06 92.73C412.69 98.91 409.03 104.26 404.45 108.76H412.01V124.18C416.97 120.97 417.58 117.16 417.58 113.64V108.6H430.48C424.75 103.18 420.4 96.38 417.19 88.29L426.05 85.85C426.89 87.84 427.81 89.74 428.95 91.58C430.86 89.82 432.69 87.92 433.99 86.31L442.77 92.95L442.76 92.98ZM391.45 97.18C393.59 98.1 396.18 99.39 398.25 100.69C399.32 99.55 400.23 98.4 401.08 97.18H391.46H391.45ZM425.5 138.26C426.65 139.79 428.1 141.16 429.7 142.38C431.07 141.16 432.3 139.78 433.29 138.26H425.5Z" fill="white"/>
<path d="M528.42 142.08H507.65C514.06 144.98 522.46 147.2 530.71 148.26C528.34 150.55 525.21 154.83 523.69 157.65C514.68 155.59 505.67 151.69 498.65 146.58V158.34H487.5V147.04C480.7 152 471.92 155.74 462.99 157.81C461.54 155.21 458.48 151.01 456.19 148.88C464.59 147.66 473.06 145.22 479.33 142.08H458.33V133.07H487.5V129.25C481.62 130.47 474.37 131.39 465.28 132.08C464.82 129.48 463.07 125.82 461.62 123.6C470.78 123.14 477.81 122.45 483.23 121.61L480.86 121L480.33 121.61L469.79 118.86C471.39 117.03 473.15 114.89 475.06 112.6H459.1V104.05H481.62L484.75 99.7H471.77V102.91H461.54V90.69H487.73V85.8L501.17 86.49C501.09 87.41 500.41 87.86 498.88 88.17V90.69H525.6V102.91H514.91V99.7H489.41L497.27 101.99C496.96 102.75 496.2 103.06 494.75 102.98L493.99 104.05H527.51V112.6H514.53C514.38 112.68 514.15 112.68 513.92 112.75C512.47 115.27 510.87 117.64 508.8 119.62C514.6 121.3 519.95 122.98 523.92 124.51L517.35 132.15C512.92 130.24 506.35 128.03 499.18 125.89C496.74 126.88 493.99 127.8 490.7 128.56L501.01 129.09C500.93 130.01 500.25 130.46 498.64 130.77V133.06H528.42V142.07V142.08ZM487.57 112.61L486.27 114.21C489.86 114.9 493.75 115.81 497.65 116.73C499.33 115.51 500.55 114.13 501.54 112.61H487.57Z" fill="white"/>
</svg>
