<svg width="46" height="199" viewBox="0 0 46 199" fill="none" xmlns="http://www.w3.org/2000/svg">
<g filter="url(#filter0_d_2004_355)">
<path d="M31.76 15.8399H37.34V17.9299H23.97V15.8399H29.52V13.3599H25.71V11.2999H29.52V9.06986H26.68C26.27 9.93986 25.8 10.7499 25.3 11.3799C24.87 10.9799 24.01 10.3699 23.48 10.0399C24.54 8.78986 25.46 6.52986 25.95 4.43986L28.55 5.14986C28.49 5.27986 28.34 5.36986 28.11 5.35986C27.95 5.89986 27.77 6.44986 27.57 6.98986H29.52V4.35986L32.21 4.50986C32.2 4.66986 32.06 4.76986 31.75 4.82986V6.98986H36.6V9.07986H31.75V11.3099H35.97V13.3699H31.75V15.8499L31.76 15.8399Z" fill="white"/>
<path d="M24.74 27.7697C25.64 28.0797 26.87 28.6497 27.49 29.1397L26.26 30.9197C25.72 30.4197 24.53 29.7697 23.6 29.3897L24.75 27.7697H24.74ZM24.02 36.1897C24.75 35.0697 25.81 33.2697 26.65 31.5197L28.28 32.8597C27.56 34.4197 26.77 35.9297 26.08 37.0897C26.17 37.1897 26.2 37.2997 26.2 37.3997C26.2 37.4997 26.17 37.5897 26.11 37.6597L24.02 36.1897ZM37.6 30.1397H33.75V31.6197H36.69V37.6397H34.53V37.1097H30.92V37.6997H28.86V31.6197H31.59V30.1397H27.93V28.0997H31.59V26.6697C30.65 26.7997 29.68 26.9097 28.75 26.9797C28.68 26.5397 28.44 25.8497 28.22 25.3597L27.1 26.9497C26.57 26.4397 25.4 25.7697 24.48 25.3797L25.63 23.8097C26.5 24.1197 27.64 24.6797 28.26 25.1497C30.85 24.9097 33.58 24.4197 35.3 23.7397L37.11 25.4697C37.01 25.5597 36.89 25.5597 36.64 25.5597C35.8 25.8497 34.82 26.0997 33.75 26.3197V28.0997H37.6V30.1397ZM34.53 35.1897V33.5397H30.92V35.1897H34.53Z" fill="white"/>
<path d="M24.77 47.1597C25.55 47.4497 26.59 47.9697 27.09 48.4097L25.84 50.1297C25.38 49.6897 24.39 49.0897 23.59 48.7297L24.77 47.1597ZM23.81 55.8897C24.35 54.7297 25.09 52.8897 25.66 51.1297L27.39 52.2297C26.91 53.7997 26.36 55.3597 25.89 56.5097C25.99 56.6297 26.04 56.7497 26.04 56.8497C26.04 56.9397 26.03 57.0097 25.98 57.0697L23.81 55.8897ZM35.58 48.4097H33.32V48.9997H37.21V55.4197C37.21 56.7997 36.71 57.1097 34.7 57.1097C34.64 56.6497 34.45 56.0097 34.26 55.5797C34.6 55.5897 35.02 55.5897 35.16 55.5897C35.35 55.5897 35.35 55.5297 35.35 54.9897C35.17 55.1397 35.01 55.3097 34.92 55.4497C34.73 55.1897 34.57 54.8497 34.44 54.4697C34.28 54.8397 34.04 55.1997 33.71 55.4997C33.62 55.3497 33.49 55.1597 33.33 54.9897V57.0597H31.48V55.0197C31.32 55.1697 31.16 55.3297 31.07 55.4597C30.88 55.2097 30.73 54.8897 30.61 54.5297C30.45 54.9397 30.2 55.3497 29.85 55.6797C29.78 55.5497 29.64 55.3697 29.5 55.2097V57.1397H27.71V49.0097H31.49V48.4197H29.39V45.9997H27.49V44.8497L26.42 46.2897C25.96 45.8297 24.94 45.1997 24.14 44.8397L25.33 43.2797C26.04 43.5597 26.93 44.0097 27.49 44.4297V44.1697H29.39V43.1597L31.81 43.2897C31.8 43.4497 31.68 43.5497 31.38 43.5997V44.1697H33.51V43.1597L36.04 43.2897C36.03 43.4497 35.89 43.5497 35.6 43.5997V44.1697H37.61V46.0097H35.6V48.4297L35.58 48.4097ZM29.67 51.0697H31.17C31.19 52.0997 31.26 53.0197 31.46 53.7097V50.7597H29.48V54.3297C29.76 53.7997 29.88 53.1497 29.91 52.5697L30.25 52.6097L30.23 52.3197H29.67V51.0697ZM31.36 45.9897V46.6497H33.49V45.9897H31.36ZM35.34 50.7697H33.31V54.2497C33.62 53.7697 33.74 53.1497 33.77 52.5697L34.11 52.6097V52.3197H33.54V51.0697H35.04C35.05 52.1297 35.13 53.0697 35.35 53.7597V50.7597L35.34 50.7697Z" fill="white"/>
<path d="M34.29 67.8399C33.2 66.4999 32.17 64.9699 31.4 63.4899L33.52 62.6499C34.43 64.4599 36.25 66.5399 37.87 67.8499C37.3 68.3099 36.46 69.1899 36.05 69.7899C35.83 69.5799 35.62 69.3599 35.4 69.1299C35.27 73.2899 35.11 74.9599 34.62 75.5699C33.97 76.4099 33.19 76.5099 30.98 76.4699C30.95 75.8399 30.66 74.9099 30.27 74.3099C31 74.3699 31.7 74.3799 32.06 74.3799C32.31 74.3799 32.47 74.3399 32.65 74.1599C32.91 73.8699 33.05 72.6499 33.15 69.9299H30.68C30.27 72.5299 29.5 75.0899 25.54 76.6299C25.28 76.0299 24.66 75.1299 24.14 74.6499C27.36 73.5899 28.12 71.8699 28.4 69.9299H26.2V68.8999C25.85 69.2499 25.48 69.5799 25.1 69.8699C24.72 69.4099 23.91 68.6199 23.41 68.2199C25.14 67.0399 26.79 64.8499 27.66 62.6799L30.26 63.5599C30.19 63.7099 30.01 63.7799 29.77 63.7499C29.09 65.1899 28.18 66.6299 27.15 67.8499H34.29V67.8399Z" fill="white"/>
<path d="M33.84 86.1799C34.28 84.8699 34.65 83.3899 34.84 82.1199L37.6 81.9399C37.12 83.3699 36.45 84.8499 35.72 86.0099L33.84 86.1699V86.1799Z" fill="white"/>
<path d="M27.12 102.68L28.28 102.27L28.68 104.12C27.24 104.8 25.71 105.46 24.68 105.88C24.67 106.04 24.56 106.16 24.43 106.2L23.5 103.86C23.96 103.73 24.51 103.55 25.13 103.35V99.47H23.85V97.46H25.13V94.14L27.54 94.27C27.53 94.43 27.41 94.52 27.11 94.56V97.45H28.36V99.46H27.11V102.66L27.12 102.68ZM31.38 104.83C31.38 105.73 31.48 105.83 32.35 105.83H34.82C35.58 105.83 35.73 105.54 35.86 104.13C36.32 104.44 37.14 104.78 37.71 104.89C37.46 107.01 36.84 107.73 35.02 107.73H32.14C29.95 107.73 29.35 107.11 29.35 104.84V101.4L28.37 101.83L27.58 99.93L29.36 99.18V95.49L31.81 95.62C31.8 95.78 31.68 95.87 31.38 95.93V98.31L32.17 97.97V94L34.59 94.13C34.58 94.29 34.46 94.38 34.16 94.42V97.11L35.2 96.67L35.63 96.39L37.31 96.99C37.27 97.08 37.18 97.18 37.05 97.25C37.05 100.09 37.02 101.61 36.98 102.23C36.92 103.61 36.04 103.86 34.63 103.86C34.57 103.33 34.41 102.52 34.19 102.1C34.38 102.11 34.63 102.11 34.75 102.11C34.9 102.11 34.97 102.07 35 101.85C35.03 101.67 35.03 100.84 35.03 98.93L34.18 99.3V104.46H32.18V100.17L31.39 100.51V104.83H31.38Z" fill="white"/>
<path d="M35.61 119.81L36.95 120.29C36.92 120.42 36.85 120.47 36.77 120.55C36.4 122.08 35.79 123.34 34.93 124.37C35.74 124.84 36.69 125.18 37.8 125.4C37.33 125.86 36.7 126.74 36.4 127.33C35.2 127.01 34.18 126.54 33.31 125.9C32.47 126.52 31.49 127 30.39 127.37C30.16 126.81 29.64 125.93 29.23 125.49C30.19 125.24 31.04 124.87 31.77 124.39C31.24 123.71 30.8 122.94 30.42 122.05L31.43 121.79H30.02V119.86H30.43C30.15 119.54 29.74 119.15 29.43 118.9V118.96H26.74V119.84H29.56V121.81H26.74V122.94L29.91 122.59L29.98 124.38C28.88 124.57 27.75 124.75 26.73 124.91V127.32H24.7V125.22L24.45 125.26C24.42 125.41 24.29 125.5 24.17 125.52L23.48 123.26C23.85 123.23 24.26 123.19 24.7 123.14V114.43L25.79 114.77C26.82 114.39 27.85 113.87 28.51 113.39L30.36 114.95C30.29 115.04 30.13 115.04 29.93 115.04C29.09 115.5 27.9 115.97 26.73 116.32V117H29.42V118.62C30.61 117.89 30.73 116.92 30.73 116V113.88H35.76V117.26C35.76 117.69 35.76 117.73 35.88 117.73C36.07 117.73 36.09 117.73 36.13 117.69C36.23 117.62 36.25 117.4 36.28 116.31C36.63 116.62 37.34 116.97 37.85 117.15C37.75 118.4 37.67 119.43 36.16 119.43H35.32C34.92 119.43 34.45 119.28 34.19 119C33.91 118.71 33.78 118.34 33.78 117.32V115.73H32.69C32.69 116.83 32.69 118.67 31.13 119.86H35.24L35.59 119.8L35.61 119.81ZM32.39 121.79C32.64 122.26 32.93 122.69 33.29 123.07C33.63 122.69 33.91 122.26 34.14 121.79H32.39Z" fill="white"/>
<path d="M24.77 136.8C25.55 137.09 26.59 137.61 27.09 138.05L25.84 139.77C25.38 139.33 24.39 138.73 23.59 138.37L24.77 136.8ZM23.81 145.53C24.35 144.37 25.09 142.53 25.66 140.77L27.39 141.87C26.91 143.44 26.36 145 25.89 146.15C25.99 146.27 26.04 146.39 26.04 146.49C26.04 146.58 26.03 146.65 25.98 146.71L23.81 145.53ZM35.58 138.05H33.32V138.64H37.21V145.06C37.21 146.44 36.71 146.75 34.7 146.75C34.64 146.29 34.45 145.65 34.26 145.22C34.6 145.23 35.02 145.23 35.16 145.23C35.35 145.23 35.35 145.17 35.35 144.63C35.17 144.78 35.01 144.95 34.92 145.09C34.73 144.83 34.57 144.49 34.44 144.11C34.28 144.48 34.04 144.84 33.71 145.14C33.62 144.99 33.49 144.8 33.33 144.63V146.7H31.48V144.66C31.32 144.81 31.16 144.97 31.07 145.1C30.88 144.85 30.73 144.53 30.61 144.17C30.45 144.58 30.2 144.99 29.85 145.32C29.78 145.19 29.64 145.01 29.5 144.85V146.78H27.71V138.65H31.49V138.06H29.39V135.64H27.49V134.49L26.42 135.93C25.96 135.47 24.94 134.84 24.14 134.48L25.33 132.92C26.04 133.2 26.93 133.65 27.49 134.07V133.81H29.39V132.8L31.81 132.93C31.8 133.09 31.68 133.19 31.38 133.24V133.81H33.51V132.8L36.04 132.93C36.03 133.09 35.89 133.19 35.6 133.24V133.81H37.61V135.65H35.6V138.07L35.58 138.05ZM29.67 140.71H31.17C31.19 141.74 31.26 142.66 31.46 143.35V140.4H29.48V143.97C29.76 143.44 29.88 142.79 29.91 142.21L30.25 142.25L30.23 141.96H29.67V140.71ZM31.36 135.63V136.29H33.49V135.63H31.36ZM35.34 140.41H33.31V143.89C33.62 143.41 33.74 142.79 33.77 142.21L34.11 142.25V141.96H33.54V140.71H35.04C35.05 141.77 35.13 142.71 35.35 143.4V140.4L35.34 140.41Z" fill="white"/>
<path d="M31.87 161.85V163.85C32.59 163.97 33.24 164 34.82 164C35.73 164 36.98 163.99 37.66 163.97C37.37 164.45 37.04 165.44 36.94 166.04H33.87C30.99 166.04 28.68 165.53 27.08 163.4C26.61 164.47 25.96 165.46 25.11 166.16C24.76 165.73 23.99 165.01 23.57 164.69C25.13 163.47 25.77 161.08 26.01 159.09L28.58 159.5C28.55 159.65 28.4 159.75 28.17 159.76C28.1 160.19 27.99 160.63 27.88 161.08C28.31 162.02 28.92 162.67 29.67 163.11V158.55H25.5V152.75H36.09V158.55H31.87V159.87H36.59V161.84H31.87V161.85ZM27.62 154.8V156.53H33.81V154.8H27.62Z" fill="white"/>
<path d="M6.48001 26.7197C6.10001 27.2497 5.70001 27.7197 5.30001 28.1597C5.09001 27.6197 4.57001 26.4797 4.26001 25.9697C5.55001 24.6497 6.89001 22.2397 7.68001 19.9297L10.07 20.7697C10.01 20.8997 9.85001 20.9797 9.61001 20.9597C9.24001 21.8597 8.82001 22.7497 8.36001 23.6297L9.02001 23.8097C8.98001 23.9597 8.84001 24.0697 8.58001 24.0997V33.8597H6.46001V26.7197H6.48001ZM18.43 23.0297V25.1497H16.89V31.4397C16.89 33.3897 16.3 33.9097 12.75 33.9097C12.66 33.3097 12.32 32.3497 12.02 31.7597C12.64 31.7997 13.31 31.8197 13.78 31.8197C14.62 31.8197 14.73 31.8197 14.73 31.4197V25.1497H9.31001V23.0297H14.73V20.0597L17.33 20.1797C17.32 20.3397 17.21 20.4597 16.89 20.4997V23.0297H18.43ZM11.58 30.3197C11.32 29.3897 10.52 27.9397 9.82001 26.8497L11.69 25.9497C12.42 26.9797 13.28 28.3497 13.62 29.2997L11.59 30.3097L11.58 30.3197Z" fill="white"/>
<path d="M11.8 48.57H9.16999V51.33C9.16999 52.64 8.90999 53.27 6.72999 53.27C6.66999 52.73 6.43999 51.96 6.21999 51.45C6.06999 51.76 5.92999 52.05 5.76999 52.29C5.38999 52.04 4.70999 51.73 4.26999 51.57C4.76999 50.89 5.07999 49.75 5.22999 48.7L7.19999 49.16C7.13999 49.29 7.01999 49.35 6.85999 49.34C6.72999 50.03 6.51999 50.79 6.22999 51.44C6.53999 51.45 6.90999 51.45 7.01999 51.45C7.14999 51.45 7.19999 51.41 7.19999 51.27V48.57H4.46999V46.84H11.82V48.57H11.8ZM7.16999 42.66V42.2H4.56999V40.48H7.16999V39.3L9.58999 39.43C9.57999 39.59 9.45999 39.68 9.15999 39.72V40.47H11.72V42.19H9.15999V42.65H11.25V44.35H5.03999V42.65H7.16999V42.66ZM15.8 43.88V45.16C15.8 46.78 16.4 49.69 18.61 51.38C18.24 51.85 17.64 52.73 17.33 53.26C15.83 52.16 14.99 49.84 14.79 48.54H14.78C14.56 49.86 13.56 52.1 11.89 53.26C11.67 52.79 11.07 51.86 10.71 51.47C11.03 51.23 11.34 50.99 11.61 50.72L10.04 51.37C9.94999 50.83 9.65999 49.94 9.35999 49.28L10.93 48.68C11.24 49.28 11.58 50.09 11.68 50.63C13.3 48.91 13.74 46.56 13.74 45.16V44.23C13.42 45.2 13.03 46.07 12.56 46.76C12.24 46.44 11.62 45.94 11.13 45.61V46.43H5.22999V44.73H11.12V45.16C11.93 43.76 12.4 41.49 12.62 39.27L15.07 39.74C15.03 39.89 14.89 39.98 14.67 39.98C14.57 40.64 14.46 41.3 14.32 41.96H17.29L18.42 41.99C18.42 42.05 18.2 44.65 17.7 46.57L16.02 46.09C16.11 45.5 16.2 44.71 16.27 43.89H15.79L15.8 43.88Z" fill="white"/>
<path d="M5.59 62.71C6.37 63 7.41 63.52 7.91 63.96L6.66 65.68C6.2 65.24 5.21 64.64 4.41 64.28L5.59 62.71ZM4.63 71.44C5.17 70.28 5.91 68.44 6.48 66.68L8.21 67.78C7.73 69.35 7.18 70.91 6.71 72.06C6.81 72.18 6.86 72.3 6.86 72.4C6.86 72.49 6.85 72.56 6.8 72.62L4.63 71.44ZM16.4 63.96H14.14V64.55H18.03V70.97C18.03 72.35 17.53 72.66 15.52 72.66C15.46 72.2 15.27 71.56 15.08 71.13C15.42 71.14 15.84 71.14 15.98 71.14C16.17 71.14 16.17 71.08 16.17 70.54C15.99 70.69 15.83 70.86 15.74 71C15.55 70.74 15.39 70.4 15.26 70.02C15.1 70.39 14.86 70.75 14.53 71.05C14.44 70.9 14.31 70.71 14.15 70.54V72.61H12.3V70.57C12.14 70.72 11.98 70.88 11.89 71.01C11.7 70.76 11.55 70.44 11.43 70.08C11.27 70.49 11.02 70.9 10.67 71.23C10.6 71.1 10.46 70.92 10.32 70.76V72.69H8.53V64.56H12.31V63.97H10.21V61.55H8.31V60.4L7.24 61.84C6.78 61.38 5.76 60.75 4.96 60.39L6.15 58.83C6.86 59.11 7.75 59.56 8.31 59.98V59.72H10.21V58.71L12.63 58.84C12.62 59 12.5 59.1 12.2 59.15V59.72H14.33V58.71L16.86 58.84C16.85 59 16.71 59.1 16.42 59.15V59.72H18.43V61.56H16.42V63.98L16.4 63.96ZM10.49 66.62H11.99C12.01 67.65 12.08 68.57 12.28 69.26V66.31H10.3V69.88C10.58 69.35 10.7 68.7 10.73 68.12L11.07 68.16L11.05 67.87H10.49V66.62ZM12.18 61.54V62.2H14.31V61.54H12.18ZM16.16 66.32H14.13V69.8C14.44 69.32 14.56 68.7 14.59 68.12L14.93 68.16V67.87H14.36V66.62H15.86C15.87 67.68 15.95 68.62 16.17 69.31V66.31L16.16 66.32Z" fill="white"/>
<path d="M8.26999 89.1301C7.83999 90.1701 7.20999 91.1401 6.13999 91.7701L4.48999 90.6101C5.39999 90.1301 6.11999 89.3001 6.48999 88.4401L8.26999 89.1301ZM18.17 81.6901V83.2801H4.67999V81.6901H8.03999C7.96999 81.4001 7.85999 81.0901 7.75999 80.8201L8.12999 80.7201H5.78999V79.1301H10.35V78.0601L12.94 78.1901C12.93 78.3701 12.79 78.4501 12.5 78.5101V79.1301H17.04V80.7201H15.5C15.43 80.7801 15.31 80.8101 15.16 80.8101C15.03 81.0701 14.87 81.3801 14.69 81.6901H18.17ZM12.5 90.3601C12.91 90.3601 13.01 90.2001 13.07 89.3001C13.45 89.5801 14.23 89.8101 14.76 89.9201C14.51 89.7101 14.23 89.5101 13.98 89.3301L15.6 88.2601C16.57 88.8801 17.77 89.8501 18.35 90.5801L16.62 91.7701C16.25 91.2401 15.55 90.5501 14.81 89.9501C14.62 91.5101 14.09 91.9301 12.72 91.9301H10.8C8.86999 91.9301 8.39999 91.4501 8.39999 89.9501V88.8201L9.95999 88.9101C9.77999 88.8201 9.61999 88.7501 9.45999 88.6701L9.91999 88.2101H6.94999V83.6001H15.95V88.2101H12.41C12.72 88.3901 13.01 88.5501 13.22 88.7101L11.9 90.0601C11.61 89.8101 11.12 89.5201 10.59 89.2201C10.56 89.2301 10.52 89.2501 10.47 89.2501V89.9301C10.47 90.3101 10.57 90.3601 11.09 90.3601H12.5ZM8.95999 84.9201V85.2901H13.84V84.9201H8.95999ZM8.95999 86.5201V86.8901H13.84V86.5201H8.95999ZM12.66 81.6901C12.78 81.4001 12.88 81.0401 12.97 80.7201H9.80999C9.93999 81.0401 10.06 81.4001 10.12 81.6901H12.66Z" fill="white"/>
<path d="M14.66 101.72C15.1 100.41 15.47 98.93 15.66 97.66L18.42 97.48C17.94 98.91 17.27 100.39 16.54 101.55L14.66 101.71V101.72Z" fill="white"/>
<path d="M9.02999 111.98V113.64H4.45999V111.98H9.02999ZM18.42 112.7V114.67H17.8V121.36C17.8 122.96 17.4 123.56 14.82 123.56C14.76 123.03 14.51 122.16 14.26 121.61C14.83 121.64 15.42 121.64 15.63 121.64C15.82 121.63 15.89 121.57 15.89 121.36V119.14L14.48 119.46C14.49 118.84 14.41 118.01 14.26 117.18C14.05 117.53 13.82 117.9 13.57 118.25V121.57C13.57 123.05 13.03 123.51 10.91 123.51C10.84 123.03 10.57 122.23 10.32 121.78C10.85 121.81 11.42 121.81 11.61 121.81C11.8 121.81 11.86 121.74 11.86 121.55V120.3C11.13 121.05 10.32 121.71 9.47999 122.24C9.31999 121.96 8.99999 121.49 8.69999 121.11V122.73H6.54999V123.29H4.95999V118.19H8.68999V120.54C9.37999 120.11 10.04 119.57 10.66 118.95C10.29 119.04 9.93999 119.11 9.65999 119.17C9.64999 119.3 9.53999 119.39 9.41999 119.43L8.72999 117.61C8.93999 117.58 9.16999 117.54 9.41999 117.51V110.9H10.52C10.64 110.43 10.76 109.92 10.81 109.52L13.04 109.99C12.98 110.11 12.86 110.18 12.64 110.18C12.57 110.4 12.48 110.65 12.38 110.9H13.54V116.26L14.08 116.47C14.02 116.19 13.96 115.93 13.89 115.68L15.36 115.33C15.57 116.01 15.73 116.77 15.84 117.5H15.85V114.68H13.75V112.71H15.85V109.64L18.17 109.74C18.16 109.9 18.05 110 17.76 110.05V112.71H18.38L18.42 112.7ZM8.67999 114.08V115.67H5.03999V114.08H8.67999ZM5.03999 117.69V116.1H8.67999V117.69H5.03999ZM8.66999 109.96V111.55H5.09999V109.96H8.66999ZM7.07999 121.07V119.82H6.56999V121.07H7.07999ZM11.87 112.4H11.08V112.91H11.87V112.4ZM11.87 114.43H11.08V114.96H11.87V114.43ZM11.08 116.47V117.2L11.87 117.04V116.47H11.08Z" fill="white"/>
<path d="M9.02999 131.38V133.04H4.45999V131.38H9.02999ZM18.42 132.1V134.07H17.8V140.76C17.8 142.36 17.4 142.96 14.82 142.96C14.76 142.43 14.51 141.56 14.26 141.01C14.83 141.04 15.42 141.04 15.63 141.04C15.82 141.03 15.89 140.97 15.89 140.76V138.54L14.48 138.86C14.49 138.24 14.41 137.41 14.26 136.58C14.05 136.93 13.82 137.3 13.57 137.65V140.97C13.57 142.45 13.03 142.91 10.91 142.91C10.84 142.43 10.57 141.63 10.32 141.18C10.85 141.21 11.42 141.21 11.61 141.21C11.8 141.21 11.86 141.14 11.86 140.95V139.7C11.13 140.45 10.32 141.11 9.47999 141.64C9.31999 141.36 8.99999 140.89 8.69999 140.51V142.13H6.54999V142.69H4.95999V137.59H8.68999V139.94C9.37999 139.51 10.04 138.97 10.66 138.35C10.29 138.44 9.93999 138.51 9.65999 138.57C9.64999 138.7 9.53999 138.79 9.41999 138.83L8.72999 137.01C8.93999 136.98 9.16999 136.94 9.41999 136.91V130.3H10.52C10.64 129.83 10.76 129.32 10.81 128.92L13.04 129.39C12.98 129.51 12.86 129.58 12.64 129.58C12.57 129.8 12.48 130.05 12.38 130.3H13.54V135.66L14.08 135.87C14.02 135.59 13.96 135.33 13.89 135.08L15.36 134.73C15.57 135.41 15.73 136.17 15.84 136.9H15.85V134.08H13.75V132.11H15.85V129.04L18.17 129.14C18.16 129.3 18.05 129.4 17.76 129.45V132.11H18.38L18.42 132.1ZM8.67999 133.48V135.07H5.03999V133.48H8.67999ZM5.03999 137.09V135.5H8.67999V137.09H5.03999ZM8.66999 129.36V130.95H5.09999V129.36H8.66999ZM7.07999 140.47V139.22H6.56999V140.47H7.07999ZM11.87 131.8H11.08V132.31H11.87V131.8ZM11.87 133.83H11.08V134.36H11.87V133.83ZM11.08 135.87V136.6L11.87 136.44V135.87H11.08Z" fill="white"/>
<path d="M9.38999 157.41L9.56999 159.25C7.91999 159.63 6.19999 160 5.08999 160.23C5.05999 160.38 4.92999 160.48 4.79999 160.49L4.26999 158.27C4.73999 158.21 5.27999 158.12 5.86999 158.02V155.43H4.64999V153.48H5.86999V151.28H4.54999V149.31H9.17999V151.28H7.86999V153.48H9.08999V155.43H7.86999V157.68L9.39999 157.4L9.38999 157.41ZM17.32 158.94H14.84V160.53C14.84 161.96 14.38 162.28 12.03 162.28C11.94 161.81 11.75 161.19 11.55 160.72C10.98 161.26 10.29 161.79 9.61999 162.17C9.29999 161.8 8.64999 161.2 8.24999 160.89C9.12999 160.46 10.04 159.74 10.54 159.07L12.64 159.85C12.58 159.97 12.43 160.03 12.24 160C12.06 160.21 11.86 160.41 11.64 160.63C12.01 160.64 12.43 160.64 12.57 160.64C12.73 160.63 12.79 160.6 12.79 160.45V158.94H10.32V155.68H17.31V158.94H17.32ZM18.22 153.61V155.29H9.33999V153.61H12.65V153.04H10.14V148.78H17.5V153.04H15.25C15.21 153.16 15.07 153.23 14.82 153.28V153.62H18.21L18.22 153.61ZM12.05 150V150.34H15.49V150H12.05ZM12.05 151.48V151.82H15.49V151.48H12.05ZM12.28 157.02V157.61H15.25V157.02H12.28ZM16.89 162.1C16.52 161.53 15.64 160.62 14.92 160L16.54 159.12C17.25 159.68 18.17 160.53 18.63 161.13L16.9 162.1H16.89Z" fill="white"/>
<path d="M17.11 168.46L18.48 168.96C18.47 169.06 18.42 169.17 18.33 169.24C17.93 170.5 17.45 172 16.86 173.56C18.05 175.04 18.42 176.04 18.42 176.94C18.42 179.92 16.41 179.92 15.13 179.88C15.12 179.32 14.88 178.47 14.56 177.9V181.68H12.46V169.84C12.14 170.62 11.77 171.37 11.36 172.07H12.08V173.91H10.13C9.9 174.2 9.66 174.48 9.42 174.75H11.67V181.58H9.66V181.08H7.79V181.71H5.86V177.6C5.68 177.7 5.51 177.81 5.32 177.89C5.1 177.43 4.59 176.58 4.25 176.17C4.81 175.92 5.35 175.61 5.87 175.27V174.74H6.59C6.93 174.48 7.24 174.2 7.55 173.9H4.61V172.06H6.98V170.94H5.19V169.12H6.98V167.78L9.38 167.91C9.36 168.06 9.25 168.16 8.95 168.2V169.11H10.21V170.15C10.44 169.67 10.65 169.17 10.83 168.65L12.48 169.18V168.52H16.7L17.14 168.45L17.11 168.46ZM9.65 177.07V176.41H7.78V177.07H9.65ZM7.78 179.38H9.65V178.66H7.78V179.38ZM8.93 172.06H9.09C9.34 171.71 9.57 171.33 9.78 170.94H8.93V172.06ZM14.56 170.53V177.82C14.91 177.85 15.22 177.85 15.43 177.85C16.16 177.85 16.31 177.51 16.31 176.84C16.31 176.12 15.91 175.33 14.71 173.93C15.09 172.7 15.42 171.56 15.68 170.54H14.56V170.53Z" fill="white"/>
<path d="M18.42 189.48C18.42 190.61 17.49 191.54 16.36 191.54C15.23 191.54 14.3 190.61 14.3 189.48C14.3 188.35 15.23 187.42 16.36 187.42C17.49 187.42 18.42 188.38 18.42 189.48ZM17.69 189.48C17.69 188.75 17.1 188.16 16.37 188.16C15.64 188.16 15.05 188.75 15.05 189.48C15.05 190.21 15.64 190.8 16.37 190.8C17.1 190.8 17.69 190.18 17.69 189.48Z" fill="white"/>
</g>
<defs>
<filter id="filter0_d_2004_355" x="2.45" y="2.55986" width="40.82" height="194.38" filterUnits="userSpaceOnUse" color-interpolation-filters="sRGB">
<feFlood flood-opacity="0" result="BackgroundImageFix"/>
<feColorMatrix in="SourceAlpha" type="matrix" values="0 0 0 0 0 0 0 0 0 0 0 0 0 0 0 0 0 0 127 0" result="hardAlpha"/>
<feOffset dx="1.8" dy="1.8"/>
<feGaussianBlur stdDeviation="1.8"/>
<feColorMatrix type="matrix" values="0 0 0 0 0.0196078 0 0 0 0 0.101961 0 0 0 0 0.247059 0 0 0 0.2 0"/>
<feBlend mode="normal" in2="BackgroundImageFix" result="effect1_dropShadow_2004_355"/>
<feBlend mode="normal" in="SourceGraphic" in2="effect1_dropShadow_2004_355" result="shape"/>
</filter>
</defs>
</svg>
