<svg width="402" height="153" viewBox="0 0 402 153" fill="none" xmlns="http://www.w3.org/2000/svg">
<path d="M79.345 8.49997C79.345 11.845 77.74 12.82 75.49 12.82C74.935 12.82 74.26 12.7299 73.855 12.5799L74.11 10.675C74.41 10.765 74.815 10.855 75.28 10.855C76.33 10.855 77.02 10.375 77.02 8.48495V0.504944H79.345V8.49997Z" fill="white"/>
<path d="M85.99 0.519958H88.33V12.655H85.99V0.519958Z" fill="white"/>
<path d="M103.915 12.655H101.59L98.995 7.62994C98.35 6.38494 97.645 4.88499 97.135 3.54999H97.075C97.165 5.04999 97.21 6.76001 97.21 8.92001V12.64H95.095V0.504944H97.615L100.165 5.42499C100.81 6.63999 101.485 8.12501 101.98 9.38501H102.01C101.875 7.84001 101.8 6.11493 101.8 4.14993V0.504944H103.915V12.64V12.655Z" fill="white"/>
<path d="M119.455 12.175C118.75 12.445 117.37 12.7749 116.005 12.7749C114.16 12.7749 112.765 12.2949 111.73 11.2899C110.695 10.2699 110.095 8.60494 110.095 6.68494C110.095 2.57494 112.825 0.38501 116.305 0.38501C117.535 0.38501 118.555 0.609958 119.14 0.894958L118.645 2.815C118.09 2.56 117.4 2.37994 116.335 2.37994C114.175 2.37994 112.54 3.69998 112.54 6.63998C112.54 9.57998 114.04 10.87 116.035 10.87C116.605 10.87 117.025 10.7949 117.235 10.7049V7.73495H115.48V5.88998H119.455V12.19V12.175Z" fill="white"/>
<path d="M133.75 0.670044C134.605 0.520044 135.7 0.414978 136.885 0.414978C138.895 0.414978 140.275 0.835018 141.28 1.67502C142.435 2.62002 143.11 4.11998 143.11 6.32498C143.11 8.93498 142.21 10.45 141.28 11.275C140.17 12.265 138.49 12.76 136.375 12.76C135.25 12.76 134.365 12.685 133.75 12.595V0.655029V0.670044ZM136.06 10.855C136.3 10.9 136.645 10.9 136.96 10.9C139.18 10.915 140.665 9.55001 140.665 6.35501C140.665 3.61001 139.33 2.24503 137.17 2.24503C136.69 2.24503 136.315 2.29002 136.06 2.33502V10.84V10.855Z" fill="white"/>
<path d="M157.945 7.61493C157.945 11.1699 156.265 12.82 153.52 12.82C150.775 12.82 149.245 11.1999 149.245 7.62994V0.489929H151.57V7.82495C151.57 9.95495 152.38 10.885 153.565 10.885C154.825 10.885 155.59 9.98495 155.59 7.82495V0.489929H157.915V7.61493H157.945Z" fill="white"/>
<path d="M181.36 12.655H178.915L178.045 9.44498H174.805L173.965 12.655H171.595L175.03 0.519958H177.955L181.345 12.655H181.36ZM177.715 7.69L176.995 4.92996C176.8 4.17996 176.605 3.18993 176.44 2.45493H176.395C176.245 3.21993 176.035 4.20995 175.855 4.91495L175.135 7.69H177.715Z" fill="white"/>
<path d="M195.685 0.519958L191.995 12.655H189.325L185.815 0.519958H188.365L189.73 5.88998C190.09 7.32998 190.45 8.78494 190.705 10.2549H190.75C191.02 8.79994 191.38 7.31498 191.755 5.88998L193.15 0.519958H195.655H195.685Z" fill="white"/>
<path d="M201.34 0.519958H203.68V12.655H201.34V0.519958Z" fill="white"/>
<path d="M219.31 12.655H216.865L215.995 9.44498H212.755L211.915 12.655H209.545L212.98 0.519958H215.905L219.295 12.655H219.31ZM215.665 7.69L214.945 4.92996C214.75 4.17996 214.555 3.18993 214.39 2.45493H214.345C214.195 3.21993 213.985 4.20995 213.805 4.91495L213.085 7.69H215.665Z" fill="white"/>
<path d="M232.15 2.53H229.15V12.655H226.825V2.53H223.855V0.504944H232.165V2.53H232.15Z" fill="white"/>
<path d="M237.925 0.519958H240.265V12.655H237.925V0.519958Z" fill="white"/>
<path d="M256.585 6.42996C256.585 10.66 254.44 12.82 251.44 12.82C248.245 12.82 246.43 10.135 246.43 6.60995C246.43 3.08495 248.425 0.309937 251.59 0.309937C254.95 0.309937 256.585 3.18995 256.585 6.41495V6.42996ZM248.86 6.565C248.86 8.95 249.79 10.8999 251.5 10.8999C253.21 10.8999 254.14 8.96494 254.14 6.50494C254.14 4.28494 253.3 2.21497 251.53 2.21497C249.76 2.21497 248.86 4.32999 248.86 6.54999V6.565Z" fill="white"/>
<path d="M271.6 12.655H269.275L266.68 7.62994C266.035 6.38494 265.33 4.88499 264.82 3.54999H264.76C264.85 5.04999 264.895 6.76001 264.895 8.92001V12.64H262.78V0.504944H265.3L267.85 5.42499C268.495 6.63999 269.17 8.12501 269.665 9.38501H269.695C269.56 7.84001 269.485 6.11493 269.485 4.14993V0.504944H271.6V12.64V12.655Z" fill="white"/>
<path d="M293.92 12.355C293.47 12.58 292.48 12.82 291.235 12.82C287.59 12.82 285.58 10.345 285.58 6.745C285.58 2.5 288.31 0.35498 291.52 0.35498C292.825 0.35498 293.68 0.624977 294.025 0.819977L293.575 2.70999C293.11 2.49999 292.465 2.31998 291.64 2.31998C289.645 2.31998 288.025 3.69997 288.025 6.62497C288.025 9.36997 289.42 10.84 291.61 10.84C292.33 10.84 293.11 10.705 293.575 10.495L293.905 12.37L293.92 12.355Z" fill="white"/>
<path d="M300.04 0.519958H302.38V12.655H300.04V0.519958Z" fill="white"/>
<path d="M316.465 2.53H313.465V12.655H311.14V2.53H308.17V0.504944H316.48V2.53H316.465Z" fill="white"/>
<path d="M330.49 0.519958L326.905 7.64496V12.67H324.58V7.73495L321.145 0.534973H323.74L324.94 3.51996C325.285 4.38996 325.57 5.13998 325.855 5.97998H325.885C326.125 5.16998 326.425 4.38994 326.77 3.50494L327.94 0.534973H330.505L330.49 0.519958Z" fill="white"/>
<path d="M34.3 92.815C32.635 96.19 30.13 98.545 26.8 99.895V106.645C34.72 105.97 40.195 101.365 43.255 92.815H34.3Z" fill="white"/>
<path d="M184.825 33.235C184.39 35.38 183.865 37.645 183.22 39.145H193.195V97.465C193.405 104.125 190.195 107.35 183.55 107.125H177.445V99.07H180.025C182.17 99.28 183.13 98.11 182.92 95.53V90.055H176.17C175.96 86.41 175.525 83.08 174.88 80.065V81.025C175.735 94.345 171.235 103.465 161.38 108.415V99.715C163.735 96.28 164.8 90.475 164.59 82.315V73.93H161.38V65.545H164.59V39.115H171.67C171.88 38.47 172.21 37.51 172.63 36.22C172.84 35.14 173.05 33.865 173.275 33.22H184.855L184.825 33.235ZM180.64 50.41C181.495 52.99 182.14 56.425 182.575 60.715C182.785 61.36 182.89 61.9 182.89 62.32H176.14C176.14 61.885 176.035 61.36 175.825 60.715C175.825 59.215 175.51 56.635 174.865 52.975V65.545H182.905V47.5H174.865V50.395H180.655L180.64 50.41ZM180.955 77.47C182.02 81.13 182.665 84.355 182.89 87.13V73.915H174.85V77.455H180.955V77.47ZM228.235 95.2C228.235 96.49 228.775 97.135 229.84 97.135C230.695 97.135 231.13 96.49 231.13 95.2V92.305H237.565V97.135C237.775 102.715 234.985 105.4 229.21 105.19H225.025C218.8 105.4 215.8 102.295 216.025 95.845V64.915H210.565V70.72C210.565 81.25 209.485 89.08 207.355 94.24C205.21 98.965 200.815 103.48 194.17 107.77V98.425C196.96 93.91 198.235 84.895 198.025 71.365V55.9H228.25V95.215L228.235 95.2ZM194.785 39.46H206.68V33.235H221.155V39.46H234.025V48.805H194.785V39.46Z" fill="white"/>
<path d="M244.96 72.88V65.47C253.81 63.115 259.99 58.915 263.5 52.9H278.32C272.35 65.14 261.22 71.8 244.96 72.88ZM314.155 39.685V54.505H301.495V48.7H257.935V54.505H245.275V39.685H271.84V33.22H287.905V39.685H314.155ZM314.155 97.045V105.745H245.275V97.045H272.455V81.58H253.915V71.92H305.185V81.58H286.645V97.045H314.14H314.155ZM314.155 72.88C297.88 71.815 286.765 65.14 280.795 52.9H295.615C299.11 58.915 305.29 63.1 314.155 65.47V72.88Z" fill="white"/>
<path d="M344.575 94.885C339.43 97.675 333.46 99.715 325.105 101.005V90.37C326.605 90.37 327.415 90.16 329.14 89.725V55.885H324.955V46.87H329.14V33.235H341.035V46.87H344.425V55.885H341.035V86.815C342.325 86.605 343.495 86.17 344.575 85.525V94.87V94.885ZM357.76 52.675V61.06H370.945V89.41C371.155 96.07 368.365 99.4 362.59 99.4H357.13V90.7H358.42C360.355 90.91 361.21 89.95 361 87.805V69.76H357.79V80.71C358 93.595 353.065 102.625 343 107.77V99.385C345.355 95.95 346.42 90.58 346.21 83.275V43.645H371.29V33.235H383.185V43.645H386.395V34.615H396.04V43.645H399.25V52.66H383.17C383.17 61.255 383.485 68.77 384.13 75.22C386.065 70.06 387.34 64.165 387.985 57.49H399.235C396.445 72.535 392.155 83.8 386.365 91.33C387.655 96.28 389.365 98.635 391.51 98.425C392.8 98.425 393.445 96.925 393.445 93.91H401.17C401.38 102.925 398.17 107.335 391.525 107.125C385.945 107.125 381.655 104.545 378.655 99.385C375.865 101.965 372.55 104.65 368.68 107.44V98.095C371.26 95.515 373.51 93.055 375.43 90.685C375.22 90.04 374.995 88.975 374.785 87.46C374.575 86.815 374.47 86.275 374.47 85.855C372.745 74.695 371.785 63.625 371.575 52.66H357.745L357.76 52.675Z" fill="white"/>
<path d="M84.565 47.68V39.685H93.445V33.235H105.085V39.685H113.05V44.005C113.725 42.31 115.195 39.28 115.45 37.615H124.075V35.695H152.875V41.14C152.875 44.395 152.62 47.65 152.08 50.86C150.97 57.445 149.59 62.2 147.97 65.14C151.645 70.24 153.49 75.655 153.49 81.37C153.49 91.78 148.18 96.985 137.56 96.985V87.79C140.83 87.595 142.465 85.03 142.465 80.125C142.66 75.025 140.83 70.12 136.945 65.425C138.985 60.115 140.215 53.485 140.62 45.52H136.03V107.155H124.09V45.415C121.9 49.09 120.31 51.04 118.27 54.1H122.56V63.37H111.655C109.825 65.41 109.045 66.25 106.585 67.885H120.4V97.36C120.4 102.61 116.155 106.855 110.905 106.855H87.01V78.295C85.66 79.69 85 80.11 82.105 81.67V72.175C88.03 69.325 93.235 67.045 97.72 63.37H82.405V54.1H93.43V47.665H84.55L84.565 47.68ZM98.035 76.165V81.685H109.675V76.165H98.035ZM109.675 92.71V89.65H98.035V95.17H107.23C109.075 95.17 109.885 94.36 109.675 92.725V92.71ZM106 54.115L106.3 53.815C108.34 51.37 109.765 49.33 110.59 47.695H105.085V54.13H106V54.115Z" fill="white"/>
<path d="M3.415 44.905H9.14499V62.41H3.16V71.125H9.14499V96.265C9.14499 96.265 8.99501 96.295 8.93501 96.295C6.64001 96.85 3.34 96.88 3.34 96.88V106.48C17.02 104.89 25.18 100.945 25.18 100.945V92.5C24.895 92.8 22.645 93.385 19.9 94.015V71.095H25.18V62.38H19.9V44.875H26.8V35.86H3.40001V44.875L3.415 44.905Z" fill="white"/>
<path d="M56.185 61.075V59.155H65.14C69.715 59.575 71.875 55.78 71.59 47.74V35.11H30.355V59.155H46.18V61.075H26.815V70.33H75.145V61.075H56.185ZM38.905 42.37H63.07V44.905H38.905V42.37ZM38.905 52.195V49.975H62.86C62.725 51.67 61.96 52.405 60.565 52.195H38.905Z" fill="white"/>
<path d="M69.925 78.58V71.875H32.02V91.165H47.44V94.555C47.575 97.39 46.81 98.695 45.145 98.485H42.64V106.66H48.895C53.89 106.87 56.32 103.27 56.185 95.86V91.165H63.895C68.77 91 70.21 86.215 69.94 78.58H69.925ZM59.305 84.4H40.765V78.715H61.18V79.375C61.075 81.925 61.72 84.505 59.305 84.4Z" fill="white"/>
<path d="M67.015 92.815H58.06C61.12 101.35 66.595 105.97 74.515 106.645V99.895C71.185 98.545 68.68 96.19 67.015 92.815Z" fill="white"/>
<path d="M14.545 136.12H25.345V138.565H0.625V136.12H11.23V134.98H3.7V132.67H11.23V131.5H2.2V129.055H11.23V127.09L15.28 127.315C15.25 127.585 15.04 127.78 14.545 127.825V129.055H23.65V131.5H14.545V132.67H22.21V134.98H14.545V136.12ZM21.205 139.675V149.785C21.205 152.665 19.765 152.86 14.74 152.86C14.575 152.065 14.14 150.985 13.765 150.25C14.44 150.28 15.205 150.31 15.865 150.31C17.905 150.31 17.905 150.28 17.905 149.77V148.735H7.97499V152.815H4.705V139.675H21.205ZM17.89 142.015H7.96002V143.215H17.89V142.015ZM7.96002 146.605H17.89V145.36H7.96002V146.605Z" fill="white"/>
<path d="M75.025 143.875V147.055H65.65V152.815H62.275V147.055H49.9V143.875H54.25V136.69H62.275V133.375H56.29C55.09 135.355 53.71 137.185 52.27 138.535C51.67 137.905 50.455 136.825 49.66 136.3C52.06 134.23 54.28 130.585 55.51 127.06L59.455 128.29C59.35 128.515 59.08 128.65 58.69 128.62C58.48 129.16 58.225 129.685 57.985 130.225H73.51V133.375H65.65V136.69H72.91V139.735H65.65V143.875H75.025ZM57.52 143.875H62.275V139.735H57.52V143.875Z" fill="white"/>
<path d="M116.275 134.68C116.515 137.455 116.95 140.14 117.475 142.435C118.585 140.53 119.485 138.445 120.145 136.21L123.895 137.275C123.835 137.515 123.565 137.68 123.13 137.65C122.035 140.92 120.55 143.845 118.69 146.41C119.485 148.39 120.4 149.62 121.36 149.62C122.035 149.62 122.425 148.18 122.59 144.73C123.265 145.465 124.36 146.26 125.23 146.575C124.69 151.63 123.625 152.86 121.105 152.86C119.2 152.83 117.655 151.45 116.425 149.155C115.045 150.595 113.485 151.87 111.775 152.905C111.31 152.23 110.275 150.97 109.63 150.355C111.67 149.245 113.515 147.715 115.09 145.87C114.055 142.75 113.41 138.805 113.05 134.695H104.845V137.44H110.125L111.805 137.5V138.475C111.7 144.625 111.535 147.07 110.905 147.91C110.11 148.915 109.3 149.155 105.88 149.08C105.805 148.135 105.475 146.845 104.98 146.065C105.985 146.14 106.915 146.17 107.35 146.17C107.71 146.17 107.95 146.095 108.16 145.84C108.46 145.465 108.565 144.04 108.655 140.425H104.845C104.74 144.4 104.11 149.59 101.605 152.875C101.095 152.245 99.76 151.135 99.055 150.73C101.425 147.55 101.605 142.87 101.605 139.33V131.56H112.84C112.765 130.12 112.705 128.65 112.705 127.21L116.815 127.435C116.785 127.735 116.545 127.9 116.02 127.975C115.99 129.175 116.02 130.375 116.08 131.56H120.64C119.695 130.75 118.39 129.79 117.265 129.115L119.305 127.21C120.715 128.02 122.59 129.25 123.52 130.18L122.11 131.56H124.48V134.68H116.29H116.275Z" fill="white"/>
<path d="M165.07 137.245C165.475 138.475 165.97 139.615 166.54 140.695C167.92 139.765 169.42 138.655 170.425 137.71L173.275 140.29C173.17 140.395 172.945 140.455 172.735 140.455C172.66 140.455 172.54 140.455 172.435 140.425C171.37 141.22 169.63 142.3 168.145 143.14C169.78 145.24 171.865 146.86 174.505 147.85C173.77 148.51 172.795 149.785 172.3 150.685C167.185 148.435 164.17 143.86 162.37 137.965C161.635 138.475 160.84 138.94 160 139.405C163.51 141.88 164.92 145.06 164.92 147.67C164.92 150.79 162.94 152.89 159.805 152.89C159.145 152.89 158.395 152.86 157.63 152.83C157.57 151.96 157.33 150.685 156.76 149.725C157.69 149.83 158.5 149.86 159.145 149.86C159.79 149.86 160.375 149.785 160.78 149.35C161.29 148.99 161.59 148.255 161.59 147.31C161.59 146.98 161.56 146.635 161.485 146.275C158.5 148.555 154.36 150.7 150.82 151.9C150.445 151.105 149.755 149.92 149.11 149.215C152.995 148.24 157.615 145.975 160.315 143.725C160.15 143.485 159.955 143.23 159.745 142.99C157.435 144.52 154.195 146.065 151.645 146.98C151.285 146.245 150.61 145.135 150.01 144.505C152.56 143.875 155.86 142.57 157.975 141.265C157.735 141.07 157.465 140.89 157.18 140.695C155.365 141.46 153.4 142.075 151.525 142.54C151.195 141.91 150.46 140.695 149.995 140.095C152.905 139.495 155.98 138.52 158.455 137.245H154.075V134.47H168.655V137.245H165.04H165.07ZM153.1 132.82V136H149.92V129.85H159.715V127.165L163.825 127.39C163.795 127.66 163.6 127.825 163.09 127.9V129.865H173.095V136.015H169.75V132.835H153.115L153.1 132.82Z" fill="white"/>
<path d="M251.68 140.065H238.765V152.815H235.645V150.28C232.765 150.655 229.99 150.955 228.055 151.18C227.995 151.42 227.815 151.555 227.62 151.585L226.69 148.48L229.06 148.315V140.05H226.69V137.47H251.68V140.05V140.065ZM248.065 128.125V136.45H230.305V128.125H248.065ZM235.645 141.145V140.05H232.03V141.145H235.645ZM235.645 144.55V143.41H232.03V144.55H235.645ZM232.03 148.105L235.645 147.835V146.8H232.03V148.105ZM244.81 131.275V130.24H233.44V131.275H244.81ZM244.81 134.32V133.255H233.44V134.32H244.81ZM248.62 140.98L250.63 141.745C250.555 141.97 250.435 142.015 250.33 142.18C249.655 144.55 248.56 146.56 247.12 148.24C248.5 149.11 250.105 149.785 251.935 150.22C251.26 150.82 250.42 152.02 250 152.77C248.095 152.2 246.415 151.39 244.975 150.295C243.67 151.33 242.2 152.17 240.595 152.83C240.22 152.065 239.425 150.895 238.825 150.295C240.235 149.83 241.57 149.125 242.74 148.225C241.705 146.995 240.835 145.615 240.16 144.07L241.9 143.575H239.35V141.07H248.08L248.62 140.965V140.98ZM242.89 143.59C243.385 144.565 244.03 145.495 244.795 146.305C245.5 145.495 246.1 144.565 246.565 143.59H242.89Z" fill="white"/>
<path d="M300.85 137.89H291.085C292.69 143.515 295.84 147.79 301.45 149.665C300.655 150.37 299.605 151.84 299.08 152.785C293.86 150.745 290.755 146.995 288.775 141.745C287.275 146.2 284.335 150.205 278.41 152.815C277.915 151.885 276.94 150.7 276.025 149.965C282.655 147.28 285.22 142.87 286.165 137.89H276.535V134.515H286.63C286.825 132.1 286.795 129.625 286.825 127.18L291.145 127.45C291.085 127.75 290.845 127.945 290.38 128.02C290.35 130.12 290.32 132.31 290.14 134.515H300.85V137.89Z" fill="white"/>
<path d="M348.46 133.54L350.17 133.615C350.14 133.855 350.14 134.29 350.11 134.65C349.87 146.065 349.645 150.07 348.775 151.315C347.83 152.725 346.795 152.86 343.015 152.785C342.955 151.885 342.61 150.55 342.07 149.68C343.345 149.785 344.455 149.785 345.04 149.785C345.475 149.785 345.745 149.68 346.015 149.32C346.555 148.585 346.81 145.3 346.99 136.615H344.245C343.81 143.44 342.34 149.185 337.225 152.815C336.73 152.02 335.725 150.94 334.915 150.37C336.22 149.47 337.255 148.435 338.095 147.265C333.94 148.27 329.635 149.245 326.815 149.845C326.785 150.115 326.605 150.28 326.35 150.34L325.105 146.635C325.705 146.56 326.38 146.44 327.115 146.305V128.245H336.625V144.61L338.5 144.25L338.695 146.32C340.21 143.65 340.81 140.365 341.065 136.585H337.585V133.48H341.2C341.23 131.5 341.23 129.37 341.23 127.15L345.235 127.375C345.205 127.675 344.935 127.87 344.44 127.945C344.44 129.85 344.41 131.695 344.38 133.495H348.46V133.54ZM333.61 131.23H330.025V134.005H333.61V131.23ZM333.61 139.66V136.855H330.025V139.66H333.61ZM330.025 142.51V145.855C331.165 145.66 332.395 145.45 333.61 145.195V142.51H330.025Z" fill="white"/>
<path d="M397.255 132.835L399.16 132.97C399.16 133.24 399.13 133.765 399.1 134.11C398.74 145.48 398.395 149.575 397.285 150.97C396.28 152.305 395.17 152.65 392.275 152.65C391.6 152.65 390.895 152.62 390.175 152.59C390.1 151.615 389.635 150.085 388.975 149.14C390.685 149.275 392.26 149.275 392.995 149.275C393.535 149.275 393.835 149.2 394.165 148.84C394.93 148.045 395.305 144.43 395.575 136.135H387.82C387.385 141.85 385.48 148.585 377.755 152.935C377.215 152.125 375.985 150.865 375.205 150.295C382.03 146.575 383.845 140.935 384.31 136.135H376.045V132.85H384.445V127.195L388.66 127.435C388.63 127.705 388.42 127.9 387.925 127.975V132.835H396.46L397.225 132.805L397.255 132.835Z" fill="white"/>
</svg>
