<svg width="306" height="580" viewBox="0 0 306 580" fill="none" xmlns="http://www.w3.org/2000/svg">
<g filter="url(#filter0_d_75_3616)">
<path d="M263.52 17.6499H293.62V35.4799H263.52V39.47H281.78V71.42H179.36V39.47H195.62V35.4799H165.81V17.6499H195.62V8.94995L220.44 10.2299C220.3 11.8 219.01 12.7999 216.16 13.3699V17.6499H242.83V8.94995L267.79 10.2299C267.65 11.9399 266.51 12.7999 263.51 13.3699V17.6499H263.52ZM166.81 101.95V75.56H292.62V101.95H272.22V90.97H231.85C231.14 91.68 230 92.11 228.57 92.11L226 95.11H253.39L256.67 94.3999L270.65 100.96C270.22 101.96 269.37 102.39 268.51 102.96C254.1 127.49 223.58 139.33 188.35 144.75C186.5 139.9 182.36 132.2 179.08 127.92C189.64 126.92 199.91 125.07 209.18 122.5C206.76 120.93 204.19 119.5 201.76 118.51L214.03 108.67H210.46C203.33 113.66 194.91 118.37 184.5 122.51C181.93 118.09 176.23 111.24 172.38 108.25C187.07 103.69 197.91 97.69 205.19 90.99H186.22V101.97H166.82L166.81 101.95ZM207.6 58.45V52.32H197.62V58.45H207.6ZM215.16 108.66C219.44 110.37 224.15 112.94 227.85 115.51C231.99 113.51 235.7 111.23 238.98 108.66H215.16ZM242.83 39.4799V35.49H216.16V39.4799H242.83ZM234.98 58.45V52.32H224.71V58.45H234.98ZM262.51 58.45V52.32H252.1V58.45H262.51Z" fill="white"/>
<path d="M186.78 239.02V216.63C182.93 222.76 178.65 228.18 174.23 232.32C171.23 227.9 165.1 221.34 160.96 217.91C169.8 211.35 178.22 200.08 183.78 188.81H164.67V171.41H186.78V151.73L210.6 153.01C210.46 154.58 209.32 155.44 206.46 156.01V171.42H225V188.82H206.46V192.53C212.02 195.81 225.15 204.8 228.57 207.36L217.73 223.91C214.88 220.63 210.74 216.49 206.46 212.5V239.03H186.78V239.02ZM198.48 251C194.49 262.55 188.78 274.82 179.94 283.09L162.54 270.97C170.24 264.41 176.66 254.14 180.08 243.73L198.48 251ZM221.16 263.27C221.16 267.41 222.16 267.83 228.01 267.83H242.56C247.12 267.83 247.98 266.55 248.69 257.56C252.68 260.56 261.38 263.55 266.95 264.69C264.53 281.81 259.1 286.09 244.56 286.09H225.16C205.05 286.09 200.63 280.38 200.63 263.55V246.58L219.6 247.58L214.32 243.59L227.87 232.89L230.44 234.6V158.57H290.21V237.16H234.15C240.28 241.72 246.56 247.14 249.84 251.57L235.29 263.27C232.72 259.56 228.16 254.85 223.02 250.43L221.17 250.86V263.27H221.16ZM249.26 174.69V180.11H270.37V174.69H249.26ZM249.26 195.09V200.65H270.37V195.09H249.26ZM249.26 215.49V221.2H270.37V215.49H249.26ZM280.78 284.38C277.07 275.11 266.52 261.7 256.39 252.14L273.22 242.01C283.35 251 294.62 263.41 299.18 273.25L280.78 284.38Z" fill="white"/>
<path d="M297.47 404.77H280.07C286.77 409.76 294.62 415.75 298.9 420.17L283.64 429.73C278.93 424.45 268.66 415.75 260.96 409.9L269.66 404.76H249.12L257.96 409.9C257.53 410.47 256.68 410.9 255.68 411.04C250.69 417.17 239.42 425.59 229.86 429.73C226.86 426.45 221.44 421.46 217.31 418.32C214.17 429.87 203.05 429.87 191.35 429.87C191.06 424.31 189.21 416.6 186.5 411.61C190.07 412.04 193.2 412.04 195.2 412.04C196.91 412.04 198.05 411.61 199.19 409.76C200.76 407.05 201.33 396.07 201.76 365.83H194.06C192.06 389.94 187.5 412.76 175.52 429.59C172.24 424.6 166.11 418.32 160.97 415.04C174.81 395.64 175.66 366.11 176.09 334.31H163.25V315.2H183.65V294.37L207.61 295.65C207.47 297.22 206.33 298.08 203.47 298.65V315.2H221.73V318.62C226.72 311.63 230.57 302.79 232.57 294.09L253.25 299.37C252.82 300.51 251.68 301.22 249.68 301.08C248.97 303.36 248.11 305.79 247.26 308.07H297.47V324.62H238.85L237.57 326.62L256.11 327.62C255.97 329.05 254.83 329.9 252.12 330.47V337.17H266.38V326.33L289.49 327.61C289.35 329.04 288.21 330.04 285.35 330.46V337.16H295.62V353.28H285.35V388.65H297.47V404.77ZM210.46 347.14L220.59 347.43C220.59 349 220.59 351.28 220.45 353.42C220.02 390.65 219.59 409.05 217.45 417.61C224.44 414.61 231.86 409.62 237.13 404.77H221.58V388.65H233.42V353.28H223.58V337.16H233.42V331.88C232.28 333.31 231 334.59 229.71 335.73C227.86 333.88 224.72 331.59 221.72 329.45V334.3H195.47L195.04 347.14H210.45H210.46ZM266.37 353.27H252.11V356.55H266.37V353.27ZM266.37 372.53V369.11H252.11V372.53H266.37ZM252.11 385.08V388.65H266.37V385.08H252.11Z" fill="white"/>
<path d="M216.88 508.32L211.75 509.03V555.67C211.75 568.65 207.47 572.5 190.64 572.5C190.21 568.22 188.22 561.37 186.08 557.24C188.22 557.38 190.5 557.53 192.21 557.53C196.35 557.53 196.77 557.53 196.77 555.39V511.17L183.22 513.02C182.93 532.28 181.08 556.81 172.95 572.64C170.24 570.22 163.68 566.22 160.11 564.79C166.96 550.95 168.38 531.56 168.67 514.87L166.96 515.16C166.67 516.44 165.39 517.16 164.25 517.3L160.68 500.18L168.67 499.47V455.82H180.51C181.51 449.69 182.36 442.27 182.65 436.71L203.9 440.42C203.47 441.56 202.19 442.27 200.05 442.42C198.91 446.27 197.34 451.26 195.77 455.83H211.75V495.34L216.46 494.91L216.89 508.32H216.88ZM192.35 474.09C194.49 478.94 196.2 485.22 196.77 489.92H196.91L196.77 471.23H183.22V477.08L192.35 474.08V474.09ZM183.22 498.2L196.77 496.92V491.21L186.21 494.78C186.07 490.79 184.78 484.94 183.21 479.8V498.2H183.22ZM196.63 515.46C196.49 516.46 195.63 517.17 193.92 517.31V546.98H185.22V514.74L196.63 515.45V515.46ZM289.49 554.54H297.48V569.95H213.32V554.54H221.31V517.31H289.49V554.54ZM231.86 512.03V514.03H218.02V441.57H258.53V454.41H248.83V461.11H257.96V475.66C261.81 465.82 263.81 450.98 264.81 437L284.49 440.99C284.06 442.13 282.92 442.99 281.07 442.99C280.64 446.84 280.21 450.69 279.5 454.69H296.9V470.09H276.5C274.79 476.94 272.65 483.21 269.94 488.21C267.09 485.79 261.95 482.65 257.96 480.36V492.2H248.83V498.9H260.38V512.02H231.85L231.86 512.03ZM236 454.4H231.86V461.1H236V454.4ZM244.42 472.8H231.87V480.5H244.42V472.8ZM236 498.9V492.2H231.86V498.9H236ZM236.57 532.56V554.53H240.28V532.56H236.57ZM256.82 532.56H253.11V554.53H256.82V532.56ZM262.38 505.32V489.92H294.62V505.32H262.38ZM273.36 532.56H269.65V554.53H273.36V532.56Z" fill="white"/>
<path d="M101.78 49.46C97.4999 45.47 93.0799 41.61 88.9399 38.19L105.06 25.64C119.32 36.62 137.15 52.46 145 64.58L127.17 78.99C125.32 75.71 122.61 72 119.32 68.15C81.8099 70 43.0099 71.57 17.4799 72.43C17.0499 74 15.6299 74.71 14.1999 74.85L7.06995 51.74L31.8899 51.31C40.4499 38.47 49.4299 21.64 54.7099 7.52002L80.3799 16.93C79.6699 18.36 77.8099 19.07 75.3899 19.07C70.5399 29.05 63.5499 40.61 56.5599 50.74L101.78 49.46ZM28.1799 144.46V81.7H123.61V143.89H101.79V140.18H49.0099V144.46H28.1799ZM101.78 101.53H48.9999V120.07H101.78V101.53Z" fill="white"/>
<path d="M18.34 190.67C25.47 193.95 35.03 199.37 39.74 203.65L27.76 219.48C23.62 215.2 14.21 208.92 7.07996 205.07L18.35 190.66L18.34 190.67ZM21.34 153.58C28.47 157.15 37.89 162.99 42.45 167.56L30.04 183.11C26.05 178.4 16.77 171.84 9.63996 167.56L21.34 153.58ZM10.64 275.25C15.92 263.98 23.05 246.15 28.61 229.04L45.01 239.6C40.45 254.86 35.03 269.98 30.46 281.11C31.46 282.11 32.03 283.25 32.03 284.39C32.03 285.1 31.74 285.82 31.46 286.53L10.63 275.26L10.64 275.25ZM130.03 202.65L138.02 200.08C140.73 205.79 143.44 213.2 144.58 218.05L134.17 221.62C133.46 217.91 131.89 212.49 130.03 207.64V224.76H117.19V210.35C115.62 215.34 113.48 220.62 110.77 224.19C109.2 222.76 106.49 220.77 104.21 219.2V223.91H76.54V215.64L67.41 218.21C66.98 214.93 65.98 210.08 64.84 205.8V224.77H52.29V211.5C50.58 215.92 48.44 220.34 45.87 223.62C43.73 221.62 39.74 218.77 37.17 217.2C40.17 213.06 42.45 206.36 43.73 200.08L52.29 202.5V197.79L44.3 198.22C44.01 199.36 43.02 199.93 42.02 200.07L38.31 186.23H46.73C47.87 184.8 49.15 183.38 50.44 181.95C47.44 178.81 43.59 175.39 40.03 172.82L46.31 162.84L47.88 163.84C50.3 159.7 52.59 154.85 54.01 151.15L66.7 158.28C66.13 159.14 64.85 159.56 63.28 159.42C61.57 162.42 59 166.55 56.29 170.26L58.14 171.97C60.28 168.97 62.28 165.98 63.85 163.41L72.69 168.97V165.55H106.78V168.69L110.49 162.84L112.06 163.84C114.63 159.7 117.05 154.85 118.62 151.15L131.31 158.28C130.74 159.14 129.46 159.56 127.89 159.42C126.04 162.42 123.33 166.55 120.62 170.26L122.62 172.11C125.04 168.97 127.33 165.83 129.04 162.98L141.45 170.83C140.74 171.83 139.31 171.97 137.88 171.83C134.46 175.97 129.75 181.39 124.9 186.24H131.03C130.6 184.81 130.03 183.39 129.46 182.1L139.02 178.25C141.59 183.67 144.01 191.09 144.73 195.79L134.6 200.07C134.46 199.07 134.31 197.93 134.03 196.79L130.04 197.08V202.64L130.03 202.65ZM122.47 256.71L126.46 256.14L138.01 259.28C137.72 260.71 137.3 262.13 136.58 263.27C132.87 285.66 127.88 287.09 106.34 287.09C102.77 287.09 98.64 287.09 94.36 286.95C94.22 282.39 92.08 276.25 89.37 272.12C95.08 272.69 101.21 272.83 105.2 272.83C112.76 272.83 113.9 272.83 115.61 269.12H65.97L64.97 272.69L46.43 270.41C49 262.56 51.71 251.44 53.42 242.17H109.33V239.32H48.85V227.77H128.44V253.73H69.82L69.11 256.73H122.46L122.47 256.71ZM104.21 213.78C105.92 209.79 107.21 204.79 108.06 200.09L117.19 202.66V197.81L109.63 198.24C109.34 199.38 108.35 199.95 107.35 200.09L104.07 187.68H76.54V178.69H104.21V186.25H110.91C112.19 184.97 113.48 183.54 114.76 181.97C112.34 179.55 109.63 176.98 106.77 174.84V175.84H72.68V172.27C69.54 176.26 65.12 181.4 60.41 186.25H65.83L64.55 182.11L72.97 179.11C74.54 182.82 75.68 187.24 76.54 191.09V190.52H104.21V199.51H76.54V196.94L68.27 199.94C68.27 198.94 68.13 197.94 67.98 196.8L64.84 197.09V202.51L73.26 200.37C74.54 204.36 75.83 209.21 76.54 212.92V202.36H104.21V213.77V213.78ZM103.07 153.59V162.72H77.97V153.59H103.07ZM92.09 215.35V210.93H88.1V215.35H92.09Z" fill="white"/>
<path d="M124.18 366.4L136.87 370.96C136.44 372.24 135.87 372.67 135.16 373.53C132.02 385.51 126.89 395.92 120.04 404.48C126.89 408.47 134.59 411.47 143.43 413.47C139.15 417.18 133.73 424.74 131.16 429.59C121.89 426.88 113.76 422.89 106.63 417.89C100.5 422.74 93.6499 426.73 85.9499 429.87C83.8099 425.45 79.3899 418.74 75.6799 414.75V429.73H55.8499V418.18C41.7299 419.75 28.1799 421.32 18.6199 422.17C18.3299 423.6 17.1899 424.31 16.0499 424.45L10.4899 405.05C13.9099 404.91 17.9099 404.76 22.3299 404.48V363.69H10.3499V347.43H142.01V363.69H75.6799V413.61C81.8099 411.47 87.5199 408.47 92.5099 404.77C87.7999 399.06 83.9499 392.65 80.6699 385.51L91.5099 382.51H78.2399V366.96H120.89L124.17 366.39L124.18 366.4ZM123.04 298.79V343.86H29.3299V298.79H123.04ZM55.8599 363.69H41.1699V367.11H55.8599V363.69ZM41.1699 381.09V384.94H55.8599V381.09H41.1699ZM41.1699 403.48L55.8599 402.48V398.91H41.1699V403.47V403.48ZM102.22 315.19V311.77H49.16V315.19H102.22ZM102.22 330.88V327.31H49.16V330.88H102.22ZM98.0799 382.52C99.9299 386.09 102.36 389.37 105.07 392.5C107.49 389.36 109.49 386.08 111.35 382.52H98.0799Z" fill="white"/>
<path d="M140.15 495.35H90.9399C99.2099 522.59 114.9 543.13 143.72 552.26C138.73 556.82 131.88 566.24 128.74 572.37C102.35 562.24 86.9499 544.7 76.6799 520.16C68.5499 541.27 53.2899 559.67 24.4699 572.37C21.4699 566.52 15.1999 558.82 9.34995 554.11C42.7299 540.7 55.7099 520.02 60.6999 495.34H12.3499V473.8H63.27C63.98 461.96 63.8399 449.55 63.9799 436.86L91.0799 438.57C90.7899 440.28 89.37 441.42 86.66 441.85C86.52 452.41 86.23 463.25 85.66 473.8H140.15V495.34V495.35Z" fill="white"/>
</g>
<defs>
<filter id="filter0_d_75_3616" x="0.369946" y="0.82002" width="305.51" height="578.52" filterUnits="userSpaceOnUse" color-interpolation-filters="sRGB">
<feFlood flood-opacity="0" result="BackgroundImageFix"/>
<feColorMatrix in="SourceAlpha" type="matrix" values="0 0 0 0 0 0 0 0 0 0 0 0 0 0 0 0 0 0 127 0" result="hardAlpha"/>
<feOffset/>
<feGaussianBlur stdDeviation="3.35"/>
<feColorMatrix type="matrix" values="0 0 0 0 1 0 0 0 0 1 0 0 0 0 1 0 0 0 0.55 0"/>
<feBlend mode="normal" in2="BackgroundImageFix" result="effect1_dropShadow_75_3616"/>
<feBlend mode="normal" in="SourceGraphic" in2="effect1_dropShadow_75_3616" result="shape"/>
</filter>
</defs>
</svg>
