<svg width="367" height="32" viewBox="0 0 367 32" fill="none" xmlns="http://www.w3.org/2000/svg">
<path d="M17.2895 10.9H30.2895V13.85H0.519531V10.9H13.2895V9.52003H4.21954V6.74003H13.2895V5.33003H2.41953V2.39003H13.2895V0.0300293L18.1695 0.290029C18.1395 0.620029 17.8795 0.850029 17.2895 0.910029V2.38003H28.2595V5.33003H17.2895V6.74003H26.5195V9.52003H17.2895V10.9ZM25.3095 15.19V27.37C25.3095 30.84 23.5695 31.07 17.5195 31.07C17.3195 30.12 16.7995 28.81 16.3395 27.93C17.1595 27.96 18.0795 28 18.8595 28C21.3195 28 21.3195 27.97 21.3195 27.34V26.1H9.36954V31.01H5.43954V15.19H25.3195H25.3095ZM21.3195 18.01H9.36954V19.45H21.3195V18.01ZM9.36954 23.54H21.3195V22.03H9.36954V23.54Z" fill="white"/>
<path d="M90.1096 20.24V24.07H78.8096V31.01H74.7496V24.07H59.8496V20.24H65.0896V11.59H74.7496V7.58999H67.5496C66.1096 9.97999 64.4396 12.17 62.6996 13.81C61.9796 13.06 60.5096 11.75 59.5596 11.12C62.4396 8.62999 65.1296 4.23999 66.5996 -0.0100098L71.3496 1.45999C71.2196 1.71999 70.8896 1.88999 70.4296 1.84999C70.1696 2.50999 69.8696 3.12999 69.5796 3.77999H88.2796V7.57999H78.8196V11.58H87.5596V15.25H78.8196V20.23H90.1196L90.1096 20.24ZM69.0196 20.24H74.7496V15.26H69.0196V20.24Z" fill="white"/>
<path d="M139.74 9.17002C140.03 12.51 140.56 15.75 141.18 18.5C142.52 16.21 143.6 13.69 144.39 11L148.91 12.28C148.84 12.57 148.52 12.77 147.99 12.74C146.68 16.67 144.88 20.21 142.65 23.28C143.6 25.67 144.71 27.14 145.86 27.14C146.68 27.14 147.14 25.4 147.33 21.25C148.15 22.13 149.46 23.08 150.51 23.48C149.85 29.57 148.58 31.04 145.53 31.04C143.24 31.01 141.37 29.34 139.9 26.59C138.23 28.33 136.36 29.86 134.3 31.11C133.74 30.29 132.5 28.79 131.71 28.03C134.17 26.69 136.39 24.85 138.29 22.63C137.05 18.86 136.26 14.12 135.83 9.17002H125.94V12.48H132.29L134.32 12.55V13.73C134.19 21.13 133.99 24.08 133.24 25.09C132.29 26.3 131.31 26.6 127.18 26.5C127.08 25.35 126.69 23.81 126.1 22.87C127.31 22.97 128.43 23 128.95 23C129.38 23 129.67 22.9 129.93 22.61C130.29 22.15 130.42 20.45 130.52 16.09H125.94C125.81 20.87 125.06 27.13 122.04 31.09C121.42 30.34 119.81 28.99 118.96 28.5C121.81 24.67 122.04 19.04 122.04 14.78V5.40002H135.56C135.46 3.66002 135.4 1.90002 135.4 0.160024L140.34 0.420024C140.31 0.780024 140.01 0.980024 139.39 1.07002C139.36 2.51002 139.39 3.95002 139.46 5.39002H144.96C143.81 4.41002 142.24 3.26002 140.9 2.44002L143.36 0.150024C145.06 1.13002 147.32 2.61002 148.44 3.72002L146.74 5.39002H149.59V9.16002H139.73L139.74 9.17002Z" fill="white"/>
<path d="M198.479 12.25C198.969 13.72 199.559 15.1 200.249 16.41C201.919 15.3 203.719 13.95 204.929 12.81L208.369 15.92C208.239 16.05 207.979 16.12 207.719 16.12C207.619 16.12 207.489 16.12 207.359 16.09C206.079 17.04 203.989 18.35 202.189 19.36C204.149 21.88 206.679 23.85 209.849 25.03C208.969 25.82 207.789 27.35 207.199 28.44C201.039 25.72 197.409 20.22 195.249 13.11C194.369 13.73 193.419 14.29 192.399 14.85C196.619 17.83 198.329 21.66 198.329 24.81C198.329 28.58 195.939 31.1 192.169 31.1C191.379 31.1 190.469 31.07 189.549 31.03C189.479 29.98 189.189 28.44 188.499 27.3C189.609 27.43 190.599 27.46 191.379 27.46C192.159 27.46 192.849 27.36 193.339 26.84C193.959 26.41 194.319 25.53 194.319 24.38C194.319 23.99 194.289 23.56 194.189 23.14C190.589 25.89 185.609 28.48 181.349 29.92C180.889 28.97 180.069 27.53 179.289 26.68C183.969 25.5 189.539 22.78 192.779 20.07C192.579 19.78 192.349 19.48 192.089 19.19C189.309 21.02 185.409 22.89 182.329 24C181.899 23.12 181.089 21.77 180.369 21.02C183.449 20.27 187.409 18.7 189.959 17.12C189.669 16.89 189.339 16.66 189.009 16.43C186.819 17.35 184.459 18.1 182.199 18.66C181.809 17.91 180.919 16.43 180.369 15.71C183.869 14.99 187.569 13.81 190.549 12.27H185.279V8.92998H202.829V12.27H198.469L198.479 12.25ZM184.069 6.90998V10.74H180.239V3.33998H192.029V0.0999756L196.969 0.359976C196.939 0.689976 196.709 0.879976 196.089 0.979976V3.33998H208.139V10.74H204.109V6.90998H184.069Z" fill="white"/>
<path d="M237.859 21.48C239.729 19.06 240.869 15.29 241.399 11.62L245.169 12.57C244.549 16.43 243.529 20.62 241.569 23.18L237.869 21.48H237.859ZM251.349 25.38C251.349 26.95 251.609 27.21 253.179 27.21H257.859C259.399 27.21 259.659 26.29 259.889 21.58C260.809 22.27 262.479 22.92 263.559 23.18C263.099 29.07 261.989 30.91 258.159 30.91H252.689C248.599 30.91 247.419 29.7 247.389 25.61C245.289 27.05 243.039 28.33 240.639 29.44C240.119 28.52 238.899 27.08 238.089 26.3C241.459 24.86 244.569 22.96 247.389 20.83V9.16998L252.239 9.42998C252.209 9.78998 251.979 9.98998 251.359 10.08V17.45C256.269 12.8 260.039 7.35998 262.459 2.02998L267.009 3.95998C266.809 4.28998 266.449 4.41998 265.899 4.34998C262.719 10.77 257.879 17.35 251.359 22.65V25.37L251.349 25.38ZM249.479 0.0999756C252.689 1.14998 256.449 2.97998 258.649 4.48998L256.029 7.98998C253.929 6.34998 250.139 4.35998 246.929 3.27998L249.479 0.0999756ZM266.019 23.55C265.199 20.64 263.009 16.18 260.879 12.94L264.479 11.17C266.769 14.38 268.929 18.64 269.919 21.52L266.019 23.55Z" fill="white"/>
<path d="M327.96 13.29H310.15C309.92 13.75 309.66 14.21 309.4 14.67H324.89V31.08H320.93V29.9H308.98V31.08H305.21V20.21C303.74 21.72 302.03 23.06 300.1 24.17C299.58 23.25 298.4 21.81 297.64 21.03C301.08 19.16 303.7 16.45 305.66 13.3H298.65V10.22H307.33C307.53 9.72998 307.76 9.26998 307.95 8.77998H300.98V5.79998H309L309.39 4.38998C306.67 4.48998 303.92 4.51998 301.33 4.48998C301.3 3.63998 300.94 2.32998 300.61 1.53998C308.67 1.53998 318.19 1.14998 323.76 0.22998L326.15 3.13998C326.05 3.20998 325.89 3.23998 325.72 3.23998C325.59 3.23998 325.46 3.20998 325.29 3.16998C322.31 3.62998 318.48 3.98998 314.35 4.18998C314.22 4.38998 313.96 4.51998 313.53 4.51998C313.4 4.94998 313.3 5.36998 313.17 5.79998H326.14V8.77998H312.16C312 9.26998 311.8 9.72998 311.6 10.22H327.94V13.3L327.96 13.29ZM320.92 19.05V17.64H308.97V19.05H320.92ZM320.92 22.95V21.51H308.97V22.95H320.92ZM308.97 26.91H320.92V25.4H308.97V26.91Z" fill="white"/>
<path d="M360.539 25.21C360.539 23.47 361.949 22.03 363.679 22.03C365.409 22.03 366.789 23.47 366.789 25.21C366.789 26.95 365.409 28.39 363.679 28.39C361.949 28.39 360.539 26.92 360.539 25.21ZM361.849 19.64L361.029 2.78003H366.469L365.679 19.64H361.849Z" fill="white"/>
</svg>
