<svg width="511" height="52" viewBox="0 0 511 52" fill="none" xmlns="http://www.w3.org/2000/svg">
<g filter="url(#filter0_d_3_927)">
<path d="M27.86 12.03C27.7 12.29 27.34 12.42 26.82 12.39C26.17 13.17 25.29 14.08 24.41 14.89H30.98V19.15H1.13V14.89H7.96C7.24 13.88 6.27001 12.7399 5.39001 11.8699L9.78 10.02C11.15 11.22 12.74 12.9799 13.49 14.3099L12.09 14.9H20.38L18.92 14.28C20.09 13.08 21.49 11.3199 22.3 9.91992L27.86 12.03ZM15.73 20.9999V36.71C15.73 40.03 14.49 41.0699 9.55 41.0699C9.32 39.8999 8.67 38.1399 8.09 37.0999C8.64 37.1299 9.29001 37.1599 9.81001 37.1599C11.05 37.1599 11.18 37.16 11.18 36.64V34.59H7.54V40.9299H3.09V20.9999H15.74H15.73ZM11.18 24.9299H7.54V26.2999H11.18V24.9299ZM7.54 31.1699H11.18V29.71H7.54V31.1699ZM23.12 21.64C23.09 22 22.83 22.1899 22.18 22.3199V34.6799H17.69V21.3499L23.12 21.64ZM28.91 36.14C28.91 39.26 28.26 41.11 21.56 41.02C21.33 39.75 20.58 37.7699 19.9 36.5699C20.84 36.6299 21.85 36.6699 22.6 36.6699C24.1 36.6699 24.26 36.67 24.26 36.08V20.4999L29.88 20.7299C29.82 21.0899 29.59 21.35 28.9 21.45V36.15L28.91 36.14Z" fill="white"/>
<path d="M64.01 19.3199H59.62C59.62 19.7099 59.62 19.9099 59.68 20.0399C59.71 20.1399 59.81 20.1699 59.97 20.1699C60.88 20.1699 60.98 20.1699 61.11 19.3899C61.76 19.7499 63.09 20.1099 63.97 20.2399C63.71 21.9299 62.93 22.4799 61.08 22.4799H59.29C56.36 22.4799 55.88 21.7299 55.88 19.3299H54.77C54.41 20.6599 53.86 21.9599 52.36 23.0399H61.24V25.3799H50.83V23.9199L50.11 24.2099C49.95 23.7899 49.59 23.2699 49.2 22.7799V24.5699C49.2 25.0599 49.2 25.5499 49.17 26.0699H64V28.4799H49.04C48.68 32.8699 47.54 37.8099 44.52 41.1599C43.77 40.4799 41.95 39.3099 40.94 38.8499C44.68 34.7899 45.04 28.8299 45.04 24.5399V21.9999C44.58 21.3499 43.87 20.4999 43.15 19.8199V35.4299H38.01V38.2299H34.08V11.5999H43.15V18.1699C45.85 15.7299 47.64 12.7399 48.61 10.1099L53.62 10.9199C53.56 11.2499 53.26 11.4698 52.77 11.4698L52.51 12.0599H56.9L57.55 11.8299L60.9 13.8499C60.77 14.1099 60.48 14.2399 60.12 14.3099C59.79 14.7999 59.37 15.4199 58.92 16.0299H63.99V19.3499L64.01 19.3199ZM39.17 15.5499H38.03V18.2198H39.17V15.5499ZM38.03 22.0499V24.8099H39.17V22.0499H38.03ZM38.03 31.4099H39.17V28.6499H38.03V31.4099ZM49.22 19.3099V21.3899C50.33 20.8399 50.88 20.1499 51.2 19.3099H49.22ZM49.41 40.9999V35.1099H62.58V40.9999H58.39V40.5799H53.41V40.9999H49.41ZM61.93 29.1299V31.4698H50.19V29.1299H61.93ZM50.19 34.4599V32.1199H61.93V34.4599H50.19ZM54.19 15.9899C54.35 15.6999 54.55 15.3699 54.71 15.0499H50.97L50.38 15.9899H54.18H54.19ZM58.38 37.4499H53.4V38.2299H58.38V37.4499Z" fill="white"/>
<path d="M95.88 27.4499H85.93C88.66 30.6399 92.69 33.6299 96.79 35.3799C95.62 36.3599 94.03 38.3099 93.21 39.6099C89.7 37.7199 86.35 34.8599 83.59 31.5799V40.9799H78.55V32.0099C75.79 35.1999 72.44 37.9599 68.93 39.8499C68.15 38.6099 66.52 36.6999 65.42 35.6899C69.58 33.8699 73.74 30.7499 76.44 27.4599H66.46V22.7799H78.56V19.4299H68.97V14.7499H78.56V10.0999L84.61 10.4299C84.58 10.7899 84.28 11.0199 83.6 11.1499V14.7599H93.42V19.4399H83.6V22.7899H95.89V27.4698L95.88 27.4499Z" fill="white"/>
<path d="M116.92 26.8898C119.78 30.4998 124.33 33.7198 129.21 35.4698C128.04 36.4798 126.48 38.4898 125.7 39.8298C122.06 38.1398 118.74 35.5398 115.98 32.4498V40.9698H110.97V32.7398C108.24 35.7598 104.95 38.2698 101.31 39.9298C100.56 38.7298 99.03 36.8098 97.96 35.8298C103.29 33.8098 108.2 30.0098 110.97 25.7798V18.4998H105.05L109.7 19.6098C109.57 19.8998 109.28 20.0998 108.79 20.0698C108.56 20.8798 108.27 21.7298 107.94 22.5098C109.05 23.4198 110.15 24.3598 110.83 25.0498L107.71 28.3998C107.29 27.8798 106.64 27.2298 105.92 26.5498C104.88 28.1398 103.68 29.5398 102.31 30.6098C101.56 29.7998 99.94 28.3698 98.96 27.6798C101.63 25.7898 103.58 22.2798 104.46 18.5098H99.48V13.8898H110.96V10.0898L116.98 10.4198C116.95 10.7798 116.69 11.0098 115.97 11.1398V13.8998H127.87V18.5198H120.33L124.91 19.5898C124.81 19.8798 124.49 20.0498 124.06 20.0498C123.83 20.8598 123.54 21.6798 123.21 22.4898C125 23.8198 127.14 25.3798 128.32 26.4198L125.07 29.6698C124.22 28.7898 122.73 27.5198 121.23 26.3198C120.68 27.1298 120.06 27.8798 119.41 28.5298C118.79 28.0398 117.82 27.3898 116.91 26.8698V26.8998L116.92 26.8898ZM115.98 18.4998V25.5598L116.11 25.7598C117.87 23.9998 119.13 21.2698 119.75 18.5098H115.98V18.4998Z" fill="white"/>
<path d="M162.45 1.47998V8.98999H149.5L148.78 15.2C149.4 15.15 149.97 15.1 150.59 15.1C156.7 15.1 163.8 18.47 163.8 27.48C163.8 34.94 158.05 41.41 148.21 41.41C144.27 41.41 140.65 40.48 138.73 39.49L140.33 32.6C141.99 33.38 144.68 34.26 147.58 34.26C151.26 34.26 154.62 32.08 154.62 28.15C154.62 23.75 151.1 21.57 144.83 21.57C143.22 21.57 141.98 21.62 140.74 21.83L143.02 1.47998H162.44H162.45Z" fill="#FFFF00"/>
<path d="M180.42 30.6399C178.45 36.5399 175.86 42.7099 172.91 47.5199L166.95 48.0898C168.87 42.6498 170.42 36.5399 171.25 31.2599L180.42 30.6399Z" fill="#FFFF00"/>
<path d="M183.63 21.27C183.63 10.19 187.72 0.919922 197.15 0.919922C207.3 0.919922 210.36 11.2299 210.36 21.0099C210.36 33.8499 205.39 41.4099 197 41.4099C186.95 41.4099 183.64 31.1599 183.64 21.2599L183.63 21.27ZM201.24 21.1699C201.24 12.7299 199.95 8.16992 197.1 8.16992C194.41 8.16992 192.75 12.2099 192.75 21.1699C192.75 30.1299 194.25 34.1699 197.1 34.1699C199.28 34.1699 201.24 31.8899 201.24 21.1699Z" fill="#FFFF00"/>
<path d="M213.72 21.27C213.72 10.19 217.81 0.919922 227.24 0.919922C237.39 0.919922 240.45 11.2299 240.45 21.0099C240.45 33.8499 235.48 41.4099 227.09 41.4099C217.04 41.4099 213.73 31.1599 213.73 21.2599L213.72 21.27ZM231.33 21.1699C231.33 12.7299 230.04 8.16992 227.19 8.16992C224.5 8.16992 222.84 12.2099 222.84 21.1699C222.84 30.1299 224.34 34.1699 227.19 34.1699C229.37 34.1699 231.33 31.8899 231.33 21.1699Z" fill="#FFFF00"/>
<path d="M243.81 21.27C243.81 10.19 247.9 0.919922 257.33 0.919922C267.48 0.919922 270.54 11.2299 270.54 21.0099C270.54 33.8499 265.57 41.4099 257.18 41.4099C247.13 41.4099 243.82 31.1599 243.82 21.2599L243.81 21.27ZM261.42 21.1699C261.42 12.7299 260.13 8.16992 257.28 8.16992C254.59 8.16992 252.93 12.2099 252.93 21.1699C252.93 30.1299 254.43 34.1699 257.28 34.1699C259.46 34.1699 261.42 31.8899 261.42 21.1699Z" fill="#FFFF00"/>
<path d="M284.25 11.8999C284.12 12.1899 283.79 12.3499 283.27 12.2899C282.55 14.2099 281.71 16.1299 280.83 17.9799L282.1 18.3999C282 18.6899 281.71 18.9899 281.12 19.0499V41.0599H276.54V25.4199C275.86 26.3599 275.17 27.2699 274.46 28.0899C274.07 26.9499 273 24.3799 272.38 23.2499C274.95 20.3599 277.58 15.1499 279.14 10.1499L284.24 11.9099L284.25 11.8999ZM300.51 32.6499C302.04 34.3099 303.79 36.5499 304.48 38.2099L300.74 40.3199C300.45 39.5399 299.93 38.5999 299.31 37.6199C298.82 40.2199 297.72 40.9399 295.34 40.9399H292.19C287.77 40.9399 287.67 39.2799 287.67 35.6399C287.02 37.2999 286.11 39.0199 284.87 40.2899L281.52 37.8799C282.82 36.7099 283.93 34.8199 284.51 33.0699L287.66 34.3999V33.0699L291.5 33.2999C291.11 32.9399 290.69 32.5799 290.26 32.2899L290.78 31.8699H284.73V22.1799H302V31.8699H295.4C296.02 32.3899 296.54 32.9399 296.9 33.3999L293.91 35.8099C293.55 35.2599 292.93 34.6099 292.25 33.9599C292.15 33.9599 292.06 33.9899 291.92 34.0199V36.4299C291.92 37.2799 292.05 37.3399 292.86 37.3399H294.84C295.52 37.3399 295.69 37.0799 295.78 35.3599C296.37 35.8199 297.57 36.2699 298.58 36.5599C298.06 35.8799 297.54 35.1899 297.02 34.5799L300.5 32.6599L300.51 32.6499ZM283.67 12.5199H290.82V10.3099L296.54 10.5999C296.51 10.9899 296.21 11.1899 295.56 11.3199V12.5199H303.14V15.9299H300.96L301.29 16.0299C301.16 16.2899 300.87 16.4199 300.38 16.4199L299.73 17.5899H304.02V21.1999H282.49V17.5899H286.88C286.69 17.0399 286.42 16.4199 286.2 15.9299H283.66V12.5199H283.67ZM289.2 24.9099V25.8199H297.33V24.9099H289.2ZM289.2 28.1899V29.1299H297.33V28.1899H289.2ZM290.57 15.9299C290.83 16.4799 291.09 17.0699 291.29 17.5899H295.26C295.49 17.0699 295.68 16.4799 295.88 15.9299H290.58H290.57Z" fill="white"/>
<path d="M306.13 19.97H335.98V23.2501H306.13V19.97ZM323.3 36.0301V36.8101H335.98V40.1901H306.13V36.8101H318.71V36.0301H309.18V33.1H318.71V32.42H310.03V23.97H331.98V32.42H323.3V33.1H332.92V36.0301H323.3ZM331.46 11.0601V19.1901H310.62V11.0601H331.46ZM314.45 26.3401V27.0901H318.71V26.3401H314.45ZM314.45 30.05H318.71V29.3H314.45V30.05ZM326.68 14.05V13.3301H315.17V14.05H326.68ZM326.68 16.91V16.1901H315.17V16.91H326.68ZM327.33 27.0901V26.3401H323.3V27.0901H327.33ZM327.33 30.05V29.3H323.3V30.05H327.33Z" fill="white"/>
<path d="M360.27 24.9799C356.27 24.9799 355.16 23.8099 355.03 20.1999L350.87 21.9199C350.77 21.4599 350.61 20.9399 350.41 20.3899C346.44 20.7499 342.51 21.0399 339.84 21.1999C339.78 21.5299 339.48 21.7199 339.19 21.7499L337.86 16.7099C338.61 16.7099 339.45 16.6799 340.36 16.6799C341.27 14.5699 342.18 11.9699 342.7 9.84985L348.1 11.2499C347.97 11.5399 347.61 11.7099 347.09 11.7399C346.6 13.2399 345.89 14.9899 345.14 16.5499L348.65 16.4499C348.23 15.6399 347.77 14.8199 347.32 14.0799L351.38 12.4499C352.81 14.5299 354.31 17.2299 355.02 19.3399V10.2399L360.71 10.5299C360.68 10.8899 360.42 11.1199 359.73 11.2499V14.3699C361.55 13.5899 363.31 12.7099 364.64 11.8999L367.73 15.4399C367.63 15.5399 367.27 15.6399 366.92 15.5699C365.03 16.5499 362.34 17.4899 359.73 18.2699V19.4399C359.73 20.6399 359.89 20.7699 360.97 20.7699H363.64C364.58 20.7699 364.78 20.3099 364.91 17.6499C365.85 18.3699 367.8 19.1099 369.07 19.3699C368.58 23.7299 367.35 24.9599 364.09 24.9599H360.25L360.27 24.9799ZM352.86 22.4099V36.4599C352.86 39.7099 351.79 40.9799 346.68 40.9799C346.48 39.7399 345.8 37.9199 345.22 36.8199C345.74 36.8499 346.39 36.8899 346.88 36.8899C348.05 36.8899 348.18 36.8899 348.18 36.3999V35.5199H344.47V40.9799H340.11V22.4099H352.86ZM348.18 26.2499H344.47V27.3599H348.18V26.2499ZM344.47 32.0699H348.18V30.7999H344.47V32.0699ZM359.72 35.3199C359.72 36.5599 359.91 36.6899 361.02 36.6899H363.78C364.79 36.6899 364.98 36.0999 365.15 32.9799C366.13 33.6999 368.01 34.4099 369.28 34.6999C368.79 39.4099 367.59 40.7799 364.24 40.7799H360.27C356.08 40.7799 355.03 39.4499 355.03 35.3499V25.4999L360.69 25.7899C360.66 26.1499 360.4 26.3799 359.71 26.5099V29.3699C361.63 28.5199 363.45 27.5199 364.82 26.6099L368.07 30.2198C367.84 30.3798 367.52 30.3799 367.19 30.3799C365.21 31.4199 362.44 32.4899 359.71 33.3999V35.3199H359.72Z" fill="white"/>
<path d="M395.39 11.0301H402.54C403.61 13.5301 405.99 15.9401 408.88 17.2101C408.07 18.2801 406.83 20.4301 406.25 21.8301L405.73 21.5001V27.91H388.76V21.6L388.21 21.9601C388.01 21.3401 387.59 20.27 387.14 19.29V22.41H384.8V29.66L387.47 29.0701L387.99 33.23C384.87 34.24 381.58 35.2101 379.41 35.8301C379.38 36.1901 379.12 36.42 378.82 36.48L377.03 31.2501C377.94 31.0901 379.01 30.8901 380.22 30.6301V22.4001H377.62V17.9501H380.22V10.54L385.75 10.8301C385.72 11.1901 385.46 11.4201 384.81 11.5101V17.9501H386.5L386.3 17.5901C388.25 16.4801 390.1 14.4001 391.08 12.1901L395.4 13.72V11.0201L395.39 11.0301ZM390.12 41.04V28.6501H404.39V40.91H399.68V40.1H394.61V41.04H390.12ZM394.74 20.6801C395.03 21.3001 395.29 22.0801 395.49 22.7601V20.29H392.34V21.3301L394.75 20.6801H394.74ZM393.02 24.29C392.89 23.61 392.63 22.57 392.34 21.72V24.5801H395.49V23.5101L393.02 24.29ZM395.39 14.54V14.2801C395.29 14.3101 395.16 14.3101 395.03 14.2801C394.54 15.1901 393.99 16.1 393.34 16.98H400.92C400.3 16.17 399.75 15.35 399.26 14.54H395.39ZM399.68 32.0701H394.61V32.8801H399.68V32.0701ZM394.61 36.6901H399.68V35.8801H394.61V36.6901ZM401.93 21.3401V20.3H398.74V23.1C399 22.29 399.29 21.34 399.42 20.66L401.92 21.3401H401.93ZM398.74 24.5901H401.93V22.3101C401.64 22.9301 401.25 23.7101 400.89 24.2601C400.17 24.0001 399.49 23.7701 398.74 23.5101V24.5801V24.5901Z" fill="white"/>
<path d="M440.75 36.6199V40.5499H418.64V36.6199H421.31V18.64H426.93C427.06 18.09 427.16 17.4699 427.22 16.8499H420.1V12.95C419.38 14.8 418.51 16.7199 417.56 18.5699V40.9399H413.2V25.46C412.78 26.01 412.35 26.5299 411.93 26.9899C411.54 25.8199 410.3 23.1899 409.56 22.0099C412.23 19.1499 414.8 14.69 416.29 10.21L420.58 11.6099C420.45 12.0299 420.29 12.4199 420.12 12.8499H427.7C427.8 11.9099 427.86 10.9999 427.89 10.1799L432.87 10.28C432.74 11.13 432.61 11.9999 432.45 12.8499H440.16V16.8499H431.64C431.51 17.4699 431.38 18.09 431.22 18.64H438.5V36.6199H440.74H440.75ZM425.43 22.02V23.2599H434.18V22.02H425.43ZM434.18 26.4399H425.43V27.71H434.18V26.4399ZM425.43 30.7999V32.0999H434.18V30.7999H425.43ZM425.43 36.6199H434.18V35.2499H425.43V36.6199Z" fill="white"/>
<path d="M453.14 30.67V35.0301C455.19 35.6501 457.27 35.6501 462.89 35.6501C466.5 35.6501 471.25 35.6201 473.72 35.4901C473 36.5601 472.22 38.74 471.93 40.17H459.25C453.56 40.17 449.69 39.45 447.06 36.11C446.73 38.16 446.31 39.9801 445.69 41.4401C444.84 40.8501 443.09 40.0401 442.02 39.6201C443.35 36.4701 443.65 30.6801 443.71 25.1801L448.65 25.8301C448.58 26.1601 448.32 26.3501 447.84 26.3801L447.74 29.2401C448.03 30.1801 448.39 31.0001 448.81 31.7101V23.7101H442.7V19.55H448.72V17.1401H443.65V13.0801H448.72V10.0601L454.09 10.35C454.06 10.71 453.8 10.9001 453.15 11.0001V13.0801H457.12V17.1401H453.15V19.55H457.96V23.7101H453.15V26.6H457.41V30.66H453.15L453.14 30.67ZM466.8 19.7401V15.3201H458.18V11.16H471.32V24.8201H466.8V23.8101H463.55V28.85C463.55 30.05 463.71 30.1801 464.85 30.1801H467.71C468.75 30.1801 468.95 29.6301 469.08 26.1501C470.02 26.8701 471.97 27.61 473.18 27.91C472.69 32.98 471.52 34.3801 468.14 34.3801H464.17C460.2 34.3801 459 33.14 459 28.92V19.7501H466.8V19.7401Z" fill="white"/>
<path d="M477.47 18.9598C479.19 19.6098 481.5 20.7498 482.61 21.7198L479.85 25.5198C478.84 24.5398 476.63 23.2098 474.87 22.4298L477.47 18.9498V18.9598ZM475.36 38.2698C476.56 35.6998 478.19 31.6398 479.46 27.7298L483.3 30.1698C482.23 33.6498 481.02 37.0998 479.98 39.6298C480.21 39.8898 480.31 40.1498 480.31 40.3798C480.31 40.5698 480.28 40.7398 480.18 40.8698L475.37 38.2698H475.36ZM489.67 25.0998L492.01 25.2898C492.01 25.6198 491.98 26.1398 491.95 26.5598C491.66 34.8498 491.33 38.2298 490.42 39.3698C489.18 40.9998 487.69 40.9998 484.24 40.9998C484.18 39.7298 483.69 38.0098 483.04 36.8698C484.15 36.9998 485.15 36.9998 485.74 36.9998C486.16 36.9998 486.46 36.8998 486.78 36.5798C487.17 36.0298 487.46 34.0398 487.66 29.1698H486.46L486.36 29.8898L482.36 29.4998C482.88 26.5698 483.37 22.0898 483.6 18.5098H487.96V15.2598H483.34V13.9898L481.1 17.0098C480.09 15.9998 477.82 14.5998 476.06 13.7898L478.69 10.3398C480.19 10.9298 482.1 11.8998 483.34 12.7798V11.0898H492.15V23.1498H487.96V22.5298H487.24C487.14 23.4098 487.08 24.2898 486.98 25.1298H488.77L489.68 25.0998H489.67ZM501.9 28.7398C502 29.3298 502.13 29.8798 502.26 30.4298C502.78 29.9798 503.27 29.4898 503.63 29.0998L506.49 32.7398C506.36 32.8398 506.16 32.8698 505.97 32.8698C505.81 32.8698 505.64 32.8398 505.48 32.7698C505.06 33.0998 504.31 33.5798 503.56 34.0698C504.24 35.4398 505.19 36.5698 506.36 37.3498C505.42 38.1598 504.08 39.8498 503.5 41.0198C501.97 39.8798 500.87 38.2898 500.05 36.3698L500.28 38.7798C497.74 39.3998 495.11 40.0198 493.39 40.4098C493.33 40.7398 493.06 40.9298 492.8 40.9998L491.34 36.4798C491.92 36.4198 492.61 36.3198 493.32 36.1898V28.7398H492.21V24.8698H493.54V10.8898H505.15V14.5598H497.8V15.6298H504.3V19.1398H497.8V20.2098H504.3V23.7198H497.8V24.8598H505.83V28.7298H501.9V28.7398ZM497.48 35.4998L499.56 35.1398C498.91 33.2498 498.45 31.0798 498.16 28.7298H497.48V35.4898V35.4998Z" fill="white"/>
</g>
<defs>
<filter id="filter0_d_3_927" x="0.460005" y="0.249922" width="509.84" height="51.6499" filterUnits="userSpaceOnUse" color-interpolation-filters="sRGB">
<feFlood flood-opacity="0" result="BackgroundImageFix"/>
<feColorMatrix in="SourceAlpha" type="matrix" values="0 0 0 0 0 0 0 0 0 0 0 0 0 0 0 0 0 0 127 0" result="hardAlpha"/>
<feOffset dx="1.57" dy="1.57"/>
<feGaussianBlur stdDeviation="1.12"/>
<feColorMatrix type="matrix" values="0 0 0 0 0.101961 0 0 0 0 0.12549 0 0 0 0 0.219608 0 0 0 0.34 0"/>
<feBlend mode="normal" in2="BackgroundImageFix" result="effect1_dropShadow_3_927"/>
<feBlend mode="normal" in="SourceGraphic" in2="effect1_dropShadow_3_927" result="shape"/>
</filter>
</defs>
</svg>
