<svg width="349" height="142" viewBox="0 0 349 142" fill="none" xmlns="http://www.w3.org/2000/svg">
<path d="M40.9905 119.65C38.6205 115.45 32.8606 112.24 32.8606 112.24C32.8606 112.24 33.7306 117.1 34.0456 120.115C34.1506 121.105 34.4955 122.14 34.9905 123.145C34.1805 122.455 33.3256 121.81 32.4256 121.255C31.0756 119.725 29.8006 118.135 28.5856 116.485C29.5156 114.25 31.1805 109.48 30.3105 105.835C29.1855 101.155 24.5356 96.43 24.5356 96.43C24.5356 96.43 24.0256 101.305 23.5006 104.29C23.3356 105.265 23.3806 106.345 23.5756 107.455C22.9606 106.54 22.3006 105.655 21.5656 104.845C20.6956 103.03 19.9156 101.185 19.2106 99.31C20.7106 97.465 23.6956 93.355 23.8606 89.59C24.0706 84.805 20.8906 78.97 20.8906 78.97C20.8906 78.97 19.0456 83.485 17.7106 86.17C17.2756 87.055 17.0205 88.105 16.9005 89.215C16.6155 88.315 16.2705 87.415 15.8655 86.545C15.5055 84.37 15.2355 82.225 15.0255 80.125C17.0205 78.76 20.9356 75.73 22.1206 72.235C23.6506 67.72 22.2106 61.24 22.2106 61.24C22.2106 61.24 19.1806 65.02 17.1406 67.21C16.4806 67.93 15.9406 68.86 15.5206 69.88C15.4756 68.59 15.3556 67.3 15.0856 66.055C15.0406 65.83 14.9806 65.62 14.9206 65.395C15.0556 63.88 15.2505 62.395 15.4905 60.925C17.2755 60.415 22.5106 58.675 24.7606 55.495C27.3556 51.82 27.7456 45.535 27.7456 45.535C27.7456 45.535 23.9656 48.145 21.5206 49.57C20.7256 50.035 19.9906 50.74 19.3156 51.55C19.6156 50.38 19.8406 49.165 19.9306 47.965C19.9756 47.335 19.9605 46.69 19.9005 46.015C20.2755 45.19 20.6656 44.365 21.0706 43.555C21.1306 43.495 21.2205 43.42 21.3105 43.345C22.6455 43.375 28.2856 43.36 31.3156 41.005C34.5856 38.44 36.5506 32.98 36.5506 32.98C36.5506 32.98 32.5005 34.285 29.9355 34.9C29.0955 35.11 28.2556 35.53 27.4606 36.07C28.0306 35.11 28.5406 34.09 28.9306 33.055C29.1706 32.41 29.3506 31.705 29.4706 30.985C30.2656 30.04 31.1056 29.11 31.9606 28.195C33.4006 28.645 37.8106 29.815 40.7656 28.675C44.1706 27.355 47.1556 23.26 47.1556 23.26C47.1556 23.26 43.4056 23.335 41.0956 23.215C40.3306 23.17 39.5206 23.32 38.7106 23.575C39.4306 22.915 40.1056 22.195 40.6906 21.415C44.0806 16.885 43.6756 7.32997 43.6756 7.32997C43.6756 7.32997 35.7406 12.625 34.0006 18.82C33.2506 21.49 32.0356 25.585 31.4956 27.415C30.8656 28.06 30.2505 28.72 29.6505 29.38C30.0405 23.53 27.7306 16.585 27.7306 16.585C27.7306 16.585 20.7706 24.985 20.8606 32.365C20.8906 35.32 20.8606 39.775 20.8606 42.145C20.4556 42.91 20.0655 43.69 19.7055 44.47C18.5205 38.095 13.7956 31.21 13.7956 31.21C13.7956 31.21 9.14561 42.085 11.4406 49.735C12.4156 52.99 13.8406 58.045 14.4856 60.34C14.3206 61.21 14.1556 62.08 14.0206 62.965C11.0656 56.725 4.04562 50.92 4.04562 50.92C4.04562 50.92 2.56058 63.34 7.09058 70.405C9.13058 73.585 12.2355 78.61 13.4355 80.56C13.5105 81.415 13.6005 82.27 13.7055 83.125C9.19054 77.845 0.685547 74.185 0.685547 74.185C0.685547 74.185 2.71061 86.59 8.99561 92.11C11.7706 94.555 16.0456 98.44 17.7856 100.03C18.0856 100.84 18.4006 101.635 18.7156 102.43C12.9406 98.695 3.9256 97.615 3.9256 97.615C3.9256 97.615 9.31058 109 16.8406 112.525C19.9156 113.965 24.5656 116.23 26.9056 117.385C27.4156 118.12 27.9556 118.84 28.4956 119.545C22.0006 117.82 13.5406 119.275 13.5406 119.275C13.5406 119.275 21.8356 128.71 29.9956 129.955C33.0106 130.42 37.4506 131.17 40.1656 131.635C44.2156 134.95 48.6106 137.785 53.2306 140.05C54.8806 139.99 56.5156 139.96 58.1656 139.945C52.5256 137.575 47.1856 134.38 42.2806 130.525C42.5506 128.17 42.8655 122.935 40.9905 119.605V119.65Z" fill="white"/>
<path d="M308.111 119.65C310.481 115.45 316.241 112.24 316.241 112.24C316.241 112.24 315.371 117.1 315.056 120.115C314.951 121.105 314.606 122.14 314.111 123.145C314.921 122.455 315.776 121.81 316.676 121.255C318.026 119.725 319.301 118.135 320.516 116.485C319.586 114.25 317.921 109.48 318.791 105.835C319.916 101.155 324.566 96.43 324.566 96.43C324.566 96.43 325.076 101.305 325.601 104.29C325.766 105.265 325.721 106.345 325.526 107.455C326.141 106.54 326.801 105.655 327.536 104.845C328.406 103.03 329.186 101.185 329.891 99.31C328.391 97.465 325.406 93.355 325.241 89.59C325.031 84.805 328.211 78.97 328.211 78.97C328.211 78.97 330.056 83.485 331.391 86.17C331.826 87.055 332.081 88.105 332.201 89.215C332.486 88.315 332.831 87.415 333.236 86.545C333.596 84.37 333.866 82.225 334.076 80.125C332.081 78.76 328.166 75.73 326.981 72.235C325.451 67.72 326.891 61.24 326.891 61.24C326.891 61.24 329.921 65.02 331.961 67.21C332.621 67.93 333.161 68.86 333.581 69.88C333.626 68.59 333.746 67.3 334.016 66.055C334.061 65.83 334.121 65.62 334.181 65.395C334.046 63.88 333.851 62.395 333.611 60.925C331.826 60.415 326.591 58.675 324.341 55.495C321.746 51.82 321.356 45.535 321.356 45.535C321.356 45.535 325.136 48.145 327.581 49.57C328.376 50.035 329.111 50.74 329.786 51.55C329.486 50.38 329.261 49.165 329.171 47.965C329.126 47.335 329.141 46.69 329.201 46.015C328.826 45.19 328.436 44.365 328.031 43.555C327.971 43.495 327.881 43.42 327.791 43.345C326.456 43.375 320.816 43.36 317.786 41.005C314.516 38.44 312.551 32.98 312.551 32.98C312.551 32.98 316.601 34.285 319.166 34.9C320.006 35.11 320.846 35.53 321.641 36.07C321.071 35.11 320.561 34.09 320.171 33.055C319.931 32.41 319.751 31.705 319.631 30.985C318.836 30.04 317.996 29.11 317.141 28.195C315.701 28.645 311.291 29.815 308.336 28.675C304.931 27.355 301.946 23.26 301.946 23.26C301.946 23.26 305.696 23.335 308.006 23.215C308.771 23.17 309.581 23.32 310.391 23.575C309.671 22.915 308.996 22.195 308.411 21.415C305.021 16.885 305.426 7.32997 305.426 7.32997C305.426 7.32997 313.361 12.625 315.101 18.82C315.851 21.49 317.066 25.585 317.606 27.415C318.236 28.06 318.851 28.72 319.451 29.38C319.061 23.53 321.371 16.585 321.371 16.585C321.371 16.585 328.331 24.985 328.241 32.365C328.211 35.32 328.241 39.775 328.241 42.145C328.646 42.91 329.036 43.69 329.396 44.47C330.581 38.095 335.306 31.21 335.306 31.21C335.306 31.21 339.956 42.085 337.661 49.735C336.686 52.99 335.261 58.045 334.616 60.34C334.781 61.21 334.946 62.08 335.081 62.965C338.036 56.725 345.056 50.92 345.056 50.92C345.056 50.92 346.541 63.34 342.011 70.405C339.971 73.585 336.866 78.61 335.666 80.56C335.591 81.415 335.501 82.27 335.396 83.125C339.911 77.845 348.416 74.185 348.416 74.185C348.416 74.185 346.391 86.59 340.106 92.11C337.331 94.555 333.056 98.44 331.316 100.03C331.016 100.84 330.701 101.635 330.386 102.43C336.161 98.695 345.176 97.615 345.176 97.615C345.176 97.615 339.791 109 332.261 112.525C329.186 113.965 324.536 116.23 322.196 117.385C321.686 118.12 321.146 118.84 320.606 119.545C327.101 117.82 335.561 119.275 335.561 119.275C335.561 119.275 327.266 128.71 319.106 129.955C316.091 130.42 311.651 131.17 308.936 131.635C304.886 134.95 300.491 137.785 295.871 140.05C294.221 139.99 292.586 139.96 290.936 139.945C296.576 137.575 301.916 134.38 306.821 130.525C306.551 128.17 306.236 122.935 308.111 119.605V119.65Z" fill="white"/>
<path d="M168.61 12.235V14.2H133.195C131.305 17.635 129.31 20.65 127.24 23.275L151 23.89H158.245V55.915C158.245 58.48 157.66 60.385 156.49 61.6C155.365 62.86 152.92 63.67 149.17 64.03C148.945 61.78 148.405 60.19 147.55 59.29C146.515 58.255 144.52 57.49 141.595 56.995V56.05C146.38 56.365 149.275 56.53 150.265 56.53C150.85 56.53 151.24 56.41 151.42 56.185C151.645 55.96 151.765 55.6 151.765 55.105V46.975H127.87V62.08C127.87 62.26 127.66 62.485 127.255 62.755C126.85 63.07 126.22 63.37 125.365 63.64C124.51 63.91 123.58 64.045 122.59 64.045H121.51V29.845C116.995 34.36 112.015 37.99 106.54 40.75L105.865 39.94C114.085 33.805 120.805 25.225 126.04 14.215H107.215L106.675 12.25H126.925C128.635 8.31995 129.97 4.56995 130.915 1.01495L137.545 3.92495C136.6 7.04495 135.52 9.81995 134.29 12.25H168.625L168.61 12.235ZM151.75 25.78H127.855V34.375H151.75V25.78ZM127.855 45.01H151.75V36.34H127.855V45.01Z" fill="white"/>
<path d="M231.31 41.62V44.665C228.505 48.145 225.055 51.145 220.945 53.665C227.575 55.825 235.96 57.1 246.07 57.46V58.27C243.49 58.99 241.9 60.955 241.255 64.165C230.38 62.68 221.95 60.085 215.995 56.38C207.64 60.445 197.08 63.01 184.3 64.105L183.895 63.025C195.22 61.045 204.64 57.895 212.125 53.62C209.32 51.28 207.07 48.595 205.36 45.565C199.27 50.35 192.61 53.83 185.38 55.99L184.84 55.045C188.995 52.93 193.015 50.155 196.9 46.72C200.83 43.24 203.875 39.775 206.035 36.295C204.955 36.025 204.235 35.575 203.875 34.945C203.515 34.27 203.335 33.25 203.335 31.9V22.36L208.69 23.11V30.895C208.69 31.3 208.795 31.57 209.035 31.705C209.305 31.795 209.935 31.84 210.925 31.84H216.82C219.895 31.84 221.665 31.825 222.175 31.78C222.895 31.69 223.375 31.51 223.6 31.24C224.095 30.61 224.725 29.08 225.49 26.635H226.3L226.51 31.3C227.86 31.75 228.535 32.455 228.535 33.4C228.535 34.57 227.695 35.41 226.03 35.905C224.41 36.355 221.17 36.58 216.34 36.58H210.175L212.005 38.605C211.105 40.09 210.385 41.11 209.845 41.65H231.31V41.62ZM236.59 19.54H193.6C193.555 21.385 193.165 22.99 192.445 24.355C191.77 25.705 190.885 26.695 189.805 27.34C188.86 27.97 187.825 28.195 186.685 28.015C185.605 27.79 184.885 27.175 184.525 26.185C183.94 24.52 184.675 23.14 186.76 22.06C188.065 21.385 189.205 20.305 190.15 18.805C191.14 17.32 191.62 15.715 191.575 13.99H192.655C193.06 15.295 193.33 16.495 193.465 17.575H201.19C200.605 17.44 200.065 17.14 199.57 16.69C199.435 14.125 198.31 11.59 196.18 9.09997L196.795 8.69497C194.215 8.73997 191.694 8.73997 189.204 8.69497L188.995 7.40497C196.63 6.90997 204.745 6.05497 213.37 4.82497C222.04 3.56497 229.015 2.27497 234.295 0.969971L239.845 6.72997C239.125 7.40497 237.835 7.31497 235.99 6.45997C228.82 7.31497 220.645 7.94497 211.48 8.34997C215.365 9.65497 217.51 11.47 217.915 13.765C218.185 15.295 217.69 16.435 216.43 17.155C215.125 17.92 213.79 17.695 212.44 16.48C212.44 13.855 211.51 11.17 209.665 8.42497C204.07 8.60497 199.84 8.69497 197.005 8.69497C201.52 9.72997 204.13 11.425 204.865 13.78C205.27 15.22 204.88 16.345 203.71 17.17C203.44 17.35 203.17 17.485 202.9 17.575H223.75C225.775 14.05 227.365 10.72 228.49 7.55497L234.04 10.81C232.015 13.375 229.465 15.64 226.39 17.575H243.52V20.695C241.12 22.63 238.24 24.31 234.85 25.705C237.925 27.415 239.515 29.47 239.665 31.87C239.71 33.445 239.095 34.51 237.835 35.05C236.8 35.455 235.675 35.275 234.445 34.51C233.95 32.71 232.885 30.79 231.265 28.75C229.645 26.725 227.905 25.03 226.045 23.665L226.66 23.125C229.465 23.575 231.895 24.28 233.98 25.225C234.925 23.56 235.81 21.655 236.62 19.54H236.59ZM198.265 23.065L199.345 23.14C200.11 26.17 200.05 28.765 199.135 30.925C198.235 33.055 196.945 34.495 195.28 35.26C194.29 35.8 193.225 35.965 192.1 35.74C191.02 35.515 190.315 34.945 190 34.045C189.505 32.29 190.3 30.91 192.37 29.92C193.81 29.425 195.13 28.54 196.3 27.28C197.47 26.02 198.13 24.61 198.265 23.08V23.065ZM223.99 43.585H207.745C207.61 43.72 207.475 43.855 207.34 43.99C207.205 44.08 207.025 44.215 206.8 44.395C206.62 44.53 206.485 44.65 206.395 44.74C208.705 47.41 211.75 49.66 215.53 51.505C218.965 49.165 221.785 46.525 223.99 43.585ZM209.845 21.505L210.385 20.89C215.71 20.845 219.1 22.015 220.54 24.415C221.395 25.81 221.35 27.04 220.405 28.075C219.37 29.2 218.035 29.365 216.415 28.555C215.92 27.295 215.035 26.005 213.775 24.7C212.515 23.35 211.195 22.285 209.845 21.52V21.505Z" fill="white"/>
<path d="M136.841 91.48V92.365H117.686L117.566 91.9H114.416V99.445C114.701 99.37 115.301 99.175 116.216 98.86C117.146 98.56 117.881 98.305 118.391 98.125L118.541 98.485C114.881 100.945 112.046 102.775 110.051 103.96C109.901 104.395 109.691 104.665 109.376 104.785L107.906 101.395C108.641 101.215 109.886 100.84 111.656 100.3V91.9H108.791L108.551 91.015H111.671V83.11H108.521L108.281 82.225H118.766V83.11H114.431V91.015H118.316V91.42L125.396 91.48V88.39L128.201 88.72V91.465H136.841V91.48ZM131.156 99.235H128.261V104.395C128.261 105.475 128.021 106.285 127.556 106.81C127.091 107.335 126.131 107.665 124.691 107.785C124.646 106.93 124.496 106.33 124.226 105.985C123.836 105.55 123.176 105.265 122.246 105.13V104.695C123.656 104.8 124.526 104.845 124.871 104.845C125.231 104.845 125.426 104.68 125.426 104.35V99.22H122.561V99.55C122.561 99.76 122.156 99.97 121.346 100.195L123.266 101.905C122.456 102.94 121.406 103.885 120.146 104.71C118.886 105.55 117.596 106.225 116.261 106.75L115.961 106.36C116.981 105.58 117.971 104.635 118.931 103.495C119.906 102.355 120.671 101.275 121.226 100.255C120.776 100.33 120.431 100.375 120.191 100.375H119.801V94.135H134.006V99.385C133.991 99.505 133.691 99.67 133.121 99.88C132.566 100.09 132.086 100.18 131.651 100.18H131.186V99.205L131.156 99.235ZM122.516 88.21V88.6C122.516 88.675 122.396 88.795 122.156 88.93C121.931 89.05 121.631 89.17 121.241 89.305C120.881 89.41 120.506 89.455 120.146 89.455H119.756V81.295H134.051V88.45C134.036 88.57 133.736 88.735 133.166 88.945C132.596 89.155 132.086 89.245 131.636 89.245H131.171V88.21H122.531H122.516ZM131.156 82.135H122.516V84.28H131.156V82.135ZM122.516 87.325H131.156V85.15H122.516V87.325ZM122.546 94.99V98.38H131.156V94.99H122.546ZM129.596 100.975L129.866 100.735C132.896 101.2 134.861 102.19 135.761 103.705C136.286 104.605 136.316 105.37 135.851 106C135.416 106.585 134.801 106.69 133.991 106.27C133.586 105.34 132.971 104.38 132.161 103.435C131.351 102.475 130.496 101.665 129.596 100.99V100.975Z" fill="white"/>
<path d="M152.292 84.31H155.442C156.057 82.87 156.567 81.595 157.002 80.485L159.147 82.135C157.857 84.85 156.282 87.34 154.377 89.62H160.212V90.475H153.642C152.517 91.72 151.376 92.845 150.221 93.835H157.182V106.42C157.167 106.525 156.882 106.675 156.327 106.885C155.772 107.095 155.292 107.185 154.857 107.185H154.422V104.83H148.947V106.75C148.947 106.825 148.857 106.93 148.677 107.05C148.512 107.185 148.242 107.32 147.882 107.41C147.537 107.515 147.162 107.56 146.757 107.56H146.292V96.775C145.212 97.495 144.086 98.125 142.901 98.695L142.602 98.365C143.967 97.45 145.197 96.505 146.292 95.53V93.52H148.407C149.487 92.395 150.387 91.375 151.092 90.46H143.157L142.917 89.605H148.512V85.18H144.057L143.817 84.295H148.526V79.615L151.272 79.975V84.28H152.307L152.292 84.31ZM154.436 94.69L148.962 94.87V98.845H154.436V94.69ZM148.962 103.945H154.436V99.73H148.962V103.945ZM151.257 89.62H151.782C152.907 88.12 153.881 86.635 154.721 85.195H151.272V89.62H151.257ZM170.532 81.955V83.605C168.822 86.86 167.277 89.395 165.912 91.21C167.637 92.335 168.912 93.58 169.737 94.93C170.577 96.295 170.982 97.66 170.982 99.025C170.982 100.615 170.622 101.8 169.887 102.595C169.167 103.375 167.967 103.78 166.257 103.84C166.257 102.745 166.121 101.98 165.866 101.575C165.596 101.29 165.041 101.08 164.186 100.93V100.465H166.662C166.962 100.465 167.217 100.405 167.427 100.285C167.982 99.955 168.252 99.295 168.252 98.305C168.252 95.74 167.217 93.385 165.162 91.24C165.912 88.915 166.692 86.11 167.487 82.81H163.302V106.855C163.302 106.93 163.212 107.035 163.032 107.155C162.867 107.29 162.596 107.425 162.206 107.545C161.846 107.665 161.442 107.725 161.022 107.725H160.526V81.91H170.547L170.532 81.955Z" fill="white"/>
<path d="M206.306 100.075L205.751 104.905C206.561 106.105 206.801 106.915 206.456 107.32C206.156 107.71 205.736 107.875 205.211 107.815C204.686 107.755 204.161 107.59 203.651 107.32C203.156 107.08 202.676 106.75 202.181 106.345C201.206 105.595 200.351 104.71 199.616 103.69C197.396 105.49 194.756 106.765 191.711 107.545L191.501 107.11C194.216 105.895 196.541 104.17 198.491 101.95C197.651 100.405 196.961 98.575 196.406 96.475H192.776C192.716 97.27 192.626 98.035 192.506 98.8C194.456 99.265 195.626 100.045 195.986 101.155C196.226 101.875 196.091 102.43 195.551 102.835C194.996 103.24 194.396 103.21 193.721 102.715C193.601 101.815 193.121 100.84 192.281 99.775C191.471 103.225 189.461 105.88 186.266 107.755L185.876 107.32C187.466 105.79 188.516 104.17 189.056 102.43C189.581 100.675 189.881 98.695 189.941 96.475H187.961L187.841 95.98C187.661 96.22 187.391 96.34 187.046 96.34C186.716 96.325 186.401 96.16 186.101 95.875C186.026 94.555 185.486 93.085 184.481 91.48V106.915C184.481 107.08 184.241 107.26 183.776 107.47C183.311 107.68 182.846 107.77 182.366 107.77H181.811V95.035C180.776 97.12 179.441 99.025 177.836 100.75L177.401 100.39C179.216 97.315 180.536 93.1 181.376 87.745H178.286L178.046 86.86H181.796V79.9H184.451V86.86H188.546V87.745H184.451V90.715C185.996 91.465 187.046 92.32 187.601 93.25C188.171 94.165 188.321 94.945 188.066 95.605H196.196C196.046 94.915 195.896 94.015 195.701 92.92C195.521 93.265 195.236 93.475 194.876 93.535C194.516 93.58 194.126 93.43 193.751 93.1C193.706 92.605 193.616 92.11 193.481 91.6C192.446 92.095 191.096 92.68 189.446 93.37C189.296 93.745 189.056 93.955 188.711 94.015L187.361 91.3C187.586 91.3 188.306 91.255 189.536 91.18C190.091 89.92 190.601 88.675 191.066 87.46C190.601 87.895 190.046 87.88 189.416 87.43C189.206 86.275 188.546 85.12 187.406 83.98L187.736 83.77C188.306 83.89 188.801 84.04 189.236 84.235C189.536 83.14 189.926 81.625 190.391 79.69L192.491 80.845C191.411 82.78 190.601 84.055 190.076 84.67C190.931 85.18 191.381 85.78 191.426 86.47C191.666 85.84 192.011 84.88 192.431 83.605L194.996 84.61C194.951 82.45 194.936 80.785 194.936 79.63L197.621 80.095C197.516 86.965 197.891 92.14 198.746 95.65H206.651V96.535H198.986C199.331 97.69 199.736 98.755 200.171 99.715C200.801 98.755 201.341 97.75 201.791 96.685L203.936 98.275C203.261 99.685 202.466 100.9 201.551 101.905C202.121 102.625 202.781 103.255 203.531 103.825C203.756 104.05 203.921 104.155 204.056 104.125C204.206 104.11 204.341 103.945 204.491 103.63C204.926 102.85 205.391 101.665 205.931 100.06L206.291 100.12L206.306 100.075ZM192.281 88.87L192.641 88.69C193.931 89.26 194.846 89.95 195.416 90.76C195.251 89.23 195.116 87.415 195.011 85.33C194.906 85.375 194.741 85.39 194.486 85.39C193.001 87.73 191.651 89.635 190.451 91.105C190.781 91.06 191.246 91.03 191.861 90.985C192.476 90.925 192.926 90.88 193.211 90.865C192.926 90.115 192.611 89.455 192.266 88.885L192.281 88.87ZM197.741 83.92L198.071 83.71C198.461 83.815 198.896 83.95 199.391 84.145C199.676 83.185 200.081 81.685 200.606 79.63L202.751 80.875C201.836 82.465 200.966 83.68 200.126 84.535C200.966 85.06 201.416 85.66 201.506 86.335C201.686 85.9 202.136 84.835 202.856 83.095L204.776 84.415C203.396 86.785 202.091 88.66 200.891 90.07C201.506 90.025 202.481 89.965 203.816 89.89C203.546 89.14 203.216 88.435 202.811 87.775L203.171 87.625C205.091 88.585 206.141 89.71 206.351 91.015C206.471 91.765 206.276 92.29 205.766 92.605C205.301 92.89 204.821 92.785 204.326 92.305C204.326 91.885 204.236 91.315 204.056 90.625C202.421 91.285 201.056 91.81 199.931 92.245C199.871 92.365 199.811 92.455 199.751 92.515C201.671 92.47 202.781 92.89 203.081 93.745C203.261 94.24 203.126 94.645 202.676 94.96C202.211 95.29 201.686 95.26 201.116 94.9C200.891 93.97 200.381 93.22 199.586 92.665C199.481 92.77 199.331 92.845 199.121 92.875L198.086 90.16H198.821C199.211 90.145 199.526 90.13 199.766 90.13C200.006 89.635 200.411 88.78 200.981 87.535C200.516 87.82 200.021 87.76 199.511 87.355C199.451 86.8 199.241 86.215 198.896 85.585C198.551 84.94 198.146 84.385 197.711 83.935L197.741 83.92Z" fill="white"/>
<path d="M219.536 87.76V90.205C221.771 91.075 223.106 92.185 223.541 93.505C223.826 94.315 223.706 94.945 223.181 95.365C222.656 95.77 222.056 95.695 221.411 95.155C221.231 94 220.601 92.575 219.551 90.91V106.915C219.551 107.08 219.311 107.26 218.816 107.47C218.351 107.68 217.886 107.77 217.406 107.77H216.821V95.035C215.756 97.195 214.436 99.115 212.846 100.81L212.411 100.42C214.241 97.33 215.531 93.115 216.296 87.775H212.936L212.696 86.89H216.821V79.495L219.536 79.885V86.875H224.111V87.76H219.536ZM238.571 100.555H240.956V101.74H238.571V104.605C238.571 105.625 238.346 106.36 237.896 106.84C237.446 107.335 236.501 107.635 235.061 107.755C235.001 106.9 234.806 106.33 234.476 106.045C234.056 105.61 233.306 105.34 232.241 105.22V104.755C233.936 104.875 234.956 104.935 235.331 104.935C235.721 104.935 235.916 104.725 235.916 104.32V101.725H226.541V106.855C226.541 107.02 226.301 107.2 225.836 107.41C225.371 107.635 224.876 107.74 224.366 107.74H223.931V101.725H221.516L221.276 100.84H223.931V92.71H229.886V90.475H222.371L222.131 89.62H226.646V86.965H224.081L223.841 86.08H226.646V83.605H223.016L222.776 82.72H226.661V79.6L229.196 79.93V82.705H232.706V79.585L235.271 79.915V82.69H240.776V83.575H235.271V86.05H240.131V86.935H235.271V89.59H241.226V90.445H232.421V92.68H238.556V100.495L238.571 100.555ZM229.901 93.625H226.541V96.655H229.901V93.625ZM226.541 97.54V100.87H229.901V97.54H226.541ZM229.196 83.635V86.11H232.706V83.635H229.196ZM229.196 86.995V89.65H232.706V86.995H229.196ZM235.916 93.625H232.436V96.655H235.916V93.625ZM232.436 100.87H235.916V97.54H232.436V100.87Z" fill="white"/>
<path d="M136.571 118.45V119.335H120.596C119.741 120.88 118.841 122.245 117.911 123.43L128.636 123.7H131.906V138.145C131.906 139.3 131.636 140.155 131.111 140.71C130.601 141.28 129.506 141.64 127.811 141.805C127.706 140.785 127.466 140.08 127.076 139.66C126.611 139.195 125.711 138.85 124.391 138.625V138.19C126.551 138.325 127.856 138.4 128.306 138.4C128.576 138.4 128.741 138.355 128.831 138.25C128.936 138.145 128.981 137.98 128.981 137.755V134.095H118.196V140.905C118.196 140.98 118.106 141.085 117.926 141.205C117.746 141.34 117.461 141.475 117.071 141.595C116.681 141.715 116.261 141.775 115.826 141.775H115.331V126.34C113.291 128.38 111.041 130.015 108.581 131.26L108.281 130.9C111.986 128.125 115.016 124.255 117.386 119.29H108.896L108.656 118.405H117.791C118.571 116.635 119.171 114.94 119.591 113.335L122.591 114.655C122.156 116.065 121.676 117.31 121.121 118.405H136.616L136.571 118.45ZM128.966 124.555H118.181V128.44H128.966V124.555ZM118.181 133.225H128.966V129.31H118.181V133.225Z" fill="white"/>
<path d="M164.847 131.71V133.09C163.587 134.665 162.027 136.015 160.167 137.155C163.167 138.13 166.932 138.7 171.507 138.865V139.225C170.352 139.555 169.617 140.44 169.332 141.88C164.427 141.205 160.632 140.035 157.932 138.37C154.167 140.2 149.397 141.37 143.637 141.85L143.457 141.355C148.572 140.455 152.817 139.045 156.192 137.11C154.932 136.045 153.912 134.845 153.132 133.48C150.387 135.64 147.372 137.215 144.117 138.19L143.877 137.755C145.752 136.795 147.567 135.55 149.307 134.005C151.077 132.445 152.457 130.87 153.432 129.295C152.937 129.175 152.622 128.965 152.457 128.68C152.292 128.38 152.217 127.915 152.217 127.3V122.995L154.632 123.325V126.835C154.632 127.015 154.677 127.135 154.782 127.195C154.902 127.24 155.187 127.255 155.637 127.255H158.292C159.672 127.255 160.482 127.255 160.707 127.225C161.037 127.18 161.247 127.105 161.352 126.985C161.577 126.7 161.862 126.01 162.207 124.915H162.567L162.657 127.03C163.272 127.24 163.572 127.555 163.572 127.975C163.572 128.5 163.197 128.875 162.447 129.1C161.712 129.31 160.257 129.4 158.082 129.4H155.307L156.132 130.315C155.727 130.99 155.397 131.44 155.157 131.695H164.847V131.71ZM167.232 121.75H147.837C147.822 122.59 147.642 123.31 147.312 123.925C147.012 124.54 146.607 124.99 146.127 125.275C145.692 125.56 145.227 125.665 144.717 125.575C144.222 125.47 143.907 125.2 143.742 124.75C143.472 124 143.817 123.37 144.747 122.89C145.332 122.59 145.842 122.095 146.277 121.42C146.727 120.745 146.937 120.025 146.922 119.245H147.417C147.597 119.83 147.717 120.37 147.777 120.865H151.257C150.987 120.805 150.747 120.67 150.522 120.475C150.462 119.32 149.952 118.18 148.992 117.055L149.262 116.875C148.107 116.89 146.967 116.89 145.842 116.875L145.752 116.29C149.187 116.065 152.862 115.675 156.747 115.135C160.662 114.565 163.797 113.98 166.182 113.395L168.687 115.99C168.357 116.29 167.787 116.26 166.947 115.87C163.707 116.26 160.017 116.545 155.892 116.725C157.647 117.31 158.607 118.135 158.802 119.17C158.922 119.86 158.697 120.37 158.127 120.7C157.542 121.045 156.942 120.94 156.327 120.4C156.327 119.215 155.907 118 155.082 116.77C152.562 116.845 150.657 116.89 149.367 116.89C151.407 117.355 152.592 118.12 152.907 119.185C153.087 119.83 152.907 120.34 152.382 120.715C152.262 120.79 152.142 120.865 152.022 120.895H161.427C162.342 119.305 163.062 117.805 163.572 116.38L166.077 117.85C165.162 119.005 164.007 120.025 162.627 120.91H170.352V122.32C169.272 123.19 167.967 123.955 166.437 124.585C167.817 125.365 168.552 126.28 168.612 127.36C168.627 128.08 168.357 128.545 167.787 128.8C167.322 128.98 166.812 128.905 166.257 128.56C166.032 127.75 165.552 126.88 164.817 125.965C164.082 125.05 163.302 124.285 162.462 123.67L162.732 123.43C163.992 123.64 165.102 123.955 166.032 124.375C166.467 123.625 166.857 122.77 167.217 121.81L167.232 121.75ZM149.937 123.34L150.432 123.37C150.777 124.735 150.747 125.905 150.342 126.88C149.937 127.84 149.352 128.485 148.602 128.83C148.152 129.07 147.672 129.145 147.162 129.04C146.667 128.935 146.352 128.68 146.217 128.275C145.992 127.48 146.352 126.865 147.282 126.415C147.927 126.19 148.527 125.8 149.052 125.23C149.577 124.66 149.877 124.03 149.937 123.34ZM161.547 132.595H154.212C154.212 132.595 154.092 132.715 154.032 132.775C153.972 132.82 153.882 132.88 153.792 132.955C153.717 133.015 153.657 133.075 153.612 133.105C154.647 134.305 156.027 135.325 157.737 136.165C159.282 135.1 160.557 133.915 161.562 132.595H161.547ZM155.157 122.635L155.397 122.365C157.797 122.35 159.327 122.875 159.972 123.955C160.362 124.585 160.332 125.14 159.912 125.605C159.447 126.115 158.847 126.19 158.112 125.815C157.887 125.245 157.497 124.66 156.927 124.075C156.357 123.46 155.772 122.98 155.157 122.635Z" fill="white"/>
<path d="M182.382 130.885H182.847C183.312 132.25 183.492 133.465 183.372 134.515C183.252 135.58 182.997 136.435 182.607 137.08C182.217 137.725 181.737 138.235 181.167 138.58C180.657 138.91 180.117 139.03 179.547 138.94C178.977 138.865 178.587 138.58 178.392 138.085C178.107 137.23 178.452 136.54 179.427 136C180.237 135.595 180.942 134.92 181.542 133.99C182.127 133.06 182.412 132.01 182.397 130.87L182.382 130.885ZM179.142 119.92L178.872 119.065H190.572V113.53L193.542 113.905V119.065H205.857V119.92H193.542V125.485H204.507V126.37H180.927L180.687 125.485H190.587V119.92H179.157H179.142ZM199.482 134.275L199.542 138.07C200.322 138.31 200.697 138.715 200.697 139.255C200.697 139.72 200.502 140.065 200.112 140.29C199.752 140.53 199.047 140.725 198.042 140.845C197.022 140.965 195.552 141.025 193.617 141.025H189.702C188.157 141.025 187.122 140.845 186.612 140.47C186.117 140.125 185.877 139.42 185.877 138.355V130.075L188.742 130.405V137.77C188.742 138.01 188.817 138.175 188.982 138.265C189.147 138.34 189.537 138.385 190.167 138.385H193.827C195.612 138.385 196.677 138.385 197.007 138.355C197.397 138.34 197.667 138.19 197.832 137.92C198.072 137.56 198.492 136.33 199.077 134.26H199.437L199.482 134.275ZM188.937 128.11L189.207 127.87C192.387 128.335 194.487 129.385 195.507 131.02C196.092 131.95 196.167 132.775 195.717 133.465C195.312 134.095 194.697 134.245 193.887 133.915C193.812 133.87 193.722 133.84 193.647 133.795C193.317 132.835 192.702 131.83 191.787 130.765C190.887 129.7 189.942 128.815 188.952 128.11H188.937ZM198.957 130.645L199.257 130.405C202.602 131.425 204.777 132.925 205.797 134.89C206.412 136.09 206.472 137.095 205.977 137.92C205.542 138.61 204.942 138.805 204.147 138.505C203.922 138.43 203.712 138.295 203.502 138.13C203.322 136.885 202.782 135.58 201.912 134.215C201.042 132.835 200.052 131.635 198.942 130.645H198.957Z" fill="white"/>
<path d="M240.641 132.88H229.436C230.801 134.17 232.571 135.31 234.746 136.3C236.921 137.305 239.111 138.025 241.286 138.505L241.256 138.865C240.116 139.075 239.381 139.855 239.051 141.22C236.876 140.38 234.866 139.255 233.036 137.83C231.221 136.39 229.736 134.74 228.581 132.88H228.341V141.16C228.341 141.16 228.221 141.295 228.041 141.4C227.876 141.52 227.606 141.625 227.216 141.7C226.826 141.805 226.406 141.85 225.971 141.85H225.446V134.515C222.416 137.365 218.336 139.57 213.221 141.115L212.981 140.68C214.991 139.75 216.896 138.58 218.696 137.2C220.481 135.82 221.996 134.365 223.211 132.865H213.746L213.476 132.01H225.446V129.01H216.671L216.431 128.155H225.446V125.35H215.186L214.916 124.465H222.521C222.341 124.345 222.236 124.27 222.221 124.255C222.146 122.95 221.561 121.63 220.481 120.28H213.431L213.191 119.425H223.181V113.5L225.776 113.83V119.425H228.311V113.5L230.936 113.83V119.425H231.881C232.856 117.835 233.711 116.065 234.446 114.115L236.891 115.36C235.796 116.89 234.386 118.24 232.676 119.425H241.016V120.28H232.436L234.611 120.925L233.426 121.48C232.466 122.545 231.311 123.535 229.976 124.48H239.471V125.365H228.386V128.17H238.016V129.025H228.386V132.025H240.701V132.88H240.641ZM216.536 114.49L216.836 114.28C219.221 114.835 220.661 115.765 221.171 117.085C221.471 117.88 221.381 118.525 220.871 119.005C220.346 119.515 219.716 119.53 218.981 119.035C218.831 118.225 218.546 117.4 218.096 116.59C217.646 115.75 217.136 115.045 216.536 114.475V114.49ZM230.711 120.295H221.906C222.896 120.7 223.631 121.195 224.111 121.795C224.576 122.365 224.786 122.89 224.726 123.385C224.666 123.85 224.456 124.225 224.081 124.48H228.881C229.601 123.175 230.201 121.78 230.711 120.295Z" fill="white"/>
</svg>
