<?xml version="1.0" encoding="utf-8"?>
<!-- Generator: Adobe Illustrator 27.0.0, SVG Export Plug-In . SVG Version: 6.00 Build 0)  -->
<svg version="1.1" id="圖層_1" xmlns="http://www.w3.org/2000/svg" xmlns:xlink="http://www.w3.org/1999/xlink" x="0px" y="0px"
	 viewBox="0 0 390 59" style="enable-background:new 0 0 390 59;" xml:space="preserve">
<style type="text/css">
	.st0{fill:#FFFFFF;}
	.st1{fill:#FFE900;}
	.st2{fill:#2E318B;}
</style>
<path class="st0" d="M359.8,0H29.4C13.2,0,0.1,13.2,0.1,29.4s13.2,29.4,29.4,29.4h330.4c16.2,0,29.4-13.2,29.4-29.4S376.1,0,359.8,0
	z"/>
<path class="st1" d="M127.9,5.9h-98C16.9,5.9,6.4,16.4,6.4,29.4v0c0,12.9,10.5,23.4,23.4,23.4h98c12.9,0,23.4-10.5,23.4-23.4v0
	C151.3,16.4,140.8,5.9,127.9,5.9z"/>
<path class="st2" d="M31.1,31.9l2.1-0.8l0.7,3.4c-2.6,1.2-5.4,2.4-7.3,3.2c0,0.3-0.2,0.5-0.5,0.6l-1.7-4.3c0.8-0.2,1.9-0.6,3-0.9
	v-7.1h-2.3v-3.7h2.3v-6.1l4.4,0.2c0,0.3-0.2,0.5-0.8,0.5v5.3h2.3v3.7h-2.3L31.1,31.9L31.1,31.9z M38.9,35.9c0,1.6,0.2,1.8,1.8,1.8
	h4.5c1.4,0,1.7-0.5,1.9-3.1c0.8,0.6,2.3,1.2,3.4,1.4c-0.5,3.9-1.6,5.2-4.9,5.2h-5.3c-4,0-5.1-1.1-5.1-5.3v-6.3l-1.8,0.8L32,26.9
	l3.3-1.4v-6.8l4.5,0.2c0,0.3-0.2,0.5-0.8,0.6v4.4l1.5-0.6V16l4.4,0.2c0,0.3-0.2,0.5-0.8,0.5v4.9l1.9-0.8l0.8-0.5l3.1,1.1
	c-0.1,0.2-0.2,0.3-0.5,0.5c0,5.2-0.1,8-0.1,9.1c-0.1,2.5-1.7,3-4.3,3c-0.1-1-0.4-2.4-0.8-3.2c0.3,0,0.8,0,1,0c0.3,0,0.4-0.1,0.5-0.5
	c0.1-0.3,0.1-1.9,0.1-5.4l-1.6,0.7v9.5h-3.7v-7.9L39,27.9L38.9,35.9L38.9,35.9z"/>
<path class="st2" d="M73.6,27.8l2.4,0.9c-0.1,0.2-0.2,0.3-0.3,0.5c-0.7,2.8-1.8,5.1-3.4,7c1.5,0.9,3.2,1.5,5.2,1.9
	c-0.9,0.8-2,2.4-2.6,3.5C72.9,41,71,40.1,69.4,39c-1.5,1.1-3.3,2-5.4,2.7c-0.4-1-1.4-2.6-2.1-3.5c1.8-0.5,3.3-1.1,4.7-2
	c-1-1.2-1.8-2.7-2.5-4.3l1.9-0.5h-2.6v-3.5h0.8c-0.5-0.6-1.3-1.3-1.8-1.8v0.1h-4.9v1.6h5.2v3.6h-5.2v2.1l5.8-0.6l0.1,3.3
	c-2,0.3-4.1,0.7-6,1v4.4h-3.7v-3.9l-0.5,0.1c-0.1,0.3-0.3,0.4-0.5,0.5l-1.3-4.2c0.7-0.1,1.4-0.1,2.2-0.2V18l2,0.6
	c1.9-0.7,3.8-1.6,5-2.5l3.4,2.9c-0.1,0.2-0.4,0.2-0.8,0.2c-1.5,0.8-3.7,1.7-5.9,2.3v1.2h4.9v3c2.2-1.4,2.4-3.1,2.4-4.8v-3.9h9.2v6.2
	c0,0.8,0,0.9,0.2,0.9c0.3,0,0.4,0,0.5-0.1c0.2-0.1,0.2-0.5,0.3-2.5c0.6,0.6,1.9,1.2,2.9,1.5c-0.2,2.3-0.3,4.2-3.1,4.2h-1.5
	c-0.7,0-1.6-0.3-2.1-0.8c-0.5-0.5-0.8-1.2-0.8-3.1v-2.9h-2c0,2,0,5.4-2.8,7.6H73L73.6,27.8L73.6,27.8z M67.7,31.4
	c0.5,0.9,1,1.7,1.6,2.3c0.6-0.7,1.1-1.5,1.6-2.3H67.7L67.7,31.4z"/>
<path class="st2" d="M104.2,36.9h-3.3c1.3,0.9,2.7,2.1,3.6,2.9l-2.9,1.8c-0.9-1-2.8-2.6-4.3-3.8l1.7-1h-3.9l1.7,1
	c-0.1,0.1-0.2,0.2-0.4,0.2c-0.9,1.2-3.1,2.7-4.9,3.5C90.8,41,89.8,40,89,39.4c-0.6,2.2-2.7,2.2-4.9,2.2c-0.1-1-0.4-2.5-0.9-3.5
	c0.7,0.1,1.3,0.1,1.7,0.1c0.3,0,0.5-0.1,0.8-0.4c0.3-0.5,0.4-2.6,0.5-8.3h-1.5c-0.4,4.6-1.2,8.9-3.5,12c-0.6-0.9-1.8-2.1-2.7-2.7
	c2.6-3.7,2.8-9.2,2.8-15.3h-2.4v-3.6h3.9V16l4.5,0.2c0,0.3-0.2,0.5-0.8,0.6v3.1h3.4v0.6c0.9-1.3,1.7-3,2.1-4.6l3.9,1
	c-0.1,0.2-0.3,0.3-0.7,0.3c-0.1,0.4-0.3,0.9-0.5,1.3h9.5v3.1H93.1l-0.2,0.4l3.5,0.2c0,0.3-0.2,0.4-0.8,0.5v1.3h2.7v-2l4.4,0.2
	c0,0.3-0.2,0.5-0.8,0.5v1.3h1.9v3h-1.9v6.7h2.3V36.9L104.2,36.9z M87.8,26l1.9,0.1c0,0.3,0,0.7,0,1.1c-0.1,7-0.2,10.5-0.6,12.1
	c1.3-0.6,2.7-1.5,3.7-2.4h-2.9v-3h2.2v-6.7h-1.9v-3h1.9v-1c-0.2,0.3-0.4,0.5-0.7,0.7c-0.3-0.3-0.9-0.8-1.5-1.2v0.9h-4.9L84.8,26
	H87.8L87.8,26z M98.3,27.2h-2.7v0.6h2.7V27.2z M98.3,30.8v-0.6h-2.7v0.6H98.3z M95.6,33.2v0.7h2.7v-0.7H95.6z"/>
<path class="st2" d="M115.9,29.5l-1,0.1v8.8c0,2.4-0.8,3.2-4,3.2c-0.1-0.8-0.5-2.1-0.9-2.9c0.4,0,0.8,0.1,1.2,0.1
	c0.8,0,0.9,0,0.9-0.4v-8.4l-2.6,0.3c-0.1,3.6-0.4,8.3-1.9,11.3c-0.5-0.5-1.8-1.2-2.4-1.5c1.3-2.6,1.6-6.3,1.6-9.4l-0.3,0.1
	c-0.1,0.2-0.3,0.4-0.5,0.4l-0.7-3.2l1.5-0.1v-8.2h2.2c0.2-1.2,0.3-2.6,0.4-3.6l4,0.7c-0.1,0.2-0.3,0.3-0.7,0.4
	c-0.2,0.7-0.5,1.7-0.8,2.5h3V27l0.9-0.1L115.9,29.5L115.9,29.5z M111.3,23.1c0.4,0.9,0.7,2.1,0.8,3h0l0-3.5h-2.6v1.1L111.3,23.1z
	 M109.5,27.6l2.6-0.2v-1.1l-2,0.7c0-0.8-0.3-1.9-0.6-2.8V27.6z M112.1,30.9c0,0.2-0.2,0.3-0.5,0.3v5.6h-1.7v-6.1L112.1,30.9z
	 M129.6,38.3h1.5v2.9h-15.9v-2.9h1.5v-7h12.9V38.3z M118.7,30.2v0.4h-2.6V16.9h7.7v2.4h-1.8v1.3h1.7v2.7c0.7-1.9,1.1-4.7,1.3-7.3
	l3.7,0.8c-0.1,0.2-0.3,0.4-0.6,0.4c-0.1,0.7-0.2,1.5-0.3,2.2h3.3v2.9h-3.9c-0.3,1.3-0.7,2.5-1.2,3.4c-0.5-0.5-1.5-1-2.3-1.5v2.2
	h-1.7v1.3h2.2v2.5L118.7,30.2L118.7,30.2z M119.5,19.3h-0.8v1.3h0.8V19.3z M121.1,22.8h-2.4v1.5h2.4V22.8z M119.5,27.8v-1.3h-0.8
	v1.3H119.5z M119.6,34.1v4.2h0.7v-4.2H119.6z M123.4,34.1h-0.7v4.2h0.7V34.1z M124.5,29v-2.9h6.1V29H124.5z M126.6,34.1h-0.7v4.2
	h0.7V34.1z"/>
<g>
	<path class="st2" d="M173,31.3h-2.7v0.6h1.8v1.8h-5v0.5h5.8v1.9H167V38h-2.2v-1.8h-5.6v-1.9h5.6v-0.5H160v-1.8h1.6v-0.6h-2.7v-1.9
		h2.7v-0.6h-1.5v-1.8h11.7v1.8h-1.6v0.6h2.7L173,31.3L173,31.3z M162.2,26.8v-0.4h-3v-2h3v-1l2.6,0.1c0,0.2-0.1,0.3-0.4,0.3v0.6h3.1
		v-1l2.6,0.1c0,0.2-0.1,0.3-0.5,0.3v0.6h3.2v2h-3.2v0.4h-2.2v-0.4h-3.1v0.4H162.2z M163.7,28.9v0.6h1.2v-0.6H163.7z M163.7,31.9h1.2
		v-0.6h-1.2V31.9z M168.2,29.5v-0.6H167v0.6H168.2z M168.2,31.9v-0.6H167v0.6H168.2z"/>
	<path class="st2" d="M189.2,30.7h-2c0.7,0.6,1.5,1,2.4,1.3c-0.5,0.4-1.2,1.3-1.5,1.8c-0.6-0.3-1.1-0.6-1.6-0.9
		c-0.4,0.3-1.2,0.8-1.6,1.1l-1.4-1.1c0.5-0.3,1-0.8,1.5-1.3c-0.2-0.3-0.5-0.6-0.7-0.9h-4.1c-0.3,0.3-0.5,0.7-0.8,1
		c0.5,0.4,1.1,0.8,1.4,1.1l-1.4,1.4c-0.3-0.3-0.8-0.9-1.4-1.3c-0.4,0.4-0.9,0.7-1.5,1c-0.3-0.5-1.1-1.2-1.7-1.5
		c1-0.5,1.8-1.1,2.5-1.8h-2.2v-1.8h3.7c0.1-0.2,0.2-0.3,0.3-0.5h-2.3v-1.7h3.1c0.1-0.1,0.1-0.3,0.1-0.4h-4v-1.7h4.4
		c0.1-0.4,0.1-0.8,0.2-1.1l2.7,0.2c0,0.2-0.2,0.3-0.5,0.3c0,0.2-0.1,0.4-0.1,0.6h5.6v1.7h-6c0,0.2-0.1,0.3-0.1,0.5h5.6v1.7h-2.7
		c0.1,0.2,0.2,0.3,0.3,0.5h3.8L189.2,30.7L189.2,30.7z M183.2,35.2l0.9-1.3c1.4,0.5,3.2,1.4,4.3,2l-1.2,1.8c-1-0.6-2.7-1.5-4.1-2.1
		v0.5c0,1.5-0.6,1.9-3.2,1.9c-0.1-0.5-0.3-1.2-0.6-1.6c-0.9,0.4-1.7,0.7-2.4,0.9c0,0.1-0.1,0.3-0.2,0.3l-1.1-2.1
		c1.2-0.3,2.9-0.9,4.6-1.5l0.4,1.7l-1.1,0.4c0.5,0,0.9,0,1.1,0c0.2,0,0.3-0.1,0.3-0.2v-4.9l2.6,0.1c0,0.1-0.1,0.3-0.4,0.3V35.2
		L183.2,35.2z M181.6,28.4c-0.1,0.2-0.2,0.3-0.2,0.5h1.8c-0.1-0.2-0.2-0.3-0.2-0.5H181.6L181.6,28.4z"/>
	<path class="st2" d="M205.4,24.8v2h-2.4c-0.1,0.1-0.2,0.2-0.5,0.2c-0.1,0.3-0.3,0.6-0.5,0.9h2.7v7.7c0,2-0.9,2.3-3.6,2.3
		c-0.1-0.4-0.2-0.9-0.4-1.4h-3.5v0.8h-2v-4.8c-0.2,0.1-0.3,0.1-0.5,0.1c-0.1-0.3-0.3-0.7-0.6-1.1V38h-2.1v-10h2.6
		c-0.1-0.4-0.3-0.8-0.4-1.1l0.3,0h-3.2v-2h5.7v-1.4l2.8,0.2c0,0.2-0.1,0.3-0.5,0.3v0.9L205.4,24.8L205.4,24.8z M194.3,29.9v1.4
		c1.2-0.3,1.6-0.7,1.6-1.4H194.3z M201.7,32.5v3.4h0.7c0.2,0,0.3-0.1,0.3-0.3V32c-0.2,0-0.4,0.1-0.6,0.1h-1.2
		c-1.8,0-1.9-0.7-1.9-2.2h-1c0,0-0.1,0-0.1,0c-0.1,1.1-0.4,2.1-2.1,2.7L201.7,32.5L201.7,32.5z M196.7,26.8c0.2,0.4,0.3,0.8,0.4,1.2
		h2.5c0.1-0.4,0.3-0.8,0.4-1.2H196.7z M199.7,35v-0.8h-2.3V35H199.7z M201.8,30.5c0.2,0,0.3,0,0.3-0.2c0.1,0.1,0.4,0.2,0.6,0.3v-0.7
		h-1.8c0,0.6,0,0.6,0.3,0.6H201.8z"/>
	<path class="st2" d="M219.2,31c0.2-0.7,0.4-1.4,0.6-2.1l2.3,0.5c0,0.1-0.2,0.2-0.4,0.2c-0.4,1.8-1.1,3.4-1.9,4.9
		c0.2,0.9,0.4,1.5,0.7,1.5c0.2,0,0.4-0.8,0.4-2.2c0.4,0.5,1,1,1.5,1.3c-0.3,2.4-0.9,3-2.1,3c-0.8,0-1.3-0.6-1.8-1.6
		c-0.6,0.6-1.2,1.2-1.9,1.6c-0.3-0.4-1-1.1-1.4-1.4c1-0.6,1.9-1.4,2.6-2.4c-0.4-1.8-0.6-4-0.7-6.3h-2.8v1.6h1.7l1,0v0.6
		c0,3.1-0.1,4.5-0.4,4.9c-0.4,0.5-0.8,0.7-2.2,0.7c0-0.5-0.2-1.2-0.4-1.6c-0.3,1.5-0.8,3.1-1.8,4.2c-0.3-0.4-1.2-1.1-1.6-1.4
		c0.7-0.8,1.1-1.7,1.3-2.7c-1.2,0.6-2.5,1.2-3.4,1.5c0,0.2-0.1,0.3-0.3,0.3l-0.9-2.4c0.4-0.1,1-0.3,1.6-0.5v-4h-1.2v-2.1h1.2v-3.3
		l2.4,0.1c0,0.2-0.1,0.2-0.4,0.3v2.8h1.1V29h-1.1v3.3l1-0.3l0.2,1c0.1-0.9,0.1-1.7,0.1-2.5v-4.6h4.7c0-0.8,0-1.6,0-2.3l2.6,0.1
		c0,0.2-0.2,0.3-0.5,0.3c0,0.6,0,1.2,0,1.9h1.2c-0.2-0.5-0.6-1-1-1.5l1.5-0.9c0.5,0.6,1.1,1.3,1.3,1.8l-0.9,0.5h0.8v2h-2.8
		C219,28.9,219,30,219.2,31L219.2,31L219.2,31z M214.2,31.1c0,0.8-0.1,1.7-0.2,2.6c0.2,0,0.4,0,0.6,0c0.1,0,0.3,0,0.4-0.2
		c0.1-0.2,0.1-0.8,0.2-2.5L214.2,31.1L214.2,31.1z"/>
	<path class="st2" d="M225,33c1,0.8,2.5,2.4,3.2,3.2l-1.9,1.7c-0.6-0.9-2.2-2.6-3.1-3.4L225,33L225,33z"/>
	<path class="st2" d="M246.3,29.7H241c0.9,2.9,2.6,5.1,5.7,6.1c-0.5,0.5-1.3,1.5-1.6,2.2c-2.8-1.1-4.5-3-5.6-5.6
		c-0.9,2.3-2.5,4.2-5.6,5.6c-0.3-0.6-1-1.5-1.6-2c3.6-1.4,5-3.7,5.5-6.3h-5.2v-2.3h5.5c0.1-1.3,0.1-2.6,0.1-4l2.9,0.2
		c0,0.2-0.2,0.3-0.5,0.3c0,1.1,0,2.3-0.1,3.4h5.8L246.3,29.7L246.3,29.7z"/>
	<path class="st2" d="M249,23.9h13.3v14h-2.2v-0.5h-9V38H249V23.9z M251.1,35.5h9v-2.7c-0.1,0.1-0.2,0.1-0.4,0.1
		c-0.3,0.2-0.7,0.4-1.1,0.6c0.5,0.2,0.9,0.3,1.4,0.5c-0.4,0.3-0.9,1-1.1,1.4c-0.9-0.3-1.8-0.8-2.6-1.4v1.3h-2V34
		c-0.7,0.4-1.5,0.7-2.2,1c-0.2-0.3-0.8-1-1.1-1.3c1.1-0.3,2.3-0.8,3.2-1.4h-2v-2.5h6.3v2l1.4,1v-6.8h-9L251.1,35.5L251.1,35.5z
		 M259.7,28.2v1.2h-8.3v-1.2h3.1v-0.4h-2.4v-1.2h2.4V26l2.4,0.1c0,0.1-0.1,0.2-0.5,0.3v0.2h2.4v1.2h-2.4v0.4L259.7,28.2L259.7,28.2z
		 M256.8,31.2v-0.5h-2.6v0.5H256.8z M256.9,32.2l-0.1,0.1c0.2,0.2,0.4,0.3,0.6,0.4c0.2-0.2,0.5-0.3,0.8-0.6H256.9z"/>
	<path class="st2" d="M278.9,24.8v2h-2.4c-0.1,0.1-0.2,0.2-0.5,0.2c-0.1,0.3-0.3,0.6-0.5,0.9h2.7v7.7c0,2-0.9,2.3-3.6,2.3
		c-0.1-0.4-0.2-0.9-0.4-1.3h-3.5v0.8h-2v-4.8c-0.2,0.1-0.3,0.1-0.5,0.1c-0.1-0.3-0.3-0.7-0.6-1V38h-2.1v-10h2.6
		c-0.1-0.4-0.3-0.8-0.4-1.1l0.3,0H265v-2h5.7v-1.4l2.8,0.1c0,0.2-0.1,0.3-0.5,0.3v0.9L278.9,24.8L278.9,24.8z M267.8,29.9v1.4
		c1.2-0.3,1.6-0.7,1.6-1.4H267.8z M275.2,32.5v3.4h0.7c0.2,0,0.3-0.1,0.3-0.3V32c-0.2,0-0.4,0.1-0.6,0.1h-1.1
		c-1.8,0-1.9-0.7-1.9-2.2h-1c0,0-0.1,0-0.1,0c-0.1,1.1-0.4,2.1-2.1,2.7L275.2,32.5L275.2,32.5z M270.2,26.8c0.2,0.4,0.3,0.8,0.5,1.2
		h2.5c0.1-0.4,0.3-0.8,0.4-1.2H270.2z M273.2,35v-0.8h-2.3V35H273.2z M275.3,30.5c0.2,0,0.3,0,0.3-0.2c0.1,0.1,0.4,0.2,0.6,0.3v-0.7
		h-1.8c0,0.6,0,0.6,0.3,0.6H275.3z"/>
	<path class="st2" d="M281.5,23.9h13.3v14h-2.2v-0.5h-9V38h-2.1V23.9z M283.6,35.5h9v-9.5h-9v5.7c0.6-0.3,1.1-0.7,1.6-1.1h-1.2v-1.3
		h2.1c0.1-0.2,0.2-0.3,0.2-0.5h-0.9v-0.5c-0.2,0.2-0.3,0.4-0.5,0.5c-0.3-0.3-0.8-0.6-1.1-0.8c0.5-0.5,1.1-1.2,1.4-1.9l1.7,0.6
		c0,0.1-0.1,0.2-0.3,0.1c-0.1,0.3-0.3,0.5-0.5,0.8h0.7c0.1-0.5,0.2-0.9,0.3-1.4l1.9,0.3c0,0.1-0.1,0.2-0.4,0.2l-0.2,0.9h1.8
		c-0.2-0.3-0.5-0.6-0.8-0.8l1.3-0.7c0.6,0.6,1.4,1.5,1.8,2.1l-1.3,0.8c-0.1-0.2-0.3-0.4-0.4-0.6v0.5h-0.8c0.1,0.2,0.2,0.3,0.3,0.5h2
		v1.3h-1c0.4,0.4,0.9,0.7,1.4,0.9c-0.4,0.3-0.8,0.9-1.1,1.4c-0.5-0.3-1-0.6-1.4-1c-0.1,1.7-0.3,1.9-2.3,1.8c0-0.3-0.1-0.8-0.3-1.1
		c0.3,0,0.6,0,0.8,0c0.1,0,0.3,0,0.4-0.3h-1.5v1.2c0,0.4,0.1,0.5,0.7,0.5h1.9c0.5,0,0.6-0.1,0.6-0.9c0.4,0.2,1,0.4,1.4,0.5
		c-0.2,1.4-0.6,1.7-1.9,1.7h-2.3c-1.7,0-2.2-0.4-2.2-1.8v-1.1c-0.3,0.2-0.6,0.4-0.9,0.6c-0.2-0.3-0.6-1-0.9-1.3V35.5L283.6,35.5z
		 M289.5,31.1c-0.1-0.2-0.2-0.3-0.3-0.5h-2.1c-0.1,0.2-0.2,0.3-0.4,0.5h2.5H289.5L289.5,31.1z M288.6,29.3l-0.2-0.5H288
		c-0.1,0.2-0.1,0.3-0.2,0.5H288.6z"/>
	<path class="st2" d="M302.4,32l-1.4,0.4v3.2c0,1.6-0.3,2.4-3.1,2.4c-0.1-0.6-0.3-1.5-0.6-2.1c0.5,0,1.1,0,1.3,0
		c0.2,0,0.3-0.1,0.3-0.3V33l-1.1,0.3c0,0.2-0.2,0.3-0.3,0.3l-0.5-2.4c0.5-0.1,1.2-0.2,1.9-0.4v-2.4h-1.7v-2h1.7v-2.9l2.5,0.1
		c0,0.2-0.1,0.3-0.5,0.3v2.4h1.3v2H301v2l1.2-0.3L302.4,32L302.4,32z M311.4,33h-2.6c0.7,1.1,1.9,2.2,3,2.8
		c-0.5,0.4-1.1,1.2-1.5,1.7c-0.9-0.6-1.8-1.6-2.5-2.7v3h-2.1v-3.1c-0.8,1.2-1.8,2.2-2.9,2.9c-0.3-0.5-1-1.3-1.5-1.7
		c1.3-0.6,2.5-1.7,3.3-2.8h-2.1v-1.9h3.3v-1.5l2.5,0.1c0,0.2-0.1,0.3-0.4,0.3v1h3.6L311.4,33L311.4,33z M311.2,25.2
		c-0.1,0.1-0.1,0.1-0.5,0.1c-2.1,0.6-5.3,1-8,1.1c-0.1-0.5-0.3-1.3-0.6-1.8c2.7-0.2,5.7-0.6,7.6-1.2L311.2,25.2L311.2,25.2z
		 M304.2,26.6c0.4,0.9,0.8,2,0.9,2.8l-1.9,0.4c-0.1-0.8-0.4-1.9-0.8-2.9L304.2,26.6L304.2,26.6z M307,26.3c0.3,0.9,0.6,2.1,0.7,2.8
		l-2,0.3c0-0.8-0.2-2-0.5-2.9L307,26.3z M311.7,26.8c-0.1,0.1-0.3,0.2-0.5,0.2c-0.5,1-1.3,2.4-2,3.3l-1.6-0.7c0.6-1,1.3-2.5,1.7-3.6
		L311.7,26.8L311.7,26.8z"/>
	<path class="st2" d="M325.9,35.3h-2.3c1.5,0.5,3.2,1.2,4.2,1.6l-2.4,1.1c-0.9-0.5-2.6-1.3-4.2-1.8l1.4-0.9h-4.2l1.7,0.9
		c-0.1,0.1-0.2,0.1-0.3,0.1c0,0-0.1,0-0.2,0c-1.3,0.6-3.1,1.3-4.8,1.8c-0.4-0.4-1.1-1.2-1.5-1.5c1.4-0.3,3-0.7,4-1.2h-2v-6.8h10.5
		V35.3L325.9,35.3z M326.8,24v4h-12.3v-4H326.8z M317.9,26.4v-0.8h-1.5v0.8H317.9z M317.6,29.9v0.5h6.1v-0.5H317.6z M317.6,31.6v0.5
		h6.1v-0.5H317.6z M317.6,33.4v0.5h6.1v-0.5H317.6z M321.3,26.4v-0.8h-1.5v0.8H321.3z M324.6,26.4v-0.8h-1.5v0.8H324.6z"/>
	<path class="st2" d="M337.9,34.2v1.5h5.5v2h-13.1v-2h5.3v-1.5h-4v-1.9h4v-1.4h-3.2v-1.3c-0.5,0.3-1.1,0.7-1.6,1
		c-0.3-0.5-0.9-1.4-1.4-1.8c2.6-1.3,5.1-3.6,6.2-5.5l2.9,0.2c-0.1,0.2-0.2,0.3-0.5,0.3c1.5,2,4,3.8,6.3,4.7c-0.6,0.6-1,1.3-1.5,2
		c-0.5-0.3-1.1-0.6-1.6-0.9v1.3h-3.3v1.4h4.1v1.9H337.9z M340.3,28.9c-1.4-1.1-2.7-2.3-3.5-3.4c-0.8,1.1-2,2.3-3.5,3.4H340.3
		L340.3,28.9z"/>
	<path class="st2" d="M351.1,24.2c-0.1,0.1-0.2,0.2-0.5,0.2c-0.3,1.1-0.8,2.3-1.2,3.4l0.7,0.2c0,0.1-0.2,0.3-0.5,0.3V38h-2.2v-6.5
		c-0.2,0.3-0.4,0.6-0.6,0.9c-0.3-0.5-0.9-1.5-1.3-2c1.2-1.5,2.3-4.3,3-7L351.1,24.2L351.1,24.2z M360.3,34.6h-2.4
		c0.9,0.6,1.9,1.3,2.4,1.8l-1.5,1.5c-0.6-0.7-2-1.7-3-2.4l0.9-0.9h-2.9l1.3,0.9c-0.1,0.1-0.2,0.1-0.4,0.1c-0.8,0.8-2.1,1.7-3.2,2.3
		c-0.3-0.5-0.9-1.2-1.4-1.6c0.9-0.4,1.9-1,2.7-1.7h-2.4v-2h1.2V24h7.5v8.7h1.2L360.3,34.6L360.3,34.6z M356.8,25.7h-3.1v0.6h3.1
		V25.7z M356.8,28.5v-0.6h-3.1v0.6H356.8z M356.8,29.9h-3.1v0.7h3.1V29.9z M353.7,32v0.7h3.1V32H353.7z"/>
	<path class="st2" d="M370.4,34.2v1.5h5.5v2h-13.1v-2h5.3v-1.5h-4v-1.9h4v-1.4h-3.2v-1.3c-0.5,0.3-1.1,0.7-1.6,1
		c-0.3-0.5-0.9-1.4-1.4-1.8c2.6-1.3,5.1-3.6,6.2-5.5l2.9,0.2c-0.1,0.2-0.2,0.3-0.5,0.3c1.5,2,4,3.8,6.3,4.7c-0.6,0.6-1,1.3-1.5,2
		c-0.5-0.3-1.1-0.6-1.6-0.9v1.3h-3.3v1.4h4.1v1.9H370.4z M372.7,28.9c-1.4-1.1-2.7-2.3-3.5-3.4c-0.8,1.1-2,2.3-3.4,3.4H372.7
		L372.7,28.9z"/>
</g>
</svg>
