<?xml version="1.0" encoding="utf-8"?>
<!-- Generator: Adobe Illustrator 27.0.0, SVG Export Plug-In . SVG Version: 6.00 Build 0)  -->
<svg version="1.1" id="圖層_1" xmlns="http://www.w3.org/2000/svg" xmlns:xlink="http://www.w3.org/1999/xlink" x="0px" y="0px"
	 viewBox="0 0 390 60" style="enable-background:new 0 0 390 60;" xml:space="preserve">
<style type="text/css">
	.st0{fill:#FFFFFF;}
	.st1{fill:#FFE900;}
	.st2{fill:#2E318B;}
</style>
<path class="st0" d="M359.9,1H29.5C13.3,1,0.1,14.1,0.1,30.4c0,16.2,13.2,29.4,29.4,29.4h330.4c16.2,0,29.4-13.2,29.4-29.4
	C389.3,14.1,376.1,1,359.9,1z"/>
<path class="st1" d="M127.9,6.9h-98C17,6.9,6.5,17.4,6.5,30.4v0c0,12.9,10.5,23.4,23.4,23.4h98c12.9,0,23.4-10.5,23.4-23.4v0
	C151.4,17.4,140.9,6.9,127.9,6.9z"/>
<path class="st2" d="M43.8,23.7c2.2,1.5,4.9,3.6,6.3,5.1l-3.5,2.7c-0.4-0.5-0.9-1.1-1.6-1.7c-0.1,0.2-0.4,0.3-0.8,0.3
	c-0.9,2-2.1,3.8-3.5,5.3c2.5,1.7,5.8,2.8,9.8,3.5c-0.9,0.9-2,2.6-2.6,3.8c-4.4-0.8-7.7-2.3-10.4-4.4c-2.8,2-6.3,3.4-10.3,4.4
	c-0.5-0.9-1.6-2.7-2.3-3.5c3.8-0.7,7.1-1.9,9.7-3.7c-1.4-1.7-2.4-3.6-3.4-5.8c-1,0.8-2,1.5-3,2.1c-0.7-0.8-2.1-2.2-3-2.9
	c2.4-1.2,5-3.2,6.5-5.1h-6.1v-3.8h9.9V17l4.8,0.3c0,0.3-0.2,0.5-0.8,0.6v2.1h10v3.8L43.8,23.7L43.8,23.7z M32.1,23.7l4.2,1.8
	c-0.1,0.2-0.3,0.3-0.6,0.3c-0.1,0-0.2,0-0.3,0c-1.1,1.2-2.4,2.5-3.9,3.6l3.5-1c0.7,1.7,1.6,3.1,2.7,4.4c1.2-1.3,2.1-2.8,2.8-4.6
	l4.4,1.5c-1.5-1.4-3.4-2.9-5-4.1l2.5-1.9H32.1L32.1,23.7z"/>
<path class="st2" d="M58.7,27.4V36c1.4,2.6,3.9,2.6,9.2,2.6c3.2,0,7.1-0.1,9.8-0.3c-0.4,0.9-1,2.7-1.2,3.8c-2.1,0.1-5,0.2-7.7,0.2
	c-6.7,0-9.4-0.1-11.7-3c-1.2,1-2.3,1.9-3.3,2.7c0,0.3-0.1,0.5-0.4,0.6l-1.9-4.1c1.1-0.6,2.4-1.4,3.5-2.2v-5.2h-3.2v-3.6L58.7,27.4
	L58.7,27.4z M54.8,17.5c1.7,1.1,3.8,2.8,4.8,4.1l-2.9,2.8c-0.9-1.3-2.9-3.1-4.6-4.4L54.8,17.5L54.8,17.5z M64.4,33.9v3.8h-3.7V23.8
	h5c-0.9-0.4-1.9-0.8-2.7-1.1l2.4-1.9h-4.4v-2.9h12.1l0.6-0.2l2.8,1.8c-0.1,0.2-0.4,0.3-0.7,0.4c-1.1,1-2.6,2.3-4.3,3.3
	c0.5,0.2,1,0.5,1.4,0.7h3.2v10.7c0,2.7-1,3.3-4.8,3.3c-0.1-0.9-0.5-2.2-0.9-3c0.6,0,1.5,0,1.7,0c0.4,0,0.4-0.1,0.4-0.9h-2.3v3.7
	h-3.5v-3.7L64.4,33.9L64.4,33.9z M66.7,26.5h-2.3v0.9h2.3V26.5z M64.4,31.1h2.3v-1h-2.3V31.1z M65.9,20.7c0.8,0.3,1.7,0.6,2.6,1
	c0.5-0.3,0.9-0.6,1.3-1H65.9L65.9,20.7z M72.5,26.5h-2.3v0.9h2.3V26.5z M70.1,31.1h2.3v-1h-2.3V31.1z"/>
<path class="st2" d="M104.2,37.9h-3.3c1.3,0.9,2.7,2.1,3.6,2.9l-2.9,1.8c-0.9-1-2.8-2.6-4.3-3.8l1.7-1h-3.9l1.7,1
	c-0.1,0.1-0.2,0.2-0.4,0.2c-0.9,1.2-3.1,2.7-4.9,3.5c-0.6-0.6-1.6-1.6-2.4-2.2c-0.6,2.2-2.7,2.2-4.9,2.2c-0.1-1-0.4-2.5-0.9-3.4
	c0.7,0.1,1.3,0.1,1.7,0.1c0.3,0,0.5-0.1,0.8-0.4c0.3-0.5,0.4-2.6,0.5-8.3h-1.5c-0.4,4.6-1.2,8.9-3.5,12c-0.6-0.9-1.8-2.1-2.7-2.7
	c2.6-3.7,2.8-9.2,2.9-15.3h-2.4v-3.6h3.9V17l4.5,0.2c0,0.3-0.2,0.5-0.8,0.6v3.1h3.5v0.6c0.9-1.3,1.7-3,2.1-4.6l3.9,1
	c-0.1,0.2-0.3,0.3-0.7,0.3c-0.1,0.4-0.3,0.9-0.5,1.3h9.5v3.1H93.1l-0.2,0.4l3.5,0.2c0,0.3-0.2,0.4-0.8,0.5v1.3h2.7v-2l4.4,0.2
	c0,0.3-0.2,0.5-0.8,0.5v1.3h1.9v3h-1.9v6.7h2.3V37.9L104.2,37.9z M87.8,27l1.9,0.1c0,0.3,0,0.7,0,1.1c-0.1,7-0.2,10.5-0.6,12.1
	c1.3-0.6,2.7-1.5,3.7-2.4h-2.9v-3h2.2v-6.7h-1.9v-3h1.9v-1c-0.2,0.3-0.4,0.5-0.7,0.7c-0.3-0.3-0.9-0.8-1.5-1.2v0.9h-4.9L84.9,27
	H87.8L87.8,27z M98.4,28.1h-2.7v0.6h2.7V28.1z M98.4,31.8v-0.6h-2.7v0.6H98.4z M95.7,34.1v0.7h2.7v-0.7H95.7z"/>
<path class="st2" d="M115.9,30.5l-1,0.1v8.8c0,2.4-0.8,3.2-4,3.2c-0.1-0.8-0.5-2.1-0.9-2.9c0.4,0,0.8,0.1,1.2,0.1
	c0.8,0,0.9,0,0.9-0.4V31l-2.6,0.3c-0.1,3.6-0.4,8.3-1.9,11.3c-0.5-0.5-1.8-1.2-2.4-1.5c1.3-2.6,1.6-6.3,1.6-9.4l-0.3,0.1
	c-0.1,0.2-0.3,0.4-0.5,0.4l-0.7-3.2l1.5-0.1v-8.2h2.2c0.2-1.2,0.3-2.6,0.4-3.6l4,0.7c-0.1,0.2-0.3,0.3-0.7,0.4
	c-0.2,0.7-0.5,1.7-0.8,2.5h3V28l0.9-0.1L115.9,30.5L115.9,30.5z M111.3,24c0.4,0.9,0.7,2.1,0.8,3h0l0-3.5h-2.6v1.1L111.3,24z
	 M109.6,28.6l2.6-0.2v-1.1l-2,0.7c0-0.8-0.3-1.9-0.6-2.8V28.6z M112.1,31.8c0,0.2-0.2,0.3-0.5,0.3v5.6h-1.7v-6.1L112.1,31.8z
	 M129.6,39.2h1.5v2.9h-15.9v-2.9h1.5v-7h12.9V39.2z M118.8,31.2v0.4h-2.6V17.9h7.7v2.4H122v1.3h1.7v2.7c0.7-1.9,1.1-4.7,1.3-7.3
	l3.7,0.8c-0.1,0.2-0.3,0.4-0.6,0.4c-0.1,0.7-0.2,1.5-0.3,2.2h3.3v2.9h-3.9c-0.3,1.3-0.7,2.5-1.2,3.4c-0.5-0.5-1.5-1.1-2.3-1.5v2.2
	h-1.7v1.3h2.2v2.5L118.8,31.2L118.8,31.2z M119.5,20.3h-0.8v1.3h0.8V20.3z M121.1,23.8h-2.4v1.5h2.4V23.8z M119.5,28.7v-1.3h-0.8
	v1.3H119.5z M119.6,35.1v4.2h0.7v-4.2H119.6z M123.5,35.1h-0.7v4.2h0.7V35.1z M124.5,29.9V27h6.1v2.9H124.5z M126.6,35.1h-0.7v4.2
	h0.7V35.1z"/>
<g>
	<path class="st2" d="M171,37.5h-2.8l-0.7-2.8h-2.7l-0.6,2.8h-2.7l3.1-11.8h3.4L171,37.5L171,37.5z M167.2,32.7l-0.5-2.4
		c-0.1-0.7-0.3-1.8-0.5-2.5h0c-0.1,0.7-0.3,1.8-0.5,2.5l-0.5,2.4H167.2L167.2,32.7z"/>
	<path class="st2" d="M176,37.5v-9.3h0l-2,1l-0.6-2l3-1.5h2.3v11.6L176,37.5L176,37.5z"/>
	<path class="st2" d="M189.7,25.8v2.2h-3.8l-0.2,1.8c0.2,0,0.3,0,0.5,0c1.8,0,3.9,1,3.9,3.7c0,2.2-1.7,4.1-4.6,4.1
		c-1.2,0-2.2-0.3-2.8-0.6l0.5-2c0.5,0.2,1.3,0.5,2.1,0.5c1.1,0,2.1-0.6,2.1-1.8c0-1.3-1-1.9-2.9-1.9c-0.5,0-0.8,0-1.2,0.1l0.7-6
		H189.7L189.7,25.8z"/>
	<path class="st2" d="M202.8,35.8v0.9c0.4,0,0.8,0.1,2,0.1c0.7,0,1.7,0,2.2,0c-0.3,0.4-0.5,1.4-0.6,1.9H204c-2,0-3.6-0.3-4.8-1.5
		c-0.3,0.7-0.8,1.4-1.3,1.9c-0.4-0.3-1.1-0.9-1.6-1.2c1-0.9,1.5-2.5,1.7-4.2l2.3,0.4c0,0.1-0.2,0.2-0.4,0.2c0,0.3-0.1,0.6-0.2,0.9
		c0.3,0.4,0.6,0.7,0.9,0.9v-2.7h-2.6v-1.6h2.6v-0.5h-3.3l0.2,1.4c-0.5,0.2-1,0.3-1.5,0.5v3.4c0,1.6-0.3,2.4-3.1,2.4
		c-0.1-0.6-0.3-1.5-0.6-2.1c0.5,0,1.1,0,1.3,0c0.2,0,0.3-0.1,0.3-0.3v-2.7l-1.1,0.3c0,0.2-0.2,0.3-0.3,0.3l-0.5-2.4
		c0.5-0.1,1.2-0.2,1.9-0.4v-2.3h-1.7v-2h1.7v-2.9l2.5,0.1c0,0.2-0.1,0.3-0.4,0.3v2.4h1.3v2h-1.3v1.8l0.9-0.2v-1.3h3.6v-0.4h-2.6
		v-1.6h2.6v-0.4h-3.4v-1.7h3.4v-1l2.5,0.1c0,0.1-0.1,0.3-0.4,0.3v0.6h3.9v1.7h-3.9v0.4h3v2.1h1v1.7h-1v2.1h-3v0.6h3.3v1.7
		L202.8,35.8L202.8,35.8z M202.8,29.2v0.5h1v-0.5H202.8z M202.8,31.3v0.5h1v-0.5H202.8z"/>
	<path class="st2" d="M212.4,30.3v4.9c0.8,1.5,2.3,1.5,5.2,1.5c1.8,0,4-0.1,5.6-0.2c-0.2,0.5-0.6,1.5-0.7,2.2
		c-1.2,0.1-2.8,0.1-4.4,0.1c-3.7,0-5.3,0-6.6-1.7c-0.6,0.6-1.2,1.1-1.7,1.5c0,0.2-0.1,0.3-0.2,0.3l-1.1-2.3c0.6-0.3,1.2-0.8,1.8-1.2
		v-3h-1.6v-2.1H212.4L212.4,30.3z M210.4,24.8c0.8,0.7,1.9,1.7,2.4,2.4l-1.8,1.4c-0.4-0.7-1.4-1.8-2.2-2.5L210.4,24.8z M216.5,36.4
		v-0.9h-3.8V34h3.8v-0.4h-2.9V29h2.9v-0.3h-3.2v-1.5h3.2v-0.8l2.6,0.1c0,0.2-0.1,0.3-0.4,0.3v0.3h3.3v1.5h-3.3V29h3v4.6h-3V34h4v1.6
		h-4v0.9L216.5,36.4L216.5,36.4z M214.9,26.2v0.6h-1.9v-2.2h9.6v2.2h-2v-0.6H214.9L214.9,26.2z M215.6,30.3v0.4h1v-0.4H215.6z
		 M215.6,32.3h1v-0.4h-1V32.3z M219.7,30.3h-1v0.4h1V30.3z M219.7,32.3v-0.4h-1v0.4H219.7z"/>
	<path class="st2" d="M225.2,36c0-1,0.7-1.7,1.6-1.7s1.6,0.7,1.6,1.7c0,1-0.6,1.7-1.6,1.7C225.9,37.6,225.2,36.9,225.2,36z"/>
	<path class="st2" d="M230.8,25h13.3v14h-2.2v-0.6h-9V39h-2.1V25z M232.9,36.4h9V27h-1.2c0.3,0.2,0.7,0.5,0.9,0.7l-0.6,0.6h0.5v1.5
		h-2.5c0,0.5,0.1,1,0.1,1.5c0.2-0.4,0.3-0.8,0.4-1.2l2,0.5c0,0.1-0.2,0.2-0.4,0.2c-0.3,1.1-0.8,2.1-1.4,3c0.1,0.3,0.3,0.5,0.4,0.5
		c0.1,0,0.2-0.6,0.3-1.3c0.3,0.3,1,0.9,1.3,1.1c-0.2,1.5-0.8,2.2-1.6,2.2c-0.4,0-1.2-0.2-1.7-1c-0.4,0.4-0.9,0.8-1.5,1.1
		c-0.2-0.3-0.7-0.9-1-1.2c-0.9,0.1-1.6,0.3-2.2,0.3c0,0.1-0.1,0.2-0.2,0.2l-0.5-1.8c1.1-0.1,2.6-0.2,4.2-0.4v0.6
		c0.2-0.2,0.4-0.4,0.6-0.6c-0.3-1-0.5-2.3-0.6-3.7h-4v-1.5h3.9c0-0.4,0-0.7-0.1-1.1l2.3,0.1c0,0.1-0.2,0.3-0.4,0.3
		c0,0.2,0,0.5,0,0.7h1.1c-0.3-0.2-0.6-0.4-0.8-0.6L240,27h-7.1L232.9,36.4L232.9,36.4z M237,30.3v2.9h-3.4v-2.9H237z M235.6,32v-0.7
		H235V32H235.6z"/>
	<path class="st2" d="M250.4,30.3v4.8c0.9,1.4,2.5,1.4,5.2,1.4c1.8,0,4-0.1,5.5-0.2c-0.2,0.5-0.6,1.6-0.7,2.3
		c-1.2,0.1-2.7,0.1-4.2,0.1c-3.8,0-5.4-0.1-6.8-1.7c-0.6,0.6-1.3,1.1-1.8,1.5c0,0.2-0.1,0.3-0.2,0.3l-1.1-2.4c0.6-0.3,1.3-0.8,2-1.2
		v-2.8h-1.6v-2.1H250.4L250.4,30.3z M248.2,24.7c0.9,0.6,2,1.6,2.5,2.3l-1.8,1.5c-0.4-0.7-1.5-1.7-2.4-2.4L248.2,24.7z M251.9,28.6
		h2.2c0-0.2,0.1-0.3,0.1-0.5h-3.5v-1.8h2c-0.2-0.4-0.5-0.9-0.8-1.2l1.7-0.7c0.5,0.6,0.9,1.3,1.1,1.8l-0.2,0.1h1.7l-0.1,0
		c0.3-0.6,0.7-1.3,0.9-1.9l2.5,0.7c-0.1,0.1-0.2,0.2-0.5,0.2c-0.2,0.3-0.6,0.7-0.9,1.1h2.4v1.8h-4.1c-0.1,0.2-0.2,0.3-0.3,0.5h3.2
		v7.6h-2.2v-0.2H254v0.2h-2.1L251.9,28.6L251.9,28.6z M257.2,30.7v-0.4H254v0.4H257.2z M254,32.1v0.5h3.2v-0.5H254z M254,34.4h3.2
		v-0.5H254V34.4z"/>
	<path class="st2" d="M263.1,36c0-1,0.7-1.7,1.6-1.7s1.6,0.7,1.6,1.7c0,1-0.6,1.7-1.6,1.7S263.1,36.9,263.1,36z"/>
	<path class="st2" d="M282.2,25.5v1.9h-13.7v-1.9h5.6v-1.2l2.8,0.2c0,0.2-0.1,0.3-0.5,0.3v0.7L282.2,25.5L282.2,25.5z M281.6,36.7
		c0,1-0.2,1.5-0.8,1.9c-0.6,0.3-1.4,0.4-2.4,0.4c0-0.3-0.2-0.8-0.3-1.2h-3.8v0.7h-1.9v-4.2h5.9v2.7c0.4,0,0.8,0,0.9,0
		c0.2,0,0.3-0.1,0.3-0.2v-3h-8.1V39h-2.2v-7.1h12.5V36.7L281.6,36.7z M271,27.9h8.5v3.5H271V27.9z M277.3,29.3h-4.2v0.6h4.2V29.3z
		 M276.3,35.7h-2v0.6h2V35.7z"/>
	<path class="st2" d="M296.5,32c0.2-0.5,0.3-0.9,0.4-1.4l2.2,0.6c0,0.1-0.2,0.2-0.4,0.2c-0.5,1.5-1.1,3-1.9,4.3
		c0.1,0.8,0.3,1.2,0.5,1.2c0.2,0,0.3-0.6,0.4-2.3c0.4,0.4,1,0.9,1.4,1.1c-0.2,2.8-0.7,3.3-2,3.3c-0.8,0-1.3-0.5-1.7-1.5
		c-0.5,0.5-1,1-1.6,1.4c-0.2-0.2-0.5-0.6-0.8-0.9c-1.1,0.1-2.2,0.2-2.9,0.2c0,0.1-0.1,0.2-0.3,0.2l-0.3-1c-1.6,0.3-3.3,0.6-4.4,0.8
		c0,0.1-0.2,0.2-0.3,0.3l-0.6-2.2c0.6,0,1.2-0.1,2-0.2v-0.6l-1.2,0.3c0-0.7-0.3-1.7-0.5-2.5l1.3-0.3c0.1,0.5,0.3,1.2,0.4,1.8v-2
		h-1.7v-1.9h1.7v-0.9h-1v-0.8c-0.3-0.4-0.8-0.9-1.2-1.1c1.2-1.1,1.9-2.5,2.4-3.7l2.3,0.4c0,0.1-0.2,0.2-0.4,0.3
		c0.6,0.5,1.2,1,1.6,1.4v-0.9h1.2v-1.1l2.4,0.1c0,0.2-0.1,0.2-0.4,0.3v0.6h1.1v1.7h-1.1v0.6h1.4c0-1,0-2.2,0-3.4l2.6,0.1
		c0,0.2-0.2,0.3-0.5,0.3v0.6l1.3-0.6c0.4,0.7,0.9,1.6,1,2.2l-1.5,0.7h1.5v1.7h-2.4C296.5,30.4,296.5,31.2,296.5,32L296.5,32
		L296.5,32z M289,28.3c-0.3-0.4-0.9-1-1.5-1.5c-0.3,0.5-0.6,1-1,1.5H289z M292.9,36.5l0.8,0c0.4-0.4,0.8-0.8,1.1-1.3
		c-0.2-1.5-0.3-3.5-0.4-5.8h-5v-1.7h1.6v-0.6h-1.2v-0.2l-0.9,1.3h0.1v1.8H288V31h1.5v1.9H288v1.8c0.2-0.6,0.3-1.2,0.4-1.7l1.3,0.4
		v-0.2h4.5v1.3h-1.3v0.3h1.2v1.2h-1.2L292.9,36.5L292.9,36.5z M289.5,36.6l1.5,0v-0.5h-1.1v-1.2h1.1v-0.3h-1.3v-0.9h0
		c-0.2,0.6-0.5,1.4-0.8,2l-0.9-0.4v0.6l1.4-0.2L289.5,36.6L289.5,36.6z M289.9,32.9v-3h4.3v3H289.9z M291.4,31.2v0.4h1.1v-0.4H291.4
		z M297.1,27.7c-0.1-0.5-0.4-1.2-0.7-1.8c0,0.6,0,1.2,0,1.8H297.1z"/>
	<path class="st2" d="M318.6,33.5h-3.5c-0.1,0.8-0.3,1.6-0.7,2.3c1.3,0.6,3,1,5,1.2c-0.5,0.5-1.1,1.4-1.4,2.1c-2-0.3-3.7-0.8-5-1.6
		c-0.8,0.6-1.7,1.2-3,1.6c-0.3-0.5-0.9-1.4-1.4-1.8c1.2-0.2,2.1-0.6,2.7-1c-0.5-0.5-1-1.1-1.4-1.8l2-0.6c0.2,0.3,0.4,0.6,0.7,0.8
		c0.1-0.3,0.2-0.7,0.3-1.1h-3.1v-5.8h3.2v-0.6h-3.6v-1.6c-0.3,0.9-0.7,1.8-1.2,2.7l0.6,0.2c0,0.1-0.2,0.3-0.5,0.3V39h-2.2v-7.4
		c-0.3,0.4-0.6,0.9-1,1.3c-0.2-0.5-0.7-1.7-1-2.3c1.2-1.4,2.4-3.8,3.2-6.2l2.1,0.7h9.5v1.9h-3.8v0.6h3.4L318.6,33.5L318.6,33.5z
		 M311.8,29.2v0.6h1.2v-0.6H311.8z M311.8,31.3v0.6h1.2v-0.6H311.8z M316.4,29.2h-1.3v0.6h1.3V29.2z M316.4,31.9v-0.6h-1.3v0.6
		H316.4z"/>
	<path class="st2" d="M331.3,35.8v0.9c0.4,0,0.8,0.1,2,0.1c0.7,0,1.7,0,2.2,0c-0.3,0.4-0.5,1.4-0.6,1.9h-2.4c-2,0-3.6-0.3-4.8-1.5
		c-0.3,0.7-0.8,1.4-1.3,1.9c-0.4-0.3-1.1-0.9-1.6-1.2c1-0.9,1.5-2.5,1.7-4.2l2.3,0.4c0,0.1-0.2,0.2-0.4,0.2c0,0.3-0.1,0.6-0.2,0.9
		c0.3,0.4,0.6,0.7,0.9,0.9v-2.7h-2.6v-1.6h2.6v-0.5H326l0.2,1.4c-0.5,0.2-1,0.3-1.5,0.5v3.4c0,1.6-0.3,2.4-3.1,2.4
		c-0.1-0.6-0.3-1.5-0.6-2.1c0.5,0,1.1,0,1.3,0c0.2,0,0.3-0.1,0.3-0.3v-2.7l-1.1,0.3c0,0.2-0.2,0.3-0.3,0.3l-0.5-2.4
		c0.5-0.1,1.2-0.2,1.9-0.4v-2.3h-1.7v-2h1.7v-2.9l2.5,0.1c0,0.2-0.1,0.3-0.4,0.3v2.4h1.3v2h-1.3v1.8l0.9-0.2v-1.3h3.6v-0.4h-2.6
		v-1.6h2.6v-0.4h-3.4v-1.7h3.4v-1l2.5,0.1c0,0.1-0.1,0.3-0.4,0.3v0.6h3.9v1.7h-3.9v0.4h3v2.1h1v1.7h-1v2.1h-3v0.6h3.3v1.7
		L331.3,35.8L331.3,35.8z M331.3,29.2v0.5h1v-0.5H331.3z M331.3,31.3v0.5h1v-0.5H331.3z"/>
	<path class="st2" d="M345.5,36.3h5.8v2.2h-13.9v-2.2h5.8v-2.6h-4v-2.1h4v-2.3h-3c-0.4,0.9-0.9,1.7-1.4,2.4c-0.5-0.4-1.4-1-1.9-1.4
		c1.1-1.3,2.1-3.7,2.6-5.8l2.7,0.7c-0.1,0.1-0.2,0.2-0.5,0.2c-0.2,0.6-0.4,1.1-0.6,1.7h2v-2.7l2.8,0.2c0,0.2-0.1,0.3-0.5,0.3v2.2
		h5.1v2.2h-5.1v2.3h4.4v2.1h-4.4L345.5,36.3L345.5,36.3z"/>
	<path class="st2" d="M354.4,28.6c0.9,0.3,2.2,0.9,2.9,1.4l-1.3,1.9c-0.6-0.5-1.8-1.2-2.8-1.6L354.4,28.6L354.4,28.6z M353.7,37.3
		c0.8-1.2,1.9-3,2.7-4.9l1.7,1.4c-0.8,1.6-1.6,3.2-2.3,4.4c0.1,0.1,0.1,0.2,0.1,0.3c0,0.1,0,0.2-0.1,0.3L353.7,37.3L353.7,37.3z
		 M367.8,31h-4v1.5h3.1v6.3h-2.2v-0.6h-3.8v0.6h-2.1v-6.3h2.9V31h-3.8v-2.1h3.8v-1.5c-1,0.1-2,0.2-3,0.3c-0.1-0.5-0.3-1.2-0.6-1.7
		l-1.2,1.7c-0.6-0.5-1.8-1.2-2.7-1.6l1.2-1.6c0.9,0.3,2.1,0.9,2.7,1.4c2.7-0.2,5.5-0.8,7.3-1.5l1.9,1.8c-0.1,0.1-0.2,0.1-0.5,0.1
		c-0.9,0.3-1.9,0.6-3,0.8v1.9h4V31z M364.6,36.3v-1.7h-3.8v1.7H364.6z"/>
</g>
</svg>
