<svg width="530" height="159" viewBox="0 0 530 159" fill="none" xmlns="http://www.w3.org/2000/svg">
<path d="M42.83 54.21V61.54H70.24V71.39H4.89V61.54H31.15V54.21H11V44.67H31.15V37.65H15.12V31.16C12.45 32.92 9.7 34.6 6.87 36.12C5.42 33.52 2.37 29.4 0 27.26C13.13 20.85 25.5 9.16 31 0L45.58 0.76C45.27 1.68 44.51 2.36 43.29 2.52C50.7 12.45 63.45 21.61 74.82 26.04C71.99 28.87 69.55 32.68 67.49 36.04C64.82 34.67 62.15 32.99 59.47 31.31V37.65H42.82V44.67H63.28V54.21H42.82H42.83ZM54.59 27.87C47.41 22.6 40.92 16.49 36.95 10.99C32.98 16.56 26.87 22.52 19.77 27.87H54.59Z" fill="white"/>
<path d="M148.51 22.83H111.94C111.71 25.58 111.48 28.4 111.1 31.31H131.64L134.08 31.08L140.65 32.15C140.57 32.99 140.42 34.36 140.19 35.36C137.9 70.79 135.61 72.85 117.74 72.85C115.83 72.85 113.69 72.85 111.55 72.77C111.4 69.56 109.72 64.91 107.58 61.85C112.77 62.31 118.12 62.31 120.48 62.31C122.16 62.31 123.23 62.16 124.3 61.32C126.13 59.79 127.43 53.68 128.35 41.77H109.26C106.43 53.91 100.25 65.67 84.9 73.76C83.3 70.71 80.01 66.73 77.04 64.37C97.35 54.83 99.03 38.49 99.79 22.83H78.72V12.22H107.35V0.0799561L121.25 0.839956C121.17 1.67996 120.49 2.21996 118.88 2.51996V12.22H148.51V22.83Z" fill="white"/>
<path d="M163.01 36.1199C161.25 38.4899 159.5 40.7799 157.67 42.7599C156.68 40.0099 154 34.1299 152.55 31.3799C158.89 24.6599 165.45 12.4399 169.35 0.689941L181.49 4.88994C181.03 5.64994 180.19 5.95994 179.12 5.87994C177.29 10.5399 175.15 15.3499 172.78 19.9299L175.99 20.7699C175.84 21.5299 175.15 22.1499 173.78 22.2999V73.0799H163.01V36.1199ZM177.36 59.5599H226.53V70.0199H177.36V59.5599ZM178.73 13.6699H195.6V0.839941L209.12 1.52994C209.04 2.44994 208.43 2.90994 206.83 3.20994V13.6699H225.16V24.1299H178.74V13.6699H178.73ZM193.16 26.5699C195.68 35.9599 197.74 47.9499 198.2 55.5099L187.05 57.7999C186.9 50.3899 185.22 38.0199 183 28.3999L193.16 26.5699ZM222.71 29.3199C222.48 30.0799 221.56 30.5399 220.27 30.6199C218.74 39.7799 215.77 51.0099 213.09 58.4099L203.16 55.5799C205.68 47.7199 208.12 35.6499 209.19 26.1799L222.7 29.3099L222.71 29.3199Z" fill="white"/>
<path d="M260.66 13.21V21.84H230.04V13.21H260.66ZM293.11 33.06L300.13 35.73C299.98 36.34 299.6 36.65 299.21 37.11C297 45.43 293.41 52.23 288.52 57.8C292.8 60.24 297.76 62.15 303.18 63.45C300.74 65.66 297.53 70.17 296 72.99C289.97 71.16 284.62 68.56 279.97 65.2C275.16 68.48 269.59 71.08 263.25 72.99C262.18 70.32 259.74 66.12 257.75 63.67V69.24H242.78V71.91H233.46V45.41H257.74V63.12C262.86 61.9 267.51 60.07 271.56 57.62C268.58 54.26 266.06 50.52 263.85 46.32L273.39 43.27H261.63V33.34H264.76C263 31.43 259.87 28.84 257.81 27.54V32.35H233.76V24.1H257.81V26.85C263.99 22.42 264.61 16.62 264.61 11.66V2.59998H291.33V18.86C291.33 21.15 291.41 21.38 292.02 21.38H292.86C293.62 21.38 293.93 20.39 294.08 14.13C295.99 15.73 300.26 17.34 303.01 18.02C302.09 27.87 299.57 30.69 294 30.69H289.95C283 30.69 280.94 27.86 280.94 19.01V12.37H275.06C274.98 19.47 273.53 27.95 266.81 33.37H291.17L293.08 33.07L293.11 33.06ZM257.83 34.66V42.91H233.78V34.66H257.83ZM257.75 2.73998V11H234V2.74998H257.75V2.73998ZM248.28 60.54V54.05H242.78V60.54H248.28ZM273.71 43.28C275.24 46.11 277.3 48.78 279.74 51.14C281.95 48.85 283.79 46.18 285.31 43.28H273.7H273.71Z" fill="white"/>
<path d="M338.39 13.21V21.84H306.4V13.21H338.39ZM335.11 45.43V69.25H319.46V71.92H309.92V45.42H335.12L335.11 45.43ZM310.22 32.37V24.12H335.34V32.37H310.22ZM310.22 42.91V34.66H335.34V42.91H310.22ZM335.41 2.75004V11H310.67V2.75004H335.41ZM325.41 54.06H319.45V60.55H325.41V54.06ZM379.55 25.96V36.96H364.28V73.08H352.98V36.96H337.94V25.96H352.98V0.920044L366.65 1.61004C366.57 2.53004 365.89 3.06004 364.28 3.29004V25.96H379.55Z" fill="white"/>
<path d="M454.21 56.04H431.38C436.72 60.24 444.74 62.3 456.2 62.91C453.83 65.35 450.93 70.09 449.56 73.22C434.06 71.46 425.2 66.81 419.09 57.41C415.12 64.59 407.18 69.86 388.09 72.99C387.25 70.01 384.65 65.43 382.59 62.99C394.88 61.46 401.83 59.25 405.8 56.04H384.11V46.42H410.99C411.22 45.35 411.37 44.21 411.52 43.06H384.03V33.21H413.12V30.77H392.2V21.53H413.12V19.24H388V9.47001H400.6C399.68 7.64 398.54 5.73 397.39 4.2L406.93 0.530005C409.14 2.97 411.21 6.41001 412.05 8.85001L410.6 9.46H425.49L425.11 9.31001C426.87 6.71001 428.78 3.13 429.84 0.380005L442.74 4.43C442.43 5.12 441.67 5.35 440.45 5.35C439.61 6.57 438.46 8.02 437.24 9.47001H450.22V19.24H424.56V21.53H446.17V30.77H424.56V33.21H454.11V43.06H425.17C424.94 43.67 424.18 44.13 423.03 44.28L422.65 46.42H454.18V56.04H454.21Z" fill="white"/>
<path d="M525.6 2.83001C525.22 11.08 524.61 20.77 523.92 28.1H529.42V44.82H518.5V35.96H471.92V44.82H461.46V28.1H467.19L465.82 3.97001L471.17 4.96001C474.76 3.74001 478.88 2.06001 481.55 0.76001L487.35 7.63001C487.12 7.86001 486.66 7.94001 486.2 7.94001C485.89 7.94001 485.59 7.94001 485.28 7.79001C483.07 8.55001 479.55 9.70001 476.42 10.54L476.5 11.3H485.89V17.94H476.8L476.95 19.7H485.96V22.83C487.33 22.14 488.71 21.38 490.01 20.54C488.64 19.7 487.34 19.01 486.12 18.33L491.08 14.21C492.38 14.82 493.83 15.59 495.2 16.42C496.12 15.5 496.88 14.66 497.57 13.75L505.59 16.58V11.31H514.68L514.76 9.55001H505.29V3.74001C504.98 4.20001 504.45 4.35001 503.61 4.27001C502.85 5.19001 501.93 6.10001 500.94 7.02001C502.16 7.94001 503.31 8.78001 504.15 9.54001L498.96 14.04C498.12 13.2 496.9 12.21 495.52 11.21C493.61 12.43 491.63 13.58 489.72 14.49C488.57 13.19 486.13 11.05 484.6 9.99001C486.36 9.30001 488.11 8.39001 489.79 7.39001C488.49 6.63001 487.27 5.86001 486.12 5.25001L491.01 1.20001C492.31 1.81001 493.68 2.58001 495.13 3.34001C495.97 2.50001 496.73 1.66001 497.42 0.82001L505.28 3.57001V2.81001H525.59L525.6 2.83001ZM508.8 37.57L516.66 42.61C516.28 43.22 515.44 43.53 514.52 43.6C511.62 45.74 507.95 48.41 504.21 50.93H528.72V59.56H500.77V63.15C500.77 71.17 497.87 73.15 482.67 73.15C482.14 70.25 480.61 66.35 479.23 63.83C482.44 63.98 487.09 63.98 488.24 63.98C489.46 63.9 489.84 63.67 489.84 62.76V59.55H462.05V50.92H489.84V47.87L494.8 48.02C495.87 47.33 496.86 46.57 497.85 45.73H475.55V38.09H507.16L508.76 37.56L508.8 37.57ZM477.42 28.1H513.31L513.54 26.34H505.45V19.7H514.15L514.23 17.94H505.6V16.72C505.22 17.18 504.61 17.33 503.92 17.26C503.16 18.18 502.24 19.17 501.25 20.09C502.62 21.08 503.85 22.08 504.84 22.92L499.5 27.5C498.58 26.58 497.29 25.59 495.83 24.45C493.77 25.9 491.63 27.12 489.57 28.12C488.73 27.2 487.28 25.91 485.98 24.84V26.37H477.28L477.43 28.13L477.42 28.1Z" fill="white"/>
<path d="M83.7596 88.2499C83.4496 89.0099 82.7696 89.3999 81.4696 89.4699C80.7796 91.2999 79.9396 93.2899 79.0996 95.2699H103.3V158.11H91.4696V154.44H59.7796V158.11H48.5596V95.2699H66.6596C67.5796 92.0599 68.3396 88.5499 68.7196 85.5699L83.7596 88.2399V88.2499ZM91.4696 106.12H59.7796V111.77H91.4696V106.12ZM91.4696 122H59.7796V127.96H91.4696V122ZM59.7796 144.22H91.4696V138.19H59.7796V144.22Z" fill="white"/>
<path d="M148.66 111.15V108.48C142.48 122.76 132.32 133.07 119.65 138.49C118.43 135.82 115.15 131.01 113.01 129.02C117.67 127.26 121.87 124.97 125.61 122.15C123.78 120.55 121.56 118.79 119.65 117.57L126.22 111.54C128.05 112.61 130.42 114.21 132.33 115.66C132.79 115.05 133.25 114.44 133.78 113.83C131.87 112.38 129.43 110.93 127.44 109.86L132.56 103.29C134.32 104.05 136.38 105.2 138.21 106.34C138.97 104.74 139.58 103.13 140.2 101.38H131.27C128.22 106.19 124.55 110.77 120.43 114.21C118.6 112.07 114.93 108.71 112.79 107.03C119.51 101.84 124.93 92.5999 127.37 85.1899L139.66 88.6299C139.35 89.3199 138.59 89.7799 137.45 89.6999L136.53 91.8399H145.01L146.84 91.4599L153.86 94.7399C153.71 95.3499 153.25 95.8899 152.71 96.2699C152.33 97.7999 151.95 99.2499 151.49 100.7H157.83C158.14 96.2699 158.14 91.3099 158.21 85.7299L171.57 86.5699C171.42 87.4099 170.73 88.0199 169.28 88.2499C169.2 92.6799 169.05 96.7999 168.82 100.7H175.62C174.47 98.0999 172.26 94.5099 170.28 91.9199L178.45 87.5699C180.82 90.3199 183.57 94.2099 184.71 96.8899L177.84 100.71H183.41V111.17H169.97C172.87 119.26 177.76 125.68 185.85 128.88C183.41 131.09 180.05 135.6 178.52 138.65C171.72 135.21 167.14 129.87 163.94 123.07C160.5 129.79 154.7 135.06 144.77 138.87C143.55 135.97 140.49 131.69 138.05 129.55C149.5 125.5 154.31 119.78 156.45 111.15H148.66ZM132.93 141.77C131.33 147.73 128.2 154.06 124.68 158.26L113.91 153.98C117.12 150.77 120.4 144.74 122.08 139.17L132.92 141.77H132.93ZM137.43 157.35C137.43 153.53 136.9 147.12 136.06 142.23L146.37 141.01C147.36 145.74 148.28 151.93 148.36 155.75L137.44 157.35H137.43ZM154.61 157.43C154.23 153.61 152.62 147.35 151.02 142.54L161.48 140.78C163.31 145.36 165.15 151.39 165.76 155.29L154.61 157.43ZM174.61 158.19C173.08 153.99 169.19 147.19 165.98 142.15L176.67 138.87C179.95 143.6 184.15 150.09 186.06 154.45L174.61 158.19Z" fill="white"/>
<path d="M259.14 142.61H250.97C255.02 145.44 260.36 149.4 263.19 152.15L254.49 158.33C251.97 155.5 246.4 150.92 242.27 147.79L249.91 142.6H233.04L241.06 147.72C240.75 148.03 240.3 148.18 239.69 148.25C236.33 151.69 229.15 156.12 223.27 158.33C221.51 156.34 218.31 153.14 215.94 151.23C221.28 149.32 227.24 145.66 230.83 142.6H224.42V104.19L219.46 111.67C219 110.98 218.54 110.22 217.93 109.46V115.11H198.31V111.14C196.94 112.59 195.48 114.12 193.96 115.49C192.97 112.97 190.22 108.31 188.39 106.48C195.26 100.37 199.77 92.3501 202.29 85.5601L214.12 87.6201C213.89 88.3801 213.28 88.8401 212.06 88.9201V89.0001C216.49 92.8901 221.99 97.8601 224.89 101.6H234.82C235.05 100.3 235.28 98.9301 235.43 97.6301H221.76V88.3901H261.62V97.6301H247.04C246.66 98.8501 246.28 100.23 245.82 101.6H259.18V142.6L259.14 142.61ZM221.5 118.94V139.4C221.5 146.12 220.13 149.25 209.82 149.25C209.59 146.42 208.6 142.53 207.45 139.93C208.98 140.01 210.66 140.01 211.27 140.01C211.88 140.01 212.03 139.78 212.03 139.17V128.48H207.37V158.11H197.67V128.48H192.48V118.94H221.49H221.5ZM215.01 105.96C212.8 103.36 210.12 100.61 207.53 98.2501C206.16 100.77 204.48 103.37 202.57 105.96H215.02H215.01ZM248.53 112.98V109.54H234.48V112.98H248.53ZM248.53 123.75V120.31H234.48V123.75H248.53ZM248.53 134.59V131.15H234.48V134.59H248.53Z" fill="white"/>
<path d="M289.14 130.09L290.97 139.79C283.79 142.84 276.23 145.97 271.12 147.88C271.04 148.64 270.43 149.25 269.82 149.48L265.16 137.26C267.53 136.65 270.35 135.89 273.48 134.97V113.44H267.07V102.98H273.48V85.72L285.77 86.41C285.69 87.17 285.08 87.71 283.63 87.94V102.98H289.43V113.44H283.63V131.84L289.13 130.08L289.14 130.09ZM325.18 120.62C326.33 117.11 327.24 113.37 328.01 109.55L339.62 112.15C339.39 112.91 338.63 113.37 337.41 113.37C335.2 122.99 331.91 131.85 327.56 139.41C328.55 144.6 329.77 147.89 331 147.96C331.92 147.96 332.76 144.91 332.91 138.8C334.67 141.4 337.49 144.3 339.71 145.52C338.03 155.6 335.59 158.19 329.71 158.19C325.66 158.19 322.69 155.14 320.39 149.48C317.56 152.76 314.36 155.67 310.77 158.11C309.24 156.28 305.65 152.92 303.36 151.31C305.5 150.01 307.48 148.64 309.32 146.96V146.88C303.14 149.17 297.1 151.38 292.67 152.84C292.59 153.6 292.06 154.14 291.45 154.44L286.18 143.22C292.59 141.69 302.83 138.79 312.37 136.04L313.52 142.53C314.82 141 316.04 139.4 317.19 137.72C315.43 128.48 314.52 117.03 314.14 105.42H290.32V95.42H313.84C313.84 92.14 313.76 88.85 313.76 85.72L326.43 86.48C326.35 87.32 325.67 87.78 324.14 88.01C324.06 90.38 324.06 92.9 324.06 95.42H330.24C328.64 93.74 326.5 91.91 324.67 90.53L330.63 84.96C333.38 86.79 336.81 89.54 338.49 91.45L334.44 95.42H338.49V105.42H324.29C324.44 110.61 324.75 115.73 325.13 120.62H325.21H325.18ZM291.43 110.08H311.66V134.44H291.43V110.08ZM302.81 126.34V118.25H299.76V126.34H302.81Z" fill="white"/>
<path d="M397.86 137.8V146.73C399.16 146.88 400.46 146.88 401.83 146.88C404.43 146.88 412.29 146.88 415.65 146.73C414.35 149.02 413.05 153.75 412.67 156.58H401.37C392.74 156.58 385.72 154.98 380.68 147.11C379.15 151.46 377.17 155.28 374.57 158.18C372.89 156.5 369.15 153.75 366.86 152.45C368.69 150.54 370.14 148.1 371.29 145.2L365.03 147.41C364.57 144.66 363.5 140.92 362.43 137.41V158.18H352.96V134.51H352.73C352.2 140.62 350.9 147.95 348.99 152.61C347.08 151.31 343.57 149.78 341.35 148.94C343.03 144.74 343.87 137.56 344.25 131.23L352.95 133.22V128.18L345.16 128.64C345.01 129.4 344.32 129.79 343.71 129.86L341.73 119.02H347C347.99 117.72 348.98 116.42 349.98 115.05C347.92 111.69 344.56 107.72 341.73 104.67C343.56 102.15 345.32 99.63 347.07 97.11L348.29 98.33C350.28 94.21 352.18 89.55 353.33 85.73L363.87 89.93C363.41 90.62 362.5 90.85 361.58 90.77C359.82 94.89 356.77 100.39 354.17 104.59C354.7 105.2 355.16 105.89 355.62 106.5C358.06 102.53 360.28 98.48 361.96 94.97L370.97 99.09V94.43H386.09V85.73L399.83 86.49C399.75 87.33 399.14 87.86 397.54 88.09V94.43H413.19V109.17H402.5V104.05H381.12V109.17H370.96V100.31C370.58 100.39 370.2 100.46 369.74 100.46C367.45 104.28 364.4 108.71 361.11 113.06L367.14 110.54C370.04 115.81 372.87 122.6 373.71 127.11L365.46 130.78C365.31 129.71 365 128.57 364.7 127.27L362.41 127.42V133.22L369.13 131.08C370.35 134.21 371.65 138.03 372.57 141.31C374.02 136.12 374.78 130.01 375.17 123.67L386.62 125.27C386.47 125.96 385.86 126.42 384.71 126.49C384.48 129.62 384.1 132.75 383.56 135.73C384.55 138.33 385.7 140.31 387.07 141.91V120.45H374.32V110.68H410.13V120.45H397.84V128.16H409.52V137.78H397.84L397.86 137.8ZM361.82 118.79C361.21 117.34 360.6 115.96 359.99 114.67C358.84 116.12 357.78 117.5 356.63 118.87L361.82 118.79Z" fill="white"/>
<path d="M491.17 109.7H485.44C483.91 120.16 481.47 129.17 477.73 136.81C481.47 141.85 486.21 145.82 492.24 148.57C489.72 150.78 486.28 155.21 484.68 158.27C479.18 155.29 474.75 151.47 471.09 146.82C467.04 151.55 461.93 155.37 455.67 158.35C454.6 155.83 451.85 151.17 450.1 148.96C456.44 146.29 461.32 142.32 465.07 137.13C463.16 133.08 461.48 128.65 460.18 123.92C459.42 124.99 458.65 126.06 457.81 127.05C456.28 125.45 453.38 122.85 451.01 121.02C450.63 142.78 450.25 151.26 448.34 154C446.05 157.44 443.3 158.43 434.67 158.2C434.52 155.22 433.45 150.95 431.92 148.2C433.98 148.43 435.66 148.43 436.88 148.43C437.8 148.43 438.41 148.2 439.02 147.21C439.94 145.76 440.32 139.96 440.55 124H436.12C435.05 136.9 432.53 149.27 425.74 158.44C424.06 155.69 420.7 152.33 417.88 150.58C425.59 140.12 426.05 124.16 426.2 107.13H419.4V96.9H430.55V85.75L443.84 86.44C443.76 87.28 443.15 87.81 441.55 88.12V96.9H453.08V107.13H436.97L436.74 114H443.08L445.45 113.92L451.18 114.15C451.1 114.99 451.1 116.36 451.1 117.51C456.29 109.95 459.58 97.81 461.18 85.59L474.31 88.19C474.08 88.95 473.32 89.49 472.1 89.49C471.57 92.85 470.8 96.21 470.04 99.49H491.19V109.72L491.17 109.7ZM466.97 109.7L466.89 109.85C467.96 115.12 469.33 120.16 471.17 124.74C472.7 120.24 473.77 115.2 474.53 109.7H466.97Z" fill="white"/>
</svg>
