<svg width="789" height="123" viewBox="0 0 789 123" fill="none" xmlns="http://www.w3.org/2000/svg">
<path d="M11.4892 59.03C5.75923 55.835 2.74429 50.69 2.74429 45.455C2.74429 35.225 11.1743 28.685 21.8843 28.685C34.1543 28.685 39.9593 36.455 39.9593 44.225C39.9593 49.22 37.1843 54.695 30.8843 58.13V58.295C36.9293 61.07 41.9243 66.395 41.9243 74.075C41.9243 85.115 33.2543 92.39 20.9843 92.39C7.81425 92.39 0.779297 84.29 0.779297 75.455C0.779297 67.85 5.27923 62.375 11.4892 59.27V59.03ZM29.8043 75.065C29.8043 69.02 25.7092 65.165 20.3242 63.365C15.6592 65.09 12.8843 69.41 12.8843 74.33C12.8843 79.565 16.0793 84.14 21.3143 84.14C26.5493 84.14 29.8193 79.895 29.8193 75.065H29.8043ZM14.0993 44.885C14.0993 49.625 17.5342 52.895 22.3642 54.695C25.7992 53.3 28.6642 49.46 28.6642 45.29C28.6642 41.12 26.6243 36.785 21.4643 36.785C16.3043 36.785 14.0993 40.955 14.0993 44.885Z" fill="#FFE900"/>
<path d="M106.979 56.015H84.014C87.794 69.26 95.204 79.295 108.389 83.72C106.529 85.385 104.039 88.835 102.824 91.07C90.5389 86.27 83.249 77.45 78.584 65.105C75.059 75.59 68.159 84.995 54.209 91.145C53.054 88.97 50.759 86.15 48.584 84.425C64.199 78.095 70.2139 67.73 72.4489 56.015H49.799V48.08H73.529C73.979 42.38 73.919 36.56 73.979 30.8L84.1489 31.445C84.0289 32.15 83.4439 32.6 82.3639 32.795C82.3039 37.715 82.244 42.905 81.794 48.08H106.994V56.015H106.979Z" fill="#FFE900"/>
<path d="M135.69 58.52L136.455 65.105C134.145 65.87 131.85 66.635 129.54 67.34V82.82C129.54 89.735 126.915 91.01 116.94 91.01C116.685 89.09 115.725 85.955 114.765 83.975C117.255 84.11 119.94 84.11 120.78 84.11C121.68 84.05 121.995 83.795 121.995 82.895V69.65L116.295 71.375C116.235 72.02 115.725 72.395 115.2 72.53L112.83 63.83C115.32 63.32 118.455 62.615 121.98 61.79V49.82H113.79V42.725H121.98V30.83L131.25 31.22C131.19 31.925 130.74 32.3 129.525 32.495V42.725H135.915V49.82H129.525V59.99L135.66 58.52H135.69ZM145.92 48.155C145.92 50.585 146.565 50.9 150.525 50.9H162.3C165.63 50.9 166.2 49.88 166.65 43.55C168.255 44.645 171.45 45.86 173.565 46.235C172.605 55.385 170.37 57.755 162.945 57.755H149.835C140.745 57.755 138.315 55.58 138.315 48.23V30.77L147.66 31.28C147.6 31.85 147.09 32.3 145.935 32.435V39.275C152.52 37.67 159.24 35.57 163.59 33.515L169.545 39.335C169.29 39.59 168.78 39.59 167.94 39.59C162.315 41.9 153.735 44 145.935 45.545V48.17L145.92 48.155ZM139.335 91.145V61.52H169.53V90.755H161.91V88.58H146.55V91.145H139.32H139.335ZM161.91 67.985H146.55V71.945H161.91V67.985ZM146.55 82.19H161.91V78.035H146.55V82.19Z" fill="#FFE900"/>
<path d="M194.353 54.23C196.138 56.72 200.938 64.205 201.973 66.005L198.013 71.51C197.248 69.47 195.778 66.455 194.368 63.575V91.085H187.393V66.77C185.728 71.825 183.748 76.37 181.513 79.625C180.808 77.51 179.203 74.57 178.123 72.845C181.768 67.79 185.158 58.895 186.823 51.215H179.593V44.12H187.393V30.755L196.033 31.265C195.973 31.835 195.523 32.225 194.368 32.42V44.12H200.758V51.215H194.368V54.215L194.353 54.23ZM214.123 79.685C213.988 80.075 213.478 80.255 212.773 80.195C210.598 83.27 206.818 87.17 203.233 89.66C202.153 88.19 200.098 86.21 198.493 84.995C201.883 82.82 205.408 79.175 207.448 76.04L214.108 79.685H214.123ZM238.948 75.53H223.468V84.365C223.468 90.44 220.843 91.205 212.713 91.205C212.458 89.285 211.498 86.795 210.658 84.995C211.873 85.055 213.088 85.115 214.048 85.115C216.223 85.115 216.358 84.995 216.358 84.29V75.53H200.998V69.395H238.933V75.53H238.948ZM212.143 42.515V39.515H201.328V33.44H238.813V39.515H227.548V42.515H237.148V58.955H203.173V42.515H212.128H212.143ZM235.498 66.83H205.183V61.265H235.498V66.83ZM209.458 48.08V53.39H212.848V48.08H209.458ZM221.608 48.08H218.023V53.39H221.608V48.08ZM221.608 42.515V39.515H218.083V42.515H221.608ZM233.698 89.66C232.093 86.975 228.448 82.745 225.448 79.745L230.878 76.16C233.953 78.98 237.718 82.88 239.443 85.625L233.683 89.66H233.698ZM230.563 53.39V48.08H226.783V53.39H230.563Z" fill="#FFE900"/>
<path d="M313.979 53.1349L317.759 53.3299C317.759 53.8999 317.699 54.7999 317.699 55.5649C317.189 77.9599 316.679 85.7599 315.074 88.1899C313.799 89.9749 312.329 91.1299 306.944 91.1299C306.179 91.1299 305.414 91.1299 304.634 91.0699C304.574 89.6599 304.184 87.7399 303.539 86.1499L302.519 86.5999C302.399 86.0899 302.264 85.5049 302.069 84.9349C294.704 85.6999 287.294 86.3449 282.494 86.7199C282.374 87.2899 281.924 87.5449 281.414 87.6199L279.689 80.6449C282.824 80.5849 286.859 80.4499 291.269 80.2549V76.1599H282.254V66.4399L281.609 67.0099C280.709 65.7349 278.789 63.4249 277.379 62.0899C277.439 63.3049 277.439 64.5799 277.439 65.8699C277.439 77.0599 276.989 89.1499 270.089 90.5599C267.779 91.1299 265.229 91.2049 262.544 91.0699C262.544 88.6399 261.974 85.8949 260.684 83.7199C262.154 83.8399 263.429 83.8399 264.464 83.8399C266.699 83.8399 267.659 83.7799 268.499 82.6849C269.714 81.0799 270.224 74.7499 270.284 67.5949C267.974 70.5949 265.484 73.3549 263.114 75.3949C261.959 73.5349 259.859 71.0449 258.119 69.6349C262.334 66.8149 267.014 61.5799 269.819 56.5849C269.564 54.4099 269.114 52.2949 268.544 50.2549C266.879 51.9199 265.154 53.5099 263.429 54.9199C262.214 53.3899 259.844 51.1399 258.239 49.9249C260.729 48.0649 263.234 45.6349 265.529 43.0099C263.924 40.3249 261.824 37.6399 259.064 35.0749L264.374 31.0399C266.609 33.0799 268.469 35.1349 269.999 37.1749C271.274 35.2549 272.429 33.2749 273.389 31.3549L280.934 34.9999V33.0799H316.949V49.2649H292.634L294.494 49.8349C294.299 50.4049 293.729 50.5999 292.829 50.5399C292.439 51.4399 292.064 52.2649 291.614 53.1649H312.464L313.934 53.1049L313.979 53.1349ZM280.964 49.2949V35.2849C280.649 35.6749 280.139 35.7949 279.494 35.7349C278.024 38.4199 276.104 41.2999 273.929 44.0449C276.359 49.5499 277.124 55.2349 277.379 61.2499C280.574 58.4299 283.589 53.8999 285.569 49.2799H280.964V49.2949ZM291.269 59.4649H288.014C287.189 60.7399 286.229 62.0299 285.269 63.1699H291.284V59.4649H291.269ZM287.429 38.7349V43.5949H291.134V38.7349H287.429ZM287.744 71.6149H291.269V67.6549H287.744V71.6149ZM296.834 38.7349V43.5949H300.674V38.7349H296.834ZM306.359 84.8599C307.829 84.8599 308.219 84.8599 308.924 83.8399C309.884 82.4299 310.394 76.4149 310.709 59.4649H298.559C298.424 59.9149 297.989 60.2299 297.089 60.3649V63.1849H306.614V76.1749H304.244C305.714 78.7999 307.064 81.9949 307.634 84.3049L306.359 84.8749V84.8599ZM297.089 67.6549V71.6149H300.794V67.6549H297.089ZM297.089 79.9399L300.089 79.8199C299.699 78.9949 299.324 78.2149 298.934 77.5099L302.129 76.1599H297.074V79.9399H297.089ZM306.299 38.7349V43.5949H310.259V38.7349H306.299Z" fill="#FFE900"/>
<path d="M362.863 54.485C363.823 57.365 364.978 60.05 366.313 62.615C369.568 60.44 373.093 57.815 375.463 55.58L382.183 61.655C381.928 61.91 381.418 62.045 380.908 62.045C380.713 62.045 380.458 62.045 380.203 61.985C377.713 63.845 373.618 66.395 370.093 68.375C373.933 73.295 378.853 77.135 385.063 79.445C383.338 80.975 381.028 83.99 379.873 86.105C367.843 80.795 360.748 70.055 356.518 56.165C354.793 57.38 352.933 58.475 350.953 59.555C359.203 65.375 362.533 72.86 362.533 78.995C362.533 86.345 357.868 91.28 350.503 91.28C348.973 91.28 347.173 91.22 345.388 91.16C345.268 89.12 344.683 86.105 343.348 83.87C345.523 84.125 347.443 84.185 348.973 84.185C350.503 84.185 351.853 83.99 352.813 82.97C354.028 82.145 354.733 80.405 354.733 78.17C354.733 77.405 354.673 76.565 354.478 75.74C347.443 81.11 337.723 86.165 329.398 88.985C328.498 87.125 326.908 84.32 325.363 82.655C334.513 80.345 345.388 75.035 351.718 69.725C351.328 69.155 350.893 68.57 350.368 68C344.938 71.585 337.318 75.23 331.303 77.405C330.478 75.68 328.873 73.055 327.463 71.585C333.478 70.115 341.218 67.04 346.213 63.98C345.643 63.53 344.998 63.08 344.353 62.63C340.063 64.415 335.458 65.9 331.048 66.98C330.283 65.51 328.558 62.63 327.463 61.22C334.303 59.81 341.533 57.515 347.353 54.5H337.048V47.975H371.338V54.5H362.833L362.863 54.485ZM334.708 44.06V51.545H327.223V37.085H350.248V30.755L359.908 31.265C359.848 31.91 359.398 32.285 358.183 32.48V37.085H381.718V51.545H373.843V44.06H334.693H334.708Z" fill="#FFE900"/>
<path d="M423.63 72.785V82.445C425.94 82.7 428.43 82.835 430.98 82.835C434.43 82.835 445.11 82.8349 449.475 82.6399C448.32 84.4999 447.105 88.145 446.73 90.44H430.605C418.575 90.44 409.755 88.4599 403.86 79.1749C401.745 84.1699 398.865 88.385 395.025 91.4C393.75 89.99 390.87 87.4999 389.145 86.3449C395.865 81.5449 399.12 72.2 400.275 61.145L409.545 62.495C409.35 63.065 408.84 63.455 407.94 63.515C407.625 65.75 407.235 67.865 406.785 69.98C408.705 75.23 411.78 78.365 415.62 80.21V57.5H402.435V50.21H436.665V57.5H423.615V65.5549H441.329V72.785H423.615H423.63ZM399.96 44.9V53.795H392.415V37.67H415.515V30.6349L425.49 31.205C425.43 31.85 424.919 32.225 423.704 32.42V37.67H446.925V53.795H438.99V44.9H399.96Z" fill="#FFE900"/>
<path d="M504.299 73.22L510.884 75.71C510.629 76.16 510.059 76.475 509.219 76.355C507.359 78.47 505.124 80.45 502.559 82.235C504.029 83.39 505.634 84.095 507.299 84.095C508.964 84.095 509.414 83 509.729 79.295C511.199 80.57 513.374 81.785 515.159 82.295C514.064 89.585 511.964 91.13 506.849 91.13C502.694 91.07 498.974 89.21 495.914 86.075C491.759 88.055 487.214 89.72 482.609 90.875C481.904 89.405 480.239 86.525 479.159 85.175C483.569 84.215 488.114 82.805 492.089 80.96C490.814 78.725 489.659 76.1 488.759 73.22H476.159V75.785L485.819 75.275V80.39L476.159 81.155V84.425C476.159 90.05 474.239 91.145 462.404 91.145C462.014 89.36 461.129 86.93 460.229 85.265C461.639 85.325 463.229 85.4 464.579 85.4C468.809 85.4 468.809 85.34 468.809 84.245V81.755C465.164 82.01 461.774 82.265 459.089 82.4C458.969 82.91 458.519 83.225 458.009 83.36L455.834 76.7C459.359 76.565 463.889 76.385 468.824 76.13V73.25H456.029V67.625H468.824V65.135C465.434 65.45 461.984 65.645 458.714 65.78C458.519 64.43 457.814 62.45 457.184 61.175C464.609 60.725 472.979 59.825 478.679 58.685H455.399V52.865H480.854V50.495H462.494V45.185H480.854V42.815H459.104V37.115H470.684C469.979 35.705 469.019 34.235 468.059 33.02L474.779 30.845C476.444 32.57 478.034 35.06 478.739 36.86L478.034 37.115H491.909L491.339 36.92C492.494 35.06 493.904 32.51 494.594 30.65L503.609 33.14C503.414 33.65 502.844 33.845 501.944 33.845C501.299 34.805 500.339 36.02 499.454 37.1H510.839V42.8H488.774V45.17H507.524V50.48H488.774V52.85H514.814V58.67H481.094L485.444 62.885C485.189 63.08 485.054 63.08 483.974 63.08C481.799 63.53 479.114 63.98 476.174 64.355V67.61H487.304C486.794 64.925 486.479 62.105 486.284 59.225L495.629 59.54C495.629 60.185 495.119 60.635 493.904 60.755C493.964 63.065 494.294 65.42 494.804 67.595H504.854C502.619 65.93 499.484 64.145 496.859 62.99L501.149 58.7C504.599 60.11 508.949 62.48 511.199 64.4L508.064 67.595H514.139V73.22H504.359H504.299ZM496.499 73.22C497.069 74.75 497.774 76.16 498.539 77.375C500.399 76.1 501.929 74.75 503.204 73.22H496.484H496.499Z" fill="#FFE900"/>
<path d="M584.204 60.815H569.099V68.24H587.144V74.96H569.099V82.7H592.964V89.54H538.019V82.7H561.044V74.96H543.194V68.24H561.044V60.815H546.464V55.7C544.154 57.305 541.724 58.835 539.294 60.185C538.274 58.4 536.159 55.58 534.494 54.05C545.564 48.425 556.184 38.375 560.909 30.38L571.139 30.95C570.944 31.655 570.374 32.105 569.474 32.225C575.684 40.61 586.619 48.92 596.279 53.075C594.299 54.995 592.574 57.68 591.164 59.99C588.854 58.715 586.499 57.245 584.189 55.7V60.815H584.204ZM581.894 54.035C575.114 49.115 568.784 43.295 565.004 38.045C561.419 43.22 555.539 48.98 548.759 54.035H581.894Z" fill="#FFE900"/>
<path d="M619.829 69.71V70.67C621.869 71.885 627.764 76.175 629.234 77.33L624.884 82.835C623.729 81.56 621.809 79.6401 619.829 77.7801V91.145H612.404V78.8601C609.974 82.1901 607.289 85.19 604.604 87.245C603.449 85.58 601.214 83.09 599.609 81.8C603.839 79.115 608.249 74.375 611.189 69.71H601.274V63.245H612.404V58.58H600.509V52.25H606.839C606.449 49.94 605.684 47.135 604.664 44.9L608.819 43.685H601.784V37.415H612.404V30.83L621.494 31.28C621.434 31.925 620.984 32.3 619.829 32.495V37.415H630.254V43.685H623.864L629.039 45.035C628.844 45.485 628.334 45.74 627.434 45.8C626.729 47.72 625.574 50.15 624.434 52.265H631.604V58.5951H621.239C620.984 58.8501 620.534 59.105 619.829 59.165V63.26H630.644V69.725H619.829V69.71ZM617.909 52.175C618.869 49.805 620.024 46.355 620.729 43.67H610.814C612.029 46.415 612.989 49.7451 613.304 52.1151L612.914 52.25H618.104L617.909 52.19V52.175ZM660.704 52.1151V59.21H654.494V91.13H647.009V59.21H640.619C640.619 68.675 639.209 82.43 630.569 91.265C629.609 89.6 626.924 86.975 625.124 86.015C632.609 78.215 633.314 67.4 633.314 58.76V36.695L637.274 37.85C643.154 35.93 649.244 33.365 652.889 30.875L660.119 36.38C659.729 36.77 659.099 36.77 658.334 36.77C653.849 39.14 647.144 41.57 640.619 43.43V52.13H660.704V52.1151Z" fill="#FFE900"/>
<path d="M718.035 72.65L723.6 76.61C723.405 76.925 722.955 77.06 722.445 77.06C722.25 77.06 721.995 77.06 721.8 77C720.015 78.08 717.255 79.685 714.705 80.96C717.84 82.745 721.62 84.095 725.895 84.86C724.29 86.33 722.31 89.21 721.35 91.19C714.12 89.33 708.615 86.135 704.4 81.59L704.655 86.135C696.78 87.605 688.665 89.015 683.355 89.84C683.295 90.485 682.785 90.8 682.335 90.935L679.515 83.195C681.435 83 683.61 82.745 686.04 82.43V72.635H679.005V67.265H678.945C678.045 75.77 676.125 84.725 671.91 91.325C670.38 90.11 666.99 88.055 665.07 87.365C671.475 77.45 671.985 62.93 671.985 52.625V33.56H721.56V50.96H714.525C714.27 51.35 713.82 51.53 712.995 51.665V55.19H722.01V61.655H712.995V66.2H725.085V72.665H718.05L718.035 72.65ZM679.71 50.96C679.71 54.995 679.71 59.915 679.14 66.185H689.19V61.64H681.06V55.175H689.19V50.96H679.725H679.71ZM713.805 40.025H679.71V44.435H713.805V40.025ZM693.075 72.65V81.605C696.405 81.155 699.795 80.705 703.245 80.195C701.385 77.96 699.855 75.455 698.58 72.65H693.075ZM705.87 55.19V50.975H697.74C697.485 51.29 697.035 51.545 696.21 51.68V55.205H705.87V55.19ZM705.87 66.2V61.655H696.21V66.2H705.87ZM705.93 72.665C706.95 74.27 708.105 75.8 709.515 77.15C711.825 75.74 714.315 74.075 716.175 72.665H705.945H705.93Z" fill="#FFE900"/>
<path d="M758.834 56.075H741.434V91.13H733.949V33.23H758.834V56.075ZM751.604 38.735H741.434V42.005H751.604V38.735ZM741.434 50.57H751.604V46.985H741.434V50.57ZM777.644 76.61H770.474V89.975H763.754V76.61H757.424C756.659 80.705 754.424 86.915 749.234 90.425C748.214 89.075 745.844 86.975 744.374 85.94C748.274 83.375 750.134 79.67 750.839 76.595H744.449V70.325H751.229V65.465H745.409V59.39H776.564V65.465H770.489V70.325H777.659V76.595L777.644 76.61ZM757.754 70.34H763.769V65.48H757.754V70.34ZM788.399 33.23V82.175C788.399 89.525 785.654 90.935 774.779 90.935C774.524 88.82 773.504 85.31 772.469 83.315C774.134 83.375 775.919 83.435 777.329 83.435C780.524 83.435 780.854 83.435 780.854 82.085V56.18H763.064V33.215H788.399V33.23ZM780.854 38.735H770.369V42.005H780.854V38.735ZM770.369 50.705H780.854V47H770.369V50.705Z" fill="#FFE900"/>
<path d="M0.239258 1.05493H787.739" stroke="#FFE900" stroke-width="1.5" stroke-miterlimit="10"/>
<path d="M0.239258 121.805H787.739" stroke="#FFE900" stroke-width="1.5" stroke-miterlimit="10"/>
</svg>
