<svg width="802" height="76" viewBox="0 0 802 76" fill="none" xmlns="http://www.w3.org/2000/svg">
<path d="M42.675 18.12C42.42 18.525 41.85 18.735 41.025 18.69C39.99 19.92 38.595 21.375 37.215 22.665H47.625V29.415H0.285034V22.665H11.115C9.97504 21.06 8.43003 19.26 7.03503 17.865L13.995 14.925C16.155 16.83 18.69 19.62 19.875 21.735L17.655 22.665H30.81L28.485 21.69C30.345 19.785 32.565 16.995 33.855 14.775L42.675 18.12ZM23.445 32.355V57.255C23.445 62.52 21.48 64.17 13.65 64.17C13.29 62.31 12.255 59.535 11.325 57.885C12.195 57.93 13.23 57.99 14.055 57.99C16.02 57.99 16.215 57.99 16.215 57.165V53.91H10.44V63.96H3.37503V32.355H23.43H23.445ZM16.23 38.595H10.455V40.755H16.23V38.595ZM10.455 48.495H16.23V46.17H10.455V48.495ZM35.16 33.39C35.115 33.96 34.695 34.26 33.66 34.47V54.06H26.55V32.925L35.16 33.39ZM44.34 56.385C44.34 61.335 43.305 64.275 32.685 64.125C32.325 62.115 31.14 58.965 30.06 57.06C31.56 57.165 33.15 57.21 34.335 57.21C36.705 57.21 36.96 57.21 36.96 56.28V31.575L45.885 31.935C45.78 32.505 45.42 32.91 44.34 33.075V56.385Z" fill="white"/>
<path d="M100.005 29.67H93.045C93.045 30.285 93.045 30.6 93.15 30.81C93.195 30.96 93.36 31.02 93.615 31.02C95.055 31.02 95.22 31.02 95.415 29.775C96.45 30.345 98.565 30.915 99.96 31.11C99.54 33.795 98.31 34.665 95.37 34.665H92.535C87.9 34.665 87.12 33.48 87.12 29.67H85.365C84.795 31.785 83.925 33.84 81.555 35.55H95.64V39.27H79.14V36.945L78 37.41C77.745 36.735 77.175 35.91 76.56 35.145V37.98C76.56 38.76 76.56 39.525 76.515 40.35H100.035V44.16H76.32C75.75 51.12 73.95 58.965 69.15 64.275C67.965 63.195 65.07 61.335 63.48 60.615C69.405 54.165 69.975 44.73 69.975 37.92V33.9C69.255 32.865 68.115 31.53 66.99 30.45V55.2H58.845V59.64H52.605V17.4H66.99V27.81C71.265 23.94 74.1 19.2 75.66 15.015L83.595 16.305C83.49 16.815 83.025 17.175 82.26 17.175L81.855 18.105H88.815L89.85 17.745L95.16 20.94C94.95 21.36 94.485 21.555 93.915 21.66C93.405 22.44 92.73 23.415 92.01 24.39H100.05V29.655L100.005 29.67ZM60.615 23.685H58.815V27.915H60.615V23.685ZM58.815 34.005V38.385H60.615V34.005H58.815ZM58.815 48.855H60.615V44.475H58.815V48.855ZM76.56 29.67V32.97C78.315 32.1 79.185 31.005 79.71 29.67H76.56ZM76.875 64.065V54.735H97.755V64.065H91.11V63.39H83.22V64.065H76.875ZM96.735 45.24V48.96H78.12V45.24H96.735ZM78.12 53.7V49.98H96.735V53.7H78.12ZM84.465 24.405C84.72 23.94 85.035 23.43 85.29 22.905H79.365L78.435 24.405H84.465ZM91.11 58.44H83.22V59.67H91.11V58.44Z" fill="white"/>
<path d="M150.54 42.57H134.76C139.095 47.625 145.485 52.365 151.98 55.155C150.12 56.7 147.6 59.79 146.31 61.86C140.745 58.875 135.435 54.33 131.04 49.125V64.035H123.045V49.8C118.665 54.855 113.355 59.235 107.775 62.235C106.53 60.27 103.965 57.24 102.21 55.635C108.81 52.755 115.41 47.79 119.685 42.585H103.86V35.16H123.045V29.85H107.835V22.425H123.045V15.045L132.63 15.555C132.585 16.125 132.12 16.485 131.025 16.695V22.425H146.595V29.85H131.025V35.16H150.525V42.585L150.54 42.57Z" fill="white"/>
<path d="M183.9 41.685C188.43 47.415 195.66 52.515 203.385 55.305C201.525 56.91 199.05 60.105 197.82 62.22C192.045 59.535 186.78 55.41 182.4 50.52V64.035H174.465V50.985C170.13 55.785 164.925 59.745 159.15 62.385C157.965 60.48 155.535 57.435 153.84 55.89C162.3 52.695 170.085 46.665 174.465 39.96V28.41H165.075L172.455 30.165C172.245 30.63 171.78 30.945 171.015 30.885C170.655 32.175 170.19 33.51 169.68 34.755C171.435 36.195 173.19 37.695 174.27 38.775L169.32 44.085C168.645 43.26 167.625 42.225 166.485 41.145C164.835 43.665 162.93 45.885 160.755 47.595C159.57 46.305 156.99 44.04 155.445 42.96C159.675 39.975 162.765 34.395 164.16 28.425H156.27V21.105H174.48V15.075L184.02 15.585C183.975 16.155 183.555 16.515 182.415 16.725V21.105H201.285V28.425H189.315L196.59 30.12C196.44 30.585 195.915 30.84 195.255 30.84C194.895 32.13 194.43 33.42 193.92 34.71C196.755 36.825 200.16 39.3 202.02 40.95L196.86 46.11C195.525 44.715 193.14 42.705 190.77 40.8C189.9 42.09 188.91 43.275 187.875 44.31C186.9 43.53 185.355 42.51 183.9 41.685ZM182.4 28.38V39.57L182.61 39.885C185.4 37.095 187.41 32.775 188.385 28.38H182.4Z" fill="white"/>
<path d="M256.095 1.39497V13.305H235.56L234.405 23.16C235.395 23.085 236.295 22.995 237.285 22.995C246.975 22.995 258.225 28.335 258.225 42.615C258.225 54.435 249.105 64.71 233.505 64.71C227.265 64.71 221.52 63.225 218.475 61.665L221.025 50.745C223.65 51.975 227.925 53.37 232.515 53.37C238.35 53.37 243.69 49.92 243.69 43.68C243.69 36.705 238.11 33.255 228.165 33.255C225.615 33.255 223.65 33.345 221.67 33.66L225.285 1.38H256.08L256.095 1.39497Z" fill="#FFFF00"/>
<path d="M284.595 47.625C281.475 56.985 277.365 66.765 272.685 74.4L263.235 75.3C266.28 66.675 268.74 56.985 270.045 48.615L284.58 47.625H284.595Z" fill="#FFFF00"/>
<path d="M289.68 32.76C289.68 15.18 296.175 0.480011 311.115 0.480011C327.21 0.480011 332.055 16.815 332.055 32.34C332.055 52.71 324.165 64.695 310.86 64.695C294.93 64.695 289.68 48.435 289.68 32.745V32.76ZM317.595 32.595C317.595 19.215 315.54 11.985 311.025 11.985C306.75 11.985 304.125 18.39 304.125 32.595C304.125 46.8 306.51 53.205 311.025 53.205C314.475 53.205 317.595 49.59 317.595 32.595Z" fill="#FFFF00"/>
<path d="M337.395 32.76C337.395 15.18 343.89 0.480011 358.83 0.480011C374.925 0.480011 379.77 16.815 379.77 32.34C379.77 52.71 371.88 64.695 358.575 64.695C342.645 64.695 337.395 48.435 337.395 32.745V32.76ZM365.31 32.595C365.31 19.215 363.255 11.985 358.74 11.985C354.465 11.985 351.84 18.39 351.84 32.595C351.84 46.8 354.225 53.205 358.74 53.205C362.19 53.205 365.31 49.59 365.31 32.595Z" fill="#FFFF00"/>
<path d="M385.11 32.76C385.11 15.18 391.605 0.480011 406.545 0.480011C422.64 0.480011 427.485 16.815 427.485 32.34C427.485 52.71 419.595 64.695 406.29 64.695C390.36 64.695 385.11 48.435 385.11 32.745V32.76ZM413.025 32.595C413.025 19.215 410.97 11.985 406.455 11.985C402.18 11.985 399.555 18.39 399.555 32.595C399.555 46.8 401.94 53.205 406.455 53.205C409.905 53.205 413.025 49.59 413.025 32.595Z" fill="#FFFF00"/>
<path d="M449.22 17.91C449.01 18.375 448.5 18.63 447.675 18.525C446.535 21.57 445.2 24.615 443.805 27.555L445.815 28.23C445.665 28.695 445.2 29.16 444.27 29.265V64.17H436.995V39.36C435.915 40.86 434.835 42.3 433.695 43.59C433.08 41.79 431.37 37.71 430.395 35.91C434.475 31.32 438.645 23.07 441.12 15.135L449.22 17.925V17.91ZM475.005 50.805C477.435 53.43 480.21 56.985 481.29 59.625L475.365 62.97C474.9 61.74 474.075 60.24 473.1 58.695C472.32 62.82 470.58 63.96 466.815 63.96H461.82C454.8 63.96 454.65 61.335 454.65 55.56C453.615 58.185 452.175 60.93 450.21 62.94L444.9 59.13C446.955 57.27 448.71 54.285 449.64 51.495L454.635 53.61V51.495L460.725 51.855C460.11 51.285 459.435 50.715 458.76 50.25L459.585 49.575H450V34.215H477.375V49.575H466.905C467.88 50.4 468.705 51.27 469.275 52.005L464.535 55.815C463.965 54.945 462.99 53.91 461.91 52.875C461.76 52.875 461.595 52.92 461.4 52.98V56.79C461.4 58.125 461.61 58.23 462.9 58.23H466.05C467.13 58.23 467.385 57.825 467.55 55.08C468.48 55.8 470.385 56.52 471.99 56.985C471.165 55.905 470.34 54.825 469.515 53.835L475.035 50.79L475.005 50.805ZM448.29 18.885H459.63V15.375L468.705 15.84C468.66 16.455 468.195 16.77 467.16 16.98V18.885H479.175V24.3H475.725L476.235 24.45C476.025 24.855 475.56 25.065 474.795 25.065L473.76 26.925H480.57V32.655H446.43V26.925H453.39C453.075 26.055 452.67 25.065 452.31 24.3H448.29V18.885ZM457.05 38.535V39.975H469.935V38.535H457.05ZM457.05 43.74V45.24H469.935V43.74H457.05ZM459.21 24.3C459.615 25.17 460.035 26.1 460.35 26.925H466.635C466.995 26.1 467.31 25.17 467.61 24.3H459.21Z" fill="white"/>
<path d="M483.93 30.705H531.27V35.91H483.93V30.705ZM511.155 56.175V57.42H531.27V62.79H483.93V57.42H503.88V56.175H488.775V51.54H503.88V50.46H490.11V37.05H524.925V50.46H511.155V51.54H526.425V56.175H511.155ZM524.1 16.575V29.46H491.04V16.575H524.1ZM497.13 40.815V42H503.88V40.815H497.13ZM497.13 46.695H503.88V45.51H497.13V46.695ZM516.525 21.33V20.19H498.27V21.33H516.525ZM516.525 25.875V24.735H498.27V25.875H516.525ZM517.56 42.015V40.83H511.17V42.015H517.56ZM517.56 46.71V45.525H511.17V46.71H517.56Z" fill="white"/>
<path d="M569.775 38.64C563.43 38.64 561.675 36.78 561.48 31.065L554.88 33.795C554.73 33.075 554.475 32.25 554.16 31.365C547.875 31.935 541.635 32.4 537.405 32.655C537.3 33.165 536.835 33.48 536.37 33.525L534.255 25.53C535.44 25.53 536.775 25.485 538.23 25.485C539.67 22.14 541.11 18.015 541.95 14.655L550.515 16.875C550.305 17.34 549.735 17.595 548.91 17.655C548.13 20.025 547.005 22.815 545.82 25.29L551.385 25.14C550.71 23.85 549.99 22.56 549.27 21.375L555.72 18.795C557.985 22.095 560.355 26.37 561.495 29.73V15.285L570.525 15.75C570.48 16.32 570.06 16.68 568.98 16.89V21.84C571.86 20.61 574.65 19.215 576.765 17.925L581.67 23.55C581.52 23.7 580.95 23.865 580.38 23.76C577.395 25.305 573.105 26.805 568.98 28.035V29.895C568.98 31.8 569.235 32.01 570.945 32.01H575.175C576.675 32.01 576.975 31.29 577.185 27.06C578.685 28.2 581.775 29.385 583.785 29.79C583.005 36.705 581.055 38.655 575.895 38.655H569.805L569.775 38.64ZM558.015 34.56V56.835C558.015 61.995 556.32 64.005 548.22 64.005C547.905 62.04 546.825 59.16 545.895 57.405C546.72 57.45 547.755 57.51 548.52 57.51C550.38 57.51 550.575 57.51 550.575 56.73V55.335H544.695V64.005H537.78V34.56H558H558.015ZM550.59 40.65H544.71V42.405H550.59V40.65ZM544.71 49.875H550.59V47.865H544.71V49.875ZM568.89 55.035C568.89 57 569.205 57.195 570.96 57.195H575.34C576.945 57.195 577.245 56.265 577.5 51.315C579.045 52.455 582.045 53.58 584.055 54.045C583.275 61.515 581.37 63.69 576.06 63.69H569.775C563.13 63.69 561.48 61.575 561.48 55.08V39.45L570.45 39.915C570.405 40.485 569.985 40.845 568.905 41.055V45.6C571.95 44.265 574.83 42.66 577.005 41.22L582.165 46.95C581.805 47.205 581.295 47.205 580.77 47.205C577.62 48.855 573.24 50.55 568.905 52.005V55.05L568.89 55.035Z" fill="white"/>
<path d="M625.47 16.515H636.81C638.505 20.49 642.27 24.3 646.86 26.31C645.57 28.005 643.605 31.41 642.69 33.63L641.865 33.12V43.275H614.94V33.27L614.07 33.84C613.755 32.865 613.095 31.155 612.375 29.61V34.56H608.655V46.065L612.885 45.135L613.71 51.735C608.76 53.34 603.555 54.885 600.09 55.86C600.045 56.43 599.625 56.79 599.16 56.895L596.325 48.585C597.765 48.33 599.475 48.015 601.38 47.61V34.56H597.255V27.495H601.38V15.735L610.14 16.2C610.095 16.77 609.675 17.13 608.64 17.28V27.495H611.325L611.01 26.925C614.1 25.17 617.04 21.87 618.585 18.36L625.44 20.79V16.515H625.47ZM617.115 64.11V44.46H639.75V63.9H632.28V62.61H624.24V64.11H617.13H617.115ZM624.435 31.83C624.9 32.805 625.305 34.05 625.62 35.13V31.215H620.625V32.865L624.435 31.83ZM621.705 37.56C621.495 36.48 621.09 34.83 620.625 33.48V38.025H625.62V36.33L621.705 37.575V37.56ZM625.47 22.095V21.69C625.32 21.735 625.11 21.735 624.9 21.69C624.12 23.13 623.25 24.585 622.215 25.965H634.23C633.255 24.675 632.37 23.385 631.605 22.095H625.47ZM632.28 49.89H624.24V51.18H632.28V49.89ZM624.24 57.21H632.28V55.92H624.24V57.21ZM635.835 32.865V31.215H630.78V35.655C631.185 34.365 631.65 32.865 631.86 31.785L635.835 32.865ZM630.78 38.025H635.835V34.41C635.37 35.385 634.755 36.63 634.185 37.5C633.045 37.095 631.965 36.72 630.78 36.315V38.01V38.025Z" fill="white"/>
<path d="M697.395 57.105V63.345H662.325V57.105H666.555V28.59H675.48C675.69 27.72 675.84 26.73 675.945 25.755H664.65V19.56C663.51 22.5 662.13 25.545 660.63 28.485V63.96H653.715V39.42C653.04 40.29 652.38 41.115 651.705 41.85C651.09 39.99 649.125 35.82 647.94 33.96C652.17 29.415 656.235 22.35 658.62 15.24L665.43 17.46C665.22 18.135 664.965 18.75 664.71 19.425H676.725C676.875 17.925 676.98 16.485 677.04 15.195L684.93 15.345C684.72 16.68 684.525 18.075 684.255 19.425H696.48V25.77H682.965C682.755 26.745 682.545 27.735 682.29 28.605H693.84V57.12H697.395V57.105ZM673.11 33.945V35.91H686.985V33.945H673.11ZM686.985 40.965H673.11V42.975H686.985V40.965ZM673.11 47.88V49.95H686.985V47.88H673.11ZM673.11 57.105H686.985V54.945H673.11V57.105Z" fill="white"/>
<path d="M717.045 47.67V54.585C720.3 55.56 723.6 55.56 732.51 55.56C738.24 55.56 745.755 55.515 749.685 55.305C748.545 57 747.315 60.465 746.85 62.73H726.735C717.705 62.73 711.57 61.59 707.4 56.28C706.89 59.535 706.215 62.415 705.24 64.74C703.905 63.81 701.115 62.52 699.42 61.86C701.535 56.865 702 47.685 702.105 38.97L709.95 40.005C709.845 40.515 709.44 40.83 708.66 40.875L708.51 45.42C708.975 46.92 709.545 48.21 710.205 49.335V36.645H700.515V30.045H710.055V26.235H702.015V19.785H710.055V14.985L718.56 15.45C718.515 16.02 718.095 16.32 717.06 16.485V19.785H723.345V26.235H717.06V30.045H724.695V36.645H717.06V41.235H723.81V47.685H717.06L717.045 47.67ZM738.705 30.345V23.325H725.04V16.725H745.875V38.385H738.705V36.78H733.545V44.775C733.545 46.68 733.8 46.89 735.6 46.89H740.145C741.795 46.89 742.11 46.02 742.305 40.5C743.805 41.64 746.895 42.825 748.8 43.29C748.02 51.33 746.175 53.55 740.805 53.55H734.52C728.235 53.55 726.315 51.585 726.315 44.88V30.345H738.69H738.705Z" fill="white"/>
<path d="M755.61 29.1C758.34 30.135 762 31.935 763.755 33.48L759.375 39.51C757.77 37.965 754.275 35.85 751.485 34.605L755.61 29.085V29.1ZM752.265 59.73C754.17 55.65 756.75 49.215 758.76 43.02L764.85 46.89C763.155 52.41 761.235 57.87 759.585 61.89C759.945 62.295 760.095 62.715 760.095 63.075C760.095 63.39 760.05 63.645 759.885 63.855L752.25 59.73H752.265ZM774.96 38.85L778.68 39.165C778.68 39.675 778.635 40.5 778.575 41.175C778.11 54.33 777.6 59.685 776.145 61.485C774.18 64.065 771.81 64.065 766.35 64.065C766.245 62.055 765.48 59.325 764.445 57.51C766.2 57.72 767.79 57.72 768.72 57.72C769.395 57.72 769.86 57.57 770.37 57.045C770.985 56.175 771.45 53.025 771.765 45.285H769.86L769.71 46.425L763.365 45.81C764.19 41.175 764.97 34.05 765.33 28.38H772.245V23.22H764.925V21.21L761.37 26.01C759.765 24.405 756.165 22.2 753.375 20.91L757.545 15.45C759.915 16.38 762.96 17.925 764.925 19.32V16.635H778.905V35.76H772.26V34.785H771.12C770.97 36.18 770.865 37.575 770.715 38.91H773.55L774.99 38.865L774.96 38.85ZM794.355 44.625C794.505 45.555 794.715 46.425 794.925 47.31C795.75 46.59 796.53 45.81 797.085 45.195L801.63 50.97C801.42 51.12 801.12 51.18 800.805 51.18C800.55 51.18 800.295 51.135 800.025 51.03C799.35 51.54 798.165 52.32 796.98 53.085C798.06 55.245 799.56 57.06 801.42 58.29C799.92 59.58 797.805 62.265 796.875 64.11C794.445 62.31 792.705 59.775 791.415 56.73L791.775 60.54C787.755 61.515 783.57 62.505 780.84 63.12C780.735 63.63 780.33 63.945 779.91 64.05L777.585 56.88C778.515 56.775 779.595 56.625 780.735 56.415V44.61H778.98V38.475H781.095V16.305H799.5V22.125H787.845V23.82H798.165V29.385H787.845V31.08H798.165V36.645H787.845V38.445H800.58V44.58H794.34L794.355 44.625ZM787.335 55.35L790.635 54.78C789.6 51.795 788.88 48.33 788.415 44.625H787.335V55.35Z" fill="white"/>
</svg>
