<svg width="801" height="57" viewBox="0 0 801 57" fill="none" xmlns="http://www.w3.org/2000/svg">
<g filter="url(#filter0_d_70_918)">
<path d="M1 3.625H45.805V50.65H38.38V48.64H8.06499V50.65H1V3.625ZM8.06499 41.935H38.38V10.33H34.465C35.65 11.05 36.79 11.875 37.405 12.655L35.545 14.56H37.24V19.72H28.93C29.08 21.475 29.245 23.125 29.44 24.67C29.95 23.38 30.415 21.985 30.775 20.59L37.33 22.195C37.225 22.6 36.76 22.87 36.04 22.87C34.9 26.485 33.31 29.89 31.3 32.815C31.72 33.79 32.23 34.42 32.74 34.57H32.785C33.205 34.57 33.565 32.5 33.76 30.19C34.9 31.27 37.06 33.07 38.245 33.805C37.63 38.905 35.56 41.23 32.935 41.23C31.6 41.23 28.915 40.45 27.16 37.78C25.66 39.22 24.01 40.51 22.255 41.545C21.535 40.465 19.93 38.56 18.85 37.465C15.97 37.93 13.285 38.335 11.32 38.605C11.215 39.07 10.855 39.325 10.495 39.43L8.73996 33.505C12.355 33.25 17.56 32.785 22.765 32.26L22.825 34.27C23.545 33.595 24.16 32.935 24.835 32.2C23.86 28.75 23.29 24.415 22.93 19.72H9.36998V14.56H22.57C22.465 13.33 22.42 12.085 22.36 10.795L29.995 11.11C29.95 11.62 29.485 12.085 28.555 12.19C28.555 12.97 28.6 13.795 28.6 14.56H32.365C31.495 13.885 30.505 13.165 29.635 12.655L32.005 10.33H8.01999V41.95L8.06499 41.935ZM22.045 21.355V31.105H10.45V21.355H22.045ZM17.14 27.34V25.12H15.07V27.34H17.14Z" fill="white"/>
<path d="M84.325 21.31C84.895 23.065 85.615 24.76 86.44 26.41C88.66 24.865 90.925 23.065 92.53 21.505L99.025 27.43C98.77 27.64 98.35 27.745 97.84 27.745C97.63 27.745 97.435 27.745 97.225 27.7C95.47 28.945 92.635 30.685 90.115 32.08C92.95 35.485 96.505 38.215 100.945 39.97C99.25 41.47 96.97 44.455 95.845 46.525C86.56 42.04 81.355 33.73 78.055 22.855C76.87 23.635 75.58 24.4 74.185 25.12C80.575 29.65 83.05 35.44 83.05 40.285C83.05 46.84 78.565 50.65 73.045 50.65C71.8 50.65 70.465 50.605 69.13 50.545C69.025 48.64 68.56 45.955 67.435 43.84C63.73 45.805 59.86 47.56 56.35 48.79C55.48 46.93 53.875 44.245 52.375 42.595C59.545 40.9 68.005 36.97 73.105 33.01L72.64 32.44C68.305 35.125 62.53 37.855 57.94 39.46C57.115 37.81 55.57 35.29 54.22 33.835C58.81 32.8 64.54 30.745 68.455 28.57L67.735 28.06C64.48 29.35 61.03 30.385 57.625 31.21C56.905 29.77 55.195 26.98 54.175 25.645C59.125 24.715 64.285 23.275 68.605 21.31H62.575V15.025H89.29V21.31H84.34H84.325ZM61.27 12.91V18.535H53.95V6.16H71.995V1.465L81.28 1.975C81.235 2.545 80.815 2.905 79.735 3.055V6.16H98.245V18.535H90.565V12.91H61.27ZM75.445 38.905C73.225 40.51 70.645 42.1 67.975 43.54C69.31 43.645 70.45 43.69 71.53 43.69C72.61 43.69 73.645 43.54 74.26 42.715C75.085 42.1 75.595 40.705 75.445 38.905Z" fill="white"/>
<path d="M153.114 17.755H149.5C148.465 24.97 146.77 31.105 144.085 36.16C146.56 39.46 149.71 42.145 153.67 43.945C151.975 45.445 149.694 48.385 148.614 50.395C144.909 48.385 141.864 45.805 139.434 42.715C136.284 46.015 132.325 48.64 127.315 50.605C126.64 48.85 124.779 45.7 123.594 44.215C128.694 42.46 132.519 39.775 135.399 36.175C134.169 33.655 133.135 30.865 132.25 27.925C131.74 28.75 131.17 29.53 130.555 30.25C129.625 29.11 127.764 27.265 126.219 25.915H121.674V35.455L127.555 34.315L128.229 41.425C120.489 43.285 112.195 45.085 106.885 46.225C106.78 46.795 106.27 47.095 105.805 47.2L103.479 38.695L106.524 38.23V16.57L114.415 16.99C114.37 17.56 113.95 17.86 113.02 18.025V37.105L114.67 36.79V11.05H104.875V4.195H128.59V11.05H121.674V19.15H126.729V22.66C129.879 17.395 131.889 9.46 132.909 1.465L141.774 3.22C141.624 3.73 141.099 4.045 140.274 4.09C139.914 6.355 139.45 8.635 138.94 10.84H153.069V17.755H153.114ZM137.02 17.755L136.87 18.22C137.545 21.73 138.475 25.075 139.705 28.12C140.785 25.075 141.505 21.625 142.03 17.755H137.034H137.02Z" fill="white"/>
<path d="M200.185 24.565V33.49C200.185 36.895 199.51 39.055 194.305 39.475C197.815 40.975 201.835 42.205 206.11 42.925C204.505 44.47 202.345 47.515 201.31 49.48C194.86 47.83 189.04 44.53 184.81 40.915V50.5H177.34V41.32C172.855 45.13 167.335 47.92 161.095 49.525C160.12 47.725 158.05 44.89 156.55 43.39C161.245 42.52 165.73 41.02 169.495 39.115H162.64V24.565H177.34V22.81H158.05V16.315H177.34V13.375L183.73 13.69C182.545 12.76 180.895 11.68 179.56 10.855H174.25C174.865 11.89 175.435 12.925 175.75 13.75L169.195 15.91C168.73 14.575 167.695 12.565 166.675 10.855C165.28 12.925 163.735 14.77 162.235 16.27C160.84 15.13 158.215 13.435 156.565 12.55C159.61 9.82 162.595 5.17 164.2 1L171.985 3.475C171.775 3.88 171.265 4.15 170.545 4.045C170.335 4.51 170.08 4.975 169.87 5.44H180.445V8.95C182.605 6.73 184.525 3.79 185.605 1.015C188.23 1.795 190.87 2.56 193.45 3.385C193.3 3.805 192.775 4.06 192.115 4C191.905 4.465 191.65 4.975 191.335 5.44H205.315V10.855H197.47C198.25 11.935 198.97 12.97 199.48 13.795L192.625 15.91C191.95 14.62 190.66 12.61 189.475 10.855H187.675C186.85 11.935 185.92 12.925 184.99 13.795L186.385 13.84C186.34 14.455 185.92 14.77 184.84 14.98V16.315H204.535V22.81H184.84V24.565H200.215H200.185ZM170.065 30.85V38.785C173.005 37.24 175.48 35.38 177.34 33.325V30.85H170.065ZM184.81 30.85V33.43C186.355 34.93 188.425 36.475 190.945 37.81C190.48 36.475 189.805 35.08 189.295 34.045C190.27 34.09 191.56 34.09 191.98 34.09C192.445 34.09 192.655 33.94 192.655 33.475V30.85H184.81Z" fill="white"/>
<path d="M245.305 37.36H238.24V11.215L234.37 16.63C233.545 15.805 232.51 14.935 231.325 14.005V16.525H219.67V14.665C218.59 15.745 217.405 16.78 216.115 17.815H235.81V34.93H219.46C219.415 35.395 219.31 35.86 219.205 36.325H236.68V50.35H230.185V49.12H223.27V50.455H217.03V43.96C216.205 45.97 215.17 47.875 213.88 49.525C212.905 48.28 210.22 45.805 208.93 45.04C213.415 39.055 213.88 30.655 213.88 24.775V19.465C213.46 19.78 213.055 20.035 212.59 20.335C211.87 18.64 209.965 15.79 208.675 14.56C214.87 10.9 219.1 5.95001 221.47 1.51001L229.51 3.05501C229.36 3.56501 228.895 3.92501 228.115 3.92501L228.07 3.97001C231.835 6.04001 235.75 8.81501 238.225 10.825V7.84001L246.79 8.30501C246.73 8.87501 246.325 9.17501 245.29 9.38501V37.36H245.305ZM220.045 29.89H229.165V28.495H220.135L220.03 29.89H220.045ZM229.165 22.93H220.24V24.22H229.165V22.93ZM228.085 11.635C226.9 10.81 225.715 10.03 224.53 9.26501C223.915 10.09 223.285 10.87 222.565 11.635H228.085ZM230.2 41.59H223.285V43.855H230.2V41.59ZM249.385 2.60501L258.205 2.96501C258.1 3.53501 257.74 3.94001 256.66 4.10501V41.785C256.66 48.175 255.055 50.455 243.67 50.455C243.415 48.34 242.335 44.935 241.3 42.775C244.135 42.925 247.12 42.925 248.155 42.925C249.025 42.925 249.4 42.61 249.4 41.74V2.60501H249.385Z" fill="white"/>
<path d="M279.025 23.74V25.855C281.605 27.715 286.45 31.675 287.695 32.77L283.465 39.265C282.325 37.765 280.675 35.86 279.025 34.06V50.515H271.705V34.33C269.74 38.2 267.475 41.8 265.105 44.38C264.385 42.16 262.585 38.965 261.34 36.955C264.745 33.655 268.045 28.495 270.205 23.755H262.57V16.84H271.69V11.845C269.17 12.46 266.635 12.985 264.16 13.39C263.8 11.74 262.72 9.15999 261.895 7.65999C268.9 6.26499 276.385 3.99999 281.08 1.52499L287.215 7.14999C286.9 7.46499 286.495 7.46499 285.67 7.46499C283.765 8.33499 281.5 9.15999 279.025 9.89499V16.855H287.425V23.77H279.025V23.74ZM298.315 8.31999C298.27 8.88999 297.85 9.24999 296.815 9.39999V37.36H289.54V7.85499L298.3 8.31999H298.315ZM301.465 2.58999L310.435 2.99499C310.375 3.56499 310.015 3.96999 308.89 4.13499V41.68C308.89 48.64 306.88 50.545 294.865 50.545C294.55 48.385 293.365 44.875 292.285 42.76C295.54 42.91 298.945 42.91 300.07 42.91C301.045 42.91 301.465 42.595 301.465 41.62V2.60499V2.58999Z" fill="white"/>
<path d="M357.04 24.1L362.245 26.62C362.095 26.98 361.735 27.19 361.375 27.445C355.285 42.145 341.11 48.07 322.81 50.5C322.195 48.49 320.8 45.4 319.555 43.69C326.41 43.075 332.65 41.83 338.02 39.82C336.625 38.68 335.08 37.555 333.745 36.625L339.265 32.65C340.96 33.685 343.075 35.08 344.785 36.46C347.305 34.81 349.48 32.845 351.13 30.535H340.51C336.49 33.265 331.69 35.74 325.915 37.855C324.985 36.1 322.87 33.31 321.37 32.035C329.11 29.77 334.885 26.665 338.95 23.275V23.23C333.025 26.275 326.155 28.33 319 29.725C318.325 27.865 316.885 24.985 315.595 23.38C321.325 22.555 326.89 21.115 331.84 19.15C330.595 18.325 329.32 17.545 328.18 16.93L333.235 12.85C334.885 13.63 336.895 14.71 338.545 15.79C340.81 14.455 342.82 12.895 344.53 11.2H333.745C330.19 13.63 325.96 15.835 320.95 17.845C319.915 16.09 317.605 13.51 316 12.325C325.075 9.535 331.27 5.47 334.765 1.285L343.69 3.145C343.54 3.655 342.97 4.015 342.145 4.015L341.11 5.095H349.87L351.055 4.84L356.26 7.57C356.05 7.93 355.75 8.14 355.33 8.35C352.855 12.835 349.24 16.6 344.86 19.645L351.82 21.145C351.61 21.715 351.04 22.075 350.17 22.075C349.495 22.855 348.775 23.62 348.01 24.34H355.795L357.025 24.085L357.04 24.1Z" fill="white"/>
<path d="M381.01 50.455V27.565H401.485V50.26H394.015V48.865H388.09V50.47H381.025L381.01 50.455ZM394 34.72H388.075V41.68H394V34.72ZM417.415 3.22003V24.055H389.62V3.22003H417.415ZM409.735 16.93V10.39H396.85V16.945H409.735V16.93ZM405.145 27.55H426.13V50.035H418.6V48.79H412.3V50.23H405.13V27.535L405.145 27.55ZM412.315 41.635H418.615V34.72H412.315V41.635Z" fill="white"/>
<path d="M440.365 21.055C440.365 23.74 440.365 24.61 440.32 26.05H449.86V48.64H443.62V32.29H440.065C439.645 38.575 438.775 45.34 437.02 50.44C435.58 49.765 432.745 48.79 431.035 48.37C433.825 40.9 434.23 29.035 434.23 22.015V3.07L441.76 3.475C441.715 3.985 441.295 4.3 440.365 4.45V14.77H443.095V1.57L450.67 1.975C450.625 2.485 450.265 2.8 449.275 2.95V14.755H452.425V21.04H440.365V21.055ZM480.49 35.44V41.635H473.32V50.5H466.3V41.635H451.45V35.44H457.18C456.04 34.255 454.09 32.545 452.845 31.78C456.355 30.49 458.62 28.795 460.165 26.935H453.82V7.135H460.525C461.305 5.275 462.07 3.115 462.49 1.465L471.205 3.58C470.995 4.045 470.53 4.255 469.705 4.255C469.24 5.125 468.625 6.16 468.01 7.15H478.84V26.95H467.605L467.035 28.03L474.82 28.45C474.775 29.02 474.355 29.32 473.32 29.485V35.47H480.49V35.44ZM466.315 29.2C464.71 31.63 462.235 33.79 458.53 35.44H466.315V29.2ZM460.39 12.64V14.44H462.97V12.64H460.39ZM460.39 21.4H462.715C462.82 20.785 462.865 20.17 462.925 19.54H460.405V21.4H460.39ZM471.985 21.4V19.54H469.195L469.045 21.4H471.985ZM471.985 14.44V12.64H469.195V14.44H471.985Z" fill="white"/>
<path d="M497.035 18.535L501.16 19.675C501.1 20.08 500.95 20.545 500.74 20.86C500.17 27.565 499.09 33.385 497.485 38.185C502.18 41.485 508.36 42.16 515.38 42.205C519.04 42.205 529.195 42.205 533.575 41.995C532.435 43.69 531.205 47.155 530.74 49.315H515.17C506.875 49.315 500.005 48.385 494.545 44.68C493.105 47.155 491.35 49.21 489.34 50.77C488.2 49.33 485.32 46.69 483.715 45.775C485.98 44.17 487.795 42.115 489.235 39.49C487.33 36.865 485.68 33.565 484.33 29.44L490.15 27.43C490.72 29.185 491.38 30.685 492.115 32.02C492.625 29.95 493.045 27.685 493.345 25.21H491.275L490.765 26.395L484.015 24.7C486.025 20.32 488.29 15.115 490.105 10.675H484.225V4.15H494.125L495.52 4L499.705 5.395C499.555 5.755 499.345 6.22 499.135 6.58C497.89 9.775 496.045 14.215 494.14 18.7H495.79L497.035 18.55V18.535ZM511.27 11.62V10.435H502.81V4.87H511.27V1.405L520.03 1.87C519.985 2.44 519.565 2.8 518.53 2.95V4.855H528.475V11.62H532.81V17.29H528.475V24.04H518.53V25.225H529.3V30.535H518.53V31.78H531.625V37.6H518.53V41.32H511.255V37.6H499.6V31.78H511.255V30.535H501.865V25.225H511.255V24.04H502.645V18.475H511.255V17.29H498.88V11.62H511.255H511.27ZM521.125 10.435H518.545V11.62H521.125V10.435ZM521.125 18.475V17.29H518.545V18.475H521.125Z" fill="white"/>
<path d="M557.365 10.075V15.895H536.68V10.075H557.365ZM579.28 23.485L584.02 25.285C583.915 25.69 583.66 25.9 583.405 26.215C581.905 31.84 579.49 36.43 576.19 40.195C579.07 41.845 582.43 43.135 586.09 44.005C584.44 45.505 582.28 48.55 581.245 50.455C577.165 49.21 573.565 47.47 570.415 45.19C567.16 47.41 563.41 49.165 559.12 50.455C558.4 48.655 556.75 45.82 555.4 44.17V47.935H545.29V49.735H539.005V31.84H555.4V43.81C558.85 42.985 562 41.74 564.73 40.09C562.72 37.825 561.025 35.29 559.525 32.455L565.975 30.385H558.04V23.68H560.155C558.97 22.39 556.855 20.635 555.46 19.765V23.02H539.215V17.455H555.46V19.315C559.645 16.33 560.05 12.4 560.05 9.055V2.905H578.095V13.885C578.095 15.43 578.155 15.58 578.56 15.58H579.13C579.64 15.58 579.85 14.905 579.955 10.675C581.245 11.755 584.125 12.835 585.985 13.3C585.37 19.945 583.66 21.865 579.895 21.865H577.165C572.47 21.865 571.075 19.96 571.075 13.975V9.49H567.1C567.04 14.29 566.065 20.005 561.535 23.665H577.99L579.28 23.455V23.485ZM555.46 24.565V30.13H539.215V24.565H555.46ZM555.415 3.01V8.575H539.38V3.01H555.415ZM549.025 42.04V37.66H545.305V42.04H549.025ZM566.2 30.385C567.235 32.29 568.63 34.105 570.28 35.695C571.78 34.15 573.01 32.35 574.045 30.385H566.2Z" fill="white"/>
<path d="M605.515 34.15V40.9C608.965 42.04 612.58 42.04 621.61 42.04C627.34 42.04 634.915 41.995 638.83 41.785C637.69 43.48 636.46 46.945 635.995 49.21H615.775C606.55 49.21 600.31 48.07 596.185 42.46C595.72 45.715 595.105 48.7 594.325 51.025C592.99 50.2 590.35 49.12 588.7 48.55C590.35 43.39 590.92 34.06 591.07 25.45L598.6 26.59C598.495 27.1 598.09 27.37 597.37 27.415L597.22 31.18C597.685 32.875 598.3 34.33 598.975 35.515V23.125H589.69V16.525H598.72V12.715H591.04V6.265H598.72V1.465L607.015 1.93C606.97 2.44 606.55 2.8 605.575 2.965V6.265H611.965V12.7H605.575V16.51H612.685V18.37C615.88 16.465 617.74 13.375 618.565 9.445H613.72V3.265H631.255L632.8 3.16L636.775 3.52L636.625 5.485C636.31 13.99 635.8 17.815 634.615 19.36C632.965 21.325 630.85 21.685 625.075 21.58C624.97 19.93 624.4 17.665 623.635 16.015C622.24 18.91 620.29 21.22 617.755 22.93H635.5V40.615H628.39V39.07H621.685V40.825H614.875V22.915H617.35C616.27 21.88 614.26 20.395 612.715 19.36V23.125H605.545V27.715H611.83V34.165H605.545L605.515 34.15ZM628.36 28.99H621.655V32.965H628.36V28.99ZM625.675 9.445C625.315 11.605 624.7 13.57 623.92 15.37C624.85 15.415 625.675 15.475 626.35 15.475C628.675 15.475 628.975 15.475 629.335 9.445H625.675Z" fill="white"/>
<path d="M685.09 4.61504C684.835 5.02004 684.265 5.23004 683.44 5.18504C682.405 6.43004 681.01 7.87004 679.63 9.16004H690.04V15.91H642.7V9.14504H653.53C652.39 7.54003 650.845 5.74004 649.45 4.34504L656.41 1.40504C658.57 3.31004 661.105 6.10004 662.29 8.21504L660.07 9.14504H673.225L670.9 8.17004C672.76 6.26504 674.98 3.47504 676.27 1.25504L685.09 4.60004V4.61504ZM665.86 18.85V43.75C665.86 49.015 663.895 50.665 656.065 50.665C655.705 48.805 654.67 46.03 653.74 44.38C654.61 44.425 655.645 44.485 656.47 44.485C658.435 44.485 658.63 44.485 658.63 43.66V40.405H652.855V50.455H645.79V18.835H665.845L665.86 18.85ZM658.645 25.09H652.87V27.25H658.645V25.09ZM652.87 34.99H658.645V32.665H652.87V34.99ZM677.575 19.885C677.515 20.455 677.11 20.755 676.075 20.965V40.555H668.95V19.405L677.56 19.87L677.575 19.885ZM686.755 42.88C686.755 47.83 685.72 50.77 675.1 50.62C674.74 48.61 673.555 45.46 672.475 43.555C673.975 43.66 675.565 43.705 676.75 43.705C679.12 43.705 679.375 43.705 679.375 42.775V18.07L688.3 18.43C688.195 19 687.835 19.405 686.755 19.57V42.88Z" fill="white"/>
<path d="M713.335 12.76L719.425 14.41C719.215 14.875 718.75 15.085 717.985 15.085C717.415 16.735 716.59 18.805 715.765 20.545H721.435V27.295H694.72V20.545H699.985C699.835 18.745 699.265 16.06 698.545 14.095L704.53 12.85C705.4 14.86 706.135 17.59 706.33 19.45L701.635 20.53H710.14L709.465 20.32C710.29 18.205 711.265 15.115 711.73 12.745H695.695V6.31001H704.665V1.51001L713.425 1.97501C713.365 2.54501 712.96 2.90501 711.925 3.05501V6.31001H720.79V12.76H713.32H713.335ZM697.405 50.605V30.085H719.425V50.395H712.15V48.235H704.305V50.605H697.39H697.405ZM712.15 36.535H704.305V41.8H712.15V36.535ZM738.97 4.15001L743.665 5.84501C743.62 6.25001 743.455 6.56501 743.155 6.82001C741.76 11.305 740.005 16.675 737.89 22.24C742.12 27.505 743.455 31.06 743.455 34.255C743.455 44.47 736.495 44.575 733.6 44.575C733.09 44.575 732.52 44.575 731.995 44.53C731.95 42.73 731.17 39.895 730.09 37.93V50.515H722.77V4.40501H737.47L738.97 4.15001ZM730.105 11.425V37.465C731.35 37.57 732.37 37.57 733.09 37.57C735.61 37.57 736.18 36.43 736.18 33.91C736.18 31.39 734.74 28.495 730.45 23.5C731.845 19.12 732.97 15.1 733.96 11.44H730.09L730.105 11.425Z" fill="white"/>
<path d="M783.565 20.23C785.32 18.835 786.91 17.395 788.305 15.85L795.01 20.125C794.755 20.38 794.335 20.545 793.87 20.545C793.66 20.545 793.45 20.5 793.195 20.44C791.905 21.775 790.465 23.065 788.965 24.25H794.95V30.07H780.46C779.53 30.58 778.6 31.105 777.625 31.615H790.675V50.59H782.995V49.3H766.075V50.59H758.755V39.04C755.815 39.91 752.83 40.69 749.83 41.365C749.215 39.76 747.67 36.82 746.575 35.275C750.655 34.495 754.78 33.475 758.74 32.29V31.615H760.9C762.34 31.15 763.84 30.64 765.28 30.07H748.465V24.25H766.255V22.495H754.03V16.93H766.255V15.235H750.94V3.07001H792.355V15.235H774.775C774.565 15.49 774.16 15.64 773.53 15.745V16.93H783.535V20.23H783.565ZM762.415 10.225V8.00501H758.08V10.225H762.415ZM782.995 36.58H766.345L766.09 36.685V38.08H783.01V36.58H782.995ZM766.075 44.155H782.995V42.55H766.075V44.155ZM769.225 8.00501V10.225H773.605V8.00501H769.225ZM773.56 22.495V24.25H777.685C778.66 23.68 779.59 23.11 780.475 22.495H773.56ZM780.415 8.00501V10.225H784.9V8.00501H780.415Z" fill="white"/>
</g>
<defs>
<filter id="filter0_d_70_918" x="-0.00500011" y="-0.00500011" width="800.73" height="56.745" filterUnits="userSpaceOnUse" color-interpolation-filters="sRGB">
<feFlood flood-opacity="0" result="BackgroundImageFix"/>
<feColorMatrix in="SourceAlpha" type="matrix" values="0 0 0 0 0 0 0 0 0 0 0 0 0 0 0 0 0 0 127 0" result="hardAlpha"/>
<feOffset dx="2.355" dy="2.355"/>
<feGaussianBlur stdDeviation="1.68"/>
<feColorMatrix type="matrix" values="0 0 0 0 0.101961 0 0 0 0 0.12549 0 0 0 0 0.219608 0 0 0 0.34 0"/>
<feBlend mode="normal" in2="BackgroundImageFix" result="effect1_dropShadow_70_918"/>
<feBlend mode="normal" in="SourceGraphic" in2="effect1_dropShadow_70_918" result="shape"/>
</filter>
</defs>
</svg>
