<svg width="323" height="131" viewBox="0 0 323 131" fill="none" xmlns="http://www.w3.org/2000/svg">
<path d="M37.9345 109.8C35.7445 105.915 30.4196 102.945 30.4196 102.945C30.4196 102.945 31.2146 107.43 31.5146 110.235C31.6196 111.15 31.9346 112.11 32.3846 113.04C31.6346 112.41 30.8396 111.81 30.0146 111.285C28.7696 109.86 27.5846 108.39 26.4596 106.875C27.3146 104.805 28.8596 100.38 28.0496 97.02C27.0146 92.685 22.7096 88.32 22.7096 88.32C22.7096 88.32 22.2295 92.835 21.7495 95.595C21.5845 96.495 21.6295 97.5 21.8095 98.52C21.2395 97.665 20.6245 96.855 19.9495 96.105C19.1545 94.425 18.4195 92.715 17.7745 90.975C19.1695 89.265 21.9295 85.455 22.0795 81.99C22.2745 77.565 19.3346 72.165 19.3346 72.165C19.3346 72.165 17.6245 76.335 16.3945 78.825C15.9895 79.65 15.7495 80.61 15.6445 81.645C15.3745 80.805 15.0595 79.98 14.6845 79.185C14.3545 77.16 14.0996 75.18 13.9046 73.245C15.7496 71.985 19.3796 69.18 20.4746 65.955C21.8996 61.785 20.5646 55.785 20.5646 55.785C20.5646 55.785 17.7596 59.28 15.8846 61.305C15.2696 61.965 14.7746 62.82 14.3846 63.78C14.3546 62.595 14.2346 61.395 13.9796 60.24C13.9346 60.03 13.8895 59.835 13.8295 59.625C13.9645 58.23 14.1446 56.85 14.3546 55.485C16.0046 55.005 20.8495 53.4 22.9345 50.46C25.3495 47.055 25.6945 41.25 25.6945 41.25C25.6945 41.25 22.1995 43.665 19.9345 44.985C19.1995 45.42 18.5095 46.065 17.8945 46.83C18.1795 45.735 18.3895 44.625 18.4645 43.5C18.5095 42.915 18.4945 42.315 18.4345 41.7C18.7795 40.935 19.1396 40.17 19.5296 39.42C19.5896 39.36 19.6645 39.3 19.7545 39.225C20.9845 39.255 26.2196 39.24 29.0096 37.05C32.0396 34.68 33.8546 29.625 33.8546 29.625C33.8546 29.625 30.1045 30.825 27.7345 31.41C26.9545 31.605 26.1896 31.995 25.4396 32.505C25.9796 31.62 26.4445 30.675 26.8045 29.715C27.0295 29.115 27.1796 28.47 27.2996 27.795C28.0346 26.925 28.8145 26.07 29.6095 25.215C30.9445 25.62 35.0245 26.715 37.7545 25.65C40.9045 24.42 43.6645 20.64 43.6645 20.64C43.6645 20.64 40.1995 20.7 38.0545 20.595C37.3495 20.565 36.5996 20.685 35.8496 20.925C36.5246 20.31 37.1395 19.65 37.6795 18.93C40.8295 14.73 40.4545 5.89499 40.4545 5.89499C40.4545 5.89499 33.1046 10.8 31.5146 16.53C30.8246 19.005 29.6996 22.8 29.1896 24.48C28.6046 25.08 28.0346 25.68 27.4796 26.31C27.8396 20.895 25.6945 14.475 25.6945 14.475C25.6945 14.475 19.2596 22.245 19.3346 29.085C19.3646 31.815 19.3346 35.94 19.3346 38.13C18.9596 38.835 18.5995 39.555 18.2545 40.29C17.1595 34.395 12.7796 28.02 12.7796 28.02C12.7796 28.02 8.48955 38.085 10.6046 45.165C11.5046 48.18 12.8246 52.86 13.4246 54.99C13.2596 55.8 13.1245 56.595 12.9895 57.42C10.2595 51.645 3.74954 46.275 3.74954 46.275C3.74954 46.275 2.36955 57.765 6.56955 64.305C8.44455 67.245 11.3245 71.895 12.4345 73.71C12.5095 74.505 12.5846 75.3 12.6896 76.08C8.50458 71.205 0.644531 67.815 0.644531 67.815C0.644531 67.815 2.51954 79.29 8.33954 84.405C10.9045 86.67 14.8645 90.255 16.4845 91.725C16.7545 92.475 17.0545 93.21 17.3395 93.945C11.9995 90.495 3.65955 89.49 3.65955 89.49C3.65955 89.49 8.63958 100.02 15.5996 103.29C18.4496 104.625 22.7395 106.725 24.9145 107.79C25.3945 108.465 25.8746 109.125 26.3846 109.785C20.3696 108.18 12.5545 109.53 12.5545 109.53C12.5545 109.53 20.2346 118.26 27.7796 119.415C30.5696 119.835 34.6795 120.54 37.1845 120.96C40.9345 124.035 44.9995 126.645 49.2745 128.76C50.8045 128.7 52.3196 128.67 53.8496 128.655C48.6296 126.465 43.6795 123.495 39.1495 119.94C39.3895 117.765 39.6895 112.92 37.9495 109.845L37.9345 109.8Z" fill="white"/>
<path d="M285.118 109.8C287.308 105.915 292.633 102.945 292.633 102.945C292.633 102.945 291.838 107.43 291.538 110.235C291.433 111.15 291.118 112.11 290.668 113.04C291.418 112.41 292.213 111.81 293.038 111.285C294.283 109.86 295.468 108.39 296.593 106.875C295.738 104.805 294.193 100.38 295.003 97.0199C296.038 92.6849 300.343 88.3199 300.343 88.3199C300.343 88.3199 300.823 92.8349 301.303 95.5949C301.468 96.4949 301.423 97.4999 301.243 98.5199C301.813 97.6649 302.428 96.8549 303.103 96.1049C303.898 94.4249 304.633 92.7149 305.278 90.9749C303.883 89.2649 301.123 85.4549 300.973 81.9899C300.778 77.5649 303.718 72.1649 303.718 72.1649C303.718 72.1649 305.428 76.3349 306.658 78.8249C307.063 79.6499 307.303 80.6099 307.408 81.6449C307.678 80.8049 307.993 79.9799 308.368 79.1849C308.698 77.1599 308.953 75.1799 309.148 73.2449C307.303 71.9849 303.673 69.1799 302.578 65.9549C301.153 61.7849 302.488 55.7849 302.488 55.7849C302.488 55.7849 305.293 59.2799 307.168 61.3049C307.783 61.9649 308.278 62.8199 308.668 63.7799C308.698 62.5949 308.818 61.3949 309.073 60.2399C309.118 60.0299 309.163 59.8349 309.223 59.6249C309.088 58.2299 308.908 56.8499 308.698 55.4849C307.048 55.0049 302.203 53.3999 300.118 50.4599C297.703 47.0549 297.358 41.2499 297.358 41.2499C297.358 41.2499 300.853 43.6649 303.118 44.9849C303.853 45.4199 304.543 46.0649 305.158 46.8299C304.873 45.7349 304.663 44.6249 304.588 43.4999C304.543 42.9149 304.558 42.3149 304.618 41.6999C304.273 40.9349 303.913 40.1699 303.523 39.4199C303.463 39.3599 303.388 39.2999 303.298 39.2249C302.068 39.2549 296.833 39.2399 294.043 37.0499C291.013 34.6799 289.198 29.6249 289.198 29.6249C289.198 29.6249 292.948 30.8249 295.318 31.4099C296.098 31.6049 296.863 31.9949 297.613 32.5049C297.073 31.6199 296.608 30.6749 296.248 29.7149C296.023 29.1149 295.873 28.4699 295.753 27.7949C295.018 26.9249 294.238 26.0699 293.443 25.2149C292.108 25.6199 288.028 26.7149 285.298 25.6499C282.148 24.4199 279.388 20.6399 279.388 20.6399C279.388 20.6399 282.853 20.6999 284.998 20.5949C285.703 20.5649 286.453 20.6849 287.203 20.9249C286.528 20.3099 285.913 19.6499 285.373 18.9299C282.223 14.7299 282.598 5.8949 282.598 5.8949C282.598 5.8949 289.948 10.7999 291.538 16.5299C292.228 19.0049 293.353 22.7999 293.863 24.4799C294.448 25.0799 295.018 25.6799 295.573 26.3099C295.213 20.8949 297.358 14.4749 297.358 14.4749C297.358 14.4749 303.793 22.2449 303.718 29.0849C303.688 31.8149 303.718 35.9399 303.718 38.1299C304.093 38.8349 304.453 39.5549 304.798 40.2899C305.893 34.3949 310.273 28.0199 310.273 28.0199C310.273 28.0199 314.563 38.0849 312.448 45.1649C311.548 48.1799 310.228 52.8599 309.628 54.9899C309.793 55.7999 309.928 56.5949 310.063 57.4199C312.793 51.6449 319.303 46.2749 319.303 46.2749C319.303 46.2749 320.683 57.7649 316.483 64.3049C314.608 67.2449 311.728 71.8949 310.618 73.7099C310.543 74.5049 310.468 75.2999 310.363 76.0799C314.548 71.2049 322.408 67.8149 322.408 67.8149C322.408 67.8149 320.533 79.2899 314.713 84.4049C312.148 86.6699 308.188 90.2549 306.568 91.7249C306.298 92.4749 305.998 93.2099 305.713 93.9449C311.053 90.4949 319.393 89.4899 319.393 89.4899C319.393 89.4899 314.413 100.02 307.453 103.29C304.603 104.625 300.313 106.725 298.138 107.79C297.658 108.465 297.178 109.125 296.668 109.785C302.683 108.18 310.498 109.53 310.498 109.53C310.498 109.53 302.818 118.26 295.273 119.415C292.483 119.835 288.373 120.54 285.868 120.96C282.118 124.035 278.053 126.645 273.778 128.76C272.248 128.7 270.733 128.67 269.203 128.655C274.423 126.465 279.373 123.495 283.903 119.94C283.663 117.765 283.363 112.92 285.103 109.845L285.118 109.8Z" fill="white"/>
<path d="M156.029 10.395V12.21H123.254C121.499 15.39 119.669 18.18 117.734 20.61L139.724 21.18H146.429V50.82C146.429 53.205 145.889 54.96 144.794 56.085C143.744 57.255 141.494 58.005 138.029 58.335C137.819 56.25 137.324 54.78 136.529 53.955C135.569 52.995 133.724 52.29 131.009 51.825V50.955C135.434 51.24 138.104 51.39 139.034 51.39C139.574 51.39 139.934 51.285 140.099 51.075C140.309 50.865 140.414 50.535 140.414 50.07V42.555H118.289V56.52C118.289 56.685 118.109 56.895 117.719 57.15C117.344 57.435 116.759 57.72 115.964 57.96C115.169 58.215 114.314 58.335 113.399 58.335H112.394V26.685C108.209 30.855 103.604 34.23 98.5489 36.78L97.9189 36.03C105.524 30.345 111.749 22.41 116.594 12.225H99.1789L98.6839 10.41H117.419C119.009 6.77998 120.239 3.31498 121.109 0.0149841L127.244 2.71498C126.374 5.59498 125.369 8.15998 124.244 10.425H156.014L156.029 10.395ZM140.429 22.92H118.304V30.87H140.429V22.92ZM118.304 40.71H140.429V32.685H118.304V40.71Z" fill="white"/>
<path d="M214.048 37.59V40.41C211.453 43.62 208.258 46.41 204.463 48.75C210.598 50.76 218.353 51.93 227.713 52.26V53.01C225.328 53.685 223.843 55.5 223.258 58.455C213.193 57.075 205.408 54.675 199.888 51.255C192.163 55.02 182.383 57.39 170.563 58.395L170.188 57.39C180.673 55.545 189.373 52.65 196.318 48.675C193.723 46.5 191.638 44.025 190.048 41.22C184.408 45.645 178.243 48.87 171.568 50.865L171.073 49.995C174.913 48.03 178.633 45.465 182.233 42.285C185.863 39.075 188.683 35.85 190.693 32.64C189.688 32.385 189.028 31.965 188.683 31.38C188.353 30.75 188.188 29.82 188.188 28.56V19.725L193.138 20.415V27.615C193.138 27.99 193.243 28.245 193.453 28.365C193.708 28.455 194.293 28.485 195.208 28.485H200.653C203.488 28.485 205.138 28.47 205.603 28.425C206.278 28.335 206.713 28.17 206.923 27.93C207.388 27.345 207.973 25.92 208.678 23.67H209.428L209.608 27.99C210.868 28.41 211.483 29.055 211.483 29.925C211.483 31.005 210.703 31.785 209.173 32.25C207.673 32.67 204.688 32.88 200.218 32.88H194.518L196.213 34.755C195.373 36.135 194.713 37.08 194.203 37.575H214.063L214.048 37.59ZM218.938 17.16H179.158C179.113 18.87 178.768 20.355 178.093 21.615C177.463 22.875 176.653 23.79 175.648 24.375C174.778 24.96 173.803 25.17 172.768 25.005C171.763 24.795 171.103 24.24 170.758 23.31C170.218 21.765 170.908 20.49 172.828 19.485C174.043 18.855 175.078 17.85 175.963 16.485C176.878 15.105 177.313 13.62 177.283 12.03H178.288C178.663 13.245 178.918 14.355 179.038 15.345H186.178C185.638 15.225 185.128 14.955 184.678 14.535C184.558 12.15 183.508 9.81 181.543 7.515L182.113 7.14C179.728 7.185 177.388 7.185 175.093 7.14L174.898 5.955C181.963 5.49 189.478 4.695 197.458 3.57C205.483 2.4 211.933 1.215 216.823 0L221.953 5.325C221.278 5.955 220.093 5.865 218.383 5.07C211.738 5.865 204.178 6.45 195.703 6.825C199.288 8.04 201.283 9.705 201.658 11.835C201.913 13.26 201.448 14.295 200.278 14.97C199.063 15.675 197.833 15.465 196.588 14.34C196.588 11.925 195.733 9.435 194.023 6.885C188.848 7.05 184.933 7.14 182.308 7.14C186.478 8.1 188.908 9.675 189.568 11.835C189.943 13.17 189.583 14.22 188.503 14.97C188.248 15.135 188.008 15.27 187.753 15.345H207.043C208.918 12.09 210.388 9 211.423 6.075L216.553 9.075C214.678 11.46 212.308 13.545 209.473 15.345H225.328V18.225C223.108 20.025 220.438 21.57 217.303 22.86C220.138 24.45 221.623 26.355 221.758 28.56C221.803 30.03 221.233 31.005 220.063 31.5C219.103 31.875 218.053 31.71 216.928 31.005C216.463 29.34 215.488 27.555 213.988 25.68C212.488 23.805 210.883 22.23 209.158 20.985L209.728 20.49C212.323 20.91 214.573 21.555 216.493 22.425C217.363 20.88 218.188 19.125 218.938 17.16ZM183.478 20.415L184.483 20.475C185.188 23.28 185.128 25.68 184.288 27.675C183.448 29.64 182.263 30.975 180.718 31.68C179.803 32.175 178.813 32.325 177.778 32.115C176.773 31.905 176.128 31.38 175.843 30.555C175.378 28.92 176.113 27.645 178.033 26.73C179.368 26.265 180.583 25.455 181.663 24.285C182.743 23.115 183.358 21.825 183.478 20.4V20.415ZM207.283 39.405H192.238C192.118 39.525 191.983 39.66 191.863 39.78C191.743 39.87 191.563 39.99 191.368 40.155C191.203 40.275 191.083 40.38 190.993 40.47C193.123 42.93 195.943 45.03 199.453 46.74C202.633 44.565 205.243 42.12 207.283 39.405ZM194.188 18.975L194.683 18.405C199.618 18.36 202.738 19.455 204.088 21.66C204.883 22.95 204.838 24.09 203.968 25.05C203.008 26.1 201.778 26.235 200.278 25.485C199.813 24.315 199.003 23.13 197.833 21.915C196.663 20.655 195.448 19.68 194.203 18.975H194.188Z" fill="white"/>
<path d="M126.628 83.7302V84.5552H108.898L108.779 84.1352H105.869V91.1102C106.139 91.0352 106.694 90.8552 107.534 90.5702C108.404 90.2852 109.064 90.0602 109.544 89.8952L109.678 90.2402C106.288 92.5202 103.664 94.2002 101.819 95.2952C101.684 95.6852 101.473 95.9402 101.203 96.0602L99.8535 92.9252C100.529 92.7602 101.684 92.4152 103.334 91.9052V84.1352H100.678L100.453 83.3102H103.334V75.9902H100.424L100.198 75.1652H109.889V75.9902H105.869V83.3102H109.453V83.6852L116.009 83.7452V80.8952L118.604 81.2102V83.7602H126.599L126.628 83.7302ZM121.378 90.9152H118.694V95.7002C118.694 96.7052 118.469 97.4402 118.049 97.9352C117.614 98.4302 116.728 98.7302 115.393 98.8352C115.348 98.0402 115.214 97.4852 114.974 97.1702C114.614 96.7802 113.998 96.5102 113.143 96.3752V95.9852C114.448 96.0752 115.258 96.1202 115.573 96.1202C115.918 96.1202 116.084 95.9702 116.084 95.6702V90.9152H113.428V91.2302C113.428 91.4252 113.053 91.6202 112.303 91.8302L114.089 93.4202C113.339 94.3802 112.379 95.2502 111.209 96.0152C110.039 96.7952 108.839 97.4252 107.624 97.9052L107.339 97.5302C108.284 96.8102 109.199 95.9252 110.084 94.8752C110.984 93.8252 111.688 92.8202 112.198 91.8752C111.778 91.9502 111.463 91.9952 111.238 91.9952H110.863V86.2352H124.003V91.0952C123.988 91.2152 123.718 91.3652 123.178 91.5452C122.668 91.7402 122.219 91.8302 121.814 91.8302H121.393V90.9302L121.378 90.9152ZM113.384 80.7152V81.0902C113.384 81.1652 113.263 81.2702 113.038 81.4052C112.828 81.5252 112.543 81.6302 112.183 81.7502C111.838 81.8402 111.508 81.8852 111.163 81.8852H110.803V74.3402H124.034V80.9552C124.019 81.0752 123.734 81.2252 123.209 81.4052C122.684 81.5852 122.204 81.6902 121.799 81.6902H121.378V80.7302H113.384V80.7152ZM121.378 75.0902H113.384V77.0702H121.378V75.0902ZM113.384 79.8902H121.378V77.8802H113.384V79.8902ZM113.413 86.9852V90.1202H121.378V86.9852H113.413ZM119.939 92.5202L120.194 92.2952C122.999 92.7302 124.814 93.6452 125.654 95.0402C126.149 95.8652 126.164 96.5702 125.744 97.1552C125.354 97.6952 124.768 97.7852 124.018 97.4102C123.643 96.5402 123.073 95.6702 122.323 94.7852C121.573 93.9002 120.778 93.1502 119.953 92.5202H119.939Z" fill="white"/>
<path d="M140.938 77.0852H143.848C144.418 75.7502 144.898 74.5652 145.288 73.5452L147.268 75.0752C146.083 77.5802 144.613 79.8902 142.858 82.0052H148.258V82.8002H142.183C141.148 83.9552 140.098 84.9902 139.018 85.9052H145.468V97.5452C145.453 97.6352 145.183 97.7852 144.673 97.9652C144.163 98.1602 143.713 98.2502 143.323 98.2502H142.933V96.0752H137.878V97.8602C137.878 97.9352 137.788 98.0252 137.623 98.1452C137.473 98.2802 137.233 98.3852 136.888 98.4902C136.573 98.5802 136.213 98.6252 135.838 98.6252H135.418V88.6502C134.413 89.3102 133.378 89.9102 132.283 90.4352L131.998 90.1202C133.258 89.2802 134.398 88.3952 135.418 87.4952V85.6352H137.368C138.373 84.6002 139.198 83.6552 139.858 82.8152H132.508L132.283 82.0202H137.458V77.9252H133.333L133.108 77.1002H137.458V72.7802L140.008 73.1252V77.1152H140.968L140.938 77.0852ZM142.918 86.7002L137.863 86.8652V90.5402H142.918V86.7002ZM137.863 95.2652H142.918V91.3652H137.863V95.2652ZM139.978 82.0052H140.458C141.493 80.6102 142.393 79.2452 143.173 77.9102H139.978V82.0052ZM157.813 74.9102V76.4402C156.223 79.4552 154.813 81.7952 153.538 83.4752C155.143 84.5102 156.313 85.6652 157.078 86.9252C157.858 88.1852 158.233 89.4452 158.233 90.7202C158.233 92.1902 157.888 93.2852 157.213 94.0202C156.553 94.7402 155.428 95.1302 153.853 95.1752C153.853 94.1552 153.733 93.4652 153.493 93.0902C153.253 92.8202 152.728 92.6252 151.933 92.4902V92.0702H154.228C154.513 92.0702 154.753 92.0102 154.933 91.9052C155.443 91.6052 155.698 90.9902 155.698 90.0602C155.698 87.6902 154.753 85.5152 152.848 83.5352C153.538 81.3902 154.258 78.7802 154.993 75.7352H151.123V97.9802C151.123 97.9802 151.033 98.1452 150.868 98.2652C150.718 98.4002 150.463 98.5202 150.103 98.6252C149.758 98.7452 149.398 98.7902 148.993 98.7902H148.543V74.9102H157.813Z" fill="white"/>
<path d="M190.919 91.6652L190.409 96.1352C191.159 97.2452 191.384 97.9952 191.054 98.3702C190.769 98.7302 190.379 98.8802 189.899 98.8202C189.404 98.7602 188.924 98.6102 188.459 98.3702C188.009 98.1452 187.559 97.8452 187.109 97.4702C186.209 96.7802 185.414 95.9552 184.739 95.0102C182.684 96.6752 180.239 97.8602 177.419 98.5652L177.224 98.1752C179.729 97.0502 181.889 95.4452 183.704 93.3902C182.939 91.9652 182.294 90.2702 181.784 88.3352H178.424C178.364 89.0702 178.289 89.7902 178.169 90.4802C179.984 90.9152 181.049 91.6352 181.394 92.6552C181.619 93.3152 181.484 93.8402 181.004 94.2152C180.494 94.5902 179.924 94.5602 179.309 94.0952C179.189 93.2702 178.754 92.3552 177.974 91.3802C177.224 94.5602 175.364 97.0202 172.409 98.7602L172.034 98.3702C173.504 96.9602 174.479 95.4452 174.974 93.8402C175.469 92.2202 175.739 90.3752 175.799 88.3352H173.969L173.849 87.8852C173.684 88.1102 173.429 88.2302 173.114 88.2302C172.814 88.2152 172.514 88.0652 172.244 87.8102C172.169 86.5802 171.674 85.2302 170.744 83.7452V98.0252C170.744 98.1752 170.534 98.3402 170.099 98.5352C169.664 98.7302 169.229 98.8202 168.794 98.8202H168.284V87.0302C167.324 88.9502 166.094 90.7202 164.609 92.3102L164.219 91.9652C165.899 89.1152 167.114 85.2152 167.894 80.2652H165.044L164.819 79.4402H168.299V72.9902H170.759V79.4402H174.554V80.2652H170.759V83.0102C172.184 83.7002 173.159 84.4952 173.669 85.3502C174.194 86.2052 174.344 86.9252 174.089 87.5252H181.604C181.469 86.8802 181.319 86.0552 181.154 85.0352C180.989 85.3502 180.734 85.5452 180.389 85.6052C180.044 85.6502 179.699 85.5152 179.339 85.2152C179.294 84.7652 179.219 84.3002 179.084 83.8352C178.124 84.2852 176.879 84.8402 175.349 85.4702C175.214 85.8152 174.989 86.0102 174.674 86.0702L173.429 83.5502C173.639 83.5502 174.299 83.5202 175.439 83.4302C175.949 82.2602 176.414 81.1202 176.849 79.9802C176.414 80.3702 175.904 80.3702 175.319 79.9502C175.124 78.8702 174.509 77.8052 173.459 76.7552L173.774 76.5602C174.299 76.6802 174.764 76.8152 175.154 76.9802C175.439 75.9602 175.799 74.5652 176.234 72.7652L178.184 73.8452C177.179 75.6302 176.444 76.8152 175.949 77.3852C176.744 77.8502 177.149 78.4202 177.194 79.0502C177.419 78.4652 177.734 77.5802 178.124 76.3952L180.494 77.3252C180.449 75.3302 180.434 73.7852 180.434 72.7202L182.924 73.1402C182.834 79.4852 183.179 84.2852 183.974 87.5252H191.294V88.3502H184.199C184.514 89.4302 184.889 90.4052 185.309 91.2902C185.894 90.4052 186.389 89.4752 186.809 88.4852L188.789 89.9552C188.174 91.2602 187.439 92.3702 186.584 93.3152C187.109 93.9752 187.724 94.5752 188.429 95.1002C188.639 95.3102 188.789 95.4002 188.909 95.3852C189.044 95.3702 189.179 95.2202 189.299 94.9352C189.689 94.2152 190.139 93.1202 190.634 91.6352L190.979 91.6952L190.919 91.6652ZM177.944 81.2852L178.289 81.1202C179.474 81.6452 180.329 82.2902 180.854 83.0402C180.704 81.6302 180.584 79.9502 180.494 78.0152C180.404 78.0602 180.239 78.0752 180.014 78.0752C178.634 80.2352 177.389 82.0052 176.279 83.3552C176.579 83.3252 177.014 83.2802 177.584 83.2352C178.154 83.1752 178.559 83.1452 178.829 83.1152C178.559 82.4252 178.274 81.8102 177.959 81.2702L177.944 81.2852ZM182.999 76.7102L183.314 76.5152C183.674 76.6052 184.079 76.7402 184.529 76.9052C184.799 76.0202 185.174 74.6252 185.654 72.7202L187.634 73.8752C186.779 75.3452 185.969 76.4702 185.204 77.2652C185.984 77.7602 186.404 78.3152 186.479 78.9302C186.644 78.5402 187.064 77.5352 187.724 75.9302L189.509 77.1452C188.234 79.3352 187.034 81.0752 185.924 82.3802C186.494 82.3502 187.394 82.2902 188.639 82.2152C188.399 81.5252 188.084 80.8652 187.709 80.2652L188.054 80.1302C189.824 81.0152 190.799 82.0652 190.994 83.2652C191.114 83.9552 190.934 84.4502 190.454 84.7352C190.019 85.0052 189.584 84.9002 189.119 84.4502C189.119 84.0602 189.029 83.5352 188.864 82.8902C187.349 83.4902 186.089 83.9852 185.054 84.3902C184.994 84.5102 184.934 84.5852 184.889 84.6452C186.659 84.6002 187.694 84.9902 187.964 85.7702C188.129 86.2202 188.009 86.5952 187.589 86.8952C187.154 87.1952 186.674 87.1802 186.149 86.8352C185.939 85.9652 185.474 85.2752 184.739 84.7652C184.649 84.8552 184.499 84.9302 184.319 84.9602L183.359 82.4402H184.034C184.394 82.4252 184.679 82.4102 184.904 82.4102C185.129 81.9602 185.504 81.1502 186.029 80.0102C185.594 80.2802 185.144 80.2202 184.679 79.8452C184.619 79.3352 184.439 78.7952 184.109 78.2102C183.794 77.6102 183.419 77.1002 182.999 76.6802V76.7102Z" fill="white"/>
<path d="M203.156 80.2803V82.5452C205.226 83.3552 206.471 84.3753 206.861 85.6053C207.131 86.3553 207.011 86.9403 206.516 87.3303C206.021 87.7053 205.481 87.6453 204.881 87.1353C204.716 86.0553 204.131 84.7503 203.156 83.2053V98.0102C203.156 98.1602 202.931 98.3253 202.481 98.5203C202.046 98.7153 201.611 98.8053 201.176 98.8053H200.636V87.0152C199.661 89.0102 198.431 90.7953 196.961 92.3553L196.571 91.9953C198.266 89.1303 199.466 85.2302 200.156 80.2952H197.051L196.826 79.4703H200.636V72.6302L203.156 73.0052V79.4853H207.401V80.3103H203.156V80.2803ZM220.766 92.1302H222.971V93.2253H220.766V95.8802C220.766 96.8252 220.556 97.5153 220.151 97.9503C219.731 98.4003 218.861 98.6853 217.526 98.8053C217.466 98.0103 217.286 97.4852 216.986 97.2152C216.596 96.8252 215.906 96.5703 214.916 96.4503V96.0302C216.476 96.1502 217.436 96.1952 217.766 96.1952C218.126 96.1952 218.306 96.0003 218.306 95.6253V93.2253H209.621V97.9803C209.621 98.1303 209.411 98.2953 208.976 98.4903C208.541 98.7003 208.091 98.8053 207.626 98.8053H207.236V93.2403H205.001L204.776 92.4153H207.236V84.9002H212.741V82.8303H205.781L205.556 82.0352H209.741V79.5753H207.371L207.146 78.7503H209.741V76.4553H206.381L206.156 75.6302H209.741V72.7503L212.081 73.0653V75.6302H215.336V72.7503L217.706 73.0653V75.6302H222.791V76.4553H217.706V78.7503H222.206V79.5753H217.706V82.0352H223.211V82.8303H215.066V84.9002H220.751V92.1302H220.766ZM212.741 85.7103H209.636V88.5152H212.741V85.7103ZM209.636 89.3253V92.4002H212.741V89.3253H209.636ZM212.096 76.4703V78.7652H215.351V76.4703H212.096ZM212.096 79.5753V82.0352H215.351V79.5753H212.096ZM218.321 85.7103H215.096V88.5152H218.321V85.7103ZM215.096 92.4153H218.321V89.3403H215.096V92.4153Z" fill="white"/>
<path d="M126.372 108.69V109.515H111.582C110.787 110.955 109.962 112.215 109.092 113.31L119.007 113.565H122.037V126.93C122.037 128.01 121.797 128.79 121.302 129.3C120.837 129.825 119.817 130.17 118.242 130.32C118.152 129.375 117.927 128.715 117.567 128.34C117.132 127.905 116.307 127.59 115.077 127.38V126.99C117.072 127.125 118.287 127.185 118.692 127.185C118.932 127.185 119.097 127.14 119.172 127.05C119.262 126.96 119.307 126.81 119.307 126.6V123.21H109.332V129.51C109.332 129.51 109.242 129.675 109.077 129.795C108.912 129.93 108.642 130.05 108.282 130.155C107.922 130.275 107.532 130.32 107.127 130.32H106.677V116.04C104.787 117.93 102.717 119.445 100.437 120.585L100.152 120.24C103.587 117.675 106.392 114.09 108.582 109.5H100.722L100.497 108.675H108.942C109.662 107.04 110.217 105.465 110.607 103.98L113.382 105.195C112.992 106.5 112.527 107.655 112.032 108.675H126.357L126.372 108.69ZM119.337 114.345H109.362V117.93H119.337V114.345ZM109.362 122.37H119.337V118.755H109.362V122.37Z" fill="white"/>
<path d="M152.562 120.945V122.22C151.392 123.675 149.952 124.92 148.242 125.985C151.017 126.885 154.512 127.425 158.727 127.575V127.92C157.647 128.22 156.987 129.045 156.717 130.38C152.172 129.765 148.662 128.67 146.172 127.125C142.677 128.82 138.282 129.9 132.942 130.35L132.777 129.9C137.502 129.075 141.432 127.755 144.567 125.97C143.397 124.995 142.452 123.87 141.747 122.61C139.197 124.605 136.422 126.06 133.407 126.96L133.182 126.57C134.922 125.685 136.587 124.53 138.207 123.09C139.842 121.635 141.117 120.195 142.017 118.74C141.567 118.62 141.267 118.44 141.117 118.17C140.967 117.885 140.892 117.465 140.892 116.895V112.905L143.127 113.22V116.475C143.127 116.64 143.172 116.76 143.262 116.82C143.382 116.865 143.637 116.88 144.057 116.88H146.517C147.792 116.88 148.542 116.88 148.752 116.85C149.052 116.82 149.247 116.73 149.352 116.625C149.562 116.355 149.817 115.725 150.147 114.705H150.492L150.582 116.655C151.152 116.85 151.437 117.135 151.437 117.525C151.437 118.02 151.092 118.365 150.387 118.575C149.712 118.77 148.362 118.86 146.337 118.86H143.772L144.537 119.7C144.162 120.315 143.862 120.75 143.637 120.975H152.592L152.562 120.945ZM154.767 111.735H136.812C136.797 112.515 136.632 113.175 136.332 113.745C136.047 114.315 135.687 114.72 135.237 114.99C134.847 115.26 134.412 115.35 133.932 115.275C133.482 115.185 133.182 114.93 133.032 114.51C132.792 113.82 133.092 113.235 133.962 112.785C134.502 112.5 134.982 112.05 135.372 111.435C135.792 110.82 135.987 110.145 135.972 109.425H136.422C136.587 109.965 136.707 110.475 136.767 110.925H139.992C139.752 110.865 139.527 110.745 139.317 110.55C139.257 109.47 138.792 108.42 137.907 107.385L138.162 107.22C137.082 107.235 136.032 107.235 134.997 107.22L134.907 106.68C138.087 106.47 141.477 106.11 145.077 105.6C148.692 105.075 151.602 104.535 153.807 103.995L156.117 106.395C155.817 106.68 155.277 106.635 154.512 106.275C151.512 106.635 148.107 106.89 144.282 107.07C145.902 107.61 146.802 108.375 146.967 109.335C147.087 109.98 146.877 110.445 146.337 110.745C145.797 111.06 145.242 110.97 144.672 110.46C144.672 109.365 144.282 108.24 143.517 107.1C141.177 107.175 139.422 107.22 138.237 107.22C140.127 107.655 141.222 108.36 141.522 109.335C141.687 109.935 141.522 110.415 141.042 110.745C140.922 110.82 140.817 110.88 140.697 110.91H149.397C150.252 109.44 150.912 108.045 151.377 106.725L153.702 108.075C152.847 109.155 151.782 110.085 150.507 110.895H157.662V112.2C156.657 113.01 155.457 113.715 154.047 114.285C155.322 115.005 155.997 115.86 156.057 116.865C156.072 117.525 155.817 117.96 155.292 118.2C154.857 118.365 154.392 118.29 153.882 117.975C153.672 117.225 153.237 116.415 152.547 115.575C151.872 114.72 151.137 114.015 150.372 113.46L150.627 113.235C151.797 113.43 152.817 113.715 153.687 114.105C154.077 113.415 154.452 112.62 154.797 111.735H154.767ZM138.762 113.205L139.212 113.235C139.527 114.495 139.512 115.575 139.122 116.49C138.747 117.375 138.207 117.975 137.517 118.305C137.097 118.53 136.662 118.59 136.182 118.5C135.732 118.41 135.432 118.17 135.312 117.795C135.102 117.06 135.432 116.49 136.302 116.07C136.902 115.86 137.457 115.5 137.937 114.975C138.432 114.45 138.702 113.865 138.762 113.22V113.205ZM149.502 121.77H142.722C142.722 121.77 142.602 121.89 142.557 121.935C142.497 121.98 142.422 122.025 142.332 122.1C142.257 122.16 142.197 122.205 142.167 122.235C143.127 123.345 144.402 124.29 145.977 125.055C147.402 124.08 148.587 122.97 149.517 121.74L149.502 121.77ZM143.592 112.56L143.817 112.305C146.037 112.29 147.447 112.77 148.062 113.775C148.422 114.36 148.407 114.87 148.002 115.305C147.567 115.77 147.012 115.845 146.337 115.5C146.127 114.975 145.767 114.435 145.242 113.895C144.717 113.325 144.162 112.89 143.607 112.56H143.592Z" fill="white"/>
<path d="M168.777 120.195H169.197C169.632 121.455 169.797 122.58 169.677 123.555C169.557 124.53 169.332 125.325 168.972 125.925C168.612 126.525 168.177 126.99 167.637 127.305C167.172 127.605 166.662 127.725 166.137 127.65C165.612 127.575 165.252 127.305 165.057 126.855C164.787 126.06 165.117 125.43 166.017 124.935C166.767 124.56 167.427 123.93 167.967 123.075C168.507 122.22 168.777 121.245 168.762 120.195H168.777ZM165.777 110.04L165.522 109.245H176.352V104.13L179.097 104.475V109.26H190.482V110.055H179.097V115.2H189.252V116.025H167.427L167.202 115.2H176.367V110.055H165.792L165.777 110.04ZM184.602 123.33L184.662 126.84C185.382 127.065 185.742 127.44 185.742 127.935C185.742 128.37 185.562 128.685 185.202 128.895C184.857 129.12 184.227 129.285 183.282 129.405C182.337 129.525 180.972 129.57 179.187 129.57H175.572C174.132 129.57 173.187 129.405 172.722 129.06C172.272 128.745 172.047 128.085 172.047 127.11V119.445L174.702 119.76V126.57C174.702 126.795 174.777 126.945 174.927 127.02C175.077 127.095 175.452 127.14 176.037 127.14H179.427C181.092 127.14 182.067 127.14 182.367 127.11C182.727 127.095 182.982 126.96 183.132 126.72C183.357 126.375 183.747 125.25 184.287 123.33H184.632H184.602ZM174.852 117.615L175.107 117.39C178.047 117.825 179.982 118.8 180.927 120.3C181.467 121.17 181.542 121.92 181.122 122.565C180.747 123.15 180.177 123.285 179.427 122.985C179.352 122.955 179.277 122.91 179.202 122.865C178.902 121.98 178.332 121.05 177.477 120.06C176.652 119.085 175.767 118.26 174.852 117.6V117.615ZM184.122 119.955L184.407 119.73C187.497 120.675 189.507 122.055 190.452 123.885C191.022 124.995 191.067 125.925 190.617 126.69C190.227 127.335 189.657 127.515 188.922 127.23C188.712 127.155 188.517 127.035 188.322 126.885C188.157 125.73 187.662 124.53 186.852 123.27C186.042 121.995 185.127 120.885 184.107 119.955H184.122Z" fill="white"/>
<path d="M222.689 122.025H212.309C213.569 123.21 215.204 124.275 217.229 125.19C219.239 126.12 221.264 126.795 223.274 127.23L223.244 127.575C222.194 127.77 221.504 128.49 221.204 129.75C219.194 128.97 217.334 127.935 215.639 126.615C213.959 125.28 212.579 123.75 211.514 122.04H211.289V129.705C211.289 129.705 211.169 129.84 211.004 129.93C210.854 130.05 210.599 130.14 210.239 130.215C209.879 130.305 209.489 130.35 209.084 130.35H208.604V123.57C205.799 126.21 202.034 128.25 197.294 129.675L197.069 129.285C198.929 128.415 200.699 127.35 202.349 126.06C204.014 124.785 205.409 123.435 206.534 122.04H197.774L197.519 121.245H208.604V118.47H200.489L200.264 117.675H208.604V115.08H199.109L198.854 114.255H205.889C205.724 114.135 205.619 114.075 205.604 114.06C205.529 112.86 204.989 111.63 203.999 110.385H197.474L197.249 109.59H206.489V104.1L208.889 104.415V109.59H211.229V104.1L213.659 104.415V109.59H214.529C215.429 108.12 216.224 106.485 216.899 104.67L219.164 105.825C218.144 107.235 216.839 108.495 215.264 109.59H222.974V110.385H215.024L217.034 110.985L215.939 111.495C215.054 112.47 213.989 113.4 212.744 114.27H221.534V115.095H211.274V117.69H220.184V118.485H211.274V121.26H222.659V122.055L222.689 122.025ZM200.384 105.015L200.669 104.82C202.874 105.33 204.209 106.2 204.689 107.415C204.974 108.15 204.884 108.75 204.404 109.2C203.909 109.665 203.324 109.68 202.649 109.23C202.514 108.48 202.244 107.73 201.824 106.965C201.404 106.185 200.924 105.54 200.384 105.015ZM213.494 110.385H205.349C206.279 110.76 206.954 111.225 207.389 111.765C207.824 112.29 208.004 112.785 207.959 113.235C207.899 113.67 207.704 114.015 207.359 114.255H211.799C212.459 113.055 213.029 111.765 213.494 110.385Z" fill="white"/>
</svg>
