<svg width="1280" height="110" viewBox="0 0 1280 110" fill="none" xmlns="http://www.w3.org/2000/svg">
<path d="M103.995 38.49H87.165C82.815 45.135 77.31 50.97 70.785 56.01C82.125 59.445 95.07 61.74 109.155 62.88C105.495 66.78 100.8 74.34 98.505 79.035C95.295 78.57 92.085 78.12 88.995 77.55V108.705H71.82V105.615H38.025V109.05H21.765V78.12C17.19 79.26 12.495 80.295 7.785 81.09C6.3 76.86 2.865 69.975 0 66.315C13.17 64.485 26.115 61.395 37.455 57.045C34.935 55.095 32.535 53.145 30.12 50.97C26.565 53.025 22.68 54.975 18.435 56.925C16.26 53.025 11.1 47.07 7.56 44.445C12.72 42.72 17.175 40.665 21.195 38.49H5.61V10.995H45.705V0L66.315 1.14C66.195 2.4 65.28 3.195 62.88 3.54V10.995H103.995V38.49ZM21.87 25.995V38.13C28.395 34.47 33.33 30.345 37.11 25.995H21.87ZM38.025 92.085H71.82V86.25H38.025V92.085ZM69.06 72.735C63.675 71.01 58.515 68.955 53.595 66.66C49.125 68.955 44.43 70.905 39.51 72.735H69.06ZM43.065 41.805L42.6 42.15C45.81 44.79 49.47 47.07 53.595 49.245C57.255 46.95 60.585 44.43 63.555 41.805H43.05H43.065ZM86.925 33.675V25.995H59.445C59.1 27.255 57.96 27.945 56.13 27.945L54.87 29.55H75.255L77.895 28.86L86.94 33.675H86.925Z" fill="white"/>
<path d="M143.61 44.445V81.09C149.445 91.965 160.56 91.965 182.67 91.965C196.41 91.965 212.685 91.5 224.13 90.48C222.3 94.26 219.78 101.94 218.97 106.635C210.03 107.1 197.775 107.43 186.33 107.43C158.385 107.43 146.355 107.205 136.62 94.71C132.27 98.955 127.8 102.96 123.9 106.17C123.9 107.655 123.45 108.225 122.19 108.81L114.285 91.29C118.53 88.77 123.225 85.56 127.68 82.245V59.79H115.77V44.445H143.595H143.61ZM128.505 3.09C134.805 8.13 142.71 15.57 146.37 20.955L132.63 31.38C129.54 25.995 121.98 18.09 115.8 12.48L128.52 3.09H128.505ZM174.66 90.255V83.73H146.49V71.94H174.66V69.075H153.24V34.71H174.66V32.07H150.615V20.85H174.66V14.895L194.13 15.93C194.01 17.19 193.095 17.985 190.815 18.33V20.85H215.55V32.07H190.815V34.71H212.925V69.075H190.815V71.94H220.71V83.73H190.815V90.255H174.66ZM162.06 13.98V18.555H147.51V2.295H219.66V18.555H204.42V13.98H162.045H162.06ZM167.325 44.565V47.31H174.66V44.565H167.325ZM167.325 59.22H174.66V56.475H167.325V59.22ZM198.135 44.565H190.8V47.31H198.135V44.565ZM198.135 59.22V56.475H190.8V59.22H198.135Z" fill="white"/>
<path d="M233.865 4.125H333.39V109.035H317.13V105.255H249.435V109.035H233.865V4.125ZM249.435 90.375H317.13V69.99C316.56 70.56 315.405 70.785 314.145 70.56C312.09 71.82 308.985 73.65 306.015 75.375C309.45 76.755 313.11 77.895 316.785 78.69C314.04 81.09 310.26 85.905 308.43 88.995C301.335 86.82 294.69 83.16 288.96 78.69V88.305H274.41V79.26C269.025 82.125 263.295 84.645 257.685 86.595C255.975 83.955 252.075 79.155 249.675 76.74C258.03 74.34 266.85 70.665 273.84 66.09H259.185V47.31H306.6V62.43L317.13 69.765V19.005H249.435V90.36V90.375ZM314.145 35.85V44.79H252.3V35.85H275.67V33.105H257.685V24.405H275.67V19.83L294 20.865C293.88 22.005 292.965 22.695 290.685 23.16V24.42H308.775V33.12H290.685V35.865H314.16L314.145 35.85ZM292.155 58.41V54.855H272.805V58.41H292.155ZM292.95 66.09L291.81 67.125C293.07 68.265 294.555 69.3 296.055 70.215C297.885 68.955 299.955 67.575 301.785 66.09H292.965H292.95Z" fill="white"/>
<path d="M451.814 89.91V104.91H365.804V108.915H349.544V3.55499H448.619V18.09H365.804V89.91H451.814ZM370.949 85.905V54.06H403.589V85.905H370.949ZM428.789 22.11V50.625H382.289V22.11H428.789ZM384.239 64.95V75.03H389.504V64.95H384.239ZM412.304 39.975V32.64H397.754V39.975H412.304ZM440.594 54.06V85.905H407.264V54.06H440.594ZM426.389 75.015V64.935H420.779V75.015H426.389Z" fill="white"/>
<path d="M575.265 58.065L585.45 61.725C585.105 62.76 584.655 63.105 584.07 63.78C581.55 73.395 577.425 81.765 571.935 88.635C577.44 91.845 583.62 94.245 590.715 95.85C587.28 98.835 582.93 104.895 580.86 108.795C573.42 106.62 566.88 103.41 561.165 99.405C556.245 103.305 550.74 106.5 544.56 109.02C542.835 105.465 539.295 100.08 536.31 96.885V108.915H520.395V99.63C509.055 100.89 498.18 102.15 490.5 102.84C490.275 103.98 489.36 104.565 488.445 104.67L483.975 89.1C486.72 88.98 489.93 88.875 493.485 88.635V55.875H483.87V42.825H589.59V55.875H536.325V95.955C541.245 94.23 545.835 91.83 549.84 88.86C546.06 84.285 542.97 79.125 540.33 73.395L549.03 70.995H538.38V58.515H572.625L575.265 58.05V58.065ZM574.35 3.78V39.975H499.095V3.78H574.35ZM520.41 55.89H508.62V58.635H520.41V55.89ZM508.62 69.87V72.96H520.41V69.87H508.62ZM508.62 87.855L520.41 87.06V84.195H508.62V87.855ZM557.64 16.965V14.22H515.04V16.965H557.64ZM557.64 29.565V26.7H515.04V29.565H557.64ZM554.325 71.025C555.81 73.89 557.76 76.53 559.935 79.035C561.885 76.515 563.49 73.875 564.975 71.025H554.325Z" fill="#FFFF00"/>
<path d="M696.435 79.14H692.775C698.28 86.58 703.65 95.97 705.72 102.735L691.41 109.5C690.84 107.325 689.925 104.685 688.77 101.94C671.25 103.2 653.73 104.34 641.925 104.91C641.58 106.05 640.545 106.635 639.525 106.74L634.83 88.995C641.7 88.995 650.64 88.77 660.48 88.53V79.14H641.235V44.775H660.48V36.645C653.49 36.99 647.085 37.215 641.805 37.44C641.58 38.58 640.545 39.27 639.51 39.27L635.385 23.46V48.195H619.575V44.88H614.19C613.965 47.97 613.725 51.06 613.395 54.15H623.82L627.135 53.925L635.61 54.84L635.265 59.31C634.005 87.255 632.625 98.94 629.31 103.065C624.96 108.57 619.8 109.02 605.835 108.795C605.61 104.22 603.765 97.92 601.26 93.795C605.73 94.14 610.08 94.26 612.255 94.26C613.98 94.26 615.12 94.035 616.26 92.775C617.985 90.945 618.9 84.075 619.695 68.385H612.015L611.445 72.855L597.135 70.68C598.74 60.03 600.225 43.65 600.795 30.48H619.575V19.14H598.5V3.77998H635.385V22.11H645.12C649.245 15.465 653.25 6.88498 655.65 0.11998L674.895 5.50498C674.445 6.53998 673.185 6.98998 671.34 7.10998C669.045 11.685 665.73 17.19 662.4 22.11L680.385 21.885C678.9 19.83 677.295 17.76 675.81 15.93L689.55 9.50998C696.075 16.95 703.41 26.925 706.38 34.365L691.485 41.355C690.915 39.525 689.88 37.455 688.74 35.28C682.095 35.625 675.345 35.85 668.925 36.195V36.315L679.695 36.885C679.575 38.145 678.66 38.835 676.38 39.285V44.79H696.42V79.155L696.435 79.14ZM655.545 65.505H660.465V58.515H655.545V65.505ZM681.435 58.515H676.395V65.505H681.435V58.515ZM676.395 88.185L681.435 88.065C680.4 86.58 679.485 84.975 678.45 83.595L688.185 79.125H676.395V88.17V88.185Z" fill="#FFFF00"/>
<path d="M748.08 72.045V73.08C751.635 75.03 761.25 81.435 763.77 83.28L754.5 95.07C752.895 93.24 750.495 90.825 748.08 88.425V108.93H731.925V91.29C728.265 95.865 724.365 99.885 720.465 102.975C717.945 99.42 713.13 94.035 709.695 91.29C716.91 86.82 724.35 79.5 729.39 72.045H713.01V58.185H731.91V51.54H711.75V38.025H721.71C721.02 34.365 719.76 30.345 718.395 27.03L725.61 24.855H714.045V11.46H731.91V0.11998L751.38 1.15498C751.26 2.41498 750.345 3.20998 748.065 3.55498V11.46H765.135V24.855H755.745L764.445 27.03C764.1 27.945 763.065 28.41 761.235 28.515C760.095 31.38 758.37 34.815 756.66 38.025H767.535V51.54H751.155C750.705 52.23 749.775 52.8 748.065 53.025V58.185H765.705V72.045H748.065H748.08ZM742.47 38.025C743.955 34.125 745.56 29.085 746.595 24.855H731.7C733.65 29.205 735.135 34.245 735.705 38.025H742.455H742.47ZM820.125 37.68V53.025H810.165V108.915H794.01V53.025H785.76C785.415 69.855 782.67 94.02 768.12 109.26C766.065 105.6 760.11 99.87 756.33 97.92C768.81 84.18 769.965 65.055 769.965 49.815V10.53L777.75 12.705C787.605 9.26998 797.685 4.57498 803.865 0.22498L819.21 12.015C818.4 12.81 817.035 12.81 815.655 12.81C807.87 16.935 796.65 21.285 785.76 24.495V37.665H820.125V37.68Z" fill="#FFFF00"/>
<path d="M924.45 5.83501L935.1 9.73501C934.98 10.53 934.635 11.34 933.96 11.91C930.87 21.765 927.09 33.435 922.5 45.585C931.785 57.15 934.635 64.935 934.635 71.925C934.635 95.175 918.945 95.175 908.985 94.83C908.865 90.48 907.035 83.835 904.515 79.365V108.795H888.135V16.5C885.615 22.575 882.75 28.41 879.54 33.915H885.15V48.225H869.91C868.08 50.52 866.25 52.695 864.42 54.75H881.94V108.015H866.25V104.115H851.7V109.035H836.7V76.965C835.32 77.76 833.955 78.57 832.455 79.26C830.73 75.705 826.725 69.06 824.1 65.865C828.45 63.915 832.695 61.515 836.7 58.875V54.75H842.31C844.95 52.695 847.35 50.505 849.75 48.225H826.845V33.915H845.28V25.215H831.3V10.995H845.28V0.570007L863.955 1.60501C863.835 2.74501 862.92 3.55501 860.64 3.90001V10.995H870.495V19.125C872.325 15.345 873.93 11.445 875.31 7.44001L888.135 11.565V6.40501H921L924.435 5.83501H924.45ZM866.265 72.945V67.785H851.715V72.945H866.265ZM851.715 90.93H866.265V85.32H851.715V90.93ZM860.655 33.9H861.915C863.865 31.155 865.695 28.17 867.3 25.2H860.655V33.9ZM904.515 21.99V78.795C907.26 79.02 909.675 79.02 911.265 79.02C916.995 79.02 918.135 76.38 918.135 71.115C918.135 65.505 915.045 59.325 905.655 48.435C908.64 38.82 911.16 30 913.215 21.975H904.515V21.99Z" fill="#FFFF00"/>
<path d="M938.88 80.175C945.18 70.44 948.27 56.46 949.755 40.89L966.135 44.205C964.41 60.465 961.785 77.655 954.57 89.1L938.88 80.16V80.175ZM971.175 33.33L992.025 34.47C991.905 35.73 990.99 36.525 988.59 36.99V86.475C988.59 92.205 989.16 92.895 994.08 92.895H1006.68C1011.6 92.895 1012.51 89.46 1013.32 72.51C1017.1 75.495 1024.2 78.465 1028.79 79.605C1027.06 101.025 1022.71 108.015 1008.18 108.015H991.68C975.525 108.015 971.175 102.75 971.175 86.49V33.33ZM1008.97 35.625C1000.27 27.945 984.69 18.795 971.295 13.41L982.17 0.464996C995.565 5.28 1010.92 13.98 1020.07 20.97L1008.96 35.625H1008.97ZM1033.95 85.215C1031.77 73.65 1024.09 56.13 1015.17 43.635L1030.51 35.955C1040.13 48.33 1048.15 64.815 1050.9 76.725L1033.95 85.2V85.215Z" fill="#FFFF00"/>
<path d="M1095.55 49.14L1097.16 63.45C1093.26 64.71 1089.37 65.85 1085.47 67.005V91.515C1085.47 104.565 1081.57 108.69 1061.19 108.69C1060.72 104.445 1058.67 97.695 1056.72 93.45C1060.72 93.675 1065.42 93.675 1066.92 93.675C1068.52 93.555 1069.09 93.105 1069.09 91.5V71.685C1066.11 72.6 1063.26 73.29 1060.84 73.98C1060.62 75.24 1059.58 76.035 1058.55 76.275L1053.85 57.495C1058.1 56.805 1063.24 55.77 1069.09 54.63V35.955H1055.8V20.61H1069.09V0.12L1088.91 0.915C1088.79 2.295 1087.87 3.21 1085.47 3.555V20.61H1096.12V35.955H1085.47V51.195L1095.55 49.14ZM1156.6 16.5C1156.03 17.07 1155 17.07 1153.39 17.07C1143.54 21.075 1129.11 24.855 1115.83 27.495C1115.83 34.935 1115.83 35.28 1123.51 35.28H1141.03C1146.54 35.28 1147.56 33.45 1148.37 22.8C1151.8 25.2 1158.79 27.72 1163.26 28.635C1161.31 45.465 1156.62 49.935 1142.41 49.935H1121.68C1103.94 49.935 1099.35 45.36 1099.35 30.465V0L1119.28 1.035C1119.16 2.295 1118.14 3.09 1115.85 3.435V13.965C1126.38 11.1 1136.7 7.545 1143.91 4.005L1156.62 16.485L1156.6 16.5ZM1101.06 108.93V55.095H1155.91V108.36H1139.41V104.805H1116.73V108.93H1101.04H1101.06ZM1139.43 68.85H1116.75V73.32H1139.43V68.85ZM1116.75 91.065H1139.43V86.37H1116.75V91.065Z" fill="#FFFF00"/>
<path d="M1204.01 75.705C1202.87 72.39 1200.92 68.025 1198.97 63.57V108.93H1183.97V71.475C1181.45 78.345 1178.7 84.42 1175.49 89.115C1174.11 84.645 1170.68 78.24 1168.4 74.34C1174.7 65.64 1180.08 51.21 1182.83 38.61H1171.26V23.25H1183.98V0.119995L1202.31 1.155C1202.19 2.295 1201.28 2.985 1199 3.45V23.25H1209.54V38.595H1199V42.495C1202.21 46.965 1210.68 60.705 1212.51 63.915L1204.04 75.705H1204.01ZM1251.65 81.66V94.83C1251.65 101.01 1250.73 104.685 1246.73 106.86C1242.83 108.915 1238.03 109.035 1232.18 109.035C1231.61 104.91 1229.66 99.525 1227.93 95.745C1224.27 99.87 1219.92 104.1 1215.68 107.085C1213.38 103.995 1208.93 99.645 1205.6 97.005C1211.21 93.345 1217.04 87.15 1220.6 81.765L1234.8 89.445C1234.46 90.135 1233.54 90.585 1232.16 90.48C1231.02 92.085 1229.52 93.915 1227.92 95.745C1230.56 95.97 1233.87 95.97 1234.79 95.865C1235.93 95.865 1236.27 95.64 1236.27 94.605V81.66H1210.04V68.61H1278.06V81.66H1251.6H1251.65ZM1229.09 17.64H1210.65V4.575H1277.76V17.64H1258.29V21.54H1274.77V51.78H1213.73V21.525H1229.07V17.625L1229.09 17.64ZM1217.63 66.195V54.405H1271.81V66.195H1217.63ZM1227.24 39.96H1230.8V33.315H1227.24V39.96ZM1241.67 33.315V39.96H1245.57V33.315H1241.67ZM1245.57 17.625H1241.79V21.525H1245.57V17.625ZM1264.25 81.87C1269.51 86.685 1276.16 93.555 1279.14 98.475L1266.66 107.07C1264.02 102.255 1257.72 94.815 1252.58 89.55L1264.26 81.87H1264.25ZM1260.59 33.315H1256.46V39.96H1260.59V33.315Z" fill="#FFFF00"/>
</svg>
