<svg width="718" height="96" viewBox="0 0 718 96" fill="none" xmlns="http://www.w3.org/2000/svg">
<path d="M89.3877 61.7895H129.093V67.0395H89.3877V61.7895ZM127.833 35.4196V40.5496H90.8127V35.4196H106.368V27.7695L113.058 28.1145C113.013 28.5495 112.668 28.8045 111.843 28.9845V35.4196H127.833ZM101.208 42.1095C103.083 47.5395 104.388 54.3646 104.733 59.0146C104.598 59.0146 104.523 59.0145 99.3027 60.3645C99.1677 55.8045 97.8627 48.7695 96.2127 43.4295L101.208 42.1245V42.1095ZM123.798 43.5045C123.618 43.8945 123.108 44.1945 122.403 44.2395C121.233 49.6245 118.923 56.7045 117.018 61.1445L112.158 59.7045C113.988 54.9645 115.803 47.5395 116.718 41.8995L123.798 43.5045Z" fill="white"/>
<path d="M142.608 59.045C144.348 58.7 146.133 58.31 147.948 57.92C147.078 56.525 146.118 55.175 145.173 53.96L149.253 51.8299C152.073 55.2649 155.163 59.915 156.378 63.125L151.953 65.555C151.608 64.505 151.038 63.335 150.393 62.075C145.578 63.47 140.748 64.76 137.493 65.645C137.403 66.08 137.103 66.3799 136.803 66.4699L134.763 60.5599C135.633 60.4249 136.593 60.215 137.673 60.035V29.93H154.008V51.44H142.623V59.045H142.608ZM149.163 34.76H142.608V38.3299H149.163V34.76ZM142.608 46.625H149.163V42.98H142.608V46.625ZM174.108 29.855V56.36C174.108 61.4 172.113 62.5249 165.588 62.5249C165.408 60.9649 164.583 58.355 163.803 56.885C164.838 56.975 165.888 56.975 166.713 56.975C168.498 56.975 168.663 56.9749 168.663 56.2399V35.12H162.453V68.75H157.113V29.87H174.093L174.108 29.855Z" fill="white"/>
<path d="M220.066 36.8446V60.0346H200.566V36.8446H206.731L207.256 33.8896H198.961V32.1046H198.871C197.356 34.5796 195.046 37.6246 192.751 39.9646C193.801 40.6996 194.701 41.4047 195.406 42.0497L194.281 43.5647H197.761L200.326 43.7447C199.456 47.6597 198.421 51.5146 196.981 55.2496C193.411 53.8996 193.336 53.8546 193.246 53.8546C193.726 52.3396 194.296 50.2547 194.806 48.1697H192.241V63.1996C192.241 67.2346 191.071 68.8097 183.466 68.6747C183.241 67.2347 182.596 65.1047 181.906 63.7247C183.781 63.7697 185.821 63.7696 186.421 63.7696C187.036 63.7246 187.201 63.5896 187.201 63.1246V48.1846H180.691V43.5796H189.856C187.636 41.9296 184.816 40.2347 182.386 39.0647L184.996 35.6296C186.256 36.1996 187.651 36.9347 189.031 37.6697C189.991 36.6197 190.981 35.3597 191.851 34.0997H181.591V29.5847H195.361L196.141 29.3296L198.961 31.0246V29.5097H221.596V33.8896H212.731C212.476 34.8046 212.161 35.7946 211.816 36.8446H220.066ZM209.296 62.8246C209.116 63.0046 208.861 63.0796 208.516 63.1246C206.566 65.0746 202.516 67.5496 199.096 68.8546C198.271 67.8946 196.756 66.3346 195.661 65.4646C199.006 64.2496 202.876 61.8946 204.781 60.0346L209.296 62.8096V62.8246ZM215.071 43.4446V40.6697H205.291V43.4446H215.071ZM215.071 49.7896V47.0146H205.291V49.7896H215.071ZM215.071 56.2247V53.4047H205.291V56.2247H215.071ZM218.326 68.8246C216.811 67.2196 213.541 64.6546 211.066 62.9146L214.936 60.2597C217.366 61.8647 220.666 64.2496 222.406 65.9146L218.326 68.8246Z" fill="white"/>
<path d="M263.943 35.5848L266.718 35.7648C266.718 36.1998 266.673 36.8898 266.628 37.4598C266.103 57.0948 265.578 63.9198 263.883 66.1398C262.488 68.0898 260.928 68.7048 256.413 68.7048C255.243 68.7048 254.028 68.6598 252.813 68.6148C252.723 67.2198 252.078 65.0898 251.163 63.7098C253.893 63.9198 256.368 63.9199 257.508 63.9199C258.378 63.9199 258.858 63.7848 259.383 63.1848C260.643 61.8798 261.123 55.5348 261.558 40.5498H250.653C249.603 42.8598 248.433 44.9448 247.218 46.6248C246.303 45.8448 244.563 44.6299 243.273 43.9399C244.788 46.2799 246.183 48.8448 246.798 50.7648C245.328 51.5448 244.068 52.2349 242.808 52.9399C242.628 52.2949 242.328 51.4998 241.983 50.6748L238.728 50.8849V68.7348H233.943V54.8748C233.808 55.1298 233.463 55.2198 233.073 55.1748C232.548 58.7748 231.558 62.9449 230.253 65.5999C229.293 64.9549 227.508 64.1298 226.383 63.6948C227.598 61.3098 228.378 57.1848 228.813 53.4348L233.943 54.6948V51.1699C231.813 51.3049 229.953 51.3798 228.378 51.4698C228.243 51.8598 227.898 52.0398 227.553 52.0848L226.548 46.8648H229.713C230.448 45.9498 231.228 44.9898 232.023 43.9548C230.673 42.1698 228.543 40.0398 226.728 38.4798L229.113 34.9098L230.073 35.6899C231.588 33.2149 233.118 30.1698 233.988 27.7398L239.193 29.8698C239.013 30.2148 238.578 30.3949 238.023 30.3499C236.808 32.7799 234.768 35.9898 233.073 38.3898C233.733 39.0348 234.288 39.6498 234.768 40.2198C236.553 37.6548 238.158 35.0449 239.373 32.7949L244.458 35.1349C244.248 35.4349 243.813 35.5698 243.198 35.5698C241.023 38.9598 237.723 43.2948 234.633 46.7748L240.063 46.6848C239.403 45.6048 238.758 44.5098 238.113 43.5048C239.508 42.7698 240.678 42.1998 241.803 41.6298C242.238 42.2448 242.628 42.8448 243.063 43.5048C245.793 39.8598 248.058 33.6498 249.318 27.6948L255.483 29.2548C255.348 29.6448 254.958 29.8698 254.313 29.8248C253.833 31.7298 253.278 33.6949 252.573 35.5999H262.818L263.943 35.5548V35.5848ZM241.968 63.6048C241.488 61.2648 240.228 57.5598 239.058 54.7848L243.138 53.4348C244.353 56.1648 245.703 59.6448 246.258 61.9998L241.953 63.6048H241.968ZM251.523 45.6648C253.788 48.7098 256.308 52.7448 257.208 55.5198L252.648 57.8598C251.868 55.1598 249.513 50.9148 247.308 47.7798L251.523 45.6498V45.6648Z" fill="white"/>
<path d="M273.018 68.87C274.098 65.57 275.103 61.1749 275.628 57.7549L282.663 57.23C281.358 61.1 279.498 65.5699 277.668 68.4349L273.018 68.87Z" fill="white"/>
<path d="M307.818 47.5851V58.6251C310.593 63.0951 315.948 63.0951 323.463 63.0951C328.458 63.0951 334.458 62.9601 338.493 62.6151C337.923 63.8301 337.098 66.2601 336.843 67.7901C333.633 67.9701 329.073 68.0451 324.813 68.0451C315.348 68.0451 309.738 68.0451 305.613 63.0051C303.708 64.7001 301.743 66.3951 300.093 67.7001C300.093 68.2251 299.958 68.4351 299.478 68.6151L296.868 63.0051C298.698 61.8801 300.813 60.4401 302.733 58.9701V52.4151H297.783V47.6001H307.818V47.5851ZM301.218 36.6801C303.783 37.9401 307.038 40.0251 308.598 41.6751L304.953 45.3651C303.558 43.7151 300.393 41.4501 297.828 40.0251L301.218 36.6801ZM303.048 27.9951C305.523 29.3451 308.658 31.5651 310.128 33.2001L306.393 36.7701C305.043 35.1201 302.043 32.735 299.568 31.205L303.048 27.9951ZM337.623 34.2501V37.9851H309.693V34.2501H337.623ZM334.068 61.6251H328.938V60.7101H318.033V61.6251H313.173V50.0751H334.068V61.6251ZM333.378 39.6501V43.1751H313.878V39.6501H333.378ZM313.878 48.3801V44.8551H333.378V48.3801H313.878ZM332.943 29.0451V32.5701H314.358V29.0451H332.943ZM318.048 57.1101H328.953V53.6751H318.048V57.1101Z" fill="white"/>
<path d="M343.263 56.6598C346.518 55.2648 351.648 52.7898 356.463 50.4048L357.903 55.1448C353.823 57.4398 349.473 59.8848 346.563 61.3548C346.563 61.8348 346.308 62.1798 345.948 62.3148L343.248 56.6748L343.263 56.6598ZM346.653 31.1598C349.698 32.2848 353.913 34.2048 356.043 35.6748L353.088 40.3248C351.138 38.7648 347.013 36.5897 343.878 35.3297L346.653 31.1598ZM372.453 40.6698C372.273 40.9698 371.883 41.1948 371.283 41.2848V44.8098C371.328 49.5948 373.848 59.2398 384.663 63.9648C383.658 65.2248 382.143 67.3998 381.318 68.7498C373.458 65.1048 369.333 57.3198 368.553 53.3748C367.503 57.2898 363.033 64.8798 354.168 68.7498C353.553 67.5348 351.903 65.3148 351.003 64.3698C362.868 59.5848 365.778 49.8198 365.778 44.8698V40.6998H362.823C361.473 43.9548 359.868 46.8648 358.128 49.1298C357.078 48.3048 354.918 47.1348 353.568 46.5198C357.093 42.3948 359.823 35.0148 361.218 27.7998L367.428 29.2397C367.293 29.6297 366.903 29.8548 366.258 29.8098C365.823 31.7148 365.298 33.6348 364.743 35.4948H379.338L380.118 35.1948L384.243 37.6248C384.063 37.8798 383.673 38.1498 383.283 38.1948C382.503 42.1548 380.808 46.8798 379.203 50.2698C378.123 49.6998 376.038 48.6648 374.778 48.1398C375.558 46.2648 376.473 43.4448 377.163 40.7148H372.468L372.453 40.6698Z" fill="white"/>
<path d="M412.428 47.6751L415.728 44.4201C420.288 47.1951 426.933 51.5001 430.158 54.4101L425.988 58.8051C423.168 55.9401 417.123 51.59 412.428 48.56V68.7651H406.998V47.5701C403.038 52.0851 398.223 56.21 392.703 59.255C391.968 57.95 390.273 55.865 389.268 54.74C397.518 50.57 404.433 43.1901 408.468 35.9751H390.828V30.7251H428.883V35.9751H414.978C414.063 37.7151 413.028 39.4551 411.888 41.1951L413.628 41.5851C413.538 41.9751 413.193 42.3201 412.413 42.4101V47.705L412.428 47.6751Z" fill="white"/>
<path d="M476.028 55.9252H467.478C466.353 57.9652 465.048 59.7051 463.488 61.1451C467.703 62.3151 471.528 63.4852 474.438 64.5352L471.303 68.7952C467.958 67.4452 463.533 65.9752 458.568 64.5352C453.708 66.9652 447.273 68.1352 438.678 68.7952C438.288 67.3102 437.463 65.4501 436.683 64.3251C442.413 64.1151 447.198 63.5901 451.068 62.5401C449.673 62.1951 448.248 61.8952 446.853 61.5352L446.373 62.1801L441.333 60.6202C442.368 59.3152 443.553 57.6652 444.768 55.9252H435.738V51.7102H447.603L449.598 48.5751H439.428V36.2751H448.638V33.8002H436.038V29.2852H475.743V33.8002H462.798V36.2751H472.353V48.5751H455.718L456.363 48.7551C456.183 49.1451 455.838 49.3252 455.058 49.2802L453.543 51.7102H476.043V55.9252H476.028ZM444.318 40.4151V44.4952H448.623V40.4151H444.318ZM450.753 55.9252L449.493 57.8002C452.223 58.3702 455.013 59.0152 457.743 59.6752C459.213 58.6702 460.473 57.4102 461.523 55.9402H450.753V55.9252ZM453.528 33.8152V36.2901H457.833V33.8152H453.528ZM453.528 44.4952H457.833V40.4151H453.528V44.4952ZM467.163 40.4151H462.783V44.4952H467.163V40.4151Z" fill="white"/>
<path d="M522.423 53.8849V58.6999H517.038V63.0948C517.038 68.2998 514.338 68.7799 506.568 68.7799C506.313 67.3849 505.488 65.1799 504.738 63.8749C506.178 63.9649 507.783 63.9649 508.998 63.9649C511.518 63.9649 511.818 63.9649 511.818 63.0049V58.6999H492.048V68.7799H486.873V58.6999H481.398V53.8849H486.873V37.8049H499.128V34.8949H483.183V30.1099H520.623V34.8949H504.333V37.8049H517.023V53.8849H522.408H522.423ZM499.143 42.4999H492.063V45.8899H499.143V42.4999ZM492.063 50.3149V53.8849H499.143V50.3149H492.063ZM511.833 42.4999H504.363V45.8899H511.833V42.4999ZM504.363 53.8849H511.833V50.3149H504.363V53.8849Z" fill="white"/>
<path d="M563.342 42.4998H568.473V47.0148H544.713V50.7948H538.938V60.3948L545.192 59.5248L545.447 63.8297C539.672 64.9097 533.627 65.9598 529.772 66.5598C529.727 66.9498 529.382 67.2048 528.992 67.2948L527.553 61.8647C529.458 61.6397 531.767 61.3848 534.332 61.0398V50.7948H528.287V46.3698H534.332V43.1598H530.553V42.7248L530.417 42.8598C529.637 41.7348 528.033 40.0848 526.938 39.3798C530.463 35.8548 533.103 31.2947 534.633 27.7397L540.362 28.7448C540.227 29.1348 539.928 29.3598 539.313 29.3898L539.268 29.5247C541.608 31.2647 544.442 33.4398 546.047 35.1348V32.9598H549.692V27.7548L555.512 28.0998C555.467 28.4898 555.167 28.7448 554.432 28.8798V32.9598H558.557V27.7548L564.467 28.0998C564.422 28.4898 564.122 28.7448 563.342 28.8798V32.9598H567.512V37.3548H563.342V42.5298V42.4998ZM530.327 60.4398C530.117 58.3548 529.413 55.2198 528.633 52.8348L532.022 51.8748C532.892 54.2598 533.627 57.3498 533.897 59.3448L530.327 60.4248V60.4398ZM542.747 38.8098C541.277 37.2048 539.058 35.2848 537.018 33.6798C536.058 35.3748 534.977 37.0698 533.717 38.8098H542.747ZM544.697 46.3698V42.4998H549.692V37.3248H546.047V36.3198L543.707 39.8898C543.572 39.7098 543.407 39.4998 543.227 39.3198V43.1448H538.922V46.3548H544.697V46.3698ZM545.567 53.1048C545.387 53.4048 545.042 53.5848 544.487 53.5848C544.007 55.3698 543.137 58.0098 542.357 59.7498L539.268 58.6248C539.913 56.7198 540.708 53.7648 541.053 51.7248L545.567 53.1198V53.1048ZM547.607 68.7498V49.5498H566.072V68.5698H561.122V67.0098H552.303V68.7498H547.607ZM561.122 53.7198H552.303V56.2397H561.122V53.7198ZM552.303 62.7198H561.122V60.0648H552.303V62.7198ZM558.557 37.3548H554.432V42.5298H558.557V37.3548Z" fill="white"/>
<path d="M583.756 44.7495V58.7744C586.366 63.1994 591.136 63.1994 599.131 63.1994C604.306 63.1994 610.516 63.0644 614.686 62.7194C614.086 63.9344 613.291 66.3194 613.036 67.8044C609.736 67.9844 604.951 68.0594 600.571 68.0594C590.536 68.0594 585.541 68.0595 581.581 63.0645C579.841 64.7595 578.011 66.4094 576.451 67.7144C576.496 68.2394 576.316 68.4044 575.881 68.6294L573.316 63.1545C575.011 62.0295 576.961 60.6344 578.746 59.1644V49.5645H573.841V44.7495H583.741H583.756ZM578.026 28.8495C580.501 30.7995 583.546 33.7095 584.941 35.7945L580.636 39.0495C579.421 36.9645 576.511 33.9194 574.036 31.7894L578.026 28.8345V28.8495ZM591.271 46.3994V61.5645H586.756V42.4544H590.146V29.0295H608.776V42.4544H612.121V57.0944C612.121 61.0094 610.726 61.6545 604.996 61.6545C604.816 60.5295 604.381 58.9995 603.871 57.8745H597.316V59.2245H593.581V48.2295H605.056V57.6045H606.841C607.276 57.6045 607.411 57.4695 607.411 57.0345V46.3845H591.301L591.271 46.3994ZM594.661 32.8845V42.4395H597.181V35.5695H604.081V32.8695H594.661V32.8845ZM601.261 54.5594V51.5145H597.316V54.5594H601.261ZM604.081 42.4395V38.8394H600.871V42.4395H604.081Z" fill="white"/>
<path d="M623.643 61.0551C623.643 58.7451 625.518 56.8401 627.813 56.8401C630.108 56.8401 631.938 58.7451 631.938 61.0551C631.938 63.3651 630.108 65.2701 627.813 65.2701C625.518 65.2701 623.643 63.3201 623.643 61.0551ZM625.383 53.6751L624.303 31.3101H631.518L630.468 53.6751H625.383Z" fill="white"/>
<path d="M670.411 1.59521H48.0163C22.2274 1.59521 1.32129 22.5013 1.32129 48.2902V48.3052C1.32129 74.0942 22.2274 95.0003 48.0163 95.0003H670.411C696.2 95.0003 717.106 74.0942 717.106 48.3052V48.2902C717.106 22.5013 696.2 1.59521 670.411 1.59521Z" stroke="white" stroke-width="1.605" stroke-miterlimit="10"/>
</svg>
