<svg width="164" height="42" viewBox="0 0 164 42" fill="none" xmlns="http://www.w3.org/2000/svg">
<path d="M108.85 13.1001V12.2101L110.18 12.3201C110.42 12.3401 110.55 12.4001 110.55 12.5301C110.55 12.6101 110.47 12.7401 110.31 12.9001V13.0901H113.67V15.2501H115.12V16.5201H113.67V18.6801H110.31V19.6901H113.85V20.9601H110.31V21.9801H114.24V23.3101H110.31V25.1001C111.17 25.1301 112.14 25.1501 113.21 25.1501C113.7 25.1501 114.33 25.1301 115.11 25.0901L114.41 26.6801C111.55 26.6801 109.38 26.5801 107.86 26.4201C106.61 26.2901 105.59 26.0801 104.79 25.8001C104.19 25.5901 103.66 25.3301 103.2 25.0401C102.66 25.7701 102.02 26.3901 101.24 26.8701L100.17 25.7201C100.92 25.3301 101.55 24.7901 102.03 24.1101C101.51 23.5901 100.98 22.8001 100.41 21.7201L101.56 21.2801C102 21.9401 102.4 22.4601 102.76 22.8501C103.15 21.9601 103.41 20.7101 103.52 19.1201H102.19L101.67 20.1901L100.41 19.7501L102.89 14.5601H100.47V13.2301H103.19L103.58 13.1001C103.71 13.1001 103.82 13.1501 103.96 13.2301L104.75 13.7201C104.85 13.7901 104.91 13.8701 104.91 13.9301C104.91 14.0801 104.78 14.2201 104.52 14.3701L102.83 17.7901H104.91C104.81 20.3901 104.51 22.3201 103.98 23.5501C103.95 23.6501 103.9 23.7301 103.87 23.7901C104.58 24.2401 105.38 24.5501 106.27 24.7201C106.84 24.8701 107.7 24.9601 108.83 25.0301V23.3101H104.9V21.9801H108.83V20.9601H105.41V19.6901H108.83V18.6801H105.78V17.4101H108.83V16.5201H104.45V15.2501H108.83V14.3601H105.78V13.0901H108.83L108.85 13.1001ZM110.31 15.2601H112.27V14.3701H110.31V15.2601ZM110.31 17.4201H112.27V16.5301H110.31V17.4201Z" fill="white"/>
<path d="M122.47 14.6301V15.8901H116.63V14.6301H122.47ZM122.15 21.4701V26.6001H120.82V25.8401H118.35V26.7301H117.02V21.4701H122.15ZM121.84 16.9601V18.1601H117.2V16.9601H121.84ZM121.84 19.1101V20.3101H117.2V19.1101H121.84ZM121.78 12.4601V13.6601H117.27V12.4601H121.78ZM120.82 24.6301V22.6701H118.35V24.6301H120.82ZM128.56 12.5301V16.0201C128.56 16.4901 128.62 16.7201 128.77 16.7201H129.6C129.68 16.7201 129.76 16.6701 129.82 16.5601C129.89 16.4301 129.97 15.9401 130.06 15.0701L131.39 15.5101C131.16 16.6101 130.9 17.3101 130.63 17.5701C130.33 17.8601 129.91 17.9901 129.36 17.9901H128.63C127.64 17.9901 127.15 17.4401 127.15 16.3401V13.7401H125.2C125.14 14.9101 124.99 15.7701 124.76 16.3201C124.47 16.9901 123.97 17.6701 123.27 18.3601L122.2 17.4701C122.85 16.9201 123.27 16.3701 123.5 15.8501C123.73 15.4301 123.86 14.3201 123.86 12.5401H128.55L128.56 12.5301ZM128.69 18.9801C128.85 18.8501 128.96 18.7901 129 18.7901C129.1 18.7901 129.21 18.8501 129.31 18.9501L130.06 19.6501C130.16 19.7501 130.21 19.8401 130.21 19.9401C130.21 20.0401 130.06 20.1701 129.77 20.3101C129.15 22.0801 128.47 23.3801 127.73 24.1901C128.61 24.6401 129.81 25.0201 131.3 25.3301L130.41 26.7201C128.85 26.3001 127.6 25.8001 126.63 25.1801C125.75 25.8001 124.64 26.3001 123.3 26.7201L122.36 25.4601C123.32 25.2501 124.1 25.0101 124.68 24.7301C124.97 24.6001 125.23 24.4501 125.48 24.2901C124.73 23.5801 123.97 22.6101 123.19 21.3401L124.2 20.7101C124.95 21.9001 125.74 22.8001 126.55 23.4301C126.67 23.3001 126.78 23.1701 126.88 23.0401C127.37 22.4201 127.82 21.5001 128.24 20.2501H123.44V18.9801H128.71H128.69Z" fill="white"/>
<path d="M134.64 15.5701V12.0201L135.87 12.1201C136.1 12.1301 136.21 12.1801 136.21 12.2801C136.21 12.3601 136.13 12.4901 135.97 12.6701V15.5701H137.23V16.8401H135.97V17.3901C136.44 18.3601 136.99 19.1801 137.61 19.8201L136.67 20.8301C136.41 20.4401 136.18 20.0401 135.97 19.6001V26.8001H134.64V20.4101C134.35 21.3201 134.04 22.1601 133.68 22.9201L132.42 22.1101C132.94 21.3301 133.39 20.5001 133.78 19.6101C134.01 19.0801 134.3 18.2801 134.64 17.2101V16.8401H132.85V15.5701H134.64ZM145.79 12.6001C145.92 12.6701 145.98 12.7301 145.98 12.7801C145.98 12.8801 145.88 12.9701 145.72 13.0401L144.44 15.1801C144.7 15.3901 144.94 15.5801 145.17 15.7801L146.05 14.2401L146.97 14.8201C147.07 14.8801 147.12 14.9601 147.12 15.0601C147.12 15.1601 147.02 15.2201 146.86 15.2501L145.24 17.8301C145.55 17.7801 145.86 17.7201 146.15 17.6501C146.07 17.4201 145.99 17.2001 145.92 16.9601L146.93 16.7201C147.29 17.6301 147.55 18.4701 147.69 19.2501L146.56 19.4901C146.53 19.2001 146.46 18.9001 146.4 18.6001C145.8 18.7801 144.99 18.9901 143.97 19.2501C143.87 19.3801 143.79 19.4401 143.71 19.4401C143.63 19.4401 143.58 19.3701 143.58 19.2501L143.34 18.1001C143.53 18.0801 143.71 18.0701 143.9 18.0301L144.65 16.7301C144.1 16.2601 143.5 15.8001 142.88 15.3701C142.96 17.2201 143.14 18.8601 143.43 20.2501H144.77C144.64 20.1201 144.53 20.0101 144.4 19.8701L145.16 19.2401C145.51 19.5201 145.86 19.8601 146.2 20.2501H147.51V21.4601H143.7C143.88 22.1301 144.09 22.7101 144.32 23.2101C144.66 22.7901 144.98 22.3001 145.29 21.7701L146.35 22.3501C146.45 22.4101 146.49 22.5001 146.49 22.5901C146.49 22.6801 146.38 22.7201 146.18 22.7201C145.71 23.4001 145.29 23.9701 144.93 24.3901C144.99 24.5201 145.07 24.6201 145.14 24.7201C145.43 25.1201 145.69 25.3201 145.92 25.3201C146.08 25.3201 146.34 24.7701 146.68 23.6601L147.69 24.4901C147.02 26.0801 146.46 26.8901 145.98 26.8901C145.5 26.8901 144.94 26.4501 144.26 25.6101C144.18 25.5001 144.12 25.4001 144.05 25.3001C143.84 25.4801 143.63 25.6401 143.43 25.8001C142.94 26.1401 142.31 26.4801 141.53 26.8401L140.65 25.7501C141.49 25.4601 142.17 25.1501 142.71 24.7601C142.95 24.5801 143.18 24.3901 143.39 24.1901C142.99 23.3901 142.64 22.4901 142.38 21.4501H140.08C140.03 21.8601 139.98 22.2101 139.94 22.5401C140.65 23.0601 141.35 23.6601 142.05 24.3601L140.96 25.0601C140.54 24.5701 140.1 24.1201 139.65 23.7101V23.7401C139.42 24.4001 139.16 24.9701 138.87 25.4401C138.63 25.8101 138.34 26.1901 137.99 26.5801L136.77 25.8201C137.11 25.4901 137.37 25.2201 137.57 24.9601C137.93 24.4701 138.22 23.9201 138.46 23.2701C138.62 22.7801 138.75 22.1701 138.85 21.4501H137.54V20.2401H142.11C141.75 18.2601 141.59 15.5001 141.59 11.9501L142.76 12.1601C142.91 12.1901 142.99 12.2401 142.99 12.3201C142.99 12.4301 142.93 12.5601 142.79 12.6901C142.79 13.4701 142.81 14.2001 142.84 14.9101L143.31 14.3401C143.41 14.4001 143.49 14.4701 143.57 14.5201L144.88 12.1201L145.78 12.5801L145.79 12.6001ZM140.45 12.6001C140.58 12.6701 140.66 12.7301 140.66 12.7801C140.66 12.8801 140.56 12.9701 140.4 13.0401L139 15.1601C139.23 15.3201 139.42 15.4901 139.6 15.6301L140.53 14.2401L141.45 14.8201C141.55 14.8801 141.6 14.9601 141.6 15.0601C141.6 15.1601 141.52 15.2201 141.36 15.2501L139.32 17.9901C139.68 17.9601 140.02 17.9101 140.38 17.8601C140.31 17.6301 140.27 17.3901 140.22 17.1501L141.18 16.8901C141.44 17.8301 141.64 18.6901 141.75 19.4901L140.68 19.7501C140.65 19.4601 140.62 19.1701 140.57 18.8401C139.91 18.9701 139.01 19.1301 137.89 19.3101C137.79 19.4401 137.71 19.4901 137.63 19.4901C137.55 19.4901 137.5 19.4401 137.5 19.3101L137.26 18.1601C137.5 18.1601 137.75 18.1401 137.99 18.1101L139.03 16.5401C138.46 16.0901 137.85 15.6501 137.2 15.1901L137.89 14.3601C137.99 14.4201 138.07 14.4901 138.17 14.5501L139.6 12.1301L140.48 12.5901L140.45 12.6001Z" fill="white"/>
<path d="M151.04 15.1301V11.9701L152.27 12.0501C152.5 12.0701 152.63 12.1101 152.63 12.2101C152.63 12.3101 152.53 12.4401 152.37 12.6001V15.1301H153.96V16.4001H152.39C152.91 17.9101 153.56 19.1401 154.34 20.0801L153.4 21.0901C153.03 20.4401 152.69 19.7601 152.38 19.0101V26.9101H151.05V19.2701C150.98 19.5001 150.94 19.6901 150.9 19.8701C150.64 20.9401 150.36 21.9201 150.04 22.8101L148.71 21.9201C149.17 21.1401 149.55 20.2801 149.9 19.3601C150.12 18.7101 150.42 17.7401 150.78 16.4101H149.03V15.1401H151.06L151.04 15.1301ZM156.49 13.3001V11.9701L157.72 12.0501C157.95 12.0701 158.07 12.1101 158.07 12.2101C158.07 12.3101 157.98 12.4401 157.81 12.6001V13.3001H159.9V11.9701L161.13 12.0501C161.36 12.0701 161.49 12.1101 161.49 12.2101C161.49 12.3101 161.39 12.4401 161.23 12.6001V13.3001H163.26V14.4401H161.23V15.3301H162.82V16.4001H161.23V17.2901H163.76V18.4201H159.66V19.1901H162.82V23.3101H163.95V24.4501H162.82V25.5301C162.82 26.1501 162.45 26.5501 161.7 26.7501C161.11 26.9001 160.53 26.9801 159.96 26.9801L159.46 25.6501L160.89 25.6301C161.28 25.6001 161.49 25.4401 161.49 25.1401V24.4401H156.48V26.7901H155.15V24.4401H153.57V23.3001H155.15V19.1801H158.33V18.4101H153.95V17.2801H156.48V16.3901H154.96V15.3201H156.48V14.4301H154.39V13.2901H156.48L156.49 13.3001ZM158.34 21.3401V20.3201H156.49V21.3401H158.34ZM158.34 23.3001V22.4101H156.49V23.3001H158.34ZM159.91 14.4301H157.82V15.3201H159.91V14.4301ZM159.91 16.3901H157.82V17.2801H159.91V16.3901ZM159.67 21.3401H161.5V20.3201H159.67V21.3401ZM159.67 23.3001H161.5V22.4101H159.67V23.3001Z" fill="white"/>
<path d="M100.86 32.1C100.95 32.04 101.01 31.96 101.05 31.85C101.09 31.74 101.12 31.61 101.13 31.47C101.14 31.32 101.151 31.16 101.151 30.98V29.72C101.151 29.52 101.151 29.32 101.141 29.13C101.141 28.93 101.12 28.74 101.11 28.53C101.15 28.53 101.19 28.54 101.24 28.55C101.28 28.55 101.32 28.55 101.36 28.55C101.4 28.55 101.44 28.55 101.48 28.55C101.52 28.55 101.56 28.54 101.61 28.53C101.61 28.73 101.591 28.93 101.581 29.13C101.581 29.32 101.57 29.52 101.57 29.72C101.57 29.86 101.57 30 101.57 30.15C101.57 30.3 101.57 30.44 101.57 30.58C101.57 30.72 101.57 30.86 101.57 30.99C101.57 31.12 101.57 31.24 101.57 31.35C101.57 31.49 101.55 31.61 101.5 31.73C101.45 31.84 101.38 31.95 101.29 32.04C101.2 32.13 101.09 32.2 100.97 32.25C100.84 32.3 100.71 32.33 100.56 32.33L100.521 32.2C100.661 32.2 100.77 32.17 100.86 32.11V32.1Z" fill="white"/>
<path d="M102.58 28.54C102.63 28.5 102.69 28.47 102.76 28.47C102.83 28.47 102.89 28.49 102.94 28.54C102.99 28.59 103.02 28.64 103.02 28.71C103.02 28.78 103 28.83 102.94 28.87C102.89 28.92 102.83 28.94 102.76 28.94C102.69 28.94 102.63 28.92 102.58 28.87C102.53 28.82 102.5 28.77 102.5 28.71C102.5 28.65 102.53 28.59 102.58 28.54ZM102.57 29.93C102.57 29.78 102.55 29.64 102.54 29.51C102.63 29.52 102.71 29.53 102.77 29.53C102.82 29.53 102.9 29.53 103 29.51C102.98 29.64 102.97 29.78 102.97 29.93C102.97 30.08 102.97 30.23 102.97 30.37V30.85C102.97 30.99 102.97 31.13 102.97 31.28C102.97 31.43 102.99 31.57 103 31.69C102.92 31.69 102.85 31.69 102.77 31.69C102.69 31.69 102.62 31.69 102.54 31.69C102.56 31.57 102.57 31.43 102.57 31.28C102.57 31.13 102.57 30.98 102.57 30.85V30.37C102.57 30.23 102.57 30.09 102.57 29.93Z" fill="white"/>
<path d="M105.351 29.87C105.251 29.75 105.121 29.7 104.951 29.7C104.721 29.7 104.541 29.7599 104.431 29.8899C104.321 30.0199 104.271 30.21 104.271 30.45V30.84C104.271 30.98 104.271 31.12 104.271 31.27C104.271 31.42 104.291 31.56 104.301 31.68C104.221 31.68 104.151 31.68 104.071 31.68C103.991 31.68 103.921 31.68 103.841 31.68C103.861 31.56 103.871 31.42 103.871 31.27C103.871 31.12 103.871 30.97 103.871 30.84V30.36C103.871 30.22 103.871 30.08 103.871 29.92C103.871 29.77 103.851 29.63 103.841 29.5C103.941 29.51 104.011 29.52 104.071 29.52C104.101 29.52 104.131 29.52 104.161 29.52C104.191 29.52 104.231 29.51 104.271 29.5C104.261 29.62 104.261 29.74 104.261 29.87C104.361 29.74 104.471 29.6299 104.601 29.5599C104.731 29.4899 104.891 29.45 105.071 29.45C105.161 29.45 105.261 29.46 105.351 29.49C105.451 29.51 105.531 29.56 105.611 29.62C105.691 29.68 105.751 29.76 105.801 29.86C105.851 29.96 105.871 30.09 105.871 30.25C105.871 30.38 105.871 30.52 105.871 30.66C105.871 30.8 105.861 30.95 105.861 31.1V31.4C105.861 31.4 105.861 31.49 105.861 31.54C105.861 31.59 105.861 31.63 105.861 31.67C105.791 31.67 105.721 31.67 105.641 31.67C105.571 31.67 105.501 31.67 105.431 31.67C105.431 31.51 105.441 31.35 105.451 31.18C105.461 31.01 105.461 30.84 105.461 30.66V30.3799C105.461 30.1499 105.411 29.98 105.311 29.86L105.351 29.87Z" fill="white"/>
<path d="M106.6 29.87C106.65 29.78 106.72 29.6999 106.81 29.6399C106.9 29.5799 107 29.53 107.12 29.5C107.24 29.47 107.36 29.45 107.49 29.45C107.55 29.45 107.62 29.45 107.68 29.45C107.74 29.45 107.81 29.4499 107.9 29.4599C107.98 29.4599 108.05 29.4699 108.11 29.4699C108.17 29.4699 108.22 29.4699 108.25 29.4699C108.44 29.4699 108.58 29.47 108.66 29.45C108.66 29.46 108.66 29.48 108.66 29.5C108.66 29.52 108.66 29.5299 108.66 29.5499C108.66 29.5699 108.66 29.58 108.66 29.6C108.66 29.62 108.66 29.63 108.66 29.65C108.56 29.65 108.47 29.6499 108.37 29.6299C108.28 29.6299 108.18 29.61 108.09 29.61H108.08C108.19 29.67 108.27 29.75 108.33 29.86C108.39 29.97 108.42 30.08 108.42 30.2C108.42 30.43 108.34 30.61 108.17 30.74C108 30.87 107.77 30.94 107.48 30.94C107.43 30.94 107.39 30.94 107.34 30.94C107.29 30.94 107.25 30.94 107.2 30.94C107.14 30.94 107.08 30.96 107.03 31C106.98 31.04 106.95 31.09 106.95 31.15C106.95 31.23 106.97 31.29 107.02 31.32C107.06 31.36 107.14 31.3799 107.25 31.3799C107.35 31.3799 107.44 31.3799 107.53 31.3799C107.62 31.3799 107.71 31.3799 107.81 31.3799C107.97 31.3799 108.1 31.4 108.21 31.43C108.32 31.46 108.41 31.4999 108.48 31.5499C108.55 31.5999 108.6 31.6599 108.63 31.7299C108.66 31.7999 108.68 31.87 108.68 31.95C108.68 32.06 108.66 32.1699 108.62 32.2799C108.57 32.3899 108.5 32.49 108.4 32.58C108.3 32.67 108.18 32.7399 108.03 32.7999C107.88 32.8599 107.7 32.8899 107.49 32.8899C107.16 32.8899 106.91 32.8299 106.72 32.7099C106.53 32.5899 106.44 32.4299 106.44 32.2299C106.44 32.1499 106.46 32.0799 106.49 32.0099C106.52 31.9399 106.57 31.88 106.61 31.83C106.66 31.78 106.72 31.7399 106.78 31.7099C106.84 31.6799 106.91 31.6599 106.97 31.6399C106.87 31.5999 106.79 31.56 106.73 31.49C106.68 31.42 106.65 31.35 106.65 31.26C106.65 31.21 106.66 31.16 106.68 31.12C106.7 31.08 106.73 31.04 106.76 31.01C106.79 30.97 106.83 30.95 106.88 30.93C106.92 30.91 106.96 30.8999 107.01 30.8899C106.85 30.8199 106.73 30.73 106.65 30.62C106.56 30.51 106.52 30.37 106.52 30.2C106.52 30.07 106.54 29.96 106.59 29.87H106.6ZM108.14 31.78C108.02 31.71 107.83 31.67 107.55 31.67C107.3 31.67 107.1 31.71 106.97 31.78C106.83 31.85 106.76 31.99 106.76 32.18C106.76 32.29 106.78 32.37 106.82 32.45C106.86 32.52 106.91 32.58 106.98 32.63C107.05 32.67 107.12 32.7099 107.21 32.7299C107.3 32.7499 107.4 32.7599 107.51 32.7599C107.61 32.7599 107.71 32.75 107.8 32.72C107.9 32.7 107.98 32.66 108.06 32.61C108.13 32.56 108.2 32.5 108.24 32.43C108.29 32.35 108.31 32.27 108.31 32.16C108.31 31.98 108.25 31.85 108.13 31.78H108.14ZM107.89 29.74C107.79 29.64 107.65 29.59 107.49 29.59C107.31 29.59 107.17 29.64 107.07 29.76C106.97 29.87 106.92 30.0199 106.92 30.2099C106.92 30.3999 106.97 30.56 107.06 30.67C107.15 30.78 107.3 30.84 107.49 30.84C107.59 30.84 107.67 30.82 107.74 30.78C107.81 30.75 107.86 30.6999 107.91 30.6399C107.96 30.5799 107.99 30.51 108.01 30.43C108.03 30.35 108.04 30.27 108.04 30.18C108.04 29.99 107.99 29.84 107.89 29.74Z" fill="white"/>
<path d="M110.26 30.47V30.75H109V30.47H110.26Z" fill="white"/>
<path d="M110.961 29.13C110.961 28.93 110.951 28.74 110.931 28.53C111.061 28.53 111.181 28.54 111.311 28.55C111.441 28.55 111.561 28.55 111.691 28.55C111.821 28.55 111.941 28.55 112.071 28.55C112.201 28.55 112.331 28.54 112.451 28.54C112.751 28.54 113.001 28.57 113.211 28.65C113.421 28.72 113.591 28.82 113.731 28.95C113.861 29.08 113.961 29.24 114.031 29.43C114.091 29.62 114.121 29.83 114.121 30.07C114.121 30.38 114.061 30.64 113.951 30.84C113.831 31.05 113.691 31.22 113.511 31.35C113.331 31.48 113.131 31.57 112.921 31.62C112.701 31.67 112.491 31.7 112.301 31.7C112.191 31.7 112.071 31.7 111.961 31.7C111.851 31.7 111.741 31.7 111.621 31.7H111.281C111.171 31.7 111.051 31.7 110.941 31.7C110.951 31.51 110.961 31.32 110.971 31.12C110.971 30.92 110.991 30.72 110.991 30.52V29.73C110.991 29.53 110.991 29.33 110.971 29.14L110.961 29.13ZM111.421 31.49C111.491 31.51 111.591 31.52 111.711 31.52C111.831 31.52 111.961 31.53 112.081 31.53C112.271 31.53 112.451 31.51 112.641 31.47C112.831 31.43 112.991 31.36 113.141 31.25C113.281 31.14 113.401 30.99 113.491 30.8C113.581 30.61 113.631 30.36 113.631 30.06C113.631 29.8 113.591 29.57 113.521 29.4C113.451 29.23 113.351 29.09 113.221 28.99C113.101 28.89 112.941 28.82 112.771 28.78C112.601 28.74 112.411 28.72 112.201 28.72C112.051 28.72 111.911 28.72 111.781 28.73C111.651 28.73 111.531 28.75 111.431 28.76C111.431 28.91 111.411 29.06 111.411 29.22C111.411 29.38 111.411 29.54 111.411 29.71V30.5C111.411 30.83 111.411 31.16 111.441 31.47L111.421 31.49Z" fill="white"/>
<path d="M114.79 30.58C114.79 30.47 114.79 30.35 114.79 30.24C114.79 30.13 114.79 30.01 114.79 29.89C114.79 29.76 114.79 29.64 114.79 29.51C114.87 29.52 114.94 29.53 115 29.53C115.05 29.53 115.121 29.53 115.211 29.51C115.191 29.69 115.18 29.89 115.17 30.11C115.17 30.33 115.16 30.55 115.16 30.78C115.16 30.94 115.171 31.06 115.201 31.14C115.231 31.23 115.27 31.29 115.31 31.33C115.36 31.38 115.42 31.42 115.49 31.45C115.56 31.48 115.65 31.5 115.74 31.5C115.88 31.5 116.001 31.47 116.091 31.42C116.191 31.36 116.25 31.29 116.3 31.21C116.32 31.16 116.34 31.11 116.36 31.07C116.37 31.03 116.381 30.99 116.391 30.92C116.391 30.86 116.401 30.78 116.401 30.67V29.66C116.401 29.6 116.401 29.54 116.401 29.48C116.441 29.48 116.47 29.49 116.51 29.5C116.54 29.5 116.58 29.5 116.62 29.5C116.66 29.5 116.69 29.5 116.73 29.5C116.76 29.5 116.791 29.49 116.831 29.48C116.811 29.72 116.8 29.95 116.8 30.17C116.8 30.39 116.8 30.63 116.8 30.88C116.8 31.02 116.8 31.15 116.8 31.28C116.8 31.41 116.8 31.54 116.81 31.66C116.74 31.66 116.68 31.66 116.61 31.66C116.54 31.66 116.48 31.66 116.41 31.66C116.41 31.63 116.41 31.6 116.41 31.58C116.41 31.55 116.41 31.52 116.41 31.48V31.28H116.401C116.311 31.43 116.2 31.54 116.06 31.61C115.92 31.68 115.77 31.71 115.61 31.71C115.35 31.71 115.14 31.65 114.99 31.52C114.84 31.39 114.771 31.21 114.771 30.97C114.771 30.81 114.771 30.67 114.771 30.55L114.79 30.58Z" fill="white"/>
<path d="M121.57 31.58C121.5 31.61 121.42 31.64 121.33 31.66C121.24 31.68 121.14 31.71 121.02 31.72C120.91 31.74 120.79 31.75 120.66 31.75C120.39 31.75 120.15 31.72 119.92 31.65C119.69 31.58 119.5 31.48 119.34 31.34C119.18 31.2 119.05 31.03 118.96 30.83C118.87 30.63 118.82 30.39 118.82 30.13C118.82 29.87 118.86 29.64 118.96 29.44C119.05 29.23 119.18 29.06 119.35 28.92C119.52 28.78 119.72 28.67 119.95 28.6C120.18 28.53 120.44 28.49 120.72 28.49C120.94 28.49 121.14 28.51 121.33 28.55C121.51 28.59 121.67 28.64 121.82 28.7C121.79 28.74 121.77 28.8 121.75 28.87C121.74 28.94 121.72 29 121.71 29.05H121.68C121.68 29.05 121.6 28.98 121.54 28.94C121.48 28.9 121.41 28.85 121.33 28.81C121.25 28.77 121.16 28.73 121.06 28.7C120.96 28.67 120.85 28.66 120.73 28.66C120.53 28.66 120.35 28.69 120.18 28.75C120.01 28.81 119.86 28.9 119.74 29.02C119.61 29.14 119.52 29.29 119.44 29.48C119.37 29.66 119.33 29.89 119.33 30.14C119.33 30.39 119.36 30.61 119.44 30.8C119.51 30.99 119.61 31.14 119.74 31.26C119.87 31.38 120.01 31.47 120.18 31.53C120.35 31.59 120.53 31.62 120.73 31.62C120.85 31.62 120.96 31.61 121.07 31.58C121.17 31.55 121.27 31.52 121.35 31.48C121.44 31.44 121.51 31.4 121.58 31.36C121.65 31.31 121.71 31.28 121.76 31.24L121.78 31.26L121.73 31.53C121.73 31.53 121.65 31.58 121.59 31.61L121.57 31.58Z" fill="white"/>
<path d="M122.27 30.07C122.34 29.92 122.44 29.81 122.55 29.72C122.67 29.63 122.8 29.56 122.95 29.52C123.1 29.48 123.24 29.46 123.39 29.46C123.54 29.46 123.68 29.48 123.83 29.52C123.98 29.56 124.11 29.63 124.23 29.72C124.35 29.81 124.44 29.93 124.52 30.07C124.59 30.22 124.63 30.39 124.63 30.6C124.63 30.81 124.59 30.98 124.52 31.13C124.45 31.28 124.35 31.39 124.23 31.49C124.11 31.58 123.98 31.64 123.83 31.68C123.69 31.72 123.54 31.74 123.39 31.74C123.24 31.74 123.1 31.72 122.95 31.68C122.81 31.64 122.67 31.58 122.55 31.49C122.43 31.4 122.34 31.28 122.27 31.13C122.2 30.98 122.16 30.81 122.16 30.6C122.16 30.39 122.2 30.21 122.27 30.07ZM122.64 30.97C122.66 31.09 122.71 31.2 122.77 31.29C122.83 31.38 122.91 31.46 123.01 31.51C123.11 31.57 123.24 31.6 123.38 31.6C123.52 31.6 123.65 31.57 123.75 31.51C123.86 31.46 123.93 31.38 123.99 31.29C124.05 31.2 124.09 31.09 124.12 30.97C124.15 30.85 124.16 30.73 124.16 30.6C124.16 30.47 124.15 30.35 124.12 30.23C124.09 30.11 124.05 30.01 123.99 29.91C123.93 29.82 123.85 29.74 123.75 29.69C123.65 29.63 123.53 29.61 123.38 29.61C123.23 29.61 123.11 29.64 123.01 29.69C122.91 29.75 122.83 29.82 122.77 29.91C122.71 30 122.67 30.11 122.64 30.23C122.61 30.35 122.6 30.47 122.6 30.6C122.6 30.73 122.61 30.85 122.64 30.97Z" fill="white"/>
<path d="M126.67 29.87C126.57 29.75 126.44 29.7 126.26 29.7C126.02 29.7 125.85 29.7599 125.74 29.8899C125.63 30.0199 125.58 30.21 125.58 30.45V30.84C125.58 30.98 125.58 31.12 125.58 31.27C125.58 31.42 125.59 31.56 125.61 31.68C125.53 31.68 125.46 31.68 125.38 31.68C125.3 31.68 125.23 31.68 125.15 31.68C125.16 31.56 125.18 31.42 125.18 31.27C125.18 31.12 125.18 30.97 125.18 30.84V30.36C125.18 30.22 125.18 30.08 125.18 29.92C125.18 29.77 125.16 29.63 125.15 29.5C125.24 29.51 125.32 29.52 125.38 29.52C125.41 29.52 125.44 29.52 125.47 29.52C125.5 29.52 125.54 29.51 125.58 29.5C125.57 29.62 125.56 29.74 125.56 29.87H125.57C125.67 29.74 125.78 29.6299 125.91 29.5599C126.04 29.4899 126.2 29.45 126.38 29.45C126.47 29.45 126.57 29.46 126.67 29.49C126.77 29.51 126.85 29.56 126.93 29.62C127.01 29.68 127.07 29.76 127.12 29.86C127.17 29.96 127.19 30.09 127.19 30.25C127.19 30.38 127.19 30.52 127.18 30.66C127.18 30.8 127.17 30.95 127.17 31.1V31.4C127.17 31.4 127.17 31.49 127.17 31.54C127.17 31.59 127.17 31.63 127.17 31.67C127.1 31.67 127.03 31.67 126.96 31.67C126.89 31.67 126.82 31.67 126.75 31.67C126.75 31.51 126.76 31.35 126.77 31.18C126.77 31.01 126.78 30.84 126.78 30.66V30.3799C126.78 30.1499 126.73 29.98 126.64 29.86L126.67 29.87Z" fill="white"/>
<path d="M128.031 31.36C128.031 31.36 128.111 31.4299 128.161 31.4599C128.211 31.4899 128.261 31.52 128.331 31.54C128.391 31.56 128.461 31.57 128.531 31.57C128.591 31.57 128.661 31.57 128.711 31.54C128.771 31.52 128.821 31.4999 128.871 31.4599C128.921 31.4299 128.951 31.38 128.981 31.33C129.011 31.28 129.021 31.22 129.021 31.15C129.021 31.05 128.991 30.98 128.931 30.93C128.871 30.88 128.801 30.8399 128.711 30.8099C128.621 30.7799 128.531 30.7499 128.421 30.7299C128.321 30.7099 128.221 30.6699 128.131 30.6299C128.041 30.5899 127.971 30.53 127.911 30.45C127.851 30.38 127.821 30.28 127.821 30.15C127.821 30.05 127.841 29.95 127.881 29.87C127.921 29.79 127.971 29.71 128.041 29.65C128.111 29.59 128.201 29.54 128.301 29.5C128.411 29.47 128.531 29.45 128.661 29.45C128.781 29.45 128.891 29.47 128.971 29.5C129.051 29.53 129.141 29.56 129.221 29.58C129.191 29.63 129.171 29.68 129.141 29.75C129.121 29.82 129.101 29.87 129.091 29.91H129.031C129.001 29.84 128.951 29.7699 128.871 29.7099C128.791 29.6499 128.691 29.62 128.581 29.62C128.531 29.62 128.481 29.6199 128.431 29.6399C128.381 29.6599 128.331 29.6799 128.291 29.7099C128.251 29.7399 128.221 29.78 128.191 29.83C128.161 29.88 128.151 29.94 128.151 30C128.151 30.1 128.181 30.1699 128.241 30.2299C128.301 30.2899 128.371 30.33 128.461 30.36C128.551 30.39 128.641 30.42 128.751 30.44C128.851 30.46 128.951 30.49 129.041 30.54C129.131 30.58 129.201 30.6399 129.261 30.7099C129.321 30.7799 129.351 30.88 129.351 31.01C129.351 31.1 129.331 31.18 129.291 31.27C129.251 31.35 129.191 31.43 129.111 31.5C129.031 31.57 128.941 31.62 128.831 31.66C128.721 31.7 128.591 31.7199 128.451 31.7199C128.291 31.7199 128.171 31.71 128.061 31.68C127.951 31.65 127.871 31.62 127.801 31.58C127.821 31.54 127.841 31.48 127.861 31.42C127.881 31.35 127.891 31.29 127.891 31.25H127.951C127.951 31.25 127.991 31.31 128.031 31.35V31.36Z" fill="white"/>
<path d="M130.401 28.89C130.401 29.01 130.381 29.12 130.381 29.23C130.381 29.34 130.371 29.45 130.361 29.57C130.401 29.57 130.471 29.57 130.571 29.57C130.671 29.57 130.781 29.57 130.901 29.56C130.901 29.56 130.901 29.59 130.901 29.61V29.71C130.901 29.71 130.901 29.75 130.901 29.76C130.861 29.76 130.811 29.76 130.761 29.76C130.711 29.76 130.661 29.76 130.611 29.76H130.361C130.361 29.76 130.361 29.82 130.351 29.91C130.351 29.99 130.351 30.1 130.341 30.21C130.341 30.33 130.341 30.45 130.341 30.58C130.341 30.71 130.341 30.82 130.341 30.92C130.341 31.01 130.341 31.09 130.341 31.17C130.341 31.25 130.361 31.33 130.391 31.39C130.421 31.46 130.461 31.51 130.511 31.55C130.561 31.59 130.641 31.61 130.741 31.61C130.771 31.61 130.811 31.61 130.851 31.6C130.891 31.6 130.931 31.59 130.971 31.58V31.69C130.911 31.69 130.851 31.71 130.781 31.72C130.711 31.73 130.641 31.74 130.581 31.74C130.371 31.74 130.211 31.69 130.111 31.6C130.011 31.5 129.961 31.37 129.961 31.18C129.961 31.1 129.961 31.01 129.961 30.91C129.961 30.81 129.961 30.71 129.971 30.6C129.971 30.48 129.981 30.36 129.981 30.22C129.981 30.08 129.981 29.93 129.981 29.75H129.821C129.821 29.75 129.771 29.75 129.731 29.75C129.701 29.75 129.671 29.75 129.631 29.75C129.631 29.73 129.631 29.71 129.631 29.7C129.631 29.68 129.631 29.66 129.631 29.65C129.631 29.63 129.631 29.62 129.631 29.6C129.631 29.58 129.631 29.57 129.631 29.55C129.781 29.56 129.891 29.56 129.961 29.56C129.961 29.5 129.961 29.42 129.961 29.33C129.961 29.24 129.961 29.15 129.951 29.05L130.371 28.89H130.391H130.401Z" fill="white"/>
<path d="M132.4 29.83C132.4 29.83 132.3 29.81 132.25 29.81C132.17 29.81 132.1 29.83 132.03 29.86C131.97 29.89 131.91 29.94 131.86 30C131.82 30.06 131.78 30.12 131.76 30.2C131.74 30.28 131.73 30.36 131.73 30.45V30.96C131.73 31.16 131.73 31.32 131.73 31.43C131.73 31.54 131.73 31.63 131.75 31.69C131.68 31.69 131.61 31.69 131.54 31.69C131.47 31.69 131.4 31.69 131.33 31.69C131.34 31.59 131.35 31.45 131.35 31.27C131.35 31.09 131.35 30.87 131.35 30.61V30.46C131.35 30.34 131.35 30.2 131.35 30.05C131.35 29.89 131.35 29.71 131.33 29.51C131.37 29.51 131.4 29.52 131.44 29.53C131.48 29.53 131.51 29.53 131.55 29.53C131.58 29.53 131.61 29.53 131.65 29.53C131.69 29.53 131.72 29.52 131.76 29.51C131.74 29.62 131.74 29.71 131.73 29.77C131.73 29.83 131.73 29.9 131.73 29.95C131.93 29.62 132.15 29.46 132.4 29.46C132.43 29.46 132.46 29.46 132.48 29.46C132.51 29.46 132.53 29.47 132.56 29.49C132.54 29.53 132.53 29.58 132.53 29.65C132.53 29.72 132.53 29.79 132.53 29.86L132.5 29.88C132.5 29.88 132.45 29.85 132.4 29.83Z" fill="white"/>
<path d="M133.04 30.58C133.04 30.47 133.04 30.35 133.04 30.24C133.04 30.13 133.04 30.01 133.04 29.89C133.04 29.76 133.04 29.64 133.04 29.51C133.12 29.52 133.19 29.53 133.25 29.53C133.3 29.53 133.37 29.53 133.46 29.51C133.45 29.69 133.43 29.89 133.42 30.11C133.41 30.33 133.41 30.55 133.41 30.78C133.41 30.94 133.42 31.06 133.45 31.14C133.48 31.23 133.52 31.29 133.56 31.33C133.61 31.38 133.67 31.42 133.74 31.45C133.81 31.48 133.9 31.5 133.99 31.5C134.13 31.5 134.25 31.47 134.35 31.42C134.44 31.36 134.51 31.29 134.56 31.21C134.59 31.16 134.6 31.11 134.62 31.07C134.63 31.03 134.64 30.99 134.65 30.92C134.65 30.86 134.66 30.78 134.66 30.67C134.66 30.57 134.66 30.43 134.66 30.24V29.86C134.66 29.79 134.66 29.73 134.66 29.67C134.66 29.61 134.66 29.55 134.66 29.49C134.7 29.49 134.73 29.5 134.77 29.51C134.81 29.51 134.84 29.51 134.88 29.51C134.92 29.51 134.95 29.51 134.99 29.51C135.02 29.51 135.06 29.5 135.09 29.49C135.07 29.73 135.06 29.96 135.06 30.18C135.06 30.4 135.06 30.64 135.06 30.89C135.06 31.03 135.06 31.16 135.06 31.29C135.06 31.42 135.06 31.55 135.08 31.67C135.01 31.67 134.95 31.67 134.88 31.67C134.81 31.67 134.75 31.67 134.68 31.67C134.68 31.64 134.68 31.61 134.68 31.59C134.68 31.56 134.68 31.53 134.68 31.49V31.29C134.59 31.44 134.48 31.55 134.34 31.62C134.2 31.69 134.05 31.72 133.89 31.72C133.63 31.72 133.42 31.66 133.27 31.53C133.12 31.4 133.04 31.22 133.04 30.98C133.04 30.82 133.04 30.68 133.04 30.56V30.58Z" fill="white"/>
<path d="M135.78 30.09C135.85 29.95 135.95 29.83 136.07 29.74C136.19 29.64 136.33 29.58 136.48 29.53C136.64 29.48 136.8 29.46 136.96 29.46C137.15 29.46 137.31 29.48 137.46 29.52C137.6 29.56 137.71 29.61 137.77 29.66C137.75 29.71 137.72 29.75 137.71 29.81C137.69 29.86 137.68 29.92 137.66 29.97H137.62C137.62 29.97 137.56 29.89 137.52 29.85C137.48 29.81 137.43 29.77 137.38 29.74C137.33 29.7 137.26 29.68 137.19 29.65C137.12 29.63 137.05 29.62 136.97 29.62C136.82 29.62 136.69 29.64 136.58 29.7C136.47 29.75 136.38 29.82 136.31 29.91C136.24 30 136.19 30.1 136.16 30.22C136.13 30.34 136.11 30.47 136.11 30.61C136.11 30.92 136.18 31.16 136.33 31.32C136.48 31.48 136.69 31.56 136.98 31.56C137.04 31.56 137.12 31.56 137.18 31.54C137.25 31.52 137.32 31.5 137.39 31.47C137.46 31.44 137.52 31.41 137.58 31.37C137.64 31.33 137.69 31.29 137.73 31.24H137.76C137.74 31.33 137.73 31.4 137.73 31.48C137.63 31.55 137.5 31.62 137.35 31.67C137.2 31.72 137.05 31.75 136.88 31.75C136.74 31.75 136.59 31.73 136.44 31.69C136.29 31.65 136.16 31.59 136.05 31.5C135.93 31.41 135.83 31.29 135.76 31.15C135.69 31.01 135.65 30.83 135.65 30.62C135.65 30.41 135.69 30.25 135.76 30.1L135.78 30.09Z" fill="white"/>
<path d="M138.82 28.89C138.82 29.01 138.8 29.12 138.79 29.23C138.79 29.34 138.79 29.45 138.77 29.57C138.81 29.57 138.88 29.57 138.98 29.57C139.08 29.57 139.19 29.57 139.31 29.56C139.31 29.56 139.31 29.59 139.31 29.61V29.71C139.31 29.71 139.31 29.75 139.31 29.76C139.26 29.76 139.22 29.76 139.17 29.76C139.12 29.76 139.07 29.76 139.02 29.76H138.77C138.77 29.76 138.77 29.82 138.76 29.91C138.76 29.99 138.76 30.1 138.74 30.21C138.74 30.33 138.74 30.45 138.74 30.58C138.74 30.71 138.74 30.82 138.74 30.92C138.74 31.01 138.74 31.09 138.74 31.17C138.74 31.25 138.76 31.33 138.79 31.39C138.82 31.46 138.86 31.51 138.91 31.55C138.96 31.59 139.04 31.61 139.14 31.61C139.17 31.61 139.2 31.61 139.25 31.6C139.3 31.6 139.33 31.59 139.37 31.58V31.69C139.31 31.69 139.25 31.71 139.18 31.72C139.11 31.73 139.05 31.74 138.98 31.74C138.77 31.74 138.61 31.69 138.51 31.6C138.41 31.5 138.36 31.37 138.36 31.18C138.36 31.1 138.36 31.01 138.36 30.91C138.36 30.81 138.36 30.71 138.37 30.6C138.37 30.48 138.37 30.36 138.38 30.22C138.38 30.08 138.38 29.93 138.38 29.75H138.22C138.22 29.75 138.16 29.75 138.13 29.75C138.1 29.75 138.07 29.75 138.03 29.75C138.03 29.73 138.03 29.71 138.03 29.7C138.03 29.68 138.03 29.66 138.03 29.65C138.03 29.63 138.03 29.62 138.03 29.6C138.03 29.58 138.03 29.57 138.03 29.55C138.18 29.56 138.29 29.56 138.36 29.56C138.36 29.5 138.36 29.42 138.36 29.33C138.36 29.24 138.36 29.15 138.35 29.05L138.77 28.89H138.8H138.82Z" fill="white"/>
<path d="M139.9 28.54C139.95 28.5 140.01 28.47 140.08 28.47C140.15 28.47 140.21 28.49 140.26 28.54C140.31 28.59 140.33 28.64 140.33 28.71C140.33 28.78 140.31 28.83 140.26 28.87C140.21 28.92 140.15 28.94 140.08 28.94C140.01 28.94 139.95 28.92 139.9 28.87C139.85 28.82 139.83 28.77 139.83 28.71C139.83 28.65 139.85 28.59 139.9 28.54ZM139.89 29.93C139.89 29.78 139.87 29.64 139.86 29.51C139.96 29.52 140.03 29.53 140.09 29.53C140.15 29.53 140.22 29.53 140.32 29.51C140.3 29.64 140.29 29.78 140.29 29.93C140.29 30.08 140.29 30.23 140.29 30.37V30.85C140.29 30.99 140.29 31.13 140.29 31.28C140.29 31.43 140.31 31.57 140.32 31.69C140.24 31.69 140.17 31.69 140.09 31.69C140.01 31.69 139.94 31.69 139.86 31.69C139.88 31.57 139.89 31.43 139.89 31.28C139.89 31.13 139.89 30.98 139.89 30.85V30.37C139.89 30.23 139.89 30.09 139.89 29.93Z" fill="white"/>
<path d="M141.071 30.07C141.141 29.92 141.241 29.81 141.361 29.72C141.481 29.63 141.611 29.56 141.761 29.52C141.911 29.48 142.051 29.46 142.201 29.46C142.351 29.46 142.491 29.48 142.641 29.52C142.781 29.56 142.911 29.63 143.031 29.72C143.151 29.81 143.241 29.93 143.311 30.07C143.381 30.22 143.421 30.39 143.421 30.6C143.421 30.81 143.381 30.98 143.311 31.13C143.241 31.28 143.151 31.39 143.031 31.49C142.911 31.58 142.781 31.64 142.641 31.68C142.501 31.72 142.351 31.74 142.201 31.74C142.051 31.74 141.911 31.72 141.761 31.68C141.611 31.64 141.481 31.58 141.361 31.49C141.241 31.4 141.151 31.28 141.071 31.13C141.001 30.98 140.961 30.81 140.961 30.6C140.961 30.39 141.001 30.21 141.071 30.07ZM141.441 30.97C141.471 31.09 141.511 31.2 141.571 31.29C141.631 31.38 141.711 31.46 141.811 31.51C141.911 31.57 142.041 31.6 142.191 31.6C142.341 31.6 142.461 31.57 142.561 31.51C142.661 31.46 142.741 31.38 142.801 31.29C142.861 31.2 142.911 31.09 142.931 30.97C142.961 30.85 142.971 30.73 142.971 30.6C142.971 30.47 142.961 30.35 142.931 30.23C142.911 30.11 142.861 30.01 142.801 29.91C142.741 29.82 142.661 29.74 142.561 29.69C142.461 29.63 142.341 29.61 142.191 29.61C142.041 29.61 141.921 29.64 141.811 29.69C141.711 29.75 141.631 29.82 141.571 29.91C141.511 30 141.471 30.11 141.441 30.23C141.421 30.35 141.401 30.47 141.401 30.6C141.401 30.73 141.411 30.85 141.441 30.97Z" fill="white"/>
<path d="M145.471 29.87C145.371 29.75 145.241 29.7 145.071 29.7C144.841 29.7 144.661 29.7599 144.551 29.8899C144.441 30.0199 144.391 30.21 144.391 30.45V30.84C144.391 30.98 144.391 31.12 144.391 31.27C144.391 31.42 144.411 31.56 144.421 31.68C144.341 31.68 144.261 31.68 144.191 31.68C144.121 31.68 144.041 31.68 143.961 31.68C143.981 31.56 143.991 31.42 143.991 31.27C143.991 31.12 143.991 30.97 143.991 30.84V30.36C143.991 30.22 143.991 30.08 143.991 29.92C143.991 29.77 143.971 29.63 143.961 29.5C144.061 29.51 144.131 29.52 144.191 29.52C144.221 29.52 144.241 29.52 144.281 29.52C144.311 29.52 144.351 29.51 144.391 29.5C144.381 29.62 144.371 29.74 144.371 29.87H144.381C144.471 29.74 144.581 29.6299 144.721 29.5599C144.851 29.4899 145.011 29.45 145.191 29.45C145.291 29.45 145.381 29.46 145.481 29.49C145.581 29.51 145.661 29.56 145.741 29.62C145.821 29.68 145.881 29.76 145.931 29.86C145.981 29.96 146.001 30.09 146.001 30.25C146.001 30.38 146.001 30.52 145.991 30.66C145.991 30.8 145.991 30.95 145.991 31.1V31.4C145.991 31.4 145.991 31.49 145.991 31.54C145.991 31.59 145.991 31.63 145.991 31.67C145.931 31.67 145.851 31.67 145.781 31.67C145.711 31.67 145.641 31.67 145.571 31.67C145.571 31.51 145.591 31.35 145.591 31.18C145.591 31.01 145.601 30.84 145.601 30.66V30.3799C145.601 30.1499 145.551 29.98 145.451 29.86L145.471 29.87Z" fill="white"/>
<path d="M150.761 31.58C150.701 31.61 150.621 31.64 150.521 31.66C150.431 31.68 150.321 31.71 150.211 31.72C150.101 31.74 149.981 31.75 149.851 31.75C149.581 31.75 149.341 31.72 149.111 31.65C148.881 31.58 148.691 31.48 148.531 31.34C148.371 31.2 148.241 31.03 148.151 30.83C148.061 30.63 148.011 30.39 148.011 30.13C148.011 29.87 148.061 29.64 148.151 29.44C148.241 29.23 148.371 29.06 148.541 28.92C148.711 28.78 148.911 28.67 149.141 28.6C149.371 28.53 149.631 28.49 149.911 28.49C150.131 28.49 150.331 28.51 150.521 28.55C150.701 28.59 150.871 28.64 151.011 28.7C150.981 28.74 150.961 28.8 150.951 28.87C150.931 28.94 150.921 29 150.911 29.05H150.881C150.881 29.05 150.801 28.98 150.741 28.94C150.681 28.9 150.611 28.85 150.531 28.81C150.451 28.77 150.361 28.73 150.261 28.7C150.161 28.67 150.051 28.66 149.931 28.66C149.731 28.66 149.551 28.69 149.381 28.75C149.211 28.81 149.061 28.9 148.941 29.02C148.811 29.14 148.721 29.29 148.641 29.48C148.571 29.66 148.531 29.89 148.531 30.14C148.531 30.39 148.571 30.61 148.641 30.8C148.711 30.99 148.811 31.14 148.941 31.26C149.071 31.38 149.211 31.47 149.381 31.53C149.551 31.59 149.741 31.62 149.931 31.62C150.051 31.62 150.161 31.61 150.271 31.58C150.371 31.55 150.471 31.52 150.551 31.48C150.641 31.44 150.711 31.4 150.781 31.36C150.851 31.31 150.911 31.28 150.951 31.24L150.971 31.26L150.931 31.53C150.931 31.53 150.851 31.58 150.781 31.61L150.761 31.58Z" fill="white"/>
<path d="M151.461 30.07C151.531 29.92 151.621 29.81 151.741 29.72C151.861 29.63 151.991 29.56 152.131 29.52C152.281 29.48 152.421 29.46 152.571 29.46C152.721 29.46 152.861 29.48 153.011 29.52C153.151 29.56 153.291 29.63 153.401 29.72C153.521 29.81 153.611 29.93 153.681 30.07C153.761 30.22 153.791 30.39 153.791 30.6C153.791 30.81 153.761 30.98 153.681 31.13C153.611 31.28 153.511 31.39 153.401 31.49C153.281 31.58 153.151 31.64 153.011 31.68C152.861 31.72 152.721 31.74 152.571 31.74C152.421 31.74 152.281 31.72 152.131 31.68C151.981 31.64 151.851 31.58 151.741 31.49C151.621 31.4 151.521 31.28 151.461 31.13C151.381 30.98 151.351 30.81 151.351 30.6C151.351 30.39 151.391 30.21 151.461 30.07ZM151.831 30.97C151.861 31.09 151.901 31.2 151.961 31.29C152.021 31.38 152.101 31.46 152.201 31.51C152.301 31.57 152.431 31.6 152.571 31.6C152.711 31.6 152.841 31.57 152.951 31.51C153.051 31.46 153.131 31.38 153.191 31.29C153.251 31.2 153.301 31.09 153.321 30.97C153.341 30.85 153.361 30.73 153.361 30.6C153.361 30.47 153.351 30.35 153.321 30.23C153.291 30.11 153.251 30.01 153.191 29.91C153.131 29.82 153.051 29.74 152.951 29.69C152.851 29.63 152.721 29.61 152.571 29.61C152.421 29.61 152.301 29.64 152.201 29.69C152.101 29.75 152.021 29.82 151.961 29.91C151.901 30 151.861 30.11 151.831 30.23C151.811 30.35 151.791 30.47 151.791 30.6C151.791 30.73 151.801 30.85 151.831 30.97Z" fill="white"/>
<path d="M154.48 31.28C154.54 31.23 154.6 31.2 154.68 31.2C154.76 31.2 154.83 31.23 154.88 31.28C154.94 31.33 154.96 31.3899 154.96 31.4599C154.96 31.5299 154.93 31.5899 154.88 31.6399C154.82 31.6899 154.76 31.7099 154.68 31.7099C154.6 31.7099 154.54 31.6899 154.48 31.6399C154.42 31.5899 154.4 31.5299 154.4 31.4599C154.4 31.3899 154.43 31.33 154.48 31.28Z" fill="white"/>
<path d="M155.99 31.21C155.99 31.21 156.07 31.15 156.14 31.15C156.18 31.15 156.22 31.16 156.26 31.19C156.3 31.21 156.32 31.25 156.32 31.31C156.32 31.35 156.31 31.38 156.3 31.41C156.28 31.44 156.27 31.47 156.25 31.5L155.62 32.46L155.53 32.43L155.92 31.33C155.92 31.33 155.96 31.25 155.99 31.21Z" fill="white"/>
<path d="M157.27 29.13C157.26 28.93 157.25 28.74 157.24 28.53C157.28 28.53 157.32 28.54 157.37 28.55C157.41 28.55 157.45 28.55 157.49 28.55C157.53 28.55 157.57 28.55 157.61 28.55C157.65 28.55 157.7 28.54 157.74 28.53C157.73 28.73 157.72 28.93 157.71 29.13C157.7 29.32 157.7 29.52 157.7 29.72C157.7 30.11 157.7 30.44 157.7 30.73C157.7 31.01 157.7 31.27 157.71 31.49C157.95 31.49 158.18 31.49 158.39 31.49C158.61 31.49 158.85 31.47 159.1 31.43C159.08 31.49 159.08 31.53 159.08 31.57C159.08 31.6 159.08 31.64 159.1 31.69C158.95 31.69 158.79 31.69 158.64 31.69H157.71C157.56 31.69 157.4 31.69 157.24 31.69C157.25 31.5 157.26 31.31 157.27 31.11C157.27 30.91 157.27 30.71 157.27 30.51V29.72C157.27 29.52 157.27 29.32 157.27 29.13Z" fill="white"/>
<path d="M160.151 28.89C160.141 29.01 160.141 29.12 160.131 29.23C160.131 29.34 160.121 29.45 160.111 29.57C160.151 29.57 160.221 29.57 160.321 29.57C160.421 29.57 160.531 29.57 160.651 29.56C160.651 29.56 160.651 29.59 160.651 29.61V29.71C160.651 29.71 160.651 29.75 160.651 29.76C160.611 29.76 160.561 29.76 160.511 29.76C160.461 29.76 160.411 29.76 160.361 29.76H160.111C160.111 29.76 160.111 29.82 160.101 29.91C160.101 29.99 160.101 30.1 160.091 30.21C160.091 30.33 160.091 30.45 160.091 30.58C160.091 30.71 160.091 30.82 160.091 30.92C160.091 31.01 160.091 31.09 160.091 31.17C160.091 31.25 160.111 31.33 160.141 31.39C160.171 31.46 160.201 31.51 160.261 31.55C160.321 31.59 160.391 31.61 160.491 31.61C160.521 31.61 160.561 31.61 160.601 31.6C160.651 31.6 160.681 31.59 160.721 31.58V31.69C160.661 31.69 160.601 31.71 160.531 31.72C160.461 31.73 160.391 31.74 160.331 31.74C160.121 31.74 159.961 31.69 159.861 31.6C159.761 31.5 159.711 31.37 159.711 31.18C159.711 31.1 159.711 31.01 159.711 30.91C159.711 30.81 159.711 30.71 159.731 30.6C159.731 30.48 159.741 30.36 159.741 30.22C159.741 30.08 159.741 29.93 159.741 29.75H159.581C159.581 29.75 159.521 29.75 159.491 29.75C159.461 29.75 159.431 29.75 159.391 29.75C159.391 29.73 159.391 29.71 159.391 29.7C159.391 29.68 159.391 29.66 159.391 29.65C159.391 29.63 159.391 29.62 159.391 29.6C159.391 29.58 159.391 29.57 159.391 29.55C159.541 29.56 159.651 29.56 159.721 29.56C159.721 29.5 159.721 29.42 159.721 29.33C159.721 29.24 159.721 29.15 159.701 29.05L160.121 28.89H160.141H160.151Z" fill="white"/>
<path d="M162.801 31.25C162.771 31.3 162.741 31.35 162.691 31.41C162.641 31.47 162.591 31.52 162.521 31.57C162.451 31.62 162.371 31.66 162.281 31.69C162.181 31.72 162.081 31.74 161.951 31.74C161.821 31.74 161.701 31.72 161.571 31.68C161.451 31.64 161.341 31.58 161.241 31.49C161.141 31.4 161.061 31.28 161.011 31.14C160.951 31 160.921 30.83 160.921 30.63C160.921 30.43 160.951 30.27 161.021 30.12C161.091 29.98 161.171 29.86 161.271 29.76C161.371 29.66 161.491 29.59 161.621 29.54C161.751 29.49 161.881 29.47 162.011 29.47C162.381 29.47 162.641 29.62 162.791 29.93V29.13C162.791 29.01 162.791 28.9 162.791 28.79C162.791 28.68 162.791 28.58 162.791 28.49C162.791 28.39 162.791 28.31 162.791 28.24C162.831 28.24 162.871 28.25 162.911 28.26C162.951 28.26 162.981 28.26 163.021 28.26C163.061 28.26 163.091 28.26 163.131 28.26C163.171 28.26 163.201 28.26 163.251 28.24C163.251 28.34 163.231 28.48 163.221 28.67C163.221 28.86 163.211 29.06 163.201 29.28C163.201 29.5 163.201 29.73 163.191 29.97C163.191 30.21 163.191 30.42 163.191 30.62C163.191 30.83 163.191 31.02 163.191 31.19C163.191 31.36 163.191 31.53 163.191 31.71C163.121 31.71 163.061 31.71 163.001 31.71C162.941 31.71 162.871 31.71 162.811 31.71L162.831 31.27H162.821L162.801 31.25ZM161.431 31.1C161.471 31.22 161.531 31.32 161.591 31.39C161.661 31.46 161.731 31.51 161.821 31.54C161.901 31.57 161.991 31.58 162.071 31.58C162.201 31.58 162.311 31.55 162.411 31.49C162.501 31.43 162.581 31.35 162.641 31.25C162.701 31.16 162.751 31.05 162.781 30.92C162.811 30.8 162.821 30.68 162.821 30.55C162.821 30.26 162.761 30.03 162.631 29.88C162.511 29.72 162.321 29.65 162.081 29.65C161.961 29.65 161.861 29.68 161.771 29.73C161.681 29.78 161.601 29.85 161.551 29.94C161.491 30.03 161.451 30.14 161.421 30.26C161.391 30.38 161.371 30.51 161.371 30.65C161.371 30.83 161.391 30.99 161.431 31.1Z" fill="white"/>
<path d="M66.2507 25.1101L64.6807 25.0601L64.7907 25.7901L65.2407 25.8901C67.4007 26.5301 68.2507 27.6401 69.8807 29.5101L70.7007 30.5801L70.9107 30.9201C71.3807 31.2201 71.6407 31.0701 71.8007 30.8901C72.1707 30.4801 72.1107 29.5001 71.6807 27.9001C71.5007 27.2201 70.2407 25.4301 66.2607 25.1101H66.2507Z" fill="white"/>
<path d="M67.8102 17.67L66.7603 18.98H60.0902L56.9402 17.69V24.63H57.1902C57.4802 24.63 57.6802 24.63 57.8402 24.63C57.2002 26.55 55.4303 28.9 53.7603 30.23L53.5902 30.36L54.0502 31.13L54.2502 31.05C56.5002 30.18 59.0102 28.39 60.4702 26.3C60.5802 26.3 60.6803 26.3 60.7603 26.3C61.1603 26.3 61.4202 26.17 61.6102 25.86L61.7502 25.64L59.2603 24.26C59.8503 24.01 60.0602 23.74 60.1302 23.47H62.1202V29.39C62.1202 29.47 62.1202 29.51 62.1102 29.53C62.1002 29.53 62.0702 29.53 62.0302 29.53H59.1902V30.35L59.4102 30.37C61.0702 30.54 61.2903 30.97 61.2903 32.57V32.84L61.5602 32.82C64.5402 32.6 64.8903 31.36 64.8903 29.43V23.46H66.8702V24.39H67.1202C68.1802 24.39 68.8902 24.19 69.3002 24.03C69.5402 23.94 70.0902 23.69 70.0902 23.42V20.51C70.5302 20.38 70.8202 20.17 70.9702 20L71.1403 19.79L67.8102 17.64V17.67ZM70.9302 17.56C71.5702 17.56 72.1202 17.52 72.4202 16.98L72.5303 16.79L69.4503 14.61C69.8503 14.42 70.0502 14.21 70.0502 14.06V9.02004C70.5002 8.88004 70.5403 8.87004 70.7603 8.62004L70.9402 7.90004L69.4402 6.80004L68.1602 7.33004H60.1102L56.9402 6.04004V15.25H57.1902C59.6602 15.25 59.9302 14.24 59.9302 14.04V13.89H62.0902V16.56H55.6802C55.6802 16.56 55.9902 16.23 56.0202 16.18L56.1302 16L53.6502 13.77L52.4102 14.95V10.74H54.7102C55.4102 10.74 55.9103 10.64 56.2003 10.17L56.3203 9.98004L53.2802 7.67004L50.3503 9.72004H46.4503L46.7102 10.75H49.7303V15.72H47.0902L47.4002 16.75H49.7303V23.08C48.4403 23.27 46.2902 23.65 45.8102 23.71L45.4902 23.75L47.4102 27.59L47.6102 27.55C47.9602 27.49 48.2803 27.21 48.4503 26.82C51.9703 25.05 56.0003 23.37 57.2303 22.58L57.3702 22.49L57.2402 21.79L52.4102 22.57V16.75H54.5502C54.6602 16.75 54.7702 16.75 54.8802 16.75L55.0302 17.57H70.9203L70.9302 17.56ZM67.0502 10.98V12.86H59.9402V10.98H67.0502ZM59.9402 10.7V8.37004H65.8302M67.9102 16.56H64.8602V15.87C65.3002 15.79 65.5702 15.66 65.6602 15.39L65.7303 15.15L62.7402 13.9H67.0403V15.07H67.2903C68.3603 15.07 68.9002 14.87 69.4102 14.64L67.9002 16.56H67.9102ZM60.1602 22.45V19.98H66.8702V22.45H60.1602Z" fill="white"/>
<path d="M74.6106 23.0201V35.9201H75.2806C76.4906 35.9201 77.3106 35.3201 77.3106 34.8401V33.6201H82.3406V35.0201H82.5806C83.5906 35.0201 84.2706 34.8201 84.6606 34.6601C84.8806 34.5601 85.1506 34.3101 85.1506 34.0301V25.5401C85.5806 25.4101 85.9206 25.1901 86.1006 24.9301L86.2506 24.7201L83.3306 22.2301L82.2106 23.8201H75.8206L74.6006 23.0201H74.6106ZM82.3506 32.5401H77.3206V29.2501H82.3506V32.5401ZM77.0706 24.9101H82.3506V28.9201" fill="white"/>
<path d="M80.291 19.9501V15.8501H84.6411L84.0311 14.9601L82.8811 13.5101L80.8611 14.8501H80.3011V12.1801C80.9411 12.0801 81.3511 11.8801 81.4211 11.3401L81.4511 11.0901L77.5111 10.7101V14.8401H73.5311L73.8311 15.8301H77.5111V19.8401H71.5811L71.8411 20.8101H86.7511C87.1111 20.8101 87.3711 20.7901 87.6111 20.7001V35.7801H88.3111C89.7111 35.7801 90.4411 35.0801 90.4411 34.7001V14.0201H93.981V14.0601C93.481 16.1401 92.751 19.2701 92.291 20.8901L92.2511 21.0301L92.3611 21.1301C94.1111 22.7901 94.9911 24.7001 94.9911 26.8301C94.9911 27.6801 94.8111 28.2101 94.4511 28.4401C94.3211 28.5101 94.2111 28.5401 93.9611 28.5401H91.5511V29.3701L91.7411 29.4001C92.8111 29.5901 93.3611 29.7601 93.3611 31.4601V31.7201L93.6211 31.7001C95.2211 31.5601 96.361 31.0801 97.101 30.2401C97.771 29.4801 98.101 28.4301 98.101 27.0401C98.101 24.7201 96.5611 22.6801 93.3811 20.8101C94.5411 19.1901 96.1711 16.5701 97.0811 14.9701C97.6411 14.9601 98.051 14.8701 98.291 14.5401L98.4011 14.3801L95.5311 11.4001L92.3311 13.0701H90.8211L87.601 11.8101V20.1601L86.6311 18.6001L84.5511 19.9701H80.2811L80.291 19.9501Z" fill="white"/>
<path d="M88.2807 13.7001C87.6607 13.6401 90.2207 14.1001 91.0207 13.0001L86.8107 10.7301C86.8107 10.7301 84.3707 16.2601 78.9307 21.3901C74.6107 25.4701 69.8107 27.2201 68.9307 27.6601C68.9307 27.6601 74.3807 26.7001 79.4807 23.5201C84.3807 20.4601 88.2807 13.7101 88.2807 13.7101V13.7001Z" fill="white"/>
<path d="M12.4995 39.7201L13.4095 38.09C13.0795 38.09 12.7595 38.06 12.4295 38.05L11.4795 39.75C11.8195 39.75 12.1595 39.7401 12.4995 39.7201Z" fill="white"/>
<path d="M10.4395 40.2201L9.47949 41.9301C9.60949 41.9301 9.74949 41.9301 9.87949 41.9301L10.8395 40.2201C10.7095 40.2201 10.5695 40.2201 10.4395 40.2201Z" fill="white"/>
<path d="M11.1002 39.75L12.0602 38.03C11.9402 38.03 11.8102 38.03 11.6902 38.02C11.6902 38.02 11.6702 38.02 11.6602 38.02L10.7002 39.75C10.8302 39.75 10.9702 39.75 11.1002 39.75Z" fill="white"/>
<path d="M17.84 38.9301L18.68 37.4301C17.75 37.6501 16.82 37.8201 15.9 37.9301L15.04 39.4801C15.98 39.3401 16.92 39.1601 17.85 38.9301H17.84Z" fill="white"/>
<path d="M14.6094 39.54L15.4694 37.99C14.9094 38.04 14.3494 38.07 13.7994 38.09L12.8994 39.71C13.4694 39.67 14.0394 39.62 14.6094 39.54Z" fill="white"/>
<path d="M30.6902 3.95007C31.9502 4.09007 33.1802 4.40007 34.3702 4.83007C35.5602 5.25007 36.6902 5.86007 37.6802 6.65007C38.6702 7.44007 39.5002 8.43007 40.1202 9.54007C40.7302 10.6501 41.1302 11.8801 41.3102 13.1301C41.6802 15.6501 41.2402 18.2301 40.3702 20.6001C39.9402 21.7901 39.4002 22.9401 38.7802 24.0501C38.1602 25.1601 37.4802 26.2301 36.7002 27.2301C35.1402 29.2301 33.3002 31.0001 31.3202 32.5701C29.3302 34.1401 27.1902 35.5201 24.9302 36.6701C22.7302 37.7901 20.4102 38.7001 18.0102 39.3201L16.9502 41.2101C25.7202 39.0901 34.6602 32.7201 39.1502 24.6901C44.9302 14.3401 41.1302 5.14007 30.6902 3.95007Z" fill="white"/>
<path d="M14.7495 39.9701L13.7295 41.8101C14.6495 41.7001 15.5795 41.5201 16.5095 41.3201L17.5595 39.4401C16.6295 39.6701 15.6995 39.8501 14.7595 39.9801L14.7495 39.9701Z" fill="white"/>
<path d="M11.2198 40.2401L10.2598 41.9601C10.5898 41.9601 10.9198 41.9801 11.2498 41.9801L12.2397 40.2201C11.8997 40.2301 11.5598 40.2401 11.2198 40.2501V40.2401Z" fill="white"/>
<path d="M33.91 4.75006C40.99 7.05006 43.15 14.4501 38.56 22.6501C34.62 29.7101 26.82 35.3501 19.11 37.3201L18.29 38.8001C20.52 38.2101 22.69 37.3701 24.76 36.3401C27 35.2201 29.14 33.8701 31.12 32.3201C33.1 30.7701 34.94 29.0301 36.5 27.0701C37.28 26.0901 37.97 25.0301 38.59 23.9401C39.21 22.8401 39.75 21.7101 40.19 20.5301C41.06 18.1801 41.52 15.6301 41.17 13.1301C41 11.8901 40.62 10.6701 40.02 9.57006C39.42 8.47006 38.6 7.48006 37.63 6.69006C36.66 5.89006 35.54 5.28006 34.35 4.85006C33.16 4.42006 31.94 4.09006 30.68 3.94006C31.87 4.09006 32.94 4.37006 33.91 4.74006V4.75006Z" fill="white"/>
<path d="M12.6299 40.18L11.6299 41.96C12.1899 41.94 12.7499 41.9 13.3099 41.84L14.3299 40.02C13.7599 40.09 13.1899 40.14 12.6299 40.18Z" fill="white"/>
<path d="M27.55 2.03003L28.6 0.160034C27.68 0.270034 26.75 0.440034 25.82 0.650034L24.75 2.57003C25.67 2.34003 26.61 2.16003 27.55 2.03003Z" fill="white"/>
<path d="M29.67 1.82L30.68 0C30.13 0.02 29.57 0.06 29 0.12L27.96 1.97C28.52 1.9 29.1 1.85 29.66 1.81L29.67 1.82Z" fill="white"/>
<path d="M7.97981 37.17C6.78981 36.75 5.65979 36.14 4.67979 35.35C3.68979 34.56 2.85979 33.57 2.23979 32.46C1.62979 31.35 1.22979 30.12 1.04979 28.87C0.67979 26.35 1.11981 23.77 1.97981 21.39C2.40981 20.2 2.94981 19.05 3.56981 17.94C4.18981 16.84 4.8698 15.76 5.6498 14.76C7.2098 12.76 9.04981 10.99 11.0398 9.42001C13.0298 7.85001 15.1698 6.47001 17.4298 5.32001C19.6198 4.21001 21.9298 3.31001 24.3098 2.69001L25.3898 0.76001C16.6198 2.88001 7.67981 9.25001 3.19981 17.28C-2.17019 26.9 0.729791 35.52 9.54979 37.65C9.02979 37.51 8.5098 37.36 7.9998 37.18L7.97981 37.17Z" fill="white"/>
<path d="M31.0901 1.76004L32.0701 0.0200399C31.7401 0.0100399 31.4101 -0.00996012 31.0801 3.98778e-05L30.0801 1.79004C30.4201 1.78004 30.7601 1.76004 31.1001 1.76004H31.0901Z" fill="white"/>
<path d="M31.8697 1.78004L32.8397 0.0400391C32.7097 0.0400391 32.5697 0.0400391 32.4397 0.0400391L31.4697 1.78004C31.5997 1.78004 31.7397 1.78004 31.8697 1.78004Z" fill="white"/>
<path d="M29.8001 2.28L28.9102 3.88C29.2402 3.88 29.5602 3.91 29.8902 3.92L30.8202 2.25C30.4802 2.25 30.1401 2.26 29.8001 2.28Z" fill="white"/>
<path d="M31.1998 2.25L30.2598 3.94C30.3798 3.94 30.5098 3.94 30.6298 3.96H30.6497L31.5998 2.26C31.4698 2.26 31.3298 2.26 31.1998 2.26V2.25Z" fill="white"/>
<path d="M17.5795 5.65006C15.3295 6.77006 13.1995 8.12006 11.2195 9.66006C9.23947 11.2101 7.39946 12.9501 5.83946 14.9101C5.05946 15.8901 4.36947 16.9501 3.74947 18.0401C3.12947 19.1301 2.58946 20.2701 2.14946 21.4501C1.27946 23.8001 0.809472 26.3501 1.15947 28.8401C1.32947 30.0801 1.70948 31.3001 2.31948 32.4101C2.91948 33.5101 3.73946 34.5001 4.70946 35.2901C5.67946 36.0901 6.79946 36.7001 7.98946 37.1301C8.70946 37.3901 9.44947 37.6101 10.1895 37.7801C10.6595 37.8701 11.1395 37.9601 11.6295 38.0101C10.4395 37.8601 9.36946 37.5801 8.39946 37.2101C1.31946 34.9101 -0.840532 27.5201 3.74947 19.3001C7.68947 12.2401 15.4895 6.60006 23.2095 4.63006L24.0095 3.19006C21.7895 3.78006 19.6295 4.62006 17.5795 5.64006V5.65006Z" fill="white"/>
<path d="M27.6898 2.47005L26.8398 3.98005C27.3998 3.92005 27.9599 3.90005 28.5099 3.89005L29.3998 2.30005C28.8298 2.34005 28.2598 2.40005 27.6898 2.47005Z" fill="white"/>
<path d="M24.4594 3.08002L23.6494 4.54002C24.5794 4.32002 25.5094 4.15002 26.4294 4.04002L27.2794 2.52002C26.3294 2.66002 25.3994 2.85002 24.4694 3.08002H24.4594Z" fill="white"/>
<path d="M19.2002 20.12C19.1802 20.07 19.1502 20.02 19.1202 19.99C17.6202 17.86 13.5502 18.87 10.0702 22.25C6.57018 25.63 4.94016 30.1 6.46016 32.23C6.78016 32.7 7.21017 33.01 7.75017 33.17L16.1702 23.46L19.2002 20.11V20.12Z" fill="white"/>
<path d="M24.1701 20.33C24.5201 20.12 24.8601 19.94 25.2301 19.79C26.1601 19.24 27.1001 18.53 28.0101 17.65C31.4601 14.31 33.0801 9.90998 31.6201 7.81998C30.1501 5.73998 26.1501 6.74998 22.6901 10.1C19.2301 13.45 17.6201 17.84 19.0901 19.94C19.1401 19.99 19.1801 20.05 19.2301 20.1L25.1901 13.53L24.1801 20.33H24.1701Z" fill="white"/>
<path d="M25.2202 19.8001C24.8602 19.9901 24.5102 20.1801 24.1602 20.3401L23.6703 23.6301L21.9902 33.1501C23.4902 32.6501 25.1502 31.6301 26.7202 30.2001C30.3302 26.8301 32.1003 22.3501 30.6403 20.2001C29.6703 18.7901 27.5702 18.7201 25.2202 19.8001Z" fill="white"/>
<path d="M18.7402 25.56C19.4402 24.46 20.3602 23.36 21.4302 22.37C22.3202 21.55 23.2302 20.88 24.1202 20.36C22.0502 21.28 20.2002 21.25 19.2202 20.11L19.2003 20.13C20.0103 21.41 19.7602 23.45 18.7402 25.57V25.56Z" fill="white"/>
<path d="M11.9702 29.87H11.6202L10.3602 32.25L10.2202 32.48C10.1602 32.58 10.1102 32.66 10.0802 32.72C10.0202 32.79 9.95026 32.86 9.89026 32.9C9.82026 32.94 9.78026 32.95 9.73026 32.95C9.71026 32.95 9.69025 32.95 9.69025 32.95C9.69025 32.95 9.68025 32.93 9.69025 32.86C9.69025 32.79 9.73025 32.64 9.88025 32.35L9.94025 32.24L9.54025 32.35V32.37C9.33025 32.75 9.24023 33.02 9.24023 33.18C9.24023 33.31 9.28025 33.48 9.54025 33.48H9.56024C9.71024 33.48 9.89025 33.39 10.1003 33.2C10.2803 33.02 10.4802 32.74 10.7202 32.29L12.0002 29.87H11.9702Z" fill="white"/>
<path d="M12.4994 29.87L10.6094 33.43H10.9594L12.8494 29.87H12.4994Z" fill="white"/>
<path d="M14.58 29.87L13.28 32.32L13.69 29.87H13.36L11.46 33.43H11.83L13.13 30.98L12.69 33.43H13.05L14.94 29.87H14.58Z" fill="white"/>
<path d="M15.0994 32.0701H15.6394L15.3394 32.6401C15.2394 32.7101 15.1294 32.7801 14.9994 32.8501H14.9894C14.8694 32.9301 14.7594 32.9601 14.6594 32.9601C14.5794 32.9601 14.5194 32.9401 14.4794 32.9001C14.4294 32.8601 14.4094 32.7801 14.4094 32.6701C14.3994 32.4501 14.4994 32.1601 14.7594 31.6501C14.9194 31.3601 15.0794 31.1201 15.2594 30.9201C15.4394 30.6901 15.5794 30.5501 15.7194 30.4501C15.8594 30.3601 15.9894 30.3201 16.1194 30.3201C16.1994 30.3201 16.2694 30.3401 16.2794 30.3701C16.3194 30.4201 16.3394 30.4901 16.3394 30.5601C16.3194 30.7001 16.2794 30.8401 16.2194 30.9901L16.1694 31.1101L16.5794 30.9401V30.9201C16.6994 30.6601 16.7494 30.4901 16.7594 30.3201C16.7594 30.1901 16.7394 30.0801 16.6794 29.9601C16.6094 29.8401 16.4594 29.8201 16.3394 29.8201C16.1394 29.8201 15.9294 29.9001 15.7194 30.0401C15.5094 30.1701 15.2994 30.3701 15.0594 30.6301C14.7994 30.9601 14.5794 31.2901 14.3994 31.6401C14.1994 32.0101 14.0794 32.3301 14.0194 32.6001C13.9594 32.8801 13.9594 33.0901 14.0294 33.2601C14.0994 33.4201 14.2394 33.4901 14.4694 33.4901C14.5894 33.4901 14.7394 33.4401 14.9694 33.3401L15.0494 33.2901C15.1994 33.2001 15.3794 33.1001 15.5594 32.9401L16.2894 31.5601H15.3894L15.1094 32.0701H15.0994Z" fill="white"/>
<path d="M19.4695 30.87C19.5595 30.6 19.5895 30.43 19.5895 30.3C19.5895 30.12 19.5196 30.04 19.4496 29.97C19.3896 29.9 19.2795 29.87 19.0795 29.87H18.4095L16.5195 33.43H17.2795C17.4695 33.43 17.6695 33.36 17.8495 33.25C18.0395 33.13 18.2396 32.95 18.4796 32.67C18.7096 32.34 18.9295 31.99 19.1095 31.64C19.2795 31.37 19.4095 31.1 19.4695 30.86V30.87ZM18.2395 32.44C18.1195 32.59 17.9895 32.71 17.8495 32.81C17.7595 32.88 17.6295 32.91 17.4695 32.91H17.1595L18.5295 30.39H18.8695C18.9795 30.39 19.0595 30.41 19.1095 30.44C19.1495 30.5 19.1595 30.62 19.1295 30.79C19.0895 30.99 18.9695 31.27 18.7795 31.59C18.6095 31.93 18.4395 32.2 18.2395 32.44Z" fill="white"/>
<path d="M22.0402 29.88H21.6702L20.6002 31.91C20.3202 32.41 20.1201 32.66 20.0301 32.76C19.8801 32.89 19.7401 32.96 19.6101 32.96C19.6001 32.96 19.5801 32.96 19.5601 32.96C19.4501 32.96 19.4201 32.92 19.4101 32.88C19.3901 32.82 19.3702 32.75 19.4202 32.6C19.4602 32.49 19.5601 32.27 19.7101 31.96L20.8301 29.88H20.4601L19.3902 31.91C19.0802 32.46 18.9201 32.88 18.9401 33.1C18.9401 33.34 19.1001 33.48 19.3701 33.48C19.5001 33.48 19.6201 33.45 19.7401 33.39C19.8901 33.33 20.0301 33.21 20.1601 33.08C20.1701 33.08 20.1801 33.06 20.1901 33.05C20.5601 32.66 20.8902 32.02 20.9202 31.97L22.0301 29.89L22.0402 29.88Z" fill="white"/>
</svg>
