<svg width="316" height="591" viewBox="0 0 316 591" fill="none" xmlns="http://www.w3.org/2000/svg">
<g filter="url(#filter0_d_75_3031)">
<path d="M233.94 83.31H220.38C229.08 94.95 238.8 109.99 242.49 120.75L224.21 130.77C223.18 127.53 221.7 123.84 219.94 119.86C204.46 124.13 189.14 128.11 178.38 130.62C178.09 132.24 176.91 133.27 175.73 133.57L167.77 109.55C170.57 109.11 173.81 108.67 177.35 108.08V8.00995H233.95V83.3199L233.94 83.31ZM214.19 27.75H197.68V36.1499H214.19V27.75ZM197.68 55.02V63.5699H214.19V55.02H197.68ZM197.68 104.69L210.36 102.33C208 98.5 205.5 94.81 203.14 91.42L218.76 83.31H197.68V104.68V104.69ZM302.62 7.70995V96.88C302.62 113.83 298.05 121.79 273.14 121.79C272.55 115.3 269.16 104.4 265.92 98.36C268.72 98.65 271.82 98.6499 274.17 98.6499C279.77 98.6499 280.36 98.6499 280.36 96.2899V29.38H264.88V141.1H242.92V7.69995H302.61L302.62 7.70995Z" fill="white"/>
<path d="M230.4 286.99C226.72 281.68 219.49 274.46 212.57 267.83C202.84 275.94 192.08 282.86 180.88 288.76C177.78 283.31 172.04 276.23 166.88 271.52C190.17 261.79 213.01 244.7 225.24 223.03L247.05 231.43C246.46 232.61 244.99 233.35 242.63 233.35C238.36 240.42 233.34 247.2 227.6 253.54C234.97 259.73 242.93 266.95 247.35 272.26L230.4 287V286.99ZM180.29 193.84L184.12 196.34C187.36 192.36 190.46 187.79 193.26 183.52H169.24V164.51H197.83V148.45L223.18 149.78C223.03 151.4 221.85 152.43 218.76 152.87V164.51H245.58V183.52H216.84L220.23 185.14C219.49 186.32 217.72 186.76 215.51 186.61C211.24 192.65 204.9 200.32 199 206.65C201.06 208.12 202.98 209.74 204.75 211.22C210.5 204.88 215.36 198.25 219.19 191.18L240.86 198.84C240.27 200.17 238.94 200.9 236.73 200.9C224.5 221.98 204.31 240.84 182.05 254.11C179.1 249.25 173.5 242.76 168.49 238.49C175.86 234.81 183.08 230.24 190.01 224.78C183.53 219.18 175.12 212.7 168.34 207.98L180.28 193.83L180.29 193.84ZM274.91 167.9C274.76 169.52 273.58 170.41 270.64 171V250.88H250.45V166.58L274.92 167.91L274.91 167.9ZM280.81 151.69L306.01 152.72C305.72 154.34 304.68 155.52 301.59 155.96V263.85C301.59 282.72 296.14 288.46 265.48 288.46C264.74 282.42 261.8 272.69 258.85 266.65C266.51 266.94 274.62 266.94 277.42 266.94C279.93 266.94 280.81 266.2 280.81 263.7V151.69Z" fill="white"/>
<path d="M233.79 355.07H195.76V435.84H174.83V301.13H233.78V355.07H233.79ZM213.75 316.16H195.77V321.02H213.75V316.16ZM195.77 340.04H213.75V334.59H195.77V340.04ZM275.06 404H260.76V433.33H242.04V404H231.28C229.22 413.43 224.06 426.84 213.15 434.21C210.35 430.53 203.86 424.63 199.74 421.83C206.96 416.97 210.94 410.04 212.86 404H200.63V386.76H214.19V378.36H202.55V361.71H273V378.36H260.77V386.76H275.07V404H275.06ZM232.32 386.76H242.05V378.36H232.32V386.76ZM301.44 301.13V411.82C301.44 429.51 296.28 435.55 268.72 435.25C268.13 429.5 265.33 419.63 262.53 414.17C265.92 414.46 269.75 414.46 272.85 414.46C279.63 414.46 280.37 414.46 280.37 411.51V355.5H241.46V301.12H301.45L301.44 301.13ZM280.36 316.16H261.79V321.02H280.36V316.16ZM261.79 340.48H280.36V334.58H261.79V340.48Z" fill="white"/>
<path d="M293.629 463.54L304.089 463.98C303.059 475.33 304.529 537.52 298.489 546.81C297.159 548.87 295.839 550.2 294.509 551.38C298.779 553.44 304.239 555.21 308.219 556.1C305.709 575.41 299.969 581.3 283.749 581.3H259.139C239.389 581.3 233.489 575.7 233.489 555.21V508.34L232.159 509.81C229.949 507.01 225.819 502.88 222.139 499.49H210.939V512.31H225.679V530.73H210.939V547.09L226.859 543.11L229.369 560.65C210.209 566.54 189.869 572.44 176.609 576.27C176.319 577.74 175.139 578.78 173.959 579.07L166.149 557.55L171.899 556.37V508.17L192.389 509.35V499.47H172.789V448.47H224.229V487.53C232.779 475.74 239.849 459.08 243.979 443.02L267.119 449.65C266.679 450.98 265.199 451.71 262.989 451.57C261.659 455.55 260.339 459.68 258.719 463.66H289.379L293.649 463.51L293.629 463.54ZM188.839 552.41L192.379 551.53V510.41C191.939 511.15 190.759 511.74 188.839 512.03V552.41ZM190.759 466.48V481.66H205.059V466.48H190.759ZM278.009 536.78C279.339 536.63 280.369 536.04 281.399 534.42C283.169 531.33 284.049 518.36 284.639 482.84H250.149C248.819 485.34 247.499 487.85 246.169 490.21H277.999V536.78H278.009ZM253.249 507.6V521.6H260.179V507.6H253.249ZM253.249 555.06C253.249 561.84 254.279 562.72 261.649 562.72H281.989C286.999 562.72 288.619 561.25 289.649 553.73C286.699 554.61 285.229 555.06 273.289 555.06C272.999 550.34 271.669 544.01 269.609 539H253.249V555.06Z" fill="white"/>
<path d="M147.45 89.3499V109.69H89.5302V140.94H67.4202V109.69H11.4102V89.3499H67.4202V78.7399H25.5602V8.57996H132.71V78.7399H93.8002C93.3602 79.9199 92.1802 80.6599 89.5302 81.0999V89.3499H147.45ZM46.6402 27.3V34.9599H110.46V27.3H46.6402ZM46.6402 52.2099V60.02H110.46V52.2099H46.6402Z" fill="white"/>
<path d="M41.6303 255.45C38.3903 267.39 33.5203 280.06 25.4203 288.46L8.32031 277.85C15.5403 270.78 20.9903 259.87 23.8003 249.11L41.6303 255.45ZM147.01 228.48H51.0603V232.9H128.29L132.71 232.46L144.06 234.23C144.06 235.7 143.77 237.62 143.32 239.39C140.22 287.73 137.42 289.35 108.39 288.76C108.24 283.6 106.18 276.38 103.53 271.81C107.95 272.25 111.78 272.25 113.99 272.25C115.91 272.25 117.09 271.96 118.41 270.63C120.03 268.57 121.65 262.38 122.83 247.79H106.77C110.01 253.83 113.84 261.79 115.32 266.95L99.2603 272.85C98.0803 267.54 94.6903 259.14 91.4503 252.81L106.19 247.8H29.8403V159.07H63.0003C64.1803 155.09 65.2103 150.96 65.6503 147.57L92.7703 151.4C92.3303 152.73 91.1503 153.46 88.7903 153.61L85.9903 159.06H126.37V209.47H51.0603V214.04H147.01V228.48ZM47.5303 284.04C47.9703 276.67 46.7903 264.88 44.8803 256.04L62.4203 253.39C64.7803 262.23 66.1003 273.73 66.1003 281.25L47.5303 284.05V284.04ZM105.3 173.5H51.0603V177.77H105.3V173.5ZM51.0603 195.17H105.3V190.45H51.0603V195.17ZM74.9403 281.39C74.3503 274.76 71.7003 264 68.7503 255.89L84.8103 252.06C88.2003 259.87 91.2903 270.19 92.1803 276.82L74.9403 281.39Z" fill="white"/>
<path d="M143.32 405.78H127.55C135.36 411.23 145.68 418.9 151.13 424.2L134.33 436.14C129.47 430.69 118.71 421.84 110.75 415.8L125.49 405.78H92.9197L108.4 415.65C107.81 416.24 106.93 416.53 105.75 416.68C99.2597 423.31 85.4097 431.86 74.0597 436.13C70.6697 432.3 64.4797 426.11 59.9097 422.42C70.2297 418.74 81.7197 411.66 88.6497 405.77H76.2697V351.24C72.4397 372.17 67.4297 387.35 66.2497 391.03L51.0697 385.43C52.2497 380.71 53.5797 374.38 54.8997 367.89H49.7397V413.87C49.7397 428.61 46.3497 436.12 18.1997 435.68C17.4597 429.78 14.6597 420.94 11.8597 415.34C17.4597 415.49 24.3897 415.49 26.4497 415.49C28.5097 415.49 29.0997 415.05 29.0997 413.43V367.89H8.46973V349.17H35.1497C28.2197 344.6 20.2597 340.18 13.3397 336.94L23.7997 322.94C27.7797 324.56 32.1997 326.62 36.4797 328.84C38.8397 326.19 41.1997 323.09 43.4097 320H11.5697V301.58H57.4097L60.5097 300.55L71.1197 306.89V301.14H148.06V318.97H119.91C119.17 321.33 118.44 323.98 117.55 326.63H143.34V405.78H143.32ZM66.0897 349.18L76.2597 349.77V326.63H96.2997C96.7397 324.13 97.1797 321.47 97.4797 318.97H71.0997V312.93C66.0897 320.74 59.1597 330.17 52.0897 337.84C54.8897 339.76 57.5397 341.67 59.4597 343.44L55.3297 349.19H66.0897V349.18ZM122.83 348.59V341.96H95.7097V348.59H122.83ZM122.83 369.37V362.74H95.7097V369.37H122.83ZM122.83 390.3V383.67H95.7097V390.3H122.83Z" fill="white"/>
<path d="M133.89 469.14L145.24 469.88C145.24 471.5 145.09 474.45 144.95 476.81C143.62 542.25 142 565.24 136.4 573.05C130.65 581.16 124.02 583.07 108.25 583.07C104.71 583.07 101.18 583.07 97.6399 582.92C97.3499 577.32 94.5398 568.48 90.8598 562.73C99.6998 563.47 107.66 563.47 111.64 563.47C114.44 563.47 116.06 562.88 117.83 560.82C121.66 556.55 123.14 536.06 124.17 489.49H91.5998C88.2098 496.57 84.5298 503.2 80.6898 508.5C77.5898 505.7 71.8499 501.72 66.9799 498.77C71.6999 506.73 75.9698 515.13 77.7398 521.61L61.5299 530.31C61.0899 528.25 60.1998 525.74 59.3198 523.23L51.2098 523.82V536.64L66.3899 531.48C70.2199 540.77 74.4999 552.56 76.5599 560.52L59.0198 567.15C57.6898 560.22 54.2998 549.91 51.2098 541.06V583.21H31.6098V540.32H31.4598C29.8398 551.82 27.1898 564.79 23.2098 573.33C19.3798 570.68 12.1598 567.43 7.58984 565.67C11.2698 557.56 13.4898 543.71 14.5198 531.48L31.6199 535.46V525.29C25.4299 525.73 19.8298 526.03 15.1098 526.32C14.6698 527.79 13.3398 528.38 12.1598 528.53L8.32985 507.6H18.7898C20.9998 505.09 23.2098 502.29 25.4198 499.49C20.8498 493.45 14.2198 486.67 8.46985 481.66L18.0499 466.92L20.6998 468.98C25.2698 460.87 29.8398 451.15 32.4898 443.34L53.5698 451.89C52.8298 453.22 51.0598 453.66 48.9998 453.51C45.0198 461.62 38.5398 472.23 32.9398 480.19C34.1198 481.52 35.2998 482.84 36.3298 484.17C41.7798 476.06 46.7899 467.81 50.4799 460.59L70.8198 469.88C70.0798 471.06 68.4598 471.65 66.0998 471.65C61.0898 479.46 54.1598 488.75 46.9398 497.74H47.0899C51.9499 495.09 56.8198 492.73 61.6798 490.22C62.5598 491.55 63.4499 493.02 64.4799 494.49C73.0299 482.26 80.0998 462.07 83.7898 443.2L108.85 449.54C108.26 450.87 106.79 451.75 104.58 451.6C103.11 457.5 101.48 463.39 99.4199 469.29H129.34L133.91 469.14H133.89ZM51.9398 507.17C50.3198 503.93 48.5499 500.83 46.7799 498.03C44.1299 501.27 41.4698 504.37 38.8198 507.32L51.9398 507.17ZM94.3899 546.67C91.8799 537.53 84.5098 523.38 77.4398 512.77L94.5398 504.22C101.91 514.24 110.02 527.65 112.96 537.09L94.3899 546.67Z" fill="white"/>
</g>
<defs>
<filter id="filter0_d_75_3031" x="0.669844" y="0.779951" width="314.47" height="589.35" filterUnits="userSpaceOnUse" color-interpolation-filters="sRGB">
<feFlood flood-opacity="0" result="BackgroundImageFix"/>
<feColorMatrix in="SourceAlpha" type="matrix" values="0 0 0 0 0 0 0 0 0 0 0 0 0 0 0 0 0 0 127 0" result="hardAlpha"/>
<feOffset/>
<feGaussianBlur stdDeviation="3.46"/>
<feColorMatrix type="matrix" values="0 0 0 0 1 0 0 0 0 1 0 0 0 0 1 0 0 0 0.55 0"/>
<feBlend mode="normal" in2="BackgroundImageFix" result="effect1_dropShadow_75_3031"/>
<feBlend mode="normal" in="SourceGraphic" in2="effect1_dropShadow_75_3031" result="shape"/>
</filter>
</defs>
</svg>
