<svg width="200" height="16" viewBox="0 0 200 16" fill="none" xmlns="http://www.w3.org/2000/svg">
<path d="M199.74 0H0V16.005H199.74V0Z" fill="#1D2080"/>
<path d="M11.7453 8.85001C12.0303 9.04501 12.9153 9.70501 13.1253 9.90001L12.6453 10.5C12.4653 10.305 12.0753 9.93001 11.7453 9.61501V11.7H10.9353V9.67501C10.5603 10.245 10.1103 10.755 9.69025 11.085C9.55525 10.905 9.31525 10.635 9.13525 10.5C9.73525 10.095 10.3953 9.36001 10.8003 8.64001H9.33025V7.93501H10.9353V7.15501H9.22525V6.46501H10.2003C10.1403 6.12001 10.0203 5.65501 9.85525 5.28001L10.4403 5.11501H9.40525V4.42501H10.9353V3.48001L11.9403 3.54001C11.9403 3.54001 11.8803 3.66001 11.7453 3.67501V4.42501H13.3053V5.11501H12.3003L13.0203 5.31001C13.0203 5.31001 12.9303 5.40001 12.8253 5.40001C12.7203 5.70001 12.5403 6.12001 12.3753 6.45001H13.5003V7.14001H11.9103C11.9103 7.14001 11.8353 7.18501 11.7453 7.20001V7.92001H13.3653V8.62501H11.7453V8.80501V8.85001ZM11.6703 6.42001C11.8203 6.07501 12.0153 5.52001 12.1053 5.13001H10.5153C10.7103 5.53501 10.8603 6.07501 10.9053 6.42001L10.7103 6.48001H11.8203L11.6553 6.42001H11.6703ZM17.4453 6.45001V7.23001H16.5003V11.715H15.6903V7.23001H14.5803C14.5803 8.23501 14.5503 10.365 13.1703 11.745C13.0653 11.565 12.7653 11.265 12.5703 11.16C13.6653 10.065 13.7703 8.58001 13.7703 7.35001V4.30501L14.2503 4.44001C15.1203 4.18501 16.0203 3.82501 16.5603 3.49501L17.3553 4.09501C17.3553 4.09501 17.2353 4.15501 17.1303 4.14001C16.5003 4.47001 15.5103 4.81501 14.5653 5.07001V6.45001H17.4303H17.4453Z" fill="white"/>
<path d="M21.0297 9.25501L22.1247 8.95501C22.1247 8.95501 22.1397 9.03001 22.2297 9.66001C21.1947 9.99001 20.0997 10.32 19.3947 10.515C19.3947 10.59 19.3197 10.65 19.2747 10.665L18.9897 9.78001C19.3347 9.70501 19.7547 9.60001 20.2197 9.46501V7.32001H19.1997V6.55501H20.2197V4.78501H19.1247V4.00501H22.0947V4.78501H21.0297V6.55501H22.0197V7.32001H21.0297V9.24001V9.25501ZM25.0047 10.71H27.3447V11.475H21.7047V10.71H24.2247V9.55501H22.2897V8.80501H24.2247V7.92001H22.3197V3.94501H26.9847V7.90501H25.0047V8.79001H27.0747V9.54001H25.0047V10.695V10.71ZM23.0697 4.68001V5.61001H24.2247V4.68001H23.0697ZM23.0697 7.20001H24.2247V6.27001H23.0697V7.20001ZM26.2047 5.59501V4.66501H25.0047V5.59501H26.2047ZM26.2047 7.20001V6.27001H25.0047V7.20001H26.2047Z" fill="white"/>
<path d="M30.6002 8.74498V6.64498C30.2552 7.28998 29.8202 7.85998 29.3852 8.24998C29.2652 8.06998 29.0102 7.79998 28.8452 7.66498C29.4752 7.21498 30.1052 6.35998 30.4802 5.50498H29.0552V4.79998H30.6152V3.50998L31.6052 3.56998C31.6052 3.56998 31.5452 3.68998 31.4102 3.70498V4.78498H32.7452V5.48998H31.4102V5.92498C31.7552 6.13498 32.6402 6.77998 32.8652 6.95998L32.4152 7.63498C32.2052 7.40998 31.7702 7.01998 31.4102 6.70498V8.75998H30.6152L30.6002 8.74498ZM30.8252 9.50998C30.5852 10.215 30.2252 10.98 29.6252 11.46L28.9352 10.965C29.4752 10.56 29.8802 9.86998 30.0902 9.22498L30.8252 9.50998ZM32.1152 10.62C32.1152 10.86 32.1902 10.89 32.6402 10.89H34.0652C34.4102 10.89 34.4852 10.8 34.5152 10.08C34.6952 10.215 35.0402 10.32 35.2652 10.38C35.1602 11.4 34.9202 11.64 34.1402 11.64H32.5652C31.5602 11.64 31.3052 11.415 31.3052 10.635V9.31498L32.3402 9.37498C32.3402 9.37498 32.2652 9.49498 32.1302 9.50998V10.62H32.1152ZM33.5102 10.275C33.2252 9.88498 32.6102 9.34498 32.0702 8.98498L32.6252 8.54998C33.1652 8.87998 33.7952 9.38998 34.0952 9.79498L33.5102 10.275ZM36.6452 3.94498V8.63998H33.1052V3.94498H36.6452ZM35.8502 5.30998V4.61998H33.8702V5.30998H35.8502ZM35.8502 6.62998V5.93998H33.8702V6.62998H35.8502ZM35.8502 7.96498V7.25998H33.8702V7.96498H35.8502ZM36.5252 11.475C36.2402 10.905 35.5352 10.11 34.8602 9.55498L35.5352 9.13498C36.2102 9.67498 36.9452 10.425 37.2602 11.01L36.5252 11.46V11.475Z" fill="white"/>
<path d="M40.0652 8.16C39.7802 8.475 39.4952 8.76 39.2252 9C39.1052 8.82 38.8502 8.475 38.7002 8.325C39.5402 7.65 40.5002 6.495 41.0852 5.385L42.0152 5.775C42.0152 5.775 41.8952 5.865 41.7902 5.85C41.5502 6.27 41.2502 6.69 40.9352 7.11L41.1152 7.17C41.1152 7.17 41.0402 7.305 40.9052 7.305V11.715H40.0652V8.16ZM41.6702 3.885C41.6702 3.885 41.5652 3.975 41.4452 3.96C40.9052 4.605 39.9902 5.49 39.1652 6.045C39.0602 5.865 38.8352 5.535 38.7002 5.37C39.4352 4.89 40.2902 4.11 40.7252 3.465L41.6552 3.855L41.6702 3.885ZM46.9652 6.57V7.365H45.6302V10.725C45.6302 11.625 45.2552 11.73 43.4852 11.715C43.4552 11.475 43.3352 11.13 43.2152 10.89C43.5602 10.89 43.9052 10.905 44.1602 10.905C44.7152 10.905 44.7752 10.905 44.7752 10.725V7.38H41.9402V6.585H46.9652V6.57ZM46.6202 4.02V4.815H42.2702V4.02H46.6202Z" fill="white"/>
<path d="M50.8055 10.185L52.1555 9.97501L52.2005 10.665C51.0155 10.89 49.7705 11.115 48.9905 11.25C48.9905 11.325 48.9155 11.37 48.8555 11.385L48.6005 10.5C49.0055 10.44 49.5155 10.38 50.0705 10.305V7.96501H48.7205V7.26001H50.0705V6.43501H49.2155V6.28501L49.0505 6.45001C48.9155 6.27001 48.6605 6.01501 48.4805 5.91001C49.2305 5.17501 49.8005 4.23001 50.1305 3.49501L51.0755 3.64501C51.0605 3.72001 51.0005 3.76501 50.8805 3.76501V3.79501C51.4055 4.20001 52.0205 4.72501 52.3355 5.10001C52.1255 5.37001 52.0055 5.56501 51.8705 5.77501C51.5855 5.41501 51.0305 4.89001 50.5205 4.47001C50.2805 4.87501 50.0105 5.31001 49.6805 5.73001H51.7805V6.43501H50.8355V7.26001H52.0955V7.96501H50.8355V10.185H50.8055ZM49.2305 10.065C49.1855 9.63001 49.0355 8.97001 48.8705 8.46001L49.4405 8.31001C49.6205 8.80501 49.7855 9.46501 49.8305 9.88501L49.2455 10.065H49.2305ZM52.1705 8.50501C52.1705 8.50501 52.0655 8.58001 51.9755 8.58001C51.8555 8.97001 51.6605 9.57001 51.4955 9.94501L50.9705 9.76501C51.1205 9.34501 51.3005 8.70001 51.3905 8.25001L52.1705 8.50501ZM53.8205 4.26001C53.8205 4.26001 53.7305 4.35001 53.6255 4.35001C53.4005 5.02501 53.0105 5.79001 52.5905 6.27001C52.4405 6.15001 52.1555 5.95501 51.9755 5.86501C52.3655 5.43001 52.7105 4.69501 52.9205 3.99001L53.8205 4.26001ZM56.4005 6.31501V10.785C56.4005 11.625 56.0405 11.715 54.7805 11.715C54.7505 11.49 54.6305 11.13 54.5105 10.92C54.7355 10.92 54.9755 10.935 55.1555 10.935C55.5305 10.935 55.5905 10.935 55.5905 10.77V9.97501H53.3255V11.7H52.5305V6.30001H54.0155V3.48001L55.0205 3.54001C55.0205 3.61501 54.9605 3.66001 54.8255 3.69001V6.31501H56.4005ZM55.6055 7.05001H53.3405V7.80001H55.6055V7.05001ZM53.3405 9.27001H55.6055V8.49001H53.3405V9.27001ZM55.7705 3.96001C56.2205 4.51501 56.7155 5.28001 56.9105 5.79001L56.2055 6.18001C56.0255 5.67001 55.5455 4.87501 55.1105 4.30501L55.7705 3.97501V3.96001Z" fill="white"/>
<path d="M58.7852 3.82498H66.3002V11.715H65.4902V11.385H59.5652V11.715H58.7852V3.82498ZM59.5652 10.695H65.4902V4.51498H59.5652V10.68V10.695ZM63.9752 8.44498C63.9752 8.44498 63.9152 8.54998 63.7952 8.57998V8.81998H65.0852V9.29998H63.7952V9.83998C63.7952 10.35 63.6152 10.455 62.5052 10.44C62.4452 10.275 62.3402 10.065 62.2652 9.92998C62.5802 9.92998 62.8952 9.92998 62.9702 9.92998C63.0452 9.92998 63.0902 9.89998 63.0902 9.80998V9.28498H61.3352C61.6052 9.50998 61.8752 9.82498 62.0252 10.035L61.4552 10.35C61.3202 10.11 61.0052 9.74998 60.7202 9.49498L61.1402 9.28498H59.9402V8.80498H63.0752V8.41498C61.9952 8.44498 60.9752 8.47498 60.2552 8.48998C60.2402 8.54998 60.1802 8.57998 60.1352 8.59498L59.9552 8.02498C60.5402 8.02498 61.2902 8.02498 62.1152 8.00998V7.64998H60.3752V5.86498H62.1152V5.54998H59.9852V5.06998H62.1152V4.64998L63.0002 4.70998C63.0002 4.70998 62.9402 4.81498 62.8202 4.84498V5.06998H64.9952V5.54998H62.8202V5.86498H64.6202V7.64998H64.1852C64.5602 7.87498 64.9502 8.14498 65.1602 8.35498L64.6802 8.66998C64.5902 8.57998 64.4852 8.47498 64.3502 8.36998C64.0802 8.36998 63.7952 8.38498 63.5252 8.38498L63.9602 8.41498L63.9752 8.44498ZM61.0502 6.25498V6.58498H62.1452V6.25498H61.0502ZM61.0502 7.28998H62.1452V6.95998H61.0502V7.28998ZM63.9602 6.25498H62.8352V6.58498H63.9602V6.25498ZM62.8352 7.28998H63.9602V6.95998H62.8352V7.28998ZM62.8352 7.66498V8.02498H63.8402C63.7052 7.91998 63.5702 7.84498 63.4502 7.76998L63.6302 7.66498H62.8352Z" fill="white"/>
<path d="M74.4449 5.91003C74.5349 6.48003 74.6699 7.02003 74.8199 7.53003C75.1799 7.18503 75.5699 6.78003 75.8099 6.46503L76.5299 7.03503C76.5299 7.03503 76.4099 7.09503 76.3049 7.08003C75.9899 7.41003 75.4649 7.86003 75.0449 8.19003C75.4049 9.07503 75.8999 9.79503 76.5599 10.23C76.3799 10.365 76.1249 10.665 76.0049 10.875C74.7899 9.94503 74.1449 8.20503 73.8149 6.10503C73.5899 6.33003 73.3349 6.54003 73.0649 6.75003C74.0999 7.63503 74.5049 8.92503 74.5049 9.94503C74.5049 10.575 74.3399 11.085 74.0849 11.34C73.7699 11.7 73.4699 11.73 72.9749 11.73C72.8549 11.73 72.7349 11.73 72.5999 11.715C72.5999 11.505 72.5399 11.175 72.4049 10.965C72.6449 10.995 72.8549 10.995 73.0199 10.995C73.1999 10.995 73.3499 10.965 73.4699 10.8C73.6199 10.635 73.6949 10.305 73.6949 9.88503C73.6949 9.72003 73.6949 9.55503 73.6649 9.37503C72.9449 10.11 71.9399 10.83 71.0699 11.25C70.9499 11.055 70.7399 10.815 70.5599 10.65C71.5949 10.26 72.7949 9.42003 73.4549 8.61003C73.3949 8.43003 73.3199 8.26503 73.2149 8.08503C72.7049 8.53503 72.0299 9.01503 71.5049 9.31503C71.4299 9.19503 71.3099 9.01503 71.1899 8.88003C70.9949 9.72003 70.3049 9.69003 69.7499 9.67503C69.7499 9.48003 69.6599 9.16503 69.5699 8.98503C69.7499 8.98503 69.9149 8.98503 70.0499 8.98503C70.3049 8.98503 70.4999 8.86503 70.4999 8.31003C70.4999 7.86003 70.2899 7.30503 69.6899 6.66003C69.9149 6.04503 70.1399 5.25003 70.3049 4.63503H69.3449V11.715H68.6099V3.87003H70.6349L70.7549 3.84003L71.2949 4.12503C71.2949 4.12503 71.2499 4.21503 71.2199 4.24503C71.0249 4.93503 70.6949 5.85003 70.4249 6.55503C71.0399 7.24503 71.2649 7.83003 71.2649 8.37003C71.2649 8.46003 71.2649 8.56503 71.2499 8.65503C71.7899 8.38503 72.4499 7.96503 72.8999 7.56003C72.7799 7.41003 72.6599 7.27503 72.5099 7.14003C72.1499 7.38003 71.7749 7.59003 71.4149 7.75503C71.3099 7.62003 71.0849 7.33503 70.9349 7.20003C71.6399 6.90003 72.4049 6.43503 72.9899 5.91003H71.1449V5.19003H72.3449C72.2249 4.80003 71.9699 4.24503 71.7149 3.84003L72.3899 3.57003C72.7049 4.00503 72.9749 4.59003 73.0799 4.98003L72.6449 5.17503H74.6399L74.2349 5.01003C74.5049 4.60503 74.8499 3.96003 75.0299 3.49503L75.9749 3.82503C75.9749 3.82503 75.8699 3.91503 75.7499 3.91503C75.5549 4.29003 75.2549 4.80003 74.9699 5.17503H76.4099V5.89503H74.4449V5.91003Z" fill="white"/>
<path d="M78.1201 7.905H80.5351V8.64H78.1201V7.905Z" fill="white"/>
<path d="M82.6047 5.93999C83.1447 6.13499 83.8046 6.50999 84.1496 6.79499L83.6547 7.46999C83.3397 7.18499 82.6796 6.77999 82.1396 6.53999L82.6047 5.93999ZM82.3197 11.13C82.7247 10.425 83.3097 9.26999 83.7297 8.23499L84.3896 8.71499C84.0146 9.65999 83.5347 10.71 83.1447 11.4C83.1897 11.46 83.2047 11.52 83.2047 11.565C83.2047 11.61 83.2047 11.64 83.1747 11.67L82.3197 11.145V11.13ZM90.3896 4.60499H87.1197L86.9096 5.69999H87.9296C87.9296 6.34499 87.9146 7.66499 87.8996 8.24999L88.0947 8.02499C88.4847 8.21999 88.9496 8.51999 89.2646 8.77499V7.07999C89.2646 7.07999 89.2196 7.07999 89.1896 7.07999C88.9946 7.30499 88.6047 7.66499 88.3497 7.87499L87.9296 7.48499C88.1846 7.24499 88.5447 6.79499 88.7397 6.50999L89.2646 6.92999V5.60999L90.2247 5.66999C90.2247 5.66999 90.1647 5.78999 90.0297 5.80499V11.7H89.2646V11.31H85.3947V11.715H84.6447V5.60999L85.5897 5.66999C85.5897 5.66999 85.5297 5.78999 85.3947 5.80499V8.86499C85.7847 8.66999 86.2947 8.38499 86.8497 8.08499L87.0446 8.66999C86.6096 8.95499 86.1597 9.23999 85.8597 9.41999C85.8597 9.49499 85.8296 9.55499 85.7846 9.58499L85.3947 8.90999V10.59H89.2646V9.14999L88.9947 9.46499C88.7547 9.22499 88.3047 8.87999 87.8847 8.62499C87.8097 10.245 87.7496 10.335 86.4296 10.305C86.4146 10.11 86.3547 9.83999 86.2497 9.67499C86.5197 9.70499 86.7447 9.70499 86.8497 9.70499C86.9547 9.70499 87.0146 9.67499 87.0746 9.58499C87.1796 9.40499 87.2097 8.63999 87.2397 6.37499H86.7746L86.7147 6.61499C86.3997 6.53999 86.1897 6.52499 85.9947 6.49499C86.1297 5.99999 86.2797 5.26499 86.3847 4.61999H84.4196L84.0297 5.14499C83.7147 4.82999 83.0697 4.40999 82.5297 4.15499L82.9947 3.55499C83.4597 3.74999 84.0296 4.06499 84.3896 4.34999V3.85499H90.4047V4.61999L90.3896 4.60499ZM86.0097 6.65999C86.3247 6.92999 86.6847 7.31999 86.8197 7.58999L86.2946 7.97999C86.1446 7.69499 85.7997 7.28999 85.4997 7.00499L85.9947 6.65999H86.0097Z" fill="white"/>
<path d="M100.155 9.54H96.9753C97.5753 10.395 98.6703 10.83 100.305 10.965C100.125 11.145 99.9003 11.505 99.7953 11.745C97.8903 11.505 96.7653 10.86 96.0903 9.57C95.6553 10.62 94.7403 11.34 92.3853 11.73C92.3103 11.505 92.1153 11.16 91.9653 10.98C93.8403 10.725 94.7103 10.26 95.1453 9.54H92.0853V8.805H95.4303C95.4903 8.58 95.5203 8.355 95.5503 8.1H92.1003V7.35H95.6403V6.735H93.0003V6.03H95.6403V5.43H92.5203V4.695H94.2753C94.1403 4.395 93.9003 4.05 93.6753 3.78L94.3803 3.495C94.6953 3.81 94.9803 4.245 95.1153 4.56L94.8453 4.68H97.1703L96.9453 4.59C97.1853 4.275 97.5003 3.81 97.6653 3.465L98.6403 3.81C98.6403 3.81 98.5503 3.885 98.4303 3.885C98.2653 4.11 98.0253 4.41 97.8003 4.665H99.6753V5.4H96.4953V6H99.2103V6.705H96.4953V7.32H100.065V8.07H96.6153C96.6153 8.07 96.5253 8.175 96.4203 8.19C96.3903 8.4 96.3453 8.595 96.3003 8.79H100.125V9.525L100.155 9.54Z" fill="white"/>
<path d="M109.845 9.34499V10.02H106.365V10.905C106.365 11.655 106.05 11.73 104.49 11.73C104.445 11.505 104.325 11.22 104.22 11.025C104.715 11.04 105.24 11.04 105.375 11.04C105.525 11.04 105.555 10.995 105.555 10.89V10.035H102.09V9.35999H105.555V8.89499H106.05C106.335 8.77499 106.62 8.60999 106.86 8.42999H103.65V7.82999H107.67L107.79 7.78499L108.405 8.17499C108.405 8.17499 108.3 8.24999 108.225 8.26499C107.76 8.60999 107.07 9.04499 106.41 9.35999H109.845V9.34499ZM102.93 7.28999V8.38499H102.135V6.67499H102.825L102.66 3.88499L103.2 4.00499C103.62 3.86999 104.07 3.68999 104.37 3.55499L104.865 4.09499C104.865 4.09499 104.79 4.13999 104.745 4.13999C104.715 4.13999 104.685 4.13999 104.67 4.12499C104.37 4.22999 103.875 4.36499 103.47 4.46999V4.76999H104.73V5.30999H103.515L103.545 5.72999H104.775V6.26999H103.575L103.605 6.68999H108.315L108.36 6.26999H107.16V5.72999H108.405L108.435 5.30999H107.19V4.76999H108.48V4.34999H107.16V3.80999H109.32C109.275 4.72499 109.2 5.86499 109.125 6.67499H109.815V8.38499H108.99V7.28999H102.945H102.93ZM106.98 3.79499C106.98 3.79499 106.905 3.86999 106.8 3.86999C106.695 4.00499 106.56 4.13999 106.41 4.25999C106.59 4.39499 106.755 4.51499 106.86 4.63499L106.44 5.00999C106.32 4.88999 106.155 4.75499 105.96 4.61999C105.705 4.79999 105.42 4.96499 105.165 5.09999C105.075 4.99499 104.88 4.81499 104.745 4.72499C105 4.60499 105.255 4.46999 105.495 4.30499C105.315 4.18499 105.135 4.07999 104.955 3.98999L105.345 3.65999C105.525 3.74999 105.72 3.85499 105.915 3.97499C106.05 3.85499 106.185 3.71999 106.29 3.58499L106.95 3.82499L106.98 3.79499ZM107.07 5.26499C107.07 5.26499 106.98 5.35499 106.89 5.33999C106.77 5.47499 106.635 5.62499 106.47 5.75999C106.665 5.89499 106.845 6.04499 106.965 6.16499L106.545 6.53999C106.425 6.40499 106.245 6.25499 106.05 6.10499C105.78 6.29999 105.48 6.47999 105.21 6.61499C105.12 6.50999 104.925 6.32999 104.79 6.23999C105.06 6.11999 105.33 5.96999 105.585 5.78999C105.405 5.66999 105.225 5.56499 105.045 5.47499L105.45 5.14499C105.63 5.23499 105.825 5.33999 106.005 5.45999C106.155 5.32499 106.29 5.17499 106.395 5.02499L107.07 5.26499Z" fill="white"/>
<path d="M113.16 4.91996V6.83996C113.16 8.24996 113.04 10.35 112.26 11.715C112.125 11.58 111.78 11.325 111.6 11.25C112.32 9.97496 112.38 8.14496 112.38 6.83996V4.21496H115.635V3.49496L116.7 3.55496C116.7 3.62996 116.64 3.67496 116.505 3.70496V4.21496H119.805V4.91996H113.16ZM116.055 10.935C116.055 10.935 115.965 10.995 115.89 10.995C115.38 11.265 114.405 11.58 113.64 11.73C113.52 11.58 113.295 11.34 113.13 11.205C113.91 11.055 114.885 10.755 115.365 10.485L116.055 10.935ZM119.82 7.82996H116.835V8.20496H119.085V10.44H113.895V8.20496H116.055V7.82996H113.415V7.25996H119.82V7.82996ZM114.765 4.94996L115.755 5.00996C115.755 5.00996 115.68 5.12996 115.545 5.15996V5.47496H117.39V4.94996L118.425 5.00996C118.425 5.00996 118.35 5.12996 118.23 5.15996V5.47496H119.76V5.99996H118.23V6.94496H114.78V5.99996H113.52V5.47496H114.78V4.94996H114.765ZM114.66 8.65496V9.11996H116.055V8.65496H114.66ZM114.66 9.53996V10.02H116.055V9.53996H114.66ZM117.39 5.99996H115.545V6.46496H117.39V5.99996ZM118.29 8.65496H116.835V9.11996H118.29V8.65496ZM118.29 10.02V9.53996H116.835V10.02H118.29ZM119.1 11.745C118.62 11.52 117.78 11.22 116.94 10.98L117.51 10.515C118.35 10.74 119.31 11.04 119.865 11.265L119.1 11.745Z" fill="white"/>
<path d="M126.059 6.79501H129.629V7.57501H121.649V6.79501H125.204V5.49001H123.464C123.239 5.95501 122.999 6.37501 122.744 6.70501C122.564 6.57001 122.234 6.39001 122.024 6.28501C122.534 5.65501 123.014 4.56001 123.284 3.54001L124.289 3.82501C124.289 3.82501 124.184 3.91501 124.064 3.91501C123.989 4.18501 123.884 4.45501 123.779 4.72501H125.189V3.48001L126.254 3.54001C126.254 3.54001 126.179 3.66001 126.044 3.69001V4.72501H128.909V5.49001H126.044V6.79501H126.059ZM122.924 11.715V8.28001H128.429V11.7H127.559V11.37H123.764V11.715H122.924ZM127.559 9.04501H123.764V10.59H127.559V9.04501Z" fill="white"/>
<path d="M136.215 4.87501C136.215 5.67001 136.035 6.66001 135.105 7.30501C134.985 7.17001 134.685 6.90001 134.52 6.78001V10.77C134.52 11.61 134.175 11.73 132.99 11.715C132.975 11.505 132.87 11.13 132.75 10.92C132.945 10.92 133.125 10.92 133.275 10.92C133.71 10.92 133.755 10.92 133.755 10.755V8.70001H132.645C132.57 9.76501 132.39 10.89 132 11.73C131.85 11.61 131.52 11.415 131.325 11.34C131.91 10.095 131.955 8.31001 131.955 7.00501V3.81001H134.55V6.73501C135.33 6.19501 135.45 5.47501 135.45 4.86001V3.79501H138.36V5.98501C138.36 6.21001 138.375 6.22501 138.495 6.22501H138.825C138.96 6.22501 138.99 6.10501 139.005 5.25001C139.17 5.37001 139.485 5.50501 139.695 5.55001C139.62 6.64501 139.425 6.94501 138.915 6.94501H138.36C137.76 6.94501 137.565 6.73501 137.565 6.00001V4.57501H136.245V4.90501L136.215 4.87501ZM132.675 7.00501C132.675 7.29001 132.675 7.59001 132.66 7.90501H133.74V6.61501H132.675V7.00501ZM133.74 4.57501H132.675V5.83501H133.74V4.57501ZM138.585 7.33501L139.125 7.56001C139.125 7.56001 139.065 7.65001 139.035 7.68001C138.75 8.64001 138.27 9.43501 137.655 10.065C138.24 10.485 138.915 10.8 139.665 11.01C139.47 11.175 139.23 11.505 139.095 11.73C138.315 11.49 137.625 11.1 137.025 10.635C136.41 11.115 135.705 11.475 134.955 11.73C134.865 11.52 134.655 11.175 134.49 10.995C135.18 10.8 135.84 10.485 136.41 10.065C135.93 9.57001 135.525 9.00001 135.225 8.37001L135.885 8.13001H134.925V7.35001H138.435L138.585 7.32001V7.33501ZM136.005 8.14501C136.245 8.67001 136.605 9.13501 137.025 9.55501C137.43 9.15001 137.76 8.67001 138 8.14501H136.005Z" fill="white"/>
<path d="M143.415 5.98501C143.415 5.98501 143.34 6.12001 143.205 6.12001V11.715H142.395V7.24501C142.155 7.63501 141.915 8.01001 141.66 8.34001C141.54 8.16001 141.3 7.80001 141.135 7.63501C141.9 6.69001 142.65 5.05501 143.1 3.48001L144.09 3.78001C144.09 3.78001 143.97 3.88501 143.865 3.87001C143.64 4.54501 143.37 5.23501 143.07 5.89501L143.415 5.98501ZM147.84 3.72001C148.08 5.02501 148.695 6.24001 149.58 6.85501C149.4 7.02001 149.1 7.35001 148.965 7.56001C148.785 7.41001 148.62 7.24501 148.455 7.05001C148.455 7.12501 148.455 7.23001 148.455 7.32001C148.38 10.05 148.305 11.025 148.065 11.34C147.9 11.565 147.72 11.64 147.465 11.67C147.33 11.685 147.135 11.7 146.925 11.7C146.775 11.7 146.61 11.7 146.445 11.7C146.43 11.46 146.34 11.1 146.205 10.875C146.565 10.905 146.895 10.905 147.045 10.905C147.18 10.905 147.255 10.89 147.33 10.785C147.465 10.605 147.555 9.84001 147.6 7.78501H146.235C146.1 9.28501 145.65 10.77 144.09 11.7C144 11.505 143.775 11.22 143.595 11.07C144.945 10.365 145.29 9.13501 145.41 7.78501H144.3V7.09501C144.165 7.27501 144.015 7.44001 143.865 7.59001C143.76 7.42501 143.52 7.14001 143.37 6.99001C144.015 6.36001 144.525 5.32501 144.78 4.50001L145.725 4.77001C145.725 4.77001 145.635 4.86001 145.515 4.86001C145.275 5.52001 144.87 6.34501 144.345 7.02001H147.99L148.44 7.03501C147.855 6.34501 147.405 5.41501 147.165 4.44001H145.305V3.70501H147.825L147.84 3.72001Z" fill="white"/>
<path d="M159.09 5.39998H154.365C154.245 5.69998 154.095 5.98498 153.945 6.28498H157.995V10.725C157.995 11.655 157.56 11.715 156 11.715C155.97 11.475 155.85 11.115 155.73 10.89C156 10.89 156.255 10.905 156.48 10.905C157.125 10.905 157.155 10.905 157.155 10.725V9.98998H153.855V11.73H153.015V7.72498C152.61 8.23498 152.16 8.69998 151.62 9.08998C151.485 8.90998 151.2 8.59498 151.035 8.42998C152.07 7.69498 152.85 6.59998 153.405 5.42998H151.245V4.63498H153.735C153.87 4.25998 153.99 3.88498 154.08 3.50998L155.13 3.77998C155.115 3.85498 155.04 3.89998 154.905 3.89998C154.83 4.13998 154.74 4.39498 154.665 4.64998H159.075V5.44498L159.09 5.39998ZM157.155 7.78498V7.00498H153.855V7.78498H157.155ZM153.855 9.26998H157.155V8.48998H153.855V9.26998Z" fill="white"/>
<path d="M163.605 3.84L164.145 4.14C164.145 4.14 164.1 4.23 164.07 4.26C163.845 4.95 163.5 5.88 163.2 6.585C163.875 7.29 164.1 7.86 164.1 8.415C164.1 9.81 163.2 9.765 162.495 9.735C162.495 9.525 162.405 9.21 162.3 9C162.435 9.015 162.555 9.03 162.66 9.03C163.11 9.03 163.32 8.94 163.32 8.34C163.32 7.89 163.08 7.335 162.435 6.675C162.675 6.06 162.93 5.235 163.11 4.62H162.045V11.715H161.265V3.87H163.47L163.605 3.84ZM166.845 7.92C166.965 8.31 167.1 8.7 167.265 9.045C167.625 8.73 168 8.355 168.255 8.055L169.005 8.625C169.005 8.625 168.885 8.685 168.78 8.67C168.495 8.955 168.015 9.36 167.61 9.66C168 10.245 168.51 10.71 169.155 10.995C168.975 11.16 168.72 11.475 168.6 11.685C167.295 11.01 166.53 9.66 166.125 7.92H165.3V10.44C165.78 10.35 166.26 10.26 166.755 10.155L166.83 10.89C165.78 11.13 164.67 11.385 163.98 11.535C163.965 11.61 163.905 11.67 163.845 11.67L163.515 10.77C163.8 10.71 164.115 10.665 164.49 10.59V3.885H168.54V7.935H166.845V7.92ZM167.73 4.605H165.3V5.535H167.73V4.605ZM165.3 6.225V7.2H167.73V6.225H165.3Z" fill="white"/>
<path d="M174.21 4.08C174.165 4.155 174.075 4.185 173.97 4.17C173.4 5.46 172.515 6.765 171.585 7.62C171.405 7.455 171.06 7.17 170.85 7.035C171.75 6.285 172.62 4.995 173.13 3.72L174.21 4.065V4.08ZM175.17 7.02C175.14 7.095 175.05 7.14 174.915 7.155C174.525 8.145 173.925 9.42 173.355 10.41C174.465 10.38 175.71 10.335 176.94 10.29C176.565 9.72 176.145 9.15 175.74 8.655L176.535 8.28C177.33 9.225 178.215 10.47 178.65 11.295L177.795 11.745C177.69 11.535 177.555 11.295 177.405 11.025C175.275 11.16 173.055 11.265 171.615 11.325C171.6 11.4 171.54 11.445 171.45 11.46L171.12 10.47C171.495 10.47 171.915 10.455 172.38 10.44C172.98 9.375 173.64 7.86 174.015 6.72L175.14 7.035L175.17 7.02ZM176.475 3.72C177.045 4.83 178.095 6.165 178.92 6.915C178.695 7.08 178.38 7.41 178.215 7.635C177.39 6.765 176.31 5.31 175.65 4.065L176.475 3.72Z" fill="white"/>
<path d="M188.13 4.035V10.62C188.13 11.61 187.755 11.73 186 11.73C185.97 11.475 185.835 11.055 185.715 10.815C186.075 10.83 186.45 10.845 186.72 10.845C187.215 10.845 187.29 10.845 187.29 10.62V4.845H181.02V4.05H188.145L188.13 4.035ZM186.33 5.61V6.345H181.035V5.61H186.33ZM181.995 7.155H185.46V10.185H182.415V10.935H181.605V7.17H181.995V7.155ZM184.635 9.435V7.875H182.4V9.435H184.635Z" fill="white"/>
</svg>
