<?xml version="1.0" encoding="utf-8"?>
<!-- Generator: Adobe Illustrator 27.0.0, SVG Export Plug-In . SVG Version: 6.00 Build 0)  -->
<svg version="1.1" id="圖層_1" xmlns="http://www.w3.org/2000/svg" xmlns:xlink="http://www.w3.org/1999/xlink" x="0px" y="0px"
	 viewBox="0 0 390 60" style="enable-background:new 0 0 390 60;" xml:space="preserve">
<style type="text/css">
	.st0{fill:#FFFFFF;}
	.st1{fill:#FFE900;}
	.st2{fill:#2E318B;}
</style>
<path class="st0" d="M360.3,0.7H29.9C13.7,0.7,0.6,13.9,0.6,30.1s13.2,29.4,29.4,29.4h330.4c16.2,0,29.4-13.2,29.4-29.4
	S376.6,0.7,360.3,0.7z"/>
<path class="st1" d="M128.4,6.6h-98C17.4,6.6,6.9,17.1,6.9,30.1v0c0,12.9,10.5,23.4,23.4,23.4h98c12.9,0,23.4-10.5,23.4-23.4v0
	C151.8,17.1,141.3,6.6,128.4,6.6z"/>
<path class="st2" d="M47.5,37.6h-4c2.7,0.9,5.6,2,7.4,2.8l-4.3,1.9c-1.6-0.9-4.6-2.2-7.4-3.2l2.5-1.6h-7.4l3,1.5
	c-0.1,0.1-0.3,0.2-0.5,0.2c-0.1,0-0.2,0-0.3,0c-2.2,1.1-5.5,2.4-8.4,3.1c-0.6-0.8-1.9-2.1-2.7-2.7c2.5-0.5,5.2-1.3,7.1-2.1H29V25.6
	h18.4V37.6L47.5,37.6z M49,17.8v7.1H27.3v-7.1H49z M33.4,22v-1.4h-2.6V22H33.4z M32.8,28.1v0.9h10.7v-0.9H32.8z M32.8,31.2V32h10.7
	v-0.9H32.8z M32.8,34.3v0.9h10.7v-0.9H32.8z M39.3,22v-1.4h-2.6V22H39.3z M45.2,22v-1.4h-2.7V22H45.2z"/>
<path class="st2" d="M77.3,33.1H66.7c-0.1,0.4-0.1,0.8-0.2,1.1h5.2l0.8-0.1l2.2,0.3c0,0.3-0.1,0.6-0.2,1c-0.5,6.7-1.1,7-6.8,6.9
	c-0.1-1-0.4-2.3-1-3.2c1,0.1,1.9,0.1,2.4,0.1c0.9,0,1.2-0.3,1.4-2h-5.1c-1,2.1-2.9,3.9-6.8,5.1c-0.3-0.8-1-1.9-1.7-2.7
	c-0.5,0.9-1,1.8-1.7,2.5c-0.7-0.6-2.4-1.8-3.4-2.2c3.1-3.3,3.3-8.2,3.3-11.8v-6.1h19.6v6.8H69c-0.1,0.2-0.3,0.3-0.7,0.4v0.9h9
	L77.3,33.1L77.3,33.1z M77.1,17.9v3.5H52.9v-3.5H77.1z M58.8,33.1c-0.3,2-0.8,4.1-1.6,5.9c4.2-1.2,5.1-3.2,5.5-5.9H58.8z M64.4,30.2
	v-1.3h-5.2c0,0.4,0,0.8-0.1,1.3H64.4z M71,24.9H59.1v1.1H71V24.9z"/>
<path class="st2" d="M104.7,37.6h-3.3c1.3,0.9,2.7,2.1,3.6,2.9l-2.9,1.8c-0.9-1-2.8-2.6-4.3-3.8l1.7-1h-3.9l1.7,1
	c-0.1,0.1-0.2,0.2-0.4,0.2c-0.9,1.2-3.1,2.7-4.9,3.5c-0.6-0.6-1.6-1.6-2.4-2.2c-0.6,2.2-2.7,2.2-4.9,2.2c-0.1-1.1-0.4-2.5-0.9-3.4
	c0.7,0.1,1.3,0.1,1.7,0.1c0.3,0,0.5-0.1,0.8-0.4c0.3-0.5,0.4-2.6,0.5-8.3h-1.5c-0.4,4.6-1.2,8.9-3.5,12c-0.6-0.9-1.8-2.1-2.7-2.7
	c2.6-3.7,2.8-9.2,2.8-15.3h-2.4v-3.6h3.9v-3.9l4.5,0.2c0,0.3-0.2,0.5-0.8,0.6v3.1h3.5v0.6c0.9-1.3,1.7-3,2.1-4.6l3.9,1
	C96.3,17.8,96,18,95.7,18c-0.1,0.4-0.3,0.9-0.5,1.3h9.5v3.1H93.6l-0.2,0.4l3.5,0.2c0,0.3-0.2,0.4-0.8,0.5v1.3h2.7v-2l4.4,0.2
	c0,0.3-0.2,0.5-0.8,0.5v1.3h1.9v3h-1.9v6.7h2.3V37.6L104.7,37.6z M88.3,26.7l1.9,0.1c0,0.3,0,0.7,0,1.1c-0.1,7-0.2,10.5-0.6,12.1
	c1.3-0.6,2.7-1.5,3.7-2.4h-2.9v-3h2.2v-6.7h-1.9v-3h1.9v-1c-0.2,0.3-0.4,0.5-0.7,0.7c-0.3-0.3-0.9-0.8-1.5-1.2v0.9h-5l-0.1,2.4H88.3
	L88.3,26.7z M98.8,27.9h-2.7v0.6h2.7V27.9z M98.8,31.5v-0.6h-2.7v0.6H98.8z M96.1,33.9v0.7h2.7v-0.7H96.1z"/>
<path class="st2" d="M116.4,30.2l-1,0.1v8.8c0,2.4-0.8,3.2-4,3.2c-0.1-0.8-0.4-2.1-0.9-2.9c0.4,0,0.8,0.1,1.2,0.1
	c0.8,0,0.9,0,0.9-0.4v-8.4l-2.6,0.3c-0.1,3.6-0.4,8.3-1.9,11.3c-0.5-0.5-1.8-1.2-2.4-1.5c1.3-2.6,1.6-6.3,1.6-9.4l-0.3,0.1
	c-0.1,0.2-0.3,0.4-0.5,0.4l-0.7-3.2l1.5-0.1v-8.2h2.2c0.2-1.2,0.3-2.6,0.4-3.6l4,0.7c-0.1,0.2-0.3,0.3-0.7,0.4
	c-0.2,0.7-0.5,1.7-0.8,2.5h3v7.5l0.9-0.1L116.4,30.2L116.4,30.2z M111.8,23.7c0.4,0.9,0.7,2.1,0.8,3h0l0-3.5h-2.6v1.1L111.8,23.7z
	 M110.1,28.3l2.6-0.2V27l-2,0.7c0-0.8-0.3-1.9-0.6-2.8V28.3z M112.6,31.6c0,0.2-0.2,0.3-0.5,0.3v5.6h-1.6v-6.1L112.6,31.6z
	 M130.1,38.9h1.5v2.9h-15.9v-2.9h1.5v-7h12.9V38.9z M119.2,30.9v0.4h-2.6V17.6h7.6V20h-1.8v1.3h1.7V24c0.7-1.9,1.1-4.7,1.3-7.3
	l3.7,0.8c-0.1,0.2-0.3,0.4-0.6,0.4c-0.1,0.7-0.2,1.5-0.3,2.2h3.3V23h-3.9c-0.3,1.3-0.7,2.5-1.2,3.4c-0.5-0.5-1.5-1-2.3-1.5v2.2h-1.7
	v1.3h2.2v2.5L119.2,30.9L119.2,30.9z M120,20h-0.8v1.3h0.8V20z M121.6,23.5h-2.4V25h2.4V23.5z M120,28.4v-1.3h-0.8v1.3H120z
	 M120.1,34.8V39h0.7v-4.2H120.1z M123.9,34.8h-0.7V39h0.7V34.8z M125,29.7v-2.9h6.1v2.9H125z M127.1,34.8h-0.7V39h0.7V34.8z"/>
<g>
	<path class="st2" d="M172,30.1c0.1,1.3,0.3,2.6,0.5,3.7c0.5-0.9,0.9-2,1.2-3.1l2.5,0.7c0,0.1-0.2,0.2-0.5,0.2
		c-0.6,1.8-1.4,3.5-2.5,4.9c0.3,0.9,0.8,1.4,1.1,1.4c0.3,0,0.6-0.8,0.6-2.7c0.5,0.5,1.2,1,1.8,1.3c-0.3,2.9-1,3.6-2.6,3.6
		c-1.2,0-2-0.9-2.5-1.8c-0.7,0.7-1.4,1.3-2.3,1.8c-0.3-0.5-1-1.3-1.5-1.7c1-0.6,2-1.3,2.8-2.3c-0.6-1.7-0.9-3.9-1.1-6.1h-4.2v1.3
		h2.6l1.2,0c0,0.2,0,0.4,0,0.6c0,3.4-0.1,4.8-0.5,5.3c-0.4,0.6-0.9,0.8-2.9,0.8c0-0.6-0.3-1.5-0.6-2.1c0.5,0,0.9,0.1,1.2,0.1
		c0.2,0,0.3,0,0.4-0.2c0.1-0.2,0.2-0.9,0.2-2.5h-1.6c-0.1,2.2-0.5,5-1.8,6.8c-0.4-0.4-1.3-1.2-1.7-1.5c1.3-1.8,1.4-4.4,1.4-6.4V28
		h6.2c0-0.8-0.1-1.5-0.1-2.3l2.8,0.2c0,0.2-0.2,0.3-0.5,0.3c0,0.6,0,1.2,0,1.8h1.9c-0.4-0.4-1-0.8-1.4-1.1l1.4-1.3
		c0.7,0.5,1.7,1.1,2.2,1.6l-0.8,0.7h1.3v2.1H172L172,30.1z"/>
	<path class="st2" d="M188.1,31.5c0.2,0.5,0.4,1,0.6,1.5c0.7-0.5,1.3-1,1.8-1.5l1.9,1.8c-0.1,0.1-0.2,0.1-0.4,0.1
		c-0.1,0-0.1,0-0.2,0c-0.5,0.4-1.4,0.9-2.1,1.3c0.8,1,1.9,1.8,3.2,2.3c-0.5,0.5-1.2,1.3-1.5,2c-2.8-1.3-4.3-3.8-5.3-7
		c-0.3,0.2-0.7,0.5-1.2,0.7c1.9,1.3,2.6,3.1,2.6,4.5c0,2-1.3,3.1-3,3.1c-0.4,0-0.8,0-1.2,0c0-0.6-0.2-1.4-0.5-2
		c-1.1,0.6-2.2,1.1-3.3,1.5c-0.3-0.6-0.7-1.4-1.2-1.8c2.1-0.5,4.6-1.7,6.1-2.8l-0.1-0.2c-1.3,0.8-3,1.6-4.4,2.1
		c-0.2-0.5-0.7-1.2-1.1-1.7c1.4-0.3,3.1-0.9,4.2-1.6l-0.2-0.2c-1,0.4-2,0.7-3,0.9c-0.2-0.4-0.7-1.3-1-1.7c1.5-0.3,3-0.7,4.3-1.3
		h-1.8v-1.9h7.9v1.9H188.1z M181.3,29v1.7h-2.2V27h5.4v-1.4l2.8,0.2c0,0.2-0.1,0.3-0.5,0.3V27h5.5v3.7H190V29L181.3,29L181.3,29z
		 M185.5,36.8c-0.7,0.5-1.4,0.9-2.2,1.4c0.4,0,0.7,0,1.1,0c0.3,0,0.6,0,0.8-0.3C185.3,37.7,185.5,37.3,185.5,36.8z"/>
	<path class="st2" d="M207.5,29.1l1.2,0.1c0,0.2,0,0.5,0,0.7c-0.1,6.3-0.2,8.6-0.7,9.3c-0.6,0.9-1.2,1-3.2,1c0-0.6-0.3-1.5-0.6-2.1
		c0.6,0,1.1,0,1.4,0c0.2,0,0.4-0.1,0.5-0.3c0.3-0.4,0.4-2.1,0.5-6.6h-1.1c-0.2,3.8-1,6.9-3.7,9c-0.3-0.6-1-1.3-1.5-1.7
		c0.5-0.4,1-0.8,1.4-1.3c-2.2,0.5-4.5,1-6,1.4c0,0.2-0.1,0.3-0.3,0.3l-0.8-2.5c0.3,0,0.7-0.1,1.1-0.2v-10h5.6v9.1l0.9-0.2l0.1,1.2
		c0.7-1.4,1-3.1,1.2-5h-1.8v-2.1h1.8c0-1.1,0-2.2,0-3.5l2.7,0.1c0,0.2-0.2,0.3-0.5,0.3c0,1,0,2,0,3H207.5L207.5,29.1z M199,28.2
		h-1.5v1.2h1.5V28.2z M199,32.5v-1.2h-1.5v1.2H199z M197.5,34.4v1.5l1.5-0.3v-1.2H197.5z"/>
	<path class="st2" d="M223.3,28.7l1.3,0.1c0,0.2,0,0.5,0,0.8c-0.2,6.3-0.4,8.6-1,9.4c-0.8,1-1.7,1.1-4.1,1.1c0-0.7-0.4-1.7-0.8-2.4
		c0.9,0.1,1.8,0.1,2.2,0.1c0.3,0,0.5-0.1,0.7-0.3c0.4-0.4,0.6-2.3,0.7-6.5h-3.8c-0.3,3.2-1.3,7-5.6,9.3c-0.4-0.6-1.2-1.4-1.8-1.8
		c3.6-1.9,4.7-4.9,4.9-7.5h-4.4v-2.2h4.5v-3.1l2.9,0.1c0,0.2-0.2,0.3-0.5,0.3v2.6L223.3,28.7L223.3,28.7z"/>
	<path class="st2" d="M239.6,36.9h5.7v2.2h-13.8v-2.2h5.7v-7.5h-4.9v-2.2h12.3v2.2h-5V36.9z"/>
	<path class="st2" d="M258.6,38h3.3v1.9h-8.8V38h3.2v-0.9h-2.5v-1.8h2.5v-0.9h-2.6l0,0l-1.2,1.8c-0.2-0.4-0.5-1-0.8-1.5v5.6h-2.2
		v-4.8c-0.4,1-0.9,1.9-1.3,2.5c-0.2-0.6-0.7-1.6-1-2.1c0.7-0.9,1.5-2.4,2-3.7h-1.7V30h2.1v-1.4c-0.5,0.1-1.1,0.3-1.6,0.4
		c-0.1-0.5-0.4-1.2-0.7-1.6c1.8-0.4,3.6-1,4.8-1.7l1.7,1.6c-0.1,0.1-0.2,0.1-0.4,0.1c-0.5,0.2-1.1,0.4-1.7,0.7v2h1.7v2.1h-1.7v0.2
		c0.4,0.3,1.3,1.3,1.8,1.8v-1.6h8v1.9h-2.9v0.9h2.4v1.8h-2.4L258.6,38L258.6,38z M261.1,26.2v5.6H254v-5.6H261.1z M258.9,29.9V28
		h-2.9v1.9H258.9z"/>
	<path class="st2" d="M269.9,37.9h-2.2v2.3h-1.8v-2.3h-2.3V36h2.3v-0.7H264v-5.7h1.8v-0.6h-2V27h2v-1.3l2.2,0.1
		c0,0.1-0.1,0.2-0.4,0.3V27h2.1v1.9h-2.1v0.6h2v5.7h-1.9v0.7h2.2V37.9L269.9,37.9z M265.5,31.1v0.6h0.5v-0.6H265.5z M265.5,33.1v0.6
		h0.5v-0.6H265.5z M268,31.7v-0.6h-0.6v0.6H268z M268,33.7v-0.6h-0.6v0.6H268z M273,28.6c0,0.1-0.1,0.2-0.3,0.2
		c-0.2,0.6-0.7,1.5-1,2.2c0.6,0.9,1.1,1.8,1.4,2.5l-1.7,0.7c-0.3-0.8-0.8-2-1.5-3.1c0.5-0.9,1-2.1,1.3-2.9L273,28.6L273,28.6z
		 M275.1,38h3v1.8h-8.3V38h3v-1.9h-2.4v-1.8h7.2v1.8h-2.5L275.1,38L275.1,38z M277.9,26.2v1.8h-7.8v-1.8H277.9z M273.8,34.1
		c-0.3-0.8-0.9-2-1.7-3.1c0.5-0.9,1.1-2.1,1.4-2.8l2,0.4c0,0.1-0.2,0.2-0.4,0.2c-0.2,0.6-0.7,1.5-1.1,2.2c0.6,0.8,1.2,1.8,1.5,2.4
		L273.8,34.1L273.8,34.1z M276.4,34.2c-0.3-0.8-1-2-1.8-3.1c0.6-0.9,1.2-2.1,1.5-2.9l2,0.4c0,0.1-0.1,0.2-0.4,0.2
		c-0.3,0.6-0.8,1.5-1.2,2.2c0.6,0.8,1.3,1.8,1.6,2.4L276.4,34.2z"/>
	<path class="st2" d="M284.3,35.9c0.4,0.3,1.7,1.1,2,1.4l-1.2,1.5c-0.2-0.3-0.5-0.6-0.8-1v2.4h-2v-2.3c-0.4,0.6-0.8,1-1.3,1.4
		c-0.3-0.5-0.9-1.1-1.3-1.5c0.8-0.5,1.7-1.3,2.3-2.2h-1.9V34h2.1v-0.8l-1.3,0c0,0.1-0.1,0.2-0.2,0.2l-0.5-1.5h1.1
		c0.1-0.2,0.2-0.3,0.2-0.5h-1.5v-1.2h1.1V26h6.1v1.2h-4.2v0.3h3.6v1h-3.6v0.3h3.6v1h-3.6v0.3h4.7v1.2h-1.3c0.5,0.5,0.9,1,1.2,1.5
		l-1.4,0.7c-0.1-0.2-0.2-0.3-0.3-0.5l-1.6,0.1c0,0-0.2,0.1-0.3,0.1v0.8h1.7v1.5c0.5-0.5,0.9-1.2,1.1-1.9l1.4,0.4V33h0
		c-0.2-0.5-0.7-1.1-1-1.5c1.9-0.2,3.8-0.8,4.7-1.6l2.1,0.7c0,0.1-0.2,0.2-0.4,0.2c-1.1,1.1-2.9,1.8-5.1,2.2h3.2
		c0.4,1.1,1.3,2,2.4,2.5c-0.4,0.4-0.9,1.1-1.2,1.6c-1-0.6-1.9-1.5-2.5-2.4h-2.1c-0.5,0.9-1.1,1.9-1.9,2.5c-0.3-0.3-0.9-0.9-1.3-1.2
		c0.1-0.1,0.3-0.2,0.4-0.3h-1.5L284.3,35.9L284.3,35.9z M285.5,31.4h-1.8c0,0-0.1,0-0.2,0c-0.1,0.1-0.2,0.3-0.3,0.5l2.1,0
		c-0.1-0.1-0.2-0.2-0.3-0.3L285.5,31.4L285.5,31.4z M290.9,37.9c-0.2-0.2-0.3-0.5-0.5-0.6l1.5-0.7c0.7,0.8,1.5,2,1.8,2.8l-1.6,0.8
		c-0.1-0.2-0.2-0.5-0.3-0.7c-1.9,0.1-3.7,0.2-5,0.3c0,0.1-0.1,0.2-0.3,0.2l-0.7-2c0.5,0,1,0,1.7,0c0.3-0.8,0.7-1.7,0.8-2.5l2.3,0.6
		c-0.1,0.1-0.2,0.2-0.5,0.2c-0.2,0.5-0.5,1-0.8,1.6L290.9,37.9L290.9,37.9z M293.5,26.7c0,0.1-0.2,0.2-0.4,0.2
		c-1,0.6-2.8,1.3-4.1,1.8c-0.3-0.4-0.8-0.9-1.3-1.3c1.2-0.3,3-0.9,3.8-1.5L293.5,26.7L293.5,26.7z M293.9,28.7
		c0,0.1-0.2,0.2-0.4,0.2c-1,0.8-2.8,1.5-4.5,1.9c-0.3-0.4-0.7-1-1.2-1.4c1.5-0.3,3.2-0.8,4-1.5L293.9,28.7L293.9,28.7z"/>
	<path class="st2" d="M300.1,32.8l1.1,0.1l0,0.6c-0.2,3.7-0.4,5.3-0.8,5.9c-0.6,0.7-1.3,0.8-3.1,0.8c0-0.6-0.3-1.5-0.6-2
		c0.6,0,1.2,0.1,1.5,0.1c0.2,0,0.4,0,0.5-0.2c0.2-0.2,0.4-1.2,0.5-3.3h-1l-0.1,0.6l-1.9-0.3c0.2-1.4,0.4-3.6,0.5-5.4h2.5v-1.5h-2.8
		v-2.1h4.9v5.9h-2.1v-0.4h-0.7c0,0.4-0.1,0.8-0.1,1.2h1.4L300.1,32.8L300.1,32.8z M310.6,36.4v1.8h-3.7v2h-2.1v-2h-3.6v-1.8h3.6
		v-0.6h-2.7v-5.7h7.7v5.7h-2.8v0.6H310.6L310.6,36.4z M305.7,25.9v3.8h-4v-3.8H305.7z M303.8,28.2v-0.9h-0.4v0.9H303.8z M304,31.7
		v0.5h0.8v-0.5H304z M304,34.2h0.8v-0.5H304V34.2z M310.1,25.9v3.8h-4v-3.8H310.1z M307.7,32.3v-0.5h-0.8v0.5H307.7z M307.7,34.2
		v-0.5h-0.8v0.5H307.7z M308.3,28.2v-0.8h-0.4v0.8H308.3z"/>
	<path class="st2" d="M323.5,37.6h3.4v2.1h-9.3v-2.1h3.7v-2.4h-2.6v-2h2.6v-2.3h-1.3c-0.2,0.7-0.4,1.3-0.7,1.8
		c-0.4-0.3-1.3-0.8-1.8-1c0.1-0.3,0.3-0.7,0.4-1l-0.7,0.5c-0.1-0.3-0.4-0.7-0.7-1.1v10.3h-2.2v-9c-0.1,0.8-0.3,1.5-0.6,2.1l-1.6-0.9
		c0.5-0.9,0.6-2.4,0.7-3.6l1.6,0.2v-3.3l2.6,0.1c0,0.2-0.1,0.3-0.5,0.3v2.3l0.7-0.5c0.3,0.4,0.6,0.8,0.9,1.2
		c0.1-0.9,0.3-1.9,0.3-2.9l2.5,0.5c0,0.1-0.2,0.2-0.4,0.2c-0.1,0.6-0.1,1.2-0.2,1.7h0.9v-3.1l2.7,0.1c0,0.2-0.1,0.3-0.5,0.3v2.7h3
		v2.1h-3v2.3h2.4v2h-2.4V37.6z"/>
	<path class="st2" d="M330.6,32.7c-0.4,0.6-0.8,1-1.2,1.5c-0.2-0.6-0.8-1.7-1.1-2.3c1.4-1.4,2.7-3.9,3.6-6.3l2.5,0.9
		c-0.1,0.1-0.2,0.2-0.5,0.2c-0.4,0.9-0.8,1.9-1.3,2.8l0.7,0.2c0,0.2-0.2,0.3-0.5,0.3v10.2h-2.2L330.6,32.7L330.6,32.7z M343,28.9
		v2.2h-1.6v6.6c0,2-0.6,2.6-4.3,2.6c-0.1-0.6-0.4-1.6-0.8-2.2c0.6,0,1.4,0.1,1.8,0.1c0.9,0,1,0,1-0.4v-6.5h-5.7v-2.2h5.7v-3.1
		l2.7,0.1c0,0.2-0.1,0.3-0.5,0.3v2.6L343,28.9L343,28.9z M335.9,36.5c-0.3-1-1.1-2.5-1.8-3.6l2-0.9c0.8,1.1,1.6,2.5,2,3.5
		L335.9,36.5z"/>
</g>
</svg>
