<svg width="887" height="439" viewBox="0 0 887 439" fill="none" xmlns="http://www.w3.org/2000/svg">
<path d="M142.79 63.15C136.37 57.15 129.725 51.375 123.515 46.23L147.71 27.39C169.115 43.875 195.875 67.635 207.65 85.845L180.89 107.475C178.1 102.555 174.035 96.99 169.115 91.2C112.805 93.99 54.5751 96.345 16.2501 97.62C15.6051 99.975 13.4601 101.04 11.3301 101.265L0.620056 66.585L37.8801 65.94C50.7201 46.665 64.22 21.405 72.14 0.209961L110.675 14.34C109.61 16.485 106.82 17.55 103.175 17.55C95.9 32.535 85.4001 49.875 74.9151 65.085L142.79 63.165V63.15ZM32.3151 205.74V111.54H175.55V204.885H142.79V199.32H63.5751V205.74H32.3151ZM142.79 141.3H63.5751V169.14H142.79V141.3Z" fill="white"/>
<path d="M244.475 61.005C255.185 65.925 269.525 74.07 276.59 80.49L258.605 104.25C252.395 97.83 238.265 88.41 227.555 82.62L244.475 60.99V61.005ZM248.975 5.33996C259.685 10.695 273.815 19.47 280.655 26.325L262.025 49.665C256.025 42.6 242.12 32.745 231.41 26.325L248.96 5.33996H248.975ZM232.91 187.965C240.83 171.045 251.54 144.285 259.88 118.605L284.495 134.445C277.64 157.35 269.51 180.045 262.655 196.74C264.155 198.24 265.01 199.95 265.01 201.66C265.01 202.725 264.575 203.805 264.155 204.87L232.895 187.95L232.91 187.965ZM412.115 78.99L424.1 75.135C428.165 83.7 432.23 94.83 433.955 102.105L418.325 107.46C417.26 101.895 414.905 93.765 412.115 86.475V112.17H392.84V90.54C390.485 98.04 387.275 105.96 383.21 111.3C380.855 109.155 376.79 106.155 373.355 103.8V110.865H331.82V98.445L318.125 102.3C317.48 97.38 315.98 90.09 314.27 83.67V112.14H295.43V92.235C292.865 98.865 289.655 105.51 285.8 110.43C282.59 107.43 276.59 103.155 272.735 100.8C277.235 94.59 280.655 84.525 282.59 75.105L295.43 78.75V71.685L283.445 72.33C283.01 74.04 281.525 74.895 280.025 75.12L274.46 54.36H287.09C288.8 52.215 290.735 50.085 292.655 47.94C288.155 43.23 282.38 38.085 277.025 34.245L286.445 19.26L288.8 20.76C292.445 14.55 295.865 7.27496 298.01 1.70996L317.06 12.42C316.205 13.71 314.27 14.34 311.915 14.13C309.35 18.63 305.495 24.84 301.43 30.405L304.22 32.97C307.43 28.47 310.43 23.985 312.785 20.13L326.06 28.485V23.34H377.225V28.05L382.79 19.275L385.145 20.775C389 14.565 392.645 7.28996 395 1.72496L414.05 12.435C413.195 13.725 411.26 14.355 408.905 14.145C406.115 18.645 402.05 24.855 397.985 30.42L400.985 33.21C404.63 28.5 408.05 23.79 410.615 19.515L429.245 31.29C428.18 32.79 426.035 33 423.89 32.79C418.745 39 411.68 47.13 404.405 54.42H413.615C412.97 52.275 412.115 50.145 411.26 48.21L425.6 42.435C429.455 50.565 433.1 61.71 434.165 68.775L418.97 75.195C418.76 73.695 418.535 71.985 418.115 70.275L412.115 70.71V79.065V78.99ZM400.775 160.125L406.775 159.27L424.115 163.98C423.68 166.125 423.05 168.255 421.97 169.98C416.405 203.595 408.905 205.74 376.58 205.74C371.225 205.74 365.015 205.74 358.595 205.53C358.385 198.675 355.175 189.48 351.095 183.27C359.66 184.125 368.87 184.335 374.855 184.335C386.195 184.335 387.92 184.335 390.485 178.77H315.98L314.48 184.125L286.655 180.705C290.51 168.93 294.575 152.235 297.14 138.315H381.065V134.04H290.285V116.7H409.745V155.67H321.755L320.69 160.17H400.76L400.775 160.125ZM373.37 95.685C375.935 89.685 377.87 82.2 379.145 75.135L392.84 78.99V71.715L381.5 72.36C381.065 74.07 379.565 74.925 378.08 75.15L373.16 56.52H331.835V43.035H373.37V54.375H383.435C385.37 52.455 387.29 50.31 389.21 47.955C385.565 44.31 381.5 40.455 377.225 37.245V38.745H326.06V33.39C321.35 39.39 314.72 47.085 307.655 54.375H315.785L313.85 48.165L326.48 43.665C328.835 49.23 330.545 55.875 331.835 61.65V60.795H373.37V74.28H331.835V70.425L319.415 74.925C319.415 73.425 319.205 71.925 318.98 70.215L314.27 70.65V78.78L326.9 75.57C328.82 81.57 330.755 88.845 331.82 94.41V78.57H373.355V95.7L373.37 95.685ZM371.66 5.33996V19.035H333.98V5.33996H371.66ZM355.175 98.04V91.41H349.175V98.04H355.175Z" fill="white"/>
<path d="M630.275 110.67L649.325 117.525C648.68 119.445 647.825 120.09 646.76 121.38C642.05 139.365 634.34 154.995 624.065 167.835C634.34 173.835 645.905 178.32 659.18 181.32C652.76 186.885 644.615 198.24 640.76 205.515C626.84 201.45 614.645 195.45 603.935 187.965C594.725 195.24 584.45 201.24 572.885 205.95C569.675 199.32 563.03 189.255 557.465 183.255V205.74H527.705V188.4C506.51 190.755 486.17 193.11 471.83 194.4C471.395 196.545 469.685 197.61 467.975 197.82L459.62 168.705C464.765 168.495 470.75 168.27 477.395 167.85V106.62H459.41V82.215H657.02V106.62H557.465V181.56C566.675 178.35 575.24 173.85 582.725 168.285C575.66 159.72 569.885 150.09 564.95 139.38L581.225 134.88H561.32V111.54H625.34L630.26 110.685L630.275 110.67ZM628.565 9.19496V76.845H487.91V9.19496H628.565ZM527.72 106.605H505.67V111.75H527.72V106.605ZM505.67 132.72V138.495H527.72V132.72H505.67ZM505.67 166.335L527.72 164.835V159.48H505.67V166.335ZM597.305 33.81V28.665H517.655V33.81H597.305ZM597.305 57.36V52.005H517.655V57.36H597.305ZM591.095 134.865C593.885 140.22 597.515 145.14 601.58 149.85C605.225 145.14 608.21 140.22 611 134.865H591.095Z" fill="white"/>
<path d="M881.18 90.12H807.32C819.74 131.01 843.29 161.835 886.535 175.545C879.035 182.4 868.76 196.53 864.05 205.74C824.435 190.545 801.32 164.205 785.9 127.38C773.69 159.06 750.785 186.69 707.54 205.74C703.04 196.965 693.62 185.4 684.845 178.335C734.945 158.205 754.43 127.17 761.915 90.12H689.33V57.795H765.77C766.835 40.02 766.625 21.405 766.835 2.33995L807.515 4.90495C807.08 7.46995 804.95 9.17996 800.885 9.82496C800.675 25.665 800.24 41.94 799.385 57.78H881.165V90.105L881.18 90.12Z" fill="white"/>
<path d="M155 248.055H200.18V274.815H155V280.815H182.405V328.77H28.685V280.815H53.09V274.815H8.34505V248.055H53.09V234.99L90.335 236.91C90.125 239.265 88.19 240.765 83.915 241.62V248.04H123.95V234.975L161.42 236.895C161.21 239.46 159.485 240.75 155 241.605V248.025V248.055ZM9.84505 374.58V334.965H198.68V374.58H168.065V358.095H107.48C106.415 359.16 104.69 359.805 102.56 359.805L98.705 364.305H139.805L144.725 363.24L165.71 373.095C165.065 374.595 163.79 375.24 162.5 376.095C140.87 412.92 95.06 430.695 42.185 438.825C39.395 431.55 33.185 419.985 28.265 413.565C44.105 412.065 59.525 409.29 73.445 405.435C69.8 403.08 65.9451 400.935 62.3151 399.435L80.72 384.66H75.365C64.655 392.16 52.025 399.225 36.395 405.42C32.54 398.79 23.975 388.5 18.2 384.015C40.25 377.16 56.525 368.175 67.445 358.11H38.975V374.595H9.86004L9.84505 374.58ZM71.075 309.285V300.075H56.09V309.285H71.075ZM82.415 384.645C88.835 387.21 95.9 391.065 101.465 394.92C107.675 391.92 113.24 388.5 118.16 384.645H82.4001H82.415ZM123.95 280.815V274.815H83.915V280.815H123.95ZM112.175 309.285V300.075H96.755V309.285H112.175ZM153.5 309.285V300.075H137.87V309.285H153.5Z" fill="white"/>
<path d="M266.75 366.24V332.625C260.975 341.835 254.54 349.965 247.91 356.175C243.41 349.545 234.215 339.69 228.005 334.545C241.28 324.69 253.91 307.785 262.265 290.865H233.57V264.75H266.75V235.2L302.51 237.12C302.3 239.475 300.59 240.765 296.3 241.62V264.735H324.125V290.85H296.3V296.415C304.655 301.335 324.35 314.82 329.48 318.675L313.205 343.515C308.93 338.595 302.72 332.385 296.285 326.385V366.21H266.735L266.75 366.24ZM284.3 384.225C278.3 401.565 269.735 419.985 256.475 432.39L230.36 414.195C241.925 404.34 251.555 388.935 256.7 373.305L284.315 384.225H284.3ZM318.335 402.63C318.335 408.84 319.835 409.485 328.61 409.485H350.45C357.305 409.485 358.58 407.565 359.66 394.065C365.66 398.565 378.71 403.05 387.065 404.775C383.42 430.47 375.29 436.89 353.45 436.89H324.335C294.155 436.89 287.51 428.325 287.51 403.065V377.595L315.98 379.095L308.06 373.095L328.4 357.045L332.255 359.61V245.49H421.955V363.45H337.82C347.03 370.305 356.45 378.435 361.37 385.08L339.53 402.63C335.675 397.065 328.82 390 321.125 383.355L318.335 384V402.63ZM360.515 269.67V277.8H392.195V269.67H360.515ZM360.515 300.285V308.64H392.195V300.285H360.515ZM360.515 330.9V339.465H392.195V330.9H360.515ZM407.825 434.31C402.26 420.39 386.42 400.275 371.21 385.92L396.47 370.725C411.665 384.21 428.585 402.84 435.44 417.615L407.825 434.31Z" fill="white"/>
<path d="M659.81 400.92H633.695C643.76 408.42 655.535 417.405 661.955 424.035L639.05 438.375C631.985 430.455 616.565 417.39 605.015 408.615L618.08 400.905H587.255L600.53 408.615C599.885 409.47 598.61 410.115 597.11 410.325C589.61 419.535 572.705 432.165 558.365 438.375C553.865 433.455 545.735 425.955 539.525 421.245C534.815 438.585 518.12 438.585 500.555 438.585C500.12 430.23 497.345 418.68 493.28 411.18C498.635 411.825 503.345 411.825 506.345 411.825C508.91 411.825 510.62 411.18 512.345 408.405C514.7 404.34 515.555 387.855 516.2 342.465H504.635C501.635 378.645 494.78 412.905 476.81 438.165C471.89 430.665 462.68 421.245 454.97 416.325C475.73 387.21 477.02 342.885 477.665 295.14H458.39V266.445H489.005V235.185L524.975 237.105C524.765 239.46 523.055 240.75 518.765 241.605V266.445H546.17V271.59C553.67 261.105 559.445 247.83 562.445 234.765L593.495 242.685C592.85 244.395 591.14 245.475 588.14 245.25C587.075 248.67 585.785 252.315 584.495 255.735H659.855V280.575H571.865L569.945 283.575L597.77 285.075C597.56 287.22 595.85 288.495 591.77 289.35V299.415H613.175V283.14L647.855 285.06C647.645 287.205 645.92 288.705 641.645 289.335V299.4H657.065V323.595H641.645V376.695H659.84V400.89L659.81 400.92ZM529.205 314.43L544.4 314.865C544.4 317.22 544.4 320.64 544.19 323.85C543.545 379.725 542.9 407.34 539.69 420.195C550.175 415.695 561.32 408.21 569.24 400.92H545.9V376.725H563.675V323.625H548.9V299.43H563.675V291.51C561.965 293.655 560.03 295.575 558.11 297.285C555.32 294.495 550.61 291.075 546.125 287.865V295.14H506.735L506.09 314.415H529.22L529.205 314.43ZM613.13 323.64H591.725V328.56H613.13V323.64ZM613.13 352.545V347.4H591.725V352.545H613.13ZM591.725 371.385V376.74H613.13V371.385H591.725Z" fill="white"/>
<path d="M765.785 342.27L758.075 343.335V413.34C758.075 432.825 751.655 438.6 726.395 438.6C725.75 432.18 722.75 421.905 719.54 415.695C722.75 415.905 726.17 416.13 728.75 416.13C734.96 416.13 735.605 416.13 735.605 412.92V346.545L715.265 349.335C714.83 378.24 712.055 415.065 699.845 438.825C695.78 435.18 685.925 429.195 680.57 427.05C690.845 406.29 692.99 377.16 693.41 352.11L690.845 352.545C690.41 354.465 688.49 355.545 686.78 355.755L681.425 330.06L693.41 328.995V263.475H711.185C712.685 254.265 713.975 243.135 714.395 234.78L746.3 240.345C745.655 242.055 743.735 243.135 740.525 243.345C738.815 249.12 736.46 256.62 734.105 263.475H758.09V322.785L765.155 322.14L765.8 342.27H765.785ZM728.96 290.88C732.17 298.155 734.735 307.575 735.59 314.64H735.8L735.59 286.59H715.25V295.365L728.945 290.865L728.96 290.88ZM715.265 327.06L735.605 325.14V316.575L719.765 321.93C719.555 315.93 717.62 307.155 715.265 299.445V327.06ZM735.395 352.965C735.185 354.465 733.895 355.53 731.33 355.755V400.29H718.265V351.9L735.395 352.965ZM874.775 411.63H886.76V434.745H760.445V411.63H772.43V355.755H874.775V411.63ZM788.285 347.835V350.835H767.525V242.07H828.335V261.345H813.77V271.41H827.465V293.25C833.24 278.475 836.24 256.215 837.74 235.23L867.29 241.23C866.645 242.94 864.935 244.23 862.145 244.23C861.5 250.005 860.855 255.795 859.79 261.78H885.905V284.91H855.29C852.725 295.185 849.515 304.605 845.435 312.105C841.16 308.46 833.45 303.75 827.45 300.33V318.105H813.755V328.17H831.095V347.865H788.27L788.285 347.835ZM794.495 261.345H788.285V271.41H794.495V261.345ZM807.125 288.96H788.285V300.525H807.125V288.96ZM794.495 328.14V318.075H788.285V328.14H794.495ZM795.35 378.66V411.63H800.915V378.66H795.35ZM825.755 378.66H820.19V411.63H825.755V378.66ZM834.11 337.77V314.655H882.5V337.77H834.11ZM850.595 378.66H845.03V411.63H850.595V378.66Z" fill="white"/>
</svg>
