<svg width="503" height="32" viewBox="0 0 503 32" fill="none" xmlns="http://www.w3.org/2000/svg">
<path d="M31.78 10.64H29.5C28.85 15.19 27.78 19.06 26.09 22.25C27.65 24.33 29.63 26.02 32.14 27.16C31.07 28.1 29.64 29.96 28.95 31.22C26.61 29.95 24.69 28.33 23.16 26.38C21.18 28.46 18.67 30.12 15.52 31.36C15.1 30.25 13.93 28.27 13.18 27.33C16.4 26.22 18.81 24.53 20.63 22.26C19.85 20.67 19.2 18.91 18.65 17.06C18.32 17.58 17.97 18.07 17.58 18.52C17 17.8 15.82 16.63 14.85 15.79H11.99V21.81L15.7 21.1L16.12 25.59C11.24 26.76 6.01002 27.9 2.66002 28.61C2.60002 28.97 2.27002 29.16 1.98002 29.23L0.52002 23.86L2.44002 23.57V9.90997L7.42002 10.17C7.39002 10.53 7.13002 10.72 6.54002 10.82V22.85L7.58002 22.65V6.41998H1.40002V2.09998H16.36V6.41998H12V11.53H15.19V13.74C17.17 10.42 18.44 5.42 19.09 0.380005L24.68 1.48999C24.58 1.80999 24.26 2.00998 23.74 2.03998C23.51 3.46998 23.22 4.89999 22.89 6.29999H31.8V10.66L31.78 10.64ZM21.63 10.64L21.53 10.93C21.95 13.14 22.54 15.26 23.32 17.17C24 15.25 24.46 13.07 24.78 10.63H21.63V10.64Z" fill="white"/>
<path d="M46.09 7.93994L50.71 9.26996C50.58 9.55996 50.26 9.72992 49.77 9.72992C49.15 11.3599 48.31 13.1799 47.27 14.9999L49.03 15.5499C48.97 15.8399 48.67 16.0999 48.09 16.1699V31.2899H43.63V20.2399C43.17 20.7599 42.69 21.25 42.2 21.7C41.84 21.21 41.32 20.5299 40.74 19.8799C40.35 24.0099 39.47 28.33 37.75 31.46C36.9 30.65 34.82 29.28 33.72 28.83C36.29 24.15 36.48 17.1899 36.48 12.3799V3.59991H48.12V0.409912L54.04 0.739929C54.01 1.09993 53.75 1.31995 53.06 1.44995V3.59991H64.6V7.95996H46.1L46.09 7.93994ZM41.08 7.93994V12.39C41.08 13.59 41.05 14.96 40.98 16.39C42.96 13.92 44.52 10.6399 45.34 7.93994H41.08ZM52.07 24.95C51.65 23.29 50.44 20.72 49.31 18.84L53.08 17.3099C54.32 19.0999 55.52 21.4999 56.04 23.1599L52.07 24.95ZM64.75 12.0399V16.3699H61.76V26.3799C61.76 30.1799 60.72 31.39 53.96 31.39C53.8 30.09 53.18 28.1399 52.56 26.8699C54.09 26.9399 55.91 26.9399 56.46 26.9399C56.98 26.9399 57.18 26.7799 57.18 26.3199V16.3699H49.54V12.0399H57.18V8.39996L62.71 8.62994C62.68 8.98994 62.45 9.21991 61.77 9.34991V12.0499H64.76L64.75 12.0399Z" fill="white"/>
<path d="M70.2499 16.39C69.6999 17.2 69.1399 17.9499 68.5899 18.6299C68.2299 17.4299 67.2199 14.7299 66.6699 13.5599C69.0099 10.6699 71.3499 5.45996 72.7499 0.459961L77.8199 2.14996C77.6899 2.43996 77.3599 2.60995 76.8399 2.56995C76.1599 4.51995 75.4099 6.46995 74.5599 8.38995L75.6699 8.74994C75.5699 9.03994 75.2799 9.29996 74.7299 9.39996V31.3799H70.2399V16.39H70.2499ZM98.1199 10.1799H96.9799C96.5199 15.0199 95.7399 19.28 94.2799 22.83C95.3499 24.78 96.7199 26.47 98.5099 27.64C97.6999 28.45 96.3599 30.2399 95.7799 31.3499C94.2499 30.1499 93.0199 28.6799 92.0099 26.9899C90.7399 28.7099 89.2499 30.1799 87.3599 31.3499C86.8099 30.4399 85.4099 28.7499 84.5299 27.9999L85.0199 27.71H80.2699V30.1199H76.2399V15.1599H79.1699V10.28H75.6899V6.04993H79.1699V0.819946L84.3699 1.10992C84.3399 1.43992 84.0799 1.65995 83.4599 1.75995V6.04993H86.6799V10.0499C87.6599 7.24993 88.3399 3.80993 88.7299 0.429932L93.6399 1.43994C93.5399 1.76994 93.2499 1.92993 92.7599 1.92993C92.5299 3.35993 92.2399 4.81994 91.9099 6.24994H98.1199V10.1799ZM82.3499 23.71V19.1299H80.2699V23.71H82.3499ZM85.8599 15.1599C85.4699 14.7399 85.0499 14.3499 84.7199 14.0499C85.4399 13.0399 86.0499 11.74 86.5699 10.28H83.4499V15.1599H85.8599ZM86.4499 26.6699C87.8499 25.4999 88.9499 24 89.8299 22.28C89.1499 20.3 88.6299 18.2199 88.2399 16.1299C88.0499 16.4599 87.8199 16.7799 87.5899 17.1099C87.3299 16.7499 86.9099 16.26 86.4499 15.78V26.6699ZM90.8399 10.2199C91.0699 12.1399 91.3899 14.1199 91.8499 16.1099C92.2099 14.2899 92.4699 12.3099 92.6299 10.1899H90.8699L90.8399 10.2199Z" fill="white"/>
<path d="M107.61 9.03998L113.07 9.33002C113.04 9.69002 112.78 9.88001 112.13 10.01V31.31H107.61V23.86H106.5C106.44 26.27 105.92 29.19 103.51 31.31C102.76 30.43 101.14 29.16 100.06 28.58C101.85 27.18 102.4 25.39 102.53 23.87H100.9V19.77H107.6V18.34H106.14V18.89H102.01V9.65997L107.05 9.91998C107.02 10.28 106.79 10.47 106.14 10.57V14.41H107.6V9.03998H107.61ZM108.13 8.45001V6.95001H101.24V2.63H108.13V0.390015L113.79 0.679993C113.76 1.03999 113.47 1.27002 112.81 1.40002V2.64001H118.79V0.400024L124.48 0.690002C124.45 1.08 124.19 1.27997 123.5 1.40997V2.65002H130.52V6.96997H123.5V8.46997H118.79V6.96997H112.81V8.46997H108.13V8.45001ZM130.79 19.25H124.16V25.98H130.27V30.3H113.43V25.98H119.48V19.25H112.94V14.92H119.48V9.03998L125.14 9.33002C125.11 9.69002 124.81 9.90998 124.16 10.04V14.92H130.79V19.25Z" fill="white"/>
<path d="M156.25 22.99H151.8V6.5L149.36 9.90997C148.84 9.38997 148.19 8.84 147.44 8.25V9.84003H140.09V8.66998C139.41 9.34998 138.66 10 137.85 10.65H150.27V21.45H139.96C139.93 21.74 139.86 22.03 139.8 22.33H150.82V31.17H146.72V30.39H142.36V31.24H138.43V27.14C137.91 28.41 137.26 29.61 136.45 30.65C135.83 29.87 134.14 28.31 133.33 27.82C136.16 24.05 136.45 18.75 136.45 15.04V11.69C136.19 11.89 135.93 12.05 135.64 12.24C135.18 11.17 133.98 9.37998 133.17 8.59998C137.07 6.28998 139.74 3.17 141.23 0.369995L146.3 1.34998C146.2 1.66998 145.91 1.90002 145.42 1.90002L145.39 1.92999C147.76 3.22999 150.23 4.99001 151.8 6.26001V4.37L157.2 4.65997C157.17 5.01997 156.91 5.21003 156.26 5.34003V22.96L156.25 22.99ZM140.32 18.28H146.08V17.4H140.39L140.32 18.28ZM146.08 13.89H140.46V14.7H146.08V13.89ZM145.4 6.77002C144.65 6.25002 143.9 5.76002 143.16 5.27002C142.77 5.79002 142.38 6.28002 141.92 6.77002H145.4ZM146.73 25.66H142.37V27.09H146.73V25.66ZM158.83 1.08002L164.39 1.31C164.33 1.67 164.1 1.93003 163.41 2.03003V25.8C163.41 29.83 162.4 31.26 155.22 31.26C155.06 29.93 154.37 27.78 153.72 26.41C155.51 26.51 157.39 26.51 158.04 26.51C158.59 26.51 158.82 26.31 158.82 25.76V1.08002H158.83Z" fill="white"/>
<path d="M177.52 14.4099V15.7399C179.15 16.9099 182.2 19.4099 182.98 20.0999L180.31 24.2C179.59 23.26 178.55 22.0499 177.51 20.9199V31.2899H172.89V21.08C171.65 23.52 170.22 25.7899 168.73 27.4199C168.27 26.0199 167.14 24.0099 166.36 22.7399C168.51 20.6599 170.59 17.4099 171.95 14.4199H167.14V10.0599H172.9V6.90991C171.31 7.29991 169.71 7.61995 168.15 7.88995C167.92 6.84995 167.24 5.21997 166.72 4.27997C171.14 3.39997 175.86 1.96991 178.82 0.409912L182.69 3.94995C182.5 4.14995 182.23 4.14996 181.71 4.14996C180.51 4.69996 179.08 5.21993 177.52 5.67993V10.0699H182.82V14.4299H177.52V14.4099ZM189.68 4.68994C189.65 5.04994 189.39 5.26993 188.74 5.36993V22.9899H184.15V4.38995L189.68 4.67993V4.68994ZM191.66 1.07996L197.32 1.33997C197.29 1.69997 197.06 1.95994 196.34 2.05994V25.7299C196.34 30.1199 195.07 31.3199 187.5 31.3199C187.31 29.9499 186.56 27.7399 185.87 26.4099C187.92 26.5099 190.06 26.5099 190.78 26.5099C191.4 26.5099 191.66 26.31 191.66 25.7V1.07996Z" fill="white"/>
<path d="M226.72 14.64L230 16.23C229.9 16.46 229.67 16.59 229.45 16.75C225.61 26.02 216.67 29.76 205.13 31.28C204.74 30.01 203.86 28.06 203.08 26.99C207.4 26.6 211.34 25.82 214.72 24.55C213.84 23.84 212.87 23.12 212.02 22.53L215.5 20.03C216.57 20.68 217.91 21.56 218.98 22.44C220.57 21.4 221.94 20.16 222.98 18.7H216.28C213.74 20.42 210.72 21.98 207.08 23.32C206.49 22.21 205.16 20.46 204.22 19.65C209.1 18.22 212.74 16.27 215.31 14.12V14.09C211.57 16.01 207.25 17.31 202.73 18.19C202.31 17.02 201.4 15.2 200.58 14.19C204.19 13.67 207.7 12.76 210.82 11.52C210.04 11 209.23 10.51 208.51 10.12L211.7 7.54999C212.74 8.03999 214.01 8.72002 215.05 9.40002C216.48 8.55002 217.75 7.58001 218.82 6.51001H212.02C209.78 8.04001 207.11 9.44002 203.96 10.71C203.31 9.60002 201.85 7.97998 200.84 7.22998C206.56 5.46998 210.46 2.90002 212.68 0.27002L218.31 1.44C218.21 1.77 217.85 1.98999 217.33 1.98999L216.68 2.66998H222.21L222.96 2.51001L226.24 4.22998C226.11 4.45998 225.91 4.58997 225.65 4.71997C224.09 7.54997 221.81 9.92003 219.05 11.84L223.44 12.78C223.31 13.14 222.95 13.37 222.4 13.37C221.98 13.86 221.52 14.35 221.03 14.8H225.94L226.72 14.64Z" fill="white"/>
<path d="M241.84 31.2499V16.8099H254.75V31.1199H250.04V30.2399H246.3V31.2499H241.84ZM250.03 21.33H246.29V25.7199H250.03V21.33ZM264.79 1.45996V14.5999H247.26V1.45996H264.79ZM259.95 10.1099V5.97992H251.82V10.1099H259.95ZM257.06 16.8099H270.29V30.9899H265.54V30.21H261.57V31.1199H257.05V16.8099H257.06ZM261.58 25.6899H265.55V21.33H261.58V25.6899Z" fill="white"/>
<path d="M279.27 12.72C279.27 14.41 279.27 14.96 279.24 15.87H285.26V30.11H281.33V19.8H279.09C278.83 23.77 278.28 28.03 277.17 31.25C276.26 30.83 274.47 30.21 273.4 29.95C275.16 25.24 275.42 17.76 275.42 13.33V1.35999L280.17 1.62C280.14 1.95 279.88 2.13999 279.29 2.23999V8.73999H281.01V0.419983L285.79 0.679993C285.76 1.00999 285.53 1.19999 284.91 1.29999V8.75H286.89V12.72H279.28H279.27ZM304.57 21.79V25.69H300.05V31.28H295.63V25.69H286.27V21.79H289.88C289.16 21.04 287.93 19.97 287.15 19.48C289.36 18.67 290.79 17.59 291.77 16.42H287.77V3.92999H292C292.49 2.75999 292.98 1.38998 293.24 0.349976L298.74 1.67999C298.61 1.96999 298.32 2.09998 297.8 2.09998C297.51 2.64998 297.12 3.29998 296.73 3.91998H303.56V16.41H296.47L296.11 17.09L301.02 17.35C300.99 17.71 300.73 17.9 300.08 18V21.77H304.6L304.57 21.79ZM295.63 17.86C294.62 19.39 293.06 20.75 290.72 21.79H295.63V17.86ZM291.89 7.41998V8.56H293.52V7.41998H291.89ZM291.89 12.95H293.35C293.41 12.56 293.45 12.17 293.48 11.78H291.89V12.95ZM299.21 12.95V11.78H297.45L297.35 12.95H299.2H299.21ZM299.21 8.56V7.41998H297.45V8.56H299.21Z" fill="white"/>
<path d="M315 11.1201L317.6 11.8401C317.57 12.1001 317.47 12.3901 317.34 12.5901C316.98 16.8201 316.3 20.4901 315.29 23.5201C318.25 25.6001 322.15 26.0201 326.57 26.0601C328.88 26.0601 335.28 26.0601 338.05 25.9301C337.33 27.0001 336.55 29.18 336.26 30.55H326.44C321.2 30.55 316.88 29.9701 313.43 27.6201C312.52 29.1801 311.41 30.4801 310.15 31.4601C309.43 30.5501 307.61 28.8901 306.61 28.3101C308.04 27.3001 309.18 26.0001 310.09 24.3401C308.89 22.6801 307.85 20.6001 307 18.0001L310.67 16.73C311.03 17.84 311.45 18.7801 311.91 19.6201C312.24 18.3201 312.5 16.8901 312.69 15.3301H311.39L311.06 16.0801L306.8 15.0101C308.07 12.2501 309.5 8.96004 310.64 6.17004H306.93V2.07007H313.17L314.05 1.97003L316.68 2.85004C316.58 3.08004 316.45 3.37004 316.32 3.60004C315.54 5.62004 314.37 8.41005 313.17 11.2401H314.21L314.99 11.1401L315 11.1201ZM323.97 6.76007V6.01007H318.64V2.50006H323.97V0.320068L329.5 0.610046C329.47 0.970046 329.21 1.20004 328.56 1.29004V2.49005H334.84V6.75006H337.57V10.3301H334.84V14.5901H328.56V15.3401H335.36V18.6901H328.56V19.47H336.82V23.1401H328.56V25.48H323.98V23.1401H316.63V19.47H323.98V18.6901H318.06V15.3401H323.98V14.5901H318.55V11.0801H323.98V10.3301H316.18V6.75006H323.98L323.97 6.76007ZM330.18 6.01007H328.55V6.76007H330.18V6.01007ZM330.18 11.0801V10.3301H328.55V11.0801H330.18Z" fill="white"/>
<path d="M353.05 5.78998V9.46002H340.01V5.78998H353.05ZM366.87 14.24L369.86 15.38C369.8 15.64 369.63 15.77 369.47 15.97C368.53 19.51 367 22.41 364.92 24.78C366.74 25.82 368.85 26.63 371.16 27.19C370.12 28.13 368.75 30.05 368.1 31.25C365.53 30.47 363.25 29.36 361.27 27.93C359.22 29.33 356.85 30.43 354.15 31.25C353.69 30.11 352.65 28.32 351.81 27.28V29.65H345.44V30.79H341.47V19.51H351.81V27.05C353.99 26.53 355.97 25.75 357.7 24.71C356.43 23.28 355.36 21.69 354.42 19.9L358.48 18.6H353.47V14.37H354.8C354.05 13.56 352.72 12.45 351.84 11.9V13.95H341.6V10.44H351.84V11.61C354.47 9.71999 354.73 7.25001 354.73 5.14001V1.27002H366.11V8.20001C366.11 9.18001 366.14 9.27002 366.4 9.27002H366.76C367.08 9.27002 367.21 8.84999 367.28 6.17999C368.09 6.85999 369.91 7.55003 371.08 7.84003C370.69 12.03 369.62 13.24 367.24 13.24H365.52C362.56 13.24 361.68 12.04 361.68 8.26001V5.42999H359.18C359.15 8.44999 358.53 12.06 355.67 14.37H366.04L366.85 14.24H366.87ZM351.85 14.92V18.43H341.61V14.92H351.85ZM351.82 1.33002V4.84003H341.71V1.33002H351.82ZM347.79 25.95V23.19H345.45V25.95H347.79ZM358.62 18.6C359.27 19.8 360.15 20.94 361.19 21.95C362.13 20.98 362.91 19.84 363.56 18.6H358.62Z" fill="white"/>
<path d="M383.42 20.98V25.24C385.6 25.95 387.87 25.95 393.56 25.95C397.17 25.95 401.95 25.92 404.42 25.79C403.7 26.86 402.92 29.04 402.63 30.47H389.88C384.06 30.47 380.13 29.76 377.52 26.21C377.23 28.26 376.84 30.15 376.35 31.61C375.5 31.09 373.85 30.41 372.81 30.05C373.85 26.8 374.21 20.91 374.31 15.48L379.06 16.2C378.99 16.53 378.73 16.69 378.28 16.72L378.18 19.09C378.47 20.16 378.86 21.07 379.29 21.82V14.02H373.44V9.85999H379.13V7.45001H374.29V3.39001H379.13V0.369995L384.37 0.659973C384.34 0.989973 384.08 1.21 383.46 1.31V3.39001H387.49V7.45001H383.46V9.85999H387.95V11.03C389.97 9.83003 391.14 7.88002 391.66 5.40002H388.6V1.5H399.66L400.64 1.42999L403.14 1.65997L403.04 2.90002C402.84 8.27002 402.52 10.67 401.77 11.65C400.73 12.88 399.4 13.11 395.75 13.05C395.69 12.01 395.33 10.58 394.84 9.53998C393.96 11.36 392.73 12.82 391.13 13.9H402.32V25.05H397.83V24.07H393.6V25.18H389.31V13.9H390.87C390.19 13.25 388.92 12.31 387.94 11.66V14.03H383.42V16.92H387.39V20.98H383.42ZM397.82 17.73H393.59V20.23H397.82V17.73ZM396.13 5.40997C395.9 6.77997 395.51 8.01002 395.02 9.15002C395.61 9.18002 396.13 9.21002 396.55 9.21002C398.01 9.21002 398.21 9.20997 398.44 5.40997H396.13Z" fill="white"/>
<path d="M433.6 2.34998C433.44 2.60998 433.08 2.74002 432.56 2.71002C431.91 3.49002 431.03 4.40002 430.15 5.21002H436.72V9.46997H406.87V5.21002H413.7C412.98 4.20002 412.01 3.06 411.13 2.19L415.52 0.340027C416.89 1.54003 418.48 3.3 419.23 4.63L417.83 5.21002H426.12L424.66 4.59003C425.83 3.39003 427.23 1.62998 428.04 0.22998L433.6 2.34003V2.34998ZM421.47 11.32V27.03C421.47 30.35 420.23 31.39 415.29 31.39C415.06 30.22 414.41 28.46 413.83 27.42C414.38 27.45 415.03 27.49 415.55 27.49C416.79 27.49 416.92 27.49 416.92 26.97V24.92H413.28V31.26H408.83V11.33H421.48L421.47 11.32ZM416.92 15.26H413.28V16.63H416.92V15.26ZM413.28 21.5H416.92V20.04H413.28V21.5ZM428.86 11.97C428.83 12.33 428.57 12.52 427.92 12.65V25.01H423.43V11.68L428.86 11.97ZM434.65 26.47C434.65 29.59 434 31.44 427.3 31.35C427.07 30.08 426.32 28.1 425.64 26.89C426.58 26.95 427.59 26.99 428.34 26.99C429.84 26.99 430 26.99 430 26.4V10.82L435.62 11.05C435.56 11.41 435.33 11.67 434.64 11.76V26.46L434.65 26.47Z" fill="white"/>
<path d="M451.42 7.47998L455.26 8.52002C455.13 8.81002 454.84 8.94 454.35 8.94C453.99 9.98 453.47 11.28 452.95 12.39H456.53V16.65H439.69V12.39H443.01C442.91 11.25 442.55 9.56002 442.1 8.33002L445.87 7.54999C446.42 8.81999 446.88 10.54 447.01 11.71L444.05 12.39H449.42L449 12.26C449.52 10.93 450.14 8.97998 450.43 7.47998H440.32V3.41998H445.98V0.390015L451.51 0.679993C451.48 1.03999 451.22 1.26999 450.57 1.35999V3.40997H456.16V7.46997H451.45L451.42 7.47998ZM441.37 31.35V18.41H455.25V31.22H450.67V29.85H445.73V31.35H441.37ZM450.67 22.47H445.73V25.79H450.67V22.47ZM467.58 2.04999L470.54 3.12C470.51 3.38 470.41 3.57999 470.21 3.73999C469.33 6.56999 468.23 9.95002 466.89 13.46C469.56 16.78 470.4 19.02 470.4 21.04C470.4 27.48 466.01 27.54 464.19 27.54C463.87 27.54 463.51 27.54 463.18 27.51C463.15 26.37 462.66 24.58 461.98 23.35V31.28H457.36V2.21002H466.63L467.57 2.04999H467.58ZM461.99 6.63V23.05C462.77 23.12 463.42 23.12 463.88 23.12C465.47 23.12 465.83 22.4 465.83 20.81C465.83 19.22 464.92 17.4 462.22 14.24C463.1 11.48 463.81 8.94 464.43 6.63H461.99Z" fill="white"/>
<path d="M495.7 12.2C496.81 11.32 497.81 10.41 498.69 9.44L502.92 12.14C502.76 12.3 502.5 12.4 502.2 12.4C502.07 12.4 501.94 12.37 501.78 12.33C500.97 13.18 500.06 13.99 499.11 14.74H502.88V18.41H493.74C493.15 18.74 492.57 19.06 491.95 19.39H500.18V31.36H495.34V30.55H484.67V31.36H480.05V24.08C478.2 24.63 476.31 25.12 474.42 25.54C474.03 24.53 473.05 22.68 472.37 21.7C474.94 21.21 477.54 20.56 480.04 19.81V19.39H481.41C482.32 19.1 483.26 18.77 484.17 18.41H473.57V14.74H484.79V13.63H477.08V10.12H484.79V9.04999H475.13V1.38H501.24V9.04999H490.15C490.02 9.20999 489.76 9.31 489.37 9.37V10.12H495.68V12.2H495.7ZM482.37 5.89001V4.48999H479.64V5.89001H482.37ZM495.34 22.51H484.84L484.68 22.58V23.46H495.35V22.52L495.34 22.51ZM484.67 27.29H495.34V26.28H484.67V27.29ZM486.65 4.5V5.90002H489.41V4.5H486.65ZM489.38 13.64V14.75H491.98C492.6 14.39 493.18 14.04 493.74 13.64H489.38ZM493.7 4.5V5.90002H496.53V4.5H493.7Z" fill="white"/>
</svg>
