<?xml version="1.0" encoding="utf-8"?>
<!-- Generator: Adobe Illustrator 27.0.0, SVG Export Plug-In . SVG Version: 6.00 Build 0)  -->
<svg version="1.1" id="_圖層_2" xmlns="http://www.w3.org/2000/svg" xmlns:xlink="http://www.w3.org/1999/xlink" x="0px" y="0px"
	 viewBox="0 0 181.4 96.4" style="enable-background:new 0 0 181.4 96.4;" xml:space="preserve">
<style type="text/css">
	.st0{fill:#FFFFFF;}
</style>
<g id="_圖層_1-2">
	<g>
		<g>
			<path class="st0" d="M81.2,36v2.1h-15V36h6.1v-1.3l3,0.2c0,0.2-0.1,0.3-0.5,0.3V36H81.2L81.2,36z M80.6,48.2c0,1.1-0.2,1.7-0.9,2
				c-0.7,0.4-1.6,0.4-2.7,0.4c-0.1-0.4-0.2-0.8-0.3-1.3h-4.2V50h-2.1v-4.6h6.4v2.9c0.4,0,0.8,0,1,0c0.2,0,0.3-0.1,0.3-0.2v-3.2h-8.9
				v5.8h-2.3v-7.8h13.7V48.2z M69,38.5h9.3v3.8H69C69,42.3,69,38.5,69,38.5z M75.9,40.1h-4.5v0.7h4.5V40.1z M74.8,47.1h-2.2v0.7h2.2
				V47.1z M78.3,38.5L78.3,38.5L78.3,38.5L78.3,38.5L78.3,38.5z"/>
			<path class="st0" d="M87.3,42c0.5,0.4,2,1.9,2.3,2.3l-1.4,1.9c-0.2-0.4-0.5-1.1-0.9-1.7v6.2h-2.4v-5.3c-0.4,1.1-0.9,2.1-1.5,2.8
				c-0.2-0.7-0.7-1.7-1.1-2.3c0.8-1,1.6-2.6,2.1-4.1h-1.8v-2.3h2.3V38c-0.6,0.2-1.2,0.3-1.8,0.4c-0.1-0.5-0.4-1.3-0.7-1.8
				c1.9-0.4,4-1.1,5.3-1.9l1.9,1.7c-0.1,0.1-0.3,0.1-0.5,0.1c-0.5,0.2-1.2,0.5-1.8,0.7v2.2h1.8v2.3h-1.9L87.3,42L87.3,42z
				 M98.4,46.1l-1.9,0.4v4.2H94V47l-4.6,0.8L89,45.5l5-0.9v-9.8l3,0.2c0,0.2-0.2,0.3-0.5,0.4v8.8l1.6-0.3L98.4,46.1L98.4,46.1z
				 M92,44.2c-0.5-0.8-1.6-1.9-2.5-2.7l1.6-1.4c0.9,0.7,2.1,1.8,2.7,2.6L92,44.2L92,44.2z M91.4,35.7c0.9,0.8,2,1.9,2.5,2.7L92,39.9
				c-0.4-0.8-1.5-2-2.3-2.8C89.7,37,91.4,35.7,91.4,35.7z"/>
			<path class="st0" d="M105.2,41.9l0.2,2.1c-0.6,0.2-1.1,0.4-1.7,0.5v3.6c0,1.9-0.6,2.5-3.5,2.5c-0.1-0.6-0.4-1.6-0.7-2.2
				c0.6,0,1.3,0,1.5,0c0.2,0,0.3-0.1,0.3-0.3v-2.9c-0.4,0.1-0.8,0.2-1.2,0.3c0,0.2-0.2,0.3-0.3,0.3l-0.7-2.7
				c0.6-0.1,1.4-0.2,2.2-0.4V40h-1.9v-2.3h1.9v-3l2.9,0.1c0,0.2-0.2,0.3-0.5,0.4v2.5h1.6v2.2h-1.6v2.2L105.2,41.9L105.2,41.9z
				 M113,41l1.6,0.7c0,0.1-0.1,0.2-0.2,0.3c-0.5,2-1.4,3.7-2.6,5c1,0.7,2.2,1.2,3.5,1.6c-0.5,0.5-1.2,1.4-1.6,2.1
				c-1.4-0.5-2.7-1.2-3.8-2c-1.2,0.9-2.7,1.5-4.3,2c-0.2-0.6-0.8-1.6-1.3-2.1c1.5-0.4,2.8-0.9,3.9-1.6c-0.7-0.9-1.3-1.9-1.8-3.1
				l1.6-0.5h-2.4v-2.3h3.2v-1.8h-3.3v-2.2h3.3v-2.4l3,0.2c0,0.2-0.2,0.3-0.5,0.4v1.8h3.7v2.2h-3.7v1.8h1.4L113,41L113,41z
				 M108.6,43.3c0.3,0.7,0.8,1.4,1.3,2c0.5-0.6,1-1.3,1.4-2H108.6z"/>
		</g>
		<g>
			<path class="st0" d="M70.2,56.6h-1.5v4.9h-1.1v-4.9h-1.4v-1h4V56.6z"/>
			<path class="st0" d="M74.2,61.5h-3.3v-5.9h3.2v1h-2V58H74v0.9h-1.9v1.6h2.2C74.2,60.6,74.2,61.5,74.2,61.5z"/>
			<path class="st0" d="M78.8,61.4c-0.2,0.1-0.7,0.2-1.3,0.2c-1.8,0-2.8-1.2-2.8-3c0-2.1,1.3-3.1,2.9-3.1c0.6,0,1,0.1,1.2,0.2
				l-0.2,1c-0.2-0.1-0.5-0.2-0.9-0.2c-1,0-1.8,0.7-1.8,2.1c0,1.3,0.7,2,1.8,2c0.4,0,0.7-0.1,1-0.2L78.8,61.4L78.8,61.4z"/>
			<path class="st0" d="M83.9,61.5h-1.1V59h-2v2.5h-1.1v-5.9h1.1V58h2v-2.4h1.1V61.5z"/>
			<path class="st0" d="M89.3,61.5h-1.1l-1.3-2.4c-0.3-0.6-0.7-1.3-0.9-2l0,0c0,0.7,0.1,1.5,0.1,2.6v1.8h-1v-5.9h1.2l1.2,2.4
				c0.3,0.6,0.6,1.3,0.9,1.9l0,0c-0.1-0.8-0.1-1.6-0.1-2.5v-1.8h1V61.5L89.3,61.5z"/>
			<path class="st0" d="M95.2,58.5c0,2-1,3.1-2.5,3.1c-1.6,0-2.4-1.3-2.4-3s1-3.1,2.5-3.1C94.4,55.5,95.2,56.9,95.2,58.5L95.2,58.5z
				 M91.4,58.6c0,1.2,0.5,2.1,1.3,2.1c0.8,0,1.3-0.9,1.3-2.1c0-1.1-0.4-2.1-1.3-2.1C91.8,56.5,91.4,57.5,91.4,58.6L91.4,58.6z"/>
			<path class="st0" d="M99.3,61.5h-3.2v-5.9h1.1v4.9h2.1C99.3,60.5,99.3,61.5,99.3,61.5z"/>
			<path class="st0" d="M104.7,58.5c0,2-1,3.1-2.5,3.1c-1.6,0-2.4-1.3-2.4-3s1-3.1,2.5-3.1C103.9,55.5,104.7,56.9,104.7,58.5
				L104.7,58.5z M100.9,58.6c0,1.2,0.5,2.1,1.3,2.1c0.8,0,1.3-0.9,1.3-2.1c0-1.1-0.4-2.1-1.3-2.1C101.3,56.5,100.9,57.5,100.9,58.6
				L100.9,58.6z"/>
			<path class="st0" d="M109.8,61.3c-0.3,0.1-1,0.3-1.7,0.3c-0.9,0-1.6-0.2-2.1-0.7s-0.8-1.3-0.8-2.2c0-2,1.3-3.1,3-3.1
				c0.6,0,1.1,0.1,1.4,0.2l-0.2,0.9c-0.3-0.1-0.6-0.2-1.1-0.2c-1,0-1.8,0.6-1.8,2.1s0.7,2,1.7,2c0.3,0,0.5,0,0.6-0.1v-1.4H108v-0.9
				h1.9L109.8,61.3L109.8,61.3z"/>
			<path class="st0" d="M114.8,55.6l-1.7,3.5v2.4H112v-2.4l-1.7-3.5h1.3l0.6,1.5c0.2,0.4,0.3,0.8,0.4,1.2l0,0
				c0.1-0.4,0.3-0.8,0.4-1.2l0.6-1.4L114.8,55.6L114.8,55.6z"/>
		</g>
	</g>
</g>
<g>
	<path class="st0" d="M95.4,83.6H99v0.8h-1.5c-0.2,0.8-0.3,1.5-0.6,2.2h1.9v4.4h-2v0.8h-0.8v-3.4c-0.1,0.2-0.3,0.5-0.5,0.7
		c0-0.2-0.2-0.8-0.4-1c0.7-0.9,1.1-2.2,1.3-3.6h-1.2V83.6z M98,87.5h-1.2v2.7H98V87.5z M104.5,88.1h-1.1v4.2h-0.9v-4.2h-1.4
		c0,1.5-0.3,3.2-1.4,4.3c-0.2-0.2-0.5-0.4-0.7-0.5c0.9-1,1.2-2.5,1.2-3.7h-1v-0.9h1v-2.7h-0.8v-0.9h4.8v0.9h-0.9v2.7h1.1V88.1z
		 M102.5,87.2v-2.7h-1.4v2.7H102.5z"/>
	<path class="st0" d="M114.8,84.7c-0.4,0.4-0.9,0.7-1.3,1c0.5,0.3,1,0.5,1.6,0.6c-0.2,0.2-0.4,0.5-0.6,0.7c-0.5-0.1-0.9-0.3-1.3-0.6
		v1.1c0,0.2,0,0.3,0.2,0.3h0.6c0.1,0,0.4,0,0.5,0c0,0.2,0,0.5,0.1,0.6c-0.1,0-0.3,0-0.5,0h-0.7c-0.7,0-0.8-0.3-0.8-1v-0.8h-1.2v0
		c0,0.7-0.2,1.5-1.1,2c-0.1-0.1-0.4-0.4-0.6-0.5v0.2h-2c0,0.3-0.1,0.6-0.1,0.9h2.2c0,0,0,0.2,0,0.4c-0.1,1.4-0.2,2-0.5,2.2
		c-0.2,0.2-0.4,0.2-0.7,0.3c-0.3,0-0.8,0-1.3,0c0-0.2-0.1-0.6-0.3-0.8c0.5,0,1,0.1,1.2,0.1c0.2,0,0.3,0,0.4-0.1
		c0.1-0.1,0.2-0.5,0.3-1.3h-2.2c0.1-0.6,0.3-1.5,0.4-2.3h1.9v-0.9h-1.5v-0.1c-0.3,0.2-0.7,0.3-1,0.4c-0.1-0.2-0.3-0.5-0.5-0.7
		c0.6-0.2,1.3-0.5,1.8-0.9c-0.3-0.2-0.7-0.5-1-0.7l0.5-0.5c0.4,0.2,0.8,0.5,1.1,0.8c0.3-0.3,0.6-0.6,0.8-0.9h-2.2v-0.7h2.6l0.2,0
		l0.6,0.3c-0.4,1-1.1,1.8-2,2.4h1.4v2.1c0.7-0.4,0.8-0.9,0.8-1.4v-0.7h2.1c-1-0.7-1.7-1.6-2.2-2.7l0.7-0.2c0.2,0.4,0.4,0.7,0.7,1.1
		c0.4-0.3,0.9-0.7,1.1-1l0.7,0.5c-0.4,0.4-0.9,0.8-1.3,1.1c0.2,0.2,0.4,0.4,0.6,0.5c0.4-0.3,0.9-0.8,1.2-1.1L114.8,84.7z M114,89.1
		c-0.3,0.7-0.7,1.3-1.2,1.8c0.5,0.3,0.9,0.6,1.3,0.8l-0.5,0.6c-0.3-0.3-0.8-0.6-1.4-0.9c-0.6,0.4-1.4,0.7-2.2,0.9
		c-0.1-0.2-0.3-0.5-0.4-0.7c0.7-0.1,1.4-0.4,1.9-0.7c-0.5-0.3-1-0.6-1.5-0.9l0.4-0.5h-0.3V89h3.3l0.1,0L114,89.1z M110.5,89.6
		c0.5,0.3,1.1,0.6,1.6,0.9c0.3-0.3,0.6-0.6,0.8-0.9H110.5z"/>
	<path class="st0" d="M124.9,84.9v4.8h-1v-0.5h-2.6v3.2h-1v-3.2h-2.6v0.6h-0.9v-4.8h3.5v-1.7h1v1.7H124.9z M120.4,88.2v-2.4h-2.6
		v2.4H120.4z M124,88.2v-2.4h-2.6v2.4H124z"/>
	<path class="st0" d="M128.6,86.8c-0.2,1.2-0.4,2.9-0.8,4l-0.9-0.4c0.4-1,0.7-2.5,0.8-3.8L128.6,86.8z M130.3,85.9v4.8
		c0,0.5,0.1,0.5,0.6,0.5h1.7c0.6,0,0.7-0.3,0.7-2c0.2,0.2,0.6,0.3,0.9,0.4c-0.1,1.9-0.4,2.4-1.5,2.4h-1.8c-1.2,0-1.5-0.3-1.5-1.4
		v-4.8H130.3z M130.4,83.4c0.9,0.6,2.1,1.5,2.7,2.1l-0.7,0.7c-0.5-0.6-1.7-1.6-2.7-2.2L130.4,83.4z M134.7,86.3
		c0.6,1.2,1.1,2.7,1.3,3.7l-0.9,0.4c-0.2-1-0.7-2.6-1.2-3.8L134.7,86.3z"/>
	<path class="st0" d="M137.2,87.6c0.2-0.7,0.4-1.8,0.5-2.6l0.7,0.1c-0.1,0.8-0.2,2-0.5,2.7L137.2,87.6z M140.1,86.3
		c-0.1-0.4-0.3-0.9-0.5-1.4v7.3h-0.9v-9.2h0.9v1.6l0.5-0.2c0.2,0.5,0.5,1.1,0.6,1.5L140.1,86.3z M145.9,91.3c0,0.4-0.1,0.7-0.4,0.8
		c-0.3,0.1-0.8,0.1-1.5,0.1c0-0.2-0.1-0.6-0.3-0.8c0.5,0,0.9,0,1.1,0c0.1,0,0.2,0,0.2-0.2v-0.6h-3.3c-0.1,0.6-0.3,1.2-0.7,1.6
		c-0.1-0.2-0.5-0.5-0.7-0.6c0.6-0.7,0.6-1.7,0.6-2.5v-1.8h4.9V91.3z M146.4,86.3V87h-6.1v-0.7h2.5v-0.6h-2v-0.6h2v-0.5h-2.3v-0.7
		h2.3v-0.7h0.9v0.7h2.3v0.7h-2.3v0.5h2v0.6h-2v0.6H146.4z M145,90.1v-0.6h-3.1c0,0.2,0,0.4,0,0.6H145z M141.8,88.2v0.6h3.1v-0.6
		H141.8z"/>
	<path class="st0" d="M151,89.9c-1,0.4-2.1,0.9-3,1.2l-0.3-0.9c0.3-0.1,0.8-0.2,1.2-0.4v-3.3h-1v-0.9h1v-2.3h0.9v2.3h0.9v0.9h-0.9v3
		l1-0.4L151,89.9z M155.7,91.4c0.1,0,0.2,0,0.3,0c0.1,0,0.1-0.1,0.1-0.2c0-0.1,0-0.4,0-0.8c0.2,0.2,0.5,0.3,0.7,0.4
		c0,0.4-0.1,0.8-0.1,0.9c-0.1,0.2-0.2,0.3-0.4,0.3c-0.2,0.1-0.4,0.1-0.6,0.1h-0.7c-0.2,0-0.5-0.1-0.7-0.2c-0.2-0.1-0.2-0.3-0.2-0.9
		v-1.4h-0.8c-0.2,1.4-0.7,2.2-2.5,2.6c-0.1-0.2-0.3-0.6-0.5-0.7c1.6-0.3,2-0.8,2.1-1.9h-0.9v-2.9h4.6v2.9H155v1.4
		c0,0.1,0,0.2,0.1,0.3c0.1,0,0.1,0,0.2,0H155.7z M156.7,86.4h-5.6v-0.8h1.3c-0.1-0.2-0.2-0.6-0.3-0.8l0.8-0.2c0.1,0.3,0.3,0.7,0.3,1
		l-0.2,0h1.4c0.1-0.3,0.3-0.7,0.4-1l0.8,0.2c-0.1,0.3-0.3,0.6-0.4,0.8h1.4V86.4z M156.4,84.6h-5v-0.8h2.1c-0.1-0.2-0.1-0.4-0.2-0.6
		l0.9-0.2c0.1,0.2,0.2,0.5,0.3,0.7h2V84.6z M152.4,88h2.9v-0.5h-2.9V88z M152.4,89.1h2.9v-0.6h-2.9V89.1z"/>
	<path class="st0" d="M161.1,88.3c-0.5,1.2-1.2,2.4-2,3.1c-0.2-0.2-0.6-0.5-0.9-0.6c0.8-0.7,1.4-1.7,1.8-2.8L161.1,88.3z
		 M163.3,87.1v5.1h-1v-5.1h-3.8v-0.9h8.8v0.9H163.3z M166.4,84.7h-7v-0.9h7V84.7z M165.7,88c0.7,0.9,1.5,2.2,1.8,3l-1,0.4
		c-0.2-0.8-1-2.1-1.7-3L165.7,88z"/>
	<path class="st0" d="M169,91.6c0.5-0.4,0.9-1.1,1.2-1.7l0.8,0.3c-0.3,0.6-0.7,1.4-1.2,1.8L169,91.6z M177.7,86.1h-8.5v-0.7h2.2
		c-0.1-0.2-0.2-0.5-0.3-0.7l0.7-0.1h-2.1v-0.7h3.4c-0.1-0.2-0.2-0.4-0.3-0.6l0.9-0.2c0.1,0.2,0.3,0.5,0.4,0.8h3.1v0.7h-2l0.7,0.1
		c-0.1,0.3-0.3,0.5-0.4,0.7h2.3V86.1z M176.6,89.5h-3.3c0.5,0.2,1,0.6,1.3,0.8l-0.6,0.6c-0.3-0.3-1-0.8-1.6-1.1l0.4-0.3h-2.5v-2.9
		h6.3V89.5z M175.6,87.2h-4.5v0.6h4.5V87.2z M175.6,88.3h-4.5v0.6h4.5V88.3z M174.4,91.4c0.4,0,0.5-0.1,0.5-0.9
		c0.2,0.1,0.6,0.2,0.8,0.3c-0.1,1.1-0.4,1.4-1.2,1.4h-1.8c-1.1,0-1.4-0.2-1.4-1V90h0.9v1.2c0,0.2,0.1,0.3,0.6,0.3H174.4z
		 M171.9,84.5c0.2,0.3,0.3,0.6,0.4,0.9h2.2c0.1-0.3,0.3-0.6,0.4-0.9H171.9z M176.5,89.8c0.5,0.5,1,1.2,1.3,1.7l-0.8,0.4
		c-0.2-0.5-0.7-1.2-1.2-1.8L176.5,89.8z"/>
</g>
</svg>
